ply
format ascii 1.0
element vertex 2048
property float x
property float y
property float z
end_header
352.58499146 168.77099609 379.77099609
124.07215118 191.61497498 535.09533691
146.83190918 177.18479919 322.98034668
236.52871704 255.84405518 442.09506226
142.57635498 116.21604919 434.12332153
127.08287048 228.81176758 420.48730469
335.87597656 215.34800720 480.19400024
248.89294434 180.61003113 372.52832031
202.28337097 245.05860901 526.50720215
191.55270386 247.74006653 361.34112549
193.81680298 181.58518982 462.80484009
305.33184814 241.03567505 400.76751709
193.84683228 116.17024231 364.17282104
101.74006653 161.57058716 384.91732788
270.91299438 192.29100037 445.40597534
110.16260529 174.00265503 464.99520874
261.06341553 247.39988708 505.86587524
150.17520142 225.76954651 484.77407837
132.12867737 118.75901794 348.54974365
129.91735840 228.98554993 356.89895630
204.73806763 169.26309204 402.60147095
249.88128662 245.71908569 378.56594849
351.41900635 211.50498962 423.37997437
292.33465576 248.38009644 457.33447266
203.47634888 200.10096741 333.55361938
180.79151917 247.49090576 417.08642578
299.59899902 167.06199646 360.77401733
178.71195984 193.87890625 520.61688232
135.07229614 146.70216370 505.73892212
194.00926208 252.17631531 473.24609375
309.17297363 185.83799744 407.37100220
156.15286255 227.55969238 550.85150146
229.68849182 217.65089417 472.74676514
182.27783203 128.52769470 412.01452637
191.44593811 153.24635315 335.10272217
335.97000122 212.75399780 378.49798584
156.24392700 160.78572083 442.57952881
204.35984802 210.33764648 430.22836304
146.98873901 105.32917786 390.27679443
103.60519409 190.56019592 422.72180176
282.99902344 208.34700012 378.67297363
112.39682007 188.74873352 350.21841431
107.96887970 142.47634888 425.92065430
162.78096008 217.78201294 329.98745728
156.73583984 177.17741394 486.14175415
280.43099976 214.29400635 480.55401611
269.86614990 248.22727966 419.49017334
312.10800171 199.86300659 447.46499634
156.35920715 248.12963867 382.90982056
218.48947144 250.61947632 401.95602417
127.78660583 136.03593445 466.43521118
198.39619446 214.87751770 491.86181641
157.41038513 245.20236206 449.77865601
122.78672791 212.10159302 457.37600708
110.78422546 208.15522766 386.23275757
325.77572632 237.22778320 438.35070801
240.39126587 183.89657593 408.94110107
209.47659302 176.31619263 365.34301758
227.92997742 224.97235107 353.06103516
115.19879150 125.52455139 383.68203735
306.27838135 235.70875549 498.14846802
122.50336456 189.53298950 497.07974243
231.48866272 256.59170532 480.36151123
113.76039886 151.97708130 347.89111328
156.90242004 140.34120178 330.95471191
276.04498291 172.79499817 414.44201660
166.62806702 236.51693726 515.23303223
209.23042297 143.16479492 379.81350708
239.59066772 207.49102783 444.34652710
161.50076294 106.27577209 358.51635742
261.84606934 250.05043030 467.72824097
187.03881836 164.98471069 432.71093750
138.88893127 216.12913513 519.42596436
149.82586670 172.84445190 518.57226562
325.46499634 186.52400208 363.04797363
202.43922424 255.77947998 443.14358521
159.71289062 241.48358154 351.64450073
342.91500854 187.10200500 404.50997925
350.21200562 201.22698975 455.37600708
255.06716919 215.26232910 372.74853516
227.85774231 250.19360352 511.28030396
183.99707031 220.96360779 536.59716797
153.86192322 197.49662781 542.28778076
324.31085205 214.37338257 406.94189453
277.10101318 171.73098755 383.61297607
132.05653381 203.33348083 331.81045532
279.92095947 236.35575867 384.43643188
179.40856934 178.49969482 325.34182739
178.58520508 109.14595032 389.60647583
130.72036743 233.52598572 387.75909424
318.55279541 238.20845032 467.62539673
124.19868469 119.48613739 411.32742310
192.98451233 226.33813477 339.05383301
220.08908081 247.38896179 370.59835815
184.46507263 185.00827026 491.15179443
119.47532654 166.88710022 518.82928467
158.49847412 138.39770508 424.51034546
203.56848145 207.98799133 459.63748169
140.49145508 162.88864136 467.60598755
307.55099487 211.00900269 472.94000244
297.81723022 243.96737671 427.51058960
225.11195374 197.72476196 357.47454834
188.46080017 250.14912415 389.10034180
149.62683105 243.95765686 413.92636108
219.13603210 190.35615540 421.25137329
117.59195709 161.35337830 489.78237915
257.37698364 224.62399292 491.54998779
191.43759155 248.44219971 501.17678833
325.88101196 159.32400513 365.22399902
177.69880676 126.18233490 341.15145874
103.67572021 166.99717712 439.49584961
160.86802673 109.62646484 415.31323242
308.52795410 221.90830994 382.45730591
219.65051270 230.99172974 493.10726929
246.29206848 248.97799683 405.36328125
295.65200806 184.13700867 430.06701660
260.21069336 218.02554321 433.20669556
216.28721619 188.03372192 392.67645264
170.59654236 242.14692688 479.05661011
329.04602051 197.27200317 426.10998535
208.24023438 173.47137451 339.27957153
167.14947510 175.23728943 461.62725830
140.89389038 140.14772034 443.88223267
285.02133179 246.28376770 484.81237793
312.64099121 175.88700867 382.59399414
105.43883514 185.27233887 375.64205933
100.20427704 168.27964783 410.66061401
123.93515778 172.14845276 333.67291260
198.82450867 124.25576019 393.24072266
262.18499756 205.55900574 465.25897217
197.57575989 187.76176453 439.20510864
202.26887512 136.22048950 351.31427002
133.92262268 232.23158264 444.47296143
288.37698364 198.74699402 461.82901001
130.24462891 207.80819702 480.83483887
108.63816833 193.74072266 449.01257324
194.22764587 150.30047607 413.80566406
263.21716309 250.78758240 442.23898315
197.13562012 219.07643127 516.13592529
295.93200684 189.30499268 370.52700806
114.42232513 210.32003784 431.77215576
351.83099365 194.75999451 382.37301636
134.22625732 213.01547241 543.00653076
356.24099731 188.01000977 426.17999268
340.51498413 223.18998718 453.15399170
131.55096436 140.33811951 336.89913940
180.80949402 250.11885071 452.06903076
347.31600952 214.79600525 399.21798706
111.64325714 148.07299805 451.03448486
269.23498535 189.89500427 370.97100830
105.05966949 142.07218933 402.50836182
258.07601929 181.79899597 396.80999756
113.97251129 132.28334045 361.25976562
216.86111450 197.17126465 445.05072021
204.98246765 252.84707642 420.62091064
115.06646729 209.37132263 360.15936279
163.06076050 194.14587402 322.36782837
136.39817810 109.33332825 370.15933228
230.82987976 170.80326843 381.10845947
326.12503052 235.36669922 415.33978271
248.60417175 193.29103088 430.24139404
211.06077576 254.99653625 489.66836548
162.64488220 161.43331909 326.10083008
217.63032532 256.94491577 462.40899658
113.30108643 215.96685791 408.80023193
156.11737061 120.72722626 341.26553345
182.84819031 207.95675659 329.00918579
195.31224060 197.79945374 505.76000977
144.96231079 233.60716248 463.58239746
123.99990082 127.64830780 434.21743774
240.99078369 237.65074158 499.39245605
143.86790466 225.46330261 340.47045898
135.90328979 148.68423462 483.15109253
116.17713165 193.49612427 472.08874512
209.58480835 237.11984253 351.29632568
264.49749756 246.29725647 396.62808228
210.06823730 157.31443787 354.66140747
328.49499512 229.44999695 392.49899292
104.11246490 189.54794312 401.30780029
291.87399292 176.36300659 399.31399536
167.11820984 183.04544067 506.27798462
315.03298950 204.96800232 372.69000244
324.23098755 231.34399414 488.02502441
326.58599854 208.20500183 460.27499390
182.42167664 240.83772278 529.83300781
107.59672546 169.43542480 357.59085083
200.23406982 199.01921082 477.01498413
140.03233337 213.87548828 498.36337280
136.19653320 173.92822266 534.16479492
144.02059937 241.22247314 365.86010742
211.08120728 164.53048706 383.45275879
334.46499634 174.49099731 387.54202271
308.80123901 244.95104980 446.29431152
126.27969360 197.65246582 515.67718506
142.72804260 156.79193115 327.60510254
154.50544739 229.52868652 530.66448975
106.65908051 149.51281738 368.96032715
285.50796509 246.06706238 401.70291138
209.66641235 242.68420410 507.83859253
170.75419617 154.04388428 427.71899414
211.63780212 217.00793457 340.95175171
170.59994507 249.08694458 366.81555176
164.79185486 247.87432861 428.92703247
254.77796936 251.06883240 486.83511353
179.15177917 239.17420959 346.63934326
227.96118164 253.37141418 423.25592041
141.71669006 109.99604034 408.91107178
244.11250305 230.31489563 366.36001587
266.33898926 181.45098877 429.37402344
247.11303711 199.01019287 363.51959229
165.65124512 246.34915161 402.59255981
144.41545105 165.17733765 495.33370972
211.21437073 218.52032471 478.04156494
201.59219360 183.12382507 419.70626831
170.29914856 205.36772156 535.39501953
250.66670227 251.74244690 424.97720337
173.12319946 235.76316833 546.95190430
280.50698853 167.88999939 364.20101929
339.59088135 227.33636475 426.92132568
343.74099731 182.29701233 369.33999634
162.30937195 235.48280334 496.04168701
298.68399048 222.48999023 485.48901367
137.49461365 156.97099304 521.61639404
249.05371094 215.05923462 473.50000000
117.41622162 151.84812927 473.38293457
244.06997681 254.81637573 460.47680664
305.08898926 243.81118774 479.49133301
274.93200684 231.68798828 491.14199829
182.50158691 171.57489014 450.01052856
151.01150513 226.69529724 509.76501465
176.42756653 107.90786743 369.97210693
130.02989197 113.54685974 390.14495850
281.39294434 248.25762939 441.39929199
160.16615295 185.89805603 527.03363037
223.85391235 213.60700989 452.64486694
124.16729736 214.11299133 344.30136108
207.73345947 248.74632263 383.85812378
231.23274231 246.95817566 386.03668213
121.23294830 223.85527039 375.48739624
146.44606018 242.96459961 431.93588257
176.17909241 144.08206177 331.38571167
172.63606262 181.86065674 477.68255615
234.21379089 189.81144714 373.86071777
149.86126709 205.24841309 326.86517334
205.00471497 126.88544464 373.51739502
263.32949829 234.24424744 377.64291382
204.18325806 152.00247192 397.26162720
162.37059021 103.42475891 380.03900146
332.90298462 202.69499207 444.56799316
289.08642578 242.19094849 501.74343872
291.47918701 224.44934082 383.63403320
133.00047302 236.75054932 405.73379517
271.95306396 218.86285400 380.07846069
243.36938477 255.30249023 500.80834961
209.92958069 189.72959900 349.74923706
312.30398560 192.06399536 423.53100586
290.62701416 190.04100037 446.73898315
294.60400391 172.25801086 382.22399902
354.95599365 198.06500244 412.04000854
324.92001343 187.09700012 400.33401489
115.39828491 178.66212463 481.04412842
354.81900024 203.38800049 438.12701416
256.44201660 201.10922241 447.23623657
193.81277466 204.96731567 440.76864624
217.36883545 255.84504700 435.33831787
195.94442749 248.86270142 404.98547363
337.07699585 202.10101318 391.77999878
183.77198792 252.07814026 433.39227295
176.20458984 112.66882324 408.65838623
355.89099121 180.02400208 392.07397461
197.82437134 229.73104858 501.38687134
158.16163635 120.58990479 429.09500122
196.34460449 182.67764282 332.00646973
119.42105103 172.70225525 502.92742920
220.90316772 169.90289307 351.39184570
136.22224426 220.00416565 468.06417847
258.69302368 182.20298767 414.47601318
218.85325623 190.00053406 375.06564331
238.01834106 225.35586548 488.07968140
135.49584961 124.72924805 446.98391724
309.94497681 180.64999390 363.59301758
114.57167053 128.48959351 401.21890259
148.82562256 241.65409851 396.28613281
121.71528625 119.26436615 368.01254272
143.34043884 157.63046265 452.18850708
199.45954895 166.66058350 420.98007202
159.71366882 240.40492249 466.68655396
117.72927856 222.11375427 391.66308594
176.61474609 113.07243347 354.25781250
101.63619995 157.63531494 424.66900635
280.02896118 249.62651062 467.79696655
228.64044189 175.90779114 398.65475464
172.37713623 141.04759216 416.68725586
144.94708252 110.14118195 353.60946655
176.72930908 226.80886841 334.85430908
191.27239990 113.77767944 380.01116943
230.74736023 193.66960144 433.47021484
153.22462463 172.63543701 469.23114014
120.90023041 189.29231262 336.44076538
135.19061279 188.22886658 327.51052856
332.09197998 229.54100037 468.30300903
190.41246033 204.97952271 520.99841309
299.19299316 203.96000671 376.19702148
101.30196381 175.58467102 394.03201294
315.66259766 240.32255554 426.14593506
148.74340820 210.70364380 549.79241943
345.69000244 212.85000610 465.33700562
347.28900146 217.39399719 439.35000610
164.19297791 107.04056549 396.09756470
337.61999512 227.67799377 408.11398315
339.92401123 166.54699707 366.82199097
124.53259277 219.11289978 443.07968140
105.62644958 143.17639160 386.61578369
261.37658691 202.99131775 374.90075684
138.64041138 187.43649292 542.02673340
290.39498901 179.25498962 414.86099243
279.97799683 181.13800049 437.22500610
114.72364044 129.21141052 420.88354492
179.33013916 159.87748718 327.92562866
167.40382385 219.99499512 543.00097656
122.76958466 156.31855774 505.33612061
110.13178253 200.55424500 372.22863770
189.46333313 136.46760559 339.72433472
338.11700439 207.58599854 409.51300049
122.30543518 130.64715576 346.62728882
235.00323486 211.02383423 355.20169067
185.79855347 243.51568604 514.58697510
149.98040771 148.17236328 434.36343384
242.42193604 177.16804504 390.52938843
103.88452148 184.55763245 437.45223999
159.26408386 231.50166321 339.91741943
199.97259521 138.31150818 402.88763428
219.11598206 203.57194519 343.57879639
334.70300293 200.11499023 369.71798706
174.63348389 242.48551941 501.88421631
143.13996887 130.31210327 336.74841309
196.25903320 229.66889954 527.43951416
186.47676086 192.61477661 326.43493652
107.22313690 162.30805969 454.26727295
190.51997375 123.29591370 348.97674561
129.27384949 206.06936646 528.07080078
189.05273438 181.49775696 477.17886353
235.36790466 244.98878479 371.19186401
226.11672974 256.24887085 494.32684326
164.05917358 179.13589478 324.44311523
209.55584717 139.24015808 364.41830444
128.47991943 157.40650940 333.07312012
284.40402222 245.53979492 420.09762573
144.68728638 224.83117676 541.06823730
121.80426788 135.83540344 452.48526001
172.25129700 250.05409241 389.56488037
170.96105957 165.97631836 441.69735718
184.20362854 251.34774780 373.98178101
208.21224976 184.06016541 403.18347168
131.10238647 202.13439941 502.11685181
321.63500977 215.82800293 474.97799683
197.03883362 193.72917175 490.29238892
282.55999756 182.83100891 368.71002197
264.55200195 179.01399231 380.10202026
179.65789795 248.02163696 466.69403076
134.88128662 149.09504700 467.84539795
108.17513275 203.03160095 414.18493652
212.31370544 159.17555237 369.27224731
234.60437012 176.20031738 367.33602905
134.78405762 117.14701843 421.43542480
201.04200745 255.00944519 460.90411377
210.66473389 210.02482605 444.61920166
167.89691162 125.92426300 419.52871704
205.55520630 228.29872131 489.45895386
206.36630249 248.10572815 363.59982300
224.69018555 239.01570129 359.46020508
344.39797974 194.88400269 432.33901978
113.14004517 175.62686157 343.86022949
276.16900635 174.72698975 397.90298462
187.99855042 117.71897888 401.73367310
256.62478638 235.49293518 499.42660522
120.59902954 185.37246704 521.11791992
154.22605896 175.35176086 500.24563599
100.53451538 173.60064697 426.81082153
264.27502441 215.12800598 477.89498901
232.96856689 249.13586426 408.87954712
352.54898071 201.35000610 397.97299194
194.08045959 168.33004761 332.72293091
314.32901001 167.18600464 371.18801880
168.94978333 236.26268005 530.30206299
117.13700867 201.47166443 344.93475342
208.91374207 192.91285706 432.64636230
321.35198975 216.95999146 377.58099365
148.58213806 130.27189636 433.78427124
180.46014404 188.35726929 507.15487671
228.84567261 257.52209473 453.10263062
122.34358978 226.55207825 405.24996948
324.14132690 234.97621155 454.49819946
231.13880920 186.33526611 417.56289673
105.46332550 152.36520386 437.49060059
143.05253601 235.21322632 352.97763062
328.29568481 213.22726440 392.56011963
206.72485352 178.36672974 385.72262573
242.25434875 250.80459595 514.61584473
144.41891479 240.26457214 382.13211060
292.23800659 209.22900391 474.42498779
181.86628723 246.38540649 490.40051270
268.71978760 247.83958435 490.45642090
145.37637329 162.50326538 509.81378174
197.87773132 216.62362671 478.53201294
193.48812866 238.75042725 349.49511719
248.11376953 253.39067078 474.33358765
211.45167542 255.91046143 475.80377197
331.89498901 192.63499451 411.46298218
318.46661377 237.50654602 402.22637939
289.74398804 230.71299744 492.64801025
299.08322144 244.28437805 413.44262695
328.24502563 166.70300293 376.98098755
105.40942383 171.54032898 372.85601807
156.02647400 168.96934509 455.48748779
295.28118896 238.48490906 391.27310181
202.73239136 149.71510315 345.27453613
168.88389587 250.17953491 442.18927002
312.58700562 223.93800354 485.34899902
186.24388123 235.19685364 542.10333252
305.23898315 203.27099609 461.60900879
275.15399170 199.41101074 457.55099487
195.72164917 212.66442871 333.64041138
309.81616211 233.59353638 390.55810547
307.88116455 244.54783630 461.43804932
344.25799561 190.15400696 419.32800293
324.36001587 172.42700195 361.07800293
196.79278564 175.61981201 431.77450562
125.92546844 147.97648621 494.87130737
201.38639832 233.37806702 514.22204590
170.11526489 184.41438293 490.80517578
148.58465576 178.95283508 530.90374756
106.00950623 176.40151978 449.22698975
146.36322021 169.15917969 480.30838013
149.01504517 104.70643616 372.83795166
131.48799133 231.96829224 371.04824829
110.65147400 135.13851929 375.01394653
218.06675720 212.44841003 464.57910156
250.15568542 253.81675720 440.37765503
137.80169678 238.97370911 418.72845459
271.41918945 248.67158508 456.59368896
223.97822571 224.15063477 482.50793457
159.46237183 234.97691345 481.24404907
201.98843384 195.18565369 454.60122681
284.29602051 196.02600098 373.44598389
241.10047913 212.68734741 457.50695801
105.61864471 194.53950500 388.80487061
227.66226196 240.22674561 501.68157959
313.82199097 181.97000122 394.79000854
304.90301514 191.56100464 436.33599854
101.03874207 159.03230286 400.99011230
114.73662567 206.19332886 448.51046753
294.20480347 245.41174316 441.42028809
136.99916077 136.53666687 456.04272461
139.57171631 200.80187988 542.91632080
347.56900024 207.21499634 384.26901245
216.73506165 253.56071472 502.92855835
132.35969543 224.74786377 455.38595581
252.19604492 248.76437378 392.24765015
226.23870850 183.35974121 386.82739258
277.08898926 206.19100952 470.64501953
319.35501099 198.26899719 435.01898193
338.81698608 220.66799927 389.90701294
102.86991119 149.48056030 414.36413574
254.81501770 191.48098755 373.58001709
109.99726868 186.54998779 460.08221436
144.17492676 238.84806824 451.48049927
293.40029907 247.79740906 470.50488281
115.74668884 136.30686951 439.52120972
182.11576843 150.76057434 418.54531860
336.38598633 218.10400391 417.05200195
137.32334900 169.14808655 327.29946899
160.81654358 208.82955933 543.57867432
204.59144592 135.46299744 389.08563232
221.96929932 186.57725525 407.11050415
106.90279388 196.85427856 434.85226440
180.01870728 178.90065002 467.79974365
221.95388794 167.64965820 364.21170044
108.42343140 186.97850037 362.42453003
209.89630127 176.20054626 352.06625366
121.50933075 194.37469482 483.84802246
208.86886597 185.67210388 334.02441406
100.54895782 181.08193970 410.48748779
193.72601318 181.28399658 450.10537720
145.58352661 216.04061890 332.09899902
167.88896179 117.71670532 345.21484375
244.89076233 214.81968689 364.51956177
213.99343872 257.09997559 450.09356689
127.92984772 162.94091797 527.60296631
156.08267212 245.61499023 366.11697388
114.37033081 164.72436523 477.86911011
191.91987610 207.75170898 427.68103027
141.09123230 217.80397034 481.10134888
114.57715607 213.03887939 374.69723511
293.85699463 177.57800293 366.18499756
291.65899658 164.94799805 370.42599487
264.65200806 174.86700439 405.13500977
200.55117798 125.41319275 358.68588257
336.02856445 227.41305542 442.00177002
315.12298584 193.20500183 365.85800171
170.47662354 208.91601562 325.42098999
193.67588806 242.70474243 535.34234619
165.06785583 131.81916809 335.24398804
344.15701294 191.62100220 392.81399536
195.21919250 252.63682556 428.08905029
198.58247375 252.67594910 484.92208862
107.64302063 203.47149658 397.60357666
123.30959320 177.39805603 530.49908447
276.09912109 245.88824463 393.12524414
251.52685547 204.74176025 457.91806030
129.52049255 113.31055450 360.20166016
147.23567200 111.49141693 420.10028076
116.35911560 163.80729675 341.48980713
217.12460327 252.42742920 414.27197266
234.62542725 256.36508179 467.39471436
183.33100891 248.63623047 403.44937134
297.75286865 215.29341125 380.28460693
132.26103210 231.58128357 431.51058960
271.37802124 168.74900818 372.58200073
197.92184448 209.99681091 507.11352539
115.09830475 139.97029114 351.52578735
182.41235352 209.83271790 531.28564453
273.28295898 246.34004211 406.04336548
120.46686554 204.01361084 467.13110352
270.76950073 247.35739136 476.83279419
147.21772766 193.67825317 323.40621948
352.19897461 181.78201294 378.28500366
155.05303955 108.10128784 404.54263306
323.31298828 179.60099792 387.39202881
142.08296204 144.41511536 331.95770264
269.12377930 248.39050293 431.80410767
255.06454468 252.72691345 457.00323486
316.82397461 238.75000000 479.78100586
162.94268799 233.92543030 540.48944092
223.87548828 207.39295959 442.29687500
159.41703796 180.80892944 515.95965576
250.16159058 187.75730896 419.34838867
197.23001099 247.51954651 512.01593018
167.47045898 245.97187805 459.29394531
190.23089600 138.71266174 409.93075562
295.83197021 243.54949951 490.63363647
339.36398315 206.01600647 457.15600586
163.24880981 246.90995789 414.33734131
200.10627747 250.84385681 374.40524292
113.92860413 153.93603516 462.01135254
126.35809326 154.54505920 516.62377930
139.29531860 160.12455750 483.60339355
139.00898743 154.55822754 495.02017212
132.34078979 222.88619995 344.67279053
126.25740814 142.42733765 479.92739868
301.29400635 176.63800049 392.03598022
202.64384460 251.67814636 500.61697388
190.25903320 218.22143555 526.86511230
242.97642517 253.96150208 486.70339966
140.10897827 219.54873657 530.75848389
201.49961853 160.07852173 339.76342773
175.05995178 196.08876038 325.53237915
167.31455994 194.39306641 531.98950195
192.94589233 253.54298401 449.63104248
117.60642242 219.21371460 424.53265381
241.41577148 198.01176453 438.42831421
203.32899475 159.03770447 408.19097900
152.97753906 226.60830688 496.34982300
216.52795410 191.30419922 361.56329346
120.73820496 123.71886444 356.76800537
261.31701660 193.94099426 435.90499878
217.07592773 228.12776184 348.32452393
346.32037354 219.18432617 410.88717651
349.72198486 212.19900513 449.57299805
356.50302124 199.72898865 426.11700439
109.22511292 157.46379089 357.20291138
266.05307007 244.09083557 383.81988525
276.34899902 174.97900391 425.92300415
257.01199341 248.42987061 410.79721069
147.85375977 227.64729309 473.36724854
171.23434448 169.88958740 324.52697754
343.51300049 180.13900757 394.66900635
271.63320923 208.49494934 377.66836548
249.71429443 243.47439575 506.25967407
126.21524811 115.36442566 379.27462769
108.34680176 139.26464844 413.88088989
332.29602051 227.38400269 479.71298218
239.35777283 253.62565613 427.21328735
318.76098633 227.69099426 386.46099854
344.30999756 194.32899475 372.58398438
331.76101685 212.32398987 469.77401733
302.23199463 186.61000061 420.93499756
301.75097656 194.86199951 448.02401733
151.74461365 165.07928467 325.72921753
142.61087036 119.21618652 343.80065918
140.46992493 167.28425598 525.72833252
121.24421692 220.22338867 364.60192871
172.25418091 245.38082886 356.11535645
162.88146973 177.56016541 473.15435791
171.81161499 251.09294128 378.04223633
191.30561829 128.75614929 404.27514648
255.67999268 184.75199890 386.02999878
278.87646484 241.27362061 496.16555786
207.74472046 249.78518677 407.14916992
198.03028870 188.13500977 471.23931885
341.34100342 199.03799438 402.75299072
219.15939331 249.19221497 384.91955566
154.32994080 246.65393066 423.93975830
255.20733643 254.00177002 498.31384277
198.59841919 198.96450806 433.54287720
206.82829285 235.49232483 498.27597046
281.59698486 223.32400513 487.19400024
170.44274902 171.75871277 451.50381470
137.66714478 147.49488831 453.49371338
157.04455566 151.78919983 328.27078247
136.12536621 143.39976501 493.78948975
132.98513794 127.79939270 340.88186646
140.37658691 107.72735596 380.52615356
129.14794922 114.24579620 401.31527710
202.32844543 198.35289001 465.23791504
192.24011230 158.25215149 422.01333618
121.20566559 120.71240234 391.77545166
307.81063843 244.02191162 435.10296631
206.16754150 229.05162048 344.36099243
121.31444550 185.11889648 507.29757690
322.42797852 193.38899231 417.26699829
200.10353088 120.88228607 382.69543457
122.13449097 143.92256165 341.57501221
224.26852417 215.60159302 348.46801758
311.83734131 240.06181335 415.74917603
127.95396423 211.82043457 469.20516968
269.66299438 220.98399353 485.57299805
113.35490417 197.04591370 460.11642456
168.81889343 236.64129639 342.91036987
133.52662659 207.33599854 491.47064209
315.65200806 163.36099243 360.92498779
340.86001587 167.72000122 381.66900635
129.13825989 203.05360413 540.31042480
123.49362183 220.01756287 353.82287598
329.01098633 232.59001160 403.42199707
109.42234039 133.45971680 389.93118286
206.00354004 194.89167786 442.33694458
171.58009338 187.12190247 515.64758301
232.95922852 246.88177490 397.37286377
253.58143616 232.65866089 372.82925415
305.60498047 196.93499756 370.86801147
233.15394592 216.32672119 463.09472656
315.56900024 229.55200195 494.34399414
339.40698242 221.54299927 469.10501099
188.29470825 251.57049561 461.10034180
160.86535645 150.49719238 429.93005371
355.89700317 192.70199585 435.94500732
299.21798706 181.58799744 407.91000366
284.09729004 246.79556274 431.11560059
234.26962280 231.87817383 361.24151611
120.56902313 151.32379150 483.75311279
210.97332764 150.30018616 363.12322998
200.01380920 249.54663086 395.17001343
120.32083893 143.00698853 463.03671265
356.29400635 192.05099487 403.23199463
155.05908203 184.90081787 323.92343140
132.37974548 205.99124146 512.86724854
208.42939758 152.72073364 387.45989990
315.14801025 204.88700867 457.83999634
188.69607544 189.16723633 500.14739990
104.32683563 160.49784851 374.52316284
184.80157471 220.07463074 332.81604004
263.25000000 198.79499817 455.70800781
199.29154968 204.37814331 489.02798462
241.64288330 218.90147400 477.88446045
132.02345276 213.65934753 337.01214600
268.20999146 178.53799438 369.78701782
323.87301636 200.83299255 368.39898682
260.98403931 248.83364868 423.94839478
126.18263245 122.20188904 425.32437134
160.41046143 204.68222046 324.80950928
202.54243469 204.52964783 449.41778564
206.18736267 162.42073059 392.53759766
340.31600952 199.87599182 381.93899536
154.52557373 129.56112671 335.66302490
230.68342590 198.55720520 442.90002441
318.55453491 241.16241455 447.06750488
328.04702759 235.74285889 428.26809692
237.62860107 221.48686218 360.00299072
301.94198608 166.94900513 371.36700439
209.24455261 183.60575867 377.58792114
104.16307068 178.28804016 384.23440552
286.74899292 174.24600220 390.42800903
110.82554626 163.58811951 465.55337524
143.29396057 218.97850037 510.38803101
191.07003784 170.85450745 440.61132812
104.05181885 192.29330444 412.35302734
146.09571838 223.08737183 522.29681396
176.47222900 239.30255127 516.48059082
322.88598633 222.20100403 483.18402100
115.99187469 172.98016357 489.85675049
235.32498169 200.31813049 357.01199341
333.71002197 176.29699707 363.47000122
221.04568481 192.58042908 435.54971313
266.23202515 177.44799805 419.79598999
251.36416626 181.55201721 402.83139038
214.67903137 243.25831604 359.52349854
162.83569336 103.26766205 368.37228394
149.12435913 189.95570374 536.99511719
154.43470764 223.77017212 334.94491577
306.56600952 211.96398926 378.57601929
333.94000244 182.81100464 397.65600586
149.84153748 232.60179138 345.08117676
218.73539734 243.04624939 504.61132812
272.55599976 199.24198914 374.21200562
153.17343140 113.62617493 348.20578003
208.82391357 248.90272522 515.99786377
243.24703979 175.10148621 380.36938477
342.74200439 200.36999512 446.54400635
146.24563599 220.65769958 550.77545166
209.12802124 170.67118835 375.63168335
170.20721436 242.05151367 489.38619995
182.43218994 158.01127625 426.04574585
281.37435913 250.26231384 455.53198242
333.52853394 219.17611694 399.08349609
213.17730713 210.43258667 454.76666260
295.36694336 244.09468079 402.28244019
289.67700195 218.10099792 482.75799561
350.94601440 206.06001282 407.07098389
132.40348816 121.85209656 433.83004761
130.90141296 178.93325806 328.49316406
209.26174927 163.72424316 345.50784302
209.20278931 189.70843506 422.61047363
207.35566711 144.25625610 355.61013794
354.37200928 196.12799072 445.43399048
252.89682007 251.96609497 511.31594849
345.57659912 219.82623291 423.54678345
177.07275391 226.81982422 543.94696045
104.29856873 149.95098877 378.89297485
231.87330627 233.25350952 495.42141724
354.66400146 190.11000061 391.90301514
261.78536987 224.14390564 377.78936768
112.19000244 197.37841797 355.50106812
109.76226044 203.80712891 425.57165527
122.77547455 223.27272034 433.92465210
282.08740234 226.67103577 383.43811035
202.91276550 213.55757141 468.79809570
184.20535278 113.21846008 361.00070190
196.73124695 224.88854980 490.63943481
124.11391449 196.21363831 525.49200439
147.61624146 166.36009216 460.12869263
263.84262085 213.61021423 377.00198364
102.99864197 152.05261230 390.66137695
174.76873779 214.17448425 537.46270752
348.78201294 203.17900085 418.19799805
173.26466370 218.39668274 330.44604492
211.38424683 153.24293518 377.82415771
140.95693970 237.38943481 439.33505249
195.52799988 249.90248108 417.07043457
149.95516968 105.75045013 361.17950439
284.87399292 167.96099854 377.23800659
144.74229431 151.83134460 444.03802490
265.53939819 239.94792175 495.61056519
175.13626099 160.74917603 433.99203491
287.36300659 179.40899658 426.95401001
334.17901611 190.88099670 365.88601685
306.18499756 217.82299805 480.14501953
334.49398804 199.76800537 434.12701416
253.57943726 204.54400635 370.65472412
243.55039978 188.08390808 367.37512207
157.55677795 246.23789978 435.62139893
259.26934814 250.65625000 476.93881226
157.98117065 233.26931763 507.50906372
196.78039551 192.82437134 330.42977905
123.50787354 131.45733643 443.51513672
305.80599976 228.84500122 490.76397705
143.43804932 107.36573792 399.42645264
245.70259094 255.20715332 450.99011230
169.95681763 243.99179077 469.26483154
136.86132812 156.67283630 474.53439331
203.26730347 171.17419434 413.09701538
173.32827759 186.19583130 325.10421753
302.26809692 229.59719849 385.51806641
238.37295532 191.51115417 427.95422363
224.60545349 257.09860229 469.93579102
229.59007263 181.65927124 378.22943115
259.18798828 189.41099548 427.34799194
115.47888184 126.69089508 373.18206787
111.10408783 212.63935852 399.72061157
196.80110168 189.08349609 480.93374634
175.24130249 238.67250061 537.68096924
163.74668884 158.84721375 436.60772705
167.69105530 153.36581421 328.54632568
179.64213562 110.79136658 399.28823853
157.79208374 245.11276245 393.88354492
214.95364380 254.06214905 425.75988770
163.00778198 249.10717773 373.15292358
150.13894653 245.19897461 375.75744629
150.76524353 241.40792847 358.66162109
236.05268860 245.49079895 508.55548096
137.11627197 238.12593079 396.90597534
330.86199951 219.84001160 382.90798950
270.76501465 176.51100159 389.33398438
346.68298340 171.18998718 372.15100098
139.16683960 198.18647766 327.54611206
283.94400024 175.88800049 405.01202393
157.34123230 216.42039490 548.74291992
181.58511353 247.29203796 360.85607910
212.67036438 188.74812317 411.94580078
246.32507324 239.50183105 371.52249146
346.68402100 177.10099792 384.82000732
147.02761841 220.87640381 501.59185791
186.71958923 195.61433411 515.47503662
181.94546509 142.17227173 413.76348877
110.14787292 141.09860229 362.71765137
193.70027161 116.99606323 388.88494873
204.73257446 209.12176514 336.65866089
186.90350342 177.48689270 457.05273438
201.76831055 243.95558167 355.99237061
127.51560211 199.90315247 490.05490112
199.61355591 186.52766418 430.08755493
312.33001709 237.54798889 489.97900391
231.07691956 180.64587402 408.23147583
169.49418640 113.68534088 416.93420410
156.84179688 112.08987427 423.75405884
116.88102722 126.28608704 411.90319824
143.16114807 122.31521606 441.67935181
123.67424774 205.38194275 338.87933350
186.03889465 170.13732910 327.71105957
119.49571228 177.47602844 515.73602295
177.74549866 108.31427765 380.02716064
118.40145111 182.57107544 491.87619019
128.88835144 183.95979309 538.40179443
262.94961548 251.32620239 452.34652710
172.20191956 246.59844971 409.83084106
142.36166382 240.83657837 408.40826416
273.60742188 249.69953918 445.93395996
223.99198914 250.07975769 394.45053101
224.95520020 193.23446655 367.58459473
180.60626221 247.25984192 476.15808105
149.79658508 242.57719421 444.52764893
157.03910828 104.23080444 390.35949707
169.37388611 105.80285645 386.12692261
248.79335022 230.45051575 495.80181885
119.78910065 155.07212830 339.84591675
156.04847717 230.92373657 521.36541748
141.27691650 155.21621704 504.28939819
125.78904724 231.31100464 395.67971802
189.54223633 249.97087097 483.02606201
197.88511658 141.59494019 343.76748657
271.13314819 246.65887451 466.13119507
206.67758179 202.97882080 436.97427368
185.90640259 252.63598633 442.90667725
186.31427002 111.30915070 372.28628540
155.62751770 129.71398926 426.97698975
202.93061829 221.80670166 339.24099731
209.18371582 195.46853638 339.67410278
138.60394287 155.89851379 460.04241943
246.52371216 249.82037354 414.91247559
104.27349091 185.13803101 390.69940186
118.36321259 222.29772949 413.59411621
265.95700073 228.51499939 491.88598633
167.22447205 227.87565613 335.66372681
176.67098999 120.27693939 414.21133423
150.94483948 171.02557373 507.81726074
243.63414001 246.38459778 388.57650757
269.13699341 185.48298645 439.18298340
281.27999878 188.33500671 443.11099243
314.62298584 209.83299255 466.91098022
225.54272461 173.49470520 388.32736206
155.00970459 242.06710815 458.73388672
107.00599670 162.34159851 365.67489624
269.72003174 227.59669495 381.39874268
118.17955017 209.34548950 349.79882812
199.01538086 222.58480835 506.90792847
198.74653625 190.17999268 462.00039673
171.03959656 247.87591553 422.07226562
334.42700195 205.93899536 399.84597778
128.67608643 129.18002319 451.45559692
204.81608582 255.19975281 434.36956787
338.99600220 210.02799988 387.31100464
203.90158081 256.08752441 452.29495239
166.34696960 238.40757751 503.98205566
167.29818726 145.94621277 422.77874756
311.64602661 171.87500000 361.11001587
162.63774109 245.78961182 359.47256470
99.84335327 166.97164917 419.89166260
198.79293823 206.46868896 498.57611084
185.37579346 242.55114746 352.81945801
191.36309814 244.12039185 522.19250488
194.90296936 132.02662659 345.72955322
187.38537598 144.85714722 336.46267700
328.50302124 207.75300598 372.41400146
281.21884155 218.23754883 380.61184692
162.72576904 181.10986328 494.89758301
163.02247620 200.92356873 538.79125977
111.33551025 147.27534485 355.69476318
288.38400269 164.33300781 360.97601318
111.19591522 164.68153381 349.11294556
204.91122437 144.98164368 391.15332031
166.74879456 144.47323608 330.87686157
234.28160095 255.09402466 502.22747803
106.77679443 195.95960999 379.72549438
187.59120178 182.10647583 328.77706909
192.90568542 204.66404724 330.07250977
120.29135132 180.11978149 336.32623291
207.08457947 134.09338379 378.89721680
216.55158997 196.39701843 350.86929321
248.46081543 221.98863220 369.34338379
177.75344849 133.92453003 336.26522827
333.10351562 228.33302307 451.35418701
113.16706085 185.19062805 468.63452148
114.09827423 134.39936829 430.69616699
156.24647522 174.16445923 323.67160034
134.75392151 141.35203552 476.79788208
176.55899048 199.53486633 527.42803955
148.44247437 137.15879822 332.52996826
192.80322266 233.44186401 534.97857666
238.77824402 178.50842285 397.89770508
181.59695435 183.97380066 481.52478027
188.30479431 197.27670288 439.78967285
323.59799194 235.29598999 474.80899048
186.09605408 231.94088745 341.21481323
138.49998474 237.53288269 428.58010864
298.34124756 245.97557068 449.81588745
289.00790405 245.79759216 412.51779175
296.79299927 188.58699036 440.24801636
222.40161133 256.90026855 481.79730225
324.42199707 202.59199524 447.74499512
112.60847473 211.43258667 421.53918457
170.25942993 108.17749786 402.72549438
106.63407135 155.71282959 445.84997559
166.44586182 229.32806396 547.50738525
145.74604797 243.63520813 422.10537720
169.74615479 106.46234894 363.46466064
156.59365845 245.74902344 408.20364380
188.14935303 161.70851135 330.38400269
205.05941772 175.53102112 393.87042236
181.40332031 251.63906860 383.41455078
211.06939697 249.39929199 396.07470703
344.45599365 195.98899841 410.65002441
297.93600464 196.40499878 456.04898071
140.80876160 206.96343994 328.74856567
329.19540405 220.66055298 411.20965576
142.81765747 185.26336670 323.73831177
226.84967041 204.40313721 349.50476074
288.58102417 183.74200439 437.00399780
187.46931458 250.01844788 423.09060669
155.88287354 234.63494873 472.44042969
304.50741577 245.63180542 470.90045166
224.55993652 251.66123962 409.98846436
297.33499146 203.33599854 465.84698486
118.69069672 213.57965088 438.95162964
303.93698120 173.80000305 382.37500000
345.72399902 216.87200928 456.76800537
342.89300537 212.03500366 417.96899414
99.84936523 167.40655518 397.40054321
185.03872681 117.12830353 352.49139404
305.33599854 188.39199829 368.25799561
115.89461517 217.90429688 382.05722046
213.91029358 162.59548950 361.29455566
138.44029236 107.87738037 389.84991455
139.46443176 238.80690002 373.21722412
220.68670654 257.07556152 444.69580078
100.52283478 176.57696533 418.22994995
182.36364746 166.66575623 440.09881592
195.99005127 250.81034851 382.27514648
272.08181763 236.96299744 380.97540283
127.77214050 230.51031494 379.05847168
314.96350098 242.24378967 455.16574097
215.46501160 225.93623352 486.44134521
235.71728516 251.40255737 418.94284058
323.06298828 190.77799988 408.83200073
242.79313660 206.94920349 360.91540527
215.24925232 248.99176025 511.08700562
154.40736389 230.04911804 542.51110840
205.45281982 132.75889587 359.50454712
109.20674133 144.38598633 437.65939331
220.36560059 216.65966797 472.43954468
203.34240723 179.58511353 410.68682861
194.48640442 254.04895020 438.84954834
211.88887024 184.76753235 365.30993652
228.55726624 189.61112976 424.48553467
281.02206421 247.56863403 476.92910767
175.40840149 175.54505920 459.04415894
179.59480286 185.73791504 498.82159424
99.86086273 175.28610229 403.91146851
319.62200928 180.21800232 361.21401978
285.93231201 245.60778809 493.49536133
165.98680115 134.49644470 418.80072021
199.16360474 144.44389343 409.37628174
168.82093811 248.76487732 451.08691406
134.10137939 150.79603577 514.87194824
127.75913239 218.17163086 451.24929810
295.50360107 235.46263123 496.41561890
249.73912048 180.20907593 389.32122803
151.76365662 163.49583435 449.98748779
108.70530701 177.50907898 354.33847046
255.10299683 200.60099792 439.19100952
206.20372009 241.60133362 519.73828125
129.23530579 195.08561707 331.05624390
136.10516357 112.21763611 354.55612183
256.52798462 219.79199219 484.34002686
168.21786499 112.08147430 352.05804443
171.90631104 249.94984436 433.81573486
260.19400024 184.64599609 373.03799438
184.22621155 244.93182373 506.03192139
224.29707336 183.33522034 396.89285278
229.03837585 170.68379211 371.26016235
258.39944458 243.09298706 379.79244995
145.17704773 139.51068115 436.38800049
163.15014648 167.85098267 448.68637085
165.07127380 181.01188660 481.48120117
127.83267975 148.13998413 336.19946289
341.54544067 223.10478210 401.84759521
133.58102417 112.99089813 409.26416016
303.96801758 180.79100037 399.16198730
154.24633789 174.80422974 478.12167358
136.48155212 228.85658264 349.39743042
312.26400757 242.03999329 472.69299316
186.64822388 113.56673431 392.53515625
136.16241455 235.79826355 381.33248901
164.80995178 250.02813721 383.72204590
158.31950378 177.02685547 507.75332642
329.83599854 224.50999451 487.76300049
110.87146759 203.51976013 438.59933472
225.04989624 254.73397827 503.34375000
173.47363281 247.78475952 399.25689697
200.36386108 120.07760620 370.90072632
298.58300781 213.72799683 478.13497925
270.50997925 211.02699280 473.60101318
259.98699951 210.42401123 472.10501099
247.84281921 205.70465088 443.76699829
106.47694397 176.01068115 362.97723389
235.01692200 196.82339478 365.48248291
201.02215576 132.00985718 396.29336548
234.13395691 221.01040649 480.57067871
218.59892273 235.28453064 352.72244263
138.65867615 236.39875793 360.27944946
138.16357422 212.63015747 506.66885376
138.69535828 232.96482849 457.77032471
263.44732666 247.81721497 405.07336426
319.20248413 237.87265015 410.95257568
336.25799561 195.54600525 421.82998657
251.84100342 208.61999512 466.49798584
284.43084717 242.24943542 388.96878052
101.42662048 151.44197083 406.12524414
209.08767700 182.37699890 344.85745239
285.16998291 194.07899475 451.90600586
335.57901001 226.85700989 460.99902344
226.61341858 244.30017090 366.00003052
200.71176147 207.08085632 474.43771362
126.16826630 196.18193054 507.26599121
212.27421570 170.91458130 358.05615234
213.67182922 167.88235474 368.84503174
215.43804932 173.62913513 343.79260254
333.13616943 232.06660461 418.84481812
144.52275085 218.74104309 493.08645630
105.18201447 150.67593384 429.12033081
159.80096436 191.01681519 533.94195557
229.95439148 255.34257507 431.52801514
349.11199951 195.96800232 423.17102051
103.01472473 176.13139343 437.72488403
320.31597900 232.64099121 393.17700195
238.98632812 255.09931946 476.85992432
357.07501221 191.66200256 418.58599854
121.38288879 120.93296814 403.44488525
102.62387848 183.72985840 427.68371582
309.29898071 188.86000061 416.29898071
199.72653198 174.83865356 423.56689453
134.55432129 212.43414307 526.39978027
342.44851685 222.55941772 434.67422485
118.57762909 166.91352844 496.86325073
102.70608521 161.67050171 432.99572754
112.96765137 174.56834412 474.03802490
186.52256775 129.02072144 342.51913452
239.73606873 186.86747742 416.44906616
234.81184387 173.47399902 390.40075684
140.42655945 108.11754608 362.82385254
234.18203735 210.78599548 449.81576538
118.05162811 186.52513123 482.32818604
105.96083832 186.01264954 447.12463379
199.44395447 174.87530518 334.12509155
122.29259491 200.84075928 478.48745728
182.63615417 249.19171143 394.97988892
208.63484192 183.44911194 394.65295410
286.76083374 248.28282166 449.70718384
341.25848389 225.93742371 418.87109375
211.11561584 147.36082458 370.93078613
334.08065796 231.77507019 432.64834595
331.53302002 212.71600342 410.98699951
155.10713196 211.90629578 327.05450439
322.87698364 174.23300171 380.98400879
340.95300293 205.98599243 376.25399780
141.90139771 130.01017761 445.89685059
121.78041840 154.89546204 497.02069092
116.95388031 220.67829895 402.74990845
201.84020996 208.58468628 443.04931641
135.76623535 160.97213745 329.43988037
340.25399780 212.67700195 473.61599731
347.55502319 211.79499817 391.23498535
134.82049561 140.46441650 465.66949463
196.88314819 228.35511780 518.83367920
259.22259521 246.38172913 387.66879272
198.97885132 156.65797424 417.36074829
156.42886353 230.72691345 490.04373169
140.43119812 213.88525391 548.44836426
189.10173035 192.74858093 508.12725830
317.74240112 240.49150085 434.19284058
191.11625671 224.91296387 531.77972412
241.86732483 173.71810913 372.03280640
311.45254517 239.96885681 406.31652832
211.02958679 213.40888977 469.25994873
277.36712646 245.79826355 415.42990112
150.74177551 117.56482697 433.91198730
236.81282043 256.41494751 451.61648560
270.77001953 203.93598938 462.91699219
265.59500122 178.40600586 397.43798828
243.85008240 247.30125427 397.19656372
116.27051544 140.04716492 447.99816895
196.47247314 164.17691040 428.21514893
133.53938293 193.00265503 538.70190430
166.37042236 123.89924622 339.98297119
137.83218384 213.14443970 487.58554077
149.71691895 109.92787933 410.82516479
128.75935364 132.73094177 458.87924194
193.93856812 250.40213013 493.55322266
131.13948059 209.99148560 536.01318359
258.20852661 251.48558044 435.14285278
138.03652954 219.32752991 337.51855469
212.23278809 248.73306274 372.71337891
107.85287476 191.26492310 369.37683105
292.32000732 209.25199890 378.63900757
332.28701782 205.50300598 453.08499146
350.46701050 212.74299622 433.41897583
177.33042908 152.00781250 329.23410034
108.17347717 179.43412781 456.56912231
149.03141785 171.70860291 493.86898804
210.14041138 183.09831238 357.00003052
291.17517090 232.15768433 386.04458618
188.15206909 178.67198181 468.66271973
284.10800171 209.10299683 475.01901245
305.33001709 199.28799438 453.86001587
288.20898438 203.14801025 470.78601074
138.35853577 226.41174316 463.47335815
119.25276947 175.17263794 523.81512451
100.23686218 159.74682617 416.21649170
313.86700439 216.56300354 477.23400879
129.56742859 232.44436646 413.60266113
171.14396667 178.35441589 468.13311768
302.68252563 236.69375610 392.26370239
329.02291870 232.55590820 445.47109985
113.74308014 215.13648987 390.70941162
230.12199402 227.67764282 488.74255371
125.69144440 200.78855896 533.04052734
194.34770203 121.01201630 355.72448730
349.37500000 207.86898804 459.89199829
283.13101196 175.87800598 416.77499390
122.24008942 227.52346802 387.61965942
289.70999146 201.25199890 376.35800171
127.00695038 227.31195068 366.22885132
232.01170349 256.26449585 488.89590454
128.44192505 149.79559326 509.11657715
173.27809143 130.75082397 416.05624390
209.07730103 256.29467773 459.78295898
332.68402100 168.17199707 363.67199707
154.38771057 102.94738007 379.03659058
150.24810791 242.75199890 387.12918091
321.20083618 237.97579956 420.89657593
321.35702515 195.09098816 425.05801392
111.69812012 133.43133545 409.47454834
303.84399414 242.56179810 419.86029053
199.38522339 197.82170105 443.07009888
252.60002136 253.22917175 464.24276733
121.78203583 168.11338806 526.73468018
327.21417236 210.07678223 401.02844238
168.65097046 189.99224854 525.39971924
237.21249390 237.98628235 365.77896118
120.25086975 196.77249146 339.26248169
202.11386108 237.04559326 524.79760742
328.28302002 217.66600037 479.27099609
132.58905029 141.12666321 486.98910522
200.41984558 235.25325012 347.14404297
139.26643372 219.40774536 538.88177490
152.37156677 139.06846619 429.51605225
278.72247314 246.03186035 489.47372437
303.33386230 241.70837402 488.65539551
253.60069275 253.46446228 448.99072266
106.09528351 197.28862000 406.41827393
214.74189758 188.20521545 404.01873779
120.40435791 164.62995911 504.29214478
161.33850098 233.32458496 532.68280029
206.12734985 255.37777710 469.75531006
122.30058289 143.27264404 473.05746460
283.65899658 174.96598816 365.94799805
194.85673523 207.58267212 515.00378418
190.57754517 184.95793152 486.27136230
106.95570374 170.18479919 454.89407349
128.31295776 215.46525574 462.10061646
150.17208862 147.88951111 329.47854614
325.92617798 218.07536316 399.91305542
153.64831543 230.22807312 478.89096069
294.59472656 244.45037842 419.76040649
155.01324463 198.77833557 324.15350342
202.24391174 235.46574402 505.23828125
227.31417847 247.24536133 374.27029419
276.66802979 247.86631775 428.61181641
127.23503876 226.47016907 439.59899902
241.67005920 180.37437439 366.78091431
261.68798828 195.59800720 373.72399902
116.86445618 144.38461304 455.71008301
265.68377686 250.15109253 497.75631714
355.34997559 173.64799500 387.47500610
352.68099976 199.11299133 388.88101196
197.07009888 198.53747559 498.20471191
263.54000854 195.00700378 445.88800049
225.64453125 257.59338379 462.27651978
176.97528076 249.51647949 427.27453613
318.47698975 200.41200256 442.53097534
301.00698853 176.11799622 363.26501465
134.63479614 152.70915222 331.86151123
164.35092163 239.48558044 475.12390137
198.30308533 189.53451538 446.77615356
129.50653076 112.94247437 372.54992676
181.27365112 186.50982666 325.82135010
107.05673981 142.61999512 378.59390259
154.16821289 177.77087402 522.91430664
197.60110474 186.70732117 454.59561157
199.98355103 222.84642029 483.62954712
302.57391357 245.24765015 441.37246704
129.93925476 169.43981934 531.49572754
204.56365967 127.25498962 381.77822876
117.63311005 203.52450562 459.30450439
114.60058594 184.37002563 344.15216064
340.80099487 187.99600220 412.66799927
204.92774963 159.28930664 400.54412842
191.48202515 202.63652039 433.51162720
192.27980042 249.07858276 396.20690918
349.03799438 195.01200867 439.86300659
104.15563202 170.96696472 380.58245850
215.31761169 235.19807434 497.59844971
186.71145630 247.99986267 410.66934204
151.14868164 157.31480408 326.04461670
208.79867554 194.35604858 331.76806641
156.58822632 236.47689819 346.35568237
162.37236023 108.07514191 407.84115601
241.22450256 215.01712036 465.31793213
189.92422485 250.61732483 368.35583496
171.73992920 162.54396057 326.93194580
170.61160278 237.08694458 521.98632812
218.73590088 188.26988220 385.75518799
174.81384277 248.03903198 457.70303345
143.39572144 163.63563538 519.51171875
272.18197632 179.31399536 433.99798584
169.09170532 200.95690918 325.38912964
193.96690369 214.06893921 521.07635498
135.82722473 110.33138275 401.39215088
285.61752319 236.79772949 496.27371216
264.32183838 249.14460754 484.03747559
114.85797882 158.50161743 469.85202026
173.37185669 240.21957397 509.16326904
129.60151672 167.87020874 330.66812134
174.33096313 148.37455750 421.03115845
181.96963501 240.44313049 522.12231445
279.70199585 201.52899170 463.41000366
176.32574463 251.73863220 443.95312500
341.66799927 222.98699951 444.87802124
194.51158142 177.73994446 440.41015625
118.92847443 121.27752686 377.38610840
126.29969788 227.83097839 428.50683594
115.77660370 193.08590698 344.36624146
213.01696777 202.98100281 338.21673584
311.95700073 197.16900635 440.18499756
207.13067627 251.63391113 506.97164917
153.32995605 109.14231873 354.40939331
308.58401489 177.36199951 389.86798096
347.53799438 201.11399841 379.67300415
141.73695374 238.76701355 389.17437744
148.87467957 203.47837830 547.30584717
206.84269714 155.88356018 347.33059692
246.76159668 253.33532715 433.14007568
348.80099487 188.82499695 375.33898926
298.39370728 223.35845947 382.31954956
254.91554260 214.45857239 428.67236328
176.68725586 203.47848511 325.94448853
186.90516663 123.80976105 407.92410278
126.80313110 196.76776123 498.95657349
329.85699463 180.42900085 391.12600708
310.48034668 237.98338318 396.70065308
250.96800232 183.66645813 411.07177734
150.52015686 237.54389954 350.85571289
217.86308289 210.29658508 448.04687500
177.54840088 245.39765930 482.82955933
213.98860168 164.62922668 351.40179443
133.46337891 212.70208740 476.04013062
305.29046631 243.11480713 427.30114746
193.48353577 232.81481934 344.44116211
144.71424866 170.35858154 325.52453613
287.08126831 249.52328491 465.30331421
317.12200928 185.68899536 400.44799805
295.94299316 182.77700806 422.49398804
307.49197388 166.78099060 364.77499390
339.39297485 208.87100220 464.27499390
127.93450165 185.38459778 330.84628296
244.08013916 209.00009155 452.95080566
140.74035645 181.61122131 537.73187256
110.21897125 132.85096741 382.45257568
221.05822754 188.35690308 414.97393799
106.70011902 192.55116272 441.08273315
199.86564636 204.06884766 427.60894775
278.23999023 165.71000671 372.95300293
228.13592529 256.70889282 443.74288940
224.99378967 255.96621704 436.66561890
197.25238037 150.14056396 340.15539551
185.15628052 199.89483643 326.36682129
200.26913452 207.54751587 481.71099854
121.74965668 186.51777649 530.13098145
102.53205872 148.77099609 399.19042969
106.85900116 138.08035278 396.41812134
219.23625183 221.50978088 345.80337524
202.59201050 148.04565430 403.35687256
287.98944092 217.00733948 379.53210449
297.88699341 182.55200195 415.19702148
291.37341309 245.67738342 434.28176880
235.87832642 170.64025879 375.60903931
255.41725159 225.49368286 373.61053467
189.82052612 175.15370178 446.69442749
171.89317322 129.15246582 337.56011963
105.81325531 180.97947693 368.47219849
164.04745483 113.97528839 421.99816895
146.02229309 167.84722900 467.50360107
129.08300781 117.00706482 416.39337158
122.29030609 188.47529602 513.87207031
104.32759094 149.70565796 421.74188232
276.44601440 186.23199463 371.25701904
207.39724731 132.62420654 369.47314453
163.96295166 248.51206970 391.42660522
116.10725403 132.31642151 354.11480713
170.60470581 241.78346252 349.84030151
315.21401978 212.96800232 376.31500244
333.31100464 163.22599792 369.17999268
179.69300842 249.81985474 368.17691040
156.98402405 172.46141052 462.98449707
128.61845398 126.37155914 441.81356812
303.44000244 206.52400208 468.69299316
207.15728760 186.63861084 415.54739380
129.41134644 225.81973267 448.61898804
306.27621460 245.33114624 453.34179688
119.75195312 171.80961609 510.30468750
350.38800049 185.97300720 387.47500610
119.31054688 128.75328064 428.55111694
165.21340942 238.64750671 485.09725952
352.10699463 209.48899841 441.34597778
143.62988281 194.63610840 542.20617676
161.42449951 247.28819275 443.90353394
118.50179291 177.40591431 497.21975708
277.29800415 195.54100037 451.62100220
121.83813477 163.30342102 336.50964355
271.98602295 174.21099854 404.44201660
263.68701172 176.38899231 412.30200195
105.56399536 196.51698303 418.77200317
141.52583313 206.37750244 547.33178711
122.63765717 122.09752655 418.07110596
242.46411133 245.79359436 380.92813110
267.26342773 248.26631165 412.23883057
101.65922546 168.43376160 387.56735229
334.38101196 227.67298889 396.56100464
247.55941772 221.63980103 484.24624634
330.32501221 189.12098694 404.90002441
259.92886353 229.25094604 496.24877930
222.05709839 190.64343262 428.70153809
300.23373413 246.90939331 464.18005371
164.07736206 186.18186951 322.46832275
301.88198853 188.30500793 428.07998657
339.07000732 220.26600647 410.36798096
179.69532776 120.97606659 345.92916870
126.18593597 124.45281219 347.05371094
203.17909241 252.98908997 493.43893433
105.27432251 189.50770569 383.51412964
171.53459167 136.44822693 333.37765503
116.58414459 215.10981750 367.15252686
261.05181885 241.36122131 501.51644897
261.44497681 182.04798889 390.33599854
116.64015961 127.06015778 365.95428467
177.96429443 232.41275024 339.29370117
349.85137939 212.84927368 410.15582275
115.44538116 185.00375366 475.64572144
206.65205383 221.30819702 482.69665527
289.17926025 243.77581787 394.33319092
137.68449402 176.24060059 325.64120483
126.98470306 232.04989624 404.04028320
234.81521606 182.54560852 371.04083252
151.21542358 235.54496765 466.91879272
138.97148132 212.92984009 333.07009888
162.43835449 234.21966553 522.00292969
133.63146973 208.87979126 520.11712646
292.65002441 169.45500183 363.84298706
295.77648926 244.73129272 483.58865356
198.85247803 217.62236023 498.56985474
289.53054810 247.41610718 476.42819214
192.36222839 199.64744568 513.33453369
185.91030884 228.62667847 538.94458008
283.34799194 174.63700867 396.93701172
152.79248047 155.14926147 439.48715210
146.82475281 113.10659027 427.15625000
111.25502777 198.37646484 362.62231445
100.03349304 159.71519470 408.95538330
114.05648041 126.84301758 390.69686890
184.10037231 240.90029907 538.18182373
180.42143250 215.41291809 329.24093628
141.31503296 113.32337952 416.42889404
202.34735107 206.24806213 466.86334229
341.94100952 173.71000671 367.35800171
273.00500488 243.62701416 484.91296387
204.81976318 250.67388916 413.47116089
163.56509399 211.30447388 327.11883545
177.99380493 109.77906036 363.19250488
122.67186737 213.37278748 449.73220825
126.96990204 133.52886963 341.93676758
341.27700806 173.87300110 391.96099854
296.26797485 168.46400452 375.50198364
322.41601562 194.21600342 366.01998901
234.50440979 250.62408447 514.08721924
143.63136292 174.24693298 528.73193359
249.94253540 181.52307129 382.01705933
321.02001953 165.30300903 372.91799927
335.23101807 214.44000244 391.74200439
209.28579712 138.81945801 374.06222534
112.05296326 168.00793457 471.43649292
269.24377441 249.15562439 438.97421265
287.60598755 171.88299561 383.56500244
115.18649292 166.91741943 485.96582031
135.48170471 147.39237976 460.97122192
282.63751221 245.78097534 409.19458008
147.61152649 104.44804382 380.66055298
130.14025879 137.27253723 473.19757080
114.58031464 203.80305481 353.48745728
238.39067078 255.22235107 495.64328003
206.38793945 170.26289368 388.81494141
144.37106323 132.91278076 438.90792847
195.36640930 115.73433685 373.48489380
209.35974121 255.33312988 482.85989380
278.08499146 174.00599670 391.10501099
213.75123596 192.54867554 428.23394775
279.07699585 201.29199219 376.12500000
242.19236755 254.47023010 508.38446045
233.71325684 214.21101379 455.82458496
345.03900146 218.78999329 449.91400146
163.66336060 138.17149353 332.42437744
197.11001587 210.59718323 432.42123413
110.16950226 209.78744507 407.33963013
136.55912781 236.88664246 367.04348755
223.23887634 254.71261597 428.34994507
285.25500488 163.67300415 367.70001221
254.43354797 250.02185059 419.84506226
182.32798767 181.58537292 474.81994629
273.37539673 243.01968384 384.71087646
149.32556152 226.63804626 534.40551758
161.13812256 222.96101379 548.80139160
183.98797607 204.67710876 526.69738770
212.89775085 210.24125671 340.12924194
324.03961182 234.52346802 461.68722534
199.12036133 129.91993713 352.04721069
177.93688965 244.80406189 496.16717529
289.26400757 191.63999939 371.02099609
155.65580750 145.78691101 429.65341187
318.08599854 161.54499817 367.28701782
341.75802612 195.53401184 387.46600342
130.69924927 156.15551758 523.29840088
316.61199951 171.32600403 376.41201782
213.59527588 256.76602173 442.72769165
138.57971191 235.65299988 448.65097046
161.28784180 124.62973785 424.27093506
145.04217529 167.22885132 488.68048096
186.01185608 225.71467590 336.93106079
216.86912537 256.78210449 471.58911133
219.31657410 255.31184387 495.65429688
318.36398315 222.41799927 380.81500244
141.56492615 165.00682068 474.22402954
325.88000488 199.95201111 436.95397949
242.87141418 182.52589417 403.47857666
216.66456604 205.78421021 442.73919678
160.48399353 131.87742615 422.16339111
315.35198975 195.32200623 430.08200073
121.49240875 160.70213318 516.26416016
149.96929932 243.34986877 403.01660156
204.12869263 126.31721497 366.58410645
102.77757263 183.49620056 397.38891602
311.71289062 228.61653137 386.64389038
336.02999878 222.30599976 476.69601440
137.73057556 137.64601135 335.07064819
247.80690002 208.65104675 366.24224854
250.82678223 186.52621460 370.68615723
100.89446259 160.05883789 391.71109009
199.63302612 249.83418274 364.88153076
294.16702271 162.20300293 364.52999878
133.87188721 230.63163757 451.29074097
272.86828613 238.41545105 492.35623169
257.71960449 253.65438843 505.32525635
171.95645142 107.71886444 392.30413818
223.57870483 230.36936951 351.80340576
257.39700317 214.33499146 477.37802124
222.58242798 257.78036499 455.72598267
118.38381195 148.06977844 467.33731079
149.45487976 227.59001160 546.66186523
356.32601929 198.92098999 418.78698730
190.71340942 245.97029114 510.60830688
154.22903442 208.04475403 545.51147461
352.60998535 206.19999695 447.42300415
224.97186279 188.40162659 379.11465454
125.38991547 119.28485107 354.19174194
148.42572021 126.04347229 338.00958252
116.58992767 198.34989929 466.50378418
345.54299927 164.38299561 372.57501221
201.95506287 169.04994202 336.70404053
344.30700684 186.28700256 397.72799683
254.18022156 239.21972656 375.19088745
330.28161621 230.22593689 457.71279907
157.68234253 232.36331177 514.83508301
187.62294006 148.66506958 414.94476318
212.00248718 223.25871277 343.57263184
185.60003662 200.01971436 521.48571777
275.22000122 171.85198975 366.20300293
185.12396240 153.63044739 332.32415771
258.58398438 201.29299927 460.13998413
194.00524902 159.71282959 334.78366089
322.92102051 165.68400574 361.27902222
118.55879211 169.74153137 338.65576172
102.09194946 170.16363525 433.52392578
350.68099976 204.91300964 392.38400269
276.46536255 229.30162048 381.99426270
139.99981689 154.30638123 514.34588623
123.81439972 192.55963135 490.98068237
209.20773315 207.12374878 427.77478027
223.29837036 197.61975098 442.91146851
212.59617615 240.49595642 502.68447876
116.22765350 158.54216003 480.25628662
218.46803284 220.08317566 477.93948364
221.90339661 251.50990295 508.47506714
259.11831665 209.40512085 374.06039429
191.42158508 174.15025330 330.48983765
156.95471191 230.76789856 500.07666016
318.26400757 235.71899414 487.08401489
193.00085449 122.24217224 400.58438110
110.71106720 136.57270813 423.86233521
261.98980713 250.75552368 491.79205322
206.46823120 254.12850952 427.96475220
334.24600220 165.81399536 380.12399292
139.19238281 149.58964539 500.96810913
145.73681641 114.55740356 347.68267822
299.13000488 227.88398743 489.74401855
208.79945374 178.48724365 372.37905884
187.54408264 250.67645264 471.22421265
109.96076965 133.97105408 402.87060547
183.64051819 110.52884674 382.64938354
137.89308167 117.20164490 427.51855469
299.45901489 240.98957825 496.23068237
154.43928528 176.26313782 492.38241577
180.85208130 140.06216431 334.19531250
164.37380981 185.57586670 521.75378418
142.83905029 163.57110596 327.04898071
288.46298218 223.53099060 486.65802002
115.30622101 217.23907471 417.00387573
153.79940796 188.34091187 532.29406738
182.75669861 115.46865845 405.39053345
219.11924744 213.92300415 343.83651733
343.21099854 218.75500488 463.10800171
322.31201172 210.42999268 373.11102295
209.98913574 211.26327515 462.73379517
334.33099365 184.42399597 363.85198975
177.80403137 185.70524597 489.95236206
246.48648071 197.00936890 435.41589355
203.33201599 139.58872986 394.82223511
151.17185974 227.06323242 518.72589111
140.91073608 160.74671936 491.55194092
244.86540222 254.71183777 468.29281616
133.32385254 220.88096619 461.97467041
233.02041626 246.78466797 378.22964478
134.46444702 129.36892700 454.93963623
238.91462708 216.41925049 470.81234741
146.50382996 238.30763245 458.96331787
208.05256653 150.90869141 353.87933350
140.26490784 220.34684753 473.48498535
268.28598022 172.75300598 377.03100586
136.65275574 211.38812256 513.13269043
210.39225769 253.85832214 496.19403076
203.82434082 216.39727783 475.16360474
151.05249023 106.51829529 399.35678101
121.93961334 224.77468872 418.72253418
250.72705078 252.38710022 481.49276733
145.66407776 105.81011963 367.10812378
215.31143188 197.99485779 343.70486450
124.12619019 137.17102051 460.89352417
131.86241150 112.54449463 383.74511719
176.97789001 220.33799744 538.89892578
324.20401001 224.11599731 384.87100220
191.08459473 196.83631897 329.36947632
193.05531311 252.39547729 466.69943237
198.70295715 235.63279724 530.20153809
200.65330505 253.66845703 473.77105713
219.74395752 212.04579163 456.78958130
173.01533508 185.77891541 509.30541992
245.56533813 189.45346069 422.11831665
355.21200562 180.69699097 385.46499634
233.61270142 218.82145691 355.07424927
187.44490051 132.07359314 408.61282349
104.83383179 143.20983887 409.11016846
250.71165466 252.98112488 491.80712891
339.39700317 216.22698975 384.88800049
240.71369934 255.17935181 437.52847290
201.18353271 163.58618164 415.23745728
299.27502441 197.88000488 373.46899414
201.16799927 230.20597839 493.24093628
196.17922974 170.26242065 435.59619141
264.45498657 190.28698730 440.50100708
305.79501343 204.04901123 375.39700317
207.00819397 187.67817688 341.77377319
204.15773010 200.97854614 457.39553833
154.40296936 109.75973511 418.00781250
276.31030273 212.77986145 380.28903198
198.91624451 198.23988342 485.95471191
251.25280762 193.86877441 369.32241821
108.03015900 154.96679688 363.28573608
306.00900269 223.30200195 484.79000854
106.12992096 196.77502441 428.22415161
224.61401367 182.44396973 403.99548340
224.26203918 215.28610229 464.87951660
255.94795227 248.41888428 398.11425781
187.62915039 251.87322998 453.15222168
136.06291199 209.32508850 501.29461670
179.72288513 167.81034851 327.60137939
110.81177521 200.91197205 444.74221802
239.25041199 242.21838379 503.83071899
310.24285889 241.43937683 422.44042969
160.51943970 126.15721130 337.92453003
196.10862732 245.97749329 518.49597168
342.79699707 204.66099548 413.13800049
204.48133850 178.84527588 403.82186890
187.39909363 210.32769775 526.71575928
233.99148560 256.39779663 460.93936157
172.47790527 183.83361816 484.82818604
162.29093933 171.60089111 323.98916626
145.29064941 147.68872070 438.85714722
152.71832275 103.86613464 367.44903564
190.18153381 243.00086975 529.67736816
177.91122437 243.22265625 351.61157227
320.14901733 183.74299622 394.78399658
175.11709595 170.32246399 447.29089355
101.51837158 182.94683838 419.40750122
216.07228088 195.32080078 437.95120239
269.49887085 245.76219177 392.83279419
192.67884827 218.08589172 335.30776978
278.92300415 192.29100037 373.84899902
145.60687256 222.29731750 479.77722168
292.94400024 193.37800598 453.07601929
230.26692200 206.33662415 443.50262451
337.90100098 200.46600342 439.67898560
288.20120239 245.41612244 426.55941772
192.87525940 189.84272766 493.41864014
221.42796326 239.03869629 499.75814819
111.38158417 182.03215027 349.41152954
167.90159607 104.90001678 376.84988403
226.81747437 233.47593689 356.77700806
206.76145935 179.14599609 336.59204102
212.59028625 165.36341858 377.10638428
153.48350525 123.43753052 433.00265503
292.03903198 243.79328918 495.82104492
224.59140015 245.67459106 506.83706665
350.86105347 209.33996582 399.77926636
328.95700073 173.84300232 383.33200073
123.75269318 210.16790771 463.59442139
212.81108093 230.49011230 493.39813232
105.66071320 162.54254150 447.88964844
104.72494507 171.73895264 444.85897827
207.90768433 170.67767334 382.05538940
101.04638672 167.11836243 427.10650635
206.76797485 209.07171631 453.49307251
101.63921356 183.66307068 404.55603027
144.72985840 238.77334595 358.14126587
185.93014526 215.55781555 530.88397217
163.17976379 181.16757202 488.46356201
348.76852417 214.81369019 417.47012329
274.16299438 213.83898926 478.91699219
159.67312622 113.60973358 348.44909668
132.32411194 111.77905273 395.96716309
263.11099243 188.62899780 432.45397949
196.67018127 127.26976013 398.80328369
165.04200745 213.99649048 542.64746094
110.79510498 190.06137085 357.16574097
304.85998535 186.27299500 412.18298340
126.36011505 145.73869324 488.82495117
256.31665039 252.53608704 442.27645874
342.05599976 194.08500671 426.35699463
173.06814575 115.42583466 349.31274414
333.96899414 220.59300232 483.47198486
266.46047974 249.10351562 459.91134644
237.41932678 193.93531799 433.57196045
281.14398193 231.65699768 492.94201660
317.09100342 180.28100586 389.47201538
191.58245850 244.14982605 355.98654175
240.35185242 249.31040955 406.88397217
134.02984619 161.08593750 526.52056885
202.66239929 208.87161255 437.09439087
161.42932129 144.66615295 424.97335815
117.60298920 144.39840698 346.18084717
174.72634888 244.56034851 474.71771240
149.13650513 171.83662415 486.96603394
196.61326599 223.40885925 496.74533081
218.49705505 166.06979370 356.18988037
148.92437744 211.23361206 329.08758545
159.61776733 245.26071167 400.42456055
315.90701294 184.81401062 363.77398682
274.36398315 179.92100525 368.48599243
354.38000488 200.00000000 403.99700928
255.19001770 183.79199219 376.99899292
286.20373535 247.19070435 437.66088867
300.86199951 184.01499939 366.75500488
203.94700623 143.48419189 350.18280029
123.52244568 205.22708130 472.70159912
119.44923401 131.81488037 436.81057739
148.66502380 158.55029297 447.16528320
298.31091309 233.77239990 387.52539062
144.29786682 163.32350159 501.46484375
346.18801880 170.43099976 379.31298828
131.18357849 231.47897339 424.65927124
339.35699463 181.71699524 400.92300415
354.37701416 205.90600586 424.43002319
181.97903442 120.37714386 410.13403320
181.04768372 162.18807983 432.25473022
134.66281128 147.59233093 475.28970337
330.30099487 196.75601196 366.49298096
102.32508850 155.17651367 385.06958008
341.77398682 196.56201172 396.86099243
317.06301880 203.04299927 449.98602295
131.21389771 232.15960693 364.64184570
307.33300781 196.12998962 445.15298462
147.08802795 166.66564941 514.41491699
325.54000854 212.32800293 468.27600098
198.71580505 207.14974976 333.12036133
325.84399414 178.75599670 361.20501709
345.02899170 195.12001038 381.99499512
249.89624023 180.01075745 395.77276611
317.70300293 226.45500183 489.18597412
170.71504211 184.38717651 501.31399536
179.33959961 136.35746765 413.64724731
265.04196167 208.48936462 375.75436401
269.09802246 197.99000549 453.29898071
203.93284607 195.63880920 447.26550293
308.23901367 168.83200073 372.07699585
105.62709045 195.54447937 399.72048950
339.69000244 217.11300659 395.41198730
137.05740356 156.46963501 468.19787598
205.16477966 216.08427429 338.07583618
208.15431213 243.18470764 357.21377563
328.98699951 215.72299194 378.43399048
180.14849854 190.64427185 513.05261230
107.51279449 200.56364441 384.03091431
316.98599243 189.08500671 409.60198975
237.14079285 245.80662537 384.64950562
116.72138214 216.14126587 430.67636108
332.45181274 220.80657959 405.10739136
123.93380737 116.78491211 373.43338013
132.50221252 206.93177795 544.01501465
154.44219971 245.93829346 417.62069702
112.21546173 205.46498108 368.71331787
209.23181152 159.10401917 386.02859497
200.23904419 187.89878845 332.30261230
138.48504639 136.99880981 449.92910767
118.06779480 124.02902222 396.18063354
112.34644318 191.17942810 463.69195557
200.18666077 151.28797913 411.96768188
186.20840454 213.09756470 330.85757446
133.58201599 178.76878357 537.32574463
110.65749359 204.05255127 377.46493530
143.04989624 228.13017273 467.35351562
120.33552551 225.91506958 395.98361206
163.22540283 246.45242310 452.98504639
240.34658813 194.09411621 367.19412231
171.98382568 122.37546539 342.45745850
194.69181824 134.01364136 405.19485474
266.49960327 234.43762207 492.98764038
267.92401123 203.17601013 375.94299316
235.55546570 189.26164246 422.35308838
154.76037598 174.85929871 515.26861572
325.82501221 233.24299622 480.35101318
275.38601685 218.51300049 484.55899048
213.68376160 188.00653076 376.88317871
127.08488464 220.23144531 347.11383057
133.56501770 133.75914001 462.86700439
237.17903137 229.40502930 492.66726685
275.38400269 186.04399109 439.83798218
170.61889648 241.54438782 497.05175781
270.09552002 245.97087097 399.68249512
243.72525024 252.31227112 423.53231812
302.66244507 243.34909058 408.50106812
110.85289764 136.37002563 366.83862305
203.61474609 192.06346130 436.78332520
229.38589478 249.21267700 401.51641846
312.80801392 242.18200684 464.76501465
332.83697510 206.73699951 391.52801514
161.49952698 118.35817719 343.46722412
334.73355103 231.71961975 424.89138794
253.05075073 202.49754333 451.54254150
162.17605591 148.22927856 328.04629517
174.77191162 238.35186768 529.93615723
205.69287109 156.13601685 392.48648071
111.26835632 158.52041626 350.35479736
220.13613892 253.08024597 420.13809204
127.71604919 147.95935059 500.88275146
288.76699829 181.97299194 368.51400757
206.54132080 241.62112427 513.78033447
196.93669128 183.00117493 434.02743530
243.66204834 244.99395752 507.87615967
181.96069336 175.77578735 460.35360718
215.68507385 256.20101929 483.12133789
210.08628845 252.53627014 417.33996582
344.71899414 217.49200439 405.08499146
141.18771362 220.81671143 547.08898926
183.84754944 246.28326416 497.12179565
262.47998047 223.11100769 488.25698853
321.36447144 238.73190308 428.21539307
178.76292419 233.23854065 546.00268555
275.14031982 248.24725342 438.55389404
339.89300537 190.62399292 368.40399170
191.18823242 252.88119507 433.46719360
143.14033508 238.61054993 445.07708740
163.51681519 238.34841919 345.83786011
159.81231689 109.78141785 353.62460327
155.14935303 182.48266602 528.29968262
114.04885864 196.92137146 348.95135498
109.12717438 168.67465210 461.94894409
120.36149597 120.00668335 383.34216309
330.00900269 194.64900208 417.05099487
356.29901123 187.35598755 397.24902344
198.49205017 254.36157227 433.55819702
118.06192780 208.80084229 453.08370972
339.32199097 170.33099365 387.10299683
239.10087585 246.76727295 392.61901855
170.64015198 111.12288666 411.37951660
298.15997314 179.00801086 400.48797607
298.60202026 174.47300720 386.86697388
109.74292755 140.69488525 432.67297363
318.94857788 240.69136047 440.85607910
110.41569519 146.10589600 443.54071045
243.11926270 224.26654053 365.11605835
110.37266541 208.58078003 415.86145020
133.44140625 206.24659729 506.73162842
210.51185608 186.02436829 383.78341675
248.19628906 211.97041321 467.49798584
281.95663452 245.63272095 394.91744995
343.44500732 192.48199463 401.22198486
107.81748962 141.60186768 419.75228882
133.59884644 198.94190979 541.61120605
356.87500000 193.69601440 428.56298828
108.18373108 181.73004150 359.17980957
121.71679688 215.46856689 349.83026123
351.50399780 193.30200195 431.61599731
141.38070679 150.22526550 329.92718506
313.00399780 217.95399475 379.23699951
175.60705566 248.43040466 362.37008667
257.46270752 250.62402344 428.95303345
179.82696533 252.18701172 438.92556763
274.20898438 225.94801331 488.95800781
136.32978821 182.41604614 325.85180664
241.51516724 200.86253357 358.94360352
161.30357361 235.40681458 502.18521118
249.37953186 254.23922729 457.97888184
148.76434326 118.84857941 343.34014893
156.05851746 191.00125122 323.89938354
194.61492920 120.02288818 394.77389526
311.19500732 241.32751465 480.00787354
169.29316711 194.67457581 322.17413330
193.70715332 253.38313293 458.68310547
213.42178345 249.55273438 390.42681885
216.96791077 246.15052795 364.55682373
124.95787811 116.97061157 362.15194702
104.07767487 146.35906982 392.77563477
270.72201538 172.98500061 411.34197998
351.05599976 206.71199036 413.69000244
204.90280151 249.55706787 389.21142578
211.63221741 159.77938843 379.45233154
111.83942413 152.31912231 456.41357422
133.98489380 214.20318604 532.55560303
241.35084534 243.53668213 372.26727295
334.21899414 205.50599670 372.67398071
129.71096802 225.92529297 351.59869385
251.50051880 225.78662109 492.43038940
326.36599731 162.30000305 372.76901245
178.41099548 250.35195923 389.84405518
141.57664490 152.31427002 449.60443115
134.94987488 166.51936340 529.21655273
190.78056335 189.39494324 329.27532959
120.18435669 182.70550537 501.78463745
210.84365845 197.84768677 444.88647461
119.18550110 211.75056458 444.82333374
247.26205444 249.28810120 511.16543579
175.66482544 207.58737183 533.62908936
256.04992676 199.72673035 369.90957642
144.70994568 186.19061279 538.80291748
249.35263062 255.10263062 502.25054932
163.73703003 247.83721924 434.93185425
213.23306274 187.26670837 397.68655396
111.12512207 171.26417542 347.67855835
161.89169312 243.99559021 460.82519531
176.10067749 247.45042419 404.85354614
164.32148743 237.01490784 509.52093506
294.14801025 179.27700806 405.44302368
123.12032318 227.20700073 381.31683350
200.15165710 195.94065857 471.71166992
210.93420410 169.48535156 342.90341187
147.42472839 199.29060364 543.05352783
270.65399170 174.39199829 383.63299561
261.09701538 184.66400146 424.06900024
141.72402954 192.55024719 325.93530273
152.56901550 179.29559326 323.67031860
216.23460388 189.66714478 368.72421265
326.19662476 233.84457397 469.41958618
149.96658325 170.99176025 501.80792236
281.36099243 250.28497314 461.93942261
100.14263916 173.99543762 412.74114990
145.77525330 162.65609741 455.61801147
213.82046509 248.74133301 378.74545288
120.72853851 217.26275635 358.51730347
111.06360626 135.34622192 417.63064575
308.93701172 206.78298950 464.86499023
338.75900269 178.77999878 365.69400024
105.34877014 154.93411255 372.41116333
288.70901489 238.29507446 388.42855835
318.47238159 238.83470154 458.84774780
327.46722412 233.91040039 409.82519531
177.99114990 238.89869690 543.11517334
137.16850281 146.00485229 488.45010376
147.11746216 241.74931335 437.83172607
151.01097107 227.18830872 338.51434326
198.45359802 215.42669678 509.90975952
253.33198547 190.82699585 427.49801636
306.20898438 171.17199707 377.24499512
110.52496338 210.74783325 394.01943970
159.88990784 107.46561432 401.00161743
162.11108398 175.65423584 467.46621704
253.76560974 252.56723022 470.17913818
270.95602417 175.67799377 423.07901001
178.27273560 152.71704102 422.76541138
124.88952637 160.04975891 523.29193115
202.12567139 130.05281067 390.68658447
171.15994263 148.14503479 328.86373901
137.05369568 235.05343628 435.38885498
255.28556824 239.81762695 503.43041992
347.43316650 217.71072388 431.90814209
239.08610535 228.36225891 362.71759033
316.77200317 191.37799072 416.98397827
168.04266357 209.77409363 538.83111572
292.63201904 214.26899719 478.71701050
157.73719788 134.10984802 333.31732178
160.17240906 247.63566589 422.84402466
145.76449585 198.76458740 326.15533447
186.79847717 248.39363098 416.78320312
298.49801636 210.14300537 378.56799316
167.32411194 184.52401733 512.22943115
195.99443054 250.76716614 369.89993286
112.87857819 200.82582092 450.43572998
114.22711182 170.05863953 480.54254150
184.10742188 236.27998352 344.75738525
232.68495178 224.45072937 357.64401245
342.76199341 197.71000671 437.35900879
178.00045776 173.52552795 453.29754639
283.16598511 176.78800964 423.59301758
190.00834656 238.55912781 539.08819580
190.54731750 251.69178772 379.68515015
138.41880798 125.40396881 340.21038818
353.78900146 200.37199402 449.60098267
189.64611816 153.61346436 417.74563599
262.19628906 248.93621826 414.62265015
209.37899780 149.41445923 382.50579834
164.53591919 163.33920288 440.59155273
140.63372803 239.87484741 401.41845703
159.67271423 165.94006348 323.64892578
207.59561157 178.18925476 378.87484741
205.06758118 169.68960571 396.67755127
137.74815369 239.44667053 411.96026611
306.78799438 189.79899597 423.51898193
251.31002808 203.72047424 440.93295288
154.23930359 244.88404846 440.39614868
157.79592896 103.50360107 364.32546997
108.27211761 142.12210083 368.29910278
147.98046875 124.06802368 438.66073608
149.08659363 241.05929565 454.02316284
128.39881897 113.47490692 366.06735229
118.23532104 219.27113342 373.15487671
195.23191833 222.66978455 520.55072021
341.10266113 225.21887207 412.99798584
203.14160156 249.93798828 510.67321777
227.87071228 220.08343506 477.62829590
110.34541321 179.74052429 463.41845703
211.85385132 256.64846802 465.12310791
102.22927094 187.33900452 415.14151001
240.63253784 221.66632080 482.82580566
144.88989258 170.71638489 523.78356934
188.30204773 248.72583008 493.99655151
275.50100708 166.00399780 367.68499756
348.19998169 198.43099976 447.87698364
337.11999512 203.29199219 385.60501099
255.64616394 186.93243408 418.99508667
110.81536865 158.96958923 461.56552124
228.36952209 211.52882385 350.68484497
151.97926331 222.13830566 550.81896973
149.42582703 175.73213196 525.95892334
135.92947388 152.93859863 479.00543213
304.82101440 171.80299377 361.83200073
157.35636902 247.56527710 371.91134644
295.82937622 244.96803284 408.20565796
243.92146301 226.59234619 491.71542358
125.31733704 226.85848999 371.92803955
197.17947388 198.68470764 330.73641968
337.04901123 178.96200562 394.39099121
267.28250122 250.96174622 448.89569092
104.50961304 159.79512024 438.36923218
299.98400879 188.35798645 433.69000244
168.50827026 235.77790833 540.81811523
125.40547180 117.16935730 389.48773193
246.37486267 235.54682922 498.14883423
191.64913940 141.98501587 339.36355591
202.28108215 194.03146362 332.96044922
302.62945557 218.62908936 380.68072510
119.34191132 195.76533508 478.09774780
335.87802124 225.61000061 471.80499268
324.66107178 234.54725647 399.99734497
189.96272278 117.28491974 357.10168457
276.30996704 246.61170959 421.13357544
225.54765320 176.71910095 393.16159058
196.57556152 244.81553650 527.40570068
311.30297852 196.17199707 369.55700684
158.88255310 247.31469727 429.17568970
113.15657043 212.01640320 382.39495850
106.34398651 198.51203918 394.62619019
249.08712769 248.78790283 399.92117310
176.86436462 126.23419189 414.78793335
138.35246277 156.58647156 488.19995117
200.43800354 228.55120850 342.22930908
174.71914673 174.74281311 324.79061890
145.48770142 242.90965271 372.95654297
324.83502197 236.65121460 445.84686279
295.22500610 175.38600159 391.58300781
163.03184509 180.87123108 502.56448364
250.33232117 213.31434631 369.08325195
200.79702759 121.92672729 364.52304077
257.33102417 181.13200378 405.47497559
151.41548157 216.92805481 331.24914551
168.76301575 118.51029968 420.20126343
177.53178406 250.92565918 376.56011963
327.99200439 216.45899963 415.18801880
183.70127869 175.45991516 327.84591675
158.56535339 156.23931885 436.89221191
194.27832031 183.80525208 475.86849976
201.48005676 247.09710693 520.55285645
198.64831543 160.58547974 421.82302856
206.11810303 167.18832397 340.34582520
168.51574707 189.53407288 324.81881714
