ply
format ascii 1.0
element vertex 2048
property float x
property float y
property float z
end_header
323.47399902 257.20599365 477.47100830
105.93199921 165.71701050 577.12103271
161.14799500 294.72198486 487.19000244
179.60398865 163.07699585 464.55801392
96.15599823 216.82899475 490.21499634
160.88999939 260.16799927 581.44897461
232.70500183 232.20401001 510.48898315
108.15899658 131.95899963 497.70297241
252.03298950 295.77499390 462.85598755
176.56298828 184.01899719 542.53900146
185.69799805 235.28399658 451.01998901
121.52700043 264.24099731 528.87500000
205.23298645 283.02899170 540.52197266
123.86000061 217.44300842 604.82598877
276.77099609 217.94099426 472.36697388
123.53800201 176.83100891 458.84799194
163.84700012 117.12899780 494.89300537
101.48099518 213.43701172 547.52301025
133.25299072 248.78700256 463.27902222
177.93400574 227.72799683 506.20800781
218.60099792 199.57398987 471.74398804
133.26499939 154.67900085 535.92700195
202.58100891 287.17898560 458.42098999
234.64299011 246.09899902 461.03399658
92.28400421 174.14698792 517.79400635
238.66499329 291.18600464 507.63500977
160.97900391 210.97000122 576.68194580
184.69099426 240.68998718 548.96496582
183.16200256 154.05799866 510.05999756
161.20199585 281.57998657 536.94702148
275.09899902 261.32598877 476.94201660
155.30900574 204.80599976 449.25900269
142.12500000 137.36799622 464.28900146
122.29699707 243.85499573 568.72900391
214.72500610 195.61799622 512.62896729
199.63999939 294.72100830 498.60000610
143.87699890 176.55000305 566.82098389
165.68200684 268.21398926 459.77499390
110.31000519 250.66300964 495.64901733
119.36299896 215.24900818 461.48699951
98.72299957 165.66899109 482.29598999
136.62600708 124.00800323 517.47796631
191.14799500 260.21398926 501.65100098
127.73500061 183.07901001 597.78100586
190.28599548 188.43099976 487.31600952
157.18499756 203.87899780 519.16101074
133.15800476 275.58499146 494.52902222
243.90800476 259.27001953 493.57598877
100.61000061 152.07701111 544.26000977
188.52000427 202.42500305 455.74502563
152.86199951 235.10099792 554.99603271
307.22601318 230.21499634 468.47998047
108.19000244 199.99000549 577.70098877
185.28999329 272.08898926 563.79199219
219.57899475 264.40100098 516.55603027
300.39999390 280.90100098 480.72497559
247.21099854 214.62699890 484.57299805
225.44999695 301.01000977 479.71200562
104.73699951 236.71699524 525.98199463
202.22599792 238.83999634 522.93005371
184.78498840 137.83399963 482.55700684
138.83399963 266.94802856 554.46899414
133.91799927 115.44899750 487.82400513
145.11700439 236.39599609 592.29302979
153.51599121 173.31098938 453.72500610
98.02999878 184.25999451 553.41998291
96.93700409 206.37300110 518.11499023
169.79800415 212.92700195 544.92303467
205.91799927 258.08700562 456.05902100
152.95300293 148.59800720 515.00201416
186.29600525 201.43099976 520.76696777
212.07299805 225.45599365 458.76602173
229.68000793 276.58901978 457.83297729
114.68099976 142.46200562 471.75000000
103.88800049 193.79598999 472.15701294
176.89999390 290.68801880 515.05200195
156.71400452 232.94700623 451.18002319
112.79000092 132.83500671 528.95599365
260.57699585 239.93299866 466.72897339
148.96400452 289.17398071 511.95700073
157.48100281 165.94299316 535.86999512
195.09899902 161.32199097 486.05001831
184.60400391 294.74499512 476.30899048
98.16099548 149.22100830 515.84295654
112.00199890 235.24299622 474.98001099
121.21099854 159.24400330 558.13299561
254.01699829 297.04602051 487.88800049
252.24200439 269.52600098 466.38800049
191.70401001 177.30200195 514.30895996
298.34100342 256.40899658 468.78601074
227.41099548 286.02700806 529.34399414
143.66400146 202.16999817 592.40197754
144.67599487 273.00000000 472.42199707
197.55599976 258.64898682 536.87902832
94.18000031 192.32099915 498.09100342
164.18800354 128.15699768 473.21701050
271.07501221 284.99298096 474.30499268
112.91100311 221.65599060 567.61096191
165.01800537 190.56401062 562.53100586
251.66699219 236.63699341 494.00399780
233.03698730 209.05000305 502.86001587
115.38899994 244.03799438 545.84899902
213.09199524 218.01400757 523.05999756
234.90100098 221.46501160 466.01000977
213.76399231 186.54400635 490.26098633
173.58699036 184.93301392 456.00598145
159.74398804 273.79501343 561.10198975
183.40299988 224.55500793 528.23797607
197.35899353 208.44999695 475.87799072
138.59500122 257.92599487 577.34399414
134.61099243 196.80899048 453.67398071
284.64697266 238.15299988 466.08001709
162.59999084 147.50500488 461.82400513
135.92800903 158.11799622 458.78799438
239.74700928 280.09899902 485.69598389
140.04899597 278.20300293 530.96997070
171.99400330 246.31900024 566.24298096
194.01599121 183.40699768 466.05999756
182.70100403 278.66400146 542.82702637
187.52301025 270.25799561 457.92401123
125.01099396 261.25698853 479.96200562
209.11799622 290.42599487 518.29901123
124.03099823 233.31199646 587.54602051
93.97900391 190.57499695 532.55395508
169.11000061 138.72698975 504.66400146
140.25401306 219.46301270 453.75601196
112.48300171 197.75199890 600.46899414
177.54901123 168.48200989 527.42199707
193.71701050 239.30899048 498.66000366
200.95199585 202.83200073 498.15197754
173.41400146 216.16600037 451.11199951
163.62300110 231.18400574 537.31799316
126.97499847 171.17799377 580.86901855
99.66899872 233.09500122 502.42001343
118.77299500 264.34201050 508.37500000
221.55999756 296.34600830 460.17001343
205.47999573 298.47799683 476.46600342
220.83699036 297.57501221 500.08398438
170.94099426 249.29598999 451.15597534
93.62799835 162.82199097 501.38497925
150.61799622 255.10900879 455.92700195
156.19699097 231.64099121 576.60699463
140.75900269 168.69000244 548.98901367
107.80200195 180.70599365 589.76501465
95.35100555 169.85299683 537.98901367
228.89900208 270.33599854 499.36398315
111.78400421 163.47299194 468.02499390
153.50100708 191.77400208 579.30499268
267.20602417 232.26701355 483.22201538
176.67800903 247.69799805 504.15100098
167.75999451 283.80700684 470.88598633
127.62500000 126.79499054 473.69000244
165.95399475 223.31700134 562.33599854
98.84500122 147.77499390 490.92098999
119.15600586 145.70700073 545.00097656
99.80599976 165.66899109 557.36999512
118.90200043 123.95700073 510.96200562
131.31300354 277.27600098 513.86102295
153.60800171 128.82600403 508.56399536
218.65400696 244.17900085 513.84100342
256.34597778 216.60600281 468.37698364
192.69700623 285.94799805 525.90600586
153.61900330 250.96699524 564.61798096
261.63000488 249.96099854 483.44799805
115.82999420 215.07400513 588.42199707
136.57099915 141.82800293 522.03900146
229.96099854 208.69700623 483.17199707
150.06700134 117.59000397 479.52499390
233.77400208 250.66700745 505.82897949
194.39601135 215.92999268 513.73101807
172.24299622 213.19200134 515.75097656
103.87300110 211.66000366 474.44000244
145.53700256 114.25099945 501.77001953
182.35301208 296.15701294 494.18197632
141.35499573 218.94299316 598.19500732
193.47799683 219.55700684 455.33801270
103.96499634 183.73200989 571.81604004
165.57699585 188.58200073 522.50201416
156.49000549 175.30299377 554.40905762
124.58100128 232.07400513 462.05700684
109.75099945 249.74499512 515.36602783
191.03799438 256.70999146 553.03198242
223.39099121 260.24801636 458.52200317
214.69000244 242.76800537 458.75000000
128.81900024 200.71299744 605.65502930
107.55699921 228.82400513 542.16198730
258.00897217 268.70199585 482.62500000
197.34300232 174.15299988 497.32901001
146.73599243 285.56100464 488.55599976
101.48500061 219.59100342 528.00799561
139.22399902 182.33999634 585.07104492
308.74401855 266.02798462 480.01098633
125.50300598 255.85600281 552.83496094
165.73399353 159.11300659 518.90997314
188.43899536 186.51400757 528.64404297
177.94000244 146.15798950 468.95300293
212.28100586 274.01400757 454.20599365
102.02799988 199.31500244 559.77099609
284.98797607 275.78399658 476.30599976
215.23800659 272.70401001 531.96697998
188.06900024 143.50799561 497.89498901
116.93099976 196.58200073 462.14102173
319.85598755 240.61199951 471.64700317
174.96499634 262.06799316 572.19305420
179.75000000 201.45199585 538.17999268
141.16899109 236.07000732 456.32699585
202.94700623 203.29100037 521.29101562
163.92500305 294.67999268 505.72598267
190.01400757 190.58898926 504.90200806
168.46699524 238.97799683 552.13299561
117.65299988 124.09600067 487.10400391
198.81500244 176.34800720 480.59201050
106.72699738 134.56500244 513.99798584
184.26400757 285.42398071 462.63198853
177.84400940 129.31600952 494.45797729
187.07600403 251.17599487 453.77798462
243.06799316 224.42500305 500.03701782
162.33499146 288.20199585 522.31903076
237.27299500 290.74002075 457.97601318
170.44700623 199.92799377 451.18298340
225.57099915 206.84500122 516.83300781
240.90499878 301.19500732 472.98397827
169.62200928 207.87100220 560.61602783
144.06600952 243.27099609 574.88897705
131.35499573 268.57800293 540.60998535
95.33100128 181.57600403 486.54299927
246.80299377 231.51800537 463.34298706
150.00799561 190.04000854 451.17398071
262.85601807 216.35400391 483.35900879
108.07099915 178.94099426 468.84399414
248.49699402 254.45100403 463.59301758
197.52099609 270.26599121 548.22497559
227.97599792 280.28198242 511.55102539
194.56799316 242.85400391 536.92901611
235.94300842 298.67199707 494.11898804
131.99900818 232.17199707 600.99902344
96.80599976 217.97799683 505.82498169
208.57200623 256.37298584 524.15802002
221.10499573 213.68399048 463.39300537
253.02699280 284.72900391 478.48498535
151.86700439 157.49299622 456.75799561
93.53200531 191.94999695 513.57397461
222.86300659 196.47599792 497.86697388
114.92399597 233.74900818 558.22003174
262.92602539 256.22601318 468.78799438
148.29899597 275.82699585 543.79803467
138.25000000 175.37699890 454.19201660
175.99600220 284.04299927 528.90100098
291.46798706 224.42199707 466.85699463
131.39599609 246.77699280 587.23004150
209.51800537 204.85200500 484.44400024
200.73999023 235.56100464 453.72399902
112.07900238 249.35699463 531.92102051
96.31900024 201.32600403 485.96899414
168.14799500 217.43998718 530.50500488
129.67700195 169.37600708 565.61102295
107.72599792 152.66700745 560.33300781
262.61898804 297.54901123 475.15899658
283.76098633 253.74900818 465.76397705
121.27400208 248.64299011 472.47299194
127.49600220 144.36399841 464.05200195
167.91699219 168.78099060 456.94500732
103.58300018 234.48200989 487.97100830
168.89399719 278.55102539 550.18096924
152.46200562 220.99900818 586.47399902
172.30300903 196.09199524 550.25201416
128.28401184 115.41199493 503.12799072
125.72499847 140.80200195 532.61297607
225.71299744 294.71200562 514.02001953
267.13201904 272.06298828 468.66900635
193.67599487 160.48799133 500.65200806
190.47799683 195.67300415 472.98898315
147.22099304 156.24499512 525.94000244
176.80200195 229.72300720 543.69000244
97.65700531 154.57199097 530.32800293
135.23199463 261.84298706 469.13201904
171.44299316 233.06800842 451.22097778
227.06800842 232.52999878 461.25900269
107.84500122 136.51199341 482.84201050
97.27899933 196.66999817 546.36199951
192.16400146 229.43499756 518.14001465
272.96502686 243.87100220 477.44000244
220.47700500 228.52101135 516.62701416
98.14099884 207.41300964 534.38995361
192.83399963 290.88299561 512.68103027
118.86499786 162.25999451 572.67999268
170.52499390 201.84999084 523.79998779
93.50600433 176.78500366 502.38000488
189.51000977 153.64399719 475.79501343
148.75599670 266.81500244 566.19000244
307.64401245 245.35800171 466.80200195
249.12800598 282.24600220 461.26800537
104.03499603 151.24200439 478.47000122
203.02200317 216.87400818 466.39401245
152.10099792 293.76599121 498.53598022
211.77500916 298.32199097 488.80197144
104.14999390 142.17098999 535.34197998
166.40699768 174.95899963 544.85400391
177.61399841 260.84500122 456.19699097
141.09199524 125.50200653 471.08502197
268.73800659 228.35000610 468.54400635
191.10900879 169.95599365 471.28997803
115.88300323 169.54800415 588.59698486
121.92700195 264.42901611 495.27902222
190.65100098 226.55799866 501.95999146
130.02600098 254.56199646 566.50402832
241.62399292 238.44300842 502.67498779
160.19200134 225.20899963 549.77899170
94.89399719 205.30299377 502.08801270
150.56500244 266.95300293 462.07601929
120.98900604 257.01901245 540.35198975
171.92300415 124.12300110 483.78598022
134.58499146 271.05599976 480.79400635
112.74199677 247.97799683 482.59298706
122.89799500 125.73300171 524.18298340
155.49301147 183.06100464 567.80700684
295.42300415 269.25900269 471.50601196
155.59100342 281.23501587 475.05700684
240.02101135 264.08599854 460.89398193
122.49600220 160.03399658 461.40100098
185.47599792 238.89900208 508.71902466
205.67500305 226.18399048 516.17303467
261.23999023 285.44000244 464.76300049
232.75099182 282.59399414 497.36499023
110.29100037 222.91700745 471.29397583
218.31500244 283.74002075 538.30804443
212.17698669 190.17599487 477.92398071
115.45600128 185.12899780 601.35699463
161.63099670 199.00000000 571.74096680
139.11999512 284.00799561 502.32101440
106.82599640 209.97200012 565.25000000
194.78700256 293.14199829 466.78799438
150.41899109 284.07202148 526.08001709
158.26199341 217.20999146 451.05001831
117.75799561 224.64099121 579.15197754
181.95700073 208.59300232 508.71997070
281.25399780 230.06700134 475.45599365
154.73300171 136.23300171 466.10000610
185.20700073 189.79899597 457.98901367
98.77500153 227.08299255 514.48400879
131.10400391 208.72900391 456.09799194
218.38200378 286.14599609 453.39999390
127.99599457 159.79699707 547.48101807
170.82699585 151.35798645 510.28698730
242.12699890 212.77999878 473.16500854
181.12100220 175.20300293 461.38800049
253.47099304 224.48100281 491.21401978
197.44900513 297.19900513 486.09201050
229.29798889 220.12800598 509.68200684
296.94500732 235.94500732 464.10400391
182.07299805 248.47200012 559.07598877
198.21600342 199.44999695 510.32699585
223.66000366 275.85101318 523.05596924
266.04901123 209.89599609 473.11898804
199.89199829 271.32400513 456.34698486
170.77499390 294.06600952 479.24301147
208.71600342 296.58099365 464.54302979
172.72200012 274.90600586 561.50402832
101.72999573 141.12399292 503.23599243
184.97799683 164.65200806 516.16796875
310.27902222 253.17498779 475.93701172
192.90100098 200.45300293 487.11099243
153.56401062 203.67201233 583.19000244
159.44898987 245.00100708 450.97799683
107.60899353 224.29400635 553.54602051
142.69400024 162.32701111 537.54400635
192.15100098 148.66999817 487.57897949
145.89999390 138.67900085 513.75598145
221.37100220 195.44799805 485.77697754
175.99099731 135.32699585 474.22097778
174.83299255 276.03598022 461.70397949
94.82499695 160.57200623 518.57196045
180.97700500 221.71600342 516.69500732
102.06900024 221.82899475 480.79400635
199.72999573 247.85000610 454.23300171
194.21600342 232.85800171 530.15399170
164.61599731 127.85198975 502.03900146
111.93999481 212.78601074 575.76898193
191.99499512 211.19200134 465.47299194
161.85499573 183.71101379 453.70800781
225.58399963 259.71200562 507.29196167
135.06600952 192.53698730 597.90301514
150.34899902 257.14401245 575.34197998
103.92399597 240.17100525 511.02102661
182.94699097 223.24700928 451.05599976
229.51899719 300.88400269 468.55700684
205.04100037 268.98898315 536.76300049
111.45800018 207.51200867 466.32098389
195.40100098 194.84899902 462.23101807
131.05400085 185.81399536 456.26599121
161.26998901 118.80999756 483.13400269
210.64500427 287.65298462 529.69097900
109.36000061 193.85301208 587.73797607
214.69799805 204.04598999 521.99499512
246.79000854 270.42800903 485.73898315
179.25299072 258.21499634 499.54901123
130.13800049 272.20898438 528.14099121
211.45700073 198.88600159 501.64300537
191.05699158 190.45999146 517.93298340
245.78199768 247.17399597 496.07501221
229.55999756 211.20100403 471.08999634
116.39800262 209.31201172 600.98394775
184.22499084 259.42297363 562.43902588
162.22000122 259.02102661 453.52499390
168.94699097 202.61199951 512.27099609
141.52699280 207.17999268 451.26000977
246.02200317 243.13099670 463.66400146
115.71900177 260.29501343 519.69000244
200.65901184 249.51100159 529.72198486
119.61399841 244.99699402 556.53601074
129.38099670 221.93099976 456.69699097
238.64201355 213.76899719 492.21600342
292.69900513 244.64700317 471.10400391
148.94000244 113.34100342 490.13098145
165.76098633 271.09301758 570.47900391
147.85000610 146.81700134 461.29098511
149.03999329 237.63800049 565.46801758
123.30599976 270.07400513 517.66094971
108.67100525 239.59599304 536.77099609
137.66999817 208.31700134 599.97100830
119.76000214 233.20899963 571.93798828
158.88899231 245.34500122 556.29602051
243.83300781 291.05200195 491.24499512
162.44900513 251.68699646 574.09295654
209.60499573 209.63899231 472.10897827
168.88900757 170.18499756 534.94299316
92.42299652 178.76799011 528.07800293
167.29299927 157.73699951 461.20199585
117.69599915 131.61599731 475.95401001
108.91799927 146.23300171 549.67303467
211.69100952 294.74197388 508.22503662
99.94300079 175.86399841 477.72799683
278.31201172 268.82299805 469.24499512
117.11299896 185.39599609 462.86300659
187.76400757 248.55299377 496.47500610
115.54100037 152.94900513 467.52899170
233.45201111 287.99899292 518.46997070
181.57800293 176.84799194 533.58502197
118.61400604 122.08799744 498.01800537
129.07800293 249.36999512 576.25903320
142.84899902 247.21400452 457.97601318
157.46200562 139.19499207 508.39697266
273.29498291 251.77999878 468.64501953
155.73200989 119.14399719 503.73001099
257.97097778 228.89299011 466.30401611
127.46299744 273.14801025 504.40902710
252.96801758 258.66299438 487.36102295
102.18399811 143.74198914 524.65197754
175.32501221 295.01797485 502.50500488
186.07400513 293.79400635 504.18902588
158.59300232 237.62098694 544.57598877
251.65599060 299.47000122 473.83599854
97.28799438 173.92399597 549.98699951
147.11199951 227.82600403 451.71600342
101.25099945 172.40199280 565.79699707
191.60499573 281.97100830 535.97198486
158.27099609 274.38400269 467.06201172
286.72601318 260.54699707 473.66699219
166.78201294 184.53800964 553.71600342
148.45199585 271.87402344 553.87597656
182.90499878 238.21200562 498.23001099
97.85099792 191.09599304 480.72201538
137.96398926 261.86901855 565.72698975
187.84199524 275.79299927 553.96496582
152.15901184 125.05899048 472.00302124
96.61400604 153.20800781 505.93899536
254.55799866 208.75199890 475.54098511
144.01100159 120.12100220 510.65802002
142.01399231 246.77600098 585.50604248
96.35099792 158.23001099 490.91601562
188.22300720 233.40499878 539.01501465
121.56099701 224.05999756 596.73101807
112.07400513 254.81199646 506.24197388
145.26599121 165.81199646 455.52502441
218.52900696 300.09399414 469.70300293
146.30400085 182.28599548 577.08001709
185.82501221 173.51800537 522.95001221
123.59799957 191.47200012 604.66601562
184.64698792 212.12899780 453.70901489
223.23100281 249.10700989 458.66598511
204.17900085 214.75599670 517.71099854
94.41100311 166.26499939 528.06097412
237.47999573 267.81399536 493.72100830
195.67900085 260.62100220 455.97198486
178.51098633 145.66600037 505.68997192
163.25799561 220.00700378 540.65399170
139.59300232 281.81698608 518.53399658
116.52000427 137.47100830 538.98498535
95.39300537 185.12100220 543.26397705
192.47599792 279.47100830 459.01098633
215.37399292 189.13499451 502.04403687
145.46099854 191.51499939 586.06597900
142.61099243 259.50598145 462.03100586
124.54499817 175.60400391 591.13000488
134.33999634 240.82400513 595.57702637
258.53402710 238.82398987 486.42098999
172.51600647 281.20898438 540.74298096
235.74200439 259.25000000 500.09698486
209.24299622 245.40998840 518.21398926
97.74000549 162.98300171 545.48699951
211.34098816 234.95799255 516.19500732
227.12400818 201.60398865 507.17001343
104.93499756 241.89999390 497.40798950
166.22000122 138.86499023 466.38000488
174.75799561 208.45899963 530.64398193
97.94099426 227.38200378 493.89202881
112.42300415 203.71099854 591.95599365
236.72999573 235.19699097 463.94799805
182.82699585 190.19000244 536.55499268
229.57899475 203.31098938 493.89898682
167.47399902 296.80697632 495.12698364
136.12599182 119.67600250 478.05599976
239.93499756 277.49697876 461.42599487
263.17300415 280.13900757 478.87399292
94.55999756 168.36599731 491.73098755
110.46099854 157.06098938 569.75000000
137.21899414 146.08999634 461.10699463
212.93899536 197.29399109 491.38702393
132.95399475 132.10000610 522.66802979
221.54000854 253.85900879 515.70501709
194.67199707 185.34600830 477.89300537
191.95100403 266.98699951 557.16699219
94.92299652 199.70799255 525.60296631
130.09298706 168.99900818 458.57302856
158.58300781 229.68600464 565.38897705
147.02999878 213.39300537 591.79595947
160.27999878 193.42199707 451.05697632
125.72499847 199.56700134 457.99099731
130.16000366 166.06399536 555.18798828
129.26701355 117.88700104 514.11199951
274.87100220 241.05000305 467.90200806
144.72801208 278.73199463 480.76998901
188.07501221 197.89999390 530.08099365
149.84199524 167.69699097 542.27301025
174.23500061 226.24200439 534.56597900
175.60299683 290.14999390 470.68798828
137.85000610 172.09899902 560.08203125
192.91099548 248.80999756 544.86199951
228.38301086 243.47700500 511.44497681
104.17900085 218.81700134 539.48699951
156.49600220 266.96200562 575.51403809
221.91600037 218.67500305 518.35400391
156.55499268 158.25199890 522.89404297
182.48300171 218.85099792 505.28997803
267.25997925 268.44799805 478.82199097
97.13600159 216.23100281 515.64196777
202.05000305 224.61601257 455.80599976
193.45800781 170.87500000 506.93298340
161.85900879 224.05599976 573.58697510
150.97500610 234.88200378 584.41699219
213.55499268 265.84197998 525.03302002
103.56099701 192.59700012 567.42901611
231.15600586 296.75100708 504.39602661
185.51699829 288.50701904 519.38598633
177.70600891 272.19400024 570.13702393
270.64401245 221.89399719 480.88000488
225.40899658 222.87400818 463.69998169
173.05499268 205.94200134 551.07897949
192.04400635 180.45599365 504.98199463
126.62699890 135.19400024 468.64700317
166.59399414 215.59100342 568.35803223
117.25600433 255.78799438 486.44500732
214.31599426 252.83100891 456.98800659
133.44200134 222.74099731 603.26000977
141.85600281 184.48400879 453.78399658
128.80000305 269.05899048 488.44598389
227.63699341 287.82299805 456.08999634
168.35699463 217.69200134 553.34094238
106.66999817 189.20401001 579.57098389
166.75099182 208.95500183 450.55499268
220.77099609 269.28900146 455.96298218
245.89300537 300.19198608 483.50302124
319.83398438 265.88800049 479.98101807
218.02499390 291.07998657 522.18402100
104.72799683 160.26499939 474.86999512
149.26600647 240.59001160 453.41500854
124.10199738 238.96501160 579.66601562
206.24800110 274.63000488 545.25500488
132.61599731 239.60000610 460.29400635
202.16999817 292.08300781 510.44296265
221.93899536 299.16598511 490.62698364
119.56199646 202.50000000 607.58300781
104.48099518 229.53599548 532.37597656
128.44300842 255.09399414 469.90798950
192.01300049 279.06900024 545.14099121
106.44300079 173.01799011 583.33801270
254.18800354 246.99600220 488.97900391
135.19799805 148.80500793 528.48797607
191.23999023 207.01300049 512.11602783
149.13499451 243.66099548 557.20397949
214.89700317 299.73098755 479.87698364
305.15701294 262.40499878 471.78201294
174.60200500 162.59899902 519.63299561
177.09800720 296.12100220 486.09201050
178.80799866 136.81599426 500.24700928
158.74600220 291.29098511 514.07202148
262.71798706 260.50500488 481.64401245
176.99400330 234.80899048 552.50604248
161.67900085 288.54598999 479.99798584
201.96301270 287.69000244 524.79699707
103.33999634 162.61000061 566.83599854
223.68598938 270.28302002 510.35498047
269.03598022 253.04400635 478.39297485
111.67600250 129.51199341 507.68399048
290.97598267 232.87899780 471.10501099
162.25000000 147.07901001 510.46697998
92.71399689 184.76899719 507.37799072
193.84700012 229.11299133 453.50900269
93.09899902 165.80999756 510.32196045
164.03700256 227.03599548 451.07498169
315.68801880 260.65600586 473.34997559
275.61599731 275.01498413 476.26000977
136.28100586 115.21700287 508.05496216
118.10600281 151.51300049 552.30200195
149.31900024 212.40399170 451.05801392
133.50399780 173.30400085 573.22100830
126.32900238 148.77999878 538.15002441
143.64300537 227.72300720 595.46099854
234.12899780 300.60501099 483.16198730
124.77199554 118.00900269 492.29299927
179.05599976 130.14799500 483.90899658
177.22799683 193.06098938 453.24899292
247.43099976 222.60800171 466.00299072
102.02399445 184.41200256 474.66201782
117.28099823 231.87600708 467.82699585
113.95599365 176.65701294 595.44403076
169.49499512 266.25900269 578.42498779
211.78799438 217.24000549 463.33798218
116.33399963 173.20300293 463.45098877
243.72700500 296.48699951 498.76699829
236.51899719 217.64199829 502.45898438
185.02398682 251.41999817 505.67901611
100.88800049 157.25700378 553.64801025
158.76800537 163.60198975 455.93801880
237.47499084 254.90701294 460.98101807
188.25100708 296.57299805 485.46902466
159.72999573 277.40200806 550.41400146
177.43800354 253.76498413 566.68200684
148.41899109 174.86799622 558.86401367
111.00400543 234.08099365 548.90100098
241.21099854 297.60598755 464.50497437
195.26499939 260.78500366 545.98199463
163.26699829 197.05299377 519.28802490
168.82899475 165.74299622 525.98602295
209.42799377 234.28500366 456.24099731
178.13600159 240.39300537 451.11297607
178.82800293 277.07998657 554.42297363
143.36900330 196.70700073 451.15798950
144.78300476 147.94300842 518.93798828
311.04299927 237.98100281 471.25698853
105.37799835 216.16900635 556.94995117
180.92100525 154.70999146 468.25997925
178.03999329 201.69000244 513.09899902
318.86499023 249.59999084 472.11300659
280.97598267 246.48800659 471.75698853
196.99899292 180.18199158 488.57199097
111.18099976 206.36599731 583.40698242
197.64601135 170.71899414 487.55599976
259.81301880 229.96099854 487.85998535
97.56999969 209.48199463 482.31698608
167.66999817 290.67001343 515.21405029
115.67900085 258.37799072 497.65499878
164.84999084 209.97300720 519.77996826
119.17700195 165.99899292 580.86999512
109.06399536 245.48399353 524.36999512
93.73999786 191.11601257 523.17901611
95.84600067 208.37800598 493.30999756
265.66101074 219.92599487 468.46197510
135.06900024 185.19000244 592.76495361
194.36599731 197.72499084 522.01300049
184.01899719 135.59800720 492.88201904
188.72200012 222.68499756 512.23602295
303.28802490 271.95199585 474.80899048
124.30399323 122.19400024 481.44998169
270.10598755 263.65301514 468.61801147
282.45800781 223.54400635 468.40701294
178.94700623 205.28900146 453.67199707
139.34400940 278.80700684 489.00799561
174.15901184 219.45999146 521.93200684
183.77700806 143.85800171 475.24499512
136.34500122 228.61100769 456.21801758
199.91900635 205.85200500 486.39700317
196.52900696 296.72302246 477.28198242
111.35199738 130.69500732 488.54299927
187.91299438 152.14900208 502.84500122
153.33900452 286.77301025 482.34298706
259.97998047 266.04901123 468.84500122
191.39399719 196.05900574 494.62197876
176.11700439 193.13299561 542.86199951
299.07400513 245.44499207 464.70401001
238.17401123 211.77198792 482.20898438
255.76400757 278.59197998 465.77398682
212.79100037 265.41702271 456.07501221
134.50900269 113.99400330 496.48400879
119.06099701 240.50599670 469.95800781
106.65799713 246.89100647 506.04803467
192.92399597 162.85400391 477.67800903
101.59700012 201.64700317 475.35397339
228.92700195 267.46099854 458.62899780
100.31800079 205.65100098 551.37200928
280.54800415 283.20599365 474.91500854
142.78599548 129.13200378 513.94500732
132.96499634 261.63598633 558.19201660
194.15800476 153.17698669 494.79800415
225.42401123 203.99899292 474.95098877
92.34099579 182.80200195 516.58099365
109.20800018 198.51100159 467.07800293
95.64500427 200.70600891 511.59399414
213.98399353 198.41999817 480.17098999
170.91299438 122.20399475 494.29101562
300.03100586 227.83898926 463.31201172
198.73799133 221.64900208 518.80596924
232.14100647 297.04098511 461.04299927
251.72799683 275.82202148 481.05300903
105.71499634 168.55500793 472.49002075
107.57700348 143.37500000 477.55398560
98.97500610 210.27299500 526.25000000
212.27499390 291.87802124 458.20001221
254.74501038 246.31900024 466.35601807
296.73001099 260.95501709 475.97399902
109.55500031 188.55599976 594.57397461
234.78199768 275.92001343 492.26300049
265.58300781 242.16300964 481.58499146
94.48899841 191.68600464 489.48800659
96.52799988 161.36399841 536.99603271
261.54101562 288.06201172 475.87902832
140.43499756 274.00601196 540.78002930
156.81600952 170.98200989 546.12200928
190.35600281 187.10200500 495.82800293
101.44400024 141.36700439 513.85302734
159.82400513 190.24099731 569.68402100
117.40399933 222.86898804 464.92700195
161.53900146 182.96598816 560.31402588
175.32398987 241.13200378 560.28900146
132.89199829 176.70098877 583.87396240
187.14700317 260.11898804 455.51800537
119.74600220 205.29598999 460.13900757
190.09399414 200.96099854 464.98699951
107.04100037 228.82600403 477.68499756
184.74699402 284.22399902 528.51495361
204.87699890 262.90899658 530.77697754
207.92199707 295.25698853 500.57501221
145.76699829 249.12998962 567.36395264
171.99000549 151.13000488 463.77798462
162.43598938 248.51100159 566.21099854
102.18699646 234.83799744 517.39300537
100.69700623 185.02398682 561.43395996
301.00799561 238.60899353 471.04998779
206.63699341 242.72698975 456.11398315
127.71199799 262.88299561 545.68103027
115.28600311 256.30700684 528.35101318
165.86500549 284.94598389 529.26397705
318.29598999 232.55699158 469.66601562
188.61801147 219.32398987 519.96997070
137.43199158 282.27902222 510.39797974
170.09399414 255.23701477 573.98199463
182.84700012 227.33500671 536.71899414
127.92299652 153.60499573 461.18301392
219.20899963 234.14399719 458.77099609
149.47299194 180.66500854 453.80398560
120.75799561 130.61900330 530.64801025
197.46899414 165.69900513 495.30099487
290.56701660 253.11500549 473.37799072
150.33900452 279.40802002 536.51202393
276.75198364 231.60000610 468.58502197
261.06399536 293.65899658 466.24197388
188.90499878 162.13099670 509.24401855
109.64400482 140.64698792 542.46301270
99.00900269 193.60198975 554.52197266
167.28399658 243.22399902 559.80804443
208.12199402 201.18800354 515.12298584
134.48800659 161.85000610 542.71099854
219.49800110 278.16500854 455.43200684
246.91499329 219.55000305 492.43899536
244.87399292 285.87799072 482.70401001
248.29199219 262.79397583 463.63198853
188.17399597 177.61199951 464.97500610
126.41899109 242.47200012 464.94497681
143.50799561 114.62799835 484.03900146
165.34599304 207.44499207 568.04595947
190.46899414 241.55999756 453.41900635
227.10299683 291.85501099 522.02899170
103.82099915 139.18800354 489.51101685
119.56999969 251.12101746 546.22698975
107.37100220 136.45100403 523.93298340
129.96800232 212.01499939 605.76397705
238.05999756 288.87200928 497.28598022
99.57700348 156.47700500 482.96099854
200.32200623 231.59800720 519.24798584
157.41699219 264.95098877 456.51501465
155.83999634 114.08200073 494.48498535
192.26300049 295.91900635 495.25399780
198.54299927 240.35699463 530.22302246
173.56300354 176.99000549 457.98199463
143.19400024 251.39399719 575.30200195
185.78498840 160.97399902 470.23400879
245.67199707 289.35302734 459.18499756
222.35700989 236.90399170 513.53302002
178.59899902 202.75401306 523.17199707
124.41799927 249.35699463 563.10498047
179.66000366 257.02301025 508.16900635
145.99800110 289.56298828 504.38101196
204.74700928 279.65499878 456.18099976
274.74700928 233.66799927 478.76699829
105.19499969 180.06900024 579.46697998
203.41900635 297.09399414 491.61300659
189.80799866 184.82099915 511.87701416
184.04600525 229.58900452 511.22897339
166.47000122 240.92100525 451.24200439
176.13600159 283.46697998 464.71200562
94.47100067 178.78500366 494.56997681
228.03500366 277.89801025 502.16900635
107.43099976 187.01499939 469.03399658
142.51100159 271.26101685 548.40899658
104.16399384 173.15701294 574.46697998
125.08399963 167.59100342 573.86901855
212.91500854 279.74200439 542.80999756
172.97099304 175.03199768 539.95697021
135.69000244 252.81500244 582.87402344
108.99599457 244.75399780 488.96701050
219.66200256 211.80500793 521.92004395
178.44900513 252.21699524 450.95101929
240.34700012 247.83999634 501.98001099
169.80400085 233.59799194 542.78601074
165.70800781 177.02099609 455.96701050
166.49700928 276.93499756 466.91998291
220.60200500 194.85699463 507.20602417
303.77502441 249.59300232 472.87899780
105.47200012 202.27900696 567.09698486
95.55199432 196.59001160 537.63000488
254.35000610 288.33197021 460.98199463
202.13000488 284.80398560 532.27001953
155.83500671 214.31300354 581.83599854
247.37800598 230.62800598 497.36401367
255.58299255 257.91998291 466.07101440
221.35198975 200.08599854 517.61798096
169.29100037 261.97900391 455.82800293
120.01699829 223.95401001 588.88104248
186.81600952 247.50498962 552.54998779
232.99099731 285.92300415 504.60601807
293.55902100 279.59899902 476.85000610
229.52200317 211.37901306 511.62301636
248.86799622 213.18099976 468.95797729
159.15000916 296.23898315 494.72299194
280.57901001 260.80700684 468.66198730
174.74099731 209.06999207 540.06799316
122.42099762 163.27500916 565.67700195
151.14698792 198.18499756 451.06301880
98.22099304 148.39201355 498.78799438
165.69000244 225.59800720 532.13000488
172.41300964 163.74800110 461.14001465
228.57800293 298.68399048 496.93600464
179.64999390 270.13800049 458.34698486
163.37600708 203.84199524 526.45800781
235.16600037 283.01400757 458.43801880
133.30000305 278.21902466 501.95098877
152.29399109 290.98800659 489.84399414
313.41900635 272.33099365 480.58300781
100.69199371 226.55700684 524.43804932
238.54100037 229.59100342 505.90997314
145.21299744 153.81700134 458.87100220
116.25300598 128.12100220 520.74304199
254.60299683 292.55398560 481.48501587
207.87699890 202.88200378 494.47598267
205.03900146 201.70399475 505.15301514
235.93899536 270.90399170 459.23901367
165.92399597 197.89599609 565.13897705
222.80799866 279.62802124 533.38403320
133.75000000 276.72100830 522.86102295
160.19799805 226.97200012 558.22698975
254.74000549 212.91799927 482.15802002
141.52301025 243.78399658 592.71502686
143.35400391 261.83001709 572.52197266
222.02700806 207.93299866 468.59698486
197.30400085 179.99200439 472.26101685
195.14801025 287.91101074 460.68798828
248.58599854 253.01901245 491.72900391
264.35101318 246.45001221 468.75198364
102.12599945 145.16900635 484.34899902
140.38899231 154.93499756 529.43896484
230.47601318 252.17199707 458.52398682
137.79699707 167.83801270 456.27001953
245.09500122 271.23300171 463.85400391
108.09300232 239.05000305 483.59100342
105.94300079 134.70100403 504.61102295
308.16900635 254.69499207 468.63897705
134.07899475 133.89700317 466.97598267
181.88699341 277.88800049 459.09698486
148.61300659 161.32600403 531.60797119
95.01499939 194.24700928 505.53601074
94.69799805 198.84599304 493.97299194
170.52799988 211.49600220 524.93695068
147.92401123 171.36999512 550.03497314
287.73001099 268.95098877 471.00897217
188.31700134 141.63800049 490.41799927
123.34700012 122.05699921 516.96197510
188.69000244 145.87300110 481.30099487
247.59599304 298.12301636 491.98202515
111.88399506 216.56300354 467.27899170
192.92399597 203.04499817 479.06301880
180.09201050 246.43099976 497.39001465
114.06900024 243.01699829 476.89398193
126.49999237 233.27699280 595.77203369
176.86801147 220.05400085 510.36297607
161.67999268 163.12300110 526.76599121
148.62998962 226.82200623 589.62500000
241.15000916 226.38299561 463.76998901
97.39600372 225.74900818 501.33197021
171.05198669 288.48498535 521.68499756
233.12400818 294.71701050 512.26403809
211.09800720 284.12600708 454.32498169
96.05599976 173.97999573 486.80999756
138.28698730 177.23300171 577.64898682
122.72699738 267.58099365 502.29400635
138.40199280 200.61900330 597.66796875
116.60400391 194.37800598 605.89099121
170.14500427 181.72900391 547.50799561
218.35200500 294.52801514 511.87496948
144.36698914 267.51199341 559.63897705
184.31399536 168.86900330 465.94598389
189.11099243 182.76800537 522.08197021
154.76800537 227.62901306 582.88403320
234.12799072 239.92800903 507.99603271
148.79899597 237.38299561 574.32995605
168.52700806 192.60198975 451.10601807
169.12300110 295.91000366 486.39999390
175.37100220 202.95199585 544.51898193
183.75900269 234.22700500 545.06597900
168.54100037 191.72599792 555.27600098
115.96699524 156.34100342 562.73797607
226.52099609 200.95600891 485.40600586
268.09899902 237.76499939 468.48999023
227.96900940 226.99700928 513.19299316
167.59201050 195.11100769 525.68194580
191.39399719 231.41600037 507.66897583
171.77101135 132.80200195 500.85003662
220.06599426 287.55899048 529.95904541
287.23202515 245.81600952 466.08099365
169.18000793 133.74101257 471.00299072
160.68699646 155.59400940 458.34698486
187.39299011 292.28198242 467.73300171
253.63600159 237.12500000 466.26998901
155.12399292 145.03100586 460.95898438
225.37300110 241.92599487 458.55001831
161.80198669 153.74900818 515.45697021
181.66899109 198.58599854 455.64700317
111.38600159 165.08000183 582.20294189
213.22799683 251.71301270 518.78601074
95.62500000 214.59600830 497.45700073
130.74398804 138.19000244 526.38696289
109.88600159 156.44400024 470.92800903
228.49699402 281.40399170 521.83197021
149.10600281 198.61898804 586.39300537
95.84400177 210.38499451 507.45898438
182.62599182 280.31900024 535.56500244
160.74499512 132.86199951 506.26498413
213.09500122 225.66899109 516.39599609
130.58200073 125.01600647 521.69696045
232.85000610 261.14300537 458.77798462
162.39100647 200.52799988 450.44699097
164.69099426 280.10601807 543.34600830
93.69000244 179.67700195 535.34802246
266.44702148 292.04101562 471.96002197
152.81799316 247.33599854 453.38101196
122.11100006 150.36700439 464.48599243
198.92999268 217.42098999 459.90301514
131.07200623 264.42599487 474.70599365
103.56500244 145.62199402 541.88104248
280.51699829 253.58300781 473.86599731
99.25099945 146.41000366 508.89401245
209.21101379 208.37899780 519.56396484
196.31100464 169.04600525 479.90701294
232.77500916 228.44400024 463.60098267
145.70201111 241.23400879 582.27600098
278.61898804 238.09500122 474.27801514
120.58300018 167.17399597 461.66101074
201.49398804 290.06298828 517.52001953
182.56500244 228.75399780 500.54598999
305.18499756 275.11001587 481.20901489
140.53100586 113.03400421 492.32901001
162.22900391 206.96299744 513.57598877
101.76399994 227.93299866 484.91998291
200.35499573 208.70199585 515.95001221
151.58000183 274.48300171 470.30099487
122.58499908 188.16000366 458.77999878
121.10300446 231.15600586 579.92700195
155.41600037 241.73199463 549.79095459
112.24099731 253.11500549 521.41699219
258.81201172 298.58801270 481.42401123
268.94302368 280.66400146 468.75500488
113.30699921 126.70199585 500.16897583
205.45199585 248.29899597 523.80902100
200.53700256 278.25997925 548.11602783
154.46099854 223.49700928 451.10699463
190.74699402 227.86900330 525.16595459
103.75000000 138.17800903 496.77600098
189.76199341 194.14399719 482.75302124
115.30899811 228.13999939 565.19299316
178.96800232 286.88400269 522.23095703
190.14300537 212.81098938 458.57800293
123.12200165 119.04700470 506.82901001
185.55400085 291.63800049 511.16104126
158.10600281 122.67900085 475.53500366
122.01199341 262.12100220 488.34298706
181.10099792 181.97999573 458.65399170
194.00000000 293.60000610 503.10897827
219.13499451 190.34899902 493.42401123
194.53900146 197.90800476 504.22604370
176.48098755 155.31599426 512.67102051
255.94499207 219.16499329 486.89801025
145.68099976 289.47399902 497.11700439
189.56500244 246.29600525 503.23199463
145.23098755 173.41500854 453.69699097
156.48100281 293.36898804 507.49395752
191.34600830 204.77299500 471.03698730
205.01100159 298.02700806 483.69500732
119.99700165 255.39100647 479.73800659
174.74900818 208.83000183 510.52700806
261.77401733 209.45700073 478.95700073
140.06799316 192.25700378 592.66400146
171.79200745 129.57798767 476.31201172
233.90699768 301.40200806 474.80700684
127.96500397 268.20901489 533.76300049
145.46499634 130.48200989 468.19201660
180.21600342 241.33500671 504.39602661
175.77900696 170.07699585 460.20697021
213.55700684 203.79899597 474.73098755
192.96899414 153.83200073 482.13198853
156.18998718 283.49301147 530.38000488
165.92900085 122.89699554 479.43499756
93.65200043 169.93299866 498.71200562
98.30799866 206.21701050 541.49401855
153.76100159 261.12100220 581.06500244
103.90399933 150.94000244 551.96795654
120.97399902 139.63699341 468.83401489
127.26899719 226.82600403 601.87200928
293.84600830 250.21800232 465.95199585
92.92499542 178.38198853 510.95098877
157.14801025 270.54797363 566.94799805
109.07199860 206.20599365 574.23699951
128.72601318 238.85699463 591.57403564
218.20401001 222.53399658 461.06402588
310.43600464 245.73298645 473.39401245
198.87199402 211.38699341 469.51602173
181.62899780 242.45899963 555.20098877
97.15600586 189.63800049 548.53601074
183.35301208 203.26599121 529.68402100
118.41200256 236.78700256 563.68103027
298.04501343 231.99301147 470.49398804
162.43598938 169.39300537 539.68902588
137.06600952 268.98397827 474.42401123
143.67500305 265.99197388 464.82699585
145.77000427 285.39898682 518.48797607
101.31199646 179.52799988 566.22900391
188.80599976 214.64399719 509.48101807
138.25700378 233.94499207 598.06695557
101.27700043 213.96099854 535.16296387
198.22599792 188.90899658 467.70401001
135.83500671 274.23999023 535.11999512
95.26599884 178.05700684 542.38897705
181.89300537 264.35198975 567.00598145
111.46199799 226.01098633 559.26898193
204.38699341 264.54800415 453.52301025
104.43899536 219.89799500 547.42498779
169.29400635 217.11199951 561.46502686
175.48599243 279.40100098 547.68701172
153.51100159 178.52301025 562.19000244
158.43400574 202.12699890 577.24798584
126.75200653 269.52697754 496.30401611
136.29899597 215.52999878 601.81097412
138.36799622 253.52200317 461.98599243
276.69000244 223.40998840 477.50399780
116.39800262 250.30499268 539.95001221
215.58399963 259.73800659 520.06604004
161.14999390 134.02700806 468.07501221
201.41600037 295.40600586 467.69400024
241.70201111 248.01799011 460.95401001
132.40200806 215.41200256 454.24600220
242.14900208 218.15800476 468.60198975
122.79299927 152.95800781 547.25201416
127.60700226 154.98701477 542.36199951
158.27200317 268.65399170 462.43099976
98.67600250 149.65599060 523.19500732
140.87699890 283.75399780 495.52099609
252.40901184 265.90499878 485.82000732
228.19999695 299.92602539 486.87197876
170.00801086 213.39700317 537.19598389
158.12799072 222.35099792 579.69000244
182.28399658 167.10301208 522.16705322
123.83600616 208.67100525 606.34100342
211.73500061 299.15899658 471.11401367
192.58599854 194.05299377 510.41299438
95.67599487 155.36401367 497.26501465
108.88700104 217.47599792 562.86199951
153.03700256 233.27299500 570.58001709
202.81100464 208.08699036 480.43798828
164.08999634 219.62399292 548.16198730
156.99499512 252.91099548 453.37600708
264.59698486 225.88400269 484.21002197
111.62000275 148.70500183 471.65899658
170.44000244 145.23098755 506.73199463
233.31399536 210.96099854 496.18597412
117.54499817 214.89100647 597.00604248
180.48001099 234.24499512 507.48699951
142.88299561 281.90698242 524.64001465
227.34400940 215.72099304 466.31802368
160.31100464 226.55999756 542.97796631
172.20201111 198.59600830 517.91003418
167.49699402 276.03302002 557.08996582
236.61999512 284.50000000 491.94601440
230.78900146 238.36499023 461.07000732
215.61700439 188.56799316 483.70999146
106.81199646 243.16099548 518.25897217
108.56199646 137.13699341 533.61102295
194.95700073 253.75300598 456.28500366
197.16799927 251.75898743 537.25201416
121.66800690 142.05099487 538.59301758
112.98000336 191.67800903 464.96398926
114.86999512 220.16600037 574.77404785
151.53799438 211.05400085 586.13098145
190.03700256 239.82701111 541.14996338
272.48999023 222.58299255 468.90899658
275.51098633 279.67797852 471.19097900
271.40499878 216.00100708 477.40200806
173.15100098 269.41000366 460.47900391
232.50299072 286.41598511 511.85000610
163.31100464 166.92199707 532.37500000
184.07499695 243.82899475 450.94497681
171.92601013 144.13101196 466.34899902
142.79800415 119.89600372 476.48999023
155.27600098 278.74301147 541.22198486
219.73800659 270.63598633 525.15795898
101.30199432 234.83699036 494.41799927
193.80499268 179.85301208 495.96301270
243.32701111 265.76501465 489.35400391
163.50500488 177.07200623 550.67498779
153.16999817 287.17300415 520.65100098
245.33699036 278.20599365 481.37799072
109.52999878 174.10198975 589.80401611
233.45700073 210.75599670 477.38201904
105.91900635 195.12300110 573.49005127
121.46399689 180.43299866 598.22900391
246.36199951 239.14498901 497.47900391
103.36100006 157.69799805 561.79199219
112.89600372 256.05200195 515.16302490
179.70399475 275.48901367 561.87396240
127.40099335 241.63400269 585.22399902
293.53500366 263.50900269 468.39099121
227.39599609 264.36801147 502.68298340
109.61999512 172.09700012 468.23400879
167.71798706 255.48500061 451.75497437
134.60501099 127.40999603 470.70700073
150.12300110 265.08099365 574.21301270
198.15499878 265.58102417 542.18103027
226.69300842 250.02398682 511.63900757
138.85800171 133.33799744 517.49499512
185.94000244 180.24800110 529.07196045
172.82600403 223.27500916 528.66296387
153.46899414 151.16299438 458.66098022
156.03399658 115.77799988 486.13598633
156.94700623 231.63299561 547.22705078
190.28599548 170.37998962 512.87298584
109.50299835 236.06500244 542.64196777
257.73400879 298.41598511 470.60400391
132.97100830 266.63800049 547.57800293
124.37299347 224.33399963 460.50399780
190.84199524 191.91700745 525.43200684
197.24499512 241.64299011 453.47299194
220.30400085 196.94999695 478.41998291
238.53999329 273.04101562 487.49499512
197.74800110 282.53298950 538.63397217
150.01499939 233.93200684 453.83398438
151.62800598 261.32501221 458.57598877
105.91100311 203.90600586 470.73501587
123.87899780 211.33799744 458.43801880
166.43600464 118.99200439 487.40597534
94.72399902 159.32600403 510.81997681
215.19500732 297.02899170 462.88998413
132.79299927 178.66000366 456.26000977
112.40200043 130.61399841 515.86798096
119.09099579 265.22601318 515.80499268
98.77600098 174.14300537 556.49401855
139.66400146 190.78799438 453.82101440
269.89999390 278.86798096 476.67501831
137.08500671 248.98699951 589.88098145
170.98300171 200.40998840 555.13500977
132.39001465 206.24700928 603.44000244
139.10099792 275.79998779 483.08798218
167.33399963 289.35198975 476.07202148
153.40299988 272.95300293 559.31903076
248.20100403 291.22601318 484.78500366
140.01600647 148.49301147 523.51397705
188.16999817 253.99601746 500.23501587
100.62000275 147.46099854 533.47601318
196.04499817 159.64399719 493.01300049
117.78800201 263.19198608 501.68997192
207.51799011 249.29299927 456.14599609
258.06600952 275.31701660 479.23300171
150.79100037 152.80899048 519.61798096
153.59500122 186.94200134 574.79498291
188.02900696 231.87799072 498.56399536
133.24398804 141.17201233 463.87600708
160.06900024 173.30700684 454.25799561
262.92199707 277.10699463 468.90802002
171.70498657 189.52600098 549.95599365
166.85198975 215.95199585 451.05401611
141.04800415 165.75399780 542.89501953
187.28099060 183.15699768 461.58099365
180.27900696 216.23500061 451.04901123
98.08499908 223.19500732 487.56900024
315.91098022 255.89401245 477.90399170
147.89999390 221.34300232 451.14300537
250.39601135 243.17599487 493.68798828
163.69299316 268.30899048 576.16595459
110.99299622 195.50999451 594.49896240
143.06401062 172.43699646 555.98400879
129.52899170 194.63500977 603.32897949
268.94302368 260.18399048 478.84399414
155.09399414 185.94000244 450.92599487
146.08799744 185.66099548 582.66998291
248.89401245 298.22000122 468.03500366
158.09899902 255.61401367 577.69396973
127.01900482 193.30599976 456.67498779
116.91399384 219.94799805 583.60699463
195.79899597 288.32998657 520.19299316
117.34700012 256.18298340 534.54101562
98.82499695 217.01200867 522.63897705
258.32302856 252.00399780 465.90301514
210.48899841 274.36798096 540.02600098
130.92199707 180.36801147 591.34899902
153.53601074 275.40499878 550.40698242
189.37699890 229.14799500 532.42700195
288.49499512 257.61602783 467.98199463
240.53099060 217.33799744 497.31201172
193.48399353 272.41799927 456.22100830
178.59700012 292.87200928 509.16897583
275.12197876 249.35499573 474.70999146
285.26397705 230.84999084 468.77801514
117.27500153 227.24501038 572.49304199
152.67098999 233.52000427 562.02398682
196.95599365 203.33898926 517.21002197
125.55600739 164.37600708 560.12396240
237.46398926 297.05102539 500.27697754
142.29299927 209.71000671 595.67102051
207.65499878 220.74600220 458.57800293
105.31699371 217.93699646 474.93899536
111.65200043 182.59100342 596.79901123
110.71900177 215.67199707 568.78295898
112.23300171 191.33099365 599.88098145
123.22399902 262.08599854 537.04498291
109.22000122 160.57400513 575.04302979
241.09399414 299.28799438 490.29400635
165.12001038 234.01400757 450.42300415
134.51600647 203.96701050 453.42199707
175.85699463 282.76397705 535.21002197
185.95599365 253.29199219 557.30700684
229.91000366 203.65100098 501.28500366
314.95700073 261.77099609 480.78399658
195.77600098 284.40798950 531.37597656
202.12200928 255.68299866 528.72698975
137.33898926 211.37200928 453.75900269
158.11399841 127.86099243 471.24002075
147.47900391 125.48999786 510.46801758
176.98399353 294.84100342 477.93399048
122.31399536 170.45100403 585.17803955
242.89399719 252.86199951 496.42102051
205.16999817 221.28100586 520.23498535
190.99700928 294.66598511 472.43499756
216.35000610 210.62899780 467.48501587
279.72399902 274.75601196 471.10198975
129.37800598 162.66600037 458.48599243
191.97000122 271.86700439 551.13696289
303.50598145 251.31700134 465.95300293
189.22500610 260.73501587 558.74700928
123.64099884 118.38100433 499.17297363
249.17100525 276.08099365 463.40899658
167.52999878 260.22698975 578.60101318
186.14999390 203.41799927 513.29199219
125.14099121 272.17501831 511.96600342
143.51400757 286.65798950 509.91302490
94.85399628 190.18598938 538.82000732
180.05900574 288.62197876 466.44799805
141.62400818 141.87200928 517.15100098
260.08099365 222.88400269 468.78601074
292.78900146 240.53500366 466.30499268
179.17098999 140.70600891 472.28598022
216.53099060 277.74798584 537.41699219
278.04299927 266.68499756 475.37500000
94.76300049 196.50100708 517.76702881
265.72100830 286.06399536 469.26901245
162.28898621 216.82099915 574.72100830
114.31900024 136.96501160 474.82202148
242.29399109 284.14700317 460.29998779
172.93000793 205.72200012 451.12197876
220.98199463 300.10101318 484.05999756
234.30999756 214.95098877 469.36801147
135.81100464 118.80300140 514.03900146
149.36799622 134.03099060 511.31701660
175.31100464 156.47200012 463.84298706
101.14700317 192.99200439 560.40197754
172.09799194 270.92999268 572.66003418
139.00199890 175.77000427 571.46899414
154.57699585 162.19100952 529.87799072
164.16799927 121.81700134 500.41900635
160.61599731 280.21899414 471.45797729
165.05000305 238.40899658 546.91601562
171.47399902 210.99800110 554.40002441
181.10400391 137.79899597 477.46099854
122.40999603 237.22999573 465.83599854
96.49700165 221.01699829 497.37399292
117.31600189 179.11698914 461.74401855
139.30700684 151.87600708 458.42001343
304.61001587 239.91799927 466.13897705
200.21200562 292.96499634 504.59600830
249.46699524 211.87100220 479.01202393
178.13900757 179.11801147 538.25598145
137.69699097 243.77799988 458.63299561
235.32398987 222.24299622 506.47998047
302.27398682 265.73699951 476.18099976
129.89399719 232.61000061 458.85800171
209.89199829 296.97900391 494.92700195
222.05000305 290.56500244 456.16497803
291.96102905 264.93701172 475.60501099
185.16198730 150.86000061 472.32400513
141.18798828 274.14300537 477.46899414
126.83099365 271.67999268 522.90301514
141.29499817 159.73100281 456.10101318
152.07701111 140.76300049 511.06399536
178.89599609 214.32200623 509.10000610
125.63300323 217.29399109 458.50399780
273.49401855 272.70697021 468.76202393
255.36999512 252.99998474 486.53399658
94.50199890 184.46501160 497.06100464
175.73899841 126.58299255 488.00997925
167.60600281 249.61399841 571.34600830
139.35600281 113.81000519 501.68002319
198.62001038 280.51199341 455.89398193
193.31300354 235.27899170 453.72097778
182.77899170 172.67001343 528.27197266
309.85998535 265.81298828 473.93899536
163.39500427 222.87500000 554.88903809
172.20401001 234.23600769 548.43902588
149.19599915 277.70001221 474.99700928
190.18000793 193.49800110 459.23400879
197.58200073 203.22599792 491.46499634
156.59700012 258.44601440 456.05902100
297.02899170 250.79899597 471.19799805
193.46499634 265.79800415 549.47796631
225.28900146 276.91299438 517.21099854
112.52299500 128.24800110 494.06799316
102.48999786 211.95100403 553.40197754
182.14599609 184.09599304 536.14001465
258.69799805 209.44699097 471.05700684
226.47500610 213.00500488 516.69799805
98.88400269 216.85501099 482.45498657
151.37300110 166.25599670 455.73300171
187.38200378 275.86901855 547.86499023
129.86401367 120.97000122 479.21197510
114.44900513 238.62500000 551.09796143
181.90499878 256.45001221 453.68099976
166.67500305 187.49499512 453.88098145
146.28300476 219.38200378 592.67199707
134.79000854 258.17199707 569.38897705
289.80599976 271.56698608 476.10699463
102.05999756 166.63000488 476.96899414
299.12399292 275.32199097 478.64401245
215.48100281 198.83399963 518.61401367
208.52799988 269.02197266 453.65701294
240.44000244 241.28698730 462.10400391
304.38101196 256.73602295 473.83801270
192.57099915 248.60499573 453.42599487
215.89801025 296.11001587 503.30596924
222.11999512 227.36199951 461.26101685
169.20700073 155.85499573 514.03100586
231.60499573 292.50698853 456.70898438
108.48500061 228.55900574 548.85101318
262.88000488 234.47300720 468.01599121
116.22600555 124.71900177 505.57601929
189.44400024 222.02600098 451.54800415
138.08299255 225.61700439 600.63397217
179.29899597 160.03300476 516.79803467
156.93199158 178.43299866 453.50799561
99.28400421 230.32600403 507.78698730
147.71301270 269.68899536 467.38400269
96.25600433 203.61199951 530.01794434
195.10800171 172.90798950 474.72399902
130.09199524 262.50399780 551.21997070
194.87500000 199.59999084 498.44000244
214.22299194 258.81002808 456.15899658
188.41299438 229.81800842 450.97698975
149.30200195 253.60798645 569.32403564
135.80799866 169.28399658 555.15301514
185.50599670 146.15798950 502.66897583
233.78799438 212.04299927 489.08499146
225.73100281 270.13702393 504.68896484
240.36698914 287.11798096 488.02099609
145.45300293 252.60699463 458.60000610
275.34197998 257.83602905 468.64102173
191.81098938 147.63400269 494.77401733
313.41000366 252.30601501 470.38702393
142.51400757 213.11199951 451.03601074
123.70500183 131.12400818 472.24798584
294.63000488 230.33699036 465.83300781
142.97999573 277.21701050 536.38897705
213.82998657 240.70799255 514.70098877
272.46401978 213.92300415 471.20401001
98.25199890 166.87298584 551.69897461
230.14900208 256.32299805 505.38098145
122.43000031 267.75698853 524.00598145
187.31599426 242.58599854 496.08599854
253.32298279 223.71398926 465.93298340
121.19499969 249.87199402 553.42700195
119.08300018 174.02499390 593.02600098
157.10499573 207.29299927 579.98901367
179.06900024 225.57200623 511.67898560
221.63000488 259.46899414 513.61499023
116.24099731 160.24400330 465.66998291
126.82500458 118.36899567 486.68200684
281.34097290 244.76599121 465.96099854
270.86099243 245.41200256 468.71899414
122.25899506 156.67399597 552.83599854
162.13198853 205.09899902 572.50897217
226.59100342 280.00701904 527.32403564
122.64200592 185.14601135 601.71301270
251.68299866 230.50599670 493.21899414
222.73300171 222.85400391 514.15997314
248.47898865 262.76498413 489.69097900
171.54901123 293.67300415 506.92803955
177.57899475 252.05001831 500.17202759
193.17401123 253.90402222 547.94903564
134.83000183 165.07301331 547.71295166
194.41300964 183.54399109 483.56698608
143.32998657 264.48300171 565.44104004
145.82200623 242.37500000 567.08697510
239.85398865 300.88201904 481.56698608
312.89199829 228.70199585 467.47900391
191.91799927 195.13600159 467.03698730
162.87300110 249.85699463 450.99401855
156.89100647 229.52699280 554.00500488
116.81400299 159.11599731 567.92095947
142.18099976 231.00799561 453.39398193
310.63800049 258.92098999 477.38702393
193.52999878 236.34800720 534.90197754
158.64799500 140.99000549 463.49600220
167.15599060 210.20700073 514.14599609
254.75099182 264.17199707 466.08297729
159.09400940 211.38000488 450.45300293
201.16600037 263.33300781 537.12396240
99.40399933 151.20999146 486.13900757
97.44699860 223.49299622 507.84600830
98.30500031 202.75599670 480.59500122
225.27999878 272.59201050 457.86700439
206.40299988 236.46701050 519.05694580
313.91998291 242.48400879 468.75500488
156.24700928 144.93200684 511.23202515
105.19499969 232.09300232 482.52999878
194.63099670 188.04598999 472.64999390
107.10600281 233.17700195 538.09295654
170.01100159 230.48500061 537.78704834
114.07999420 201.51600647 463.63400269
194.81500244 196.73599243 515.15002441
97.26399994 179.83000183 549.62896729
202.08500671 252.84400940 456.25601196
101.13899994 166.71400452 563.25500488
214.28099060 194.10600281 485.11898804
104.09799957 223.71800232 533.04101562
194.39900208 155.03700256 487.69198608
150.45399475 119.04499817 506.27600098
187.03800964 266.63900757 562.54602051
182.37599182 251.67700195 496.15100098
115.90599823 152.95500183 557.53100586
96.51200104 154.39799500 518.01403809
100.81499481 143.35000610 497.35800171
225.04100037 283.04800415 453.93499756
94.57299805 199.21701050 499.80599976
186.95100403 170.23600769 517.67095947
199.50199890 291.49099731 462.23001099
267.13101196 247.77198792 481.04598999
151.08399963 141.37500000 463.06600952
167.81900024 193.41600037 519.67401123
112.76800537 251.38398743 487.33099365
115.18000031 202.58000183 603.73095703
147.08900452 281.22399902 529.93103027
108.37999725 243.14700317 529.66900635
198.04798889 235.06100464 524.43499756
122.75099945 256.15899658 545.84301758
92.29999542 185.56399536 524.22497559
159.65400696 116.24099731 498.84301758
207.81900024 292.61599731 512.02703857
228.53199768 245.86700439 461.45599365
114.49700165 131.05900574 480.79101562
148.10299683 144.05499268 514.11004639
198.82600403 265.60501099 456.24899292
125.82999420 248.85800171 568.72198486
114.56999969 226.47799683 468.49099731
104.57599640 238.96299744 491.96899414
159.38900757 239.19999695 451.14898682
181.07699585 278.75000000 549.10101318
259.42599487 272.47900391 468.73300171
298.84600830 243.98899841 471.18801880
133.82600403 255.50100708 574.44104004
127.19699860 259.61199951 474.85598755
128.10899353 133.05500793 526.86694336
287.25201416 242.68199158 471.12100220
216.84400940 297.56900024 495.89199829
219.49000549 255.97200012 458.56198120
184.86000061 223.63699341 522.71398926
184.58399963 244.28099060 506.79098511
206.71400452 292.08200073 459.78201294
208.38999939 215.82800293 468.27999878
183.87599182 258.18698120 503.02304077
99.83599854 195.53199768 477.59197998
192.98799133 183.28100586 491.34698486
120.41900635 135.70899963 535.11102295
172.92199707 127.96400452 497.92199707
103.57399750 177.41999817 473.52200317
128.97599792 115.36499786 497.35299683
156.58200073 167.95698547 541.19702148
146.14799500 207.11999512 590.80102539
153.76800537 131.07000732 468.45800781
161.61500549 116.26300049 489.65899658
149.00300598 283.01599121 481.90798950
261.51300049 215.67800903 470.72601318
110.63400269 199.49600220 588.48901367
133.17700195 279.13699341 508.17196655
138.98600769 157.66400146 534.28399658
248.88299561 225.74700928 494.76000977
188.89700317 205.87500000 460.30398560
174.33599854 172.07400513 535.24499512
270.39401245 227.61500549 480.99801636
134.65000916 275.68298340 528.72503662
93.86499786 173.17500305 533.57098389
119.87300110 145.05000305 467.34500122
166.50299072 151.60400391 461.01199341
140.70799255 188.01100159 588.89105225
232.69499207 214.71899414 505.53201294
135.06900024 275.11297607 488.18099976
244.18699646 300.65499878 477.85897827
92.34199524 174.72999573 524.04602051
97.04700470 169.09100342 546.58197021
124.27899933 170.81800842 459.29199219
223.01100159 299.58599854 466.21099854
126.45899963 181.62699890 457.86602783
250.83100891 300.24099731 480.65600586
156.31500244 252.59899902 569.36700439
158.15800476 127.46700287 505.41198730
192.30101013 235.59098816 503.89700317
174.33198547 255.50898743 453.11599731
128.13700867 250.03799438 467.30599976
128.62100220 255.88700867 561.15002441
200.73500061 229.77299500 453.80700684
93.97200012 165.58499146 522.43402100
189.81799316 265.39297485 456.08700562
122.78900146 196.93000793 606.02496338
165.01100159 163.99200439 457.88897705
96.03100586 211.22300720 513.19897461
108.45399475 149.33599854 554.96099854
217.09201050 205.15798950 469.00201416
210.26599121 284.55902100 538.39099121
162.85101318 227.24899292 568.22503662
232.42500305 266.24398804 497.62600708
153.99099731 270.77001953 466.17599487
206.15200806 274.94000244 453.36499023
241.02699280 292.58200073 501.86300659
283.52499390 234.82299805 472.42199707
228.23500061 205.76199341 511.95300293
131.57800293 144.46600342 528.86401367
122.16699982 237.77299500 574.47900391
222.04499817 270.83001709 519.99200439
206.74200439 227.77000427 456.08499146
148.25599670 203.05099487 451.08801270
178.02200317 222.77600098 524.40002441
237.74099731 262.66101074 496.03900146
146.93800354 179.98098755 571.95404053
173.49499512 237.77900696 556.11804199
303.63101196 234.01400757 466.33499146
108.82800293 249.15400696 501.34597778
127.79199982 116.33699799 508.67999268
212.47799683 289.70101929 522.78100586
176.34500122 150.42201233 509.54098511
183.57199097 134.88499451 487.30297852
166.00799561 217.48599243 535.72497559
104.41899872 210.94499207 558.84997559
209.90200806 272.00201416 534.94104004
184.96299744 160.12400818 512.74102783
189.53298950 159.79200745 474.27697754
111.47800446 241.48799133 541.27801514
98.10599518 158.49299622 541.58001709
99.20199585 222.92900085 520.39599609
195.93399048 255.89999390 543.26702881
102.74900055 185.92199707 566.77801514
192.81500244 224.27499390 516.00500488
131.12100220 149.01599121 461.74600220
139.82699585 202.13000488 453.55599976
92.64100647 172.04899597 505.28002930
223.13200378 264.33102417 509.34201050
117.37599945 258.81100464 492.32000732
185.13700867 257.14901733 496.72299194
215.72599792 192.08900452 507.34399414
147.26400757 244.99200439 562.34802246
166.05200195 272.30798340 463.58001709
176.64399719 245.78799438 451.08898926
115.12300110 212.76600647 464.16699219
187.86799622 156.65100098 506.16900635
220.16699219 274.55999756 530.07696533
230.24200439 276.36401367 497.26199341
193.20799255 178.06201172 468.97500610
229.98699951 205.18200684 488.64401245
231.98699951 287.14801025 523.79699707
130.41099548 218.23899841 604.58795166
258.37002563 258.54199219 484.55200195
110.92800140 244.69400024 536.52502441
244.06098938 236.36799622 463.64300537
99.32400513 181.77700806 478.76800537
167.85099792 203.98500061 564.46997070
154.38200378 134.33599854 508.82202148
299.22598267 265.20999146 471.13299561
181.87500000 265.50601196 456.20797729
194.72099304 168.16000366 502.24203491
162.65599060 180.50601196 554.97100830
100.95199585 161.23999023 479.77200317
209.46900940 230.21798706 518.42700195
220.59500122 196.56098938 512.50201416
176.80500793 296.11001587 493.77899170
142.45800781 247.16900635 579.97503662
308.27700806 272.16500854 477.64797974
131.67900085 149.69200134 532.69897461
189.29000854 222.46000671 505.45901489
210.32400513 205.88600159 478.73498535
178.88200378 224.33100891 531.45202637
102.15100098 205.39900208 556.60498047
104.98899841 137.27499390 518.51794434
160.71400452 205.92300415 448.69000244
128.95899963 274.78900146 518.83502197
265.04098511 273.51901245 478.50799561
284.66299438 250.50300598 470.78298950
204.36100769 209.64999390 475.35699463
164.03900146 263.60198975 456.48199463
96.20899963 195.03199768 484.25100708
260.20498657 223.41200256 486.49700928
191.48999023 202.47999573 517.11999512
197.12400818 280.80599976 543.92999268
93.90200043 185.17500305 535.91296387
176.02500916 140.47399902 503.32302856
164.21099854 201.79901123 515.00305176
95.46200562 187.07400513 486.00997925
191.28199768 189.70201111 477.64700317
140.52101135 238.91600037 595.12799072
180.54600525 187.50799561 456.10897827
139.04499817 131.65299988 467.86999512
134.65100098 220.43000793 453.78802490
171.89801025 241.88999939 451.07098389
150.80299377 292.21099854 504.92602539
216.70500183 233.68899536 516.09600830
162.75300598 141.91799927 508.59600830
114.88299561 167.24800110 465.47000122
161.46199036 246.80400085 561.06195068
185.75300598 275.47799683 559.05499268
172.95399475 251.98200989 569.34295654
173.02999878 137.94900513 470.38702393
172.24200439 277.05700684 554.49298096
211.71299744 198.42700195 507.12002563
311.13897705 234.79800415 466.77398682
156.80099487 294.95901489 502.24203491
155.22601318 197.94200134 578.79901123
203.55700684 201.23899841 512.06500244
294.35299683 237.21099854 471.17901611
191.72399902 200.43200684 459.76901245
156.87500000 193.82199097 575.48901367
149.27999878 136.12699890 465.47399902
315.43298340 268.33599854 477.40200806
214.24000549 212.23899841 521.18200684
223.32400513 300.94201660 472.23098755
162.48199463 224.50799561 537.61499023
182.88999939 223.41999817 502.29101562
169.17900085 283.62200928 533.42199707
255.59397888 235.81300354 490.27600098
156.66299438 291.91299438 485.79000854
213.90899658 232.31401062 458.68701172
100.89500427 213.00500488 542.10296631
219.61300659 206.34700012 521.33502197
124.25000000 243.26499939 573.79797363
227.60600281 203.63500977 480.76998901
158.58100891 265.28100586 580.27398682
192.08799744 186.48100281 461.97998047
127.18500519 265.54400635 538.81799316
113.65900421 162.30101013 577.70996094
114.99700165 142.18299866 544.75799561
215.94200134 217.38200378 459.80398560
116.52700043 247.85900879 477.36801147
119.95399475 121.08300018 492.83200073
316.85900879 246.87199402 476.38198853
237.94500732 254.29000854 500.58001709
288.08798218 263.40600586 468.45498657
237.43901062 295.81799316 460.73300171
197.00099182 291.61599731 508.78100586
164.74301147 264.01098633 581.59796143
172.04501343 291.78802490 512.17504883
223.23500061 289.62899780 526.04998779
211.44799805 269.34799194 529.97399902
119.33100128 135.07301331 472.08599854
257.24600220 293.38198853 462.37899780
125.81800079 265.71499634 485.36898804
201.96199036 244.99000549 527.00598145
166.97900391 215.67399597 541.08801270
298.36999512 270.31002808 476.42599487
137.58399963 269.68600464 546.76098633
168.17199707 212.05799866 564.55102539
141.60299683 252.51000977 580.36602783
171.04100037 281.64999390 467.14999390
162.13198853 285.31100464 475.67498779
280.62298584 271.79199219 475.54498291
214.88900757 292.51098633 515.51800537
135.78900146 235.87300110 457.98400879
155.76800537 152.73800659 517.49700928
177.62300110 280.52600098 542.82397461
266.82598877 214.79000854 480.03799438
189.08099365 200.41799927 525.40399170
279.10000610 258.80398560 473.45999146
214.19599915 188.60000610 496.79602051
257.94601440 244.18099976 486.02700806
169.35400391 227.98100281 451.08300781
134.34599304 201.23899841 601.17401123
176.45600891 200.50599670 453.55700684
253.74099731 211.55700684 470.59500122
118.38400269 240.45799255 559.73797607
240.87600708 269.54299927 460.90899658
129.00399780 275.76199341 509.23599243
184.80299377 194.66499329 534.30096436
106.98799896 134.84300232 489.79800415
109.23899841 199.57000732 582.96398926
110.89400482 228.00999451 472.89999390
214.52999878 193.51699829 474.44000244
151.05499268 115.14800262 484.22698975
179.19099426 196.14300537 538.74499512
209.09999084 214.95899963 519.84002686
216.33200073 248.80300903 515.51800537
243.73899841 232.18399048 500.98300171
104.46199799 242.96299744 502.64001465
113.44400024 210.27700806 586.27996826
100.18499756 208.78698730 477.69998169
275.45602417 282.33401489 476.30899048
95.63200378 161.98800659 531.03204346
117.95199585 244.49899292 473.32699585
104.55799866 238.43299866 520.54797363
249.30999756 238.28999329 463.36999512
128.58599854 120.86699677 518.48498535
267.41702271 215.63600159 471.44699097
258.48098755 284.75900269 478.73602295
259.49499512 293.51400757 479.59899902
122.55599976 125.74400330 477.88000488
102.47000122 232.85800171 523.08898926
254.60600281 283.33599854 463.64001465
137.32499695 279.17901611 493.92300415
183.39199829 141.77400208 500.50497437
170.99800110 287.94198608 472.20001221
151.00399780 235.48699951 579.12701416
179.91600037 233.26799011 501.50500488
187.97000122 296.68798828 492.20800781
176.93998718 245.81600952 562.21801758
135.53399658 183.81098938 454.22598267
138.16900635 266.22198486 470.02099609
226.14500427 296.15301514 508.92501831
120.75199890 243.25700378 563.68200684
175.18299866 266.85101318 574.49200439
235.85499573 245.78500366 505.90402222
237.28900146 300.36801147 469.18801880
112.77300262 254.04798889 498.91098022
167.22700500 144.39199829 463.89999390
170.32598877 273.34298706 565.96795654
273.56201172 270.13702393 476.04400635
173.39199829 264.51599121 458.01498413
225.98100281 275.49200439 506.41400146
219.63598633 240.89700317 458.69601440
106.93400574 200.87500000 572.64300537
126.24099731 204.68699646 456.78698730
225.11599731 275.22201538 512.20697021
181.90098572 292.14797974 469.92498779
163.25299072 296.09298706 500.68301392
139.69500732 265.10098267 560.11895752
190.11299133 283.45001221 531.13000488
153.80300903 114.52200317 499.33401489
145.13800049 256.29101562 575.07196045
115.51900482 133.81999207 534.63897705
139.59599304 262.88900757 466.05899048
196.09500122 175.17399597 502.34698486
194.05398560 209.18400574 470.04800415
216.89799500 227.55200195 459.03500366
134.58999634 189.38200378 453.70700073
265.97799683 266.92199707 468.63699341
143.51600647 159.55999756 532.38397217
173.90299988 210.92399597 451.13699341
164.16700745 241.93400574 552.81597900
200.42001343 225.92700195 516.06799316
221.75399780 194.53300476 491.60198975
148.56700134 163.88499451 536.20501709
210.45599365 298.91101074 483.74600220
111.34400177 132.71200562 523.90301514
215.58399963 270.14199829 455.98098755
155.23699951 248.68699646 560.16802979
106.20700073 179.14100647 584.53796387
144.98899841 188.58900452 451.70401001
292.17800903 235.24800110 466.19299316
147.06500244 230.72799683 592.76403809
279.94201660 250.98600769 468.54400635
188.27200317 244.29400635 547.66796875
122.16699982 120.69200134 487.29598999
207.13800049 288.43899536 524.96203613
148.69700623 121.79000092 474.16299438
153.65800476 237.80000305 452.92700195
217.14698792 192.13099670 480.20800781
226.19400024 219.05499268 515.08203125
287.48101807 225.47698975 470.05798340
250.33000183 247.34400940 463.77200317
101.57299805 237.10099792 499.67599487
170.20300293 286.78598022 527.03900146
188.66799927 215.80900574 454.58001709
101.58900452 236.96499634 505.33200073
142.64599609 116.27499390 507.42001343
312.11502075 247.36799622 468.65200806
167.17599487 171.52899170 539.98602295
189.79800415 164.99101257 472.15301514
132.16600037 173.50399780 455.89300537
153.71600342 228.69099426 451.16900635
131.28698730 236.09300232 597.64996338
204.33599854 271.11199951 541.45996094
210.22099304 222.13600159 519.34399414
181.02999878 201.31599426 517.33203125
111.65499878 250.10099792 525.60699463
243.08300781 214.79701233 489.72601318
178.89399719 189.52299500 540.37304688
108.35600281 193.40800476 582.09997559
274.65399170 236.07901001 466.44500732
132.31300354 157.95700073 540.06799316
99.04299927 160.47000122 550.02496338
205.76899719 242.03500366 520.05603027
265.84698486 221.04800415 482.83700562
141.88798523 123.91900635 513.46496582
158.09899902 208.60000610 517.24603271
275.98101807 226.38800049 468.58502197
120.07099915 226.72000122 584.50903320
250.75799561 219.19000244 488.99499512
132.21000671 186.93899536 596.70300293
186.88699341 280.86599731 538.43804932
249.57199097 294.04699707 489.49499512
121.69899750 219.94799805 461.05999756
131.36799622 267.26699829 479.01098633
96.77000427 204.62899780 522.97094727
105.21499634 234.87199402 530.77899170
180.54100037 235.49699402 451.07998657
155.11299133 236.23699951 548.66998291
142.73500061 147.45999146 461.08099365
94.63999939 158.28100586 503.61300659
164.35200500 234.72399902 540.99700928
114.32500458 207.60198975 594.74700928
227.49899292 208.58900452 476.02902222
198.85099792 184.16999817 475.12799072
106.01699829 223.61099243 539.76501465
214.32200623 191.62899780 492.14599609
187.55300903 209.20500183 509.28198242
119.19800568 191.10200500 461.28900146
229.84700012 236.38198853 511.37298584
242.47700500 256.07699585 460.90298462
94.71900177 195.59700012 531.78503418
245.02499390 295.18399048 462.06900024
146.29399109 168.93200684 545.82299805
102.59600067 156.16400146 478.65798950
171.94799805 159.25799561 516.71899414
212.89601135 199.04100037 485.30300903
178.43499756 206.14099121 527.92199707
130.49699402 157.35800171 458.82299805
319.51498413 259.83102417 479.46701050
163.79598999 296.58999634 491.16098022
191.23300171 241.47799683 503.75302124
143.65100098 224.49000549 453.48800659
204.57299805 279.95300293 545.46099854
179.72299194 168.61100769 463.11898804
130.41600037 226.79699707 457.89199829
188.49200439 225.84599304 518.24401855
161.84500122 200.25099182 523.15197754
227.14500427 297.61199951 461.97998047
187.92300415 190.73399353 531.48797607
192.03298950 292.45999146 507.88403320
165.81900024 152.44898987 512.29498291
165.85600281 220.59899902 567.67401123
113.12500000 202.01399231 597.72900391
271.71298218 237.73098755 479.37500000
169.46501160 183.17100525 453.55999756
184.80200195 295.62301636 498.63101196
141.81600952 241.10501099 455.78900146
254.54598999 241.90699768 489.16101074
170.64500427 217.85099792 526.07202148
181.07398987 134.33399963 481.20901489
170.87100220 168.40800476 529.82995605
159.00300598 278.44302368 544.69500732
159.21400452 227.43000793 576.35498047
230.89500427 293.69100952 516.73797607
194.55400085 231.81800842 522.62200928
101.14099884 160.85499573 558.45794678
165.22100830 133.84400940 504.02700806
153.08900452 215.83500671 451.07202148
225.24200439 199.69400024 502.83801270
150.88499451 180.61099243 568.79504395
92.67800140 186.67300415 529.54797363
166.63299561 294.02700806 482.38098145
117.07799530 260.57400513 526.23999023
103.03099823 177.26998901 570.44897461
294.40399170 256.45101929 473.47598267
168.60400391 295.00299072 503.00198364
190.50000000 192.69700623 498.32998657
224.31401062 199.00700378 481.26199341
144.28199768 197.54100037 590.40197754
99.67099762 145.82299805 502.92300415
152.71798706 267.78900146 569.21295166
129.50601196 138.55900574 466.10598755
263.26199341 261.28701782 468.58901978
182.34999084 148.87699890 506.53500366
131.00099182 260.24197388 471.55801392
117.28200531 129.27400208 527.20599365
96.74700165 153.37100220 492.72601318
124.04000092 265.99899292 490.90499878
176.66999817 218.06800842 515.02301025
131.99600220 118.23099518 482.90600586
176.74499512 208.14100647 535.50598145
129.64799500 176.54299927 587.76495361
157.79598999 150.27000427 461.14199829
117.89300537 217.72601318 592.21398926
197.78298950 244.40600586 533.33496094
235.65399170 277.97500610 458.39398193
296.86700439 226.72100830 468.58099365
320.83499146 253.22801208 475.04199219
245.73298645 300.03601074 472.00097656
158.00199890 198.15299988 451.27902222
189.80500793 295.52798462 477.27502441
184.31300354 205.19299316 455.32699585
142.05799866 174.60699463 562.52600098
230.12199402 282.98898315 507.86401367
98.34200287 221.99499512 515.50799561
107.29299927 224.36599731 475.08801270
100.37899780 231.04199219 489.80902100
116.10300446 127.26600647 515.11901855
96.20899963 191.05400085 543.78698730
192.78599548 296.97497559 483.29498291
213.24699402 195.56700134 496.11499023
204.69200134 205.36898804 487.94799805
149.48199463 186.39799500 579.01599121
167.68299866 220.38699341 557.54400635
98.39600372 154.24501038 535.29901123
232.03100586 225.90200806 510.42700195
188.71900940 282.51000977 460.42401123
98.03599548 202.88899231 545.26196289
110.38800049 168.67999268 585.57702637
154.21701050 119.59099579 477.49700928
104.00500488 140.34800720 484.61700439
197.61799622 176.77299500 492.22201538
220.09300232 192.32699585 498.52099609
115.63199615 145.89900208 548.58599854
161.78799438 187.88301086 450.89901733
194.37500000 215.37600708 460.48400879
243.19299316 212.79899597 482.16998291
224.50900269 201.30099487 513.90496826
158.48899841 150.27799988 513.97198486
103.43299866 154.71899414 557.75097656
99.95300293 201.26699829 553.79101562
147.31500244 262.47299194 460.87200928
165.38299561 292.72198486 510.10699463
207.11700439 202.25000000 499.39199829
131.95500183 169.50300598 561.14599609
178.26499939 231.91299438 547.95599365
96.55999756 162.17599487 487.83099365
157.31700134 285.14599609 477.67401123
163.33399963 194.38900757 567.60797119
243.21701050 242.25900269 499.82699585
130.88099670 115.78500366 491.79397583
115.92199707 260.88699341 505.72698975
285.45999146 268.62698364 475.45901489
177.96600342 260.15499878 568.67700195
93.25599670 181.96800232 503.27301025
127.32299805 127.87300110 525.09100342
113.34600067 254.14100647 493.73800659
94.89600372 167.53800964 532.86804199
188.09999084 286.03802490 523.95300293
228.42500305 258.83499146 458.68099976
101.89399719 140.44601440 508.97299194
172.46900940 214.21598816 521.23602295
201.92599487 272.90402222 547.04400635
218.09298706 261.95202637 456.25000000
204.99198914 293.41302490 506.55401611
245.01499939 250.78100586 463.45202637
93.82099915 187.04499817 503.08901978
148.87699890 274.07101440 549.26098633
232.35400391 299.36297607 489.55700684
263.29898071 229.68099976 466.74002075
250.69201660 280.16799927 478.86199951
200.17700195 297.96697998 482.00198364
174.00700378 166.15499878 524.81701660
198.72599792 214.27500916 465.46899414
216.00300598 288.87600708 526.19000244
222.54798889 247.26899719 513.91900635
144.22200012 215.82299805 595.59704590
247.45599365 211.83399963 473.52902222
127.36499023 145.24400330 534.10797119
155.63699341 168.77000427 455.35400391
191.51799011 150.41400146 499.90698242
223.42500305 218.34201050 463.30700684
225.55899048 233.13101196 513.88500977
96.00199890 205.70899963 488.27001953
129.18699646 259.53701782 555.08898926
191.90199280 162.76300049 505.34701538
99.89900208 208.77900696 546.92700195
263.10699463 255.56701660 481.51901245
187.81800842 289.18499756 463.88998413
150.10499573 204.69300842 586.58599854
154.29598999 245.30699158 554.45300293
115.90100098 237.09799194 471.64898682
182.90800476 296.04797363 489.26998901
123.69999695 229.65599060 593.90301514
104.72299957 140.25500488 527.06701660
105.44300079 170.35000610 578.76300049
134.58200073 179.91600037 587.22003174
151.64700317 270.12698364 562.96697998
149.51899719 238.26100159 560.59497070
188.73699951 270.77902222 560.46405029
147.97698975 237.89100647 588.55999756
103.45899963 168.91300964 572.05303955
96.21900177 165.77200317 540.62097168
94.75699615 186.51100159 490.85699463
213.76499939 237.92601013 458.78500366
277.02200317 245.79299927 468.89700317
188.01499939 142.74501038 485.04901123
136.31700134 271.45098877 541.67095947
132.79501343 171.94599915 568.53802490
92.68599701 169.23899841 517.89703369
253.07499695 229.31300354 466.02899170
187.93000793 275.14099121 458.38299561
266.97097778 286.84802246 476.28799438
143.80200195 281.14300537 484.95501709
139.09300232 113.72599792 487.67901611
158.23200989 230.37399292 572.31701660
145.38499451 237.61099243 453.84799194
198.61799622 180.94299316 478.87701416
198.57199097 296.72900391 492.29400635
256.37399292 263.01397705 485.88800049
176.07099915 150.78500366 466.48098755
189.81100464 294.86599731 500.88900757
111.58399963 180.96800232 466.08499146
189.81399536 191.05899048 491.42901611
106.09899902 224.00000000 545.31402588
