ply
format ascii 1.0
element vertex 2048
property float x
property float y
property float z
end_header
262.25128174 228.19021606 391.54141235
263.90222168 228.90377808 398.89587402
270.02490234 221.98382568 386.19631958
271.28234863 223.49957275 392.94882202
248.89093018 212.37413025 389.73233032
250.29396057 216.12686157 395.50863647
259.81143188 209.04711914 384.33032227
257.90173340 213.12161255 390.17446899
122.89496613 91.94416046 393.66284180
113.17879486 96.08814240 393.90362549
128.40203857 91.54360962 384.95465088
118.63114929 94.65939331 383.74749756
104.21611786 132.53001404 500.86999512
99.48826599 142.37423706 506.67584229
101.59281921 124.54737854 490.28488159
97.27536774 135.55058289 496.85791016
95.26729584 146.43960571 512.25640869
95.43440247 157.97250366 518.02612305
88.58647156 143.07484436 502.01928711
89.49510193 155.03018188 508.45880127
109.10604858 120.24995422 488.43167114
103.11524963 127.87005615 494.28784180
107.94447327 112.58470917 476.45007324
101.39114380 120.67897034 482.47915649
120.01033783 105.46460724 460.34863281
114.65443420 108.83457184 468.52606201
125.21754456 99.57887268 447.12377930
119.46422577 102.58740234 455.30447388
130.30030823 94.34481812 374.57046509
120.10478210 98.01218414 372.04486084
137.92068481 98.60973358 368.34902954
127.76017761 102.30446625 364.96618652
102.51724243 102.14891815 391.99423218
96.00549316 109.75288391 395.15927124
107.10281372 98.72998047 381.17926025
99.47039795 106.22669220 383.45056152
141.78973389 93.26129913 382.03488159
130.64645386 93.62587738 379.27587891
148.96661377 98.52610016 374.61257935
137.16011047 98.55851746 370.83795166
111.45391846 97.19132996 415.22695923
103.26553345 103.91319275 417.37365723
115.78778076 93.46266937 404.98822021
106.94056702 99.63733673 405.95962524
134.66723633 91.19304657 412.78793335
124.04270935 93.31935120 413.70889282
139.99647522 90.86149597 401.84765625
128.17247009 91.90441132 401.06134033
152.11062622 96.35127258 387.67913818
144.08859253 91.84339905 390.71942139
159.42565918 102.16477966 380.52719116
151.00746155 96.26372528 382.50970459
94.06260681 167.79765320 520.02026367
100.42331696 178.85993958 523.84960938
96.27481842 179.90072632 517.76141357
102.59832001 189.90144348 523.34509277
111.67027283 100.62254333 371.71926880
103.22470856 107.86534882 372.44705200
119.12101746 102.39986420 363.00885010
109.94329071 109.51790619 362.58587646
220.54211426 237.15066528 475.09442139
218.97271729 232.02006531 484.57312012
229.78878784 238.68447876 469.35971069
226.48312378 234.83761597 477.74508667
105.99810791 112.95880890 467.84387207
100.62619781 121.38357544 472.63592529
105.06293488 108.09087372 454.74597168
98.98896027 116.71920013 459.53509521
119.04101562 100.17686462 441.19256592
110.35797119 105.80103302 444.33654785
123.01373291 96.06626129 429.18469238
112.67155457 101.12461853 431.15588379
239.13882446 230.43891907 403.64627075
239.82952881 231.85563660 410.94598389
251.05107117 227.63285828 400.57318115
248.00424194 230.76396179 407.35412598
134.14443970 100.85966492 443.20019531
132.31622314 104.55274963 455.21243286
145.19140625 97.25139618 432.86676025
144.20425415 101.16938019 444.73016357
141.10882568 98.10750580 420.85498047
138.12545776 97.81632233 431.42041016
150.24932861 97.94758606 409.23016357
147.49497986 97.85893250 419.51324463
97.34125519 107.24775696 411.43225098
91.61530304 115.32231140 415.49649048
100.21736145 102.44329834 399.55789185
93.26786041 110.50910187 402.95770264
105.81172180 109.16629791 448.93045044
99.30435181 117.81433105 452.09384155
107.24539185 104.00833893 436.78689575
99.60641479 112.80740356 439.54754639
232.96746826 235.89183044 448.48910522
233.69003296 233.29205322 460.24526978
241.12600708 237.17831421 441.15655518
239.19026184 235.45516968 450.59365845
110.66300201 208.26452637 519.68273926
117.56872559 205.40647888 524.68310547
121.33623505 216.88246155 519.06896973
125.32536316 212.91085815 523.83837891
150.42955017 98.44869995 398.84918213
149.04840088 97.06700897 409.71231079
158.33666992 102.33605194 389.75772095
157.71777344 101.24437714 400.78500366
184.08000183 238.48046875 493.67297363
181.00827026 232.08692932 501.58557129
195.83396912 238.37951660 496.74902344
190.93429565 233.75070190 503.59783936
161.37478638 102.79485321 383.96984863
164.93750000 100.69467926 394.05590820
165.98156738 111.01004791 377.34786987
170.99615479 109.15009308 387.82794189
94.03931427 136.46333313 485.32659912
93.02445221 147.03971863 490.95629883
90.79284668 133.62443542 471.75152588
90.02745056 144.69985962 478.33001709
97.46636200 109.84067535 430.45504761
91.86079407 118.15381622 434.63873291
98.97226715 105.27260590 418.24798584
92.51962280 113.49600220 421.92083740
151.35017395 101.79397583 433.14950562
149.65711975 107.72566986 444.53793335
162.98921204 104.62411499 426.40136719
161.46305847 110.05239105 437.31045532
92.85076904 118.91213989 378.64099121
87.98940277 129.22586060 382.17724609
98.00106812 116.30307007 366.86184692
92.10000610 126.10897827 369.37982178
231.36946106 194.57914734 390.85064697
235.65789795 197.40983582 394.54400635
241.14254761 196.98849487 385.99777222
243.21864319 198.32722473 391.90319824
161.07125854 103.35610199 371.68432617
150.04397583 104.32328033 365.79202271
167.65742493 111.11026764 370.62905884
158.72047424 112.81755066 364.92279053
92.77249146 113.62940216 403.87368774
88.55462646 123.04789734 408.08990479
95.12984467 109.75081635 391.69070435
89.67311859 119.30282593 395.35342407
131.80015564 101.09654236 360.18023682
122.48453522 107.76368713 356.82531738
141.54629517 105.57268524 357.76211548
132.84573364 112.67321777 353.35165405
117.34156799 118.29896545 479.15191650
114.66703796 126.26408386 489.20297241
126.57838440 117.00209045 466.28604126
124.94060516 125.47063446 476.79675293
94.22288513 120.72454071 453.51055908
90.69450378 130.49543762 458.21185303
93.79496765 116.27467346 440.93359375
89.72923279 126.44393158 445.73477173
201.96945190 219.68589783 484.69970703
200.96368408 222.68759155 493.94091797
212.23829651 223.35845947 477.44158936
207.97694397 221.72615051 486.30413818
162.98629761 104.04324341 405.45346069
164.89837646 105.93164825 416.67773438
169.33511353 110.57577515 396.88067627
171.48780823 112.61082458 407.82037354
220.97569275 237.48446655 401.17102051
221.11468506 238.23440552 412.20486450
234.30560303 234.92259216 403.11581421
229.93234253 237.58898926 410.53262329
104.90792847 146.24734497 510.26696777
103.31227112 158.50912476 516.87500000
112.29738617 151.50817871 501.04547119
110.72964478 163.51167297 509.15066528
132.63009644 109.46450806 456.46588135
129.61973572 117.89804077 466.36370850
144.41142273 110.35098267 448.00772095
141.94244385 118.16725922 457.69982910
110.71499634 130.71244812 491.62576294
109.80170441 141.43548584 500.69512939
117.73617554 131.99072266 480.69042969
117.32208252 142.90417480 490.65612793
89.04480743 158.46894836 505.81631470
91.61776733 169.51811218 512.98522949
89.47545624 163.59297180 493.94854736
92.34335327 173.90232849 502.61627197
91.77368927 135.23722839 470.32757568
90.93139648 146.19445801 475.60046387
88.89940643 132.10720825 457.90603638
88.02587891 143.75173950 463.84429932
209.99392700 235.51808167 457.85900879
210.51760864 235.13163757 468.72100830
220.80438232 237.85314941 455.14376831
216.84390259 236.72810364 463.27661133
232.20832825 216.54244995 430.20651245
232.88275146 223.47883606 438.42117310
239.75456238 220.52392578 417.81561279
236.95504761 223.02684021 426.55117798
116.34378052 109.60645294 355.32489014
109.05500793 119.69691467 354.42678833
126.46598053 110.74901581 350.88909912
119.48145294 120.79789734 349.13037109
89.85268402 119.99904633 424.68438721
86.92732239 129.99101257 429.52877808
90.48526001 115.66518402 411.87759399
86.65043640 126.14525604 416.66180420
173.70394897 112.57681274 379.63800049
176.81590271 113.34619141 386.53057861
173.23388672 123.62174225 376.31207275
178.50347900 125.62875366 383.28564453
236.99162292 203.80041504 411.66851807
237.50436401 212.88401794 418.26342773
245.16906738 204.84173584 398.05404663
242.29843140 209.70202637 406.91656494
218.99429321 212.00103760 455.62548828
219.96257019 218.00004578 465.43359375
227.39251709 216.95544434 446.95010376
224.35649109 217.56413269 456.48898315
87.79467773 136.23374939 449.37780762
86.97687531 146.98742676 455.18106079
85.63006592 131.84735107 436.36526489
84.37519073 143.36929321 442.55963135
100.73437500 188.12113953 508.21075439
106.77552032 195.68132019 515.68341064
107.25959015 200.64413452 501.40353394
110.93461609 203.30245972 509.92022705
136.62463379 218.74009705 503.94454956
133.32853699 215.69598389 513.66070557
149.53292847 220.67474365 502.86300659
143.64062500 217.64924622 511.28121948
130.66497803 125.92229462 467.70227051
128.43949890 136.73506165 476.12374878
141.41427612 126.90288544 460.28820801
138.74993896 136.45271301 469.25796509
213.09216309 236.33457947 431.57818604
212.79776001 237.03781128 443.04977417
225.41357422 236.97097778 431.74090576
220.11253357 237.43716431 438.85073853
88.54258728 151.24241638 481.80429077
90.21375275 162.07926941 488.19235229
85.31517029 152.60824585 469.29092407
87.47854614 163.20651245 476.64755249
153.01344299 119.61235809 451.35568237
150.48152161 130.13183594 460.18209839
162.91786194 121.63482666 443.40313721
159.68879700 130.54113770 452.38168335
122.62087250 145.03469849 493.00051880
121.10292816 155.79055786 502.12243652
133.23774719 149.15406799 484.23648071
130.47271729 158.59663391 495.05361938
151.42253113 232.47618103 488.94305420
151.74977112 228.70565796 500.47595215
163.91625977 235.37718201 490.42871094
159.37376404 231.93417358 499.33172607
223.33959961 194.30532837 428.41903687
225.54374695 200.48490906 438.97024536
230.34710693 197.99075317 418.00463867
229.21343994 199.17092896 428.94873047
189.30049133 235.48077393 467.37664795
189.74974060 234.94200134 479.13717651
201.40193176 237.95167542 467.36904907
196.48898315 236.66903687 475.58041382
266.53680420 231.88110352 393.46987915
261.90063477 231.85955811 393.52172852
266.90652466 231.90185547 393.57095337
266.62820435 231.91362000 393.55685425
241.35635376 192.14997864 395.79656982
237.66546631 192.08917236 395.80212402
241.63015747 192.15585327 395.84082031
241.47946167 192.13409424 395.82092285
247.78948975 203.87020874 393.69662476
243.44851685 203.78923035 393.69259644
248.14495850 203.84634399 393.76452637
247.89520264 203.82089233 393.73913574
202.67938232 206.07406616 387.25109863
197.43693542 206.05587769 387.14331055
203.35058594 205.98744202 387.32229614
202.61965942 206.05294800 387.23971558
251.22937012 213.00776672 393.54956055
247.34353638 212.94346619 393.54809570
251.55395508 213.01603699 393.61703491
251.37149048 212.99291992 393.59286499
226.36175537 201.93225098 387.62799072
221.71665955 201.85652161 387.53137207
226.86279297 201.90068054 387.73620605
226.46665955 201.89334106 387.65673828
253.42098999 225.33454895 395.67309570
248.92282104 225.23048401 395.69079590
253.81781006 225.31991577 395.70254517
253.51248169 225.27996826 395.68869019
216.29141235 210.97515869 391.27145386
211.14187622 210.94256592 391.19128418
216.83656311 210.90599060 391.29669189
216.18539429 210.94944763 391.21969604
198.39559937 221.52532959 390.48391724
192.36918640 221.45901489 390.42565918
199.18560791 221.44851685 390.51892090
198.26794434 221.48956299 390.47442627
257.39331055 235.31871033 407.54342651
252.32928467 235.23670959 407.53302002
257.81170654 235.27590942 407.59710693
257.50811768 235.27243042 407.56390381
238.45425415 213.21118164 389.99703979
234.18414307 213.11093140 390.00103760
238.87928772 213.22309875 390.07238770
238.58906555 213.18118286 390.05905151
234.21252441 188.60778809 401.67886353
230.65057373 188.54858398 401.68936157
234.48800659 188.60006714 401.68725586
234.31930542 188.58186340 401.67648315
241.35768127 233.55224609 400.22543335
236.57073975 233.40696716 400.23898315
241.83438110 233.54347229 400.27349854
241.46290588 233.48207092 400.26617432
237.60775757 224.39842224 395.32876587
233.02395630 224.26440430 395.33938599
238.08514404 224.39965820 395.37023926
237.75425720 224.33905029 395.36383057
233.02221680 237.97465515 407.01846313
227.17718506 237.89685059 407.02688599
233.71752930 237.95199585 407.10235596
233.18649292 237.96862793 407.07788086
206.52757263 228.14328003 394.09722900
200.61532593 228.05172729 394.05871582
207.24246216 228.09049988 394.12188721
206.43943787 228.10888672 394.08877563
245.44070435 218.21353149 404.26721191
241.64665222 218.11407471 404.27355957
245.75659180 218.22442627 404.29464722
245.58128357 218.17745972 404.28225708
190.14486694 214.75280762 389.67849731
184.78173828 214.69540405 389.63699341
190.86309814 214.65200806 389.71920776
190.04119873 214.69357300 389.69165039
207.19778442 217.29627991 391.16708374
201.50885010 217.20550537 391.11685181
207.86334229 217.22006226 391.15728760
207.04307556 217.23098755 391.10998535
224.95777893 182.92378235 403.20068359
221.82037354 182.86801147 403.21420288
225.21688843 182.90011597 403.22872925
225.10873413 182.88201904 403.22048950
226.54141235 227.37445068 394.73266602
221.68572998 227.24079895 394.75585938
227.04675293 227.36349487 394.77792358
226.53900146 227.31494141 394.78070068
247.68905640 237.41213989 415.24639893
242.71975708 237.28750610 415.26196289
248.11065674 237.38839722 415.27731323
247.80839539 237.35458374 415.26968384
217.50482178 188.47468567 426.31515503
214.38371277 188.43371582 426.34365845
217.76629639 188.47424316 426.31216431
217.63189697 188.47026062 426.32690430
242.62387085 206.66258240 401.70361328
238.55395508 206.56724548 401.70266724
242.93447876 206.63034058 401.72753906
242.69161987 206.59355164 401.70819092
199.60054016 178.82867432 437.59860229
196.93756104 178.81430054 437.62924194
199.88333130 178.80172729 437.58776855
199.73962402 178.81463623 437.60028076
203.55979919 226.17175293 490.52972412
199.09559631 226.03952026 490.58547974
204.08439636 226.13104248 490.52111816
203.57266235 226.09739685 490.57458496
221.72671509 208.62973022 443.16134644
217.99435425 208.55764771 443.19961548
222.05630493 208.62179565 443.11712646
221.85964966 208.61051941 443.14410400
200.19969177 196.44468689 454.65646362
196.73034668 196.39389038 454.73425293
200.58659363 196.41744995 454.58578491
200.27206421 196.41668701 454.64584351
198.00852966 203.18165588 466.98828125
194.43234253 203.10610962 467.05474854
198.40747070 203.15528870 466.92636108
198.05534363 203.14158630 466.98358154
214.74772644 179.38981628 407.51013184
212.25740051 179.36752319 407.50338745
214.98904419 179.36779785 407.56762695
215.03781128 179.36369324 407.54525757
211.75250244 202.77284241 452.97009277
208.22412109 202.69482422 453.02029419
212.07458496 202.77217102 452.91061401
211.80990601 202.75262451 452.94876099
191.03022766 177.49737549 441.63659668
188.21028137 177.47508240 441.66418457
191.36398315 177.46900940 441.60552979
191.17201233 177.47734070 441.62380981
191.04246521 219.87742615 489.54571533
186.76896667 219.77249146 489.59426880
191.59451294 219.83647156 489.52578735
191.05502319 219.82020569 489.57659912
188.63171387 202.09222412 474.74169922
184.84603882 202.03521729 474.81369019
189.12887573 202.04327393 474.69940186
188.66204834 202.04728699 474.76388550
219.56320190 235.99272156 483.80108643
215.23489380 235.87791443 483.84655762
219.91931152 235.95394897 483.80090332
219.55029297 235.92907715 483.83615112
237.84533691 204.56176758 409.78710938
234.21394348 204.46739197 409.81649780
238.09530640 204.52250671 409.79751587
237.94549561 204.48124695 409.79943848
243.35987854 238.11488342 436.13900757
238.85118103 237.99230957 436.16894531
243.63563538 238.06550598 436.11581421
243.39794922 238.02351379 436.12811279
198.16183472 211.62210083 480.06680298
194.28454590 211.53750610 480.12176514
198.60566711 211.59786987 480.02099609
198.19372559 211.58334351 480.06750488
200.14471436 170.86662292 431.00900269
197.81088257 170.84394836 431.05853271
200.36320496 170.85562134 430.98342896
200.31388855 170.85041809 431.00543213
219.21122742 200.62570190 439.05584717
215.73667908 200.55032349 439.13925171
219.51719666 200.61610413 438.99606323
219.32284546 200.59144592 439.05221558
217.43814087 217.61395264 470.04919434
213.61425781 217.51658630 470.11514282
217.78244019 217.57872009 470.02850342
217.51776123 217.55479431 470.07937622
246.36396790 236.76263428 425.99328613
242.09918213 236.66108704 426.01687622
246.62716675 236.72134399 426.02169800
246.44210815 236.69483948 426.02148438
172.03330994 218.79786682 488.38018799
167.97903442 218.70823669 488.43099976
172.60528564 218.73735046 488.39102173
172.00100708 218.73135376 488.44329834
207.51469421 172.26579285 419.87567139
204.94284058 172.23576355 419.90698242
207.79029846 172.25923157 419.87658691
207.75308228 172.24829102 419.88751221
181.67517090 209.29762268 481.65380859
177.79251099 209.22712708 481.73742676
182.22334290 209.23306274 481.63534546
181.72984314 209.23333740 481.71243286
242.09979248 227.04524231 416.06277466
237.62159729 226.92124939 416.08792114
242.43673706 227.00923157 416.05200195
242.19329834 226.96337891 416.05313110
193.68505859 190.82778931 448.17648315
190.37980652 190.78034973 448.22848511
194.06593323 190.80848694 448.12158203
193.74481201 190.80484009 448.15917969
212.77435303 234.06109619 405.25350952
207.22271729 233.91302490 405.30285645
213.39865112 233.98779297 405.27490234
212.74200439 233.96424866 405.29672241
189.99847412 226.11013794 403.52047729
184.72737122 226.00465393 403.54663086
190.63551331 226.02474976 403.45852661
189.98297119 226.03536987 403.47244263
182.40344238 191.27328491 450.37466431
178.94168091 191.21922302 450.40966797
182.83358765 191.25996399 450.30200195
182.43798828 191.25868225 450.33462524
179.54718018 222.04579163 492.38610840
175.02659607 221.91860962 492.48486328
180.20770264 222.01388550 492.34738159
179.56593323 221.98320007 492.44079590
184.96734619 196.01141357 462.74810791
181.37734985 195.95275879 462.82247925
185.44526672 195.97805786 462.69039917
185.03436279 195.97560120 462.75308228
228.77091980 222.23364258 460.31845093
224.96578979 222.12327576 460.38732910
229.06071472 222.20718384 460.29968262
228.85835266 222.16737366 460.34356689
207.06042480 179.53231812 426.89227295
204.52755737 179.50334167 426.91622925
207.29975891 179.52278137 426.86993408
207.26371765 179.51744080 426.87271118
232.16007996 238.11354065 443.04769897
227.62135315 237.98475647 443.08334351
232.47927856 238.05648804 443.03393555
232.14855957 238.01860046 443.05349731
228.94966125 229.89277649 472.08633423
225.12585449 229.81253052 472.13446045
229.20407104 229.86587524 472.08673096
229.01431274 229.85269165 472.11685181
233.54882812 195.01396179 413.27316284
230.47998047 194.94680786 413.32904053
233.74267578 194.98626709 413.28192139
233.68440247 194.95616150 413.30282593
236.21383667 238.38262939 423.73242188
231.18338013 238.22949219 423.75598145
236.61721802 238.33818054 423.73141479
236.19161987 238.29000854 423.72647095
221.44865417 228.18014526 478.51135254
217.44140625 228.07221985 478.58236694
221.77597046 228.15951538 478.49487305
221.48370361 228.12800598 478.54449463
220.97668457 212.70545959 452.11123657
217.26623535 212.60981750 452.17758179
221.31390381 212.68557739 452.06307983
221.09851074 212.65374756 452.10876465
210.23950195 209.72096252 463.81777954
206.45968628 209.62107849 463.89669800
210.61938477 209.70588684 463.76480103
210.32095337 209.67538452 463.82177734
234.15032959 236.77606201 464.68609619
230.10545349 236.66960144 464.71975708
234.41903687 236.74429321 464.67666626
234.19981384 236.71060181 464.69186401
226.23916626 196.46263123 426.05221558
223.00280762 196.39257812 426.11904907
226.47563171 196.45620728 426.02383423
226.33123779 196.42842102 426.05865479
238.87124634 215.86643982 415.52545166
235.01638794 215.75680542 415.55612183
239.13720703 215.84750366 415.50286865
238.97558594 215.79638672 415.50341797
215.63189697 218.07139587 472.39147949
211.62963867 222.01017761 483.11669922
224.12232971 221.95600891 464.25564575
220.52828979 224.87042236 476.06652832
243.92800903 229.30059814 420.65216064
242.57299805 233.18521118 431.96398926
250.45184326 230.23193359 408.93759155
248.96981812 233.50750732 420.72219849
251.17068481 207.43865967 390.80758667
252.53390503 217.87057495 398.71359253
259.85620117 212.05924988 383.45532227
259.47232056 223.66876221 393.20434570
189.90231323 207.90652466 480.74185181
184.67102051 211.80590820 489.98303223
199.99276733 213.51864624 478.96258545
195.08325195 216.91241455 488.53213501
225.17269897 187.57402039 418.34732056
224.44900513 192.98806763 427.68920898
232.90606689 192.59954834 410.20709229
232.43109131 198.22918701 421.30441284
213.64443970 198.51155090 445.79183960
211.49502563 203.06648254 455.68093872
222.11682129 203.35102844 439.80761719
219.75344849 207.66848755 450.79986572
202.29541016 204.33271790 465.33911133
199.18345642 207.62689209 475.28073120
212.23265076 209.04306030 460.97351074
208.63423157 211.87757874 471.61117554
171.97149658 214.42810059 489.99398804
164.31938171 218.69740295 496.40942383
181.83869934 220.11575317 491.33355713
175.51737976 223.70433044 497.92846680
235.48887634 188.86869812 386.01025391
239.33737183 200.31623840 386.23391724
249.15586853 196.89291382 385.61642456
252.25181580 209.20941162 389.29528809
210.73236084 180.90249634 423.47052002
210.41142273 184.78984070 432.25863647
219.21936035 185.23307800 417.82666016
218.86204529 189.09852600 428.08346558
197.49533081 189.93466187 443.76062012
195.70979309 193.73007202 452.57501221
206.68563843 193.94348145 441.35510254
204.32226562 197.75750732 450.63351440
158.89547729 199.87628174 483.62341309
153.29429626 204.09304810 491.83587646
166.92297363 206.27529907 483.97665405
162.39540100 210.19219971 491.67471313
185.54547119 194.43377686 459.49496460
182.66607666 197.79470825 468.40563965
194.65423584 198.74903870 458.69302368
191.44543457 201.80462646 467.63217163
203.72361755 233.15347290 432.86795044
204.87931824 233.29757690 445.32235718
216.28198242 234.80198669 437.92849731
216.89157104 234.50096130 450.87756348
177.35490417 231.72251892 472.95620728
175.67196655 231.92047119 484.35995483
187.22880554 233.85470581 478.80035400
185.64176941 233.33514404 489.62625122
171.85768127 196.64886475 471.45550537
167.26663208 200.28121948 479.72048950
180.54400635 201.89218140 472.79315186
176.36773682 205.14147949 480.69915771
186.54248047 175.25096130 436.34381104
184.89894104 179.57388306 444.67007446
195.52484131 179.99850464 435.98046875
193.76119995 183.86286926 444.24325562
145.95079041 209.41625977 495.92239380
139.80459595 213.77420044 504.13485718
154.43028259 215.46287537 495.37792969
149.75059509 219.28018188 503.12634277
212.92431641 174.86462402 403.25759888
215.62915039 178.09095764 410.02105713
220.69026184 180.49099731 396.52697754
224.02493286 183.58270264 405.57116699
197.28329468 167.04507446 419.12106323
197.98973083 170.52200317 426.83886719
205.61529541 171.42271423 415.57409668
206.71072388 174.25613403 424.01855469
186.44369507 232.86535645 451.80999756
187.34140015 233.21737671 464.13305664
196.95031738 234.77757263 457.46374512
197.77386475 234.70396423 469.94876099
197.79519653 162.07534790 407.36383057
200.60455322 165.55667114 413.41809082
203.92279053 168.53894043 401.74731445
207.84407043 170.71080017 409.22213745
126.72200775 195.58619690 500.89321899
123.36326599 200.57232666 510.30514526
134.79109192 202.81628418 499.94436646
133.10899353 207.42320251 508.66024780
123.36654663 164.88963318 493.04299927
117.96234894 171.02708435 502.20104980
130.42111206 168.34741211 485.42919922
125.72171783 174.08540344 494.65289307
150.19847107 231.45288086 477.11169434
151.58209229 230.82482910 488.48916626
159.07168579 232.59080505 483.39907837
160.81425476 231.13851929 493.21810913
150.45046997 167.14575195 476.22412109
144.95542908 172.50617981 484.76925659
154.52987671 168.86671448 465.68713379
149.25482178 173.65037537 474.96774292
205.65087891 214.82373047 392.03442383
208.77432251 224.46330261 397.13436890
217.74739075 217.38903809 394.83828735
219.51403809 227.38317871 400.01486206
116.16313934 181.59524536 501.22702026
112.51054382 187.26647949 510.85781860
120.43900299 187.16606140 491.76693726
118.65565491 192.29118347 501.55532837
160.97923279 150.46913147 456.38082886
157.45852661 156.10862732 465.66796875
163.89694214 154.02159119 446.10211182
160.40029907 158.53822327 456.02185059
141.00843811 150.47679138 478.22250366
135.61573792 156.30781555 487.41555786
149.00639343 152.45260620 472.10037231
144.02026367 157.97172546 481.31970215
159.96582031 187.60575867 460.60769653
157.01528931 189.73274231 470.50335693
168.06718445 192.05274963 462.62496948
165.78698730 193.55551147 471.40432739
167.01217651 185.30967712 449.07946777
166.07617188 188.45063782 458.82409668
175.38285828 189.41590881 450.07427979
174.38137817 191.90130615 459.32861328
145.45831299 185.76002502 475.25302124
139.82209778 188.73683167 484.45919800
152.72410583 192.30613708 477.30346680
148.83784485 194.63723755 485.00375366
136.18428040 189.38745117 488.64239502
131.19377136 192.22634888 497.96020508
144.05636597 197.09948730 490.69113159
140.75125122 199.55834961 498.50958252
193.23696899 227.32189941 403.69973755
195.92156982 231.41937256 413.59539795
204.67903137 229.85655212 407.25439453
206.88017273 234.06018066 417.42800903
194.27667236 160.75221252 393.30667114
197.23376465 167.22892761 394.31024170
200.85954285 169.76795959 392.08584595
205.87960815 174.64355469 395.09164429
180.04550171 230.24835205 427.27551270
182.25238037 231.55343628 438.63549805
190.02706909 232.22650146 431.79544067
192.13873291 233.25195312 443.24734497
160.88169861 168.99914551 449.49752808
158.79191589 172.94448853 459.93380737
163.48968506 173.10557556 436.91180420
161.97555542 175.00711060 447.65014648
157.37643433 232.37274170 458.20574951
159.60903931 232.37062073 469.51098633
165.88328552 233.70907593 464.06521606
168.36869812 233.19067383 474.81671143
202.49240112 177.79545593 386.27893066
204.85263062 189.19264221 385.98645020
211.56506348 181.91482544 391.61483765
213.67974854 193.34484863 392.08367920
169.90251160 142.91223145 436.67431641
167.99003601 148.55062866 444.70727539
170.36613464 151.61935425 425.99945068
168.77746582 155.67633057 435.25595093
168.49783325 230.71649170 443.15814209
170.72167969 231.38818359 454.70419312
177.70072937 231.95945740 448.80749512
180.03428650 232.34420776 460.37322998
133.98233032 179.34623718 485.01660156
129.35516357 183.90446472 493.71060181
136.08906555 183.09733582 473.04376221
132.61322021 187.10615540 482.04418945
166.18725586 165.04339600 428.49468994
165.44059753 169.54579163 438.06640625
171.28311157 173.11076355 420.64340210
171.57804871 175.05943298 430.51934814
176.70043945 136.86669922 420.51971436
174.31134033 142.88595581 427.05664062
177.31468201 146.30490112 409.56030273
175.70233154 150.92987061 417.88876343
175.21751404 115.79383850 417.41543579
173.96072388 122.62733459 424.15972900
178.19281006 124.75486755 406.81716919
177.12835693 130.17001343 415.48925781
154.25299072 135.95233154 456.32772827
150.34429932 141.17704773 465.62585449
160.64544678 140.39071655 448.07589722
156.56219482 144.71089172 457.85116577
129.06404114 226.04582214 479.31253052
132.88462830 225.75086975 490.22817993
137.77336121 228.63092041 484.35339355
141.98902893 227.45526123 493.55081177
129.57841492 135.99501038 472.73074341
126.17015076 141.45831299 483.52163696
137.60810852 138.20407104 464.77658081
133.95825195 142.41865540 475.32669067
151.03105164 179.47866821 468.24584961
146.63699341 182.30197144 478.75219727
153.01766968 184.12905884 457.47030640
150.34376526 184.97393799 467.49072266
162.08784485 121.43771362 441.48095703
159.34516907 127.25341034 449.85321045
167.95442200 129.15112305 432.98397827
164.86544800 133.98950195 442.48562622
182.78372192 138.28944397 398.27584839
181.25209045 144.36997986 402.61190796
182.32844543 150.80949402 387.64910889
183.76676941 154.39259338 394.21997070
118.33444977 215.61280823 489.52337646
122.84451294 217.53294373 499.20892334
126.55894470 221.39923096 490.55541992
131.72236633 222.22906494 499.10494995
179.64987183 117.89620209 392.28503418
180.33306885 126.26844025 395.53707886
178.69609070 130.65264893 383.45315552
181.16563416 137.42922974 388.75885010
161.96913147 198.25546265 433.12295532
161.93191528 200.85687256 441.14935303
169.42137146 201.03710938 435.98538208
169.20550537 203.23905945 443.66595459
170.56106567 160.59133911 415.20416260
169.76242065 165.37171936 422.30032349
176.01533508 171.70315552 408.50201416
177.77952576 173.15954590 416.78231812
105.45501709 198.32550049 499.78021240
109.75495911 203.46047974 507.89852905
110.43896484 207.13549805 493.27282715
115.51264954 211.02285767 501.13070679
140.97123718 120.98681641 456.97561646
136.81246948 126.61537170 466.28250122
149.14208984 126.41946411 449.88165283
144.82136536 130.97111511 459.63723755
162.02919006 186.12501526 429.58090210
162.25463867 189.68951416 438.65576172
169.81823730 190.11329651 429.95599365
170.10032654 192.78038025 438.96517944
175.74610901 223.54727173 406.91510010
178.32125854 227.53421021 416.38394165
186.00511169 226.15853882 409.70147705
188.41062927 230.18049622 419.26223755
187.55589294 197.95367432 383.16314697
189.88479614 208.32211304 387.02749634
197.22390747 199.92579651 387.97088623
198.44828796 210.37304688 391.74877930
152.18565369 178.43130493 435.20889282
152.53312683 181.71453857 446.07421875
159.60903931 183.15315247 433.09121704
160.28701782 184.52854919 443.40057373
133.18778992 227.13639832 461.37734985
136.59359741 228.68553162 471.43496704
141.67164612 229.98022461 465.66525269
145.24708557 231.09815979 475.12533569
174.25442505 155.97784424 400.79406738
173.64074707 162.50053406 404.90576172
178.80389404 168.75399780 396.03887939
182.35087585 170.94281006 402.40396118
163.82142639 225.23704529 420.10494995
166.58480835 227.51670837 430.70321655
173.35044861 227.08741760 424.22869873
176.39947510 229.28115845 434.95828247
176.46076965 212.28939819 388.22915649
179.15739441 219.79048157 395.38003540
186.77995300 214.43663025 391.70718384
188.85003662 222.08436584 398.63699341
143.23008728 228.59442139 449.50738525
146.21345520 230.03274536 459.75543213
151.97880554 230.47079468 454.51101685
155.19856262 231.63961792 464.45703125
185.75888062 172.16799927 377.36181641
185.74356079 184.61801147 377.72198486
192.16856384 176.15165710 384.93377686
192.96090698 187.93626404 386.01898193
150.41708374 225.58889771 432.81103516
153.12794495 228.02888489 443.28894043
159.37373352 227.75692749 437.23464966
162.64712524 230.11264038 447.88546753
180.05535889 157.80058289 385.50653076
178.37542725 166.08308411 386.13446045
184.43135071 170.55265808 385.11938477
186.28527832 175.76095581 387.93255615
145.92781067 163.39138794 436.44668579
146.92729187 167.78652954 445.93301392
150.83514404 170.92639160 430.42303467
152.47184753 172.56855774 440.01882935
94.08560181 176.93635559 491.36636353
97.78142548 183.20074463 498.85650635
96.99126434 185.97290039 483.92437744
101.10405731 191.39241028 491.08621216
111.20327759 211.71670532 472.21420288
115.73413086 214.95616150 481.08987427
119.23843384 218.34555054 473.46017456
124.11950684 221.11331177 482.19793701
159.07168579 218.38604736 397.76257324
161.95982361 221.84437561 407.90118408
168.69920349 219.92504883 401.61651611
171.61909485 223.43154907 411.84271240
175.76472473 122.56823730 372.92822266
174.58139038 134.67678833 369.11856079
179.37188721 133.95010376 377.81256104
179.81184387 144.63812256 376.04727173
101.71801758 193.77056885 479.18640137
105.62615967 199.39036560 486.32415771
107.01660156 202.45854187 475.37924194
111.33077240 207.49720764 482.60452271
169.81440735 192.74728394 371.47702026
171.21525574 202.72393799 377.21939087
179.07914734 193.80776978 378.70339966
180.38504028 204.12806702 384.44470215
136.30110168 168.85467529 432.91830444
138.06146240 172.33599854 442.83804321
143.14883423 175.69720459 431.05343628
145.70591736 176.95933533 440.61856079
116.21676636 216.64045715 453.52386475
120.03516388 219.80548096 463.00802612
124.36355591 221.57733154 456.08041382
128.53216553 224.53881836 465.78125000
144.68237305 221.69827271 408.83032227
147.71389771 224.00692749 419.52490234
153.97064209 222.89706421 413.25939941
157.29325867 225.13677979 424.16848755
174.81066895 141.41944885 367.72482300
173.60052490 154.32035828 363.95898438
180.61869812 151.38296509 374.40292358
180.87890625 162.55252075 372.51998901
124.87136078 220.09387207 436.78375244
128.04187012 222.75382996 446.93988037
133.56427002 223.41540527 440.52554321
137.17362976 225.84170532 451.06253052
88.52272034 167.21142578 476.18688965
91.45135498 173.91468811 483.00506592
89.65871429 175.67230225 468.15832520
92.91349030 181.85353088 474.79043579
171.72032166 167.37448120 366.55682373
171.31539917 179.82449341 367.47912598
178.31701660 172.70645142 374.98077393
179.08570862 184.23059082 377.17178345
154.44342041 208.78369141 375.61499023
157.08422852 215.03057861 384.80145264
164.96508789 208.80447388 381.70208740
167.49098206 215.59857178 390.82510376
131.74316406 221.06488037 420.73751831
134.70463562 223.35466003 431.40362549
140.83662415 223.05807495 425.48507690
144.19645691 225.11447144 436.55175781
102.07589722 202.10121155 455.29898071
105.96761322 206.62878418 463.47860718
108.51977539 209.36044312 454.85848999
112.83831787 213.67242432 463.52621460
93.81848145 185.47822571 463.78927612
97.42565918 191.23481750 470.69284058
98.52377319 193.93623352 460.26760864
102.52384949 199.41703796 467.39880371
84.90021515 147.32708740 464.17355347
86.21460724 155.72338867 470.66012573
83.87366486 154.85224915 454.29321289
85.50652313 163.07563782 460.43942261
139.53974915 216.52719116 384.47204590
142.86236572 220.15898132 394.69821167
150.21681213 217.28677368 389.54025269
153.65763855 221.08328247 399.93716431
157.38409424 118.02096558 355.49096680
156.33401489 131.12762451 350.91632080
166.42611694 126.01454163 360.67626953
165.81106567 137.83526611 357.95263672
109.12060547 212.13258362 430.23480225
112.87553406 215.19145203 440.00570679
117.46548462 217.32829285 432.59051514
121.66255188 220.02819824 443.01806641
151.24336243 187.34527588 359.26885986
152.96104431 198.14710999 365.61425781
161.78143311 188.83039856 366.67144775
163.43400574 199.78326416 373.00811768
85.21868896 166.32603455 455.68423462
87.92735291 173.43095398 462.30541992
86.74539185 174.60525513 449.20748901
89.82068634 181.48252869 455.81991577
125.29817963 219.31848145 397.37432861
128.86376953 222.07858276 407.67709351
135.27700806 221.76544189 401.31857300
138.93124390 224.22019958 412.08319092
113.90318298 215.72497559 411.85964966
117.54537964 218.45280457 421.98077393
122.88282013 219.73216248 414.83044434
126.84786987 222.04356384 425.56878662
154.78425598 140.25938416 352.52511597
153.88417053 153.25659180 349.77267456
163.13084412 146.84773254 358.31454468
162.95957947 158.71989441 357.10946655
97.43559265 198.93618774 435.22314453
101.29667664 203.47032166 443.73327637
103.71859741 206.38748169 434.83462524
108.10937500 210.51559448 444.10864258
154.29431152 164.90550232 351.34478760
154.43890381 177.42993164 352.95523071
163.02700806 169.48451233 358.61880493
163.78694153 180.98347473 361.19723511
89.52793121 183.01799011 443.58715820
92.92607117 189.18389893 450.53448486
93.45549774 191.37811279 440.34716797
97.39099121 197.32295227 447.94454956
135.93748474 205.56721497 368.67205811
139.36463928 212.67649841 376.70062256
147.29473877 206.59896851 373.36706543
150.60095215 214.28610229 381.81152344
83.36367035 151.24945068 442.19342041
84.59049988 160.16670227 447.87451172
83.30347443 158.96284485 433.88027954
84.92156219 167.90637207 439.57778931
84.28054047 134.96681213 432.11062622
84.07670593 145.24551392 436.60153198
82.96163940 141.97322083 422.07049561
83.16916656 152.18188477 426.32995605
98.67337036 203.32038879 409.25332642
102.41297150 208.24194336 417.94076538
105.55940247 210.13418579 408.84402466
109.89216614 214.64096069 418.36538696
118.84553528 209.52897644 376.96328735
122.71427917 215.41471863 385.14074707
129.50181580 212.86720276 379.13131714
133.49969482 218.80328369 388.02450562
134.77905273 120.43304443 345.07873535
133.98013306 133.81549072 341.52957153
146.44163513 126.15023804 346.42816162
145.88568115 138.80599976 344.19445801
85.42553711 169.80407715 430.30456543
87.92845154 177.80203247 436.75723267
87.45457458 178.09861755 425.04400635
90.45544434 186.03965759 431.95413208
90.65900421 188.67608643 419.06854248
94.04620361 195.08714294 426.55648804
94.69313812 196.56965637 416.00747681
98.66803741 202.67208862 424.29653931
129.18881226 188.85557556 353.83074951
132.19296265 198.82345581 358.84863281
141.00843811 191.51225281 357.04064941
144.20411682 201.59176636 362.57290649
105.16870117 207.38502502 390.96954346
108.86342621 212.92384338 399.29803467
113.69524384 212.77520752 391.30499268
117.93498993 218.07652283 400.50680542
129.06076050 168.71405029 345.55810547
130.80361938 180.94955444 347.49740601
140.42950439 172.42410278 348.01724243
142.71681213 184.31158447 350.82055664
129.93464661 143.50320435 341.28564453
129.69442749 156.71493530 340.32681274
140.94309998 148.35473633 342.81762695
141.76303101 160.90104675 342.87377930
83.09430695 153.18983459 417.66769409
84.04671478 163.08329773 422.52688599
83.35395050 160.70623779 409.81967163
84.79857635 170.47494507 414.90539551
84.36190796 132.80863953 407.57614136
83.38801575 144.46629333 409.98602295
83.30566406 139.34664917 397.30181885
82.92008972 150.79855347 399.52380371
85.25316620 175.90431213 406.43139648
87.57823944 184.72744751 411.92968750
87.40368652 183.48748779 400.67697144
90.32794189 192.04139709 406.98516846
109.23771667 191.35301208 363.11026001
113.01780701 200.87219238 368.08105469
119.88194275 196.21218872 361.80242920
124.14467621 205.70292664 367.62469482
91.36817932 191.16696167 393.86425781
94.44456482 199.25683594 399.99078369
96.46443939 198.22070312 390.25161743
100.31019592 206.06544495 397.33685303
97.19372559 189.86462402 374.98568726
100.64878082 199.17803955 380.03530884
104.68058777 196.13777161 371.45184326
108.94659424 205.17541504 377.42077637
107.72441864 122.76632690 350.28546143
106.78732300 135.92990112 346.63558960
117.39920807 127.66709900 344.08941650
117.55933380 140.92041016 340.98126221
83.90061188 153.56796265 395.01614380
84.59241486 164.71342468 398.23178101
84.36231232 160.63784790 386.63131714
85.76644135 171.27989197 390.29922485
88.29289246 179.82011414 385.39080811
90.77172852 189.68513489 389.62725830
92.29296112 186.71052551 379.74310303
95.67906189 196.16622925 384.88900757
103.04991913 168.82348633 353.20910645
105.77062225 180.72628784 355.03076172
112.91931152 174.18827820 348.98361206
117.05836487 185.59860229 351.63537598
104.91561127 144.54071045 346.73718262
105.06664276 157.70428467 346.18627930
114.37596893 149.52465820 341.81796265
116.19706726 162.37741089 341.99142456
85.04686737 132.72108459 380.37347412
83.85998535 145.47314453 379.55923462
85.90379333 138.87603760 369.90545654
85.71151733 150.98460388 368.98944092
90.21139526 166.69595337 367.77517700
92.36300659 178.49807739 369.90600586
95.71189880 173.37403870 360.66970825
99.07720947 184.55891418 363.78768921
83.72769165 153.15591431 384.10705566
84.27613068 165.22944641 385.98669434
84.81430817 160.24331665 375.46722412
86.21843719 171.60766602 377.77780151
84.25451660 154.47357178 379.58715820
84.93962097 166.70033264 381.12179565
86.10461426 161.56973267 370.91998291
87.80204773 172.97785950 373.01605225
85.08353424 162.61161804 376.42102051
86.61351776 174.49252319 378.94583130
88.03187561 169.48451233 368.63702393
90.58732605 180.60371399 371.78070068
266.64761353 231.87109375 393.55847168
266.65420532 231.86543274 393.57354736
266.65042114 231.87663269 393.56170654
266.65243530 231.87045288 393.58126831
161.78257751 228.93168640 485.89288330
161.78764343 228.92605591 485.89517212
161.79042053 228.93676758 485.89794922
161.78814697 228.93688965 485.88949585
174.66583252 219.00755310 395.74972534
174.66862488 219.00457764 395.75750732
174.68685913 219.00932312 395.74331665
174.68443298 219.00270081 395.74346924
234.16453552 236.76171875 464.64996338
234.17477417 236.75244141 464.65130615
234.18206787 236.76547241 464.65270996
234.18490601 236.76142883 464.64801025
200.24644470 170.87318420 430.96578979
200.25338745 170.86970520 430.97415161
200.24885559 170.87860107 430.97149658
200.25051880 170.87414551 430.96847534
226.37200928 201.86587524 387.61248779
226.38107300 201.85632324 387.61935425
226.39152527 201.87266541 387.61538696
226.39956665 201.86244202 387.61816406
186.98898315 233.57809448 442.41909790
186.98980713 233.57235718 442.42190552
186.99826050 233.57791138 442.42095947
186.99371338 233.57235718 442.41699219
172.34066772 191.66625977 459.88931274
172.33863831 191.66392517 459.89480591
172.34637451 191.66444397 459.89181519
172.34124756 191.66421509 459.88580322
222.75128174 237.60882568 415.68017578
222.75509644 237.60191345 415.68576050
222.76080322 237.61215210 415.67864990
222.76092529 237.60458374 415.67999268
203.58601379 226.16183472 490.50982666
203.59181213 226.15821838 490.50988770
203.59826660 226.16172791 490.51428223
203.60116577 226.16496277 490.50820923
211.79003906 202.79475403 452.90127563
211.79153442 202.79096985 452.90161133
211.79182434 202.79431152 452.90444946
211.79441833 202.79403687 452.89724731
149.64201355 228.77993774 448.70266724
149.63658142 228.77947998 448.70596313
149.65466309 228.77735901 448.69824219
149.64375305 228.77792358 448.69274902
232.94766235 204.43164062 423.40682983
232.95379639 204.42010498 423.41699219
232.94781494 204.43788147 423.41744995
232.94738770 204.42784119 423.41860962
173.51866150 197.25968933 425.98709106
173.51902771 197.25843811 425.98410034
173.51969910 197.27033997 425.98959351
173.52064514 197.26954651 425.97634888
243.37124634 238.09413147 436.07913208
243.37704468 238.08576965 436.07913208
243.38421631 238.08862305 436.08020020
243.38439941 238.08358765 436.07672119
214.92323303 179.39013672 407.51611328
214.92976379 179.38334656 407.52297974
214.93223572 179.39593506 407.51385498
214.93476868 179.38911438 407.51165771
206.42518616 228.10449219 394.04455566
206.43624878 228.09600830 394.04827881
206.44416809 228.11026001 394.03387451
206.45339966 228.10041809 394.03500366
164.14724731 226.34591675 421.43423462
164.14775085 226.34313965 421.43972778
164.15473938 226.34170532 421.43099976
164.14970398 226.33810425 421.42828369
181.69154358 209.29573059 481.62707520
181.69619751 209.29623413 481.62615967
181.69987488 209.29226685 481.62643433
181.70089722 209.29672241 481.61648560
204.06983948 236.50160217 465.38781738
204.07263184 236.49232483 465.39105225
204.08442688 236.50306702 465.39315796
204.08180237 236.49812317 465.38763428
245.52333069 218.15830994 404.25231934
245.51605225 218.15487671 404.26571655
245.51962280 218.16360474 404.26391602
245.51235962 218.16114807 404.27493286
177.35437012 232.15861511 466.03262329
177.35176086 232.15310669 466.03628540
177.36810303 232.15930176 466.03515625
177.35997009 232.15631104 466.02938843
214.10556030 237.83763123 439.44821167
214.10562134 237.83056641 439.45144653
214.11512756 237.83863831 439.44589233
214.11103821 237.83320618 439.44271851
198.02449036 233.11474609 418.12805176
198.02691650 233.10873413 418.13180542
198.03706360 233.11883545 418.12261963
198.03713989 233.11047363 418.12026978
229.14648438 216.71784973 444.87554932
229.14791870 216.70971680 444.87728882
229.15719604 216.72010803 444.87835693
229.15451050 216.71536255 444.87316895
202.59924316 206.04730225 387.22982788
202.60777283 206.04278564 387.23974609
202.62521362 206.04740906 387.22177124
202.63272095 206.03912354 387.22518921
217.45755005 217.60412598 470.02020264
217.46038818 217.59814453 470.01882935
217.46899414 217.59979248 470.02545166
217.46861267 217.60028076 470.01583862
193.74902344 190.86076355 448.09796143
193.75025940 190.85877991 448.09826660
193.75119019 190.86010742 448.11029053
193.75170898 190.86218262 448.10116577
182.86059570 232.84437561 491.66137695
182.86239624 232.83708191 491.66329956
182.87548828 232.84793091 491.66876221
182.87292480 232.84742737 491.66122437
247.74290466 237.36135864 415.23507690
247.74832153 237.35444641 415.23901367
247.75411987 237.36558533 415.23440552
247.75508118 237.35995483 415.23696899
217.58802795 188.50335693 426.27600098
217.59197998 188.49856567 426.27664185
217.59313965 188.50811768 426.28646851
217.59536743 188.50506592 426.27966309
234.22924805 188.59727478 401.66500854
234.23960876 188.58900452 401.67059326
234.24259949 188.59858704 401.66937256
234.24957275 188.58956909 401.66891479
162.06875610 197.40637207 442.81912231
162.06771851 197.40628052 442.82196045
162.07147217 197.41032410 442.82342529
162.06652832 197.40980530 442.81530762
226.54164124 227.31179810 394.73373413
226.53872681 227.30735779 394.74002075
226.54418945 227.31671143 394.74154663
226.54119873 227.31329346 394.74740601
219.51774597 235.99458313 483.76043701
219.52668762 235.98704529 483.76119995
219.53131104 235.99908447 483.76702881
219.53556824 235.99684143 483.76193237
198.06874084 203.18957520 466.93786621
198.07002258 203.18876648 466.93634033
198.07434082 203.18795776 466.94085693
198.07476807 203.19192505 466.93069458
164.52671814 203.05885315 476.03262329
164.52688599 203.06045532 476.03222656
164.53077698 203.06056213 476.02914429
164.52912903 203.06573486 476.01901245
189.94956970 226.09654236 403.45068359
189.95283508 226.09223938 403.45465088
189.96942139 226.09716797 403.44818115
189.97036743 226.08976746 403.44610596
247.85038757 203.80859375 393.73681641
247.85852051 203.79823303 393.74105835
247.86846924 203.81396484 393.74291992
247.87181091 203.80334473 393.74450684
169.56304932 230.19334412 440.36630249
169.56262207 230.18902588 440.36874390
169.57565308 230.18875122 440.36846924
169.57002258 230.18305969 440.36312866
181.55651855 183.36164856 437.47967529
181.55749512 183.35931396 437.48468018
181.56256104 183.36973572 437.48986816
181.55996704 183.36857605 437.48348999
237.36032104 223.95303345 427.21783447
237.36396790 223.94281006 427.22738647
237.35656738 223.95906067 427.22143555
237.35498047 223.95121765 427.22280884
155.79295349 232.08853149 470.26110840
155.79031372 232.08605957 470.26492310
155.80528259 232.08776855 470.26751709
155.79830933 232.08746338 470.26153564
219.84538269 238.05673218 455.34518433
219.84739685 238.04489136 455.35147095
219.85025024 238.06314087 455.35430908
219.84671021 238.05505371 455.35238647
182.29016113 230.94296265 422.38705444
182.29246521 230.93811035 422.39056396
182.30665588 230.93977356 422.38754272
182.30422974 230.93225098 422.38378906
241.41508484 233.47319031 400.23397827
241.41107178 233.46931458 400.24392700
241.41372681 233.48074341 400.23635864
241.40991211 233.47677612 400.24871826
219.25277710 200.64460754 438.98825073
219.25679016 200.63871765 438.98590088
219.26629639 200.64950562 438.99801636
219.26832581 200.64590454 438.98886108
200.70585632 235.73907471 449.92852783
200.70280457 235.73329163 449.93090820
200.72076416 235.74012756 449.92553711
200.71412659 235.73542786 449.92083740
238.59011841 232.53234863 450.12777710
238.59625244 232.51942444 450.13461304
238.59835815 232.53652954 450.12701416
238.59820557 232.52862549 450.12747192
228.79791260 222.23376465 460.27124023
228.80096436 222.22729492 460.27154541
228.80801392 222.23551941 460.28015137
228.80755615 222.23312378 460.27282715
198.18836975 211.64427185 480.02142334
198.19119263 211.64324951 480.01806641
198.19900513 211.64596558 480.02468872
198.19897461 211.64996338 480.01409912
165.39112854 232.75392151 455.13558960
165.39207458 232.74877930 455.13916016
165.40979004 232.75131226 455.14248657
165.40379333 232.74822998 455.13665771
190.06985474 214.73051453 389.65472412
190.07287598 214.72445679 389.66183472
190.09284973 214.73069763 389.65039062
190.09452820 214.72186279 389.65173340
204.77209473 188.83621216 437.52502441
204.77665710 188.83062744 437.52804565
204.77545166 188.84220886 437.53878784
204.77783203 188.83932495 437.53201294
154.58914185 226.40226746 432.95672607
154.58786011 226.40097046 432.95996094
154.60128784 226.39880371 432.95663452
154.59361267 226.39573669 432.94949341
227.90695190 238.22991943 429.37878418
227.90873718 238.22230530 429.38226318
227.90963745 238.23468018 429.38055420
227.90664673 238.22715759 429.37872314
172.03671265 218.77359009 488.36605835
172.03382874 218.77445984 488.36441040
172.04806519 218.77398682 488.36962891
172.04216003 218.77830505 488.35867310
175.05552673 226.60539246 410.42773438
175.05902100 226.60293579 410.43313599
175.07168579 226.60456848 410.42199707
175.07064819 226.59918213 410.42025757
237.84742737 204.52471924 409.75189209
237.85482788 204.51557922 409.75631714
237.85281372 204.52815247 409.76214600
237.85406494 204.52005005 409.76150513
198.60316467 235.44213867 434.45556641
198.60331726 235.43601990 434.45675659
198.61543274 235.44161987 434.45251465
198.61071777 235.43547058 434.44793701
175.35845947 202.28102112 442.20104980
175.35699463 202.27976990 442.20193481
175.36283875 202.28219604 442.21343994
175.35789490 202.28108215 442.20504761
212.70913696 233.99633789 405.23477173
212.71395874 233.98931885 405.23803711
212.72463989 234.00579834 405.23297119
212.72698975 233.99827576 405.23321533
216.19241333 210.91744995 391.23037720
216.19882202 210.90866089 391.23822021
216.20629883 210.92385864 391.22723389
216.21218872 210.91494751 391.22976685
191.06727600 219.88134766 489.52481079
191.07211304 219.87901306 489.52334595
191.07818604 219.87734985 489.52612305
191.07812500 219.88043213 489.51611328
220.32040405 237.44512939 469.93524170
220.32632446 237.43606567 469.93783569
220.33285522 237.44433594 469.93615723
220.33467102 237.44044495 469.93200684
189.07485962 234.15148926 473.21060181
189.07553101 234.14305115 473.21267700
189.09454346 234.14895630 473.21301270
189.08915710 234.14532471 473.20642090
189.34857178 233.94836426 459.30780029
189.34919739 233.93934631 459.31176758
189.35723877 233.95150757 459.31347656
189.35289001 233.94602966 459.30728149
238.53485107 213.16665649 390.03558350
238.53237915 213.16098022 390.04513550
238.53283691 213.17851257 390.04458618
238.52885437 213.17501831 390.05349731
185.02926636 196.02731323 462.69406128
185.03123474 196.02609253 462.69342041
185.03491211 196.02481079 462.69982910
185.03422546 196.02713013 462.68933105
225.20918274 187.08071899 415.01815796
225.21539307 187.06977844 415.02584839
225.21749878 187.08702087 415.02624512
225.21853638 187.07640076 415.02502441
253.47406006 225.24177551 395.69659424
253.47099304 225.23805237 395.71038818
253.47457886 225.24859619 395.70178223
253.46865845 225.24618530 395.71704102
211.09187317 236.46752930 422.62609863
211.09529114 236.45999146 422.63082886
211.09780884 236.47233582 422.62387085
211.09497070 236.46453857 422.62347412
207.63845825 172.25947571 419.84173584
207.64532471 172.25361633 419.84976196
207.65187073 172.26052856 419.84967041
207.65362549 172.25328064 419.84609985
212.12829590 222.21165466 481.35437012
212.13430786 222.20317078 481.35522461
212.13922119 222.21607971 481.36206055
212.13980103 222.21466064 481.35437012
172.42852783 230.88494873 478.83102417
172.43395996 230.87783813 478.83206177
172.44427490 230.88882446 478.83047485
172.44316101 230.88644409 478.82357788
177.32269287 184.94352722 425.23233032
177.32917786 184.94293213 425.23727417
177.31896973 184.95222473 425.24035645
177.32427979 184.95054626 425.23355103
238.87539673 215.86059570 415.44573975
238.87979126 215.85224915 415.45220947
238.87930298 215.86383057 415.44857788
238.87774658 215.85807800 415.44915771
257.48992920 235.25050354 407.52569580
257.49682617 235.24334717 407.53112793
257.50460815 235.25161743 407.52288818
257.50653076 235.24456787 407.52850342
196.94671631 235.24372864 482.75994873
196.95413208 235.23385620 482.76162720
196.96524048 235.24964905 482.77227783
196.96580505 235.24632263 482.76406860
210.28948975 209.72801208 463.76651001
210.29327393 209.72276306 463.76715088
210.29762268 209.72604370 463.77740479
210.29791260 209.72505188 463.76943970
170.21878052 187.27262878 448.69454956
170.21478271 187.27268982 448.70220947
170.21971130 187.27777100 448.69668579
170.21237183 187.27888489 448.69207764
188.63549805 202.11508179 474.68572998
188.63635254 202.11445618 474.68539429
188.64387512 202.10919189 474.68600464
188.64193726 202.11279297 474.67648315
191.11883545 177.51596069 441.56414795
191.12162781 177.51327515 441.56893921
191.12463379 177.51515198 441.56613159
191.12577820 177.51411438 441.55972290
233.07180786 237.95892334 407.03955078
233.07534790 237.95373535 407.04168701
233.08850098 237.96646118 407.03274536
233.08996582 237.96008301 407.03265381
242.08349609 227.00148010 416.00189209
242.08850098 226.99328613 416.00601196
242.09448242 227.00207520 416.00268555
242.09390259 226.99597168 416.00213623
221.04051208 212.71940613 452.04791260
221.04504395 212.71302795 452.04736328
221.05953979 212.72052002 452.05816650
221.06033325 212.71847534 452.04901123
182.45251465 191.31146240 450.29248047
182.45324707 191.31057739 450.29235840
182.45529175 191.31263733 450.30142212
182.45733643 191.31294250 450.29067993
196.32464600 230.72018433 498.18566895
196.33589172 230.71008301 498.18804932
196.33694458 230.72482300 498.19485474
196.34237671 230.72344971 498.18798828
228.92074585 229.89735413 472.05700684
228.92575073 229.88690186 472.05972290
228.92749023 229.89822388 472.06161499
228.92720032 229.89335632 472.05712891
150.81654358 231.39178467 460.10562134
150.81497192 231.39193726 460.10684204
150.83059692 231.39108276 460.10186768
150.82463074 231.39149475 460.09237671
172.58335876 228.64675903 493.93890381
172.58889771 228.64010620 493.93835449
172.59368896 228.64993286 493.94219971
172.59350586 228.64935303 493.93310547
232.12811279 238.08770752 443.01660156
232.12960815 238.07968140 443.01818848
232.13748169 238.08946228 443.01589966
232.13444519 238.08389282 443.01254272
207.10006714 217.23307800 391.08905029
207.10629272 217.22404480 391.09677124
207.11659241 217.23585510 391.08666992
207.12202454 217.22601318 391.08871460
237.69946289 224.33221436 395.32122803
237.69253540 224.32783508 395.33114624
237.69485474 224.34306335 395.33032227
237.68850708 224.33964539 395.33969116
233.61209106 194.99031067 413.26126099
233.62062073 194.97973633 413.26531982
233.61505127 194.99720764 413.27053833
233.61660767 194.98788452 413.26852417
225.01895142 182.90263367 403.18365479
225.02447510 182.89587402 403.19290161
225.02578735 182.90542603 403.18649292
225.02719116 182.89746094 403.18707275
207.65841675 236.27630615 480.76162720
207.66061401 236.26783752 480.76406860
207.67481995 236.27960205 480.77279663
207.67146301 236.27668762 480.76629639
234.57800293 223.08151245 437.70013428
234.57678223 223.07261658 437.70257568
234.58679199 223.08204651 437.69824219
234.58312988 223.07664490 437.69473267
200.24411011 196.46870422 454.59851074
200.24736023 196.46661377 454.59741211
200.24827576 196.46418762 454.60409546
200.25025940 196.46438599 454.59414673
179.21717834 233.10910034 449.75906372
179.21842957 233.10256958 449.76138306
179.23143005 233.10772705 449.76083374
179.22727966 233.10270691 449.75418091
226.30081177 196.48670959 425.99435425
226.30401611 196.47836304 425.99862671
226.31072998 196.49398804 426.00210571
226.30953979 196.48870850 425.99795532
246.37768555 236.75259399 425.96490479
246.38626099 236.74411011 425.96661377
246.38229370 236.75100708 425.97238159
246.38475037 236.74304199 425.97085571
202.55194092 232.13519287 407.42077637
202.55766296 232.12861633 407.42456055
202.56863403 232.13592529 407.41687012
202.57136536 232.12728882 407.41583252
189.26881409 232.97198486 430.37207031
189.27253723 232.96569824 430.37826538
189.27302551 232.97433472 430.37545776
189.27149963 232.96737671 430.37319946
172.00234985 193.74888611 437.31170654
172.00335693 193.74719238 437.31726074
172.00363159 193.75434875 437.32009888
172.00054932 193.75448608 437.31475830
178.73091125 232.63153076 436.19479370
178.73095703 232.62889099 436.19577026
178.74145508 232.63009644 436.19540405
178.73646545 232.62591553 436.18905640
226.96560669 205.11766052 433.74411011
226.97113037 205.10812378 433.74981689
226.98011780 205.12107849 433.75354004
226.97985840 205.11560059 433.75119019
168.27078247 194.55004883 471.86419678
168.26712036 194.55293274 471.86810303
168.27725220 194.55258179 471.86090088
168.27099609 194.55772400 471.85256958
207.19882202 179.54261780 426.86373901
207.20603943 179.53620911 426.86999512
207.19880676 179.55036926 426.87072754
207.20230103 179.54507446 426.86633301
166.96624756 224.37118530 404.85916138
166.97102356 224.36886597 404.86618042
166.98374939 224.36895752 404.85369873
166.98309326 224.36267090 404.85278320
236.16790771 238.34675598 423.68115234
236.17056274 238.34222412 423.68234253
236.17277527 238.35189819 423.68112183
236.17120361 238.34809875 423.67901611
185.07379150 228.36584473 413.17819214
185.07696533 228.36184692 413.18435669
185.09115601 228.36540222 413.17800903
185.08929443 228.35736084 413.17623901
241.38357544 192.11611938 395.81015015
241.39540100 192.10597229 395.81460571
241.39868164 192.12252808 395.81008911
241.40621948 192.11181641 395.81069946
198.27966309 221.49885559 390.43731689
198.29113770 221.49234009 390.44186401
198.30529785 221.50300598 390.43112183
198.31582642 221.49308777 390.43182373
251.32885742 212.97067261 393.59719849
251.32562256 212.96589661 393.61032104
251.32910156 212.97807312 393.60983276
251.32434082 212.97589111 393.62304688
177.75364685 197.63305664 468.95666504
177.75578308 197.63461304 468.95434570
177.75781250 197.63143921 468.95492554
177.75737000 197.63478088 468.94317627
205.40206909 235.95172119 490.20877075
205.41374207 235.94250488 490.21023560
205.41369629 235.95974731 490.21313477
205.42013550 235.95751953 490.20666504
242.66165161 206.60543823 401.67636108
242.66230774 206.59628296 401.68164062
242.66857910 206.61259460 401.68408203
242.66644287 206.60482788 401.68438721
221.41653442 228.18399048 478.46081543
221.42320251 228.17549133 478.46237183
221.43008423 228.18798828 478.46524048
221.43087769 228.18566895 478.45864868
199.70710754 178.83912659 437.55560303
199.71289062 178.83512878 437.55975342
199.70788574 178.84199524 437.56402588
199.71185303 178.83854675 437.55758667
232.78335571 215.71044922 428.79269409
232.79003906 215.69854736 428.80047607
232.78509521 215.72288513 428.79751587
232.78338623 215.71533203 428.79687500
182.18670654 232.17271423 479.52862549
182.19157410 232.16357422 479.53323364
182.20372009 232.17375183 479.53765869
182.20207214 232.16961670 479.53186035
221.82052612 208.64544678 443.06787109
221.82281494 208.64030457 443.06698608
221.83105469 208.64273071 443.07443237
221.83189392 208.63961792 443.06808472
171.25485229 229.25509644 431.25122070
171.25596619 229.25047302 431.25625610
171.27156067 229.25274658 431.24942017
171.26896667 229.24633789 431.24520874
210.74748230 236.97248840 472.09954834
210.75128174 236.96365356 472.10107422
210.76039124 236.97615051 472.10714722
210.75720215 236.97125244 472.10147095
156.83950806 228.33901978 443.04910278
156.83270264 228.33793640 443.05178833
156.85112000 228.33728027 443.04290771
156.84059143 228.33593750 443.03677368
233.76742554 224.58129883 452.97598267
233.77346802 224.56896973 452.98233032
233.77467346 224.58708191 452.98092651
233.77423096 224.57963562 452.97927856
179.56788635 222.03866577 492.32800293
179.57170105 222.03662109 492.32415771
179.58218384 222.04119873 492.33154297
179.58319092 222.04443359 492.32040405
225.31526184 210.15919495 390.77294922
225.30920410 210.15374756 390.78286743
225.31600952 210.16368103 390.78591919
225.30943298 210.15975952 390.79357910
207.18898010 236.76629639 430.66363525
207.18789673 236.76162720 430.66549683
207.19831848 236.76892090 430.65756226
207.19480896 236.76425171 430.65390015
181.67483521 223.28286743 401.73260498
181.67703247 223.27871704 401.73980713
181.69586182 223.27838135 401.72930908
181.69427490 223.27012634 401.73010254
226.54617310 236.09619141 401.31909180
226.55352783 236.08972168 401.31832886
226.56446838 236.09809875 401.30892944
226.56869507 236.09062195 401.30737305
173.15979004 204.98452759 476.67755127
173.15844727 204.98692322 476.67352295
173.16571045 204.98394775 476.67141724
173.16163635 204.99041748 476.65890503
211.16856384 237.86434937 453.58407593
211.17375183 237.85179138 453.59072876
211.17761230 237.86639404 453.59066772
211.17605591 237.85829163 453.58831787
205.98506165 213.73439026 476.39080811
205.98852539 213.73193359 476.38729858
205.99662781 213.73068237 476.39486694
205.99627686 213.73318481 476.38290405
208.64184570 197.58367920 446.51193237
208.64288330 197.58123779 446.51162720
208.64953613 197.58305359 446.52127075
208.64945984 197.58337402 446.51211548
248.46945190 235.55534363 404.93530273
248.46679688 235.55084229 404.94644165
248.46621704 235.56121826 404.93731689
248.46226501 235.55773926 404.95080566
198.62875366 235.32901001 471.92742920
198.63450623 235.31781006 471.93188477
198.64498901 235.33042908 471.93228149
198.64500427 235.32475281 471.92745972
167.56546021 233.07305908 463.43643188
167.56668091 233.06658936 463.43811035
167.58201599 233.07286072 463.43557739
167.57855225 233.06991577 463.42800903
184.61654663 227.22482300 497.88345337
184.62457275 227.21679688 497.88238525
184.62709045 227.22732544 497.88873291
184.62968445 227.22810364 497.87905884
243.45803833 207.08471680 386.59680176
243.45719910 207.07939148 386.60577393
243.45951843 207.10043335 386.60592651
243.45780945 207.09533691 386.61422729
201.64669800 219.61637878 485.38659668
201.65261841 219.61347961 485.38601685
201.65901184 219.61502075 485.39645386
201.66069031 219.61779785 485.38693237
213.84753418 224.55683899 392.05960083
213.85963440 224.54794312 392.06399536
213.86860657 224.56246948 392.05322266
213.87805176 224.55168152 392.05603027
218.00726318 183.23703003 416.95724487
218.01486206 183.22851562 416.96139526
218.01382446 183.23985291 416.96740723
218.01596069 183.23255920 416.96295166
211.54028320 204.70445251 388.18389893
211.54623413 204.69721985 388.19079590
211.56010437 204.70706177 388.17437744
211.56521606 204.69796753 388.17593384
235.69635010 237.87707520 456.54348755
235.70507812 237.86642456 456.54788208
235.70587158 237.88198853 456.54757690
235.70939636 237.87599182 456.54577637
240.03359985 239.78034973 444.87063599
240.04364014 239.76951599 444.87399292
240.04162598 239.78021240 444.87106323
240.04669189 239.77209473 444.86932373
167.64759827 193.39428711 430.32168579
167.64668274 193.39328003 430.32385254
167.64927673 193.40254211 430.32589722
167.64768982 193.40168762 430.31686401
219.70010376 237.29479980 433.40823364
219.70277405 237.28456116 433.41519165
219.70520020 237.30114746 433.40908813
219.70288086 237.29327393 433.40948486
220.73382568 237.46247864 447.22991943
220.73910522 237.45356750 447.23599243
220.74465942 237.47035217 447.22998047
220.74447632 237.46299744 447.22854614
227.61413574 219.22052002 394.84619141
227.60818481 219.21496582 394.85607910
227.61563110 219.22605896 394.85739136
227.60943604 219.22175598 394.86480713
192.41943359 234.64102173 451.78369141
192.41680908 234.63397217 451.78720093
192.43037415 234.63870239 451.78295898
192.42285156 234.63217163 451.77786255
190.69189453 221.03041077 394.73846436
190.69465637 221.02426147 394.74414062
190.70419312 221.03541565 394.73867798
190.70544434 221.02792358 394.73956299
180.53401184 195.41180420 429.60479736
180.53546143 195.41046143 429.60586548
180.53932190 195.41821289 429.61065674
180.53834534 195.41610718 429.60150146
175.51545715 188.28768921 442.16921997
175.51594543 188.28633118 442.17694092
175.51937866 188.29727173 442.18173218
175.51449585 188.29789734 442.17553711
215.63337708 228.92340088 484.25207520
215.64093018 228.91394043 484.25396729
215.64309692 228.92857361 484.25714111
215.64581299 228.92642212 484.25170898
238.46279907 238.52085876 416.06665039
238.46337891 238.51776123 416.06869507
238.47344971 238.52886963 416.06564331
238.47021484 238.52456665 416.06655884
211.21305847 237.10006714 461.48916626
211.21337891 237.09239197 461.49182129
211.23175049 237.09936523 461.48910522
211.22602844 237.09539795 461.48422241
173.73539734 187.66976929 432.60693359
173.73995972 187.66705322 432.61337280
173.74136353 187.67639160 432.61740112
173.74314880 187.67431641 432.61050415
200.06092834 229.62355042 398.43188477
200.06927490 229.61709595 398.43341064
200.07679749 229.63009644 398.42492676
200.08380127 229.62150574 398.42367554
236.34674072 208.73782349 417.62994385
236.35255432 208.72619629 417.63723755
236.35000610 208.74295044 417.63583374
236.35098267 208.73361206 417.63537598
236.69464111 195.18681335 405.19720459
236.69937134 195.17791748 405.20275879
236.70083618 195.19190979 405.20416260
236.70144653 195.18342590 405.20266724
239.56671143 231.46922302 437.69946289
239.57174683 231.45915222 437.70196533
239.57470703 231.47091675 437.70037842
239.57293701 231.46449280 437.69812012
228.54512024 193.40745544 419.22253418
228.55029297 193.39567566 419.23233032
228.54650879 193.41874695 419.23095703
228.54537964 193.40859985 419.23117065
169.46273804 204.34736633 437.62478638
169.46405029 204.34576416 437.62506104
169.47033691 204.34616089 437.63476562
169.46826172 204.34400940 437.62631226
193.66487122 207.97213745 388.48193359
193.66979980 207.96672058 388.49200439
193.68843079 207.97175598 388.47830200
193.69273376 207.96203613 388.48077393
240.92926025 229.90499878 423.05087280
240.93467712 229.89698792 423.05599976
240.93011475 229.90582275 423.05291748
240.92929077 229.89797974 423.05416870
162.68971252 227.93356323 437.72140503
162.68629456 227.93200684 437.72491455
162.69729614 227.93194580 437.71981812
162.69091797 227.92977905 437.71395874
228.06408691 237.88739014 455.61065674
228.07174683 237.87625122 455.61785889
228.07502747 237.89471436 455.60870361
228.07705688 237.88798523 455.60897827
218.84866333 200.59014893 387.14974976
218.86251831 200.58346558 387.15704346
218.87677002 200.59689331 387.14691162
218.88793945 200.58689880 387.14987183
228.99902344 237.73788452 421.12368774
229.00045776 237.73336792 421.12765503
229.00653076 237.74630737 421.12145996
229.00445557 237.74203491 421.12075806
235.24899292 230.09236145 457.95376587
235.25521851 230.07997131 457.95941162
235.25802612 230.09967041 457.95510864
235.25729370 230.09237671 457.95355225
193.04843140 194.25787354 454.95922852
193.04678345 194.25762939 454.95718384
193.05178833 194.25579834 454.96081543
193.05056763 194.25866699 454.94918823
206.02462769 236.62448120 444.70565796
206.02577209 236.61706543 444.70944214
206.02941895 236.62655640 444.70828247
206.02531433 236.62060547 444.70431519
168.69190979 214.64071655 483.07479858
168.69046021 214.64164734 483.07192993
168.69808960 214.64880371 483.07656860
168.69329834 214.65385437 483.06402588
171.26115417 228.23733521 422.86447144
171.26306152 228.23381042 422.86953735
171.27757263 228.23567200 422.86523438
171.27453613 228.22927856 422.86199951
189.43185425 233.43135071 480.97497559
189.43327332 233.42269897 480.97750854
189.44831848 233.43612671 480.98513794
189.44430542 233.43260193 480.97875977
231.99626160 228.41476440 465.43167114
231.99977112 228.40475464 465.43740845
232.00894165 228.41891479 465.43157959
232.00735474 228.41348267 465.42846680
203.16152954 201.75756836 461.73541260
203.16540527 201.75553894 461.73602295
203.16851807 201.75608826 461.74194336
203.17018127 201.75784302 461.73422241
157.76763916 226.20527649 426.26257324
157.76367188 226.20429993 426.26580811
157.78019714 226.20083618 426.25830078
157.77304077 226.19781494 426.25143433
162.95080566 231.87509155 472.15203857
162.95506287 231.86766052 472.15499878
162.96133423 231.87475586 472.15383911
162.95916748 231.87109375 472.14733887
220.78631592 237.48898315 422.80447388
220.79092407 237.48085022 422.81219482
220.79043579 237.49687195 422.80102539
220.79037476 237.48928833 422.80337524
220.34199524 230.94213867 396.49938965
220.34939575 230.93382263 396.50204468
220.35765076 230.94920349 396.49166870
220.36222839 230.93913269 396.49218750
170.93731689 232.66325378 450.31823730
170.93386841 232.65965271 450.31933594
170.95658875 232.66000366 450.31826782
170.94894409 232.65594482 450.31250000
178.42762756 194.65876770 457.09805298
178.42401123 194.65798950 457.10165405
178.43376160 194.65846252 457.10092163
178.42759705 194.65838623 457.09451294
170.76152039 196.26301575 444.07507324
170.76100159 196.26173401 444.07864380
170.76199341 196.26344299 444.08416748
170.75640869 196.26414490 444.07644653
211.00315857 185.60569763 428.36856079
211.00645447 185.59991455 428.36889648
211.00784302 185.61590576 428.38226318
211.01014709 185.61216736 428.37338257
188.46577454 184.12448120 439.87677002
188.46714783 184.12092590 439.88327026
188.46499634 184.12109375 439.88433838
188.46630859 184.11972046 439.87954712
205.32369995 183.12982178 432.92929077
205.32975769 183.12471008 432.93054199
205.32769775 183.13281250 432.94403076
205.33105469 183.12994385 432.93545532
190.06082153 233.33174133 490.64892578
190.06555176 233.32595825 490.64874268
190.07495117 233.33958435 490.65768433
190.07373047 233.34011841 490.64773560
178.64247131 228.23118591 416.57662964
178.64479065 228.22543335 416.58108521
178.65699768 228.22854614 416.57461548
178.65766907 228.22122192 416.57110596
180.00502014 216.00946045 391.84161377
180.00561523 216.00474548 391.84921265
180.02389526 216.00968933 391.83822632
180.02430725 216.00201416 391.83828735
247.85629272 228.77609253 398.65740967
247.85177612 228.77151489 398.67208862
247.85661316 228.78112793 398.66589355
247.84988403 228.77722168 398.67980957
242.50289917 221.95996094 410.78369141
242.50392151 221.95440674 410.78781128
242.51257324 221.96246338 410.78240967
242.50982666 221.95756531 410.78286743
240.77847290 212.69155884 409.20053101
240.78244019 212.68344116 409.20498657
240.78845215 212.69651794 409.20468140
240.78755188 212.68908691 409.20443726
252.92839050 229.86532593 404.34881592
252.92352295 229.86245728 404.36187744
252.92422485 229.87124634 404.35647583
252.91944885 229.86859131 404.37057495
211.37554932 235.38009644 415.50054932
211.38014221 235.37393188 415.50341797
211.38351440 235.38047791 415.50094604
211.38307190 235.37278748 415.49975586
231.94079590 231.28213501 397.39578247
231.93586731 231.27764893 397.40390015
231.93994141 231.28710938 397.39907837
231.93455505 231.28329468 397.40808105
197.80059814 234.61058044 489.84185791
197.80494690 234.60156250 489.84597778
197.81492615 234.61796570 489.84814453
197.81245422 234.61532593 489.84301758
175.69808960 232.64321899 443.07641602
175.69570923 232.63990784 443.08026123
175.70973206 232.63702393 443.08050537
175.70164490 232.63290405 443.07650757
195.77952576 225.18899536 493.74920654
195.78614807 225.17961121 493.75189209
195.78837585 225.19335938 493.75195312
195.78848267 225.19207764 493.74484253
217.71041870 194.03927612 430.74774170
217.71450806 194.03366089 430.74600220
217.71502686 194.04292297 430.75729370
217.71781921 194.03942871 430.74838257
197.65441895 206.21012878 473.35559082
197.65469360 206.20855713 473.35446167
197.66491699 206.21081543 473.36044312
197.66476440 206.21249390 473.34936523
216.84066772 218.11721802 392.10400391
216.84896851 218.10861206 392.10983276
216.85636902 218.12185669 392.09738159
216.86364746 218.11131287 392.09982300
206.92892456 210.47912598 470.16845703
206.93376160 210.47586060 470.16796875
206.93748474 210.47753906 470.17636108
206.94001770 210.48005676 470.16729736
164.63658142 227.31866455 429.67886353
164.63232422 227.31582642 429.67895508
164.64888000 227.31625366 429.67520142
164.64329529 227.31222534 429.66790771
212.38629150 235.90544128 489.20916748
212.39726257 235.89720154 489.21130371
212.39816284 235.91146851 489.21871948
212.40231323 235.90896606 489.21218872
215.26467896 211.84072876 459.26141357
215.27041626 211.83386230 459.26260376
215.27459717 211.84172058 459.26953125
215.27630615 211.83976746 459.26235962
163.00111389 229.92703247 445.98452759
163.00199890 229.92222595 445.99011230
163.00939941 229.92413330 445.98764038
163.00486755 229.92041016 445.98278809
228.56716919 185.71081543 408.52175903
228.57214355 185.70201111 408.52871704
228.58071899 185.71101379 408.53100586
228.57977295 185.70217896 408.52993774
187.44747925 189.14877319 445.58316040
187.44679260 189.14822388 445.58123779
187.44827271 189.14920044 445.58627319
187.45008850 189.15000916 445.57269287
156.85079956 232.27499390 456.68377686
156.85112000 232.27209473 456.68606567
156.86549377 232.27314758 456.68209839
156.86007690 232.27128601 456.67590332
193.57858276 234.67324829 440.38497925
193.58079529 234.66534424 440.38916016
193.58676147 234.67276001 440.38458252
193.58267212 234.66613770 440.38308716
258.04623413 228.79222107 399.57678223
258.04232788 228.78898621 399.59213257
258.04541016 228.79342651 399.57940674
258.03936768 228.79089355 399.59600830
201.07568359 190.69340515 443.12075806
201.07635498 190.69062805 443.12091064
201.07875061 190.69750977 443.13333130
201.08039856 190.69805908 443.12298584
213.79092407 237.51266479 446.97360229
213.79351807 237.50445557 446.98010254
213.80032349 237.52328491 446.97177124
213.79728699 237.51818848 446.97067261
219.28808594 236.21624756 405.01486206
219.29357910 236.20965576 405.01660156
219.30401611 236.22093201 405.01062012
219.30673218 236.21343994 405.01000977
250.10433960 217.27445984 398.90725708
250.09765625 217.27075195 398.92047119
250.10275269 217.28213501 398.91882324
250.09631348 217.27926636 398.93182373
176.10667419 202.16339111 435.30459595
176.10675049 202.16235352 435.30590820
176.11302185 202.16816711 435.31140137
176.11079407 202.16717529 435.30364990
242.72946167 200.59242249 398.28637695
242.73565674 200.58180237 398.29013062
242.74481201 200.59616089 398.29547119
242.74526978 200.58645630 398.29467773
174.12100220 210.27867126 480.96493530
174.12680054 210.27763367 480.96261597
174.13221741 210.28036499 480.96109009
174.13415527 210.28311157 480.94973755
177.60444641 192.51065063 423.13873291
177.61285400 192.51071167 423.13751221
177.60804749 192.51823425 423.14282227
177.61351013 192.51753235 423.13085938
202.85246277 235.23400879 425.54962158
202.85371399 235.22900391 425.55242920
202.86540222 235.23114014 425.54916382
202.86206055 235.22444153 425.54528809
183.72523499 232.99101257 463.10116577
183.72642517 232.98307800 463.10574341
183.73622131 232.99209595 463.10723877
183.73080444 232.98628235 463.10308838
204.34114075 234.22595215 415.82723999
204.34297180 234.21836853 415.83303833
204.34829712 234.22982788 415.82766724
204.34693909 234.22003174 415.82742310
224.29145813 221.00213623 465.19555664
224.29669189 220.99313354 465.19772339
224.29995728 221.00619507 465.20108032
224.30068970 221.00231934 465.19570923
196.07926941 230.20272827 407.10638428
196.08213806 230.19610596 407.11053467
196.09004211 230.20413208 407.10513306
196.09222412 230.19683838 407.10446167
226.31852722 237.70336914 435.92422485
226.32254028 237.69120789 435.93157959
226.32070923 237.70918274 435.92556763
226.31991577 237.69934082 435.92590332
213.87713623 196.89851379 437.36550903
213.88337708 196.89413452 437.36468506
213.89169312 196.89810181 437.37576294
213.89678955 196.89593506 437.36721802
234.76470947 202.19583130 417.14785767
234.76977539 202.18400574 417.15368652
234.76721191 202.20108032 417.15667725
234.76593018 202.19114685 417.15499878
166.63804626 209.49536133 479.25466919
166.63784790 209.49797058 479.25338745
166.64157104 209.49281311 479.25238037
166.63769531 209.49851990 479.24151611
162.71998596 230.35421753 479.37969971
162.72003174 230.34967041 479.38128662
162.73483276 230.35610962 479.38360596
162.73068237 230.35565186 479.37442017
210.02484131 227.57618713 487.70059204
210.03240967 227.56726074 487.70315552
210.03723145 227.58297729 487.70242310
210.03901672 227.58071899 487.69570923
202.08377075 195.00091553 448.17459106
202.08528137 194.99812317 448.17443848
202.08764648 195.00549316 448.18432617
202.08686829 195.00529480 448.17562866
241.48300171 232.50000000 431.35546875
241.48980713 232.49142456 431.35931396
241.49017334 232.50547791 431.35226440
241.49145508 232.49958801 431.35073853
236.65580750 227.44680786 442.30862427
236.66007996 227.43676758 442.31271362
236.66427612 227.44990540 442.31173706
236.66293335 227.44253540 442.31011963
243.41516113 217.42369080 391.60809326
243.41006470 217.41960144 391.62045288
243.41328430 217.43475342 391.61703491
243.40753174 217.43157959 391.62820435
191.55818176 231.71682739 418.92501831
191.56005859 231.71224976 418.92565918
191.57305908 231.71710205 418.92193604
191.57131958 231.71014404 418.91705322
188.30055237 209.51574707 482.43127441
188.30270386 209.51644897 482.42913818
188.30737305 209.51264954 482.43249512
188.30519104 209.51745605 482.42214966
169.05973816 199.55059814 432.37341309
169.05935669 199.54908752 432.37503052
169.06336975 199.55699158 432.38217163
169.06144714 199.55661011 432.37316895
185.55114746 199.18035889 469.59503174
185.55453491 199.17956543 469.59490967
185.55738831 199.17568970 469.60037231
185.55763245 199.17837524 469.59030151
173.35217285 231.51794434 485.35806274
173.35461426 231.51242065 485.35839844
173.36920166 231.52252197 485.36306763
173.36509705 231.52265930 485.35449219
197.36769104 197.59754944 460.44592285
197.36610413 197.59690857 460.44586182
197.36859131 197.59150696 460.44717407
197.36654663 197.59259033 460.43905640
218.15853882 207.90963745 448.52633667
218.16337585 207.90310669 448.52578735
218.16831970 207.91043091 448.53237915
218.16969299 207.90765381 448.52593994
221.01892090 237.54884338 440.62759399
221.02416992 237.53918457 440.63043213
221.02862549 237.55101013 440.62408447
221.02941895 237.54377747 440.62234497
167.93859863 230.00923157 489.47006226
167.94189453 230.00213623 489.47250366
167.94860840 230.01164246 489.47357178
167.94628906 230.01123047 489.46661377
156.93255615 229.51574707 476.35171509
156.92929077 229.50959778 476.36138916
156.94665527 229.52064514 476.35775757
156.93901062 229.51957703 476.35668945
245.03918457 228.22058105 410.24957275
245.04122925 228.21568298 410.25231934
245.04849243 228.22314453 410.24816895
245.04739380 228.21859741 410.24871826
185.58334351 216.67059326 487.85662842
185.58883667 216.66862488 487.85430908
185.59741211 216.66934204 487.85968018
185.59901428 216.67205811 487.84884644
210.34313965 178.22164917 419.54345703
210.35218811 178.21340942 419.54949951
210.35913086 178.22834778 419.55355835
210.36372375 178.22065735 419.54983521
239.60028076 221.74603271 418.98657227
239.60481262 221.73608398 418.99398804
239.60655212 221.74783325 418.98690796
239.60491943 221.73986816 418.98767090
224.37414551 235.81903076 479.39474487
224.38265991 235.80795288 479.39843750
224.38378906 235.82409668 479.39953613
224.38665771 235.81988525 479.39642334
222.87705994 189.17880249 420.74105835
222.88546753 189.17100525 420.74389648
222.88000488 189.18545532 420.75173950
222.88398743 189.17826843 420.74658203
257.47320557 223.06831360 391.03573608
257.47180176 223.06269836 391.04962158
257.47576904 223.07647705 391.03439331
257.47341919 223.07127380 391.05010986
248.82962036 221.22219849 393.51724243
248.82575989 221.21679688 393.53030396
248.83164978 221.22978210 393.52554321
248.82763672 221.22460938 393.53970337
230.60980225 206.72428894 389.15386963
230.60270691 206.72067261 389.16360474
230.60758972 206.73085022 389.16137695
230.60125732 206.72865295 389.16787720
