ply
format ascii 1.0
element vertex 2048
property float x
property float y
property float z
end_header
328.15499878 270.23101807 451.32800293
144.30099487 173.90299988 587.78399658
147.85299683 229.66499329 408.33398438
204.94699097 297.11898804 530.01898193
187.43299866 124.02200317 474.16897583
119.31400299 238.60299683 508.69900513
247.58399963 211.11900330 482.63299561
209.02999878 278.14099121 446.84698486
122.97700500 172.20599365 462.00601196
185.03401184 203.36698914 528.81903076
202.25100708 184.49099731 428.85000610
140.83700562 145.22799683 524.10400391
270.27801514 300.70498657 472.85000610
139.36900330 279.15002441 457.22000122
290.95300293 221.15998840 439.92401123
176.26098633 252.26899719 496.09698486
129.90200806 226.71000671 565.86303711
236.45300293 261.31799316 502.31600952
208.46499634 173.89999390 487.67501831
116.47100067 226.06900024 456.63601685
149.79701233 285.23699951 527.79296875
151.65499878 176.84100342 417.19299316
229.88200378 231.70500183 438.96899414
114.12699890 187.79200745 511.28900146
178.64500427 300.09799194 479.10400391
226.54199219 306.30902100 489.54299927
270.81900024 254.38099670 467.26400757
202.57600403 219.04000854 476.04000854
143.24200439 134.26400757 477.60098267
189.89799500 244.87100220 421.81701660
178.62699890 148.28799438 436.85202026
162.07000732 170.76599121 549.65594482
171.57299805 167.07499695 507.22897339
123.68299866 185.36399841 553.61004639
155.47799683 232.30500793 527.15698242
212.48799133 148.15299988 457.22399902
157.80999756 265.43200684 426.33200073
123.80900574 198.13198853 432.07800293
135.55899048 271.41699219 496.24099731
204.58399963 258.41998291 521.12298584
177.45300293 207.47399902 411.26901245
245.72299194 278.93701172 455.62100220
223.59899902 195.17199707 457.67999268
167.70300293 129.41600037 503.87298584
143.35499573 152.03799438 442.30801392
127.45200348 250.45698547 434.90298462
129.33898926 251.03199768 539.43902588
115.65000153 212.83200073 534.68902588
151.85899353 203.15299988 546.15301514
124.48400116 159.31199646 495.86700439
296.22799683 277.03402710 460.76599121
174.78099060 283.92999268 448.86999512
204.21800232 252.24798584 476.78500366
116.91900635 203.42900085 482.12500000
260.79199219 223.49099731 452.17199707
180.17100525 276.04898071 535.34399414
225.29501343 231.21600342 497.65701294
236.17300415 303.07998657 520.32202148
121.29799652 254.64698792 472.82400513
178.05700684 298.42401123 512.65002441
208.58799744 203.26100159 502.75601196
206.39898682 215.68701172 425.33697510
182.99501038 222.61700439 502.75302124
301.10800171 248.37500000 452.46099854
248.24899292 283.90698242 484.88699341
163.52799988 130.26599121 455.11499023
186.29600525 152.28199768 483.30300903
205.98300171 300.74499512 467.92401123
134.54699707 200.94000244 578.88598633
251.53898621 239.45100403 487.53802490
122.80999756 166.71099854 531.03295898
155.00000000 292.65402222 493.74398804
238.84700012 304.46499634 464.07501221
247.52200317 252.76499939 446.67800903
223.66900635 278.69702148 520.08996582
178.30400085 173.75900269 420.17098999
138.50100708 164.00300598 560.78796387
148.94599915 202.83900452 411.16799927
125.54900360 225.40499878 425.73498535
148.95599365 249.47000122 507.71600342
199.12899780 302.12597656 496.08200073
166.17199707 269.98400879 513.78900146
210.93598938 252.51701355 435.67999268
116.40000153 230.89900208 484.00399780
190.75199890 184.70300293 506.39999390
215.17500305 173.23699951 447.94900513
271.24398804 277.59399414 456.78399658
189.59700012 266.18399048 435.31600952
129.70500183 174.30999756 437.13302612
177.66499329 218.05400085 477.92102051
201.62500000 244.05700684 501.00100708
119.06900024 196.57499695 458.29901123
251.31500244 307.93801880 491.10699463
114.39400482 214.38198853 506.72698975
166.90299988 246.87199402 412.92700195
152.25000000 188.68899536 566.92199707
128.38299561 264.29098511 518.65203857
239.48599243 210.81799316 446.87597656
278.08898926 240.48699951 448.84399414
225.72801208 216.37500000 469.11199951
174.05900574 180.69699097 527.02899170
157.79800415 162.86799622 526.58300781
158.71598816 291.86801147 468.46801758
193.33399963 134.63899231 452.30200195
142.52301025 137.91400146 501.11700439
220.11199951 195.17601013 481.10699463
118.38199615 179.05099487 485.44799805
129.32899475 152.79699707 472.54898071
317.02700806 282.93298340 468.36199951
140.22999573 231.41500854 544.08996582
229.04600525 266.79098511 446.07998657
164.94000244 122.59300232 482.54299927
198.61599731 163.51098633 436.12200928
217.15399170 214.60699463 448.41998291
236.41900635 286.75900269 503.40097046
143.00100708 249.12400818 419.20797729
254.40800476 261.06799316 483.75799561
162.44400024 160.13101196 426.85299683
121.83699799 207.12100220 554.73498535
187.82598877 237.00498962 481.08300781
116.00600433 191.30200195 532.77899170
126.24299622 262.64797974 452.93899536
222.85699463 291.82897949 455.85000610
265.50201416 233.83200073 470.28900146
218.82598877 166.82499695 470.39199829
170.53300476 226.97601318 406.18801880
171.20599365 218.47799683 523.68896484
171.10600281 194.87098694 543.77197266
161.91299438 148.72700500 511.49200439
218.26100159 195.99501038 437.31799316
146.71600342 155.93199158 543.07000732
166.92001343 234.55999756 509.19299316
183.90400696 258.86801147 517.47796631
155.88099670 165.19799805 572.62896729
203.13499451 139.03700256 473.57498169
119.19499969 233.45401001 534.62896729
241.31600952 198.10800171 467.85501099
154.07598877 277.76300049 442.44900513
122.19099426 255.63201904 497.48297119
221.50300598 249.14700317 509.50997925
190.20100403 265.00897217 484.75201416
200.68099976 276.24197388 534.74401855
224.45599365 293.77401733 535.26000977
141.20100403 281.92999268 479.62399292
245.02999878 224.21800232 499.33300781
215.36499023 303.09997559 513.70800781
193.10499573 290.11300659 454.61199951
133.25000000 182.01400757 570.93103027
189.80599976 226.39599609 414.73001099
140.00399780 141.40899658 459.60598755
165.21899414 191.86000061 411.12701416
193.49400330 199.58999634 419.20401001
255.66398621 294.88500977 460.62100220
284.11099243 258.36199951 453.51898193
219.84800720 213.48699951 487.52798462
135.53500366 186.59700012 421.79199219
209.95500183 234.22599792 429.69500732
118.86000061 214.64799500 440.40600586
180.67599487 132.79600525 490.32199097
194.05799866 211.22500610 513.23901367
118.55000305 244.89801025 456.83499146
202.12100220 226.75299072 493.27902222
142.03700256 252.88400269 524.99505615
144.86000061 282.33001709 509.82998657
263.90298462 260.96298218 450.97900391
167.07099915 292.60699463 526.96697998
185.24800110 168.84001160 494.64199829
312.00598145 264.14498901 458.07000732
140.92098999 266.67199707 435.59500122
121.01799774 169.63900757 512.84301758
173.30000305 150.61700439 497.11199951
204.36898804 157.56900024 476.96398926
138.88200378 214.45100403 555.52899170
175.44200134 260.73101807 424.18399048
157.85800171 263.08700562 499.01800537
186.94799805 291.95999146 529.37902832
133.48199463 207.39799500 419.63500977
250.75299072 213.84201050 465.10501099
159.70001221 144.85800171 439.99697876
260.47198486 278.86001587 472.74099731
246.88400269 234.88900757 446.36398315
121.77000427 224.69999695 550.32495117
118.77999878 232.71200562 440.60000610
130.87500000 271.05297852 470.16900635
172.69299316 235.35501099 492.72299194
129.16900635 154.32398987 514.58197021
238.85299683 244.51699829 498.41897583
153.51599121 219.82798767 539.11102295
208.76699829 235.11900330 478.06399536
161.62001038 293.47598267 510.25201416
131.50300598 157.46200562 453.70199585
127.51699829 166.95800781 547.73999023
115.79699707 212.20800781 467.29998779
222.19100952 303.91799927 473.14199829
123.72100067 246.71200562 523.90301514
132.94400024 146.05900574 489.21099854
179.50599670 125.34700012 458.52200317
151.60099792 135.38000488 515.32104492
252.93898010 305.97601318 474.29202271
199.86199951 149.46000671 445.56399536
227.74600220 250.28100586 442.37500000
236.54100037 307.00000000 503.82101440
141.93800354 167.47300720 427.45300293
279.19302368 223.56700134 451.78100586
176.62200928 297.90301514 495.68200684
170.33399963 273.34899902 436.86599731
113.94499969 204.79800415 520.32800293
261.39398193 243.90499878 448.17700195
210.20899963 186.05500793 498.67697144
300.95602417 233.06599426 445.36901855
160.60200500 213.36799622 406.22100830
167.33099365 209.39999390 537.34301758
190.40599060 285.37197876 543.97100830
114.68399811 193.60299683 494.92800903
253.56599426 225.65400696 478.49499512
198.24699402 300.42800903 512.16796875
210.10699463 304.16000366 484.35000610
187.72499084 188.84700012 521.72497559
115.54600525 222.96400452 522.13000488
160.07600403 186.83000183 552.26397705
181.01599121 188.96701050 415.90100098
152.69799805 128.61500549 492.99600220
128.05700684 264.15301514 484.36999512
119.62399292 187.30599976 471.03399658
126.16999817 196.13600159 565.12896729
160.49299622 243.88000488 497.80398560
181.27200317 295.51898193 463.36801147
218.83499146 263.79400635 517.45202637
197.19499207 212.42498779 496.67800903
143.81698608 201.22499084 563.34301758
133.83399963 154.70700073 534.19604492
221.23399353 180.43499756 461.83700562
243.58000183 273.60400391 496.27499390
122.58700562 185.11599731 448.65499878
195.92599487 300.24798584 479.55200195
210.82000732 287.49401855 540.46795654
144.57400513 188.58100891 580.22399902
192.84400940 278.90399170 443.22000122
134.77499390 234.15200806 417.24301147
206.56298828 200.62300110 427.79498291
153.62899780 128.60099792 467.99298096
154.31800842 159.29699707 555.93902588
238.99600220 307.31298828 480.10501099
280.09600830 242.06799316 463.73599243
123.29900360 166.35600281 478.97799683
129.36801147 236.98100281 554.88000488
136.64799500 264.76898193 532.43499756
142.05599976 267.33999634 509.14300537
184.65100098 160.63800049 430.86499023
176.74600220 134.98400879 447.39801025
261.29598999 247.19700623 476.29800415
128.37300110 212.51100159 570.32000732
216.90200806 222.00599670 434.74398804
191.21600342 266.55599976 528.45800781
116.51599884 226.58898926 498.28900146
161.22500610 174.48001099 535.23895264
116.70300293 239.07899475 470.40100098
216.00300598 207.28599548 461.69702148
189.62300110 222.49699402 485.49398804
142.71099854 216.25599670 412.11502075
159.73199463 285.62899780 455.08798218
120.99900055 178.97000122 540.55200195
204.61300659 265.93899536 439.87899780
218.09199524 180.79598999 476.09500122
140.31300354 167.99600220 575.04998779
191.41000366 172.80699158 426.50601196
179.06700134 238.97700500 411.81500244
297.04098511 262.65399170 458.99700928
269.89700317 291.02502441 462.26199341
118.45600128 246.16999817 487.39199829
195.55300903 165.47801208 485.01599121
191.00601196 138.37699890 481.14801025
242.04600525 293.07800293 456.02200317
144.96000671 240.23100281 532.73394775
165.25900269 297.07400513 484.82098389
118.10600281 174.19599915 499.61798096
216.28099060 151.01200867 470.62600708
145.14399719 282.45800781 494.72799683
116.30900574 217.15499878 487.66299438
166.95199585 123.69000244 467.66400146
183.48200989 285.86798096 508.84997559
163.75700378 276.82199097 525.93103027
216.06799316 161.80700684 456.49798584
244.19599915 295.77700806 491.71200562
210.79798889 271.25799561 526.31500244
198.06100464 195.94200134 510.62500000
279.17797852 267.47399902 463.01098633
204.99501038 136.49900818 459.90100098
197.44999695 255.21499634 431.48101807
232.84100342 216.36399841 481.19699097
236.65299988 209.31300354 460.83798218
188.30700684 245.32400513 494.39901733
195.77301025 252.30398560 510.68197632
236.13000488 197.99700928 452.14398193
199.11499023 177.62699890 497.47698975
118.51699829 200.93699646 445.09301758
233.21501160 272.75000000 509.52398682
206.88999939 291.30700684 455.56301880
216.48500061 226.92399597 487.24600220
212.48500061 304.55499268 498.79901123
119.25299835 197.31800842 545.38897705
155.05099487 175.89799500 562.66497803
165.74700928 178.64399719 414.91000366
118.69700623 179.30899048 526.62097168
151.26000977 136.97799683 453.16500854
226.29701233 279.25500488 451.65100098
174.32600403 260.18801880 507.06295776
229.55200195 290.89999390 518.73101807
258.38000488 273.28302002 455.78500366
245.38600159 265.50900269 450.92800903
259.54602051 292.71600342 474.94302368
212.86900330 237.29600525 497.84201050
247.48599243 221.46099854 453.03298950
267.56298828 267.20700073 469.85900879
213.06799316 208.40199280 437.03500366
193.45100403 212.88999939 417.29800415
290.58599854 237.63699341 452.64398193
227.85800171 218.13499451 455.99801636
219.18099976 241.11700439 436.44100952
153.50399780 241.46400452 410.97000122
199.20800781 239.25100708 487.66400146
175.49101257 270.15798950 523.29998779
165.27999878 171.88000488 520.28698730
146.62599182 286.55599976 467.45199585
246.75500488 253.41099548 491.36700439
151.31999207 242.71899414 520.17303467
195.71900940 128.41099548 464.68899536
149.61099243 177.35899353 575.19696045
230.49700928 219.41099548 494.91400146
221.16400146 187.06600952 447.57299805
180.15100098 178.33200073 510.83303833
123.29599762 254.32101440 510.49899292
152.74398804 151.24299622 523.17602539
180.35798645 216.92300415 514.57299805
217.09300232 200.05198669 493.50601196
217.05400085 261.30999756 442.98999023
156.40798950 253.43400574 416.77902222
268.73498535 231.89300537 446.27899170
126.96500397 238.20201111 426.96099854
199.65599060 228.61898804 422.80300903
152.52900696 189.19500732 413.52398682
211.74200439 183.36700439 437.47299194
137.26901245 145.69599915 509.77200317
222.57200623 301.54299927 525.30700684
180.33100891 189.98800659 533.08703613
176.87300110 285.99398804 522.27001953
201.83999634 260.42700195 486.86999512
114.50599670 206.82499695 494.77999878
118.66600037 235.35299683 520.91302490
125.64801025 186.25199890 436.12399292
217.00898743 207.59600830 476.72201538
212.39799500 215.39700317 497.54501343
114.86299896 226.61900330 470.82400513
113.87000275 199.34199524 506.39999390
130.80200195 174.52600098 561.17999268
206.91700745 159.97799683 444.81799316
153.49699402 277.70901489 518.52899170
308.39300537 274.81698608 463.46899414
151.72499084 157.08799744 432.47000122
235.68600464 222.64500427 447.00000000
261.25299072 303.20599365 483.06997681
216.18899536 282.13198853 529.34399414
133.92199707 163.85400391 442.19299316
209.56599426 248.40100098 512.59997559
172.63600159 123.69400024 492.53298950
272.10900879 251.26998901 449.36199951
167.69799805 182.36898804 542.14398193
186.10600281 299.90899658 503.47399902
192.36700439 185.70999146 421.70599365
116.02700043 208.01100159 454.78399658
135.67700195 141.76499939 471.01101685
122.26500702 251.55601501 447.31301880
135.88400269 270.63400269 445.96099854
178.81999207 244.44699097 486.80099487
197.09700012 242.44599915 475.36700439
275.28698730 231.10200500 461.69400024
190.25599670 151.77899170 438.55599976
167.46499634 205.14500427 549.00598145
156.84400940 160.89500427 538.73400879
216.37500000 202.71200562 450.33499146
150.62899780 289.93698120 482.82501221
257.38702393 225.52900696 466.98999023
153.07000732 272.10598755 507.86297607
131.18901062 150.20899963 500.36901855
161.76199341 161.60600281 515.11505127
193.52899170 298.94799805 467.84100342
206.97000122 171.79901123 438.43600464
126.45800781 213.56399536 427.17599487
204.98199463 214.17799377 487.77499390
126.49099731 172.79499817 448.54000854
223.21600342 193.46099854 469.48501587
188.95800781 299.81600952 490.30899048
214.82299805 186.60800171 487.71499634
168.60800171 296.70501709 472.98498535
140.38099670 258.18301392 427.27301025
199.86698914 243.33099365 428.11901855
199.39500427 292.41299438 540.68798828
165.57400513 229.71600342 521.51501465
238.72999573 242.99600220 443.51101685
224.96199036 305.10101318 505.25302124
319.58197021 261.18402100 449.49401855
124.55000305 217.92599487 560.07598877
226.57099915 300.77200317 462.56597900
160.79100037 222.17500305 529.96099854
186.38400269 257.39700317 428.18798828
153.64801025 126.99699402 481.41799927
181.68699646 218.88099670 410.84799194
129.87600708 266.31701660 507.21697998
147.52499390 214.25999451 547.66101074
154.85699463 129.61900330 504.43499756
152.19000244 289.03601074 516.21502686
184.91999817 214.46701050 525.34002686
181.54400635 274.34201050 439.75601196
140.66200256 196.26399231 415.91299438
178.23899841 251.28001404 418.09600830
169.34298706 290.40899658 459.38598633
243.25099182 214.91900635 492.62899780
145.48599243 153.17698669 531.93402100
194.09201050 211.50698853 478.08001709
190.51599121 292.81802368 518.45501709
238.50199890 208.16600037 472.72302246
168.12800598 141.13398743 505.47497559
154.18901062 196.19900513 558.41998291
123.25000000 237.72099304 545.17199707
250.93000793 271.86099243 485.65997314
165.81700134 252.76899719 491.35501099
319.43099976 274.38500977 457.50497437
126.33200073 161.53700256 464.39999390
159.04000854 229.11299133 406.03302002
135.59899902 159.48199463 544.65802002
229.07600403 241.41700745 503.42602539
168.60600281 167.88000488 420.86398315
122.04599762 254.86698914 460.99499512
172.93000793 157.31900024 430.16497803
187.86700439 141.03999329 444.71899414
198.87199402 230.09500122 481.01101685
236.95300293 256.78399658 446.35000610
133.73300171 226.67500305 553.31396484
180.52198792 144.26499939 488.75900269
151.29699707 166.54400635 582.83898926
211.41700745 166.39900208 479.80697632
153.51499939 165.75500488 422.97198486
115.69100189 224.96501160 510.28698730
166.95199585 204.35899353 408.42501831
287.42300415 248.11399841 456.73498535
116.02899933 189.79299927 483.18600464
176.53700256 122.04500580 482.14001465
226.82798767 260.37698364 510.43200684
175.77500916 227.26400757 509.85903931
287.76101685 269.76998901 456.28399658
126.72400665 154.52999878 483.24200439
134.04199219 221.05799866 417.15197754
136.70599365 242.82499695 540.80303955
186.89100647 250.26499939 504.32800293
251.18399048 227.79100037 490.80999756
224.72799683 223.04800415 445.34799194
175.61698914 201.16000366 535.83996582
147.43299866 260.40802002 501.54501343
141.82099915 256.71600342 512.17199707
167.92399597 156.01699829 505.04498291
285.36499023 230.57099915 446.00799561
235.77000427 229.89100647 500.92297363
188.11199951 219.94499207 474.41799927
119.09899902 241.85800171 498.22399902
226.23200989 197.32299805 444.73498535
130.84500122 270.54501343 458.96899414
138.27900696 179.23599243 580.24902344
131.77799988 262.24801636 439.66799927
148.14700317 159.88400269 567.00097656
171.71199036 216.10600281 405.77301025
135.29899597 273.25799561 485.47900391
303.81597900 284.63000488 464.86300659
129.06298828 258.19500732 528.14398193
140.08801270 137.91899109 487.37600708
206.11999512 300.95800781 519.68902588
262.40301514 258.38400269 473.63702393
135.90901184 272.08999634 517.82501221
175.64801025 208.76400757 528.04602051
215.81600952 299.40399170 462.73199463
246.25100708 208.75999451 455.08599854
197.10699463 149.56698608 477.62600708
274.36798096 264.38400269 453.89199829
188.30200195 210.72299194 502.48400879
250.82200623 295.32998657 483.28500366
157.98200989 240.36000061 510.38803101
166.75401306 138.43899536 444.88598633
180.97999573 228.04499817 493.74499512
163.90299988 295.84698486 498.75198364
149.87100220 143.98199463 444.88998413
190.20100403 199.19499207 520.46197510
165.81700134 257.79199219 419.21600342
234.95599365 295.47302246 509.32400513
125.72799683 160.10899353 523.22003174
240.68600464 308.13500977 491.04800415
308.36801147 242.45999146 447.43200684
234.04299927 286.10299683 455.54299927
114.42200470 202.34399414 533.73199463
120.44599915 176.02400208 471.56701660
231.67500305 251.53198242 505.17898560
215.11900330 285.24398804 451.79998779
258.41201782 236.52101135 480.04202271
160.00399780 272.93399048 434.61099243
137.64999390 148.97500610 452.25997925
114.35900116 190.74499512 521.43103027
153.97900391 288.64602661 504.82797241
258.60598755 283.39801025 458.72100830
123.91100311 161.81098938 506.07299805
175.06698608 196.20401001 411.12100220
118.32199860 209.89300537 544.41796875
130.54400635 197.72799683 422.50601196
117.38699341 236.92098999 450.10098267
144.18099976 205.38600159 552.93402100
248.78900146 301.24398804 465.33300781
258.50601196 233.83699036 447.46099854
185.84600830 176.28799438 502.28799438
118.35900116 197.44599915 473.25799561
158.53199768 210.96899414 542.77197266
168.90600586 237.06300354 408.36398315
194.17601013 258.31402588 521.74298096
214.77299500 298.69601440 533.11798096
165.35900879 151.23899841 434.00799561
164.45800781 281.22299194 446.93698120
132.48500061 190.91799927 576.21002197
269.97000122 244.05000305 467.22900391
232.23899841 297.41201782 528.05798340
154.72300720 252.47201538 497.77600098
259.81399536 267.73101807 477.22598267
149.70800781 283.90100098 456.92700195
147.21200562 229.56399536 536.70397949
244.34100342 236.50599670 494.33200073
195.52700806 258.27801514 479.00399780
179.54798889 286.41098022 533.93298340
117.50300598 223.63500977 537.24597168
139.05400085 250.94100952 534.91998291
136.50498962 176.15499878 426.64999390
237.24398804 271.76602173 450.65298462
202.19000244 188.81001282 504.52999878
212.76499939 141.82400513 467.76397705
181.53900146 158.69200134 489.71600342
137.60598755 278.47399902 468.19000244
216.46000671 271.27798462 445.50500488
226.40299988 303.97601318 515.25000000
212.79699707 218.69799805 482.43200684
244.26400757 262.29797363 495.56402588
122.03900146 243.78700256 440.82598877
132.70799255 149.14999390 463.75500488
116.51100159 183.53800964 496.16000366
121.46600342 185.65499878 461.26602173
198.29499817 205.34800720 503.75997925
180.09599304 265.77697754 432.05999756
143.20300293 158.51100159 553.81103516
117.42700195 224.02900696 445.44198608
175.57800293 162.17500305 499.45199585
245.87300110 305.98599243 500.29803467
160.55000305 138.51499939 512.11999512
152.01799011 217.98699951 408.40399170
125.37799835 261.95202637 467.40298462
184.55200195 287.28100586 450.34399414
120.88999939 168.01300049 492.32901001
140.54200745 196.30400085 572.44097900
191.16899109 276.22100830 537.64495850
203.92100525 143.23001099 452.66500854
132.28500366 146.08900452 479.27297974
266.25799561 226.05101013 462.61798096
138.36100769 261.57199097 520.07501221
126.72799683 186.42799377 563.29998779
161.36099243 125.83499908 496.88299561
241.21299744 284.38800049 495.08200073
224.36100769 287.98800659 526.60699463
137.00999451 208.58000183 567.60504150
267.54699707 282.17102051 466.73300171
163.88200378 195.89399719 550.38897705
162.36000061 285.00000000 531.22998047
199.70999146 283.36001587 448.65499878
123.24299622 243.79499817 536.90496826
198.29499817 248.24301147 483.43798828
206.29400635 148.27600098 473.39099121
117.02399445 178.47799683 511.63601685
145.29499817 273.42001343 441.10000610
169.34500122 258.68402100 498.54098511
133.41000366 250.21899414 427.20098877
199.30900574 207.02999878 422.36199951
117.76799774 246.05400085 477.70700073
148.91799927 257.16702271 421.70300293
121.80500031 255.01498413 485.21798706
262.44299316 301.45300293 467.18600464
141.99299622 159.59300232 436.39697266
140.57299805 221.42698669 548.89599609
253.19400024 216.86700439 473.97598267
247.63099670 205.27699280 471.29602051
279.29800415 255.92300415 461.55102539
221.03199768 230.75099182 434.71499634
140.83898926 277.20901489 502.70800781
233.24499512 305.60299683 471.84399414
282.97702026 232.14399719 456.00100708
129.18299866 264.54299927 494.06701660
208.37699890 191.59600830 430.87100220
124.88300323 205.76300049 563.71997070
249.33700562 287.15399170 458.94598389
121.11900330 224.58100891 434.17401123
199.18000793 172.25999451 432.05401611
205.15100098 302.84899902 506.01202393
184.87699890 201.94999695 413.66400146
158.82299805 198.96200562 411.18099976
199.68299866 295.22299194 461.56399536
175.80599976 139.93600464 495.84002686
281.57498169 250.19898987 448.80499268
188.32699585 128.17799377 482.68801880
142.12001038 239.23599243 413.95898438
126.71099854 166.07899475 455.77600098
168.86599731 296.40499878 518.45404053
180.43299866 234.95100403 487.26599121
202.18899536 267.37298584 527.10003662
151.42098999 269.59402466 432.39501953
123.21099854 194.49501038 556.07202148
156.18099976 178.20199585 552.15002441
132.60899353 153.20600891 524.93499756
143.07699585 180.00898743 419.59597778
117.12300110 236.66499329 461.24200439
159.28399658 167.45999146 562.91302490
269.91598511 222.26800537 450.12899780
196.75299072 271.54498291 438.83801270
254.29400635 284.68600464 477.71701050
255.46101379 257.22399902 449.22097778
168.40800476 266.15100098 427.24798584
124.14400482 176.81098938 549.77099609
145.26100159 281.95300293 520.27294922
219.49200439 305.41299438 483.43499756
215.35299683 242.95700073 506.09899902
240.12799072 298.60498047 500.13601685
134.17098999 216.66101074 563.29296875
116.55799866 213.89700317 476.44601440
216.48199463 255.28698730 514.53204346
238.81199646 230.70800781 443.62802124
114.23600006 216.19799805 515.81701660
231.40600586 284.68600464 510.90301514
176.46099854 164.82899475 424.69497681
240.21699524 305.68298340 512.20800781
206.91000366 232.43199158 487.76901245
158.09899902 293.71600342 478.93801880
122.80500031 207.54499817 433.11798096
175.76699829 122.03200531 469.76199341
225.67999268 271.53500366 514.67901611
278.41299438 287.60299683 462.26599121
195.50299072 237.37399292 422.70202637
240.21499634 254.08200073 498.18701172
122.31100464 246.15701294 514.89599609
218.32400513 172.36900330 456.46600342
154.52799988 143.37599182 518.55895996
252.29100037 251.28999329 484.45199585
171.91099548 279.87200928 528.58801270
197.07598877 132.47099304 475.28298950
146.79199219 278.71502686 448.33499146
222.30101013 214.79100037 478.36801147
164.03100586 266.14199829 504.91296387
208.29600525 244.67500305 431.98001099
158.48001099 290.35101318 525.04803467
275.72198486 225.39900208 443.62802124
234.30299377 198.94300842 462.20202637
175.15400696 130.85800171 497.44400024
175.56999207 181.77198792 416.35598755
200.65100098 282.88201904 540.86798096
187.79901123 235.18800354 415.04898071
127.69599152 190.80799866 428.52899170
187.34201050 125.21600342 463.74899292
210.27299500 225.79299927 426.54400635
251.19700623 244.56900024 446.01101685
213.63000488 303.55398560 475.88299561
171.76499939 174.63000488 514.70501709
165.13299561 177.80000305 527.04699707
198.45600891 193.55699158 423.61599731
188.28700256 216.21400452 495.40002441
205.28300476 243.61300659 480.27798462
179.21798706 181.79499817 519.79901123
132.64498901 168.11199951 555.24304199
118.74700165 247.97299194 467.47198486
147.36999512 133.84999084 464.39901733
147.17799377 162.33601379 575.61499023
116.97200012 217.49598694 451.49099731
251.10400391 219.10501099 488.89498901
159.97999573 170.28900146 418.90600586
196.65600586 217.00000000 486.67202759
119.86699677 193.60400391 449.99099731
143.72601318 141.13099670 516.81103516
140.83399963 225.60000610 411.86099243
209.58000183 226.34400940 478.80200195
133.12399292 237.37699890 546.77600098
217.74800110 153.65600586 462.32501221
292.48300171 255.69200134 456.04397583
222.15600586 221.42199707 491.17401123
181.54400635 269.36099243 529.76202393
125.68299103 255.86900330 518.83898926
192.95999146 209.24299622 521.75402832
117.53199768 202.51699829 464.61001587
272.21798706 273.32400513 465.57998657
179.60600281 227.42399597 410.59197998
221.01199341 215.08200073 460.57800293
144.77799988 250.09501648 517.11901855
166.27999878 237.52699280 499.53399658
114.98200226 215.42199707 496.41900635
217.66999817 199.33099365 472.88702393
227.42800903 240.68400574 439.37100220
212.91000366 195.43099976 499.65899658
195.12901306 294.59899902 527.70501709
219.54501343 250.37500000 439.37600708
178.64500427 171.99101257 505.04202271
242.11900330 199.89700317 458.16998291
135.11100769 275.93698120 476.13299561
158.05400085 237.07099915 520.34600830
185.18499756 179.03800964 420.75698853
243.91600037 306.41799927 473.00402832
197.54199219 172.13598633 490.94799805
169.78601074 242.96099854 489.76699829
240.80400085 205.41900635 480.59698486
115.17600250 217.16600037 460.24099731
218.06900024 271.43499756 521.65600586
175.16999817 230.52899170 499.62298584
267.42300415 269.49499512 454.19299316
128.41700745 203.60699463 571.27795410
185.46701050 131.12600708 452.40899658
228.58500671 306.93099976 481.20300293
113.78200531 197.19999695 515.77099609
247.79699707 308.77899170 480.59201050
301.58401489 269.94299316 458.56600952
163.29600525 221.52600098 406.03399658
155.97698975 159.90200806 547.21997070
289.47698975 245.58700562 448.82299805
198.21600342 220.42199707 420.82101440
176.70799255 262.97900391 515.38403320
186.36000061 296.65499878 511.35598755
135.58200073 242.23899841 419.82901001
298.13098145 225.58200073 438.66799927
235.27499390 215.04800415 453.15399170
286.48498535 221.92298889 447.69998169
136.37100220 274.19702148 509.58901978
158.02400208 124.95099640 474.40798950
136.88400269 155.78700256 446.36099243
127.51899719 160.12400818 535.95196533
158.20599365 137.00898743 448.26901245
171.88200378 184.76399231 535.15203857
127.73699951 265.71398926 475.98001099
154.00799561 131.39300537 459.72201538
234.69799805 213.97900391 467.86599731
186.17500305 215.05999756 483.35598755
142.39599609 207.98901367 413.87899780
114.97999573 212.21099854 526.29998779
181.75700378 299.67300415 471.28100586
126.35399628 258.95599365 445.36999512
211.92201233 210.35299683 428.79000854
177.95799255 289.85299683 454.89401245
251.28298950 221.68899536 462.11697388
183.14599609 282.02798462 540.45800781
173.33898926 224.92100525 517.55902100
147.14099121 132.01899719 484.69998169
218.20600891 211.74700928 468.46600342
234.44200134 296.58099365 456.71398926
158.44699097 202.70899963 540.97302246
120.06200409 230.44400024 542.46997070
205.31199646 301.61999512 476.24002075
196.75399780 158.05700684 480.44400024
221.39599609 305.28799438 497.66799927
299.85498047 240.55899048 448.95800781
279.35601807 275.87701416 457.94100952
171.82000732 130.57699585 452.53598022
142.23599243 187.80200195 416.66601562
198.88800049 262.94601440 434.56201172
126.70401001 250.85800171 531.53198242
211.24101257 154.85400391 452.43002319
146.35499573 197.59599304 554.93701172
190.21501160 291.52700806 537.02697754
160.21800232 184.75100708 413.78900146
123.40400696 169.92199707 541.15600586
193.70600891 246.55200195 500.99896240
256.14498901 276.70602417 479.47900391
228.44400024 258.33300781 444.20700073
216.56500244 293.38800049 539.60504150
213.79199219 177.66299438 482.58599854
219.28500366 175.84800720 468.42599487
256.62899780 265.13400269 451.27001953
123.37999725 161.87100220 487.41000366
169.48300171 125.50499725 460.02600098
143.92300415 143.84199524 450.77600098
147.36099243 191.70500183 572.92303467
120.76599884 239.28199768 529.02301025
254.15098572 226.83300781 448.63800049
117.42299652 206.00199890 474.31399536
191.92098999 159.01100159 434.54699707
125.02700043 161.56700134 515.16302490
265.62600708 291.04699707 469.67398071
161.84799194 240.66198730 410.53799438
121.01699829 171.30799866 520.88397217
174.25599670 278.02899170 443.18301392
116.89299774 228.52200317 528.47998047
136.66300964 174.55700684 571.09399414
211.83499146 262.87500000 521.61798096
168.92599487 297.15200806 509.92297363
177.15699768 298.75698853 487.03799438
122.33200073 193.17999268 438.93099976
216.46299744 207.94999695 495.52801514
269.09301758 241.25000000 448.88699341
153.56500244 209.06098938 408.60000610
230.17599487 306.39099121 496.83401489
118.72299957 183.72300720 534.01300049
209.07899475 180.45100403 492.89700317
183.48999023 288.93301392 517.20599365
120.91200256 174.15399170 533.65997314
188.16799927 191.91099548 418.35900879
292.55300903 233.76199341 444.02301025
145.22399902 139.02699280 508.68200684
117.92899323 238.45100403 489.74798584
216.62600708 159.75799561 473.63400269
273.05297852 262.53399658 466.22299194
186.10798645 253.87001038 511.53500366
114.85800171 189.14199829 501.72799683
113.37200165 198.86399841 526.53698730
120.87599945 216.74699402 549.56402588
238.45100403 269.08001709 501.78598022
118.59799957 181.47900391 477.16598511
168.70401001 121.92399597 475.48400879
116.19400024 183.68699646 518.09197998
221.51599121 236.78300476 502.02203369
186.37100220 299.32901001 481.07400513
160.51499939 216.84199524 535.93096924
213.54800415 301.45800781 522.63201904
221.21398926 188.13800049 475.82699585
184.22900391 281.52798462 444.82101440
202.97700500 235.83999634 426.18298340
198.75698853 301.73800659 488.12600708
120.53400421 245.87799072 505.67901611
159.55300903 172.13000488 526.65899658
135.61900330 169.84100342 431.67001343
242.59500122 218.70899963 446.76501465
186.00000000 213.15899658 509.69702148
151.72700500 289.93600464 472.53100586
156.14099121 151.39199829 435.82800293
117.72399902 210.51899719 447.43402100
116.18900299 219.40000916 530.25799561
155.30101013 287.73999023 461.32699585
191.93998718 189.87300110 515.09704590
196.70300293 179.07600403 427.23501587
140.69099426 207.57299805 559.80297852
156.43400574 158.34201050 519.95898438
133.05799866 256.21398926 432.33901978
203.22099304 165.77600098 483.14999390
151.02400208 238.81900024 527.07397461
246.48199463 278.36297607 490.69400024
146.83000183 133.01300049 495.89401245
237.13000488 264.65600586 446.75500488
153.95399475 157.67799377 531.09197998
142.01199341 135.87400818 469.99401855
218.30999756 231.41099548 493.44198608
133.00799561 256.98199463 535.84100342
284.91000366 262.66000366 460.60897827
171.14500427 146.03300476 437.68798828
137.06399536 139.60600281 478.42599487
303.88500977 259.55001831 456.74600220
144.75799561 222.94700623 542.44799805
162.59899902 178.19400024 546.38299561
261.92797852 252.82897949 448.72299194
215.83700562 171.61500549 475.99899292
217.40699768 203.07699585 442.59301758
183.28199768 264.95999146 523.54400635
116.01399994 237.51799011 478.02099609
178.99200439 254.98899841 503.57400513
246.67898560 203.61000061 463.30300903
198.73001099 298.70098877 520.69799805
167.87800598 285.38900757 452.55398560
194.36700439 223.39599609 477.49002075
121.38400269 188.26800537 546.78204346
160.30599976 274.59698486 515.90197754
202.43899536 235.61700439 473.61599731
115.70800018 182.06500244 504.76098633
176.57199097 292.56799316 517.49499512
184.71699524 242.97100830 416.38601685
185.94799805 184.61999512 515.50000000
173.47200012 206.22200012 541.25897217
219.63000488 180.81300354 451.81597900
217.35099792 303.94198608 505.58901978
190.78799438 229.87699890 483.65301514
177.90699768 140.94799805 442.68099976
213.88200378 293.66497803 457.99401855
139.90199280 257.45498657 530.78198242
116.43800354 225.78399658 489.72897339
215.55200195 180.10800171 444.54501343
122.01399994 236.84500122 434.99697876
221.44999695 186.46598816 466.86801147
206.38099670 195.20799255 503.92800903
259.24301147 229.05799866 473.53900146
138.62500000 187.91600037 585.01397705
238.33200073 279.65399170 453.72399902
236.50700378 205.63900757 452.57601929
148.83898926 288.41201782 490.11801147
204.06100464 257.26699829 434.76699829
117.45400238 231.88400269 505.53900146
142.86700439 276.81900024 514.75299072
237.09300232 277.99499512 505.55300903
151.76998901 266.93902588 502.39300537
206.21800232 238.02099609 494.17599487
186.66299438 292.97097778 458.61700439
204.74299622 134.14199829 467.96899414
174.88299561 245.11599731 413.48202515
203.97500610 246.16500854 507.95602417
216.31799316 287.19100952 535.01397705
229.87001038 224.93901062 500.09100342
135.94500732 267.87100220 525.53601074
187.63600159 162.56399536 487.37799072
116.31199646 196.43800354 538.36102295
208.72900391 271.07302856 443.66400146
115.58100128 224.04600525 477.91799927
115.82299805 228.97000122 463.68200684
120.99800110 172.00100708 483.48300171
251.89700317 231.01200867 483.98797607
181.90499878 196.31401062 529.22601318
222.24900818 187.17298889 458.52700806
113.81399536 204.16799927 512.78399658
121.06999969 167.35600281 501.77597046
186.70199585 209.29299927 413.77801514
196.18000793 143.03599548 447.11700439
147.37098694 170.11000061 422.25997925
192.54000854 300.71099854 499.58200073
209.72000122 279.57498169 532.30603027
160.61000061 168.80099487 542.50598145
202.10200500 252.76899719 514.77697754
239.41500854 213.27799988 483.26199341
145.69999695 178.79800415 582.20898438
123.86699677 258.84301758 478.54400635
141.61500549 280.84399414 487.07601929
262.67401123 290.60998535 460.13500977
173.22698975 294.59899902 464.30599976
159.27200317 256.80999756 493.63198853
263.87500000 240.58300781 473.79400635
129.29399109 231.02299500 421.34298706
200.93800354 156.99000549 441.36999512
113.19400024 206.58999634 504.52297974
125.56299591 226.97499084 556.37799072
119.96199799 206.54100037 440.32998657
210.67799377 141.40699768 459.93899536
143.70500183 169.06001282 581.64196777
125.92800140 261.05300903 501.05203247
219.61698914 161.71499634 464.97698975
198.54899597 132.58700562 459.16000366
236.34800720 217.86099243 490.52398682
216.45500183 210.99099731 455.21899414
238.45001221 291.11901855 497.67800903
204.46600342 177.30900574 433.60498047
320.88400269 267.64999390 454.61801147
263.62600708 303.25299072 475.09399414
178.33599854 214.88400269 521.84698486
146.11799622 246.72000122 526.02398682
247.25698853 243.37899780 492.21899414
156.23500061 189.20199585 559.99700928
249.90699768 273.03601074 453.80700684
169.83200073 185.78800964 413.80102539
210.55699158 166.47399902 445.14599609
122.84400177 256.05899048 453.61001587
240.10899353 250.08401489 445.62200928
255.28800964 307.64099121 483.15200806
128.45500183 152.22999573 493.76400757
138.42700195 167.28900146 567.90600586
147.91600037 195.00399780 413.69000244
152.66300964 225.88400269 533.27801514
161.80198669 131.09399414 508.03695679
213.24501038 213.86499023 442.04299927
149.32299805 130.00799561 476.20901489
153.43501282 197.08900452 550.10699463
247.14801025 302.44601440 493.91897583
270.95498657 298.60699463 465.78198242
173.13299561 297.44500732 502.19500732
201.36199951 213.15400696 480.35601807
221.24899292 197.18299866 450.92401123
128.76098633 232.65998840 560.84802246
168.08399963 215.77499390 529.81597900
182.88600159 222.33699036 482.47299194
136.38600159 143.98199463 502.64801025
194.89500427 203.71000671 517.00000000
191.72000122 129.58699036 457.42300415
119.69400024 244.56100464 447.77200317
206.55000305 211.01100159 498.47000122
208.18099976 294.32998657 539.79302979
158.88999939 246.77999878 413.35897827
246.50500488 225.85099792 447.21600342
258.54501343 253.40899658 479.11001587
129.37399292 220.31800842 569.45196533
199.23899841 244.62500000 492.66201782
119.80299377 193.03601074 466.45501709
162.95799255 124.39900208 489.37197876
181.93299866 126.05300903 487.72497559
273.45300293 225.37800598 455.95898438
155.35099792 280.70101929 529.26599121
237.45100403 219.64700317 497.53201294
132.21200562 214.59600830 420.03399658
127.82199860 243.23600769 543.72900391
195.70899963 225.44898987 488.25900269
160.06800842 164.90901184 553.53698730
152.41700745 180.43800354 567.73797607
284.40798950 237.79399109 446.26400757
216.26800537 205.63000488 483.70001221
320.84701538 278.68899536 463.20901489
116.23699951 210.19200134 485.53402710
189.65699768 273.14199829 438.98098755
214.12699890 198.93998718 432.10699463
217.32699585 193.32200623 488.95498657
132.61199951 182.33599854 426.89498901
118.59700012 176.63699341 492.28399658
155.76599121 246.18899536 502.79098511
292.29598999 226.56199646 444.74801636
191.32701111 165.27299500 430.97900391
294.34902954 268.89999390 461.45001221
146.79499817 162.52499390 429.50299072
217.31999207 200.29400635 465.73001099
311.32598877 281.89700317 464.04000854
129.31401062 188.88699341 570.04199219
138.78298950 155.36299133 539.65802002
204.51199341 165.18699646 439.95602417
252.84298706 279.18600464 456.76400757
187.76899719 251.47399902 424.31799316
175.44999695 191.96699524 538.01000977
192.18600464 241.37400818 489.78399658
197.22099304 237.08898926 480.51800537
210.27299500 261.07598877 440.57400513
190.71499634 174.94000244 497.15600586
182.68899536 169.52000427 423.98501587
115.20700073 200.73199463 488.56600952
182.63299561 249.07398987 497.02798462
140.04998779 148.60301208 530.39404297
123.37500000 230.52500916 430.26998901
162.22200012 289.85400391 462.53900146
173.87998962 248.82901001 490.27401733
172.26600647 135.92300415 501.61700439
146.81900024 282.77398682 501.68997192
188.90100098 214.50300598 519.07000732
119.79299927 203.68099976 548.62396240
192.68800354 284.72598267 448.52899170
191.43000793 168.47500610 490.32800293
166.50801086 272.82199097 520.33801270
161.64300537 296.19699097 490.92098999
217.73199463 277.89700317 447.86700439
166.93800354 167.94200134 514.56597900
113.76499939 200.59100342 499.37500000
123.15099335 178.54798889 458.78100586
162.81900024 126.57499695 462.27301025
179.27500916 299.24499512 505.33300781
162.38899231 276.56900024 440.23699951
180.51199341 151.74198914 487.39697266
198.68899536 182.91099548 502.67398071
209.74400330 254.78100586 517.88000488
313.16699219 271.09100342 457.02902222
148.07200623 134.18800354 504.35699463
125.81600189 160.13499451 476.70001221
231.07499695 216.10200500 473.73300171
171.50500488 251.58000183 415.96298218
172.06700134 286.87701416 527.64794922
173.61999512 268.59500122 432.15298462
159.98399353 205.48300171 408.40301514
146.95100403 158.48699951 559.78503418
123.15399933 167.24301147 467.05099487
233.60900879 215.72999573 459.96200562
119.51499939 247.93000793 494.69100952
130.57299805 268.72302246 450.16198730
233.41200256 296.86297607 518.52899170
141.09199524 237.81600952 538.55200195
134.68499756 150.67100525 516.94604492
255.47299194 242.46899414 482.34799194
243.71400452 298.68399048 459.90698242
126.40200806 206.54499817 427.05300903
183.46600342 299.37402344 496.12298584
277.33999634 231.72099304 446.19598389
167.89700317 298.02999878 493.42901611
131.52700806 221.65901184 559.20397949
219.64601135 170.37298584 463.01599121
213.60499573 215.96499634 433.63897705
207.66200256 283.91201782 450.50698853
151.74099731 209.83700562 543.84204102
149.41099548 149.82199097 439.67398071
117.23899841 201.68800354 452.13198853
251.54501343 302.13800049 487.26800537
257.16598511 297.05798340 479.82800293
275.58099365 280.82598877 461.15100098
279.11697388 248.94699097 463.91497803
202.52899170 250.47901917 431.52099609
146.68299866 265.20602417 429.84100342
210.62199402 304.52700806 491.26498413
151.57099915 170.35398865 577.04095459
199.40400696 300.11001587 472.92901611
227.35198975 284.06799316 517.69897461
137.78399658 193.81700134 579.61798096
226.84399414 286.51400757 453.87200928
175.90499878 156.61399841 494.81500244
129.22200012 220.40599060 422.34201050
171.63301086 173.75900269 418.32501221
214.04400635 166.53601074 451.12402344
123.02099609 218.44999695 431.59402466
124.82900238 233.85800171 550.70196533
130.01799011 163.30899048 450.33200073
230.63500977 226.12998962 443.51699829
174.19599915 232.36900330 408.46899414
185.87200928 140.36099243 485.31900024
230.60501099 273.66400146 450.58700562
185.71899414 222.61000061 495.04699707
255.86199951 223.66300964 457.35101318
246.61399841 268.73001099 492.45300293
124.95800018 259.68600464 491.60598755
167.51499939 189.09999084 544.90100098
150.90000916 249.41299438 415.80798340
210.77899170 232.27700806 493.61898804
166.57400513 162.02899170 510.21600342
235.19400024 238.69599915 498.50100708
116.05200195 204.37200928 541.00604248
166.96499634 178.17999268 533.66296387
294.34799194 248.50599670 453.69601440
213.93699646 216.09899902 489.86700439
267.34997559 282.95098877 458.61599731
116.47200012 184.70999146 488.84500122
266.90301514 250.40200806 471.26901245
146.58000183 272.93399048 509.94802856
223.15399170 226.36100769 439.56100464
193.43299866 126.65798950 472.17102051
247.76400757 230.16999817 497.36199951
183.12100220 123.18499756 479.40600586
180.25399780 258.44500732 511.70199585
159.78999329 154.16499329 515.04101562
116.12500000 186.77900696 526.70599365
225.66500854 298.90701294 530.91900635
137.15901184 203.91699219 572.59100342
118.67500305 222.72000122 544.58099365
143.19799805 283.10900879 462.67300415
156.31199646 234.76199341 408.69299316
192.82800293 231.47100830 418.12399292
169.15499878 231.28799438 514.73303223
248.28900146 214.37800598 458.35302734
219.06500244 189.57400513 441.60198975
203.28199768 246.03199768 474.17898560
186.16198730 241.55099487 485.86499023
280.20199585 220.55400085 445.28698730
130.24499512 180.19500732 565.10900879
248.89700317 259.20098877 488.53701782
191.74600220 220.09500122 416.35098267
194.55699158 272.24499512 533.30895996
148.91900635 143.90299988 522.32995605
116.96600342 195.98800659 480.60101318
118.18900299 177.14599609 518.17602539
189.40499878 299.96499634 473.11599731
124.95599365 172.59500122 455.24401855
206.09300232 303.66198730 496.76702881
203.59300232 228.17599487 476.23898315
242.95799255 201.05500793 473.76400757
148.70401001 185.08599854 573.27801514
159.04699707 292.61401367 502.75201416
183.70799255 187.63600159 527.02801514
233.95500183 236.46299744 441.51699829
138.36300659 275.76000977 491.88400269
245.12701416 258.98800659 447.79397583
165.83000183 294.20501709 467.35900879
146.17698669 137.49499512 457.55099487
148.29100037 235.67298889 411.34197998
194.68200684 247.37001038 426.66000366
262.37698364 227.13600159 446.73999023
213.63600159 189.75999451 494.22399902
146.74699402 244.11000061 414.16601562
132.98500061 151.72200012 457.55197144
184.09899902 136.19200134 447.44598389
192.78800964 206.24600220 418.03698730
148.67199707 197.02600098 565.32403564
155.56498718 162.05699158 564.35400391
255.66700745 248.66700745 448.88201904
198.92599487 138.77999878 452.24099731
178.00498962 202.35400391 529.69403076
126.21800232 244.39300537 432.34100342
115.04199982 219.36100769 502.30096436
272.37500000 236.15899658 464.96499634
187.71900940 194.98200989 526.22399902
141.13900757 232.73199463 412.81100464
165.53500366 223.56300354 525.47302246
228.81098938 302.58102417 523.17999268
161.89799500 236.65499878 514.91101074
157.86900330 168.89999390 532.24401855
142.08599854 173.94099426 423.61099243
126.69700623 180.90100098 559.52197266
200.53399658 233.19000244 490.07098389
200.24900818 294.82998657 534.13800049
131.31600952 243.62599182 424.73901367
267.38800049 274.50000000 469.98501587
210.96600342 156.28799438 473.47500610
220.05300903 305.44598389 490.65597534
174.53099060 221.44499207 408.52001953
213.13198853 302.12799072 469.42498779
117.09100342 231.11900330 516.06298828
180.28500366 123.11100006 465.03601074
167.08399963 198.21099854 411.24902344
195.27600098 260.97100830 486.20999146
253.19200134 223.80599976 471.80899048
245.23001099 241.29399109 446.28701782
196.53700256 143.02600098 478.34799194
123.21499634 200.83200073 557.91802979
204.94100952 288.33099365 543.34899902
171.61000061 209.10800171 408.69000244
149.61099243 287.14999390 496.54000854
221.31900024 265.41799927 445.88000488
136.97900391 162.57398987 554.54199219
278.38598633 256.41799927 450.92300415
126.17300415 262.75399780 460.92501831
291.13702393 263.64599609 456.28399658
158.27700806 172.92100525 557.77899170
131.21099854 270.56597900 478.72201538
218.12500000 277.81701660 524.79199219
195.94299316 188.68099976 506.89797974
182.07099915 195.20700073 414.18099976
195.80499268 300.73898315 505.26702881
247.19999695 219.51699829 495.11901855
116.87300110 230.26899719 447.35198975
136.58200073 142.24900818 493.08200073
149.47399902 172.80699158 583.22399902
135.31900024 185.04400635 576.59899902
129.86700439 168.24099731 444.83502197
205.42800903 150.14498901 448.90902710
253.87998962 291.10900879 478.78799438
133.18000793 163.38099670 549.30297852
203.69400024 302.67199707 483.97000122
160.34500122 199.84500122 546.59802246
120.76599884 200.42799377 438.21701050
185.26800537 155.18899536 434.38699341
190.07499695 147.82099915 480.42700195
194.16700745 217.01399231 492.71099854
254.26701355 303.45401001 468.43402100
232.96398926 307.04299927 490.34698486
158.46000671 290.76300049 515.89001465
176.98100281 275.83599854 529.21197510
152.48901367 225.41299438 406.70202637
236.92900085 201.90800476 470.77499390
183.78500366 269.37802124 436.21502686
200.75000000 278.35198975 444.65301514
240.72200012 301.87600708 505.70797729
162.10600281 239.45201111 504.11300659
204.96598816 182.54501343 500.18603516
243.53300476 287.59701538 489.95101929
225.20700073 217.02699280 486.66598511
203.33399963 254.60401917 482.75399780
211.64799500 174.28900146 442.14999390
163.19100952 269.45999146 430.18798828
180.73800659 291.25601196 511.83895874
167.72399902 147.57099915 505.07199097
117.53399658 235.36599731 495.40899658
233.08299255 264.85299683 506.54202271
134.66699219 270.75698853 502.59698486
190.15100098 296.18899536 462.98199463
129.85700989 264.37500000 445.45700073
209.08399963 240.41398621 502.02603149
152.99700928 244.43901062 510.57302856
135.03100586 169.41400146 561.20697021
124.44899750 178.89498901 448.23797607
121.55599976 180.64799500 465.31298828
141.71299744 212.55900574 549.84698486
143.63600159 284.37200928 472.71499634
285.23300171 253.88301086 458.54602051
224.28199768 265.27999878 514.20898438
226.88500977 303.32299805 468.45401001
135.15501404 275.98501587 462.79901123
132.99499512 168.54899597 437.38497925
131.56700134 150.53500366 506.76501465
138.04901123 266.11300659 515.55700684
127.36000061 156.42199707 506.48397827
162.15800476 166.29199219 520.62603760
280.27999878 269.78701782 456.17602539
229.07299805 219.75801086 449.92001343
224.23799133 270.56500244 448.32998657
178.84199524 167.90100098 500.12100220
185.50000000 271.82901001 534.14703369
200.31700134 214.64799500 422.61199951
230.37399292 278.87698364 513.37701416
156.74099731 133.12699890 454.20599365
129.30700684 156.72900391 529.12298584
271.05599976 257.37100220 450.93701172
117.51499939 242.04899597 464.80499268
116.84600067 232.39299011 455.82397461
149.08898926 254.33299255 502.60101318
263.99801636 236.74200439 446.03298950
137.00898743 275.05499268 452.94601440
234.35600281 251.72399902 443.44900513
218.07299805 219.21299744 440.33898926
252.98899841 217.35798645 480.31500244
196.47300720 248.52999878 477.35000610
153.41299438 261.69900513 423.66400146
207.43200684 216.84999084 479.59701538
150.02900696 233.87100220 530.91595459
265.10400391 296.11901855 473.44699097
185.32901001 181.41999817 508.86203003
153.11700439 131.65899658 510.42001343
199.42900085 130.54100037 469.35998535
214.24501038 244.66900635 434.68899536
126.58199310 177.76000977 441.42098999
157.79000854 177.77400208 415.95797729
182.63800049 233.72300720 411.69699097
314.62799072 275.86199951 463.57101440
193.03500366 131.91198730 480.11300659
262.08200073 296.79199219 461.30999756
231.51800537 305.36801147 511.80999756
132.81999207 208.95700073 573.06097412
144.47900391 134.11199951 490.03402710
130.42100525 264.95199585 526.46203613
186.36601257 145.92500305 441.01101685
140.80500793 182.12899780 586.28204346
200.81100464 289.66500854 455.14398193
246.99600220 291.11599731 486.00000000
198.22599792 202.12500000 511.85400391
194.40199280 148.97599792 442.45700073
220.90299988 283.07299805 450.57498169
215.49501038 247.50498962 510.67501831
162.81500244 263.11499023 423.30300903
202.21899414 199.90299988 504.38500977
225.82400513 224.88999939 494.92700195
180.40699768 289.14099121 526.41101074
240.71099854 232.98600769 498.58001709
141.13398743 137.68899536 494.99401855
160.68099976 249.96900940 493.64099121
193.29600525 260.74499512 432.75698853
263.75000000 271.70300293 474.26300049
181.36300659 211.06599426 529.21899414
184.23399353 214.54699707 477.42098999
115.76799774 230.29499817 477.51699829
127.62400818 263.65100098 512.47003174
169.94699097 177.75300598 523.04699707
232.84300232 302.77499390 463.55999756
157.37300110 278.03900146 523.42803955
154.41400146 170.92601013 570.58801270
197.63598633 187.54400635 425.13201904
121.06099701 240.83801270 522.71600342
138.28800964 201.94400024 416.99600220
163.22801208 294.15399170 519.92102051
160.92500305 164.53999329 422.69998169
117.56700134 188.01400757 476.88400269
156.49099731 183.86698914 556.77600098
195.90499878 263.76901245 525.44097900
133.43800354 227.26100159 417.20599365
205.25201416 229.41101074 425.82800293
284.98101807 237.64100647 458.11700439
210.23400879 299.44699097 527.71099854
146.98500061 285.52600098 514.72094727
179.48600769 129.47100830 452.78298950
325.72000122 264.70397949 449.86001587
262.74401855 277.61001587 456.71002197
222.42100525 256.14999390 511.56802368
147.34700012 184.35198975 415.93798828
189.38299561 261.38101196 524.22796631
118.36600494 173.64199829 505.79397583
123.71200562 211.78300476 560.35400391
185.70100403 226.92300415 487.37500000
127.77900696 171.17700195 552.28295898
141.23800659 245.14100647 534.76098633
204.77400208 209.71099854 425.57000732
161.45700073 271.74600220 510.18499756
179.59500122 162.33399963 494.74499512
174.87199402 152.61000061 433.67599487
162.84500122 295.05700684 474.51599121
287.96499634 227.53399658 450.72601318
128.80999756 267.35202026 464.10400391
148.08399963 149.39500427 526.77703857
131.94000244 147.21600342 472.74200439
260.05999756 284.94097900 471.83901978
115.66500092 207.62500000 461.72100830
178.98799133 200.91900635 411.67300415
255.56001282 241.51599121 449.10101318
189.27000427 157.65998840 483.53601074
116.68299866 215.79701233 539.97698975
135.60299683 220.66299438 554.70904541
236.38198853 307.16101074 497.67898560
184.82899475 231.55799866 483.43701172
172.18499756 231.45100403 504.91296387
166.42900085 134.27099609 449.38400269
171.00399780 126.48999786 498.62701416
179.99600220 221.48899841 510.48898315
243.25999451 271.66302490 451.85501099
149.67399597 285.93899536 508.23800659
237.17999268 213.21600342 477.56500244
172.36299133 208.52400208 533.20001221
219.27600098 302.52001953 518.37097168
158.97299194 124.09600067 480.64700317
228.78601074 291.83999634 524.89196777
223.21299744 190.57099915 453.53900146
222.46701050 240.88500977 506.44796753
148.82299805 212.49200439 410.34600830
169.80400085 122.41099548 487.27899170
220.79699707 215.82899475 453.15100098
120.92600250 172.50601196 526.85400391
185.94900513 209.16500854 522.53094482
149.91600037 156.69099426 548.19201660
128.58900452 182.50801086 432.33200073
266.80499268 261.17001343 469.79400635
228.28100586 295.86602783 459.39901733
128.96400452 162.40000916 543.97998047
287.35299683 253.56298828 451.66299438
175.56600952 174.06498718 509.99395752
176.59999084 146.97000122 492.53500366
165.41600037 208.17900085 542.97796631
140.71499634 256.06500244 519.06799316
172.19898987 142.75900269 499.81799316
197.21199036 216.50999451 474.77499390
135.80499268 194.28099060 418.95199585
240.66799927 280.71099854 499.87097168
189.30400085 203.85000610 524.54296875
216.13999939 147.84399414 465.46099854
153.31999207 196.44599915 410.85198975
301.34399414 279.16400146 464.01699829
203.52999878 205.98699951 499.99697876
214.94700623 155.72799683 457.13000488
230.12800598 216.74699402 464.98001099
132.83999634 270.17001343 512.39697266
188.37500000 291.05899048 512.43402100
298.84298706 253.44198608 454.85202026
250.03799438 266.36801147 488.01498413
191.07200623 256.16400146 517.03002930
128.19198608 256.69299316 440.08300781
265.01599121 223.86500549 457.13000488
306.51699829 267.68499756 461.20797729
215.20599365 234.29200745 432.66699219
214.95401001 225.81399536 430.48797607
180.77999878 260.38400269 426.97000122
150.14900208 276.25302124 513.73199463
201.28298950 257.48699951 477.30801392
148.00601196 207.49800110 547.94696045
129.61000061 197.93499756 572.91003418
180.13499451 255.34599304 422.09600830
157.28601074 191.77200317 410.93798828
246.47801208 215.54499817 452.75698853
165.40899658 241.65100098 495.20001221
288.51699829 242.20800781 456.54998779
121.23999786 253.94499207 466.85299683
249.11401367 208.93600464 460.70098877
223.21400452 192.85499573 463.53399658
198.44099426 249.36099243 503.33599854
253.14999390 236.16999817 446.19302368
159.98999023 258.87298584 419.95800781
200.45700073 201.29199219 423.55798340
218.76800537 156.11000061 467.67199707
169.62100220 298.54598999 481.02200317
187.07199097 217.80499268 413.42999268
199.70199585 220.25000000 490.64401245
177.34199524 127.35299683 492.32800293
166.19500732 231.75999451 408.04400635
172.33799744 264.14700317 511.50201416
153.29701233 258.21701050 497.10299683
197.55900574 263.53799438 481.35302734
211.18299866 229.77299500 484.59802246
155.41999817 293.02001953 487.82501221
115.66400146 223.51899719 516.21502686
172.09999084 293.05700684 523.84399414
184.90299988 134.41899109 486.48397827
217.87600708 201.99400330 435.54800415
202.44300842 169.75000000 487.48699951
244.65100098 248.37901306 494.05700684
136.03300476 247.43499756 422.64801025
207.28900146 283.60400391 537.72601318
124.70600128 250.61100769 440.15197754
205.51901245 302.19500732 511.88897705
121.38199615 250.93701172 502.72000122
208.75599670 161.75300598 477.27700806
185.31399536 277.02999878 538.11004639
134.62799072 142.63400269 483.47000122
236.57000732 299.90899658 512.89398193
196.24800110 242.92098999 481.19699097
172.42799377 203.19099426 410.31799316
230.11599731 290.83999634 456.21899414
187.55499268 168.31100464 427.59899902
301.97598267 273.22198486 463.45700073
123.22699738 221.44200134 555.01995850
290.21200562 238.68099976 446.79000854
244.32901001 211.40899658 487.53900146
155.22700500 286.52001953 530.19598389
166.59700012 124.60199738 494.47598267
171.14601135 202.20899963 545.46301270
157.74501038 282.74700928 450.35800171
113.79700470 193.89599609 508.62097168
261.67300415 235.26899719 475.30999756
204.37500000 221.11799622 424.35000610
136.18199158 230.03500366 549.15795898
201.59700012 228.45600891 486.75399780
250.62799072 211.91400146 475.82400513
221.14599609 301.92898560 467.71499634
138.21099854 214.40699768 415.39898682
154.94200134 126.63100433 487.12997437
201.62500000 214.62599182 493.52499390
167.10198975 162.83000183 424.52499390
198.06399536 224.46600342 482.42398071
119.23100281 250.53900146 482.45401001
230.70899963 232.82598877 501.18701172
238.45100403 224.68598938 500.95098877
155.07200623 184.07598877 562.57202148
124.86899567 164.53300476 538.74200439
196.45899963 207.85499573 509.10400391
138.96000671 253.05900574 424.83599854
177.40899658 270.90100098 435.96398926
119.64400482 175.99398804 478.90298462
283.58200073 225.00100708 443.55599976
248.98399353 296.43399048 461.06799316
295.18399048 235.94099426 448.76400757
221.92098999 255.43400574 441.06799316
211.34899902 220.06300354 426.85699463
219.45401001 296.60000610 459.13400269
242.70899963 283.88598633 456.28698730
273.46499634 272.21798706 456.35598755
159.43301392 194.46099854 553.87097168
137.53199768 163.25399780 437.20800781
199.27899170 256.55300903 519.55096436
145.44900513 264.87600708 504.71401978
133.11999512 247.95700073 542.62500000
157.60299683 155.44000244 431.90701294
165.35800171 135.67399597 507.54797363
118.94200134 226.37200928 440.34500122
114.00800323 205.15100098 526.12298584
210.22999573 204.86199951 429.55099487
228.42199707 246.81800842 506.04803467
155.07901001 241.62599182 515.23797607
191.64300537 297.02099609 513.70196533
218.83599854 198.35099792 458.54397583
136.20500183 143.97999573 463.13500977
255.65800476 268.66598511 481.14300537
217.21200562 221.32701111 485.08398438
140.14999390 173.40899658 580.27099609
184.41699219 145.83499146 484.16500854
119.54100037 249.37400818 460.35400391
140.56600952 202.14199829 568.27697754
132.17300415 268.66201782 487.05102539
166.07099915 211.55599976 406.63201904
130.78401184 236.57899475 421.76397705
220.42300415 218.67700195 445.96798706
186.61000061 218.20799255 501.89797974
178.76499939 214.47999573 408.54000854
203.51399231 273.01300049 530.91503906
124.20800018 250.31999207 518.47796631
165.23001099 247.05200195 491.55999756
186.31500244 288.92401123 540.35595703
197.60000610 255.95399475 483.83599854
245.90800476 206.11799622 478.05200195
217.03900146 201.34700012 487.44799805
151.47000122 160.55700684 571.63604736
251.15298462 267.83300781 451.72799683
115.84600067 194.27700806 486.76400757
147.87800598 222.55499268 408.57601929
258.69699097 259.08599854 478.29602051
190.98199463 299.81298828 484.95199585
223.14700317 244.45899963 438.86798096
275.88201904 244.98799133 466.49102783
253.35099792 223.14498901 485.51800537
199.21398926 298.54397583 466.20300293
148.63699341 201.09300232 550.40899658
278.60400391 261.78399658 463.18298340
113.70600128 211.55899048 512.51098633
164.05999756 253.29399109 416.15301514
214.73200989 202.48100281 498.11300659
232.12001038 242.80400085 441.85098267
116.33200073 221.02999878 492.89300537
174.41900635 178.82699585 518.91601562
257.51599121 305.46600342 477.66799927
113.80500031 195.29899597 501.50799561
115.85800171 221.79100037 484.37301636
172.45500183 213.15098572 526.29602051
115.68099976 212.83599854 491.38998413
136.28500366 265.83599854 438.79699707
158.38000488 141.09300232 444.05999756
222.52499390 198.32000732 440.53097534
163.48999023 262.73901367 499.75000000
141.88999939 275.82699585 448.39199829
209.53799438 296.78198242 534.25799561
196.67599487 279.42700195 538.71697998
191.97300720 263.40499878 479.59301758
205.17199707 296.64199829 461.99301147
144.73500061 255.60998535 507.41897583
248.21501160 234.04299927 490.98199463
179.22599792 159.10899353 430.14099121
170.32699585 269.13699341 518.31402588
268.37097168 225.84100342 445.99499512
190.60200500 179.38500977 502.28100586
159.85600281 226.75299072 526.73999023
179.26199341 226.63700867 500.17602539
113.80799866 191.52699280 515.65802002
115.75700378 216.99101257 471.75900269
219.28199768 212.67601013 474.06198120
154.84300232 182.27699280 414.18399048
121.01099396 253.41299438 492.40899658
163.35600281 174.94801331 540.46203613
129.19599915 154.74499512 520.69000244
212.53601074 276.30499268 528.64404297
210.65100098 170.73400879 483.35900879
114.92200470 219.07099915 465.55999756
169.17001343 261.00299072 422.44500732
119.64099884 190.69000244 541.98004150
140.43399048 278.21499634 509.84698486
162.89100647 183.67199707 547.71600342
124.36699677 189.35499573 558.09698486
126.14900208 252.93898010 523.63995361
132.01300049 261.50500488 532.61694336
153.41900635 156.58299255 524.86700439
162.95599365 123.20300293 472.30099487
222.88999939 235.70899963 436.65502930
114.54100037 193.38800049 527.15899658
263.66601562 228.61399841 466.91302490
157.81800842 223.61599731 406.14300537
234.23999023 196.16000366 457.11999512
146.37799072 269.58700562 434.89999390
172.32299805 140.61500549 442.05401611
256.84600830 305.18002319 487.96600342
282.86700439 243.45498657 448.73699951
171.28099060 160.13400269 503.19302368
119.98899841 238.96800232 442.87899780
241.33900452 235.72599792 443.37500000
137.09400940 260.12600708 432.36199951
148.75399780 287.31201172 520.31500244
284.11599731 265.20898438 455.66601562
202.02499390 262.30001831 524.27398682
150.26100159 245.48699951 515.36102295
115.71100616 231.69400024 468.58700562
141.70500183 162.87500000 566.79498291
129.34399414 150.63000488 486.30499268
123.14599609 166.67399597 518.54998779
252.93699646 222.56100464 452.31802368
174.66799927 219.75999451 519.29895020
231.41300964 217.84199524 487.86499023
131.68699646 267.44000244 498.15100098
125.88599396 155.91099548 488.59799194
147.51300049 155.63299561 435.84799194
202.30899048 168.65299988 436.16400146
131.34999084 158.50900269 539.68298340
206.16899109 239.90200806 430.00601196
143.75999451 280.09799194 453.90200806
209.68099976 138.03500366 464.27499390
164.58399963 295.51300049 514.68096924
204.13699341 239.63999939 484.01800537
191.08999634 126.99900818 477.21600342
325.97198486 271.42300415 456.31301880
203.55700684 272.31198120 442.01202393
209.29499817 191.13999939 501.48498535
130.51300049 153.96200562 462.01000977
192.83999634 208.23100281 504.52398682
194.60299683 301.12002563 493.01498413
124.84700012 259.77398682 485.54998779
186.70100403 184.21000671 419.41101074
208.07899475 143.29699707 471.71398926
232.98600769 289.50000000 508.65698242
251.94299316 278.43600464 482.64199829
213.63299561 208.98899841 444.63598633
163.71600342 142.34001160 509.67700195
192.35398865 255.25799561 429.32998657
236.03799438 292.18997192 504.36096191
223.75900269 191.93400574 447.92898560
124.75199890 161.85699463 528.37200928
186.52899170 223.78300476 478.57901001
271.45300293 237.01899719 446.23199463
202.97799683 194.94200134 426.46398926
294.07299805 269.71200562 456.00000000
211.08500671 302.11499023 517.04003906
122.21500397 167.26799011 486.02200317
182.76199341 171.76499939 499.99099731
223.29299927 283.63800049 523.41198730
169.95700073 262.92398071 505.14102173
143.45201111 232.74600220 539.15399170
287.59100342 232.86401367 453.09899902
183.97900391 224.17100525 411.31298828
242.43899536 267.34097290 496.76702881
210.71598816 303.68997192 503.92996216
131.17599487 189.75299072 424.40899658
148.65499878 141.25799561 449.50500488
163.12399292 153.99501038 510.50503540
187.16099548 262.33700562 432.24600220
260.79898071 225.47200012 462.55300903
139.39799500 139.44999695 466.75100708
173.71701050 298.71301270 472.93698120
116.84799957 240.80799866 482.33499146
204.68499756 179.12199402 495.90499878
184.68399048 291.13800049 523.61901855
271.83599854 285.54498291 460.40499878
178.42799377 185.85600281 530.03198242
164.88499451 213.87399292 534.48303223
183.85600281 122.96099854 470.15899658
119.77400208 184.20100403 539.50897217
144.26300049 155.55799866 538.19903564
121.50199890 213.62901306 554.00299072
115.45700073 188.72900391 492.39199829
278.21401978 237.46701050 461.48999023
246.97500610 308.09997559 494.40600586
214.98699951 209.79598999 450.10598755
122.39299774 213.29400635 433.24200439
205.51000977 222.73199463 479.06198120
169.85200500 241.68699646 411.08099365
148.60800171 139.45100403 519.20904541
191.12899780 239.72299194 484.44900513
277.87701416 246.20500183 448.79400635
168.94499207 275.22998047 525.53698730
250.25498962 209.42700195 468.95300293
293.29602051 243.21398926 453.01300049
164.59600830 288.13699341 457.95800781
172.27600098 288.46401978 455.24099731
238.51699829 300.21899414 459.46697998
158.04899597 126.67399597 492.66497803
153.47200012 289.86599731 467.39199829
234.22900391 247.35600281 502.83801270
170.42001343 152.51600647 501.29699707
157.04299927 162.35899353 531.92700195
156.77101135 292.25601196 473.89001465
119.67399597 238.11300659 516.35894775
182.31100464 211.07899475 411.15200806
227.44900513 216.85899353 481.37701416
191.01199341 137.72599792 448.50399780
237.03700256 204.25500488 462.73602295
261.79098511 298.73202515 477.56500244
258.09899902 304.04598999 472.47799683
157.92800903 149.33000183 516.60198975
216.45500183 184.86199951 442.08700562
148.95700073 130.47200012 489.55300903
271.38000488 278.96099854 463.99700928
153.53800964 157.59300232 541.44696045
203.44999695 151.87400818 476.24200439
195.16299438 266.62200928 435.88900757
268.65597534 264.24700928 453.96398926
203.96600342 189.71499634 428.40200806
240.14698792 201.66600037 452.55599976
115.85699463 224.42900085 503.93099976
122.77600098 189.11300659 442.42797852
156.94799805 217.30099487 405.86798096
256.18899536 288.20300293 458.65802002
178.99798584 216.80499268 482.97698975
261.06399536 267.05700684 453.62100220
202.54499817 298.84698486 524.48199463
256.31799316 230.15499878 479.52301025
166.94499207 288.60800171 530.55499268
181.24101257 238.83399963 483.63998413
154.20599365 163.66400146 577.49700928
173.89300537 198.03900146 539.85601807
194.50799561 242.80799866 494.43701172
120.30000305 196.05700684 442.98400879
229.99099731 306.10702515 503.66598511
117.41400146 233.15399170 490.44201660
174.87500000 256.35998535 500.41699219
268.29800415 287.74801636 466.39300537
249.99099731 288.72497559 482.24899292
116.93399811 184.72300720 481.69400024
227.05300903 255.25700378 508.85598755
120.76599884 169.05499268 507.18499756
179.44799805 279.33300781 443.80300903
138.26499939 278.39099121 483.68899536
139.22900391 270.34899902 441.78500366
176.98199463 231.50900269 494.59500122
121.27199554 172.03199768 475.04299927
146.12998962 132.75498962 471.41299438
212.38299561 264.96801758 443.58502197
188.70700073 218.58100891 490.62200928
191.40400696 293.26901245 524.10504150
179.64500427 264.37500000 519.62603760
153.61100769 289.17300415 499.52301025
170.91700745 187.12699890 539.84301758
210.02101135 206.39199829 498.67800903
218.01799011 158.70800781 460.63598633
175.57800293 123.74099731 461.74697876
140.41400146 157.20500183 544.74298096
251.41200256 246.33200073 486.18701172
116.58599854 215.97799683 481.34802246
181.98300171 183.71800232 416.99200439
183.32600403 218.72698975 507.39199829
213.30499268 188.36499023 436.53601074
231.30400085 303.94799805 518.37402344
176.85900879 284.58898926 527.52099609
163.99699402 258.64401245 495.22097778
179.06098938 281.77499390 536.47601318
198.14201355 286.34500122 544.01098633
193.77699280 194.47000122 420.55599976
216.71299744 254.81599426 439.99099731
131.25500488 230.00199890 556.99700928
183.01600647 250.44798279 420.24002075
204.35699463 155.36700439 445.35601807
279.03198242 261.90200806 453.50399780
212.95799255 179.72900391 487.39199829
171.04899597 179.02900696 416.35702515
158.33599854 142.37500000 514.97198486
151.99899292 171.59899902 420.18899536
141.64199829 163.40998840 432.76199341
228.95100403 293.76699829 530.00500488
116.38200378 220.90800476 455.52398682
206.53199768 265.03399658 524.53796387
235.90899658 217.55300903 448.36499023
126.83400726 262.03701782 506.70498657
222.87001038 305.59600830 479.38800049
187.71299744 298.61199951 468.30801392
190.42199707 180.99400330 423.03601074
195.96899414 225.01300049 419.53201294
167.12400818 277.87200928 442.14801025
188.36199951 196.72900391 416.23602295
246.91799927 308.02999878 488.21099854
143.57099915 136.91900635 462.43200684
179.67500305 139.33700562 490.40600586
243.99200439 278.83200073 495.81597900
161.64700317 290.40597534 529.25097656
209.17700195 138.50000000 469.85800171
209.32200623 176.88299561 438.21298218
117.57899475 218.78401184 445.71200562
120.28900146 190.74699402 460.72799683
123.01599884 167.57899475 472.29199219
154.38699341 272.73898315 435.37799072
114.49099731 210.01599121 520.57397461
171.61099243 121.34999847 480.45700073
222.45100403 260.08599854 443.44500732
166.58499146 172.41799927 417.80401611
222.00700378 269.11999512 517.54699707
137.48200989 145.49600220 457.49200439
207.40600586 215.66699219 492.18301392
118.29199982 217.42098999 545.04901123
114.25199890 200.47399902 494.15499878
159.24899292 268.12402344 504.08798218
183.89099121 216.01800537 519.29302979
195.91799927 269.14001465 529.31500244
227.23600769 305.29202271 473.45599365
147.76399231 181.94801331 577.36499023
191.67900085 223.05000305 490.58700562
142.66799927 261.89300537 507.99603271
267.09100342 249.89799500 448.79498291
215.85800171 266.70199585 521.35302734
218.07099915 215.88699341 493.06600952
120.53099823 235.19499207 540.33203125
165.08099365 142.07600403 441.52297974
132.19200134 215.94400024 568.94500732
127.95700073 174.13999939 556.58599854
186.90901184 127.56699371 457.36798096
230.73999023 290.34799194 513.67999268
252.63198853 261.78198242 451.18798828
118.69799805 192.24800110 473.54800415
216.39999390 182.67199707 480.65798950
144.58699036 285.50198364 481.34899902
115.00299835 207.18299866 535.57995605
195.53401184 138.04100037 477.20401001
240.14698792 238.49200439 496.70401001
137.77000427 175.78799438 576.03002930
218.10400391 289.88299561 454.99899292
168.02099609 266.91897583 510.01196289
201.16400146 249.81799316 510.36798096
123.38800049 175.37500000 544.82904053
145.41099548 285.20001221 487.89700317
216.76998901 201.71299744 480.32501221
136.28601074 149.86599731 526.45397949
119.04700470 235.01199341 526.62097168
141.75399780 210.13600159 555.24200439
131.99700928 205.38800049 576.73400879
298.02398682 229.10400391 443.75799561
231.70899963 256.66799927 505.88500977
153.55799866 289.19000244 523.90997314
128.11599731 238.70300293 546.89099121
195.23399353 175.31100464 494.64801025
138.61100769 221.26899719 413.63000488
157.98899841 163.09500122 543.67498779
142.43400574 164.12599182 572.35003662
149.02099609 197.77700806 560.21795654
228.50799561 266.19601440 511.37203979
174.12998962 191.67999268 413.42999268
142.69200134 202.30198669 414.32800293
140.33999634 144.76400757 515.40899658
120.46600342 217.28199768 436.26998901
202.27400208 146.01199341 475.69900513
160.86700439 233.18800354 522.24896240
256.52600098 301.44799805 484.14700317
195.32800293 293.67001343 533.13397217
190.27400208 209.94400024 508.65298462
306.32800293 279.40499878 462.36102295
176.51599121 239.86700439 486.35699463
157.31201172 160.27900696 427.20098877
203.33099365 248.23098755 482.38400269
168.38499451 234.73199463 503.79098511
178.55000305 297.48699951 467.26300049
133.19200134 201.28599548 419.90899658
149.00698853 222.25199890 539.53302002
238.92300415 306.63497925 471.82901001
242.14799500 225.92500305 444.50698853
184.03099060 155.81298828 486.25698853
163.45300293 126.90800476 502.47598267
209.81500244 300.38000488 464.53601074
205.64300537 182.43199158 432.09600830
234.23999023 307.05099487 478.21600342
154.75399780 285.21099854 456.22799683
220.71800232 288.13699341 532.56701660
208.91700745 196.73599243 430.15798950
179.97900391 283.22299194 447.12200928
189.01600647 133.69200134 483.52200317
237.59800720 297.28201294 505.33001709
127.28899384 216.69700623 566.49499512
142.56199646 278.45401001 498.05899048
125.88399506 157.56700134 500.46096802
191.91500854 195.61700439 517.25299072
235.42800903 252.59700012 501.89398193
188.15599060 281.34201050 541.10400391
164.87400818 273.56298828 435.97399902
122.08200073 232.86401367 546.47399902
121.34799957 251.96498108 456.24899292
161.22999573 125.59999847 467.01300049
168.67500305 269.39599609 431.16400146
152.18000793 290.70800781 478.03698730
151.34100342 159.45500183 562.17004395
128.19599915 173.16000366 442.86999512
219.82600403 180.74899292 469.66799927
147.70401001 261.89999390 426.11700439
216.56799316 166.59700012 475.66400146
277.92297363 227.31100464 457.39999390
283.09100342 227.40699768 454.19400024
196.59001160 230.81800842 487.94201660
262.87298584 266.00399780 473.56997681
179.97999573 286.45501709 513.27899170
178.53100586 195.11500549 532.81201172
123.04600525 255.28601074 504.71597290
184.69700623 244.63699341 490.91299438
213.18699646 224.33599854 481.73202515
144.77301025 245.94400024 530.84100342
129.41700745 150.05900574 480.53601074
220.94699097 297.24099731 536.36004639
174.16400146 238.07800293 410.98202515
308.64797974 272.80700684 458.49499512
144.04000854 201.25700378 558.30096436
222.12199402 226.45300293 491.56100464
250.92900085 222.60600281 456.94598389
247.78900146 304.50399780 469.04800415
155.72898865 178.66000366 557.14703369
135.30400085 174.04499817 566.27001953
168.09199524 219.99501038 406.06100464
163.92800903 233.41400146 518.18499756
193.35299683 289.12500000 542.36798096
236.09899902 272.12200928 505.44696045
236.00199890 202.60000610 448.59600830
178.35900879 121.86100006 477.45401001
265.93099976 255.88101196 471.07101440
218.57899475 212.02099609 480.30499268
113.24000549 197.87100220 521.61096191
127.03800201 168.84001160 451.59201050
125.30000305 190.35099792 432.91699219
248.13200378 298.45800781 487.37698364
116.74700165 223.64900208 450.40100098
163.95300293 295.29299927 506.19696045
242.05400085 306.44699097 507.60101318
113.89300537 209.02600098 500.19400024
198.76701355 208.58099365 499.95397949
190.98699951 251.13400269 509.74600220
123.55899811 245.22801208 528.68902588
182.05400085 286.71499634 538.26098633
138.01799011 189.68998718 418.59899902
141.19599915 142.58900452 509.89700317
205.55299377 239.11799622 475.38302612
169.16300964 226.36300659 520.55297852
136.23300171 247.33200073 538.68298340
238.86300659 203.09700012 475.77999878
122.19899750 163.61799622 494.76199341
217.36100769 189.16699219 484.25201416
119.90100098 169.13299561 497.25299072
215.29100037 259.01498413 517.63800049
214.55400085 220.06599426 430.78698730
122.17800140 169.50500488 536.33496094
115.18399811 196.21600342 532.98596191
125.46199799 262.22000122 473.24600220
118.96499634 197.94599915 466.25302124
213.10200500 210.30599976 498.85400391
126.41100311 181.60800171 438.25799561
134.17098999 274.02999878 457.69900513
117.30599976 230.35900879 523.86895752
152.95700073 194.52400208 564.90197754
118.07299805 241.88099670 451.63800049
247.35101318 215.10600281 489.81698608
200.96400452 136.12500000 456.63198853
114.90000153 216.07499695 523.16900635
190.95599365 215.17401123 476.88900757
119.52600098 251.01399231 487.67999268
240.15499878 288.14700317 456.21099854
173.74600220 164.48699951 503.44598389
153.75801086 139.21398926 448.23797607
242.39100647 219.20300293 497.72500610
148.35099792 155.62300110 535.38500977
142.51300049 135.54400635 483.76000977
115.24900055 183.36300659 513.21099854
222.07101440 194.80699158 476.57098389
184.36999512 299.15698242 488.55999756
233.53100586 302.07501221 524.59301758
144.90699768 196.11898804 568.40997314
175.49699402 255.11199951 419.61199951
190.61698914 237.74301147 418.21398926
165.31799316 156.89599609 429.25302124
213.93899536 145.28399658 460.98199463
155.33000183 128.41300964 499.66299438
273.94000244 220.16799927 448.16799927
143.12100220 192.57899475 575.30804443
202.79699707 241.40000916 497.00201416
304.80398560 236.13600159 444.93698120
243.94700623 246.06298828 446.39797974
125.64801025 178.78800964 555.18200684
157.27398682 290.71701050 507.87002563
157.02000427 161.91099548 559.14300537
144.88899231 254.32101440 421.54800415
274.57699585 249.71800232 465.97000122
179.18699646 178.34100342 418.56701660
215.47999573 238.94999695 501.68597412
193.34399414 154.55499268 481.07202148
116.36599731 210.41799927 539.92596436
156.02999878 214.69999695 540.75000000
208.22200012 274.39300537 530.48095703
243.23500061 213.47999573 448.63098145
216.20500183 204.90299988 472.68200684
181.40699768 222.54299927 477.78399658
116.38700104 210.28298950 472.12799072
249.73399353 223.58099365 494.00799561
214.11900330 172.74600220 480.46401978
265.87600708 245.69499207 472.24600220
173.24299622 297.68301392 513.31298828
155.97100830 280.18099976 446.56100464
220.61500549 233.49499512 497.24798584
288.38800049 224.80799866 441.98300171
213.11700439 161.25500488 452.61099243
170.48199463 255.35699463 495.11199951
197.45600891 153.53298950 441.17501831
115.74199677 219.38101196 476.41000366
127.09900665 158.56300354 468.22299194
181.57101440 246.70899963 416.77099609
316.97500610 264.79400635 453.87399292
151.26399231 233.21099854 408.32901001
136.84399414 238.01899719 543.66198730
218.95199585 199.66400146 447.38800049
149.49000549 133.82600403 459.98999023
183.23500061 300.06799316 477.39401245
140.54598999 177.38500977 584.16699219
139.42700195 226.40499878 548.73297119
121.75899506 200.84700012 552.08599854
236.52000427 307.11801147 486.99600220
143.19599915 217.05999756 548.65899658
133.17201233 272.91198730 466.03500366
231.17500305 277.80099487 453.11297607
225.30099487 216.93199158 461.98999023
190.62399292 298.67498779 509.22601318
194.84100342 242.88700867 424.74499512
121.34599304 239.33599854 537.43103027
150.98899841 131.13999939 501.89196777
201.84100342 259.62399292 481.65100098
182.74000549 206.55099487 412.87802124
160.22399902 165.65299988 548.73199463
171.60899353 230.61401367 509.67001343
195.44999695 173.65499878 429.07901001
131.81700134 221.94898987 564.05004883
201.68200684 300.50900269 517.28198242
191.50799561 293.17501831 458.98101807
253.27798462 230.90200806 446.12399292
118.05800629 188.90499878 536.47705078
116.86799622 183.13600159 523.57604980
191.67298889 125.78499603 467.72998047
131.69799805 179.05799866 430.35699463
133.07699585 272.11199951 452.56997681
227.15899658 236.00100708 500.25497437
133.47401428 270.52499390 507.29299927
134.17201233 145.67401123 495.52801514
217.72099304 174.89401245 472.96398926
264.99301147 256.25299072 451.34500122
142.47499084 147.25500488 447.65600586
