ply
format ascii 1.0
element vertex 2048
property float x
property float y
property float z
end_header
304.93099976 290.16101074 474.03399658
121.91200256 157.68099976 522.09002686
182.79899597 227.43099976 391.22799683
178.25601196 283.10498047 530.73901367
228.58000183 144.89500427 468.75302124
120.13999939 238.60398865 464.91000366
141.61199951 149.79800415 430.03399658
250.58999634 224.07499695 512.77099609
219.63099670 282.35302734 450.50698853
122.19300079 229.06399536 567.00897217
300.58898926 213.50700378 442.70397949
185.91000366 203.99600220 482.70898438
181.49099731 122.48899841 515.46600342
247.93598938 293.10000610 516.83697510
206.80599976 164.17999268 406.18801880
238.16999817 221.06599426 424.53799438
129.94000244 207.77299500 411.74798584
163.64700317 282.00399780 472.60699463
166.33500671 195.43099976 538.04199219
179.24900818 119.66899872 457.69699097
115.61399841 182.04100037 466.92498779
145.29399109 242.19499207 513.74603271
152.43099976 256.45898438 424.97598267
269.94198608 261.35400391 445.58599854
137.66799927 136.98400879 479.55502319
202.38999939 243.02999878 508.95297241
256.87597656 205.32501221 467.39898682
112.84100342 203.37500000 510.17700195
163.80299377 180.33399963 391.70797729
127.46399689 181.88400269 563.03295898
217.20500183 237.08599854 464.00799561
203.97099304 165.27600098 503.09097290
206.28700256 287.40100098 494.89700317
267.39099121 261.46701050 491.72601318
209.68400574 254.15301514 415.36001587
235.51499939 178.90399170 438.02600098
316.64401245 251.38398743 455.07299805
207.25900269 203.18399048 519.83300781
180.82598877 135.82299805 419.92102051
162.38800049 156.92298889 527.60101318
222.77900696 187.68901062 475.82000732
213.72500610 204.53298950 398.59197998
254.61199951 289.99700928 468.60501099
283.02499390 233.32400513 470.90899658
184.88000488 274.12799072 437.05499268
215.73400879 280.69601440 532.60101318
205.55599976 121.89499664 484.95700073
212.26799011 141.28399658 436.36102295
234.33000183 261.06597900 508.60202026
136.31300354 263.89599609 487.04498291
174.72999573 225.29501343 522.21600342
277.96600342 293.85098267 498.32400513
126.64300537 180.32200623 432.77001953
120.82599640 228.54598999 533.37298584
238.64700317 255.95799255 435.60400391
127.41099548 235.59400940 431.58001709
265.91699219 227.97499084 441.29800415
149.20700073 232.81500244 402.13500977
148.20399475 131.76600647 510.40203857
158.98100281 281.10299683 504.87399292
139.52799988 261.93801880 454.13699341
117.99199677 232.43699646 498.09701538
148.36799622 220.26799011 546.71398926
225.52000427 226.91099548 492.75000000
118.27500153 211.08599854 448.98501587
164.21200562 121.73600006 485.60601807
119.91400146 163.80299377 491.60400391
127.05500793 155.54901123 456.83599854
115.95500183 184.68399048 534.51403809
230.67300415 205.78700256 452.46301270
180.88200378 178.64100647 516.90203857
192.42900085 285.16998291 463.78900146
152.30700684 131.74499512 451.22900391
291.88000488 263.51898193 473.92999268
180.56599426 252.72100830 409.89199829
175.40899658 254.42498779 511.42196655
159.08000183 153.27000427 406.76800537
284.18798828 285.39700317 454.01998901
112.65100098 210.68899536 479.58099365
193.77200317 185.03999329 391.22998047
207.07200623 259.92501831 477.75201416
236.13299561 291.54598999 490.95199585
139.18901062 179.90699768 406.01501465
140.39100647 166.00199890 543.92498779
160.78900146 209.72000122 391.33898926
261.19000244 227.62100220 487.03598022
203.60200500 137.61199951 507.56298828
220.63099670 229.79199219 405.97399902
116.45100403 207.29499817 552.54296875
250.11199951 279.22299194 444.20599365
225.42401123 184.76399231 414.24600220
292.22900391 243.89199829 448.56301880
167.75900269 234.05000305 496.65499878
225.51199341 164.44200134 487.66500854
205.08700562 125.05400085 459.00198364
201.32699585 218.77700806 499.36801147
246.29800415 206.20300293 490.81399536
133.09300232 250.45401001 535.22601318
141.51400757 143.42199707 531.58496094
195.63999939 268.74200439 519.79296875
181.21699524 161.36000061 398.27297974
181.90299988 283.21398926 491.31500244
184.66200256 151.90600586 515.03100586
213.37600708 187.83700562 501.68698120
112.39199829 188.72700500 490.62402344
145.34899902 193.78800964 550.20501709
232.87500000 170.30499268 462.41198730
163.24700928 273.10897827 447.76898193
129.54199219 144.11599731 501.97201538
222.93600464 290.28500366 511.70199585
251.21998596 246.40499878 500.80102539
208.61000061 271.71200562 432.45397949
142.46900940 266.66598511 513.27996826
222.25601196 160.78401184 427.93701172
192.58500671 126.55800629 439.22799683
113.66400146 178.33200073 512.17797852
165.21800232 132.71299744 528.58001709
187.28601074 206.38699341 531.23699951
220.85200500 141.20300293 492.45001221
307.83700562 272.26199341 459.61300659
217.13000488 287.72299194 474.73098755
199.92401123 238.75599670 401.24197388
315.96499634 229.76000977 448.10699463
252.71600342 208.43400574 445.27798462
159.83699036 133.18699646 428.00799561
258.90200806 279.73699951 502.23898315
218.13499451 205.85600281 488.35000610
281.32998657 293.28601074 474.17102051
193.52600098 207.47399902 391.01098633
128.54098511 251.96701050 504.01501465
236.45899963 200.05899048 429.69400024
125.59799957 202.15100098 571.43298340
227.83599854 241.33999634 422.54299927
227.72000122 154.99800110 448.47198486
202.07800293 146.14900208 418.27499390
184.72099304 118.31499481 482.32702637
282.18200684 221.10000610 452.62701416
156.39999390 177.20399475 535.95501709
214.24899292 261.15600586 513.90899658
191.02799988 286.58102417 509.57299805
231.09599304 209.65400696 472.73901367
161.73100281 271.41799927 522.88195801
156.17700195 231.98899841 531.72802734
186.38000488 268.73901367 477.51599121
121.95199585 202.31300354 430.94699097
156.73799133 250.89401245 499.34500122
145.20600891 198.34298706 397.13800049
130.02101135 240.53199768 552.48803711
256.45300293 247.54100037 439.42898560
220.92199707 214.96600342 508.17602539
228.47200012 241.75999451 505.66900635
207.21400452 230.62699890 484.51599121
139.72300720 241.72799683 417.16400146
161.12800598 247.29100037 408.66101074
145.77500916 273.40701294 472.24798584
169.98899841 265.31100464 427.42199707
274.55599976 244.10000610 485.12399292
166.47100830 215.90399170 540.15899658
279.03198242 277.47399902 487.45901489
289.11798096 266.62200928 451.14801025
266.52999878 223.01701355 468.69201660
115.62999725 208.51800537 533.15399170
299.85800171 230.16500854 459.96600342
128.06999207 246.86099243 447.27099609
236.27301025 287.38000488 458.93099976
258.79299927 293.26699829 488.55599976
128.84999084 254.34300232 471.71701050
139.37998962 163.37998962 415.79299927
120.63800049 190.37200928 447.97000122
197.75700378 220.01298523 518.13104248
123.55500031 239.16000366 517.32897949
139.22799683 209.64300537 559.72601318
185.71299744 234.97499084 504.23800659
152.42199707 127.54899597 471.77401733
235.84300232 283.55398560 528.07403564
227.08999634 209.36000061 411.25698853
194.82499695 121.04699707 502.20196533
197.05101013 283.40100098 531.53302002
197.77799988 185.75100708 512.78698730
228.51699829 187.69499207 456.76602173
122.91799927 171.78599548 547.20996094
194.63500977 264.36599731 422.47198486
173.18699646 123.72299957 440.55798340
298.05599976 247.05200195 467.89999390
218.85800171 136.92900085 455.05599976
139.51499939 142.10299683 459.65002441
265.80398560 286.20800781 450.92199707
211.02899170 186.35800171 399.80700684
120.29399872 229.23100281 447.63101196
116.67700195 222.25900269 516.03900146
167.72399902 122.64999390 503.51296997
177.69799805 193.10400391 388.56900024
201.27799988 245.49800110 468.33801270
125.69699860 157.41999817 475.60598755
131.24099731 163.65699768 441.13998413
204.24600220 221.17399597 395.81500244
218.33599854 129.65699768 474.86001587
128.53900146 190.06500244 417.73599243
293.58898926 294.26000977 487.27999878
164.69499207 228.52299500 394.22399902
227.86499023 269.75399780 439.27401733
115.71399689 200.31100464 463.01498413
249.19200134 232.22898865 433.09899902
116.70899963 228.02899170 479.33502197
132.13600159 225.86599731 414.54602051
152.05599976 278.31301880 488.77398682
122.77200317 243.63000488 484.39401245
177.32701111 280.42199707 454.86599731
198.89299011 215.55000305 482.22601318
141.22299194 216.33599854 401.79501343
152.19700623 168.03100586 400.97000122
243.16400146 277.27697754 512.04901123
274.34899902 242.64300537 444.25000000
149.33399963 128.19198608 491.11398315
252.72700500 263.80700684 501.32696533
197.75700378 285.30697632 479.94900513
161.27200317 229.48199463 511.67297363
121.77400208 171.50199890 454.83599854
262.75698853 295.11099243 508.97903442
174.41200256 284.62500000 511.37399292
116.90899658 220.22099304 463.00399780
180.00399780 190.48400879 528.76403809
112.50499725 216.69200134 496.18200684
135.98600769 250.03201294 432.94799805
183.53700256 148.02999878 407.97201538
238.28401184 217.57901001 503.66003418
223.94200134 274.73699951 519.43597412
203.15901184 280.72198486 449.49798584
208.33599854 286.94400024 518.42999268
264.63101196 215.69499207 454.13397217
122.73000336 218.57899475 431.61401367
120.36799622 227.65600586 550.04699707
142.59700012 235.56700134 539.92199707
254.03100586 263.49600220 441.20599365
220.38699341 260.63998413 428.15399170
173.54699707 240.81599426 400.67199707
179.42700195 138.57499695 522.34100342
220.81599426 226.42700195 477.05999756
188.27598572 166.88699341 508.83596802
180.17900085 176.62799072 390.76901245
187.63600159 222.80900574 492.15899658
132.63999939 253.52400208 519.36798096
161.17500305 261.62100220 510.30099487
173.32400513 162.84700012 517.48699951
236.95799255 289.29598999 474.74700928
222.38198853 180.45001221 490.94302368
179.81700134 268.20498657 520.05603027
257.23699951 216.60800171 497.69000244
176.27600098 209.64300537 388.57202148
135.00698853 146.99499512 445.40499878
191.04699707 254.72000122 512.91503906
179.19699097 282.94598389 474.32000732
136.81800842 140.62100220 516.35699463
164.06799316 123.16400146 458.48501587
147.19900513 136.42199707 436.53500366
215.80999756 155.21900940 496.91799927
259.78601074 212.86499023 482.63900757
155.65699768 204.60699463 546.30603027
152.31500244 143.92900085 419.85601807
151.09199524 263.47299194 438.57699585
131.25500488 154.14399719 535.50396729
230.71099854 174.30900574 477.05297852
229.45300293 192.89100647 442.37802124
194.01100159 170.58299255 396.22000122
218.97000122 168.36099243 414.46301270
293.55200195 278.30099487 477.45700073
138.72698975 180.01300049 550.58099365
117.23500061 171.48199463 477.85601807
248.82798767 294.14001465 501.63601685
168.48200989 141.96699524 413.46200562
221.01499939 198.82800293 465.59799194
302.17498779 255.87200928 453.95498657
194.88301086 119.35900116 471.08798218
186.24800110 220.09700012 508.24301147
117.91600037 171.10400391 528.10699463
298.03100586 285.52499390 461.40399170
242.25799561 233.38999939 504.29498291
171.37699890 119.27799988 472.56900024
232.91300964 212.42399597 487.78701782
112.03900146 194.46900940 476.71499634
135.75500488 224.08599854 557.41796875
294.67599487 227.58700562 446.09799194
279.57000732 263.23501587 482.52001953
220.23999023 289.32199097 489.30499268
241.84700012 207.64001465 462.03100586
214.25900269 233.69200134 499.31600952
168.70300293 174.59201050 524.95196533
198.73799133 151.35299683 506.22897339
128.92199707 216.21899414 568.79901123
118.73000336 185.96099854 548.78802490
118.28500366 162.47399902 508.78799438
250.62799072 217.05200195 433.72299194
285.34500122 248.27299500 476.27899170
150.41198730 183.65299988 396.35501099
155.87300110 143.73199463 533.89300537
194.96899414 134.74600220 427.46798706
194.02099609 195.17399597 524.97796631
227.65000916 150.29899597 483.49801636
208.90100098 287.61700439 462.86099243
191.98001099 135.44900513 515.94500732
209.95500183 128.36900330 497.07098389
276.57299805 274.80798340 448.04498291
144.35000610 271.09100342 499.76501465
235.82699585 280.36199951 446.43597412
214.99099731 202.01499939 502.92199707
150.39999390 272.02798462 458.81201172
113.57399750 196.01200867 526.18402100
142.68099976 253.79199219 503.68798828
197.11300659 251.47000122 409.20098877
246.50199890 203.04598999 476.87899780
200.06700134 233.23799133 498.52099609
111.62299347 202.59599304 494.54699707
270.65301514 291.02297974 465.08398438
162.05300903 194.37199402 390.54501343
305.94900513 240.34201050 449.23498535
126.84201050 149.06700134 488.96398926
134.41699219 195.86700439 562.30004883
256.50299072 230.39900208 501.59799194
222.25199890 196.02999878 405.94799805
233.21400452 169.34800720 448.35998535
175.94300842 212.31100464 477.28298950
167.17599487 161.81098938 398.61898804
168.53700256 284.47198486 487.22399902
210.14599609 272.93801880 521.12799072
180.78399658 119.85900116 495.68899536
147.71099854 155.74800110 538.09796143
204.64999390 129.56399536 445.94601440
163.69000244 126.12299347 516.25799561
236.36299133 292.19897461 509.13696289
138.20199585 134.81298828 495.86801147
213.38101196 156.30101013 418.06997681
115.37699890 197.45500183 541.35198975
195.17999268 155.04199219 405.80599976
281.56997681 253.49700928 448.54901123
202.97099304 195.72200012 393.89498901
131.68499756 172.00599670 423.12698364
166.83200073 256.36300659 417.08801270
154.55499268 237.25601196 502.71398926
263.63400269 241.32199097 492.75601196
150.40199280 134.67100525 523.51397705
217.28199768 247.11300659 511.22497559
228.97499084 225.42298889 415.65298462
231.86199951 186.54100037 427.55499268
222.73799133 287.81597900 462.51699829
118.73400116 196.10301208 559.61602783
210.53099060 217.25000000 488.67098999
153.11199951 219.72799683 395.88101196
142.26499939 246.47399902 526.30297852
213.98500061 248.97200012 470.78698730
252.78100586 287.79101562 455.54101562
168.97100830 245.14100647 503.99798584
210.90798950 216.65299988 516.80999756
270.31298828 293.17501831 481.67102051
215.16300964 243.20500183 410.17401123
304.69198608 259.90301514 466.35800171
230.59300232 198.24699402 417.49700928
115.14800262 177.49099731 497.00601196
229.05300903 173.64500427 427.53500366
231.25399780 157.27900696 463.61999512
174.37001038 225.70001221 507.79498291
217.92300415 192.58299255 487.00500488
117.44999695 219.09800720 559.53399658
191.98300171 121.01600647 454.96899414
158.61199951 127.85999298 440.43698120
185.31500244 217.36100769 520.94104004
170.78300476 279.92401123 499.51199341
125.42100525 239.00199890 539.60504150
154.84500122 189.94799805 542.19195557
221.01800537 150.81800842 437.49401855
136.66999817 192.61599731 405.08300781
233.63800049 182.84599304 467.66000366
240.23400879 243.86300659 431.25598145
174.40600586 206.53900146 536.07000732
212.05101013 174.84100342 499.95700073
192.30799866 210.82800293 492.67102051
215.70700073 218.35400391 400.86001587
312.79598999 218.83900452 442.27099609
179.82701111 261.67700195 420.13800049
186.19400024 239.86199951 399.32699585
240.46200562 206.49301147 442.33300781
239.76600647 247.71499634 506.20596313
282.75399780 231.36000061 443.73800659
132.13899231 149.13700867 468.42199707
271.07598877 231.42401123 480.04699707
302.33099365 271.93899536 471.04498291
208.29899597 193.77600098 511.54000854
168.69999695 282.49401855 522.35797119
171.61799622 149.71299744 523.13299561
117.55199432 217.02799988 542.13897705
264.70700073 273.56298828 444.33798218
136.74299622 265.06701660 470.20901489
187.52899170 285.88101196 521.48999023
238.11499023 182.95100403 449.49200439
196.82499695 276.08801270 439.80200195
240.09199524 268.83502197 441.11801147
130.38099670 255.09300232 458.93499756
214.17900085 175.89401245 405.63198853
276.95700073 226.49000549 462.46902466
267.48498535 275.72698975 494.31100464
212.90299988 237.68399048 475.57501221
172.70199585 273.09899902 438.50500488
128.81800842 254.22799683 486.61700439
208.47499084 122.86800385 472.35699463
153.69000244 272.98501587 513.80200195
120.82199860 163.87599182 466.43499756
222.75199890 287.49200439 525.28100586
203.74200439 287.69000244 506.82901001
220.75100708 251.40199280 420.24200439
188.85501099 275.14099121 528.00695801
112.77700043 187.30700684 503.71496582
217.71200562 200.53700256 477.49398804
122.34299469 191.21099854 435.77999878
156.35000610 125.72599792 500.81903076
146.63699341 153.79199219 414.66702271
295.57800293 276.47399902 453.84899902
193.87799072 229.75100708 395.26599121
225.46699524 213.09399414 497.15301514
125.43499756 211.42100525 422.19998169
194.51100159 285.44802856 494.98098755
151.61299133 248.71798706 415.72299194
281.74499512 294.69998169 486.28198242
229.17599487 165.46699524 437.89898682
206.43800354 263.31799316 422.87200928
124.91200256 163.81700134 538.66101074
260.60699463 216.08999634 440.04501343
135.58999634 162.48300171 430.18298340
137.98100281 256.68600464 442.53900146
135.68200684 263.06301880 500.55099487
170.77099609 128.88101196 429.38900757
184.67199707 128.82701111 430.73400879
177.81799316 216.08200073 529.97100830
197.53601074 176.08100891 506.03802490
212.90699768 142.48600769 501.05203247
125.02301025 180.03199768 444.42098999
223.95199585 137.97200012 481.60601807
177.94999695 274.74200439 483.01501465
231.65798950 227.37100220 502.71795654
167.54800415 225.51399231 531.44995117
314.22299194 262.77499390 457.14398193
212.57600403 148.66299438 426.89300537
173.27000427 220.65399170 391.36801147
168.54100037 184.08100891 531.76898193
187.16799927 193.43099976 487.53802490
287.20501709 291.28997803 464.27899170
184.22799683 245.36700439 511.37603760
217.14199829 289.73901367 501.58398438
183.05300903 117.93000031 470.78100586
216.29199219 129.70899963 487.37100220
306.68399048 223.59498596 451.53799438
198.37200928 206.85699463 526.39105225
151.34500122 237.80099487 522.64202881
129.72900391 149.30899048 523.98504639
190.77700806 218.75199890 391.08200073
187.44400024 216.87600708 480.93899536
210.13200378 231.72299194 401.48602295
260.38598633 253.87701416 496.93499756
126.88699341 243.34800720 528.54595947
147.60499573 133.93499756 461.54400635
123.72499847 241.03399658 505.94299316
152.22599792 165.89500427 535.02600098
306.82800293 245.06199646 460.72702026
166.69699097 278.23400879 462.17599487
229.75698853 160.77600098 477.63699341
253.92800903 205.08599854 456.34298706
232.92700195 271.69900513 512.49896240
146.81401062 178.14500427 542.77600098
187.95399475 280.16201782 450.77999878
234.97700500 211.15599060 419.93002319
234.04200745 231.89399719 423.75100708
202.29400635 255.87300110 514.03302002
275.51400757 222.13200378 443.48800659
210.78099060 220.33299255 505.45501709
293.31900024 236.50399780 467.36199951
113.77199554 185.13800049 521.24401855
203.83399963 177.73899841 398.24798584
239.28800964 224.63999939 512.84100342
190.74499512 142.71501160 414.82699585
114.12799835 210.11500549 468.45901489
249.38299561 215.34100342 505.83099365
215.45199585 275.01101685 440.66101074
174.66500854 128.52099609 523.24096680
222.87699890 135.62400818 466.39401245
123.58000183 152.95300293 512.18499756
156.86300659 224.11599731 539.51300049
118.72200012 209.39099121 566.63000488
142.71299744 253.32200623 514.84600830
230.36601257 251.48901367 429.84197998
114.00599670 179.48699951 484.84997559
142.89698792 249.70599365 424.06201172
139.83699036 233.44099426 409.93801880
163.26199341 268.17501831 435.78402710
205.05900574 208.79100037 393.35098267
258.74200439 235.78399658 438.44198608
160.47300720 239.09098816 401.40200806
210.55500793 287.76498413 484.39999390
224.79400635 255.09899902 511.48098755
146.81999207 207.69799805 552.01696777
194.48899841 120.37800598 491.29000854
202.79598999 133.55099487 435.93499756
122.91699982 245.37100220 473.40301514
130.55799866 173.40501404 554.78796387
244.87799072 257.30300903 505.69097900
193.18998718 125.16400146 512.65301514
173.12699890 149.82501221 405.51901245
117.54000092 217.86999512 528.02404785
126.64300537 200.70100403 419.25698853
144.41700745 272.75698853 482.97000122
308.93701172 280.37597656 469.58398438
119.52400208 219.67298889 442.53201294
231.65400696 290.11898804 519.73400879
120.22799683 182.14799500 455.88699341
122.22799683 238.45500183 454.31399536
181.17800903 285.20797729 502.98101807
274.55300903 284.09399414 495.23800659
126.57199860 227.23400879 424.83401489
137.72900391 231.95500183 550.34399414
118.89900208 231.98999023 509.22500610
142.28799438 139.09600830 445.86499023
290.19400024 217.92500305 444.69100952
150.46200562 209.31401062 394.27099609
291.98300171 223.98899841 456.11898804
171.61000061 170.31900024 393.83700562
123.74600220 244.42199707 495.80999756
155.53599548 276.85101318 466.84100342
291.97799683 293.88800049 473.68801880
164.93099976 229.61300659 521.97198486
136.89199829 205.18901062 404.13201904
217.71000671 165.91699219 494.71899414
151.83099365 268.48001099 447.91400146
125.54900360 192.40699768 566.92895508
119.01599884 201.30300903 445.03399658
147.36199951 246.44599915 497.33099365
225.01400757 235.52699280 414.20098877
245.03498840 291.13598633 481.28198242
243.42800903 208.74600220 432.46398926
225.04399109 196.88000488 452.68499756
152.31600952 279.36801147 477.95001221
192.23399353 197.12799072 389.60900879
224.08500671 266.05200195 513.16900635
189.43699646 276.30697632 470.91299438
205.77398682 254.94500732 467.49301147
254.74198914 285.46701050 509.96499634
224.66699219 219.34098816 408.29000854
129.15899658 233.42800903 560.13696289
316.25100708 241.30999756 450.75000000
244.75799561 288.63000488 465.38299561
181.00099182 268.52499390 427.92700195
229.90599060 289.89999390 482.77600098
174.36199951 119.53199768 486.23300171
131.47898865 146.29299927 480.07598877
123.87699890 152.64700317 500.17703247
150.80299377 261.22299194 509.82397461
214.89100647 207.84400940 512.73297119
140.23500061 138.54600525 469.37899780
228.51599121 290.97598267 502.45098877
188.54199219 257.69497681 414.28598022
182.65800476 122.37899780 444.54397583
202.62500000 127.57499695 505.27603149
118.13600159 229.15998840 469.16198730
119.42700195 174.83999634 537.98004150
205.37799072 245.63099670 407.22799683
267.64602661 250.43299866 443.73101807
287.36999512 282.99700928 485.06100464
268.18298340 251.06098938 490.85501099
205.03700256 277.19198608 528.95599365
114.45099640 209.30099487 518.40899658
299.07901001 266.03799438 453.46600342
169.58599854 121.52999878 449.89099121
213.88000488 129.69000244 461.31799316
194.87200928 271.23800659 429.99801636
218.01699829 220.11900330 494.96701050
165.06900024 143.45899963 529.50799561
214.22100830 136.99899292 445.98599243
204.59399414 154.12899780 412.48699951
204.14500427 184.66499329 504.41598511
200.10800171 225.30398560 489.37899780
265.66500854 287.39898682 503.14801025
151.62300110 242.09600830 408.11300659
172.68800354 184.36700439 389.12002563
133.90899658 259.49902344 509.79501343
269.21002197 294.39498901 493.41699219
131.71499634 236.09599304 422.51300049
168.85200500 266.09899902 518.21203613
285.70700073 272.97698975 480.73501587
125.85699463 239.87100220 440.47900391
132.27799988 140.70098877 489.52297974
160.11500549 172.03100586 395.86300659
165.13499451 279.59100342 512.57403564
135.86900330 153.16499329 437.62500000
124.11800385 193.21600342 426.09399414
249.74600220 273.63397217 505.51300049
162.10600281 283.78601074 494.80102539
202.96398926 211.89799500 492.31402588
136.63600159 186.38198853 557.93701172
196.95700073 286.54699707 517.56195068
192.79299927 144.72100830 512.45898438
131.81900024 179.45500183 416.55700684
114.50599670 220.18000793 473.66299438
207.23699951 287.80099487 473.88198853
211.64799500 239.66899109 507.71600342
243.59899902 284.98397827 450.51199341
146.10198975 130.46299744 478.83499146
153.99501038 125.28799438 482.86502075
206.86199951 155.41799927 501.11502075
235.61199951 278.69702148 518.93701172
223.95500183 144.77899170 451.92300415
203.73100281 139.30299377 427.97698975
175.73100281 182.32800293 525.24603271
297.00198364 287.72698975 480.74200439
262.80599976 224.23001099 477.71398926
144.46200562 168.12500000 407.02398682
119.18000031 219.93400574 569.15100098
226.80400085 206.50199890 463.66000366
238.55899048 209.69499207 479.09298706
131.39801025 159.62800598 544.69403076
167.50000000 202.28399658 388.61999512
151.42401123 159.34400940 406.12399292
177.17100525 239.94700623 505.19799805
259.11999512 295.13201904 499.90600586
181.55999756 283.34500122 463.17602539
171.71398926 273.52801514 524.79199219
159.11599731 262.21697998 429.25000000
160.18499756 168.47599792 529.99798584
226.04400635 209.80299377 481.37301636
201.73699951 220.69799805 509.08898926
186.22599792 279.78598022 481.96798706
160.61199951 123.77300262 468.08099365
216.73600769 224.46400452 485.68099976
125.62100220 248.04299927 463.65402222
310.14498901 233.29701233 455.04098511
182.03001404 227.48999023 499.25198364
195.96199036 160.90199280 506.43096924
173.28601074 233.05400085 394.09802246
243.36999512 284.46600342 522.00695801
224.82598877 175.64601135 417.40200806
122.54199982 228.34100342 438.27200317
165.99699402 135.93299866 420.59100342
164.49800110 206.60899353 541.85101318
189.27200317 186.71501160 517.22503662
117.13899994 168.94499207 518.74200439
185.22299194 119.24199677 507.19201660
242.59999084 266.55899048 507.06295776
261.89199829 292.07101440 477.15301514
179.71499634 277.58898926 444.37799072
292.97500610 256.24298096 451.22598267
113.97500610 215.23500061 510.08700562
188.57299805 179.06999207 511.18301392
276.77801514 253.34999084 483.95300293
138.83100891 154.42300415 541.63403320
153.72799683 200.65798950 391.80697632
118.88999939 234.81900024 488.87301636
117.94999695 228.04899597 457.60400391
132.68199158 260.17999268 478.25598145
115.40599823 207.40299988 543.07995605
224.30400085 188.14300537 465.28399658
128.05000305 246.80699158 512.14099121
247.93699646 254.43801880 436.89999390
119.50600433 208.24598694 437.94400024
117.85399628 173.19099426 464.33200073
232.51899719 162.92799377 456.11700439
223.21200562 154.41999817 491.05700684
249.88000488 237.21299744 499.02001953
177.71301270 285.05798340 521.16400146
147.48098755 130.69400024 501.05099487
247.44599915 201.56799316 467.60897827
226.26699829 287.98999023 472.43801880
260.22900391 266.98699951 496.60198975
115.77700043 169.99800110 502.67202759
248.96299744 243.72099304 434.77999878
245.67500305 224.28999329 429.21600342
220.66200256 210.91300964 403.80297852
160.89401245 284.00000000 481.77798462
158.94000244 145.65800476 413.42602539
119.74600220 236.68800354 475.00900269
141.48800659 225.41600037 404.12701416
179.30200195 198.91899109 533.65197754
242.54100037 208.12800598 452.69702148
245.29100037 292.81198120 492.42498779
156.99099731 213.84799194 545.66595459
234.97499084 176.32600403 455.30099487
129.23200989 172.16700745 437.82498169
218.57400513 186.79598999 405.30599976
134.79701233 218.61100769 408.17898560
191.28898621 218.44599915 500.57400513
117.89800262 190.35400391 459.64700317
161.09600830 243.25299072 496.27899170
261.11099243 215.91400146 462.75399780
274.76599121 228.95899963 471.17001343
185.02000427 187.00900269 388.75500488
135.97900391 241.53999329 542.55804443
279.11599731 239.57499695 478.42498779
214.66200256 195.85198975 495.05297852
200.43598938 285.40399170 459.11199951
163.91600037 219.89900208 390.92901611
130.18199158 145.58599854 512.23699951
261.41400146 215.44200134 473.91000366
179.58200073 167.39498901 512.43701172
143.42098999 255.47599792 432.41400146
255.43800354 206.34100342 477.80902100
288.53601074 229.56599426 463.67098999
135.61299133 139.61000061 507.19500732
257.96697998 282.74099731 447.38598633
222.30101013 234.21199036 472.45300293
283.06002808 240.53999329 446.08300781
311.11700439 255.04400635 461.36901855
150.40899658 139.57400513 427.66500854
233.45999146 231.40800476 493.29199219
241.30900574 213.80900574 495.90200806
224.36499023 221.82899475 501.30801392
149.49700928 276.15100098 505.35000610
202.97099304 186.69999695 395.23800659
285.59399414 275.57998657 449.13598633
129.51600647 156.71600342 446.77099609
210.33300781 243.04600525 463.70700073
155.12699890 153.19400024 533.48199463
167.08200073 253.32200623 507.50100708
261.61398315 258.49801636 441.71099854
131.62199402 198.92300415 410.49798584
168.17698669 121.50499725 493.78201294
193.50799561 215.10099792 524.48999023
117.06300354 201.11000061 454.06201172
256.15399170 227.14399719 435.97097778
184.54499817 262.15899658 515.21496582
203.50900269 264.56298828 516.34094238
172.63500977 249.04400635 407.51000977
192.91799927 246.48199463 509.06698608
140.30000305 200.75700378 557.45202637
279.38101196 266.23400879 448.78701782
185.59100342 129.95600891 519.25500488
201.61000061 194.25700378 520.13098145
158.11199951 124.93199921 491.47497559
225.53500366 276.62100220 444.67602539
298.44299316 235.32499695 448.90002441
224.96600342 186.39401245 484.65798950
160.89799500 121.91699982 477.21401978
195.12500000 119.43600464 480.09301758
123.66300201 157.14700317 486.57000732
279.01101685 290.60699463 459.22500610
220.14799500 238.20799255 505.15097046
307.26800537 249.11500549 450.91302490
194.29899597 162.77299500 400.63198853
151.85700989 236.14700317 512.88098145
275.77200317 284.98797607 450.96701050
228.77799988 262.25299072 434.46298218
174.43899536 278.26397705 491.32699585
146.85000610 227.91799927 541.76403809
187.32699585 247.14599609 404.37701416
133.32800293 204.30000305 565.04101562
139.56199646 144.83700562 437.17199707
192.25000000 229.37600708 500.45401001
112.89100647 194.53700256 511.44097900
114.85800171 224.52500916 487.33300781
245.25601196 231.27299500 512.96301270
206.45399475 276.60998535 442.30200195
301.38998413 238.50999451 463.35900879
210.49299622 215.72200012 497.83999634
291.63400269 254.69300842 472.80899048
226.81599426 281.67797852 530.63299561
195.99699402 238.29600525 504.58401489
111.57499695 209.69801331 488.33502197
141.27999878 155.11700439 422.94601440
225.42601013 234.15798950 497.85800171
154.22299194 128.37199402 459.58898926
186.65798950 154.88000488 403.30499268
212.54600525 195.80999756 399.51300049
142.17300415 215.80799866 554.10302734
260.17199707 290.14199829 461.75399780
119.77300262 230.30099487 517.90496826
121.79700470 180.39199829 554.88500977
220.25799561 268.68200684 434.96899414
273.27700806 266.75701904 487.56997681
210.28399658 253.33601379 511.37100220
126.89599609 168.04899597 447.38900757
213.49499512 285.76400757 525.44097900
227.23999023 147.41999817 459.62399292
227.56401062 285.40100098 452.68698120
147.06399536 235.32899475 532.38201904
111.62100220 202.60499573 482.78201294
250.52101135 211.03199768 497.95401001
132.21701050 259.06399536 493.60598755
111.68400574 198.39900208 502.19201660
113.89300537 184.11999512 475.21701050
310.76699829 272.04800415 467.84298706
249.04299927 270.62402344 441.00601196
173.11700439 121.18800354 510.18399048
271.26699829 220.08299255 457.64300537
181.75500488 211.52200317 484.75598145
140.50500488 242.47599792 535.07800293
156.36900330 227.71899414 396.92300415
144.47300720 245.43499756 505.45101929
257.82702637 222.95600891 505.85501099
233.05900574 202.01699829 441.88800049
254.37199402 209.26600647 490.32199097
182.38999939 217.86401367 389.17098999
266.57998657 237.40800476 441.71099854
133.09700012 254.68400574 449.37899780
123.00799561 160.35800171 530.23101807
267.60101318 235.85099792 487.37799072
202.30700684 230.59600830 398.01599121
113.51399994 200.50300598 518.81402588
184.06300354 159.56098938 511.09201050
198.41799927 124.84599304 449.59301758
153.52299500 192.18899536 393.42001343
201.37100220 287.88800049 467.31698608
140.96299744 266.89599609 462.94097900
230.05299377 216.51100159 415.00000000
157.33000183 135.43299866 530.65197754
139.71499634 259.25399780 520.29504395
122.83899689 235.58900452 552.22601318
213.99099731 230.54499817 491.09100342
169.66999817 277.41699219 452.44000244
185.69599915 168.21099854 395.72598267
204.89199829 145.59899902 504.67700195
201.39500427 286.48098755 487.94601440
136.70800781 254.20600891 526.84497070
143.30198669 186.69000244 399.97399902
252.69401550 294.84500122 509.19299316
121.42399597 229.60301208 541.80096436
214.55700684 266.82699585 428.54602051
305.82800293 230.36900330 446.46600342
301.14401245 221.95201111 443.49899292
148.95899963 176.04600525 399.85702515
247.91101074 283.82299805 514.86596680
231.05599976 220.80198669 508.05300903
133.80799866 244.00999451 427.38699341
141.40499878 268.18099976 492.36700439
273.39801025 230.96699524 443.93099976
198.77000427 120.89300537 462.79998779
219.13600159 241.98199463 471.34701538
203.09400940 285.00302124 524.76104736
129.04299927 224.27600098 565.80297852
271.91601562 217.52700806 449.55599976
284.81900024 292.04400635 493.77899170
201.44200134 122.30699921 495.61700439
112.42500305 206.77499390 501.98101807
145.20399475 137.12400818 453.49899292
159.22999573 274.44601440 455.02499390
118.90800476 161.81700134 500.44201660
261.40902710 224.99301147 497.47299194
194.37500000 208.49398804 482.00100708
215.16000366 230.64399719 469.91598511
197.14399719 275.12500000 526.83697510
144.62199402 147.36900330 538.28100586
219.98600769 144.40899658 444.56500244
157.63899231 130.53900146 522.80596924
213.30000305 258.64700317 421.41400146
190.40399170 177.73599243 393.84600830
156.15899658 257.05902100 504.94998169
233.77198792 187.81199646 437.34802246
140.93600464 132.78399658 488.25299072
139.03300476 267.46099854 477.86099243
116.28600311 211.33898926 457.07000732
229.01100159 150.54200745 475.28698730
135.68400574 170.79899597 415.10198975
175.48899841 172.36599731 517.70397949
237.68598938 292.55499268 500.94097900
238.89100647 208.67698669 470.10800171
198.56999207 257.10299683 415.09301758
113.97899628 189.89099121 468.94500732
196.02000427 261.14801025 515.55096436
128.47200012 166.33200073 549.97998047
137.90798950 143.64401245 524.15594482
123.90699768 236.33399963 531.72302246
253.86801147 292.13601685 482.03201294
257.49398804 236.50000000 495.42300415
187.41400146 280.43698120 534.16503906
162.24198914 125.25000000 449.43698120
271.32498169 290.19000244 456.28198242
185.67800903 206.64698792 388.64401245
162.53399658 186.77699280 536.70397949
120.16200256 229.93400574 559.08300781
158.14300537 269.13198853 442.68301392
128.03498840 181.40899658 423.58898926
228.94099426 182.25700378 478.14398193
218.34098816 207.60299683 496.37402344
186.23399353 198.39199829 529.27703857
183.87100220 144.14599609 518.25701904
304.58599854 279.56500244 461.47097778
235.18699646 238.41699219 502.35598755
285.58901978 258.32400513 476.97500610
299.20501709 247.11099243 451.37701416
174.47300720 283.37698364 481.70401001
204.89799500 173.35400391 503.77899170
212.64700317 131.69200134 453.50399780
149.24099731 138.37300110 530.69195557
288.22500610 241.74800110 472.33001709
218.49600220 174.34400940 494.69000244
192.53399658 283.55200195 472.98101807
174.60200500 256.37600708 414.64901733
150.12399292 132.60800171 443.10501099
226.29598999 175.89401245 483.70001221
156.80700684 128.22300720 512.46899414
143.99600220 136.84600830 516.89099121
113.65299988 202.46699524 471.14898682
209.71701050 283.29598999 453.53698730
119.91100311 187.88499451 557.33001709
220.29800415 187.24900818 494.74398804
165.55899048 163.83500671 524.94299316
144.45799255 184.79501343 547.55596924
117.40499878 217.53599548 551.65100098
122.93600464 162.44099426 457.04998779
231.56001282 251.65501404 508.86099243
206.64500427 234.80799866 503.75302124
142.82701111 262.29400635 446.83798218
151.44300842 276.96499634 496.65002441
159.09799194 256.18298340 420.54098511
134.50199890 185.31799316 409.60601807
211.65800476 288.72998047 507.42297363
297.33898926 217.24299622 448.99401855
131.71200562 149.13600159 455.72598267
118.11499786 219.95800781 455.10800171
134.74899292 215.24200439 563.42602539
157.93800354 233.40100098 521.32800293
269.06201172 280.23898315 446.75201416
135.11499023 261.21600342 463.41799927
231.15299988 166.02200317 471.80798340
212.52900696 161.58399963 412.17700195
177.26699829 156.01899719 516.39697266
168.74699402 227.17199707 515.43402100
172.45100403 190.91500854 532.84899902
169.11299133 228.19400024 502.39300537
201.00300598 166.99198914 401.13800049
118.17300415 170.05599976 487.04000854
126.61899567 218.91600037 419.89898682
239.83399963 234.60101318 428.42999268
207.49301147 171.94200134 402.20800781
176.77299500 155.57199097 401.48602295
298.03601074 290.43099976 467.59799194
225.86999512 290.56900024 494.70300293
195.47399902 279.47802734 448.18698120
300.40402222 280.85299683 474.49401855
197.95799255 149.94799805 411.73898315
202.24900818 212.38499451 522.33502197
284.59799194 223.38500977 443.78201294
183.08799744 140.95500183 414.35302734
283.69299316 226.24699402 458.42800903
127.84999847 243.55200195 545.56604004
160.79499817 199.68701172 542.11096191
183.25700378 254.44099426 511.17999268
144.97500610 267.55099487 454.58999634
206.81298828 245.10000610 473.86599731
225.54301453 156.87699890 439.50799561
188.14900208 269.77899170 521.78302002
115.31099701 222.16400146 506.72299194
182.66200256 186.17500305 522.81396484
136.05499268 172.13700867 549.39599609
165.78100586 127.34000397 435.18298340
244.89399719 290.02600098 473.56500244
218.25199890 147.79199219 495.70700073
290.83898926 286.25802612 457.99499512
119.83600616 178.94500732 545.57598877
223.09899902 206.12800598 470.50698853
269.25399780 294.23599243 504.20599365
267.45797729 219.05999756 442.23202515
199.68800354 216.38700867 391.72000122
126.11800385 250.27700806 478.51602173
121.11599731 231.07600403 526.03503418
286.41998291 294.54101562 479.89999390
167.37901306 212.49101257 388.31201172
216.37199402 135.50199890 495.22399902
250.64999390 232.27700806 507.47198486
197.70399475 131.42900085 511.88201904
183.67500305 209.65499878 477.47900391
210.06500244 162.43399048 499.23300171
226.81599426 166.69200134 430.11700439
145.56500244 148.69000244 422.46099854
229.80599976 189.21899414 420.59100342
166.10600281 155.28500366 402.63900757
230.57000732 287.85800171 466.00698853
166.23500061 236.10000610 397.19000244
207.59199524 232.12599182 495.71600342
218.54499817 288.51898193 518.87298584
223.13800049 193.90800476 459.56600952
175.40399170 281.75299072 467.56399536
235.81799316 263.29602051 437.84298706
258.31298828 245.40600586 496.58700562
310.38098145 256.24200439 453.77499390
141.93199158 134.45399475 504.86303711
193.33699036 220.89900208 487.33401489
163.18200684 178.57398987 532.34399414
182.58699036 285.74301147 510.53601074
117.65299988 203.71699524 559.82800293
187.49299622 119.23000336 499.84899902
119.04199982 221.23600769 534.86505127
243.76300049 293.56301880 507.65802002
254.05401611 254.59199524 501.20098877
116.91300201 194.15899658 548.09899902
127.58600616 154.94599915 466.36099243
219.58300781 193.34300232 470.74801636
270.71801758 268.92501831 446.43099976
136.49600220 148.58599854 534.18701172
158.97999573 140.23699951 419.10800171
131.09899902 246.10600281 437.33999634
241.12500000 213.41200256 426.85101318
214.70600891 236.75799561 406.09197998
242.42498779 277.33099365 444.05499268
127.05299377 250.85398865 493.36599731
304.41400146 286.11999512 467.40002441
190.68199158 119.41500092 464.72201538
165.45599365 147.50399780 409.17700195
306.00601196 262.97302246 454.32299805
233.47898865 239.76400757 427.41900635
213.30999756 229.19100952 480.17199707
214.29899597 268.52999878 516.51000977
176.88800049 233.94299316 500.52798462
228.55000305 190.01499939 449.51998901
157.68099976 160.73199463 402.02502441
234.00099182 215.36099243 497.32699585
250.11100769 205.05400085 483.26300049
218.07701111 152.94400024 430.81301880
121.63300323 163.52899170 477.59698486
260.27798462 218.19799805 490.91101074
170.64500427 120.79699707 461.45300293
290.46697998 236.73799133 446.74499512
207.09399414 238.88899231 403.68701172
223.17500305 242.63099670 416.08599854
186.59899902 119.23400116 489.60800171
112.74099731 185.84899902 512.25195312
262.76800537 266.29000854 443.62597656
192.56800842 283.64700317 485.18698120
113.17700195 217.35099792 483.09600830
127.40899658 152.33500671 482.04498291
196.80200195 141.16198730 420.32199097
142.59899902 223.75399780 550.08203125
256.54797363 271.19601440 441.26300049
298.75601196 294.22598267 477.37500000
230.11499023 279.48699951 524.23901367
233.74700928 193.06098938 431.96499634
179.18600464 131.27499390 425.67800903
242.30000305 241.36700439 503.09197998
235.33099365 185.06399536 458.50802612
259.02499390 213.92300415 447.05599976
115.43799591 225.42298889 498.80599976
176.02400208 120.59299469 503.30902100
144.29299927 205.70500183 398.14498901
228.71200562 180.22300720 421.87301636
230.15600586 155.80099487 455.50097656
216.80200195 277.24700928 526.04998779
240.26000977 210.81399536 486.28601074
208.30500793 149.88800049 420.02401733
125.74100494 209.91801453 571.24603271
235.62799072 204.07299805 422.20498657
196.71200562 244.75000000 404.32598877
213.15998840 125.76399994 481.86099243
160.59399414 232.89999390 502.18395996
194.12599182 283.11602783 455.86499023
146.47000122 132.68899536 468.80599976
172.06500244 142.76400757 525.78399658
189.99099731 239.62699890 508.75003052
297.63098145 256.48599243 468.80798340
222.29600525 165.35200500 422.07901001
207.71899414 132.45399475 502.96401978
187.95899963 135.95700073 421.96398926
294.72500610 270.36999512 473.73199463
152.99099731 151.53700256 411.57202148
115.48099518 177.14999390 524.56799316
226.99099731 143.98300171 478.52099609
154.04200745 182.84300232 540.28900146
187.82499695 266.58200073 424.32800293
166.59300232 244.79199219 404.34899902
128.37500000 245.79699707 521.73297119
189.37599182 122.54399872 447.61999512
175.50698853 246.49800110 508.18502808
248.64900208 201.66300964 460.21499634
149.84400940 259.68200684 432.36099243
135.64700317 164.24000549 423.01300049
166.93699646 188.96701050 389.21298218
299.27600098 224.38499451 455.24798584
173.82499695 262.45401001 514.25500488
214.95098877 287.24600220 458.74700928
278.32998657 291.82699585 466.40499878
174.24400330 163.08000183 396.90499878
197.33299255 191.41101074 391.43899536
179.90499878 235.28001404 396.22799683
274.43298340 255.63899231 446.17901611
161.83100891 125.11900330 508.20098877
142.84999084 270.75100708 507.26000977
223.72500610 140.42300415 460.98300171
217.85099792 219.03399658 502.98703003
150.78799438 173.20199585 538.26800537
214.14199829 195.02299500 504.72302246
171.29400635 218.44500732 535.35198975
194.50999451 220.27899170 509.71102905
144.03900146 239.24400330 411.13098145
272.26000977 257.98400879 487.24899292
132.37699890 180.50799561 557.64196777
173.00300598 136.02999878 418.69699097
203.96099854 251.80798340 473.78201294
111.89699554 193.95401001 495.63000488
156.90701294 184.75599670 393.32199097
192.07000732 129.67799377 432.70199585
199.31599426 249.80999756 511.39599609
211.23799133 201.56700134 513.99499512
282.47698975 285.77700806 490.99697876
113.93299866 180.16099548 503.93301392
312.73400879 266.58599854 463.11798096
202.31999207 271.09597778 521.28997803
192.56498718 155.06399536 509.03396606
150.25700378 200.44200134 548.71203613
221.09100342 288.77301025 480.68899536
243.02999878 260.87600708 438.54998779
190.44999695 148.08399963 410.02200317
180.19198608 223.67599487 517.81396484
196.29499817 222.92999268 393.05899048
200.33100891 159.91699219 404.60601807
172.30599976 279.38601685 528.91998291
121.87500000 156.13800049 494.21899414
136.03199768 144.47000122 452.37899780
199.82499695 199.38400269 525.39697266
210.05400085 215.12300110 397.84100342
154.89299011 265.92401123 514.04797363
133.06300354 250.88000488 442.30999756
147.45800781 215.52400208 397.18099976
221.54299927 177.71600342 411.38101196
186.71299744 283.33999634 458.20001221
120.90100098 167.74600220 534.22302246
188.47300720 202.46600342 489.21298218
158.65299988 251.99299622 414.75701904
244.76100159 287.44699097 457.12899780
216.23300171 199.51300049 484.41799927
179.65600586 276.31500244 529.00799561
225.11700439 211.41700745 490.22000122
204.11000061 268.70999146 427.79299927
232.43400574 175.90199280 468.80599976
134.77299500 146.89199829 462.17999268
275.27801514 294.57598877 489.28799438
127.54299927 153.83000183 529.04302979
128.34899902 245.50401306 537.17102051
174.40100098 270.41302490 432.12701416
210.79299927 237.10900879 468.79299927
182.76800537 211.21400452 528.39898682
233.39498901 171.46000671 441.56597900
215.86199951 146.89900208 433.87799072
170.93099976 275.47198486 444.96899414
232.22700500 274.45001221 442.35101318
115.85699463 190.53300476 539.81298828
254.93299866 291.98699951 516.31597900
125.46099854 244.77299500 454.54000854
230.74699402 163.44801331 445.29299927
224.81399536 144.12500000 487.35601807
285.48101807 260.56799316 450.62399292
139.74400330 199.14300537 401.80398560
207.77699280 123.95600128 491.98800659
242.00500488 218.50999451 510.58898926
186.69499207 285.40600586 498.57199097
171.55699158 124.20700073 518.59802246
195.54899597 227.69400024 494.44500732
192.17999268 236.34399414 398.07299805
213.19801331 288.68200684 495.35598755
305.21099854 251.94900513 463.63699341
306.65600586 215.90599060 445.35699463
152.96701050 134.22299194 433.14498901
204.97399902 220.12899780 485.44799805
289.50302124 281.12399292 452.28201294
238.64700317 290.51599121 520.36602783
124.42199707 228.61799622 431.38400269
143.69100952 247.96499634 519.58300781
195.13200378 169.47900391 506.23898315
256.02001953 271.04199219 500.50497437
254.69300842 212.25898743 439.72702026
149.23699951 256.31298828 503.57400513
199.44400024 143.50700378 508.58599854
130.69898987 188.10200500 563.30596924
157.66899109 282.43197632 487.93600464
192.91600037 200.74499512 529.08599854
123.34000397 177.46099854 450.72000122
224.99200439 201.75099182 457.71701050
134.60299683 211.75399780 406.76901245
132.42100525 191.98699951 410.94299316
214.62599182 127.51099396 469.33801270
184.92298889 283.37402344 470.33502197
232.35299683 180.39799500 430.85000610
111.45600128 193.16899109 485.31201172
168.35301208 260.80300903 422.34298706
225.82200623 248.56599426 425.42800903
236.05099487 229.46800232 507.70901489
229.98100281 205.39698792 416.21099854
225.20899963 192.46099854 411.14300537
257.84799194 230.06700134 492.63000488
145.47200012 241.52598572 522.42700195
233.54600525 194.78300476 425.22900391
153.10198975 242.55000305 497.57098389
202.00698853 120.79000092 473.78201294
160.47300720 274.45001221 512.57403564
146.16600037 272.70401001 490.16400146
301.68099976 274.76699829 457.40698242
223.21798706 202.87899780 406.28900146
135.08500671 143.54699707 474.84698486
229.77299500 291.20901489 512.20800781
229.18099976 200.92601013 447.50799561
284.32400513 247.16600037 448.16900635
237.32798767 232.85398865 498.85202026
134.13000488 232.34201050 415.87799072
209.90599060 225.11399841 487.67901611
167.53500366 120.33600616 478.25598145
161.62001038 150.34300232 529.52496338
173.36000061 177.62799072 390.91799927
132.72399902 168.63000488 431.40399170
175.76499939 118.73800659 477.85198975
220.14201355 132.25199890 480.97802734
145.13499451 161.92098999 409.93301392
229.94400024 167.30499268 479.81100464
144.18399048 141.33499146 432.78198242
235.91200256 176.60600281 448.02200317
177.13500977 118.66000366 467.35998535
121.15000153 197.63299561 567.69195557
167.35699463 251.59298706 411.10000610
180.45899963 247.30599976 404.52398682
145.75999451 164.30799866 539.98699951
171.78698730 282.10800171 473.38800049
116.92400360 170.99200439 495.70501709
117.96200562 169.88400269 471.22500610
208.22100830 201.19400024 396.22399902
167.94499207 127.81600952 524.63299561
292.17498779 247.86000061 472.74899292
185.92999268 194.59899902 388.69400024
262.54598999 244.97300720 441.20599365
250.64900208 280.08599854 508.88598633
206.64900208 248.78199768 464.29800415
195.72601318 190.93099976 519.07495117
224.79798889 137.02699280 472.80401611
184.43099976 173.63600159 511.42300415
172.13499451 198.60800171 536.35797119
154.49400330 159.92300415 532.55096436
188.07099915 216.43899536 489.76300049
124.60699463 204.95001221 424.18200684
174.91600037 125.79100037 434.29800415
188.21200562 284.65100098 528.86999512
121.61699677 211.38800049 432.27899170
116.38400269 217.00799561 521.36602783
171.02200317 194.45599365 388.66497803
273.13299561 237.31700134 482.77200317
164.32798767 277.91101074 524.81201172
190.77099609 278.04800415 442.17199707
277.75897217 233.54400635 475.18899536
311.40200806 226.35899353 444.40698242
248.23400879 204.53399658 451.84002686
118.92800140 224.65299988 526.15600586
264.94500732 290.94201660 468.75198364
173.49598694 283.43298340 504.64599609
114.61800385 198.24800110 534.65802002
120.51200104 238.00300598 495.15798950
167.21600342 123.59099579 443.73800659
259.20401001 260.44601440 498.03298950
220.86900330 235.95100403 408.75900269
117.62400055 184.26199341 542.05603027
215.77999878 248.62701416 414.14498901
258.94900513 210.88999939 458.80099487
169.58900452 239.80699158 499.91101074
214.22499084 167.75199890 409.71197510
219.71000671 232.23699951 494.84698486
139.45899963 191.72599792 554.95397949
153.47200012 131.70300293 517.64801025
169.04499817 258.56500244 511.23703003
164.94999695 222.30499268 536.76300049
221.56600952 229.10299683 486.30398560
216.63301086 245.22801208 464.53698730
246.80299377 208.66000366 441.88699341
234.36999512 284.84899902 451.21398926
265.52798462 280.74099731 498.32498169
151.58399963 229.06599426 537.14398193
279.52999878 217.78799438 446.65701294
223.87500000 255.02899170 427.04000854
174.58100891 144.93499756 409.86099243
262.25598145 221.52699280 483.81201172
133.40798950 139.20199585 497.43899536
256.61297607 210.65600586 452.36502075
220.28900146 260.42602539 511.14202881
155.07000732 176.40000916 396.11898804
159.93499756 276.12799072 461.88000488
115.76200104 211.61000061 526.58300781
149.68701172 214.26400757 549.27600098
196.74499512 138.57099915 512.51300049
236.82199097 208.00599670 449.31997681
219.50000000 210.23200989 502.36303711
242.30599976 250.70399475 433.83999634
176.21000671 121.15499878 450.11199951
216.19700623 215.52400208 512.78900146
222.25700378 169.83500671 489.66299438
161.42700195 227.86900330 532.25201416
245.56300354 250.77000427 504.99099731
221.36401367 286.39501953 455.43200684
186.82800293 271.01498413 429.74499512
210.86999512 279.18801880 446.46099854
220.88700867 135.17199707 486.83801270
184.73300171 222.11299133 501.93203735
178.16600037 169.76800537 393.58898926
273.91299438 292.96600342 476.16601562
147.03099060 272.94601440 511.83700562
191.10900879 274.79400635 435.06399536
128.83799744 176.20700073 427.51501465
218.56700134 160.09199524 420.83999634
223.14801025 244.16400146 508.66299438
118.49800110 194.14700317 454.32699585
198.29000854 120.48199463 485.74398804
183.62001038 278.22302246 475.39898682
209.79798889 254.77799988 474.14401245
203.34100342 274.58398438 436.89901733
113.59000397 182.95100403 493.48199463
190.72599792 252.76499939 409.88000488
204.82499695 218.82798767 517.88403320
230.55499268 288.51501465 525.98400879
238.42500305 254.11199951 505.96600342
207.76599121 191.15998840 396.80001831
233.59100342 178.51699829 462.76101685
118.58099365 222.36099243 449.04901123
202.61700439 189.88999939 514.24499512
260.12899780 222.37600708 437.99798584
198.94699097 200.36900330 391.69500732
208.89300537 142.68399048 430.10501099
201.78300476 158.67900085 503.58898926
297.07901001 262.92700195 469.67898560
119.96099854 160.00799561 516.32299805
210.06600952 288.53198242 501.06698608
287.69201660 265.96899414 478.27700806
229.83900452 151.16200256 467.51202393
225.73699951 161.37500000 434.18600464
190.52700806 264.36499023 516.89898682
189.13200378 119.49100494 477.58099365
159.74200439 202.28900146 389.96899414
258.29602051 276.85498047 443.93099976
272.13601685 272.94000244 490.73602295
227.68699646 156.53199768 485.32098389
138.39199829 156.62600708 430.30599976
133.49800110 233.19099426 555.31695557
167.40299988 156.78900146 523.48602295
119.95800018 236.48699951 482.69500732
239.01200867 203.56700134 434.51397705
220.18598938 232.68400574 478.64099121
247.89300537 289.05099487 522.75799561
268.89300537 244.68199158 490.00497437
243.29400635 213.69500732 502.05804443
146.70098877 224.54899597 400.39599609
238.63301086 290.28399658 480.94699097
152.65800476 128.31401062 507.23202515
162.51100159 123.51399994 499.79000854
122.69199371 234.76499939 445.33099365
179.10699463 183.73300171 389.19799805
143.06500244 258.18499756 510.62399292
233.69300842 222.24700928 420.04998779
303.17398071 266.09799194 468.45199585
169.61599731 168.12500000 522.35699463
173.69799805 221.35000610 530.12597656
265.58200073 268.77999878 493.50100708
174.53500366 212.86199951 534.84997559
293.24902344 295.16799927 480.57897949
245.98500061 238.65400696 432.16601562
185.43000793 120.64699554 452.32800293
180.55300903 118.32500458 487.63400269
212.90299988 288.38699341 514.15399170
145.32699585 201.51699829 552.89398193
123.59600067 236.41000366 558.97601318
253.97200012 253.57099915 438.90197754
149.15100098 143.52000427 535.86999512
207.27099609 128.62199402 451.83200073
125.18299866 185.57899475 429.40701294
114.63999939 185.29998779 528.27197266
118.85499573 233.13200378 461.83599854
153.29901123 196.36900330 544.81396484
277.22399902 294.11700439 481.78500366
228.52400208 260.47900391 511.22201538
198.00299072 209.49499512 487.17300415
163.42500305 247.38900757 501.74099731
218.57998657 223.86599731 402.35498047
220.40901184 190.10899353 481.66000366
209.68400574 249.09199524 411.45501709
132.75801086 144.63000488 519.23400879
119.71499634 163.11999512 524.60803223
160.05499268 268.65197754 516.62396240
231.05000305 217.41999817 502.59298706
188.91799927 225.67599487 391.61999512
117.02500153 212.73699951 559.43902588
252.84999084 203.11000061 471.81600952
232.07899475 256.52999878 433.34500122
186.44599915 136.37701416 518.96295166
207.57299805 226.01200867 398.27700806
209.42500305 136.60299683 439.60299683
310.87899780 236.32499695 449.01000977
125.91899872 177.43099976 558.71899414
166.83000183 174.47898865 393.32699585
312.05401611 239.30700684 455.82699585
265.06500244 289.75299072 457.27700806
211.72499084 220.73100281 512.01202393
114.01399994 222.28300476 493.47399902
217.93299866 278.08401489 445.62899780
125.15999603 166.55899048 544.37500000
184.82699585 118.94300079 462.33200073
120.63700104 216.28401184 437.28900146
114.31900024 201.68901062 528.90802002
117.09199524 214.40100098 534.99902344
164.74899292 279.21600342 501.30801392
288.91198730 230.62600708 446.14999390
181.81900024 124.56800079 438.66000366
170.54200745 226.36599731 393.09899902
192.52499390 285.87298584 500.99896240
134.96301270 147.73100281 528.10504150
208.24800110 125.28699493 464.46401978
118.72900391 223.41400146 554.42401123
138.74700928 245.25199890 422.40200806
278.31701660 271.73599243 484.93399048
135.98500061 224.72601318 409.18099976
258.21200562 286.98300171 452.04898071
206.62100220 197.27999878 517.70697021
196.36300659 179.72999573 393.42199707
160.42199707 217.70300293 542.06500244
192.58399963 208.59100342 528.66601562
182.30999756 285.32901001 525.44500732
280.18701172 248.41099548 479.85699463
179.72599792 207.73600769 532.96203613
128.97399902 152.50900269 473.47702026
236.51899719 208.51998901 458.84298706
223.69200134 278.63699341 526.12695312
223.74198914 240.70001221 467.29400635
128.69299316 213.13301086 414.74398804
157.34399414 232.22100830 507.63296509
267.81399536 225.90200806 474.34298706
189.63099670 284.29699707 491.23098755
119.00199890 222.05599976 545.56903076
186.67199707 234.12699890 396.10299683
166.81900024 271.84500122 440.22302246
214.33799744 211.08299255 399.94699097
178.86300659 221.26499939 524.61102295
228.64100647 183.83200073 472.10601807
180.26399231 223.63600159 507.95300293
208.37600708 284.24099731 528.67901611
213.02500916 150.32200623 499.61099243
179.93299866 149.73999023 518.48498535
277.48699951 247.66999817 446.20599365
155.25999451 246.69000244 410.69601440
125.86100769 159.67401123 452.28500366
137.57101440 264.18200684 507.91000366
130.19299316 255.61100769 465.14599609
232.26199341 197.65600586 437.50399780
125.73400116 149.51499939 495.08300781
142.26100159 135.61900330 510.97900391
121.97100067 188.25498962 563.95898438
117.05099487 230.07299805 485.27499390
130.70201111 253.75598145 509.58102417
155.86698914 281.04098511 499.47598267
186.21499634 220.46400452 514.46197510
160.52999878 166.32099915 398.31799316
114.47600555 174.65899658 507.21502686
248.26100159 264.63198853 439.17797852
157.61700439 280.48501587 472.59799194
196.69500732 219.50900269 503.44003296
150.11100769 274.08099365 465.63900757
114.87500000 190.97000122 533.70098877
236.84300232 288.25000000 468.63699341
146.15599060 245.78599548 415.95700073
127.31100464 173.06100464 443.77401733
135.20899963 177.51400757 411.75799561
214.70600891 202.22100830 496.74600220
199.94099426 128.17098999 442.18502808
233.51499939 170.33700562 454.81600952
115.03200531 178.13800049 476.26699829
187.14900208 160.29899597 399.63900757
138.15400696 186.62899780 404.74002075
197.00199890 285.33700562 523.79797363
293.36398315 271.08099365 451.57000732
312.89999390 246.60000610 451.10000610
124.65900421 220.39599609 425.55599976
129.72399902 255.10600281 497.62200928
122.91600037 233.65600586 537.40399170
180.22200012 272.26300049 432.93600464
156.65901184 271.55300903 450.19201660
261.30599976 219.76100159 468.47201538
125.18399811 152.53099060 518.11700439
267.53601074 292.04400635 474.69000244
251.43400574 283.58200073 448.34799194
297.29101562 259.72698975 453.89102173
145.67098999 138.44099426 525.68402100
199.84400940 122.87099457 456.64599609
176.95300293 265.24401855 424.66699219
211.82099915 181.91400146 501.17398071
130.46998596 210.18399048 567.34100342
175.73899841 228.04600525 499.27398682
125.83599854 246.51699829 503.22503662
217.52000427 173.06100464 409.92700195
144.49000549 240.11999512 528.31604004
155.80200195 214.71099854 393.60101318
231.58699036 265.80999756 511.45397949
131.78601074 251.30700684 529.05902100
153.84700012 220.22399902 543.97497559
219.36100769 134.05500793 461.62997437
217.70300293 194.17601013 477.97500610
121.62999725 222.39900208 437.14401245
122.66899872 183.53700256 448.84399414
279.43997192 280.37899780 449.34500122
262.25000000 233.94400024 490.92800903
163.15199280 278.33300781 518.83697510
120.92000580 163.60699463 483.65798950
231.63400269 210.49400330 479.02899170
191.22000122 280.66302490 478.19097900
112.74099731 187.44599915 497.62200928
207.38600159 158.82901001 409.79800415
168.55900574 283.66299438 480.27102661
212.40901184 168.03900146 498.79699707
121.90199280 189.95100403 442.02798462
207.33399963 209.25199890 520.33697510
183.71800232 274.30902100 481.10000610
290.45199585 289.05499268 487.54299927
125.30500031 150.68099976 506.81399536
259.77502441 209.67399597 472.90399170
207.18499756 121.96800232 479.10101318
190.48899841 219.80300903 518.89599609
191.79600525 174.06600952 508.38702393
119.67800140 231.94599915 453.01898193
280.82400513 256.70599365 480.93701172
215.99800110 191.76701355 402.42098999
145.63900757 171.71099854 541.08502197
134.94799805 164.02900696 546.85803223
116.51599884 212.68301392 546.22503662
117.26699829 229.14999390 504.13500977
288.65399170 252.07800293 450.45797729
214.69799805 153.35800171 423.18798828
175.79600525 215.66999817 388.40499878
305.17898560 235.62200928 459.63299561
182.30000305 272.93301392 524.74896240
114.68599701 195.95100403 467.07699585
142.21400452 175.11900330 545.27301025
187.75599670 122.61199951 513.35296631
266.67098999 220.62200928 463.14498901
197.78999329 286.66799927 506.66302490
164.84600830 130.00099182 429.73699951
241.92700195 292.25701904 515.60302734
236.75900269 268.42199707 509.17602539
148.17201233 252.29901123 422.68197632
147.55000305 189.69300842 396.91998291
145.33700562 261.64801025 441.39297485
197.71200562 213.85200500 494.54000854
201.37800598 230.27600098 492.53399658
144.82901001 145.18600464 427.87701416
138.28900146 218.31401062 557.96099854
113.29899597 189.81300354 517.48101807
232.70800781 186.72000122 452.34899902
115.52799988 176.41999817 489.79101562
218.10899353 180.19700623 495.97799683
209.03199768 179.46800232 400.69799805
244.64399719 206.94300842 484.96697998
251.90400696 229.98699951 512.86297607
216.68099976 199.56100464 401.67599487
138.12400818 235.88800049 545.84802246
186.69200134 200.53599548 388.67800903
251.97698975 231.82499695 497.50500488
179.15199280 125.91699982 520.27899170
200.41600037 123.04799652 501.55300903
217.23300171 274.25000000 520.90197754
115.90799713 203.02000427 548.40795898
168.48599243 280.63397217 494.04498291
163.79000854 264.22500610 515.16900635
186.27299500 208.96600342 487.70098877
232.33700562 187.95899963 444.09899902
218.20199585 289.73199463 508.11303711
189.47799683 262.56701660 420.07199097
131.63900757 149.58000183 449.77899170
162.70999146 237.21600342 496.82901001
141.55400085 268.60699463 486.42401123
160.30900574 232.31300354 526.68603516
145.03900146 271.13000488 466.63998413
185.92800903 173.81599426 393.67602539
283.89999390 278.02801514 484.07998657
197.47399902 130.56201172 435.03100586
160.00000000 193.97799683 540.65698242
193.82199097 181.39399719 509.64700317
210.23599243 287.77700806 468.75198364
146.97599792 128.85299683 484.48699951
209.92500305 245.24000549 508.83697510
132.92401123 141.48800659 483.24902344
154.10299683 236.03099060 527.90997314
151.69400024 128.79000854 466.02099609
169.75801086 283.11398315 516.55798340
198.98399353 250.64299011 470.18399048
188.58200073 286.79299927 514.95996094
121.89599609 195.86700439 432.15701294
142.81199646 229.62400818 545.73699951
149.37899780 148.57199097 417.66198730
205.72799683 259.25500488 418.64801025
207.66699219 268.59201050 517.49499512
120.55799866 204.86000061 569.99096680
209.08999634 191.09199524 504.10198975
128.74400330 195.71598816 416.05899048
302.97198486 219.22999573 450.14199829
156.61799622 278.40600586 509.55599976
199.20199585 210.54400635 391.12799072
262.62899780 248.72499084 494.33999634
277.56198120 237.71800232 444.24301147
169.80999756 227.46699524 524.58898926
183.92098999 181.12699890 391.33300781
256.41598511 217.82000732 436.30798340
199.50300598 278.06298828 531.63098145
204.41700745 287.38702393 514.07598877
266.50399780 215.72799683 446.97500610
284.14898682 270.06399536 450.54699707
166.69799805 201.62500000 539.65502930
118.77799988 213.60699463 443.70401001
191.71400452 120.41699982 507.14300537
251.22999573 238.06401062 434.73800659
222.26199341 156.59700012 432.70599365
212.02400208 135.21798706 500.08999634
166.73800659 124.01300049 511.21597290
161.29598999 252.55000305 503.50701904
229.67498779 232.81199646 419.96099854
158.78399658 125.34700012 461.66101074
205.05300903 287.10101318 479.26199341
251.57099915 222.82199097 433.78500366
162.74499512 260.20498657 423.88400269
257.00302124 290.94699097 474.15097046
148.63800049 241.33799744 505.26101685
134.15699768 239.95700073 547.88098145
248.70500183 218.98199463 510.35202026
240.20999146 228.86599731 427.37002563
261.68899536 250.75299072 441.15200806
118.72299957 225.08700562 564.50299072
189.30799866 273.76300049 476.94900513
194.21699524 260.44699097 417.39300537
185.69400024 192.86100769 527.47900391
264.38900757 293.42202759 486.89898682
156.03601074 170.20001221 534.01000977
159.52999878 234.06199646 398.59500122
240.82299805 288.02899170 525.86401367
192.33599854 277.71600342 532.60699463
214.70500183 227.17599487 474.87701416
210.86500549 278.75399780 530.04803467
179.03199768 132.37098694 523.55499268
182.79299927 256.85900879 413.80798340
142.95100403 230.81199646 405.76898193
193.23800659 217.13400269 481.48699951
156.72500610 136.81500244 424.67999268
261.24700928 213.39199829 468.46301270
294.17398071 230.39099121 462.47500610
112.08999634 215.57800293 490.48297119
179.05299377 120.81999969 510.45196533
189.50199890 199.54499817 484.28601074
309.74600220 220.31100464 447.57000732
304.30798340 268.24899292 456.09097290
143.24800110 131.76300049 493.48898315
187.70700073 214.92500305 525.64599609
199.53900146 286.19702148 497.79998779
156.40100098 128.22698975 454.20199585
206.52101135 259.00500488 471.87899780
199.47700500 171.80499268 398.27099609
154.97801208 238.59500122 403.20599365
141.60501099 192.22999573 400.30200195
239.97000122 259.76699829 508.17901611
245.71501160 207.38500977 447.44198608
143.42300415 137.73899841 460.24899292
236.99000549 249.14599609 432.13900757
206.61999512 145.57400513 423.50399780
148.49800110 267.65600586 513.68701172
128.58200073 225.26499939 419.77099609
124.78300476 240.14300537 524.21496582
220.90800476 283.11700439 531.71099854
144.94000244 174.06900024 403.51199341
251.02299500 287.94598389 517.63201904
147.61199951 189.85000610 546.63903809
149.27299500 277.77200317 482.58798218
247.33300781 210.95800781 436.62301636
182.07200623 119.67500305 502.38198853
225.08900452 271.55798340 514.76599121
262.58999634 275.82998657 497.34802246
221.23399353 161.76599121 492.84500122
253.66801453 203.12200928 462.62802124
223.52400208 148.71400452 445.98901367
130.53799438 238.97000122 428.13800049
115.94799805 170.94300842 513.48797607
212.53800964 127.69300079 491.98400879
190.38600159 213.57600403 388.63000488
242.44500732 292.73098755 497.40698242
225.41299438 225.40499878 411.15600586
132.04699707 257.45700073 504.76800537
224.50999451 246.25300598 420.32800293
300.05099487 230.59399414 446.08898926
296.45401001 217.55899048 443.33999634
136.48800659 246.15899658 536.91796875
203.67799377 212.99000549 486.73498535
187.07301331 126.09499359 436.96200562
141.82800293 252.91401672 521.77398682
198.01600647 125.82899475 508.18502808
174.25300598 280.37701416 459.69201660
172.52301025 156.71400452 519.51702881
230.29200745 287.35400391 460.31698608
143.26699829 133.38198853 474.81900024
113.67700195 214.41900635 472.19299316
202.99699402 178.47200012 505.46200562
241.45600891 272.45001221 509.52297974
204.07199097 283.39599609 454.45498657
138.27799988 253.72201538 436.64700317
238.58801270 183.15798950 440.26397705
286.64898682 295.39801025 489.10202026
222.45399475 188.50000000 489.31802368
179.02000427 144.23500061 521.23803711
152.36300659 277.26199341 471.54998779
200.58999634 225.68798828 395.57498169
121.89900208 176.56900024 550.67303467
123.31099701 243.35899353 461.39801025
210.56100464 220.77000427 398.17999268
229.61000061 280.00701904 446.72000122
230.15299988 229.61500549 489.03900146
151.14300537 251.81600952 499.62698364
159.02101135 223.80000305 393.78601074
214.06500244 200.78599548 508.38201904
232.83999634 164.38299561 461.58999634
221.95098877 207.01199341 475.98498535
256.51998901 208.92700195 485.06298828
120.78599548 195.80599976 438.69400024
224.96099854 214.92199707 502.48498535
220.11700439 289.57998657 494.94998169
200.65400696 278.91098022 444.76699829
152.62800598 127.38999939 495.63500977
215.97099304 142.00900269 440.56698608
216.13700867 230.10299683 485.10000610
125.54598999 171.62500000 552.88201904
179.78300476 215.10299683 480.33700562
163.01899719 276.27099609 507.87799072
211.75900269 211.08200073 516.51196289
164.99299622 169.19699097 395.76199341
248.69999695 232.43199158 502.05700684
141.41899109 140.07901001 520.72601318
241.46800232 281.33999634 517.71801758
215.89500427 229.26298523 402.96301270
286.25900269 218.63800049 449.61300659
205.68400574 250.08601379 511.20901489
118.38500214 176.69599915 459.95397949
217.90600586 209.68901062 507.73696899
141.00999451 166.91300964 411.30398560
129.31999207 251.89999390 454.42102051
208.62100220 133.25900269 444.45602417
142.32600403 249.27799988 508.95101929
113.83300018 181.36100769 516.91302490
164.35000610 279.35098267 467.16201782
149.13400269 150.42900085 536.90899658
277.01602173 221.29000854 454.83099365
283.08697510 267.93701172 480.82299805
217.83299255 130.69599915 466.00198364
239.15800476 204.78298950 428.29800415
218.98100281 199.74101257 472.08398438
231.44599915 185.12800598 463.02499390
118.32799530 193.16400146 554.85601807
159.55000305 122.88600159 482.70800781
221.47099304 216.44599915 404.21899414
278.55700684 258.90402222 448.11697388
238.05500793 276.24401855 514.53100586
192.28500366 216.87699890 493.42999268
170.55000305 207.88400269 388.50900269
298.75399780 275.55999756 473.73599243
267.81600952 256.62197876 443.49099731
196.76199341 255.08901978 513.93200684
256.95999146 230.10499573 507.15899658
244.90199280 214.02200317 430.92199707
120.10399628 202.92199707 436.18099976
234.49899292 245.96899414 506.82299805
124.27400208 220.40000916 571.38000488
290.13800049 273.72399902 477.42901611
264.05297852 257.16598511 494.32000732
216.52198792 140.80000305 497.15899658
311.42898560 227.32000732 450.23300171
139.46699524 209.70100403 402.12500000
296.55999756 280.95999146 456.99301147
120.09700012 169.27301025 459.64700317
183.80700684 183.19200134 518.26800537
197.15400696 286.27398682 474.51599121
215.22100830 271.75799561 436.17199707
279.94299316 226.57800293 443.80599976
124.39399719 237.33801270 544.79498291
138.95399475 248.76199341 530.11798096
124.01300049 167.08299255 452.34701538
112.65499878 212.31100464 501.84500122
142.94000244 209.92199707 555.28894043
231.48100281 173.95700073 432.50097656
173.11399841 132.73100281 526.48004150
189.66899109 190.25898743 521.45599365
148.59400940 183.30000305 543.70495605
259.34899902 287.98400879 508.22003174
242.02301025 291.52200317 485.90600586
218.24499512 205.49299622 401.63201904
182.93499756 238.90798950 506.95901489
125.79800415 242.07299805 445.55099487
250.74198914 248.63000488 436.58798218
117.89099884 205.59201050 449.42199707
266.34698486 229.05200195 481.63699341
277.16500854 281.11801147 491.38900757
219.69400024 252.07901001 511.11196899
243.34500122 207.08599854 474.83102417
208.24400330 257.72698975 514.01904297
245.21400452 209.46900940 495.12600708
227.29800415 149.56599426 454.54299927
153.97801208 209.96199036 548.16302490
141.06098938 140.21299744 451.12402344
173.19299316 175.66299438 521.93701172
193.00801086 248.78500366 406.68402100
187.41700745 285.87799072 504.01699829
203.42199707 206.49200439 523.06903076
228.91600037 154.16101074 479.44302368
293.90298462 241.70300293 469.09100342
311.72601318 244.65901184 457.09197998
288.57202148 236.24299622 470.14401245
191.38899231 211.98100281 478.96002197
177.57600403 283.65701294 499.11697388
175.29100037 119.91299438 496.03500366
145.11799622 258.74298096 436.50201416
155.81098938 264.44598389 435.92300415
130.27400208 195.25498962 565.85900879
190.09899902 242.79499817 401.84301758
219.60000610 224.19500732 490.35800171
297.48300171 242.30499268 448.50500488
168.69300842 209.67700195 540.10302734
121.37900543 236.87300110 508.96603394
225.17100525 191.87001038 454.90301514
171.15800476 180.29299927 527.47601318
112.09300232 202.55101013 477.32498169
137.86601257 227.21800232 553.45202637
192.74101257 204.97000122 486.86700439
207.08000183 137.41200256 434.72201538
115.21199799 214.83000183 516.48498535
190.28900146 129.23500061 516.54400635
136.32200623 148.24099731 440.24899292
239.90699768 286.81500244 454.70700073
189.04000854 149.50199890 512.83001709
129.97799683 143.59199524 493.53997803
157.66499329 238.86900330 498.52999878
143.46099854 179.18199158 402.31201172
294.26397705 288.91000366 463.41198730
205.21199036 214.67800903 497.03799438
147.86599731 276.29400635 477.36099243
175.47500610 277.69900513 450.54000854
204.51800537 250.36001587 410.37100220
205.36599731 215.47200012 395.12698364
214.24000549 125.96599579 474.52700806
123.76000214 186.07400513 434.75900269
179.14900208 280.33599854 487.63497925
231.54400635 227.43199158 497.29699707
143.82800293 249.62599182 500.41799927
264.49798584 295.44198608 500.49298096
262.40798950 223.16999817 491.22900391
304.86398315 283.84899902 473.79699707
281.25799561 228.56700134 465.02499390
112.95600128 183.74000549 488.03601074
129.45100403 255.33500671 481.35501099
284.30102539 293.11401367 469.64801025
115.47499847 173.89799500 520.15600586
121.95400238 163.11000061 472.21197510
179.08399963 221.69700623 391.08200073
125.16899109 158.24099731 469.90698242
141.90599060 132.85499573 481.26998901
184.43901062 282.27297974 486.42501831
222.33900452 146.39799500 492.29800415
223.67500305 289.58999634 517.56103516
181.15800476 212.63598633 388.60198975
272.06900024 248.31999207 487.58999634
262.56600952 280.01898193 446.62899780
221.88600159 234.05599976 467.07400513
225.44898987 168.71299744 424.88198853
120.87400055 234.83699036 515.20697021
231.41600037 275.02398682 516.46099854
221.83000183 208.90499878 485.88400269
115.93499756 221.94400024 468.77700806
172.80499268 199.53800964 388.55297852
140.15899658 158.94700623 419.32897949
206.41999817 219.83699036 502.33398438
227.14900208 170.27799988 483.32501221
123.89399719 198.58300781 426.47000122
212.58200073 262.86599731 424.67999268
133.76000977 159.87800598 438.25299072
126.75100708 195.87500000 421.62799072
128.67001343 153.72799683 452.04098511
138.33299255 142.64399719 445.04602051
133.97698975 258.93301392 457.84698486
187.04899597 131.79100037 426.93600464
231.55899048 162.54399109 450.52200317
196.90798950 274.51397705 433.72900391
216.67900085 162.34300232 416.35000610
155.36799622 280.26397705 494.19201660
117.18199921 225.52999878 463.71099854
229.63200378 207.08699036 459.14199829
253.49101257 242.09600830 437.44299316
125.83099365 189.73800659 422.34100342
162.26899719 127.93099976 521.08996582
228.91200256 246.20599365 508.61297607
205.51100159 124.77799988 498.04898071
217.09899902 242.45401001 508.61401367
139.69999695 186.44900513 553.55999756
111.59400177 194.97700500 490.39501953
220.64599609 247.68200684 416.13598633
191.46899414 191.96798706 390.75601196
291.76101685 220.85900879 451.79699707
187.20899963 225.77799988 496.57800293
168.30400085 280.57400513 505.05297852
147.84899902 164.15100098 405.90997314
164.47999573 228.27600098 507.58099365
182.17300415 156.92601013 401.08499146
168.18598938 146.78700256 525.98602295
201.92498779 120.51499939 481.29800415
183.21398926 280.04199219 453.22799683
161.36999512 256.95199585 506.51800537
271.05700684 225.31500244 467.05801392
166.50399780 190.22000122 535.79699707
253.99301147 294.33502197 498.69201660
112.98400116 186.52500916 479.88098145
121.73699951 243.03599548 467.39102173
222.34199524 186.45100403 409.04800415
118.32299805 226.58799744 452.50100708
283.11199951 238.26899719 475.17300415
129.64900208 145.00099182 487.00601196
169.27200317 132.01199341 425.36898804
155.26199341 130.37100220 437.16897583
215.35900879 254.54399109 418.74502563
129.31799316 231.16398621 422.55801392
119.03900146 196.25500488 446.66497803
160.37200928 215.15499878 390.94400024
179.76799011 248.23799133 511.36203003
292.71502686 284.90499878 482.06298828
193.89199829 255.98400879 412.86901855
195.20999146 286.47399902 468.10598755
268.64498901 241.79199219 443.85098267
298.31201172 293.60397339 482.61599731
244.76400757 229.99000549 429.82501221
227.08000183 201.90901184 452.72000122
195.50700378 286.91699219 512.37298584
182.74299622 118.31100464 477.41897583
307.38699341 222.62098694 443.43600464
126.14999390 249.66299438 486.58200073
124.99400330 157.76899719 462.72299194
220.86399841 229.17599487 471.75500488
301.64999390 243.54200745 464.94497681
159.93499756 209.67700195 544.31298828
187.35900879 155.19699097 511.90298462
271.52401733 275.62399292 446.03198242
223.05799866 202.63000488 462.55697632
225.38000488 259.01498413 430.15301514
249.68899536 268.77297974 503.46099854
282.49401855 281.44000244 487.85098267
165.09799194 120.92099762 473.61300659
111.65600586 210.33500671 493.57199097
192.00000000 119.47800446 484.34100342
139.32299805 267.03598022 497.07498169
113.83200073 189.92399597 525.86901855
112.95200348 207.91499329 475.10900879
163.21699524 173.90699768 529.90100098
185.09599304 260.36099243 417.24499512
214.13700867 287.84899902 465.21499634
259.85000610 210.52299500 464.27398682
121.59500122 240.74600220 488.63900757
206.68399048 241.42498779 470.09997559
250.66500854 258.13998413 503.10498047
129.27299500 157.65499878 538.88000488
209.14801025 127.85198975 457.17800903
250.12001038 290.36798096 474.00799561
199.68800354 121.22900391 490.75500488
225.97399902 289.08099365 478.77099609
204.56799316 188.30799866 509.63098145
191.55200195 139.73699951 419.07800293
163.56500244 140.56100464 416.56600952
272.46298218 247.50100708 443.60797119
310.82098389 276.76098633 465.52999878
124.82599640 182.85700989 440.00000000
183.43800354 283.84201050 531.14599609
217.99600220 236.45700073 475.23800659
236.34399414 221.60899353 509.72998047
253.78900146 240.66600037 498.45098877
131.84599304 247.17900085 540.70501709
129.27299500 183.72200012 418.24002075
138.53700256 221.13500977 404.82000732
147.81401062 256.14602661 429.06100464
166.36199951 240.21199036 400.44400024
169.37699890 120.44999695 484.88900757
116.99500275 201.10499573 555.32904053
269.81198120 288.11898804 500.02099609
160.07499695 163.27899170 529.33398438
297.89297485 233.95599365 463.42797852
195.07600403 124.73400116 445.56100464
191.49699402 120.41299438 495.58099365
248.75100708 289.34100342 468.68499756
219.21099854 139.35800171 450.43798828
171.72900391 119.49600220 466.39901733
156.15400696 281.80599976 481.92501831
284.78100586 289.76602173 459.91000366
196.83299255 243.21000671 507.96801758
112.61799622 192.29600525 506.73699951
138.52000427 237.38999939 414.53201294
238.45500183 281.82400513 521.98999023
126.67700958 177.60600281 440.12200928
131.66999817 219.02600098 412.31701660
131.62199402 143.09098816 507.90399170
218.42500305 191.44799805 492.05801392
184.80400085 276.68899536 441.58102417
235.72898865 205.61900330 444.52301025
153.78401184 274.47198486 461.91299438
231.72601318 291.37200928 493.70599365
225.00500488 159.22300720 488.86901855
304.63000488 217.82901001 440.97598267
179.69200134 261.65899658 513.42901611
186.49398804 219.09899902 498.09201050
261.56802368 229.56900024 438.95901489
205.49800110 274.56600952 524.50500488
177.75100708 274.16598511 437.98001099
265.11199951 231.45199585 486.21697998
133.16699219 203.36900330 408.32598877
142.25999451 271.12899780 475.30099487
210.16999817 248.83801270 475.13000488
210.00700378 146.70401001 501.83599854
289.76898193 223.57200623 443.59298706
200.87699890 181.20298767 395.78802490
170.88600159 158.46798706 399.97799683
316.52502441 225.68600464 444.13800049
203.05900574 152.86399841 503.51797485
225.60400391 139.92900085 467.28100586
239.57000732 208.94900513 424.75598145
272.81399536 292.02999878 471.20300293
230.82501221 233.78700256 497.04699707
136.69299316 261.76800537 513.50701904
153.38400269 231.62400818 399.34701538
120.16899872 211.91999817 570.89001465
315.24200439 257.76998901 459.88900757
163.52101135 264.78298950 430.04998779
298.41699219 253.14399719 451.70599365
305.37899780 235.22200012 448.95199585
168.37699890 216.93899536 390.72601318
226.28399658 173.86000061 422.01599121
258.95199585 241.77200317 439.35299683
130.72399902 250.40098572 515.73901367
148.44499207 134.52999878 518.08502197
307.88601685 228.76300049 454.08499146
134.37199402 240.50900269 422.68899536
148.56199646 134.19699097 448.68298340
219.10600281 267.10198975 513.93798828
211.30900574 242.59999084 473.88101196
262.52200317 294.62200928 495.81500244
160.46301270 182.20100403 535.59899902
235.04998779 269.55300903 440.41201782
315.40899658 235.84599304 451.39300537
156.64100647 245.91099548 495.97000122
161.92401123 230.04199219 517.83105469
227.70201111 199.79899597 413.54998779
230.54899597 155.68199158 469.83798218
198.76100159 182.47599792 508.76498413
174.02699280 259.59500122 418.60397339
201.36601257 264.06100464 422.66400146
261.33700562 220.83799744 474.15997314
117.73300171 176.34400940 533.37994385
214.79499817 198.45298767 490.63800049
233.58599854 185.73300171 432.67102051
213.17700195 287.19198608 520.07904053
173.00500488 120.81400299 454.08999634
257.94900513 294.69900513 513.19299316
115.37699890 204.95399475 536.81805420
218.89900208 235.00900269 501.35702515
244.26499939 272.43701172 441.21701050
115.36100006 211.99299622 462.05599976
