ply
format ascii 1.0
element vertex 512
property float x
property float y
property float z
end_header
182.32527161 141.68495178 353.40362549
177.62522888 140.22219849 352.53387451
186.78234863 145.16790771 353.32064819
179.46174622 145.28195190 349.88732910
184.92633057 138.37893677 357.60342407
177.40605164 134.58125305 358.10580444
171.94252014 142.37663269 349.51437378
174.72245789 147.17617798 346.84359741
185.73486328 151.79292297 348.79470825
180.33113098 151.22303772 346.75588989
171.29103088 136.68962097 354.92633057
192.82565308 142.07138062 361.19467163
184.48228455 132.68641663 364.55224609
177.73458862 131.22337341 362.87637329
167.19036865 141.42367554 348.69299316
195.50729370 149.17794800 358.06167603
189.55300903 135.59819031 366.19891357
193.74278259 154.63200378 353.31152344
174.01998901 153.38542175 342.60635376
164.77340698 136.64984131 353.16201782
167.84098816 131.20700073 360.02371216
197.05995178 145.17990112 365.22821045
177.72769165 129.09834290 367.39401245
172.69146729 128.93568420 364.73059082
165.92074585 147.15170288 343.67938232
181.75451660 158.97047424 342.83340454
189.82359314 159.98939514 348.81701660
162.36036682 141.43325806 348.06033325
193.77542114 138.25550842 370.32836914
176.36761475 157.83825684 340.93127441
189.54791260 134.18905640 372.19741821
167.45072937 151.62825012 341.32907104
162.78453064 133.03437805 357.05624390
184.05505371 130.51893616 372.15362549
196.95947266 142.02978516 370.68405151
199.44329834 150.10049438 366.53781128
199.89884949 156.19450378 361.12377930
177.86048889 128.02397156 372.75198364
158.97755432 134.99122620 354.45712280
198.49682617 147.11491394 370.84835815
168.35562134 156.10379028 338.74868774
192.82766724 164.27374268 350.25515747
185.70344543 164.36218262 343.06939697
160.18714905 148.07653809 341.96697998
197.30841064 162.55534363 355.84353638
162.62879944 128.41232300 364.92266846
193.20924377 137.19706726 377.31808472
201.34460449 155.47982788 366.16061401
173.44630432 126.23155212 373.79687500
198.45199585 151.53999329 373.61300659
179.74731445 128.85353088 377.94277954
154.74752808 139.73300171 348.39895630
167.80395508 125.22438049 371.03738403
187.44908142 133.13856506 379.83239746
176.07820129 164.68081665 337.66363525
156.70191956 130.85231018 360.19454956
201.25094604 160.57034302 363.75027466
160.64765930 153.52763367 338.07955933
197.81091309 146.42759705 377.55630493
191.28343201 168.97221375 347.10217285
200.40098572 156.58700562 371.84399414
191.00267029 135.93119812 381.70123291
169.56289673 162.56971741 335.10180664
164.91227722 159.65679932 335.59350586
181.73898315 168.82389832 338.80209351
152.88771057 145.42312622 342.53610229
151.52409363 134.33343506 354.29235840
174.17846680 127.22276306 380.50634766
186.42095947 170.90390015 341.27709961
199.58189392 167.25761414 362.00433350
163.23992920 125.00373840 373.02813721
196.10618591 171.09843445 353.83361816
169.35427856 125.46761322 378.60360718
180.98736572 131.68637085 384.55300903
194.85885620 143.03152466 383.62911987
198.18598938 152.76300049 380.53302002
201.68099976 161.68499756 372.54199219
157.21144104 156.45188904 335.41510010
158.52870178 125.46765900 372.04562378
190.45381165 174.40264893 344.34945679
201.68000793 166.04901123 369.58200073
170.97349548 168.04246521 332.90042114
152.26153564 128.07963562 366.21481323
174.41394043 129.12425232 385.62747192
179.94056702 173.10810852 335.86819458
175.20417786 171.03247070 333.23547363
189.61502075 138.23309326 388.98507690
146.31864929 139.66404724 347.67233276
147.76441956 145.71902466 342.27096558
183.12733459 134.33952332 389.47119141
151.18295288 152.84196472 337.17086792
147.50172424 130.83699036 359.86471558
199.49099731 173.29699707 362.70700073
197.08374023 149.36550903 386.83941650
197.75003052 175.97315979 356.51611328
158.13706970 161.87165833 332.46249390
162.39575195 124.90467072 380.87564087
200.85499573 160.88099670 381.17599487
168.51560974 127.68273163 386.79669189
187.53610229 177.61582947 339.42858887
195.52978516 178.30412292 349.79513550
178.62689209 133.24295044 391.43127441
152.54235840 158.79026794 333.55584717
202.53599548 165.86500549 377.57299805
192.82273865 178.96690369 343.96640015
146.31048584 150.51284790 338.73037720
201.16299438 171.72200012 371.88800049
168.91979980 171.85751343 330.01831055
163.20747375 168.75189209 329.88287354
145.50183105 128.86026001 365.33471680
148.51727295 126.42599487 370.54534912
156.93981934 124.38875580 380.43786621
180.05046082 177.54454041 333.79559326
175.38925171 175.53985596 331.30120850
143.28256226 147.25737000 341.22604370
194.79200745 146.91198730 392.45199585
141.50460815 135.25799561 352.96051025
162.43080139 125.89987946 386.03784180
201.20399475 175.57899475 368.48397827
197.18499756 155.72300720 389.76898193
140.48675537 139.56999207 349.11938477
146.48132324 155.07745361 335.38824463
151.52926636 124.08753967 376.47686768
190.73709106 142.62915039 394.86627197
183.49211121 137.31582642 396.76614380
140.66430664 130.77049255 361.02859497
200.41400146 162.58599854 387.35397339
201.46400452 172.98999023 377.71798706
155.43357849 166.79435730 329.04144287
203.10800171 179.54899597 362.50299072
198.65399170 182.78298950 352.18600464
175.32453918 133.44812012 396.33764648
201.70800781 181.40499878 357.14300537
165.81770325 127.89871979 392.59402466
137.88151550 143.37313843 345.56326294
141.02328491 128.83662415 366.69476318
141.86929321 153.88610840 336.50436401
190.80102539 184.10121155 338.99511719
154.39311218 123.97670746 385.09671021
201.77101135 177.38301086 374.79800415
145.99107361 124.98166656 376.49407959
202.26100159 170.45300293 384.29800415
197.87783813 185.36347961 347.87576294
173.43560791 179.75665283 327.72525024
144.93386841 160.38075256 332.13037109
184.35209656 183.94758606 333.11477661
148.37232971 163.95042419 329.84558105
194.14999390 152.89099121 397.51699829
158.23481750 172.05886841 326.56060791
164.70953369 176.02032471 326.15853882
149.22491455 123.72940063 382.12496948
186.35911560 142.80546570 401.13955688
134.34410095 138.88803101 351.88198853
157.48251343 125.41758728 392.17095947
202.39900208 184.95599365 364.95101929
140.11019897 127.18214417 374.22644043
135.52215576 150.03973389 340.18786621
177.13449097 183.81758118 328.09860229
133.60324097 134.12776184 358.08770752
189.83499146 148.76799011 402.04699707
198.50300598 163.86399841 394.87698364
200.37899780 168.54800415 391.19699097
149.42866516 168.17973328 327.07174683
197.68301392 185.01199341 372.95898438
205.72898865 185.51998901 358.89801025
153.05628967 171.55441284 325.98843384
195.75646973 188.64006042 342.33425903
135.51495361 129.40898132 366.46801758
199.21701050 182.71099854 377.22900391
174.73826599 136.00262451 402.90502930
169.21334839 131.71774292 401.06982422
197.44799805 187.75900269 367.34899902
194.57099915 159.23400879 399.12899780
204.88999939 182.53199768 372.80300903
201.47799683 177.13099670 384.39700317
201.38200378 188.87400818 357.59899902
144.54844666 124.96148682 383.46487427
207.74101257 184.55000305 365.98101807
162.47450256 127.39436340 398.77890015
131.31462097 144.84587097 346.64859009
180.27397156 141.77339172 405.37557983
147.84704590 124.47825623 388.73751831
189.07597351 189.90733337 334.34921265
198.87861633 190.91963196 346.64303589
152.65016174 125.10332489 393.31271362
205.47200012 188.73399353 354.90997314
190.66500854 155.55599976 403.33102417
138.46276855 161.38298035 332.09997559
203.05499268 181.85600281 380.73400879
196.35699463 184.46600342 381.21798706
133.79620361 129.78068542 371.15225220
192.61567688 191.35821533 337.49743652
185.22399902 147.19200134 406.20700073
168.37159729 183.50915527 323.64971924
129.32527161 137.21543884 357.74694824
198.90399170 168.71299744 396.36297607
128.56140137 142.71780396 351.17504883
180.09844971 188.65686035 327.04556274
129.73048401 148.44432068 343.36306763
132.60546875 155.31187439 337.26431274
163.02099609 181.75968933 322.63351440
153.14807129 176.11259460 323.47012329
203.17999268 191.84300232 349.97399902
184.21696472 190.61776733 329.60095215
138.84263611 126.84951782 383.08035278
198.96000671 175.97399902 392.69598389
129.53800964 132.17922974 365.41040039
198.04100037 194.16299438 358.73400879
167.43756104 133.38952637 406.20251465
170.86772156 136.70973206 407.61184692
193.48500061 165.57000732 402.42800903
132.69416809 130.42608643 375.98501587
186.98200989 154.74299622 407.45602417
143.12898254 170.29675293 325.67251587
157.94395447 181.10505676 321.94848633
194.24700928 191.66499329 375.80297852
138.13162231 166.33105469 328.69393921
148.59727478 125.31868744 395.45864868
133.22549438 161.16950989 333.63839722
196.01799011 194.45599365 369.08297729
202.28399658 180.92100525 389.21401978
196.11300659 170.33399963 400.50799561
171.00465393 187.85694885 322.19073486
175.49375916 189.92755127 323.16778564
195.43492126 195.65013123 339.05419922
193.63301086 190.45899963 381.42202759
128.04467773 154.33508301 339.61663818
182.78999329 152.77999878 409.75900269
214.15609741 187.25555420 367.90356445
147.80168152 176.05670166 322.75653076
157.75938416 126.47938538 403.18734741
125.37027740 136.67248535 361.45382690
190.24398804 195.59182739 333.19943237
188.82499695 163.05099487 407.06900024
199.38899231 197.31399536 352.29400635
163.91838074 130.70545959 407.67315674
198.27499390 181.32400513 393.14700317
175.28454590 143.46136475 411.31286621
179.23399353 148.49099731 411.40802002
123.81029510 142.30252075 355.63906860
201.24598694 196.43699646 344.12500000
194.25299072 186.03999329 390.07800293
214.18821716 186.51623535 374.15551758
135.55375671 128.67449951 387.09008789
141.62516785 125.77350616 393.76800537
181.24589539 193.90046692 324.80267334
133.36547852 166.38392639 330.11984253
151.82646179 125.26938629 401.92663574
123.29428101 148.72035217 347.00823975
214.89065552 190.84585571 364.18518066
185.77821350 196.02310181 328.16699219
194.84899902 175.31800842 402.19598389
185.12600708 160.03599548 411.08502197
121.74639893 146.02554321 351.69927979
200.46800232 199.21398926 361.32897949
157.62603760 185.81437683 319.28491211
167.96308899 140.18298340 412.68923950
191.75199890 170.70800781 406.26901245
197.24499512 180.52500916 398.26800537
127.40599823 162.00407410 335.60617065
123.16444397 135.54153442 368.34707642
197.95185852 199.90173340 339.63900757
120.98241425 140.51214600 361.26263428
180.29899597 157.07600403 413.28900146
213.02087402 187.86633301 381.17739868
197.62699890 198.56199646 373.60800171
124.60281372 133.98710632 375.67187500
141.75576782 177.41300964 322.14050293
130.80722046 131.01220703 387.10955811
122.27265930 154.67817688 341.99179077
150.81874084 183.28057861 318.88827515
174.42199707 149.80599976 414.97399902
201.96301270 201.06600952 356.50399780
219.35615540 190.43994141 367.06243896
200.37800598 199.94700623 368.60400391
191.59300232 188.51499939 394.33099365
192.22529602 200.29771423 332.73852539
136.31335449 173.63887024 324.72219849
144.10461426 126.36627197 401.05944824
123.70502472 159.53694153 338.60473633
164.14476013 137.66621399 413.66900635
166.56600952 191.66171265 318.03222656
191.95899963 192.97698975 389.42098999
187.35200500 165.77999878 411.85400391
158.16490173 128.76695251 410.69995117
127.64669800 166.39808655 332.04370117
202.02200317 202.37800598 349.91601562
125.86354065 132.86140442 382.53543091
215.64970398 194.56665039 367.93798828
193.42799377 183.85600281 400.54397583
217.97358704 188.05235291 379.96896362
173.50494385 195.61320496 318.99603271
133.40237427 129.47715759 393.78863525
129.95736694 169.95951843 328.21963501
219.18074036 194.20541382 361.86450195
180.30355835 198.59020996 321.93362427
118.42652893 153.01977539 345.93856812
213.78439331 193.55198669 377.68041992
182.26300049 164.69400024 414.86700439
199.37998962 200.01399231 378.19201660
193.01599121 178.41101074 406.76098633
195.22399902 197.76800537 385.05398560
170.20199585 147.00000000 417.92898560
221.50849915 190.27711487 374.79531860
116.71675873 146.05747986 359.78594971
116.61013794 149.07467651 353.17971802
189.94999695 173.95899963 410.77600098
145.65721130 126.44692993 406.47250366
171.45500183 152.90899658 417.87500000
202.18199158 203.98699951 341.69198608
158.48675537 191.43487549 316.32339478
116.92103577 143.09593201 365.69143677
151.33457947 127.03080750 410.72012329
122.72794342 165.92726135 335.19805908
206.51499939 203.51399231 362.17401123
164.40438843 143.57022095 417.95184326
138.71777344 127.70776367 402.70822144
144.13002014 184.49169922 318.02352905
173.06199646 157.51600647 418.31201172
186.58578491 202.95079041 325.44692993
117.43797302 140.26118469 371.98126221
190.09899902 189.50199890 400.45101929
177.58700562 161.92799377 417.68899536
134.81272888 128.36651611 399.61526489
118.57030487 160.57394409 340.93753052
206.03099060 201.86399841 373.93200684
205.12800598 205.64700317 352.90499878
212.50799561 198.87199402 374.20498657
218.77908325 189.88423157 384.55795288
213.24440002 192.75408936 386.11587524
208.81300354 202.61000061 368.32498169
124.97012329 134.13415527 389.35848999
199.35501099 200.35200500 383.53100586
223.60530090 193.14643860 371.17666626
122.18907166 135.64198303 385.45361328
194.40740967 205.95603943 333.12301636
118.63634491 138.17904663 378.32192993
127.74304962 133.09219360 394.07928467
193.03500366 183.50698853 406.83300781
186.82899475 171.71299744 415.17800903
193.82699585 197.91099548 391.78698730
155.17965698 130.98707581 416.28280640
216.37300110 201.36900330 364.68899536
113.65451813 147.02497864 364.25344849
131.55345154 178.78479004 323.05084229
206.39199829 201.43899536 380.42501831
122.96740723 170.95782471 330.79483032
113.97588348 156.93367004 347.22976685
213.50947571 191.73908997 391.76104736
164.35598755 148.15800476 421.31900024
167.86299133 155.29200745 421.12402344
211.19999695 197.90600586 384.83801270
188.72200012 189.52400208 405.23202515
190.64428711 207.45634460 328.37832642
181.29699707 170.01300049 418.57598877
159.24174500 143.59344482 420.62689209
165.01364136 198.10343933 313.62829590
225.67008972 196.31825256 368.06546021
150.02314758 192.32283020 315.03778076
213.58999634 205.11799622 362.65798950
136.68418884 184.46736145 319.07638550
210.02299500 207.42900085 357.82501221
201.54264832 209.52514648 340.91372681
169.93629456 200.46113586 314.28698730
192.39201355 197.82099915 396.85601807
198.90068054 209.54283142 336.79830933
172.47000122 163.66101074 421.20599365
155.38276672 136.77316284 419.99673462
225.56294250 194.79624939 375.84048462
120.95204163 137.24583435 391.14456177
188.20799255 178.04400635 415.49499512
189.40701294 194.78599548 401.82699585
113.86932373 144.24642944 376.34582520
124.46916962 175.89401245 326.83578491
202.30599976 201.52301025 388.67300415
142.80059814 127.97463226 412.51354980
115.61326599 166.86758423 340.54479980
175.79196167 203.29853821 315.82312012
207.08200073 201.06600952 386.79598999
190.39500427 185.37699890 410.80700684
167.11999512 160.85499573 421.94198608
110.71639252 152.02142334 362.29049683
209.10800171 209.50299072 353.04299927
111.41888428 148.71185303 369.48324585
162.14813232 201.98913574 389.52383423
116.32380676 141.52517700 385.28878784
224.14996338 201.38493347 361.56881714
110.19168854 155.10801697 355.21652222
206.06399536 210.56999207 344.32501221
187.08865356 208.80676270 323.74932861
147.39787292 128.56770325 416.77484131
183.65283203 207.55035400 320.59603882
156.99981689 199.40693665 391.44619751
118.25189972 172.06948853 333.37585449
163.02299500 156.46000671 423.06799316
198.55499268 201.27299500 393.83798218
167.57484436 204.74229431 388.95321655
133.63420105 129.27705383 407.59396362
123.90000916 135.29409790 398.32446289
224.37437439 194.60043335 383.73312378
175.94499207 168.72100830 422.13299561
219.96784973 193.29640198 391.05374146
127.09656525 181.72807312 323.69195557
219.44400024 205.95700073 361.06100464
113.54404449 144.24389648 382.26168823
141.79640198 191.56501770 315.25198364
213.42500305 194.00300598 396.89001465
189.17100525 182.90100098 415.53598022
184.99299622 175.07800293 420.36700439
150.87207031 132.99824524 420.97204590
127.42414856 132.62867737 403.95764160
214.45399475 209.72700500 359.97998047
180.19787598 207.89669800 317.07678223
109.39356232 162.10516357 349.46136475
108.02592468 155.98173523 360.00976562
110.76214600 166.44065857 345.69973755
193.42732239 213.20899963 329.85293579
108.67371368 152.86721802 369.13079834
173.77899170 206.16300964 393.22900391
153.17350769 143.76043701 423.86437988
137.10375977 129.19786072 413.73867798
161.94227600 200.72924805 397.60357666
160.85112000 201.55195618 310.85275269
169.90881348 210.47167969 384.83663940
174.47236633 209.68516541 387.88256836
162.57099915 161.72399902 424.80297852
154.80427551 197.29467773 398.65625000
187.32699585 195.42300415 408.05700684
209.76699829 200.28199768 394.89199829
186.01100159 180.81500244 419.48397827
166.49598694 165.69900513 424.78601074
141.77970886 129.29927063 417.63369751
155.25701904 200.12979126 311.21270752
118.74551392 139.06286621 396.75964355
135.08409119 190.76516724 317.14581299
109.17286682 150.86724854 376.49191284
197.93139648 215.18585205 334.66665649
118.10829926 177.97125244 329.65206909
157.13844299 205.19198608 390.01260376
146.76075745 197.25717163 312.72048950
186.92800903 189.67300415 414.11099243
164.10462952 212.20463562 380.68096924
163.29330444 209.43717957 386.66079712
114.24588776 143.74639893 391.11703491
156.97300720 151.55300903 426.35800171
191.22399902 200.02600098 404.23300171
120.81363678 137.71560669 401.15170288
112.89073944 173.92427063 338.46444702
128.73107910 131.73562622 409.32723999
199.02239990 216.61555481 339.07141113
106.42819977 157.27561951 364.41131592
128.83804321 188.28167725 320.01419067
178.44000244 209.88400269 391.90301514
106.50403595 161.65304565 356.97024536
208.66499329 215.27198792 345.96197510
229.69090271 199.71919250 377.10153198
158.33898926 157.95100403 426.43402100
173.75799561 205.76699829 398.10800171
214.95300293 213.17300415 355.55401611
181.28498840 207.70399475 396.16598511
114.60279083 176.42764282 333.45373535
224.84765625 196.91172791 390.03771973
121.41929626 183.61515808 326.22073364
196.78300476 202.64700317 401.24600220
227.53593445 198.49781799 384.11712646
167.53553772 204.74179077 398.53579712
109.99069214 148.22331238 384.63375854
171.82899475 171.04800415 426.07400513
168.93237305 207.55177307 311.63873291
228.15007019 205.11393738 365.32022095
137.76771545 194.92027283 315.14019775
202.57798767 203.23799133 399.13497925
215.47000122 195.90299988 400.99499512
123.88981628 186.64651489 323.34024048
106.47476959 165.90887451 352.54861450
230.55102539 203.05497742 369.72122192
221.34800720 196.74600220 395.94702148
181.76699829 178.80099487 424.09399414
186.85301208 185.61500549 420.11499023
176.05000305 175.20700073 426.09799194
179.92735291 212.57234192 315.47415161
185.37500000 207.09001160 400.35000610
147.43124390 138.51138306 425.99301147
105.28266907 158.79974365 369.80926514
123.75952911 135.01370239 408.44061279
105.97541809 156.58595276 375.18762207
104.73429871 162.24810791 363.19586182
157.32070923 203.71530151 398.90017700
149.45758057 148.97920227 426.97021484
220.40798950 212.74499512 360.32400513
187.43003845 216.24998474 321.73425293
178.34584045 214.65539551 389.10705566
210.13200378 201.32699585 401.23999023
166.75299072 170.39799500 427.92098999
145.82154846 144.02102661 426.08123779
142.58070374 130.67477417 423.57922363
216.70599365 215.52699280 351.54400635
104.65256500 165.69352722 359.17373657
226.19400024 210.06999207 361.39199829
195.66250610 218.92495728 330.32385254
173.28369141 211.44770813 311.81454468
164.11074829 207.86997986 308.95291138
150.83589172 203.41661072 309.55950928
119.64820099 138.55087280 406.26406860
108.48540497 176.30548096 344.30392456
126.82125092 132.83050537 413.48117065
186.01599121 197.10299683 414.13998413
113.53755951 181.70986938 332.02749634
184.89601135 213.57899475 393.72000122
187.39099121 211.22900391 397.46099854
135.42776489 130.56448364 420.36743164
131.10070801 131.04801941 417.36456299
