ply
format ascii 1.0
element vertex 2048
property float x
property float y
property float z
end_header
289.05584717 275.45111084 464.34680176
293.20880127 286.21322632 466.48040771
294.53695679 272.67633057 463.68746948
298.00476074 280.82583618 464.02740479
140.72079468 160.01660156 499.67193604
129.51210022 163.67663574 499.50234985
148.33053589 159.81674194 489.61950684
136.38244629 161.96299744 487.38787842
127.17163086 182.95953369 553.32427979
119.57664490 189.61134338 558.98339844
131.23928833 173.45921326 540.61151123
121.37243652 180.45701599 544.98358154
131.39715576 168.85443115 527.42193604
121.69566345 173.98599243 531.06506348
136.29687500 163.06997681 514.91143799
124.52574921 167.10076904 516.64666748
118.29069519 169.30577087 498.27511597
109.41916656 176.93551636 500.50854492
124.01221466 166.08598328 486.21276855
114.60247803 172.88366699 487.21572876
128.31970215 274.11618042 622.38562012
137.45559692 278.05218506 627.11999512
137.45243835 285.84368896 622.37933350
146.99911499 288.26010132 627.27484131
109.71083832 177.54898071 493.34948730
103.07746124 186.56478882 496.41073608
113.86695862 174.16171265 482.02493286
106.50263214 182.53717041 484.26309204
115.07025146 189.77926636 550.84161377
108.78866577 199.12580872 555.37640381
113.63256836 184.17385864 539.10406494
106.28508759 193.71420288 542.44812012
147.89601135 160.95306396 518.24536133
144.17118835 165.99813843 528.51245117
159.11628723 160.78665161 507.20309448
155.10025024 164.82272339 516.92462158
115.38716888 174.05374146 519.85186768
106.98748779 182.61349487 522.97625732
119.11672974 168.98233032 507.63946533
109.50265503 177.30932617 509.54595947
114.69049072 202.82426453 567.45245361
110.40059662 212.93757629 572.88146973
110.95724487 196.68118286 555.38171387
105.89742279 207.64341736 560.14453125
121.10330963 254.22886658 614.15509033
128.13691711 264.37377930 619.98486328
119.27065277 264.61813354 612.86169434
127.37014771 275.12326050 618.78942871
157.99844360 161.52166748 489.34515381
150.17721558 158.95108032 493.80987549
167.12380981 165.79995728 481.96606445
157.90576172 162.21154785 483.95037842
102.58184814 188.73651123 518.58489990
97.86434174 198.46855164 523.04986572
104.15540314 184.32339478 506.73794556
98.52262115 193.87005615 510.50805664
127.20188904 167.89805603 478.78704834
117.89009094 175.25396729 478.28256226
134.99121094 169.51795959 468.92178345
125.88269043 175.55097961 467.70001221
255.27383423 242.62460327 470.23477173
260.51901245 245.22190857 471.84991455
262.64498901 244.44392395 466.24029541
265.14593506 245.30758667 467.60125732
148.16630554 163.73944092 478.35162354
136.66059875 165.84803772 474.76739502
156.87458801 169.69747925 470.15203857
145.09924316 171.18733215 465.56198120
267.69165039 262.12884521 464.75744629
269.65597534 272.44436646 464.54901123
275.26742554 262.02352905 463.11111450
274.67669678 268.29589844 462.85025024
103.07070160 196.26068115 472.22073364
97.55061340 206.45193481 475.01422119
108.32536316 192.84393311 460.79193115
102.09223175 202.16731262 462.63668823
114.26533508 181.82492065 470.92761230
106.36385345 190.42785645 470.78436279
123.05207825 180.67687988 460.61798096
115.16955566 188.07490540 460.04040527
123.61697388 211.85417175 578.30273438
119.33360291 220.97952271 584.88555908
127.88475037 204.16912842 567.95556641
123.29573059 214.04440308 573.29766846
277.23941040 291.94384766 475.05401611
275.29827881 301.07971191 479.69488525
284.19876099 289.36968994 474.59820557
280.96197510 296.03796387 477.21081543
167.85690308 163.25401306 494.35305786
168.91752625 166.24841309 505.62707520
175.78155518 170.45877075 486.15878296
177.02545166 173.31307983 496.88928223
110.80880737 218.21151733 574.64044189
109.20941162 229.12109375 580.15740967
106.79750061 214.78582764 563.37701416
105.44828796 226.07666016 568.55053711
99.38581848 195.32955933 495.57461548
95.55093384 205.36914062 499.68795776
101.91046143 191.00280762 483.92144775
97.36673737 200.65901184 487.35189819
101.95655823 205.35852051 548.06286621
99.66046906 215.69512939 553.84680176
100.05860138 201.11392212 535.35223389
97.43653107 211.67591858 540.78277588
116.27583313 245.25529480 599.56481934
119.81369781 256.73992920 605.56207275
112.77916718 249.51779175 591.36108398
117.63043976 261.54171753 597.79223633
148.26805115 177.44879150 539.23492432
145.29537964 186.50042725 548.70996094
162.44796753 180.14932251 531.42401123
159.23660278 188.57110596 540.92852783
167.86227417 169.82846069 517.61065674
166.45248413 177.37606812 528.15582275
180.06469727 173.72760010 508.51480103
178.62544250 180.76963806 518.75659180
145.92111206 292.93453979 612.19171143
146.54870605 291.65377808 619.02099609
160.16040039 299.85980225 607.82177734
160.65016174 297.98922729 613.49035645
132.21237183 193.64138794 558.62335205
128.70532227 202.85311890 567.15045166
145.18737793 191.38322449 549.39685059
141.74957275 200.79086304 557.60803223
127.65082550 227.85002136 591.67645264
126.36691284 239.90342712 596.43609619
134.46482849 231.11930847 587.83520508
133.59143066 243.93948364 592.52532959
121.63830566 277.67010498 601.80584717
129.42604065 283.44610596 609.62304688
125.25833130 288.71850586 595.48248291
134.25730896 293.88470459 603.74841309
120.47079468 191.51736450 457.74682617
111.44232941 200.16665649 455.56088257
129.76309204 193.14358521 450.30267334
121.57723999 200.67642212 447.04602051
141.99340820 258.07974243 612.72106934
140.46566772 270.05731201 617.23425293
154.99685669 264.83529663 610.94110107
152.77659607 276.97717285 615.93347168
93.66809082 219.32324219 472.17980957
91.04654694 230.72363281 476.18005371
95.47757721 216.97660828 461.00903320
92.25989532 227.89671326 463.82751465
253.33703613 335.33782959 499.73217773
250.74023438 334.76531982 510.34265137
262.31869507 331.99346924 499.90756226
257.72363281 333.76293945 506.81277466
99.84791565 224.93965149 554.78454590
101.13393402 235.22358704 561.40423584
96.36165619 223.60412598 544.34051514
98.40074921 234.17034912 550.91278076
169.72195435 172.64042664 474.95019531
166.22305298 170.42596436 477.30422974
175.93612671 181.72787476 469.58230591
172.63418579 179.15319824 470.64083862
133.69248962 202.01303101 442.72158813
126.10487366 211.18472290 437.88085938
142.83892822 207.87330627 438.85617065
136.64160156 216.79855347 432.92425537
254.01898193 297.49407959 464.74801636
250.74707031 308.23092651 465.85391235
262.64511108 296.81976318 465.87649536
257.83410645 303.56161499 465.87301636
96.63803864 209.86111450 526.33172607
95.21377563 220.17031860 531.87103271
95.87469482 205.55120850 514.80706787
94.52626801 216.14691162 520.02801514
103.41265869 201.82025146 459.46215820
97.62188721 212.60131836 459.36105347
111.36891174 199.91175842 449.14135742
105.30850983 210.01454163 448.14996338
107.95316315 239.88812256 582.09063721
110.99706268 250.24789429 588.97784424
105.54135132 241.89772034 571.76879883
109.74593353 252.83468628 578.94982910
199.13235474 282.31277466 586.69793701
191.62689209 286.97549438 592.34045410
214.80682373 284.56460571 579.06024170
206.68099976 288.17831421 585.34185791
145.29696655 178.22271729 462.81472778
135.21525574 183.75018311 457.14614868
155.25860596 183.34152222 457.77175903
146.04476929 188.06744385 451.40380859
108.49765778 216.74827576 442.72778320
102.80377960 228.25398254 442.86706543
116.03682709 217.06423950 435.40405273
110.65261078 228.49412537 434.78735352
179.51245117 226.22692871 567.80303955
178.81309509 234.01043701 579.04754639
193.43325806 230.42306519 563.96093750
191.92132568 237.72209167 576.12390137
145.17535400 305.83090210 590.89520264
149.32832336 304.23522949 601.81744385
156.76795959 314.06942749 584.44720459
159.59277344 311.85787964 594.50366211
152.15534973 236.96907043 590.15466309
150.38269043 248.15879822 598.52166748
167.16734314 242.65661621 589.89648438
164.46363831 253.53038025 598.42358398
95.00608063 237.63710022 460.06958008
94.02260590 249.48828125 464.71334839
98.23192596 238.33224487 450.73144531
96.67416382 250.17921448 454.48522949
168.53666687 268.17816162 600.96929932
163.19036865 276.97491455 606.55151367
183.86041260 272.61447144 597.94226074
176.56982422 280.85510254 603.37493896
231.90608215 241.68373108 464.07214355
233.24633789 246.51605225 461.95825195
238.98892212 244.49485779 462.73648071
239.64852905 246.56265259 461.80252075
173.08796692 306.94964600 594.78857422
168.03524780 303.95996094 602.08020020
189.48759460 310.79714966 589.23791504
181.74198914 308.52844238 594.83276367
234.80958557 322.59008789 471.13641357
230.59448242 329.09814453 477.80139160
244.75650024 322.76873779 472.68365479
238.00672913 326.88958740 475.68487549
149.26861572 202.07902527 559.90509033
146.54527283 211.67623901 569.08520508
163.62020874 205.79910278 556.14916992
161.03553772 214.71382141 565.55895996
92.84691620 217.65399170 503.08172607
91.72283173 228.73838806 508.34005737
92.59859467 214.57427979 492.28588867
91.56983185 225.58285522 496.71481323
138.69868469 220.90634155 580.00579834
138.23208618 232.05393982 588.49499512
151.34375000 224.87077332 576.62066650
150.57092285 236.08999634 585.24047852
178.27676392 186.33111572 527.75598145
177.49577332 195.21000671 537.57226562
189.89306641 191.72586060 523.39550781
189.00292969 200.06549072 533.97015381
229.45928955 265.44891357 455.94488525
226.22158813 275.75814819 452.82830811
237.68518066 267.24426270 457.65692139
234.43128967 273.39050293 455.84890747
175.03424072 201.44992065 548.72729492
174.67507935 210.79437256 558.43615723
187.20718384 206.09265137 544.48901367
186.53082275 214.95892334 555.08050537
250.60948181 273.72705078 465.41830444
247.80427551 283.26107788 464.79861450
258.40353394 274.22082520 465.45874023
254.56100464 279.39511108 465.06771851
262.81478882 302.83190918 492.71948242
259.97732544 313.06634521 498.63623047
269.77459717 302.74661255 488.80584717
264.72122192 308.74066162 493.68927002
112.62421417 260.59283447 583.15545654
118.32862854 268.04983521 590.91369629
114.10087585 269.31796265 573.58325195
121.53471375 276.83816528 582.03448486
267.18270874 251.05427551 463.91067505
263.53768921 251.00297546 463.87286377
267.40679932 251.04290771 463.91244507
267.08624268 251.00714111 463.86911011
278.83657837 263.87088013 463.36856079
275.04339600 263.81890869 463.36599731
279.05413818 263.85986328 463.35876465
278.76834106 263.81765747 463.33093262
232.89237976 225.04187012 501.41842651
230.43000793 225.02560425 501.37573242
233.07150269 225.03605652 501.39489746
232.88801575 225.03005981 501.36038208
257.08416748 239.37355042 471.70840454
253.73944092 239.31066895 471.68872070
257.30993652 239.34190369 471.67913818
256.95788574 239.30062866 471.65231323
266.30575562 263.84802246 480.98687744
262.88442993 263.80636597 480.93109131
266.50396729 263.82238770 480.99145508
266.23992920 263.80392456 480.94384766
248.89114380 241.80834961 479.09460449
245.64952087 241.78005981 479.04382324
249.13150024 241.80628967 479.07260132
248.79090881 241.79432678 479.02874756
216.98971558 220.52801514 491.20309448
214.69171143 220.50897217 491.15197754
217.20297241 220.52313232 491.20248413
217.01524353 220.51159668 491.15939331
258.68841553 260.53723145 463.84594727
254.85159302 260.50796509 463.80517578
258.99935913 260.47164917 463.87515259
258.63769531 260.46585083 463.83480835
274.69338989 259.80389404 472.08813477
271.29632568 259.75018311 472.07049561
274.88265991 259.75744629 472.09658813
274.63342285 259.72308350 472.06439209
187.86032104 201.30287170 465.74462891
185.45890808 201.27862549 465.68093872
188.15324402 201.30361938 465.74810791
187.96826172 201.28144836 465.68716431
228.89425659 227.75645447 483.58587646
226.43051147 227.73840332 483.55404663
229.13760376 227.74798584 483.59390259
228.95906067 227.73922729 483.56414795
257.53686523 252.41131592 483.40469360
254.23086548 252.36355591 483.37667847
257.76092529 252.38217163 483.38534546
257.43322754 252.35638428 483.35745239
185.79052734 216.70031738 454.25213623
182.58781433 216.67977905 454.14245605
186.16989136 216.69454956 454.27838135
185.76727295 216.68312073 454.19396973
198.02235413 208.85421753 479.93887329
195.78439331 208.83642578 479.89047241
198.24520874 208.85139465 479.93310547
198.08775330 208.83692932 479.88769531
237.81887817 230.70643616 493.34741211
235.56262207 230.67945862 493.33392334
237.99307251 230.70500183 493.34710693
237.87240601 230.68730164 493.32815552
208.41619873 276.07650757 448.88565063
203.97521973 276.07690430 448.79064941
208.95263672 276.04782104 448.92196655
208.35913086 276.08233643 448.84417725
176.19451904 201.83392334 453.70434570
172.78877258 201.80856323 453.58831787
176.62123108 201.83035278 453.72363281
176.17675781 201.81663513 453.64065552
274.05239868 277.44320679 468.75128174
270.31695557 277.39407349 468.71603394
274.28955078 277.42501831 468.74749756
274.07052612 277.39996338 468.70425415
191.65742493 214.09432983 466.29931641
189.17951965 214.07989502 466.22250366
191.95440674 214.09075928 466.30581665
191.74888611 214.07984924 466.23596191
243.26205444 246.91236877 462.07687378
239.68261719 246.87663269 462.04067993
243.55758667 246.88081360 462.06558228
243.14320374 246.86750793 462.02777100
217.11453247 226.67486572 478.33236694
214.47285461 226.65068054 478.29080200
217.38803101 226.68942261 478.32885742
217.17312622 226.67846680 478.29373169
246.33769226 255.75624084 493.51739502
243.57962036 255.73086548 493.47564697
246.54260254 255.73622131 493.53378296
246.38005066 255.73187256 493.49865723
233.45776367 250.40455627 458.11441040
229.74215698 250.37994385 458.06259155
233.78106689 250.39205933 458.07965088
233.34492493 250.38940430 458.03359985
240.57276917 242.24874878 490.51275635
238.25956726 242.22705078 490.48449707
240.75097656 242.23596191 490.54275513
240.65429688 242.22535706 490.51254272
244.58877563 273.70959473 459.57470703
240.34976196 273.69381714 459.52981567
244.97227478 273.63952637 459.61065674
244.46217346 273.66018677 459.56353760
219.54545593 225.38424683 504.62915039
217.29953003 225.35818481 504.58685303
219.75558472 225.34667969 504.64913940
219.58963013 225.33357239 504.61529541
207.98477173 260.14620972 449.76318359
203.98992920 260.14773560 449.65563965
208.42218018 260.13870239 449.77951050
207.92938232 260.16278076 449.69683838
268.34085083 289.61257935 468.50347900
264.19906616 289.56484985 468.45532227
268.66522217 289.57696533 468.52536011
268.36474609 289.56576538 468.47262573
236.47810364 238.29190063 470.54244995
233.24992371 238.25079346 470.51681519
236.74645996 238.26593018 470.50128174
236.36405945 238.24850464 470.47073364
259.02017212 273.86145020 466.14038086
254.90469360 273.81192017 466.10040283
259.34210205 273.80526733 466.15036011
258.91384888 273.79327393 466.10662842
225.91043091 243.88847351 463.64236450
222.36801147 243.85000610 463.60546875
226.26956177 243.84924316 463.62969971
225.80395508 243.84234619 463.59579468
264.08804321 285.10232544 490.63381958
260.41885376 285.05651855 490.57992554
264.30368042 285.10412598 490.59375000
264.06811523 285.09109497 490.55184937
182.60375977 228.10101318 445.42520142
178.98881531 228.08485413 445.31515503
183.06352234 228.08515930 445.45581055
182.60733032 228.07934570 445.37243652
247.14520264 255.20265198 504.58142090
244.53051758 255.18493652 504.57061768
247.34002686 255.19023132 504.58602905
247.20996094 255.19117737 504.57345581
245.38589478 238.01632690 502.12075806
243.01936340 237.99871826 502.10519409
245.56192017 238.00323486 502.14080811
245.47186279 237.99543762 502.12124634
193.68266296 257.48873901 443.52575684
189.60131836 257.49218750 443.41009521
194.18373108 257.45230103 443.55288696
193.65003967 257.47341919 443.46722412
215.77352905 237.29193115 509.14163208
213.33538818 237.28584290 509.07611084
216.01066589 237.26657104 509.16430664
215.79641724 237.27801514 509.11221313
239.81991577 260.17660522 458.50323486
235.78952026 260.15457153 458.44802856
240.18875122 260.10961914 458.51010132
239.66345215 260.11862183 458.45620728
217.13644409 236.17480469 471.05175781
214.26463318 236.14453125 471.02328491
217.44229126 236.15391541 471.02090454
217.14199829 236.14320374 470.99353027
233.92234802 272.83215332 456.19015503
229.46551514 272.82147217 456.14746094
234.35717773 272.79705811 456.18942261
233.78862000 272.82232666 456.14923096
213.36355591 237.48365784 489.40725708
210.81225586 237.47741699 489.33740234
213.59912109 237.48738098 489.39611816
213.35705566 237.49522400 489.33535767
254.06317139 262.99758911 492.29248047
250.98709106 262.96859741 492.27694702
254.27998352 262.99365234 492.28729248
254.09826660 262.98388672 492.26901245
185.96531677 281.41128540 440.86529541
181.06782532 281.44851685 440.78479004
186.66986084 281.36254883 440.91510010
185.87564087 281.41690063 440.84448242
201.05966187 235.22207642 500.22491455
198.39112854 235.21171570 500.17395020
201.35044861 235.22653198 500.19473267
201.08535767 235.23231506 500.15588379
272.43756104 276.44198608 481.07733154
269.08071899 276.39077759 481.05688477
272.63757324 276.41091919 481.08581543
272.44229126 276.38436890 481.05953979
171.46403503 217.31954956 445.42404175
167.54692078 217.29841614 445.27258301
171.94895935 217.32131958 445.44036865
171.40805054 217.31094360 445.33792114
255.58825684 275.44918823 495.56369019
252.44766235 275.41464233 495.54116821
255.79162598 275.44235229 495.55975342
255.60867310 275.43664551 495.54074097
261.69958496 309.67086792 471.65786743
256.78912354 309.61044312 471.59423828
262.12124634 309.63452148 471.68667603
261.58355713 309.63381958 471.61941528
217.52197266 256.04638672 457.72387695
213.77394104 256.02297974 457.67172241
217.91166687 256.00845337 457.71249390
217.44749451 256.01593018 457.66833496
191.70245361 269.53695679 443.41625977
186.98803711 269.55572510 443.30297852
192.33441162 269.47976685 443.45831299
191.57327271 269.52053833 443.37081909
251.75451660 293.44433594 463.13409424
246.59848022 293.38885498 463.07690430
252.29501343 293.40179443 463.14514160
251.65655518 293.40402222 463.08737183
233.18727112 265.13595581 501.80618286
230.22305298 265.11978149 501.76739502
233.46594238 265.15264893 501.79714966
233.22837830 265.16183472 501.77285767
168.94511414 228.16836548 438.95288086
164.58425903 228.18249512 438.83068848
169.55653381 228.11990356 438.98617554
168.83152771 228.14758301 438.90722656
238.47644043 267.99288940 513.91113281
235.64038086 267.95574951 513.89331055
238.70622253 267.97305298 513.90545654
238.50422668 267.96713257 513.89697266
195.46661377 279.42861938 445.41839600
190.50355530 279.45495605 445.32922363
196.13963318 279.37277222 445.45507812
195.33334351 279.42532349 445.38543701
192.79182434 222.05343628 496.48855591
190.53457642 222.06893921 496.41772461
193.03663635 222.06140137 496.49130249
192.84069824 222.08105469 496.42886353
177.69268799 247.15924072 439.11126709
173.28312683 247.15560913 438.97964478
178.24905396 247.14099121 439.15859985
177.58767700 247.15075684 439.07009888
191.71974182 245.08712769 448.82470703
188.26791382 245.07754517 448.73141479
192.16522217 245.05659485 448.84844971
191.77008057 245.06333923 448.77200317
156.73191833 210.51145935 443.32733154
152.48902893 210.51547241 443.20739746
157.32054138 210.47387695 443.36849976
156.62013245 210.48913574 443.30001831
181.92977905 270.61380005 438.77194214
177.22602844 270.63397217 438.67022705
182.60470581 270.54980469 438.81900024
181.83645630 270.58779907 438.73681641
221.23745728 273.29928589 456.17590332
216.70947266 273.27877808 456.12014771
221.75708008 273.24414062 456.18667603
221.07049561 273.26806641 456.13973999
243.48019409 307.57601929 463.43719482
238.34585571 307.51306152 463.40496826
244.03450012 307.50610352 463.49084473
243.43151855 307.51397705 463.44824219
242.58706665 285.86605835 460.34729004
238.21759033 285.84359741 460.30935669
243.02166748 285.79733276 460.40020752
242.50463867 285.82058716 460.35256958
177.52590942 260.24700928 437.34384155
172.79998779 260.25778198 437.22546387
178.14848328 260.20010376 437.38787842
177.38363647 260.22378540 437.30407715
279.39361572 282.42141724 478.30822754
277.65313721 293.53109741 482.34954834
286.35244751 288.53448486 473.02511597
284.57720947 298.98272705 477.68258667
266.98370361 302.16668701 491.76666260
262.39575195 311.68807983 497.36993408
274.24902344 306.39022827 485.23544312
270.08447266 315.17224121 490.38269043
281.99566650 264.96481323 459.92266846
285.14306641 277.97036743 461.25292969
290.39324951 269.93826294 465.21881104
293.01794434 283.09127808 467.38494873
261.57696533 272.29730225 491.14630127
258.01171875 281.30679321 497.13507080
267.32495117 277.57644653 484.75833130
263.30889893 286.74816895 490.51116943
246.42846680 309.00650024 515.28216553
239.95307922 315.89688110 522.98986816
253.94024658 313.61447144 506.78073120
248.06100464 320.49853516 513.40887451
253.75408936 290.69363403 501.44656372
248.50152588 299.12173462 507.72918701
260.44616699 295.65234375 494.57461548
255.03350830 304.32690430 500.38647461
249.33964539 241.16452026 491.47174072
251.50039673 247.19543457 499.49752808
255.60647583 246.66143799 483.16790771
257.87203979 252.60388184 492.06579590
250.79101562 254.15090942 508.11099243
247.11517334 260.91171265 515.87133789
257.01257324 259.16180420 500.37380981
252.68687439 265.73199463 508.29003906
238.00613403 295.65759277 519.01953125
231.48019409 302.74493408 525.73925781
244.90335083 301.65167236 512.29028320
238.34370422 308.91909790 518.51080322
232.57189941 231.41510010 520.27606201
233.01478577 234.96665955 530.60424805
242.03613281 235.98147583 512.19128418
241.97872925 238.63671875 523.12823486
242.49337769 275.06182861 514.82128906
236.39927673 282.05224609 520.95751953
248.73718262 280.72988892 507.95196533
241.92897034 287.71716309 513.88598633
226.63577271 307.68362427 534.19580078
219.50315857 312.48382568 543.29589844
233.85475159 313.78247070 526.45861816
227.15608215 318.35409546 534.19580078
225.45059204 222.14385986 501.67984009
230.40930176 224.51420593 510.50820923
233.82183838 226.72286987 492.66192627
238.62887573 227.86459351 502.28863525
230.17259216 244.71081543 537.18280029
225.17280579 249.38935852 546.32507324
240.18057251 250.22036743 532.18621826
234.54147339 254.40704346 540.67749023
254.47686768 330.71664429 495.34771729
250.09692383 333.95117188 506.71438599
263.79446411 327.79544067 494.13330078
259.43609619 330.80142212 503.88641357
212.55697632 310.75173950 556.52893066
208.53776550 313.48110962 568.66662598
217.96330261 315.99246216 548.54107666
214.91940308 318.06234741 559.11572266
227.09762573 283.06021118 532.53167725
220.81182861 288.69458008 540.08978271
234.15386963 289.80258179 526.95153809
227.25086975 295.22683716 534.16839600
261.73745728 294.28311157 464.34631348
264.63092041 306.50082397 467.46710205
274.87991333 297.28277588 468.49401855
276.56829834 309.75326538 472.35629272
245.20037842 252.86666870 459.73361206
249.09161377 264.56195068 457.39328003
256.55651855 258.46994019 460.02008057
259.94534302 271.02471924 458.46551514
225.99066162 227.92094421 479.85650635
232.25117493 233.59269714 483.28692627
234.78741455 233.45367432 471.23458862
242.09274292 239.02009583 475.76147461
230.77662659 332.87869263 519.35131836
227.32775879 330.69320679 531.96081543
237.98770142 331.22061157 515.16357422
235.06809998 329.09356689 525.80139160
219.12135315 292.41412354 544.78204346
212.53854370 296.80197144 553.63354492
225.70785522 300.33456421 538.99755859
219.17243958 304.46383667 546.94122314
212.66755676 331.96420288 538.71002197
209.67422485 327.83020020 551.66082764
218.54127502 329.93988037 533.02038574
216.50454712 325.91433716 543.97418213
251.53250122 318.36462402 471.83178711
252.64369202 327.15927124 480.04290771
265.20108032 317.99322510 475.58450317
264.87194824 326.87002563 483.88833618
201.94967651 302.45001221 588.78369141
196.51174927 304.80825806 598.99182129
207.40446472 310.10556030 581.28295898
202.93762207 313.03308105 591.41522217
219.00602722 265.97698975 537.79895020
214.26956177 269.24694824 547.11181641
227.92178345 271.50497437 533.86218262
222.57232666 274.03543091 542.55358887
209.87380981 291.54571533 564.18817139
203.38368225 295.27264404 573.02703857
215.80519104 300.88385010 560.44805908
209.73109436 305.07260132 568.31268311
197.30062866 234.21516418 556.95025635
194.79600525 239.37294006 567.27209473
205.55468750 241.20770264 549.14776611
203.08192444 245.29536438 559.19366455
200.42733765 235.31265259 536.12744141
201.44412231 237.46102905 548.04187012
211.18037415 242.05714417 531.78491211
212.44496155 242.68725586 543.30328369
192.16708374 206.32824707 535.49133301
190.40605164 212.69409180 545.74786377
200.08227539 215.73904419 528.98852539
198.11216736 220.36703491 538.85961914
211.95872498 275.25088501 549.35839844
205.87515259 278.45645142 558.48376465
219.11557007 281.84738159 545.58654785
213.31214905 284.87759399 553.64178467
173.11378479 244.95741272 592.64703369
166.76268005 254.49775696 599.64587402
182.90164185 252.04367065 589.50408936
178.39266968 261.89578247 596.42187500
184.59420776 213.37449646 555.55151367
181.39179993 221.59617615 565.59112549
194.92976379 218.73028564 551.83013916
191.55619812 226.38529968 560.98077393
195.73129272 231.20498657 515.14038086
198.44866943 233.49159241 526.03942871
206.55870056 237.91799927 510.12429810
210.66532898 237.77133179 521.42779541
231.32669067 334.80325317 497.02975464
229.43663025 335.70080566 508.89776611
242.37554932 334.39630127 498.58749390
239.84063721 335.01452637 509.73931885
190.56799316 197.88539124 517.24688721
191.52276611 204.33338928 526.31536865
195.38818359 208.05189514 508.27215576
196.44197083 212.35336304 517.87780762
171.49493408 265.29342651 602.77508545
166.81849670 274.09860229 611.23480225
178.72023010 274.05438232 597.27917480
176.10290527 282.79214478 606.05065918
180.99104309 174.94558716 506.49530029
183.59362793 183.82238770 514.30200195
187.70552063 184.44485474 497.67434692
190.31021118 191.98614502 506.54058838
201.30746460 249.88017273 544.69464111
203.53507996 250.72698975 557.35888672
210.41781616 254.95605469 539.48840332
213.16574097 254.42297363 550.88037109
180.98788452 290.10223389 600.78234863
175.88172913 295.05355835 609.30102539
187.01063538 298.94479370 594.03833008
183.85693359 304.11837769 603.15948486
176.50735474 228.75933838 577.18951416
172.58505249 238.19435120 585.26373291
186.51324463 234.86502075 573.85809326
183.29872131 244.17155457 581.64160156
196.41589355 252.17414856 569.74932861
193.13687134 258.04180908 578.82623291
198.39601135 259.56512451 557.63275146
196.41378784 263.75570679 567.31420898
193.71957397 195.54928589 490.80187988
197.34591675 202.37855530 497.69223022
194.97979736 207.25801086 480.75177002
199.55827332 211.91548157 488.32464600
203.14407349 276.28463745 563.08648682
196.01356506 279.37341309 569.33648682
209.24870300 282.90957642 560.83355713
203.24307251 286.70339966 566.67803955
231.12457275 280.45181274 458.50366211
235.46606445 292.47573853 459.37075806
243.47288513 284.37414551 459.79260254
246.96231079 297.05526733 461.08651733
153.77188110 212.77098083 567.03198242
148.59304810 220.74620056 576.98309326
169.17462158 215.45677185 564.64843750
164.41181946 224.00285339 573.82226562
177.17089844 191.34259033 530.56420898
175.55522156 199.71804810 540.52160645
189.05157471 199.53741455 525.72070312
186.54852295 206.00227356 535.73291016
192.76718140 329.00305176 558.83557129
193.97393799 324.91644287 571.74841309
202.81335449 330.17315674 559.05255127
203.55561829 325.88012695 571.36291504
220.34576416 254.86967468 458.14453125
223.97421265 266.27850342 456.36294556
230.55807495 259.56506348 458.05578613
234.14965820 271.22454834 456.70129395
191.73947144 280.51712036 582.72961426
186.38578796 285.13562012 589.60101318
197.04364014 288.92364502 580.97698975
194.10717773 294.03717041 588.19384766
182.20544434 175.18994141 484.02316284
186.90293884 185.86569214 486.46380615
185.27619934 188.06382751 477.00140381
190.56561279 196.88375854 480.05688477
193.99552917 227.34587097 494.82739258
197.99577332 230.38870239 504.26031494
200.61416626 235.38568115 485.69992065
206.15214539 235.64680481 495.84906006
190.35128784 265.96435547 575.43267822
185.25987244 272.08270264 582.35461426
193.23982239 272.57455444 565.91760254
190.38497925 277.73339844 573.22930908
196.82455444 264.35592651 551.67553711
194.05503845 265.99267578 562.47351074
204.02830505 269.55844116 547.93859863
201.97180176 270.26571655 557.28515625
160.78231812 196.62254333 550.28948975
157.58044434 205.23391724 560.00677490
175.71110535 200.25915527 548.20825195
171.84251404 207.94155884 556.92919922
198.12110901 258.79592896 531.58795166
199.13829041 259.82284546 543.29168701
207.53401184 262.71157837 529.97650146
208.90008545 262.19372559 541.11566162
228.37416077 327.12664795 477.36791992
229.33906555 332.74676514 487.47070312
241.54138184 327.81756592 480.22512817
241.32336426 332.99008179 490.24154663
208.50880432 336.73321533 516.43249512
208.37792969 334.84686279 528.83978271
217.84007263 335.71536255 518.14294434
217.40666199 333.82846069 529.43798828
201.48005676 262.81726074 515.32366943
201.28356934 266.80062866 524.95037842
209.92147827 268.17514038 512.23028564
210.45605469 270.11416626 522.52264404
195.23783875 335.23513794 534.02673340
196.42379761 332.32287598 546.75848389
204.90667725 334.72531128 536.50140381
205.74270630 331.58135986 548.47894287
201.39778137 281.70941162 508.64288330
198.50660706 286.70181274 516.47698975
209.81745911 288.16479492 506.20172119
206.43862915 292.26718140 514.70989990
221.56646729 308.65155029 461.74636841
225.56777954 318.77539062 467.43392944
235.03334045 310.94131470 463.75860596
238.14622498 321.11993408 469.56835938
190.07901001 226.65177917 471.30200195
192.31559753 233.02604675 477.02957153
194.51162720 236.06941223 465.69448853
199.30390930 238.93321228 471.80966187
181.95449829 244.47277832 532.56958008
186.17488098 246.08924866 544.39129639
188.77983093 250.34017944 527.26544189
192.83801270 249.50099182 538.34564209
179.81982422 190.20086670 465.40377808
181.75886536 203.05895996 460.45141602
186.42225647 200.91242981 465.36587524
188.19738770 212.07688904 460.09539795
204.71920776 333.89904785 490.38531494
205.80615234 336.28674316 501.66772461
216.30812073 335.47521973 492.77252197
216.77261353 337.32287598 503.73895264
207.15905762 285.35363770 454.40679932
211.94396973 296.19793701 457.54760742
219.00392151 288.03311157 456.15994263
223.28643799 299.09646606 459.11639404
161.93669128 319.17642212 561.14245605
167.54208374 319.14352417 572.53442383
173.87422180 324.26638794 564.74011230
179.22474670 323.18432617 576.84405518
148.78579712 307.38659668 578.15429688
155.00418091 310.02920532 588.29077148
158.97915649 316.33871460 577.24847412
165.88215637 317.82800293 588.12225342
178.33132935 252.64442444 529.30029297
182.17990112 254.28327942 541.14727783
184.77642822 258.42965698 525.07043457
188.40171814 257.63314819 536.08953857
195.46691895 257.23080444 447.27575684
198.32438660 268.06243896 448.62866211
204.15518188 259.77966309 451.93957520
207.17800903 270.17736816 453.10287476
200.24340820 321.61495972 472.86395264
203.70228577 328.94558716 481.39739990
212.52221680 324.27441406 474.29534912
215.45025635 331.17111206 482.83297729
128.48544312 289.02740479 586.35278320
134.67224121 293.86602783 595.56237793
136.20365906 300.28665161 580.18286133
143.36997986 304.02252197 589.86010742
163.61346436 323.07452393 542.71765137
168.75332642 322.82727051 554.62359619
175.75111389 327.36071777 547.63110352
180.55604553 326.28192139 559.89514160
185.06607056 332.77679443 508.59338379
187.08831787 332.85684204 520.59204102
195.51641846 334.74807739 511.35290527
197.34539795 334.42590332 522.82489014
182.05693054 222.23022461 447.96563721
183.50146484 235.47590637 443.76107788
189.07579041 229.49713135 451.45031738
190.37655640 241.04708862 447.85742188
173.96376038 328.75885010 525.46093750
177.32572937 328.63159180 537.82189941
184.71322632 331.96044922 529.25421143
187.90985107 331.27276611 541.45928955
192.64736938 303.13357544 457.96994019
196.98043823 311.94927979 464.71707153
204.66285706 304.71557617 460.80529785
208.56620789 313.40698242 467.15850830
110.87825012 265.08068848 577.39227295
116.41413879 270.02041626 586.69879150
114.51261902 275.13159180 569.57501221
121.12914276 279.32775879 578.90258789
161.27694702 193.65975952 450.74963379
162.58180237 206.01226807 443.77081299
169.72349548 202.70716858 449.77435303
170.41903687 213.55566406 443.54962158
180.56974792 326.40515137 485.93164062
183.20497131 330.52124023 496.31250000
191.60571289 329.70077515 487.50256348
194.12455750 333.18704224 497.69381714
180.72351074 280.44445801 442.05743408
184.15922546 288.66192627 449.44281006
190.49031067 279.96731567 448.54754639
194.22514343 288.13214111 455.23782349
133.88757324 302.89660645 553.81469727
139.99009705 306.06900024 563.26025391
144.20309448 311.94296265 554.22863770
150.77749634 314.35702515 564.45989990
121.10952759 284.53106689 566.14300537
126.87712860 289.26965332 574.56060791
127.04775238 294.90664673 561.08740234
133.66217041 299.02273560 570.01684570
163.80778503 225.63328552 434.84582520
165.75471497 238.68516541 430.97512817
172.58189392 232.42886353 437.21667480
173.98114014 243.99143982 433.99847412
173.97323608 311.91873169 468.70703125
178.40531921 319.54849243 476.77917480
185.62219238 315.05953979 470.05389404
189.97210693 322.21533203 477.94064331
163.47653198 322.01019287 499.37585449
166.85641479 324.73916626 510.94897461
173.52876282 326.14001465 501.85046387
177.28359985 328.36340332 513.63427734
171.05572510 256.64468384 431.46276855
173.83209229 267.67010498 434.49298096
180.17372131 259.31466675 436.71112061
182.67677307 269.49328613 439.54965210
139.31179810 311.42791748 535.31433105
144.61175537 314.12319946 545.72467041
150.24455261 318.10028076 538.14758301
155.64561462 320.23837280 549.38787842
151.39891052 317.66162109 517.28479004
155.43391418 320.26629639 528.68096924
161.71760559 322.86993408 520.33081055
166.07385254 324.94378662 532.21990967
103.18385315 255.98059082 558.13830566
107.96772003 261.18365479 567.18786621
104.21498871 264.43609619 549.59857178
109.81407166 269.26419067 558.67755127
96.30125427 238.07112122 545.10327148
99.79278564 244.58863831 554.11700439
95.16059113 245.96208191 534.95465088
99.49997711 252.10673523 543.89678955
165.02586365 298.41818237 448.18103027
168.36466980 304.64498901 458.02261353
175.51309204 298.26754761 453.57156372
179.23632812 304.54705811 463.09295654
109.34998322 275.74801636 546.25341797
114.56462097 280.68774414 554.79528809
113.83735657 284.82144165 540.35101318
119.72924042 289.36093140 549.30151367
140.50224304 200.80474854 441.88049316
141.12524414 212.87500000 435.14599609
148.91482544 208.94741821 436.91967773
149.11196899 220.25091553 430.70550537
119.41694641 293.46209717 536.07690430
124.73271179 297.71936035 544.83575439
127.77238464 302.65908813 534.36645508
133.48944092 306.44763184 543.90466309
154.81460571 312.71920776 477.92376709
158.28611755 317.98968506 488.44787598
165.52827454 316.57727051 480.24621582
169.51165771 321.42010498 491.12838745
155.73461914 282.38085938 430.40954590
158.95124817 290.53723145 438.14038086
166.63996887 283.19290161 435.65893555
169.80393982 291.21130371 443.21496582
128.86039734 305.36804199 513.44885254
133.23348999 308.70001221 523.77917480
138.58190918 311.93981934 515.23516846
143.08560181 314.74566650 526.34063721
140.78741455 311.17410278 493.62985229
144.10514832 314.60873413 504.64053345
150.80381775 316.18124390 496.19451904
154.64082336 319.10086060 507.79711914
142.67483521 233.51475525 425.69412231
144.73287964 246.69302368 422.74450684
152.71125793 240.15023804 425.26336670
154.58131409 252.42271423 422.95227051
98.43408966 256.54330444 534.59606934
102.59232330 262.51416016 542.88299561
99.83491516 265.13360596 526.71142578
104.63562775 271.09710693 535.16058350
146.70668030 259.16351318 422.14572144
149.96754456 270.87145996 424.83468628
157.79530334 263.56927490 424.88629150
160.68753052 274.44091797 427.72109985
146.51708984 304.01092529 452.94592285
149.72845459 308.13546753 463.97558594
157.77529907 305.48165894 457.40750122
161.27944946 309.48086548 468.42871094
104.09636688 273.93798828 526.27380371
108.72224426 279.36117554 534.63238525
108.47430420 282.84902954 520.56304932
113.57414246 288.08367920 529.47564697
113.03214264 290.50720215 514.25567627
117.67066193 294.63595581 523.47161865
120.46072388 298.61514282 512.18707275
125.31831360 302.24462891 522.18450928
91.39073944 226.18412781 510.52716064
92.84185791 235.26315308 517.25952148
89.69631958 233.45788574 499.80401611
91.90972900 242.33468628 506.14562988
93.15835571 243.69969177 519.13854980
96.07902527 250.88706970 526.97473145
93.15835571 251.68965149 510.08834839
96.67516327 258.80752563 517.91186523
124.21582031 212.53399658 437.16613770
124.63291168 224.99606323 431.92938232
132.04464722 220.42732239 430.39163208
132.44412231 232.52706909 425.33813477
119.68553162 299.59518433 488.05709839
123.82796478 301.75802612 498.68862915
128.66659546 305.99578857 488.64166260
132.87118530 307.41583252 499.81875610
129.15951538 305.45178223 466.76275635
132.57205200 307.57199097 478.23052979
139.73205566 309.70901489 469.52120972
143.33732605 311.11563110 481.35552979
133.55578613 290.50616455 431.98413086
136.88301086 297.24273682 440.41857910
145.20474243 293.75543213 434.19281006
148.35185242 300.24978638 442.93688965
97.38294983 263.98004150 507.01351929
101.01876831 270.18789673 514.88342285
100.07505798 272.78732300 500.04415894
104.08794403 278.92355347 508.46173096
122.61672974 240.94439697 426.63046265
124.80960083 253.89515686 424.69671631
132.41195679 247.98880005 422.25762939
134.86892700 260.60885620 420.98107910
106.34610748 284.38677979 495.07806396
110.61177826 288.53973389 504.26663208
112.39282227 292.90441895 491.58761597
116.88914490 296.47705078 501.54293823
125.96080017 269.42218018 423.58078003
129.51762390 280.40548706 427.18920898
137.50021362 275.17135620 422.64971924
140.90325928 285.62170410 426.75527954
91.85798645 226.23890686 482.65182495
92.18778992 236.89358521 485.97088623
91.62587738 233.63693237 472.06350708
92.59697723 244.19471741 475.12054443
92.86029053 248.02012634 490.63757324
94.98785400 256.60202026 496.71905518
93.43746948 256.32815552 481.28469849
95.92735291 264.73312378 487.54943848
118.75761414 295.47012329 445.26458740
122.23123932 299.94537354 455.39263916
129.76934814 300.81958008 445.74801636
133.12185669 304.57336426 456.46591187
109.27336121 217.49691772 445.78067017
109.15249634 229.40707397 442.29019165
114.28919983 224.97079468 437.03710938
114.51947021 237.02839661 433.29492188
110.01247406 292.19635010 466.63714600
114.19703674 295.49935913 476.55877686
117.95714569 299.93774414 464.72970581
122.16699219 302.42446899 475.32119751
100.09928131 272.54296875 480.18933105
103.78038788 278.20208740 488.20666504
103.73259735 281.63619995 473.61544800
107.53694153 286.79080200 482.39324951
97.77212524 226.43692017 459.50558472
97.45719910 238.04373169 458.46707153
99.78995514 233.44946289 449.04364014
100.19907379 245.17002869 447.93508911
107.15237427 247.83476257 436.56842041
108.56688690 259.71963501 435.43115234
114.39610291 254.39862061 428.45495605
116.69245911 266.46466064 428.48999023
109.23517609 275.56472778 434.59832764
112.38334656 285.51586914 438.62594604
118.91007996 282.71972656 429.50848389
122.19148254 292.30432129 434.87585449
96.65146637 256.77053833 467.51028442
98.66159058 266.15289307 472.15512085
98.64315796 265.13439941 457.91308594
100.80706787 274.21972656 463.34783936
103.07997894 275.83016968 453.85174561
106.16284180 283.51467896 460.20074463
108.45814514 284.36788940 446.84234619
111.43778992 291.66268921 454.40469360
103.46231079 258.77590942 441.49288940
105.24019623 269.98672485 442.28308105
109.74324036 266.13183594 433.15850830
112.12937927 277.32998657 435.17233276
135.04505920 259.84445190 420.09201050
135.05250549 259.85067749 420.08261108
135.05160522 259.85574341 420.09304810
135.05355835 259.85931396 420.08892822
272.43676758 276.41442871 481.05200195
272.44644165 276.39959717 481.06188965
272.43652344 276.40682983 481.03915405
272.44165039 276.39831543 481.04629517
176.80026245 325.44638062 489.52490234
176.81109619 325.43563843 489.52322388
176.80659485 325.43420410 489.51895142
176.81214905 325.42810059 489.51666260
198.06698608 208.87277222 479.89718628
198.07455444 208.86366272 479.89663696
198.06837463 208.87124634 479.89413452
198.07263184 208.86672974 479.88436890
208.45082092 276.05062866 448.91168213
208.45857239 276.04486084 448.90628052
208.44798279 276.05059814 448.91223145
208.45391846 276.04824829 448.90460205
237.66981506 326.76867676 475.86154175
237.68386841 326.75552368 475.86053467
237.66505432 326.75653076 475.85913086
237.67385864 326.74914551 475.85891724
227.29318237 274.86499023 517.19744873
227.30009460 274.84811401 517.21087646
227.27575684 274.86251831 517.18591309
227.28237915 274.85348511 517.18939209
156.55113220 210.54023743 443.28927612
156.55334473 210.53979492 443.28677368
156.54217529 210.54815674 443.28527832
156.54071045 210.54867554 443.28057861
139.64001465 301.88043213 457.91015625
139.64945984 301.87683105 457.90444946
139.64700317 301.87686157 457.91723633
139.64929199 301.87728882 457.91326904
236.37818909 238.28048706 470.50177002
236.38700867 238.26806641 470.50439453
236.37982178 238.27770996 470.49731445
236.38363647 238.26934814 470.49343872
200.75991821 234.66642761 513.84802246
200.76847839 234.65248108 513.86102295
200.75767517 234.66708374 513.85485840
200.76512146 234.65991211 513.85662842
177.60493469 247.12995911 439.10690308
177.60906982 247.12667847 439.09869385
177.59844971 247.13893127 439.11364746
177.60075378 247.13877869 439.10211182
170.46038818 284.94061279 438.07818604
170.46467590 284.93695068 438.07104492
170.45866394 284.95059204 438.08435059
170.46083069 284.95080566 438.07821655
242.55386353 285.84283447 460.31109619
242.56430054 285.83239746 460.31399536
242.55255127 285.83792114 460.30282593
242.55776978 285.83233643 460.30316162
203.46459961 310.92700195 460.95874023
203.47492981 310.91806030 460.95602417
203.46311951 310.92742920 460.95678711
203.47103882 310.92303467 460.95339966
217.07611084 304.33407593 497.59707642
217.08494568 304.31439209 497.61300659
217.06498718 304.33471680 497.58441162
217.07019043 304.32510376 497.59289551
202.66290283 241.02351379 466.40051270
202.66998291 241.01210022 466.40179443
202.66407776 241.01850891 466.39895630
202.66702271 241.01261902 466.39318848
232.86592102 225.03321838 501.38021851
232.87527466 225.02053833 501.38839722
232.85757446 225.03317261 501.38223267
232.86669922 225.02566528 501.38125610
254.43200684 295.20721436 500.24151611
254.44104004 295.19110107 500.24618530
254.43147278 295.19757080 500.24035645
254.43756104 295.18838501 500.24215698
267.13912964 251.02934265 463.86849976
267.14721680 251.01547241 463.86859131
267.13616943 251.02182007 463.85955811
267.14016724 251.01309204 463.85769653
172.63619995 307.97390747 461.50726318
172.64602661 307.96545410 461.50503540
172.64402771 307.97341919 461.50762939
172.64935303 307.96850586 461.50573730
247.15794373 255.18978882 504.57360840
247.17074585 255.17340088 504.57800293
247.15669250 255.18402100 504.56649780
247.16711426 255.17454529 504.56527710
205.79035950 332.46517944 487.18457031
205.80018616 332.45455933 487.17993164
205.78253174 332.45571899 487.18136597
205.78904724 332.45117188 487.17764282
261.65454102 309.62350464 471.62039185
261.67092896 309.61047363 471.61956787
261.64898682 309.62002563 471.61840820
261.66082764 309.61364746 471.61871338
143.98898315 231.94982910 424.33685303
143.99380493 231.95440674 424.33499146
143.97901917 231.95538330 424.33160400
143.97793579 231.95854187 424.33056641
185.80982971 216.66839600 454.21545410
185.82145691 216.66091919 454.21044922
185.80328369 216.66915894 454.21130371
185.81259155 216.66471863 454.20126343
139.30148315 287.98196411 432.73040771
139.30963135 287.98300171 432.72341919
139.31149292 287.99417114 432.74075317
139.31567383 287.99584961 432.73754883
150.95132446 311.00137329 479.56811523
150.95867920 310.99334717 479.56719971
150.95394897 310.99700928 479.57000732
150.95486450 310.99563599 479.56881714
213.36560059 237.48928833 489.36038208
213.37113953 237.47869873 489.36050415
213.36756897 237.49398804 489.36209106
213.37115479 237.48849487 489.35574341
239.70130920 260.14660645 458.46255493
239.70788574 260.13793945 458.46298218
239.70199585 260.14428711 458.45608521
239.70382690 260.13916016 458.45278931
158.05033875 261.64514160 427.05718994
158.05537415 261.64758301 427.05139160
158.04742432 261.65872192 427.05706787
158.04803467 261.66305542 427.05364990
227.08058167 308.40100098 460.92449951
227.09405518 308.38973999 460.92431641
227.07513428 308.39874268 460.91754150
227.08399963 308.39324951 460.91552734
189.82090759 291.60018921 449.07202148
189.82519531 291.59323120 449.07067871
189.82998657 291.60073853 449.08093262
189.83044434 291.59899902 449.07650757
217.48004150 256.02996826 457.70413208
217.48561096 256.02111816 457.70376587
217.48048401 256.03286743 457.70776367
217.48287964 256.02767944 457.70269775
192.79948425 222.09109497 496.46087646
192.80616760 222.08081055 496.46490479
192.80033875 222.09725952 496.45971680
192.80401611 222.09281921 496.45486450
257.43569946 252.39588928 483.36413574
257.44757080 252.38230896 483.36666870
257.43746948 252.39234924 483.35922241
257.44451904 252.38519287 483.35665894
225.32292175 284.40884399 498.11087036
225.32803345 284.40054321 498.10882568
225.31455994 284.40899658 498.10491943
225.31893921 284.40634155 498.09780884
168.83755493 228.16641235 438.93038940
168.84065247 228.16419983 438.92581177
168.83093262 228.17396545 438.93164062
168.83160400 228.17431641 438.92376709
255.55577087 275.45129395 495.55136108
255.56497192 275.43814087 495.55419922
255.56115723 275.44973755 495.55014038
255.56604004 275.44354248 495.54891968
258.94335938 273.81225586 466.09808350
258.95208740 273.80065918 466.10031128
258.94247437 273.81182861 466.09283447
258.94583130 273.80584717 466.09304810
240.60964966 242.25299072 490.49929810
240.62361145 242.23880005 490.50341797
240.60604858 242.25241089 490.49087524
240.61529541 242.24447632 490.48724365
193.67767334 257.44686890 443.50238037
193.68150330 257.44271851 443.49697876
193.67211914 257.45318604 443.50482178
193.67543030 257.45223999 443.49691772
219.14178467 288.59100342 458.60644531
219.15109253 288.57727051 458.60754395
219.14057922 288.59341431 458.60266113
219.14518738 288.58651733 458.59893799
187.93875122 201.29705811 465.66809082
187.94458008 201.29109192 465.66809082
187.93586731 201.30108643 465.66510010
187.93783569 201.29627991 465.65695190
189.96112061 229.33473206 474.29376221
189.96739197 229.32424927 474.29211426
189.95950317 229.33840942 474.29147339
189.96122742 229.33366394 474.28356934
268.35498047 289.57293701 468.42297363
268.36962891 289.55953979 468.42388916
268.35668945 289.56164551 468.42376709
268.36520386 289.55346680 468.42443848
160.59869385 297.13967896 452.69784546
160.60700989 297.13400269 452.69918823
160.60580444 297.14184570 452.70263672
160.60690308 297.14068604 452.70257568
228.92710876 227.74203491 483.56637573
228.93801880 227.72802734 483.56594849
228.92941284 227.73965454 483.56448364
228.93690491 227.73027039 483.55670166
181.91209412 270.56610107 438.76794434
181.91700745 270.56097412 438.76718140
181.90641785 270.57345581 438.77606201
181.90734863 270.57205200 438.77246094
191.66584778 320.13778687 470.42861938
191.67584229 320.12643433 470.42782593
191.66868591 320.13793945 470.43124390
191.67536926 320.13125610 470.42959595
247.10144043 280.63180542 510.00671387
247.10958862 280.61523438 510.01565552
247.10360718 280.63067627 509.99887085
247.10998535 280.62298584 510.00186157
186.22578430 233.99580383 455.97009277
186.23208618 233.98999023 455.96792603
186.22010803 234.00192261 455.97729492
186.22319031 234.00086975 455.96884155
233.15693665 265.14691162 501.76232910
233.15963745 265.13635254 501.76150513
233.15194702 265.14819336 501.75695801
233.15415955 265.14492798 501.75027466
278.80511475 263.85137939 463.32135010
278.81658936 263.83801270 463.32269287
278.81384277 263.84124756 463.30633545
278.81903076 263.83309937 463.30746460
256.98403931 239.33856201 471.65890503
256.99252319 239.32331848 471.66223145
256.98498535 239.32940674 471.65081787
256.98913574 239.31912231 471.64971924
214.17027283 320.42636108 470.69329834
214.18124390 320.41513062 470.69326782
214.16445923 320.42269897 470.68368530
214.17094421 320.41711426 470.68164062
176.14491272 201.83790588 453.62176514
176.14930725 201.83415222 453.62023926
176.13189697 201.84298706 453.62185669
176.13407898 201.84132385 453.61419678
168.89425659 316.04727173 475.69873047
168.90350342 316.04003906 475.69342041
168.89718628 316.04528809 475.70993042
168.90295410 316.04223633 475.70355225
243.50198364 307.54519653 463.41409302
243.51245117 307.53469849 463.41430664
243.49737549 307.54345703 463.40734863
243.50358582 307.53836060 463.40655518
155.67593384 245.30694580 427.45416260
155.68058777 245.30781555 427.45162964
155.66595459 245.31846619 427.44995117
155.66601562 245.32144165 427.44674683
227.36308289 331.47274780 487.68994141
227.37660217 331.45626831 487.69244385
227.34585571 331.46270752 487.68338013
227.35595703 331.45333862 487.68527222
154.90496826 277.33374023 430.19403076
154.90931702 277.33312988 430.19003296
154.90376282 277.34524536 430.19650269
154.90417480 277.34695435 430.19372559
217.15950012 236.14402771 471.00823975
217.16607666 236.13127136 471.00665283
217.16537476 236.14523315 470.99917603
217.16812134 236.13739014 470.99325562
215.79747009 237.28596497 509.13815308
215.80796814 237.27253723 509.14553833
215.79539490 237.28752136 509.13696289
215.80441284 237.27944946 509.13604736
147.77943420 296.47772217 443.30575562
147.78814697 296.47467041 443.29974365
147.79008484 296.48516846 443.31842041
147.79327393 296.48532104 443.31375122
216.98713684 220.52076721 491.16217041
216.99508667 220.50904846 491.16867065
216.98025513 220.52044678 491.15460205
216.98767090 220.51177979 491.15087891
153.04400635 226.67337036 436.21746826
153.04359436 226.67210388 436.22216797
153.03480530 226.68292236 436.21826172
153.02748108 226.68420410 436.21804810
221.16326904 273.27987671 456.16561890
221.17126465 273.26959229 456.16558838
221.16513062 273.28265381 456.16387939
221.17065430 273.27691650 456.15905762
197.86468506 236.10995483 484.77990723
197.87188721 236.09709167 484.78186035
197.86706543 236.11454773 484.78210449
197.87182617 236.10752869 484.77465820
132.11386108 276.09024048 427.80328369
132.11788940 276.09118652 427.79949951
132.12005615 276.09982300 427.81365967
132.11837769 276.10235596 427.81329346
160.62556458 318.31842041 487.85290527
160.63427734 318.31097412 487.84909058
160.62695312 318.30615234 487.85910034
160.63209534 318.30349731 487.85525513
155.38626099 304.75140381 463.39056396
155.39439392 304.74426270 463.38485718
155.39447021 304.75183105 463.39901733
155.39968872 304.74905396 463.39471436
189.48112488 309.52163696 460.00405884
189.49000549 309.51229858 460.00280762
189.48667908 309.51950073 460.00173950
189.49197388 309.51492310 459.99887085
266.26458740 263.81210327 480.93579102
266.27395630 263.80017090 480.93746948
266.26846313 263.80371094 480.93286133
266.27462769 263.79714966 480.93267822
209.92350769 298.75473022 455.80059814
209.93139648 298.74618530 455.79687500
209.92579651 298.75668335 455.79830933
209.93157959 298.75292969 455.79251099
195.38005066 279.39706421 445.41992188
195.38278198 279.39328003 445.41711426
195.37806702 279.40826416 445.42810059
195.38002014 279.40802002 445.42193604
243.15185547 246.89987183 462.03567505
243.15887451 246.89016724 462.03564453
243.15083313 246.89970398 462.02301025
243.15432739 246.89370728 462.01849365
264.04934692 285.09197998 490.57601929
264.05343628 285.07934570 490.57885742
264.05023193 285.08154297 490.56832886
264.05105591 285.07669067 490.56787109
225.86828613 243.86105347 463.60162354
225.87535095 243.85017395 463.59848022
225.87405396 243.85836792 463.59506226
225.87765503 243.85067749 463.58773804
201.05543518 235.24313354 500.19296265
201.06289673 235.23339844 500.19528198
201.05567932 235.25024414 500.19934082
201.06173706 235.24575806 500.19180298
137.97518921 246.61122131 421.24838257
137.98437500 246.61668396 421.24273682
137.97238159 246.62170410 421.24798584
137.97589111 246.62609863 421.24609375
191.74186707 245.07160950 448.79129028
191.75003052 245.06507874 448.79119873
191.73947144 245.07408142 448.79934692
191.74440002 245.07093811 448.79367065
192.83151245 329.14923096 484.74932861
192.83996582 329.14050293 484.74179077
192.83441162 329.13696289 484.74920654
192.84124756 329.13125610 484.74353027
238.43995667 267.99368286 513.88775635
238.45004272 267.98168945 513.89404297
238.43586731 267.98922729 513.88256836
238.44371033 267.98315430 513.88208008
191.72691345 214.07711792 466.24728394
191.73809814 214.06877136 466.24252319
191.72425842 214.08123779 466.24264526
191.73413086 214.07592773 466.23089600
219.56805420 225.37513733 504.62445068
219.58099365 225.35948181 504.63323975
219.56547546 225.37051392 504.61669922
219.57443237 225.36010742 504.61541748
245.41659546 238.01048279 502.13470459
245.43237305 237.98989868 502.14407349
245.41224670 238.00204468 502.13116455
245.42318726 237.98864746 502.13323975
166.21870422 252.53532410 432.06146240
166.22163391 252.53450012 432.06066895
166.21444702 252.54629517 432.06176758
166.21211243 252.54821777 432.05865479
207.94371033 260.13079834 449.74468994
207.94702148 260.12643433 449.73794556
207.93540955 260.13504028 449.74035645
207.93881226 260.13232422 449.72985840
178.71505737 297.78143311 451.71240234
178.71908569 297.77478027 451.70886230
178.72731018 297.77978516 451.71994019
178.72830200 297.77764893 451.71594238
254.01553345 263.03366089 492.26586914
254.02215576 263.01956177 492.27044678
254.01666260 263.03082275 492.25985718
254.02053833 263.02496338 492.25918579
171.39051819 217.32138062 445.37677002
171.39620972 217.32058716 445.36853027
171.37739563 217.32894897 445.38171387
171.38064575 217.33056641 445.37002563
232.94927979 297.88360596 456.70254517
232.95855713 297.87387085 456.70159912
232.94549561 297.88516235 456.69195557
232.95014954 297.88183594 456.68902588
191.22441101 220.56402588 483.89883423
191.22854614 220.55403137 483.90087891
191.22023010 220.56953430 483.89874268
191.22010803 220.56613159 483.89212036
159.97285461 291.56884766 440.87524414
159.97898865 291.56631470 440.86920166
159.97283936 291.57702637 440.88214111
159.97508240 291.57760620 440.87646484
233.84442139 272.85006714 456.17169189
233.84931946 272.84155273 456.16815186
233.83522034 272.85226440 456.15478516
233.83737183 272.84918213 456.14804077
258.70269775 260.49359131 463.80691528
258.70962524 260.48156738 463.80474854
258.69494629 260.49002075 463.79632568
258.69732666 260.48324585 463.79333496
182.59172058 228.06872559 445.38156128
182.59767151 228.06443787 445.37695312
182.58760071 228.07369995 445.38354492
182.59124756 228.07220459 445.37567139
253.23867798 318.58700562 474.61114502
253.25549316 318.57168579 474.61349487
253.23089600 318.58187866 474.60217285
253.24234009 318.57296753 474.60485840
274.03649902 277.40631104 468.70581055
274.04891968 277.39416504 468.70941162
274.04058838 277.40164185 468.69738770
274.04809570 277.39508057 468.70010376
142.50988770 268.22778320 425.34783936
142.51710510 268.23022461 425.34561157
142.51457214 268.24099731 425.34893799
142.51661682 268.24343872 425.34893799
251.67860413 293.41662598 463.09588623
251.68681335 293.40481567 463.09552002
251.67431641 293.41839600 463.09152222
251.67887878 293.41333008 463.08880615
217.12596130 226.65872192 478.30593872
217.13504028 226.64729309 478.30368042
217.12622070 226.66390991 478.30120850
217.13259888 226.65727234 478.29196167
205.25570679 246.13899231 456.34353638
205.26223755 246.12902832 456.34454346
205.26217651 246.13919067 456.34432983
205.26536560 246.13400269 456.33917236
195.07298279 226.84561157 507.56616211
195.07841492 226.83604431 507.57434082
195.06890869 226.85350037 507.56506348
195.07307434 226.85064697 507.56225586
177.43273926 260.19827271 437.33892822
177.43594360 260.19375610 437.33306885
177.42121887 260.20617676 437.33709717
177.42248535 260.20617676 437.33068848
171.35601807 271.43032837 434.73666382
171.35803223 271.42739868 434.73400879
171.34988403 271.44219971 434.73745728
171.34934998 271.44302368 434.73333740
248.83233643 241.79824829 479.05023193
248.83666992 241.78285217 479.05044556
248.82955933 241.79148865 479.04266357
248.83334351 241.78279114 479.03881836
198.68389893 298.98165894 456.57196045
198.69091797 298.97415161 456.57257080
198.68847656 298.98071289 456.56985474
198.69253540 298.97720337 456.56719971
232.16856384 284.48382568 456.17401123
232.17956543 284.47225952 456.17535400
232.16744995 284.48693848 456.16934204
232.17398071 284.48275757 456.16619873
244.54171753 273.68490601 459.55142212
244.54989624 273.67581177 459.55010986
244.53776550 273.68762207 459.54269409
244.54205322 273.68350220 459.53875732
233.34822083 250.39775085 458.02529907
233.35362244 250.38740540 458.02014160
233.34652710 250.39924622 458.01754761
233.34878540 250.39456177 458.00994873
147.88902283 257.30593872 425.91448975
147.89291382 257.30801392 425.91369629
147.88325500 257.32070923 425.91979980
147.88180542 257.32379150 425.91864014
224.43225098 316.50576782 469.08267212
224.44377136 316.49285889 469.08291626
224.42408752 316.50231934 469.07397461
224.43115234 316.49581909 469.07257080
142.84257507 306.23449707 467.56994629
142.84979248 306.22998047 467.56976318
142.84791565 306.23593140 467.57540894
142.84844971 306.23684692 467.57397461
237.85102844 230.72308350 493.33465576
237.86169434 230.70924377 493.34289551
237.84951782 230.71890259 493.32537842
237.85548401 230.70945740 493.32543945
181.61187744 316.04873657 469.64468384
181.62330627 316.03976440 469.64453125
181.62217712 316.04412842 469.64352417
181.62875366 316.03848267 469.64157104
227.25271606 283.45886230 510.53131104
227.25822449 283.44381714 510.53677368
227.23687744 283.45596313 510.52795410
227.24119568 283.44873047 510.52743530
191.66021729 269.50720215 443.42456055
191.66084290 269.50253296 443.42062378
191.65542603 269.51184082 443.43270874
191.65525818 269.50982666 443.42590332
246.32818604 255.73966980 493.49206543
246.34185791 255.72665405 493.49563599
246.32608032 255.73803711 493.48553467
246.33628845 255.73101807 493.48422241
185.96063232 281.40136719 440.87326050
185.96606445 281.39636230 440.86978149
185.96699524 281.40246582 440.87536621
185.96968079 281.40063477 440.87167358
220.13653564 299.53372192 458.65753174
220.14843750 299.52252197 458.65692139
220.13890076 299.53555298 458.65368652
220.14489746 299.52905273 458.64965820
200.55284119 325.02182007 473.50473022
200.56463623 325.01296997 473.50329590
200.55465698 325.01815796 473.50006104
200.56271362 325.01287842 473.49780273
180.38226318 291.92675781 443.10806274
180.38442993 291.92285156 443.10028076
180.37503052 291.93890381 443.10348511
180.37443542 291.94097900 443.09609985
221.88693237 291.63278198 504.95330811
221.89089966 291.62133789 504.95507812
221.87353516 291.62997437 504.95138550
221.87528992 291.62503052 504.94683838
274.67617798 259.74468994 472.06188965
274.68652344 259.73049927 472.06826782
274.67773438 259.73831177 472.05303955
274.68264771 259.72976685 472.05596924
163.03773499 309.98336792 469.50097656
163.04602051 309.97528076 469.49835205
163.04888916 309.97674561 469.50537109
163.05152893 309.97268677 469.50213623
163.94949341 237.03665161 436.58691406
163.95106506 237.03598022 436.58111572
163.94039917 237.04583740 436.58923340
163.93850708 237.04682922 436.58117676
169.20684814 292.52484131 445.32901001
169.20892334 292.52026367 445.32632446
169.20973206 292.53005981 445.33905029
169.20730591 292.53073120 445.33551025
265.37408447 299.28991699 466.87640381
265.38906860 299.27676392 466.87615967
265.37951660 299.28506470 466.87246704
265.38787842 299.27764893 466.87396240
234.76553345 319.41003418 469.34857178
234.77496338 319.39816284 469.34811401
234.75622559 319.41467285 469.34439087
234.76159668 319.40991211 469.34356689
228.72296143 239.07373047 477.17059326
228.72973633 239.06266785 477.16827393
228.71685791 239.07926941 477.16333008
228.72261047 239.07301331 477.15490723
204.57272339 285.40060425 450.03097534
204.57958984 285.39440918 450.02505493
204.57424927 285.40298462 450.03128052
204.57887268 285.40069580 450.02285767
263.81561279 246.72235107 473.13296509
263.82348633 246.70913696 473.13671875
263.81109619 246.71644592 473.12686157
263.81542969 246.70938110 473.12612915
244.30194092 263.60238647 499.53771973
244.31036377 263.59133911 499.54040527
244.30380249 263.59841919 499.53485107
244.30960083 263.59304810 499.53302002
134.95904541 298.89727783 449.45150757
134.97149658 298.89434814 449.44332886
134.96795654 298.90298462 449.45758057
134.97386169 298.90277100 449.45251465
185.06190491 252.34222412 443.42700195
185.06542969 252.33772278 443.42330933
185.05937195 252.35281372 443.43637085
185.06066895 252.35269165 443.43008423
184.94876099 207.47155762 458.37963867
184.95745850 207.46697998 458.37698364
184.94174194 207.47561646 458.37969971
184.94761658 207.47463989 458.37094116
216.86727905 326.17315674 478.41931152
216.87426758 326.16305542 478.41806030
216.85931396 326.17199707 478.42297363
216.86351013 326.16735840 478.42065430
268.21731567 263.26477051 463.38085938
268.22155762 263.25427246 463.38195801
268.21621704 263.26434326 463.36633301
268.21749878 263.25964355 463.36614990
218.46987915 229.83587646 494.03546143
218.47863770 229.82524109 494.03921509
218.46649170 229.83892822 494.03414917
218.47203064 229.83328247 494.02905273
209.96646118 239.02032471 516.88525391
209.97796631 239.00605774 516.89770508
209.95925903 239.02058411 516.88269043
209.96830750 239.01303101 516.88531494
234.31033325 237.05352783 485.00061035
234.31840515 237.03958130 485.00305176
234.30667114 237.05317688 485.00112915
234.31195068 237.04388428 484.99578857
227.66513062 265.26278687 456.00231934
227.67189026 265.25439453 456.00018311
227.67202759 265.26327515 455.99203491
227.67425537 265.25741577 455.98599243
278.67242432 254.20819092 462.13995361
278.68530273 254.19567871 462.14379883
278.68621826 254.19738770 462.12744141
278.69259644 254.18888855 462.12969971
147.92843628 300.19238281 453.15246582
147.93572998 300.18762207 453.14614868
147.93440247 300.19436646 453.16305542
147.93759155 300.19458008 453.15866089
228.05926514 323.14489746 475.30007935
228.06683350 323.13278198 475.29910278
228.05160522 323.13800049 475.29754639
228.05725098 323.13265991 475.29586792
212.67057800 240.55049133 463.65429688
212.67636108 240.53935242 463.64993286
212.67158508 240.54902649 463.64660645
212.67495728 240.54277039 463.63812256
252.22151184 284.97235107 503.03958130
252.23196411 284.95669556 503.04553223
252.22294617 284.96820068 503.03460693
252.23002625 284.95950317 503.03594971
228.68179321 222.47830200 491.62637329
228.69636536 222.46655273 491.62771606
228.67977905 222.47772217 491.61730957
228.69180298 222.46957397 491.61087036
189.20004272 219.76101685 474.23455811
189.20727539 219.75117493 474.23541260
189.19656372 219.77116394 474.23425293
189.19946289 219.76516724 474.22610474
148.43006897 286.68814087 435.36511230
148.43954468 286.68563843 435.36047363
148.43469238 286.69970703 435.37152100
148.43856812 286.69903564 435.36889648
195.83923340 214.42704773 491.73834229
195.84281921 214.41720581 491.74374390
195.84062195 214.42976379 491.73370361
195.84083557 214.42495728 491.72885132
170.37980652 299.94995117 455.58612061
170.38743591 299.94229126 455.58874512
170.38877869 299.95031738 455.58920288
170.38941956 299.94860840 455.58920288
201.26872253 253.47366333 449.28939819
201.27389526 253.46609497 449.28729248
201.26934814 253.48059082 449.29049683
201.27200317 253.47778320 449.28317261
246.69497681 325.84478760 478.41864014
246.71138000 325.82781982 478.42120361
246.68547058 325.83776855 478.41342163
246.69676208 325.82891846 478.41650391
196.17370605 243.82313538 457.05569458
196.17774963 243.81498718 457.05432129
196.17248535 243.82431030 457.06192017
196.17355347 243.82107544 457.05499268
182.70367432 239.62840271 441.58398438
182.70996094 239.62588501 441.57604980
182.69671631 239.63140869 441.58660889
182.70207214 239.63200378 441.57507324
246.53488159 272.67864990 505.09393311
246.53738403 272.66693115 505.09240723
246.53375244 272.67184448 505.08920288
246.53684998 272.66763306 505.08413696
260.17807007 244.83715820 463.40393066
260.18835449 244.82560730 463.40716553
260.18090820 244.82975769 463.38714600
260.18713379 244.82214355 463.38729858
261.90084839 282.95220947 467.40786743
261.90667725 282.94332886 467.40649414
261.89389038 282.95208740 467.40332031
261.89697266 282.94912720 467.39993286
170.10179138 243.93312073 434.66055298
170.10319519 243.93070984 434.65975952
170.09980774 243.94094849 434.66107178
170.09596252 243.94200134 434.65747070
148.16024780 219.29196167 438.99505615
148.15628052 219.29019165 439.00024414
148.15145874 219.30087280 438.99588013
148.14027405 219.30279541 438.99511719
247.15377808 264.68191528 461.30847168
247.16352844 264.67269897 461.30844116
247.14788818 264.68176270 461.29437256
247.15338135 264.67651367 461.29150391
202.22985840 239.01679993 477.29043579
202.23701477 239.00485229 477.29165649
202.23060608 239.02072144 477.28936768
202.23275757 239.01448059 477.28256226
201.75617981 265.65502930 446.04730225
201.76504517 265.64727783 446.04525757
201.75811768 265.65939331 446.05065918
201.76376343 265.65533447 446.04516602
168.70063782 322.01104736 486.07684326
168.71382141 322.00259399 486.07293701
168.70819092 322.00012207 486.07763672
168.71672058 321.99542236 486.07492065
231.32786560 272.69934082 506.42886353
231.33526611 272.68463135 506.43640137
231.31866455 272.69406128 506.42614746
231.32501221 272.68603516 506.42672729
218.33541870 331.61050415 487.36611938
218.34820557 331.59466553 487.36785889
218.32159424 331.60345459 487.36224365
218.33078003 331.59524536 487.36267090
264.49819946 271.81143188 484.72653198
264.50650024 271.79962158 484.72763062
264.49691772 271.80480957 484.72045898
264.50238037 271.79849243 484.71920776
257.49200439 303.61953735 466.28585815
257.50384521 303.60696411 466.28414917
257.48974609 303.61941528 466.28009033
257.49667358 303.61337280 466.27954102
184.17584229 326.81970215 484.54861450
184.18640137 326.80920410 484.54321289
184.18109131 326.81167603 484.54739380
184.18943787 326.80493164 484.54241943
253.10327148 311.62561035 468.99981689
253.11666870 311.61203003 468.99929810
253.09689331 311.62033081 468.99475098
253.10473633 311.61300659 468.99472046
245.75952148 263.18771362 512.31604004
245.77304077 263.17196655 512.31817627
245.75256348 263.17968750 512.31774902
245.76428223 263.17108154 512.31585693
186.31683350 222.27398682 461.10076904
186.32591248 222.26776123 461.09811401
186.31130981 222.27992249 461.10534668
186.31723022 222.27856445 461.09603882
160.55525208 223.66766357 439.85647583
160.55744934 223.66490173 439.85003662
160.54241943 223.67401123 439.84899902
160.54200745 223.67446899 439.84222412
246.72660828 255.13638306 460.41976929
246.73638916 255.12561035 460.41815186
246.72544861 255.13659668 460.41262817
246.73083496 255.13056946 460.40826416
212.27951050 311.33349609 460.41485596
212.28770447 311.32473755 460.41329956
212.27482605 311.33850098 460.41281128
212.27960205 311.33468628 460.41009521
223.18728638 300.21151733 502.41744995
223.19216919 300.20123291 502.41387939
223.18490601 300.20477295 502.42074585
223.19017029 300.20074463 502.41357422
187.01487732 302.90438843 454.82482910
187.01904297 302.89715576 454.82171631
187.02336121 302.90682983 454.82656860
187.02497864 302.90402222 454.82128906
254.69607544 252.80136108 462.99288940
254.70373535 252.78933716 462.99462891
254.69293213 252.79869080 462.98178101
254.69607544 252.79130554 462.98181152
181.23670959 199.36599731 460.10705566
181.24363708 199.36174011 460.10748291
181.22970581 199.37394714 460.10833740
181.23342896 199.37170410 460.10140991
146.22224426 244.33213806 421.27362061
146.23025513 244.33726501 421.26928711
146.22079468 244.34126282 421.26904297
146.22393799 244.34626770 421.26672363
144.22067261 275.70880127 429.08535767
144.22715759 275.71063232 429.08099365
144.21652222 275.72348022 429.09197998
144.21769714 275.72634888 429.08917236
212.57971191 264.23025513 455.51824951
212.58175659 264.22421265 455.51593018
212.57502747 264.23840332 455.52014160
212.57530212 264.23602295 455.51358032
249.28923035 247.82232666 484.98095703
249.30081177 247.80743408 484.98184204
249.28869629 247.82109070 484.97732544
249.29597473 247.81396484 484.97314453
144.64053345 225.47457886 434.43963623
144.63980103 225.47702026 434.44070435
144.62991333 225.48635864 434.43884277
144.62185669 225.49087524 434.43756104
217.70120239 306.93252563 505.59298706
217.71047974 306.91159058 505.60491943
217.68643188 306.93334961 505.58596802
217.69248962 306.92199707 505.59045410
208.84097290 325.91839600 474.70712280
208.84968567 325.90927124 474.69982910
208.84257507 325.91137695 474.70907593
208.84985352 325.90600586 474.70327759
151.19920349 266.48071289 426.42456055
151.20535278 266.48257446 426.42041016
151.19793701 266.49667358 426.43273926
151.19871521 266.49890137 426.43142700
226.27549744 254.81158447 458.37985229
226.28306580 254.80114746 458.38262939
226.27867126 254.81062317 458.37249756
226.28231812 254.80462646 458.37133789
175.42100525 278.26693726 438.19778442
175.42419434 278.26281738 438.19458008
175.41836548 278.27505493 438.19854736
175.41810608 278.27447510 438.19497681
166.98707581 210.29103088 445.63659668
166.99365234 210.29016113 445.63024902
166.97680664 210.29959106 445.63638306
166.98083496 210.30026245 445.62817383
210.61198425 237.94842529 502.69763184
210.62031555 237.93791199 502.70291138
210.61335754 237.95390320 502.69812012
210.62103271 237.94883728 502.69433594
162.43116760 283.54394531 436.76068115
162.43737793 283.54086304 436.76058960
162.43722534 283.54818726 436.76486206
162.43731689 283.54830933 436.76483154
218.94076538 248.69470215 461.12353516
218.94818115 248.68515015 461.12640381
218.94601440 248.68862915 461.11865234
218.94908142 248.68283081 461.11526489
220.02529907 307.79513550 465.08074951
220.03413391 307.78247070 465.08432007
220.01593018 307.79370117 465.07720947
220.02012634 307.78814697 465.07882690
240.34197998 240.00111389 480.32626343
240.35174561 239.98928833 480.32513428
240.34167480 239.99600220 480.32061768
240.34812927 239.98857117 480.31402588
221.95222473 220.98973083 498.14019775
221.96528625 220.97488403 498.14743042
221.94979858 220.98626709 498.13388062
221.95843506 220.97634888 498.13134766
269.89831543 283.46316528 484.29833984
269.90814209 283.44744873 484.30828857
269.89776611 283.45739746 484.28375244
269.90264893 283.44845581 484.29177856
189.77073669 235.64233398 463.11279297
189.77366638 235.63424683 463.11410522
189.76814270 235.64649963 463.11422729
189.76731873 235.64221191 463.10729980
196.47470093 314.60787964 462.91500854
196.48840332 314.59667969 462.91500854
196.47973633 314.60876465 462.91339111
196.48860168 314.60162354 462.91189575
237.93663025 258.58578491 501.64086914
237.93936157 258.57608032 501.64248657
237.92817688 258.58709717 501.63259888
237.93048096 258.58352661 501.62759399
156.04924011 233.76147461 433.69430542
156.04902649 233.76071167 433.69482422
156.04273987 233.77210999 433.69287109
156.03584290 233.77490234 433.69000244
223.18508911 293.95822144 497.28732300
223.19030762 293.95083618 497.28167725
223.17491150 293.95605469 497.28652954
223.18127441 293.95373535 497.27676392
195.55067444 237.66555786 468.38580322
195.55429077 237.65556335 468.38952637
195.55038452 237.66418457 468.38690186
195.54849243 237.65975952 468.38198853
225.65333557 293.32125854 458.22817993
225.66302490 293.31030273 458.22540283
225.65335083 293.31909180 458.22134399
225.65756226 293.31375122 458.21594238
167.61982727 265.11184692 431.45559692
167.62297058 265.11120605 431.45153809
167.61408997 265.12423706 431.45742798
167.61395264 265.12634277 431.45309448
229.50622559 329.68923950 479.72219849
229.51889038 329.67562866 479.72149658
229.49417114 329.67837524 479.72241211
229.50198364 329.67156982 479.72183228
245.75431824 249.67710876 498.70190430
245.76702881 249.65798950 498.70852661
245.75057983 249.66918945 498.69387817
245.75979614 249.65701294 498.69482422
180.15179443 305.96716309 457.60348511
180.15838623 305.96075439 457.59912109
180.16627502 305.96716309 457.60382080
180.16928101 305.96252441 457.59793091
213.65203857 276.68087769 454.94018555
213.65861511 276.67166138 454.93869019
213.65290833 276.68743896 454.93640137
213.65673828 276.68331909 454.93112183
258.30029297 290.25045776 495.33666992
258.30947876 290.23471069 495.34014893
258.30261230 290.24307251 495.33737183
258.30911255 290.23428345 495.33911133
274.71490479 269.87078857 477.15991211
274.72463989 269.85650635 477.16757202
274.71435547 269.86383057 477.14813232
274.71914673 269.85473633 477.15243530
235.24015808 304.97497559 459.25207520
235.25025940 304.96392822 459.25152588
235.23788452 304.97799683 459.23974609
235.24354553 304.97280884 459.23742676
217.99186707 234.12481689 500.60781860
218.00268555 234.10984802 500.61114502
217.99739075 234.11935425 500.61303711
218.00631714 234.10958862 500.60867310
194.73062134 234.85507202 477.16149902
194.73504639 234.84405518 477.15948486
194.72776794 234.85876465 477.16223145
194.73144531 234.85342407 477.15353394
200.04243469 328.76074219 481.70568848
200.05221558 328.75186157 481.70046997
200.03593445 328.75592041 481.70703125
200.04399109 328.75106812 481.70126343
187.98767090 262.60638428 442.15344238
187.99107361 262.60009766 442.15161133
187.98359680 262.61206055 442.15832520
187.98464966 262.61053467 442.15338135
245.39823914 320.64160156 472.80462646
245.41195679 320.62829590 472.80566406
245.39190674 320.63504028 472.80133057
245.40061951 320.62753296 472.80175781
252.88458252 269.36999512 463.61325073
252.89149475 269.36154175 463.61367798
252.87767029 269.37551880 463.60388184
252.88079834 269.37112427 463.60140991
155.77667236 309.56176758 473.69165039
155.78610229 309.55416870 473.69021606
155.78410339 309.55902100 473.68972778
155.78727722 309.55627441 473.68814087
238.59338379 274.65765381 509.95443726
238.59649658 274.64587402 509.95556641
238.59216309 274.65286255 509.95147705
238.59477234 274.64950562 509.94656372
211.56356812 235.45751953 476.30337524
211.57189941 235.44589233 476.30490112
211.57437134 235.45443726 476.30477905
211.57875061 235.44734192 476.29803467
249.38218689 238.75563049 471.37884521
249.38916016 238.74255371 471.38494873
249.38632202 238.75083923 471.36618042
249.38763428 238.74034119 471.36614990
176.91137695 222.98937988 445.12643433
176.91523743 222.98724365 445.12173462
176.90855408 223.00093079 445.12814331
176.90841675 223.00598145 445.12014771
256.07836914 244.70297241 476.95266724
256.08639526 244.68852234 476.95886230
256.07723999 244.69776917 476.94564819
256.08163452 244.68934631 476.94635010
178.06340027 230.83567810 439.98657227
178.07223511 230.83103943 439.97961426
178.05969238 230.84057617 439.99121094
178.06575012 230.83966064 439.98229980
253.25144958 286.41128540 465.45532227
253.26026917 286.39904785 465.45773315
253.24725342 286.41540527 465.45349121
253.25108337 286.40905762 465.45205688
159.16595459 315.01751709 481.23065186
159.17428589 315.01153564 481.22717285
159.17164612 315.01223755 481.22970581
159.17622375 315.01025391 481.22644043
188.03811646 323.55310059 476.08230591
188.05317688 323.54187012 476.08444214
188.03913879 323.55142212 476.08175659
188.04899597 323.54431152 476.08200073
268.16009521 270.14910889 466.37640381
268.16696167 270.13864136 466.37844849
268.15948486 270.14797974 466.36441040
268.16070557 270.14358521 466.36468506
187.89985657 229.35145569 466.75506592
187.90562439 229.34164429 466.75582886
187.90023804 229.35336304 466.75277710
187.90078735 229.34800720 466.74566650
175.38983154 211.68710327 448.31243896
175.39619446 211.68444824 448.30688477
175.38221741 211.69303894 448.31100464
175.38691711 211.69288635 448.30212402
196.81510925 212.55120850 473.47467041
196.82757568 212.54312134 473.47256470
196.81144714 212.55342102 473.47702026
196.82188416 212.54835510 473.46600342
208.19046021 306.00030518 457.08944702
208.20025635 305.99276733 457.08682251
208.19172668 305.99993896 457.08544922
208.19882202 305.99523926 457.08099365
163.97138977 271.99752808 433.65274048
163.97366333 271.99734497 433.65167236
163.96691895 272.01119995 433.66070557
163.96313477 272.01385498 433.65859985
255.30618286 283.46746826 496.40853882
255.31304932 283.45166016 496.41259766
255.30879211 283.45959473 496.40261841
255.31242371 283.45114136 496.40380859
250.52847290 267.28372192 497.76113892
250.53851318 267.27056885 497.76693726
250.53146362 267.28085327 497.75622559
250.53977966 267.27377319 497.75732422
191.15725708 227.80218506 482.24026489
191.16387939 227.79136658 482.24371338
191.15689087 227.80384827 482.23535156
191.15859985 227.79795837 482.23013306
135.93585205 267.99319458 421.99987793
135.94120789 267.99627686 421.99780273
135.93988037 268.01287842 421.99444580
135.93847656 268.01879883 421.99618530
216.88296509 295.35922241 501.05532837
216.88969421 295.34854126 501.05227661
216.87312317 295.36120605 501.05551147
216.87919617 295.35720825 501.04867554
192.63333130 225.46176147 489.93750000
192.64167786 225.44885254 489.93997192
192.63612366 225.46484375 489.93420410
192.64093018 225.45837402 489.92782593
222.24465942 241.32502747 471.99465942
222.24754333 241.31437683 471.99505615
222.24490356 241.32411194 471.99240112
222.24551392 241.31686401 471.98693848
233.04905701 278.99938965 511.97491455
233.05374146 278.98449707 511.98263550
233.03558350 278.99478149 511.96340942
233.03997803 278.98648071 511.96560669
240.69119263 267.20019531 456.77682495
240.69804382 267.18966675 456.77478027
240.68930054 267.19781494 456.76232910
240.69226074 267.19229126 456.75781250
268.93798828 256.83279419 475.53887939
268.94439697 256.82067871 475.54379272
268.93469238 256.82821655 475.52838135
268.93695068 256.82226562 475.53036499
175.14244080 239.66607666 437.76553345
175.14582825 239.66737366 437.75561523
175.13526917 239.67681885 437.76263428
175.13502502 239.68395996 437.75259399
261.99346924 276.57604980 489.63876343
262.00064087 276.56378174 489.63995361
261.99868774 276.57052612 489.63494873
262.00195312 276.56536865 489.63323975
231.49377441 313.65261841 463.33340454
231.50372314 313.64190674 463.33328247
231.48968506 313.65502930 463.32977295
231.49607849 313.65017700 463.32806396
258.43325806 258.94604492 486.36697388
258.44375610 258.93243408 486.37002563
258.43536377 258.94104004 486.36199951
258.44348145 258.93411255 486.36071777
169.58517456 313.09408569 469.07647705
169.59664917 313.08477783 469.07302856
169.59266663 313.09045410 469.07522583
169.59942627 313.08538818 469.07354736
240.92182922 236.92105103 496.54693604
240.93322754 236.90454102 496.55474854
240.91877747 236.92179871 496.54525757
240.92622375 236.91278076 496.54470825
215.53480530 232.04873657 482.86572266
215.54492188 232.03701782 482.86688232
215.53578186 232.05192566 482.86553955
215.54306030 232.04534912 482.85867310
210.94023132 318.12710571 464.63720703
210.95169067 318.11795044 464.63552856
210.93731689 318.12878418 464.63470459
210.94461060 318.12429810 464.63204956
258.09887695 292.54736328 466.30178833
258.10946655 292.53637695 466.30273438
258.09442139 292.54806519 466.29785156
258.10043335 292.54269409 466.29687500
