ply
format ascii 1.0
element vertex 512
property float x
property float y
property float z
end_header
144.73603821 322.01779175 396.12219238
150.75688171 321.50463867 395.86645508
139.38952637 319.59292603 393.51373291
141.17541504 326.50415039 400.53173828
148.53111267 316.84078979 391.60690308
142.06808472 315.56774902 390.16137695
134.90263367 323.45678711 396.48596191
153.22708130 328.21420288 401.09521484
134.91566467 315.43457031 392.96383667
145.09445190 331.20800781 405.13616943
133.13879395 326.54074097 401.31954956
129.98504639 319.04351807 395.12533569
143.71647644 308.84558105 386.78494263
159.01202393 314.30163574 392.75543213
160.69734192 326.18313599 398.13369751
151.03561401 308.51715088 387.63916016
132.56785583 328.19226074 407.15753174
127.38315582 323.27294922 400.90829468
140.88728333 331.67129517 411.43811035
133.04589844 309.35900879 388.40557861
163.98417664 320.14782715 394.14474487
158.48312378 332.97790527 405.25238037
125.13819122 313.36746216 394.38226318
150.56967163 334.27685547 413.09930420
158.68391418 307.08480835 388.46325684
146.83813477 304.11340332 383.62445068
130.53862000 327.47167969 414.74105835
137.31530762 301.42086792 384.83572388
138.61201477 329.02056885 419.02947998
169.45393372 318.55529785 397.67416382
131.64936829 302.95568848 386.37799072
122.16619110 319.55126953 407.05368042
169.63699341 324.41677856 399.64401245
165.02616882 307.71255493 391.11639404
166.46183777 329.65045166 407.14254761
160.76475525 332.49386597 413.64199829
119.18212891 314.09722900 395.23947144
169.34677124 311.30487061 396.30236816
146.09588623 298.49795532 382.27139282
123.71161652 305.76678467 389.68084717
122.81929016 322.31628418 413.27041626
144.00238037 331.78869629 423.16629028
117.11882782 314.46704102 401.17840576
156.84544373 299.43518066 381.60156250
173.44160461 317.57290649 402.29208374
172.68231201 322.09353638 406.17477417
170.74552917 325.63095093 410.65414429
157.86064148 334.87240601 420.20242310
124.62400055 325.80761719 419.61795044
125.22592926 299.70175171 385.58520508
149.48306274 334.47866821 424.67410278
167.03294373 301.11618042 387.95129395
115.10555267 310.15866089 394.23138428
167.93771362 330.53054810 417.35055542
162.37034607 297.21765137 384.02203369
116.91950989 318.39352417 413.72567749
128.57839966 295.66024780 383.02212524
172.03051758 302.23617554 396.21887207
175.36579895 307.14331055 401.00274658
133.57707214 293.74328613 379.95098877
141.07070923 292.66787720 378.11279297
176.92907715 320.59521484 410.76516724
131.45686340 328.46917725 428.47668457
115.68872833 302.71023560 389.00659180
139.20225525 331.28271484 430.14434814
111.86576843 309.01007080 401.82107544
153.84358215 290.22140503 381.23809814
178.38778687 311.00094604 404.73553467
118.62873077 321.73376465 421.91363525
111.19229889 312.51080322 407.75122070
156.05416870 335.93692017 428.21136475
167.67430115 294.79153442 385.38372803
121.42351532 296.27725220 382.65917969
175.34680176 326.02694702 417.38937378
111.26258087 305.07650757 394.14086914
171.89628601 295.17352295 394.60321045
146.96063232 334.58123779 432.37405396
166.95930481 333.26022339 425.43218994
172.59501648 330.21109009 423.27032471
161.81759644 289.61099243 380.36456299
124.71265411 326.93475342 430.33456421
147.07032776 286.74902344 377.38320923
179.51525879 302.87564087 402.83221436
125.06510162 289.86843872 381.27749634
163.08825684 335.18731689 429.86523438
133.40528870 328.86035156 435.21710205
170.99620056 290.61157227 390.82586670
120.28717804 322.83950806 429.60586548
182.03512573 316.66122437 413.69577026
136.83302307 284.97964478 378.83126831
112.76769257 319.43771362 422.68994141
107.31563568 303.99362183 400.53887939
108.67243195 315.51010132 416.28244019
115.16121674 294.88690186 384.32733154
183.05627441 311.93096924 410.60684204
177.41827393 293.83007812 398.61358643
105.87185669 310.90341187 411.75958252
104.96099091 306.93572998 406.02062988
108.19670868 298.39086914 392.35321045
171.40533447 332.12356567 429.94458008
165.72993469 283.80294800 386.05459595
151.81048584 335.55807495 438.19613647
159.19581604 335.76046753 436.28833008
177.79763794 327.93756104 426.21594238
127.28157806 328.07464600 437.41275024
156.53237915 282.05932617 377.76400757
144.45336914 333.58538818 440.48147583
182.32876587 322.98477173 422.72821045
163.40373230 282.46850586 379.73803711
127.85301971 281.52041626 380.10177612
184.76429749 318.15292358 419.95333862
118.90213013 284.92861938 384.09414673
104.94897461 297.36523438 399.18984985
185.40959167 304.10623169 411.32601929
102.75289917 302.26135254 403.70236206
134.79466248 330.02584839 441.55331421
107.47533417 315.74844360 424.54736328
147.95011902 278.53234863 377.73068237
183.11209106 296.31048584 406.90670776
175.02990723 285.49539185 396.31137085
117.16114044 322.04443359 435.00219727
107.75018311 292.20193481 391.21325684
178.32894897 288.08923340 400.37091064
186.87612915 310.24707031 417.07012939
111.23454285 287.53060913 389.66583252
104.43537140 310.86557007 421.38516235
101.00874329 306.16680908 411.49700928
175.17138672 329.94949341 433.80761719
168.81620789 333.51718140 437.78405762
122.28145599 324.89169312 440.74237061
137.66215515 275.99127197 376.93670654
184.03062439 320.32772827 428.30010986
163.04585266 334.21414185 442.04104614
112.48301697 318.95132446 436.08966064
156.57083130 334.55517578 444.81558228
182.13063049 287.44641113 404.80438232
167.18746948 275.75708008 387.83065796
130.68150330 274.43695068 380.11761475
100.07070923 305.59558105 417.45220947
103.57820892 289.72903442 397.03829956
172.82496643 277.87136841 392.53570557
163.03929138 274.55157471 381.64639282
185.30171204 289.94970703 408.94924927
111.87567139 280.40377808 389.97515869
123.90551758 274.28527832 383.21026611
107.65213776 313.89584351 434.40567017
188.35052490 309.51544189 425.52746582
98.43328094 294.99969482 405.27340698
116.91189575 321.18255615 442.88031006
172.10250854 330.61926270 442.42968750
189.44184875 300.61340332 418.82531738
178.25686646 326.18859863 438.96719360
141.45486450 269.73629761 380.73477173
149.79415894 270.50875854 378.34002686
176.27807617 277.24194336 399.42037964
146.88745117 332.70336914 449.90332031
186.83677673 313.81701660 430.60061646
116.35160828 275.72152710 386.68582153
188.86183167 294.44699097 414.35235596
105.14110565 283.65093994 395.38827515
136.03431702 329.77804565 450.21133423
100.34447479 304.79492188 424.46493530
156.76660156 270.89358521 377.86416626
123.86755371 324.62091064 448.30801392
183.11251831 318.88565063 437.17150879
96.77359009 298.11193848 414.61361694
190.09388733 304.11849976 425.45288086
169.05206299 270.48999023 389.94561768
159.80851746 332.30450439 450.52362061
184.90187073 282.78970337 408.10980225
182.15036011 278.87991333 404.32592773
129.44827271 327.56771851 451.69671631
98.60624695 287.97576904 404.28500366
101.77778625 282.99472046 400.17282104
167.99653625 330.28503418 448.82742310
137.09001160 266.95858765 377.89431763
188.26576233 286.19265747 412.47683716
164.80805969 267.98953247 384.89395142
104.11501312 309.31448364 436.63897705
96.94035339 299.01608276 421.70642090
110.92595673 315.51217651 444.07986450
100.85529327 305.17736816 432.17395020
140.39241028 329.68634033 455.11651611
96.54798126 289.87258911 410.42453003
106.12644196 275.89965820 394.57440186
116.86003113 319.57333374 449.47845459
130.26684570 265.90731812 379.20089722
182.07630920 321.92153931 443.75863647
188.76799011 315.69064331 437.26400757
192.87588501 299.04666138 424.87338257
121.49958801 266.86572266 385.71237183
175.30686951 269.49206543 397.35015869
106.19035339 311.04086304 442.18475342
152.02066040 262.57202148 381.03167725
97.11706543 299.46353149 428.69958496
163.29278564 330.25311279 454.79074097
141.64601135 262.74206543 377.28948975
177.28782654 323.68118286 449.25762939
171.94378662 265.43588257 393.09942627
111.46813202 268.84121704 391.68481445
150.67231750 331.92483521 457.94125366
97.36962891 281.44522095 406.79403687
158.83869934 262.07968140 380.14465332
194.53848267 307.01345825 432.83264160
180.43336487 269.64602661 403.67050171
134.00140381 327.71746826 458.93322754
194.32591248 289.57846069 420.70239258
187.84057617 320.49258423 443.65979004
196.83699036 302.23007202 428.22055054
94.22321320 293.65072632 424.46191406
167.83105469 262.10086060 389.64547729
122.29115295 321.74673462 456.85690308
169.82122803 327.63247681 455.55792236
100.26871490 304.78234863 439.93841553
92.66564941 288.93777466 417.47805786
188.84329224 275.75857544 410.61712646
126.63983154 260.46179199 381.02499390
195.31205750 312.93798828 437.64474487
127.49207306 324.17642212 460.05609131
161.82667542 258.32656860 386.20657349
112.51743317 316.22018433 454.29455566
193.00128174 316.32916260 441.95819092
160.74713135 329.76721191 460.65658569
112.68624878 263.61511230 389.43865967
102.97001648 269.68841553 398.13046265
108.33435059 312.97567749 451.69213867
139.40538025 327.96121216 462.69403076
198.55403137 296.86413574 427.44448853
148.66818237 256.79681396 380.03338623
178.64260864 326.30380249 454.32705688
178.65650940 263.56579590 400.76095581
186.26301575 323.21295166 449.74307251
172.28433228 260.02307129 395.63739014
116.73446655 318.68331909 457.94158936
155.36909485 256.64074707 380.42330933
198.05433655 291.11459351 425.33166504
187.25476074 270.14480591 409.57733154
141.49440002 256.33862305 376.47106934
96.26410675 299.95889282 439.79656982
200.25314331 303.10888672 432.40856934
118.77510834 258.90704346 385.40032959
194.21598816 278.13513184 416.54174805
133.97700500 256.54904175 375.73419189
92.32611847 293.53973389 431.88476562
145.93193054 329.33172607 465.42941284
90.05065918 283.23071289 416.13763428
99.44495392 305.14550781 446.95684814
90.20553589 280.10205078 410.98736572
184.20491028 264.96069336 408.03405762
127.98762512 254.51901245 381.62030029
94.19421387 272.01449585 402.96420288
183.90858459 325.85974121 455.98178101
202.53326416 308.52914429 437.18029785
177.88732910 327.44039917 460.02551270
151.01782227 329.25778198 467.72714233
131.10002136 324.15121460 467.04348755
122.16500854 254.09692383 384.82611084
165.65426636 252.75686646 390.94577026
174.37554932 255.93861389 400.24121094
105.61053467 260.77230835 392.24078369
90.10646057 275.03530884 407.67691040
151.18492126 251.40396118 378.51577759
96.05824280 267.54516602 399.39486694
156.81161499 251.08483887 381.56619263
200.47679138 281.61224365 422.52447510
193.92889404 270.07937622 414.54486084
169.24621582 327.72436523 465.96234131
110.48906708 315.54803467 461.67999268
137.11582947 325.31512451 469.92431641
202.06167603 315.08947754 442.90258789
88.51702881 287.47561646 430.45132446
110.66156769 256.28063965 387.89682007
195.36172485 322.97207642 450.77041626
180.20391846 256.61267090 406.87023926
87.51878357 282.94308472 425.32284546
142.14323425 327.16751099 471.19216919
141.60903931 249.34313965 375.12762451
168.81541443 250.25711060 398.21942139
173.06613159 252.32511902 405.22195435
203.89320374 286.17602539 427.66418457
93.07984924 298.73712158 447.03964233
103.84047699 312.04589844 459.83081055
99.35588837 308.24768066 456.13882446
119.70027161 319.79229736 468.47631836
126.96305084 248.51031494 383.63183594
135.61019897 247.89074707 378.55773926
95.71540070 262.84698486 396.16616821
185.58314514 327.79907227 461.05480957
114.66993713 318.28250122 466.98513794
115.11145782 251.32894897 388.03457642
86.56450653 276.96444702 419.45913696
192.40220642 327.65621948 456.75396729
191.17526245 263.40982056 416.31958008
99.15240479 259.15878296 392.88662720
164.97607422 246.99494934 401.46994019
205.77343750 321.29223633 444.56344604
160.94458008 246.26869202 387.17916870
207.17662048 297.01324463 435.86489868
88.19647217 289.83929443 439.48364258
89.95523834 266.24932861 400.01458740
165.73509216 328.12701416 471.57141113
87.12584686 270.52078247 410.90579224
158.77221680 328.20187378 473.42514038
201.01795959 273.98492432 423.34478760
124.99517822 321.43377686 472.60641479
187.49755859 257.78100586 414.47955322
207.28462219 289.96035767 432.89547729
152.47338867 245.82493591 375.41259766
201.89346313 326.24920654 451.14190674
132.02998352 244.52998352 381.89373779
175.56086731 249.71536255 410.13531494
93.70657349 300.40707397 453.96316528
120.79199219 245.83195496 388.28796387
151.94647217 327.91912842 476.79583740
169.77574158 245.63304138 408.14508057
128.67514038 242.83697510 387.01785278
211.73677063 312.54000854 441.30865479
104.91588593 314.67898560 466.74331665
210.84538269 304.39468384 440.57211304
84.53991699 280.48104858 432.80422974
100.42895508 253.33660889 391.75628662
182.49575806 251.76974487 414.58929443
198.11363220 265.19976807 421.41296387
88.71348572 292.99636841 448.75347900
163.35281372 241.85005188 400.04647827
174.80024719 329.31567383 472.66757202
188.32656860 329.77581787 465.82037354
137.80303955 324.81930542 478.36419678
160.36764526 241.78929138 382.34973145
85.91753387 283.89370728 440.66683960
168.53529358 242.53468323 390.88003540
208.50219727 281.27951050 430.56027222
91.55248260 258.14401245 394.02493286
130.77478027 322.72555542 478.11386108
200.14077759 329.88583374 457.67684937
207.01264954 276.62213135 427.71343994
193.92050171 331.02511597 462.97863770
100.08953094 311.30068970 465.93566895
85.08902740 266.33908081 414.88192749
183.02806091 329.18936157 470.24377441
84.26174164 270.04983521 421.89602661
107.13980103 247.13189697 390.91943359
138.78117371 239.72927856 378.15966797
152.98503113 239.65814209 378.32946777
214.11196899 317.03955078 444.81729126
86.94679260 259.84918213 399.54721069
161.72709656 238.78158569 391.69247437
115.54394531 320.12130737 476.01153564
145.05387878 326.32843018 481.11450195
134.23518372 238.19078064 384.15969849
94.91352844 305.50534058 463.54473877
86.51110077 287.78573608 448.46957397
213.40888977 295.12152100 439.39456177
214.16886902 323.53976440 446.24069214
89.82664490 297.75912476 457.23928833
147.03099060 238.62841797 376.62628174
83.74716187 274.87640381 433.61593628
126.08728027 238.39106750 390.42678833
83.76755524 270.84136963 428.52737427
84.95259094 261.25744629 407.10757446
114.00775146 241.56895447 391.41052246
195.83940125 258.05566406 423.39511108
199.84167480 263.90695190 428.39294434
210.29733276 329.59094238 452.41677856
108.39553070 317.38275146 474.75622559
154.59375000 236.05810547 387.56057739
163.95516968 329.26242065 480.92044067
95.53077698 249.88800049 393.82183838
119.84061432 238.35260010 392.04598999
216.95495605 311.57858276 444.27020264
190.34960938 251.46884155 421.16119385
170.92510986 330.32943726 479.39007568
205.89979553 268.18783569 428.94848633
172.20962524 240.00460815 413.32107544
183.73597717 246.14611816 419.10046387
83.36466217 263.26986694 420.56527710
143.56892395 234.45480347 383.87948608
178.09178162 242.56755066 416.77618408
85.37683105 281.26840210 447.82107544
214.30241394 284.49633789 436.42037964
217.38845825 303.24124146 443.50637817
89.03025055 252.94059753 394.05084229
189.60539246 332.14031982 472.05331421
106.87432861 241.76408386 393.17132568
165.95384216 236.42427063 408.07034302
210.44131470 273.54385376 431.57806396
194.71194458 332.42083740 469.21707153
190.83663940 253.51527405 430.14526367
101.21647644 243.51698303 393.84689331
201.18572998 332.30352783 465.21801758
162.39739990 233.92106628 398.31503296
206.17446899 331.91714478 461.04263306
135.68133545 232.70265198 388.94271851
197.45596313 259.31124878 433.53137207
83.92755127 274.47412109 442.56445312
83.44906616 270.72671509 437.82388306
103.28481293 315.71078491 475.95294189
153.43521118 328.92849731 485.80358887
203.02247620 264.16857910 433.84863281
86.71055603 288.16018677 456.61682129
85.37631989 254.32864380 405.39904785
216.47261047 328.40884399 450.97811890
156.97071838 232.29235840 395.94659424
90.58024597 299.63809204 465.25823975
83.23969269 263.37203979 428.73867798
147.64474487 231.14025879 389.68505859
221.62387085 318.59851074 445.21609497
97.73834991 311.41702271 474.01266479
128.96029663 231.81997681 392.40185547
88.12243652 294.06579590 462.56164551
181.23023987 287.63485718 473.09500122
219.87188721 292.69958496 440.20446777
182.01849365 281.43466187 470.19775391
183.68504333 332.13717651 479.30123901
120.67269897 323.82492065 485.32028198
96.03286743 243.53694153 399.03985596
82.65555573 265.69537354 435.21322632
83.77826691 254.80860901 414.42611694
158.17012024 330.55557251 487.77835083
192.80108643 248.11614990 425.83084106
114.46601105 234.04785156 396.33499146
162.60231018 230.85469055 403.32608032
189.68205261 252.51165771 439.09127808
147.99320984 228.64218140 395.08770752
121.31171417 231.55883789 395.72308350
177.27522278 291.23437500 478.13351440
129.20594788 326.05203247 488.22241211
184.46531677 241.72334290 423.03845215
170.33872986 233.90907288 414.48986816
94.67347717 306.79397583 473.70239258
82.60458374 257.81011963 424.32321167
176.04237366 236.47990417 418.10571289
170.83026123 331.52490234 485.67559814
140.57215881 228.37011719 392.09051514
106.02654266 236.51762390 398.70877075
178.07096863 331.77249146 483.47177124
84.32559204 279.29162598 454.17034912
144.62094116 327.83901978 490.05938721
223.47428894 309.61291504 446.27127075
222.57305908 296.42315674 443.00991821
216.02896118 331.42990112 457.39443970
115.16191864 323.33847046 486.10113525
199.57804871 258.34008789 440.25103760
85.59055328 247.97492981 402.34494019
199.01850891 333.44326782 473.35372925
91.26124573 301.60482788 472.18942261
84.36644745 249.42652893 408.70840454
208.13008118 264.84228516 438.37768555
223.68565369 302.93920898 446.12020874
221.38504028 284.53198242 438.85385132
216.51525879 273.69586182 436.46884155
192.42210388 333.24954224 478.60098267
224.91700745 323.54019165 448.99554443
195.16748047 255.61532593 444.19415283
219.43778992 277.90643311 437.92379761
135.22111511 327.44946289 491.80258179
154.53881836 226.37611389 401.89743042
175.55198669 278.15780640 476.27838135
213.56407166 332.46328735 463.01962280
190.85098267 243.17791748 428.02532959
90.46337891 242.15930176 402.35971069
165.36384583 333.46151733 490.03936768
151.61611938 331.57775879 492.31298828
190.84403992 245.85177612 434.39755249
105.89123535 320.21331787 484.96685791
214.96612549 267.22302246 434.49441528
174.44287109 295.80264282 484.75408936
187.30622864 247.46080017 442.16787720
88.22139740 294.75323486 470.86514282
164.82336426 227.58105469 410.42535400
171.62919617 289.63928223 484.20190430
145.04527283 224.39724731 398.57168579
99.28157806 314.81198120 482.29281616
86.13124847 288.64080811 467.05865479
130.34059143 225.11698914 395.40036011
81.14362335 263.23901367 441.98812866
95.44193268 237.23408508 403.64108276
223.38262939 328.96536255 454.79452515
82.60564423 249.52229309 420.26864624
174.94551086 231.14820862 419.62515259
228.71302795 313.10675049 447.52502441
112.47778320 228.37635803 400.86456299
81.07188416 267.37301636 449.00708008
182.75852966 288.63442993 481.43933105
180.22560120 233.64527893 423.97335815
175.87704468 282.31790161 481.60278320
82.08718109 274.70776367 456.93634033
227.19558716 297.51840210 445.92944336
145.32597351 331.31787109 495.19268799
173.70977783 271.12548828 476.59545898
183.81913757 273.29986572 473.67584229
226.05598450 291.34970093 444.84765625
208.76200867 332.69400024 471.77047729
213.61581421 264.44561768 440.04504395
83.67980957 244.80380249 413.70907593
81.21504211 252.22756958 429.24700928
137.20571899 222.16271973 398.06021118
186.62518311 236.94619751 428.48916626
83.40734100 280.98013306 463.90722656
119.37577820 224.95832825 399.68673706
230.23229980 304.56240845 446.69924927
128.41242981 327.94662476 495.72586060
186.76304626 333.50640869 487.42416382
205.78160095 258.14614868 445.42681885
160.13354492 334.62429810 495.41510010
84.27580261 241.62176514 408.11926270
171.24223328 334.29452515 493.15692139
92.86983490 303.63198853 481.29312134
221.52748108 332.00122070 461.66333008
79.72103882 257.29925537 439.69418335
189.72918701 251.45068359 453.88314819
110.38669586 323.21725464 491.87048340
