ply
format ascii 1.0
element vertex 2048
property float x
property float y
property float z
end_header
264.37438965 241.98187256 418.49957275
271.43429565 245.42071533 425.23434448
273.88168335 244.35891724 411.34500122
281.44177246 245.41825867 417.17764282
257.20132446 312.18814087 439.26889038
257.75244141 315.91705322 449.76226807
266.36315918 305.95803833 437.72094727
264.86816406 311.40658569 445.56866455
111.87078094 184.86749268 491.34643555
106.47492981 192.92240906 494.73645020
111.34736633 179.02949524 482.61984253
105.75054169 187.20768738 485.58349609
106.71891022 201.97277832 505.57885742
103.98034668 211.79446411 509.62866211
104.17060089 199.33961487 498.76104736
101.50795746 208.94692993 502.60629272
148.30271912 148.13700867 435.57800293
138.72576904 151.03323364 436.37426758
155.05267334 147.17279053 425.94833374
144.14126587 148.63630676 424.93991089
126.84724426 161.89752197 460.54345703
119.21212769 167.84001160 463.06274414
130.36558533 156.87234497 450.58419800
121.79617310 162.50668335 452.01022339
157.63319397 146.48570251 415.43927002
148.05445862 148.68968201 413.76831055
164.11250305 149.44868469 407.18984985
153.93710327 150.70654297 404.36642456
140.93685913 156.18460083 454.59271240
133.20082092 160.43916321 458.61703491
147.27505493 151.70339966 444.55487061
138.05360413 155.26370239 447.47787476
271.11419678 268.32278442 424.18911743
272.24679565 279.66293335 425.62985229
277.52252197 260.87612915 422.03292847
278.29110718 271.43026733 424.48297119
124.89416504 170.18679810 474.68103027
118.77124023 176.45935059 479.78302002
131.12516785 163.66818237 466.30633545
124.37789154 169.93313599 470.44277954
102.20971680 225.38716125 509.49615479
105.71376038 234.25132751 513.37536621
100.94460297 234.48847961 504.75592041
105.11943817 243.02395630 508.61724854
162.83869934 146.78477478 428.47885132
158.51559448 147.16192627 436.16223145
171.17767334 148.49124146 420.19705200
165.96849060 146.91384888 426.74603271
118.56501770 166.24499512 453.18585205
112.59661865 174.26687622 455.68371582
121.66398621 162.47410583 443.23199463
115.14359283 170.29321289 445.01660156
108.76235962 182.04335022 473.06747437
104.26953888 190.54309082 476.93081665
110.05907440 178.58396912 462.22753906
105.19110870 186.99081421 465.62619019
103.08202362 195.04888916 488.89950562
99.53600311 204.16494751 492.65365601
103.39040375 191.96197510 478.72055054
99.65680695 201.10839844 482.30230713
134.52757263 154.23950195 432.41445923
126.51998901 160.48211670 433.16653442
139.91030884 152.24989319 423.06506348
131.31231689 157.68237305 422.81161499
139.54521179 153.07260132 414.31631470
131.42150879 158.37825012 413.79467773
146.83621216 152.49203491 406.21496582
138.60266113 156.96519470 405.07254028
240.76626587 318.36553955 462.56475830
239.00218201 315.83062744 473.06530762
251.42376709 316.34689331 460.35006714
247.13592529 316.59277344 467.62210083
242.29835510 303.25521851 427.64282227
243.05133057 311.55218506 436.12918091
253.92477417 302.33151245 429.99948120
249.24737549 308.31085205 433.54708862
181.41624451 153.23999023 419.18002319
184.14543152 156.52252197 427.87628174
188.95443726 159.84793091 414.12091064
192.12800598 162.72717285 423.03509521
174.05422974 151.14451599 411.28146362
168.27651978 149.67028809 415.72692871
180.89439392 158.31159973 404.72085571
175.24397278 155.62976074 408.18292236
143.58375549 157.64234924 400.70602417
136.35415649 163.49284363 398.86111450
151.24478149 160.81323242 394.73092651
144.18846130 166.09028625 392.69354248
265.29019165 249.26133728 431.47506714
266.11105347 260.82656860 436.61618042
275.56027222 246.43167114 421.78378296
272.78546143 255.26547241 429.62432861
99.23699188 208.31204224 489.62258911
99.04048920 218.23376465 494.41107178
99.57808685 209.53395081 479.33822632
99.35065460 219.63430786 484.35089111
139.76284790 163.73696899 462.06869507
135.46742249 171.33279419 470.16827393
150.93148804 164.43545532 455.45718384
147.39349365 171.15773010 463.06015015
123.72817993 167.25457764 420.64355469
118.43415833 174.90042114 422.32034302
128.85026550 164.20697021 411.40112305
122.88365936 171.36868286 412.72796631
225.34973145 310.28936768 438.11499023
223.88665771 314.76879883 448.17962646
237.09114075 311.33956909 440.19168091
230.92477417 313.81976318 444.82312012
181.40888977 160.41430664 405.17822266
185.66099548 160.74568176 412.23095703
185.48413086 169.32937622 400.42614746
190.87731934 170.01809692 407.59500122
175.38113403 158.30911255 401.97183228
166.12573242 160.21186829 396.62689209
182.35075378 166.45135498 398.92767334
173.79028320 168.54101562 393.12182617
115.21807098 173.98114014 440.39071655
110.08927917 182.52375793 443.43899536
119.70196533 170.51193237 429.84552002
114.12121582 178.66152954 432.63320923
164.67443848 157.97409058 445.32266235
160.13471985 165.74499512 452.61657715
176.14318848 161.77557373 440.76464844
172.40959167 168.79260254 448.05676270
104.10552979 255.71188354 493.91894531
111.06181335 261.06576538 498.10629272
110.76124573 266.92785645 489.53195190
116.43846130 269.97100830 493.90420532
128.04690552 170.19192505 405.27127075
122.60103607 177.72164917 405.94830322
134.39894104 169.14151001 397.79336548
128.79853821 176.38720703 397.94845581
257.11389160 280.11917114 437.52359009
256.42791748 291.70227051 440.97091675
265.73004150 279.00946045 435.07308960
261.47903442 286.48025513 438.46725464
106.02829742 190.57958984 458.40750122
102.94941711 199.95111084 463.29421997
108.58956909 187.81779480 446.48141479
105.03192902 197.19645691 451.56732178
101.19789886 234.43066406 490.36682129
103.37731934 244.37025452 495.75463867
102.17238617 239.16822815 481.92581177
103.99005890 248.57189941 487.72271729
106.56809998 238.43151855 502.81677246
109.27272797 247.34213257 506.49230957
111.89250183 247.36936951 496.28210449
114.53683472 255.16169739 500.18182373
237.71516418 283.25051880 420.73629761
238.23770142 294.49060059 423.22210693
248.08477783 283.93405151 422.73309326
243.75508118 290.53002930 423.01510620
192.84852600 164.37786865 416.47247314
196.30880737 169.54772949 423.93252563
196.33560181 172.74809265 411.00561523
200.67033386 177.45349121 418.62820435
130.55221558 180.21052551 478.66598511
127.13212585 189.74996948 486.20822144
139.65933228 183.42607117 472.84295654
137.24499512 192.90118408 480.26013184
215.59570312 307.77282715 469.73544312
209.83312988 306.74923706 475.32556152
224.51313782 307.27239990 472.35418701
217.97303772 307.60372925 474.89190674
251.33181763 238.57830811 427.43182373
251.83737183 247.78189087 435.19647217
264.49142456 241.52587891 419.79672241
259.87243652 243.71574402 428.67874146
101.71787262 211.12542725 470.93984985
100.49998474 220.51123047 476.61349487
102.26953888 208.80667114 459.73773193
101.16821289 218.51760864 465.82043457
186.79202271 164.75527954 432.32559204
184.90646362 172.41540527 439.70883179
194.18643188 170.57360840 427.70681763
192.99444580 177.74606323 435.28836060
142.75950623 169.37396240 392.51351929
136.27484131 176.44815063 390.18002319
151.03147888 172.51803589 388.18103027
145.10238647 179.96023560 385.38351440
114.56604004 217.50250244 501.48504639
110.03391266 227.94229126 506.20117188
121.10787201 222.53125000 493.94995117
117.73155212 233.72489929 499.30026245
123.88819885 197.49974060 490.91784668
119.25514221 207.73229980 496.74780273
132.08514404 202.17477417 484.99230957
128.66683960 212.80749512 491.13580322
112.25527954 188.04953003 434.74563599
108.78874969 196.83868408 438.46899414
115.19102478 184.46600342 424.99160767
111.27699280 193.17654419 428.45190430
237.91677856 283.32781982 463.91067505
234.78878784 293.85156250 467.64605713
246.67790222 284.71072388 457.51464844
241.08644104 290.94531250 462.31549072
116.59939575 184.12643433 414.24362183
112.83989716 192.96917725 416.03427124
121.44950104 181.87197876 405.90753174
117.29609680 190.25740051 407.14486694
190.49842834 171.32453918 404.43054199
194.85012817 174.79313660 407.42456055
192.99493408 182.09597778 401.52136230
198.50155640 186.99789429 405.35858154
146.56114197 172.91682434 464.32644653
142.68954468 182.13470459 471.03976440
156.96876526 177.84375000 460.60534668
153.50402832 186.50068665 467.24542236
126.19535828 181.37820435 397.38839722
121.34525299 189.77076721 397.31915283
133.44192505 180.93161011 391.07119751
128.60610962 189.14552307 390.54153442
105.48523712 255.44042969 481.15939331
109.01696777 262.67004395 488.00491333
109.66409302 263.97320557 471.55108643
111.55769348 268.65539551 478.53683472
160.05258179 309.78326416 467.29898071
155.80560303 306.28704834 474.06857300
167.33334351 311.82601929 470.29852295
162.80802917 310.04229736 473.99496460
243.61483765 259.63708496 422.42370605
243.77919006 272.38491821 422.10372925
253.39544678 259.50286865 425.72476196
249.43904114 267.12771606 424.93560791
159.49432373 170.37823486 389.59298706
153.71885681 178.02050781 385.60751343
168.02265930 175.03363037 388.37823486
162.87600708 183.22789001 384.17480469
200.23495483 309.33639526 445.55718994
196.19989014 311.36840820 453.85058594
208.73446655 311.04431152 447.26165771
202.44200134 311.76318359 451.15274048
249.72692871 257.96075439 447.55090332
246.98254395 268.99719238 452.64440918
258.78982544 260.62609863 441.26184082
252.98907471 265.44403076 447.30661011
164.89414978 171.24838257 451.33416748
160.82649231 179.84101868 458.12072754
175.58581543 176.37716675 447.95428467
171.59587097 184.01406860 454.72656250
102.66621399 229.62237549 470.24581909
103.93009949 239.24398804 475.85424805
104.36821747 232.60925293 460.17404175
105.16294861 242.78465271 466.35144043
182.45695496 312.45654297 460.20922852
176.40013123 311.19122314 466.83145142
190.39956665 312.79364014 462.72863770
184.16587830 312.48715210 465.98956299
121.19889069 281.51626587 479.54705811
122.07601929 280.63067627 488.40945435
129.99205017 287.34979248 474.32955933
128.24728394 285.63439941 481.13711548
111.90071869 201.93795776 419.79891968
110.40103149 211.83824158 423.34405518
114.54639435 201.15194702 411.22146606
112.08203888 210.53416443 414.13867188
202.69583130 230.17445374 396.01943970
200.05630493 230.22891235 395.94573975
203.01966858 230.18551636 396.09707642
202.78190613 230.21109009 396.02560425
208.92036438 238.61210632 401.94024658
206.41503906 238.65751648 401.87838745
209.21023560 238.61454773 402.03439331
209.02673340 238.64172363 401.97540283
191.45893860 224.36048889 387.73287964
188.35844421 224.41015625 387.66159058
191.89079285 224.37710571 387.80340576
191.49197388 224.39581299 387.73498535
211.34782410 252.06471252 405.95553589
208.05378723 252.10693359 405.93194580
211.71289062 252.06419373 406.00219727
211.31446838 252.08976746 405.97833252
198.02276611 241.67974854 390.79171753
195.07368469 241.72155762 390.73269653
198.43701172 241.70036316 390.87896729
198.15550232 241.71495056 390.81906128
214.24147034 264.36889648 410.52127075
210.60272217 264.43286133 410.49490356
214.64683533 264.37109375 410.57290649
214.23043823 264.41647339 410.54711914
176.97952271 221.85775757 379.85565186
173.23092651 221.89709473 379.80700684
177.55674744 221.88485718 379.88610840
176.93222046 221.88903809 379.84143066
191.90435791 236.97314453 386.24029541
188.53988647 237.02035522 386.16809082
192.39982605 236.98982239 386.31161499
191.97042847 237.00463867 386.24618530
184.42355347 229.42315674 383.09796143
180.58511353 229.46926880 383.03964233
184.99639893 229.44018555 383.13800049
184.34893799 229.45368958 383.08209229
187.20463562 247.28494263 445.54275513
184.29718018 247.31011963 445.56347656
187.62927246 247.27096558 445.54238892
187.18083191 247.28735352 445.56536865
164.79145813 210.63255310 377.76132202
160.84053040 210.67436218 377.72717285
165.44009399 210.64973450 377.78103638
164.69226074 210.65402222 377.74618530
192.13897705 252.28849792 388.99639893
188.44691467 252.33764648 388.93685913
192.67929077 252.29792786 389.05151367
192.17178345 252.31872559 388.99734497
183.52357483 241.88371277 381.41226196
179.67703247 241.93452454 381.37408447
184.11570740 241.90345764 381.44146729
183.52021790 241.91728210 381.39904785
200.36549377 256.19015503 397.85437012
197.09503174 256.22195435 397.81488037
200.82701111 256.19302368 397.93975830
200.48753357 256.20913696 397.89910889
177.38009644 239.62106323 446.76910400
174.44818115 239.63299561 446.79110718
177.84504700 239.61845398 446.74432373
177.34857178 239.62113953 446.76629639
174.97567749 244.63919067 379.38589478
170.81828308 244.68476868 379.35861206
175.65614319 244.66459656 379.41641235
174.93437195 244.67015076 379.38745117
167.14085388 278.02606201 460.95645142
163.67649841 278.02752686 460.95416260
167.67712402 278.04229736 460.93270874
167.03948975 278.04797363 460.92941284
166.34722900 231.42684937 449.36578369
163.33302307 231.44618225 449.38317871
166.88511658 231.44754028 449.35559082
166.33183289 231.45428467 449.37045288
165.07281494 223.36975098 378.15765381
160.93325806 223.42127991 378.12567139
165.75007629 223.40884399 378.15191650
164.95913696 223.41777039 378.11846924
184.92843628 262.25988770 457.61132812
181.89047241 262.26538086 457.64630127
185.36526489 262.23861694 457.65951538
184.81500244 262.24728394 457.69104004
182.11648560 251.26583862 383.45312500
178.39292908 251.31680298 383.42718506
182.68978882 251.28865051 383.50000000
182.14883423 251.30648804 383.46667480
181.94619751 255.26502991 451.27914429
178.89514160 255.26393127 451.31607056
182.38746643 255.24674988 451.29931641
181.83853149 255.24760437 451.33105469
162.06715393 269.58428955 454.60360718
158.45246887 269.58432007 454.63339233
162.71328735 269.62182617 454.52093506
162.02838135 269.61691284 454.54418945
174.18955994 241.94108582 456.77175903
171.48927307 241.94239807 456.81686401
174.61331177 241.93154907 456.78787231
174.11172485 241.93327332 456.82189941
146.46624756 212.83627319 374.52151489
142.06381226 212.87786865 374.52270508
147.22305298 212.89143372 374.50018311
146.37103271 212.87683105 374.50198364
156.07348633 223.12580872 375.64135742
151.71307373 223.17846680 375.62573242
156.80426025 223.17353821 375.63040161
155.95729065 223.17248535 375.61624146
165.75654602 240.74645996 453.90747070
163.02471924 240.76310730 453.94512939
166.22592163 240.76170349 453.90930176
165.72164917 240.77008057 453.93661499
166.73541260 234.13639832 377.64935303
162.35823059 234.17694092 377.64093018
167.45458984 234.16665649 377.63421631
166.57232666 234.16510010 377.61920166
210.04434204 295.70083618 428.49819946
205.49597168 295.73254395 428.52844238
210.57029724 295.71191406 428.50454712
209.92312622 295.73913574 428.51809692
169.38139343 253.84048462 445.85220337
166.13961792 253.83877563 445.88812256
169.89973450 253.87373352 445.81448364
169.33355713 253.86442566 445.84475708
207.78796387 275.24090576 411.92138672
204.13195801 275.24597168 411.95074463
208.22674561 275.24398804 411.99505615
207.79725647 275.25054932 412.00842285
204.89105225 286.56430054 420.65106201
200.27412415 286.56832886 420.68389893
205.49807739 286.56176758 420.63388062
204.77844238 286.55975342 420.65512085
172.31610107 253.15992737 456.70095825
169.38845825 253.16137695 456.73620605
172.79771423 253.15301514 456.69989014
172.25224304 253.15412903 456.72760010
172.62648010 263.71383667 458.72277832
169.40278625 263.72238159 458.76818848
173.14916992 263.70410156 458.74121094
172.50550842 263.71328735 458.77731323
195.62693787 263.71661377 397.47338867
191.97271729 263.73510742 397.45831299
196.15966797 263.72952271 397.55087280
195.66003418 263.74008179 397.52987671
154.02168274 267.25576782 462.58944702
150.84197998 267.25213623 462.62487793
154.59983826 267.28710938 462.53787231
153.97283936 267.28204346 462.55703735
202.30554199 265.80297852 405.83941650
198.53974915 265.80380249 405.85610962
202.81748962 265.80166626 405.90527344
202.31997681 265.79983521 405.91101074
201.72506714 301.64840698 433.42706299
196.93630981 301.65762329 433.44015503
202.36166382 301.67687988 433.47378540
201.62420654 301.68917847 433.47097778
163.28097534 257.01004028 466.75982666
160.23570251 257.02294922 466.80908203
163.79635620 257.01473999 466.75979614
163.14543152 257.02902222 466.78845215
194.98526001 307.44198608 441.08471680
190.11215210 307.45397949 441.12005615
195.67370605 307.45361328 441.14227295
194.82058716 307.47177124 441.15493774
185.50549316 309.70007324 442.50842285
180.69873047 309.68170166 442.55722046
186.22789001 309.72583008 442.54486084
185.39385986 309.72079468 442.56326294
144.44847107 282.17370605 460.02493286
141.45346069 282.14193726 460.07067871
144.95008850 282.22839355 459.99194336
144.41792297 282.20504761 460.01223755
185.17391968 263.19610596 390.65731812
180.85818481 263.22296143 390.66641235
185.86241150 263.21258545 390.68551636
185.11424255 263.21826172 390.68215942
167.55335999 308.54382324 439.10144043
163.44393921 308.49746704 439.16949463
168.18240356 308.60598755 439.14447021
167.57568359 308.57485962 439.17852783
181.95893860 301.83874512 427.92584229
177.11117554 301.81350708 427.99359131
182.69580078 301.87136841 427.94281006
181.91050720 301.85321045 427.97827148
152.23364258 308.78637695 462.49481201
148.92515564 308.75537109 462.51406860
152.74700928 308.86041260 462.51867676
152.22210693 308.84124756 462.50695801
133.59144592 211.89547729 379.21725464
129.59114075 211.95233154 379.26254272
134.29704285 211.94253540 379.16696167
133.48991394 211.94593811 379.18856812
164.16340637 249.68319702 381.58535767
159.97962952 249.71792603 381.62966919
164.87229919 249.71228027 381.56781006
164.08370972 249.71191406 381.59024048
141.12228394 227.17504883 377.25134277
136.89323425 227.22993469 377.29797363
141.86746216 227.23504639 377.19915771
141.02026367 227.22985840 377.22528076
183.53442383 276.26544189 396.99371338
179.53662109 276.26803589 397.02377319
184.18057251 276.28414917 397.09371948
183.55584717 276.28137207 397.10620117
154.93032837 279.91632080 453.40750122
151.56553650 279.87023926 453.46133423
155.48986816 279.95437622 453.35238647
154.87249756 279.91961670 453.38470459
148.90093994 235.98054504 379.06558228
144.62098694 236.02017212 379.10675049
149.64656067 236.03022766 379.00662231
148.80738831 236.01942444 379.03094482
160.22845459 310.67492676 455.55511475
156.38873291 310.63647461 455.59426880
160.84315491 310.73205566 455.59439087
160.15470886 310.70965576 455.60577393
132.33053589 221.13253784 379.25540161
128.46310425 221.18714905 379.31320190
133.01322937 221.19728088 379.19085693
132.28622437 221.19186401 379.22119141
171.91102600 258.53442383 383.96606445
167.58618164 258.55557251 384.01547241
172.61677551 258.58529663 383.94259644
171.80651855 258.57791138 383.96820068
143.93350220 275.65203857 467.50762939
141.26477051 275.61859131 467.53649902
144.38218689 275.66891479 467.48483276
143.89447021 275.64654541 467.48831177
197.16735840 292.08615112 427.47375488
192.79791260 292.06320190 427.55163574
197.78506470 292.10317993 427.52917480
197.12258911 292.09075928 427.57910156
173.61253357 313.18615723 454.67019653
169.07540894 313.16592407 454.72546387
174.38699341 313.23361206 454.71682739
173.52661133 313.22772217 454.73471069
165.39604187 302.67913818 421.27255249
160.93516541 302.61697388 421.37026978
166.13096619 302.72650146 421.29455566
165.40956116 302.67428589 421.35241699
132.52577209 295.23046875 459.26797485
130.08569336 295.17376709 459.29931641
132.91204834 295.33236694 459.26608276
132.53652954 295.28680420 459.26086426
142.86030579 302.30426025 454.35629272
140.08187866 302.24902344 454.39523315
143.32192993 302.40243530 454.39874268
142.94166565 302.36187744 454.39916992
123.35182190 285.93884277 460.92031860
121.28594971 285.87963867 460.96154785
123.64028168 286.02468872 460.90753174
123.33750916 285.97418213 460.91183472
192.84849548 278.50305176 403.66998291
188.90544128 278.48348999 403.72000122
193.44104004 278.51998901 403.75598145
192.89477539 278.50653076 403.78131104
154.36109924 244.37731934 381.00903320
150.22959900 244.40669250 381.05963135
155.09111023 244.42424011 380.97790527
154.29235840 244.41555786 381.00711060
268.28283691 268.25845337 435.48779297
264.25000000 278.58749390 439.74124146
275.84381104 272.11242676 426.21810913
272.08251953 281.79119873 431.03784180
262.33050537 290.24829102 442.74731445
256.12808228 298.76589966 447.98327637
270.22467041 292.20617676 432.14941406
264.97796631 299.90203857 437.39700317
263.69577026 247.94966125 421.72750854
264.48715210 259.90789795 423.03784180
276.47262573 255.34004211 421.32669067
276.72631836 266.86953735 424.78161621
249.22718811 253.09362793 443.68383789
245.53601074 259.67120361 451.25820923
259.26501465 257.64273071 436.55963135
255.09912109 264.61328125 444.83248901
243.16946411 270.48880005 456.26910400
237.43508911 277.02349854 461.40591431
252.30070496 275.69885254 449.11810303
246.36000061 282.51492310 454.77923584
233.92837524 245.57150269 455.08114624
230.31356812 250.13577271 463.40045166
242.65855408 250.37380981 449.25387573
238.95712280 254.72015381 457.95010376
234.48661804 241.70611572 435.52349854
235.70896912 245.71304321 443.21401978
244.53695679 245.82025146 431.63806152
246.99864197 249.10725403 440.05920410
237.49940491 299.22500610 465.85498047
230.15368652 304.93258667 470.16470337
247.49079895 303.67047119 458.65841675
240.73638916 309.17889404 463.61123657
221.49047852 233.42501831 455.23565674
220.02339172 235.98136902 464.17486572
230.53494263 238.51383972 451.94778442
230.23629761 240.24575806 460.99057007
253.24392700 310.75628662 449.46823120
248.47958374 316.54962158 458.48602295
262.25994873 310.45840454 440.06100464
257.81268311 315.06823730 448.56787109
230.09294128 257.34259033 465.32263184
223.51895142 262.46603394 469.42868042
238.11929321 264.10281372 460.68331909
231.28627014 269.37765503 465.31011963
220.43716431 227.34385681 438.67294312
222.47724915 230.32716370 446.22412109
228.05532837 233.43774414 434.41592407
231.91397095 235.00845337 442.28149414
227.21682739 278.98406982 468.69714355
219.90861511 284.40582275 471.06860352
235.18153381 285.64291382 464.60494995
228.18862915 291.31835938 467.72357178
255.01516724 271.35968018 423.56347656
255.38406372 283.18569946 424.32540894
267.40661621 277.10208130 426.20022583
266.52587891 288.82452393 428.80929565
216.13392639 239.13774109 470.49249268
209.85290527 242.87847900 475.41137695
226.06101990 245.07710266 469.19647217
219.79608154 248.53916931 474.34756470
239.20989990 244.19462585 422.22601318
241.95605469 254.41645813 421.44213867
249.72917175 249.60833740 423.60034180
252.79821777 259.93914795 423.42996216
223.03840637 235.44656372 425.27487183
227.63037109 240.37615967 427.99737549
231.97894287 241.66685486 423.36117554
238.45825195 245.49780273 427.24572754
215.27645874 263.94757080 470.94177246
207.44482422 268.64227295 471.75994873
223.01518250 270.69155884 469.77883911
215.23715210 275.45501709 471.14633179
214.13314819 289.94726562 470.90673828
206.06214905 294.20785522 471.47781372
222.84547424 296.42703247 470.50744629
215.18356323 300.61126709 472.23291016
245.29528809 289.16781616 423.54406738
245.93974304 300.30075073 427.04721069
258.01098633 293.85147095 426.39852905
257.17047119 305.02011108 430.93066406
234.85551453 316.68978882 454.62918091
230.02505493 316.48776245 465.40481567
245.19258118 316.59710693 456.68353271
240.90609741 316.85842896 466.54809570
209.99581909 250.16256714 467.61013794
202.20350647 254.64645386 468.22454834
218.55987549 255.65132141 469.46508789
210.57818604 260.03292847 470.67291260
198.07510376 200.11492920 444.73870850
195.11558533 206.10655212 451.64675903
203.37359619 207.92065430 438.35406494
200.70648193 212.48136902 446.36434937
209.44461060 201.48332214 427.60971069
208.97555542 207.68931580 433.01718140
210.44866943 212.29467773 419.26004028
211.34791565 216.83930969 426.32705688
197.70175171 230.72686768 462.75735474
193.81719971 234.44796753 471.09808350
206.35556030 237.33262634 461.09643555
204.09442139 239.31236267 469.30676270
194.40403748 182.58935547 438.13345337
191.43635559 189.30982971 444.76995850
202.32498169 190.12800598 432.79922485
198.97366333 195.72305298 440.33789062
188.77226257 207.15875244 459.94552612
184.60144043 213.01281738 467.50204468
194.64776611 215.34899902 455.72961426
191.03028870 219.34921265 463.59515381
203.28248596 274.71319580 469.89630127
195.09536743 278.92285156 469.46731567
210.21911621 281.63131714 470.05371094
202.23565674 285.79833984 470.26071167
201.57110596 183.09936523 420.23718262
204.53118896 190.88455200 423.95202637
205.18144226 196.00439453 416.01812744
207.96734619 202.71058655 421.30233765
179.14808655 223.43284607 480.14270020
171.18069458 229.26190186 485.42153931
187.04133606 228.33932495 475.80773926
179.45623779 233.47257996 481.42065430
232.73013306 261.41674805 419.81826782
235.17327881 272.25311279 420.77236938
243.68127441 266.22442627 422.07452393
245.65637207 276.99645996 423.40719604
200.99655151 226.79765320 446.00973511
200.79965210 230.75009155 454.11648560
209.51170349 234.43299866 444.14328003
211.62324524 235.78509521 452.60906982
223.13621521 245.06057739 414.80114746
225.88772583 254.90727234 416.14675903
232.07229614 249.52795410 418.67230225
235.70138550 258.98162842 420.17019653
231.63885498 304.73382568 431.93103027
231.93350220 311.37036133 440.00918579
243.45619202 308.80731201 434.78216553
242.53172302 315.70642090 443.64633179
174.44445801 187.69937134 453.91281128
169.30105591 193.89465332 461.86770630
185.21473694 193.98576355 451.58779907
179.28564453 198.50717163 459.73385620
194.12535095 295.32257080 468.97091675
185.24688721 298.09777832 468.45162964
202.32498169 301.29119873 469.70715332
193.90205383 303.56774902 470.25378418
168.88961792 206.01411438 474.00457764
161.88243103 212.33442688 480.90368652
178.98730469 210.52078247 472.65136719
171.80772400 216.26141357 479.40045166
189.75399780 234.11334229 468.89187622
183.15142822 238.65975952 476.53591919
197.18099976 239.24514771 464.43133545
192.07276917 241.80082703 471.81097412
205.11846924 223.32666016 432.10610962
206.09967041 227.94721985 438.29064941
211.36242676 233.20997620 427.82586670
214.88879395 234.57614136 435.62353516
193.33039856 259.91592407 462.56607056
185.33799744 264.26672363 462.06488037
199.75254822 265.79321289 465.15515137
191.53147888 270.33160400 464.95910645
209.40139771 311.33966064 457.88223267
203.42942810 309.04547119 466.37661743
219.41914368 311.79196167 463.08959961
215.04064941 309.17932129 471.27496338
225.41891479 288.73107910 422.63500977
227.46881104 297.64883423 426.90988159
236.67587280 293.61923218 424.06369019
237.89956665 302.76922607 428.77801514
205.68342590 226.31800842 418.60620117
206.92118835 233.28143311 421.25009155
210.61213684 237.00788879 417.14492798
215.55691528 241.00944519 422.14508057
200.41284180 188.58901978 407.80288696
201.89712524 199.57543945 405.31799316
206.38793945 200.79734802 411.63742065
207.93072510 210.11257935 410.12835693
179.60897827 279.44409180 467.87472534
171.69874573 284.01907349 467.81829834
186.10972595 286.88983154 468.45922852
178.36206055 291.27905273 469.03399658
153.91682434 190.89794922 467.97366333
147.55451965 197.28793335 476.20544434
165.50704956 195.90078735 466.64843750
158.17919922 201.31718445 474.74087524
221.75241089 270.66921997 417.65182495
224.58522034 280.12649536 420.59313965
232.39741516 274.49816895 420.34616089
234.90910339 284.00009155 423.25802612
192.34072876 251.39921570 454.07806396
186.44021606 256.51013184 457.26324463
200.19021606 255.64907837 455.81982422
193.90383911 260.34020996 458.95944214
150.35829163 217.19558716 484.62121582
141.55307007 223.63917542 487.84323120
160.52693176 221.05523682 482.40081787
152.01110840 227.49346924 486.10226440
199.12730408 260.18615723 448.34234619
194.93191528 265.85263062 450.92370605
206.05767822 264.16668701 450.24353027
201.03518677 269.85818481 453.16967773
162.07893372 235.27507019 483.23498535
153.42555237 241.58645630 485.34069824
170.07669067 237.39285278 475.47390747
161.16607666 243.73550415 478.27499390
174.39622498 265.15905762 464.15142822
166.55032349 270.00021362 463.84417725
180.37535095 272.22338867 465.94213867
172.54551697 277.47366333 465.87112427
211.36592102 306.85913086 439.96630859
211.42529297 311.19293213 448.78402710
222.22915649 310.89920044 443.65704346
221.50656128 315.06152344 452.98211670
212.40055847 255.06469727 408.03381348
214.76844788 264.39334106 411.42083740
220.47311401 256.79507446 413.47027588
223.38854980 265.70031738 416.37139893
140.40975952 204.67140198 484.02633667
132.62280273 211.29719543 490.27520752
151.58912659 208.85383606 481.41775513
143.30018616 215.35903931 487.65051270
202.00944519 210.36000061 401.63262939
202.05087280 221.28211975 398.95211792
206.96015930 218.87760925 406.89807129
207.90248108 227.85520935 404.84378052
197.72676086 271.81430054 450.31475830
192.53366089 277.32360840 452.27087402
204.02742004 276.34643555 452.43276978
197.71960449 282.09332275 454.81762695
205.00682068 235.75650024 399.92593384
205.71366882 246.37135315 400.29653931
210.59516907 239.66874695 406.02697754
212.23017883 248.95808411 406.53118896
211.03506470 296.20016479 429.56225586
212.35656738 302.92956543 436.04693604
221.57801819 300.23788452 431.80957031
222.32562256 307.12451172 438.51754761
160.91955566 288.92767334 469.38580322
152.81996155 293.13290405 470.54296875
168.61718750 297.61230469 469.58544922
160.75877380 301.26330566 471.16149902
131.12579346 228.25805664 491.21844482
122.14193726 234.90885925 494.34655762
140.03015137 234.02279663 486.20129395
130.89266968 240.90405273 489.58386230
175.66636658 230.73847961 459.43194580
171.71035767 236.18345642 465.83978271
181.89514160 236.29846191 455.89706421
179.21597290 239.21499634 462.36389160
171.23071289 248.86428833 464.52410889
163.45625305 254.31463623 466.52978516
175.95309448 253.71618652 460.16705322
168.41085815 259.66314697 462.19015503
186.35401917 180.03210449 397.51046753
186.52595520 190.88990784 392.67108154
194.76577759 188.46752930 401.14047241
194.49313354 198.08914185 397.09558105
203.85682678 282.31259155 416.24099731
205.96791077 289.51184082 421.73062134
214.22782898 284.09588623 420.01568604
216.32977295 291.33801270 425.44546509
187.45355225 310.61181641 444.33856201
186.77471924 311.92749023 453.94586182
197.65072632 311.48333740 449.33245850
196.53164673 312.14175415 458.62893677
173.07875061 313.56542969 457.43606567
169.83552551 311.79910278 466.78613281
183.08757019 314.01000977 461.64620972
179.99394226 311.67605591 470.01373291
147.77514648 247.12020874 483.26354980
139.58355713 252.80278015 486.23391724
151.81645203 251.56980896 473.71429443
143.03445435 258.25546265 476.73599243
151.15145874 269.60006714 466.69281006
143.07865906 274.44479370 468.57656860
155.48663330 277.87472534 463.94573975
147.93994141 283.45098877 465.77905273
197.08990479 267.64013672 399.93106079
198.63514709 275.46463013 405.22064209
205.22967529 267.33868408 406.03881836
206.93301392 275.12030029 410.92462158
126.66691589 248.63742065 488.73107910
118.29936218 254.91308594 493.21319580
131.03111267 257.77581787 480.48736572
122.52422333 264.17025757 484.56216431
169.19776917 234.09335327 453.67166138
165.99832153 239.84202576 458.35385132
175.91735840 238.96221924 451.69232178
173.20648193 242.86016846 456.53704834
186.95089722 201.71913147 391.03027344
187.08232117 212.72698975 388.22113037
193.65518188 208.01443481 395.21493530
193.81607056 217.67982483 392.81646729
188.67355347 303.51641846 431.36608887
189.07550049 307.76092529 439.94085693
198.93370056 304.15014648 436.25772095
198.90869141 308.37768555 444.76461792
188.68975830 227.17012024 386.65646362
189.44635010 237.62777710 386.46569824
195.26686096 231.09307861 391.58496094
196.27909851 240.25737000 391.45321655
134.59857178 270.21011353 475.81015015
126.84733582 274.92623901 480.41015625
137.95346069 280.58380127 469.37728882
131.04450989 285.19451904 473.24307251
191.09024048 249.42657471 389.65740967
192.51892090 258.99816895 392.24145508
198.61906433 251.29783630 395.00057983
200.26501465 260.23883057 397.40060425
185.92439270 294.06942749 413.87222290
186.68875122 298.79089355 422.00039673
195.79251099 293.03552246 419.46188354
196.26324463 297.93386841 427.37390137
167.52033997 308.38104248 435.04162598
168.31974792 311.19461060 443.72714233
177.22991943 310.07745361 438.80337524
177.46662903 312.44354248 447.67825317
166.60971069 177.65975952 387.32302856
166.45184326 188.58186340 382.99990845
175.45065308 184.04438782 388.65478516
174.55566406 194.15994263 384.66976929
144.40150452 302.56423950 459.17871094
147.04539490 302.71163940 467.78207397
153.63903809 308.77938843 460.87759399
155.52548218 307.93957520 469.32373047
182.23321533 281.49218750 398.50976562
183.33900452 287.91790771 404.58889771
191.76907349 281.42297363 403.44024658
192.64608765 287.88800049 409.43722534
152.92803955 306.34027100 446.05706787
154.55725098 308.09588623 454.62112427
161.74218750 310.78039551 448.11413574
162.85914612 311.70889282 456.93542480
176.42826843 264.47393799 388.21264648
178.43084717 272.78076172 392.15258789
185.72654724 266.28536987 391.58181763
187.68400574 274.53323364 395.59411621
167.02058411 200.12565613 380.72848511
167.69674683 211.40504456 378.89294434
175.03599548 205.33660889 383.14328003
175.35830688 215.56649780 381.47967529
125.23242188 287.28820801 467.26446533
129.58590698 289.08712769 475.07107544
133.49456787 295.47174072 465.68704224
137.65869141 296.35668945 473.67230225
165.57225037 299.20513916 416.74789429
166.71868896 304.37142944 424.12039185
175.27603149 300.76489258 420.13046265
176.00422668 306.03836060 427.83703613
109.47270203 266.01025391 481.53253174
113.54035950 270.80499268 488.53524780
115.38840485 276.84304810 475.19970703
119.83299255 280.48645020 482.84194946
167.92942810 224.05551147 378.12881470
169.20001221 234.28092957 379.01956177
175.89591980 227.87129211 380.69006348
177.32348633 237.31336975 381.60070801
170.77696228 246.03105164 380.47882080
172.73307800 255.19175720 383.27813721
179.28474426 248.63742065 383.29064941
181.60618591 257.32473755 385.99975586
162.57778931 287.76605225 402.08547974
164.42538452 294.39187622 407.92703247
172.56962585 290.19827271 404.30688477
174.18632507 297.01879883 410.63076782
146.57556152 298.58544922 429.08795166
148.36465454 302.55844116 436.60519409
154.41702271 303.32122803 429.71768188
156.13911438 306.90032959 437.84585571
148.30380249 183.86573792 381.77398682
148.23564148 195.03796387 378.49057007
157.39128113 189.21871948 380.26568604
156.66342163 199.79071045 377.13232422
134.91119385 293.37719727 442.73123169
137.36126709 297.14382935 450.28417969
142.17384338 299.28216553 442.76562500
144.72573853 302.53521729 450.90628052
121.37824249 282.02365112 452.77487183
124.43746948 286.10025024 459.51144409
127.82629395 289.77310181 450.69729614
131.04898071 293.40487671 458.20019531
158.35516357 270.06274414 391.12719727
160.71501160 278.31237793 395.20376587
168.09199524 273.31042480 392.06506348
170.60725403 281.32785034 396.35778809
103.08539581 242.63508606 472.92022705
104.69406128 250.18444824 478.32055664
105.66229248 251.20449829 465.01446533
107.61796570 259.07540894 471.25976562
145.62965393 289.35687256 412.29147339
147.59918213 295.36636353 418.42422485
153.83106995 293.99975586 412.46118164
155.85864258 299.91992188 419.35852051
110.87816620 264.24530029 462.57690430
113.45283508 270.34231567 468.17016602
115.16778564 273.18270874 457.02563477
117.99478149 279.32617188 463.54248047
145.67521667 206.89614868 376.37524414
146.96679688 218.11123657 375.64971924
154.60682678 211.63465881 376.08450317
155.76998901 222.11195374 375.47320557
152.05715942 251.25630188 382.64306641
154.40451050 260.35269165 385.77734375
161.05709839 254.83627319 382.92657471
163.83050537 263.46463013 386.13897705
103.40002441 226.86553955 460.44036865
103.76244354 235.09375000 465.88177490
105.27455902 234.38633728 452.36801147
105.63036346 243.15403748 458.57580566
131.07354736 283.54745483 426.11605835
132.98187256 288.95492554 432.52212524
137.37376404 289.71057129 424.76797485
139.62196350 294.88403320 432.00292969
142.73300171 273.84368896 400.61169434
144.77307129 281.45379639 405.24026489
150.66555786 278.84384155 399.46435547
153.15580750 286.35571289 404.70391846
146.73544312 231.10559082 377.50042725
148.85234070 241.25239563 379.35070801
155.65856934 235.11428833 377.48916626
158.08183289 244.66087341 379.40777588
130.44784546 182.02931213 389.87536621
129.29650879 192.47267151 386.35971069
138.10440063 186.64183044 383.48983765
136.75700378 196.97621155 379.99560547
105.04866028 209.06127930 451.44445801
104.29554749 217.93617249 456.16772461
105.73285675 215.21368408 442.53561401
104.80693817 224.75668335 447.78231812
117.80899048 270.46020508 438.56042480
119.56503296 276.37322998 444.20190430
122.49118042 277.67553711 435.14611816
124.56072998 283.57247925 441.68081665
108.80347443 249.41662598 448.79653931
110.07205200 256.73556519 453.80206299
111.85253906 257.14776611 442.83081055
113.35044861 264.81146240 448.66702271
129.97975159 272.37969971 411.25936890
131.47949219 279.51821899 416.53283691
136.45465088 278.84652710 409.36822510
138.31698608 285.82781982 415.62423706
138.16514587 257.02282715 391.86071777
140.26327515 265.74765015 395.11376953
146.22721863 261.55316162 390.06292725
148.82733154 270.06900024 393.74026489
129.32821655 201.60479736 382.67211914
129.87486267 212.43759155 381.07238770
137.33334351 206.41203308 378.51287842
137.89472961 216.91433716 377.14584351
119.14315796 266.62835693 423.46704102
120.52701569 273.19522095 428.90307617
124.20434570 273.77935791 420.65966797
125.93001556 280.15148926 427.11398315
109.92143250 196.49566650 430.27413940
108.35876465 205.86360168 432.84768677
110.51194763 201.90492249 421.08932495
108.81553650 211.56582642 423.75283813
106.70488739 230.83763123 439.70996094
107.03336334 238.87648010 444.62438965
108.63348389 237.84393311 432.74832153
109.09019470 246.43656921 438.40768433
119.18631744 187.58862305 401.71212769
117.55532837 197.53892517 399.18078613
123.27809143 192.05108643 393.12036133
121.87351990 202.05676270 390.54437256
111.57550049 247.39050293 429.61853027
112.49888611 254.57545471 434.64190674
114.70120239 255.03678894 424.60406494
115.83512115 262.61117554 430.54031372
107.93148041 215.31372070 430.48806763
107.50670624 223.85633850 434.41995239
109.20843506 221.47326660 422.69216919
108.78649902 230.66613770 427.17071533
131.10435486 238.11189270 385.77810669
133.07208252 247.56558228 388.02899170
139.12890625 242.88517761 383.01733398
141.51376343 252.15129089 385.75634766
127.88523865 220.75779724 381.85815430
129.55911255 230.98321533 382.56671143
136.02323914 225.54806519 378.42224121
137.91415405 235.46443176 379.52175903
126.19284058 254.93988037 400.85931396
128.05673218 263.22167969 404.79837036
132.96847534 260.80465698 397.81774902
135.20237732 269.30618286 402.60531616
112.51853943 198.67507935 410.33242798
111.36685944 208.46104431 410.52178955
114.74351501 203.73777771 401.88674927
113.78710938 213.75596619 402.31893921
117.05456543 251.35812378 412.06927490
118.21450806 258.70919800 416.72824097
121.70917511 257.99710083 408.19857788
123.15929413 265.55895996 413.81506348
110.38522339 231.40213013 418.64437866
110.82680511 239.24090576 422.65667725
113.07221222 238.19049072 412.78674316
113.65000916 246.69380188 417.56002808
118.28707886 206.69964600 393.23336792
118.32951355 216.79286194 392.26022339
123.83969116 211.74089050 386.34249878
124.15968323 221.94487000 385.79888916
111.25509644 216.28283691 410.34582520
111.04139709 225.23097229 412.57260132
113.67172241 222.19050598 403.16445923
113.63956451 231.74780273 406.02719116
120.23985291 237.61705017 396.14028931
121.67388916 246.02926636 399.01998901
126.24442291 243.05712891 391.86364746
128.02815247 251.66404724 395.45254517
115.16622162 215.72637939 397.22555542
115.40403748 225.11753845 397.75018311
119.69158936 221.01594543 390.63861084
120.24431610 230.65541077 391.72183228
122.07164001 211.08473206 387.76043701
122.07902527 211.08363342 387.76599121
122.07843018 211.07937622 387.76107788
122.08308411 211.07336426 387.77056885
173.62367249 313.27380371 454.70239258
173.63201904 313.26348877 454.71008301
173.62603760 313.26541138 454.70416260
173.63365173 313.25915527 454.71539307
209.00833130 238.66346741 401.94958496
209.01242065 238.65762329 401.95083618
209.01748657 238.65869141 401.96395874
209.02638245 238.65010071 401.96594238
109.26145172 257.55047607 454.99813843
109.26284790 257.54852295 454.99819946
109.26400757 257.54483032 455.00442505
109.26751709 257.54272461 455.00671387
147.99259949 275.83807373 399.74682617
147.99645996 275.83941650 399.75051880
147.99873352 275.83605957 399.75247192
148.00074768 275.83618164 399.75796509
174.14695740 241.94125366 456.75665283
174.15177917 241.93600464 456.76376343
174.15660095 241.93902588 456.76251221
174.16494751 241.93475342 456.76651001
204.84568787 286.59817505 420.65664673
204.84898376 286.59338379 420.65731812
204.84829712 286.59576416 420.65866089
204.85362244 286.59033203 420.66140747
166.71087646 234.16184998 377.62329102
166.71440125 234.16040039 377.62518311
166.71145630 234.15905762 377.62661743
166.71730042 234.15428162 377.63012695
132.54284668 295.30136108 459.30230713
132.54678345 295.29882812 459.30496216
132.54696655 295.29751587 459.30279541
132.55307007 295.29779053 459.30819702
118.00471497 247.97454834 411.86785889
118.01042175 247.97338867 411.86834717
118.00936127 247.97143555 411.87039185
118.01448822 247.96878052 411.87362671
150.98844910 300.65551758 427.29702759
150.99256897 300.65524292 427.29635620
150.99462891 300.65075684 427.29690552
150.99714661 300.65060425 427.30105591
167.10839844 278.05349731 460.93350220
167.10330200 278.05249023 460.93069458
167.11651611 278.04501343 460.93447876
167.11326599 278.04440308 460.93270874
185.17878723 263.21475220 390.65032959
185.18090820 263.21087646 390.65313721
185.18362427 263.21221924 390.65945435
185.18916321 263.20706177 390.66375732
126.93803406 279.27246094 427.72192383
126.94393158 279.27218628 427.72128296
126.94656372 279.26577759 427.72735596
126.95161438 279.26480103 427.73001099
175.82199097 289.84750366 404.82211304
175.82640076 289.84631348 404.82254028
175.82185364 289.84701538 404.82653809
175.82615662 289.84490967 404.83007812
108.00817871 227.95436096 432.90460205
108.01436615 227.95063782 432.90634155
108.01039124 227.94749451 432.91119385
108.01673126 227.94363403 432.91485596
134.06567383 239.80171204 387.17639160
134.07243347 239.80296326 387.17855835
134.06901550 239.80026245 387.17840576
134.07435608 239.79817200 387.18377686
146.44805908 212.87284851 374.45523071
146.45048523 212.87698364 374.45599365
146.44595337 212.86701965 374.45523071
146.44947815 212.86425781 374.45861816
202.58024597 274.32800293 445.14376831
202.58547974 274.31295776 445.16168213
202.58421326 274.32382202 445.14025879
202.59405518 274.31002808 445.15557861
181.93768311 301.88064575 427.96173096
181.93605042 301.87850952 427.96282959
181.93679810 301.88128662 427.96447754
181.93757629 301.87689209 427.96731567
191.50404358 224.40267944 387.72808838
191.50454712 224.40025330 387.72949219
191.50488281 224.40139771 387.74047852
191.51164246 224.39500427 387.74157715
214.25439453 264.43872070 410.53674316
214.26075745 264.43444824 410.53598022
214.25877380 264.43191528 410.54388428
214.26858521 264.42514038 410.54428101
110.16882324 221.59289551 408.01425171
110.17565918 221.59059143 408.01495361
110.17187500 221.58831787 408.01559448
110.17699432 221.58222961 408.02035522
156.88468933 257.67230225 384.81918335
156.88658142 257.67456055 384.82080078
156.89012146 257.66864014 384.82373047
156.89241028 257.66815186 384.82684326
143.91101074 275.68020630 467.49694824
143.90876770 275.67733765 467.50024414
143.91543579 275.67507935 467.50009155
143.91661072 275.67474365 467.50415039
152.26161194 308.86593628 462.52496338
152.26815796 308.86047363 462.52990723
152.26402283 308.85995483 462.52972412
152.27180481 308.85946655 462.53759766
184.89129639 262.25076294 457.64151001
184.89434814 262.24588013 457.64044189
184.90068054 262.24499512 457.64639282
184.90605164 262.24176025 457.64627075
113.77235413 257.33615112 433.16967773
113.77581787 257.33508301 433.16802979
113.77862549 257.32849121 433.17520142
113.78245544 257.32678223 433.17730713
130.01364136 266.61398315 409.02502441
130.01922607 266.61389160 409.02713013
130.02087402 266.60794067 409.02493286
130.02374268 266.60723877 409.03009033
120.22216797 279.96276855 448.85305786
120.22618103 279.96209717 448.85217285
120.22981262 279.95965576 448.85330200
120.23454285 279.95968628 448.85519409
163.19039917 257.02844238 466.74911499
163.19056702 257.02474976 466.75476074
163.19413757 257.02359009 466.74700928
163.19729614 257.02246094 466.75277710
192.89529419 278.52734375 403.72198486
192.89735413 278.52597046 403.72369385
192.89747620 278.52813721 403.72586060
192.90043640 278.52615356 403.72869873
201.67581177 301.71893311 433.47485352
201.68203735 301.71267700 433.47543335
201.67837524 301.71075439 433.47796631
201.68515015 301.70422363 433.48165894
137.80400085 295.60256958 440.63375854
137.80767822 295.60214233 440.63168335
137.80801392 295.59997559 440.63635254
137.81137085 295.59930420 440.63912964
118.31515503 230.87326050 393.60992432
118.32395935 230.87272644 393.60974121
118.31909180 230.86624146 393.61309814
118.32575226 230.86163330 393.61843872
183.51759338 241.92874146 381.39120483
183.51881409 241.92761230 381.39215088
183.51937866 241.92698669 381.39794922
183.52468872 241.92253113 381.39923096
164.83676147 210.69384766 377.69842529
164.83540344 210.69708252 377.70300293
164.83863831 210.69309998 377.70507812
164.84129333 210.68981934 377.70925903
158.44648743 293.45635986 410.56750488
158.45288086 293.45587158 410.56753540
158.44926453 293.45608521 410.57196045
158.45396423 293.45556641 410.57495117
140.18225098 286.72494507 417.29708862
140.18609619 286.72647095 417.29757690
140.19175720 286.71917725 417.29885864
140.19401550 286.71929932 417.30258179
200.44230652 256.22964478 397.88064575
200.44142151 256.22589111 397.88281250
200.44618225 256.22744751 397.88555908
200.44999695 256.22085571 397.88839722
171.20164490 274.56988525 393.09521484
171.20219421 274.57067871 393.09597778
171.20320129 274.56866455 393.10217285
171.20472717 274.56784058 393.10531616
187.22406006 247.30075073 445.52520752
187.22698975 247.29560852 445.52456665
187.22949219 247.29583740 445.53219604
187.23725891 247.29106140 445.53063965
167.55479431 308.59408569 439.13845825
167.55549622 308.59271240 439.13769531
167.55520630 308.59320068 439.13769531
167.55729675 308.59210205 439.14059448
148.89620972 236.05279541 378.98992920
148.89889526 236.05474854 378.99035645
148.89761353 236.04933167 378.98956299
148.90260315 236.04740906 378.99377441
107.45509338 241.01577759 444.24853516
107.45970154 241.01319885 444.24819946
107.45790100 241.01098633 444.25366211
107.46342468 241.00878906 444.25497437
148.92132568 290.88433838 458.75607300
148.91946411 290.88079834 458.75701904
148.92663574 290.88491821 458.75793457
148.92597961 290.88458252 458.76013184
185.48466492 309.74630737 442.53143311
185.48706055 309.74108887 442.53381348
185.48497009 309.74475098 442.53186035
185.48854065 309.74069214 442.53756714
169.30625916 253.89067078 445.82427979
169.30212402 253.88674927 445.81774902
169.30220032 253.89453125 445.82455444
169.30366516 253.89085388 445.81860352
140.24510193 261.34655762 395.86312866
140.25369263 261.34591675 395.86508179
140.25131226 261.33865356 395.86492920
140.25573730 261.33676147 395.86932373
132.33633423 221.18699646 379.16931152
132.34275818 221.18740845 379.17202759
132.34085083 221.18041992 379.16809082
132.34597778 221.17590332 379.17553711
151.52139282 304.47125244 444.24591064
151.52299500 304.46899414 444.25024414
151.51969910 304.46850586 444.24221802
151.52189636 304.46942139 444.25003052
114.23133087 272.54006958 462.53988647
114.23284149 272.53762817 462.54614258
114.23829651 272.53134155 462.54357910
114.24319458 272.53088379 462.55126953
190.00236511 290.29849243 415.00512695
190.00637817 290.29501343 415.00769043
190.00323486 290.29641724 415.00378418
190.00843811 290.29229736 415.00848389
176.96769714 221.90988159 379.84588623
176.96893311 221.91064453 379.84786987
176.96783447 221.90847778 379.85638428
176.97419739 221.90411377 379.85800171
198.09082031 241.72518921 390.80490112
198.08947754 241.72344971 390.80657959
198.09159851 241.72235107 390.81411743
198.09628296 241.71632385 390.81582642
110.78536987 243.79518127 425.68774414
110.79095459 243.79304504 425.68716431
110.78887177 243.79061890 425.68762207
110.79281616 243.78663635 425.68966675
165.38075256 302.70004272 421.30456543
165.38427734 302.69888306 421.30264282
165.37838745 302.70217896 421.30554199
165.38224792 302.70101929 421.30822754
126.31057739 243.59614563 399.79913330
126.31932068 243.59561157 399.80212402
126.31518555 243.59393311 399.80279541
126.32099915 243.59187317 399.80822754
171.87409973 258.58627319 383.93524170
171.87544250 258.58737183 383.93576050
171.87939453 258.58596802 383.94427490
171.88168335 258.58441162 383.94616699
166.34793091 231.47572327 449.33404541
166.34584045 231.47180176 449.33895874
166.34439087 231.47230530 449.33392334
166.34893799 231.46806335 449.33599854
109.34030151 232.13285828 417.58483887
109.34668732 232.13143921 417.58428955
109.34233093 232.12541199 417.58978271
109.34770203 232.12023926 417.59390259
162.00885010 283.15515137 399.61398315
162.01321411 283.15698242 399.61584473
162.01434326 283.15606689 399.62036133
162.01701355 283.15530396 399.62454224
156.07490540 223.18218994 375.61807251
156.07589722 223.18508911 375.61853027
156.07237244 223.18106079 375.61865234
156.07618713 223.17842102 375.62170410
116.42943573 268.72283936 440.93341064
116.43147278 268.72131348 440.93304443
116.43698120 268.71554565 440.93286133
116.43994141 268.71429443 440.93582153
153.96801758 267.27789307 462.52380371
153.96170044 267.27560425 462.52468872
153.96823120 267.27374268 462.52578735
153.96533203 267.27395630 462.52719116
154.90571594 279.93325806 453.37277222
154.90293884 279.93096924 453.36764526
154.90570068 279.93270874 453.37316895
154.90425110 279.93276978 453.36984253
211.38009644 252.10783386 405.95822144
211.38317871 252.10395813 405.95837402
211.38595581 252.10340881 405.96600342
211.39431763 252.09625244 405.96679688
142.88116455 302.37625122 454.42462158
142.88497925 302.37432861 454.42745972
142.88395691 302.37240601 454.42337036
142.88853455 302.37359619 454.42901611
145.44572449 246.45227051 388.46148682
145.45155334 246.45295715 388.46774292
145.45181274 246.44715881 388.46670532
145.45654297 246.44535828 388.47338867
123.31835175 286.00082397 460.94201660
123.32067871 286.00131226 460.94229126
123.31874084 285.99707031 460.93966675
123.32482910 285.99963379 460.94226074
118.29406738 258.46719360 420.93405151
118.29795837 258.46609497 420.93368530
118.29954529 258.46218872 420.93383789
118.30256653 258.45989990 420.93701172
127.68691254 285.27145386 438.89187622
127.69097900 285.27056885 438.89260864
127.69200134 285.26617432 438.89569092
127.69600677 285.26568604 438.89971924
207.83801270 275.27087402 411.95901489
207.84175110 275.26669312 411.96054077
207.84020996 275.26873779 411.95825195
207.84576416 275.26339722 411.96139526
202.34419250 265.82211304 405.85836792
202.34663391 265.81634521 405.86209106
202.34523010 265.81909180 405.86123657
202.35025024 265.81182861 405.86480713
172.58087158 263.71963501 458.73223877
172.57708740 263.71670532 458.73242188
172.58871460 263.71221924 458.73620605
172.58825684 263.70980835 458.73638916
192.18609619 252.33222961 388.99697876
192.18647766 252.32830811 388.99749756
192.18551636 252.33006287 389.00524902
192.19024658 252.32403564 389.00683594
202.77348328 230.21205139 395.99987793
202.77801514 230.20565796 396.00057983
202.77937317 230.20877075 396.01583862
202.78933716 230.20019531 396.01580811
129.36944580 254.62684631 402.52078247
129.37585449 254.62565613 402.52151489
129.37382507 254.61993408 402.52404785
129.37829590 254.61749268 402.52825928
135.50399780 288.90292358 427.83023071
135.51042175 288.90252686 427.82855225
135.51138306 288.89822388 427.83493042
135.51664734 288.89849854 427.83746338
197.14489746 292.11703491 427.54293823
197.14559937 292.11236572 427.54614258
197.13958740 292.11444092 427.53900146
197.14212036 292.10925293 427.54354858
183.54475403 276.30874634 397.04428101
183.54606628 276.30804443 397.04513550
183.54808044 276.30999756 397.05035400
183.54879761 276.30780029 397.05313110
139.55430603 277.70098877 407.64614868
139.56140137 277.70040894 407.64715576
139.56579590 277.69577026 407.65026855
139.56988525 277.69464111 407.65505981
162.02648926 269.59573364 454.54092407
162.02217102 269.59231567 454.53775024
162.02714539 269.59375000 454.54110718
162.02679443 269.59066772 454.53952026
178.46157837 299.17922974 417.28768921
178.46343994 299.17813110 417.28790283
178.45976257 299.17855835 417.28894043
178.46127319 299.17730713 417.29205322
158.61369324 291.58914185 464.80331421
158.61462402 291.57934570 464.81417847
158.62200928 291.58673096 464.80334473
158.62500000 291.58169556 464.81402588
209.99783325 295.76992798 428.51916504
210.00265503 295.76409912 428.51837158
210.00228882 295.75912476 428.51843262
210.00827026 295.75253296 428.52117920
163.94851685 265.43185425 389.16113281
163.94897461 265.43380737 389.16448975
163.95436096 265.43218994 389.16921997
163.95484924 265.43243408 389.17373657
112.35435486 233.71055603 406.83776855
112.36251831 233.70834351 406.83941650
112.35746002 233.70262146 406.83972168
112.36329651 233.69778442 406.84509277
130.91021729 276.74209595 417.52420044
130.91835022 276.74050903 417.52648926
130.91905212 276.73745728 417.52597046
130.92526245 276.73614502 417.53201294
164.12887573 249.75492859 381.54364014
164.12963867 249.75547791 381.54550171
164.13659668 249.75109863 381.54922485
164.13825989 249.74981689 381.55252075
150.73287964 286.27661133 407.46179199
150.73605347 286.27777100 407.46325684
150.74072266 286.27172852 407.46997070
150.74160767 286.27246094 407.47393799
137.74237061 288.77890015 466.43423462
137.74185181 288.77557373 466.44055176
137.74597168 288.77566528 466.43688965
137.74670410 288.77737427 466.44430542
141.11175537 227.25915527 377.17321777
141.11560059 227.26025391 377.17495728
141.11254883 227.25527954 377.17556763
141.11755371 227.25230408 377.18127441
149.01168823 299.25747681 466.26766968
149.01614380 299.25036621 466.27249146
149.01301575 299.25244141 466.26815796
149.01884460 299.24990845 466.27471924
177.39768982 239.64784241 446.72821045
177.40049744 239.64321899 446.73110962
177.39834595 239.64360046 446.73483276
177.40719604 239.63949585 446.73605347
172.31059265 253.17420959 456.70111084
172.30918884 253.17054749 456.70144653
172.31384277 253.16726685 456.70596313
172.31706238 253.16508484 456.70568848
160.23214722 310.74206543 455.59442139
160.23860168 310.73703003 455.60055542
160.23616028 310.73699951 455.59478760
160.24240112 310.73541260 455.60372925
121.40084839 267.89776611 424.65695190
121.40803528 267.89538574 424.65661621
121.40832520 267.88839722 424.66119385
121.41300964 267.88601685 424.66516113
157.50550842 274.45788574 395.33178711
157.50872803 274.45886230 395.33493042
157.51300049 274.45501709 395.34020996
157.51469421 274.45428467 395.34536743
122.53009033 224.09065247 386.69406128
122.53753662 224.09077454 386.69470215
122.53393555 224.08605957 386.69494629
122.54010010 224.08110046 386.70126343
169.53857422 297.28756714 412.16137695
169.54077148 297.28845215 412.16018677
169.54185486 297.28646851 412.16528320
169.54415894 297.28652954 412.16690063
185.40136719 285.82592773 403.75100708
185.40322876 285.82516479 403.75122070
185.40443420 285.82696533 403.76028442
185.40661621 285.82489014 403.76251221
129.23141479 290.69015503 450.63348389
129.23431396 290.68969727 450.63217163
129.23695374 290.68667603 450.63742065
129.24130249 290.68707275 450.63925171
149.20835876 265.79391479 393.34765625
149.21258545 265.79528809 393.35192871
149.21887207 265.78952026 393.35601807
149.22038269 265.78897095 393.36083984
158.45277405 305.75079346 432.13693237
158.45732117 305.74987793 432.13800049
158.45495605 305.75054932 432.13537598
158.45832825 305.74920654 432.14089966
154.34194946 244.45916748 380.95111084
154.34660339 244.45887756 380.95263672
154.34744263 244.45491028 380.95391846
154.35223389 244.45140076 380.95843506
113.59443665 267.25039673 450.59396362
113.59657288 267.24798584 450.59393311
113.60086060 267.24224854 450.59762573
113.60467529 267.24032593 450.59979248
110.14550781 251.91381836 440.83618164
110.14920044 251.91227722 440.83251953
110.14679718 251.90989685 440.83886719
110.15090942 251.90777588 440.83880615
152.26855469 295.93444824 417.95132446
152.27516174 295.93222046 417.95202637
152.27514648 295.92730713 417.95706177
152.28002930 295.92642212 417.96130371
181.91276550 255.27296448 451.27539062
181.91302490 255.26997375 451.27487183
181.91680908 255.27029419 451.28063965
181.92056274 255.26779175 451.28033447
144.35765076 282.21707153 460.00888062
144.35636902 282.21566772 460.00646973
144.36082458 282.21255493 460.00735474
144.36236572 282.21142578 460.00732422
184.40533447 229.45669556 383.09893799
184.40618896 229.45463562 383.10040283
184.40580750 229.45506287 383.10955811
184.41189575 229.44923401 383.11114502
194.95164490 307.50042725 441.10671997
194.95428467 307.49365234 441.10940552
194.94885254 307.49655151 441.10247803
194.95246887 307.49108887 441.10931396
116.21258545 214.62561035 394.82321167
116.21811676 214.62518311 394.82412720
116.21925354 214.62097168 394.82351685
116.22287750 214.61465454 394.83032227
182.11566162 251.32528687 383.44338989
182.11628723 251.32521057 383.44473267
182.11985779 251.32420349 383.45138550
182.12370300 251.32051086 383.45278931
132.02420044 230.37138367 382.03860474
132.03002930 230.37254333 382.03948975
132.02758789 230.37088013 382.03973389
132.03263855 230.36805725 382.04428101
133.87490845 248.45022583 396.99652100
133.88253784 248.45004272 397.00085449
133.88230896 248.44668579 397.00427246
133.88737488 248.44493103 397.01058960
108.66404724 240.95390320 434.97567749
108.66825867 240.95202637 434.97073364
108.66684723 240.94880676 434.97854614
108.67129517 240.94535828 434.97763062
165.05561829 223.45252991 378.10870361
165.05496216 223.45503235 378.11093140
165.05294800 223.44976807 378.11273193
165.05567932 223.44703674 378.11550903
108.32633972 225.02998352 423.50497437
108.33328247 225.02711487 423.50787354
108.32727051 225.02317810 423.51062012
108.33381653 225.01795959 423.51589966
133.55184937 211.96440125 379.12982178
133.55612183 211.96516418 379.13470459
133.55664062 211.95988464 379.12838745
133.55946350 211.95564270 379.13711548
174.95809937 244.68141174 379.37945557
174.95919800 244.68040466 379.37826538
174.96110535 244.67776489 379.38485718
174.96595764 244.67254639 379.38531494
122.83410645 255.38160706 409.75253296
122.84129333 255.38012695 409.75415039
122.83882141 255.37547302 409.75482178
122.84385681 255.37263489 409.75891113
141.85871887 296.28857422 432.59677124
141.86285400 296.28768921 432.59674072
141.86517334 296.28390503 432.59606934
141.86788940 296.28295898 432.60061646
191.94775391 237.00459290 386.24179077
191.94801331 237.00122070 386.24200439
191.94488525 237.00422668 386.25149536
191.95037842 236.99813843 386.25158691
165.72564697 240.79402161 453.89404297
165.72451782 240.79167175 453.89559937
165.72268677 240.79307556 453.89508057
165.72726440 240.79072571 453.89593506
126.37785339 239.11955261 392.02960205
126.38496399 239.12171936 392.02935791
126.38363647 239.11631775 392.03878784
126.38884735 239.11503601 392.04281616
195.65884399 263.75085449 397.49005127
195.66326904 263.74746704 397.49353027
195.66326904 263.75000000 397.49740601
195.66891479 263.74438477 397.50094604
138.88647461 270.71890259 402.24987793
138.89468384 270.71722412 402.25000000
138.89561462 270.71252441 402.25524902
138.90068054 270.71118164 402.25970459
107.70067596 249.38609314 452.18035889
107.70243073 249.38406372 452.18142700
107.70355225 249.37692261 452.18460083
107.70693970 249.37545776 452.18780518
185.75497437 296.52639771 422.19616699
185.75898743 296.52273560 422.20074463
185.75488281 296.52413940 422.19369507
185.75773621 296.52139282 422.19989014
117.76234436 266.12341309 432.33972168
117.76611328 266.12203979 432.33737183
117.76765442 266.11761475 432.34136963
117.77117920 266.11550903 432.34335327
177.04054260 310.84042358 444.01632690
177.04103088 310.83615112 444.02008057
177.04161072 310.83792114 444.01321411
177.04302979 310.83581543 444.02032471
177.47789001 269.31387329 462.95208740
177.47848511 269.30731201 462.95516968
177.48857117 269.30328369 462.95806885
177.49118042 269.29833984 462.96157837
164.93060303 290.87951660 405.81433105
164.93504333 290.87835693 405.81457520
164.93594360 290.88061523 405.82162476
164.94003296 290.87921143 405.82522583
161.85301208 309.33294678 447.43643188
161.85621643 309.32965088 447.43969727
161.85397339 309.33160400 447.43692017
161.85797119 309.33007812 447.44277954
149.44943237 256.23822021 388.29522705
149.45458984 256.23782349 388.29879761
149.45675659 256.23028564 388.29727173
149.46046448 256.22906494 388.30236816
174.20738220 247.92843628 448.74078369
174.20503235 247.92486572 448.74136353
174.21026611 247.92694092 448.74627686
174.21269226 247.92416382 448.74545288
188.43130493 303.49569702 432.75708008
188.43185425 303.49291992 432.75805664
188.43580627 303.49237061 432.75659180
188.43708801 303.48886108 432.76101685
217.67922974 271.34442139 413.08618164
217.68621826 271.33947754 413.08367920
217.68769836 271.33279419 413.09530640
217.69918823 271.32620239 413.09597778
113.63713837 245.38491821 418.26596069
113.64389038 245.38334656 418.26559448
113.64135742 245.38262939 418.26855469
113.64619446 245.37944031 418.27169800
191.56278992 298.03942871 427.57489014
191.56413269 298.03616333 427.57614136
191.56417847 298.03723145 427.57492065
191.56668091 298.03375244 427.57855225
143.13391113 240.16949463 383.99267578
143.14154053 240.16902161 383.99594116
143.14085388 240.16542053 383.99468994
143.14675903 240.16267395 384.00082397
212.59109497 285.22988892 419.23181152
212.59902954 285.22555542 419.22973633
212.60174561 285.22320557 419.23880005
212.61129761 285.21643066 419.24118042
119.09822083 240.17680359 400.29943848
119.10706329 240.17755127 400.29992676
119.10293579 240.17478943 400.30310059
119.10946655 240.17225647 400.30795288
139.46817017 253.61962891 394.19345093
139.47798157 253.61973572 394.19677734
139.47552490 253.61746216 394.19894409
139.48178101 253.61540222 394.20495605
144.89410400 304.48266602 461.80477905
144.90000916 304.47766113 461.81167603
144.89483643 304.47665405 461.80731201
144.90234375 304.47570801 461.81668091
144.34188843 292.37945557 420.99417114
144.34628296 292.37936401 420.99813843
144.34791565 292.37576294 420.99429321
144.34999084 292.37622070 421.00140381
201.22105408 281.51251221 415.81021118
201.22438049 281.50854492 415.81265259
201.22271729 281.50927734 415.81228638
201.22746277 281.50308228 415.81613159
169.74206543 282.34298706 398.17150879
169.74641418 282.34191895 398.17358398
169.74304199 282.34646606 398.18026733
169.74787903 282.34445190 398.18414307
204.03457642 290.43109131 430.96365356
204.03669739 290.42407227 430.96865845
204.02976990 290.42764282 430.95718384
204.03361511 290.42077637 430.96368408
159.30570984 231.55056763 377.32556152
159.30723572 231.55091858 377.32574463
159.30580139 231.54853821 377.32910156
159.30961609 231.54539490 377.33245850
118.41360474 279.95578003 461.81558228
118.41290283 279.95639038 461.81787109
118.42303467 279.95004272 461.81451416
118.42566681 279.95223999 461.81872559
112.58586884 217.70669556 401.65966797
112.59178925 217.70504761 401.66094971
112.58836365 217.70153809 401.65908813
112.59309387 217.69537354 401.66488647
171.90255737 307.00695801 432.81640625
171.90254211 307.00531006 432.81979370
171.90516663 307.00518799 432.81512451
171.90571594 307.00402832 432.82055664
148.96299744 273.21920776 461.66577148
148.95845032 273.21505737 461.66772461
148.96981812 273.21554565 461.67285156
148.96795654 273.21405029 461.67544556
179.26977539 235.58921814 379.72735596
179.27210999 235.58721924 379.72845459
179.27249146 235.58865356 379.73315430
179.27842712 235.58267212 379.73522949
186.95172119 218.59797668 385.16809082
186.95390320 218.59695435 385.16882324
186.95434570 218.59664917 385.18142700
186.96238708 218.59112549 385.18057251
125.57489014 216.69598389 383.75228882
125.58201599 216.69581604 383.75598145
125.57965851 216.68887329 383.75439453
125.58497620 216.68373108 383.76312256
134.12600708 291.13812256 435.51782227
134.13076782 291.13711548 435.51861572
134.13154602 291.13137817 435.51629639
134.13508606 291.13003540 435.52078247
157.96115112 302.79623413 424.82254028
157.96603394 302.79455566 424.82241821
157.96308899 302.79580688 424.82656860
157.96795654 302.79333496 424.83001709
169.88853455 271.04513550 459.60226440
169.88720703 271.04281616 459.60104370
169.89543152 271.04022217 459.60552979
169.89559937 271.03894043 459.60568237
126.12470245 267.43231201 415.56768799
126.13225555 267.43078613 415.56808472
126.13133240 267.42843628 415.57022095
126.13490295 267.42730713 415.57369995
195.08480835 281.26657104 410.50949097
195.08744812 281.26187134 410.51321411
195.08329773 281.26672363 410.51071167
195.08767700 281.26098633 410.51507568
116.70542145 275.95401001 454.30795288
116.70799255 275.95156860 454.31002808
116.71131897 275.94689941 454.31005859
116.71513367 275.94683838 454.31506348
115.12525177 240.51431274 408.81341553
115.13220978 240.51303101 408.81362915
115.12985992 240.51074219 408.81881714
115.13543701 240.50762939 408.82318115
198.30674744 272.23559570 405.55752563
198.30975342 272.23199463 405.56179810
198.30638123 272.23626709 405.56024170
198.31030273 272.23144531 405.56463623
202.76089478 243.28036499 396.53915405
202.76179504 243.27532959 396.53823853
202.75987244 243.27738953 396.54782104
202.76786804 243.27046204 396.54742432
189.20288086 253.37194824 449.56701660
189.20692444 253.36802673 449.56607056
189.21307373 253.36637878 449.57125854
189.22023010 253.36196899 449.57107544
122.32225037 275.67883301 432.40655518
122.32490540 275.67730713 432.40322876
122.33503723 275.66989136 432.40972900
122.33766937 275.66775513 432.41162109
176.56806946 278.92095947 396.38366699
176.56904602 278.92138672 396.38467407
176.57202148 278.92181396 396.39367676
176.57341003 278.92059326 396.39584351
149.42053223 306.20736694 456.11914062
149.42642212 306.20437622 456.12402344
149.42127991 306.20623779 456.12197876
149.42774963 306.20513916 456.12872314
112.49349976 261.99212646 445.52813721
112.49609375 261.98941040 445.52828979
112.50077820 261.98278809 445.53027344
112.50470734 261.98028564 445.53372192
110.75050354 263.65365601 458.77642822
110.75355530 263.65216064 458.77819824
110.75470734 263.65301514 458.77792358
110.76010132 263.65270996 458.78176880
181.17762756 259.18963623 386.04882812
181.17782593 259.19030762 386.04959106
181.18675232 259.18670654 386.05755615
181.18853760 259.18511963 386.05856323
159.80313110 263.62512207 460.16809082
159.79550171 263.62304688 460.16952515
159.80273438 263.62200928 460.16989136
159.79862976 263.62255859 460.17138672
150.30340576 229.12799072 377.28085327
150.30596924 229.12931824 377.28216553
150.30430603 229.12657166 377.27990723
150.30851746 229.12300110 377.28344727
108.71086121 224.67385864 416.27767944
108.71699524 224.67248535 416.27740479
108.71224213 224.66558838 416.28161621
108.71798706 224.66119385 416.28540039
153.59417725 212.63780212 375.57098389
153.59617615 212.64028931 375.57354736
153.59562683 212.63519287 375.57196045
153.60064697 212.63156128 375.57678223
114.75808716 225.96267700 397.55395508
114.76447296 225.96192932 397.55233765
114.76206970 225.95373535 397.55435181
114.76673889 225.94860840 397.55813599
158.94021606 298.59887695 417.20684814
158.94561768 298.59896851 417.20675659
158.94201660 298.59539795 417.21020508
158.94508362 298.59503174 417.21307373
109.99903870 236.86622620 423.90020752
110.00571442 236.86450195 423.89993286
109.99922943 236.85977173 423.90399170
110.00534058 236.85638428 423.90716553
114.81124878 232.74760437 400.14205933
114.82003784 232.74736023 400.14288330
114.81459045 232.74241638 400.14367676
114.82108307 232.73884583 400.14941406
134.47941589 259.57467651 399.73980713
134.48568726 259.57424927 399.74313354
134.48614502 259.56857300 399.73959351
134.49037170 259.56680298 399.74621582
168.53022766 238.44439697 447.72625732
168.52764893 238.44018555 447.72921753
168.52653503 238.44340515 447.72882080
168.53074646 238.43795776 447.72897339
164.42440796 277.80926514 395.51611328
164.42477417 277.81076050 395.51681519
164.42881775 277.80746460 395.52297974
164.42840576 277.80737305 395.52612305
119.64003754 276.41363525 442.67996216
119.64441681 276.41043091 442.67932129
119.64746857 276.40832520 442.68356323
119.65202332 276.40609741 442.68606567
112.84682465 251.91966248 428.67318726
112.85230255 251.91770935 428.67120361
112.85513306 251.91096497 428.67651367
112.86027527 251.90878296 428.67858887
205.25193787 252.43734741 401.46008301
205.25361633 252.43215942 401.46508789
205.26049805 252.43055725 401.46789551
205.26536560 252.42314148 401.47256470
195.17921448 304.65289307 434.62020874
195.18267822 304.65142822 434.62164307
195.18338013 304.64605713 434.61676025
195.18756104 304.64358521 434.62243652
174.19692993 233.49136353 448.00955200
174.19746399 233.48683167 448.01446533
174.19793701 233.48727417 448.01119995
174.20559692 233.48294067 448.01351929
122.54450226 283.93206787 454.19912720
122.54661560 283.93048096 454.20043945
122.54624176 283.92910767 454.19766235
122.55098724 283.92950439 454.20132446
192.99739075 258.35433960 392.54684448
192.99974060 258.35119629 392.55111694
193.00279236 258.35360718 392.55770874
193.00834656 258.34844971 392.56268311
209.22482300 246.11674500 402.94671631
209.22851562 246.10975647 402.94799805
209.23182678 246.11518860 402.96139526
209.24215698 246.10581970 402.96264648
164.52566528 256.41772461 383.73187256
164.52658081 256.41864014 383.73379517
164.53388977 256.41217041 383.73931885
164.53491211 256.41119385 383.74224854
139.54254150 281.14492798 468.19592285
139.53953552 281.14019775 468.20553589
139.54626465 281.14389038 468.19494629
139.54591370 281.14373779 468.20465088
163.38079834 283.90643311 461.81964111
163.38040161 283.90118408 461.82025146
163.38957214 283.90008545 461.82284546
163.38966370 283.89755249 461.82507324
174.84164429 263.01184082 388.44232178
174.84201050 263.01193237 388.44488525
174.84721375 263.01025391 388.45199585
174.84790039 263.00885010 388.45593262
176.86947632 258.33294678 455.82836914
176.86912537 258.32922363 455.82894897
176.87268066 258.33245850 455.83102417
176.87457275 258.32992554 455.83157349
121.84342957 260.17630005 415.25585938
121.84950256 260.17614746 415.25396729
121.84806061 260.17086792 415.25723267
121.85324097 260.16918945 415.26058960
185.93032837 270.13671875 395.12469482
185.93252563 270.13360596 395.12597656
185.93498230 270.13690186 395.13339233
185.93852234 270.13229370 395.13607788
170.76203918 268.18371582 390.60162354
170.76202393 268.18353271 390.60333252
170.76432800 268.18576050 390.60839844
170.76522827 268.18383789 390.61141968
208.77796936 268.71420288 410.28515625
208.78030396 268.70968628 410.28356934
208.78433228 268.71209717 410.29248047
208.79122925 268.70449829 410.29248047
140.27731323 294.47363281 463.71023560
140.27720642 294.47174072 463.71420288
140.28103638 294.47167969 463.71109009
140.28259277 294.47344971 463.71649170
117.74552917 262.26281738 426.73406982
117.74889374 262.26153564 426.73437500
117.75097656 262.25662231 426.73364258
117.75399780 262.25454712 426.73843384
111.38697052 237.04412842 413.31445312
111.39525604 237.04226685 413.31542969
111.39128113 237.03919983 413.31729126
111.39627075 237.03468323 413.32205200
116.30187988 252.28079224 418.98333740
116.30830383 252.28033447 418.98040771
116.30573273 252.27584839 418.98641968
116.31022644 252.27395630 418.98718262
150.04765320 303.06463623 437.78295898
150.05299377 303.06167603 437.78475952
150.04866028 303.05975342 437.78048706
150.05290222 303.05834961 437.78564453
173.01005554 302.11669922 420.03796387
173.01513672 302.11495972 420.03619385
173.01148987 302.11828613 420.03955078
173.01551819 302.11614990 420.04122925
172.64286804 250.73236084 381.32064819
172.64263916 250.73144531 381.32077026
172.64378357 250.73054504 381.32293701
172.64677429 250.72735596 381.32537842
174.85852051 254.58738708 449.72772217
174.85687256 254.58432007 449.72698975
174.85780334 254.58457947 449.73205566
174.86042786 254.58129883 449.73034668
112.49700165 258.15304565 439.98400879
112.50106812 258.15069580 439.98297119
112.50682068 258.14843750 439.98455811
112.51118469 258.14614868 439.98666382
177.73373413 273.06063843 393.22988892
177.73657227 273.05905151 393.23300171
177.73640442 273.05792236 393.23803711
177.73844910 273.05511475 393.24301147
167.70097351 305.30932617 427.86828613
167.70390320 305.30700684 427.87042236
167.70199585 305.30889893 427.86853027
167.70547485 305.30639648 427.87322998
211.60745239 258.26705933 408.59109497
211.61099243 258.26306152 408.59075928
211.61361694 258.26162720 408.59774780
211.62251282 258.25433350 408.59930420
157.02859497 306.66342163 441.17306519
157.03051758 306.66278076 441.17614746
157.02960205 306.66076660 441.17227173
157.03303528 306.66217041 441.17864990
154.32981873 287.71597290 456.50762939
154.33020020 287.71246338 456.50225830
154.33465576 287.71209717 456.50601196
154.33587646 287.70922852 456.50299072
201.80198669 237.03228760 394.51553345
201.80227661 237.02883911 394.51812744
201.80622864 237.02865601 394.52905273
201.81072998 237.02207947 394.53097534
168.79074097 310.45394897 445.38867188
168.79292297 310.45065308 445.39236450
168.79292297 310.45074463 445.38565063
168.79507446 310.44970703 445.39218140
139.52156067 211.27526855 376.31143188
139.52752686 211.27632141 376.31744385
139.53030396 211.27148438 376.31115723
139.53683472 211.26597595 376.32009888
112.10617828 227.38519287 403.46121216
112.11325073 227.38389587 403.46124268
112.10951996 227.38000488 403.46237183
112.11492920 227.37519836 403.46688843
169.19261169 215.58078003 378.64739990
169.19270325 215.58238220 378.65103149
169.19514465 215.57786560 378.65347290
169.19859314 215.57394409 378.65698242
165.75138855 249.48339844 449.19348145
165.74864197 249.48034668 449.19195557
165.74874878 249.48579407 449.19967651
165.75180054 249.48374939 449.19686890
146.66716003 281.51187134 405.41439819
146.67216492 281.51156616 405.41629028
146.67370605 281.50720215 405.42236328
146.67660522 281.50643921 405.42681885
156.83874512 262.89196777 466.49612427
156.83506775 262.88870239 466.50140381
156.84069824 262.88577271 466.49642944
156.84043884 262.88485718 466.50051880
183.14697266 295.41369629 414.65533447
183.15010071 295.41149902 414.65603638
183.14802551 295.41354370 414.65472412
183.15188599 295.40936279 414.65841675
140.75526428 233.24874878 379.81900024
140.75997925 233.25070190 379.81997681
140.75845337 233.24252319 379.82156372
140.76393127 233.24050903 379.82604980
127.35452271 290.35855103 456.88973999
127.35807037 290.35772705 456.89077759
127.35934448 290.35263062 456.89328003
127.36434174 290.35461426 456.89730835
198.04394531 298.39773560 429.10058594
198.04585266 298.39495850 429.10092163
198.04774475 298.39242554 429.09945679
198.05059814 298.38812256 429.10284424
165.94807434 311.27587891 452.48410034
165.95234680 311.26977539 452.49316406
165.95030212 311.26937866 452.48147583
165.95564270 311.26751709 452.49368286
163.07659912 277.86697388 455.81066895
163.07374573 277.86221313 455.80981445
163.08540344 277.86514282 455.81365967
163.08288574 277.86187744 455.81292725
138.63327026 243.15177917 390.32342529
138.63946533 243.15263367 390.32928467
138.63977051 243.14976501 390.32934570
138.64414978 243.14808655 390.33621216
122.67572784 231.10862732 388.82647705
122.68261719 231.10935974 388.82666016
122.68218994 231.10295105 388.82617188
122.68737793 231.09861755 388.83190918
196.96871948 235.12683105 389.85287476
196.96734619 235.12419128 389.85519409
196.97383118 235.12593079 389.86694336
196.97749329 235.11949158 389.86804199
193.11070251 290.83224487 420.63531494
193.11131287 290.82943726 420.63607788
193.11041260 290.83404541 420.63684082
193.11311340 290.82998657 420.63986206
159.39767456 287.32742310 403.75933838
159.40068054 287.33047485 403.75903320
159.40422058 287.32830811 403.76309204
159.40606689 287.32937622 403.76586914
141.18389893 299.84326172 448.76226807
141.18772888 299.84219360 448.76333618
141.18499756 299.83831787 448.76055908
141.18937683 299.83895874 448.76602173
179.82051086 266.62023926 391.16702271
179.82107544 266.61801147 391.17025757
179.82757568 266.61990356 391.17614746
179.82820129 266.61715698 391.18035889
145.32571411 296.85369873 427.28408813
145.33052063 296.85357666 427.28402710
145.32881165 296.85040283 427.28381348
145.33285522 296.84985352 427.28829956
123.93266296 280.17092896 438.39077759
123.93708801 280.16833496 438.38916016
123.93966675 280.16644287 438.39178467
123.94416046 280.16461182 438.39328003
132.44465637 284.19586182 424.91363525
132.44981384 284.19616699 424.91351318
132.45077515 284.18988037 424.91433716
132.45410156 284.18954468 424.91787720
147.78587341 304.01348877 450.43746948
147.78833008 304.01208496 450.43893433
147.78871155 304.01126099 450.43753052
147.79183960 304.01196289 450.44253540
187.42759705 245.76953125 384.50924683
187.42755127 245.76834106 384.51116943
187.43170166 245.76872253 384.51974487
187.43472290 245.76472473 384.52233887
135.43130493 278.55062866 412.33987427
135.43917847 278.55111694 412.33999634
135.44049072 278.54684448 412.34078979
135.44540405 278.54574585 412.34552002
131.85412598 290.92529297 441.36712646
131.85791016 290.92572021 441.36740112
131.86131287 290.92010498 441.37194824
131.86592102 290.92080688 441.37536621
142.30010986 267.14895630 397.04412842
142.30731201 267.14877319 397.04583740
142.30804443 267.14187622 397.04724121
142.31205750 267.14053345 397.05136108
126.17933655 262.10446167 411.06533813
126.18537903 262.10278320 411.06564331
126.18672180 262.09771729 411.06823730
126.19073486 262.09518433 411.07183838
126.66087341 272.32043457 419.44412231
126.66927338 272.31900024 419.44531250
126.66617584 272.31637573 419.44488525
126.67205048 272.31414795 419.44989014
127.43955994 224.29133606 382.81521606
127.44479370 224.29244995 382.81677246
127.44128418 224.28878784 382.81332397
127.44658661 224.28451538 382.82113647
138.38357544 221.64749146 377.10540771
138.38642883 221.65039062 377.10864258
138.38699341 221.64778137 377.10696411
138.39054871 221.64407349 377.11505127
156.34820557 271.43603516 456.33508301
156.34112549 271.43228149 456.33636475
156.35124207 271.43185425 456.33856201
156.34761047 271.43072510 456.34014893
182.52700806 307.17855835 437.68209839
182.52955627 307.17309570 437.68237305
182.52622986 307.17767334 437.68267822
182.53010559 307.17260742 437.68643188
197.39849854 247.77825928 392.03042603
197.39993286 247.77545166 392.03173828
197.40097046 247.77517700 392.04244995
197.40615845 247.77029419 392.04354858
147.18418884 288.36480713 412.12030029
147.18864441 288.36502075 412.11950684
147.19499207 288.36120605 412.12789917
147.19711304 288.36126709 412.13076782
173.53532410 227.04438782 379.17272949
173.53552246 227.04510498 379.17535400
173.53414917 227.04382324 379.18322754
173.53941345 227.03982544 379.18582153
162.11892700 270.76953125 391.75131226
162.11988831 270.77111816 391.75408936
162.12478638 270.76876831 391.75686646
162.12515259 270.77001953 391.76113892
