ply
format ascii 1.0
element vertex 2048
property float x
property float y
property float z
end_header
316.03100586 208.27299500 398.89199829
108.12200165 152.52900696 462.62197876
182.96800232 178.74600220 336.67901611
205.00900269 235.99700928 457.69400024
191.26400757 105.29399872 413.41201782
129.57000732 220.04600525 401.43902588
122.20100403 137.01300049 379.73300171
236.28900146 223.04899597 382.44598389
175.26300049 172.53900146 438.26898193
220.00500488 155.22499084 383.41702271
174.42999268 121.49199677 355.15499878
271.59899902 234.67799377 429.02600098
177.07400513 229.02398682 367.63500977
126.76699829 187.72700500 349.90100098
136.12599182 112.89399719 430.25799561
106.62799835 173.91699219 414.74597168
218.44000244 192.42100525 418.99899292
174.49299622 231.25801086 418.39297485
272.46499634 190.22700500 382.55798340
139.37699890 144.76100159 337.46200562
152.26901245 102.35899353 389.42999268
225.13400269 245.06900024 419.09301758
172.18499756 172.12800598 394.76202393
116.25900269 208.13900757 441.18600464
211.10800171 195.77099609 363.13098145
202.18199158 143.43499756 422.35400391
136.23799133 173.97299194 444.08999634
167.86799622 134.45599365 436.60299683
205.04600525 120.55099487 380.01000977
193.16198730 209.10899353 394.60998535
153.60400391 195.43099976 418.96701050
111.56500244 137.48399353 416.98699951
282.27401733 222.93299866 395.45300293
197.64601135 149.30599976 352.45401001
138.19400024 132.66200256 460.75201416
142.57800293 216.36999512 364.78298950
237.23599243 186.90200806 388.87200928
114.37000275 190.78199768 385.01800537
143.04701233 229.31300354 433.69699097
194.23399353 211.25898743 437.86599731
141.40299988 116.20899963 361.05798340
205.18399048 240.09100342 391.85601807
254.43299866 210.72200012 408.48199463
151.20098877 176.64698792 330.52700806
167.49600220 206.18598938 347.22702026
155.51599121 234.69898987 390.06997681
105.46199799 178.92498779 446.10000610
170.95599365 150.15600586 333.31298828
252.51400757 241.16400146 402.28799438
233.93299866 238.66699219 447.34500122
299.60198975 228.45800781 419.81802368
166.22999573 104.68099976 430.09799194
203.80300903 168.79299927 404.42800903
127.56599426 116.51200104 400.57299805
119.98600006 162.26499939 364.40899658
180.66999817 103.35700226 386.44799805
300.79998779 192.72799683 380.02801514
221.11000061 219.26000977 430.32601929
200.36299133 239.32998657 430.66201782
112.00799561 200.61099243 412.47100830
180.02900696 192.51499939 413.86801147
118.08300018 131.35099792 443.08297729
112.46799469 164.74099731 389.75598145
208.88101196 219.46899414 375.60098267
151.61801147 152.56201172 446.30102539
209.33200073 123.89299774 405.61801147
171.82800293 222.73699951 444.30398560
104.04100037 155.48400879 435.70898438
210.66999817 170.12199402 363.11700439
246.15399170 232.27099609 425.10101318
191.18699646 212.26699829 355.67297363
129.72200012 186.27099609 423.42901611
154.60499573 115.53900146 448.68002319
229.35501099 244.90800476 395.02999878
179.19300842 235.89199829 393.86401367
196.80699158 166.03599548 427.84802246
256.34899902 208.69700623 384.79400635
140.75500488 205.81201172 436.39300537
149.70800781 104.20200348 412.70898438
156.88200378 129.76400757 342.06399536
128.23300171 166.05900574 341.60198975
186.89599609 123.21999359 429.46499634
128.14801025 136.49499512 357.32598877
147.39599609 197.10099792 341.22198486
152.63200378 231.94999695 413.72900391
126.06100464 211.19299316 378.82400513
172.28500366 210.38700867 425.80700684
231.93399048 201.97500610 373.59100342
169.78601074 98.84300232 405.09701538
214.36999512 176.33399963 386.62402344
129.50498962 153.14399719 457.60800171
194.81800842 127.83199310 362.06298828
274.48498535 217.38900757 415.91598511
234.42199707 201.44000244 407.46099854
193.10099792 242.09800720 410.42700195
184.69500732 149.34700012 434.47500610
287.31997681 201.90499878 396.05099487
123.53499603 218.84800720 424.01300049
156.30200195 182.55900574 438.26602173
166.61299133 108.60900116 370.39102173
212.32501221 145.85598755 401.07901001
229.36900330 178.57701111 407.00500488
195.05900574 190.26899719 350.22198486
210.98800659 138.94000244 371.42700195
231.35299683 172.50199890 374.73602295
134.18299866 114.16400146 380.27301025
199.10900879 199.28100586 417.55700684
115.12699890 145.06300354 397.22399902
193.03399658 188.97900391 398.49499512
181.72399902 137.07501221 344.78399658
187.70800781 225.19299316 456.20401001
107.03299713 192.17500305 431.20898438
165.43200684 189.90499878 334.29800415
196.79998779 169.56700134 347.34600830
301.77099609 221.70899963 400.01300049
200.17300415 108.19599915 394.35299683
161.17001343 220.34700012 360.50201416
261.01498413 225.43400574 394.61499023
192.95098877 226.68400574 383.70700073
152.83000183 157.66799927 329.21002197
140.04200745 224.71398926 385.08999634
265.87500000 198.70999146 398.27902222
118.94300079 136.99899292 463.93600464
185.42900085 172.72200012 408.32299805
128.57598877 203.16000366 361.93499756
123.89600372 121.56500244 418.23300171
177.69500732 215.52200317 408.63699341
216.45799255 241.52299500 441.64801025
210.70100403 222.68800354 445.30801392
135.75300598 118.72599792 447.85601807
236.88699341 217.53099060 416.28997803
116.41699982 179.49200439 369.99099731
202.56100464 180.82701111 418.30700684
118.55799866 206.32200623 396.41601562
116.35299683 167.49800110 456.20001221
269.41601562 233.74499512 408.45599365
107.68699646 156.00299072 417.09301758
188.02600098 114.32799530 372.01101685
219.38900757 233.77899170 382.74600220
152.57800293 133.30799866 447.29598999
230.86099243 165.70800781 393.07901001
129.29399109 221.16699219 441.56399536
158.29699707 220.84100342 428.95599365
214.10299683 133.47000122 388.10900879
186.73400879 157.17999268 339.82000732
251.80598450 191.81600952 380.24700928
301.40798950 208.88600159 387.00802612
111.32500458 185.03900146 401.94100952
182.27799988 232.91799927 434.52600098
273.77798462 209.16900635 386.22998047
137.32301331 201.84899902 419.70700073
169.69299316 156.34700012 440.88000488
170.21598816 186.51600647 426.81100464
169.54299927 169.43399048 331.11599731
140.73599243 128.67001343 348.01599121
201.43200684 126.38199615 420.64999390
136.65899658 226.50100708 416.21499634
258.32400513 242.45298767 419.29800415
213.15299988 244.66799927 407.21301270
162.05200195 231.12200928 374.94299316
148.95201111 108.43800354 373.94500732
125.32299805 151.86799622 351.17401123
121.16899872 181.09199524 440.75900269
290.93499756 212.44900513 408.71899414
224.53500366 186.12001038 367.93200684
165.92500305 236.83999634 403.84399414
104.98200226 171.45100403 431.23098755
207.07699585 210.24200439 427.38299561
239.40699768 246.87199402 410.82800293
188.00799561 180.03199768 426.80697632
117.11100006 129.44099426 402.17300415
179.07699585 195.35600281 342.67700195
170.87300110 118.37500000 438.08200073
137.36698914 183.30000305 338.17199707
156.76499939 118.03700256 355.77398682
249.62800598 197.21299744 398.59597778
117.25600433 153.85499573 378.67700195
210.68600464 152.26200867 362.14797974
284.41799927 232.80599976 416.31698608
258.87200928 225.07199097 417.10000610
238.73999023 245.64099121 430.00399780
222.11399841 208.02999878 418.87399292
130.19500732 124.97100067 368.43197632
242.72300720 234.73399353 391.40701294
109.35799408 145.38900757 448.49499512
155.03999329 167.85299683 444.06900024
233.89300537 228.87001038 434.99499512
155.69299316 204.77200317 431.44100952
204.59201050 157.58499146 415.31100464
181.60200500 108.79599762 427.49700928
143.47599792 228.05200195 401.93200684
185.72599792 202.94700623 425.39999390
147.05101013 208.38600159 352.44598389
151.03300476 106.40799713 429.05499268
191.67298889 224.42999268 366.75701904
214.09100342 182.24200439 408.33200073
123.85299683 199.29699707 428.81500244
156.06300354 143.43299866 333.62799072
224.28099060 216.34700012 375.93600464
176.52299500 216.04100037 354.87402344
103.44000244 162.38301086 450.17901611
139.00401306 107.59700012 396.30599976
145.21099854 185.29998779 428.41101074
110.79499817 140.23399353 431.73599243
194.72200012 235.60099792 446.98397827
118.97200012 194.06098938 370.06399536
207.51200867 163.26400757 386.20800781
140.43299866 165.07301331 333.47399902
109.09400177 164.10798645 404.11901855
124.73500061 121.29000092 434.03399658
136.82800293 110.39399719 415.83898926
202.66099548 210.06298828 366.29299927
186.38800049 101.76399994 400.10000610
205.77499390 183.07499695 356.69897461
187.52000427 202.02000427 406.01501465
123.35199738 126.40499878 389.40298462
141.92800903 190.12800598 412.57400513
140.14999390 160.55400085 448.98999023
120.69300079 175.45700073 353.74398804
166.61999512 102.42799377 384.84600830
311.73599243 198.81199646 389.29699707
275.39501953 206.77499390 404.87301636
203.32499695 113.30399323 412.70700073
286.12802124 192.98500061 384.35900879
186.32200623 238.37600708 422.06298828
121.83200073 146.23999023 367.89898682
113.48500061 208.36299133 426.57101440
179.34300232 235.18200684 379.98300171
242.86499023 209.18199158 381.45700073
141.09599304 144.00799561 453.27099609
236.92298889 188.09199524 373.90597534
119.88700104 211.79299927 409.10699463
222.70899963 230.57000732 447.84399414
308.35000610 215.56100464 410.49398804
185.18099976 163.46398926 435.91299438
208.63999939 136.16600037 411.50799561
173.56300354 101.12599945 419.23498535
114.54000092 176.61799622 383.12899780
189.51499939 138.11000061 428.63000488
170.19900513 129.54899597 345.20999146
215.50599670 207.68399048 370.50000000
210.57499695 243.00000000 420.31402588
166.08000183 222.90199280 412.03900146
208.91299438 119.29400635 392.80300903
179.65600586 213.05699158 439.36700439
206.09899902 231.71299744 380.07299805
191.76000977 239.10299683 397.56799316
181.87600708 235.76100159 406.79998779
126.62599945 126.00099945 454.02999878
299.02801514 206.38301086 400.13302612
203.78999329 160.94100952 354.36099243
198.27200317 200.82400513 357.22799683
150.11698914 226.07499695 376.60101318
134.96800232 197.84899902 350.01300049
180.38099670 208.13499451 397.03598022
195.03599548 114.26499939 422.64199829
166.85198975 198.89900208 428.65399170
148.70298767 216.07699585 436.09698486
286.65200806 212.36599731 388.59201050
176.78700256 182.34899902 406.70098877
145.78199768 123.19899750 456.50399780
248.04100037 221.44499207 387.31198120
198.30499268 221.60899353 448.39199829
210.13000488 160.88800049 371.93301392
134.47601318 182.72399902 434.77697754
290.30902100 228.95500183 405.70101929
108.86699677 189.24699402 417.25097656
222.91799927 175.10198975 396.29800415
168.24899292 237.37500000 385.75500488
217.38299561 177.67399597 374.10299683
189.79998779 183.27600098 413.72000122
185.19000244 128.74400330 353.96200562
234.06900024 189.21600342 402.22702026
159.89199829 142.94299316 441.28900146
201.76899719 140.01800537 359.81500244
128.76400757 165.09400940 451.62899780
196.11000061 111.09499359 382.86798096
170.97399902 225.68299866 429.00900269
284.88299561 231.96299744 428.77099609
160.84199524 101.07199860 417.23901367
210.72000122 158.77600098 401.96697998
161.23899841 125.63200378 442.89199829
288.44897461 221.20399475 417.61898804
227.21000671 243.62899780 433.89199829
153.24200439 231.84700012 426.88000488
135.27999878 218.40600586 375.27499390
159.88000488 199.28500366 340.64297485
128.25599670 208.85699463 439.05899048
156.65798950 100.64200592 403.37399292
116.92400360 129.99301147 429.47998047
130.23400879 141.96499634 462.25698853
118.46700287 148.33900452 468.14001465
215.48600769 144.06498718 382.37899780
263.01898193 196.82400513 378.96401978
183.99200439 205.21701050 349.05599976
182.05699158 230.20799255 446.85598755
154.40499878 233.87199402 401.99597168
143.61199951 112.08699799 439.60601807
204.11000061 129.20199585 370.10897827
199.30699158 198.85798645 393.62100220
201.85800171 190.18000793 410.27200317
179.47599792 204.39900208 415.31597900
235.70300293 175.36399841 386.24700928
156.95199585 186.86000061 426.56201172
113.85600281 195.38499451 396.16900635
217.40600586 238.57699585 454.87402344
126.81099701 215.44801331 390.82901001
250.24598694 242.83399963 429.26098633
217.81698608 243.05400085 393.18600464
184.85299683 179.28500366 398.51599121
159.01699829 107.77000427 438.92700195
178.27000427 114.75399780 365.36599731
109.67399597 146.25999451 409.31500244
196.92799377 152.90200806 427.02401733
248.87699890 219.87600708 413.62399292
119.07900238 201.17700195 382.06900024
122.28900146 163.95098877 351.85400391
243.05500793 240.67098999 439.74200439
179.60299683 132.81199646 432.01397705
192.20300293 138.95599365 352.52801514
131.83799744 153.01899719 340.74398804
210.58900452 201.00300598 416.82699585
202.65998840 168.74800110 418.17098999
205.64801025 215.53599548 437.76000977
176.81900024 160.11300659 333.45098877
116.68399811 166.03199768 379.09100342
119.47499847 217.32600403 435.05902100
179.17799377 108.17700195 376.00000000
258.01000977 193.31500244 391.81701660
132.57899475 224.70100403 427.92498779
224.53599548 245.82899475 407.66998291
232.28199768 222.95098877 425.32901001
169.29901123 139.76100159 337.80300903
277.85900879 196.42199707 391.47299194
147.08100891 176.03099060 441.19900513
173.76699829 146.67199707 436.28698730
216.66101074 149.27999878 371.35198975
205.17799377 239.25300598 444.54000854
118.87899780 189.22599792 430.12301636
180.25599670 100.40100098 410.20001221
166.51300049 114.52099609 360.80999756
242.37998962 209.27000427 408.71200562
162.17399597 178.11000061 328.71197510
241.27699280 244.88499451 399.96200562
127.12399292 177.06399536 344.71600342
186.64599609 218.23400879 446.41302490
201.34300232 242.59799194 402.15600586
189.53799438 147.47799683 344.97201538
133.62699890 139.41200256 345.42098999
228.10499573 190.08700562 411.63302612
272.95199585 227.56999207 399.47698975
120.25199890 184.88400269 359.68099976
154.32099915 189.21099854 333.84100342
210.94799805 177.03199768 397.19702148
232.62800598 237.10000610 387.37899780
264.15301514 213.99499512 412.72601318
228.20800781 163.77099609 382.47698975
216.25498962 180.24299622 363.37200928
271.08401489 225.47599792 422.88000488
268.89700317 217.84498596 391.08200073
141.70100403 107.18099976 385.58001709
245.91799927 246.95399475 419.97702026
180.18600464 146.37300110 339.07699585
168.72000122 216.56900024 435.75500488
292.67098999 202.97299194 383.94900513
186.50099182 168.11299133 338.83999634
162.99099731 230.14700317 419.67199707
221.91799927 198.86698914 369.46801758
198.05699158 220.55400085 374.88601685
148.11499023 135.53700256 339.22799683
189.16499329 212.99499512 403.93002319
107.13499451 145.81599426 422.30297852
234.20300293 178.11199951 396.60299683
112.04000092 176.15899658 395.83297729
111.81900024 197.76100159 439.11599731
199.06300354 106.31999969 404.92599487
112.11100006 186.81700134 439.51898193
104.50699615 161.13301086 426.53799438
172.25498962 181.59300232 333.73098755
188.27400208 185.24900818 343.54699707
163.15299988 174.73800659 441.03802490
117.14699554 128.64099121 413.74499512
179.46699524 182.55999756 417.87698364
301.05599976 228.03300476 409.18402100
165.51600647 217.55300903 421.58099365
105.29299927 179.96600342 424.72500610
175.55599976 196.03199768 423.13702393
161.21000671 212.53999329 353.19097900
163.73699951 99.61399841 395.43399048
208.25799561 171.45399475 379.36801147
274.09298706 234.80899048 418.03100586
217.01901245 152.65899658 393.30599976
115.45600128 136.46900940 452.03302002
127.68499756 220.01400757 411.90100098
128.92199707 116.01599884 390.05099487
128.26199341 123.15000153 380.58798218
147.20399475 200.16000366 425.89797974
196.16000366 235.48799133 388.53500366
293.11499023 219.19499207 393.33401489
216.85699463 242.77900696 431.22598267
136.58000183 124.65599823 357.11099243
143.53799438 154.56298828 332.91101074
154.36599731 111.14899445 365.41198730
195.74800110 181.26699829 405.02301025
300.75201416 198.70700073 389.29000854
146.56999207 103.72900391 402.78302002
114.63800049 175.62899780 449.91497803
119.33399963 138.82699585 389.56298828
138.88899231 217.90299988 438.82998657
113.63899994 153.44700623 391.34100342
225.63600159 200.23500061 412.78900146
198.60200500 240.98899841 420.61297607
129.07600403 194.79299927 417.62200928
307.38500977 213.99000549 396.05999756
117.03699493 157.72299194 462.81600952
122.65899658 203.32499695 372.62402344
246.35299683 191.65299988 389.15399170
159.83299255 104.91799927 377.18600464
241.51100159 199.72300720 377.69201660
195.83499146 120.65999603 369.94497681
152.02299500 222.03799438 367.37600708
189.19099426 198.64399719 395.16299438
110.76200104 198.72599792 422.44799805
125.27100372 133.83300781 369.64398193
128.94700623 116.68399811 410.68099976
177.07499695 180.16400146 431.73797607
166.38099670 226.80699158 366.78698730
196.49900818 207.62200928 428.63101196
253.05398560 231.73800659 394.00698853
261.47500610 239.92399597 407.02301025
176.00599670 99.96900177 397.17501831
112.13099670 143.58599854 460.05499268
135.23500061 122.86499786 458.33200073
125.36000061 194.46499634 357.32202148
185.87901306 231.12300110 373.41799927
198.01298523 227.96800232 456.23999023
188.80400085 192.12699890 407.50100708
186.66799927 121.91300201 361.97097778
184.36099243 173.27499390 433.89099121
223.00698853 173.91900635 382.08801270
211.88099670 131.85000610 400.06597900
208.17401123 191.23500061 417.97500610
208.18499756 146.75399780 410.15402222
281.20199585 202.95498657 383.77600098
149.73300171 122.27200317 350.09301758
162.20800781 154.94599915 331.26300049
111.68199921 154.59700012 402.66799927
231.10699463 209.18899536 414.79000854
197.13999939 179.35499573 348.91198730
138.47799683 192.30799866 342.15701294
196.04399109 157.70199585 347.44400024
106.94999695 161.98199463 459.90399170
145.10198975 114.25299835 451.16101074
233.99299622 212.65600586 378.82699585
226.62500000 227.48098755 380.61801147
180.99800110 222.67300415 360.55200195
166.43499756 183.33200073 435.26000977
133.77799988 202.58599854 428.79998779
112.74500275 137.28300476 406.06201172
263.54699707 232.80200195 423.84201050
124.34499359 123.84700012 444.79098511
124.93800354 173.30299377 448.00299072
142.25299072 229.44999695 423.97497559
223.89399719 240.87500000 447.98300171
190.94300842 236.95899963 432.74099731
189.82798767 104.71600342 389.39602661
204.53900146 243.11099243 412.70300293
127.92900085 129.96398926 462.80300903
158.77099609 165.30999756 328.56698608
136.73899841 115.93099976 369.55599976
134.82600403 173.99600220 337.23800659
132.82998657 116.43399811 438.92999268
107.34999847 170.91799927 454.14099121
176.32701111 170.63800049 403.35000610
147.09500122 229.72999573 389.34899902
218.93099976 223.34500122 440.34002686
210.50801086 131.61100769 377.64401245
131.55799866 210.62699890 367.22000122
154.34100342 187.02099609 414.35699463
211.40600586 230.55599976 453.01501465
123.34399414 152.32499695 360.57000732
185.66400146 231.40400696 387.80599976
138.75999451 208.43099976 357.25997925
174.18299866 217.12500000 417.38998413
118.04100037 172.81100464 362.52902222
149.19599915 142.88800049 448.35498047
239.74000549 195.82200623 398.33599854
161.31800842 160.79699707 441.84399414
135.39500427 110.99299622 404.44601440
142.59899902 108.04000092 423.04400635
145.50698853 167.07299805 443.99700928
261.87399292 233.37901306 400.13098145
134.05099487 221.53100586 393.19598389
252.65600586 243.97599792 411.35900879
300.58898926 219.82400513 413.91998291
203.22200012 192.73599243 357.17800903
178.44200134 170.75500488 334.32000732
153.98399353 205.31399536 346.80200195
103.13300323 164.18998718 439.21801758
242.50799561 224.74198914 420.75198364
180.20700073 117.59900665 432.99002075
205.58198547 165.68000793 395.10699463
169.02700806 196.46400452 340.00799561
204.58599854 176.84599304 410.03100586
160.09298706 123.54899597 348.33999634
173.02900696 110.23200226 433.95098877
280.43600464 224.95800781 423.22201538
281.60101318 212.08499146 409.47500610
256.37701416 217.16000366 388.80599976
188.95300293 200.87100220 416.88900757
190.36099243 198.43099976 349.73999023
143.02600098 183.94300842 438.26400757
108.26399994 173.88099670 405.58200073
215.89599609 212.69099426 425.75500488
157.78100586 195.51899719 429.84100342
196.10198975 216.92399597 363.53201294
195.50601196 131.02699280 426.05297852
178.98599243 187.54600525 337.71801758
115.29300690 209.03498840 417.52999878
169.56298828 238.56500244 394.81500244
198.30599976 174.48200989 424.44000244
174.98399353 224.52899170 410.24600220
153.08700562 216.17500305 358.96701050
127.80200195 117.20999908 426.35800171
267.46801758 193.91099548 390.59002686
145.18800354 133.75199890 454.89999390
118.16100311 145.04598999 381.54400635
122.40299988 122.46099854 407.88400269
279.34899902 229.97898865 405.57199097
184.82499695 104.65999603 419.87698364
112.50399780 184.79501343 392.85900879
107.76799774 164.84899902 414.52099609
196.66700745 195.30900574 404.09298706
230.05400085 193.58601379 370.48797607
205.58000183 172.88301086 356.05599976
258.41500854 203.70899963 404.21600342
121.56700134 201.60700989 437.67700195
184.80000305 208.52500916 433.36199951
217.62399292 225.93299866 378.46899414
277.88299561 217.28199768 389.78100586
308.64300537 203.32600403 397.04000854
250.68199158 202.45001221 381.46200562
291.32699585 228.06599426 423.42901611
163.62998962 209.36700439 428.12899780
205.25201416 113.64900208 403.90802002
149.03399658 167.98699951 329.30300903
269.32299805 202.02900696 383.04998779
187.93299866 108.28199768 380.40200806
145.51899719 198.92799377 417.16400146
106.33100128 169.17700195 422.65899658
162.07598877 114.81499481 443.55599976
172.11100769 232.91200256 374.00000000
265.92901611 240.06300354 415.24197388
106.21199799 153.73899841 448.76300049
145.82600403 187.67799377 336.09399414
105.06500244 183.33700562 435.32699585
235.57600403 180.05999756 378.71798706
179.26300049 157.62699890 439.01602173
188.18600464 234.48100281 441.10400391
214.44900513 142.62600708 393.11901855
171.67698669 234.45199585 410.12899780
226.19200134 216.88499451 423.25402832
137.71699524 153.01899719 452.92498779
111.50799561 140.14700317 441.70999146
167.91500854 166.63999939 441.42800903
266.81799316 207.24501038 406.81298828
253.94599915 234.25700378 421.53298950
116.20099640 187.23100281 374.85998535
292.83801270 232.04399109 413.91101074
139.78700256 185.94200134 419.99301147
155.12899780 231.76400757 381.80099487
303.74899292 200.88900757 381.27200317
225.02299500 241.62300110 388.17797852
114.23400116 201.20399475 402.66299438
242.72100830 188.81001282 381.74899292
191.96299744 157.35598755 432.60400391
191.71600342 175.80400085 343.12100220
172.43600464 187.64599609 418.20098877
107.92800140 181.74499512 411.24600220
194.70100403 182.29399109 421.63000488
238.73600769 228.73300171 427.79299927
208.89900208 203.53799438 366.20700073
237.39700317 246.18400574 421.05297852
223.98699951 206.94300842 371.80798340
143.46499634 221.47200012 373.64599609
129.46099854 178.72500610 441.72601318
306.75198364 209.23200989 404.88400269
211.68998718 238.09400940 386.60498047
181.54899597 141.10499573 433.04397583
226.13699341 224.31900024 435.08599854
274.97198486 200.84600830 398.69400024
245.71000671 202.78100586 403.78100586
162.65800476 233.25900269 411.70800781
173.80499268 227.98500061 436.74700928
220.91198730 180.00599670 403.69299316
154.26300049 123.97100067 450.02600098
230.97999573 180.90899658 369.98400879
233.22099304 243.14300537 440.10900879
175.62399292 207.91200256 349.18698120
217.55400085 156.70600891 375.40499878
201.09500122 161.03399658 422.25598145
172.05999756 221.84201050 359.15802002
161.03799438 237.20599365 396.93298340
120.22700500 154.55200195 370.77398682
126.14900208 222.09399414 433.00302124
202.85299683 112.94200134 387.91799927
120.30900574 207.02700806 388.00497437
144.38999939 202.33500671 347.22399902
179.57800293 234.61900330 426.73098755
158.29699707 103.39400482 424.91998291
229.96600342 245.06700134 425.98199463
151.94000244 225.99699402 432.77099609
292.80499268 190.41799927 378.98901367
111.03900146 203.01400757 432.54400635
136.39799500 158.15100098 335.95898438
287.96499634 207.71899414 402.01602173
141.90800476 178.04199219 333.53201294
147.45500183 142.70199585 334.98400879
124.26999664 160.11599731 456.60900879
122.31999969 122.64999390 398.50598145
211.04000854 160.98899841 363.64901733
231.84600830 246.04899597 403.69097900
123.56900024 214.70800781 399.27801514
203.80899048 134.28799438 419.64199829
250.38000488 227.20498657 417.24600220
103.27799988 173.18299866 440.51400757
136.02699280 226.58999634 437.17199707
177.83898926 221.80599976 449.93298340
244.66299438 237.46701050 432.29202271
162.30699158 152.62500000 441.10998535
197.07099915 237.46299744 438.25097656
106.19100189 148.21699524 432.47698975
290.85699463 197.36300659 390.16601562
117.96399689 169.15899658 369.89001465
192.95799255 145.52400208 429.46401978
119.07599640 132.02600098 394.65002441
278.64901733 235.96798706 425.07202148
173.96099854 125.63599396 435.92700195
184.45700073 184.86399841 405.38702393
111.06999969 193.83799744 408.01901245
137.26000977 225.74299622 406.68099976
123.76800537 192.01699829 423.14498901
210.84899902 242.80099487 397.39999390
229.25000000 170.23399353 399.65200806
208.94799805 241.56199646 429.74499512
130.01699829 222.78599548 420.44500732
125.35199738 143.41300964 360.56201172
214.33000183 188.42999268 361.77999878
299.87600708 214.80000305 392.36398315
257.00198364 217.82701111 413.01101685
121.00000000 131.38499451 456.32101440
310.97399902 206.90699768 390.14801025
151.49200439 109.31600189 441.48901367
141.51699829 111.66600037 374.50299072
182.78401184 237.97898865 414.80401611
148.53199768 118.40200043 357.08200073
208.46398926 168.78500366 371.73599243
128.96299744 130.16499329 362.38800049
263.91799927 210.81100464 386.57400513
261.84899902 190.38000488 383.65100098
206.48300171 122.77700043 413.05999756
171.27799988 105.19100189 378.89599609
212.73100281 127.34800720 393.13400269
172.75500488 100.90799713 389.80001831
159.71699524 134.92601013 441.14300537
168.47599792 215.62600708 354.60098267
206.56999207 171.03900146 387.88900757
212.74099731 216.10400391 432.26300049
160.46200562 187.99699402 419.46899414
114.27299500 158.96899414 384.04598999
114.39400482 211.26200867 434.00399780
134.45399475 131.07398987 352.30599976
246.44300842 245.50299072 406.63702393
150.43899536 104.08200073 420.62301636
193.88299561 196.83499146 411.38000488
156.28900146 213.50000000 431.19799805
205.58099365 163.92399597 410.42599487
169.26300049 158.51800537 330.83099365
178.93099976 205.83399963 428.25698853
211.96499634 206.80999756 422.01998901
140.19000244 134.94299316 343.23400879
229.26800537 232.03199768 443.71600342
191.29400635 162.95201111 342.66000366
218.53399658 201.31700134 416.80300903
147.62599182 186.38800049 419.82901001
198.63000488 216.49099731 442.44799805
204.56799316 148.96899414 358.50500488
193.84899902 203.54100037 422.40499878
125.85499573 158.53799438 347.13000488
210.83799744 138.93699646 404.53799438
149.50099182 149.47399902 331.66699219
136.36599731 184.06500244 426.89401245
153.40599060 104.55699921 381.59899902
237.40800476 242.14399719 393.76599121
149.90000916 160.88899231 445.79199219
174.90800476 164.55000305 438.69299316
121.73699951 123.35099792 425.48400879
176.30499268 127.05500793 350.06298828
159.59001160 135.86099243 338.08300781
314.55001831 211.48100281 405.79000854
124.33899689 150.80900574 462.89102173
145.58399963 103.63499451 395.10699463
132.89199829 113.31600189 421.82601929
132.82400513 187.20999146 343.53701782
173.67300415 104.57599640 428.00302124
267.48202515 239.65899658 422.79101562
295.58200073 202.18099976 394.65698242
128.02499390 144.75599670 349.91500854
115.29300690 132.38400269 422.34298706
205.12600708 225.08200073 450.02999878
298.43301392 213.23600769 407.28500366
123.36800385 171.13200378 347.99700928
126.53300476 136.74501038 466.48898315
291.08801270 224.36698914 398.61700439
174.15399170 139.26899719 433.84701538
186.84899902 213.91600037 396.68801880
197.17800903 209.95199585 359.84399414
223.30599976 245.72799683 400.12298584
148.42799377 200.37300110 433.43499756
118.70899963 161.73100281 372.87899780
127.01900482 182.75999451 433.14599609
211.07499695 126.95800018 383.66400146
175.45199585 236.21598816 402.72702026
186.34199524 193.49000549 345.57199097
111.46199799 158.92599487 396.41400146
243.13198853 227.25799561 387.36099243
179.64900208 208.32798767 407.14999390
243.01600647 217.03100586 383.70498657
307.98901367 218.29800415 403.41500854
213.15200806 157.90299988 385.30999756
188.49200439 114.01799774 426.48898315
198.75599670 182.96200562 412.10800171
217.12300110 218.23500061 374.33401489
191.15998840 172.59899902 430.63800049
121.81299591 140.15899658 372.86300659
110.72299957 167.68998718 396.49899292
194.57699585 204.33300781 400.29299927
145.67098999 223.11900330 437.13198853
237.20001221 235.63600159 441.25100708
167.69999695 122.32899475 351.85400391
157.91499329 226.17900085 369.60800171
179.24400330 173.63500977 397.07800293
194.13200378 193.28999329 392.41601562
190.75999451 231.47000122 453.38400269
219.96099854 191.73100281 365.89700317
143.96501160 150.15499878 449.87500000
165.05099487 99.69400024 411.17098999
122.86700439 214.30499268 441.03802490
211.74398804 157.92100525 394.14099121
278.64901733 195.93099976 383.21600342
106.45300293 187.35400391 424.83801270
259.40499878 239.46798706 426.05902100
185.91200256 234.75700378 399.20498657
194.56900024 123.62899780 425.67398071
143.06199646 106.69799805 410.40100098
174.83200073 135.70599365 342.27401733
173.58699036 203.20098877 423.66497803
200.12500000 236.41299438 452.08801270
194.96400452 134.06500244 358.01300049
212.80999756 240.20401001 449.26199341
103.23300171 170.25299072 447.33300781
134.06900024 110.72599792 390.79898071
155.83898926 175.93099976 441.54400635
134.95199585 167.22200012 448.16799927
210.51100159 177.25299072 359.80099487
159.81199646 101.68099976 387.62799072
162.88499451 147.80000305 333.02798462
205.30400085 136.87400818 365.49197388
182.83000183 212.69500732 352.99700928
198.96699524 226.40399170 379.29498291
113.27400208 181.64399719 444.65100098
195.84199524 110.34799957 416.21597290
166.84100342 142.96499634 438.82901001
206.38400269 175.54399109 403.00000000
194.00500488 104.49200439 395.93301392
186.49600220 130.68299866 430.53201294
169.49499512 216.94400024 427.73800659
208.03601074 154.23298645 409.75601196
118.22599792 186.37600708 367.85299683
149.23100281 127.59000397 345.05398560
274.13101196 211.95800781 410.98898315
222.62600708 185.49800110 409.95800781
170.85899353 218.45599365 408.68197632
148.78199768 231.59500122 421.05697632
174.27499390 211.06900024 434.78997803
115.74299622 137.45799255 399.37002563
258.76300049 202.17199707 381.61599731
230.68000793 219.82699585 379.01397705
166.04100037 101.78299713 423.37701416
125.19699097 130.33799744 379.92700195
128.78500366 202.63099670 434.14398193
244.72399902 192.59100342 375.82098389
220.18699646 244.14601135 424.39401245
147.27301025 208.46598816 434.44400024
137.93798828 224.80499268 398.43402100
258.80398560 196.90899658 398.20001221
152.12699890 101.43399811 397.71301270
130.13400269 200.51699829 422.01501465
192.68199158 225.54499817 375.70599365
200.39799500 118.30599976 419.82000732
219.56300354 245.08599854 412.92797852
245.44499207 240.10198975 396.42098999
136.40499878 197.66398621 413.84197998
232.27598572 246.01100159 411.86898804
142.75000000 228.62599182 412.89300537
132.37699890 159.02299500 453.26199341
225.40800476 169.45899963 390.15200806
171.16899109 222.03700256 422.10501099
161.58599854 110.77500153 365.57598877
175.16999817 209.89700317 417.18200684
139.00599670 118.13999939 454.41601562
201.58999634 150.35598755 420.46200562
282.43099976 217.81500244 415.60198975
180.42700195 153.21699524 336.87600708
268.29299927 223.22000122 395.80899048
123.10700226 143.15899658 466.36199951
234.46800232 229.57600403 384.81201172
208.52699280 162.51100159 379.15600586
212.76199341 186.45399475 415.25598145
148.77999878 193.90100098 413.24899292
182.75399780 199.42698669 410.68301392
121.81600189 195.00700378 363.49801636
224.04701233 180.23901367 374.02902222
147.53199768 113.17800140 365.01199341
150.17199707 231.13999939 407.05200195
201.32299805 204.41700745 421.98898315
230.24400330 195.78201294 406.33099365
173.88500977 200.04499817 344.00601196
236.58399963 186.07998657 395.90600586
209.78199768 211.84500122 371.18200684
200.16600037 132.23500061 363.65301514
202.75799561 203.44999695 362.07101440
105.37899780 154.64498901 423.78601074
316.20999146 202.90499878 392.98999023
114.42100525 183.36399841 385.32299805
122.08899689 158.43200684 357.18399048
253.36700439 224.30899048 391.01998901
211.32099915 144.59500122 367.16101074
293.68099976 218.22700500 413.79800415
265.27200317 222.05300903 416.65100098
134.13700867 145.53601074 457.53601074
233.10600281 170.37899780 381.92999268
119.11199951 147.75498962 375.06500244
306.33898926 223.18400574 411.50000000
276.55200195 229.31199646 427.22698975
133.28700256 188.60700989 417.78698730
188.15000916 102.13100433 407.90899658
119.91600037 167.76800537 357.31100464
164.95100403 190.88299561 425.02700806
186.32600403 134.41400146 349.89602661
188.52000427 240.10800171 405.42501831
293.86801147 213.51499939 388.87500000
166.52999878 234.98100281 379.33798218
115.74199677 174.38800049 376.54400635
113.44300079 171.71199036 389.34100342
215.95999146 226.65199280 447.82598877
215.19100952 156.86599731 367.58102417
105.76599884 156.76200867 455.10501099
148.75000000 186.04199219 434.74700928
122.76399994 182.84500122 353.00201416
169.35198975 177.62899780 438.14099121
252.49200439 244.63101196 422.54400635
205.93499756 113.70999908 395.83001709
185.78900146 183.83898926 420.59100342
198.24600220 115.87999725 378.23800659
294.74301147 196.95199585 381.08999634
202.00500488 234.99700928 384.75201416
118.34700012 214.28999329 425.02099609
111.55300140 147.59600830 466.16400146
208.46598816 165.40600586 358.47799683
181.76499939 122.89199829 357.13500977
108.02500153 146.66299438 441.79498291
149.84999084 232.01799011 397.08999634
156.60800171 183.23800659 331.14001465
188.13299561 140.65299988 347.16699219
159.59599304 104.80000305 432.13098145
221.38200378 175.14599609 389.53399658
188.67900085 195.13800049 401.11602783
141.71501160 202.08898926 430.63198853
129.18800354 216.06401062 384.35598755
210.62399292 240.97500610 436.43399048
187.02900696 230.75300598 381.05499268
218.03199768 149.28099060 378.62301636
117.96800232 195.66600037 376.70098877
121.60900116 128.37800598 449.93698120
205.36099243 140.66000366 416.90200806
248.65899658 213.14199829 384.36700439
117.06499481 196.12300110 434.96899414
196.16999817 188.12300110 404.56301880
201.81300354 215.86898804 371.52798462
192.70199585 204.00199890 353.02297974
136.24200439 120.88199615 362.84802246
210.65499878 226.83100891 378.54199219
161.62300110 235.70799255 385.26202393
244.62699890 245.50500488 433.50000000
192.40200806 203.30700684 391.05999756
204.52000427 219.76300049 445.50601196
115.29000092 149.91600037 385.73199463
193.76699829 238.79499817 426.80001831
115.91500092 197.12500000 387.01300049
172.92199707 111.49299622 368.07598877
204.54399109 241.21800232 424.54598999
203.63200378 239.27400208 437.80899048
175.57800293 217.04100037 444.33999634
185.55400085 204.51399231 399.60400391
190.74200439 240.58699036 417.37600708
186.12599182 218.89999390 358.14700317
110.27700043 154.23899841 409.31698608
129.99301147 119.60399628 444.33999634
136.91000366 215.73999023 369.24401855
162.55099487 187.67300415 430.51000977
286.97698975 234.94599915 423.04501343
203.17601013 123.89600372 374.22900391
134.81298828 220.38400269 381.72799683
146.96000671 160.40299988 331.16000366
155.26998901 233.33200073 420.28900146
146.89299011 109.34400177 434.38500977
165.09400940 133.12899780 340.86999512
154.07499695 139.94400024 444.77297974
213.28799438 137.58100891 379.03100586
182.14100647 101.45500183 394.85601807
165.46598816 109.09300232 437.55798340
156.80700684 171.73400879 328.58300781
125.23399353 217.19700623 406.32299805
190.08700562 177.08399963 402.09002686
168.12400818 127.58800507 438.59500122
197.31500244 142.37300110 355.18701172
190.97200012 233.91400146 392.46099854
180.58599854 235.60099792 386.68701172
150.79100037 119.07699585 452.92800903
134.60501099 167.34098816 336.98699951
146.77000427 214.07798767 359.17199707
188.26800537 212.86399841 440.34500122
217.00799561 148.51300049 388.09902954
214.35099792 175.65100098 367.79202271
189.77400208 119.25999451 367.21600342
128.01901245 126.95400238 374.38800049
160.56098938 225.39299011 424.67901611
198.90499878 239.43800354 393.91799927
185.82800293 179.08599854 410.43902588
242.82099915 214.96200562 412.08801270
175.07398987 183.95901489 413.10900879
228.51200867 232.95498657 383.84698486
165.37300110 120.69000244 441.33300781
207.45700073 129.32400513 413.08001709
238.71800232 194.73800659 374.06900024
186.25199890 207.40200806 393.69500732
254.68298340 191.67199707 386.19802856
213.54598999 153.00500488 400.44201660
107.95299530 146.58300781 415.67700195
240.91300964 192.27099609 392.82501221
230.64700317 186.11000061 407.03298950
147.28799438 181.82000732 333.46200562
142.15699768 171.50700378 332.86999512
165.09599304 163.54100037 328.39700317
252.06597900 205.62599182 405.07998657
188.01200867 232.88999939 447.59197998
113.94599915 134.72500610 433.41299438
134.72299194 206.86300659 438.75598145
123.81500244 139.32499695 366.36099243
200.52799988 155.19499207 352.30899048
138.90299988 138.52499390 457.90798950
179.09300232 235.67399597 420.28601074
206.41299438 155.97799683 357.73300171
166.55200195 183.67999268 331.31201172
236.87699890 210.60099792 412.08401489
139.48699951 178.86199951 441.26400757
104.16600037 156.60600281 442.12298584
131.00799561 121.20100403 375.00000000
180.24600220 126.43599701 433.16900635
118.05800629 184.97499084 436.57199097
164.07400513 171.90299988 328.41699219
179.58599854 99.99800110 403.75500488
146.54000854 226.66099548 381.98599243
178.57499695 178.99000549 400.67602539
149.50299072 127.77799225 453.82199097
207.92700195 243.35899353 403.61401367
285.21697998 230.60501099 409.34802246
226.66600037 162.29699707 389.51501465
201.25999451 187.47599792 353.95800781
138.86199951 115.53599548 443.16101074
191.97100830 164.01599121 431.64501953
204.31298828 229.09700012 455.03601074
237.86099243 205.03300476 378.21099854
167.69898987 229.27400208 411.15298462
142.75799561 109.20300293 429.43798828
132.80999756 223.86500549 411.24099731
225.43199158 242.30799866 441.89102173
131.85299683 215.25999451 441.42098999
236.77900696 180.87100220 391.38699341
131.24301147 147.42399597 343.84799194
106.09000397 180.61299133 418.39001465
197.41099548 137.14900208 425.77801514
119.22699738 209.50099182 403.14999390
178.28099060 176.12100220 407.03900146
302.53900146 203.13499451 395.08200073
267.07501221 191.87899780 379.28399658
106.25600433 183.86399841 442.11502075
198.57800293 125.89199829 367.50097656
171.00900269 173.56399536 400.86901855
194.08799744 223.79299927 452.65399170
158.42999268 113.33200073 360.66699219
201.07499695 212.16299438 434.88299561
297.18301392 225.55000305 402.18899536
284.04901123 196.67500305 390.00897217
138.13499451 212.34999084 362.64398193
129.89500427 198.17500305 354.84899902
206.94200134 183.88099670 414.86999512
103.50400543 163.49600220 432.34301758
186.51300049 156.30699158 435.67800903
191.09599304 108.43299866 419.96301270
214.96899414 144.14199829 374.64401245
131.73899841 161.49699402 338.96099854
156.97399902 150.16600037 443.94000244
142.22300720 124.08599854 352.10800171
183.36000061 171.45899963 401.35198975
203.16099548 166.83100891 352.16598511
204.55299377 225.65699768 376.44699097
136.64799500 226.60798645 423.37701416
130.34899902 213.98001099 375.12600708
137.42298889 203.72999573 353.27301025
174.40600586 237.59800720 387.10202026
109.73400116 140.76599121 425.04400635
150.15399170 192.77499390 336.95300293
203.13200378 169.84899902 410.60000610
121.44999695 132.33999634 388.51498413
182.48200989 226.09199524 452.81900024
123.35099792 168.28199768 451.81701660
206.78900146 144.48599243 362.30599976
185.69599915 150.46299744 340.99899292
155.41299438 186.18099976 432.60299683
122.92499542 215.92700195 412.71298218
267.23300171 230.36099243 401.33200073
216.88400269 178.77499390 399.05300903
192.85299683 218.86099243 445.83599854
227.23800659 168.71101379 378.74798584
157.79400635 192.88200378 422.86199951
190.63600159 183.27101135 401.29101562
152.03799438 102.84799957 406.96298218
281.14398193 200.98100281 396.27200317
240.12200928 234.02899170 434.85800171
174.72999573 230.63899231 424.60400391
258.45300293 192.18299866 378.72897339
164.60501099 99.44999695 401.61499023
206.62699890 117.62400055 408.52099609
169.47599792 222.49299622 437.54000854
184.40299988 228.78298950 367.83297729
201.13400269 174.34999084 351.94500732
193.41999817 103.68599701 404.92800903
161.31399536 202.23001099 430.62899780
179.46499634 101.87199402 417.41799927
248.87100220 214.22799683 410.84701538
169.38099670 150.31098938 438.76498413
181.92700195 212.25000000 401.42800903
251.01101685 193.62500000 392.76000977
140.55200195 197.81900024 345.36401367
209.93899536 131.84199524 407.25100708
233.58699036 172.19898987 394.82598877
120.53900146 177.39599609 446.46200562
153.96000671 197.67401123 339.74700928
184.05500793 162.75599670 336.90197754
112.38800049 148.00700378 404.02200317
274.10501099 220.75100708 393.26300049
287.69201660 199.29499817 383.75601196
243.13400269 220.67500305 415.79898071
259.03900146 231.23300171 419.73001099
117.04800415 144.30999756 391.29998779
191.22601318 151.27600098 431.72299194
110.02700043 192.19599915 436.61801147
172.65699768 191.90299988 337.96600342
156.13099670 107.48100281 372.95999146
118.08399963 129.37199402 437.23400879
157.92300415 233.92599487 407.80401611
122.97000122 206.94200134 441.59799194
177.84500122 181.62399292 425.79498291
247.52398682 230.43400574 391.61102295
124.84700012 121.23799896 392.41702271
230.62600708 207.84300232 374.93701172
176.28599548 118.09399414 359.94400024
196.46800232 108.25900269 388.31600952
223.50900269 190.42601013 416.14099121
157.26100159 100.66699982 393.13302612
182.48300171 111.66500092 372.12802124
205.49699402 196.19700623 415.52297974
216.10499573 244.70999146 399.92700195
205.80099487 150.67599487 414.22598267
112.12100220 193.16099548 401.61300659
142.98500061 128.23300171 458.60101318
138.65899658 227.98699951 429.63098145
161.39500427 206.28700256 346.70401001
169.45100403 99.11399841 397.57098389
134.18499756 128.16500854 461.83401489
233.39900208 183.14900208 401.79699707
164.34899902 142.26699829 335.19000244
109.86000061 145.66799927 454.77600098
106.51999664 161.77700806 420.80398560
228.11601257 234.86399841 449.00302124
293.51699829 232.71701050 419.93600464
189.94599915 132.52000427 354.90899658
263.06097412 216.48100281 389.95297241
210.83299255 237.51100159 456.71002197
208.98799133 188.95199585 358.89398193
173.07299805 175.60800171 332.94699097
121.74200439 206.63800049 381.65899658
215.50700378 202.13800049 367.99099731
140.34399414 107.44900513 404.44100952
129.15701294 193.10200500 351.46600342
195.29699707 241.95500183 402.43701172
178.83700562 202.66400146 346.38598633
155.95201111 158.72000122 443.82000732
260.92599487 208.59100342 407.50198364
114.20399475 153.65699768 466.33300781
148.60301208 137.19299316 450.38198853
280.46200562 208.46900940 386.21301270
173.35900879 225.59700012 364.28601074
193.36601257 183.41700745 346.45901489
142.33799744 227.04899597 391.98199463
182.96701050 190.88800049 408.54098511
213.44499207 231.62300110 380.97598267
231.87998962 214.78199768 418.29400635
125.38999176 185.74400330 428.14001465
192.89399719 178.70700073 409.69799805
239.95100403 200.96899414 403.48300171
174.26200867 165.47599792 332.36700439
149.76899719 201.63400269 344.52999878
211.20899963 150.60700989 405.46099854
218.69799805 240.13400269 387.98599243
312.51699829 213.49200439 400.48797607
157.06600952 101.44300079 412.57000732
178.75199890 150.03800964 436.38900757
130.05400085 171.72099304 340.70700073
289.50302124 207.64001465 386.02899170
127.89599609 183.08900452 346.24697876
212.62699890 174.00500488 373.94799805
202.22799683 174.35299683 414.95800781
152.71099854 210.38400269 352.53097534
110.82799530 178.43499756 401.25201416
110.08899689 166.75999451 458.07998657
115.30300140 138.78298950 458.36700439
293.63302612 223.90699768 418.93197632
114.78599548 131.77999878 409.22000122
114.18700409 162.42500305 460.43701172
220.96099854 212.25099182 373.10098267
223.27999878 237.52400208 452.89999390
152.43499756 138.50199890 336.35800171
142.76499939 148.64300537 334.45501709
213.37799072 244.21400452 413.15698242
180.27000427 203.59399414 422.89401245
203.36500549 109.85700226 399.58700562
272.66101074 197.50801086 381.05801392
104.37400055 154.66700745 429.65499878
117.48799896 202.21998596 390.09500122
131.10198975 136.09899902 352.18099976
244.80900574 246.90400696 414.13800049
109.73600006 187.65899658 411.59899902
118.57900238 180.08898926 362.74798584
214.40499878 138.65501404 384.75497437
192.47299194 169.61100769 343.29299927
104.84900665 175.79100037 435.26599121
268.72198486 202.79299927 403.39801025
183.76100159 184.34300232 339.81698608
175.98899841 228.29901123 442.24398804
172.88699341 235.82099915 379.10101318
142.29299927 213.12500000 438.05200195
163.96899414 223.60198975 417.52099609
162.59799194 117.31700134 356.38800049
206.03799438 171.50700378 394.25097656
128.31300354 119.20599365 384.97900391
115.20099640 201.13200378 396.19100952
150.22300720 171.25099182 443.78097534
212.64199829 179.74099731 403.04101562
169.21299744 118.09200287 356.96798706
200.80499268 243.35800171 408.14300537
130.67098999 113.87799835 396.30999756
197.83399963 194.45599365 398.38000488
176.94200134 235.06399536 412.70101929
131.31100464 224.76400757 433.95599365
143.11698914 113.12100220 368.90798950
164.70800781 127.43200684 345.25201416
112.70999908 204.99899292 420.93701172
245.95899963 246.55500793 427.73602295
143.02999878 172.40100098 443.87500000
207.27600098 119.90599823 385.40802002
143.65499878 139.21800232 338.18600464
108.86399841 197.66200256 433.61199951
201.51998901 180.86999512 352.51400757
144.43699646 108.41000366 378.41601562
306.33801270 196.91799927 384.73001099
147.24000549 111.84000397 446.26000977
126.43000793 205.72698975 368.83300781
275.29202271 203.84199524 384.31298828
263.67898560 226.78700256 419.97598267
140.64300537 223.12399292 379.48699951
195.99099731 106.42099762 409.90899658
118.32299805 127.03500366 408.23999023
237.98699951 242.74499512 443.47500610
189.72000122 221.93199158 361.85101318
172.66899109 225.76800537 417.58599854
161.48899841 169.14700317 441.18197632
107.14299774 169.84201050 410.60299683
185.10400391 196.68899536 406.09899902
226.39498901 222.02299500 429.73797607
252.90301514 197.47200012 379.41198730
192.37600708 144.72599792 349.24099731
119.91299438 126.26500702 420.79299927
266.03799438 237.62199402 428.04299927
180.28799438 232.67900085 373.08499146
142.68800354 201.28199768 421.86999512
170.69500732 217.43800354 441.14898682
233.69699097 194.86900330 400.94598389
157.41899109 129.80699158 444.19598389
189.34899902 206.41900635 430.43200684
235.25000000 220.79100037 420.83901978
236.63600159 217.34001160 380.99600220
204.62399292 163.40899658 417.06298828
209.82000732 121.38500214 398.13000488
187.23399353 240.17399597 411.06799316
194.17700195 178.11000061 426.25299072
168.50698853 206.00999451 426.05700684
154.42100525 152.48699951 331.27200317
109.52299500 171.96199036 400.19500732
294.35900879 208.73199463 402.58700562
287.68701172 215.63800049 412.27099609
158.74299622 158.60598755 328.44998169
170.30000305 213.73001099 419.97201538
198.21099854 195.97999573 354.10601807
114.63400269 205.73599243 412.29098511
205.80099487 238.27398682 452.46301270
253.33801270 236.24099731 397.58700562
231.39900208 242.08999634 389.97399902
146.75900269 155.57099915 446.95599365
219.30099487 181.56599426 368.06900024
275.11901855 222.14799500 420.49398804
133.28100586 207.96699524 362.42498779
115.22000122 168.05000305 384.26699829
193.64799500 152.48901367 347.16799927
117.69699860 141.77000427 467.68798828
184.13099670 232.43099976 393.24099731
131.30799866 178.62098694 341.10998535
190.09700012 127.33499908 358.83901978
155.03401184 199.17100525 433.31097412
180.82000732 132.45298767 348.05899048
196.10400391 233.25000000 455.08200073
181.27900696 216.57598877 444.69400024
167.69799805 175.86499023 330.98300171
158.91000366 121.71500397 446.35400391
217.28601074 233.25599670 452.78399658
141.96200562 120.47599792 357.30099487
274.20700073 193.47000122 388.22299194
105.96299744 175.09800720 450.30401611
122.78900146 211.60000610 392.08499146
191.63800049 217.48300171 358.51699829
218.23500061 187.81599426 414.43197632
171.86999512 108.08700562 372.52999878
174.34500122 133.00000000 434.19598389
166.89700317 114.84700012 440.11300659
114.40399933 136.48300171 444.95202637
177.59999084 102.91799927 422.81402588
212.73399353 139.47099304 397.51898193
152.55300903 186.21299744 423.02899170
162.91000366 180.09500122 438.31698608
192.65100098 114.36700439 375.30401611
171.07099915 187.51400757 334.73797607
196.09500122 164.00900269 346.45797729
233.63200378 169.83799744 387.55200195
179.95999146 169.81199646 436.63497925
232.77999878 244.49198914 433.26699829
127.17800140 117.54400635 420.51602173
183.50900269 183.87899780 414.13400269
105.42500305 177.97599792 430.07598877
136.99301147 149.89100647 337.27301025
177.37998962 231.16000366 430.63400269
178.86898804 187.03700256 409.11199951
112.71399689 189.85700989 396.45001221
134.85899353 143.35000610 341.55999756
179.91400146 231.24400330 439.37799072
164.20899963 195.14698792 337.36801147
278.71002197 190.39399719 382.10101318
214.43499756 175.52200317 381.03601074
154.32600403 134.03900146 339.25198364
222.23800659 221.58299255 376.45700073
149.54499817 218.04901123 362.94201660
272.51800537 237.15800476 423.26300049
185.86799622 235.78399658 430.58300781
272.85000610 197.08999634 393.97399902
136.52799988 202.99899292 433.96697998
176.43399048 191.59400940 418.15100098
179.37300110 112.27300262 431.40798950
192.63400269 227.51399231 457.79699707
223.02400208 237.27500916 385.23599243
131.23300171 134.37100220 463.90200806
231.27999878 175.89401245 400.85101318
118.71600342 213.43000793 419.48800659
162.99000549 216.64099121 356.57998657
236.95599365 182.22700500 383.70300293
150.77799988 230.96899414 385.24801636
277.33901978 232.18899536 414.28399658
231.84899902 246.00100708 420.27099609
149.16700745 182.06599426 438.67599487
190.63800049 155.78800964 343.58599854
136.00599670 110.24200439 385.56701660
204.35099792 201.21900940 417.85299683
303.24798584 217.75000000 396.27999878
238.26499939 232.36801147 387.82501221
140.70999146 121.80300140 458.75497437
257.88500977 239.65998840 402.69601440
109.84400177 141.89100647 413.29602051
155.56600952 121.20800018 351.33001709
107.40100098 144.85000610 428.05401611
284.76599121 225.81599426 399.53399658
216.38398743 195.99600220 365.48199463
192.89700317 118.04599762 426.14401245
257.89099121 242.60998535 413.74600220
278.46200562 226.75299072 399.44400024
185.27198792 208.39500427 403.65899658
132.42199707 219.38499451 387.44400024
170.98901367 190.55599976 422.72201538
128.25900269 151.50299072 346.17901611
222.32099915 227.04699707 442.73300171
128.70199585 122.48200226 448.91598511
213.40499878 176.83898926 392.07000732
141.13800049 184.56498718 432.11401367
158.36199951 192.44700623 335.83398438
175.12600708 144.50000000 337.80899048
174.90600586 100.03399658 411.59100342
220.99900818 242.77999878 434.89700317
157.74400330 222.88499451 365.16400146
155.00601196 228.30801392 375.28500366
131.01899719 114.35099792 404.87097168
135.67900085 212.44900513 438.58401489
152.06300354 198.05699158 427.49499512
179.17700195 197.80400085 419.35598755
108.79699707 162.43701172 409.37799072
122.83200073 188.85000610 356.83102417
271.86700439 230.52400208 404.33300781
172.06500244 102.70700073 383.96899414
276.77600098 233.89999390 430.77200317
123.64400482 220.63999939 437.70001221
200.65599060 232.82901001 458.88702393
186.44400024 143.04701233 431.41601562
122.35400391 151.57600403 366.62799072
263.44100952 205.84399414 384.23800659
103.31399536 169.03700256 436.60501099
298.15997314 203.11199951 383.52902222
225.79798889 175.45899963 401.00500488
209.16500854 165.48199463 367.39297485
189.65399170 188.22799683 403.45300293
202.35099792 110.49800110 407.35098267
170.74899292 161.71400452 441.39901733
114.39099884 189.23699951 435.09201050
145.23799133 132.18901062 342.48999023
184.01400757 189.47200012 342.65200806
112.16899872 205.55999756 437.26797485
282.28598022 208.76300049 405.16598511
183.75900269 206.63499451 410.36099243
295.25598145 229.78100586 409.54101562
120.83700562 124.75900269 414.91198730
182.96000671 219.88900757 450.29602051
200.51699829 155.75599670 423.60800171
198.15499878 230.82701111 382.42199707
184.05799866 135.95899963 431.52301025
126.01399231 196.91200256 422.09197998
206.61898804 162.21800232 400.82800293
175.70899963 150.45700073 336.00900269
143.35099792 192.41799927 339.67098999
284.93402100 227.93800354 425.06997681
144.95500183 104.52400208 389.07998657
207.22299194 128.29299927 374.80398560
212.53900146 220.56199646 440.62799072
236.13198853 245.41099548 398.22702026
291.87200928 193.72900391 384.42501831
126.12399292 135.44200134 363.30499268
156.08399963 178.38700867 328.70401001
305.20800781 223.83500671 406.20498657
299.15402222 230.15299988 414.65600586
130.12098694 125.60600281 458.19500732
283.05798340 204.72801208 399.73800659
296.00399780 208.21400452 386.78500366
160.98199463 236.80400085 391.50000000
186.21200562 102.85900116 412.94799805
203.99600220 241.86499023 419.16497803
284.85299683 216.99899292 390.82199097
168.08799744 218.71499634 414.88299561
229.03900146 241.18701172 446.22900391
120.45200348 194.26199341 428.79299927
205.48599243 241.90800476 397.22500610
196.78599548 204.99099731 393.80200195
168.91999817 220.61698914 432.13702393
213.70199585 195.07400513 418.92800903
104.52699280 165.33300781 454.60598755
159.55599976 230.69999695 424.14001465
203.50700378 198.45899963 360.07699585
128.01300049 119.20500183 439.30398560
169.98500061 209.68699646 350.53900146
112.72899628 159.32600403 389.89700317
145.38499451 219.61799622 368.08499146
163.55000305 202.10600281 343.45401001
222.02200317 176.37600708 377.36599731
177.76300049 179.99899292 335.88497925
112.74700165 171.13800049 454.31799316
172.90499878 155.88499451 333.83102417
141.19499207 159.72499084 333.48400879
169.96099854 145.60099792 336.03799438
133.41101074 121.32599640 451.96899414
130.96099854 170.76499939 447.35598755
192.35398865 198.85499573 399.76998901
137.94200134 109.08499908 408.98098755
175.89999390 210.82099915 411.92498779
141.88400269 196.86700439 413.77099609
116.50700378 202.00500488 439.45101929
201.42300415 209.58399963 429.52200317
212.97100830 132.36700439 382.97201538
234.95100403 205.82699585 410.54299927
264.55599976 236.17500305 404.71499634
147.79800415 105.86699677 381.74301147
196.71000671 143.10499573 426.48300171
163.50300598 137.97799683 438.87200928
225.83399963 169.60099792 395.49600220
141.74899292 228.51300049 418.15899658
202.77499390 115.79900360 383.38299561
197.91400146 242.13899231 415.42498779
131.43099976 130.18399048 357.63800049
164.02099609 130.93000793 439.37200928
207.70700073 117.67199707 401.34701538
146.10501099 175.06500244 330.83401489
109.98000336 194.43899536 417.81399536
192.11100769 230.48899841 388.53698730
114.81700134 186.70700073 381.19699097
187.65299988 207.81900024 351.91198730
123.98600006 207.06900024 376.17700195
127.98400116 190.15798950 419.99499512
141.99699402 107.83599854 415.48098755
119.61299896 126.66699219 432.92401123
112.52999878 135.73500061 412.06600952
113.40200043 180.36599731 389.58499146
165.04600525 106.63399506 375.06298828
213.45199585 137.07701111 392.84701538
305.93698120 206.41699219 385.81698608
175.41200256 117.23400116 435.61102295
110.12300110 184.58700562 407.30899048
148.43800354 231.34001160 429.02899170
160.35400391 216.02900696 428.21197510
235.51901245 192.25099182 396.73199463
150.90499878 114.45899963 361.15301514
159.93901062 186.91799927 332.94799805
161.47500610 107.83499908 371.33099365
238.71099854 186.39700317 379.30398560
192.68099976 210.53700256 400.85299683
208.98400879 180.91699219 408.25500488
245.51800537 202.27700806 380.39898682
108.26600647 157.75500488 463.28399658
125.17400360 148.49800110 355.21298218
124.33300018 119.82999420 403.76599121
263.66497803 201.71899414 402.47198486
268.57699585 231.37500000 426.28298950
224.19799805 193.90800476 368.10400391
195.48001099 158.62500000 428.92300415
246.08700562 197.28900146 378.48800659
220.41699219 212.90199280 423.11001587
172.71099854 229.70700073 412.62399292
188.66500854 192.11700439 396.83599854
155.45498657 106.48699951 435.32400513
170.96099854 195.20199585 425.47900391
172.71701050 183.81799316 430.51699829
145.54100037 118.42800140 454.40200806
117.04499817 160.82798767 379.23898315
117.99199677 170.81900024 452.52499390
176.53300476 206.85000610 421.27001953
242.41900635 232.65800476 428.71798706
187.96699524 199.43299866 410.71798706
194.67001343 182.58799744 415.44500732
207.42500305 213.25000000 431.62399292
158.17900085 148.88400269 331.05001831
122.60199738 132.29901123 461.19400024
184.80299377 201.73800659 420.41702271
133.43099976 221.99000549 398.53399658
230.57398987 188.40899658 370.69201660
214.40299988 157.60600281 380.26898193
304.88601685 212.21000671 391.85900879
179.29998779 208.85301208 432.47399902
291.04598999 232.69699097 425.77297974
174.43400574 184.66700745 423.32199097
186.32299805 110.90800476 375.54202271
112.64400482 136.54299927 428.58499146
151.63999939 147.37998962 445.96099854
198.77799988 195.34799194 412.26800537
270.20001221 221.96200562 418.84298706
191.67298889 123.22500610 364.45599365
163.15699768 195.28100586 429.09698486
222.50900269 195.51699829 416.02502441
125.92900085 219.80799866 419.28298950
297.07199097 222.15199280 397.86898804
124.67599487 163.58000183 346.88299561
106.23699951 188.36799622 435.74099731
181.63200378 169.41600037 407.09600830
212.14700317 215.74400330 373.62799072
184.38301086 145.12600708 341.83499146
219.64601135 203.84800720 370.58099365
188.39801025 169.37200928 433.58200073
187.88899231 177.06799316 339.88800049
182.72000122 105.53900146 382.25000000
198.41000366 147.96798706 426.33398438
302.55200195 226.31399536 416.17901611
125.41800690 120.13500214 412.15597534
227.21199036 197.85598755 370.94799805
169.50799561 225.56900024 408.06799316
175.51899719 237.39999390 397.13699341
105.69799805 173.03498840 426.38800049
252.95799255 238.10499573 424.80297852
247.73399353 243.01600647 401.86700439
124.40799713 128.56500244 384.86001587
215.52301025 244.10299683 417.82598877
109.90399933 199.61898804 428.85900879
141.46899414 155.10200500 450.11300659
137.58200073 202.65400696 425.35800171
116.55099487 195.12500000 381.60198975
205.11599731 146.23400879 416.69900513
187.55699158 187.68299866 409.73898315
195.89500427 220.02600098 370.26699829
254.74000549 200.57701111 402.50302124
227.88398743 211.22799683 418.20999146
191.13899231 126.42499542 428.25399780
256.82897949 242.03099060 407.43499756
117.78099823 132.80999756 449.31500244
171.18699646 181.27600098 435.05700684
119.62200165 160.36000061 459.27600098
268.71401978 216.11799622 413.63098145
175.40899658 220.05200195 412.66799927
227.29399109 206.02600098 416.03298950
119.69900513 126.90399933 397.45101929
305.32501221 199.93400574 391.19400024
249.10198975 209.73699951 408.44198608
159.94599915 232.59700012 379.34698486
153.44799805 209.31201172 431.96801758
199.12300110 225.12400818 452.16799927
183.84001160 178.94400024 429.51300049
227.61199951 228.40499878 440.56002808
164.41899109 100.54199982 389.45300293
167.69100952 219.45999146 357.84500122
292.34799194 204.61599731 397.72998047
173.94799805 154.66499329 438.66900635
199.39100647 110.17900085 411.94900513
176.93800354 105.46199799 379.66400146
105.06399536 183.54499817 428.32101440
250.97700500 216.98098755 386.74899292
184.94500732 118.55300140 429.90301514
109.30100250 141.79598999 418.41500854
213.50399780 240.89099121 390.42898560
250.46301270 245.50599670 417.97799683
211.14599609 123.64599609 390.05099487
192.11199951 236.53199768 437.74301147
170.96200562 169.92401123 438.79397583
258.01599121 197.56700134 379.09899902
131.57099915 183.26499939 430.67102051
204.91999817 126.82600403 416.67102051
180.38700867 234.61799622 402.10501099
128.27700806 159.55999756 342.81399536
151.27200317 232.87699890 392.11999512
171.40600586 115.77499390 360.88400269
139.48699951 109.68299866 381.79202271
184.11499023 202.44699097 414.89401245
158.09201050 203.06399536 344.65301514
103.08599854 162.83599854 444.08099365
230.00698853 177.16999817 373.36502075
141.22000122 164.85899353 446.58200073
264.58200073 201.20599365 381.52700806
153.88299561 125.79999542 345.84100342
224.72799683 244.47399902 393.07299805
257.69000244 233.37500000 397.31698608
182.69799805 171.58900452 336.89001465
267.61697388 210.94700623 410.13699341
274.00900269 231.73800659 408.97000122
134.03601074 150.33200073 456.01202393
127.46000671 210.04800415 373.91598511
195.82099915 237.96400452 433.40399170
113.87999725 143.35499573 464.80798340
238.98799133 244.24000549 438.78497314
188.89900208 221.08900452 449.87802124
207.12699890 193.67199707 360.18801880
194.12899780 201.43600464 417.85800171
174.58500671 99.54299927 406.38500977
218.57600403 155.37998962 388.22201538
151.34300232 204.60000610 433.92700195
134.59600830 205.27699280 357.10998535
119.98300171 200.14799500 375.42401123
153.21199036 102.69400024 415.95501709
106.47799683 151.12599182 443.45501709
239.61799622 246.38900757 404.43899536
180.86199951 141.22299194 342.11999512
200.92999268 167.29499817 422.63299561
270.16000366 237.17500305 416.04901123
200.87300110 174.48599243 420.15499878
158.26499939 208.75099182 349.70901489
116.44300079 207.25700378 406.63000488
200.94299316 146.34298706 356.30200195
212.87800598 183.06800842 361.02600098
175.85699463 176.78399658 435.71798706
120.14900208 178.90899658 357.29901123
142.02400208 226.27999878 438.37899780
198.90299988 237.26499939 444.84002686
198.59899902 119.57699585 373.94699097
136.33200073 192.68199158 413.81600952
131.19601440 115.06400299 385.72299194
153.07598877 191.90199280 414.78298950
133.97898865 120.59100342 367.27200317
138.07398987 115.96199799 364.74902344
120.81099701 190.39799500 361.91897583
305.65899658 206.04200745 399.94601440
247.68400574 190.99499512 384.40899658
169.51100159 163.46299744 331.26898193
296.14099121 229.93199158 423.10198975
192.01600647 198.02799988 391.12799072
165.02600098 209.85600281 350.67300415
178.79499817 145.45199585 434.49499512
151.74800110 219.35400391 433.95401001
166.04299927 103.90000153 380.14599609
129.44799805 148.80799866 460.00601196
207.88000488 204.14300537 419.73400879
134.39300537 185.10299683 422.26599121
307.94900513 201.93199158 385.22198486
126.49500275 117.44300079 395.13702393
112.44100189 141.85301208 404.19097900
136.16099548 135.16000366 346.09402466
241.41099548 204.70500183 406.36502075
161.70300293 220.60299683 425.05401611
152.68800354 111.66300201 446.29602051
180.83799744 118.72599792 361.74899292
117.91699982 128.76098633 424.80401611
137.29800415 113.91799927 375.72198486
312.69601440 210.19299316 395.80200195
239.09600830 238.07400513 391.50802612
198.95100403 113.90399933 418.13497925
219.73001099 221.58700562 435.80401611
208.36099243 159.95399475 409.52499390
116.99400330 212.97801208 440.60800171
222.17500305 243.88200378 428.89599609
237.05300903 200.56199646 375.77502441
180.90699768 126.26600647 353.65499878
285.02200317 205.63200378 386.36898804
167.13400269 238.06298828 390.49801636
181.35499573 179.78799438 408.18301392
127.97999573 129.44099426 367.15200806
288.32699585 220.31399536 393.25198364
207.48999023 166.69200134 376.78701782
133.83500671 191.49099731 345.73001099
312.94400024 205.12699890 401.06201172
159.26599121 233.36399841 417.43902588
199.61000061 178.99099731 421.76898193
139.62300110 107.20399475 390.02200317
240.48300171 246.78199768 425.56500244
228.63499451 212.19200134 376.00201416
117.51999664 214.90100098 431.27700806
174.84899902 219.46400452 406.02499390
260.29299927 220.67298889 415.48498535
141.75199890 184.26100159 336.22598267
197.40100098 200.70899963 398.61499023
243.92700195 198.07699585 399.47000122
133.50900269 223.61999512 440.12600708
202.93399048 220.50599670 375.17498779
250.78201294 206.85299683 383.57400513
202.67399597 185.90399170 413.63497925
289.33502197 233.05499268 417.44100952
201.32299805 151.16400146 355.06600952
107.84400177 192.02600098 424.95098877
210.98999023 155.44499207 406.07101440
120.10599518 152.31799316 464.77899170
171.16198730 228.15798950 367.80300903
148.01100159 154.26300049 331.00100708
125.02301025 177.43598938 444.56500244
175.17500305 139.77999878 339.63000488
178.10499573 111.65399933 370.00000000
150.42401123 198.62300110 420.80798340
182.53999329 153.58300781 436.36398315
126.91799927 221.71499634 428.21401978
185.22299194 224.04701233 362.50900269
209.95800781 159.60699463 389.95501709
219.57400513 216.16500854 426.91799927
183.86499023 232.22599792 442.01400757
221.20399475 228.62799072 380.32202148
192.11801147 133.33000183 428.63900757
238.92300415 246.85198975 416.50500488
207.30899048 215.58601379 373.01098633
106.34099579 151.76499939 419.01202393
158.02000427 112.68199921 445.11700439
115.50799561 179.16299438 377.29998779
298.20199585 194.42999268 383.74002075
232.30299377 226.08500671 431.37197876
171.76599121 125.39599609 349.82800293
123.45899963 159.25900269 352.00500488
234.50100708 197.11199951 373.54299927
254.59098816 195.46900940 396.30999756
150.09999084 114.95899963 450.33898926
194.46598816 198.55200195 352.45599365
210.51800537 145.13800049 405.50399780
212.81599426 189.59001160 418.93301392
113.82900238 149.70399475 397.54901123
180.75700378 208.70800781 349.86001587
180.66999817 210.99301147 411.21701050
208.03199768 135.50000000 369.78900146
231.25900269 165.95300293 385.96298218
270.68099976 212.42100525 387.97900391
119.77899933 143.23699951 376.60198975
188.86399841 228.78800964 385.33599854
280.55099487 233.82600403 418.99801636
210.83499146 135.45199585 374.73999023
247.18600464 235.36399841 393.07800293
122.19899750 189.08799744 426.61700439
197.56401062 105.43700409 400.44799805
166.13499451 233.59700012 408.41201782
208.03100586 161.58399963 394.60302734
220.02301025 245.11698914 406.20300293
160.43199158 186.08500671 434.50900269
311.89901733 215.45800781 406.18801880
205.25799561 185.47599792 419.06600952
194.16500854 214.75000000 442.43698120
219.13099670 240.34300232 450.76901245
175.23500061 176.45999146 402.99600220
249.23899841 238.35499573 427.89700317
142.60198975 206.76199341 353.15499878
203.52700806 120.65499878 417.06298828
132.69000244 112.57699585 400.44799805
149.93099976 231.36000061 401.82598877
278.32901001 212.33799744 388.04299927
217.53900146 206.82400513 419.55999756
109.00199890 158.10499573 413.01101685
156.60000610 235.57501221 397.58300781
243.17201233 228.67999268 424.11199951
132.80200195 112.80999756 415.00500488
208.00100708 243.85101318 408.35601807
207.47500610 236.32299805 385.25399780
137.35600281 113.25199890 434.84698486
171.42100525 236.33999634 405.76400757
214.76901245 151.07800293 367.37200928
206.08200073 116.39299774 388.48001099
142.60299683 211.13400269 358.00701904
113.49300385 135.93099976 437.99200439
227.71200562 184.16200256 410.22900391
120.48500061 157.97300720 367.48999023
106.66300201 148.77699280 437.76898193
129.84899902 181.00700378 437.58300781
199.92401123 185.62998962 408.36599731
124.21599579 199.09399414 363.62600708
151.70599365 106.13100433 377.46398926
200.18699646 214.06100464 366.87298584
152.24800110 129.58599854 450.20602417
257.56298828 212.61399841 387.16098022
145.33000183 161.87300110 446.54199219
215.34700012 143.60200500 387.08801270
267.42700195 191.37098694 386.59600830
151.15800476 184.49400330 332.94497681
210.64099121 125.06699371 400.98501587
218.97299194 182.48300171 407.22598267
210.09999084 174.31500244 386.36898804
133.28999329 113.76499939 426.51300049
119.69300079 141.14199829 383.72100830
180.96800232 196.99299622 415.04602051
311.46801758 200.60198975 393.66000366
107.52799988 176.13999939 409.66299438
174.58100891 175.63099670 396.82998657
167.61300659 154.11000061 331.17602539
189.63999939 228.63299561 377.56298828
123.54999542 154.33299255 355.36798096
179.56799316 163.93099976 438.95999146
268.20599365 195.98100281 381.29998779
147.82301331 106.45899963 425.61099243
155.34399414 219.20700073 361.77301025
189.88600159 203.33500671 401.01800537
190.99800110 180.45300293 343.24700928
168.32099915 223.39099121 361.55099487
189.94900513 207.96099854 403.79199219
147.66799927 189.33999634 413.10198975
133.77000427 180.38999939 440.87899780
209.31500244 171.28799438 358.77401733
136.98199463 111.17500305 422.67999268
188.88400269 175.45899963 406.71099854
149.82000732 131.58399963 341.67797852
176.17700195 235.39300537 407.28399658
119.93000031 124.83199310 404.42898560
199.67300415 159.45201111 350.54800415
117.80300140 134.78500366 455.72201538
160.01400757 140.60499573 335.81298828
121.64700317 136.35798645 384.33599854
122.94100189 178.14199829 350.63699341
143.67700195 219.39801025 439.15399170
108.68099976 143.80699158 433.89599609
183.08399963 182.41999817 401.64300537
265.10900879 239.24000549 410.71502686
168.49400330 230.95899963 371.77899170
163.57000732 148.14500427 440.71200562
235.14799500 245.73100281 427.02001953
143.35000610 139.92199707 453.43899536
194.75300598 170.06799316 429.06500244
198.02600098 186.35598755 350.78601074
182.40599060 182.05200195 424.91598511
155.35800171 213.16300964 355.17999268
169.84100342 112.85199738 437.10198975
142.24000549 105.47200012 398.89898682
246.55799866 190.87699890 379.74301147
214.58700562 148.31700134 397.83798218
211.35600281 227.13301086 449.86001587
167.65699768 99.90000153 415.02301025
220.32299805 186.53599548 365.99401855
127.63099670 169.43099976 450.32098389
121.67500305 199.57600403 433.49099731
147.46600342 230.72900391 416.67800903
129.73300171 140.43399048 350.07299805
167.08099365 213.32299805 423.29901123
144.38000488 228.77000427 406.43298340
216.48699951 212.01800537 371.86801147
127.69100189 217.02999878 395.10800171
305.79998779 218.86799622 413.13201904
131.75900269 217.31599426 380.04898071
183.64399719 233.61599731 382.43200684
205.06300354 178.65200806 355.48300171
189.26000977 171.46000671 340.48199463
110.82099915 196.13200378 412.33999634
315.76800537 202.48699951 397.58499146
180.24400330 227.02301025 364.91098022
193.48500061 209.05200195 433.86199951
123.43099976 156.69299316 459.61499023
186.86799622 235.07299805 435.04598999
174.03300476 170.35800171 332.97299194
226.83699036 164.35800171 394.91900635
295.35498047 198.29299927 389.61700439
122.45500183 219.47099304 432.07202148
260.07800293 219.71400452 391.38098145
121.78199768 213.10600281 405.09997559
173.95399475 99.47100067 401.28698730
153.82798767 225.25399780 371.55899048
160.71200562 235.89801025 404.69000244
299.85202026 198.40599060 381.33499146
165.48800659 158.87998962 441.32098389
202.76199341 156.30699158 419.35000610
118.28400421 136.45399475 393.62100220
281.28201294 221.78100586 419.98498535
207.32299805 207.70500183 367.39901733
186.02799988 102.68899536 392.70599365
149.24000549 222.61999512 371.00198364
116.90600586 175.03700256 368.92797852
114.60799408 154.47300720 384.98397827
179.16200256 191.31800842 340.46701050
246.60800171 223.56800842 416.66299438
160.11999512 99.57099915 398.27902222
138.64700317 127.22000122 461.22198486
204.70700073 169.60699463 399.98999023
176.44200134 225.64601135 447.81698608
226.78599548 172.94900513 377.01699829
209.08200073 174.84500122 393.38497925
126.59400940 217.46099854 441.21600342
183.48999023 236.65399170 425.42700195
206.99499512 142.27299500 412.91799927
156.11100769 190.10099792 417.72799683
176.98500061 122.74099731 434.02902222
113.63100433 133.44599915 416.26901245
125.84600067 168.41400146 344.73602295
117.57499695 191.71800232 373.75500488
156.52600098 145.60600281 443.68899536
106.39099884 184.12699890 421.57800293
173.06399536 102.55899811 423.92999268
109.67300415 179.73899841 447.71600342
303.85598755 214.99000549 409.80700684
121.30599976 199.70199585 370.16699219
190.81999207 103.12500000 398.92001343
310.45300293 211.19999695 407.80599976
144.69900513 126.40300751 347.73300171
115.80300140 163.53799438 382.82098389
106.61199951 155.59600830 459.43899536
120.65100098 185.79899597 432.55801392
189.07499695 208.96699524 435.02600098
111.74300385 202.40600586 424.95700073
110.73500061 174.57699585 452.02499390
155.69999695 225.34201050 430.27600098
182.73199463 196.83299255 344.96398926
218.46800232 150.22399902 383.05999756
298.12197876 224.03399658 418.16699219
220.85798645 241.97100830 440.56500244
191.25900269 226.66299438 371.52798462
189.47500610 202.29499817 422.55300903
186.39401245 198.68899536 347.52700806
162.83300781 106.02799988 435.08099365
219.27499390 177.13800049 394.48999023
112.74500275 135.88600159 423.72900391
247.00300598 194.65998840 394.64199829
176.04499817 184.06500244 334.16799927
144.16700745 164.21600342 331.02999878
233.20500183 232.90600586 441.62802124
145.44599915 180.41899109 440.69201660
159.55999756 209.33399963 430.14099121
152.79800415 146.64100647 332.97601318
282.27401733 228.18798828 402.49197388
132.31300354 222.13099670 404.38900757
151.76800537 109.29199982 370.49401855
263.73898315 241.10299683 420.67901611
210.42500305 170.68000793 368.11700439
103.29599762 159.91600037 436.27499390
182.06900024 217.80699158 356.45602417
241.22000122 189.73199463 376.04299927
185.62799072 215.55000305 442.91299438
280.62701416 219.85000610 392.58001709
253.27000427 223.89799500 416.17398071
262.31900024 194.35900879 392.68301392
282.79598999 235.85299683 426.84899902
120.18900299 217.61799622 439.56399536
269.00299072 208.77600098 385.92999268
182.15901184 158.70500183 336.36502075
111.59099579 141.51098633 447.99798584
309.24099731 210.83900452 392.98999023
227.67298889 196.92799377 410.51400757
199.30000305 241.06500244 398.09399414
170.80400085 212.41999817 429.53601074
139.37899780 188.55300903 339.85702515
228.14599609 243.01800537 438.24499512
157.71000671 138.86399841 442.36099243
211.86000061 210.71499634 425.77902222
135.07099915 138.41999817 460.25000000
149.55599976 165.13699341 443.85998535
170.47299194 138.10198975 436.34500122
140.79501343 202.94000244 349.83898926
176.83599854 219.75000000 357.37698364
186.68000793 230.40600586 451.85501099
151.92599487 119.17099762 354.25299072
194.58999634 238.24000549 393.71301270
183.23800659 203.18199158 406.65499878
105.70300293 150.24900818 424.60000610
178.73098755 101.66999817 390.11801147
161.32000732 110.74099731 441.35601807
226.27600098 221.20899963 378.34701538
130.12200928 115.34299469 417.96600342
108.19100189 168.34400940 405.23400879
195.29501343 213.86000061 358.76000977
192.68399048 196.43800354 405.78100586
280.88302612 193.46099854 386.19598389
192.86698914 111.72500610 378.90100098
275.29000854 224.66899109 397.01397705
253.15299988 211.74900818 385.43298340
170.34300232 224.82901001 433.83499146
221.27400208 156.80200195 377.87197876
132.83799744 115.38200378 434.59201050
218.44198608 229.89801025 449.61999512
190.57800293 181.79699707 423.61898804
233.45999146 180.13600159 374.79598999
154.16499329 104.76300049 425.87597656
109.81000519 163.22200012 399.81201172
241.57699585 223.87899780 384.91201782
151.99699402 229.15899658 380.00399780
120.64299774 150.13299561 371.12600708
257.22900391 227.70201111 394.03799438
183.13999939 107.71700287 378.39199829
134.46099854 163.13900757 449.86798096
180.36000061 174.90800476 434.94900513
228.06300354 245.86599731 401.36001587
184.86900330 101.25399780 405.04397583
138.08000183 170.44000244 334.27700806
152.51499939 162.02600098 328.41900635
121.69599915 211.51199341 396.83099365
312.66702271 207.60198975 404.73602295
127.97099304 223.04299927 436.93701172
224.77899170 245.36700439 412.07699585
161.30499268 101.97499847 421.98898315
278.30099487 209.68000793 407.75701904
184.05699158 212.70401001 438.98098755
103.57099915 167.93000793 451.14999390
164.51199341 125.05200195 439.97000122
170.61599731 169.57400513 398.01699829
147.91999817 185.43699646 424.91900635
167.98699951 238.10000610 398.92001343
181.30599976 206.63499451 401.08801270
126.60999298 128.23899841 458.70101929
168.09498596 106.95099640 433.39498901
228.90800476 203.17498779 412.40899658
192.46000671 188.06999207 347.41101074
133.60899353 219.30999756 441.45101929
135.25199890 109.90999603 396.07098389
185.81199646 174.64700317 399.53500366
256.33599854 242.06001282 424.23800659
198.63900757 206.16200256 425.01800537
190.61900330 177.19000244 428.93402100
137.45300293 114.95800018 439.02700806
209.09700012 239.80299377 446.47299194
116.55799866 140.25401306 396.06799316
143.82299805 227.45899963 387.47998047
186.09300232 215.53898621 355.30999756
251.67098999 230.61999512 419.69601440
235.21200562 239.81199646 390.40698242
290.91900635 209.96099854 405.09600830
155.45498657 217.80799866 431.44598389
151.83499146 186.48100281 417.92602539
163.73400879 213.45899963 426.14199829
104.79400635 178.87500000 441.75799561
114.42399597 203.35600281 406.60900879
291.08398438 200.12800598 393.56900024
263.46002197 221.75698853 393.29400635
177.27699280 211.35699463 351.34802246
214.65299988 156.01800537 396.82098389
198.90100098 130.02499390 423.45800781
145.07499695 202.98600769 434.52099609
223.33599854 204.15901184 416.34600830
184.96099854 107.35800171 423.33200073
110.04100037 147.80999756 462.05300903
229.15800476 238.84500122 450.51699829
271.48898315 209.31401062 408.69799805
133.80000305 200.39399719 417.54202271
198.47000122 192.64698792 407.07202148
240.44198608 189.49000549 387.37802124
147.03401184 227.92900085 434.87799072
215.09901428 243.02000427 427.22000122
144.97799683 106.73699951 419.60400391
166.58200073 150.22799683 332.92300415
286.48599243 212.23899841 409.78399658
235.36900330 175.20100403 390.61001587
212.18800354 135.13900757 397.19097900
138.62500000 188.67201233 415.04800415
173.05000305 213.77600098 414.81997681
156.80799866 233.15200806 413.28100586
181.90299988 211.41999817 394.59402466
176.16499329 169.30699158 399.19497681
233.72900391 174.37100220 377.88598633
237.88600159 244.71800232 434.59298706
165.64700317 170.37899780 441.60501099
170.46800232 212.99900818 433.91799927
127.82700348 140.22399902 355.10198975
195.73399353 191.32901001 396.01901245
206.95899963 166.62699890 381.10598755
158.10101318 100.77100372 408.39898682
216.39401245 218.35400391 432.97201538
173.04499817 221.59899902 416.41101074
199.33900452 122.91000366 422.21502686
163.06599426 224.66999817 364.96401978
223.47399902 218.05200195 426.59301758
176.05101013 128.93598938 434.02798462
255.55300903 204.31900024 383.60299683
151.38000488 213.53900146 433.80697632
116.52600098 133.22601318 398.80697632
199.16699219 204.28698730 359.78399658
124.11700439 120.75599670 428.01898193
209.19099426 199.73400879 364.14199829
105.58100128 167.38099670 426.53598022
160.28698730 192.97500610 426.41101074
127.20500183 172.48600769 343.88400269
174.75799561 214.67599487 440.80401611
260.72500610 191.70600891 387.61801147
223.51300049 172.95999146 386.28100586
197.85800171 138.63598633 357.30697632
197.03599548 173.81300354 348.14199829
174.41600037 220.97200012 447.28799438
219.15699768 175.72698975 382.87899780
161.21701050 99.74599457 404.28701782
206.71800232 133.81600952 414.58700562
