ply
format ascii 1.0
element vertex 512
property float x
property float y
property float z
end_header
151.88400269 230.13400269 449.17800903
149.62699890 230.31500244 444.19900513
159.41799927 227.57899475 452.35198975
144.45999146 229.89801025 455.14199829
153.20899963 227.68499756 458.51300049
142.14999390 230.78500366 447.60800171
161.29499817 228.32398987 445.41000366
157.90499878 229.43200684 439.84899902
142.50999451 231.02099609 440.79699707
158.47698975 225.25500488 459.28698730
150.54600525 230.15699768 435.87802124
145.82798767 228.37699890 461.33801270
137.24899292 230.59899902 451.94799805
136.16000366 231.06700134 446.45300293
143.27700806 230.69499207 435.56100464
138.80599976 229.26499939 458.63800049
167.12899780 224.15000916 450.83801270
163.83000183 223.43299866 458.88000488
164.39700317 227.97599792 437.69299316
155.41499329 224.55200195 465.06500244
149.11499023 225.69499207 466.26699829
157.34700012 229.29400635 431.87902832
168.55700684 224.84899902 444.09701538
139.63200378 227.73699951 463.38098145
160.95199585 222.40699768 464.82101440
163.16699219 228.47700500 432.66400146
133.92199707 229.09399414 458.50900269
132.50000000 230.44200134 442.83398438
150.19999695 228.39399719 428.38000488
130.75000000 229.90800476 450.06900024
135.75700378 230.62199402 435.03799438
142.05900574 229.76200867 429.92098999
169.97000122 222.55400085 459.42300415
145.97099304 224.96199036 470.23800659
140.94700623 226.22399902 468.71298218
157.94500732 222.29899597 469.74301147
173.58699036 223.11100769 446.79998779
166.98500061 221.98699951 466.01400757
174.00099182 222.67300415 455.16198730
135.72799683 226.68200684 467.28100586
166.57499695 227.03399658 429.45199585
174.83299255 223.04600525 441.62500000
152.11199951 223.62400818 473.57800293
158.65699768 228.01400757 424.69799805
126.26600647 229.15299988 443.74298096
126.40499878 228.15798950 456.16299438
132.80599976 229.81399536 430.39300537
172.64099121 224.76199341 432.36398315
140.49099731 224.11100769 473.41497803
146.15798950 227.06900024 421.45999146
177.54100037 222.74400330 459.67901611
127.11599731 229.12699890 434.51101685
179.64500427 222.90000916 446.50701904
164.43200684 220.43499756 473.38500977
131.04100037 225.57798767 468.73999023
127.57099915 226.67401123 464.52297974
137.53099060 229.37298584 423.94702148
122.95100403 227.70300293 450.86898804
134.58799744 224.43499756 472.32299805
163.90701294 226.35099792 422.35198975
154.66900635 221.97900391 477.59899902
147.00099182 223.62998962 477.97598267
155.46899414 226.23899841 419.59100342
159.38600159 219.79600525 476.71899414
172.03498840 221.30200195 470.62200928
175.86999512 221.48500061 467.10299683
123.25300598 227.76100159 437.01898193
121.20000458 227.20399475 443.46099854
171.10000610 225.36000061 424.27600098
120.51100159 226.17300415 455.81701660
179.91400146 222.08200073 434.21899414
149.97500610 223.51800537 481.81701660
140.88800049 222.33499146 479.91799927
139.75300598 228.53800964 417.60198975
165.71162415 199.62446594 454.70327759
184.99598694 222.86500549 445.63299561
121.26900482 224.91799927 463.50601196
117.97799683 225.24900818 449.02798462
134.22000122 222.75300598 478.22601318
164.96145630 197.78523254 447.80657959
127.83099365 228.29901123 423.66299438
167.89599609 218.93400574 478.41799927
121.30599976 226.58399963 432.16601562
162.49301147 223.93899536 416.12698364
148.15199280 224.66300964 414.49401855
183.27600098 222.20599365 463.54699707
177.54299927 223.63400269 425.41598511
123.75400543 227.09300232 427.58599854
126.10599518 223.06500244 472.79598999
161.37500000 216.78500366 481.15600586
180.78199768 222.01100159 429.38699341
118.47600555 225.62600708 436.52999878
117.09000397 224.88400269 441.09402466
116.51300049 223.95100403 454.34600830
161.14700317 208.36399841 477.20501709
173.42401123 219.34999084 477.07598877
180.64300537 220.80099487 470.27999878
167.33300781 224.03100586 416.21801758
171.50962830 198.38066101 447.05172729
132.35501099 229.29299927 416.98501587
153.60400391 222.68800354 412.22500610
128.60600281 221.57701111 478.01101685
142.53201294 226.88198853 412.40899658
172.73600769 224.08200073 417.72799683
155.84500122 218.94100952 485.60397339
172.45578003 197.91746521 452.69937134
144.74800110 221.82301331 486.09097290
189.53500366 222.85200500 453.19598389
120.06800079 222.35900879 470.76800537
189.13899231 221.92700195 439.48999023
189.14399719 222.32598877 459.97900391
190.76699829 222.87300110 446.89398193
114.73500061 222.54499817 461.17202759
159.15699768 213.74600220 484.80798340
178.52899170 223.22300720 420.28399658
112.73100281 222.42900085 444.16699219
167.56599426 193.09312439 449.40484619
117.65200043 223.92300415 428.41198730
187.12699890 221.89801025 467.58898926
112.32200623 221.38099670 452.87899780
136.27000427 219.16299438 485.20300293
140.56800842 211.75399780 483.77297974
142.06799316 206.72099304 481.38400269
135.03199768 211.90400696 481.99002075
125.81300354 228.48300171 417.23300171
159.48899841 222.12399292 409.40298462
140.85600281 215.78100586 486.38201904
131.11999512 219.15798950 483.31201172
146.94599915 208.33000183 484.16299438
182.68800354 221.56300354 422.65798950
136.68099976 228.01899719 410.41299438
148.25401306 215.21000671 488.12802124
172.64253235 194.49894714 441.62280273
165.75000000 215.39099121 486.08700562
119.40900421 225.10899353 422.41497803
134.74699402 205.91700745 479.47799683
174.64411926 194.39027405 447.16113281
154.34800720 215.19699097 488.87802124
189.98899841 220.75599670 432.64401245
184.57299805 220.35400391 474.76699829
114.72699738 221.04299927 468.07101440
161.01600647 207.20300293 484.02200317
153.05773926 221.42790222 407.31198120
124.46500397 218.62500000 479.98101807
168.91500854 222.37600708 410.51501465
151.51699829 209.85400391 487.08297729
129.54998779 213.48899841 482.25299072
173.54800415 217.05299377 484.58599854
193.91200256 222.21000671 458.19100952
188.29800415 220.61100769 426.38998413
180.35499573 218.83499146 480.91198730
137.21499634 200.80700684 478.98300171
110.69799805 220.63999939 435.64199829
131.20600891 201.80099487 476.44299316
150.20401001 202.32499695 483.85000610
145.29499817 223.94400024 405.54998779
113.26200104 221.60800171 428.27297974
170.14125061 189.27883911 446.23208618
117.23999786 219.29399109 475.69598389
125.66900635 209.34399414 479.27099609
154.49699402 204.86900330 486.37399292
157.21200562 209.90100098 489.10702515
176.76701355 222.05500793 412.33798218
195.39100647 221.89801025 440.05502319
139.50900269 225.85000610 405.66302490
163.09700012 210.00599670 488.37301636
162.74838257 187.10699463 459.76574707
167.00962830 187.28479004 455.49716187
196.92799377 222.06999207 452.85299683
108.25999451 218.36500549 457.34597778
146.07499695 198.69599915 482.21798706
107.68900299 217.48500061 449.95901489
129.14199829 227.81900024 409.27099609
182.27799988 220.84700012 415.62701416
159.81483459 188.06126404 466.75851440
190.88800049 221.15199280 472.91601562
123.96299744 213.12400818 482.45599365
185.96299744 219.42800903 479.23800659
140.53399658 197.91899109 481.01199341
108.86499786 218.31098938 463.16799927
151.98600769 195.10899353 480.42498779
161.95100403 221.01199341 404.06100464
116.79899597 224.16700745 418.26098633
194.13000488 221.97500610 468.65100098
135.54200745 196.39100647 478.10000610
177.35279846 189.98878479 445.01593018
160.49400330 199.33399963 484.64797974
196.67799377 220.94300842 435.22198486
158.61399841 189.16699219 472.88900757
187.85699463 220.03900146 419.25601196
165.13595581 184.95698547 440.39886475
164.97972107 188.37161255 468.68887329
167.06094360 186.46932983 461.88088989
197.67098999 222.09799194 461.34899902
154.41799927 187.46800232 471.43499756
113.19599915 221.00999451 421.77398682
169.34695435 187.27925110 434.84555054
177.38362122 190.94244385 436.43356323
126.01299286 202.25399780 479.23599243
179.71499634 216.14999390 486.38098145
164.65934753 183.46572876 453.18075562
149.84400940 189.04800415 475.09701538
144.26000977 191.19699097 477.54299927
160.36898804 193.38198853 480.17098999
199.60899353 221.85600281 442.94400024
156.43807983 183.27647400 462.62887573
119.58800507 226.23200989 412.47000122
156.22434998 220.27258301 401.32025146
108.41600037 218.91400146 428.93200684
105.24600220 215.75898743 441.83401489
165.95800781 200.88699341 486.52899170
162.07409668 181.89874268 444.77676392
192.93299866 220.43899536 422.82400513
170.90063477 184.80055237 441.33691406
146.77000427 186.22000122 472.19900513
105.80900574 217.37300110 434.80499268
150.32600403 184.44000244 469.37500000
124.70199585 226.13699341 407.36199951
182.03799438 219.55500793 410.59802246
163.82699585 195.65100098 483.58499146
196.19700623 220.35800171 427.59500122
131.42300415 225.18199158 403.54400635
113.04000092 216.99600220 478.27801514
163.73200989 190.14100647 477.27902222
159.42005920 181.17247009 440.46469116
168.71400452 220.78399658 402.59997559
166.37500000 205.97200012 491.08200073
104.09200287 215.08699036 457.55099487
175.77299500 221.05400085 405.18798828
128.02600098 195.20999146 477.49099731
162.16708374 182.06120300 435.89346313
173.20401001 212.63598633 491.99700928
155.88098145 179.56027222 444.42062378
108.52799988 216.02099609 472.23599243
145.68299866 220.95201111 399.29199219
116.19800568 215.80499268 482.89099121
202.29600525 221.63299561 451.07800293
152.40127563 218.34263611 399.36590576
103.08899689 213.67900085 446.02902222
168.91740417 181.77534485 454.95266724
168.14790344 188.18872070 474.47399902
148.81060791 180.45286560 463.28036499
170.29896545 184.50749207 465.25195312
122.19200134 212.66099548 487.82501221
135.14100647 191.01400757 478.86499023
176.16415405 187.94161987 430.80212402
139.42700195 188.91400146 478.62899780
122.98400116 207.16400146 486.15499878
136.45500183 222.90100098 399.75000000
201.77799988 220.93499756 435.88800049
157.19396973 178.11294556 453.83905029
180.24580383 186.67903137 440.07299805
192.85899353 219.02101135 480.42700195
151.72064209 177.32095337 449.11383057
101.80799866 213.38600159 451.33398438
114.83399963 223.68800354 411.91500854
155.53178406 178.51234436 437.81762695
167.59700012 192.20300293 482.68197632
111.70899963 221.14401245 415.55899048
144.58200073 181.49400330 469.48800659
202.19198608 221.88999939 464.48901367
152.75120544 177.41290283 456.89788818
103.44800568 213.73899841 464.57897949
203.89999390 221.52999878 457.69000244
170.78199768 208.22599792 494.11801147
162.61752319 177.69828796 452.65386963
167.25758362 178.28887939 448.59967041
169.47007751 179.18989563 444.04019165
123.92900085 200.93199158 485.21899414
200.88600159 221.02700806 470.81597900
168.04281616 181.46662903 431.19790649
123.57900238 223.52899170 403.19799805
102.90399933 215.42300415 430.48699951
189.31800842 217.05499268 486.56799316
143.48837280 177.75881958 462.11080933
173.49461365 183.92268372 429.72058105
170.29292297 197.94071960 489.28372192
162.61041260 218.79333496 396.71435547
171.43406677 188.72673035 479.26492310
141.33900452 181.80499268 473.25097656
161.09930420 175.89540100 447.37011719
192.60990906 219.75137329 413.56515503
106.74399567 217.27999878 420.27899170
172.75454712 220.20674133 399.07022095
177.82310486 182.54412842 438.32305908
197.04786682 220.01129150 418.84085083
186.13499451 218.14599609 407.32699585
138.71000671 220.66400146 396.20397949
138.13499451 184.26300049 477.30300903
103.45099640 212.45799255 470.16900635
199.09899902 220.08999634 476.92999268
176.49371338 184.52919006 469.69308472
146.43550110 175.30831909 458.02813721
171.69195557 177.96917725 450.58236694
109.16500092 213.28399658 480.91699219
99.91600037 211.49900818 440.54202271
147.74819946 174.81831360 441.69238281
180.57699585 211.77099609 493.63800049
206.88598633 221.63299561 442.46398926
175.57891846 186.64752197 475.50610352
103.61000061 215.81600952 424.37298584
201.35700989 220.56199646 424.38500977
186.32901001 213.90100098 490.55200195
204.49699402 220.64498901 431.32699585
98.99900055 210.73100281 446.52700806
182.81022644 185.22511292 434.42910767
174.19926453 178.74531555 458.05667114
144.80249023 173.76928711 451.97299194
115.05900574 213.22999573 489.12899780
114.15900421 222.22700500 407.02600098
148.57676697 218.37591553 393.29577637
99.57999420 212.12899780 434.21600342
174.70817566 191.04711914 484.32998657
179.68566895 184.44793701 428.45166016
173.74842834 203.60859680 495.33959961
127.42100525 191.84700012 484.57299805
181.50932312 218.76928711 401.09777832
118.62500000 221.85800171 402.66101074
165.80471802 174.19902039 444.42950439
157.56947327 215.63189697 393.47808838
131.10000610 188.85800171 483.98501587
174.80465698 198.14819336 491.72116089
97.76099396 209.97399902 454.43002319
174.00233459 177.65467834 437.91848755
195.15199280 217.27700806 485.90798950
209.43400574 221.55700684 447.83401489
179.42710876 188.44482422 479.03533936
124.33099365 196.17800903 487.67797852
117.87100220 212.76199341 493.19601440
161.08247375 174.09292603 435.64926147
170.43768311 218.85015869 394.97723389
129.66600037 220.74299622 396.00399780
206.44499207 221.03999329 468.19900513
208.33699036 221.24000549 461.80401611
142.56318665 172.11314392 446.64828491
98.20300293 209.25599670 461.45800781
165.92016602 217.14875793 393.45291138
180.13002014 180.24728394 463.05105591
134.84500122 219.11399841 393.70700073
120.94899750 205.44700623 493.05700684
167.78311157 175.27337646 433.72344971
135.06298828 184.71099854 483.24902344
110.62099457 211.48399353 487.34701538
174.11993408 178.65843201 429.89828491
177.18199158 178.57905579 434.34652710
103.06700134 210.63299561 476.79702759
142.77276611 218.95150757 391.54629517
154.38319397 172.30276489 435.63488770
177.27348328 218.43437195 396.52560425
209.52099609 221.44200134 436.37402344
183.16926575 184.73547363 472.04766846
143.93229675 175.14788818 471.31988525
144.26719666 172.44934082 463.84838867
180.05738831 194.75039673 488.75372314
179.14399719 209.01100159 498.46301270
100.03499603 209.24499512 471.43200684
109.46199799 219.68400574 407.78298950
182.08607483 190.88356018 483.38970947
169.87129211 172.73887634 453.11734009
211.46400452 221.30999756 453.00497437
139.62799072 179.65798950 480.09600830
95.93500519 208.31300354 441.26199341
188.71842957 218.72578430 402.39648438
184.78211975 187.62107849 477.40124512
104.44000244 215.81300354 414.01998901
160.76400757 170.29797363 441.38656616
211.77600098 220.98599243 457.88400269
203.63000488 219.15699768 480.09600830
98.41100311 211.91699219 425.41000366
206.81799316 220.93800354 423.43801880
181.61477661 179.90380859 430.20581055
180.54827881 199.30131531 493.97592163
184.20899963 209.75999451 497.39599609
119.39500427 219.79100037 397.96099854
149.96548462 215.94383240 389.31863403
104.45999908 209.03700256 482.99099731
193.74067688 219.09814453 404.76757812
135.95152283 170.10656738 448.03463745
144.98548889 168.82106018 440.72369385
188.39187622 189.65789795 479.81600952
185.02403259 196.79963684 490.46200562
139.26252747 169.31849670 441.62158203
189.26625061 185.14517212 471.51449585
154.77302551 212.93583679 389.00955200
182.66113281 176.45277405 459.31063843
139.68408203 168.72633362 452.69931030
119.47100067 208.37399292 498.28900146
145.12783813 168.39213562 458.39959717
121.58899689 198.14099121 493.95999146
174.86164856 172.35641479 458.52902222
204.26994324 220.92286682 415.52810669
99.99600220 212.73100281 418.05899048
94.94700623 207.79499817 434.08502197
131.16665649 171.18089294 441.15780640
171.48728943 213.37477112 391.65521240
152.67135620 167.99186707 438.26531982
166.02984619 212.74084473 389.79800415
187.11082458 180.65211487 430.54434204
186.46105957 217.07836914 397.36221313
93.07800293 205.74499512 447.28698730
202.24400330 217.01599121 485.91101074
129.01300049 217.68499756 390.98999023
189.58061218 194.77915955 486.74325562
160.08853149 211.98912048 388.41323853
163.02531433 167.16284180 447.86730957
199.03042603 219.89175415 407.09167480
197.76100159 214.13800049 490.89102173
131.12998962 186.22399902 490.95599365
124.97100067 191.81401062 492.98501587
105.18900299 216.71200562 407.31201172
215.05659485 222.22006226 441.42706299
191.13800049 211.23200989 496.31698608
192.07507324 192.77748108 482.76828003
183.45845032 204.72473145 499.17929077
112.41699982 217.78799438 399.77700806
130.94859314 169.18635559 447.29901123
141.57577515 216.58558655 386.96536255
178.69921875 214.94241333 392.45697021
211.66000366 220.07901001 471.62301636
135.79249573 216.90574646 387.91387939
145.78923035 168.08055115 466.52859497
213.47224426 222.42643738 430.45449829
144.56300354 172.07099915 477.18499756
92.38000488 204.87500000 442.48599243
214.48199463 220.41299438 464.03302002
202.87290955 220.53997803 409.85903931
168.45652771 167.26605225 452.84667969
189.35665894 178.58251953 463.27066040
94.82599640 208.54400635 425.80999756
188.97753906 199.91871643 493.74771118
91.90000153 204.17700195 452.91598511
155.75921631 165.14782715 441.83322144
94.65299988 203.95700073 467.39898682
136.71800232 179.37399292 487.96798706
119.31499481 201.35598755 498.53100586
217.10699463 221.70298767 448.69699097
151.16963196 165.19317627 460.44238281
211.95042419 222.44978333 423.01904297
123.41699982 216.95700073 390.99301147
193.25845337 181.42796326 466.19931030
216.11488342 222.98736572 434.92114258
141.60400391 173.84100342 482.56399536
210.63999939 219.06300354 477.79800415
145.80792236 168.22142029 472.22534180
196.89347839 190.34387207 477.77325439
207.48600769 217.82000732 483.65701294
92.07499695 203.16999817 460.49200439
105.60900116 207.32901001 491.29598999
196.36433411 185.45790100 471.44519043
110.10099792 209.37199402 497.09100342
141.46403503 164.26483154 454.48898315
98.83999634 204.38400269 480.88699341
151.15707397 212.33593750 384.59841919
196.90095520 196.28114319 485.73504639
189.77803040 205.23110962 498.77078247
125.49166107 168.67152405 440.79742432
149.39236450 163.35383606 439.35714722
198.89186096 194.02882385 481.65884399
130.47817993 167.34825134 435.52093506
94.44099426 208.48300171 420.56597900
162.40229797 208.73387146 385.78247070
195.59892273 218.16482544 398.82250977
155.34040833 209.74662781 384.62341309
203.24101257 213.88700867 490.58398438
149.11898804 164.87617493 468.11346436
159.51350403 162.60629272 446.19458008
126.53623199 169.15130615 432.62478638
197.74085999 200.49940491 489.90145874
98.55400085 211.24899292 410.99798584
174.09934998 207.11195374 388.79275513
193.87744141 177.63003540 461.44982910
172.37223816 165.39831543 457.36325073
181.13725281 169.30230713 460.64572144
137.02410889 163.86857605 439.50698853
186.73976135 171.75169373 458.40121460
150.47570801 161.30419922 452.07818604
95.56500244 200.97300720 476.28900146
138.67288208 214.95989990 383.10241699
198.18360901 181.28135681 464.72213745
195.88450623 204.69335938 495.97274780
145.18072510 213.32940674 382.48565674
198.92999268 211.80999756 496.47998047
168.22682190 204.93092346 386.82922363
201.98497009 190.15138245 475.33401489
127.29400635 186.79399109 497.33499146
220.07000732 220.62599182 457.25500488
192.30924988 173.97125244 454.81033325
89.88100433 202.32099915 434.92498779
135.82603455 162.70729065 454.39935303
130.66925049 215.13763428 384.64907837
105.39700317 213.96299744 399.93399048
152.44383240 162.09066772 463.96563721
166.74903870 162.20271301 452.96191406
154.16125488 160.90182495 457.05929565
99.54900360 203.63200378 486.85198975
145.86711121 167.30004883 478.84521484
115.36700439 209.06500244 504.76199341
91.59700012 199.21598816 466.05700684
152.89479065 160.34718323 447.02392578
202.98211670 219.50668335 402.76342773
133.73449707 162.69429016 447.49694824
117.42099762 214.64599609 390.30297852
203.70066833 193.73310852 478.94894409
202.69081116 187.09974670 470.75073242
139.08900452 173.52200317 488.35800171
208.05863953 221.18655396 408.25314331
149.77804565 160.27642822 443.32983398
218.68327332 224.30447388 428.32977295
177.72189331 165.18153381 457.67861938
130.33377075 163.20739746 443.03564453
90.44799805 203.25100708 427.15899658
220.87948608 223.81961060 435.51684570
