ply
format ascii 1.0
element vertex 512
property float x
property float y
property float z
end_header
96.81137085 128.05218506 450.97357178
100.43515015 125.62329865 447.64434814
97.23052979 132.56654358 454.15499878
91.92581940 129.16033936 453.86340332
102.24427032 130.41287231 449.48095703
91.79676056 124.54302979 449.86624146
96.03855133 122.76238251 447.77893066
88.03509521 129.84796143 449.96664429
91.53401184 134.82102966 457.38949585
93.88993073 119.05397034 445.63330078
106.71067047 132.95816040 447.30020142
86.04569244 127.71424866 445.09207153
87.87684631 135.96598816 454.19381714
102.22856140 119.67829895 442.75277710
87.75821686 123.40489197 442.90087891
104.92916870 138.05117798 452.72210693
107.29129791 126.47056580 443.22982788
83.86162567 134.52243042 447.83621216
91.64431763 140.68063354 457.71801758
98.49055481 141.96533203 458.23745728
92.38384247 116.17687988 440.51364136
83.23207092 130.67658997 441.65969849
104.95496368 143.38014221 454.35522461
84.28600311 125.76881409 437.68121338
84.42706299 141.91917419 452.09390259
110.48690796 123.55772400 438.08801270
88.90994263 117.65251160 436.72390747
98.68736267 112.93080139 438.49746704
110.73214722 141.88604736 449.31637573
81.65265656 139.97337341 446.57672119
108.11210632 119.19564056 436.96978760
114.04895782 136.34835815 443.19458008
96.01135254 147.83186340 458.46847534
80.81157684 137.72074890 440.53256226
93.30088043 113.35522461 435.50753784
82.61378479 129.82618713 434.75213623
87.57123566 147.12048340 456.37826538
113.81096649 127.30126190 437.12237549
101.15708923 149.64236450 455.91113281
84.17211914 124.24128723 431.29617310
105.90180969 113.64821625 434.48110962
109.05430603 149.05775452 452.32949829
81.13783264 146.66333008 448.55715942
116.16963959 143.96469116 445.26861572
81.20310974 135.87538147 431.88543701
83.40683746 128.64852905 428.21188354
98.10134125 109.01567078 431.98855591
89.70259857 153.53872681 456.19619751
86.21292114 119.81280518 427.31677246
79.38177490 144.87150574 437.57192993
90.40927124 113.62483978 428.21792603
95.05104065 155.34162903 456.30780029
118.69435883 130.56811523 433.74227905
104.94049072 109.74239349 431.45401001
115.50578308 121.92893219 430.74227905
110.50911713 114.18946838 430.17553711
82.74817657 152.97239685 449.94857788
79.70668030 149.85226440 443.17672729
120.42606354 136.24641418 436.04879761
120.01152039 142.97283936 441.56307983
115.98089600 149.74589539 447.17831421
107.40061188 155.63725281 452.02859497
102.28115082 158.14675903 453.37796021
88.08651733 157.45039368 453.13500977
83.00446320 132.09506226 423.33734131
79.75805664 145.00325012 430.93515015
114.42963409 116.63356018 427.23983765
90.17365265 113.68547058 423.37176514
93.51306915 160.26473999 453.88253784
112.53766632 156.59844971 449.96450806
78.64376068 152.76477051 439.25793457
85.09826660 125.55538177 419.94107056
87.40086365 118.61536407 420.49487305
98.48545837 105.93477631 425.78875732
121.25576019 127.75033569 427.78332520
106.68040466 106.29683685 426.72106934
119.46803284 122.43283081 425.71160889
93.74545288 109.69406128 422.01748657
80.60317230 140.53503418 423.19689941
122.91965485 149.16883850 442.23114014
78.51227570 151.83489990 433.54983521
111.14370728 109.44274139 425.01867676
123.95520020 133.28814697 429.35244751
79.38462067 157.35049438 441.22915649
83.88740540 160.99485779 447.62063599
108.86287689 161.58747864 450.29995728
82.90971375 133.42723083 418.37759399
125.63278961 141.02906799 434.06341553
98.98642731 164.52220154 451.18365479
116.88328552 114.32045746 423.07247925
103.34593201 102.73024750 423.20004272
121.06024170 157.16976929 445.94393921
85.24627686 126.97884369 414.52310181
89.65303040 165.78112793 450.95669556
89.99526215 114.16883087 415.65115356
120.53217316 118.59877014 421.94897461
110.32337952 105.16748810 422.62500000
78.23672485 159.20596313 436.48828125
80.29750824 140.93879700 417.84762573
127.74741364 148.00611877 437.43182373
125.25308228 129.38467407 423.81851196
78.34417725 149.87461853 423.61810303
125.55050659 154.89660645 442.71990967
128.66265869 137.52261353 427.50460815
82.22239685 135.60981750 413.56906128
85.29498291 167.22117615 447.00192261
77.94751740 159.35821533 431.02896118
102.92301941 169.54243469 448.06378174
93.63925934 108.85877991 413.64538574
130.42150879 142.09027100 429.84014893
98.17202759 104.52783203 416.04647827
116.99773407 165.10388184 448.14990234
110.56264496 168.10598755 447.49700928
84.14463806 130.67684937 410.38247681
120.18924713 112.41836548 418.41586304
121.27954102 163.21168518 446.71908569
77.94190979 156.64474487 424.89849854
115.69313049 105.98300171 419.16006470
81.22334290 167.53996277 441.51409912
125.06559753 121.37719727 418.32525635
95.93325806 171.91136169 448.56777954
79.37983704 148.49603271 416.14367676
78.95600891 165.49208069 435.83709717
79.73838806 143.76138306 413.29562378
90.27651215 172.01939392 448.98034668
131.88006592 150.17337036 434.80923462
78.52172852 153.90695190 419.51815796
87.81697845 122.59403992 407.47381592
130.08854675 133.26138306 421.15924072
109.78367615 98.92893219 419.20968628
128.76335144 127.59493256 418.36453247
101.32657623 100.74473572 413.84829712
127.80120850 161.82490540 443.29492188
86.10157776 173.30125427 445.52835083
132.65570068 138.17330933 422.58346558
103.03063965 174.36994934 445.84985352
91.07434845 115.31525421 406.02044678
78.68582153 164.03111267 426.30145264
106.39551544 97.35056305 416.02218628
85.06846619 128.95817566 404.94094849
132.25531006 158.25981140 438.36712646
114.61417389 172.52134705 444.20956421
135.20980835 149.62596130 430.86856079
82.47718048 137.71487427 405.69769287
120.39426422 170.24418640 444.79809570
79.22035980 150.52366638 411.46575928
125.85641479 114.38214111 413.76296997
79.12554169 168.62362671 429.31015015
107.60990906 175.98637390 444.00671387
99.14803314 102.15841675 408.66848755
82.39657593 174.65567017 440.28466797
79.75210571 172.36474609 434.12905884
122.94184113 106.80697632 413.26531982
111.44544220 95.33274078 415.15264893
129.62229919 120.31644440 413.13772583
134.05979919 134.68052673 417.19201660
78.27738190 161.64396667 417.56698608
136.83947754 144.37277222 423.89709473
117.82089996 99.77837372 414.05505371
83.55696869 134.15518188 401.98825073
95.57426453 107.02666473 404.12905884
89.87689209 178.77832031 446.27490234
80.36945343 148.19459534 406.23837280
78.69470215 166.84335327 421.74789429
86.74481964 126.64189911 399.71343994
96.84609985 179.96928406 444.96871948
127.37364960 169.86840820 443.80511475
93.06890106 113.08431244 400.82376099
136.99963379 140.19552612 418.70678711
79.41821289 156.61836243 409.65933228
138.42718506 154.91647339 431.61557007
112.15933990 178.22134399 441.97711182
134.30439758 129.54177856 413.04080200
85.38504791 179.73359680 442.66357422
123.44029236 173.93858337 441.76147461
105.84201050 96.30065918 408.26928711
105.73456573 180.66645813 442.82632446
134.12550354 165.18800354 438.33996582
137.50114441 159.99085999 434.90640259
89.15302277 120.85755920 397.53805542
140.54716492 150.90718079 426.42849731
119.47216034 177.46376038 440.51986694
112.29256439 92.75595856 410.81097412
131.94972229 117.45240784 409.04895020
118.75717926 95.92230988 410.93710327
102.08596802 99.43028259 403.22418213
81.04054260 178.58383179 432.50903320
79.48732758 172.67230225 421.74328613
132.70878601 169.87701416 440.16229248
83.36905670 141.22210693 397.11203003
85.03961182 133.74807739 395.35351562
83.59707642 182.52256775 438.68695068
80.29316711 158.27890015 405.00787354
135.17294312 121.82042694 408.11282349
80.68659973 177.98001099 426.58117676
87.25347137 127.60427856 393.86575317
79.72516632 164.42425537 408.95327759
124.88320923 100.57093048 408.08816528
131.86404419 112.41909790 407.19253540
139.94210815 137.50274658 412.65609741
111.72354126 183.65982056 439.51318359
124.65985107 178.19128418 438.30548096
90.47612000 186.14991760 443.72399902
92.10009766 115.61494446 393.52670288
79.53211975 170.31840515 413.53219604
95.97420502 186.73558044 443.35238647
137.98809814 129.15823364 408.34680176
82.48532104 148.36354065 397.12957764
109.05706787 93.57612610 404.16903687
129.85198975 106.68923950 406.35833740
143.31927490 157.79064941 428.46542358
96.47821808 108.49982452 394.64859009
143.71144104 147.28886414 419.10302734
117.32501984 183.39385986 438.20880127
81.52890778 155.93382263 399.61175537
100.84263611 187.87832642 442.87094116
138.68292236 168.95263672 434.80532837
90.08332825 121.86929321 390.36914062
82.82888794 185.23901367 433.19357300
86.83031464 132.36419678 390.37771606
81.13450623 179.75929260 421.06759644
120.23040771 91.76773834 406.77828979
81.07570648 163.22848511 402.53662109
102.16289520 100.71623993 395.68960571
132.60069275 176.81880188 437.68545532
143.06387329 164.35929871 431.22689819
105.65167999 188.54890442 440.06393433
113.59824371 90.82195282 403.84359741
121.83345795 183.48486328 436.20324707
146.62652588 152.70721436 422.13174438
82.17021942 183.33915710 424.89468384
84.59359741 144.22648621 391.34545898
145.29618835 144.10115051 413.90722656
85.97388458 138.08062744 389.47915649
81.23355865 177.64456177 414.65325928
99.47093201 104.80735016 392.00399780
80.84916687 170.66169739 406.46572876
81.15560150 174.86273193 410.17822266
143.20674133 135.36354065 407.40362549
147.10240173 157.70010376 424.50805664
88.50413513 128.12597656 387.37820435
110.45995331 93.06449890 398.21887207
91.48207092 191.91394043 441.57962036
86.63529968 190.94052124 437.94305420
81.73671722 168.48149109 402.25537109
138.99099731 117.25060272 402.28683472
129.25411987 182.00318909 433.12481689
135.67889404 108.53237915 402.03762817
110.82284546 190.42492676 436.82891846
141.84619141 127.47586060 403.27285767
118.04342651 88.42777252 403.10717773
95.24138641 111.07288361 387.53491211
82.45224762 159.73481750 395.01708984
134.80119324 179.07153320 433.35284424
116.39705658 189.18286133 435.06491089
84.18314362 149.00233459 389.35409546
132.05686951 100.65914154 401.91107178
92.66216278 118.54170227 385.43127441
83.21014404 183.86344910 417.04428101
90.90296173 124.13999939 384.56195068
145.49862671 167.72999573 427.45617676
102.13574982 193.93861389 439.41580200
128.06701660 94.12995148 402.08959961
83.02482605 181.68550110 412.62426758
114.87059784 89.57157898 398.66726685
122.86881256 89.11620331 402.46725464
108.69166565 95.07489014 393.22869873
122.26253510 187.83192444 432.00213623
84.53466034 190.02746582 426.25411987
86.88475800 140.69898987 385.04516602
83.89306641 154.31143188 389.26123047
83.84355164 167.03128052 396.36138916
140.42221069 176.58572388 429.91091919
151.29939270 150.16784668 414.87506104
83.55207062 180.44021606 408.05166626
88.62679291 135.95561218 382.85714722
150.50337219 145.75222778 411.30343628
97.28383636 196.22305298 439.60375977
149.13293457 140.77459717 407.58227539
90.17751312 130.18286133 381.76486206
83.81437683 175.49455261 401.66354370
152.22990417 157.22636414 420.40618896
84.02170563 171.77752686 397.81472778
90.93704987 196.44590759 437.12109375
107.62276459 195.62568665 436.07806396
137.71885681 104.55625916 398.73187256
84.86445618 160.77713013 389.77627563
150.33837891 163.89643860 422.43200684
103.89483643 99.93231964 386.75775146
86.02208710 146.62730408 383.69522095
147.57688904 133.26612854 402.07968140
87.12810516 195.14834595 430.87768555
133.39941406 96.48597717 399.12460327
143.93476868 121.57021332 398.31750488
126.47555542 188.09391785 426.77044678
135.56889343 183.14622498 427.65808105
119.81404114 86.84040833 397.39932251
96.63857269 113.57812500 380.59939575
114.59645844 89.78255463 392.82257080
118.82082367 193.15750122 429.78558350
99.61847687 105.40795898 382.56045532
102.27441406 198.78509521 437.12738037
92.61277771 126.45587158 378.61782837
143.73133850 111.63846588 397.85940552
87.03030396 195.44929504 425.09600830
85.40050507 188.88113403 412.42773438
149.16159058 170.49807739 422.91561890
113.08211517 196.61935425 431.66427612
87.81178284 142.14826965 379.39141846
86.52558899 193.06033325 417.68356323
87.61926270 153.87998962 381.82290649
84.78897095 182.75228882 402.01281738
154.40339661 162.98675537 419.25738525
85.05965424 186.29621887 405.80960083
152.52058411 138.15071106 402.32025146
128.17054749 87.07254028 396.93005371
147.84719849 124.52371216 396.32910156
137.64477539 184.31188965 423.16458130
94.42482758 121.78212738 376.38848877
154.41659546 141.68199158 405.05535889
142.75485229 180.52250671 423.38201904
90.30209351 135.67864990 376.48083496
86.00748444 171.55990601 390.57171631
109.83448792 94.57745361 384.83535767
87.96081543 147.95433044 378.77560425
135.46838379 93.29019928 395.90490723
141.36038208 103.42398834 394.72726440
89.40561676 200.16259766 428.30413818
93.18875885 201.67781067 432.65463257
131.89962769 188.79672241 421.65161133
156.57273865 145.83847046 407.18383789
147.65768433 175.98330688 420.51828003
96.79931641 117.11694336 375.28872681
157.97618103 150.86369324 410.80432129
99.76937866 203.06410217 434.97726440
120.68283844 86.14040375 391.24432373
116.52804565 88.53215790 388.06170654
86.06458282 178.53540039 393.97781372
153.59751892 168.88716125 418.97900391
87.50444031 164.90623474 384.05871582
105.30455017 99.05480957 380.18164062
123.36859894 195.17852783 423.76098633
151.74073792 130.93498230 396.82330322
145.33824158 108.64768219 393.86679077
99.19284058 111.37486267 375.20910645
159.06190491 158.42556763 415.70718384
140.04115295 97.35211945 393.77322388
85.92059326 183.61975098 397.20739746
86.79642487 194.02685547 410.14627075
88.78256989 200.22589111 421.46020508
87.41598511 196.69032288 414.22091675
107.59624481 203.95150757 433.84414673
112.42828369 202.54481506 431.17333984
134.59043884 88.80798340 394.09741211
89.88407135 146.59233093 374.59869385
141.42745972 183.85003662 417.45129395
86.06507874 188.31594849 401.03628540
120.05033875 198.84318542 424.20336914
103.27857971 102.32400513 376.22662354
89.00944519 159.55525208 378.50250244
149.27822876 113.74019623 393.07321167
137.78245544 187.19076538 417.21533203
91.00716400 140.45799255 372.55950928
156.79031372 136.98333740 399.02337646
93.15006256 130.62466431 371.05334473
152.47026062 124.62072754 393.31692505
127.16224670 84.46006775 390.81536865
128.34248352 195.03897095 420.00500488
88.21527863 171.88955688 383.77786255
154.21998596 172.65364075 415.92294312
97.50823212 206.63417053 432.46679688
157.66189575 168.34806824 416.36999512
90.48532104 204.26618958 424.50799561
133.79064941 191.23368835 416.15710449
101.58557129 107.75620270 372.55413818
148.93756104 179.51634216 415.52258301
114.41197205 90.39237976 380.86157227
152.41813660 118.13819122 391.50842285
161.81398010 146.28440857 404.21954346
93.02423096 135.57168579 369.09078979
132.92829895 85.16683960 390.64093018
162.26271057 162.90756226 414.56896973
146.20195007 101.71262360 390.20916748
87.14434052 193.84527588 401.77911377
97.76353455 120.67768860 368.49230957
144.89161682 183.86714172 413.07226562
160.76829529 140.99246216 399.34335327
91.33792877 155.50914001 372.52487183
100.18080902 115.00070190 368.56387329
164.28907776 151.34870911 407.64694214
92.09877014 147.75531006 369.89297485
151.15895081 110.43025970 389.87393188
115.11317444 206.36335754 427.92889404
124.40232849 84.52464294 384.70825195
158.52169800 131.83874512 394.15454102
87.49765778 180.59587097 385.91220093
106.46994781 209.74034119 432.40744019
109.56082153 94.99180603 374.29614258
140.78244019 90.35166931 389.46127319
95.28192139 128.69674683 366.43890381
88.74662781 203.34696960 413.21728516
111.80865479 208.82980347 430.40924072
120.91043854 86.21369171 381.34484863
144.73078918 95.56504059 389.06332397
125.70642090 200.88607788 418.42462158
129.05410767 83.62477875 386.26437378
93.38871002 209.40116882 426.91308594
90.35593414 167.02033997 375.54455566
159.84637451 170.82991028 412.76840210
106.15438080 101.67255402 370.47012329
166.03193665 158.26928711 411.17056274
132.17839050 196.53303528 413.99758911
156.45959473 174.88066101 411.33798218
113.40347290 90.98790741 375.53945923
138.17802429 191.21546936 410.24734497
100.13482666 211.86477661 432.15853882
88.16712189 199.23141479 403.52276611
117.60390472 88.30316162 377.59375000
157.73634338 124.19686127 390.08630371
150.75088501 104.57913971 387.90591431
87.80194855 194.19447327 396.24850464
152.25456238 180.12437439 410.11968994
89.19805145 202.41835022 407.55581665
91.12897491 208.87409973 419.90625000
118.39141083 207.80415344 423.96844482
165.53302002 145.94104004 400.79980469
147.37736511 184.29840088 408.04476929
95.11566162 143.94342041 365.11145020
88.83554077 176.34320068 378.39035034
164.56881714 167.65649414 412.09094238
121.90051270 206.35598755 420.57086182
92.21819305 160.42868042 369.58074951
104.60180664 107.57653809 366.02713013
88.42887115 189.03352356 388.02362061
102.04057312 113.42101288 364.27294922
157.54017639 117.88804626 387.90808105
143.21806335 188.39710999 405.96105957
164.28398132 138.57609558 394.48110962
135.17285156 83.28649139 384.59176636
95.98478699 135.63093567 362.39532471
155.76458740 111.07328796 386.34378052
162.87954712 131.55535889 390.98254395
122.95081329 85.17747498 377.05801392
129.82467651 201.94311523 412.95425415
111.62624359 93.80643463 369.47637939
157.10194397 177.98596191 407.30474854
110.46462250 214.17611694 430.14254761
98.14212799 124.69180298 361.30868530
151.24333191 98.99391937 385.70468140
114.57149506 212.84928894 427.19808960
94.59113312 153.21469116 364.57693481
99.97834015 118.91109467 361.34140015
117.31752777 88.35812378 372.15289307
135.17591858 198.78039551 408.46701050
169.43806458 165.08651733 410.03802490
89.61407471 200.77178955 396.08847046
162.22560120 174.81591797 407.46047974
97.94264984 130.42138672 359.56475830
171.10040283 158.83280945 407.20126343
141.20080566 84.36618042 383.77108765
105.20849609 109.44364929 361.49462891
90.21803284 207.12481689 404.68383789
138.62188721 196.21083069 405.71484375
131.43235779 82.86177063 378.78747559
149.02079773 186.26457214 402.58132935
106.82209015 217.27471924 430.52548218
164.23928833 127.78584290 388.07171631
91.90287018 211.81365967 412.70745850
118.95899200 212.84790039 422.22058105
171.11851501 148.28915405 399.59457397
168.49046326 141.12960815 393.83346558
172.10925293 153.24110413 402.83956909
90.50347900 197.29132080 389.35220337
112.11141205 96.80121613 364.75299072
96.04173279 217.31883240 424.72952271
93.51354218 215.42033386 419.00982666
128.24873352 207.03393555 412.96203613
115.74061584 90.06335449 367.99835205
97.84101868 140.80610657 358.61386108
107.91315460 105.11541748 361.27737427
91.35372925 170.28123474 367.95776367
155.52189636 182.16667175 402.61743164
163.48063660 121.30670166 385.83554077
101.66201019 218.90820312 429.39398193
170.83940125 144.89553833 396.19265747
151.25859070 94.07962799 382.80511475
121.36640167 85.91325378 371.00213623
93.11658478 161.99923706 363.55310059
161.76229858 114.78438568 384.52868652
97.62902069 146.93034363 358.83004761
168.39877319 135.89056396 390.32452393
149.00811768 89.54889679 382.72067261
91.66686249 177.70907593 370.92663574
91.19481659 188.85273743 378.97329712
158.71499634 106.64423370 382.87353516
143.56349182 193.64186096 401.34463501
91.54787445 182.90782166 373.83825684
103.05487823 115.38161469 356.91348267
132.61579895 205.42700195 408.60797119
91.49975586 212.06051636 405.92538452
90.97897339 194.56712341 382.46679688
171.89027405 169.44081116 407.14306641
100.41103363 136.60308838 355.09524536
102.15702057 122.52429199 354.94723511
156.95037842 165.18893433 385.45257568
115.99250031 91.65119171 363.40762329
119.35762024 87.49976349 365.70703125
129.65249634 82.30978394 371.77340698
175.10317993 156.97203064 401.16207886
110.68073273 221.51321411 428.13824463
125.51124573 213.16601562 413.63516235
115.72995758 219.87965393 424.89559937
