ply
format ascii 1.0
element vertex 2048
property float x
property float y
property float z
end_header
240.47839355 216.52571106 474.75149536
248.01924133 224.31405640 482.19018555
247.49478149 216.07588196 468.07394409
255.56008911 221.26158142 475.12371826
93.46119690 108.11521149 512.65368652
84.52079773 112.59670258 514.00366211
98.34635162 107.33834076 501.90811157
88.63104248 110.48706818 501.53195190
73.87996674 122.14525604 526.73620605
67.65222931 130.28619385 529.88543701
76.46298218 116.93010712 515.91748047
69.39945221 125.13488770 518.34332275
81.14787292 125.82508087 545.47259521
74.88969421 133.58200073 548.94384766
81.12135315 120.75725555 534.30963135
74.34068298 128.06436157 536.94940186
244.33474731 232.45126343 484.15805054
249.42221069 244.32530212 488.20864868
252.74282837 226.43063354 475.17565918
255.43780518 236.81968689 481.37689209
105.18620300 108.45858002 498.47009277
94.99160767 110.02852631 497.41000366
112.57973480 113.04123688 489.43405151
101.82336426 113.72775269 486.82257080
243.25683594 252.74198914 486.10284424
246.42422485 263.16049194 492.13735962
252.95887756 245.24435425 482.04956055
253.26089478 255.08143616 489.14846802
74.64692688 120.67943573 503.39080811
68.00177765 128.03761292 505.96942139
79.20404053 118.67784119 494.37677002
72.35264587 125.91226196 496.08273315
93.82693481 119.09680939 538.70397949
87.74308014 124.22307587 544.68908691
98.03146362 113.65380096 527.02239990
90.08203888 117.73851776 532.29156494
82.63685608 138.36135864 565.23138428
78.12540436 147.26640320 570.05786133
81.18759155 131.89692688 554.21374512
76.39966583 140.99151611 559.07043457
232.52726746 275.02819824 499.57229614
233.76083374 280.66027832 509.14617920
244.33059692 268.49798584 496.30471802
242.57135010 275.54678345 505.53680420
109.68997192 111.25082397 508.44567871
106.28735352 111.88491058 516.71917725
119.12635040 115.92395782 499.45520020
115.12119293 114.76331329 505.74282837
92.18699646 114.58811188 489.77441406
83.03543091 119.50469208 489.59667969
98.82109070 117.03755951 482.61907959
90.23327637 121.57307434 481.33099365
63.48938751 136.94189453 517.02801514
59.37914276 145.62988281 521.49627686
66.11365509 132.73440552 506.94195557
61.67439270 141.42437744 510.83120728
76.41076660 126.41899109 490.46118164
69.08205414 133.50021362 492.66339111
82.81724548 126.33452606 482.58740234
75.25675201 133.15841675 483.80746460
85.16893005 154.14939880 584.94189453
83.32104492 163.21746826 590.98303223
82.13511658 148.94406128 574.61962891
80.66288757 158.17224121 581.22253418
229.58013916 207.28121948 477.35223389
235.74797058 212.92457581 485.15826416
241.76454163 211.37034607 468.54541016
246.34228516 213.29502869 478.10357666
68.96292877 140.51553345 548.33660889
66.06660461 150.57064819 552.47680664
67.26580048 135.70304871 536.98480225
64.31938171 146.04692078 541.22076416
78.99482727 170.15963745 594.24859619
79.96174622 180.97886658 598.94421387
72.91950989 169.43383789 585.16381836
74.56704712 179.89163208 590.38195801
223.32760620 272.28283691 485.14904785
224.25277710 282.85260010 493.01498413
236.12091064 266.03939819 484.60028076
233.31887817 276.43829346 492.56738281
90.66261292 164.04194641 597.46679688
88.61240387 173.97724915 604.12078857
91.64819336 157.97036743 589.65289307
89.90882874 168.23959351 597.03076172
218.79907227 286.79690552 515.06884766
217.93087769 287.65307617 525.93518066
231.30364990 282.73071289 510.56280518
227.69000244 286.01303101 520.43914795
119.56496429 116.92133331 485.82073975
108.91859436 117.31614685 483.74893188
127.00170898 124.74209595 480.10223389
116.78747559 124.53166962 475.93209839
93.64424133 175.97833252 606.83068848
92.30288696 187.43988037 613.11047363
98.92298889 174.13240051 603.02294922
98.14611816 186.24018860 609.92932129
121.41442108 114.48712158 490.31304932
123.28974915 117.76745605 499.00299072
129.40945435 122.52296448 484.33969116
132.91421509 126.43776703 492.71731567
69.20800018 161.72003174 571.08807373
69.35758972 172.42729187 575.81768799
64.55290985 158.90129089 559.80627441
65.13678741 170.16445923 565.01159668
81.61329651 184.76542664 605.04241943
84.13739014 196.66107178 609.77038574
79.07679749 190.67593384 597.72351074
82.31981659 200.98443604 603.31188965
199.78344727 289.33197021 513.90148926
197.75534058 292.09619141 525.15093994
214.13247681 287.54620361 513.60394287
207.57916260 290.72488403 521.66333008
93.44224548 131.77813721 553.01959229
91.61584473 140.24810791 562.34991455
103.07800293 130.30456543 541.73681641
101.63156128 138.80595398 551.07104492
226.97714233 233.46792603 476.92047119
230.32720947 246.44392395 479.83728027
239.07608032 230.15222168 474.97192383
239.08886719 241.48019409 480.41296387
61.45831299 155.44303894 540.87274170
60.54516602 165.27227783 546.05303955
59.75037384 151.46340942 529.89929199
58.79622650 161.72872925 535.22351074
85.44682312 198.50549316 611.10559082
91.69125366 208.98686218 614.41735840
87.87270355 210.42668152 605.92871094
93.89320374 218.62359619 610.65478516
100.28544617 121.18702698 480.33889771
91.17710876 127.23994446 478.14038086
109.12075806 126.53869629 475.96594238
101.14187622 133.16027832 472.38604736
72.75215912 179.64476013 584.02600098
75.72213745 190.40505981 589.09552002
67.12625885 181.18867493 571.89154053
70.80534363 191.81933594 577.64294434
203.40803528 288.27099609 527.36627197
199.48587036 285.24798584 536.08276367
216.94583130 285.37515259 528.16772461
210.83642578 285.74002075 535.73608398
235.34152222 236.04011536 500.40270996
234.96192932 248.02416992 505.11401367
245.41629028 234.49620056 489.02166748
241.76519775 243.31185913 496.27969360
199.69444275 278.01101685 491.88772583
200.77479553 285.90347290 503.59677124
214.19079590 277.16784668 491.87939453
209.09054565 283.22369385 500.70584106
212.94900513 204.89245605 470.32574463
216.58438110 216.86276245 468.93197632
226.47500610 207.03401184 473.83834839
228.78375244 217.04789734 473.73229980
56.23240662 155.08169556 511.22607422
55.26500702 165.24877930 516.24920654
58.06114960 155.03848267 502.36178589
56.32325745 165.59841919 507.21551514
180.31478882 291.89270020 522.79492188
177.40274048 291.87304688 534.12878418
194.65792847 291.49444580 525.33453369
187.49176025 292.22219849 532.45599365
233.75483704 216.65507507 492.11300659
234.38647461 228.63714600 499.29241943
245.41146851 216.92024231 481.65322876
242.14192200 225.11520386 490.91674805
69.23600769 136.96292114 493.69940186
64.99710846 146.15768433 496.06893921
76.37811279 136.76647949 485.74212646
71.68939209 146.19305420 487.66711426
90.22895813 220.11990356 606.64031982
98.19409180 225.59530640 608.90161133
95.72647095 232.27287292 599.91070557
102.74580383 234.61329651 603.51953125
227.35443115 253.95025635 510.52706909
224.57794189 265.04446411 515.00073242
238.73152161 252.02230835 500.65069580
233.61065674 260.75549316 507.37442017
212.12634277 248.97491455 473.12820435
211.98196411 262.73468018 475.37213135
225.84878540 246.14083862 476.40460205
221.58120728 257.40399170 478.95031738
96.40901184 156.01876831 581.22125244
96.23812103 164.66157532 591.33526611
107.08681488 156.29081726 571.04626465
107.34658813 164.40916443 582.31335449
112.93804932 124.26338196 523.44152832
109.94203949 132.40136719 532.36523438
122.98040771 128.61425781 514.21337891
121.26461792 136.03332520 522.98187256
102.74693298 190.52226257 610.32482910
99.39685822 201.65971375 614.25628662
111.54393768 196.92335510 604.96038818
108.54940033 208.15507507 610.53204346
131.50807190 123.72755432 497.68289185
134.50260925 130.00537109 506.97784424
138.67964172 131.11666870 492.28308105
142.25756836 137.30020142 501.75088501
181.18101501 282.56912231 504.11096191
180.65066528 289.46179199 515.40948486
194.40353394 285.02017212 504.13479614
188.15542603 288.82693481 511.41732788
76.33364105 195.22319031 593.22570801
81.44271851 205.67314148 598.96380615
75.22799683 203.31011963 582.22277832
80.46868896 212.45184326 588.79919434
66.29724121 173.19219971 563.95758057
67.82053375 183.59892273 569.17590332
62.68437195 173.07434082 552.88891602
65.15052032 184.54963684 558.47625732
131.35037231 129.14678955 476.68637085
129.51867676 133.73078918 473.10351562
136.26498413 136.97970581 476.51400757
137.09439087 144.09429932 471.00814819
218.90808105 227.06378174 517.96923828
215.08265686 238.31121826 523.76776123
229.44641113 227.70118713 508.48767090
224.15859985 235.91578674 516.33099365
113.06993866 215.63639832 607.81805420
105.44069672 222.54081726 609.95397949
123.15993500 220.91181946 602.46539307
116.05514526 226.55322266 605.89062500
112.28869629 166.28797913 582.64483643
110.70156860 176.00329590 591.32104492
122.57340240 168.94171143 573.69366455
120.99977112 178.20916748 583.96289062
114.97958374 180.03132629 595.63983154
110.94496155 190.36930847 601.68438721
125.69850922 183.94416809 588.65484619
121.57353210 194.40982056 596.24481201
110.72422791 138.50787354 543.83477783
109.14691162 146.91889954 552.34008789
121.31265259 141.91000366 535.23718262
120.14906311 149.60209656 544.36315918
59.07998657 178.51074219 539.52313232
60.93229675 189.00782776 545.06091309
57.81204987 179.79930115 529.55541992
59.46154785 190.96031189 535.02105713
133.27384949 291.31802368 519.47515869
131.25015259 290.59909058 530.53796387
143.89149475 294.76077271 519.04052734
138.40095520 293.58560181 526.40509033
128.53390503 132.25146484 517.60412598
129.07089233 140.07713318 527.27624512
137.68620300 136.50215149 510.18310547
138.52088928 143.26123047 519.98486328
126.95876312 162.93395996 563.16168213
128.44229126 170.94821167 573.21875000
137.76449585 164.48574829 554.97064209
138.31472778 171.52571106 566.19055176
67.30950928 163.97392273 483.27615356
65.34081268 175.04064941 485.42544556
72.74957275 165.40783691 477.64654541
69.87878418 176.58850098 479.99484253
97.14755249 237.28883362 588.80212402
103.78680420 239.21339417 595.68103027
105.08764648 247.86172485 581.83880615
110.05922699 247.06607056 589.15667725
177.66464233 243.41534424 471.45727539
172.89529419 243.45620728 471.47085571
178.25187683 243.47389221 471.47296143
177.64500427 243.51940918 471.47537231
140.51049805 156.68655396 469.93026733
137.28038025 156.69850159 469.98321533
141.02799988 156.70355225 469.98837280
140.50729370 156.70321655 470.03100586
177.95434570 229.26788330 469.80194092
173.71832275 229.28176880 469.86026001
178.43182373 229.30682373 469.79733276
177.91835022 229.32485962 469.83605957
176.17721558 207.49720764 489.60848999
173.32019043 207.50303650 489.67089844
176.46046448 207.50674438 489.62948608
176.18707275 207.51820374 489.67623901
153.12950134 168.21737671 477.12652588
150.58932495 168.23414612 477.16796875
153.50489807 168.24734497 477.19360352
153.22752380 168.24926758 477.21862793
163.43122864 204.53303528 469.97393799
160.36058044 204.53427124 470.02865601
163.80442810 204.56379700 469.98956299
163.48721313 204.56506348 470.02642822
166.88188171 209.40051270 485.59524536
163.99844360 209.40667725 485.62707520
167.22137451 209.43838501 485.63369751
166.97651672 209.44841003 485.65750122
148.39778137 174.73236084 471.05584717
145.25100708 174.74394226 471.07839966
148.87754822 174.75775146 471.10745239
148.44795227 174.75961304 471.12402344
139.79374695 166.62445068 467.69046021
136.44541931 166.64273071 467.75399780
140.35107422 166.64395142 467.72677612
139.81163025 166.64932251 467.77886963
151.88282776 184.41065979 470.74172974
148.48478699 184.43229675 470.75930786
152.38804626 184.44055176 470.78402710
151.91505432 184.45178223 470.80072021
172.78613281 203.91423035 499.84844971
170.41198730 203.90689087 499.89590454
173.00668335 203.93783569 499.87664795
172.82873535 203.94009399 499.91250610
159.20741272 178.25610352 481.41223145
156.96679688 178.26167297 481.44937134
159.51940918 178.29353333 481.46426392
159.34367371 178.29078674 481.48516846
161.08033752 187.39147949 482.29455566
158.64930725 187.39967346 482.32473755
161.40023804 187.41522217 482.35385132
161.18847656 187.41940308 482.37280273
168.07789612 264.34066772 481.28692627
162.71246338 264.37664795 481.35562134
168.77334595 264.33959961 481.35189819
167.93017578 264.40698242 481.38867188
159.79920959 193.99125671 475.37191772
157.11514282 193.99340820 475.41070557
160.15417480 194.01147461 475.42050171
159.90834045 194.01091003 475.44445801
163.75086975 181.43405151 494.82739258
161.75602722 181.43406677 494.87896729
163.98025513 181.46090698 494.87289429
163.88150024 181.45457458 494.90597534
164.07807922 251.85527039 474.72882080
158.75100708 251.87117004 474.82006836
164.85359192 251.84196472 474.75680542
163.89599609 251.88293457 474.82006836
126.91930389 152.69369507 469.24087524
123.06447601 152.71575928 469.30480957
127.56813049 152.70613098 469.27813721
126.81949615 152.71440125 469.33453369
110.41642761 146.60852051 468.12310791
106.40666199 146.64385986 468.19238281
111.11758423 146.61662292 468.14016724
110.27711487 146.63128662 468.20272827
164.42745972 239.86637878 471.85107422
159.36502075 239.88107300 471.94223022
165.17793274 239.85006714 471.86584473
164.28332520 239.88323975 471.93380737
145.01799011 192.29641724 466.76971436
141.23954773 192.30152893 466.83200073
145.61184692 192.30722046 466.78723145
144.99586487 192.30975342 466.83694458
135.30226135 190.77423096 534.50976562
132.31336975 190.80575562 534.52569580
135.85784912 190.79484558 534.54333496
135.38880920 190.82444763 534.56915283
141.08580017 200.22837830 535.20056152
138.21960449 200.24649048 535.24444580
141.57223511 200.24200439 535.23699951
141.11918640 200.26396179 535.28112793
158.84117126 230.55529785 469.32815552
154.22071838 230.55198669 469.41226196
159.52119446 230.55384827 469.33810425
158.75573730 230.56524658 469.40692139
148.96653748 234.54275513 467.37069702
144.17611694 234.55900574 467.47537231
149.68254089 234.54083252 467.34741211
148.85804749 234.56062317 467.42895508
151.63754272 210.30419922 467.00802612
147.69438171 210.30946350 467.07983398
152.24645996 210.31721497 467.04113770
151.63021851 210.32629395 467.09912109
134.87701416 180.34045410 465.87152100
131.18226624 180.35488892 465.92297363
135.49827576 180.35708618 465.90289307
134.88059998 180.36132812 465.94812012
164.30685425 196.42510986 506.18399048
161.79270935 196.41424561 506.21636963
164.59219360 196.42971802 506.22937012
164.33912659 196.42651367 506.25689697
144.20429993 212.66412354 535.01574707
141.21533203 212.65878296 535.05895996
144.67854309 212.65965271 535.04547119
144.22486877 212.66741943 535.08862305
153.11795044 222.16775513 532.08532715
149.96975708 222.16441345 532.13769531
153.54736328 222.15692139 532.08178711
153.06059265 222.17126465 532.13134766
125.00774384 162.64436340 467.36621094
121.16341400 162.67163086 467.41445923
125.66648102 162.66949463 467.38790894
124.92177582 162.67874146 467.43658447
163.59674072 238.41859436 518.38989258
159.74069214 238.43540955 518.43536377
164.13021851 238.41348267 518.39086914
163.61853027 238.45350647 518.44073486
129.43630981 207.65576172 539.43902588
126.41408539 207.64382935 539.46569824
129.99908447 207.70213318 539.48895264
129.52474976 207.70127869 539.51892090
140.39866638 239.17213440 536.59234619
136.83106995 239.14990234 536.66503906
140.97671509 239.20246887 536.58905029
140.44631958 239.20663452 536.65893555
154.40440369 254.04823303 476.36270142
149.11900330 254.03720093 476.47503662
155.18655396 254.04397583 476.35739136
154.25279236 254.05453491 476.44079590
131.57115173 190.07661438 463.61129761
127.45065308 190.09518433 463.66552734
132.27354431 190.09877014 463.63598633
131.52682495 190.10374451 463.68853760
151.54489136 244.60955811 472.58996582
146.57112122 244.61813354 472.70254517
152.29928589 244.59420776 472.58486938
151.39988708 244.61758423 472.66802979
125.74074554 172.15019226 465.72738647
122.21731567 172.16351318 465.77224731
126.35990906 172.16917419 465.77554321
125.72071838 172.17257690 465.81320190
179.22659302 223.38723755 479.62658691
175.72486877 223.36369324 479.74438477
179.63069153 223.41357422 479.63046265
179.26922607 223.40632629 479.71331787
167.49185181 216.63201904 477.93884277
164.29209900 216.60098267 478.02941895
167.88197327 216.65686035 477.96081543
167.55349731 216.64184570 478.02612305
115.56488037 167.04248047 465.61053467
111.77692413 167.06396484 465.67474365
116.25056458 167.06980896 465.63131714
115.53588104 167.07513428 465.68692017
158.35717773 226.41705322 525.69256592
154.64501953 226.40748596 525.74615479
158.91114807 226.40533447 525.65295410
158.33874512 226.41523743 525.70422363
145.66159058 221.90061951 467.29861450
141.29780579 221.89830017 467.40155029
146.32989502 221.89955139 467.29483032
145.55351257 221.90495300 467.37631226
137.00251770 218.36686707 464.68383789
132.66348267 218.37400818 464.78573608
137.72726440 218.37811279 464.67507935
136.97041321 218.38290405 464.75881958
130.68440247 201.19674683 464.29788208
126.88632965 201.20451355 464.38220215
131.34704590 201.21354675 464.31878662
130.68299866 201.21887207 464.38696289
142.20343018 208.42425537 466.97528076
138.25723267 208.42970276 467.06219482
142.83496094 208.43016052 466.98794556
142.11935425 208.44128418 467.05532837
148.18070984 233.37564087 535.29888916
144.64411926 233.34742737 535.35778809
148.70617676 233.37066650 535.31439209
148.12599182 233.36883545 535.36572266
158.34460449 269.35260010 489.16452026
153.20721436 269.31784058 489.29714966
159.05108643 269.34289551 489.21710205
158.17846680 269.35180664 489.30358887
159.30992126 196.37690735 485.77102661
156.79736328 196.35569763 485.83886719
159.67092896 196.41883850 485.80215454
159.42465210 196.40187073 485.84896851
100.50312805 158.89042664 468.80337524
96.74977112 158.92588806 468.87466431
101.19821167 158.91052246 468.81961060
100.44773865 158.92471313 468.87939453
121.39978027 191.01805115 464.14068604
117.55924988 191.02597046 464.21896362
122.09178925 191.03894043 464.14312744
121.37415314 191.04000854 464.20916748
82.06712341 150.33367920 475.78897095
78.82490540 150.38426208 475.86456299
82.71318054 150.35604858 475.80020142
82.09456635 150.37741089 475.84674072
136.29756165 233.57675171 469.01217651
131.52580261 233.56762695 469.15991211
137.08381653 233.58555603 468.95724487
136.18122864 233.58552551 469.07305908
143.99943542 260.10287476 483.82910156
138.87872314 260.05932617 483.99795532
144.79313660 260.08789062 483.81002808
143.86587524 260.07821655 483.93444824
69.84452820 154.74595642 481.94403076
67.27323914 154.79087830 482.02951050
70.33400726 154.81719971 481.92639160
69.95330811 154.82434082 481.96737671
141.87416077 246.81936646 474.73339844
136.71072388 246.79656982 474.89331055
142.74169922 246.80624390 474.71328735
141.71696472 246.80361938 474.83471680
102.68730164 173.50119019 466.96597290
98.92089844 173.53324890 467.04895020
103.36811066 173.53457642 466.95532227
102.63162994 173.54827881 467.02258301
119.48311615 281.04052734 514.81695557
115.45890045 280.96166992 514.90893555
120.08422089 281.12335205 514.81243896
119.47655487 281.08453369 514.86334229
127.09336853 227.36759949 467.76242065
122.84430695 227.35746765 467.89868164
127.82692719 227.37915039 467.75198364
127.02304840 227.37677002 467.85955811
88.95704651 156.10563660 472.69677734
85.47677612 156.15550232 472.76385498
89.61910248 156.14230347 472.69021606
88.92651367 156.16397095 472.73721313
125.75448608 277.66452026 502.82629395
121.19698334 277.57727051 502.96279907
126.47327423 277.70782471 502.82800293
125.73415375 277.66070557 502.91934204
111.24789429 278.97024536 524.18884277
107.46878052 278.88671875 524.28143311
111.81650543 279.04809570 524.14825439
111.19653320 279.00402832 524.20306396
66.00683594 160.85157776 491.10363770
63.75765991 160.90002441 491.17550659
66.38810730 160.91543579 491.10244751
66.02993011 160.93469238 491.12890625
130.50440979 260.71984863 488.30035400
125.89484406 260.67840576 488.46658325
131.24295044 260.72540283 488.28289795
130.41864014 260.71240234 488.40634155
245.43170166 237.12438965 483.94140625
245.78707886 248.60362244 492.48992920
253.05465698 242.55807495 471.65780640
250.80113220 253.00408936 479.96276855
227.79455566 217.12020874 495.64160156
224.93457031 225.16392517 505.05639648
237.23486328 222.67126465 486.99880981
233.52041626 231.14514160 496.08947754
234.53005981 215.42210388 460.87002563
238.62802124 228.50024414 463.87142944
246.76847839 225.62258911 458.99609375
248.30859375 239.01107788 465.01660156
238.09521484 260.70993042 499.58489990
234.31399536 270.49203491 507.81716919
246.22830200 263.41229248 487.14022827
242.07482910 272.30261230 494.86770630
222.30833435 239.31750488 512.76226807
216.32318115 247.81103516 519.24829102
230.29901123 245.27810669 503.20605469
224.42974854 254.05841064 509.81387329
209.46394348 207.04740906 509.35226440
206.70610046 212.39515686 519.08325195
218.38273621 212.22328186 502.66979980
215.03265381 217.79985046 512.53045654
191.69615173 190.66928101 511.18444824
192.12405396 194.53105164 520.09045410
201.60403442 195.25733948 504.57122803
201.20294189 198.20523071 514.90332031
205.76815796 198.32406616 490.97744751
209.42858887 202.90475464 499.62811279
216.56578064 203.42724609 482.94061279
219.25830078 207.99812317 493.84625244
207.30520630 223.49821472 522.05621338
200.18078613 230.30442810 527.28118896
215.62390137 229.74853516 516.98150635
208.38948059 236.94761658 522.66412354
192.33203125 200.47985840 521.93688965
186.77313232 205.75001526 528.91003418
201.42022705 205.84527588 517.86541748
195.21115112 210.78248596 525.13323975
214.02694702 266.37246704 522.15344238
205.61985779 273.51062012 526.50433350
223.34547424 270.47976685 513.58233643
216.14050293 277.93811035 518.60400391
184.08746338 183.67155457 496.15133667
188.95297241 187.77983093 502.54702759
192.11938477 189.10964966 489.31665039
197.16365051 191.84588623 497.58035278
204.89503479 247.20579529 527.87536621
196.41329956 253.77432251 531.10266113
212.42016602 254.02502441 522.37445068
204.42164612 260.94909668 526.26464844
190.52832031 234.69065857 531.42578125
182.27838135 240.36544800 534.31524658
198.47775269 241.68052673 529.50720215
189.99600220 247.40541077 533.05712891
223.31698608 282.94110107 501.31542969
221.92333984 287.95001221 512.97143555
234.75988770 281.82736206 499.08694458
231.73587036 288.16412354 510.19689941
158.22386169 188.89358521 559.62982178
154.35325623 195.19497681 567.91320801
162.15634155 194.26292419 550.09130859
158.05198669 199.83262634 558.33343506
221.99012756 242.38865662 468.44622803
224.27297974 255.24287415 474.06503296
236.18643188 248.20094299 472.50195312
236.46954346 261.37728882 479.51638794
153.10888672 167.78547668 542.23815918
152.75039673 173.80795288 550.97918701
158.81141663 175.19619751 535.80120850
157.82167053 179.27894592 544.61492920
205.14941406 207.37200928 468.18658447
208.97814941 218.89051819 467.24899292
217.64710999 214.30197144 466.49295044
221.32473755 227.17582703 467.83041382
188.06414795 262.47760010 533.84332275
178.53741455 267.19381714 536.17785645
196.31704712 269.42764282 530.06945801
187.68601990 274.33758545 533.20251465
166.47332764 186.81439209 534.17285156
165.34680176 192.36936951 543.05725098
171.81565857 192.62963867 525.00750732
169.85923767 196.30380249 534.14532471
186.18728638 192.05017090 482.10922241
191.79135132 198.93888855 483.31604004
195.53134155 198.63246155 476.70501709
202.74415588 205.01341248 480.07226562
143.24822998 170.74563599 558.70269775
140.87438965 177.28471375 567.84051514
152.04620361 174.98356628 553.35986328
149.19604492 181.24371338 562.19519043
188.64851379 218.97351074 525.75842285
181.25891113 224.64830017 530.19573975
197.23435974 225.41534424 523.51470947
189.19851685 231.07638550 528.67681885
152.26080322 159.53355408 523.00201416
153.18353271 165.89781189 530.00268555
156.96034241 167.49574280 516.33129883
157.67974854 171.95759583 524.07843018
134.40112305 148.93826294 535.94262695
134.78219604 155.87803650 544.41851807
144.02165222 154.96957397 531.39538574
143.60357666 160.28292847 540.51745605
138.83087158 138.81439209 513.93096924
140.73886108 146.85612488 520.08355713
147.08985901 145.62844849 508.01654053
148.66275024 152.38949585 514.91113281
174.59510803 245.82220459 536.94824219
165.89729309 251.12377930 539.14624023
181.73327637 253.54180908 535.80084229
173.20932007 258.83160400 538.69067383
136.15522766 181.65031433 579.38653564
131.60006714 188.61956787 587.44201660
145.57196045 187.62661743 573.24029541
141.02662659 195.06336975 581.20935059
162.59977722 199.52006531 542.59564209
160.12478638 205.15164185 551.20703125
166.49639893 203.62466431 530.25408936
163.33097839 207.23867798 539.28784180
166.29605103 269.02813721 541.04339600
156.15252686 271.19866943 543.30328369
173.63949585 276.57687378 537.32696533
164.60185242 278.19348145 540.22869873
200.83685303 291.44711304 517.78192139
196.28169250 290.49475098 529.89758301
213.64587402 289.80429077 520.86096191
209.18893433 289.57202148 532.01800537
156.49038696 156.68339539 500.23507690
158.91430664 163.90406799 504.49295044
157.74279785 165.98522949 491.76708984
160.96322632 171.71893311 496.77600098
120.50093079 154.12983704 552.89630127
119.86254120 160.74356079 562.42895508
131.54212952 158.33044434 547.59667969
129.80717468 164.03862000 557.50054932
164.82971191 184.83489990 515.77545166
166.79890442 189.78880310 523.39685059
170.17843628 192.82066345 507.70620728
172.63182068 195.09921265 516.43542480
151.48443604 204.81993103 571.06585693
145.78704834 211.87756348 577.90496826
155.21852112 208.26428223 558.70269775
149.17247009 214.88093567 566.00982666
211.78964233 264.85406494 477.02423096
214.03971863 274.27865601 485.63558960
226.52514648 268.21887207 481.47918701
227.06704712 279.12844849 490.90771484
128.18026733 199.94441223 594.97106934
120.26227570 206.54045105 600.54376221
138.12734985 206.02255249 587.71600342
131.13453674 213.47697449 593.61865234
114.77605438 164.58174133 573.56835938
112.92767334 171.21902466 583.06463623
125.69545746 168.91104126 567.17266846
122.77065277 175.57778931 576.73083496
164.58418274 227.50140381 533.39398193
157.20440674 233.20565796 537.34613037
171.71057129 235.00494385 532.07598877
163.49990845 240.75437927 536.54766846
144.80883789 135.20011902 492.89654541
148.73443604 144.78970337 495.21487427
149.56777954 145.86170959 488.12335205
153.83419800 154.21774292 490.53057861
152.65022278 250.96075439 546.88171387
144.15866089 255.52572632 551.06365967
159.17849731 259.97137451 544.19458008
150.89613342 264.13906860 548.65447998
123.19100952 226.01199341 599.93286133
113.22820282 230.59858704 603.01232910
130.65721130 232.12113953 590.56176758
122.11851501 237.87278748 593.92559814
147.87998962 233.42959595 545.44775391
140.57876587 238.92956543 550.87799072
152.90657043 242.25704956 542.23425293
145.65052795 248.32272339 547.59277344
160.70056152 183.77970886 500.91912842
164.09580994 189.33860779 505.36871338
164.89134216 192.16815186 492.71240234
169.67434692 195.40036011 498.56790161
166.80676270 216.73915100 525.33801270
162.70141602 222.05841064 531.17193604
175.13430786 222.47482300 521.56268311
169.61273193 227.04078674 528.68121338
135.80816650 260.93780518 561.05004883
127.17124176 262.39971924 566.76312256
141.72651672 268.96923828 552.69201660
134.21121216 269.22064209 558.01129150
196.44963074 230.71299744 469.85116577
199.35087585 242.03115845 470.71496582
208.13903809 235.48226929 471.20602417
210.16003418 247.54684448 473.07995605
187.05450439 210.66168213 471.07540894
190.00355530 220.78555298 468.69961548
197.04382324 216.42486572 469.98965454
200.66447449 227.49945068 468.31292725
195.75183105 282.89788818 498.02133179
196.01770020 287.30572510 509.17449951
210.06950378 284.98199463 502.38299561
209.02786255 289.66287231 514.13330078
143.26771545 220.03520203 577.05688477
138.12327576 226.85319519 583.65490723
143.64402771 224.49803162 564.81848145
138.30807495 230.86032104 571.55596924
173.33674622 223.32142639 515.34820557
170.10943604 228.88426208 519.47906494
182.07015991 228.82533264 513.80450439
177.23411560 234.55316162 519.62274170
173.33207703 291.25109863 525.80010986
167.50799561 287.40408325 536.23828125
185.57835388 289.41143799 530.07635498
180.64999390 285.85119629 539.41448975
122.37583160 246.02648926 586.45007324
114.13373566 246.99095154 592.33404541
126.20616913 252.55279541 576.02368164
119.08763885 254.29216003 580.97363281
148.04179382 216.22009277 545.54602051
144.76832581 221.96853638 552.84130859
150.82148743 221.14501953 534.63641357
147.48123169 226.57722473 542.88244629
161.37013245 191.20651245 484.50073242
164.89552307 198.58630371 484.48306274
167.84831238 198.93594360 479.56475830
173.26577759 204.97509766 480.78778076
174.13179016 240.71902466 515.45452881
169.28984070 246.49595642 519.46752930
182.49639893 246.53720093 515.02288818
175.73930359 252.84645081 520.37945557
146.90202332 196.67155457 538.58264160
148.00814819 202.42982483 546.81292725
150.94229126 201.88603210 528.37628174
152.35951233 204.47618103 537.46301270
151.12103271 150.86325073 480.17001343
152.78477478 161.70605469 476.89065552
156.24189758 163.67425537 480.06884766
158.38591003 172.29153442 477.70336914
190.35546875 269.72668457 483.35263062
192.29911804 277.34417725 491.23721313
204.38235474 272.82904053 486.43750000
205.12805176 280.93951416 495.27282715
134.29977417 241.20910645 565.17303467
129.07479858 244.33230591 573.55853271
135.39308167 249.22436523 556.86608887
130.68078613 253.01538086 564.51104736
186.87280273 248.73915100 473.39669800
189.38119507 258.33660889 476.98345947
198.35203552 251.55200195 475.05010986
199.77754211 261.85070801 479.21929932
172.21244812 289.13546753 509.20321655
172.17279053 291.35949707 521.09100342
186.39549255 289.78759766 514.08618164
184.80245972 291.19793701 525.93469238
136.31335449 288.47448730 536.33355713
135.36460876 283.40469360 546.66564941
146.91847229 289.34954834 536.38659668
145.24784851 283.79064941 546.06652832
175.67251587 228.44033813 468.38900757
178.14688110 238.46992493 468.32531738
185.43299866 232.48085022 468.59967041
187.79013062 243.02508545 468.99130249
141.21078491 204.87835693 535.24273682
141.55747986 210.12101746 541.75042725
145.42562866 209.89462280 528.05548096
146.73751831 213.50791931 535.91845703
166.80479431 208.74847412 470.61087036
168.84236145 219.37127686 468.21444702
175.36019897 213.83790588 470.36236572
178.28057861 224.85356140 468.27926636
152.95272827 180.94415283 475.16894531
153.79220581 192.10124207 471.37496948
159.98974609 189.40232849 475.53921509
162.40284729 199.51048279 472.65615845
169.56655884 277.11090088 493.75823975
170.98182678 282.98016357 502.28320312
182.78245544 279.80023193 496.22695923
183.02038574 285.44754028 505.52978516
136.06909180 139.89866638 474.08615112
136.06468201 151.79824829 469.68225098
144.26419067 149.52557373 474.98727417
144.36387634 159.48150635 471.57287598
147.72627258 292.16024780 519.92047119
147.54458618 291.10858154 531.70220947
160.76243591 293.36895752 523.28332520
159.08224487 291.13018799 534.77038574
166.40408325 261.08856201 480.10501099
168.45036316 268.74725342 485.57550049
177.76889038 263.55569458 481.40576172
178.99754333 271.44421387 487.29467773
114.08119202 274.46527100 554.31060791
117.25988007 271.17315674 563.96301270
122.97985077 280.31143188 553.44042969
125.65420532 275.75433350 563.00640869
93.74063110 235.34770203 582.19738770
98.80354309 238.18927002 590.00146484
99.58827209 245.97677612 577.69329834
105.28074646 246.94306946 585.90008545
101.69987488 256.69018555 568.09588623
106.74216461 256.55175781 577.21795654
109.63751221 265.16247559 565.74658203
114.61891174 263.53701782 575.16723633
147.45103455 283.48376465 503.49575806
149.16166687 288.61050415 512.60998535
160.40666199 286.32360840 505.48754883
160.62997437 290.88269043 515.65069580
160.87857056 242.19812012 471.41842651
163.45619202 250.89593506 474.16152954
170.65771484 245.51185608 471.47293091
172.92890930 254.45323181 474.40069580
137.19972229 170.59635925 469.46078491
137.46687317 181.94985962 466.86791992
144.81129456 178.09988403 470.64718628
145.86045837 187.98019409 468.82507324
144.86973572 198.73655701 467.37249756
146.26289368 209.68544006 465.85485840
153.06468201 203.69636536 468.24636841
155.26959229 214.14138794 467.19375610
151.65434265 221.92483521 467.30645752
154.20347595 231.87191772 467.88278198
160.65072632 225.26213074 467.82894897
163.62512207 235.36833191 468.46231079
112.47293854 279.99078369 533.45391846
116.15693665 280.91275024 543.50708008
121.65298462 286.64071655 533.78393555
124.52082062 285.92584229 544.55603027
123.60153961 283.69244385 515.98364258
126.22581482 287.61315918 525.18432617
134.14970398 289.38589478 516.57489014
135.90084839 292.19287109 527.00915527
81.74087524 213.69746399 575.00622559
86.13397217 218.58949280 582.44885254
83.83282471 223.69415283 567.33374023
88.90458679 227.36735535 575.19866943
114.57308960 137.77331543 471.29147339
114.55949402 149.79075623 468.32049561
124.22943115 145.40844727 469.75665283
124.05627441 156.24339294 467.24826050
143.12103271 270.67028809 489.87057495
145.25718689 277.67291260 496.40374756
153.93534851 274.20010376 490.39013672
155.52740479 281.20077515 497.33581543
141.42095947 253.55850220 479.31604004
144.11495972 261.78094482 483.85742188
151.48098755 256.97732544 479.15939331
154.17204285 265.25280762 483.81372070
85.51031494 234.94404602 562.46820068
90.40431213 238.86669922 569.87548828
89.66770935 245.52069092 557.69110107
95.24624634 247.99665833 565.80554199
91.52885437 253.12586975 550.73168945
96.56623840 255.90679932 558.84411621
97.81944275 262.26712036 548.53564453
103.04834747 264.07720947 557.33947754
119.03312683 173.42883301 467.21633911
119.79735565 184.51913452 466.18829346
127.73143005 179.34524536 467.09481812
128.80049133 189.26678467 466.47656250
122.43574524 273.51062012 500.62106323
125.02858734 280.00061035 507.67083740
132.04301453 278.37811279 500.36569214
134.38540649 284.65985107 507.95959473
72.14489746 202.89689636 562.01055908
76.40638733 208.36445618 569.25482178
73.02587128 212.19282532 553.59655762
77.93460083 216.85012817 561.27490234
134.83032227 236.13096619 471.91317749
137.68147278 244.74627686 475.27697754
144.38160706 239.13581848 471.82968140
147.52444458 247.76290894 475.21511841
96.13114929 264.00646973 534.22979736
100.35827637 267.33297729 542.76458740
103.23986816 271.75457764 533.17889404
107.51412964 274.40045166 542.34027100
62.71085358 184.29226685 551.52331543
65.69949341 191.89401245 558.17431641
61.84865570 191.80169678 541.76770020
65.35586548 199.28361511 549.05322266
104.69932556 270.31082153 515.50238037
107.76555634 275.29025269 523.40270996
112.38356781 276.71435547 514.49670410
115.55292511 281.20077515 523.02362061
96.99064636 147.38255310 474.63171387
97.12390900 159.21534729 471.96719360
106.26803589 153.61715698 470.59954834
106.52155304 164.83709717 468.10690308
120.20530701 196.60949707 465.57446289
121.81576538 206.88658142 466.12115479
129.07891846 201.04679871 465.80722046
131.17529297 210.80728149 466.53088379
119.63763428 259.26571655 488.57415771
122.56636810 267.15029907 493.96609497
128.82749939 263.54388428 487.81201172
131.80140686 271.43832397 493.38366699
125.37429810 216.21075439 466.37982178
127.70982361 225.56463623 468.62448120
134.74487305 219.39288330 466.53497314
137.59700012 228.67703247 468.74148560
76.15741730 225.94668579 547.78918457
80.77935791 230.06576538 555.18664551
79.35820007 235.51368713 542.30297852
84.53799438 238.74197388 550.35058594
82.76818848 245.08462524 535.30670166
87.26245117 248.62620544 543.08526611
88.32119751 253.36698914 532.63922119
93.01384735 256.39688110 541.15631104
102.93344116 259.59963989 499.80883789
106.01342010 266.32531738 506.48147583
110.92803955 264.82852173 498.75106812
114.23587799 271.47955322 505.82833862
89.75119019 256.08358765 516.47277832
93.35169983 260.70355225 524.38092041
96.32757568 262.54605103 515.15667725
100.17559814 266.98138428 523.67773438
65.67310333 207.27674866 540.70208740
69.49754333 212.87001038 547.46704102
67.09041595 216.07522583 532.99230957
71.48842621 221.13519287 540.40545654
116.39854431 241.41633606 478.55145264
119.38915253 249.71343994 483.40124512
125.79759979 244.79489136 478.21850586
129.10641479 253.13520813 483.01525879
56.61337280 171.01867676 524.45361328
57.87197876 180.51791382 527.95715332
57.13243103 177.39865112 515.23919678
58.66358185 187.23573303 519.05383301
97.83467102 176.52847290 468.27191162
99.07437134 187.70520020 467.80230713
107.09966278 182.03335571 466.01974487
108.25833893 192.25936890 465.95281982
80.37263489 146.81683350 481.89758301
79.97645569 158.19000244 479.06707764
87.76506042 152.16752625 475.18051147
87.75327301 163.71549988 472.35391235
59.22782135 193.60391235 527.85180664
61.65222931 201.21351624 533.30267334
59.95902252 201.11726379 519.43981934
62.65892029 208.81918335 525.56243896
69.15969086 225.38587952 526.70074463
73.24930573 229.87719727 533.76031494
73.02243805 233.84208679 521.98449707
77.40080261 237.99948120 529.87500000
76.58660889 240.89874268 518.06384277
80.27748108 245.28202820 525.52020264
82.27319336 248.36398315 515.34722900
86.08781433 252.44573975 523.65216064
106.66555786 223.25071716 471.27380371
109.44599152 232.21960449 475.03930664
116.28166962 226.93176270 470.40167236
119.31254578 235.89279175 474.11120605
98.29774475 245.14453125 488.04772949
101.29817963 252.78948975 493.92089844
106.89734650 249.60343933 487.01647949
110.27393341 257.38000488 493.04486084
99.98603821 202.63761902 466.80801392
102.04067230 212.80078125 468.63333130
109.46858215 207.04544067 465.53762817
111.63713837 216.73521423 467.53591919
84.59889221 244.72564697 499.67919922
87.73191071 250.79722595 506.61700439
91.75572968 250.44758606 498.06848145
95.24133301 256.60952759 505.62896729
66.58182526 156.37893677 491.74203491
65.70894623 167.35922241 489.65499878
71.34224701 161.63140869 483.63842773
71.11183929 173.08901978 481.55972290
81.07350922 170.49421692 475.77740479
81.63504028 181.82807922 474.27374268
89.24588013 176.17097473 470.64401245
90.06964111 187.26911926 469.51699829
58.91623688 168.12136841 504.71951294
58.54396057 178.42988586 504.88403320
61.38091278 173.96311951 496.12728882
61.34383392 184.80592346 496.41970825
63.10775757 213.20835876 513.94079590
65.91667175 219.50582886 519.37200928
66.56586456 220.80764771 508.19332886
69.42289734 227.31922913 514.43383789
71.26441193 230.21603394 503.40246582
74.15779114 235.99493408 509.64886475
77.22696686 237.10180664 500.10052490
80.23034668 242.85321045 507.19940186
59.30737305 193.32006836 504.85272217
60.44714355 202.15931702 507.75100708
62.30265045 199.87683105 497.71551514
63.55609894 209.37409973 501.17755127
91.95411682 228.11819458 478.77142334
94.82490540 236.74922180 483.58587646
101.16067505 232.72048950 477.32278442
104.28092957 241.48509216 482.24624634
81.16583252 192.58151245 473.72274780
82.71809387 203.18466187 474.66070557
89.75069427 198.14004517 469.75515747
91.42179871 208.46426392 471.18737793
84.50166321 210.21578979 474.07485962
86.82638550 219.74252319 477.15386963
93.47447205 215.31896973 471.25930786
95.91704559 224.64141846 474.66586304
78.93637848 229.00408936 488.34432983
81.60238647 236.23654175 493.76376343
86.97370148 234.69949341 485.70434570
89.74922180 242.08714294 491.70718384
64.90236664 188.37698364 488.90661621
65.88130951 198.22781372 489.71539307
70.32597351 193.93194580 482.04882812
71.73730469 204.50367737 483.29589844
66.84626007 212.21934509 493.93072510
68.92987061 220.02537537 498.12643433
72.33052063 218.67543030 489.08880615
74.51380920 226.91555786 494.05349731
66.96411896 203.36242676 488.42193604
68.77174377 212.28810120 491.29467773
72.90998077 209.46347046 482.88757324
74.93809509 218.91949463 486.42916870
69.85346222 154.79757690 481.90484619
69.85616302 154.80227661 481.91311646
69.86156464 154.79939270 481.91256714
69.86267853 154.79708862 481.91998291
136.70433044 284.33779907 509.99295044
136.70939636 284.34204102 510.00781250
136.69386292 284.33584595 509.99533081
136.70242310 284.33987427 510.01016235
163.55302429 186.03617859 499.60003662
163.56021118 186.03680420 499.61868286
163.56066895 186.03273010 499.61697388
163.57446289 186.03019714 499.62878418
76.25439453 227.94117737 543.00189209
76.25634003 227.94456482 543.01147461
76.25453186 227.94235229 543.01068115
76.26152039 227.94772339 543.01824951
102.13758850 224.53819275 471.86450195
102.14155579 224.54707336 471.87402344
102.13954926 224.53988647 471.87512207
102.14373016 224.54417419 471.88339233
177.67008972 243.46437073 471.49060059
177.68218994 243.47177124 471.49676514
177.68569946 243.45976257 471.49560547
177.70370483 243.46183777 471.50415039
126.92231750 152.70625305 469.26028442
126.92256165 152.71308899 469.26641846
126.92507172 152.70910645 469.26843262
126.93038177 152.70875549 469.27166748
148.14649963 233.37622070 535.31353760
148.15614319 233.37442017 535.32482910
148.15045166 233.37078857 535.32897949
148.16513062 233.36975098 535.33697510
61.75771332 205.36331177 498.52926636
61.76457214 205.36778259 498.53417969
61.76152039 205.36361694 498.53503418
61.76841736 205.36361694 498.54086304
91.92082214 255.93045044 510.10113525
91.92405701 255.93817139 510.10855103
91.92407227 255.92605591 510.10873413
91.92879486 255.93215942 510.11645508
135.36189270 190.81549072 534.48291016
135.36357117 190.81637573 534.49963379
135.36729431 190.81210327 534.48724365
135.37806702 190.81179810 534.49786377
142.20730591 208.41957092 466.99948120
142.20655823 208.42658997 467.01434326
142.20993042 208.41610718 467.00808716
142.21376038 208.41859436 467.02011108
134.64921570 252.74093628 481.41940308
134.64805603 252.74865723 481.42898560
134.65226746 252.74209595 481.42428589
134.65599060 252.74652100 481.43304443
97.79908752 179.28584290 467.35235596
97.80253601 179.29200745 467.36148071
97.80382538 179.28746033 467.35809326
97.80850220 179.28825378 467.36645508
174.98950195 214.02203369 484.91595459
174.99055481 214.02551270 484.93038940
175.00492859 214.02169800 484.93511963
175.01409912 214.02113342 484.94631958
90.42982483 257.82431030 542.19647217
90.43365479 257.82815552 542.21020508
90.42962646 257.81909180 542.20080566
90.43859863 257.82586670 542.21368408
59.15740204 188.33935547 525.29956055
59.16223907 188.34452820 525.31048584
59.15866852 188.34707642 525.31243896
59.16508484 188.34956360 525.32080078
79.63607788 232.79827881 493.05105591
79.64369965 232.80436707 493.05426025
79.64356995 232.79342651 493.06011963
79.65089417 232.79693604 493.06509399
79.14514160 203.57099915 471.62875366
79.15359497 203.57768250 471.63491821
79.14356232 203.56755066 471.63275146
79.15121460 203.56895447 471.64044189
148.46264648 174.73754883 471.06881714
148.46534729 174.74291992 471.07595825
148.46385193 174.74395752 471.08233643
148.47332764 174.74391174 471.08529663
158.31922913 269.35824585 489.26757812
158.32229614 269.36688232 489.28070068
158.32156372 269.35745239 489.26644897
158.32810974 269.36169434 489.28024292
111.28156281 279.00369263 524.17559814
111.28821564 279.00817871 524.18933105
111.27551270 278.99899292 524.17456055
111.28575897 279.00503540 524.19006348
98.30744171 150.69638062 468.69213867
98.30976105 150.70167542 468.70068359
98.31765747 150.70016479 468.69525146
98.32142639 150.69747925 468.70239258
59.09683228 173.27621460 501.20581055
59.10095215 173.28063965 501.21054077
59.10548401 173.27842712 501.21392822
59.10952759 173.27746582 501.22030640
106.40934753 248.94352722 487.41827393
106.41126251 248.95141602 487.42477417
106.40990448 248.93852234 487.42303467
106.41261292 248.94467163 487.43017578
148.97447205 234.52301025 467.37203979
148.97384644 234.53291321 467.38128662
148.97839355 234.51884460 467.38031006
148.98352051 234.52258301 467.38916016
68.24768066 227.67677307 516.51794434
68.25533295 227.68283081 516.52270508
68.25110626 227.67486572 516.52514648
68.26142883 227.67922974 516.53094482
121.39111328 191.02294922 464.13516235
121.39500427 191.02969360 464.14678955
121.39465332 191.02052307 464.14288330
121.40106964 191.02258301 464.15255737
118.15145874 270.78451538 500.18975830
118.15509033 270.79269409 500.19555664
118.14866638 270.78601074 500.19869995
118.15363312 270.79235840 500.20462036
72.46028900 183.69985962 483.31314087
72.46686554 183.70512390 483.32220459
72.46536255 183.69764709 483.32333374
72.47185516 183.69783020 483.33267212
163.60437012 238.45367432 518.38909912
163.60333252 238.45581055 518.40136719
163.62322998 238.44367981 518.40301514
163.62847900 238.44242859 518.41320801
148.48297119 209.51805115 530.94244385
148.48637390 209.52079773 530.95410156
148.49096680 209.50990295 530.94427490
148.50154114 209.51193237 530.95233154
64.19014740 207.40457153 537.33502197
64.19525146 207.40982056 537.34387207
64.18993378 207.40580750 537.34912109
64.19810486 207.40969849 537.35559082
127.08319092 227.35937500 467.74404907
127.08331299 227.36824036 467.75402832
127.08882904 227.35560608 467.75601196
127.09143066 227.36061096 467.76428223
159.88790894 193.99705505 475.39675903
159.89131165 193.99964905 475.40707397
159.89762878 193.99481201 475.41162109
159.90562439 193.99261475 475.41799927
78.16589355 244.47538757 525.64807129
78.17140198 244.48071289 525.64984131
78.17163086 244.46969604 525.65960693
78.18013763 244.47497559 525.66229248
137.20767212 270.38598633 492.10162354
137.20782471 270.39572144 492.10885620
137.20707703 270.38500977 492.10507202
137.20928955 270.39175415 492.11267090
154.39047241 254.03768921 476.38641357
154.38894653 254.04626465 476.39480591
154.39741516 254.03781128 476.39599609
154.40124512 254.04208374 476.40454102
166.81483459 226.46539307 471.07333374
166.81886292 226.47444153 471.08355713
166.81860352 226.46206665 471.08346558
166.82833862 226.46543884 471.09240723
125.71938324 172.15539551 465.74935913
125.72116852 172.16168213 465.75994873
125.72062683 172.15724182 465.76052856
125.72708130 172.15707397 465.76910400
99.73663330 205.69073486 467.99365234
99.74148560 205.69793701 468.00457764
99.73895264 205.69023132 467.99731445
99.74497986 205.69320679 468.00778198
72.98581696 218.21264648 483.15161133
72.99469757 218.21911621 483.15710449
72.98897552 218.21006775 483.15762329
72.99712372 218.21189880 483.16580200
86.31873322 165.99432373 473.78265381
86.32212830 165.99925232 473.79345703
86.32540131 165.99778748 473.79321289
86.33123779 165.99777222 473.80255127
129.47628784 207.69070435 539.44384766
129.47552490 207.69412231 539.45434570
129.47209167 207.69462585 539.45013428
129.47956848 207.69705200 539.45764160
172.82238770 203.92715454 499.86843872
172.82749939 203.93083191 499.88964844
172.82348633 203.93040466 499.87933350
172.83621216 203.92968750 499.89520264
113.69236755 238.00338745 475.13519287
113.69406128 238.01193237 475.14129639
113.69438934 238.00204468 475.14437866
113.69793701 238.00683594 475.14993286
62.47579956 211.21159363 515.80133057
62.48407745 211.21620178 515.80700684
62.47799683 211.21278381 515.81060791
62.48744202 211.21568298 515.81646729
116.47984314 209.39340210 465.18334961
116.48352051 209.40036011 465.19433594
116.48161316 209.39201355 465.19226074
116.48738098 209.39556885 465.20181274
161.56427002 211.19451904 465.79855347
161.56765747 211.20057678 465.80480957
161.57334900 211.19039917 465.81027222
161.58303833 211.19219971 465.81564331
68.21957397 220.66740417 500.04434204
68.22668457 220.67358398 500.04776001
68.22475433 220.66246033 500.04888916
68.23188782 220.66494751 500.05404663
86.66995239 227.21781921 479.03341675
86.67484283 227.22599792 479.03991699
86.67240143 227.21485901 479.04318237
86.67643738 227.22073364 479.04971313
91.68041992 247.49057007 496.04800415
91.68426514 247.49736023 496.05398560
91.68504333 247.48588562 496.05218506
91.68869781 247.49118042 496.05731201
145.02403259 192.28718567 466.77069092
145.02430725 192.29122925 466.77935791
145.03007507 192.28559875 466.78286743
145.03500366 192.28460693 466.78961182
59.17230988 191.00860596 505.67193604
59.17979431 191.01145935 505.67736816
59.17362213 191.00808716 505.67929077
59.18261719 191.00784302 505.68496704
157.87121582 171.33042908 483.77722168
157.87379456 171.33587646 483.78659058
157.87741089 171.33082581 483.78985596
157.88647461 171.33062744 483.79495239
103.87731934 261.83938599 500.96722412
103.88153076 261.84698486 500.97329712
103.87837219 261.83868408 500.97018433
103.88339233 261.84564209 500.97689819
84.66177368 186.88079834 472.52059937
84.66983795 186.88607788 472.53244019
84.66481018 186.88081360 472.52822876
84.67094421 186.88087463 472.53967285
100.20773315 268.94140625 529.65081787
100.21102905 268.94750977 529.66296387
100.20782471 268.93865967 529.65454102
100.21392822 268.94674683 529.66760254
145.08901978 159.57084656 473.90124512
145.08819580 159.57923889 473.90975952
145.09318542 159.57681274 473.91201782
145.09806824 159.57730103 473.91549683
80.81507874 244.90431213 508.30004883
80.82012939 244.91076660 508.30566406
80.82188416 244.90002441 508.30584717
80.82798767 244.90498352 508.31277466
162.39231873 203.79850769 488.72195435
162.39004517 203.80236816 488.73468018
162.39231873 203.80212402 488.74099731
162.39819336 203.80189514 488.75018311
103.74780273 164.86578369 468.64935303
103.74844360 164.87184143 468.65835571
103.75135803 164.86868286 468.65551758
103.75416565 164.86891174 468.66302490
99.02809143 236.55314636 482.80163574
99.03091431 236.56164551 482.81204224
99.03073120 236.55137634 482.80883789
99.03381348 236.55773926 482.81927490
158.36976624 226.42210388 525.69421387
158.37532043 226.42005920 525.70745850
158.38659668 226.41441345 525.70434570
158.39909363 226.41088867 525.71398926
67.40621948 198.18130493 486.86355591
67.41374207 198.18614197 486.87036133
67.40523529 198.17799377 486.86990356
67.41313171 198.17808533 486.87823486
105.98566437 270.62298584 512.16217041
105.99000549 270.62951660 512.17114258
105.98473358 270.61944580 512.16644287
105.99047852 270.62606812 512.17602539
146.44746399 278.40155029 499.66027832
146.45068359 278.40750122 499.67193604
146.44284058 278.40100098 499.66369629
146.44793701 278.40576172 499.67608643
82.04397583 150.36447144 475.78286743
82.04638672 150.36970520 475.79238892
82.05393219 150.36408997 475.78933716
82.05596924 150.36215210 475.79846191
81.29447937 241.25448608 542.18627930
81.29534912 241.25956726 542.19506836
81.29534912 241.25358582 542.19342041
81.30155945 241.26104736 542.20056152
119.30438232 255.00167847 487.64266968
119.30551910 255.00956726 487.65167236
119.30646515 254.99909973 487.65036011
119.30922699 255.00616455 487.65884399
130.69770813 201.19744873 464.30297852
130.69918823 201.20457458 464.31506348
130.69680786 201.19757080 464.31320190
130.70117188 201.19966125 464.32211304
113.58871460 155.01457214 467.14523315
113.58943176 155.02185059 467.15252686
113.59432983 155.01791382 467.15048218
113.59780121 155.01702881 467.15643311
164.43930054 239.84481812 471.89657593
164.44067383 239.85144043 471.90823364
164.44180298 239.84030151 471.90270996
164.44844055 239.84150696 471.91308594
111.77761841 175.30413818 465.32049561
111.78036499 175.31106567 465.32925415
111.77902985 175.30676270 465.32897949
111.78419495 175.30793762 465.33560181
168.11831665 264.39187622 481.34826660
168.12626648 264.40100098 481.35577393
168.12867737 264.38375854 481.35116577
168.14059448 264.38754272 481.36117554
68.34856415 219.46998596 533.23162842
68.35263824 219.47703552 533.23522949
68.34866333 219.47534180 533.24591064
68.35667419 219.48171997 533.24853516
86.66679382 214.50706482 473.32159424
86.67330933 214.51528931 473.33203125
86.66633606 214.50912476 473.32907104
86.67208862 214.51356506 473.33959961
75.48674011 169.87405396 480.60375977
75.49330902 169.87866211 480.61273193
75.49655151 169.87599182 480.61416626
75.50205994 169.87484741 480.62298584
88.86431885 256.31375122 523.08935547
88.86772919 256.32073975 523.09069824
88.86920166 256.30844116 523.09680176
88.87632751 256.31509399 523.09918213
107.99452209 196.03181458 464.62915039
107.99740601 196.03971863 464.63757324
107.99781799 196.03105164 464.63513184
108.00228882 196.03410339 464.64273071
145.61804199 221.88618469 467.30499268
145.61734009 221.89315796 467.31585693
145.61904907 221.88374329 467.31246948
145.62384033 221.88493347 467.32211304
129.12312317 239.14512634 471.90301514
129.12297058 239.15386963 471.91134644
129.12580872 239.14259338 471.91397095
129.12788391 239.14735413 471.92077637
171.82791138 254.43377686 474.54461670
171.83732605 254.43952942 474.55172729
171.83322144 254.43293762 474.54724121
171.84732056 254.43450928 474.55673218
119.52252197 281.05926514 514.84899902
119.52812195 281.06616211 514.86242676
119.51779175 281.05917358 514.84851074
119.52580261 281.06542969 514.86291504
62.97682190 182.67132568 493.82293701
62.98204041 182.67539978 493.82958984
62.98027039 182.67163086 493.83230591
62.98464203 182.67065430 493.83892822
164.32608032 196.41165161 506.20074463
164.33241272 196.41302490 506.22460938
164.32098389 196.41894531 506.21041870
164.33343506 196.41708374 506.22653198
134.88526917 180.33439636 465.87786865
134.88305664 180.34062195 465.88476562
134.88392639 180.33546448 465.88833618
134.88912964 180.33563232 465.89294434
157.53881836 182.02015686 476.12545776
157.53962708 182.02304077 476.13513184
157.54093933 182.01747131 476.13269043
157.54978943 182.01603699 476.13900757
58.79689026 198.97183228 519.31909180
58.80337524 198.97521973 519.32592773
58.79730988 198.97224426 519.32751465
58.80577850 198.97291565 519.33270264
143.99992371 260.06918335 483.83496094
143.99765015 260.07791138 483.84359741
144.00003052 260.06768799 483.84017944
144.00140381 260.07263184 483.85003662
163.46797180 210.22535706 478.96414185
163.46832275 210.22952271 478.98187256
163.47193909 210.22520447 478.97949219
163.47717285 210.22570801 478.99218750
65.98130035 160.92825317 491.05743408
65.98338318 160.93330383 491.06668091
65.98722076 160.93365479 491.06619263
65.98904419 160.93157959 491.07525635
151.71556091 201.93472290 469.00930786
151.71327209 201.94203186 469.01623535
151.71875000 201.93341064 469.02359009
151.72262573 201.93562317 469.02807617
162.61987305 183.29663086 488.30084229
162.62403870 183.29864502 488.31710815
162.62271118 183.29406738 488.31356812
162.63359070 183.29151917 488.32427979
126.23816681 215.67059326 465.29730225
126.23837280 215.67953491 465.30978394
126.24076843 215.67050171 465.30941772
126.24398041 215.67536926 465.31909180
177.98187256 229.29760742 469.81307983
177.99090576 229.30584717 469.82189941
177.99484253 229.29339600 469.82397461
178.01058960 229.29660034 469.83258057
179.28271484 223.41403198 479.67773438
179.28692627 223.41752625 479.69573975
179.28109741 223.41171265 479.68472290
179.29077148 223.41188049 479.69931030
141.87667847 246.77648926 474.74136353
141.87768555 246.78387451 474.75112915
141.88186646 246.77264404 474.75158691
141.88589478 246.77571106 474.76034546
130.48416138 260.69635010 488.31616211
130.48355103 260.70651245 488.32266235
130.48699951 260.69528198 488.32302856
130.48844910 260.70382690 488.32977295
112.67269135 223.32304382 468.34799194
112.67460632 223.33120728 468.35537720
112.67315674 223.32160950 468.35458374
112.67782593 223.32641602 468.36187744
141.12849426 200.26628113 535.21618652
141.13319397 200.26805115 535.22790527
141.13389587 200.26129150 535.21942139
141.14492798 200.26239014 535.22698975
74.37397766 234.47531128 528.52197266
74.37794495 234.48292542 528.52496338
74.37780762 234.47599792 528.52917480
74.38455200 234.48312378 528.53259277
88.84829712 235.12870789 487.54418945
88.85325623 235.13601685 487.55242920
88.85092163 235.12599182 487.55407715
88.85556793 235.13174438 487.56326294
97.54367065 262.58407593 516.48577881
97.54663849 262.59155273 516.49365234
97.54148102 262.58358765 516.49267578
97.54589844 262.59103394 516.50006104
74.74475098 238.24414062 517.53790283
74.74916077 238.25047302 517.54205322
74.75054932 238.24340820 517.54534912
74.75743103 238.24818420 517.54968262
139.86274719 166.61645508 467.70843506
139.86433411 166.62277222 467.71496582
139.86500549 166.61352539 467.71890259
139.87159729 166.61380005 467.72229004
57.65760803 181.67416382 517.13677979
57.66204834 181.67718506 517.14416504
57.65855408 181.67872620 517.14794922
57.66542816 181.67871094 517.15399170
62.09300232 193.47023010 495.74160767
62.10168457 193.47283936 495.75048828
62.09835815 193.46772766 495.74874878
62.10633087 193.46577454 495.75848389
125.75360107 277.63674927 502.84228516
125.75725555 277.64575195 502.84994507
125.74998474 277.63848877 502.84475708
125.75520325 277.64508057 502.85293579
87.97772217 176.87268066 471.96530151
87.98403168 176.87811279 471.97555542
87.98259735 176.87399292 471.97229004
87.98873901 176.87353516 471.98327637
112.52904510 260.71832275 495.03250122
112.53139496 260.72750854 495.04003906
112.52728271 260.71954346 495.03903198
112.53037262 260.72811890 495.04727173
69.62451935 215.73460388 542.93896484
69.62691498 215.73968506 542.95166016
69.62485504 215.74110413 542.95227051
69.63332367 215.74758911 542.96087646
91.22294617 193.72074890 468.35040283
91.22908020 193.72795105 468.36041260
91.22303772 193.72248840 468.35675049
91.22805786 193.72502136 468.36663818
160.27355957 193.14138794 492.84130859
160.27363586 193.14321899 492.85501099
160.27565002 193.14224243 492.85900879
160.28364563 193.14083862 492.86761475
63.08413696 211.09480286 527.87609863
63.08869934 211.10113525 527.87530518
63.08741760 211.09712219 527.88745117
63.09607697 211.10131836 527.88598633
131.54475403 190.05860901 463.62707520
131.54667664 190.06408691 463.63558960
131.54440308 190.05709839 463.63763428
131.55210876 190.05786133 463.64355469
148.80384827 271.16293335 492.40042114
148.80387878 271.17102051 492.41302490
148.79957581 271.16418457 492.40090942
148.80249023 271.16946411 492.41397095
151.57009888 244.59693909 472.60034180
151.56987000 244.60516357 472.60784912
151.57633972 244.59725952 472.61212158
151.58126831 244.60092163 472.61968994
79.68687439 194.64466858 476.78286743
79.69578552 194.65086365 476.79510498
79.69104767 194.64416504 476.79223633
79.69836426 194.64495850 476.80343628
67.84439850 175.16409302 486.23406982
67.85066986 175.16896057 486.24224854
67.85268402 175.16758728 486.24545288
67.85681915 175.16625977 486.25390625
71.94084930 229.09497070 504.08709717
71.94801331 229.10063171 504.09152222
71.94410706 229.09573364 504.09585571
71.95056915 229.09973145 504.10061646
154.78112793 225.43890381 467.54672241
154.78016663 225.44845581 467.55661011
154.78501892 225.43751526 467.55838013
154.79051208 225.44166565 467.56658936
140.37681580 239.23706055 536.55761719
140.37785339 239.23880005 536.56414795
140.38702393 239.22286987 536.56549072
140.39433289 239.22390747 536.56988525
135.07548523 277.60845947 498.33441162
135.07812500 277.61676025 498.34259033
135.07141113 277.61395264 498.33929443
135.07727051 277.62042236 498.34933472
113.46018982 184.77287292 463.90805054
113.46070862 184.78063965 463.91699219
113.46272278 184.77366638 463.91683960
113.46678162 184.77624512 463.92416382
136.99658203 218.33854675 464.69049072
136.99688721 218.34606934 464.69891357
136.99851990 218.33602905 464.70227051
137.00273132 218.33906555 464.70950317
125.00778198 162.64443970 467.35858154
125.00765228 162.65036011 467.36468506
125.00626373 162.64529419 467.36386108
125.01052856 162.64520264 467.36779785
92.46650696 260.91610718 533.26538086
92.47010803 260.92205811 533.27728271
92.46900940 260.91259766 533.27508545
92.47555542 260.92102051 533.28479004
97.89303589 244.73751831 489.24871826
97.89666748 244.74560547 489.25604248
97.89771271 244.73468018 489.25540161
97.90122223 244.73991394 489.26303101
119.81970215 244.24935913 478.97906494
119.81981659 244.25791931 478.98730469
119.82219696 244.24800110 478.98822021
119.82440186 244.25378418 478.99594116
120.93645477 234.32574463 470.13302612
120.93756104 234.33523560 470.13894653
120.94157410 234.32418823 470.14157104
120.94406891 234.32890320 470.14791870
67.57350159 213.19181824 494.16903687
67.58055878 213.19746399 494.17401123
67.57646942 213.18830872 494.17590332
67.58376312 213.19073486 494.18289185
136.25379944 233.55050659 468.99008179
136.25390625 233.55807495 469.00036621
136.25692749 233.54908752 468.99993896
136.26181030 233.55299377 469.00860596
88.90979004 156.15390015 472.66702271
88.91265869 156.15975952 472.67788696
88.91773987 156.15777588 472.67355347
88.91982269 156.15710449 472.68200684
107.95722961 213.55680847 465.52465820
107.96014404 213.56581116 465.53308105
107.95822144 213.55488586 465.52920532
107.96302795 213.55960083 465.53811646
84.57417297 241.33020020 495.58474731
84.57862854 241.33714294 495.58898926
84.57765198 241.32769775 495.58807373
84.58305359 241.33200073 495.59298706
65.76628113 221.52685547 509.07110596
65.77262878 221.53266907 509.07495117
65.77068329 221.52401733 509.07879639
65.77820587 221.52674866 509.08264160
153.11819458 222.15975952 532.10424805
153.12423706 222.15972900 532.11749268
153.12994385 222.15304565 532.11376953
153.14134216 222.15270996 532.12341309
63.37433624 213.49061584 503.06704712
63.38030243 213.49632263 503.07217407
63.37580109 213.48999023 503.07470703
63.38292694 213.49130249 503.08056641
76.35963440 237.03356934 507.07522583
76.36607361 237.03868103 507.08499146
76.36174774 237.02928162 507.07855225
76.36829376 237.03274536 507.08798218
115.52571869 167.04760742 465.63226318
115.52983093 167.05245972 465.64062500
115.52981567 167.04769897 465.63812256
115.53558350 167.04727173 465.64569092
110.36779785 146.60231018 468.13964844
110.36950684 146.60809326 468.14956665
110.37770844 146.60130310 468.14147949
110.38267517 146.59823608 468.14816284
57.51903534 180.36097717 506.58990479
57.52513885 180.36482239 506.59573364
57.52362061 180.36447144 506.59854126
57.52806854 180.36439514 506.60406494
97.85066223 253.68301392 497.58410645
97.85209656 253.69119263 497.59277344
97.85359192 253.67791748 497.59365845
97.85648346 253.68504333 497.60244751
123.53070831 266.38088989 494.72406006
123.53112793 266.39044189 494.73214722
123.52777863 266.37854004 494.72976685
123.53057098 266.38656616 494.73837280
108.66451263 204.80319214 465.27923584
108.66837311 204.81034851 465.29071045
108.66585541 204.80149841 465.28817749
108.67085266 204.80467224 465.29757690
103.85600281 270.90634155 521.94207764
103.85694885 270.91430664 521.95507812
103.85850525 270.90554810 521.94482422
103.86204529 270.91430664 521.95782471
153.22962952 168.23442078 477.14474487
153.23164368 168.23918152 477.15127563
153.23756409 168.23611450 477.16268921
153.24426270 168.23535156 477.16458130
71.36427307 204.64479065 475.25659180
71.37422943 204.65103149 475.26123047
71.36629486 204.64054871 475.25991821
71.37564087 204.64155579 475.26898193
151.64442444 210.30142212 467.04211426
151.64254761 210.30822754 467.05047607
151.65110779 210.29946899 467.05825806
151.65383911 210.30187988 467.06466675
79.95089722 229.05361938 485.32904053
79.95715332 229.06065369 485.33569336
79.95285034 229.05091858 485.33300781
79.95870972 229.05392456 485.34078979
136.87117004 210.94911194 536.70410156
136.87307739 210.95190430 536.71685791
136.87680054 210.94389343 536.70953369
136.88513184 210.94548035 536.71697998
113.12621307 274.76416016 510.10903931
113.13314056 274.77005005 510.11978149
113.12403870 274.76171875 510.11251831
113.13243866 274.76672363 510.12469482
172.06036377 235.22283936 471.08163452
172.06628418 235.23278809 471.08993530
172.06655884 235.21995544 471.08868408
172.07890320 235.22422791 471.09735107
91.51042175 208.23416138 470.32604980
91.51416016 208.24226379 470.33694458
91.50992584 208.23515320 470.33282471
91.51291656 208.23944092 470.34292603
106.19265747 188.20086670 467.24151611
106.19766998 188.20651245 467.25302124
106.19630432 188.19944763 467.24871826
106.20188141 188.19958496 467.25976562
62.27234650 164.58514404 497.70825195
62.27536774 164.59001160 497.71786499
62.27719116 164.59207153 497.71505737
62.27956390 164.59045410 497.72384644
107.04826355 238.89389038 480.18576050
107.04776764 238.90270996 480.19580078
107.05120087 238.89360046 480.19195557
107.05118561 238.89997864 480.20184326
86.78111267 253.75755310 530.77429199
86.78424072 253.76327515 530.77789307
86.78185272 253.75285339 530.78320312
86.78924561 253.75981140 530.78717041
86.41506958 252.29519653 516.17742920
86.41819763 252.30206299 516.18762207
86.41725159 252.29122925 516.18212891
86.42208862 252.29678345 516.19146729
64.96320343 216.58445740 521.90515137
64.96855164 216.59033203 521.91094971
64.96424103 216.58636475 521.91613770
64.97161865 216.59036255 521.92114258
86.39109802 247.85531616 502.43450928
86.39746857 247.86231995 502.43765259
86.39991760 247.85198975 502.44265747
86.40611267 247.85684204 502.44671631
157.27316284 236.72094727 523.46197510
157.28115845 236.71983337 523.47247314
157.29017639 236.71746826 523.47387695
157.30302429 236.71459961 523.48175049
67.89305115 206.41572571 487.29565430
67.90145874 206.42111206 487.30242920
67.89617920 206.41560364 487.30404663
67.90564728 206.41618347 487.31198120
66.63739014 190.03294373 487.94293213
66.64387512 190.03697205 487.94982910
66.63860321 190.02966309 487.94735718
66.64441681 190.02793884 487.95443726
80.04516602 246.67320251 517.93316650
80.05087280 246.67913818 517.93914795
80.05134583 246.66873169 517.93920898
80.05921936 246.67338562 517.94494629
80.42696381 175.18493652 476.74566650
80.43164062 175.19087219 476.75372314
80.43144226 175.18598938 476.75750732
80.43615723 175.18669128 476.76571655
138.73277283 226.28927612 465.76477051
138.73017883 226.29771423 465.77246094
138.73684692 226.28875732 465.77349854
138.73992920 226.29194641 465.78018188
78.21931458 211.27027893 474.21578979
78.23004150 211.27691650 474.22244263
78.21936035 211.26644897 474.21926880
78.22875214 211.26901245 474.22799683
164.10980225 251.84811401 474.77621460
164.11437988 251.85720825 474.78509521
164.11880493 251.84722900 474.78384399
164.12796021 251.85014343 474.79266357
176.20103455 207.50386047 489.62167358
176.20343018 207.50814819 489.63592529
176.20700073 207.50163269 489.63696289
176.21749878 207.50184631 489.64813232
102.62990570 231.42671204 476.14529419
102.63278198 231.43417358 476.15478516
102.63224030 231.42408752 476.15686035
102.63577271 231.42897034 476.16696167
151.94453430 184.41543579 470.75524902
151.94546509 184.41967773 470.76116943
151.94511414 184.41474915 470.76495361
151.95469666 184.41499329 470.76849365
94.42169189 224.01947021 474.28445435
94.42929077 224.02796936 474.29220581
94.42489624 224.01847839 474.29367065
94.43222809 224.02238464 474.30239868
163.47224426 204.54063416 469.99020386
163.47579956 204.54562378 470.00170898
163.48278809 204.53512573 470.00274658
163.49340820 204.53477478 470.01263428
155.71318054 264.63406372 483.24139404
155.71484375 264.64337158 483.24957275
155.71823120 264.63284302 483.24105835
155.72341919 264.63699341 483.25048828
133.66050720 171.64151001 466.23989868
133.65980530 171.64842224 466.24768066
133.66230774 171.64518738 466.25024414
133.66650391 171.64590454 466.25506592
75.24607849 223.42721558 488.70938110
75.25163269 223.43296814 488.71600342
75.24774170 223.42359924 488.71444702
75.25346375 223.42675781 488.72201538
113.85662079 249.88473511 484.80987549
113.85826874 249.89297485 484.81686401
113.86001587 249.88444519 484.82119751
113.86312866 249.89123535 484.82742310
78.57919312 238.42190552 535.38183594
78.58218384 238.42736816 535.38476562
78.58123779 238.42083740 535.38958740
78.58860016 238.42713928 535.39251709
73.45079803 194.12657166 481.47671509
73.45976257 194.13136292 481.48675537
73.45103455 194.12808228 481.48800659
73.45911407 194.12873840 481.49832153
75.36355591 155.84298706 476.45971680
75.36488342 155.84770203 476.46731567
75.37390900 155.84315491 476.46548462
75.37431335 155.84199524 476.47302246
61.20584869 203.62239075 529.06610107
61.21033478 203.62803650 529.06994629
61.20804596 203.62484741 529.07800293
61.21543121 203.62774658 529.08056641
86.79699707 251.33680725 544.53149414
86.80041504 251.33895874 544.54656982
86.80014801 251.33467102 544.54199219
86.80852509 251.34111023 544.55444336
159.40411377 196.40223694 485.83386230
159.40689087 196.40411377 485.85333252
159.40551758 196.40542603 485.84371948
159.41294861 196.40365601 485.85659790
127.33686829 245.04679871 477.20407104
127.33666992 245.05500793 477.21426392
127.33574677 245.04655457 477.21191406
127.33804321 245.05061340 477.22140503
97.90766144 213.05587769 469.39666748
97.91371155 213.06358337 469.40542603
97.90760040 213.05511475 469.40750122
97.91351318 213.05830383 469.41598511
145.13796997 181.09854126 468.33871460
145.13940430 181.10688782 468.34573364
145.13983154 181.10717773 468.35479736
145.14727783 181.10989380 468.35888672
167.54139709 216.64906311 478.00033569
167.54339600 216.65452576 478.01593018
167.54362488 216.65066528 478.01348877
167.55108643 216.65191650 478.02478027
71.51639557 226.02920532 530.87774658
71.51936340 226.03448486 530.88513184
71.51731873 226.02856445 530.88623047
71.52442169 226.03488159 530.89251709
60.63901520 207.65725708 509.30694580
60.64556122 207.66120911 509.30981445
60.64198303 207.65412903 509.31594849
60.64954376 207.65509033 509.32070923
125.11344147 206.34329224 464.75564575
125.11245728 206.35206604 464.76498413
125.11354828 206.34344482 464.76773071
125.11590576 206.34754944 464.77465820
119.07659912 174.70530701 463.13525391
119.07830048 174.71267700 463.14196777
119.07762909 174.70780945 463.14260864
119.08337402 174.70855713 463.14813232
97.53542328 189.63500977 467.35897827
97.54008484 189.64163208 467.36706543
97.53267670 189.63403320 467.36511230
97.53920746 189.63500977 467.37390137
123.10839081 249.85275269 482.87765503
123.11031342 249.86024475 482.88732910
123.10995483 249.84820557 482.88662720
123.11248779 249.85408020 482.89505005
59.85702515 198.31909180 507.49163818
59.86647797 198.32240295 507.49621582
59.85847473 198.32080078 507.50070190
59.86830139 198.32035828 507.50558472
106.30554199 153.15853882 467.77990723
106.30606079 153.16487122 467.78817749
106.31213379 153.15917969 467.78729248
106.31579590 153.15881348 467.79391479
166.94523621 209.43310547 485.60302734
166.94203186 209.43815613 485.61508179
166.94625854 209.43341064 485.62423706
166.95223999 209.43399048 485.63320923
102.63066101 173.53225708 466.94287109
102.63751221 173.53669739 466.95449829
102.63722992 173.52951050 466.95050049
102.64503479 173.52836609 466.96096802
77.02514648 162.63412476 481.92193604
77.03024292 162.63885498 481.93148804
77.02914429 162.64082336 481.93255615
77.03359985 162.63958740 481.94107056
141.21301270 280.64080811 504.55303955
141.21664429 280.64678955 504.56469727
141.20420837 280.63900757 504.55722046
141.21116638 280.64410400 504.56942749
72.11630249 232.88586426 511.65344238
72.12154388 232.89321899 511.65869141
72.12059021 232.88760376 511.65878296
72.12764740 232.89276123 511.66433716
77.86578369 235.70198059 499.91162109
77.87248230 235.70718384 499.91784668
77.87142944 235.69865417 499.91714478
77.87850952 235.70265198 499.92431641
132.95828247 156.58184814 467.38497925
132.96218872 156.58758545 467.39111328
132.95965576 156.58493042 467.38812256
132.96817017 156.58415222 467.39187622
125.00610352 179.23291016 463.66949463
125.00719452 179.23863220 463.67974854
125.00560760 179.23164368 463.67572021
125.01090240 179.23193359 463.68405151
161.20426941 187.40129089 482.32791138
161.20498657 187.40446472 482.34149170
161.20480347 187.39904785 482.34219360
161.21447754 187.39706421 482.34997559
162.22970581 260.50714111 479.17425537
162.23159790 260.51562500 479.18252563
162.23722839 260.50186157 479.17868042
162.24328613 260.50601196 479.18847656
63.70554352 201.74215698 492.41354370
63.71504974 201.74559021 492.41687012
63.70735931 201.73724365 492.42001343
63.71623230 201.73640442 492.42544556
111.35977936 268.19006348 501.39608765
111.36225891 268.19940186 501.40121460
111.36077881 268.18951416 501.40087891
111.36425781 268.19613647 501.40707397
93.61466980 261.51947021 524.86798096
93.61721802 261.52667236 524.87182617
93.61917877 261.51589966 524.87738037
93.62532043 261.52313232 524.88122559
143.52529907 267.45965576 489.15728760
143.52493286 267.46914673 489.16506958
143.52529907 267.45788574 489.16232300
143.52735901 267.46472168 489.17022705
95.97361755 230.60108948 478.77923584
95.97755432 230.60881042 478.78720093
95.97627258 230.60006714 478.78216553
95.98089600 230.60525513 478.79049683
93.07749939 254.27554321 502.95260620
93.08175659 254.28370667 502.95773315
93.08415222 254.27366638 502.95703125
93.08892059 254.27923584 502.96304321
108.30694580 228.20185852 472.03213501
108.30872345 228.20887756 472.04235840
108.31034088 228.19946289 472.04339600
108.31320190 228.20372009 472.05371094
142.55554199 273.20504761 496.70617676
142.55506897 273.21267700 496.71737671
142.54716492 273.21136475 496.70922852
142.54992676 273.21734619 496.72006226
71.79506683 222.86958313 538.46380615
71.79766083 222.87637329 538.47229004
71.79300690 222.87242126 538.47479248
71.79982758 222.88035583 538.48107910
128.34188843 254.46044922 484.34429932
128.34074402 254.46936035 484.35354614
128.34259033 254.46076965 484.35299683
128.34393311 254.46711731 484.36090088
118.91287231 216.04603577 465.50576782
118.91318512 216.05421448 465.51644897
118.91461182 216.04324341 465.51513672
118.91816711 216.04745483 465.52377319
105.14311218 219.80963135 467.27178955
105.14752197 219.81785583 467.27880859
105.14543152 219.80787659 467.28161621
105.15007019 219.81246948 467.28918457
105.60987854 257.70275879 495.56542969
105.61340332 257.71026611 495.57171631
105.61184692 257.70242310 495.57305908
105.61667633 257.70864868 495.58007812
64.47320557 169.04687500 492.76550293
64.47650909 169.05209351 492.77230835
64.47697449 169.04875183 492.77536011
64.47933960 169.04815674 492.78277588
58.16605377 188.65020752 518.37023926
58.17289734 188.65307617 518.37792969
58.16661835 188.65136719 518.38262939
58.17430878 188.65240479 518.38928223
72.04724884 212.13140869 477.39303589
72.05806732 212.13800049 477.39694214
72.05224609 212.13034058 477.39544678
72.06100464 212.13136292 477.40234375
78.92817688 220.67753601 480.43164062
78.93551636 220.68563843 480.43753052
78.92912292 220.67645264 480.43606567
78.93563843 220.67999268 480.44250488
155.57769775 174.72293091 476.13870239
155.58016968 174.72918701 476.14611816
155.58001709 174.72476196 476.15579224
155.58892822 174.72538757 476.15945435
57.31024170 186.15493774 510.44363403
57.31550598 186.15896606 510.44540405
57.31032562 186.15808105 510.44961548
57.31665039 186.15901184 510.45294189
160.77450562 204.23944092 481.96517944
160.77503967 204.24176025 481.98019409
160.77716064 204.23985291 481.97946167
160.78260803 204.23910522 481.98962402
132.38873291 281.55413818 505.30090332
132.39355469 281.56149292 505.30911255
132.38014221 281.55316162 505.30923462
132.38830566 281.55993652 505.31820679
59.24270630 197.33920288 526.83557129
59.24960327 197.34440613 526.84136963
59.24484253 197.33926392 526.84735107
59.25348663 197.34266663 526.85260010
85.12776184 200.08303833 471.07537842
85.13516235 200.08966064 471.08575439
85.12709045 200.08224487 471.08285522
85.13405609 200.08407593 471.09286499
125.82897186 272.21466064 498.53485107
125.82989502 272.22393799 498.54351807
125.82430267 272.21414185 498.53854370
125.82848358 272.22134399 498.54849243
68.27933502 221.94081116 526.32684326
68.28367615 221.94754028 526.33074951
68.27993011 221.94158936 526.33435059
68.28775787 221.94731140 526.33911133
103.21386719 242.70535278 484.51010132
103.21478271 242.71441650 484.52062988
103.21633911 242.70523071 484.51608276
103.21867371 242.71202087 484.52618408
131.47338867 165.32244873 467.99575806
131.47540283 165.32893372 468.00387573
131.47148132 165.32534790 468.00411987
131.47848511 165.32498169 468.00915527
145.43466187 241.71755981 471.52865601
145.43395996 241.72528076 471.53808594
145.43882751 241.71658325 471.53741455
145.44294739 241.71939087 471.54617310
77.90585327 182.13945007 479.47201538
77.91366577 182.14486694 479.48089600
77.91146851 182.14160156 479.48660278
77.91885376 182.14273071 479.49591064
71.81090546 217.65773010 489.97302246
71.82061005 217.66345215 489.98165894
71.81239319 217.65986633 489.98114014
71.82228851 217.66224670 489.99063110
166.20059204 219.68940735 470.54531860
166.19981384 219.69728088 470.55502319
166.20204163 219.68861389 470.55435181
166.20854187 219.69100952 470.56167603
97.07577515 166.18559265 469.16485596
97.07893372 166.19041443 469.17260742
97.08219910 166.18736267 469.17065430
97.08667755 166.18730164 469.17831421
100.44448090 158.91275024 468.80813599
100.44835663 158.91851807 468.81573486
100.45318604 158.91911316 468.81451416
100.45825195 158.91796875 468.82192993
160.39236450 198.56643677 468.97052002
160.39508057 198.57028198 468.97735596
160.40023804 198.56500244 468.98391724
160.40930176 198.56497192 468.98937988
63.40483856 176.05982971 492.38439941
63.40958405 176.06469727 492.39016724
63.41269684 176.06124878 492.39138794
63.41716766 176.06021118 492.39855957
158.84301758 230.54103088 469.35516357
158.84416199 230.54754639 469.36672974
158.85183716 230.53675842 469.36563110
158.85966492 230.53817749 469.37701416
82.38714600 156.57641602 478.39865112
82.38940430 156.58129883 478.40991211
82.39608765 156.58212280 478.40893555
82.39840698 156.58087158 478.41873169
159.32971191 178.26982117 481.42333984
159.33120728 178.27566528 481.43289185
159.33306885 178.27114868 481.43392944
159.34024048 178.27201843 481.43841553
101.16867065 251.02481079 492.36700439
101.17178345 251.03259277 492.37448120
101.16783142 251.02113342 492.37210083
101.17153931 251.02699280 492.38040161
144.22149658 212.67536926 535.04321289
144.22488403 212.67831421 535.05651855
144.22909546 212.67056274 535.04895020
144.23907471 212.67398071 535.05712891
134.55961609 212.11288452 464.77880859
134.55975342 212.12039185 464.79074097
134.56086731 212.11016846 464.78640747
134.56552124 212.11308289 464.79696655
167.40896606 205.34677124 492.84817505
167.41033936 205.34919739 492.86425781
167.41410828 205.34732056 492.86602783
167.42274475 205.34642029 492.87820435
139.12966919 202.57411194 465.98721313
139.13053894 202.57997131 466.00103760
139.13584900 202.57217407 465.99810791
139.14027405 202.57319641 466.00881958
140.55094910 156.70257568 469.94885254
140.55140686 156.71054077 469.95541382
140.55413818 156.70285034 469.95513916
140.56167603 156.70254517 469.95770264
142.50817871 235.46014404 470.16162109
142.50769043 235.46795654 470.17294312
142.50946045 235.45945740 470.17581177
142.51370239 235.46302795 470.18548584
163.68200684 211.19760132 472.40386963
163.68254089 211.20372009 472.41522217
163.68685913 211.19589233 472.42083740
163.69462585 211.19801331 472.42886353
92.46561432 201.88137817 468.74264526
92.47224426 201.88809204 468.75448608
92.46574402 201.88146973 468.74987793
92.47155762 201.88337708 468.76101685
163.87573242 181.44056702 494.85614014
163.88160706 181.44184875 494.87734985
163.88183594 181.43664551 494.86553955
163.89181519 181.43350220 494.87976074
98.20410919 258.43804932 502.16381836
98.20659637 258.44714355 502.16891479
98.20639801 258.43917847 502.16812134
98.21050262 258.44683838 502.17410278
