ply
format ascii 1.0
element vertex 512
property float x
property float y
property float z
end_header
193.13208008 208.38246155 417.68780518
193.25807190 204.02809143 419.11587524
188.61042786 205.11582947 416.75122070
188.28236389 211.57107544 414.77984619
199.62257385 212.29696655 422.16879272
197.28004456 202.04327393 422.27365112
195.07351685 217.04862976 417.66915894
188.54577637 199.54093933 418.74884033
183.72740173 209.00103760 413.21438599
202.01963806 208.04032898 424.42178345
186.92927551 216.87133789 412.85098267
191.34422302 219.99124146 414.29412842
181.32711792 203.44682312 414.38684082
183.00250244 199.09594727 416.72949219
191.88627625 194.95834351 421.56094360
201.42881775 219.01515198 422.14715576
202.49812317 200.01235962 425.67562866
196.87986755 223.04220581 417.77160645
181.44544983 216.15556335 411.05215454
206.30932617 212.11027527 426.21899414
198.83000183 194.57830811 425.68148804
177.03559875 201.28857422 414.10675049
191.29336548 225.63500977 413.06677246
207.78242493 207.26762390 428.34552002
176.11953735 208.35163879 411.34182739
206.47747803 219.82952881 426.24035645
182.41184998 223.50201416 410.48944092
203.37536621 224.81758118 423.48104858
176.61724854 216.80938721 409.55926514
183.35002136 190.86019897 420.50265503
193.04304504 189.58210754 425.32843018
208.30949402 202.35140991 429.83639526
209.62261963 211.22224426 430.88931274
198.29296875 229.20538330 418.56979370
204.37335205 194.34721375 430.71871948
210.23327637 215.46801758 430.01858521
172.91798401 213.06294250 409.54949951
187.59175110 229.51327515 412.42486572
175.16784668 194.81877136 416.37820435
177.79638672 191.06723022 418.91021729
170.55242920 204.60392761 411.46777344
193.22515869 232.41163635 413.32369995
196.90826416 187.43615723 430.69094849
212.05789185 208.82794189 434.14999390
208.66828918 224.78596497 428.84112549
205.40710449 229.94136047 422.89672852
201.82752991 232.29887390 419.63934326
201.15058899 188.28889465 433.54748535
167.63165283 210.47607422 409.39538574
211.82553101 220.75738525 432.96520996
186.47993469 183.86593628 427.34924316
177.22378540 186.40919495 421.86987305
209.92231750 195.71577454 435.54907227
179.15309143 230.29365540 408.13665771
186.77294922 234.52081299 410.32366943
166.98634338 198.56092834 413.86740112
173.60163879 225.89997864 407.25039673
165.60043335 205.61990356 410.84194946
191.61532593 183.91383362 432.55383301
198.06721497 236.69253540 417.84909058
192.71635437 237.25325012 415.06137085
168.56181335 220.19697571 407.73303223
205.32559204 189.62123108 436.44146729
170.43798828 189.58813477 418.74746704
214.27902222 202.46286011 437.52081299
212.27566528 225.51359558 432.53005981
214.79190063 216.61842346 436.91702271
166.50540161 194.12561035 415.84909058
165.07244873 215.85264587 408.37539673
198.78793335 185.15565491 436.82186890
210.90895081 231.17591858 430.38476562
214.50241089 223.36973572 436.32525635
205.49330139 237.55690002 422.74682617
184.92439270 238.89419556 411.19805908
187.81890869 181.41094971 434.60488892
208.81127930 235.10458374 426.97204590
192.42280579 183.60516357 438.56076050
216.41175842 210.26501465 440.33535767
167.72044373 225.65731812 406.74566650
179.50888062 236.41900635 408.04708862
178.75917053 180.92164612 428.21527100
161.23017883 209.09938049 409.68917847
210.51280212 192.50787354 441.36193848
201.11369324 240.72233582 420.45401001
182.81632996 180.16020203 432.65780640
169.68600464 184.49679565 422.89971924
165.68110657 188.49989319 419.98608398
201.84379578 186.02352905 442.04135132
160.43022156 213.72738647 408.86508179
188.95867920 242.12669373 411.98660278
160.54145813 197.78785706 413.61270142
172.70590210 233.93397522 406.42269897
214.98045349 197.96647644 442.76287842
161.81185913 192.38014221 417.49185181
191.99243164 183.87500000 443.39169312
158.42445374 203.22148132 411.50973511
167.42500305 230.17672729 406.04879761
186.14556885 181.40061951 440.44265747
159.75521851 218.73970032 407.94042969
196.13769531 244.69792175 416.24539185
206.24380493 189.83868408 446.56463623
217.95663452 218.66662598 442.86907959
215.69087219 228.46279907 438.79083252
195.73959351 185.11174011 446.15362549
211.84614563 193.97599792 446.02185059
171.60487366 180.64382935 429.23196411
188.76396179 186.52209473 447.47756958
217.90986633 203.49253845 445.30511475
201.16024780 187.81643677 448.07318115
209.64427185 240.33973694 428.59643555
179.31025696 242.30265808 409.21072388
164.00569153 185.12130737 423.18380737
189.01988220 195.93829346 453.11306763
195.80754089 188.57943726 449.94964600
178.39401245 179.05482483 436.95669556
182.00927734 193.20043945 450.78567505
214.74996948 233.86630249 436.24813843
204.41110229 244.95840454 421.03790283
192.81188965 192.45124817 452.76824951
186.17773438 192.34188843 452.12075806
219.09953308 208.84941101 446.55282593
155.36264038 212.26182556 409.40377808
156.97637939 194.02525330 416.85437012
182.68362427 185.52146912 447.53482056
184.91586304 199.75274658 455.16796875
180.47511292 180.32929993 442.64489746
207.37867737 192.37876892 451.07925415
192.42776489 248.00865173 415.02008057
159.12913513 226.30931091 406.82339478
159.46566772 187.28762817 422.38134766
200.45687866 193.25160217 454.16726685
212.31471252 195.78427124 450.65383911
218.61569214 224.76094055 444.34954834
177.28628540 193.40199280 451.68194580
167.69526672 237.66017151 405.47457886
170.74794006 240.67732239 407.22662354
196.00836182 198.13197327 457.13851929
163.52519226 181.96611023 427.81463623
152.60739136 208.49710083 410.79992676
214.42652893 239.80424500 433.60635376
183.18609619 247.62994385 409.95977783
177.46710205 198.93601990 454.91699219
190.01626587 201.76042175 458.53552246
171.25361633 178.40867615 437.04302979
163.26318359 235.05158997 405.41192627
201.81791687 249.23942566 420.84991455
201.15328979 197.58534241 457.38131714
187.23564148 249.63075256 412.71191406
177.80998230 181.58517456 446.22146606
151.66752625 203.52256775 412.35348511
216.79188538 202.32797241 451.97735596
152.40545654 197.50721741 415.66705322
206.90309143 196.15940857 455.69149780
209.01562500 246.09252930 428.16580200
220.57905579 212.98820496 449.48077393
219.08007812 207.12019348 451.60455322
173.75854492 189.76885986 451.34341431
153.24459839 191.31365967 420.77737427
174.72399902 246.58322144 407.80728149
213.08839417 244.18147278 432.43225098
220.66593933 219.80993652 449.64904785
217.93690491 236.45204163 440.33663940
157.30796814 184.42480469 426.99246216
214.41207886 200.35585022 455.52929688
152.85395813 223.77793884 408.06491089
150.01554871 216.55018616 410.05728149
163.80018616 179.22425842 434.36743164
155.18017578 229.27033997 406.84869385
185.03933716 205.50056458 461.53790283
200.28543091 202.19458008 461.46075439
153.81015015 187.98963928 424.66687012
170.20652771 192.44633484 452.92819214
177.10000610 249.83564758 410.39172363
172.88165283 179.60195923 445.84725952
159.31611633 181.57081604 431.52374268
196.18051147 253.70491028 418.16122437
190.80485535 253.89733887 415.94189453
156.80795288 233.54145813 405.87170410
217.05792236 241.53036499 438.26455688
207.45773315 251.27313232 424.82540894
147.86190796 211.13648987 411.32693481
169.61328125 196.91389465 455.59481812
182.44277954 252.69705200 410.65707397
193.42762756 206.10470581 463.76959229
167.26560974 245.68460083 407.10504150
211.88371277 204.52032471 460.19570923
206.73381042 202.79290771 461.98394775
161.92236328 241.18083191 405.86535645
221.46383667 226.22142029 450.41967773
221.20820618 231.47807312 447.45184326
170.13104248 182.05613708 449.92620850
221.58149719 215.01541138 455.38171387
214.26815796 248.66876221 432.06198120
178.23571777 206.60278320 462.97918701
217.68534851 208.05303955 458.68807983
145.86589050 201.20436096 415.61257935
164.54968262 177.45768738 440.77749634
167.06231689 188.16416931 452.59252930
198.43144226 206.82325745 465.46932983
201.33432007 255.70657349 422.43450928
171.64283752 204.32818604 460.78427124
222.03558350 221.29566956 454.22738647
152.82365417 184.81539917 430.60815430
182.44447327 208.39651489 464.98800659
217.85459900 245.62380981 436.69491577
146.81680298 193.75201416 421.91665649
166.62351990 178.10183716 445.63870239
169.78929138 250.24714661 406.88653564
221.75279236 238.52421570 444.57482910
164.41452026 194.20114136 455.61920166
211.37071228 208.58709717 464.26040649
149.01383972 230.09924316 408.13488770
190.78758240 258.41796875 414.80099487
145.21386719 222.13218689 410.96154785
209.25704956 255.34138489 427.01263428
142.70857239 206.02711487 414.82635498
185.05911255 258.11700439 413.08047485
155.50779724 240.38546753 406.24224854
187.67875671 210.01837158 468.25946045
196.35166931 259.31048584 416.95709229
146.59489441 189.61376953 428.41009521
165.64768982 179.59748840 450.25817871
220.37219238 214.61445618 461.05593872
172.22309875 255.04240417 409.50341797
142.80616760 196.62506104 421.07818604
214.90429688 211.99592590 464.59494019
158.00482178 178.10754395 441.38449097
151.39819336 238.24250793 407.14385986
215.49081421 253.14715576 433.70535278
198.24568176 260.52893066 422.18972778
152.28875732 182.15174866 438.17211914
177.38531494 258.10388184 409.62622070
196.42730713 211.19633484 470.29635620
141.13063049 216.32043457 413.06997681
161.97543335 249.81871033 406.58480835
161.30682373 187.62405396 454.69876099
165.81637573 203.47602844 462.92288208
140.65351868 200.58073425 419.31369019
179.93142700 210.89860535 469.09231567
204.45118713 208.79081726 469.68505859
222.17475891 244.67250061 443.71774292
204.35527039 259.98437500 425.42544556
163.31805420 182.19279480 453.42190552
210.83215332 212.90670776 467.88626099
223.32720947 222.16076660 459.55468750
169.12019348 207.23262024 465.41061401
218.46942139 250.44625854 439.35403442
225.07777405 234.06159973 452.35430908
142.60830688 193.22633362 427.77383423
161.11175537 197.74559021 459.54260254
212.31051636 257.07983398 430.38735962
200.68664551 211.55946350 470.95184326
159.69224548 191.42366028 457.13793945
215.17056274 216.59512329 467.02508545
225.33079529 229.01826477 457.19464111
139.71264648 196.81269836 424.85171509
137.84303284 208.70671082 416.75842285
206.68098450 214.47457886 470.95349121
192.20664978 213.03196716 472.80206299
143.30487061 231.32991028 410.19064331
152.49444580 244.76596069 407.36816406
184.40522766 212.86543274 472.47567749
137.47738647 204.41337585 419.36373901
221.46553040 220.51611328 464.29574585
218.86418152 254.23854065 436.67584229
173.61798096 211.31452942 470.27499390
143.96215820 187.57421875 436.77426147
157.07048035 177.74037170 448.95788574
194.64871216 265.10601807 417.96511841
151.59286499 179.98507690 443.97653198
141.64987183 191.15841675 434.84179688
158.94325256 179.29652405 452.97082520
199.09632874 265.19021606 420.95202637
138.59854126 195.32981873 429.64590454
169.03042603 259.77343750 409.07571411
162.29718018 255.83741760 407.90200806
222.06585693 251.81517029 441.67330933
225.90795898 241.34283447 451.51660156
224.10484314 245.10867310 449.39062500
219.37474060 233.90093994 462.15744019
224.97651672 234.34324646 458.08523560
164.01611328 206.41943359 467.49813843
180.77383423 264.73925781 413.55981445
157.70756531 183.76727295 456.22955322
221.22590637 238.55258179 458.32550049
214.73216248 260.03195190 432.66284180
219.82295227 229.79866028 464.63534546
143.03800964 237.28379822 410.67321777
220.97306824 243.58319092 454.87594604
172.43489075 262.52493286 410.90069580
135.11614990 216.68276978 417.31018066
227.25466919 238.12541199 454.95117188
186.82864380 266.64193726 413.89532471
145.30725098 184.88024902 442.57946777
206.62222290 264.69885254 427.99984741
155.37800598 192.38743591 459.95507812
134.27598572 211.64013672 418.88696289
135.74172974 221.82231140 415.74145508
138.35765076 229.91752625 413.17477417
178.21676636 213.82495117 474.58975220
155.48330688 253.07789612 408.40130615
134.23510742 205.09080505 423.27685547
224.72062683 227.73359680 463.96163940
201.87417603 216.84423828 475.70626831
157.33691406 200.23840332 464.33032227
137.99957275 194.00817871 434.60580444
219.09088135 258.27114868 437.28759766
216.42982483 227.11305237 469.32882690
227.50193787 230.91807556 461.18963623
215.62808228 232.48231506 467.64730835
220.13995361 247.19050598 454.40866089
224.46896362 251.22473145 445.57507324
134.36453247 200.86134338 427.72113037
221.12965393 223.75769043 468.63641357
216.66468811 221.59609985 471.43923950
144.50759888 243.12315369 410.34909058
166.83135986 211.06701660 472.49676514
141.35989380 187.74694824 442.19735718
195.20332336 269.33123779 419.38592529
224.02992249 256.22882080 439.84323120
182.64115906 215.23249817 477.53436279
134.78945923 226.69279480 415.69470215
211.55479431 265.37518311 430.83062744
199.84291077 269.04623413 423.72390747
153.57049561 180.12605286 455.22021484
149.11741638 179.48927307 450.16198730
208.65965271 219.45858765 476.60812378
159.60035706 206.34791565 469.74182129
180.76031494 269.17712402 414.93603516
159.62615967 260.10049438 409.87423706
148.57176208 250.95989990 409.86929321
190.88867188 270.50930786 417.53311157
191.30938721 216.69737244 479.32971191
131.19026184 211.05116272 423.24353027
212.57115173 225.73735046 474.24392700
152.53964233 187.10617065 459.87710571
223.50477600 250.07334900 453.04989624
175.53630066 268.46194458 412.68420410
130.99851990 216.89848328 422.02532959
132.50889587 200.11941528 433.34860229
219.26785278 263.43667603 434.79077148
143.96360779 183.24595642 448.63046265
134.91784668 195.02012634 439.09844971
217.05952454 241.28639221 466.48870850
137.47074890 239.43103027 414.15789795
151.60844421 193.65370178 464.04922485
167.89723206 266.87490845 411.28356934
219.06607056 245.68911743 462.96755981
152.41937256 257.68643188 410.17721558
169.90269470 214.14143372 477.79885864
216.04061890 266.75280762 434.05740356
139.20623779 244.33029175 413.72619629
174.22549438 215.51977539 479.40252686
228.20130920 257.37457275 442.56655884
207.63281250 271.38253784 426.41516113
133.80961609 235.52101135 416.25894165
137.33525085 189.55798340 446.32369995
153.37742615 202.37513733 469.38900757
142.76345825 250.05046082 412.55130005
197.54566956 218.38803101 482.44039917
129.55438232 224.70761108 420.89248657
128.29928589 212.70964050 427.81536865
225.25805664 262.16229248 437.89697266
147.53973389 255.62208557 411.17657471
128.43684387 208.72851562 430.72998047
225.80731201 250.00325012 457.25344849
230.07212830 253.54600525 448.82855225
131.45475769 198.29949951 440.18423462
193.12866211 274.86355591 420.34970093
127.74348450 217.99678040 426.24057007
213.72027588 237.69830322 474.05166626
221.54104614 247.03007507 464.32174683
155.15548706 206.68501282 472.75357056
184.26222229 274.78796387 417.95529175
146.64575195 182.04406738 458.19979858
186.55702209 218.52952576 483.64065552
210.11453247 223.51620483 480.85458374
129.44520569 229.60992432 420.19143677
159.46923828 266.28393555 412.20764160
143.57174683 181.74066162 454.62469482
211.70098877 271.78298950 431.00155640
181.69186401 217.80395508 483.48297119
202.65335083 219.61631775 483.57495117
128.79034424 202.79962158 437.43365479
179.19287109 274.51065063 416.09695435
211.56999207 233.55789185 477.94290161
137.60362244 187.72831726 450.91110229
171.46720886 272.65151978 413.72320557
220.31204224 267.23248291 438.29895020
159.56164551 211.58473206 477.19528198
204.84498596 275.45080566 425.84042358
216.38600159 242.16200256 472.68399048
134.07658386 191.84231567 448.88311768
162.84919739 270.02465820 412.88983154
147.46965027 189.25367737 465.59793091
231.67494202 258.51129150 445.17758179
126.77231598 207.21125793 436.66125488
149.89248657 200.26391602 470.90414429
150.90428162 263.20709229 413.00982666
126.13965607 224.13636780 426.75860596
215.23417664 241.21015930 474.72885132
125.31011963 215.23251343 432.35977173
200.95857239 277.40945435 423.96347046
222.09318542 245.51690674 469.20108032
188.27754211 278.08428955 420.01470947
130.08894348 197.53863525 446.22894287
130.69020081 240.16552734 419.59259033
234.18093872 252.12187195 454.12976074
138.75898743 185.16735840 455.64523315
228.37565613 263.64071655 443.24008179
132.86250305 244.73330688 418.47021484
234.20248413 255.69430542 450.17630005
229.45909119 249.76432800 462.13519287
172.55833435 217.18962097 484.95764160
235.06271362 249.50962830 457.48880005
146.77426147 194.35768127 469.62042236
126.06758118 230.77821350 424.93994141
226.90699768 246.87199402 467.13702393
141.19943237 257.31774902 415.25436401
182.24063110 278.91207886 420.04562378
136.49368286 251.90513611 417.41268921
217.39595032 272.28274536 438.43609619
166.85881042 274.77255249 415.25653076
124.56130981 221.66867065 432.72671509
178.03222656 218.51654053 486.78399658
212.95181274 274.87747192 435.13619995
127.23796082 235.98420715 422.64334106
174.18833923 277.60195923 417.10223389
233.15704346 247.03831482 463.03442383
151.59912109 207.71200562 476.40872192
222.67274475 269.98605347 440.56549072
155.24378967 269.68713379 414.50955200
167.92041016 216.80429077 484.76928711
124.24244690 210.37068176 439.48236084
125.85990143 203.17884827 443.83822632
233.98109436 236.40373230 470.55453491
194.63171387 280.63079834 424.05187988
142.78660583 186.44598389 465.48345947
227.27900696 244.00599670 471.30200195
194.21145630 220.66007996 489.54910278
240.26899719 243.86486816 460.59442139
205.42556763 279.03369141 431.30810547
144.63975525 262.92916870 415.77505493
238.50378418 247.83444214 459.11483765
129.86997986 195.15621948 452.47052002
155.26283264 211.99041748 480.73394775
134.86152649 188.04507446 458.28417969
232.19128418 229.22239685 476.91510010
209.53260803 232.25067139 485.76834106
158.86088562 273.94613647 415.64016724
241.25314331 240.21531677 464.05056763
234.94010925 243.06938171 468.01757812
234.04841614 263.47494507 445.65972900
199.52684021 220.63783264 490.53292847
122.81121063 227.45115662 431.89331055
201.06948853 281.50656128 428.55575562
207.14839172 224.66923523 488.87155151
218.78700256 241.65299988 479.08099365
122.68946838 223.50013733 436.81509399
227.62797546 269.84066772 442.60830688
236.25241089 260.05874634 450.22662354
183.18362427 220.63798523 490.84689331
213.41000366 238.24299622 483.37298584
122.00492096 217.17759705 439.75134277
159.05709839 215.10411072 484.18838501
126.31002045 241.71205139 425.27163696
144.19586182 196.70875549 473.39233398
211.20245361 278.40655518 438.24136353
129.92434692 248.84133911 422.29507446
220.11360168 274.85281372 440.46017456
183.88079834 283.07165527 422.30685425
189.89541626 221.93548584 492.04797363
237.89492798 230.85289001 474.48336792
238.79884338 257.09112549 453.58682251
230.87832642 234.25047302 478.23291016
229.06098938 240.64299011 476.23800659
136.52273560 258.90332031 419.97439575
123.01814270 234.51974487 431.01773071
145.24221802 202.26860046 476.40817261
240.44348145 252.94810486 457.57818604
127.54026031 246.50224304 425.62612915
150.13978577 271.45104980 417.07260132
139.94757080 263.38436890 419.20776367
125.52277374 200.78208923 452.93063354
162.12022400 278.74737549 418.09399414
189.16174316 284.84429932 425.75979614
240.98530579 238.13063049 470.25845337
141.12959290 189.35870361 471.29684448
147.87521362 207.88320923 480.13427734
121.29756165 212.40208435 445.90536499
130.63986206 191.75299072 460.02136230
130.89787292 253.89001465 423.22653198
123.51765442 240.09191895 429.49569702
175.67936707 283.70138550 421.90319824
121.77681732 208.00624084 448.03762817
137.68815613 187.27133179 467.78900146
233.04295349 268.08099365 447.58245850
155.47944641 276.46249390 418.14288330
217.75099182 240.87400818 484.13699341
120.49649048 222.97900391 442.38156128
208.17131042 282.33523560 438.02621460
226.04499817 241.05000305 480.84597778
229.83300781 229.07734680 483.83630371
202.43196106 284.53817749 434.25869751
133.78862000 188.00131226 464.90930176
245.69839478 246.97746277 461.56539917
213.70648193 280.80758667 440.40109253
196.22627258 285.92303467 430.72494507
191.87301636 286.19726562 429.35412598
207.43734741 230.78939819 491.77383423
244.24917603 251.38714600 459.54330444
127.57138824 195.25747681 459.45446777
