ply
format ascii 1.0
element vertex 512
property float x
property float y
property float z
end_header
149.46000671 101.74299622 416.73599243
151.95300293 102.23100281 421.73001099
147.39100647 102.46199799 410.02801514
146.72500610 99.10400391 423.68600464
142.17098999 97.86399841 418.99600220
156.31251526 107.06233215 416.15057373
154.13786316 106.91491699 410.58935547
149.27799988 100.87099457 428.00900269
156.58999634 106.60800171 425.12802124
138.61698914 99.33399963 410.12899780
160.03799438 109.94599915 420.04800415
139.23400879 96.27999878 425.26699829
153.12998962 104.80300140 430.32601929
135.78799438 97.33599854 415.05300903
145.91246033 104.53630066 402.30416870
141.88798523 97.59700012 429.69900513
152.75164795 108.61698151 402.10940552
148.85899353 104.28299713 433.58297729
139.86392212 102.14417267 402.25238037
160.34237671 113.02352905 408.91049194
156.53898621 110.55100250 431.47201538
132.16101074 94.96700287 422.45901489
151.53099060 109.39700317 435.22302246
134.27899170 95.33800507 428.80899048
164.33300781 116.25599670 420.39199829
128.74444580 96.91362000 413.56494141
162.50700378 115.76599884 426.52700806
131.82846069 99.98873901 404.20312500
139.44099426 99.32500458 436.15100098
165.02572632 117.60888672 415.66720581
128.23010254 98.35814667 408.41827393
147.16200256 109.20500183 438.48699951
158.19529724 114.45469666 399.25738525
149.24282837 110.32355499 394.20202637
126.49300385 95.28499603 420.34500122
142.66822815 107.28723145 393.96817017
141.10800171 105.44300079 439.36199951
136.88220215 104.06047821 395.85440063
133.32499695 96.30699921 435.22998047
129.08000183 95.33700562 430.17001343
153.99804688 113.80911255 394.69818115
149.76400757 114.51599884 438.89099121
164.33583069 119.60977936 405.83850098
125.18900299 95.11999512 425.11099243
157.60501099 118.97599792 435.48397827
153.71600342 117.23200226 438.11300659
125.28629303 99.53824615 404.06234741
144.82400513 112.67900085 441.50500488
166.87600708 123.05200195 422.04299927
135.00399780 101.82399750 440.75201416
140.25500488 110.44400024 441.83200073
122.37100220 97.25700378 410.28402710
163.59117126 120.85964203 401.04611206
162.91900635 122.57499695 431.05700684
136.86396790 107.08061218 391.00024414
149.39462280 113.81387329 390.20581055
120.21367645 95.84583282 417.92611694
146.55900574 118.70600128 441.16400146
167.78332520 124.82744598 411.31127930
168.03399658 125.29199982 417.70300293
166.99722290 124.14776611 405.86288452
128.72947693 103.43248749 394.44869995
165.83000183 125.74200439 426.08401489
135.38800049 106.19400024 443.55401611
140.98704529 110.28456879 388.02154541
123.04799652 96.11599731 432.63900757
127.01399994 96.99900055 438.33499146
141.68600464 115.71600342 444.00598145
160.11962891 120.86000824 393.59548950
157.82199097 125.94699860 436.60299683
151.09300232 123.19400024 441.22897339
117.47609711 97.97570801 408.99468994
128.63198853 101.91299438 442.90097046
120.67134857 101.16058350 398.94732666
147.11370850 115.27590942 385.73959351
156.09237671 120.89309692 389.19131470
133.09001160 110.11800385 445.70401001
164.24546814 124.78730011 396.03558350
167.69100952 130.49299622 421.51998901
116.03499603 96.26799774 422.65600586
153.54899597 127.20100403 439.51699829
162.75599670 131.21800232 431.27200317
169.51524353 129.99861145 408.86822510
151.52116394 119.27909851 385.84918213
135.80099487 116.45200348 446.13201904
117.65699768 96.38999939 431.99801636
145.85400391 126.86499786 441.84500122
139.78500366 123.26200104 443.78900146
169.44700623 131.62399292 414.97299194
130.72297668 108.00088501 386.39813232
142.09242249 114.67042542 382.74072266
112.51766205 97.80161285 414.67453003
166.28199768 133.91000366 425.83599854
169.42800903 130.53756714 403.04620361
121.88731384 104.88127899 390.34060669
113.36699677 97.01100159 429.71200562
129.93800354 116.37500000 446.90200806
113.08747864 100.25886536 402.89111328
116.13099670 96.99700165 436.83099365
150.34001160 132.70799255 440.81100464
158.12100220 134.70300293 436.23001099
124.45200348 106.20100403 447.12002563
132.69599915 122.14999390 446.41799927
110.27229309 97.82590485 422.84246826
168.04246521 130.97868347 396.75909424
119.83399963 99.50000000 443.51699829
168.53300476 137.09799194 420.06298828
141.33399963 130.55999756 443.85702515
135.83805847 113.73668671 380.58193970
171.39248657 134.94108582 407.89984131
147.68481445 120.87202454 380.78845215
162.04225159 128.76657104 388.55267334
160.95001221 138.01300049 432.41998291
114.41579437 102.24898529 394.33618164
108.92105103 100.49254608 406.64874268
107.68411255 99.37496185 415.68768311
171.40998840 137.15599060 412.36401367
130.58398438 111.88720703 380.45645142
153.61566162 125.30536652 381.85729980
114.51000214 98.29799652 441.49200439
122.80051422 108.28700256 383.61407471
154.89999390 138.70100403 438.76901245
147.60800171 137.23999023 441.96798706
166.43232727 133.16934204 391.67913818
106.13636780 99.69589233 421.68582153
140.76293945 119.42945862 377.34915161
163.67100525 141.68099976 429.04498291
137.11500549 132.70999146 445.68499756
169.74090576 135.58241272 396.83331299
130.53500366 128.64099121 446.42599487
123.38099670 113.68000031 450.77600098
106.82896423 99.44356537 429.75427246
159.40551758 130.40402222 383.63082886
158.08200073 142.37699890 434.02798462
107.74478912 101.96720123 399.30911255
114.90029907 105.11703491 387.70742798
120.44499969 108.77600098 450.89300537
125.21900177 122.53600311 449.05700684
171.51499939 141.78900146 414.98300171
104.24873352 101.51291656 409.62805176
142.02900696 137.22099304 445.47598267
125.40870667 111.75842285 378.18286133
109.24600220 99.28099823 441.20498657
102.32238007 102.11492157 415.05093384
172.43080139 140.62384033 402.43774414
168.19400024 145.14900208 422.63497925
149.94000244 142.07800293 442.11300659
172.84800720 142.77400208 409.45602417
116.31428528 108.13532257 382.27526855
162.02590942 134.72036743 383.77908325
155.02899170 144.96099854 438.03302002
141.96682739 123.20034790 373.70220947
114.40800476 104.45500183 450.45501709
157.28689575 132.29275513 379.57391357
130.42137146 115.74581146 373.90585327
147.68995667 127.14812469 374.91162109
105.02619934 100.79785919 437.50451660
152.96134949 130.22822571 376.52001953
159.64700317 147.61300659 432.04598999
101.51328278 103.15589142 404.55847168
135.09700012 136.91900635 448.52600098
107.10046387 104.68893433 390.84350586
110.05199432 101.27999878 447.20199585
119.97948456 111.89267731 377.79080200
102.66493988 103.66026306 399.42617798
167.44381714 139.27488708 388.97564697
99.31610870 103.81240845 419.22314453
165.42799377 148.47500610 426.20501709
124.98999786 130.01998901 450.53198242
171.81399536 146.92799377 415.61801147
121.52899933 125.83699799 452.10998535
135.67103577 120.88648987 371.20172119
138.69599915 140.35899353 448.85501099
116.71900177 116.27999878 453.80099487
100.30577087 102.83900452 432.52401733
114.40800476 111.19699860 453.96499634
147.15499878 145.34400940 446.09002686
129.10301208 136.41198730 450.71899414
170.82905579 143.32969666 392.51086426
172.63217163 144.92353821 397.43823242
117.69200134 122.19000244 453.82101440
96.60129547 104.63916779 411.32446289
160.09896851 137.13006592 378.30200195
155.92086792 134.90748596 375.26220703
156.31100464 150.72500610 437.20199585
96.82660675 105.93580627 425.93460083
162.50500488 152.37001038 429.30297852
173.90200806 148.38899231 404.98001099
102.37516785 106.22109985 390.63253784
108.25495148 108.65126801 382.40707397
109.56900024 105.87800598 453.13500977
163.47784424 140.06985474 381.10546875
125.79997253 118.09931183 370.76989746
152.03239441 133.47856140 372.59924316
170.12199402 152.18499756 417.70199585
143.77557373 128.56323242 369.47387695
96.43103790 104.75565338 403.83416748
142.52899170 144.90798950 449.86798096
98.78758240 105.99768066 396.08392334
102.68276215 103.44647217 445.47161865
134.10600281 141.17599487 451.78100586
164.15699768 154.31700134 424.04800415
172.76699829 151.97399902 411.06298828
103.03572845 108.13850403 386.08291626
117.36127472 114.96378326 372.77777100
168.23800659 154.37799072 411.56500244
164.47299194 155.93899536 415.05599976
97.60629272 104.92490387 438.39987183
174.73353577 149.56140137 398.38250732
169.49099731 154.24099731 405.82498169
110.82437134 113.19975281 376.03472900
92.12004852 107.82167816 414.81884766
159.52000427 155.52900696 435.19299316
120.43820953 118.29710388 369.63208008
134.38609314 125.83817291 366.42391968
167.82431030 145.25334167 383.38201904
109.96299744 115.10600281 456.88198853
122.89299774 136.48300171 454.65698242
164.48199463 157.11000061 408.83401489
148.49301147 150.92900085 447.41897583
94.22451019 107.23185730 433.73178101
175.59500122 152.70201111 406.92599487
152.61100769 153.89500427 442.67800903
112.31999969 121.82099915 457.08798218
97.89738464 108.52476501 390.07504272
158.69499207 159.22599792 422.35897827
173.05329895 148.75852966 391.07073975
91.51076508 109.48890686 420.25863647
159.65199280 159.70001221 415.68899536
91.86621094 109.69588470 426.74182129
116.32599640 130.72200012 456.27902222
104.47700500 106.44699860 455.01699829
157.78097534 140.58158875 372.69256592
104.14973450 112.33688354 379.52081299
164.70700073 157.90499878 402.73699951
128.68400574 142.22499084 455.74700928
168.19499207 156.04299927 399.47399902
148.32637024 135.42399597 366.93713379
106.38300323 110.19300079 457.91000366
127.28262329 123.70998383 365.23654175
92.75229645 109.36739349 397.85455322
136.49600220 146.73599243 455.40100098
177.24398804 153.44099426 400.80801392
156.11900330 160.78700256 429.84500122
172.45001221 154.84300232 397.37200928
89.86868286 109.67864227 405.59887695
163.96522522 145.67167664 376.70962524
95.90626526 107.68640900 446.75125122
91.70952606 109.48484802 437.28955078
142.45100403 150.53201294 454.07400513
120.74359131 121.88122559 365.63388062
138.07536316 131.25427246 363.05487061
92.90216064 111.26787567 392.06915283
155.62500000 163.83999634 422.85498047
98.16159058 107.98967743 452.47842407
171.72412109 151.37850952 385.07131958
158.52700806 163.81600952 410.12200928
152.75773621 140.44146729 366.94909668
87.31433868 112.34121704 420.39898682
157.06098938 164.60000610 415.82000732
95.38838959 113.01203156 385.20257568
114.23246765 120.53778076 367.00958252
153.17399597 158.99200439 444.75497437
149.55699158 157.50700378 447.96401978
177.06799316 155.01600647 394.64599609
154.81700134 160.98699951 440.28298950
88.16745758 113.41409302 431.47836304
106.13100433 119.59200287 460.71301270
168.60899353 158.30099487 392.86398315
85.93968964 112.54272461 414.51119995
109.35000610 128.11900330 459.99801636
159.47599792 164.61099243 405.26101685
91.06908417 110.62557220 443.27828979
162.38301086 162.75300598 398.76101685
115.66200256 137.00300598 459.65798950
87.22131348 114.58288574 401.83959961
146.33000183 156.46499634 452.76300049
101.93905640 113.65042114 460.36163330
148.33726501 139.84074402 363.11679077
103.68634033 118.03852081 372.29895020
88.37664032 115.47367859 396.34622192
142.36120605 136.75393677 361.26434326
112.03800201 133.82199097 460.77200317
131.09600830 149.55599976 458.71600342
90.27068329 115.28755188 389.65655518
84.92353058 115.33464050 406.45104980
164.56698608 162.63999939 393.85598755
174.66452026 157.42193604 389.79309082
164.41607666 150.63787842 373.33993530
87.08446503 114.09207916 438.59500122
84.96341705 116.58908844 428.84075928
124.00070190 128.08671570 360.26828003
167.83825684 152.90713501 377.02044678
158.63635254 147.44012451 368.01452637
153.88099670 168.07499695 428.26199341
83.50334167 115.68604279 420.34301758
138.35600281 153.70899963 458.45800781
130.28631592 131.51956177 359.11492920
121.34099579 144.43400574 461.32800293
96.13477325 111.58074951 457.63009644
152.84300232 167.20899963 434.74398804
151.19299316 162.28599548 448.19900513
91.69477081 111.74736023 451.82089233
135.92599487 134.83258057 358.27047729
171.54434204 156.80090332 382.05285645
94.54415894 118.39109802 378.93011475
156.65699768 170.47200012 417.63101196
85.12593842 120.02783203 398.44238281
87.10335541 114.24156952 445.05831909
82.05773163 118.82954407 409.88858032
116.98086548 127.93933105 360.52740479
147.21099854 162.03099060 452.37200928
171.74143982 160.80900574 386.25872803
87.28052521 119.24152374 389.19879150
160.36399841 170.21099854 405.44598389
151.98854065 145.83613586 362.03225708
102.66907501 127.65759277 462.71600342
151.29100037 167.28300476 442.91799927
147.08972168 142.97470093 359.44616699
184.67620850 162.86585999 413.12094116
90.32806396 120.16506195 382.45150757
83.33552551 118.62523651 435.82168579
82.53850555 122.44400024 403.90933228
138.28382874 171.62646484 427.30780029
165.95800781 166.28800964 390.55401611
80.44200134 120.02142334 422.03344727
98.15041351 120.60631561 463.05288696
109.03900146 136.94299316 464.32098389
80.27478027 120.76599121 414.82455444
105.06720734 125.15535736 364.87677002
122.31582642 132.41516113 357.30618286
109.57512665 126.95495605 361.99304199
135.84999084 159.24400330 458.65301514
113.73400116 143.02499390 464.56500244
137.79101562 139.49552917 355.53189087
162.47039795 154.28253174 367.87704468
89.56309509 114.75050354 456.52822876
157.75799561 174.03100586 423.69799805
182.75616455 166.73793030 421.07369995
92.39912415 114.92115784 460.63516235
160.70700073 174.11999512 414.66998291
140.23300171 161.58898926 458.19500732
95.37567902 123.66741943 372.05450439
84.46324158 123.12880707 389.77456665
124.82400513 153.18598938 463.64199829
168.74600220 165.11399841 384.01400757
131.36500549 157.74699402 461.49798584
128.43548584 136.18504333 354.71917725
167.90281677 159.46632385 374.25103760
79.49046326 122.77796936 429.27337646
152.18600464 172.43099976 439.32000732
136.52198792 174.76129150 420.73031616
158.82905579 153.26835632 363.93997192
79.82816315 126.26303864 406.35690308
133.56530762 174.24868774 425.26879883
102.62261200 134.44313049 464.97994995
89.58779144 124.29989624 377.93847656
170.71702576 162.93624878 379.16467285
164.59300232 172.70100403 397.49301147
181.46379089 169.66052246 416.23849487
165.18800354 174.23799133 404.75299072
78.16407013 125.30683136 413.76467896
144.40399170 166.84199524 453.98699951
181.88835144 168.68086243 428.27636719
166.14300537 175.36898804 412.09997559
155.19691467 151.90722656 360.40527344
85.59651947 124.88163757 383.18753052
81.46150970 127.53708649 395.32144165
85.10111237 117.34374237 453.91946411
187.25511169 167.80134583 416.39935303
93.05796814 119.62390137 464.63690186
112.68175507 132.38607788 357.53695679
180.23100281 171.09599304 423.75201416
76.80925751 125.29456329 420.30026245
79.09477997 124.56462860 436.30911255
188.79496765 166.82041931 407.07705688
144.32504272 146.35197449 354.44442749
80.42034149 121.68224335 443.85452271
170.13099670 175.27400208 408.38500977
97.86167145 128.10458374 366.19180298
102.13639069 129.37586975 362.79672241
166.90200806 172.65899658 392.64801025
116.55300140 151.07199097 465.72900391
157.71398926 176.50500488 432.88299561
176.47599792 173.70700073 420.56701660
172.98098755 175.04000854 414.25500488
79.63505554 129.88058472 400.24151611
185.23600769 169.61331177 424.67062378
169.05799866 176.33099365 419.05200195
178.23599243 173.02999878 409.63699341
183.50032043 170.16996765 405.51715088
138.99099731 166.84199524 457.02401733
119.78399658 155.35700989 463.89199829
164.69560242 160.32325745 368.59072876
147.91000366 172.03498840 448.96200562
165.94400024 177.18901062 423.34500122
117.32707214 135.35563660 354.61639404
131.47729492 140.84428406 352.04223633
123.25326538 137.97358704 352.95040894
189.18562317 166.13366699 397.20190430
106.33300018 141.60699463 468.45199585
172.18600464 175.35699463 403.00900269
80.95571136 128.77838135 390.08328247
80.96372986 120.78932190 449.62573242
110.59999847 148.32200623 466.40899658
140.06799316 178.41600037 430.37600708
164.29400635 177.91000366 428.81900024
90.50823975 128.79783630 372.37408447
132.18975830 178.49993896 416.23727417
104.90204620 132.32437134 359.55001831
142.97000122 171.87699890 452.02801514
178.42300415 173.91600037 403.67401123
132.17100525 165.71600342 459.53100586
75.20059967 126.99283600 425.71176147
173.30299377 176.44999695 428.07000732
170.26998901 175.71200562 397.22201538
75.92351532 131.17749023 413.13049316
150.59443665 152.02502441 355.37530518
170.08900452 172.19799805 386.15701294
160.54130554 158.85908508 362.44400024
93.56244659 127.87878418 467.05563354
168.67198181 166.23396301 374.13711548
77.72261810 125.96549225 441.48443604
125.77674103 177.75680542 413.85772705
87.21478271 119.02303314 463.45684814
182.44099426 172.20999146 434.92700195
190.09924316 170.57586670 422.71749878
130.73558044 179.10760498 426.35345459
77.42270660 134.43405151 403.27252197
138.12977600 146.44068909 350.91952515
137.64199829 171.40699768 455.08398438
140.38999939 181.47100830 422.00100708
186.54858398 170.48025513 397.45962524
143.60499573 179.71099854 435.76699829
126.95209503 178.96784973 420.48986816
177.81900024 175.48300171 432.39999390
95.48555756 133.83432007 467.71261597
159.56401062 178.88800049 438.96697998
80.93607330 130.98930359 385.12265015
181.98545837 173.49400330 398.00851440
176.05101013 175.76399231 397.32800293
167.23699951 178.91900635 434.43399048
141.05500793 175.85099792 448.86300659
127.51199341 166.03900146 461.34201050
172.62800598 176.00700378 392.51300049
152.26901245 177.63999939 446.24502563
89.34587097 122.85871124 467.53820801
187.41799927 172.59100342 430.22097778
123.73600006 162.90199280 464.08700562
149.21699524 179.47599792 441.79202271
172.45599365 178.34800720 433.84100342
74.46982574 129.74961853 433.60485840
78.55245972 133.75338745 390.88183594
146.90699768 182.90400696 429.36898804
75.51186371 137.06680298 408.87454224
156.42698669 157.99749756 356.94161987
92.89247131 133.82829285 365.84960938
165.17547607 165.30661011 366.35473633
144.12799072 183.80799866 425.12500000
73.19582367 133.68005371 418.74172974
125.73426819 143.19657898 349.17599487
108.61069489 137.79786682 354.45004272
104.15251923 148.55369568 467.79882812
142.98117065 150.63270569 350.17205811
149.31900024 182.71400452 434.31198120
80.72688293 121.92410278 458.38488770
128.59704590 181.73596191 411.06069946
115.26100159 158.51399231 466.48699951
144.60699463 179.74301147 444.37597656
84.29829407 134.25416565 377.06607056
170.72608948 171.96160889 377.96917725
192.54199219 172.66165161 411.90951538
76.34862518 127.08360291 447.12982178
75.08485413 130.80125427 440.02243042
118.39599609 162.68699646 464.48199463
176.68800354 177.68701172 438.03598022
98.37308502 136.70051575 360.50115967
72.49532318 132.68275452 427.52047729
87.40808105 134.94007874 371.44543457
81.36408234 135.32658386 381.52511597
121.53199005 180.55212402 412.40270996
153.76199341 181.45098877 442.22998047
128.80000305 172.71099854 456.39999390
116.26812744 141.12550354 350.43798828
97.17234039 141.91006470 468.73916626
132.83898926 177.40798950 449.37197876
132.91726685 147.60475159 348.09143066
82.56081390 121.96257019 463.93399048
162.94400024 180.77099609 443.04000854
76.20272064 138.38586426 396.42065430
76.87596893 125.87248993 452.68002319
194.56364441 171.54876709 400.94525146
134.29998779 183.24899292 433.61499023
132.16407776 184.62258911 416.24234009
183.90600586 176.02999878 439.34899902
128.78869629 183.93231201 422.97793579
156.54299927 180.79798889 447.63897705
73.12311554 139.59573364 415.41638184
193.45550537 171.02519226 393.77496338
150.89918518 157.50775146 352.14044189
109.01699829 155.95098877 468.88598633
137.48699951 183.52600098 438.29501343
89.89373779 131.99748230 470.38803101
139.51000977 182.68998718 443.38101196
82.64024353 139.63156128 378.26776123
177.98799133 177.97100830 388.91198730
119.64529419 181.76336670 406.25701904
173.55599976 180.36199951 442.72100830
76.77686310 140.34297180 390.46420288
125.60154724 184.76298523 414.58169556
191.36251831 176.39173889 428.95217896
175.33799744 177.12100220 383.03302002
