ply
format ascii 1.0
element vertex 2048
property float x
property float y
property float z
end_header
278.73986816 273.47296143 454.66964722
283.58367920 284.54736328 459.85574341
282.53048706 265.76049805 450.79156494
287.56250000 276.11920166 455.88058472
141.77789307 150.96647644 434.26513672
134.08920288 154.35926819 438.31146240
147.48750305 151.46073914 423.65740967
137.60218811 153.90356445 426.63821411
265.17572021 245.11067200 451.11077881
272.36917114 248.75112915 458.46395874
273.23413086 249.82141113 443.82226562
280.37628174 251.65090942 450.96630859
127.55381775 162.10583496 427.69604492
121.23196411 168.44099426 431.17700195
132.11056519 163.25024414 418.03314209
124.53879547 169.78787231 420.54095459
140.20436096 151.51672363 451.21917725
134.21186829 154.93951416 458.21945190
146.35607910 150.08798218 441.58099365
139.37742615 153.62579346 448.39614868
124.20101929 158.76461792 450.50427246
117.24897766 165.18341064 454.66845703
127.19371033 156.07846069 439.17797852
118.70753479 163.23962402 442.65493774
149.11669922 158.69430542 417.18963623
140.97271729 161.77682495 417.75234985
156.13717651 165.42346191 412.04644775
147.32403564 168.04354858 411.26605225
159.21720886 153.73236084 425.77557373
158.05805969 154.66314697 435.17803955
169.99792480 160.19583130 421.36520386
168.79931641 161.12496948 430.92639160
270.39968872 310.21057129 474.37121582
272.00512695 314.40682983 486.33627319
278.00939941 303.48117065 471.86187744
277.63299561 308.25299072 481.50387573
113.04498291 176.75915527 438.88531494
109.22012329 184.70922852 443.34851074
115.48019409 175.80958557 428.41827393
110.46530151 184.19689941 432.28973389
123.48941803 162.35670471 472.52584839
117.62095642 168.94720459 478.52642822
125.64710999 158.34838867 459.76995850
118.22361755 166.19961548 465.68121338
133.77131653 159.90679932 472.77676392
129.53868103 165.60427856 481.91592407
140.78417969 158.20730591 464.54913330
136.64089966 164.10617065 473.91784668
114.75952911 172.84451294 480.11569214
109.96704865 181.04458618 485.44412231
114.11983490 169.63558960 468.02325439
108.67340088 178.62551880 473.12847900
112.59271240 202.50563049 531.99462891
111.10469055 211.84915161 537.26806641
108.37802124 199.70066833 521.97814941
106.89807892 209.27801514 527.31524658
110.29804993 181.56253052 463.04553223
106.54637909 190.06008911 468.34228516
110.32940674 178.48690796 451.26632690
105.90953064 187.85514832 456.38531494
122.72492218 172.00924683 495.81103516
117.68910980 179.23979187 503.27539062
127.45846558 167.27189636 485.08926392
122.59375000 175.04138184 493.34063721
171.57086182 167.33837891 416.26135254
170.58137512 168.09332275 423.69055176
179.96720886 176.50381470 413.36801147
180.71098328 176.44274902 421.62036133
240.22161865 317.99414062 536.15002441
237.62149048 313.26248169 546.09423828
251.83581543 315.94934082 532.73291016
247.43136597 313.78121948 540.82275391
108.30267334 192.73535156 504.58367920
105.65930176 201.71197510 510.07406616
106.27713776 190.67250061 492.97604370
103.45506287 199.99511719 498.44906616
254.95681763 319.17364502 515.47680664
254.32186890 316.05502319 526.69665527
264.38174438 316.87686157 510.73089600
261.96743774 316.09173584 519.60723877
116.15054321 230.94337463 548.66296387
121.21487427 240.68801880 553.33374023
115.89652252 241.11764526 547.25238037
120.99221802 250.06196594 553.12274170
118.76406860 211.72988892 542.67266846
119.28315735 222.44595337 548.35577393
118.82632446 212.07968140 537.69573975
119.75177002 222.36421204 544.19915771
222.04818726 315.37493896 550.33929443
216.52287292 309.91235352 557.20104980
234.15058899 312.88092041 550.01849365
228.19824219 309.79174805 555.35943604
104.81150055 196.56311035 454.49688721
102.93471527 205.22607422 460.04788208
105.25253296 195.00427246 443.56030273
102.92948914 204.05694580 448.94686890
105.50899506 197.12112427 479.20684814
103.28194427 205.82020569 485.25494385
104.58985138 194.60511780 467.13912964
102.13182831 203.90112305 473.41250610
106.33837128 210.55560303 519.62072754
106.26708221 220.14816284 525.29626465
103.57926941 211.06887817 508.79061890
103.73741150 220.83633423 514.80352783
116.57488251 189.00630188 516.75573730
113.63114929 197.54568481 524.76855469
122.58639526 186.96743774 508.02529907
120.32180023 195.25970459 516.92968750
108.01073456 189.72177124 430.92633057
104.67253876 198.15850830 435.82336426
112.73573303 188.75985718 420.71688843
108.40329742 197.48934937 425.22708130
133.14613342 173.55239868 411.83682251
125.51542664 180.18698120 412.20941162
141.57052612 179.65087891 406.95355225
133.47026062 186.76260376 406.16345215
167.14729309 169.76800537 409.82336426
159.43293762 174.06338501 407.26647949
174.85594177 179.12240601 408.72454834
166.83361816 183.58032227 405.36355591
267.11181641 282.48818970 480.61068726
268.69155884 293.26461792 487.05062866
274.71731567 280.57363892 472.03326416
272.69842529 287.39996338 479.74523926
257.85684204 285.68853760 455.31390381
257.42913818 297.63458252 459.42913818
268.29965210 281.18692017 459.08886719
264.26702881 289.83306885 461.06735229
247.76612854 307.15020752 469.85751343
246.54946899 313.83135986 479.20864868
258.97052002 304.69738770 471.77279663
253.36843872 309.57055664 476.41699219
109.00792694 220.51718140 540.15209961
111.53201294 230.56408691 545.98632812
106.40994263 225.01499939 531.16784668
109.53902435 234.11709595 537.73016357
169.61486816 175.53517151 432.11737061
168.77175903 183.75329590 442.97793579
178.17993164 182.79516602 429.18978882
177.77691650 190.36695862 440.34500122
200.01863098 309.20800781 557.39440918
193.14738464 304.65792847 562.52624512
211.17811584 306.88494873 559.37670898
204.59463501 304.11804199 563.13928223
137.25479126 312.57232666 544.26318359
142.99969482 310.84179688 553.81390381
144.94300842 320.75506592 542.68249512
147.47137451 318.49572754 550.44812012
256.78613281 294.39447021 499.67645264
256.39831543 302.71240234 508.49673462
265.63681030 295.87680054 491.58380127
261.42413330 299.43682861 499.85372925
262.41271973 255.57910156 467.19131470
264.25671387 267.27609253 475.39849854
272.34271240 256.47305298 457.42385864
268.87429810 262.23315430 466.95748901
103.91343689 208.23512268 494.32546997
103.58943176 217.45127869 500.28610229
102.66268158 208.25413513 483.20446777
102.48541260 217.53872681 489.64132690
173.36383057 307.83435059 562.54785156
166.90605164 303.01904297 568.21105957
185.44197083 307.66516113 564.31585693
178.53222656 304.18249512 568.62353516
234.59304810 321.77304077 499.19711304
231.50769043 321.33090210 509.84472656
245.60604858 319.47134399 500.34484863
239.34561157 320.19076538 506.26678467
145.22079468 174.37680054 461.88238525
141.13121033 182.80783081 470.23358154
152.84959412 178.78990173 453.62054443
148.93539429 187.64675903 462.58193970
143.23666382 323.99707031 521.47570801
144.88034058 323.10546875 533.86279297
154.81842041 329.10467529 518.89935303
151.31304932 327.41516113 527.71154785
194.59635925 320.51162720 540.60925293
188.86192322 317.46856689 549.04504395
205.71200562 319.14916992 542.24981689
198.34814453 317.85006714 546.94866943
244.35646057 264.50024414 446.04730225
245.70048523 277.44241333 448.34658813
256.41085815 263.49221802 449.78720093
253.27665710 270.99020386 450.44055176
142.32585144 302.53713989 559.75250244
145.94064331 297.76892090 566.06103516
153.42687988 306.69943237 561.26757812
153.95726013 302.74340820 566.73211670
224.55526733 294.87295532 533.00506592
221.44139099 301.34643555 541.28875732
235.20669556 296.72216797 529.60223389
228.78932190 298.15008545 536.15270996
146.69013977 182.30245972 402.68945312
140.65058899 190.80383301 399.77706909
155.17440796 188.76878357 401.43572998
149.34587097 197.87469482 398.54187012
226.50257874 316.40454102 474.33105469
223.71472168 320.18756104 484.60989380
237.36834717 315.57092285 476.96182251
230.98733521 318.19790649 482.01928711
237.46112061 286.62673950 518.04992676
237.56283569 296.98922729 525.70318604
247.35263062 289.76794434 511.58978271
242.55017090 293.86627197 519.26611328
182.86970520 186.89164734 414.87371826
188.06329346 191.82290649 421.06152344
187.18910217 196.40626526 415.44403076
193.47198486 202.03329468 421.78961182
102.84441376 205.79077148 445.05108643
100.64683533 215.15141296 450.21331787
105.51654053 204.49427795 433.38070679
102.68592072 214.05262756 438.18078613
211.74696350 319.41473389 514.63336182
207.31378174 321.03915405 524.55102539
222.46868896 320.04302979 513.76293945
215.16329956 320.57983398 519.15124512
163.40805054 319.80477905 544.34344482
160.00759888 315.73992920 553.22125244
174.80206299 321.35971069 544.23846436
168.93621826 318.76434326 549.91943359
125.13839722 245.46810913 551.15350342
129.76358032 254.82493591 556.98107910
132.31570435 256.63662720 547.64465332
135.69619751 263.43658447 554.99023438
170.54603577 326.46551514 521.03283691
167.02592468 324.70779419 531.49224854
181.06298828 327.30810547 522.30841064
174.85839844 326.41180420 528.00549316
235.33282471 245.55535889 446.55050659
239.11111450 251.12251282 451.91900635
247.16717529 247.47349548 445.27697754
246.93429565 249.32081604 450.62075806
105.34821320 224.32397461 518.04888916
107.40939331 233.45649719 524.71765137
104.25417328 226.80671692 508.06945801
106.60193634 235.37272644 515.50628662
122.67183685 308.18542480 516.23657227
126.36267090 311.47323608 527.85754395
130.30255127 315.92770386 508.97869873
130.06301880 316.29281616 518.92108154
250.44259644 269.25122070 494.09277344
249.71734619 278.62326050 503.05847168
259.63427734 272.79055786 484.86712646
254.97058105 275.64862061 493.92834473
103.42479706 219.15042114 482.77740479
103.93260956 228.33615112 489.30740356
101.78041077 218.67135620 471.71914673
102.26398468 228.18026733 478.53240967
129.69105530 186.97750854 489.44125366
127.43193054 195.25456238 497.76773071
135.66471863 191.99810791 480.60150146
133.96835327 199.93298340 489.60095215
189.75073242 324.96337891 508.85635376
185.29806519 325.28839111 519.10095215
199.85978699 325.66796875 510.34747314
192.89491272 325.77291870 515.60406494
163.69059753 158.86601257 420.58798218
159.22222900 158.84046936 420.55599976
164.26058960 158.88325500 420.50167847
163.36781311 158.84851074 420.46856689
189.55259705 217.82144165 414.15365601
186.16128540 217.81187439 413.99615479
190.00057983 217.84823608 414.20953369
189.61410522 217.83596802 414.07727051
171.73442078 174.32882690 401.70770264
166.75166321 174.31777954 401.65374756
172.38690186 174.38935852 401.67904663
171.52003479 174.30725098 401.62002563
149.95913696 155.47882080 421.37612915
145.01600647 155.47076416 421.33941650
150.62289429 155.46760559 421.27120972
149.61203003 155.45051575 421.25103760
197.50166321 225.39804077 424.81488037
194.95785522 225.38922119 424.68569946
197.81867981 225.41725159 424.85858154
197.66184998 225.40747070 424.74050903
176.95320129 186.71876526 400.29241943
172.73619080 186.69506836 400.17523193
177.51541138 186.77101135 400.35354614
176.93310547 186.69335938 400.26184082
184.23889160 225.72151184 410.32080078
180.28137207 225.69145203 410.17242432
184.79562378 225.75746155 410.38336182
184.27743530 225.73123169 410.26870728
159.34500122 161.96771240 407.48687744
154.22531128 161.95086670 407.47061157
160.05403137 161.99203491 407.44537354
159.10494995 161.91714478 407.42510986
140.13116455 156.18296814 426.17559814
135.66304016 156.19296265 426.15402222
140.78262329 156.15359497 426.09875488
139.87915039 156.15588379 426.07522583
149.07028198 153.79092407 435.94409180
145.41854858 153.78302002 435.93533325
149.63386536 153.76226807 435.88031006
148.94819641 153.74880981 435.85220337
182.65719604 197.03265381 402.64727783
178.75344849 197.00631714 402.53277588
183.20588684 197.08007812 402.74792480
182.74679565 197.00933838 402.65676880
162.88764954 168.09805298 429.00588989
158.83383179 168.10763550 428.96234131
163.50025940 168.10157776 429.00274658
162.67640686 168.10226440 428.96359253
159.30592346 177.34474182 396.41781616
153.67318726 177.36791992 396.37191772
160.11383057 177.39767456 396.38375854
159.05638123 177.33096313 396.35659790
170.76496887 170.07809448 413.78939819
166.39781189 170.08300781 413.78643799
171.38583374 170.08648682 413.85162354
170.61224365 170.04379272 413.83364868
166.02333069 189.59432983 395.02819824
160.96072388 189.59432983 394.92102051
166.73423767 189.64071655 395.08221436
165.92036438 189.56594849 395.01947021
159.42068481 159.96128845 436.63107300
155.55734253 159.97842407 436.59320068
159.99536133 159.92340088 436.62664795
159.19325256 159.93466187 436.58483887
185.47229004 196.60043335 429.04330444
182.38305664 196.59283447 428.94970703
185.90586853 196.60290527 429.10174561
185.49874878 196.59631348 429.01947021
168.43731689 178.39236450 424.67141724
164.25569153 178.38842773 424.63601685
169.07870483 178.38796997 424.66604614
168.25840759 178.38165283 424.63583374
149.34756470 166.35726929 401.73956299
143.63569641 166.37530518 401.72644043
150.17028809 166.39486694 401.66867065
149.04202271 166.33209229 401.67327881
181.86386108 186.28692627 413.91677856
178.39401245 186.26029968 413.83013916
182.32321167 186.31958008 413.99093628
181.90711975 186.25988770 413.90802002
191.93682861 202.11781311 413.66369629
188.80311584 202.10191345 413.54888916
192.34254456 202.14900208 413.77456665
192.04365540 202.10427856 413.66622925
169.04434204 199.81814575 396.24584961
164.06651306 199.82922363 396.14648438
169.77305603 199.83674622 396.34521484
168.95751953 199.78642273 396.28076172
130.58898926 159.77581787 430.01940918
126.33711243 159.78091431 430.03070068
131.26582336 159.73553467 429.95361328
130.42675781 159.73538208 429.95709229
154.59793091 187.39608765 393.50473022
149.08758545 187.42376709 393.43228149
155.40071106 187.42687988 393.53747559
154.41360474 187.36853027 393.50787354
121.45326996 193.77075195 519.18853760
119.28755951 193.75933838 519.26953125
121.90999603 193.74752808 519.17260742
121.48234558 193.74923706 519.22875977
138.19158936 171.76086426 400.01046753
132.45809937 171.80351257 400.03945923
139.07572937 171.80416870 399.87298584
137.92846680 171.74404907 399.90887451
200.11154175 222.74288940 439.22305298
198.03158569 222.72465515 439.14801025
200.32331848 222.74877930 439.22583008
200.23028564 222.73260498 439.14813232
137.24667358 155.94352722 442.93807983
133.86950684 155.95043945 442.93811035
137.81636047 155.93383789 442.90917969
137.20205688 155.93518066 442.88507080
152.21945190 159.30731201 448.49432373
148.85710144 159.31332397 448.49230957
152.77590942 159.27713013 448.45581055
152.08274841 159.28152466 448.43304443
140.67059326 183.46826172 394.85742188
134.49227905 183.54486084 394.87655640
141.67330933 183.50720215 394.73937988
140.38285828 183.46878052 394.77893066
197.03970337 209.61640930 428.01019287
194.47082520 209.61866760 427.93597412
197.35963440 209.65458679 428.10018921
197.19189453 209.63723755 428.02105713
138.81564331 159.74279785 414.12994385
133.98347473 159.74041748 414.16381836
139.58178711 159.74673462 414.04699707
138.66360474 159.68307495 414.06524658
125.27688599 204.04393005 520.78454590
123.09745789 204.01934814 520.85058594
125.74786377 204.02182007 520.75891113
125.32470703 204.01391602 520.81091309
167.94111633 224.39129639 512.43896484
165.54286194 224.35540771 512.48431396
168.35977173 224.38095093 512.38946533
167.99613953 224.36546326 512.43951416
188.06347656 203.63972473 436.37539673
185.35754395 203.63063049 436.29608154
188.44790649 203.63191223 436.43014526
188.11216736 203.62739563 436.35559082
132.03059387 165.11532593 408.63992310
126.62242126 165.13673401 408.69869995
132.89739990 165.10372925 408.52047729
131.79635620 165.05133057 408.56695557
171.66783142 189.03448486 431.69818115
168.28776550 189.03698730 431.65527344
172.21336365 189.02130127 431.73504639
171.61715698 189.02413940 431.69964600
129.11140442 167.45254517 481.27239990
126.22402954 167.46484375 481.35241699
129.66122437 167.40509033 481.27160645
129.07545471 167.40734863 481.31982422
129.17739868 162.75073242 468.86056519
126.31985474 162.76995850 468.87051392
129.71516418 162.72991943 468.84573364
129.14207458 162.74661255 468.83193970
139.46788025 168.78482056 467.47113037
136.13133240 168.79864502 467.54330444
140.06782532 168.75889587 467.48767090
139.36378479 168.76124573 467.53839111
155.21301270 217.96791077 516.95227051
152.61585999 217.92977905 517.01287842
155.73381042 217.95550537 516.90295410
155.26815796 217.94052124 516.96551514
178.80303955 222.09965515 481.63919067
176.34341431 222.06764221 481.65908813
179.17971802 222.08862305 481.61077881
178.87088013 222.07319641 481.63360596
180.74040222 213.45066833 404.94473267
176.67178345 213.44831848 404.83105469
181.34371948 213.45236206 405.09695435
180.78475952 213.42236328 405.01062012
163.17575073 210.69659424 395.62927246
157.90771484 210.71887207 395.55078125
164.01873779 210.72085571 395.73718262
163.13784790 210.67654419 395.69787598
126.24713898 164.69812012 417.14544678
121.86278534 164.70874023 417.23803711
127.00238037 164.67785645 417.11816406
126.16111755 164.63269043 417.18563843
126.29861450 175.06912231 404.33212280
121.02090454 175.13290405 404.43026733
127.20204926 175.08868408 404.24603271
126.12589264 175.05390930 404.33230591
140.76716614 158.52624512 461.54174805
137.80603027 158.53906250 461.53323364
141.33076477 158.50405884 461.49667358
140.71601868 158.51467896 461.46420288
189.00744629 232.55514526 484.40942383
186.75212097 232.52452087 484.39129639
189.29463196 232.51947021 484.35244751
189.07540894 232.50846863 484.34313965
190.88887024 212.50152588 444.21539307
188.35034180 212.47836304 444.17001343
191.25056458 212.48730469 444.24090576
190.97993469 212.47427368 444.19641113
180.85163879 213.18087769 461.07925415
177.70288086 213.15773010 461.09240723
181.31057739 213.18528748 461.05612183
180.83950806 213.17916870 461.07464600
138.48246765 198.98034668 487.01727295
135.36868286 198.95590210 487.10971069
139.08955383 198.97990417 486.94827271
138.48258972 198.97094727 487.03274536
129.45100403 199.35261536 506.18096924
127.10552979 199.34051514 506.24395752
129.93556213 199.33926392 506.12258911
129.50119019 199.33850098 506.16995239
161.30792236 221.00167847 503.28393555
158.61312866 220.96421814 503.36132812
161.80805969 221.01971436 503.21307373
161.35687256 221.00187683 503.29083252
131.67813110 159.02078247 452.57162476
128.79389954 159.03797913 452.57165527
132.18659973 159.01907349 452.54806519
131.64436340 159.02832031 452.51962280
146.12948608 173.76486206 455.76980591
142.57881165 173.77978516 455.81140137
146.76445007 173.74745178 455.85537720
146.06278992 173.74929810 455.88619995
121.31263733 166.57046509 437.75537109
118.00111389 166.57617188 437.77554321
121.92137909 166.55180359 437.73724365
121.31297302 166.54833984 437.73306274
117.44875336 185.60546875 511.81762695
115.65673828 185.59326172 511.83767700
117.84046936 185.58422852 511.81747437
117.53327942 185.57717896 511.81793213
159.68527222 180.51672363 435.30111694
156.06079102 180.52926636 435.27883911
160.32731628 180.50393677 435.34091187
159.60350037 180.51690674 435.31448364
190.38172913 223.19308472 462.28509521
188.00846863 223.16163635 462.27642822
190.68705750 223.19465637 462.23602295
190.46678162 223.17373657 462.22589111
148.49818420 207.33221436 393.80493164
142.55131531 207.38708496 393.80966187
149.50694275 207.33959961 393.83963013
148.30038452 207.30972290 393.87179565
136.64959717 215.26528931 519.81127930
134.28234863 215.22351074 519.88513184
137.16775513 215.25320435 519.78436279
136.73091125 215.23304749 519.84686279
177.12249756 229.80815125 504.12493896
175.01391602 229.76028442 504.13369751
177.43711853 229.78594971 504.07083130
177.20018005 229.75682068 504.08364868
135.61602783 208.85583496 508.81179810
133.26942444 208.82817078 508.89297485
136.10517883 208.87028503 508.76202393
135.69847107 208.85766602 508.82861328
168.77299500 223.16519165 399.24346924
163.85559082 223.17395020 399.16955566
169.56301880 223.19682312 399.36581421
168.82170105 223.15954590 399.32589722
272.30029297 273.84924316 471.24301147
273.25604248 284.08053589 479.54476929
280.92523193 278.78381348 461.56680298
281.67282104 288.46765137 470.21646118
269.92639160 295.25097656 487.83798218
268.40509033 303.85119629 497.89440918
278.36871338 297.33068848 477.33294678
277.61364746 304.60778809 486.85705566
257.23278809 252.21464539 446.97930908
260.95260620 264.69677734 450.73809814
272.22998047 260.24075317 447.56671143
275.35333252 272.10504150 452.53598022
248.23025513 253.99256897 477.08151245
247.59292603 260.16900635 486.39654541
258.59439087 258.99462891 470.52108765
257.80499268 265.51895142 480.56610107
248.30273438 300.81051636 522.07543945
244.51019287 306.33013916 533.84655762
259.55773926 304.49801636 512.03424072
256.25851440 309.34704590 523.72167969
248.35595703 272.48287964 495.54284668
245.28295898 279.75619507 504.84643555
258.43280029 277.62088013 488.72576904
255.27188110 285.17935181 498.37155151
234.63436890 279.48483276 515.43707275
230.20022583 286.05667114 525.11517334
245.77246094 285.67169189 511.21676636
241.41342163 292.63323975 520.98803711
229.61756897 239.92738342 461.84149170
233.15158081 244.27882385 469.85241699
239.40403748 244.26170349 455.88369751
243.83532715 248.38598633 465.18350220
229.92054749 243.04980469 482.92193604
229.06626892 247.76245117 492.31869507
240.58410645 247.08187866 479.25677490
239.28712463 251.91047668 489.18771362
228.51307678 254.66577148 501.22879028
224.08843994 260.64828491 509.77960205
239.16830444 260.17709351 499.00650024
234.24656677 266.32119751 507.42803955
214.39274597 229.19610596 477.57815552
215.12606812 232.91070557 486.68026733
224.86976624 233.46295166 473.79418945
225.85473633 236.60153198 483.78216553
213.18132019 224.00344849 458.56414795
216.76855469 228.06213379 466.05416870
221.03825378 229.80728149 452.06454468
225.41915894 232.71679688 460.71420288
219.49081421 289.56381226 530.26501465
212.55207825 295.07867432 539.29870605
232.32557678 295.61975098 531.39611816
226.24325562 301.50152588 540.31951904
257.52792358 316.49859619 494.51437378
257.63580322 319.51458740 506.43380737
267.80938721 312.69903564 493.92126465
267.36145020 314.27212524 506.09161377
209.81460571 237.40472412 493.28869629
204.55258179 242.29415894 500.96124268
221.64277649 241.79798889 494.88034058
216.02905273 246.72543335 502.51675415
215.11087036 265.04702759 513.75134277
208.59605408 270.96301270 520.80029297
225.51231384 271.28570557 515.41424561
218.96423340 277.31195068 522.20849609
252.51159668 280.27587891 453.87524414
256.66534424 291.96719360 458.80081177
266.49645996 284.07604980 458.00714111
270.05044556 295.31869507 463.49539185
201.22387695 297.29693604 545.27362061
192.99815369 302.09701538 552.69903564
215.58801270 301.48062134 549.38934326
207.85466003 305.97271729 557.05804443
233.90438843 247.37654114 442.70388794
238.05335999 258.94235229 444.50558472
245.29910278 252.75262451 444.90338135
249.92430115 263.83938599 447.34570312
213.58813477 232.61817932 442.30514526
218.99845886 240.04737854 446.57958984
222.87274170 240.39717102 439.82385254
230.03768921 246.02894592 445.48699951
200.41975403 277.08859253 521.92810059
192.58943176 282.65478516 527.53802490
210.52655029 282.74603271 525.46972656
203.22186279 288.88632202 530.93798828
247.36457825 302.32275391 462.19888306
251.14950562 310.99902344 469.78207397
260.40466309 302.16735840 469.11669922
263.90252686 310.46627808 476.70178223
233.24186707 320.67288208 507.60104370
230.44546509 320.47576904 520.46716309
244.77301025 317.83773804 513.04937744
242.69566345 316.85705566 525.49346924
190.95645142 230.90653992 488.33700562
189.08299255 235.10876465 497.72616577
199.84469604 236.52787781 486.01300049
199.25561523 239.55999756 495.52572632
205.39663696 254.50140381 498.73181152
199.02819824 260.16076660 504.70672607
215.93780518 258.29458618 502.77908325
209.50665283 264.17825317 509.00683594
181.94560242 285.80239868 528.19195557
174.20843506 291.57391357 534.22961426
192.59799194 291.36526489 534.08514404
185.37124634 297.95993042 539.57434082
178.53137207 218.17396545 487.69186401
176.56500244 223.17460632 496.78063965
185.73933411 225.04235840 483.91641235
184.75056458 228.48701477 493.14779663
193.55001831 230.75494385 466.51895142
193.54377747 234.75469971 475.36633301
202.47950745 238.05772400 463.90222168
204.60580444 240.01672363 473.41491699
169.84939575 196.86349487 452.59588623
168.24552917 203.53228760 461.24551392
181.43376160 205.28598022 450.09506226
180.35635376 210.10887146 459.68383789
172.30741882 229.70889282 512.36120605
167.40277100 234.82170105 521.69903564
180.33924866 233.94865417 507.39334106
176.21211243 237.94270325 516.30914307
188.97749329 263.77868652 505.71044922
181.16618347 269.29925537 511.31848145
198.12141418 267.87811279 510.87365723
190.98117065 274.24844360 516.00073242
180.59872437 212.03936768 465.30325317
179.10012817 217.50289917 473.74191284
188.45672607 220.36584473 461.91754150
187.95046997 223.90174866 470.97021484
187.16296387 237.20184326 497.18911743
184.57946777 241.02195740 507.10867310
195.37622070 241.83915710 493.27111816
194.33932495 244.23919678 502.72299194
194.79093933 211.02801514 444.32357788
195.15629578 217.40214539 450.64447021
198.91224670 221.77830505 436.81832886
200.46965027 226.48904419 444.91287231
190.52302551 197.69233704 432.44976807
192.88314819 205.38008118 437.81256104
196.56163025 209.70680237 428.98040771
199.29815674 215.20552063 435.52752686
169.24676514 296.69311523 542.14074707
162.49053955 302.01409912 550.22955322
181.26599121 300.70880127 550.56414795
174.83958435 306.08679199 558.03515625
211.32022095 322.00323486 518.80187988
208.14361572 320.44488525 531.66040039
222.64698792 319.42724609 526.58087158
220.35958862 317.30615234 538.66375732
229.91223145 274.80068970 446.32058716
234.35112000 285.78860474 449.93728638
240.94197083 278.09042358 449.28903198
245.54054260 288.48522949 452.97750854
154.46060181 216.63414001 506.76458740
150.21087646 222.14140320 516.64227295
164.35543823 221.55969238 504.43011475
160.65699768 225.86456299 514.06829834
229.43412781 318.84170532 480.48101807
230.64198303 322.05062866 491.71609497
241.32739258 317.37033081 487.17642212
242.32281494 319.74801636 498.01226807
157.79643250 204.88201904 480.33084106
155.17539978 210.41969299 489.88348389
168.34568787 211.02754211 478.79483032
166.43373108 214.98358154 488.17068481
218.93191528 256.59555054 433.77954102
222.70640564 267.39337158 437.62341309
228.62619019 260.27877808 438.92752075
233.54032898 270.01773071 442.93865967
171.60783386 269.85470581 511.61877441
164.04556274 275.90948486 517.58038330
179.91911316 274.98794556 517.34466553
173.16668701 282.02365112 522.42987061
193.91563416 232.41073608 449.40881348
195.69166565 236.68612671 457.37219238
201.76496887 241.21722412 445.97366333
206.12020874 242.80361938 454.74118042
136.62521362 203.23571777 498.93807983
133.98991394 208.99201965 509.03439331
147.37739563 208.34353638 496.23126221
144.40609741 212.98298645 506.33328247
144.35287476 228.01484680 528.10168457
138.81518555 233.29209900 537.69421387
153.63223267 232.55996704 524.14562988
148.65345764 237.18991089 533.17547607
224.59696960 308.37466431 462.19033813
228.17469788 316.06433105 470.08529663
236.40612793 309.07424927 467.49703979
239.71771240 316.08523560 475.16195679
129.37280273 212.21615601 524.17224121
126.14533997 217.59034729 534.69439697
139.10319519 217.98243713 520.18530273
135.78305054 222.35574341 530.48126221
166.51499939 243.55072021 527.86975098
159.58006287 249.42393494 535.75140381
172.58615112 246.86611938 518.60321045
165.70634460 252.02359009 526.07043457
187.89866638 257.20062256 482.88867188
186.39923096 261.59768677 492.86904907
197.20227051 260.08203125 486.89889526
197.15997314 263.70156860 496.60171509
142.95372009 240.00721741 542.96008301
136.38568115 245.72740173 551.22570801
149.86735535 246.92790222 536.37969971
144.42852783 252.90756226 544.54644775
196.49603271 264.87640381 476.27108765
194.74234009 272.22387695 482.74978638
204.73316956 268.87045288 478.44302368
204.86172485 275.42138672 485.70681763
221.00784302 292.48614502 449.72531128
225.56459045 301.68331909 455.66030884
231.90640259 294.70916748 453.88571167
236.54110718 303.10122681 459.38156128
197.05780029 240.31138611 431.55438232
200.12223816 247.86795044 437.28408813
204.57633972 248.90971375 433.43972778
210.48852539 253.22694397 440.07620239
172.18194580 256.74905396 508.38046265
166.66137695 261.33813477 518.04907227
178.17730713 260.45083618 504.38543701
173.69895935 264.46197510 512.77465820
208.51383972 321.97576904 489.90536499
209.20747375 323.41674805 501.58905029
219.60012817 321.06829834 496.64923096
220.44038391 321.82525635 507.80822754
151.78396606 280.18536377 521.09069824
145.71209717 286.08801270 528.94189453
159.98617554 286.29144287 527.49145508
155.23432922 293.59896851 534.81036377
141.25848389 285.75250244 539.60900879
138.63934326 290.82537842 548.66931152
150.46466064 293.88031006 543.95812988
149.91526794 300.10427856 553.10961914
136.85903931 261.54772949 546.58911133
130.04386902 268.30966187 552.22186279
143.03735352 269.93502808 542.40307617
137.88177490 278.32614136 548.40081787
193.03285217 214.98025513 419.99853516
194.61355591 225.41305542 420.11737061
199.58187866 224.02151489 424.61862183
201.65399170 231.69470215 425.72299194
182.65921021 323.62991333 522.48748779
182.15852356 321.07019043 534.84411621
193.59887695 321.41189575 529.90765381
193.46105957 318.22863770 541.70538330
193.03047180 281.22854614 488.85504150
190.73023987 288.20339966 496.18917847
201.25715637 284.96072388 493.02969360
199.50346375 291.75878906 500.72882080
155.88400269 260.10104370 532.96069336
148.66770935 265.70715332 540.69403076
160.18542480 265.97900391 525.43048096
153.56036377 271.87026978 532.42816162
193.21107483 323.89260864 501.86755371
193.43795776 323.75241089 513.91625977
203.95613098 322.69946289 509.08001709
204.45289612 321.94656372 520.71051025
210.39489746 278.98605347 431.55154419
214.78625488 287.23077393 439.16513062
219.76313782 279.61312866 438.49786377
224.47767639 287.42919922 445.87765503
172.90243530 240.46560669 487.99008179
174.05381775 242.79815674 498.98941040
180.25939941 246.34356689 484.39144897
182.08795166 246.84544373 494.71398926
206.83380127 314.90896606 468.86196899
209.55892944 320.49987793 478.29104614
217.72286987 316.79336548 473.06323242
220.65328979 321.71130371 482.46380615
193.98764038 238.51586914 415.20321655
195.19717407 249.85357666 416.49542236
200.82086182 244.87954712 421.31167603
203.22280884 253.58026123 423.13665771
201.82092285 260.99594116 418.45538330
204.96046448 271.07516479 424.28582764
210.20063782 262.78338623 426.87881470
213.85440063 271.54519653 432.30242920
203.46614075 304.41223145 454.97784424
206.97732544 311.64941406 462.70739746
214.18887329 306.06970215 459.16674805
218.20193481 312.47326660 466.34503174
151.87902832 323.05740356 527.04089355
154.48437500 321.32064819 538.67895508
163.52278137 323.66461182 531.46649170
165.77835083 321.10296631 543.19201660
177.08897400 209.89643860 406.41098022
177.85888672 221.39762878 405.57867432
185.03762817 216.80523682 409.68240356
186.35646057 224.90739441 410.10040283
165.11869812 247.39602661 481.59884644
166.71365356 250.08122253 492.70462036
172.66955566 252.63429260 480.86218262
174.74404907 253.66322327 491.31402588
190.28778076 318.74334717 480.16403198
191.81097412 321.89428711 490.81738281
200.54426575 320.27697754 484.92181396
202.70668030 323.05151367 495.44207764
199.14607239 294.65783691 436.06552124
202.89299011 301.00915527 444.84823608
209.17587280 294.06280518 442.53280640
213.28778076 299.95077515 450.83648682
129.97543335 305.77502441 533.51196289
135.02644348 307.98971558 543.47717285
139.05281067 314.59576416 534.36364746
144.44792175 315.65493774 544.38201904
158.34344482 326.11358643 505.69335938
160.44551086 325.96459961 517.33520508
169.23631287 325.92266846 511.85931396
171.27754211 325.11700439 523.64947510
171.70954895 322.60977173 489.80746460
173.83679199 324.72561646 501.14895630
181.74029541 323.04202271 496.05041504
183.98921204 324.81091309 507.31967163
121.12046051 282.50933838 532.93975830
126.52127075 286.17929077 540.96209717
126.72467804 295.41635132 531.20770264
132.53610229 298.18423462 538.81561279
186.72383118 312.96990967 460.53738403
189.04402161 317.19018555 470.79531860
197.12812805 313.28598022 465.93820190
200.16217041 317.18972778 475.62960815
175.97021484 234.48046875 407.68713379
177.10322571 246.12234497 408.09616089
183.78485107 239.98251343 411.03372192
185.74194336 248.85263062 412.26605225
188.03457642 278.42214966 416.10382080
191.90316772 286.58325195 422.97790527
198.28680420 279.50857544 421.71279907
202.23143005 286.78948975 428.67242432
180.67286682 258.89770508 408.24642944
183.29533386 269.21264648 412.66439819
189.55065918 261.88989258 413.85632324
192.78904724 270.44094849 418.28857422
183.03916931 305.55831909 439.16738892
186.03613281 310.55419922 449.01470947
193.47769165 304.23709106 445.67745972
196.67901611 308.97918701 454.90310669
112.67231750 261.69885254 524.49542236
117.42867279 265.98089600 532.71923828
115.23394012 275.16000366 518.81707764
120.78872681 278.38223267 526.84698486
169.38174438 318.90396118 467.92858887
171.56506348 321.09063721 479.09899902
179.59309387 318.11645508 473.77801514
182.03781128 320.10968018 484.70129395
152.26184082 206.17660522 400.56579590
153.30763245 218.28231812 399.85244751
161.46540833 212.76174927 400.17514038
162.75382996 221.94084167 400.57199097
122.79145813 307.37805176 511.37646484
127.71701050 310.47482300 521.17431641
130.43927002 315.32196045 510.94302368
135.37243652 317.42306519 521.28082275
134.14437866 319.75039673 496.97525024
137.87608337 321.29760742 508.11526489
143.83769226 323.11141968 500.32009888
147.30230713 324.04837036 511.89355469
115.76432800 284.92840576 517.49774170
120.11482239 289.54217529 525.73681641
119.27076721 296.89343262 512.83312988
124.20582581 300.63085938 521.40673828
150.24888611 322.72265625 481.40493774
152.67364502 323.61849976 492.75784302
160.46974182 322.56060791 486.43124390
162.85076904 323.07553101 497.95904541
175.61138916 293.68356323 422.31018066
179.39253235 300.19836426 431.06250000
186.62593079 293.79287720 427.84027100
190.42607117 299.91226196 436.27319336
107.13748169 248.96293640 513.36871338
110.72851562 254.04818726 521.86633301
108.32038879 260.89755249 506.25320435
112.65663147 264.97906494 514.80780029
163.54084778 313.80780029 443.68862915
166.52165222 317.54235840 454.47503662
174.62191772 313.12249756 449.32516479
177.46488953 316.56808472 459.79980469
154.61221313 235.32072449 402.84631348
156.35212708 247.07664490 403.58486938
163.76136780 240.79234314 403.43493652
165.99031067 250.04652405 405.12399292
166.01217651 276.39184570 409.93450928
169.69351196 285.52438354 415.41708374
177.22537231 279.00671387 413.08166504
181.10916138 286.91925049 419.00241089
160.04486084 259.04312134 404.79510498
162.88024902 269.58239746 408.61236572
169.82467651 262.75296021 407.12432861
173.05926514 271.37670898 411.27996826
102.42675018 233.81369019 500.10339355
105.15756989 240.14028931 508.38806152
103.17408752 245.00500488 492.66470337
106.58547211 250.47235107 501.25732422
110.18292236 276.60098267 503.15643311
114.06481171 281.53506470 511.43539429
112.46035004 288.05749512 496.71768188
116.86122131 291.99072266 505.43957520
115.92686462 300.07385254 490.88818359
120.21557617 304.76367188 500.00167847
122.08427429 308.22924805 488.87023926
126.41291046 312.13204956 498.74035645
144.65702820 316.90646362 456.16125488
147.78991699 320.29598999 467.07312012
155.37310791 318.58032227 460.19091797
158.47462463 321.42947388 471.28912354
127.75503540 312.61016846 473.20010376
131.41735840 316.07666016 483.83822632
136.91036987 317.60128784 474.63064575
140.57363892 320.27557373 485.78964233
155.80178833 300.55422974 425.41979980
159.51733398 307.78381348 434.08843994
167.52539062 302.45394897 429.01654053
171.40063477 309.10562134 437.66998291
133.50990295 214.49928284 403.03903198
134.55926514 226.73808289 402.83728027
142.72322083 220.94946289 400.11526489
144.07484436 231.00967407 400.96264648
104.82239532 256.32751465 491.69515991
107.51708984 263.06472778 499.48937988
105.69828796 267.01315308 484.29449463
109.09352112 273.18768311 492.53350830
147.26808167 283.51403809 414.19900513
150.97602844 292.82904053 419.98190308
159.04302979 287.09747314 415.56109619
163.07984924 295.28897095 421.87249756
113.96405792 296.43908691 470.96926880
117.69766235 302.12127686 480.01052856
120.47411346 304.70474243 468.84106445
124.53375244 309.48678589 478.76821899
107.19641113 278.57138062 481.72335815
110.23045349 285.12420654 489.33316040
109.65443420 288.75137329 475.43286133
113.17608643 294.52856445 483.91903687
137.06054688 303.89111328 436.56643677
140.77133179 310.95532227 445.42901611
147.99713135 308.16082764 438.53115845
152.20979309 314.55395508 447.72830200
135.77592468 241.65444946 404.98568726
137.82475281 253.50924683 406.05929565
145.44406128 247.45733643 403.15240479
147.84219360 257.16586304 405.21881104
100.11367798 225.33892822 468.83917236
101.40589905 233.54943848 476.05926514
100.56374359 234.80412292 460.74841309
102.42008972 242.60592651 468.53881836
102.50849152 242.60781860 479.11895752
104.39430237 250.23472595 486.70022583
102.97733307 252.69465637 471.26962280
105.56652069 259.83679199 479.42120361
121.67460632 301.25439453 451.98739624
125.16963959 307.89276123 461.07431030
130.61798096 308.16842651 452.20520020
134.68997192 313.96084595 462.02590942
137.64985657 264.35171509 407.86407471
140.70480347 275.34725952 410.60723877
148.82312012 269.44076538 407.13241577
152.40750122 278.73107910 410.93255615
114.89639282 215.20266724 413.94204712
115.36225891 227.12208557 413.92755127
122.83827209 222.06916809 408.02343750
123.73104095 232.71868896 408.95312500
103.90954590 263.33276367 468.87860107
105.85999298 271.72961426 475.26794434
105.41658020 273.26181030 461.84674072
107.92593384 281.34118652 469.03829956
129.21597290 287.70388794 423.65206909
132.69580078 297.22421265 429.59088135
140.06985474 293.26818848 422.87670898
144.33195496 301.68591309 429.59301758
108.63644409 283.51025391 457.36077881
111.36441040 291.61810303 464.02767944
113.10954285 292.83477783 452.47515869
116.65876007 300.09475708 460.44613647
101.32082367 227.96043396 446.89184570
101.50569916 238.18034363 450.76232910
103.33769226 236.49032593 438.84863281
104.07826233 246.21215820 443.64678955
102.95582581 246.94975281 457.03192139
103.99318695 256.41305542 462.44506836
104.29545593 256.28378296 449.38980103
105.82577515 265.38208008 455.64035034
105.75115967 221.07112122 428.51559448
105.61286163 232.30236816 429.36962891
110.61204529 228.23608398 420.86209106
111.34064484 238.91793823 422.51812744
117.20767975 240.95962524 414.55923462
118.81071472 252.87904358 414.63528442
126.13156128 247.67404175 409.38085938
128.59909058 258.33688354 410.42135620
115.66357422 286.10134888 437.42855835
118.59304810 295.37451172 443.24569702
123.81991577 293.97918701 434.19635010
127.92327118 302.27905273 441.30996704
121.39990997 270.25061035 419.15164185
124.12503052 281.25372314 422.09347534
131.29379272 276.96881104 416.01068115
135.03594971 286.70205688 420.05984497
106.46499634 269.33810425 447.82238770
108.22962189 279.19302368 452.13488770
109.89302063 278.29003906 441.09088135
112.68656921 287.47958374 446.75021362
114.01776123 252.78019714 420.47189331
115.75482178 264.48669434 421.34329224
122.47209167 259.95465088 414.96511841
125.32362366 270.60040283 416.87564087
105.10594177 252.91706848 440.13323975
105.85429382 263.61224365 442.63546753
108.66923523 261.22265625 433.06619263
110.41817474 271.55471802 436.75036621
109.05799103 265.15206909 434.35556030
110.81405640 276.04110718 436.76223755
114.85088348 273.18768311 428.01660156
117.97807312 283.43038940 431.75970459
111.04209900 197.07608032 522.89001465
111.03842163 197.07562256 522.90307617
111.05007172 197.06820679 522.89154053
111.04154968 197.07501221 522.90014648
182.80139160 197.08944702 402.70590210
182.80268860 197.08613586 402.71118164
182.80728149 197.07696533 402.70336914
182.80317688 197.07688904 402.70639038
100.03984070 227.60298157 433.85726929
100.04767609 227.60363770 433.85498047
100.04125977 227.60194397 433.84820557
100.04218292 227.60287476 433.85171509
189.08543396 232.53543091 484.30679321
189.09606934 232.52912903 484.31271362
189.09779358 232.52896118 484.30828857
189.10433960 232.52774048 484.30935669
140.79728699 158.52575684 461.47427368
140.79052734 158.52667236 461.47586060
140.80429077 158.52532959 461.47500610
140.79010010 158.52729797 461.47177124
126.18631744 175.12307739 404.34564209
126.18687439 175.12182617 404.35263062
126.20239258 175.12101746 404.34289551
126.19059753 175.12066650 404.35406494
102.19287109 232.67977905 483.98013306
102.19616699 232.67997742 483.98754883
102.19770050 232.67631531 483.98455811
102.19367981 232.68338013 483.98995972
146.12156677 206.95768738 487.73214722
146.12413025 206.95735168 487.73675537
146.12307739 206.96862793 487.73739624
146.12528992 206.97373962 487.73678589
135.53591919 226.98413086 399.85095215
135.54208374 226.98251343 399.85531616
135.54121399 226.97776794 399.84063721
135.53952026 226.97811890 399.84893799
200.19282532 222.74114990 439.17849731
200.19451904 222.73529053 439.18157959
200.20953369 222.73199463 439.17974854
200.20706177 222.72850037 439.17785645
163.88844299 194.89120483 445.61871338
163.88633728 194.88809204 445.61834717
163.89855957 194.89212036 445.61413574
163.88989258 194.89076233 445.60833740
105.68540955 189.53131104 469.78567505
105.68318939 189.53041077 469.79211426
105.68995667 189.53201294 469.78643799
105.67897034 189.53428650 469.78976440
163.56317139 158.94158936 420.55007935
163.56282043 158.94195557 420.55249023
163.57841492 158.94564819 420.55480957
163.57217407 158.94514465 420.55502319
168.00221252 224.35740662 512.40344238
168.00587463 224.35758972 512.41339111
168.00550842 224.34848022 512.40466309
168.00709534 224.35539246 512.40930176
109.80804443 181.89741516 435.48498535
109.80580139 181.89828491 435.48608398
109.81238556 181.90090942 435.48098755
109.80058289 181.90147400 435.48422241
124.30809021 177.63296509 497.50753784
124.30294037 177.63659668 497.51156616
124.31091309 177.63146973 497.50482178
124.30085754 177.63937378 497.50341797
111.72608948 206.05825806 409.11630249
111.72841644 206.05990601 409.12182617
111.73667908 206.05447388 409.10281372
111.73028564 206.05627441 409.11242676
136.68847656 215.23088074 519.77655029
136.68759155 215.23242188 519.78717041
136.68658447 215.22679138 519.78314209
136.68389893 215.23635864 519.78863525
154.59057617 187.47018433 393.51724243
154.59017944 187.46716309 393.52410889
154.59582520 187.46588135 393.51672363
154.58654785 187.46408081 393.52487183
130.56042480 159.80473328 430.00540161
130.55947876 159.80502319 430.00552368
130.56327820 159.81060791 430.00625610
130.55369568 159.81027222 430.00631714
168.87690735 223.20959473 399.32479858
168.87828064 223.20971680 399.32513428
168.87393188 223.20396423 399.31945801
168.87133789 223.20674133 399.32083130
170.46612549 213.30747986 471.28686523
170.46449280 213.30108643 471.28842163
170.47546387 213.30123901 471.28375244
170.47286987 213.30366516 471.27966309
140.59220886 186.50071716 467.70605469
140.59747314 186.49464417 467.70715332
140.60275269 186.50045776 467.70080566
140.60116577 186.50198364 467.69812012
99.88909149 217.74775696 461.40829468
99.89213562 217.74690247 461.41458130
99.88932037 217.74264526 461.40524292
99.88530731 217.74542236 461.41040039
185.56269836 196.63482666 429.03283691
185.56057739 196.63259888 429.02929688
185.56825256 196.63128662 429.03796387
185.56385803 196.63085938 429.02972412
104.68187714 214.99929810 505.41174316
104.68273163 215.00115967 505.41943359
104.68350983 214.99713135 505.42047119
104.67967987 215.00552368 505.42459106
168.71087646 246.51484680 477.52160645
168.70823669 246.51335144 477.51550293
168.70361328 246.51614380 477.51998901
168.70213318 246.51939392 477.51028442
189.64071655 217.90165710 414.17034912
189.64018250 217.90097046 414.16754150
189.64231873 217.89688110 414.17822266
189.64018250 217.89791870 414.17153931
153.40130615 172.84457397 442.76721191
153.39274597 172.84454346 442.76818848
153.41305542 172.84707642 442.76489258
153.39735413 172.84780884 442.76022339
190.46052551 223.17202759 462.22857666
190.46835327 223.16195679 462.23141479
190.47656250 223.16744995 462.23596191
190.48081970 223.16204834 462.23312378
130.10014343 198.09028625 396.36575317
130.10311890 198.08853149 396.37164307
130.11206055 198.08763123 396.35949707
130.10534668 198.08602905 396.36975098
101.96221924 204.38624573 433.21636963
101.96379852 204.38641357 433.21740723
101.96602631 204.38946533 433.20941162
101.95921326 204.38984680 433.21289062
149.18209839 166.43945312 401.70663452
149.18205261 166.43618774 401.71417236
149.19406128 166.43217468 401.70843506
149.18359375 166.42959595 401.71701050
171.69184875 174.42477417 401.68084717
171.69270325 174.41943359 401.68945312
171.70462036 174.41621399 401.67990112
171.69670105 174.41336060 401.68688965
120.76057434 168.19390869 456.26248169
120.75758362 168.19479370 456.26406860
120.76727295 168.19497681 456.25588989
120.75471497 168.19705200 456.25393677
107.68560791 194.17602539 496.58343506
107.68431091 194.17626953 496.58999634
107.69113922 194.17543030 496.58215332
107.68394470 194.18153381 496.58493042
116.12940979 230.16995239 410.89685059
116.13778687 230.16937256 410.89923096
116.13758850 230.16363525 410.89715576
116.13838959 230.16206360 410.90423584
99.98591614 238.99623108 452.93902588
99.99774933 238.99528503 452.94232178
99.98411560 238.99124146 452.94091797
99.98798370 238.99307251 452.94586182
129.49905396 199.34921265 506.13821411
129.50129700 199.34896851 506.14825439
129.50354004 199.35194397 506.14733887
129.50224304 199.35748291 506.15246582
102.46187592 210.21792603 480.65396118
102.46219635 210.21777344 480.66210938
102.46219635 210.21792603 480.65386963
102.45589447 210.22337341 480.65914917
148.54930115 207.38549805 393.83361816
148.55255127 207.38311768 393.83898926
148.55432129 207.37861633 393.82525635
148.55004883 207.37643433 393.83370972
179.61912537 206.94334412 451.25628662
179.61642456 206.93920898 451.25625610
179.62971497 206.94853210 451.24972534
179.62245178 206.94740295 451.24298096
168.44744873 178.42572021 424.64324951
168.44477844 178.42440796 424.64160156
168.45800781 178.42288208 424.64324951
168.45051575 178.42196655 424.63949585
149.08877563 153.83538818 435.88043213
149.08403015 153.83483887 435.88293457
149.10195923 153.83496094 435.88375854
149.08874512 153.83331299 435.88305664
129.15472412 167.47058105 481.26089478
129.15364075 167.46388245 481.26513672
129.16259766 167.45437622 481.25625610
129.15110779 167.45477295 481.25561523
169.41723633 221.80049133 493.58822632
169.42263794 221.79431152 493.59402466
169.42376709 221.79415894 493.59179688
169.42602539 221.79438782 493.59182739
117.74888611 171.65896606 420.88208008
117.74832916 171.65866089 420.88250732
117.76417542 171.65426636 420.87802124
117.75054932 171.65690613 420.88128662
150.63615417 215.58267212 503.49243164
150.63621521 215.58277893 503.49853516
150.63635254 215.58120728 503.49127197
150.63517761 215.58816528 503.49203491
151.55747986 199.72982788 464.34515381
151.55953979 199.72543335 464.34094238
151.56550598 199.72602844 464.33795166
151.56527710 199.73054504 464.32962036
138.78726196 159.78350830 414.09716797
138.78372192 159.78114319 414.10009766
138.80068970 159.78027344 414.10165405
138.78540039 159.78027344 414.10494995
197.15985107 209.70571899 428.01742554
197.15539551 209.69857788 428.02127075
197.16458130 209.69209290 428.01226807
197.15808105 209.69152832 428.01177979
117.48744202 185.57481384 511.81527710
117.47956848 185.57702637 511.82147217
117.49276733 185.57182312 511.81317139
117.48045349 185.57838440 511.81423950
110.50981140 186.64230347 417.33203125
110.51094818 186.64355469 417.33441162
110.52022552 186.64056396 417.32559204
110.50990295 186.64320374 417.33178711
132.58520508 187.51904297 486.45349121
132.58700562 187.51388550 486.45574951
132.59796143 187.51318359 486.45169067
132.59260559 187.51696777 486.44918823
102.47786713 203.00888062 450.00305176
102.47794342 203.00915527 450.00772095
102.48020172 203.01046753 449.99853516
102.47196960 203.01170349 450.00354004
116.33880615 176.88435364 480.38671875
116.33426666 176.88641357 480.38995361
116.34776306 176.88304138 480.38403320
116.33561707 176.88821411 480.38305664
125.29185486 204.02246094 520.76898193
125.29022217 204.02258301 520.78247070
125.29777527 204.02062988 520.77282715
125.29380798 204.02880859 520.78094482
100.18707275 235.51121521 468.39648438
100.19393921 235.51031494 468.40115356
100.18602753 235.50286865 468.39971924
100.18541718 235.50671387 468.40429688
104.12309265 218.37817383 421.64862061
104.12922668 218.38003540 421.65301514
104.12911987 218.37783813 421.63796997
104.12615204 218.38177490 421.64678955
165.27581787 204.50885010 457.94232178
165.27400208 204.50354004 457.94073486
165.28398132 204.50527954 457.93399048
165.28053284 204.50743103 457.92614746
150.87367249 229.19985962 398.11669922
150.87762451 229.19972229 398.12005615
150.87123108 229.19227600 398.11196899
150.87040710 229.19477844 398.11853027
181.97560120 186.35696411 413.96820068
181.97229004 186.35272217 413.97329712
181.98416138 186.34756470 413.96356201
181.97761536 186.34701538 413.96429443
169.11091614 199.88322449 396.31152344
169.11325073 199.87918091 396.31686401
169.11398315 199.87637329 396.30541992
169.11051941 199.87318420 396.31106567
192.06002808 202.21101379 413.72277832
192.05912781 202.20613098 413.72692871
192.06372070 202.19937134 413.71755981
192.05995178 202.19851685 413.71774292
110.63798523 178.93978882 450.35913086
110.63530731 178.94047546 450.36212158
110.64562988 178.93963623 450.35192871
110.63311768 178.94082642 450.35415649
146.21237183 173.81393433 455.81561279
146.21359253 173.80694580 455.81143188
146.21791077 173.80514526 455.80706787
146.21043396 173.80546570 455.80004883
134.83953857 212.46722412 396.63482666
134.84533691 212.46578979 396.64141846
134.84893799 212.45834351 396.62454224
134.84690857 212.45735168 396.63525391
178.86363220 222.09611511 481.60546875
178.87112427 222.08990479 481.61169434
178.87522888 222.08937073 481.61267090
178.88119507 222.08818054 481.61325073
197.62841797 225.44161987 424.80279541
197.62849426 225.44023132 424.80035400
197.63807678 225.43533325 424.80725098
197.63752747 225.43583679 424.80123901
140.54922485 183.54547119 394.77667236
140.55110168 183.54304504 394.78466797
140.55978394 183.54071045 394.77304077
140.55218506 183.53869629 394.78390503
190.94595337 212.46981812 444.20303345
190.94497681 212.46315002 444.20178223
190.95606995 212.46694946 444.20358276
190.95144653 212.46304321 444.19644165
195.14433289 232.61819458 452.38107300
195.14816284 232.60949707 452.38577271
195.16545105 232.61886597 452.38153076
195.16477966 232.61419678 452.38095093
155.24693298 217.93029785 516.91381836
155.24343872 217.93260193 516.92480469
155.24972534 217.92456055 516.91241455
155.24548340 217.93444824 516.91723633
151.01036072 190.39605713 453.47637939
151.01152039 190.39187622 453.47161865
151.01704407 190.38806152 453.47366333
151.01296997 190.39201355 453.46463013
104.70314026 226.88156128 496.73434448
104.70420074 226.88162231 496.74761963
104.70942688 226.87753296 496.74133301
104.70610809 226.88536072 496.75012207
152.21705627 159.31225586 448.46362305
152.21144104 159.31210327 448.46542358
152.23165894 159.30911255 448.46389771
152.21853638 159.30844116 448.46133423
117.79658508 188.47784424 405.46511841
117.80068970 188.47613525 405.47213745
117.81034088 188.47235107 405.45138550
117.80290222 188.47180176 405.46319580
98.72886658 225.78677368 448.36294556
98.73463440 225.78697205 448.36511230
98.72540283 225.78448486 448.35446167
98.72322083 225.78601074 448.35916138
137.24716187 155.97326660 442.92456055
137.24182129 155.97497559 442.92532349
137.25404358 155.97576904 442.92291260
137.24040222 155.97604370 442.92150879
119.87300110 216.55445862 405.01998901
119.87733459 216.55426025 405.02536011
119.87844849 216.54804993 405.00939941
119.87399292 216.54969788 405.01953125
149.82742310 155.55683899 421.32077026
149.82855225 155.55688477 421.32043457
149.83564758 155.56129456 421.32363892
149.82791138 155.56054688 421.32122803
121.35473633 166.58288574 437.76745605
121.35258484 166.58441162 437.76803589
121.35575867 166.58718872 437.76232910
121.34484100 166.58752441 437.76208496
177.20828247 229.76121521 504.05752563
177.21650696 229.75299072 504.07003784
177.21969604 229.75054932 504.06011963
177.22511292 229.74954224 504.06652832
156.42430115 210.26628113 479.65213013
156.42506409 210.26132202 479.65560913
156.42950439 210.26654053 479.64648438
156.42988586 210.26998901 479.64352417
180.82414246 213.50924683 405.03656006
180.82350159 213.50569153 405.04104614
180.82240295 213.50503540 405.03460693
180.81846619 213.50465393 405.03771973
102.10480499 204.12011719 463.30093384
102.10548401 204.12005615 463.30642700
102.10539246 204.11901855 463.29867554
102.09745026 204.12220764 463.30313110
129.21368408 162.75469971 468.81622314
129.20822144 162.75688171 468.81680298
129.22088623 162.75741577 468.81329346
129.20719910 162.76190186 468.80899048
171.70925903 189.06233215 431.69213867
171.70524597 189.06221008 431.68988037
171.71749878 189.06173706 431.68417358
171.70837402 189.06065369 431.67642212
105.15542603 191.99345398 456.45010376
105.15441132 191.99349976 456.45361328
105.15849304 191.99665833 456.44384766
105.14875031 191.99865723 456.44619751
175.84230042 198.71276855 441.97827148
175.83918762 198.70980835 441.97778320
175.85371399 198.71209717 441.97213745
175.84446716 198.71163940 441.96600342
170.83039856 170.13813782 413.80847168
170.82768250 170.13372803 413.81344604
170.84077454 170.12950134 413.80551147
170.83061218 170.12805176 413.80700684
194.72102356 234.77009583 465.42028809
194.72940063 234.75926208 465.42620850
194.73771667 234.76745605 465.41827393
194.74327087 234.76110840 465.41854858
106.24079895 193.32691956 427.20587158
106.24283600 193.32720947 427.20733643
106.24859619 193.33282471 427.20373535
106.24136353 193.33227539 427.20819092
106.15987396 202.96459961 508.59506226
106.15869141 202.96528625 508.60635376
106.16554260 202.96395874 508.59872437
106.16000366 202.97061157 508.60446167
138.03213501 171.83895874 399.93386841
138.03334045 171.83702087 399.94210815
138.04608154 171.83433533 399.93750000
138.03608704 171.83303833 399.94729614
162.89285278 168.15150452 428.99017334
162.89004517 168.15036011 428.98995972
162.90484619 168.14846802 428.98492432
162.89614868 168.14707947 428.98083496
180.25422668 241.91810608 477.66244507
180.25965881 241.91279602 477.66638184
180.25984192 241.91474915 477.66448975
180.26457214 241.91357422 477.66314697
159.28860474 162.04260254 407.47372437
159.28532410 162.03877258 407.47964478
159.30299377 162.03463745 407.47613525
159.28994751 162.03201294 407.48089600
159.66757202 180.54373169 435.30377197
159.66191101 180.54202271 435.30200195
159.67596436 180.54199219 435.29754639
159.66354370 180.54010010 435.29199219
163.26383972 210.75271606 395.71493530
163.26545715 210.75057983 395.71942139
163.26467896 210.74391174 395.70840454
163.26094055 210.74330139 395.71423340
109.94473267 186.76495361 486.98703003
109.94297028 186.76670837 486.99163818
109.94667053 186.76687622 486.98706055
109.93786621 186.77236938 486.98892212
103.88441467 209.33206177 494.58065796
103.88645172 209.33488464 494.58694458
103.88454437 209.33522034 494.58206177
103.88038635 209.34240723 494.58569336
104.35491943 203.73120117 421.41027832
104.35769653 203.73287964 421.41448975
104.36364746 203.73132324 421.39916992
104.35581970 203.73576355 421.40747070
177.00393677 186.79888916 400.34912109
177.00575256 186.79519653 400.35632324
177.01190186 186.78872681 400.34564209
177.00820923 186.78669739 400.35153198
138.33050537 204.73109436 496.58230591
138.33360291 204.73130798 496.58905029
138.33261108 204.73818970 496.58657837
138.33319092 204.74432373 496.58770752
139.52590942 168.83494568 467.46493530
139.52713013 168.82742310 467.46420288
139.53318787 168.82440186 467.46124268
139.52514648 168.82492065 467.45764160
161.35881042 221.01268005 503.26113892
161.36062622 221.01243591 503.26879883
161.36204529 221.00181580 503.26580811
161.36227417 221.00891113 503.26852417
180.89811707 213.18267822 461.09094238
180.90017700 213.17597961 461.09240723
180.90650940 213.18075562 461.09680176
180.90811157 213.17918396 461.09210205
159.39218140 159.99716187 436.61428833
159.38763428 159.99624634 436.61721802
159.40603638 159.99810791 436.61636353
159.39349365 159.99670410 436.61437988
104.03788757 198.63858032 480.74093628
104.03687286 198.64030457 480.74725342
104.04284668 198.64022827 480.73837280
104.03415680 198.64543152 480.74121094
113.16981506 178.05886841 469.24218750
113.16667938 178.05957031 469.24514771
113.17742920 178.05924988 469.23513794
113.16532135 178.06275940 469.23577881
135.63647461 208.85153198 508.79312134
135.63682556 208.85371399 508.79968262
135.63681030 208.85351562 508.79815674
135.63577271 208.86082458 508.79751587
126.23922729 164.74713135 417.17190552
126.23847198 164.74740601 417.17294312
126.25406647 164.74383545 417.17248535
126.24037933 164.74539185 417.17559814
160.61892700 215.34996033 489.07998657
160.62004089 215.34791565 489.08782959
160.62376404 215.35176086 489.08374023
160.62475586 215.35542297 489.08560181
131.69334412 159.04360962 452.53314209
131.68731689 159.04492188 452.53295898
131.70275879 159.04493713 452.52624512
131.68780518 159.04598999 452.52316284
159.19508362 177.42796326 396.37951660
159.19679260 177.42472839 396.38732910
159.20492554 177.42214966 396.37963867
159.19726562 177.41928101 396.38766479
110.06546021 235.10842896 418.88018799
110.07970428 235.10713196 418.88110352
110.07838440 235.10473633 418.87994385
110.08332825 235.10240173 418.88677979
121.46271515 193.75184631 519.21545410
121.45726013 193.75286865 519.22973633
121.46626282 193.74880981 519.22204590
121.45886230 193.75627136 519.23010254
138.49383545 198.97357178 486.99157715
138.50073242 198.97071838 486.99688721
138.49896240 198.98124695 487.00091553
138.50331116 198.98466492 487.00192261
154.76969910 183.51202393 444.63305664
154.76431274 183.50979614 444.63198853
154.77856445 183.51477051 444.62857056
154.76562500 183.51473999 444.62234497
142.32292175 195.57723999 473.48242188
142.32728577 195.57179260 473.48272705
142.32939148 195.57501221 473.47677612
142.32891846 195.57820129 473.47363281
99.78424835 210.88653564 441.68838501
99.78710175 210.88681030 441.69055176
99.78562927 210.88668823 441.68200684
99.77960205 210.88775635 441.68679810
140.05157471 156.23358154 426.14141846
140.04972839 156.23388672 426.14358521
140.05920410 156.23849487 426.14501953
140.04939270 156.23669434 426.14492798
101.52671814 219.66564941 475.43707275
101.52939606 219.66589355 475.44216919
101.52640533 219.66592407 475.43652344
101.52227783 219.67243958 475.43884277
166.04533386 189.64935303 395.06359863
166.04815674 189.64602661 395.07000732
166.05131531 189.64340210 395.05587769
166.04716492 189.64077759 395.06338501
188.11068726 203.64366150 436.35964966
188.10487366 203.64202881 436.35897827
188.12095642 203.64328003 436.35787964
188.11270142 203.64366150 436.35098267
131.88949585 165.14181519 408.59991455
131.88768005 165.13938904 408.60559082
131.90396118 165.13706970 408.59796143
131.88961792 165.13584900 408.60470581
184.32275391 225.74954224 410.35061646
184.32395935 225.74868774 410.34738159
184.32728577 225.74682617 410.36056519
184.32716370 225.74676514 410.35607910
110.21252441 215.40449524 412.72302246
110.21705627 215.40571594 412.72967529
110.21880341 215.40188599 412.71057129
110.21446228 215.40533447 412.72128296
135.90733337 182.39462280 475.54672241
135.90994263 182.38858032 475.54791260
135.91635132 182.39202881 475.54364014
135.91148376 182.39495850 475.54104614
130.94250488 192.54391479 494.84994507
130.94799805 192.54254150 494.85671997
130.94964600 192.55410767 494.85708618
130.94976807 192.55950928 494.85852051
151.90890503 219.41931152 396.93795776
151.91334534 219.41624451 396.94226074
151.91189575 219.40733337 396.92730713
151.91023254 219.40594482 396.93472290
129.11341858 161.60037231 441.35693359
129.11111450 161.60076904 441.35916138
129.12191772 161.60169983 441.35513306
129.10935974 161.60145569 441.35531616
117.42457581 178.13098145 490.45977783
117.41899872 178.13299561 490.46371460
117.42962646 178.12951660 490.45800781
117.41677094 178.13534546 490.45690918
115.11442566 172.75012207 433.64035034
115.11172485 172.75091553 433.64099121
115.12290955 172.75306702 433.63726807
115.11059570 172.75360107 433.63876343
143.58110046 192.49766541 392.98062134
143.58151245 192.49594116 392.98614502
143.58827209 192.49476624 392.97546387
143.58024597 192.49256897 392.98400879
197.51269531 231.48571777 442.06869507
197.51324463 231.48046875 442.07232666
197.52841187 231.48477173 442.06774902
197.52513123 231.48220825 442.06689453
104.25926971 195.44329834 444.58160400
104.25908661 195.44288635 444.58312988
104.26187897 195.44572449 444.57510376
104.25260925 195.44726562 444.57836914
146.73262024 203.25051880 479.12014771
146.73510742 203.24488831 479.12258911
146.74053955 203.25128174 479.11776733
146.74002075 203.25476074 479.11471558
176.71415710 179.45904541 407.72766113
176.71531677 179.45478821 407.73318481
176.72428894 179.45071411 407.72430420
176.71818542 179.44876099 407.72686768
191.00415039 231.92640686 473.48669434
191.01361084 231.91867065 473.49316406
191.01622009 231.92289734 473.48434448
191.02255249 231.91929626 473.48590088
170.92703247 217.31787109 480.72940063
170.92810059 217.31430054 480.73385620
170.93389893 217.32241821 480.73208618
170.93670654 217.32460022 480.72991943
123.39756012 183.35739136 504.76589966
123.39863586 183.35581970 504.77520752
123.39793396 183.36384583 504.77072144
123.39389038 183.36773682 504.77618408
100.26153564 213.51719666 432.73565674
100.26470947 213.51876831 432.73513794
100.26214600 213.51640320 432.73269653
100.25780487 213.51745605 432.73565674
160.08883667 225.07934570 397.00891113
160.09352112 225.07698059 397.01211548
160.08702087 225.06900024 397.00067139
160.08813477 225.06808472 397.00564575
131.15689087 180.43577576 398.59637451
131.15899658 180.43434143 398.60510254
131.17373657 180.43284607 398.59240723
131.16372681 180.43194580 398.60476685
122.35337830 201.01867676 400.40228271
122.35715485 201.01712036 400.40899658
122.36103058 201.01217651 400.39297485
122.35499573 201.01202393 400.40499878
177.28950500 226.41656494 494.51727295
177.29804993 226.40989685 494.52496338
177.29748535 226.40812683 494.52233887
177.30236816 226.40745544 494.52355957
103.29915619 218.75028992 492.78060913
103.29974365 218.75082397 492.78839111
103.30200195 218.74862671 492.78973389
103.29752350 218.75479126 492.79428101
111.60591888 187.97305298 502.02874756
111.60321808 187.97593689 502.03323364
111.60667419 187.97378540 502.02520752
111.59809875 187.98229980 502.02566528
196.55114746 223.05778503 447.54577637
196.54978943 223.05056763 447.54650879
196.56375122 223.05564880 447.54278564
196.55963135 223.05151367 447.53930664
186.70268250 204.40950012 406.69995117
186.70153809 204.40626526 406.70236206
186.70370483 204.40562439 406.69427490
186.69848633 204.40536499 406.69476318
184.44581604 191.59436035 420.93328857
184.44215393 191.59347534 420.93377686
184.45870972 191.59384155 420.94055176
184.45263672 191.59307861 420.93640137
116.81222534 171.39727783 443.93612671
116.80860901 171.39797974 443.93807983
116.81919861 171.40023804 443.92770386
116.80586243 171.40100098 443.92889404
122.46164703 225.15783691 405.33142090
122.46733093 225.15742493 405.33593750
122.46986389 225.15139771 405.32150269
122.46794128 225.15315247 405.33044434
119.47924042 172.85763550 472.91256714
119.47521210 172.85971069 472.91363525
119.48983765 172.85900879 472.90774536
119.47625732 172.86358643 472.90539551
122.67710876 168.55139160 465.00848389
122.67156982 168.55328369 465.01065063
122.69070435 168.55448914 465.00286865
122.67560577 168.55801392 465.00131226
115.01448822 178.42311096 415.71310425
115.01391602 178.42288208 415.71572876
115.02470398 178.42333984 415.70700073
115.01191711 178.42610168 415.71359253
163.48269653 170.86856079 400.62158203
163.48323059 170.86621094 400.62796021
163.49176025 170.86093140 400.62194824
163.48410034 170.85824585 400.62762451
125.12466431 164.57351685 449.44982910
125.12059784 164.57568359 449.44967651
125.13111115 164.57597351 449.44357300
125.11839294 164.57775879 449.44207764
173.44413757 240.54953003 483.13388062
173.44194031 240.54556274 483.13705444
173.44441223 240.54452515 483.13836670
173.44232178 240.54602051 483.13534546
135.17640686 190.56790161 394.96575928
135.17895508 190.56585693 394.97308350
135.18579102 190.56286621 394.96060181
135.17863464 190.56013489 394.97149658
119.59803772 179.93276978 407.64739990
119.59901428 179.93325806 407.65164185
119.61071777 179.93211365 407.64041138
119.59970093 179.93333435 407.64956665
146.59861755 157.18377686 455.03198242
146.59057617 157.18441772 455.03503418
146.61029053 157.18421936 455.03173828
146.59387207 157.18479919 455.02899170
141.04220581 220.64048767 397.33117676
141.04757690 220.63800049 397.33544922
141.04541016 220.63124084 397.31756592
141.04333496 220.62985229 397.32577515
178.26583862 218.31307983 473.76367188
178.27018738 218.30642700 473.76788330
178.27546692 218.31555176 473.76635742
178.27822876 218.31346130 473.76535034
109.69887543 185.21316528 476.22821045
109.69553375 185.21429443 476.23324585
109.70617676 185.21122742 476.22921753
109.69471741 185.21643066 476.23071289
126.51214600 171.45660400 488.47677612
126.50471497 171.45895386 488.48181152
126.51597595 171.45637512 488.47662354
126.50207520 171.46220398 488.47613525
161.17285156 187.41720581 440.40667725
161.16754150 187.41601562 440.40399170
161.18182373 187.41662598 440.40097046
161.17004395 187.41726685 440.39334106
127.37515259 214.61459351 400.33602905
127.38299561 214.61169434 400.34362793
127.38790894 214.60389709 400.32440186
127.38599396 214.60276794 400.33612061
152.77755737 205.47720337 473.50170898
152.77877808 205.47196960 473.50115967
152.78224182 205.47737122 473.49752808
152.78089905 205.48138428 473.49215698
191.28088379 225.61125183 417.43594360
191.28039551 225.61056519 417.43240356
191.28384399 225.60760498 417.44503784
191.28204346 225.60876465 417.43786621
189.92599487 218.17311096 455.36212158
189.92631531 218.16371155 455.36492920
189.93615723 218.17044067 455.36572266
189.93240356 218.16461182 455.36254883
183.72946167 189.23861694 406.18228149
183.72950745 189.23434448 406.18768311
183.73834229 189.23059082 406.17825317
183.73294067 189.22930908 406.18084717
161.00680542 197.62870789 395.20709229
161.00708008 197.62496948 395.21325684
161.00839233 197.62091064 395.20458984
161.00257874 197.61878967 395.21176147
128.98452759 183.10183716 492.72271729
128.98477173 183.09530640 492.72915649
128.99429321 183.08644104 492.72387695
128.98664856 183.08917236 492.72543335
162.69047546 210.01008606 471.94403076
162.69079590 210.00410461 471.94482422
162.69961548 210.00610352 471.94128418
162.70031738 210.00865173 471.93655396
111.23021698 179.61862183 458.77819824
111.22772217 179.61822510 458.78234863
111.23408508 179.61944580 458.77273560
111.22273254 179.62037659 458.77471924
157.61669922 195.45870972 452.28289795
157.60919189 195.45712280 452.28350830
157.62498474 195.46426392 452.27728271
157.61073303 195.46578979 452.27258301
167.33697510 164.98939514 408.17312622
167.33299255 164.98535156 408.18023682
167.34880066 164.98321533 408.17449951
167.33679199 164.98139954 408.17919922
106.74781799 186.03132629 448.23828125
106.74533081 186.03228760 448.24127197
106.75015259 186.03224182 448.23333740
106.73876190 186.03352356 448.23574829
176.08856201 223.01168823 403.49542236
176.08790588 223.00941467 403.49679565
176.08589172 223.00627136 403.49023438
176.08346558 223.00773621 403.49145508
158.55239868 204.13426208 463.45315552
158.55216980 204.13127136 463.45138550
158.56134033 204.13664246 463.44537354
158.55856323 204.14135742 463.43814087
148.93882751 182.25784302 450.39764404
148.93856812 182.25352478 450.39291382
148.94683838 182.24877930 450.39276123
148.93972778 182.25135803 450.38470459
133.11158752 175.76934814 479.59127808
133.11376953 175.76263428 479.59246826
133.12045288 175.75604248 479.59048462
133.11431885 175.75784302 479.58831787
178.16499329 189.18360901 425.68029785
178.16308594 189.18252563 425.67669678
178.17283630 189.17681885 425.67510986
178.16758728 189.17576599 425.66790771
158.63871765 154.50099182 430.56927490
158.63613892 154.50231934 430.57263184
158.65391541 154.50152588 430.57040405
158.64408875 154.50152588 430.56988525
168.76470947 200.36582947 449.30325317
168.76164246 200.36282349 449.30285645
168.77598572 200.36758423 449.29473877
168.76736450 200.36764526 449.28857422
170.45478821 182.41769409 398.10092163
170.45790100 182.41552734 398.10864258
170.46643066 182.41021729 398.10067749
170.46250916 182.40820312 398.10720825
99.83877563 234.22848511 438.57577515
99.84934235 234.22903442 438.57861328
99.83928680 234.22451782 438.57455444
99.84129333 234.22503662 438.58084106
152.00271606 159.61900330 410.13223267
152.00030518 159.61584473 410.13714600
152.01432800 159.61228943 410.13821411
152.00085449 159.61077881 410.14276123
113.21170807 194.33758545 408.63638306
113.21562958 194.33789062 408.64065552
113.22384644 194.33552551 408.62628174
113.21575928 194.33761597 408.63516235
153.16479492 212.29421997 489.77328491
153.16476440 212.29602051 489.77819824
153.16566467 212.30203247 489.77847290
153.16461182 212.30873108 489.77728271
137.77456665 155.56459045 433.87258911
137.77130127 155.56500244 433.87527466
137.78240967 155.56816101 433.87008667
137.77081299 155.56604004 433.86920166
116.55052185 172.91772461 461.27764893
116.54640198 172.91790771 461.27960205
116.55783081 172.91662598 461.27093506
116.54470825 172.91860962 461.27038574
102.12611389 217.77651978 483.43225098
102.12878418 217.77752686 483.43957520
102.12729645 217.77893066 483.43179321
102.12236023 217.78547668 483.43572998
193.89518738 203.30038452 421.37362671
193.89558411 203.29759216 421.37075806
193.90460205 203.29396057 421.37985229
193.90362549 203.29196167 421.37338257
99.26722717 218.81866455 453.55511475
99.27204895 218.81851196 453.56112671
99.26831818 218.81710815 453.55084229
99.26491547 218.81954956 453.55718994
201.46841431 226.29394531 432.19714355
201.47155762 226.28852844 432.19674683
201.48307800 226.28604126 432.19931030
201.48400879 226.28237915 432.19613647
176.44345093 200.99009705 400.05700684
176.44422913 200.98564148 400.06341553
176.44465637 200.98309326 400.05371094
176.44183350 200.97981262 400.05902100
156.34738159 216.75947571 498.13046265
156.34645081 216.75962830 498.13687134
156.34985352 216.76020813 498.13284302
156.34704590 216.76731873 498.13385010
194.02767944 224.97257996 455.39227295
194.03019714 224.96566772 455.39584351
194.04167175 224.96875000 455.39300537
194.04023743 224.96427917 455.39102173
104.10403442 201.80851746 492.16528320
104.10340118 201.80914307 492.17031860
104.10437775 201.81007385 492.16244507
104.09810638 201.81568909 492.16403198
174.58074951 177.47035217 415.07476807
174.57582092 177.46656799 415.08074951
174.58799744 177.46527100 415.07360840
174.57841492 177.46447754 415.07565308
184.76364136 220.10113525 466.67849731
184.77009583 220.09190369 466.68292236
184.77760315 220.09898376 466.67956543
184.78178406 220.09451294 466.67742920
134.48373413 167.56045532 475.49484253
134.48425293 167.55270386 475.49746704
134.49053955 167.54666138 475.49328613
134.48150635 167.54708862 475.49203491
155.09008789 202.77548218 394.99380493
155.09179688 202.77178955 395.00082397
155.09365845 202.76940918 394.98681641
155.08831787 202.76773071 394.99517822
137.19512939 200.47308350 394.17651367
137.19865417 200.47180176 394.18380737
137.20648193 200.46876526 394.16436768
137.20106506 200.46748352 394.17498779
100.66103363 229.23457336 472.98495483
100.66375732 229.23532104 472.98797607
100.66396332 229.23362732 472.98144531
100.65991211 229.24015808 472.98382568
100.35887146 225.41644287 462.52874756
100.36405945 225.41619873 462.53524780
100.36296082 225.41426086 462.52847290
100.35957336 225.41792297 462.53387451
120.16709900 197.83113098 525.66888428
120.16055298 197.83319092 525.68103027
120.16969299 197.82487488 525.67089844
120.15991211 197.83505249 525.67773438
187.87876892 195.97357178 408.37036133
187.87826538 195.96978760 408.37643433
187.88374329 195.96392822 408.37005615
187.87989807 195.96269226 408.37194824
172.84121704 192.74113464 397.85867310
172.84161377 192.73814392 397.86383057
172.84379578 192.73648071 397.85565186
172.83886719 192.73420715 397.86056519
126.71150208 199.58787537 513.27978516
126.71247101 199.58822632 513.29101562
126.71823883 199.59106445 513.28442383
126.71604156 199.59776306 513.28857422
111.91339111 224.51715088 413.88687134
111.92149353 224.51631165 413.88961792
111.92082977 224.51570129 413.88433838
111.92033386 224.51428223 413.89224243
99.21968079 221.78775024 441.86199951
99.22581482 221.78785706 441.86364746
99.22143555 221.78880310 441.85510254
99.21892548 221.78904724 441.85958862
113.33226013 178.01669312 423.16119385
113.32829285 178.01805115 423.16180420
113.34311676 178.02027893 423.15985107
113.33008575 178.02072144 423.16375732
148.56948853 216.06507874 520.12353516
148.56747437 216.06787109 520.13195801
148.56889343 216.05889893 520.12292480
148.56472778 216.06997681 520.12725830
164.05194092 214.01969910 480.77441406
164.05200195 214.01806641 480.77877808
164.05357361 214.02735901 480.77725220
164.05375671 214.03144836 480.77609253
102.38722992 204.66238403 470.89477539
102.38731384 204.66258240 470.90075684
102.38837433 204.66346741 470.89044189
102.38059235 204.66851807 470.89422607
108.47546387 186.06277466 427.62911987
108.47593689 186.06307983 427.62899780
108.48303223 186.06867981 427.62152100
108.47428894 186.06823730 427.62460327
194.98005676 218.92187500 421.91824341
194.98135376 218.91676331 421.91729736
194.98701477 218.91006470 421.92141724
194.98730469 218.90768433 421.91690063
142.59152222 165.89405823 461.07904053
142.58793640 165.89227295 461.08154297
142.59878540 165.89749146 461.07626343
142.58668518 165.89785767 461.07321167
125.15972137 167.07006836 474.81137085
125.15248108 167.07192993 474.81433105
125.16764832 167.06814575 474.80682373
125.15261841 167.07217407 474.80416870
123.88951111 183.09635925 402.26248169
123.89229584 183.09521484 402.26983643
123.90598297 183.09484863 402.25790405
123.89647675 183.09460449 402.26953125
132.09631348 160.21414185 418.81481934
132.09498596 160.21374512 418.81570435
132.10557556 160.21994019 418.81646729
132.09494019 160.21804810 418.81817627
102.43974304 225.10748291 481.63650513
102.44190216 225.10720825 481.64331055
102.44100189 225.10183716 481.63809204
102.43738556 225.10739136 481.64144897
121.41081238 171.52935791 481.87368774
121.40388489 171.53274536 481.87545776
121.41287231 171.52972412 481.87347412
121.40025330 171.53582764 481.87103271
116.99394226 204.99916077 403.94036865
116.99935913 204.99824524 403.94830322
117.00450897 204.99528503 403.92822266
116.99981689 204.99508667 403.94046021
107.33225250 198.78997803 416.74185181
107.33609772 198.79086304 416.74429321
107.34056854 198.78729248 416.73074341
107.33329010 198.78945923 416.73913574
145.37779236 178.05148315 396.04833984
145.37796021 178.04760742 396.05517578
145.38557434 178.04777527 396.04705811
145.37657166 178.04367065 396.05694580
181.72096252 202.94104004 443.59246826
181.71681213 202.93911743 443.59149170
181.73292542 202.93620300 443.58584595
181.72433472 202.93542480 443.57992554
127.42622375 192.60235596 503.87536621
127.42964172 192.60110474 503.88565063
127.43087769 192.60722351 503.88040161
127.42929077 192.61259460 503.88644409
193.89686584 208.96383667 416.13928223
193.89564514 208.95816040 416.14373779
193.90122986 208.95158386 416.13153076
193.89874268 208.94966125 416.13311768
105.66508484 201.24172974 501.42352295
105.66671753 201.24304199 501.43176270
105.66510010 201.24119568 501.42404175
105.66036987 201.24813843 501.42968750
106.86827850 191.10525513 481.94146729
106.86671448 191.10621643 481.94650269
106.87095642 191.10717773 481.93875122
106.86208344 191.11242676 481.94082642
137.94081116 190.67668152 476.72927856
137.94441223 190.67124939 476.73028564
137.95172119 190.67539978 476.72683716
137.94989014 190.67852783 476.72451782
162.68959045 175.66935730 430.76452637
162.68693542 175.66757202 430.76080322
162.69601440 175.66781616 430.75354004
162.68737793 175.66644287 430.74673462
159.16835022 217.88442993 396.01675415
159.17189026 217.88156128 396.02172852
159.17196655 217.87260437 396.00939941
159.16885376 217.87228394 396.01593018
133.63366699 159.76284790 462.22677612
133.62548828 159.76486206 462.22753906
133.63772583 159.76428223 462.21826172
133.62231445 159.76696777 462.21444702
148.62246704 199.87646484 393.24020386
148.62426758 199.87303162 393.24627686
148.62887573 199.86901855 393.23150635
148.62353516 199.86723328 393.24017334
104.10950470 208.55378723 502.08242798
104.11143494 208.55511475 502.09201050
104.10939026 208.55056763 502.08380127
104.10572815 208.55880737 502.08993530
156.44123840 166.72360229 402.01205444
156.43878174 166.72329712 402.01690674
156.45179749 166.72207642 402.01715088
156.44110107 166.72140503 402.02124023
143.66264343 185.58624268 461.18377686
143.66410828 185.58178711 461.17944336
143.66842651 185.57699585 461.18176270
143.66368103 185.58068848 461.17321777
172.74586487 184.27902222 424.79873657
172.74259949 184.27774048 424.79684448
172.75401306 184.27671814 424.79882812
172.74717712 184.27618408 424.79312134
141.39207458 211.41595459 505.19976807
141.39286804 211.41677856 505.20709229
141.39273071 211.41668701 505.20135498
141.39004517 211.42446899 505.20361328
99.02381134 215.79945374 446.93139648
99.02736664 215.79881287 446.93405151
99.02237701 215.79898071 446.92199707
99.01747894 215.80018616 446.92745972
125.82889557 168.85116577 409.88284302
125.82701111 168.84967041 409.88546753
125.84298706 168.84713745 409.87774658
125.82792664 168.84706116 409.88281250
195.82200623 216.45898438 440.68994141
195.82060242 216.45481873 440.68826294
195.83293152 216.45501709 440.69116211
195.82814026 216.45346069 440.68524170
157.82458496 172.43055725 437.09469604
157.82090759 172.42761230 437.09390259
157.83343506 172.42868042 437.08795166
157.82244873 172.42651367 437.08294678
107.22116089 224.75852966 419.32168579
107.22816467 224.75831604 419.32269287
107.22949982 224.75775146 419.31762695
107.22860718 224.75679016 419.32305908
152.19122314 172.10661316 398.55065918
152.19119263 172.10424805 398.55828857
152.20132446 172.10232544 398.55529785
152.19219971 172.10023499 398.56369019
102.86918640 200.40054321 457.24017334
102.87036896 200.39935303 457.24588013
102.87238312 200.40168762 457.23510742
102.86491394 200.40336609 457.23907471
114.59750366 212.42640686 407.62631226
114.60301971 212.42700195 407.63275146
114.60760498 212.42089844 407.60980225
114.60384369 212.42233276 407.62103271
153.82305908 165.81115723 443.82550049
153.81701660 165.81007385 443.82833862
153.83683777 165.81085205 443.82611084
153.82234192 165.80874634 443.82281494
165.71405029 185.73855591 433.64346313
165.70761108 185.73754883 433.64096069
165.72477722 185.73886108 433.63665771
165.71267700 185.73753357 433.62957764
