ply
format ascii 1.0
element vertex 512
property float x
property float y
property float z
end_header
222.56590271 282.44320679 558.47198486
218.93489075 282.15768433 561.55474854
224.50602722 282.12603760 554.00219727
225.93685913 282.56921387 562.30407715
215.70663452 281.53890991 553.80950928
224.66979980 282.70959473 567.24395752
231.28720093 282.53601074 561.38006592
215.32104492 281.08224487 565.37939453
219.73448181 281.61264038 547.96246338
233.34457397 282.11660767 553.73553467
217.38899231 281.96649170 569.67712402
209.69537354 280.89758301 558.09429932
232.11732483 283.09072876 567.30139160
228.65425110 283.26937866 570.29742432
224.76658630 281.22000122 544.33892822
209.58366394 280.48391724 565.81884766
235.21434021 281.47695923 548.66510010
209.75425720 280.30596924 548.84570312
232.09944153 280.84930420 545.16064453
217.70527649 282.53002930 574.40881348
239.36544800 281.93283081 557.09680176
213.02395630 281.68106079 572.54681396
216.22583008 279.72781372 542.83795166
237.97697449 282.76931763 566.71038818
227.32398987 284.26043701 576.77606201
221.92092896 283.73913574 577.72979736
236.76856995 283.50979614 571.72741699
241.20214844 280.45339966 550.39044189
206.02629089 280.21609497 570.53295898
233.96182251 284.45202637 575.83093262
201.84075928 279.86242676 557.30047607
238.99559021 279.67080688 545.71905518
215.64053345 282.78811646 578.45159912
230.64044189 279.53912354 538.75866699
223.71679688 279.00070190 537.10809326
208.88980103 281.60864258 576.10168457
244.88931274 280.99465942 556.81115723
243.98902893 282.77246094 567.83923340
199.92987061 279.02752686 565.69378662
201.09609985 278.78710938 548.32073975
205.48175049 278.38510132 541.80957031
246.76750183 281.50814819 563.18377686
230.65409851 284.99234009 581.64294434
242.93397522 283.46411133 572.74304199
217.90156555 278.19781494 534.11511230
212.29809570 277.94277954 535.92968750
244.58944702 278.33300781 546.60119629
239.83666992 277.66262817 540.37078857
226.15431213 284.98480225 583.56860352
201.05572510 277.72064209 543.31646729
222.14283752 277.75070190 532.14367676
214.20983887 283.04183960 584.31542969
195.39817810 278.66598511 557.39367676
200.79092407 279.82690430 575.42352295
195.24896240 278.43869019 562.13250732
237.68313599 276.71939087 535.75677490
249.70645142 279.09689331 552.98748779
244.45947266 276.40890503 541.94732666
241.13627625 284.93426514 579.45483398
226.39918518 277.05502319 530.55303955
235.95010376 285.59429932 583.83123779
223.77838135 285.29376221 587.65264893
215.15245056 276.47402954 530.52154541
207.58432007 276.93035889 533.55047607
196.04748535 278.13958740 571.98718262
205.65252686 281.11804199 583.40869141
249.10595703 276.46078491 545.44183350
249.67770386 282.75854492 571.95452881
246.91761780 284.18099976 576.64837646
251.95666504 281.48498535 566.52581787
235.53906250 276.02587891 531.47137451
228.68647766 286.08666992 588.35406494
253.57424927 279.23263550 558.33050537
196.65071106 277.08129883 541.73138428
218.28656006 284.47610474 589.79974365
191.47723389 277.63455200 554.53710938
199.52381897 279.28204346 580.18194580
210.30349731 275.79721069 528.18304443
248.90843201 274.48031616 539.49603271
189.58294678 276.86166382 560.77587891
246.81117249 285.00347900 581.67944336
245.79652405 274.04739380 535.51422119
190.75076294 276.81155396 548.52087402
233.00698853 286.72662354 590.80261230
237.39668274 286.57229614 589.11712646
226.07492065 286.21197510 592.45452881
212.05567932 282.75833130 591.26599121
256.50885010 280.01501465 563.97930908
196.55543518 276.33856201 536.41284180
256.69992065 277.11978149 554.08178711
190.29351807 275.73391724 570.29168701
218.79771423 274.05035400 524.61621094
238.48695374 273.96856689 528.22967529
242.90690613 286.01336670 587.80505371
254.47624207 274.31292725 543.13177490
197.72433472 277.54345703 584.67767334
227.30674744 273.39962769 523.46276855
204.42956543 274.81674194 527.43249512
192.32112122 275.90856934 578.55328369
199.18421936 275.02761841 530.47814941
204.17399597 279.80435181 590.81982422
186.14312744 275.69744873 553.51306152
204.83930969 249.34414673 558.75958252
220.47471619 284.88211060 596.05395508
189.46289062 275.49258423 541.59344482
234.78509521 272.62878418 523.76019287
242.90501404 272.91290283 527.15954590
232.38044739 286.82910156 595.54876709
237.62445068 287.09140015 593.95959473
188.04866028 273.65975952 574.00036621
253.04478455 284.43936157 582.68914795
191.85910034 274.66180420 535.27410889
209.22006226 272.45339966 522.91827393
259.30255127 280.88284302 572.61047363
261.81561279 277.44094849 559.61175537
251.94001770 272.46789551 532.98242188
201.30561829 248.69033813 553.85595703
260.56762695 274.51110840 548.19799805
228.26983643 286.49691772 598.05780029
222.27859497 271.42575073 519.64471436
198.17671204 275.90100098 590.27142334
248.00347900 272.07589722 528.44616699
261.90539551 279.44335938 568.49194336
250.30476379 285.72973633 589.09313965
263.89041138 275.88513184 555.80059814
181.78857422 272.95809937 562.28369141
240.01887512 270.71917725 522.02331543
214.69860840 270.29614258 518.83929443
192.74177551 271.77929688 586.43438721
242.19992065 286.76751709 595.99432373
184.79147339 273.47763062 540.90832520
186.38357544 270.73782349 578.01562500
196.09692383 250.02670288 549.60205078
183.27624512 272.09649658 572.17095947
258.20788574 272.63461304 536.48919678
209.42132568 281.39447021 599.53143311
236.66336060 287.12973022 599.09967041
215.74676514 283.74697876 601.24371338
245.10102844 270.63513184 523.12042236
180.54682922 273.06390381 550.40869141
263.08886719 273.44641113 544.45825195
203.25859070 270.05914307 521.11517334
189.61109924 267.78652954 583.53643799
231.37063599 268.90148926 517.54058838
197.82223511 246.09939575 560.27862549
193.69360352 249.05557251 557.47515869
191.26541138 272.21264648 528.94104004
185.86059570 272.81024170 535.58068848
181.28199768 272.83422852 544.46044922
199.87693787 245.73733521 546.79022217
207.62512207 268.88348389 518.42822266
198.23812866 274.29269409 595.32495117
266.84609985 277.47402954 564.50811768
249.32206726 286.69577026 594.39215088
266.33163452 274.17715454 550.12799072
220.41546631 284.88604736 603.68750000
260.58398438 283.11898804 583.26501465
253.21588135 270.81234741 527.06964111
263.10717773 281.29656982 579.04772949
178.37353516 271.77218628 556.29754639
196.73582458 270.46005249 522.89971924
204.76594543 279.00631714 600.29779053
240.47100830 248.42199707 583.31799316
239.37100220 244.25000000 577.47601318
190.41114807 264.08410645 585.54315186
224.58876038 267.48278809 515.15869141
191.78393555 249.30551147 550.58422852
225.71417236 285.38323975 604.34411621
265.95599365 279.56597900 573.72753906
202.61050415 241.33244324 552.30603027
240.23599243 241.39900208 569.93402100
233.13699341 246.00599670 585.20196533
198.05024719 243.02912903 554.44543457
217.95271301 266.78945923 514.70361328
240.42330933 268.20922852 517.71081543
232.37300110 242.12699890 580.09704590
235.82215881 267.43545532 516.12048340
236.11601257 250.61898804 590.09997559
204.71171570 241.98622131 542.66094971
267.99121094 278.17593384 569.79034424
257.97299194 271.05502319 529.70703125
240.53700256 252.46098328 590.11999512
193.96697998 247.73330688 544.10723877
246.15701294 245.35000610 576.03002930
190.96678162 258.72839355 584.68676758
258.38800049 284.62600708 589.60498047
234.30900574 239.38200378 575.13000488
242.58763123 286.97155762 601.46575928
227.20498657 243.46199036 585.53601074
227.61000061 247.59100342 590.70404053
193.60762024 247.18026733 572.91137695
182.37619019 267.23681641 579.73638916
238.11799622 255.85400391 595.28295898
180.46411133 271.73593140 537.87677002
245.77899170 252.37399292 588.00695801
248.11186218 269.14660645 519.80749512
232.42999268 253.77601624 596.01000977
211.58946228 265.67001343 514.42919922
193.82893372 251.18737793 581.95117188
249.33000183 249.88800049 582.55303955
254.91801453 286.08099365 594.53399658
185.56944275 270.92282104 529.14385986
229.14811707 265.66125488 513.28741455
193.09313965 243.79682922 562.34362793
195.25000000 267.72808838 596.21685791
270.63433838 274.52172852 554.63543701
245.50599670 239.54100037 563.37799072
225.59599304 250.21299744 595.21301270
212.01203918 281.67599487 606.38604736
250.70700073 243.70600891 569.50000000
176.40985107 269.32461548 569.42877197
236.18202209 286.53030396 605.61572266
195.40715027 242.76426697 569.49597168
240.24200439 236.32299805 560.24804688
186.68798828 252.33424377 574.64831543
245.04899597 257.27200317 594.77001953
194.89500427 262.85299683 594.62896729
193.83154297 254.33287048 587.64221191
233.76399231 257.76202393 600.09301758
267.08279419 272.06838989 539.03454590
220.95899963 247.64900208 593.94299316
245.09028625 267.84829712 516.60394287
230.32699585 234.97900391 571.30999756
219.97200012 243.99800110 590.08996582
235.61799622 234.59599304 563.46295166
196.40498352 244.15194702 539.98956299
240.19999695 260.02999878 599.58203125
227.28199768 255.10600281 600.14202881
226.20600891 236.33599854 577.65002441
191.77470398 243.09056091 555.17974854
207.99833679 235.80918884 547.23052979
222.77600098 239.59100342 584.52301025
254.33700562 247.66899109 575.74700928
253.74322510 268.77438354 521.49017334
229.59283447 285.76867676 608.21435547
220.50799561 250.59899902 597.57397461
206.89569092 278.64764404 606.36297607
175.09265137 270.77627563 545.39233398
265.26498413 281.95599365 585.66998291
251.38598633 255.27400208 590.01898193
249.66600037 239.75299072 561.23400879
211.01087952 237.21408081 538.77899170
206.63771057 264.23864746 603.13024902
223.44094849 284.62866211 609.22094727
252.77998352 241.93899536 564.28900146
231.22900391 260.08099365 603.39495850
202.99401855 266.70242310 514.12878418
270.23751831 272.43264771 543.42071533
209.76280212 267.05712891 605.37994385
265.29055786 271.14129639 532.93786621
250.95098877 286.51199341 600.73297119
230.54400635 232.34899902 565.02801514
255.93298340 250.92500305 581.04803467
196.79039001 238.33407593 561.19152832
176.30325317 267.86566162 574.80676270
189.17735291 245.75669861 545.79571533
245.16799927 262.53100586 599.99597168
195.92370605 246.81599426 584.02075195
235.63000488 264.10101318 604.57995605
244.38899231 236.01800537 557.00805664
200.38595581 272.89932251 603.80688477
173.12181091 269.61251831 553.03027344
180.04486084 270.34335327 531.97271729
257.03799438 245.39799500 568.32098389
214.71838379 263.90542603 605.94372559
220.06799316 254.69198608 601.96301270
270.53125000 279.27069092 577.48156738
225.99198914 231.97999573 569.63494873
198.47000122 267.54901123 601.84399414
197.74267578 267.66064453 515.43957520
198.54768372 239.33120728 574.32196045
220.99842834 262.91348267 510.47897339
193.78657532 268.51132202 517.62145996
197.03457642 249.83309937 589.92224121
263.66900635 282.89700317 590.35998535
201.34500122 235.53599548 550.95397949
213.21398926 244.90800476 593.26898193
224.71499634 259.48699951 605.13903809
191.54570007 243.60952759 542.88104248
256.73800659 254.31201172 586.00598145
205.54817200 238.87786865 535.42193604
272.91171265 273.14941406 548.56903076
257.98602295 268.92700195 522.66003418
223.45899963 232.99699402 575.19799805
218.63000488 233.99000549 577.54394531
213.17599487 241.26699829 589.19000244
191.80825806 241.31665039 548.94342041
200.05847168 236.44670105 569.23718262
202.00312805 265.26144409 603.48797607
254.64299011 241.00799561 559.66302490
208.04617310 258.73565674 603.04107666
242.25000000 267.10998535 604.71496582
172.14120483 267.72351074 560.37341309
235.08412170 263.47900391 511.00302124
260.08700562 251.39001465 578.54595947
197.44157410 241.22796631 579.58575439
260.62597656 249.30999756 573.75903320
273.64950562 277.45700073 570.80181885
194.66230774 238.29080200 566.32171631
239.52299500 232.44500732 555.86602783
254.42498779 261.44400024 595.05596924
274.84481812 274.55599976 558.40179443
249.70401001 264.28298950 600.05804443
231.23899841 230.27400208 559.59997559
219.93699646 260.45599365 606.55499268
215.52600098 254.32398987 602.79400635
216.67301941 262.16134644 509.84512329
195.04888916 238.99398804 545.57263184
247.10699463 286.63900757 605.29101562
241.54779053 285.75576782 607.89038086
212.85299683 249.21199036 598.70599365
213.39300537 235.92599487 582.35101318
232.23200989 268.47399902 608.82098389
248.78199768 236.35299683 554.91003418
262.50201416 269.39300537 525.92199707
215.85800171 258.42898560 605.40899658
188.43388367 269.08404541 519.97045898
204.84051514 272.20181274 607.54205322
269.69000244 280.35501099 583.10699463
238.10299683 269.23498535 607.63104248
210.52900696 254.18600464 601.98498535
219.21693420 282.88778687 611.64630127
198.76000977 253.57299805 596.46997070
225.92500305 264.96499634 608.77801514
241.38067627 264.54678345 511.82723999
204.28399658 234.94499207 574.89599609
199.73400879 258.91302490 600.76000977
249.15003967 265.61883545 515.16174316
261.77902222 246.55599976 566.15698242
247.98899841 268.09799194 603.64801025
203.35600281 236.78800964 579.53100586
198.36378479 239.63345337 536.51971436
177.49174500 262.84719849 580.52349854
219.17199707 229.93899536 570.07995605
259.62899780 258.34500122 589.29504395
256.88299561 284.84500122 599.96997070
254.61900330 265.69500732 598.45397949
258.77401733 262.56701660 593.24798584
200.13539124 242.39669800 587.01635742
210.18521118 270.41635132 609.82318115
262.03298950 254.29100037 582.70397949
210.19628906 275.82452393 610.82476807
207.64199829 235.87300110 581.89202881
225.00100708 228.38899231 562.61401367
203.14300537 232.01100159 563.88702393
205.04899597 239.62600708 587.07800293
171.13526917 266.76565552 566.70367432
260.84201050 283.85098267 597.15496826
215.01899719 230.81498718 574.09100342
262.08801270 245.02299500 561.34497070
201.02099609 245.68901062 592.64703369
245.55200195 233.19700623 551.99804688
217.49263000 269.17547607 611.32861328
174.09837341 269.65875244 536.49218750
256.20098877 266.73001099 518.19702148
179.03642273 256.52987671 579.33459473
204.95500183 251.55601501 600.23101807
184.30903625 244.74014282 569.83972168
226.62300110 269.20800781 611.64599609
207.14299011 245.49600220 596.15802002
235.12457275 285.06011963 611.94610596
243.44400024 271.54400635 608.21301270
188.65498352 241.14149475 571.73663330
260.02499390 242.10800171 556.76800537
205.13699341 242.92300415 592.79602051
208.88600159 231.53799438 574.95300293
208.88319397 232.46540833 539.30792236
179.46208191 268.99078369 526.60473633
206.13600159 230.70100403 568.88903809
229.77583313 284.70800781 613.26647949
206.43884277 263.86270142 508.90148926
253.44801331 269.76800537 602.68499756
266.44799805 253.22100830 575.55798340
196.73080444 233.42692566 560.47296143
255.82298279 238.48199463 552.34600830
264.72299194 257.78298950 585.07403564
258.62698364 269.07598877 598.64801025
263.86099243 262.81600952 590.35400391
266.44998169 248.94499207 567.47503662
262.77600098 266.35198975 593.92901611
199.17648315 231.54013062 557.99468994
267.64999390 257.39999390 580.70800781
228.15609741 259.85864258 507.34143066
171.33456421 265.28244019 574.06079102
197.56159973 266.48574829 510.65408325
216.76110840 277.89968872 614.30993652
212.74995422 261.51565552 507.08871460
248.33300781 272.92401123 607.70001221
206.55255127 234.63093567 533.09063721
169.54583740 268.25741577 545.15820312
234.40399170 272.90100098 612.91198730
204.48899841 228.85299683 560.19995117
226.77099609 226.00799561 557.92498779
170.85223389 268.43417358 540.17431641
254.65499878 283.68600464 605.12298584
258.30200195 272.86401367 601.45098877
209.85699463 227.72399902 566.98297119
233.26901245 226.70799255 554.65899658
201.00184631 235.98185730 533.59259033
233.25596619 259.43164062 507.48037720
192.16349792 266.89309692 512.68298340
270.13299561 268.93298340 529.83300781
276.21398926 270.86956787 542.33013916
181.32424927 268.08621216 521.47601318
270.56100464 253.57499695 570.25897217
223.36785889 274.11495972 615.11004639
269.00299072 262.22000122 585.31701660
252.69201660 234.66700745 548.54199219
274.04721069 269.96228027 536.45971680
241.87243652 283.51040649 612.48010254
215.78900146 225.67399597 563.28198242
278.97720337 272.94931030 553.10614014
268.75299072 248.41999817 561.68798828
253.75598145 275.61599731 606.30297852
272.99301147 278.73098755 585.95196533
268.61398315 266.92001343 589.72100830
260.56399536 239.66099548 550.47296143
266.22000122 269.65600586 594.10400391
247.48252869 262.07519531 510.47427368
266.81701660 280.23498535 595.62805176
228.75451660 279.01452637 615.90673828
248.63099670 282.95001221 610.18597412
260.32299805 277.65597534 602.39501953
178.23118591 249.37521362 576.35626221
278.79675293 271.76550293 547.90869141
252.66998291 280.93499756 608.29400635
273.04800415 260.51199341 577.53601074
280.19100952 273.96200562 561.14300537
174.97152710 268.84118652 527.36486816
271.02499390 278.43200684 591.10998535
264.90200806 272.96398926 597.85400391
248.14001465 277.95300293 611.04998779
240.86799622 276.14999390 613.83496094
238.74899292 258.94201660 507.08001709
268.41598511 267.42800903 524.85900879
206.30070496 228.24235535 541.90722656
221.00537109 258.39352417 504.47906494
274.82000732 258.55899048 572.75201416
272.81799316 265.83798218 585.11102295
267.54598999 244.24099731 552.08203125
280.75997925 274.97698975 567.54699707
273.24600220 251.39299011 558.79998779
243.97799683 228.01600647 547.71203613
166.55902100 264.03469849 566.33428955
165.76254272 265.82366943 552.06274414
203.15882874 262.83645630 505.68795776
197.06082153 232.30520630 538.84716797
200.57299805 227.61199951 550.36004639
204.31298828 225.71099854 554.75201416
236.57501221 279.24401855 616.44104004
179.52619934 244.12060547 574.36639404
269.17898560 276.24700928 595.50500488
165.60984802 264.03350830 560.45410156
275.89398193 256.03298950 565.32104492
212.45899963 223.34300232 559.03704834
217.74198914 222.67599487 558.82501221
170.90594482 259.20913696 578.23779297
270.89599609 272.30001831 592.61199951
238.76098633 225.16700745 549.82299805
198.80967712 264.19995117 506.23779297
182.63943481 239.99366760 573.65795898
170.41120911 268.27896118 531.75433350
279.53198242 276.55999756 577.79199219
265.12799072 265.07101440 518.92199707
225.52874756 257.10482788 503.39663696
276.41699219 264.19601440 579.93298340
274.23300171 269.34100342 587.84399414
262.60302734 238.25299072 545.59497070
184.30883789 266.92666626 513.55224609
215.59152222 258.38610840 502.73675537
222.32000732 221.08699036 556.30200195
254.68098450 261.03698730 510.72103882
273.15399170 248.06599426 552.62200928
164.34114075 265.91912842 547.12292480
175.72602844 268.27282715 520.69726562
256.96200562 233.15800476 543.65405273
279.08200073 275.30398560 582.96099854
229.10700989 220.95500183 552.37194824
189.20639038 230.80314636 567.81689453
202.66201782 229.60977173 532.32928467
190.27777100 229.32626343 562.08477783
193.55139160 265.37692261 506.04916382
166.23321533 261.14190674 574.90087891
187.02357483 266.03604126 509.82815552
206.63999939 222.02900696 559.17102051
274.48098755 266.17700195 527.46704102
280.26898193 261.78500366 571.78302002
247.44099426 257.23202515 506.70700073
278.16702271 270.97500610 585.15197754
237.69299316 254.17500305 504.43899536
277.78399658 252.61399841 555.37402344
271.76800537 244.45599365 547.77996826
277.52200317 266.77398682 531.63897705
284.91558838 272.02618408 556.32360840
283.25500488 274.69198608 574.53002930
250.13598633 227.63600159 542.68200684
261.10101318 261.06799316 512.76599121
240.55899048 223.07299805 544.65002441
234.13899231 220.88800049 547.50195312
178.82379150 266.80032349 515.03521729
282.53460693 268.31112671 542.55859375
280.68701172 268.14498901 580.14001465
230.35569763 254.02328491 501.99478149
191.02780151 226.98960876 555.81146240
169.71041870 252.61660767 578.47875977
192.89230347 226.56697083 548.91027832
162.84617615 261.31851196 567.54675293
269.77600098 241.58999634 543.83703613
200.96699524 222.79100037 548.24603271
185.52873230 232.05046082 573.28082275
272.30798340 264.25299072 521.92401123
205.76583862 260.29241943 500.41180420
