ply
format ascii 1.0
element vertex 2048
property float x
property float y
property float z
end_header
83.30608368 151.22296143 486.61541748
75.90615082 158.58395386 491.39331055
82.77273560 143.27056885 477.11077881
74.69990540 151.50396729 481.19784546
93.34628296 137.85650635 472.73724365
84.50401306 142.66329956 477.89816284
99.65180206 131.49601746 462.33032227
90.05540466 135.97401428 466.95071411
241.42926025 274.11181641 424.54052734
239.23756409 284.91827393 426.29827881
248.94328308 268.23391724 427.61178589
246.33366394 277.25860596 427.75064087
74.94203186 186.28944397 512.25427246
72.01293182 196.79960632 516.41302490
73.89398193 193.18280029 506.59197998
71.53549957 204.44613647 510.70965576
238.58013916 238.08993530 429.83755493
244.01492310 247.77809143 432.74584961
245.33106995 236.55862427 424.64984131
249.66331482 242.37452698 427.22912598
188.13989258 309.04058838 415.11666870
187.69926453 316.28564453 422.62173462
200.15545654 309.34738159 416.86843872
195.23300171 314.77236938 419.59567261
110.34295654 129.78744507 456.99533081
103.79286194 133.99496460 465.82135010
123.56381989 128.52291870 446.04165649
117.32041931 130.97793579 455.66864014
81.69278717 162.37014771 498.10052490
74.73348236 171.33283997 503.90997314
90.32171631 160.28262329 487.05511475
84.25228882 170.80044556 493.90545654
71.88552094 173.19390869 502.12356567
67.65316772 182.37165833 507.75427246
69.05439758 169.21771240 491.02844238
64.45309448 179.36465454 496.50335693
219.88594055 300.00686646 422.14068604
216.98312378 305.99124146 426.94268799
228.95376587 296.34283447 426.23968506
224.84255981 302.53198242 427.50207520
71.63038635 156.30480957 478.52175903
66.74042511 165.83047485 483.45144653
71.65033722 152.05191040 465.97763062
65.79309845 162.58117676 470.60339355
98.33768463 131.91558838 458.82196045
88.95921326 137.51954651 461.37493896
107.75821686 129.18147278 447.75549316
96.30752563 133.92997742 448.81265259
82.52804565 143.60684204 473.27624512
75.11186218 151.61083984 477.58410645
86.81584167 138.73468018 460.78564453
78.14084625 147.53775024 464.47604370
69.73549652 205.40711975 518.30291748
75.17887115 214.38224792 520.96386719
68.00737762 217.94171143 514.23492432
74.26367188 227.41194153 517.48614502
123.09954071 127.94196320 442.98495483
114.59659576 128.47721863 448.62234497
136.24011230 130.43328857 433.09222412
126.99545288 127.87982941 436.93115234
79.71922302 143.61787415 454.77508545
72.70734406 152.39035034 458.53717041
84.69902802 139.00701904 442.36666870
76.72751617 148.00698853 445.76245117
175.23243713 317.38269043 428.69421387
173.59465027 318.11721802 439.78359985
186.57702637 318.35510254 428.83410645
180.83639526 319.57965088 434.92123413
150.14552307 135.39570618 427.92114258
153.08186340 136.22634888 436.89053345
158.84735107 142.03817749 422.68328857
162.19079590 142.48501587 432.56259155
66.48225403 193.06274414 507.52780151
66.77616882 203.54804993 512.48944092
62.31632996 197.13690186 498.35006714
62.79280090 208.13262939 503.35852051
135.59341431 133.42849731 445.79693604
133.06193542 138.16218567 455.82153320
150.02243042 137.48498535 439.37384033
147.82786560 141.30444336 449.57049561
104.92066956 131.77748108 432.15777588
95.39308167 137.60510254 432.67868042
113.12802887 131.75741577 422.74200439
102.65609741 136.56134033 422.04855347
65.30663300 179.27539062 488.47134399
63.73360443 189.42997742 493.38015747
63.48102570 177.72122192 476.87728882
61.07905579 188.64430237 481.66210938
110.18641663 138.02270508 468.86657715
104.08758545 145.97894287 477.52819824
123.76474762 143.58174133 460.45541382
118.47717285 150.45214844 470.28503418
227.69171143 249.25474548 420.39202881
226.89550781 260.83541870 419.75372314
236.39448547 247.74171448 422.13604736
233.48800659 255.20030212 421.22192383
223.04852295 229.06338501 426.88009644
227.69091797 230.87179565 431.00347900
232.33763123 229.35633850 423.39459229
233.95629883 229.56758118 426.79394531
96.08058167 152.13827515 483.15560913
89.23598480 161.04266357 490.15982056
108.50620270 156.29417419 472.87484741
102.45014954 165.96322632 481.87863159
141.36103821 133.28286743 420.98052979
130.75910950 132.77606201 420.71243286
150.65348816 142.10984802 412.74377441
140.31536865 140.49118042 412.39108276
67.17967987 165.20429993 467.42178345
63.99967957 175.17346191 472.33886719
68.62104797 161.39250183 454.97848511
64.09239197 172.02117920 459.83880615
64.03903198 212.43743896 508.22851562
68.27520752 220.13940430 513.27282715
61.69154358 223.42550659 499.37191772
67.54114532 230.74707031 504.58972168
83.79322052 178.67147827 506.66668701
77.91972351 188.21626282 512.80877686
91.27535248 183.83288574 494.33474731
86.05276489 195.06182861 502.49166870
79.72952271 149.21090698 441.29223633
73.20511627 158.24145508 443.85501099
86.77676392 145.14486694 430.23056030
79.30800629 153.98806763 432.56036377
163.88996887 147.54582214 426.44619751
166.87832642 150.17718506 435.23590088
169.42941284 155.15603638 421.66903687
172.85122681 157.51164246 431.43365479
157.78144836 311.11309814 428.91223145
154.09271240 312.86486816 438.74185181
168.01347351 313.38031006 429.98480225
161.37005615 314.21057129 434.73327637
89.57789612 146.58874512 423.90631104
82.67021179 154.64819336 424.29531860
97.95658875 144.39608765 414.78674316
90.35593414 151.78073120 414.73727417
110.71076965 138.69757080 418.51626587
101.46706390 144.55099487 415.30664062
120.61446381 140.34921265 411.82171631
111.51126099 144.83581543 408.28710938
180.09506226 311.61990356 446.88891602
176.19502258 310.27984619 456.81219482
190.24487305 311.22174072 446.73501587
184.14175415 311.30300903 452.18591309
172.19598389 301.80520630 415.39773560
168.61500549 307.40057373 422.17639160
182.94413757 303.90130615 415.63024902
176.24816895 306.87606812 418.25277710
68.49550629 229.66610718 507.07409668
75.22445679 233.12519836 512.83673096
72.16967010 241.47138977 501.01422119
79.81047058 243.62054443 505.83724976
70.80515289 165.03239441 448.93185425
66.85762787 174.45100403 453.29431152
74.12948608 161.21293640 437.47543335
69.24526215 171.07696533 441.43203735
145.12142944 310.88201904 447.68167114
141.83712769 308.54315186 457.96243286
155.17424011 313.75259399 448.53521729
149.02880859 312.23031616 454.29150391
126.02843475 144.46414185 462.19924927
119.79173279 153.36853027 469.36596680
137.86909485 150.54696655 454.99621582
131.87039185 158.54522705 462.91802979
167.08883667 152.00891113 441.02642822
164.98986816 158.95005798 449.73010254
174.27276611 158.84490967 435.47695923
172.29135132 165.51269531 445.52450562
144.17350769 149.53277588 455.04974365
138.86395264 157.72030640 462.95816040
156.35443115 155.35754395 450.50387573
151.14523315 162.47071838 459.19799805
159.91642761 147.31855774 411.69299316
157.22245789 147.07003784 411.68634033
167.69450378 157.52093506 411.86557007
165.44677734 158.19384766 412.49713135
63.74217987 184.85110474 472.59393311
62.45063019 194.67691040 478.05093384
64.20574951 182.17864990 461.00750732
62.71993256 192.90290833 466.66213989
138.25782776 140.97277832 408.70843506
128.31733704 145.21659851 403.20101929
148.73071289 147.33468628 407.32632446
138.96609497 151.07098389 401.12500000
96.53114319 172.97924805 494.05267334
89.55177307 182.18185425 499.98828125
106.03578949 178.13684082 483.77191162
99.37948608 188.42143250 491.41079712
199.05395508 280.97940063 416.99389648
195.94372559 291.84323120 417.17477417
207.84915161 281.50738525 417.45471191
202.49244690 287.62796021 416.97070312
219.71081543 271.33160400 438.97985840
213.97799683 281.14019775 439.68109131
226.96377563 271.68704224 437.30325317
220.80940247 276.82482910 438.21264648
87.16123962 161.32595825 414.75152588
81.33457947 170.20932007 415.58404541
95.22259521 156.80685425 405.58953857
88.88171387 165.19128418 405.77688599
63.38775635 208.53175354 489.60903931
65.15745544 217.52790833 495.55325317
63.41308594 214.92234802 480.40570068
65.96703339 224.10966492 486.99319458
156.47555542 307.79058838 463.89175415
149.71411133 303.58261108 469.72509766
166.76731873 307.72009277 465.34075928
160.08615112 305.83798218 468.78805542
118.33895874 159.88632202 471.28909302
112.54551697 169.40626526 478.28948975
130.52371216 164.62908936 464.44735718
125.14151001 172.82426453 472.43032837
69.57482147 200.83657837 428.56192017
68.54683685 211.25115967 433.80361938
71.37958527 200.97802734 419.57723999
69.49710083 211.59524536 424.15368652
152.21859741 293.51800537 417.44311523
147.73104858 300.77359009 423.95797729
162.07977295 297.02499390 416.50451660
155.00003052 299.76348877 419.51153564
108.18794250 149.35647583 404.09237671
100.28907013 156.60922241 400.56256104
118.64170837 150.60861206 399.21987915
110.89194489 157.26873779 395.20446777
194.13000488 294.23754883 435.47000122
189.10491943 301.34692383 441.23071289
202.27320862 295.86132812 433.56842041
195.73063660 298.72119141 436.76058960
127.54759216 298.78015137 452.42156982
122.82012177 296.54638672 461.03060913
135.81015015 301.87554932 453.42135620
129.85780334 300.00860596 458.40463257
221.27311707 246.63793945 449.02966309
215.59652710 255.23455811 453.26150513
227.93707275 249.44421387 444.77590942
221.87121582 252.24905396 449.17959595
78.40313721 178.63327026 411.47793579
74.27973938 189.01727295 413.12051392
84.46970367 175.85375977 402.67248535
79.82252502 185.52279663 403.57476807
208.33575439 234.25448608 421.36657715
205.62110901 240.71963501 420.93740845
215.99902344 235.69752502 421.54705811
212.78808594 238.46885681 421.71041870
198.10208130 200.53186035 447.45413208
199.44262695 202.25424194 458.13635254
203.66123962 204.26976013 442.78402710
203.37437439 204.20751953 452.13955688
172.26991272 159.66159058 419.38439941
176.55674744 163.60336304 427.36355591
174.39901733 170.34379578 415.34463501
179.08731079 174.06286621 424.21459961
66.51447296 198.73887634 462.46469116
66.54697418 208.77113342 468.60244751
66.23376465 197.40072632 452.76504517
66.22659302 208.13264465 458.97021484
142.95861816 270.66076660 396.12811279
137.73818970 270.69921875 396.04037476
143.76780701 270.62066650 396.11642456
142.80123901 270.66589355 396.04537964
124.66398621 261.19076538 385.28350830
119.43931580 261.18356323 385.23049927
125.55464172 261.15966797 385.27490234
124.59284973 261.14352417 385.23669434
154.59930420 293.89132690 412.12142944
148.94599915 293.92224121 412.07604980
155.43603516 293.90698242 412.12872314
154.55470276 293.96655273 412.08627319
150.95790100 274.91018677 403.06396484
145.99710083 274.96099854 402.98306274
151.66899109 274.85610962 403.07150269
150.82225037 274.92459106 403.00527954
146.37515259 264.95672607 439.16372681
142.43701172 264.92172241 439.06924438
146.88430786 264.98272705 439.15063477
146.44749451 264.99163818 439.09841919
144.40789795 287.31283569 457.84896851
139.76394653 287.27416992 457.80908203
145.04510498 287.29660034 457.77493286
144.32202148 287.31619263 457.75671387
126.29328918 268.17797852 391.95217896
120.93785095 268.16961670 391.89474487
127.23561096 268.13946533 391.98468018
126.19699097 268.13235474 391.93969727
132.05238342 234.85232544 468.08605957
128.91885376 234.86967468 468.07830811
132.59838867 234.84127808 468.07891846
132.04724121 234.88145447 468.08886719
102.47023773 222.80087280 491.76034546
100.11737061 222.81828308 491.76623535
102.94419861 222.75537109 491.73352051
102.50327301 222.79382324 491.73321533
116.46893311 269.40435791 477.18777466
112.99041748 269.38616943 477.20675659
117.06507874 269.41424561 477.09017944
116.52146912 269.43609619 477.11685181
128.60398865 243.83377075 472.23562622
125.12615204 243.84848022 472.20211792
129.27490234 243.82084656 472.21459961
128.60183716 243.86474609 472.20956421
147.33090210 234.73489380 464.93978882
144.47119141 234.73025513 464.93521118
147.73760986 234.70870972 464.93353271
147.32522583 234.73435974 464.94271851
160.72558594 260.70111084 466.40975952
157.27926636 260.70278931 466.38095093
161.14022827 260.67611694 466.41754150
160.62086487 260.71395874 466.41482544
96.43719482 227.30195618 499.05987549
94.42071533 227.32879639 499.08538818
96.79653931 227.27536011 499.04135132
96.45248413 227.31883240 499.05484009
110.67637634 256.98916626 479.69522095
107.70584869 257.00381470 479.70812988
111.22833252 256.97769165 479.62695312
110.74472046 257.01846313 479.64547729
165.26930237 294.64517212 456.16088867
160.59280396 294.60189819 456.10327148
165.83589172 294.66940308 456.11947632
165.29174805 294.68490601 456.09899902
153.17100525 253.46531677 438.22250366
149.69650269 253.42004395 438.17346191
153.62719727 253.45336914 438.19622803
153.22332764 253.45431519 438.17102051
153.45783997 303.04574585 420.66012573
147.77407837 303.00750732 420.64474487
154.30279541 303.05493164 420.63006592
153.44744873 303.06637573 420.60989380
139.18865967 306.83123779 437.24072266
134.45964050 306.76696777 437.26754761
139.81660461 306.90570068 437.25418091
139.22740173 306.89511108 437.26669312
141.08576965 279.47418213 451.41848755
136.77288818 279.41656494 451.36093140
141.69918823 279.46792603 451.37393188
141.11259460 279.47348022 451.34533691
130.71520996 216.08647156 451.85818481
128.10380554 216.09413147 451.83413696
131.17602539 216.09370422 451.86734009
130.82481384 216.11961365 451.86099243
118.98178101 252.41659546 473.22305298
115.48413849 252.41989136 473.22821045
119.64823914 252.41340637 473.15136719
119.01220703 252.44879150 473.17016602
126.41881561 257.46298218 471.24340820
122.72570038 257.43774414 471.24389648
127.12001038 257.46847534 471.16369629
126.46031952 257.48403931 471.17889404
156.33663940 312.21109009 431.52493286
151.09725952 312.13305664 431.53662109
156.99514771 312.25860596 431.47033691
156.36749268 312.24526978 431.47070312
119.68566895 296.45959473 441.04187012
115.87924957 296.40457153 441.07653809
120.21919250 296.47656250 441.04287720
119.72846985 296.47003174 441.06011963
161.35504150 258.05059814 447.24407959
158.31967163 258.02874756 447.22079468
161.68951416 258.03112793 447.28131104
161.34875488 258.05163574 447.27163696
127.56068420 297.11944580 433.87164307
123.00573730 297.08847046 433.92529297
128.21275330 297.11517334 433.86206055
127.50844574 297.13269043 433.89062500
105.38292694 226.74653625 482.24023438
103.03819275 226.77919006 482.24560547
105.85528564 226.74244690 482.24548340
105.43167114 226.79052734 482.24252319
129.68208313 279.65921021 404.07583618
124.64122009 279.65209961 404.05264282
130.51594543 279.63397217 404.11663818
129.64442444 279.64633179 404.09631348
153.05531311 283.51263428 460.21798706
148.52593994 283.45828247 460.19332886
153.68952942 283.51150513 460.17098999
152.98365784 283.52386475 460.16741943
159.18875122 245.64750671 449.14297485
156.31712341 245.61996460 449.12631226
159.55407715 245.61102295 449.15554810
159.21656799 245.61920166 449.15161133
134.31307983 226.41793823 462.74627686
131.91099548 226.43939209 462.76251221
134.69049072 226.40171814 462.78707886
134.33648682 226.44241333 462.80789185
113.11946869 242.89703369 469.09918213
110.11718750 242.91459656 469.10369873
113.70853424 242.89167786 469.07092285
113.18745422 242.93304443 469.08181763
109.91079712 264.23098755 385.45050049
105.15130615 264.20941162 385.47796631
110.70254517 264.21878052 385.41244507
109.92675018 264.18707275 385.42413330
120.47669983 218.44699097 479.77633667
117.97090912 218.46272278 479.79107666
120.94689941 218.42303467 479.79489136
120.46218872 218.46302795 479.80526733
129.16932678 271.08724976 469.42013550
125.27101898 271.04040527 469.43316650
129.85270691 271.10211182 469.35308838
129.17790222 271.10977173 469.37445068
148.74542236 311.51263428 456.65118408
144.00093079 311.40963745 456.65316772
149.36715698 311.57904053 456.63647461
148.80012512 311.54949951 456.63879395
152.85272217 248.84878540 462.47549438
150.00187683 248.84477234 462.46508789
153.22879028 248.81840515 462.53607178
152.85025024 248.84985352 462.53524780
113.50210571 295.40582275 457.91311646
110.11266327 295.33517456 457.93576050
113.97087860 295.43145752 457.90573120
113.54166412 295.41476440 457.91802979
156.12744141 274.32305908 463.98776245
152.51762390 274.30401611 463.98617554
156.60305786 274.32342529 464.04055786
156.11695862 274.35595703 464.05145264
120.47302246 288.85003662 422.14608765
116.01318359 288.79406738 422.22659302
121.17163849 288.82293701 422.11380005
120.49164581 288.81060791 422.16738892
161.34112549 299.41381836 465.19192505
156.79005432 299.38360596 465.14410400
161.87915039 299.44833374 465.20574951
161.19288635 299.47610474 465.18328857
139.58905029 273.91720581 461.19726562
135.86459351 273.86163330 461.21005249
140.16174316 273.91333008 461.20535278
139.62232971 273.92025757 461.22094727
126.57880402 221.22470093 467.94915771
124.21781921 221.24252319 467.94869995
126.98415375 221.21112061 467.99029541
126.60885620 221.24755859 467.99401855
103.81811523 284.97991943 474.13076782
101.20538330 284.92248535 474.16152954
104.19475555 285.03405762 474.12796021
103.87327576 285.02093506 474.13958740
99.94087219 266.42282104 390.03677368
95.70636749 266.39599609 390.11737061
100.62095642 266.44384766 390.01010132
100.01971436 266.41021729 390.05950928
149.03912354 307.01052856 428.39196777
143.64645386 306.89770508 428.44830322
149.84292603 307.02389526 428.35516357
149.07939148 306.98568726 428.38970947
153.20660400 235.91903687 451.21289062
150.34005737 235.88807678 451.20642090
153.61531067 235.89784241 451.20764160
153.26072693 235.90129089 451.21215820
147.95524597 263.44006348 448.66766357
144.44102478 263.39993286 448.64584351
148.44616699 263.41516113 448.66934204
147.96974182 263.42666626 448.66098022
109.91317749 290.73321533 439.95370483
106.48227692 290.68359375 440.03335571
110.40940094 290.72851562 439.95669556
109.93386841 290.72360229 440.00543213
141.77372742 310.04577637 447.37622070
137.08335876 309.93603516 447.42584229
142.42832947 310.07684326 447.38708496
141.79598999 310.03894043 447.41918945
110.45205688 281.81756592 417.10397339
106.39198303 281.77548218 417.17626953
111.10218811 281.78305054 417.11697388
110.46955872 281.77810669 417.16522217
143.01666260 287.69439697 413.33267212
137.68003845 287.65338135 413.35073853
143.91467285 287.65646362 413.37542725
142.95909119 287.67364502 413.38693237
89.63273621 247.50575256 509.38760376
87.80706787 247.50975037 509.39099121
89.95741272 247.52200317 509.38723755
89.67552185 247.54736328 509.37777710
75.76959991 241.77804565 505.48580933
74.52297974 241.78825378 505.48175049
75.92810059 241.82019043 505.53292847
75.82427979 241.83746338 505.50775146
98.96883392 251.87426758 384.86557007
94.54268646 251.85610962 384.91003418
99.73289490 251.85884094 384.81161499
98.97540283 251.83624268 384.83901978
99.90653992 273.26730347 402.53878784
96.15196228 273.20800781 402.63882446
100.48832703 273.27349854 402.52655029
99.99398804 273.23449707 402.59039307
107.31452179 285.89416504 429.52005005
104.05482483 285.84713745 429.60635376
107.79562378 285.89575195 429.54776001
107.39451599 285.88500977 429.60235596
142.51947021 249.14273071 467.38601685
139.38053894 249.11437988 467.40728760
143.05165100 249.11747742 467.43716431
142.53796387 249.13107300 467.46218872
71.77014160 236.44306946 490.87341309
70.53115845 236.45715332 490.89523315
71.92738342 236.46583557 490.91748047
71.82182312 236.48654175 490.91467285
123.42742920 298.21691895 456.34262085
119.77381897 298.14968872 456.38211060
123.93418121 298.24890137 456.33953857
123.41797638 298.24023438 456.35827637
137.05357361 297.64050293 425.63204956
131.92956543 297.54876709 425.70507812
137.90487671 297.64202881 425.61376953
137.05749512 297.61901855 425.66244507
76.94680786 246.61077881 487.77233887
75.59826660 246.61585999 487.79211426
77.14346313 246.66760254 487.81781006
77.03020477 246.68345642 487.81323242
155.14308167 314.38973999 449.17605591
150.68006897 314.27801514 449.20190430
155.69949341 314.47323608 449.19378662
155.19839478 314.43731689 449.21182251
238.31048584 249.51591492 436.62713623
235.05593872 260.33193970 438.60089111
248.14752197 254.04600525 430.31585693
244.38638306 264.16619873 434.15252686
227.30020142 235.39610291 422.55105591
229.76667786 246.04772949 420.79687500
238.95352173 242.10784912 422.69622803
241.74832153 253.30619812 422.20742798
223.92138672 242.48635864 449.01452637
217.17904663 250.14053345 453.58810425
232.43865967 248.59927368 442.78640747
226.00027466 255.94091797 447.95642090
205.58308411 222.41563416 441.53143311
208.67610168 227.87144470 447.44793701
213.35290527 228.27479553 434.29205322
217.22302246 231.96234131 441.63082886
231.13876343 270.78186035 437.20797729
222.98947144 279.01718140 438.21057129
240.83264160 273.16043091 430.95339966
233.24154663 280.54315186 433.69180298
199.61878967 210.09324646 458.31710815
198.71386719 214.13061523 467.29031372
206.38931274 216.76054382 450.90762329
205.68917847 219.34460449 460.74105835
207.36184692 232.08946228 458.99752808
201.10125732 238.22198486 465.10998535
214.32403564 239.42057800 452.74459839
208.09210205 245.29119873 459.47543335
196.35263062 204.50553894 442.91735840
200.20362854 207.98376465 449.76290894
201.08404541 211.72195435 435.13891602
205.49801636 213.16882324 443.00338745
221.16217041 254.51864624 421.49618530
223.76174927 266.26754761 421.80252075
234.26141357 260.21722412 424.06100464
235.81365967 272.30639648 425.46057129
214.80001831 260.90881348 451.13772583
206.10591125 267.59573364 452.72152710
222.74765015 266.96435547 444.15142822
214.82104492 273.31384277 446.72534180
203.38427734 227.95077515 420.36868286
207.12533569 237.12088013 418.48907471
213.26263428 233.60537720 420.29748535
218.20422363 242.91885376 418.94116211
203.18685913 246.55430603 464.72384644
194.61508179 252.38096619 466.81182861
210.27230835 254.12294006 459.51797485
202.14691162 259.79666138 462.47335815
190.09310913 212.61851501 429.09814453
194.58737183 218.54553223 430.76556396
196.65002441 220.63877869 424.23974609
203.20883179 224.78224182 427.45892334
192.16436768 221.90235901 471.41979980
183.61746216 226.26089478 474.13159180
200.71701050 230.19598389 468.99682617
192.28289795 234.27445984 472.48553467
219.42306519 292.15298462 431.51922607
211.94667053 299.85876465 434.63616943
229.08757019 287.93402100 425.58648682
222.29553223 293.80081177 429.30462646
210.27374268 271.15942383 418.13372803
212.96151733 282.91595459 419.49603271
223.51707458 275.28854370 421.43060303
225.10086060 287.15789795 423.26672363
183.34045410 184.55000305 431.89297485
185.89248657 189.32621765 438.10577393
185.81391907 198.20671082 423.71307373
189.65057373 200.44236755 431.59283447
196.79817200 271.46624756 454.03015137
187.74850464 278.64059448 454.48822021
203.62460327 276.02548218 445.23855591
195.69323730 282.69039917 446.61636353
201.82254028 285.37982178 442.77038574
192.01586914 293.21179199 442.99240112
211.63626099 285.96597290 433.65298462
203.53094482 292.43017578 435.76593018
174.34985352 163.11007690 441.88171387
172.08552551 169.14128113 450.50701904
182.14585876 173.92895508 436.50811768
179.84579468 178.00361633 445.85220337
176.33413696 181.05911255 450.80859375
172.79953003 186.02745056 459.77032471
182.73284912 191.45458984 444.22491455
179.79228210 194.41569519 453.80218506
176.05120850 206.73545837 469.19274902
172.58255005 209.48057556 478.39535522
184.01351929 217.00427246 465.72314453
181.30245972 217.99211121 475.15130615
187.91481018 254.17837524 469.43960571
178.92630005 259.96490479 469.83914185
194.43156433 261.81057739 464.07351685
185.74510193 267.29028320 465.41992188
176.57403564 165.76820374 422.48962402
181.71250916 172.74566650 426.71054077
181.54142761 181.06509399 420.45086670
185.77951050 186.32685852 426.38076782
195.84330750 245.09907532 415.06439209
199.75259399 255.80804443 415.89212036
206.35346985 249.51878357 417.41903687
210.13659668 260.52978516 418.26434326
186.90547180 226.15383911 413.04949951
190.17532349 235.68524170 412.17758179
195.33003235 231.53890991 415.49688721
200.28689575 240.79504395 414.86199951
176.06028748 205.97964478 451.41217041
177.93417358 208.17779541 460.63772583
185.13911438 216.10102844 448.90841675
188.47683716 215.56147766 458.57937622
165.56781006 184.61404419 465.96591187
160.87188721 188.94006348 475.57379150
174.30589294 194.29705811 463.12905884
169.84986877 196.56556702 472.63943481
183.06881714 233.18099976 466.37310791
175.02084351 238.15124512 467.34063721
190.83004761 241.28250122 465.68014526
182.57562256 245.83218384 467.67300415
163.78425598 204.66899109 483.44589233
153.95846558 208.14529419 487.84552002
172.36940002 213.51148987 480.97128296
163.54339600 216.24966431 485.38430786
173.57756042 205.46374512 436.64529419
177.52890015 208.74267578 443.56347656
182.16270447 216.32038879 433.20529175
188.10787964 216.48287964 441.39666748
195.47508240 310.47479248 432.76657104
187.49592590 314.81036377 438.18798828
204.70851135 306.11434937 426.10644531
198.28350830 309.02505493 432.00384521
155.05191040 166.44778442 457.60540771
147.38626099 171.53846741 466.09304810
167.44694519 173.63958740 457.99346924
160.07951355 177.04971313 466.06054688
174.85739136 178.02989197 412.05810547
177.50692749 188.15390015 411.92990112
180.07711792 192.56213379 414.22827148
183.84016418 199.91236877 416.23858643
149.89814758 187.76632690 478.88665771
140.36483765 192.83789062 485.16445923
161.87835693 194.34642029 480.13854980
152.95677185 198.08245850 485.73770142
173.08627319 210.57928467 421.05017090
177.22686768 215.06826782 426.39892578
180.38105774 222.42137146 418.70507812
187.13677979 223.55210876 425.38049316
178.26052856 287.37963867 455.09063721
169.35995483 293.65744019 455.15658569
185.59504700 292.16351318 448.46682739
178.12341309 297.97964478 449.67498779
164.82228088 214.43815613 467.06320190
160.98753357 215.64941406 475.81466675
174.48461914 221.30307007 469.28738403
172.28529358 220.81942749 477.83047485
198.23942566 302.30566406 416.25103760
197.59675598 312.09323120 420.12493896
209.56884766 300.68939209 419.16149902
206.53221130 309.36819458 423.83541870
172.42579651 264.42855835 465.91766357
163.92285156 270.25140381 465.08395386
178.67111206 272.72503662 462.14074707
170.41763306 278.53259277 462.42843628
188.90695190 278.89007568 413.35968018
191.90008545 290.36752319 413.75204468
200.48762512 281.91809082 415.03234863
201.90032959 292.98455811 415.89138794
181.88885498 256.56936646 410.61505127
185.79528809 266.89218140 413.07867432
192.45254517 259.49224854 413.93316650
196.07127380 269.93548584 415.99343872
131.46762085 171.58242798 471.12829590
123.26288605 177.46261597 479.64080811
145.29255676 177.45187378 471.51824951
136.49903870 181.47155762 478.57983398
164.89300537 242.28611755 467.14041138
156.95590210 247.40737915 466.19821167
171.62960815 249.60002136 467.41552734
163.14576721 254.62762451 467.29254150
171.19067383 192.35806274 400.90454102
171.85755920 203.92344666 400.06961060
177.81301880 201.25099182 407.34329224
179.87161255 209.62966919 407.55596924
175.33673096 237.06925964 402.94030762
178.80921936 246.51846313 406.04959106
183.91806030 240.39550781 408.38562012
188.32437134 249.53503418 411.29321289
158.08567810 225.41593933 456.08132935
154.52670288 230.62132263 460.94931030
166.11166382 231.95373535 458.66921997
163.80241394 235.58488464 464.00268555
128.83003235 196.76055908 483.80242920
117.59346008 202.70001221 485.08734131
140.79878235 200.74816895 483.23419189
130.47787476 206.32153320 484.70877075
171.20664978 216.81550598 397.83435059
172.73071289 226.74261475 400.33190918
178.05746460 221.70164490 404.98767090
181.54428101 230.09753418 407.47186279
158.73181152 234.01638794 452.11660767
155.42181396 240.49873352 453.99575806
165.50854492 239.58186340 452.82153320
162.20907593 245.30529785 455.19769287
134.15011597 210.43399048 479.57650757
122.56561279 215.17294312 478.26538086
146.26605225 211.94036865 476.94897461
135.02182007 215.99446106 475.04785156
170.94284058 318.29266357 447.53253174
166.09494019 314.07846069 456.66629028
179.59919739 315.74923706 443.21365356
175.83901978 311.94699097 451.15075684
158.50146484 163.37770081 402.09634399
156.99270630 173.24937439 396.60421753
167.53297424 172.16738892 405.41015625
166.99317932 180.10736084 401.73504639
147.73226929 247.60427856 469.63900757
139.22167969 252.84597778 467.90753174
153.42320251 256.40353394 469.17413330
145.08465576 262.03903198 468.18234253
161.05636597 292.78765869 459.04962158
151.98756409 295.87588501 459.44198608
167.70692444 300.70227051 455.76257324
159.66085815 302.85049438 457.51458740
112.42248535 184.16671753 483.90850830
103.12621307 191.33534241 490.48071289
124.95324707 188.44207764 481.10891724
115.42375183 194.70220947 486.35733032
148.40420532 270.12905884 463.59216309
140.00448608 275.35736084 462.02914429
153.98043823 280.11160278 461.62841797
146.21633911 285.40875244 461.02386475
177.01754761 313.48681641 422.85382080
175.39361572 316.22332764 431.08337402
188.30000305 312.52905273 423.18643188
185.21557617 313.87149048 431.05853271
173.82989502 291.86816406 412.40002441
176.53533936 302.24066162 414.45599365
186.04714966 294.61230469 413.35012817
186.91192627 305.03070068 416.07803345
159.17913818 249.86383057 449.18750000
155.50784302 256.00399780 449.18869019
164.80697632 255.60255432 448.66503906
160.54403687 261.33746338 449.15597534
144.68130493 208.15521240 459.68048096
143.46072388 208.48007202 470.09506226
154.48463440 212.83547974 462.70944214
153.57708740 211.55802917 472.04205322
166.59005737 270.00860596 407.35165405
170.25561523 280.30850220 409.35864258
177.24359131 273.18334961 408.90414429
180.23672485 283.39721680 410.65948486
144.18428040 225.98751831 465.74203491
134.77713013 230.93101501 466.37023926
152.54194641 230.74940491 468.35165405
143.67196655 235.56958008 469.33468628
162.61529541 251.04521179 397.71105957
165.38812256 259.75460815 403.35800171
171.85517883 252.51812744 404.04046631
175.20626831 261.01724243 409.21527100
152.99714661 181.86701965 390.61602783
152.23059082 193.21830750 387.06610107
162.18446350 189.00506592 394.72888184
162.28816223 198.36920166 392.36828613
100.96797943 205.60617065 492.54336548
91.45568848 212.86273193 496.75946045
110.39424133 212.94038391 487.15878296
100.59521484 219.71713257 490.22216797
154.82275391 204.21018982 385.43225098
155.04313660 215.03768921 385.88543701
163.30323792 209.01603699 391.88604736
164.66073608 218.31805420 392.97259521
156.82781982 229.01173401 387.12728882
158.53395081 238.52210999 392.73602295
164.88058472 230.71881104 395.43142700
167.81875610 239.76657104 400.80502319
108.18248749 220.97665405 476.59747314
98.60711670 226.99734497 479.26086426
115.90692139 227.10534668 471.06927490
105.70835114 233.06582642 471.44778442
134.90330505 211.41418457 453.02032471
135.05741882 213.95761108 461.81768799
144.44450378 216.30796814 455.37051392
144.64056396 216.70129395 463.82376099
129.95312500 277.61022949 466.78793335
122.17851257 279.83346558 467.97027588
136.04646301 288.54431152 463.40051270
128.85871887 289.32470703 465.58264160
119.67904663 245.26062012 478.30755615
110.30439758 251.01844788 477.75903320
126.24838257 255.24316406 478.68164062
117.44912720 261.40243530 478.07852173
137.24743652 157.38281250 397.32894897
134.86746216 167.36537170 391.28247070
146.88493347 164.88215637 396.77841187
145.16279602 173.73588562 391.73266602
146.64694214 309.38635254 434.63998413
147.70742798 310.91519165 442.76632690
158.07325745 314.17559814 435.97094727
158.48472595 314.08575439 444.99386597
148.47685242 297.25512695 417.03002930
150.45730591 304.15997314 422.25451660
160.08142090 301.77041626 416.88952637
161.09704590 308.37127686 422.76013184
133.66169739 303.00103760 452.21746826
133.69729614 301.14770508 460.19277954
143.76252747 307.54354858 453.64880371
143.60601807 304.37786865 461.60308838
90.66045380 226.35264587 497.63977051
83.83974457 233.78698730 504.14697266
96.02162933 235.77461243 490.09552002
88.53184509 243.24526978 495.23782349
145.65432739 280.03323364 407.62380981
148.69764709 288.92996216 411.71948242
156.49328613 284.20825195 407.60757446
159.01234436 292.79913330 411.66024780
146.09686279 263.82162476 395.47442627
148.30671692 271.78167725 402.00650024
156.16065979 265.86877441 400.11968994
158.67303467 273.38150024 406.23501587
143.79335022 246.79756165 383.16162109
144.99003601 254.86083984 390.01290894
152.39474487 247.71084595 390.79473877
154.44401550 255.23504639 397.14138794
136.00045776 181.36235046 384.29425049
135.27606201 192.77862549 380.47479248
145.77786255 187.53692627 385.96405029
145.49870300 197.63035583 383.03543091
99.77511597 251.55561829 487.99942017
93.98669434 256.99038696 494.95584106
106.06822205 264.16857910 484.36062622
100.92784119 269.35675049 490.79901123
136.79533386 201.91622925 378.34368896
137.39959717 213.40133667 377.29492188
146.38983154 206.90750122 381.66897583
147.54827881 217.34884644 381.52655029
138.52584839 224.25558472 376.01495361
140.35957336 235.06777954 379.81433105
148.23599243 227.49293518 382.01269531
150.49362183 237.46401978 385.99749756
125.80200958 293.58288574 427.57839966
127.81209564 298.06756592 434.94012451
135.10498047 298.86376953 428.03625488
137.03858948 302.57711792 435.75732422
120.46282196 164.05824280 391.26574707
118.72227478 175.08071899 385.66278076
129.45896912 170.79316711 388.87335205
127.93539429 181.27656555 383.63549805
124.18094635 282.42468262 412.07696533
126.42042542 288.32397461 419.36029053
133.93028259 287.31225586 412.98785400
136.23809814 292.46218872 420.32089233
99.40808868 282.40795898 453.56134033
103.83734131 284.11505127 462.19427490
108.73112488 290.23562622 454.79864502
112.84687042 290.70031738 463.97830200
107.21328735 287.46661377 438.49383545
110.23653412 290.81866455 447.20706177
115.92746735 293.59530640 439.87881470
118.99755096 295.88354492 449.13494873
122.38687897 270.79574585 393.95086670
123.73840332 276.58032227 402.07913208
132.49273682 273.56951904 398.32156372
134.18786621 278.57226562 406.10766602
122.07385254 256.21020508 379.99975586
123.43923187 264.07275391 386.91604614
132.38568115 259.04516602 384.87155151
133.90782166 266.11819458 391.74963379
117.16172791 186.89079285 380.00741577
116.87157440 199.01437378 376.53204346
127.30813599 192.85920715 378.99615479
127.16610718 204.38636780 376.10479736
85.08995056 262.37164307 460.26351929
89.84036255 265.17602539 468.00564575
92.88464355 272.87988281 459.41091919
97.62548828 274.73107910 467.90621948
104.30043030 281.15536499 421.86645508
106.53656769 285.10479736 430.61218262
113.23206329 286.52801514 423.62707520
115.60153198 289.60476685 432.64614868
74.81109619 240.72430420 476.21658325
79.53474426 245.09239197 483.64135742
79.97789001 251.52313232 470.29626465
84.88504791 254.99847412 478.26202393
104.25981140 156.64874268 399.57202148
100.89151001 166.71923828 394.42590332
110.91325378 162.39321899 392.88989258
108.15142059 172.17312622 387.50292969
118.14687347 235.06204224 374.06796265
120.21191406 246.13423157 377.55859375
128.80232239 239.28436279 376.53204346
130.99113464 249.55366516 380.49774170
115.51025391 210.46888733 375.69644165
116.70884705 222.88302612 375.41830444
126.06199646 215.92039490 375.96240234
127.70313263 227.55459595 376.26501465
103.39527893 273.74969482 401.72930908
105.15445709 278.40930176 410.32592773
113.18809509 278.51934814 403.87606812
115.07057953 282.35885620 412.66577148
88.63029480 272.35992432 432.11279297
91.53788757 275.96908569 440.63296509
96.63526154 279.41864014 432.91952515
99.57153320 282.24688721 442.10681152
66.58152008 219.51855469 472.25329590
69.36007690 226.25132751 479.14471436
68.03722382 227.72328186 464.19766235
71.07481384 234.55546570 471.40261841
102.10588074 259.53286743 385.58746338
103.65095520 266.89074707 392.04687500
112.54722595 264.97720337 385.95449829
114.02730560 271.65261841 392.90710449
77.58966064 256.90628052 441.98065186
80.98567200 260.73529053 449.77438354
84.09064484 265.96838379 440.26208496
87.47710419 269.14743042 448.87973022
99.52421570 176.56033325 388.21215820
97.77793884 187.77014160 383.86700439
107.40731812 182.07920837 383.19601440
106.01541138 192.98507690 378.88815308
70.44588470 240.44424438 454.79696655
74.08659363 245.11341858 462.20452881
74.58886719 250.28630066 450.25994873
78.42934418 254.45843506 458.37292480
84.88063049 264.91220093 413.73245239
86.94996643 269.51733398 421.74984741
92.95632935 271.98727417 413.49157715
95.16139221 275.96157837 422.18951416
99.61836243 241.95420837 380.33239746
101.50084686 252.06674194 383.36901855
109.77583313 247.52374268 378.13018799
111.70993042 257.09338379 382.03375244
65.88597870 204.37841797 459.74929810
66.62452698 212.65962219 465.67916870
66.17505646 210.84356689 450.42816162
67.05583954 219.46121216 456.40393066
97.23754883 199.75321960 381.95059204
97.12392426 211.94944763 380.06427002
106.76835632 205.41738892 378.39001465
107.02864838 217.17393494 376.73550415
89.69172668 164.94906616 406.11459351
86.02713013 175.00425720 402.79791260
93.48393250 169.93843079 397.35595703
90.60406494 179.52719116 393.48300171
67.99253845 188.51759338 447.75378418
66.55690765 197.99165344 451.79019165
68.37940979 194.14926147 437.66226196
67.00135803 203.93682861 441.52185059
95.78459167 222.34777832 380.59786987
97.20158386 233.78698730 380.71804810
105.48134613 228.01194763 376.81402588
107.19273376 239.01339722 377.72946167
86.62738037 257.07739258 397.83148193
88.14665222 263.74896240 404.34823608
95.08015442 264.07586670 395.78604126
96.79536438 270.13955688 402.98907471
72.24472809 246.66279602 426.57672119
74.48612213 251.58811951 434.05694580
77.18965149 255.75881958 423.58502197
79.54478455 260.33526611 431.96560669
67.51057434 227.85806274 442.76824951
69.67645264 234.05079651 449.74954224
69.75482941 236.62385559 435.97048950
72.03158569 242.81562805 443.66290283
73.58478546 177.98257446 431.89486694
70.58638763 187.94219971 433.23110962
74.43067932 183.17457581 421.55197144
71.58139801 192.91818237 422.25689697
77.17901611 245.71510315 408.78515625
78.20903015 252.25671387 414.93869019
82.16658783 253.59867859 405.22949219
83.61082458 259.88412476 412.19357300
86.59058380 184.36361694 395.26510620
84.48300934 194.92730713 392.28582764
92.11520386 189.52885437 387.76770020
90.72305298 199.72358704 384.71386719
85.58171844 241.88000488 390.58209229
86.86872864 251.04437256 394.00103760
93.64451599 248.36427307 385.86083984
95.16616821 257.13293457 390.21170044
68.62982941 211.78982544 433.22918701
68.58144379 220.05381775 438.31604004
70.08361816 218.86096191 424.58477783
70.11409760 227.31993103 430.00619507
78.92971802 179.05310059 413.54199219
75.79319763 189.14651489 412.52908325
81.44446564 184.11892700 403.64190674
78.84774780 193.87208557 402.11163330
70.40430450 227.87622070 418.01449585
70.70801544 235.44819641 423.37280273
73.39457703 235.84963989 411.79214478
73.98838043 243.47705078 417.96096802
71.49137115 196.73570251 426.16571045
69.72167206 206.27093506 428.67199707
72.84020233 202.65029907 416.24145508
71.32690430 212.10523987 418.56362915
82.68147278 222.18338013 391.05114746
83.37234497 232.76235962 391.76776123
90.18780518 228.14384460 384.59722900
91.24661255 238.48960876 386.09213257
81.53622437 196.92686462 395.89929199
80.18733215 207.41790771 394.31408691
87.16646576 202.27561951 388.21499634
86.50611877 212.46653748 386.83862305
82.31378174 211.67512512 391.42187500
82.11091614 222.49496460 391.00286865
89.17173767 217.35650635 384.72497559
89.39076996 227.89533997 384.82641602
76.82452393 232.18885803 401.08984375
77.10935974 240.88870239 404.62637329
81.76322937 239.03059387 395.24313354
82.54795837 247.43795776 399.55767822
72.60124969 213.49691772 410.74645996
71.67040253 222.82185364 413.18524170
75.54349518 220.27174377 402.59335327
75.20024109 229.44949341 405.58984375
75.78931427 241.87162781 505.46221924
75.77778625 241.87837219 505.45852661
75.78578949 241.87504578 505.46343994
75.78704834 241.88226318 505.45413208
157.62246704 299.87701416 415.79895020
157.61404419 299.87902832 415.79171753
157.62690735 299.87689209 415.80581665
157.62620544 299.87384033 415.79992676
77.04075623 234.61553955 398.42831421
77.03064728 234.62051392 398.42486572
77.03881836 234.62033081 398.43511963
77.03672791 234.61796570 398.43350220
147.38516235 234.71751404 464.93395996
147.37361145 234.71784973 464.94042969
147.38102722 234.71298218 464.94433594
147.38346863 234.71182251 464.94366455
96.41394043 280.33422852 449.43649292
96.40032959 280.34222412 449.42648315
96.40550232 280.33673096 449.44030762
96.40161133 280.34194946 449.42883301
64.95381927 218.18041992 454.33380127
64.94361877 218.18528748 454.32769775
64.94902039 218.18693542 454.34133911
64.94788361 218.18676758 454.33145142
124.76064301 261.14944458 385.20599365
124.74069214 261.15789795 385.20223999
124.75718689 261.16183472 385.20965576
124.75126648 261.16351318 385.20574951
160.36080933 304.90499878 470.48284912
160.34333801 304.90167236 470.48309326
160.34428406 304.90240479 470.48193359
160.33752441 304.90118408 470.48004150
103.10226440 238.94515991 467.25845337
103.09158325 238.94622803 467.25234985
103.08805847 238.96166992 467.25720215
103.09003448 238.96339417 467.24667358
154.99768066 266.87826538 440.34500122
154.97918701 266.88317871 440.33380127
154.99038696 266.88037109 440.34979248
154.98674011 266.87869263 440.33648682
72.85620880 252.23341370 434.58389282
72.84658813 252.24041748 434.57376099
72.85086823 252.23928833 434.58398438
72.84947205 252.24035645 434.57345581
129.28382874 271.07400513 469.34225464
129.26576233 271.07223511 469.33261108
129.27600098 271.08044434 469.34594727
129.26847839 271.07901001 469.33312988
91.84164429 269.20092773 405.09878540
91.82830811 269.20901489 405.09317017
91.83893585 269.20919800 405.11209106
91.83392334 269.21047974 405.10665894
132.50280762 301.59320068 443.95751953
132.48796082 301.59832764 443.94989014
132.49337769 301.59320068 443.96286011
132.48811340 301.59545898 443.95446777
100.57705688 267.11001587 490.40716553
100.56653595 267.11212158 490.40130615
100.56642151 267.11260986 490.41430664
100.56468201 267.11730957 490.40307617
122.54416656 214.92842102 449.25756836
122.53430176 214.93075562 449.25387573
122.52322388 214.94279480 449.25134277
122.52976990 214.94215393 449.24096680
121.47618103 284.14877319 414.52600098
121.46012878 284.15338135 414.51931763
121.47156525 284.14883423 414.52853394
121.46394348 284.14587402 414.52404785
72.92435455 241.53375244 475.07354736
72.91293335 241.53877258 475.06356812
72.92041016 241.54183960 475.07736206
72.92034912 241.54447937 475.06347656
120.50518036 218.48268127 479.75933838
120.50336456 218.48466492 479.76629639
120.50699615 218.47991943 479.76730347
120.51615143 218.48175049 479.76519775
151.11077881 274.94921875 402.94104004
151.09196472 274.95355225 402.93957520
151.11796570 274.94857788 402.95037842
151.11134338 274.94674683 402.94802856
69.88077545 224.40631104 424.05346680
69.87149048 224.41209412 424.04940796
69.87441254 224.40916443 424.06185913
69.87261963 224.40901184 424.05606079
168.38864136 279.67868042 461.59783936
168.37197876 279.67349243 461.59811401
168.38064575 279.67718506 461.60604858
168.37442017 279.67263794 461.60159302
111.38608551 291.82083130 471.42904663
111.37348175 291.82574463 471.42684937
111.37423706 291.81857300 471.43560791
111.37133789 291.82519531 471.43011475
99.06690979 251.84440613 384.80734253
99.04980469 251.85112000 384.80615234
99.06738281 251.85336304 384.81140137
99.06135559 251.85250854 384.81195068
156.15835571 314.90536499 441.76522827
156.14227295 314.90774536 441.75891113
156.14994812 314.90145874 441.77026367
156.14324951 314.90112305 441.76461792
96.46846008 227.32377625 499.05175781
96.45778656 227.32681274 499.04879761
96.46368408 227.32649231 499.07034302
96.46408081 227.32942200 499.06164551
83.57472229 260.28637695 458.07244873
83.55876923 260.29446411 458.06576538
83.57173157 260.29800415 458.07708740
83.56636047 260.30358887 458.06564331
100.43994141 279.81198120 424.29672241
100.42593384 279.81893921 424.28475952
100.43940735 279.81198120 424.30142212
100.43370056 279.81286621 424.29196167
144.50480652 287.34164429 457.77072144
144.48284912 287.34228516 457.76190186
144.49583435 287.34497070 457.77288818
144.48643494 287.34246826 457.76147461
159.26733398 245.62246704 449.13403320
159.25250244 245.62379456 449.13980103
159.26345825 245.61909485 449.14218140
159.26089478 245.61721802 449.14202881
128.67442322 243.81668091 472.21057129
128.65583801 243.81771851 472.20578003
128.66625977 243.82186890 472.21817017
128.66009521 243.82183838 472.20788574
92.24394226 246.37193298 484.78176880
92.22860718 246.37771606 484.77822876
92.23094177 246.37982178 484.78613281
92.22756958 246.38801575 484.77655029
147.82650757 262.46380615 461.89315796
147.80720520 262.46572876 461.89556885
147.81529236 262.46539307 461.89752197
147.80798340 262.46499634 461.89376831
76.26060486 252.74188232 410.04519653
76.25228882 252.74699402 410.03704834
76.26100159 252.74885559 410.04995728
76.26133728 252.74545288 410.04431152
112.35086060 293.67327881 446.01403809
112.33575439 293.68298340 446.00131226
112.34285736 293.67391968 446.01464844
112.33615875 293.67950439 446.00231934
69.83192444 238.33056641 450.73602295
69.82159424 238.33772278 450.72973633
69.82863617 238.33650208 450.74340820
69.82733917 238.33905029 450.73428345
110.86778259 272.69366455 395.24273682
110.84790802 272.70272827 395.23760986
110.86327362 272.69876099 395.25137329
110.85424805 272.70089722 395.24832153
67.59146881 221.73182678 475.87554932
67.58229065 221.73873901 475.86926270
67.58612823 221.74278259 475.88980103
67.58753967 221.74671936 475.87756348
86.07620239 270.47824097 434.76608276
86.06124878 270.48959351 434.75466919
86.07440948 270.48492432 434.76446533
86.06874847 270.49038696 434.75262451
143.61898804 308.11718750 460.19650269
143.59805298 308.12042236 460.19149780
143.60208130 308.11813354 460.20138550
143.59196472 308.12054443 460.19293213
96.88962555 274.87835693 472.68975830
96.87290955 274.88601685 472.67941284
96.88057709 274.88507080 472.69857788
96.87496948 274.89172363 472.68377686
119.29730225 229.95086670 461.49563599
119.28465271 229.95161438 461.49026489
119.28626251 229.96598816 461.50131226
119.28813171 229.96731567 461.49075317
137.14428711 297.65289307 425.65350342
137.12937927 297.65704346 425.64743042
137.13621521 297.65228271 425.65719604
137.12863159 297.65167236 425.65139771
131.48176575 273.73348999 397.44573975
131.46046448 273.73983765 397.44403076
131.48730469 273.74182129 397.45434570
131.47920227 273.74060059 397.45230103
116.32367706 259.45608521 475.33804321
116.30781555 259.45474243 475.32751465
116.31373596 259.46472168 475.34109497
116.30946350 259.46267700 475.32751465
83.95925903 258.76931763 475.66717529
83.94375610 258.77706909 475.65689087
83.95638275 258.77493286 475.67657471
83.95116425 258.78173828 475.66128540
127.17237854 290.78662109 464.06982422
127.15692139 290.78689575 464.06793213
127.16146088 290.78558350 464.07669067
127.15480042 290.78674316 464.07006836
105.45347595 226.74710083 482.21246338
105.43920135 226.74987793 482.21060181
105.44172668 226.74749756 482.22821045
105.44184875 226.74943542 482.22021484
143.13240051 287.67687988 413.33432007
143.11366272 287.68258667 413.33026123
143.12834167 287.67675781 413.33978271
143.11898804 287.67651367 413.33502197
110.54722595 279.19177246 482.42541504
110.53314209 279.19250488 482.42547607
110.53469086 279.19421387 482.43743896
110.53196716 279.19812012 482.43154907
86.22454834 249.05914307 394.91491699
86.21207428 249.06536865 394.91442871
86.21742249 249.07208252 394.91970825
86.21276093 249.07072449 394.91973877
114.66678619 289.48223877 428.46084595
114.65106201 289.48855591 428.44894409
114.66358948 289.48516846 428.46496582
114.65737152 289.48480225 428.45483398
165.39120483 294.66748047 456.08468628
165.37423706 294.66607666 456.07723999
165.38778687 294.66738892 456.09268188
165.37956238 294.66400146 456.08282471
71.79888916 236.50819397 490.88482666
71.78681183 236.51358032 490.87551880
71.79243469 236.51693726 490.89196777
71.79336548 236.52023315 490.87710571
67.55456543 224.79078674 439.87881470
67.54566956 224.79467773 439.87606812
67.54776764 224.79495239 439.88491821
67.54631042 224.79483032 439.87802124
70.93891907 237.70332336 415.63681030
70.93350220 237.70826721 415.63412476
70.92973328 237.71054077 415.63919067
70.93000793 237.70909119 415.63635254
132.46728516 220.29257202 460.17324829
132.45597839 220.29693604 460.17471313
132.46319580 220.30357361 460.17254639
132.46659851 220.30482483 460.16619873
89.65104675 247.58335876 509.34127808
89.64198303 247.58869934 509.34039307
89.64502716 247.58409119 509.35052490
89.64741516 247.59223938 509.34323120
149.08943176 307.02392578 428.40191650
149.07308960 307.02789307 428.39550781
149.08085632 307.02743530 428.40695190
149.07403564 307.02673340 428.40093994
142.59094238 249.10659790 467.44689941
142.57760620 249.10614014 467.45074463
142.57751465 249.10656738 467.45373535
142.57511902 249.10557556 467.45120239
82.98976135 264.10580444 416.49942017
82.97883606 264.11297607 416.49011230
82.98403931 264.11007690 416.50701904
82.98054504 264.11148071 416.49789429
68.41613770 232.36737061 464.74121094
68.40749359 232.37388611 464.73400879
68.41358948 232.37599182 464.75119019
68.41432953 232.37922668 464.73980713
72.20619202 224.64707947 409.71533203
72.19998169 224.65164185 409.71643066
72.19696808 224.65324402 409.72143555
72.19748688 224.65150452 409.72106934
109.69583130 276.79870605 408.57617188
109.67893982 276.80615234 408.57214355
109.69552612 276.80398560 408.58239746
109.68659973 276.80502319 408.57794189
101.59844971 284.39627075 461.79476929
101.58041382 284.40402222 461.78707886
101.58775330 284.39849854 461.79904175
101.58122253 284.40460205 461.78842163
75.56788635 253.05119324 449.45382690
75.55523682 253.05874634 449.44531250
75.56253052 253.05686951 449.46255493
75.56047058 253.06144714 449.45095825
160.74983215 260.69192505 466.36529541
160.72727966 260.69335938 466.36300659
160.74880981 260.68975830 466.37268066
160.73834229 260.69015503 466.36520386
155.63575745 313.37713623 456.11026001
155.62101746 313.37710571 456.10528564
155.62141418 313.37777710 456.11398315
155.61628723 313.37655640 456.10766602
153.26460266 253.43875122 438.17022705
153.24530029 253.44213867 438.16687012
153.25401306 253.44511414 438.17523193
153.24891663 253.44401550 438.16671753
99.99108887 266.43582153 390.02465820
99.97539520 266.44387817 390.01834106
99.98876190 266.44628906 390.02709961
99.98284912 266.44616699 390.02288818
84.40187073 249.47698975 495.37390137
84.38970184 249.48175049 495.36788940
84.39602661 249.47798157 495.38217163
84.39379883 249.48498535 495.37017822
156.18820190 274.33117676 463.99053955
156.16877747 274.33343506 463.98904419
156.18440247 274.32827759 463.99798584
156.17541504 274.32833862 463.99209595
139.68885803 273.90985107 461.20846558
139.66952515 273.91262817 461.20245361
139.67985535 273.90734863 461.21423340
139.67123413 273.90661621 461.20492554
104.07684326 252.17098999 482.39614868
104.06126404 252.17085266 482.38699341
104.06989288 252.18148804 482.40338135
104.06435394 252.18066406 482.38949585
140.84104919 264.93365479 393.76983643
140.81890869 264.94311523 393.76837158
140.84210205 264.94445801 393.77548218
140.83255005 264.94723511 393.77117920
72.64285278 244.83454895 461.95062256
72.63114929 244.84089661 461.94473267
72.63687134 244.84344482 461.95523071
72.63549042 244.84606934 461.94525146
141.83578491 310.08822632 447.39297485
141.82075500 310.09234619 447.38992310
141.82327271 310.09136963 447.39663696
141.81741333 310.09280396 447.39285278
154.00494385 295.81979370 462.37097168
153.98176575 295.81823730 462.36694336
153.99386597 295.82095337 462.37377930
153.98124695 295.81961060 462.36685181
87.59677887 270.93463135 448.82977295
87.58357239 270.94415283 448.82489014
87.58879089 270.93890381 448.83184814
87.58442688 270.94650269 448.82373047
70.34146118 235.58996582 433.64379883
70.33226013 235.59603882 433.63781738
70.33177948 235.59519958 433.64770508
70.32975769 235.59638977 433.63998413
161.42335510 258.04647827 447.21081543
161.40274048 258.05014038 447.21051025
161.41735840 258.04122925 447.21936035
161.40985107 258.04089355 447.21487427
78.17716980 261.46151733 428.07519531
78.16616821 261.46853638 428.06591797
78.17535400 261.46777344 428.07937622
78.17182922 261.46972656 428.06967163
136.86918640 296.80102539 454.54290771
136.84773254 296.80401611 454.53604126
136.85267639 296.80480957 454.54815674
136.84062195 296.80703735 454.53793335
90.94520569 272.90344238 420.09579468
90.93190002 272.91207886 420.08685303
90.94264221 272.90832520 420.10049438
90.93875885 272.91079712 420.09112549
84.24015808 258.77569580 402.31460571
84.22945404 258.78198242 402.31011963
84.23999023 258.78100586 402.32254028
84.23623657 258.77993774 402.31912231
96.15573120 256.58242798 494.84744263
96.14308167 256.58566284 494.84921265
96.14770508 256.58563232 494.85678101
96.14595795 256.59259033 494.85073853
133.37773132 259.54995728 468.72882080
133.35797119 259.54959106 468.71966553
133.36752319 259.55587769 468.73352051
133.36015320 259.55529785 468.72143555
113.61102295 295.41729736 457.90835571
113.59920502 295.42202759 457.89810181
113.59646606 295.42083740 457.90673828
113.59346008 295.42327881 457.89538574
121.69750977 275.96942139 404.09689331
121.67768860 275.97363281 404.09481812
121.69958496 275.96975708 404.11056519
121.69100952 275.96777344 404.10818481
127.63161469 297.17797852 433.88366699
127.61741638 297.18536377 433.87426758
127.62502289 297.17468262 433.87939453
127.61832428 297.17620850 433.87176514
92.89202881 272.32009888 461.63589478
92.87728882 272.32781982 461.62716675
92.88714600 272.32708740 461.64575195
92.88209534 272.33215332 461.63516235
103.91286469 286.35687256 441.80480957
103.89920044 286.36367798 441.79388428
103.90747070 286.35565186 441.81082153
103.90200806 286.35702515 441.79983521
96.48141479 233.79895020 485.49743652
96.46934509 233.79858398 485.48934937
96.47039032 233.80928040 485.51025391
96.47100067 233.80769348 485.49893188
109.86628723 265.90307617 483.30584717
109.85018921 265.90307617 483.30096436
109.85652161 265.90484619 483.31048584
109.84948730 265.90756226 483.29998779
94.23483276 239.29550171 474.90191650
94.22564697 239.29510498 474.89550781
94.22225952 239.30752563 474.90191650
94.22531128 239.30844116 474.89114380
153.31553650 235.89610291 451.20657349
153.30432129 235.89443970 451.21957397
153.31729126 235.89074707 451.21243286
153.31919861 235.88639832 451.21582031
152.89552307 248.83074951 462.50946045
152.87876892 248.83216858 462.51458740
152.88958740 248.82850647 462.51718140
152.88432312 248.82820129 462.51477051
79.57566833 261.79403687 443.30731201
79.56373596 261.80374146 443.30438232
79.57069397 261.80340576 443.30697632
79.56750488 261.80902100 443.30120850
148.01382446 263.41421509 448.63464355
147.99110413 263.41705322 448.63262939
148.00466919 263.41857910 448.64129639
147.99501038 263.41662598 448.63482666
147.06845093 298.72210693 419.55914307
147.05346680 298.72552490 419.55090332
147.06556702 298.72109985 419.56289673
147.05926514 298.71856689 419.55685425
109.99550629 264.19207764 385.38061523
109.97534180 264.20086670 385.37509155
109.98854065 264.20266724 385.39019775
109.98081207 264.20336914 385.38562012
91.43511963 261.66424561 486.06472778
91.42240906 261.66830444 486.05911255
91.42601013 261.66668701 486.07550049
91.42388916 261.67294312 486.06454468
121.67774200 299.06994629 448.70913696
121.66476440 299.07702637 448.69909668
121.66262817 299.07376099 448.71264648
121.65975952 299.07641602 448.70208740
121.84854889 284.92068481 471.82568359
121.83443451 284.91827393 471.82504272
121.83528137 284.92340088 471.82940674
121.83052826 284.92391968 471.82363892
129.29626465 291.16226196 421.32711792
129.28221130 291.16897583 421.32095337
129.29074097 291.15921021 421.33114624
129.28515625 291.15921021 421.32598877
71.71553040 245.92167664 425.59646606
71.70819092 245.92863464 425.58843994
71.71045685 245.92559814 425.60162354
71.71021271 245.92666626 425.59252930
113.20022583 242.88337708 469.08670044
113.18410492 242.88580322 469.07714844
113.19099426 242.89741516 469.09625244
113.18766785 242.89836121 469.08206177
77.00460815 246.67221069 487.78363037
76.99444580 246.67672729 487.77429199
76.99849701 246.67335510 487.78894043
76.99940491 246.67735291 487.77508545
139.31985474 306.92037964 437.27383423
139.30691528 306.92803955 437.26574707
139.31144714 306.91854858 437.27328491
139.30683899 306.92095947 437.26718140
97.53775787 280.56137085 435.25683594
97.52542114 280.56884766 435.24966431
97.52954102 280.56469727 435.25524902
97.52461243 280.56835938 435.24887085
92.04232788 242.29597473 497.69656372
92.02655029 242.30087280 497.69171143
92.03065491 242.30271912 497.70602417
92.02697754 242.31042480 497.69448853
93.27207184 258.11581421 391.22430420
93.25637054 258.12225342 391.22122192
93.27047729 258.12518311 391.23318481
93.26625061 258.12435913 391.23117065
141.21772766 279.46255493 451.36563110
141.19952393 279.46405029 451.35476685
141.20840454 279.46951294 451.36950684
141.20147705 279.46640015 451.35641479
141.66662598 225.60783386 460.49163818
141.65609741 225.60839844 460.49615479
141.66889954 225.60942078 460.50317383
141.67266846 225.60757446 460.49896240
102.53312683 222.77664185 491.72827148
102.52177429 222.77972412 491.73236084
102.52188873 222.77888489 491.74365234
102.52388000 222.77957153 491.73956299
103.87158203 284.99450684 474.11810303
103.85725403 285.00100708 474.10791016
103.86122131 284.99765015 474.12445068
103.85772705 285.00360107 474.11120605
66.92429352 215.00860596 436.15289307
66.91479492 215.01362610 436.15325928
66.91577148 215.01609802 436.15869141
66.91464233 215.01417542 436.15441895
132.11903381 234.87493896 468.05981445
132.10076904 234.87728882 468.05697632
132.10871887 234.88154602 468.07199097
132.10441589 234.88261414 468.06207275
67.14620972 228.38197327 450.51959229
67.13684082 228.38691711 450.51229858
67.13970184 228.38894653 450.52603149
67.14006805 228.39039612 450.51519775
112.73406219 226.37173462 468.49902344
112.72117615 226.37335205 468.49890137
112.72335815 226.38319397 468.50527954
112.72540283 226.38568115 468.49765015
83.58860779 253.72543335 484.34552002
83.57673645 253.72961426 484.33456421
83.57734680 253.72917175 484.35220337
83.57627869 253.73350525 484.33694458
104.01982117 229.23547363 472.67181396
104.00585938 229.23652649 472.66744995
104.00629425 229.24635315 472.68469238
104.00540161 229.24621582 472.67480469
110.52028656 281.81628418 417.13397217
110.50153351 281.82388306 417.12582397
110.51847076 281.81753540 417.13879395
110.50938416 281.81811523 417.13140869
130.57414246 285.59103394 410.85086060
130.55578613 285.59741211 410.84335327
130.57167053 285.59750366 410.85440063
130.56521606 285.59552002 410.84826660
69.17469788 227.67980957 483.64663696
69.16387177 227.68676758 483.64312744
69.17098236 227.68666077 483.65783691
69.17207336 227.69111633 483.64801025
97.32565308 274.97219849 412.83660889
97.31054688 274.98110962 412.83032227
97.32807159 274.97808838 412.84091187
97.32005310 274.98043823 412.83419800
151.81056213 285.84335327 409.04919434
151.79508972 285.84652710 409.04565430
151.81616211 285.84451294 409.05331421
151.80928040 285.84170532 409.04956055
116.58253479 269.41253662 477.10812378
116.56766510 269.41159058 477.09506226
116.57014465 269.42449951 477.10595703
116.56658936 269.42300415 477.09002686
126.65907288 221.25500488 467.97848511
126.65008545 221.25897217 467.98196411
126.65483093 221.26359558 467.97799683
126.65804291 221.26489258 467.97421265
153.16133118 283.53613281 460.12799072
153.13864136 283.53765869 460.12234497
153.15429688 283.53549194 460.13046265
153.14201355 283.53454590 460.12066650
146.41117859 301.65118408 466.79611206
146.39564514 301.64880371 466.79919434
146.39497375 301.65338135 466.80438232
146.38900757 301.65255737 466.80340576
79.40304565 244.45736694 399.79946899
79.39375305 244.46240234 399.79647827
79.40029907 244.47004700 399.80361938
79.39851379 244.46670532 399.80267334
156.43734741 312.26754761 431.47540283
156.42312622 312.27185059 431.46716309
156.43083191 312.26660156 431.48004150
156.42578125 312.26562500 431.47491455
92.93817139 238.75099182 506.46981812
92.92599487 238.75474548 506.47027588
92.92785645 238.75151062 506.47857666
92.92683411 238.75929260 506.47238159
136.83308411 280.19863892 401.86889648
136.81469727 280.20358276 401.86309814
136.83116150 280.20007324 401.87802124
136.82554626 280.19888306 401.87319946
99.98770142 273.25332642 402.54336548
99.96975708 273.26284790 402.53265381
99.99207306 273.26168823 402.55215454
99.98500824 273.26351929 402.54327393
104.17902374 247.27030945 474.31307983
104.16788483 247.27091980 474.30957031
104.16989899 247.28146362 474.31686401
104.17168427 247.28349304 474.30862427
126.36705017 268.13369751 391.90252686
126.34587097 268.13946533 391.89996338
126.36526489 268.14556885 391.91220093
126.35684204 268.14474487 391.90887451
66.38957977 220.99258423 466.65594482
66.37857056 221.00006104 466.65359497
66.38731384 221.00036621 466.66464233
66.38684082 221.00398254 466.65655518
135.62437439 284.92358398 456.10656738
135.60467529 284.92373657 456.10330200
135.60826111 284.92913818 456.10708618
135.59910583 284.92971802 456.09786987
76.66584015 249.41860962 472.88796997
76.65176392 249.42553711 472.87677002
76.66207886 249.42619324 472.89486694
76.65869904 249.42991638 472.88006592
79.87490082 255.04939270 464.28851318
79.85960388 255.05661011 464.28390503
79.87155151 255.06001282 464.29644775
79.86726379 255.06587219 464.28671265
100.64169312 277.79147339 480.19393921
100.62494659 277.79797363 480.19018555
100.63479614 277.79504395 480.20367432
100.62904358 277.80218506 480.19436646
146.46220398 264.94506836 439.10183716
146.44177246 264.94860840 439.08920288
146.43998718 264.95892334 439.09857178
146.43579102 264.95635986 439.08331299
130.82725525 216.09649658 451.87106323
130.81690979 216.09974670 451.86941528
130.81561279 216.10791016 451.87277222
130.82209778 216.10762024 451.86410522
90.18537140 264.72900391 477.03439331
90.16984558 264.73571777 477.02423096
90.17875671 264.73773193 477.04367065
90.17549133 264.74377441 477.02908325
76.57740784 256.92825317 417.67300415
76.56938171 256.93350220 417.66601562
76.57341003 256.93038940 417.67770386
76.57234192 256.92950439 417.67199707
73.09146881 244.66516113 410.65789795
73.08373260 244.66934204 410.65103149
73.08466339 244.67228699 410.65979004
73.08458710 244.66967773 410.65441895
65.49974823 214.98872375 444.72351074
65.48889923 214.99287415 444.72286987
65.49129486 214.99697876 444.73153687
65.49010468 214.99528503 444.72692871
87.85278320 242.06997681 390.05148315
87.84048462 242.07464600 390.05203247
87.85205078 242.07998657 390.05935669
87.84801483 242.07772827 390.06192017
71.23565674 240.28028870 440.85324097
71.22592163 240.28649902 440.84713745
71.22835541 240.28646851 440.85638428
71.22731018 240.28886414 440.84756470
120.55895996 288.83157349 422.16958618
120.54565430 288.83624268 422.16244507
120.55032349 288.83044434 422.16830444
120.54697418 288.82873535 422.16201782
161.23490906 250.10974121 438.18441772
161.21374512 250.11399841 438.18203735
161.22253418 250.11015320 438.19430542
161.21954346 250.11048889 438.18710327
117.00687408 279.61492920 476.72384644
116.99150085 279.61560059 476.72805786
116.99469757 279.61560059 476.72879028
116.98979187 279.61862183 476.72738647
91.40629578 274.51138306 428.54861450
91.39334106 274.51968384 428.54379272
91.40348816 274.51162720 428.54672241
91.39886475 274.51440430 428.54046631
104.54330444 273.72509766 486.60620117
104.53062439 273.72778320 486.60934448
104.53392792 273.72772217 486.62026978
104.53288269 273.73391724 486.61715698
88.36639404 264.93682861 463.21530151
88.35224915 264.94223022 463.21060181
88.36306000 264.93960571 463.22286987
88.35958099 264.94357300 463.21292114
72.60357666 237.24057007 499.29608154
72.59172058 237.24742126 499.28997803
72.60155487 237.24810791 499.30133057
72.60139465 237.25413513 499.28967285
119.84893799 296.47891235 441.05859375
119.83665466 296.48773193 441.04980469
119.83811951 296.48352051 441.05606079
119.83501434 296.48718262 441.04800415
161.27621460 284.79302979 459.88983154
161.25526428 284.79238892 459.88592529
161.26683044 284.79144287 459.89300537
161.25657654 284.79000854 459.88565063
107.40523529 285.90969849 429.58666992
107.39048004 285.91854858 429.57650757
107.40365601 285.91268921 429.58462524
107.39752960 285.91525269 429.57586670
68.39025879 229.15264893 472.56878662
68.38088989 229.15771484 472.55810547
68.38673401 229.16026306 472.57839966
68.38811493 229.16342163 472.56234741
98.18411255 232.68124390 477.55004883
98.17633057 232.68186951 477.55072021
98.18031311 232.69194031 477.55688477
98.18331909 232.69424438 477.55212402
90.68018341 274.84774780 442.38403320
90.66683960 274.85516357 442.37521362
90.67501831 274.84780884 442.38531494
90.66973114 274.85076904 442.37612915
102.83181000 259.30773926 490.79544067
102.81999207 259.30822754 490.79495239
102.82133484 259.31683350 490.80633545
102.82061768 259.32009888 490.79922485
107.33056641 231.60911560 465.44323730
107.31854248 231.61148071 465.43820190
107.31932068 231.62872314 465.44445801
107.32138062 231.63150024 465.43420410
118.39225006 271.00680542 392.80215454
118.37496948 271.01422119 392.80068970
118.38820648 271.02459717 392.80468750
118.38346863 271.02658081 392.80203247
147.25384521 278.40548706 462.09591675
147.22994995 278.40869141 462.09002686
147.24293518 278.40274048 462.10324097
147.23095703 278.40283203 462.09326172
145.85885620 295.67813110 461.50286865
145.83593750 295.67956543 461.49954224
145.84152222 295.67813110 461.51101685
145.82978821 295.67926025 461.50378418
69.36159515 217.60079956 428.23434448
69.35407257 217.60473633 428.23422241
69.35041046 217.60630798 428.23968506
69.35043335 217.60348511 428.23611450
95.20050812 236.36360168 492.94100952
95.18790436 236.36416626 492.93264771
95.19648743 236.36877441 492.95745850
95.19632721 236.36813354 492.94726562
92.97129059 249.93788147 389.54626465
92.95726013 249.94453430 389.54788208
92.96638489 249.94577026 389.55285645
92.95944214 249.94517517 389.55459595
73.89959717 255.03219604 426.27780151
73.89006042 255.03945923 426.26672363
73.89488983 255.03500366 426.28247070
73.89370728 255.03576660 426.27075195
154.84530640 255.41488647 466.83117676
154.83233643 255.41601562 466.83450317
154.83929443 255.41090393 466.83947754
154.83720398 255.41050720 466.83706665
74.66996002 239.67654419 404.05139160
74.65997314 239.68156433 404.04815674
74.66737366 239.68478394 404.05718994
74.66552734 239.68106079 404.05480957
149.46051025 254.00762939 445.07766724
149.44003296 254.01106262 445.08038330
149.44999695 254.01387024 445.08087158
149.44253540 254.01275635 445.07681274
123.50392151 298.26040649 456.34912109
123.48986053 298.26736450 456.34503174
123.48884583 298.25744629 456.35336304
123.48425293 298.26226807 456.34741211
119.09809875 252.39019775 473.15243530
119.07975769 252.39048767 473.14392090
119.08464050 252.40486145 473.15774536
119.07836914 252.40480042 473.14556885
77.90819550 254.31942749 456.76394653
77.89215088 254.32736206 456.75592041
77.90553284 254.32826233 456.77099609
77.90029907 254.33392334 456.75872803
77.34192657 246.24574280 495.83999634
77.32913208 246.25112915 495.83224487
77.33715820 246.24885559 495.84512329
77.33587646 246.25566101 495.83169556
95.47326660 246.64596558 477.73968506
95.46389771 246.64730835 477.73620605
95.46804810 246.65661621 477.73757935
95.47114563 246.65884399 477.73077393
106.60301208 257.92935181 382.32244873
106.58280182 257.93841553 382.31811523
106.60108948 257.93786621 382.32745361
106.59405518 257.93832397 382.32461548
157.24731445 310.83911133 463.24401855
157.23052979 310.83666992 463.24554443
157.23344421 310.83865356 463.24911499
157.22650146 310.83697510 463.24780273
161.38241577 299.43615723 465.13632202
161.36259460 299.43493652 465.13259888
161.37149048 299.43353271 465.14141846
161.36167908 299.43194580 465.13571167
72.94219208 245.83920288 450.20855713
72.92987061 245.84568787 450.19964600
72.93857574 245.84747314 450.21533203
72.93577576 245.84986877 450.20269775
97.45022583 249.90840149 491.22317505
97.43884277 249.90989685 491.21417236
97.44333649 249.91401672 491.23651123
97.44311523 249.91516113 491.22332764
122.71200562 273.83972168 472.25601196
122.69718933 273.83764648 472.24523926
122.70293427 273.84783936 472.25265503
122.69814301 273.84585571 472.23895264
96.69662476 278.39193726 459.05468750
96.68032837 278.39837646 459.04330444
96.68921661 278.39465332 459.05847168
96.68334961 278.39874268 459.04507446
136.50521851 304.67285156 449.63949585
136.49050903 304.67712402 449.63369751
136.49067688 304.67855835 449.64648438
136.48532104 304.68057251 449.63803101
70.14219666 231.28366089 427.37762451
70.13226318 231.28996277 427.37057495
70.13734436 231.28829956 427.38589478
70.13471985 231.28918457 427.37738037
126.52764130 257.41058350 471.16702271
126.50920105 257.41085815 471.15957642
126.51829529 257.42343140 471.17214966
126.51202393 257.42248535 471.15991211
154.71856689 293.94738770 412.09881592
154.70687866 293.94894409 412.09234619
154.72001648 293.94863892 412.09970093
154.71705627 293.94485474 412.09524536
111.49575806 248.54144287 475.79071045
111.47891998 248.54512024 475.78372192
111.48872375 248.54919434 475.79751587
111.48376465 248.55041504 475.78652954
106.10945892 289.14575195 465.40734863
106.09500885 289.15252686 465.39907837
106.09587097 289.15264893 465.41040039
106.09222412 289.15777588 465.39874268
129.73869324 279.66604614 404.07687378
129.72000122 279.67135620 404.07217407
129.74281311 279.67388916 404.08615112
129.73460388 279.67263794 404.08206177
110.78135681 256.99246216 479.64108276
110.76530457 256.99215698 479.62832642
110.77512360 256.99841309 479.64401245
110.77024841 256.99703979 479.62811279
72.48887634 237.34780884 481.17999268
72.47861481 237.35488892 481.17279053
72.48475647 237.35705566 481.18780518
72.48588562 237.36192322 481.17462158
113.42633057 235.06834412 463.05224609
113.41134644 235.06964111 463.04193115
113.40766907 235.08029175 463.06149292
113.40542603 235.08003235 463.04647827
121.59107208 236.17015076 464.76892090
121.57785797 236.16970825 464.76412964
121.58097076 236.18391418 464.77362061
121.58194733 236.18542480 464.76480103
71.42403412 244.84638977 435.04870605
71.41455078 244.85296631 435.04223633
71.41674042 244.85282898 435.05075073
71.41551208 244.85433960 435.04122925
104.81648254 288.60498047 456.66894531
104.80341339 288.60977173 456.65951538
104.80575562 288.60711670 456.67233276
104.80198669 288.60946655 456.66198730
101.73136902 285.42675781 448.77554321
101.71762085 285.43505859 448.76379395
101.72555542 285.42977905 448.78109741
101.72000122 285.43389893 448.76864624
118.76904297 222.37959290 473.80899048
118.75192261 222.38414001 473.81079102
118.76094055 222.38078308 473.82098389
118.75831604 222.38491821 473.81546021
156.40463257 251.34715271 445.65029907
156.38426208 251.35069275 445.65277100
156.39772034 251.34532166 445.65969849
156.39205933 251.34399414 445.65600586
73.15476227 230.01988220 404.89865112
73.14696503 230.02494812 404.89758301
73.14943695 230.02754211 404.90469360
73.14810944 230.02519226 404.90350342
78.13244629 261.04098511 435.30538940
78.12144470 261.04772949 435.29656982
78.12840271 261.04324341 435.30462646
78.12593079 261.04565430 435.29431152
117.78651428 293.14611816 433.87048340
117.77300262 293.15191650 433.86199951
117.77856445 293.14794922 433.86489868
117.77381134 293.14730835 433.85827637
128.98986816 284.05416870 465.97296143
128.97564697 284.05099487 465.97723389
128.97753906 284.05911255 465.97927856
128.97216797 284.05801392 465.97814941
150.41661072 268.92935181 463.80651855
150.39527893 268.93292236 463.80493164
150.40766907 268.92877197 463.81185913
150.39773560 268.93060303 463.80551147
121.95089722 295.57754517 462.94573975
121.93525696 295.58288574 462.94290161
121.93800354 295.57577515 462.95053101
121.93278503 295.58013916 462.94439697
132.98265076 252.60420227 470.50448608
132.96278381 252.60478210 470.49908447
132.97734070 252.61288452 470.51461792
132.97061157 252.61184692 470.50442505
82.21486664 240.22344971 394.03048706
82.20353699 240.22859192 394.02920532
82.21373749 240.23034668 394.03561401
82.21112061 240.22734070 394.03472900
122.17938232 241.66024780 470.20101929
122.16213989 241.66387939 470.19430542
122.16970825 241.66738892 470.21005249
122.16465759 241.66935730 470.19763184
135.75646973 288.90014648 450.21255493
135.73703003 288.90386963 450.21469116
135.74105835 288.90283203 450.21795654
135.73133850 288.90637207 450.21533203
109.97563171 290.73406982 439.99655151
109.96321106 290.74121094 439.98687744
109.97102356 290.73327637 439.99725342
109.96677399 290.73452759 439.98806763
82.62426758 251.46771240 400.55047607
82.61404419 251.47331238 400.54992676
82.62031555 251.48019409 400.55505371
82.61726379 251.47804260 400.55471802
66.82034302 229.39474487 458.49093628
66.81066132 229.40083313 458.48141479
66.81792450 229.40284729 458.49743652
66.81861115 229.40429688 458.48529053
153.55552673 303.09933472 420.64962769
153.54107666 303.10302734 420.64187622
153.55690002 303.10162354 420.65264893
153.55151367 303.09881592 420.64553833
144.17863464 242.25025940 468.29861450
144.16064453 242.25198364 468.29577637
144.17271423 242.25495911 468.31018066
144.16874695 242.25541687 468.30078125
155.22979736 314.44909668 449.14340210
155.21238708 314.45159912 449.14178467
155.21546936 314.44958496 449.15002441
155.21009827 314.45117188 449.14755249
71.33303833 228.97787476 415.22039795
71.32707977 228.98245239 415.21899414
71.32415009 228.98548889 415.22354126
71.32488251 228.98271179 415.22180176
135.47180176 244.43739319 470.44079590
135.45097351 244.43905640 470.43560791
135.46154785 244.44152832 470.45031738
135.45402527 244.44233704 470.44024658
86.06484222 250.49465942 502.14694214
86.05192566 250.49827576 502.13708496
86.06108093 250.49481201 502.15377808
86.05996704 250.50120544 502.13955688
148.84603882 311.59298706 456.58981323
148.82823181 311.59527588 456.58377075
148.83346558 311.59295654 456.59484863
148.82583618 311.59347534 456.58789062
117.16226959 294.03314209 467.83932495
117.14836121 294.03744507 467.83871460
117.14760590 294.03079224 467.84286499
117.14394379 294.03570557 467.83880615
84.89431763 264.01150513 409.76312256
84.88327026 264.01806641 409.75918579
84.89173889 264.01385498 409.77020264
84.88815308 264.01361084 409.76641846
148.11007690 253.80961609 463.64331055
148.09268188 253.81071472 463.64428711
148.09669495 253.80892944 463.64770508
148.08995056 253.80784607 463.64251709
115.32975769 273.65771484 400.50839233
115.30711365 273.66619873 400.50463867
115.32875824 273.66360474 400.52261353
115.31710815 273.66537476 400.51687622
86.20251465 261.69763184 469.76382446
86.18719482 261.70626831 469.75128174
86.19810486 261.70758057 469.76971436
86.19197845 261.71398926 469.75274658
134.40037537 226.43513489 462.77343750
134.39173889 226.44023132 462.77264404
134.39570618 226.44071960 462.77960205
134.39973450 226.44277954 462.77114868
141.01159668 295.14813232 420.47760010
140.99531555 295.15136719 420.47198486
141.00752258 295.14666748 420.48080444
141.00021362 295.14443970 420.47525024
141.54205322 262.06817627 464.78091431
141.52809143 262.06744385 464.78259277
141.53218079 262.06607056 464.78820801
141.52842712 262.06362915 464.78302002
112.48367310 285.94390869 422.93261719
112.46714020 285.95239258 422.92395020
112.47947693 285.94738770 422.93057251
112.47205353 285.94891357 422.92309570
116.47394562 288.32766724 474.52127075
116.45858765 288.32989502 474.52020264
116.46609497 288.32489014 474.52844238
116.45935822 288.32873535 474.52233887
99.86695862 280.50808716 467.22595215
99.84767151 280.51788330 467.22039795
99.85480499 280.51480103 467.22982788
99.84712219 280.52392578 467.22045898
158.51426697 245.90649414 459.82086182
158.50169373 245.90635681 459.83056641
158.50427246 245.90048218 459.82305908
158.50279236 245.89807129 459.82479858
125.05127716 266.02856445 471.32510376
125.03414154 266.02597046 471.31674194
125.04537964 266.03927612 471.32879639
125.03890228 266.03677368 471.31594849
116.55847931 262.45108032 384.33435059
116.53707123 262.45950317 384.33145142
116.55970764 262.45959473 384.34164429
116.55097961 262.46166992 384.33850098
163.78532410 275.41436768 464.35754395
163.76455688 275.41381836 464.35708618
163.77862549 275.40979004 464.36968994
163.76933289 275.40783691 464.36465454
88.79344940 253.08488464 491.53741455
88.77992249 253.09074402 491.53103638
88.78625488 253.09027100 491.54443359
88.78460693 253.09831238 491.53314209
91.11594391 240.19485474 482.06713867
91.10755157 240.19570923 482.06607056
91.10689545 240.20587158 482.06817627
91.10943604 240.20825195 482.06192017
159.36042786 268.30630493 464.70581055
159.34378052 268.30639648 464.71069336
159.35192871 268.30355835 464.71319580
159.34713745 268.30145264 464.71075439
91.03215027 240.93077087 490.01306152
91.02487946 240.93179321 490.01843262
91.02732086 240.93760681 490.01812744
91.03181458 240.94036865 490.01763916
72.90051270 251.73200989 420.16125488
72.89002991 251.73751831 420.15463257
72.89379120 251.73455811 420.16064453
72.89139557 251.73440552 420.15393066
69.13250732 233.71769714 445.83044434
69.12274170 233.72265625 445.82531738
69.12785339 233.72326660 445.83816528
69.12525940 233.72586060 445.83078003
110.72359467 225.65019226 474.88793945
110.70789337 225.65385437 474.88604736
110.71327972 225.65415955 474.90319824
110.71055603 225.65684509 474.89532471
95.63761902 271.42794800 478.30917358
95.62214661 271.43338013 478.30090332
95.62715149 271.43237305 478.31765747
95.62326813 271.43753052 478.30538940
102.97218323 271.09124756 393.82589722
102.95520020 271.09924316 393.81860352
102.96887970 271.09869385 393.83633423
102.96232605 271.09872437 393.83068848
148.60063171 310.10083008 434.33917236
148.58511353 310.10522461 434.33322144
148.58741760 310.10244751 434.34378052
148.58157349 310.10278320 434.33798218
134.79234314 276.32794189 465.08157349
134.77357483 276.32690430 465.07345581
134.78253174 276.33334351 465.08404541
134.77592468 276.33099365 465.07391357
70.60057831 222.52566528 417.67550659
70.59259033 222.53111267 417.67236328
70.59063721 222.53277588 417.67974854
70.59101868 222.53144836 417.67575073
98.68232727 230.82667542 491.54162598
98.66857910 230.82720947 491.53781128
98.67764282 230.83267212 491.55529785
98.67587280 230.83370972 491.54498291
69.19963074 225.19503784 430.64865112
69.18917847 225.20056152 430.64334106
69.19089508 225.20002747 430.65435791
69.18849945 225.19894409 430.64657593
127.29026794 225.52200317 462.91293335
127.28153992 225.52609253 462.91299438
127.28540802 225.53231812 462.91339111
127.28781128 225.53323364 462.90676880
89.47888184 260.68460083 396.00195312
89.46803284 260.69024658 395.99612427
89.47902679 260.69296265 396.00955200
89.47693634 260.69073486 396.00619507
143.12258911 270.67559814 396.01129150
143.10292053 270.68118286 396.00967407
143.13067627 270.67974854 396.02362061
143.12469482 270.67901611 396.02166748
