ply
format ascii 1.0
element vertex 2048
property float x
property float y
property float z
end_header
315.75912476 202.97204590 429.28118896
323.50421143 203.93585205 437.28799438
321.28732300 200.53642273 424.84631348
327.95318604 200.19523621 430.64053345
331.61636353 216.58233643 433.85812378
337.59658813 224.63671875 439.85565186
333.99450684 214.47207642 429.10745239
337.41937256 219.62611389 434.11657715
325.44366455 222.08726501 454.47100830
327.06170654 233.46592712 461.86465454
331.24032593 219.05064392 448.56973267
329.79067993 225.28285217 455.42373657
299.13040161 202.98384094 426.27810669
302.56066895 205.71873474 428.53665161
305.58322144 201.04809570 423.71298218
306.88525391 201.76399231 424.85900879
324.03430176 246.93724060 458.96530151
322.83609009 255.25225830 464.98715210
330.40277100 244.20639038 455.99411011
327.90710449 249.97628784 461.00781250
139.59222412 158.74403381 512.87420654
129.58911133 165.68348694 516.27313232
147.29190063 152.72055054 506.03912354
135.49148560 158.96247864 505.81365967
110.57929993 195.49794006 514.38464355
113.87870026 207.19238281 519.24993896
106.43638611 203.93731689 509.45553589
110.44952393 216.28492737 512.39483643
314.96701050 238.32220459 433.52508545
317.02117920 246.94326782 438.13626099
321.99053955 234.55360413 434.20532227
320.70596313 241.02687073 436.01153564
125.46297455 176.31892395 518.58129883
117.35559845 187.18283081 520.40753174
124.84745026 173.56347656 508.85610962
116.12690735 184.33438110 509.60034180
304.22076416 215.64193726 439.03100586
308.79730225 222.11746216 445.82879639
310.07675171 215.28263855 436.72158813
310.26977539 218.28910828 441.55062866
115.50065613 167.29531860 490.27261353
110.07653809 177.74182129 494.25924683
116.10678864 164.91621399 478.38946533
109.47986603 174.97987366 481.35580444
125.90146637 163.31774902 506.30316162
117.73893738 172.31730652 508.75042725
126.79850006 159.08996582 494.87313843
117.45722198 167.50122070 495.96508789
111.99899292 184.18801880 509.06472778
109.66043091 195.51045227 514.15930176
108.47492981 183.95443726 498.50469971
105.85681915 195.26605225 502.29504395
155.78788757 144.24258423 488.15435791
147.61886597 145.20578003 494.97808838
165.54658508 143.91598511 479.62631226
156.41943359 142.91175842 483.63619995
132.13273621 152.99102783 491.76220703
122.31346893 159.97158813 493.49673462
135.95661926 150.17070007 480.87664795
125.23329163 156.30882263 481.00372314
148.32479858 142.23025513 437.03631592
140.00221252 147.94989014 436.44317627
155.20693970 142.19566345 429.96765137
147.56130981 146.67921448 428.71591187
104.78730774 194.66801453 496.86190796
104.28660583 205.82389832 502.57504272
103.68912506 197.24394226 486.58657837
103.07677460 208.65505981 491.25936890
105.15497589 209.72314453 503.45816040
109.11728668 220.43350220 508.67816162
105.30854034 219.56620789 496.99237061
110.74373627 230.58799744 500.66595459
157.74006653 138.08300781 455.19137573
147.36279297 141.92147827 453.39434814
164.32643127 138.27658081 447.58279419
154.52014160 141.25372314 445.14422607
147.23812866 142.24264526 471.96844482
137.00360107 148.09851074 471.23205566
153.03668213 140.70431519 463.63348389
142.85838318 145.48092651 462.05624390
125.90552521 155.15209961 465.95776367
118.67733002 163.53091431 468.15734863
130.74270630 153.08876038 455.65618896
122.32495117 160.70841980 456.70166016
137.77507019 147.82220459 453.43807983
129.75312805 154.81896973 454.69119263
143.91210938 145.84320068 444.59805298
135.46192932 151.87751770 444.68441772
166.69308472 141.34591675 471.07034302
156.30174255 141.29833984 472.55731201
175.59530640 141.30374146 464.02911377
163.96357727 140.03442383 463.23223877
295.37374878 280.10174561 459.11679077
292.76971436 286.48858643 465.83996582
303.28674316 277.02429199 458.86212158
298.59289551 282.24963379 462.75778198
169.52554321 138.74827576 438.69708252
158.85520935 140.49017334 434.70016479
177.26037598 141.40719604 432.02398682
167.14697266 142.99960327 428.02923584
137.78025818 154.47860718 427.08441162
131.05548096 162.61300659 428.67245483
145.53834534 151.71450806 417.75717163
137.84947205 159.09191895 418.72235107
179.30053711 140.85025024 453.56460571
170.74111938 138.54034424 453.92486572
187.35493469 143.53216553 446.93295288
177.65246582 140.63180542 445.40789795
157.76185608 151.15078735 501.65640259
151.53829956 158.90238953 510.44833374
172.30041504 154.09442139 496.53375244
166.24665833 161.71406555 504.38265991
304.42910767 233.64678955 451.77960205
303.79647827 244.25872803 456.60757446
312.55755615 233.06823730 449.10363770
308.22985840 238.66773987 453.30630493
171.52688599 146.96588135 487.96752930
169.28051758 152.19128418 499.44784546
184.12864685 150.89898682 484.19555664
182.48556519 155.42039490 495.23898315
298.48233032 253.15892029 446.15005493
297.88970947 263.24313354 450.40707397
306.14456177 252.15509033 445.31439209
302.06478882 258.02313232 448.30072021
283.29504395 212.75111389 432.32147217
284.89053345 218.71188354 435.07693481
290.60702515 210.99272156 430.98971558
288.34240723 213.64814758 432.82678223
157.64788818 147.37190247 418.34841919
148.63536072 153.18775940 415.39724731
168.04510498 149.42660522 412.60394287
158.58486938 154.63145447 409.25262451
268.45071411 298.39874268 487.61993408
266.50631714 296.97262573 498.22213745
279.49331665 296.82366943 485.51696777
274.64630127 297.20410156 492.22689819
124.10350037 162.80758667 444.65594482
118.70804596 172.10342407 447.68432617
130.24377441 158.79336548 434.12619019
123.70770264 167.69558716 436.49179077
103.89918518 218.96420288 493.88110352
108.02803040 229.22901917 500.47341919
106.88389587 228.42025757 486.88427734
112.06820679 238.43634033 492.62011719
182.96130371 144.59146118 471.81005859
181.74795532 147.43936157 483.43310547
193.54783630 148.61581421 465.80819702
192.82031250 150.41191101 476.65695190
110.41529083 175.72673035 469.41140747
105.66466522 186.13212585 474.32482910
114.97779083 172.83285522 456.35437012
108.93483734 183.52590942 460.53945923
254.02546692 297.24859619 501.86935425
249.13874817 293.22705078 508.54061890
265.15649414 295.43029785 502.69393921
258.91616821 293.99243164 506.76815796
286.87377930 228.72656250 439.80062866
286.59155273 237.68394470 442.43334961
293.68670654 228.91734314 438.46670532
290.15954590 233.22042847 440.60379028
102.72277832 199.95718384 479.48532104
102.85579681 211.52616882 486.74487305
104.34449768 199.98313904 466.30068970
104.55442810 212.08634949 473.27151489
187.56765747 146.89184570 451.41482544
191.57579041 145.59304810 462.47988892
193.91841125 151.73983765 445.38052368
199.32658386 149.76037598 456.09088135
139.55847168 160.37588501 413.05404663
133.50578308 169.83395386 413.84997559
150.67434692 157.87997437 404.11883545
143.38128662 166.66540527 404.45629883
181.12870789 146.28851318 426.30844116
170.81631470 147.90657043 420.11627197
190.78143311 151.79994202 421.86706543
180.33494568 153.71838379 415.39370728
188.77767944 149.02384949 437.62756348
186.04710388 146.16067505 439.43191528
196.57685852 155.41934204 432.75039673
193.06117249 151.79119873 433.23135376
155.21537781 166.68736267 506.24307251
148.04991150 178.17633057 509.59979248
165.30715942 173.22560120 501.93362427
158.25848389 185.09091187 504.42736816
115.36631775 240.88093567 489.95602417
121.16054535 245.01734924 496.98739624
124.16485596 254.55111694 489.82192993
129.41836548 255.84989929 495.22683716
198.74980164 156.09341431 483.39944458
196.58425903 164.95237732 492.57418823
207.70013428 162.89337158 479.52041626
205.17395020 170.31188965 488.68002319
111.43619537 185.46542358 454.24420166
108.70372009 196.93060303 459.43176270
115.80728149 181.44686890 442.20046997
112.22887421 192.82337952 446.80621338
126.85139465 195.95719910 516.09667969
118.16113281 206.13548279 515.76446533
134.46023560 202.97341919 505.80081177
126.23715210 213.25985718 504.64883423
230.16058350 297.46350098 500.84313965
225.75860596 291.91906738 508.48223877
243.06945801 297.11068726 503.51126099
236.41279602 294.40527344 507.74606323
265.95639038 292.25268555 462.10278320
263.75894165 295.52587891 471.48733521
276.33013916 292.06283569 462.95941162
270.56781006 294.18051147 467.82077026
176.06019592 163.42338562 497.86569214
169.71606445 174.18997192 503.46310425
188.33427429 168.62283325 495.34112549
181.83064270 179.43267822 500.41079712
276.73034668 267.40158081 471.46643066
275.31365967 277.49121094 477.31042480
284.84313965 269.59915161 467.66201782
280.04107666 274.06866455 472.17666626
144.91873169 185.81628418 513.79089355
136.79188538 196.89431763 514.38293457
154.35733032 192.78845215 507.07476807
146.16885376 204.40286255 507.02880859
270.14953613 275.08078003 443.31997681
267.30325317 283.15573120 446.35769653
279.28289795 275.21368408 445.61541748
273.65063477 280.06112671 446.69671631
203.66839600 291.38702393 503.77517700
198.83947754 285.64144897 508.38418579
214.69345093 291.18804932 510.75408936
208.85757446 287.76751709 513.13427734
120.27622986 174.12600708 432.16091919
116.11845398 185.08291626 435.49682617
127.28813934 170.32806396 420.68215942
122.43906403 180.97354126 423.43814087
156.83836365 165.96083069 398.94845581
149.65559387 175.28047180 397.20953369
168.76422119 166.56425476 394.59735107
160.96505737 175.50325012 392.04846191
205.15873718 157.70620728 464.66641235
207.64666748 164.27688599 474.55920410
210.14961243 164.98413086 459.09063721
212.62767029 170.59452820 469.08508301
167.07971191 182.78015137 506.54742432
160.28517151 194.45080566 507.77700806
177.59541321 188.13316345 504.27496338
170.22015381 199.98548889 504.76742554
250.88049316 268.35263062 495.11981201
248.12289429 276.54760742 499.61822510
260.08703613 271.25717163 491.97335815
254.02105713 273.73239136 495.54391479
107.28373718 228.06846619 478.92434692
110.14570618 237.76661682 488.76525879
114.88501740 235.73355103 468.07287598
116.64880371 244.09074402 478.70104980
269.22003174 226.91679382 460.02966309
268.49981689 235.15394592 467.36489868
276.03396606 229.23683167 456.27471924
271.91485596 231.60304260 462.30197144
319.59222412 194.11355591 429.13751221
315.72442627 194.10940552 429.19396973
319.78155518 194.12541199 429.10360718
319.58142090 194.07569885 429.14443970
331.80456543 210.47178650 428.46575928
328.07330322 210.47662354 428.52297974
331.92626953 210.48037720 428.43899536
331.84918213 210.43269348 428.47708130
324.34002686 199.18780518 435.49911499
320.62164307 199.18165588 435.55850220
324.50549316 199.20256042 435.48239136
324.33035278 199.15469360 435.52770996
317.79895020 205.86831665 421.50808716
313.58236694 205.87409973 421.52502441
318.00808716 205.90240479 421.45660400
317.76553345 205.85906982 421.47467041
333.67065430 216.86074829 439.71878052
330.04736328 216.86087036 439.76074219
333.78936768 216.88887024 439.70343018
333.74090576 216.84495544 439.73654175
322.42196655 219.25186157 446.84140015
318.53277588 219.24368286 446.87301636
322.59466553 219.25146484 446.82107544
322.43234253 219.21769714 446.85275269
324.51663208 217.71041870 424.99591064
320.17687988 217.71234131 425.00524902
324.74121094 217.70538330 424.97253418
324.52590942 217.66262817 424.97915649
331.78900146 227.92744446 432.91333008
327.71328735 227.93394470 432.94659424
331.96508789 227.90437317 432.92358398
331.81201172 227.87153625 432.94799805
335.47952271 231.77824402 449.45474243
331.76809692 231.79090881 449.49273682
335.59805298 231.78800964 449.46005249
335.52685547 231.76376343 449.49145508
309.36651611 195.82026672 425.97372437
305.31689453 195.79907227 426.00216675
309.63934326 195.83322144 425.94110107
309.36010742 195.77642822 425.96438599
305.52148438 212.61186218 437.09747314
301.40780640 212.62249756 437.10116577
305.80023193 212.61819458 437.07730103
305.50231934 212.59849548 437.09521484
334.51171875 219.94900513 453.18933105
331.02902222 219.95422363 453.25524902
334.64031982 219.95991516 453.21569824
334.57934570 219.92756653 453.26013184
323.20324707 228.24810791 452.38946533
319.20489502 228.25013733 452.42642212
323.40530396 228.24705505 452.39678955
323.23132324 228.22019958 452.43847656
328.69937134 238.92245483 462.42736816
324.83410645 238.93890381 462.45791626
328.85333252 238.91932678 462.46282959
328.68621826 238.91252136 462.49624634
328.99267578 249.56146240 454.80300903
325.07189941 249.58854675 454.82812500
329.12658691 249.54142761 454.80480957
329.04150391 249.54408264 454.84060669
317.74423218 209.23428345 437.56958008
313.89743042 209.22598267 437.59158325
317.95968628 209.21595764 437.57360840
317.73458862 209.17762756 437.58859253
329.96768188 239.97294617 440.91003418
325.77215576 239.99275208 440.92028809
330.14685059 239.95046997 440.91186523
329.97866821 239.93751526 440.92337036
315.20150757 220.27088928 427.69824219
311.14422607 220.27153015 427.71749878
315.41674805 220.27299500 427.67248535
315.26562500 220.24276733 427.69598389
302.66320801 205.24320984 425.88442993
298.45126343 205.22898865 425.89379883
302.97476196 205.26522827 425.85406494
302.62438965 205.22134399 425.86557007
296.27996826 210.42807007 434.11602783
292.28326416 210.41416931 434.12231445
296.54919434 210.42486572 434.07885742
296.18423462 210.39299011 434.09381104
303.58584595 241.78021240 456.20147705
299.50344849 241.81317139 456.17657471
303.81835938 241.76788330 456.20208740
303.58148193 241.78816223 456.20803833
317.29226685 233.82049561 433.92266846
312.92855835 233.82366943 433.92837524
317.51055908 233.78900146 433.89553833
317.25823975 233.77062988 433.91143799
290.52801514 216.49873352 440.55947876
286.75817871 216.49255371 440.55743408
290.78414917 216.49763489 440.54458618
290.48110962 216.47749329 440.55020142
318.54824829 239.92523193 454.64120483
314.48117065 239.93435669 454.66394043
318.76315308 239.91796875 454.65722656
318.54824829 239.90875244 454.68591309
302.53775024 224.91369629 436.20184326
298.38177490 224.91702271 436.21221924
302.81954956 224.89633179 436.18670654
302.55767822 224.88002014 436.21511841
297.64868164 223.16621399 445.19580078
293.72744751 223.16998291 445.20657349
297.90249634 223.14425659 445.18502808
297.62164307 223.13459778 445.21182251
309.61492920 227.86991882 448.20086670
305.81118774 227.86744690 448.23306274
309.82138062 227.84278870 448.21679688
309.62695312 227.82728577 448.25506592
288.74487305 239.15802002 457.14318848
284.82507324 239.17903137 457.14288330
289.00839233 239.16488647 457.12954712
288.77932739 239.17581177 457.16137695
241.14598083 215.18832397 475.36514282
238.20399475 215.18685913 475.38314819
241.45532227 215.19740295 475.36889648
241.24055481 215.19514465 475.41073608
316.43533325 257.28744507 452.65640259
312.13439941 257.30575562 452.66070557
316.63174438 257.25765991 452.64938354
316.43838501 257.25985718 452.67324829
221.05148315 197.15850830 423.48419189
218.43931580 197.18479919 423.41833496
221.30236816 197.16157532 423.52899170
221.23693848 197.17260742 423.49661255
276.25305176 219.40548706 443.97637939
272.89801025 219.41645813 443.98147583
276.49163818 219.39492798 443.98602295
276.33123779 219.39796448 444.01303101
295.20016479 262.42593384 461.53836060
290.74548340 262.44354248 461.50326538
295.49206543 262.41857910 461.51083374
295.21087646 262.43395996 461.52734375
288.95785522 227.51226807 438.91778564
284.84024048 227.52073669 438.89813232
289.25079346 227.50761414 438.89450073
288.94491577 227.50173950 438.90728760
289.78778076 246.38847351 443.70822144
285.14981079 246.43869019 443.66516113
290.12396240 246.36900330 443.66049194
289.77786255 246.40930176 443.66317749
238.25172424 208.71542358 453.23797607
235.61618042 208.70744324 453.24200439
238.48596191 208.71331787 453.22952271
238.39552307 208.70246887 453.25515747
254.82258606 235.39657593 476.65170288
250.98069763 235.41453552 476.62832642
255.22052002 235.40124512 476.62289429
254.84953308 235.42155457 476.64962769
323.12701416 256.30865479 463.22213745
319.03811646 256.32958984 463.22317505
323.30130005 256.28500366 463.23394775
323.09942627 256.29150391 463.25216675
279.98233032 236.93197632 461.36056519
276.35391235 236.94468689 461.37542725
280.23687744 236.92395020 461.33087158
280.03085327 236.93099976 461.37423706
285.57659912 236.41896057 441.09875488
281.26654053 236.43365479 441.05847168
285.90087891 236.40679932 441.06893921
285.56509399 236.41305542 441.07363892
297.87591553 236.54251099 440.83190918
293.56707764 236.55326843 440.82080078
298.15310669 236.53021240 440.79998779
297.82427979 236.52777100 440.81286621
288.11157227 256.17034912 462.99203491
283.92514038 256.17083740 462.97097778
288.41168213 256.17047119 462.96939087
288.15515137 256.17095947 462.99343872
314.88250732 249.47639465 443.62585449
310.52456665 249.47996521 443.60833740
315.12445068 249.44184875 443.61386108
314.92181396 249.42929077 443.62030029
298.01864624 254.34159851 446.58468628
293.49572754 254.35276794 446.56466675
298.35391235 254.32604980 446.57171631
298.08450317 254.32437134 446.58969116
288.50183105 227.88487244 449.94796753
284.67092896 227.88320923 449.94497681
288.78070068 227.87512207 449.95797729
288.52557373 227.86575317 449.96557617
233.79179382 210.66188049 472.69824219
230.90881348 210.66101074 472.71557617
234.11218262 210.65260315 472.69229126
233.87457275 210.65324402 472.73202515
230.68008423 215.86523438 483.20919800
227.52694702 215.86950684 483.22085571
231.04922485 215.85238647 483.20764160
230.72439575 215.86103821 483.24731445
308.76953125 260.61511230 458.82629395
304.52502441 260.61993408 458.83969116
308.98345947 260.59677124 458.79837036
308.78631592 260.59426880 458.83322144
231.39916992 221.96942139 435.34393311
228.12457275 221.99426270 435.30364990
231.70419312 221.96340942 435.36819458
231.47291565 221.99005127 435.37020874
306.78244019 251.13633728 448.61779785
302.36026001 251.16081238 448.58062744
307.07473755 251.11145020 448.59820557
306.81854248 251.11994934 448.59729004
305.46875000 269.15924072 455.01028442
300.73263550 269.16461182 454.98907471
305.76556396 269.12423706 454.97976685
305.48574829 269.12469482 454.99819946
260.86346436 237.93690491 438.38125610
256.56869507 237.95283508 438.35379028
261.24499512 237.91113281 438.38980103
260.80764771 237.94152832 438.41088867
275.00897217 231.63624573 441.45220947
271.03970337 231.65986633 441.43496704
275.31890869 231.62705994 441.43756104
275.04830933 231.64854431 441.45529175
238.91209412 224.81542969 494.67639160
235.52165222 224.81410217 494.72882080
239.29789734 224.80967712 494.68508911
238.95010376 224.81674194 494.75415039
239.76922607 227.00338745 431.64981079
235.91073608 227.01754761 431.61312866
240.17156982 226.99049377 431.68820190
239.80882263 227.01252747 431.69946289
239.75370789 217.17262268 444.87640381
236.89201355 217.16630554 444.87145996
240.04432678 217.16506958 444.89859009
239.92700195 217.16186523 444.91931152
312.59655762 249.21055603 458.26968384
308.42062378 249.20988464 458.27081299
312.84509277 249.18785095 458.26843262
312.60321045 249.17550659 458.29055786
242.82713318 230.50648499 479.89630127
239.43730164 230.51350403 479.90481567
243.18136597 230.50701904 479.86294556
242.86848450 230.51661682 479.90649414
249.62438965 243.87974548 486.75555420
245.70559692 243.88186646 486.74475098
250.03402710 243.87161255 486.75692749
249.61262512 243.88616943 486.79162598
307.96838379 240.80215454 440.90203857
303.82788086 240.80448914 440.90026855
308.23361206 240.78436279 440.87603760
308.05065918 240.76931763 440.89208984
268.75476074 241.01838684 472.73330688
265.14843750 241.02993774 472.74795532
269.06213379 241.01060486 472.70822144
268.81427002 241.02093506 472.75152588
236.16333008 237.04064941 493.80374146
232.37646484 237.03999329 493.81286621
236.60359192 237.02406311 493.81829834
236.13945007 237.03724670 493.86709595
269.44042969 228.69218445 457.74179077
265.81698608 228.69940186 457.73052979
269.74142456 228.67266846 457.72814941
269.46017456 228.68112183 457.74954224
267.81866455 223.10176086 440.12762451
264.03527832 223.12075806 440.10510254
268.14602661 223.10273743 440.12826538
267.87207031 223.11465454 440.14395142
316.81094360 242.04092407 447.00216675
313.93743896 253.05407715 451.05313110
323.59576416 242.77195740 438.65579224
320.19903564 253.74185181 444.13424683
295.47891235 272.61499023 464.70278931
289.38729858 281.00680542 470.67651367
305.04080200 273.34820557 455.95843506
299.70941162 281.74649048 462.87084961
306.67132568 218.58959961 427.83187866
308.31427002 228.71382141 433.52987671
317.80706787 220.25714111 424.97586060
317.95346069 231.61201477 432.36193848
275.69763184 232.46362305 460.91323853
272.09478760 238.62445068 467.46554565
286.59722900 234.91128540 456.00576782
282.48678589 241.35652161 462.85113525
260.16851807 280.21734619 494.69641113
253.17822266 285.50549316 501.37957764
270.26892090 285.22647095 489.09036255
263.29162598 289.54782104 496.79003906
264.47253418 251.26007080 477.04281616
259.22225952 257.26083374 482.25741577
272.69561768 255.40318298 472.47491455
267.15661621 261.27526855 478.19345093
276.50115967 293.89404297 472.14724731
272.39825439 295.77352905 483.26422119
285.35900879 291.22204590 470.69168091
282.32131958 292.06481934 481.68750000
247.08769226 260.91921997 490.02413940
241.08149719 265.91751099 494.65695190
255.15289307 266.15679932 487.63314819
248.88932800 270.85012817 492.96020508
250.71908569 230.49221802 473.96835327
248.00149536 234.78436279 480.27734375
258.94433594 233.23846436 470.15798950
256.13104248 237.08290100 476.41506958
247.25639343 238.97511292 485.20211792
242.17373657 243.60140991 490.11175537
254.91497803 243.25778198 481.92868042
249.59657288 247.42016602 487.11947632
246.24783325 223.12612915 457.68655396
248.08908081 225.73451233 464.31130981
255.46325684 224.90290833 454.05609131
257.42819214 227.36312866 460.68951416
267.18582153 254.38299561 442.94116211
271.38281250 263.35009766 445.20944214
278.67153931 257.40771484 444.73117065
282.40783691 266.32290649 447.48770142
231.32496643 215.93092346 481.20953369
230.44793701 218.51388550 489.08657837
238.93057251 219.11245728 478.48434448
238.51449585 220.78648376 485.92449951
231.35523987 270.72467041 499.19241333
224.41255188 275.11199951 503.28881836
240.22933960 276.51242065 499.51736450
233.24555969 280.51800537 504.57623291
225.95465088 222.95175171 492.60549927
221.21911621 226.24954224 498.80416870
234.47621155 226.70454407 493.06402588
230.48794556 229.11718750 498.83444214
231.02162170 208.56161499 461.89111328
233.17742920 211.13484192 469.11279297
237.37818909 212.78131104 457.94784546
240.86360168 214.15632629 465.04843140
232.26795959 244.79988098 491.40188599
225.73187256 249.31372070 494.38064575
239.78921509 249.77116394 490.81979370
233.02386475 254.11196899 494.41552734
248.41566467 293.99264526 477.75671387
246.98278809 294.66015625 488.71362305
258.53393555 295.35314941 482.15686035
257.09078979 295.15380859 493.01428223
249.20942688 229.47189331 440.13461304
254.24884033 237.20834351 440.46228027
259.99548340 232.63070679 441.17953491
265.38742065 240.56181335 442.06036377
234.58813477 213.64968872 446.61068726
237.99514771 218.18515015 450.64544678
242.23104858 219.06271362 443.03335571
247.09094238 221.98146057 447.15679932
254.99826050 275.14389038 442.87493896
258.82754517 283.48809814 448.03329468
265.95083618 278.14318848 446.00726318
269.13128662 286.06567383 451.34295654
213.81898499 275.18011475 506.36004639
206.16688538 278.98239136 510.34179688
223.31814575 280.81106567 509.37393188
215.62712097 283.93527222 513.91912842
217.15408325 254.81704712 494.93377686
210.41685486 259.28869629 497.69464111
224.89270020 260.41879272 496.75003052
217.88079834 264.83746338 500.12188721
228.44839478 291.81060791 491.62249756
225.85124207 291.86260986 502.02572632
238.53260803 293.97677612 497.60379028
235.79769897 293.19058228 507.57879639
246.38531494 288.03707886 455.97195435
247.22827148 290.82281494 465.14236450
256.39166260 290.50595093 459.64175415
256.89883423 292.57470703 468.95275879
215.81744385 232.87835693 488.94381714
209.18620300 236.92285156 492.75579834
224.12867737 236.81794739 492.06262207
217.89106750 240.37149048 496.06817627
244.29223633 248.81880188 438.07858276
248.33564758 257.64099121 440.08758545
254.04985046 251.81108093 440.61856079
257.86077881 260.52947998 442.80410767
208.93531799 215.90443420 476.20904541
204.21493530 220.35986328 485.31457520
216.17810059 222.04751587 474.35848999
214.08393860 224.12428284 482.90817261
215.72390747 185.13922119 463.76626587
214.18910217 191.27732849 471.88772583
216.35462952 195.49594116 452.91101074
215.94343567 199.64533997 462.18090820
202.39489746 241.24526978 483.80926514
194.76875305 245.70828247 486.70312500
210.41036987 246.11056519 489.33636475
202.71067810 250.52923584 492.24645996
229.68553162 227.02572632 427.97058105
232.81190491 235.52133179 430.58624268
236.90074158 230.97396851 432.84695435
240.64569092 238.25515747 435.62350464
217.01147461 178.87997437 441.46719360
218.48962402 186.55587769 446.37249756
216.96733093 193.61427307 431.68685913
219.86012268 198.51417542 438.06506348
196.10539246 259.57745361 495.42150879
189.10537720 264.45248413 498.60626221
204.58477783 265.32409668 500.61013794
197.17274475 270.03689575 503.92791748
209.34463501 162.57708740 459.10104370
211.12193298 169.66900635 465.54302979
211.17817688 174.00981140 448.03598022
212.69593811 179.53369141 456.15744019
236.21296692 274.35717773 439.77938843
239.02032471 281.06195068 446.32409668
245.89489746 277.27590942 442.73919678
248.21507263 283.60867310 449.24069214
228.72253418 288.65646362 464.12423706
229.62713623 289.73220825 474.38253784
238.23034668 290.33834839 468.94625854
238.76889038 290.82888794 478.98181152
211.87351990 209.23966980 460.59771729
209.23054504 214.28988647 469.18200684
216.09402466 217.59698486 454.55477905
216.80046082 219.37362671 463.47213745
209.86100769 193.95167542 482.64996338
204.81727600 199.85404968 491.73818970
212.84408569 202.01080322 473.93807983
209.24838257 205.83428955 483.19284058
192.90007019 205.91728210 496.02059937
182.04264832 212.36036682 499.59252930
201.33836365 209.37484741 491.10409546
191.48881531 215.34533691 495.34106445
197.80537415 217.08966064 479.56793213
189.86993408 222.58541870 486.82641602
205.85110474 222.32054138 479.13348389
200.13690186 226.13247681 486.14105225
214.32833862 204.08779907 443.21475220
213.48762512 210.07019043 450.47323608
216.98213196 215.76898193 436.18988037
219.85653687 217.86503601 444.68331909
228.97180176 256.86148071 431.41677856
232.23335266 264.77960205 435.95440674
238.01135254 258.84585571 435.58779907
240.76248169 266.24060059 439.68313599
204.15760803 158.94244385 442.10278320
209.55172729 167.58944702 441.31283569
207.21208191 173.15873718 434.37957764
213.18148804 179.62994385 436.14147949
194.18911743 190.16510010 501.33685303
183.85725403 197.17700195 506.22702026
205.11575317 193.88787842 497.86874390
195.81988525 200.61860657 503.10711670
206.91955566 170.73907471 484.94473267
200.96905518 177.64067078 494.88079834
214.51325989 180.24958801 479.79721069
209.24243164 185.18029785 489.31799316
216.15701294 199.68103027 424.94125366
216.03349304 208.01225281 428.50128174
217.59962463 213.43988037 422.65298462
221.23210144 218.49443054 428.23956299
201.99478149 287.99761963 487.76074219
202.02830505 287.56085205 498.77172852
211.34687805 289.29992676 494.62341309
211.02514648 288.25473022 504.80169678
222.48600769 283.62707520 447.08920288
223.60040283 286.80969238 455.71459961
231.37565613 285.33245850 450.56002808
232.01220703 288.05004883 458.97128296
205.84895325 237.04721069 457.15234375
202.42356873 241.77299500 463.35534668
212.04194641 241.56753540 459.78018188
210.12135315 245.22705078 465.54846191
196.85372925 231.32652283 465.52249146
191.14601135 235.93118286 473.03186035
204.99841309 235.92469788 469.94332886
200.78088379 239.55177307 476.71298218
211.14788818 290.08792114 472.82098389
211.83891296 289.42068481 483.84494019
220.71044922 290.12103271 479.09643555
221.03244019 289.02206421 489.41748047
183.66044617 266.29196167 494.36172485
177.36227417 270.45324707 500.19271851
193.33912659 270.82525635 501.89593506
186.78573608 274.25552368 506.64770508
221.92257690 238.94293213 421.45800781
223.98214722 247.15954590 426.02700806
228.47921753 240.96464539 428.08709717
230.69990540 247.82298279 431.99426270
181.29431152 245.35249329 476.01116943
173.95364380 251.11643982 481.35659790
191.10870361 251.83016968 486.08996582
183.25112915 257.25241089 490.07064819
205.49208069 248.60322571 458.69766235
201.82933044 253.92813110 464.86608887
212.01153564 252.54174805 462.04330444
208.31309509 257.30215454 467.90243530
165.32827759 208.33802795 503.25311279
153.25534058 215.44078064 504.07580566
177.51583862 211.15945435 500.96051025
166.26477051 218.02752686 501.78280640
173.57298279 220.67219543 488.28308105
161.81149292 227.13690186 489.81530762
182.36111450 223.96565247 481.21978760
170.58233643 230.23191833 482.48342896
201.33970642 164.21704102 426.14596558
202.45059204 175.09826660 420.64477539
207.02026367 177.20407104 424.38973999
209.64701843 186.75299072 419.87265015
215.63360596 269.00631714 429.65625000
217.30979919 275.02548218 436.94497681
224.21411133 270.08447266 434.44366455
225.33499146 275.71218872 440.99920654
208.29782104 288.96871948 451.23049927
209.26947021 290.37619019 461.01947021
216.82559204 288.91000366 456.09469604
217.23464966 290.03115845 465.07263184
214.43310547 216.44946289 409.53390503
214.43350220 227.36312866 411.64199829
218.52693176 222.07933044 417.70983887
219.63484192 230.73281860 420.21331787
185.46424866 176.68199158 499.42706299
174.58518982 183.44517517 505.36404419
198.98411560 180.88925171 497.77465820
189.41790771 187.11604309 503.76788330
207.58337402 186.94734192 410.78579712
207.38496399 199.09814453 407.30902100
212.32122803 197.20401001 415.77651978
213.42968750 207.94030762 413.42999268
177.12869263 230.66685486 467.55770874
169.27976990 236.44810486 475.21414185
187.62599182 235.75924683 473.89697266
180.51028442 240.75321960 479.95074463
186.73382568 213.51260376 468.53262329
181.10830688 218.62554932 476.54159546
195.27432251 219.32427979 470.30343628
191.75160217 221.86006165 477.38455200
160.84417725 192.57827759 506.07669067
148.18727112 199.25494385 509.78054810
175.32217407 195.23640442 504.68005371
163.57800293 201.61027527 507.65774536
211.46420288 253.03919983 415.78381348
212.59375000 260.00567627 422.56646729
218.70564270 253.17221069 423.57217407
219.83113098 259.02590942 429.03982544
193.02500916 291.14468384 458.04125977
194.57626343 291.14932251 468.85543823
201.96234131 291.00320435 463.77709961
202.87208557 290.75588989 473.75640869
144.55209351 222.13664246 500.90753174
131.57510376 228.42182922 502.33093262
154.96801758 226.91325378 495.71728516
142.58364868 232.87402344 496.22500610
161.39190674 248.76544189 468.93762207
156.87699890 254.59426880 478.98181152
174.06828308 256.44564819 480.20379639
168.86233521 261.69485474 487.87322998
202.42410278 278.77746582 431.92504883
203.88833618 283.21343994 440.66073608
211.05110168 279.70260620 436.86062622
212.00544739 283.75143433 444.89770508
180.19937134 286.86914062 468.76242065
182.90994263 286.42077637 479.90750122
189.82614136 288.33056641 475.14492798
191.98735046 287.37188721 485.60006714
171.16467285 282.41372681 480.58880615
174.92259216 280.56665039 491.47000122
182.22648621 284.78405762 488.03759766
185.73135376 282.32815552 497.70544434
176.81831360 217.44653320 458.61007690
174.81283569 222.23287964 466.91751099
186.10836792 222.97798157 463.20825195
185.18524170 225.84156799 470.40185547
205.36015320 235.29963684 399.49255371
206.37884521 245.07997131 406.33358765
211.65504456 236.82173157 408.82949829
212.74159241 245.28706360 415.04547119
187.96907043 162.66737366 416.39157104
188.03369141 172.84783936 408.10144043
196.57255554 171.49119568 415.72973633
197.76698303 181.40562439 408.50048828
149.06213379 254.61050415 474.59991455
148.36843872 258.23757935 485.92883301
162.88967896 264.43301392 482.15469360
161.62658691 266.96676636 490.87524414
156.26167297 231.80125427 473.08160400
146.45538330 237.38894653 480.19732666
164.08088684 238.06266785 466.73043823
154.82829285 243.19615173 472.03585815
199.90682983 208.85467529 390.90148926
200.19422913 221.85330200 393.24276733
206.52590942 214.18011475 399.51391602
207.26208496 225.25381470 402.52673340
192.40112305 182.79470825 398.39086914
192.39221191 195.33049011 393.80996704
200.77981567 191.21308899 402.94091797
201.60154724 202.61770630 399.15921021
198.59332275 267.05813599 414.27850342
200.38563538 272.84805298 423.24990845
207.24911499 267.08438110 421.01138306
208.68441772 272.30651855 429.15014648
134.98155212 235.65434265 484.99017334
129.93566895 240.84298706 494.82672119
141.72796631 247.20495605 478.38919067
137.50990295 250.79202271 486.84802246
187.56341553 283.24426270 436.51782227
189.61364746 286.56744385 446.34790039
196.66015625 284.93774414 441.35391235
198.22821045 287.99273682 450.95257568
147.57789612 271.53427124 477.53488159
153.23153687 270.81011963 487.16165161
159.99905396 277.19723511 482.58291626
165.25473022 275.73922729 491.60192871
173.65409851 283.77468872 448.26199341
176.43981934 286.07647705 458.55709839
183.06025696 286.84591675 452.87316895
185.43289185 288.80380249 463.25476074
195.06533813 251.07426453 397.67861938
197.29493713 259.10919189 406.47268677
203.79641724 251.55603027 406.10934448
205.52343750 258.52145386 413.96475220
124.73188782 257.88665771 483.41906738
129.77345276 259.63153076 492.28451538
136.14515686 266.85671997 482.71105957
141.13697815 267.29821777 490.73950195
183.43064880 274.86328125 417.45986938
186.03414917 279.33709717 427.35916138
193.02551270 276.23126221 422.85400391
195.22943115 280.39147949 432.70352173
158.79650879 279.68096924 457.20639038
162.47116089 281.87191772 467.06890869
168.58874512 284.15911865 461.66616821
172.02873230 285.95428467 471.78390503
173.49188232 164.43441772 405.31353760
173.68350220 175.19450378 397.43002319
183.69018555 171.27328491 403.25238037
184.31983948 182.31022644 396.13879395
189.90603638 233.73158264 383.75225830
192.17335510 244.35975647 391.31137085
199.68270874 235.59864807 392.40359497
201.15344238 244.97236633 399.65557861
179.78302002 187.04899597 390.81878662
180.94338989 198.90780640 385.66473389
190.16299438 194.12957764 391.80612183
191.52964783 205.24868774 388.10009766
184.23933411 209.80848694 379.56826782
186.03631592 222.26640320 381.95495605
194.52705383 214.40289307 385.69665527
195.78257751 225.11756897 388.33151245
142.32653809 269.62759399 462.65673828
146.73655701 272.35980225 471.56112671
152.99038696 276.26046753 465.71066284
157.35174561 278.67526245 475.21414185
167.85662842 278.30758667 426.92944336
170.98406982 281.86975098 436.89578247
177.69534302 281.67294312 431.06478882
180.61517334 284.89773560 441.51992798
178.08790588 261.91223145 399.81561279
181.34620667 268.81381226 409.07037354
188.70579529 263.92419434 405.25946045
191.19575500 270.34997559 414.52288818
125.61215973 256.70953369 466.97052002
129.81671143 260.76916504 474.70587158
135.37086487 264.99316406 466.88696289
139.69869995 268.85708618 475.26147461
154.49787903 275.25149536 439.54876709
157.81459045 278.06643677 449.15390015
163.73101807 280.28332520 442.38208008
166.96986389 282.69705200 452.60363770
110.70050812 239.01539612 473.62069702
114.08966827 245.00643921 481.18194580
118.31016541 248.57131958 469.61889648
121.95129395 254.23794556 477.23208618
171.49990845 245.30490112 384.04208374
175.10859680 254.33258057 392.00561523
183.46795654 248.58322144 388.82952881
186.18014526 256.88848877 396.87957764
163.43687439 269.32531738 409.10931396
166.91578674 274.49017334 418.56954956
173.91903687 273.32333374 412.63040161
177.09408569 278.11724854 422.72650146
138.10469055 263.21966553 447.59478760
141.79447937 267.36688232 456.07739258
146.81008911 270.62411499 448.03598022
150.63505554 274.52044678 457.46594238
159.45941162 172.45635986 395.55728149
159.41656494 183.69876099 389.17907715
168.76718140 178.34791565 391.77987671
169.49772644 189.73091125 386.28411865
108.66933441 224.33840942 461.15466309
110.60750580 232.09432983 468.04110718
115.24286652 233.53747559 456.68948364
117.44192505 241.71731567 463.82034302
164.02947998 220.06680298 376.25588989
167.42620850 231.42167664 380.48855591
176.40306091 225.24543762 377.89205933
179.48509216 235.34370422 382.51837158
150.67129517 268.94900513 420.05325317
154.00367737 273.21844482 429.24530029
159.96551514 274.76052856 421.84625244
163.39685059 278.62228394 431.95098877
160.37106323 196.48976135 383.08825684
162.87454224 208.58000183 380.52694702
171.61886597 202.70736694 380.61648560
174.58087158 214.04493713 379.39691162
121.71203613 245.70719910 452.69256592
124.73838043 251.90803528 459.81045532
128.94400024 254.19415283 450.68545532
132.23367310 260.62640381 458.49761963
155.64418030 253.26089478 394.90600586
159.41940308 260.75509644 402.98419189
166.62272644 258.95346069 396.25363159
170.28656006 266.02160645 405.03906250
138.06900024 260.01541138 433.06918335
141.36190796 264.83312988 441.51504517
145.92224121 267.82000732 432.50793457
149.55581665 272.31219482 442.00708008
106.84309387 204.74530029 454.42285156
106.59328461 213.90922546 460.59555054
111.71933746 212.83645630 447.22708130
111.96089935 222.81144714 453.52743530
115.72476959 226.17897034 444.14828491
117.64752960 233.72293091 450.75790405
121.42761993 234.95574951 439.91671753
123.71157074 243.07286072 447.11245728
126.42160034 241.34530640 436.32858276
128.79585266 248.21878052 443.51782227
132.69760132 249.92201233 433.27682495
135.49414062 256.96203613 441.49990845
143.45391846 253.05001831 406.90972900
146.53541565 260.28686523 414.58343506
152.27774048 260.66317749 405.83694458
155.85505676 267.56478882 414.58993530
142.32044983 174.58459473 400.03622437
141.68714905 185.98272705 395.32989502
149.74397278 179.82080078 392.30871582
150.63357544 191.34654236 387.97546387
148.15536499 230.05801392 386.47528076
151.78460693 240.35093689 391.43356323
159.34370422 236.93258667 383.97937012
163.39036560 246.52906799 389.51947021
134.58035278 246.66749573 419.11889648
137.23089600 254.09249878 426.37954712
141.37055969 255.21932983 416.17095947
144.66888428 262.50375366 424.68603516
115.60365295 207.74717712 434.95193481
115.80668640 216.70779419 440.42822266
119.88977814 215.87294006 428.90789795
120.69468689 225.55810547 434.66534424
116.16490936 190.11697388 432.95239258
114.61983490 200.21740723 436.80764771
119.33021545 196.90611267 424.52600098
118.57842255 207.85437012 428.22659302
142.15892029 194.25772095 392.49874878
143.70425415 206.04083252 390.18939209
150.33984375 200.23362732 385.12890625
153.15475464 211.80477905 383.68548584
139.31587219 232.54257202 398.25811768
142.11349487 242.27099609 403.53543091
147.49462891 240.40730286 393.69912720
151.25579834 249.81779480 399.83941650
124.65186310 226.24818420 425.11807251
126.51947021 234.48858643 431.22158813
129.45767212 235.14073181 420.39929199
131.81948853 243.74447632 427.25549316
140.57409668 210.60441589 392.25247192
143.10623169 221.95063782 392.82238770
148.78584290 217.39678955 385.48632812
152.47023010 228.31909180 386.95245361
131.49966431 228.26177979 410.74063110
133.17343140 237.84745789 415.93142700
136.92053223 236.71603394 405.30056763
139.40022278 246.40985107 411.43869019
131.89086914 184.32165527 406.54779053
130.96598816 195.57704163 405.32220459
136.40428162 190.13751221 397.80743408
136.92350769 201.61999512 396.56054688
131.88505554 202.50892639 406.07702637
132.64028931 213.07220459 407.70321655
136.62908936 209.44512939 398.41625977
138.56428528 220.24200439 400.41149902
124.42466736 209.97718811 418.74798584
124.99359131 219.72291565 423.00769043
128.22918701 218.05645752 412.50064087
129.55284119 228.24339294 417.12908936
124.68322754 193.09843445 416.61111450
123.96915436 203.53195190 418.66552734
127.85285950 199.86161804 408.64431763
128.21459961 210.75796509 410.58544922
218.76972961 204.37701416 414.79266357
218.77569580 204.37376404 414.80743408
218.78350830 204.37471008 414.77734375
218.78637695 204.36367798 414.79000854
282.24752808 293.76028442 486.70904541
282.24987793 293.75177002 486.72146606
282.24560547 293.76205444 486.70556641
282.24838257 293.75497437 486.72241211
331.82354736 210.45001221 428.41210938
331.81890869 210.45602417 428.42233276
331.83804321 210.46409607 428.40542603
331.83154297 210.46226501 428.42306519
238.88923645 224.77566528 494.70361328
238.89476013 224.77635193 494.71456909
238.88502502 224.77017212 494.70059204
238.89108276 224.76985168 494.71109009
228.05818176 271.48245239 437.08578491
228.05722046 271.48004150 437.09500122
228.07218933 271.48413086 437.07775879
228.06935120 271.47454834 437.08813477
274.99493408 231.61819458 441.41540527
274.99804688 231.61360168 441.42373657
274.99938965 231.62510681 441.41525269
275.00231934 231.61679077 441.42626953
323.11651611 256.28811646 463.15710449
323.11273193 256.28735352 463.16860962
323.12030029 256.29254150 463.14865112
323.11761475 256.28909302 463.16555786
277.45925903 274.80657959 446.52560425
277.46301270 274.80331421 446.53280640
277.46734619 274.81030273 446.52386475
277.47064209 274.80258179 446.53594971
238.32405090 208.66094971 453.22070312
238.32878113 208.65679932 453.23757935
238.32748413 208.66230774 453.21051025
238.33398438 208.65359497 453.22488403
250.88780212 265.73928833 492.35546875
250.88774109 265.73458862 492.36346436
250.89468384 265.73785400 492.35955811
250.89550781 265.73208618 492.37017822
229.69383240 236.41510010 425.15176392
229.69107056 236.40971375 425.16796875
229.70201111 236.41961670 425.15173340
229.69909668 236.40905762 425.16818237
309.58200073 227.84126282 448.15164185
309.57400513 227.84303284 448.15939331
309.58422852 227.84967041 448.14624023
309.57733154 227.84710693 448.15780640
247.66094971 288.83529663 458.16519165
247.66098022 288.82977295 458.17651367
247.65934753 288.82992554 458.16076660
247.65809631 288.81961060 458.17544556
268.74102783 241.02299500 472.69635010
268.74267578 241.02032471 472.70584106
268.74444580 241.02026367 472.70388794
268.74755859 241.01664734 472.71310425
300.53466797 277.31744385 466.19183350
300.53686523 277.31280518 466.20266724
300.54193115 277.31777954 466.19036865
300.54382324 277.31115723 466.20623779
302.62054443 205.27232361 425.85229492
302.61560059 205.27357483 425.86468506
302.63067627 205.27601624 425.84259033
302.62405396 205.27160645 425.85742188
257.00765991 255.13125610 438.83926392
257.00842285 255.12733459 438.84881592
257.01333618 255.13500977 438.83209229
257.01507568 255.12673950 438.84341431
298.02804565 254.35754395 446.52206421
298.02511597 254.35791016 446.52896118
298.03311157 254.36509705 446.51678467
298.03305054 254.36279297 446.52752686
276.52551270 266.56295776 474.12088013
276.52416992 266.55804443 474.12869263
276.53710938 266.56329346 474.11938477
276.53771973 266.55679321 474.13064575
334.57128906 219.93968201 453.19543457
334.55755615 219.94400024 453.21109009
334.57800293 219.94735718 453.18630981
334.56549072 219.94624329 453.20663452
224.80166626 221.33250427 471.95538330
224.80206299 221.32911682 471.96951294
224.79588318 221.33241272 471.94543457
224.79647827 221.32633972 471.95812988
276.63265991 293.26980591 462.44976807
276.63662720 293.26406860 462.46109009
276.64163208 293.27120972 462.44818115
276.64495850 293.26278687 462.46444702
220.29383850 194.01914978 436.34756470
220.29621887 194.01513672 436.36718750
220.30247498 194.01480103 436.34048462
220.30273438 194.00413513 436.35494995
329.96679688 239.95332336 440.88174438
329.96264648 239.95504761 440.89102173
329.97894287 239.96005249 440.87896729
329.97375488 239.95675659 440.89651489
248.49954224 229.28190613 438.11224365
248.49610901 229.27696228 438.12094116
248.50103760 229.28829956 438.10852051
248.49993896 229.27970886 438.11700439
218.50674438 217.70768738 443.76965332
218.50791931 217.70120239 443.78656006
218.51290894 217.70661926 443.75961304
218.51321411 217.69621277 443.77395630
250.69367981 228.48080444 465.73608398
250.69729614 228.47657776 465.74731445
250.69487000 228.47921753 465.73037720
250.69787598 228.47293091 465.74133301
249.61474609 243.88853455 486.74618530
249.61531067 243.88777161 486.75558472
249.61648560 243.88520813 486.74465942
249.61827087 243.88366699 486.75375366
290.47158813 216.51852417 440.53366089
290.46789551 216.51976013 440.54248047
290.46649170 216.52430725 440.52822876
290.46304321 216.52035522 440.53942871
253.21879578 276.84020996 442.08639526
253.21759033 276.83718872 442.09332275
253.22445679 276.84698486 442.07894897
253.22456360 276.83969116 442.08984375
288.75012207 239.17951965 457.09741211
288.74371338 239.17987061 457.10272217
288.74603271 239.18560791 457.09884644
288.74353027 239.18345642 457.10806274
222.55950928 255.65890503 425.20748901
222.56028748 255.65589905 425.21917725
222.57035828 255.66561890 425.19735718
222.56838989 255.65663147 425.20950317
319.61181641 194.12644958 429.06689453
319.60253906 194.13327026 429.08010864
319.62008667 194.13606262 429.05242920
319.60989380 194.13424683 429.07073975
278.23623657 253.16957092 446.20523071
278.23846436 253.17150879 446.21133423
278.24227905 253.18028259 446.20904541
278.24389648 253.17633057 446.21905518
315.18145752 220.27749634 427.63391113
315.17639160 220.27964783 427.64212036
315.19036865 220.28756714 427.62789917
315.18411255 220.28413391 427.64334106
266.34216309 275.98095703 487.52114868
266.34362793 275.97137451 487.53268433
266.34530640 275.97775269 487.52145386
266.34667969 275.96905518 487.53610229
218.94097900 222.88430786 415.23635864
218.94725037 222.87927246 415.25146484
218.95489502 222.88279724 415.23245239
218.95620728 222.87336731 415.24645996
239.36824036 256.14645386 433.88677979
239.36746216 256.14447021 433.89788818
239.37413025 256.14743042 433.87661743
239.37208557 256.13940430 433.88839722
328.69171143 238.91630554 462.43588257
328.68423462 238.91845703 462.44372559
328.69995117 238.92510986 462.42919922
328.69281006 238.92469788 462.44232178
288.10421753 256.17251587 462.94561768
288.10296631 256.17150879 462.95062256
288.10852051 256.17822266 462.94909668
288.10888672 256.17352295 462.95889282
241.20080566 215.15731812 475.38568115
241.20132446 215.15632629 475.39920044
241.19824219 215.15756226 475.38015747
241.20184326 215.15496826 475.39160156
314.86856079 249.47424316 443.53274536
314.86511230 249.47418213 443.54107666
314.87646484 249.48162842 443.52426147
314.87319946 249.47843933 443.53942871
269.43588257 228.69389343 457.69760132
269.43710327 228.68952942 457.70715332
269.43859863 228.69625854 457.69802856
269.44085693 228.68876648 457.70910645
293.54254150 269.87466431 452.14913940
293.54296875 269.87335205 452.15505981
293.54687500 269.87963867 452.14849854
293.54675293 269.87521362 452.15991211
297.81106567 236.54830933 440.73861694
297.80981445 236.54652405 440.74703979
297.81689453 236.55451965 440.73629761
297.81607056 236.54798889 440.74914551
242.83467102 230.50041199 479.87802124
242.83776855 230.50068665 479.88763428
242.83157349 230.49508667 479.87313843
242.83604431 230.49302673 479.88327026
231.43322754 221.94996643 435.35943604
231.43244934 221.94741821 435.37103271
231.43582153 221.95671082 435.35427856
231.43655396 221.94912720 435.36550903
264.71258545 259.02508545 481.58090210
264.71282959 259.02246094 481.58795166
264.72354126 259.02035522 481.57910156
264.72491455 259.01712036 481.58886719
292.86264038 289.48690796 472.70388794
292.86752319 289.48007202 472.71307373
292.87457275 289.48410034 472.70092773
292.87783813 289.47705078 472.71664429
266.06372070 295.68304443 473.86160278
266.06246948 295.67520142 473.87420654
266.06515503 295.68438721 473.85919189
266.06469727 295.67514038 473.87545776
308.74938965 260.61572266 458.74008179
308.74468994 260.61767578 458.74707031
308.75375366 260.62185669 458.73483276
308.75115967 260.62124634 458.74655151
261.84823608 288.93676758 452.21511841
261.85092163 288.93124390 452.22540283
261.85617065 288.93283081 452.20892334
261.85772705 288.92330933 452.22378540
218.00733948 238.89241028 415.65817261
218.01502991 238.88880920 415.67138672
218.01661682 238.89619446 415.64904785
218.02021790 238.88786316 415.66137695
226.95220947 219.25375366 456.34719849
226.95410156 219.24795532 456.36291504
226.95236206 219.25601196 456.34167480
226.95460510 219.24610901 456.35498047
257.16345215 223.95782471 449.42837524
257.16595459 223.95056152 449.44125366
257.16464233 223.95841980 449.42630005
257.16665649 223.94880676 449.43777466
303.58688354 241.76986694 456.14245605
303.58361816 241.77101135 456.14910889
303.59072876 241.77180481 456.13760376
303.58978271 241.76992798 456.14938354
317.74282837 209.22988892 437.53393555
317.73260498 209.23210144 437.54611206
317.74444580 209.23348999 437.52700806
317.73440552 209.22943115 437.54345703
260.80447388 237.91195679 438.36029053
260.80783081 237.90782166 438.36730957
260.81335449 237.92181396 438.35668945
260.81658936 237.91233826 438.36672974
317.25750732 233.78759766 433.84564209
317.25439453 233.78883362 433.85290527
317.26562500 233.79598999 433.83523560
317.26113892 233.79225159 433.84982300
281.09075928 280.55322266 475.24047852
281.09097290 280.54602051 475.25222778
281.09729004 280.55258179 475.23901367
281.09808350 280.54461670 475.25323486
331.80126953 227.91905212 432.88272095
331.79751587 227.92077637 432.89038086
331.81591797 227.92781067 432.87512207
331.81121826 227.92492676 432.89117432
241.55960083 254.79508972 493.22879028
241.56008911 254.79249573 493.23904419
241.55912781 254.79106140 493.23031616
241.56130981 254.78800964 493.24188232
240.04275513 282.00982666 444.31082153
240.04336548 282.00634766 444.31951904
240.05612183 282.00930786 444.29971313
240.05525208 281.99951172 444.31195068
221.13842773 215.80186462 427.49154663
221.14067078 215.79452515 427.50610352
221.14894104 215.80088806 427.48391724
221.14961243 215.78929138 427.49752808
230.67309570 207.16207886 465.08087158
230.68057251 207.15509033 465.09738159
230.67384338 207.16285706 465.07168579
230.67939758 207.15129089 465.08557129
317.78692627 205.89125061 421.42633057
317.78317261 205.89701843 421.43496704
317.79153442 205.90388489 421.41293335
317.78707886 205.90255737 421.42761230
323.21835327 228.26458740 452.36746216
323.20935059 228.26606750 452.37191772
323.22482300 228.27133179 452.35314941
323.21771240 228.26861572 452.36416626
247.16256714 243.05427551 436.38729858
247.16503906 243.05056763 436.39877319
247.16749573 243.06005859 436.38079834
247.16986084 243.05107117 436.39199829
284.96777344 285.95407104 454.38964844
284.97534180 285.94918823 454.39822388
284.97421265 285.95535278 454.39199829
284.97988892 285.94717407 454.40701294
286.86584473 271.92761230 466.50625610
286.86608887 271.92129517 466.51766968
286.86502075 271.93313599 466.50302124
286.86514282 271.92553711 466.51788330
288.45324707 227.89443970 449.93353271
288.44958496 227.89219666 449.94204712
288.45355225 227.90043640 449.93252563
288.45153809 227.89611816 449.94387817
254.81985474 235.41932678 476.63537598
254.82000732 235.41854858 476.64385986
254.82366943 235.41665649 476.62838745
254.82678223 235.41410828 476.63735962
302.50305176 224.90859985 436.13674927
302.50155640 224.90699768 436.14208984
302.50796509 224.91824341 436.13052368
302.50708008 224.91233826 436.14089966
230.70977783 215.82933044 483.20895386
230.70845032 215.82974243 483.22247314
230.70506287 215.82746887 483.19512939
230.70498657 215.82550049 483.20700073
263.82583618 269.34317017 443.80538940
263.82537842 269.33941650 443.81329346
263.82366943 269.34600830 443.79791260
263.82348633 269.33926392 443.80862427
333.71221924 216.86085510 439.67648315
333.70135498 216.86520386 439.68817139
333.72198486 216.86616516 439.66809082
333.71099854 216.86509705 439.68588257
276.96444702 253.49609375 469.24401855
276.96649170 253.49116516 469.25146484
276.96875000 253.49789429 469.24569702
276.97042847 253.49134827 469.25662231
318.52752686 239.93119812 454.62789917
318.51809692 239.93313599 454.63699341
318.53460693 239.94075012 454.61709595
318.52664185 239.93840027 454.63174438
245.63629150 221.84741211 454.40231323
245.63745117 221.84146118 454.41262817
245.64088440 221.85260010 454.40048218
245.64395142 221.84413147 454.41168213
305.55139160 212.65295410 437.05493164
305.54217529 212.65281677 437.06356812
305.54727173 212.65734863 437.04858398
305.54248047 212.65214539 437.06246948
236.16557312 237.01585388 493.81286621
236.17048645 237.01557922 493.82138062
236.16369629 237.00735474 493.81094360
236.16897583 237.00627136 493.82110596
276.27288818 219.38473511 443.95709229
276.27230835 219.38208008 443.96551514
276.27157593 219.39025879 443.94931030
276.27072144 219.38217163 443.95959473
335.49649048 231.78572083 449.44763184
335.48773193 231.78762817 449.45544434
335.50958252 231.78677368 449.43859863
335.50119019 231.78463745 449.45425415
257.48455811 292.26837158 465.57473755
257.48437500 292.25842285 465.58999634
257.48342896 292.26831055 465.57116699
257.48272705 292.25598145 465.58877563
239.91981506 268.29934692 436.02514648
239.91940308 268.29565430 436.03457642
239.93121338 268.30075073 436.01184082
239.93043518 268.29223633 436.02258301
329.01345825 249.54823303 454.75857544
329.01068115 249.55075073 454.76516724
329.02459717 249.55307007 454.75354004
329.02212524 249.55213928 454.76718140
231.78984070 248.00213623 428.96362305
231.78926086 247.99833679 428.97738647
231.80113220 248.00430298 428.95489502
231.79954529 247.99493408 428.96810913
239.85134888 217.08789062 444.87979126
239.85105896 217.08283997 444.89367676
239.85287476 217.09165955 444.87008667
239.85499573 217.08084106 444.88272095
289.74792480 246.39837646 443.62393188
289.75061035 246.39733887 443.63238525
289.75338745 246.40582275 443.62234497
289.75836182 246.39947510 443.63516235
312.59320068 249.18154907 458.20803833
312.58502197 249.17999268 458.21810913
312.59216309 249.19187927 458.20254517
312.58538818 249.18780518 458.21795654
221.10919189 197.12738037 423.46206665
221.11436462 197.12236023 423.47930908
221.11805725 197.12081909 423.44885254
221.12434387 197.10932922 423.46267700
267.33929443 251.69020081 443.55639648
267.34173584 251.68624878 443.56802368
267.34115601 251.69311523 443.55364990
267.34371948 251.68490601 443.56695557
281.67413330 294.74584961 475.48876953
281.67797852 294.73693848 475.50048828
281.68081665 294.74288940 475.49169922
281.68331909 294.73413086 475.50897217
268.34585571 281.18707275 445.46929932
268.34954834 281.18432617 445.47439575
268.35519409 281.18722534 445.46313477
268.35809326 281.18026733 445.47329712
285.52709961 236.42239380 441.01406860
285.52774048 236.41964722 441.02105713
285.53149414 236.42842102 441.01681519
285.53414917 236.42280579 441.02780151
307.98059082 240.79406738 440.82080078
307.97769165 240.79110718 440.83020020
307.98736572 240.80007935 440.81427002
307.98483276 240.79443359 440.82876587
288.40118408 259.06491089 448.69876099
288.40097046 259.06155396 448.70642090
288.40823364 259.06890869 448.70062256
288.41009521 259.06210327 448.71264648
309.34039307 195.82341003 425.91946411
309.33282471 195.82460022 425.93316650
309.35131836 195.82580566 425.90380859
309.34243774 195.82147217 425.91992188
228.89555359 260.36511230 432.62203979
228.89541626 260.36245728 432.63406372
228.90574646 260.36679077 432.61077881
228.90451050 260.35757446 432.62164307
253.81042480 256.20678711 488.41537476
253.81268311 256.20089722 488.42846680
253.81848145 256.20690918 488.41983032
253.82093811 256.20178223 488.43246460
274.89141846 286.05703735 485.62054443
274.89135742 286.04513550 485.63641357
274.89205933 286.05914307 485.62023926
274.89273071 286.04931641 485.63781738
322.45501709 219.25044250 446.78247070
322.44567871 219.25431824 446.79040527
322.45739746 219.25927734 446.77056885
322.44989014 219.25775146 446.78390503
260.07165527 249.63427734 482.56625366
260.07400513 249.63037109 482.57406616
260.07882690 249.63165283 482.56799316
260.08145142 249.62698364 482.57736206
239.78500366 226.94117737 431.67849731
239.78666687 226.93733215 431.68820190
239.79833984 226.94783020 431.68011475
239.80101013 226.93891907 431.68914795
297.60913086 223.15432739 445.12860107
297.60531616 223.15284729 445.13745117
297.60827637 223.16101074 445.12442017
297.60510254 223.15608215 445.13726807
316.38433838 257.28427124 452.57601929
316.38067627 257.28771973 452.58206177
316.38949585 257.28924561 452.57000732
316.38632202 257.28927612 452.58251953
296.20581055 210.44541931 434.07531738
296.20150757 210.44563293 434.08340454
296.20373535 210.45022583 434.06951904
296.19830322 210.44447327 434.08248901
324.51586914 217.71951294 424.93048096
324.51232910 217.72093201 424.93811035
324.52270508 217.72808838 424.92395020
324.51831055 217.72299194 424.93887329
267.81716919 223.10954285 440.08184814
267.81643677 223.10174561 440.09146118
267.81805420 223.11337280 440.07409668
267.82015991 223.10195923 440.08508301
289.55075073 289.15856934 463.28659058
289.55734253 289.14971924 463.29803467
289.55764771 289.15716553 463.29034424
289.56179810 289.14739990 463.30599976
295.16213989 278.69256592 456.54483032
295.16409302 278.69198608 456.55017090
295.17471313 278.69512939 456.54586792
295.17602539 278.69100952 456.55773926
279.98709106 236.92408752 461.31640625
279.98812866 236.92276001 461.32196045
279.99279785 236.92323303 461.32000732
279.99432373 236.92059326 461.32922363
223.64202881 246.17658997 422.37521362
223.64437866 246.17274475 422.39047241
223.65650940 246.17810059 422.36502075
223.65527344 246.16827393 422.37771606
296.44891357 253.02569580 458.51379395
296.44335938 253.02394104 458.52362061
296.44802856 253.02923584 458.51116943
296.44534302 253.02494812 458.52401733
305.44613647 269.15426636 454.92510986
305.44522095 269.15576172 454.93002319
305.45657349 269.15750122 454.91760254
305.45800781 269.15539551 454.93051147
216.27177429 207.82028198 424.67004395
216.27352905 207.81597900 424.68572998
216.28263855 207.81947327 424.66140747
216.28153992 207.80923462 424.67422485
288.92230225 227.52690125 438.83956909
288.91870117 227.52519226 438.84637451
288.92224121 227.53324890 438.83877563
288.92059326 227.52926636 438.84899902
286.43817139 276.98754883 451.26254272
286.43991089 276.98468018 451.27148438
286.44210815 276.98715210 451.26226807
286.44442749 276.98010254 451.27600098
295.20901489 262.43536377 461.48574829
295.20223999 262.43630981 461.48883057
295.21112061 262.43722534 461.48065186
295.20782471 262.43539429 461.49020386
306.77441406 251.14889526 448.51812744
306.77285767 251.14689636 448.52655029
306.78356934 251.15093994 448.51403809
306.78207397 251.14524841 448.52819824
324.37542725 199.20091248 435.44204712
324.36169434 199.20611572 435.45465088
324.37573242 199.20925903 435.43627930
324.36328125 199.20825195 435.45275879
227.50970459 222.33850098 425.44244385
227.51083374 222.33299255 425.45529175
227.51861572 222.33941650 425.44143677
227.52017212 222.32821655 425.45333862
283.47930908 263.39633179 466.30996704
283.47741699 263.39355469 466.31661987
283.48101807 263.39831543 466.30783081
283.47985840 263.39419556 466.31695557
276.48931885 288.91094971 453.45672607
276.49212646 288.90701294 453.46429443
276.49533081 288.90985107 453.45071411
276.49737549 288.90151978 453.46496582
222.36486816 230.60487366 418.42230225
222.36822510 230.60079956 418.43646240
222.37445068 230.60630798 418.41531372
222.37400818 230.59713745 418.42941284
233.87910461 210.62756348 472.69808960
233.87931824 210.62571716 472.71185303
233.87564087 210.62823486 472.68405151
233.87762451 210.62405396 472.69662476
253.20729065 286.62496948 451.50683594
253.20602417 286.61968994 451.51763916
253.21458435 286.62542725 451.50637817
253.21316528 286.61541748 451.52038574
236.62528992 239.26324463 429.99862671
236.62411499 239.26152039 430.01226807
236.63529968 239.27044678 429.99310303
236.63305664 239.26185608 430.00708008
262.47988892 266.54656982 485.46875000
262.48034668 266.54132080 485.48016357
262.48840332 266.54519653 485.47146606
262.48822021 266.53958130 485.48355103
275.06625366 295.98947144 481.07763672
275.06875610 295.97879028 481.09204102
275.06365967 295.98934937 481.08035278
275.06640625 295.97790527 481.09832764
281.40594482 223.45620728 437.08822632
281.40817261 223.45208740 437.09811401
281.41143799 223.46833801 437.08554077
281.41394043 223.46049500 437.09863281
277.92654419 229.25581360 456.01437378
277.92596436 229.25364685 456.02435303
277.92898560 229.25605774 456.01754761
277.93081665 229.25218201 456.03030396
324.79473877 207.70318604 432.56506348
324.78540039 207.70889282 432.57626343
324.80035400 207.71231079 432.56091309
324.78942871 207.71105957 432.57699585
234.95033264 276.10488892 439.40994263
234.95126343 276.10305786 439.41824341
234.96379089 276.10406494 439.40045166
234.96183777 276.09521484 439.41281128
268.60754395 240.27191162 441.06597900
268.60897827 240.26835632 441.07473755
268.61178589 240.27899170 441.07171631
268.61492920 240.27148438 441.08154297
218.68003845 212.94900513 415.03991699
218.68199158 212.94599915 415.05328369
218.68838501 212.94554138 415.02935791
218.68713379 212.93641663 415.04116821
324.87789917 251.17503357 447.45431519
324.87384033 251.17558289 447.46032715
324.88623047 251.18000793 447.44403076
324.88333130 251.17778015 447.45764160
264.47781372 259.67120361 443.77844238
264.47952271 259.66680908 443.78796387
264.48056030 259.67620850 443.77191162
264.48315430 259.66741943 443.78463745
227.26745605 219.33285522 442.18438721
227.26542664 219.32783508 442.20077515
227.27384949 219.33573914 442.18011475
227.27194214 219.32481384 442.19476318
309.80203247 228.61149597 434.35855103
309.79959106 228.61125183 434.36401367
309.81060791 228.62020874 434.34906006
309.80911255 228.61607361 434.36083984
300.93572998 235.06167603 451.90621948
300.93347168 235.05915833 451.91665649
300.93530273 235.06779480 451.90481567
300.93243408 235.06127930 451.91903687
320.79113770 240.86434937 436.43395996
320.78781128 240.86772156 436.44097900
320.79843140 240.87561035 436.42807007
320.79434204 240.87252808 436.44226074
259.60324097 233.65774536 470.09024048
259.60571289 233.65440369 470.10003662
259.60647583 233.65280151 470.08972168
259.61187744 233.64826965 470.10037231
246.81103516 258.89208984 436.19854736
246.81307983 258.89117432 436.20748901
246.81956482 258.89300537 436.19229126
246.82180786 258.88452148 436.20294189
265.29504395 224.70439148 450.68618774
265.29418945 224.70056152 450.70065308
265.29452515 224.71199036 450.68041992
265.29425049 224.70330811 450.69390869
258.89996338 225.47552490 441.53564453
258.90039062 225.46723938 441.54791260
258.90322876 225.47814941 441.53247070
258.90539551 225.46762085 441.54421997
323.90148926 200.68104553 426.64468384
323.89355469 200.68624878 426.65747070
323.91021729 200.69085693 426.63351440
323.90069580 200.68859863 426.65097046
277.81280518 245.66587830 466.95486450
277.81198120 245.66041565 466.96319580
277.81805420 245.66638184 466.95529175
277.81738281 245.66075134 466.96578979
243.49938965 216.49523926 467.62741089
243.50590515 216.49089050 467.64074707
243.50059509 216.49386597 467.62295532
243.50602722 216.48683167 467.63500977
271.30206299 249.14213562 473.22485352
271.30111694 249.13780212 473.23306274
271.30712891 249.14065552 473.22473145
271.30780029 249.13677979 473.23544312
274.04736328 246.49598694 444.21258545
274.04833984 246.49467468 444.22012329
274.04690552 246.50537109 444.20892334
274.04895020 246.49987793 444.21859741
275.35644531 277.79544067 480.30068970
275.35571289 277.78936768 480.30838013
275.36605835 277.78915405 480.30249023
275.36547852 277.78125000 480.31433105
241.93522644 212.26239014 459.55142212
241.93896484 212.26086426 459.56552124
241.93806458 212.26907349 459.54266357
241.94100952 212.26307678 459.55490112
242.20738220 230.11996460 489.57348633
242.21104431 230.11940002 489.58172607
242.20387268 230.11590576 489.56976318
242.20840454 230.11495972 489.57952881
312.45867920 211.63623047 423.52194214
312.45465088 211.63932800 423.53091431
312.46844482 211.64529419 423.51437378
312.46264648 211.64320374 423.52841187
310.04956055 218.04902649 441.08993530
310.04257202 218.05113220 441.09814453
310.04705811 218.05609131 441.08428955
310.04199219 218.05377197 441.09735107
262.97174072 229.65090942 462.44058228
262.97149658 229.64688110 462.45034790
262.97286987 229.65495300 462.43618774
262.97393799 229.64826965 462.44656372
306.55496216 215.95867920 429.77615356
306.55273438 215.95654297 429.78414917
306.55764771 215.96554565 429.76614380
306.55780029 215.95877075 429.77993774
283.31781006 293.30996704 467.73837280
283.32330322 293.30175781 467.74957275
283.32012939 293.30816650 467.73596191
283.32415771 293.29745483 467.75292969
329.03552246 223.76182556 457.56024170
329.02325439 223.76478577 457.56698608
329.04116821 223.76953125 457.55252075
329.03152466 223.76873779 457.56536865
284.42593384 269.71560669 448.58673096
284.42767334 269.71322632 448.59423828
284.43380737 269.71649170 448.58572388
284.43453979 269.70983887 448.59658813
244.62399292 224.12995911 475.39270020
244.62405396 224.13070679 475.40332031
244.62580872 224.12995911 475.38696289
244.62863159 224.12872314 475.39651489
269.15594482 265.45346069 480.13259888
269.15774536 265.44497681 480.14315796
269.15960693 265.45541382 480.13470459
269.16156006 265.44656372 480.14706421
296.36828613 244.98477173 456.80014038
296.36614990 244.98226929 456.80801392
296.37066650 244.98571777 456.79867554
296.37078857 244.98123169 456.81060791
284.52062988 249.21052551 464.09219360
284.52151489 249.20668030 464.09790039
284.52636719 249.21429443 464.09686279
284.52752686 249.20938110 464.10552979
273.41195679 259.40090942 446.40856934
273.41201782 259.39947510 446.41528320
273.41223145 259.40716553 446.40457153
273.41384888 259.40139771 446.41470337
337.09655762 225.90049744 444.51058960
337.08807373 225.90489197 444.52209473
337.10461426 225.90757751 444.50045776
337.09652710 225.90693665 444.51855469
288.34588623 213.34669495 433.70092773
288.34249878 213.34625244 433.70983887
288.34719849 213.35408020 433.68829346
288.34573364 213.34846497 433.70059204
240.45678711 218.00627136 482.62802124
240.45651245 218.00709534 482.64007568
240.44931030 217.99932861 482.62289429
240.45248413 217.99858093 482.63470459
250.07682800 270.63156128 438.53692627
250.07572937 270.62789917 438.54681396
250.08389282 270.64062500 438.52835083
250.08386230 270.63375854 438.54000854
332.34844971 233.60215759 458.07708740
332.33856201 233.60395813 458.08895874
332.35208130 233.60408020 458.06671143
332.34338379 233.60223389 458.08435059
270.58892822 294.50439453 467.64367676
270.59371948 294.49462891 467.65676880
270.59289551 294.50390625 467.64587402
270.59686279 294.49224854 467.66281128
284.28598022 286.83728027 478.53247070
284.28549194 286.83013916 478.54373169
284.29251099 286.83767700 478.52560425
284.29205322 286.83166504 478.54022217
333.32421875 233.31065369 438.63265991
333.32122803 233.31340027 438.64114380
333.33593750 233.31689453 438.62777710
333.33108521 233.31468201 438.64364624
249.83981323 237.31387329 482.29406738
249.83984375 237.31449890 482.30337524
249.84431458 237.30537415 482.29016113
249.84680176 237.30450439 482.29928589
229.66468811 216.10671997 462.90524292
229.66989136 216.10301208 462.91833496
229.66337585 216.11029053 462.89489746
229.66873169 216.10266113 462.90756226
289.41070557 282.69891357 471.34497070
289.41110229 282.69522095 471.35180664
289.42010498 282.69543457 471.34701538
289.42047119 282.69067383 471.35668945
327.36230469 213.92094421 444.21780396
327.34924316 213.92501831 444.23187256
327.37445068 213.92454529 444.20568848
327.36102295 213.92332458 444.22424316
282.80908203 216.34423828 440.38937378
282.80667114 216.34167480 440.40060425
282.80725098 216.34849548 440.38732910
282.80535889 216.34179688 440.39974976
239.82727051 285.91833496 450.87390137
239.82588196 285.91452026 450.88525391
239.83255005 285.91738892 450.86819458
239.83161926 285.90771484 450.88168335
265.25268555 246.70071411 477.87435913
265.25201416 246.69813538 477.88250732
265.25955200 246.69804382 477.88058472
265.26007080 246.69456482 477.88940430
303.27685547 265.81954956 461.37097168
303.27481079 265.81973267 461.37927246
303.27636719 265.82638550 461.36511230
303.27471924 265.82418823 461.37741089
301.71264648 275.31607056 458.17819214
301.71606445 275.31472778 458.18289185
301.72033691 275.32067871 458.18118286
301.72274780 275.31692505 458.19363403
264.99288940 232.25921631 441.03948975
264.99963379 232.25273132 441.05099487
264.99893188 232.26596069 441.04089355
265.00439453 232.25706482 441.05294800
245.24371338 222.56256104 438.35665894
245.24441528 222.55792236 438.36819458
245.25454712 222.56520081 438.35638428
245.25506592 222.55418396 438.36730957
280.93225098 225.35523987 450.42050171
280.92782593 225.35441589 450.42889404
280.93228149 225.36151123 450.42089844
280.93081665 225.35687256 450.43371582
247.57116699 259.08319092 491.22155762
247.56991577 259.07730103 491.23199463
247.58030701 259.08154297 491.22506714
247.57849121 259.07601929 491.23690796
221.33724976 221.11447144 460.81719971
221.33541870 221.11195374 460.83209229
221.34165955 221.11575317 460.80966187
221.33944702 221.10885620 460.82321167
241.63125610 234.48663330 432.61730957
241.63342285 234.48345947 432.62591553
241.64280701 234.49380493 432.61831665
241.64628601 234.48455811 432.62771606
324.15826416 207.43069458 440.73153687
324.14398193 207.43534851 440.74365234
324.15908813 207.43620300 440.72308350
324.14556885 207.43557739 440.73971558
255.45549011 289.24462891 458.03900146
255.45616150 289.23596191 458.05276489
255.46572876 289.24386597 458.03054810
255.46600342 289.23181152 458.04745483
288.72451782 293.21420288 477.52624512
288.72637939 293.20870972 477.53607178
288.73724365 293.21151733 477.52487183
288.73852539 293.20599365 477.53894043
217.95254517 214.49578857 433.98184204
217.95396423 214.48953247 434.00140381
217.96168518 214.49934387 433.97460938
217.96191406 214.48800659 433.99063110
269.31942749 293.34265137 460.52117920
269.32327271 293.33343506 460.53479004
269.32580566 293.34176636 460.51605225
269.32904053 293.33111572 460.53323364
273.43478394 238.43232727 467.71676636
273.43353271 238.42984009 467.72497559
273.43908691 238.43395996 467.71859741
273.43933105 238.43203735 467.72857666
327.59500122 249.83406067 461.91915894
327.58837891 249.83810425 461.92684937
327.60397339 249.84138489 461.91311646
327.59924316 249.84202576 461.92745972
296.91632080 228.85403442 438.71783447
296.91485596 228.85232544 438.72747803
296.92343140 228.85659790 438.71618652
296.92199707 228.84953308 438.72784424
319.88088989 228.79167175 429.20257568
319.87789917 228.79487610 429.21038818
319.89233398 228.80416870 429.19500732
319.88961792 228.80195618 429.20925903
306.16482544 234.01043701 438.84747314
306.16223145 234.01185608 438.85379028
306.17227173 234.01831055 438.84234619
306.17044067 234.01449585 438.85504150
258.25183105 244.72744751 438.50143433
258.25521851 244.72384644 438.50939941
258.26150513 244.73286438 438.49584961
258.26431274 244.72360229 438.50506592
257.44076538 267.19500732 441.10467529
257.44201660 267.19018555 441.11325073
257.44458008 267.19775391 441.10098267
257.44616699 267.18823242 441.11218262
315.69378662 221.32839966 444.23757935
315.68478394 221.32980347 444.24630737
315.68774414 221.33364868 444.23156738
315.68075562 221.33142090 444.24630737
317.64422607 259.29708862 459.41769409
317.64508057 259.29571533 459.42605591
317.64849854 259.29785156 459.40881348
317.64910889 259.29391479 459.42398071
244.90539551 224.24594116 466.62283325
244.91122437 224.24052429 466.63470459
244.90957642 224.24772644 466.62100220
244.91500854 224.24003601 466.63174438
257.50238037 283.41375732 446.70330811
257.50140381 283.41091919 446.70977783
257.50881958 283.41119385 446.69976807
257.50756836 283.40286255 446.71115112
280.06396484 274.02243042 472.40252686
280.05865479 274.01910400 472.40863037
280.07260132 274.01757812 472.40206909
280.06927490 274.01312256 472.41101074
321.01290894 246.12092590 457.33151245
321.00598145 246.12181091 457.34133911
321.01806641 246.12826538 457.32199097
321.01190186 246.12594604 457.33648682
232.10360718 227.45162964 427.56787109
232.10685730 227.44526672 427.58605957
232.11622620 227.45089722 427.56951904
232.11860657 227.43968201 427.58679199
311.70126343 207.02676392 434.31027222
311.69024658 207.03053284 434.32241821
311.70327759 207.02896118 434.30334473
311.69201660 207.02766418 434.31979370
331.65029907 242.22245789 456.78030396
331.64184570 242.22705078 456.78506470
331.65942383 242.22738647 456.77511597
331.65332031 242.22784424 456.78704834
253.21165466 225.24008179 455.29321289
253.21318054 225.23712158 455.30340576
253.21501160 225.24688721 455.28909302
253.21871948 225.23960876 455.29934692
252.72229004 262.07742310 438.74072266
252.72521973 262.07180786 438.75000000
252.72833252 262.08203125 438.74176025
252.72988892 262.07315063 438.75228882
330.38647461 246.25601196 448.54312134
330.38323975 246.25888062 448.54956055
330.40036011 246.26141357 448.53466797
330.39776611 246.25872803 448.55044556
239.82202148 242.69889832 491.46865845
239.82424927 242.69610596 491.47879028
239.82141113 242.69189453 491.46911621
239.82435608 242.68888855 491.47933960
268.35375977 254.16468811 477.30133057
268.35076904 254.16296387 477.30813599
268.36145020 254.15866089 477.30221558
268.36169434 254.15562439 477.31124878
241.99681091 277.26528931 439.46459961
241.99864197 277.26315308 439.47238159
242.01489258 277.26229858 439.45440674
242.01490784 277.25408936 439.46475220
237.28993225 220.52204895 439.28829956
237.29096985 220.51696777 439.30172729
237.29751587 220.52812195 439.29162598
237.29824829 220.51860046 439.30410767
293.53002930 276.70922852 466.17871094
293.53054810 276.70465088 466.18716431
293.53762817 276.70904541 466.17617798
293.53759766 276.70272827 466.18954468
284.60589600 231.61885071 454.48971558
284.60678101 231.61776733 454.49890137
284.60852051 231.62326050 454.49197388
284.61105347 231.61930847 454.50469971
305.20684814 244.88787842 445.85696411
305.20501709 244.88711548 445.86441040
305.21032715 244.89624023 445.85339355
305.20999146 244.89273071 445.86529541
227.34776306 220.71513367 478.40188599
227.34736633 220.71374512 478.41687012
227.34020996 220.71263123 478.38751221
227.34268188 220.70764160 478.40066528
270.93112183 272.49920654 446.41992188
270.93200684 272.49566650 446.42864990
270.93502808 272.50225830 446.41567993
270.93588257 272.49517822 446.42813110
217.42140198 218.89311218 450.50436401
217.42070007 218.88832092 450.51977539
217.42236328 218.89776611 450.48941040
217.42163086 218.88822937 450.50253296
274.90283203 225.29853821 438.58911133
274.90457153 225.29449463 438.59350586
274.90301514 225.30389404 438.57702637
274.90661621 225.29556274 438.58651733
273.70364380 295.57196045 474.36059570
273.70159912 295.56597900 474.37295532
273.70928955 295.57055664 474.36080933
273.70730591 295.56286621 474.37643433
322.17837524 247.33657837 442.46276855
322.17462158 247.33839417 442.46859741
322.18798828 247.34692383 442.45645142
322.18524170 247.34492493 442.46997070
329.78509521 215.30186462 451.74572754
329.77020264 215.30541992 451.75994873
329.78988647 215.30354309 451.73904419
329.77676392 215.30252075 451.75708008
246.22004700 220.53668213 444.79351807
246.22209167 220.53292847 444.80541992
246.22750854 220.54196167 444.78884888
246.23291016 220.53308105 444.80102539
328.59985352 222.09057617 428.16836548
328.59725952 222.09304810 428.17669678
328.60626221 222.10014343 428.16168213
328.60278320 222.09757996 428.17776489
237.17947388 209.57994080 463.58981323
237.18675232 209.57426453 463.60430908
237.17834473 209.58317566 463.57415771
237.18325806 209.57360840 463.58581543
258.18786621 243.22810364 481.31112671
258.18945312 243.22505188 481.32138062
258.19378662 243.22662354 481.30993652
258.19567871 243.22265625 481.32086182
281.96899414 256.78167725 466.10134888
281.96990967 256.77761841 466.10665894
281.97607422 256.78332520 466.10229492
281.97625732 256.77764893 466.11291504
288.52148438 222.59043884 445.75015259
288.52038574 222.58901978 445.76031494
288.52252197 222.59524536 445.74819946
288.52154541 222.59004211 445.75994873
267.65820312 235.10992432 468.84750366
267.65765381 235.10736084 468.85885620
267.66629028 235.11203003 468.84762573
267.66744995 235.10803223 468.85928345
284.81018066 243.04100037 461.41497803
284.80908203 243.03836060 461.42068481
284.81781006 243.03865051 461.42068481
284.81820679 243.03456116 461.42874146
245.60450745 284.67572021 446.97732544
245.60372925 284.67303467 446.98443604
245.61614990 284.67211914 446.97235107
245.61563110 284.66342163 446.98464966
281.28845215 240.65995789 444.03518677
281.29339600 240.65556335 444.04400635
281.29635620 240.66500854 444.03585815
281.30133057 240.65643311 444.04797363
323.88671875 234.33509827 433.14697266
323.88534546 234.33381653 433.15417480
323.89620972 234.34486389 433.13525391
323.89459229 234.33995056 433.15048218
259.70565796 227.04614258 454.76272583
259.70898438 227.04125977 454.77172852
259.70956421 227.04641724 454.75396729
259.71499634 227.03706360 454.76358032
297.04638672 216.19180298 439.57907104
297.04333496 216.19055176 439.58850098
297.04693604 216.19795227 439.57037354
297.04412842 216.19229126 439.58401489
294.35543823 216.79174805 433.46035767
294.35327148 216.79258728 433.46838379
294.35232544 216.80258179 433.45190430
294.35174561 216.79870605 433.46493530
299.75158691 270.90490723 463.73159790
299.75006104 270.89910889 463.74212646
299.75836182 270.90542603 463.72634888
299.75665283 270.90005493 463.74172974
306.88848877 202.71504211 430.21575928
306.87677002 202.71975708 430.22967529
306.89340210 202.71887207 430.20666504
306.88226318 202.71656799 430.22296143
240.03129578 244.05459595 433.00888062
240.03091431 244.05009460 433.02005005
240.03698730 244.06268311 433.00152588
240.03698730 244.05404663 433.01318359
259.26306152 274.05169678 443.11834717
259.26617432 274.04672241 443.12734985
259.27026367 274.05407715 443.11123657
259.27294922 274.04550171 443.12322998
291.22790527 248.21759033 459.33026123
291.22332764 248.21632385 459.33544922
291.23196411 248.21913147 459.33343506
291.22952271 248.21546936 459.34289551
243.60903931 225.55792236 484.15747070
243.61198425 225.55987549 484.16583252
243.60958862 225.55155945 484.15115356
243.61361694 225.55204773 484.15963745
333.72198486 238.09999084 449.53979492
333.71414185 238.10266113 449.54776001
333.73284912 238.10107422 449.53051758
333.72460938 238.09910583 449.54583740
296.51196289 264.26947021 450.48828125
296.51086426 264.26934814 450.49420166
296.51678467 264.27441406 450.48611450
296.51663208 264.27127075 450.49673462
220.16040039 217.78544617 419.17324829
220.16075134 217.78265381 419.18688965
220.16900635 217.78904724 419.16943359
220.16748047 217.78105164 419.18054199
235.82884216 261.64349365 433.84313965
235.82884216 261.64154053 433.85330200
235.83900452 261.64517212 433.83288574
235.83819580 261.63735962 433.84588623
224.87252808 239.79267883 421.72113037
224.87435913 239.78854370 421.73406982
224.87924194 239.79824829 421.71240234
224.87803650 239.78855896 421.72488403
247.19123840 236.52244568 436.23626709
247.18731689 236.51820374 436.24349976
247.19277954 236.53363037 436.23663330
247.19047546 236.52552795 436.24404907
318.44573975 214.08465576 422.88619995
318.44152832 214.08903503 422.89505005
318.45007324 214.09817505 422.87826538
318.44458008 214.09658813 422.89477539
295.75189209 286.47436523 467.72247314
295.75500488 286.47027588 467.73034668
295.76098633 286.47140503 467.72259521
295.76489258 286.46588135 467.73602295
274.45159912 284.93655396 448.75848389
274.45678711 284.93139648 448.76550293
274.46191406 284.93716431 448.75527954
274.46624756 284.92858887 448.76791382
