ply
format ascii 1.0
element vertex 512
property float x
property float y
property float z
end_header
110.01335144 253.60766602 468.03945923
106.24741364 254.14476013 472.66302490
106.49165344 259.68930054 465.96957397
116.24080658 249.27342224 468.63351440
113.96806335 248.83546448 472.81652832
112.34123230 255.44163513 460.79595947
109.75669098 250.77178955 475.35705566
104.04516602 259.54968262 470.26669312
119.03355408 249.48791504 463.07977295
107.78823853 263.21734619 461.70779419
101.68711090 253.33172607 476.58837891
118.00591278 245.79817200 473.37225342
109.50901794 246.04081726 479.06875610
119.83309937 252.13432312 458.32095337
115.51551819 260.77722168 455.41958618
109.90834808 265.55465698 457.78436279
101.92299652 267.71099854 467.77200317
103.07831573 246.33279419 481.18475342
97.13798523 258.71078491 477.21887207
99.21022034 249.11064148 479.90802002
114.15415192 241.38015747 479.45938110
104.34671783 269.96377563 462.10330200
125.51917267 250.22616577 458.72744751
126.07566833 246.00852966 463.21279907
94.89586639 253.41018677 478.89257812
106.36939240 241.82789612 482.59741211
96.93254852 264.48910522 477.07562256
98.36499786 268.79400635 471.92599487
123.96616364 257.20556641 454.18701172
126.65187073 242.50436401 471.59457397
121.45750427 240.23782349 478.24346924
108.28091431 272.42437744 458.54257202
121.75309753 264.63253784 453.08560181
118.16579437 237.71823120 481.35760498
92.27967834 247.53660583 480.13955688
128.59471130 253.56930542 455.14971924
129.03582764 246.46615601 457.98388672
115.96129608 269.98550415 453.31320190
129.62593079 261.97079468 459.64749146
129.73989868 241.67431641 467.13427734
97.76399994 273.32400513 468.74200439
103.54516602 238.58035278 484.59118652
90.97498322 260.30584717 479.75531006
125.65371704 268.44610596 458.43902588
113.70265198 234.82888794 482.19860840
132.63073730 257.19680786 460.01531982
120.34008789 272.37582397 456.52716064
126.79906464 237.31591797 475.14993286
107.50986481 235.72315979 484.53680420
106.10500336 277.17199707 462.56900024
94.23606873 242.77079773 483.55136108
131.76643372 242.37692261 462.33776855
87.92481995 252.26321411 480.10919189
101.48300171 277.20800781 465.61499023
116.46099854 277.00100708 459.54800415
86.54899597 263.66000366 464.05200195
91.29299927 268.99401855 477.51300049
86.54399872 261.42498779 459.70098877
84.75600433 256.66400146 461.87298584
128.35099792 271.86199951 463.60702515
131.84300232 268.01699829 465.14999390
123.86699677 274.71600342 460.44601440
84.40600586 259.84799194 469.23199463
91.98500061 272.70401001 470.80001831
88.85900116 267.14898682 459.80297852
96.19300079 276.02700806 464.89300537
87.36000061 267.44400024 468.19400024
121.31073761 233.57693481 481.30722046
92.79800415 273.13699341 462.82501221
99.29617310 237.50959778 486.29324341
83.18395233 253.46281433 466.93908691
83.86103821 253.45614624 474.87365723
132.30470276 237.84234619 470.26284790
136.69035339 258.03820801 463.66818237
85.82500458 264.83599854 475.01300049
85.29900360 257.14099121 456.29000854
136.40699768 262.94100952 466.51699829
89.96599579 265.13800049 452.04498291
95.66799927 276.49600220 459.83499146
87.25900269 260.34298706 452.70300293
135.34603882 248.82501221 456.34802246
82.21315765 247.78733826 470.21743774
93.21899414 271.96697998 454.10998535
85.81804657 246.44757080 481.44912720
94.36425018 238.21397400 486.39715576
89.12057495 242.21530151 484.10766602
83.65412140 248.30801392 456.93975830
118.77399445 280.79501343 462.33599854
92.58600616 268.96701050 450.17901611
111.95400238 282.55099487 463.36001587
123.90599823 279.23101807 462.59701538
84.96855927 252.41532898 452.09341431
114.37178040 228.66003418 483.83306885
133.13398743 272.61700439 466.41900635
81.91757202 245.07554626 474.76748657
81.61609650 245.53482056 461.92721558
97.99099731 280.61300659 460.88000488
136.81948853 241.40135193 460.35870361
107.54571533 229.07859802 485.99917603
100.87870789 231.58370972 487.26113892
97.01800537 278.00399780 454.73699951
81.04528809 243.53915405 466.53207397
95.01200104 273.29299927 449.52099609
84.28231812 247.36305237 452.00494385
91.15900421 264.09301758 445.70898438
130.78900146 276.73501587 466.19299316
117.02299500 284.26000977 465.14099121
114.21405029 224.73680115 480.22723389
127.35821533 228.56965637 477.08944702
141.22256470 255.55485535 461.76458740
137.28372192 236.94854736 465.68463135
87.48100281 257.83700562 445.36700439
80.01953125 241.22938538 470.43750000
84.91388702 249.11331177 447.72839355
103.52099609 285.47201538 465.37100220
119.33510590 224.90338135 480.67382812
84.35345459 241.17974854 484.25476074
142.18397522 261.09204102 465.40737915
88.42987823 236.05442810 486.44177246
83.67027283 242.46305847 450.58865356
98.26000214 277.22799683 447.12600708
140.69599915 267.45199585 467.00997925
81.09113312 239.34948730 458.10949707
134.03790283 229.88597107 472.96267700
103.60072327 225.54777527 486.46542358
80.15705109 238.80453491 475.75091553
123.03399658 285.22698975 466.36599731
110.03789520 222.08287048 482.05825806
95.69599915 269.98800659 441.18499756
95.80852509 229.96743774 489.03204346
100.82700348 284.25500488 454.67901611
129.52661133 225.48052979 473.76879883
140.96420288 243.60581970 455.92272949
93.21399689 263.07998657 439.12500000
128.91200256 282.82800293 466.55398560
79.82262421 236.64253235 462.01507568
81.88632965 238.35527039 452.83285522
87.69599915 255.31799316 440.53097534
139.91198730 272.63998413 466.64102173
103.58999634 288.00900269 459.94699097
143.97677612 250.71484375 456.62359619
78.89260864 235.81297302 471.06231689
80.85856628 236.39334106 480.51248169
84.84726715 244.22184753 443.15655518
109.99600220 290.20101929 466.36798096
115.38299561 289.80700684 466.23297119
100.83100128 279.67398071 443.85900879
116.67256165 218.31108093 476.66503906
100.07700348 275.64999390 439.84799194
140.23403931 231.88804626 468.59390259
102.48500061 283.42898560 446.61099243
85.06804657 232.28396606 486.92416382
111.60929871 217.10986328 478.14114380
79.77970123 234.46582031 455.48828125
97.47891998 224.01730347 488.40332031
145.65930176 267.04406738 465.95523071
104.39921570 218.61276245 482.17828369
84.41181183 238.73730469 443.96099854
147.54998779 259.70504761 462.55218506
92.95099640 259.64901733 434.09799194
86.24257660 247.82226562 438.15609741
125.04471588 218.66067505 474.89682007
90.17197418 227.35913086 488.79269409
143.03901672 234.33302307 460.43008423
144.21429443 272.40951538 468.72747803
138.66500854 280.28698730 466.39401245
145.14976501 244.92028809 452.94714355
78.58512878 230.47311401 462.79577637
78.90559387 229.54692078 474.12576294
114.30730438 214.53010559 474.57553101
98.18799591 270.14898682 433.75000000
107.45199585 292.93502808 461.81198120
103.90100098 280.58999634 439.28302002
137.17730713 225.04847717 475.00030518
126.79199982 289.90899658 466.33300781
132.44776917 221.22496033 475.32095337
143.69384766 235.85873413 455.56527710
87.92662811 251.28080750 434.69201660
80.75984192 231.82022095 484.69998169
106.55100250 291.25500488 454.58798218
131.17199707 287.52600098 463.88302612
97.23403931 219.26699829 485.12792969
107.81300354 289.32601929 448.89300537
81.09092712 232.71139526 448.59640503
143.91688538 231.17318726 465.28848267
121.20064545 214.32884216 473.92083740
107.04000092 286.56799316 443.26599121
108.96994019 213.01571655 476.74411011
144.83264160 238.64328003 450.80020142
78.94988251 229.31152344 454.50396729
78.95516205 228.50381470 480.76361084
100.65890503 214.80833435 481.94586182
102.65299988 275.87301636 432.85800171
91.88300323 254.08500671 429.76901245
86.13928223 241.94926453 434.86331177
123.55300140 293.93197632 466.45098877
141.91812134 226.07922363 474.11676025
109.19300079 295.03198242 457.93099976
96.58200073 264.27297974 428.92300415
151.24618530 253.77067566 456.22619629
137.22999573 286.76797485 465.95498657
83.51850891 230.95025635 442.43399048
151.68927002 265.41467285 465.53103638
81.18486023 228.47027588 488.73379517
112.57199860 296.84500122 463.91699219
149.71961975 244.10498047 452.90298462
87.87012482 245.79731750 431.32571411
78.27915955 224.50131226 460.62771606
107.33200073 283.42800903 436.17300415
102.16502380 211.73669434 478.29006958
114.48729706 209.94898987 471.89312744
142.43879700 234.67684937 444.64852905
105.81900024 279.50997925 432.34100342
150.38706970 271.77218628 466.17767334
85.62984467 236.09423828 435.29592896
144.44126892 229.84860229 452.51351929
78.54407501 222.02297974 469.76348877
87.76553345 220.16857910 488.08273315
146.85032654 228.12786865 471.01986694
120.34899902 297.37698364 464.33700562
92.02001953 217.18208313 487.80209351
102.78700256 273.40298462 428.07598877
110.84500122 296.32699585 453.29400635
111.66600037 291.26098633 442.52499390
90.51858521 249.99771118 427.07058716
99.65499878 269.37402344 426.57797241
138.44508362 232.05352783 439.65603638
123.99230957 210.32141113 471.37524414
135.03105164 216.27526855 475.98309326
145.58898926 282.33901978 466.99899292
95.76428223 212.58927917 482.71701050
78.90396881 224.97305298 486.12152100
141.34713745 221.10568237 476.93875122
78.32849121 222.37413025 456.10232544
110.78699493 288.52297974 437.96398926
155.14553833 260.42562866 461.51663208
152.48609924 249.28869629 450.51651001
96.39500427 259.39498901 424.12600708
149.76300049 277.62402344 468.44100952
86.89083862 240.18882751 429.81130981
78.08222198 220.44651794 475.85614014
108.58420563 206.82847595 471.95333862
131.00000000 295.53799438 463.82702637
149.85339355 229.63258362 460.64758301
98.24600220 264.71099854 423.61999512
97.75118256 209.05047607 478.25402832
77.69744873 222.03376770 482.28009033
103.83673096 206.90332031 474.21203613
147.52957153 236.84005737 443.67156982
116.77599335 300.63098145 462.56597900
79.15878296 222.14566040 449.45785522
143.72235107 234.30220032 439.95932007
131.22758484 210.81573486 474.02462769
110.67699432 286.50097656 432.88699341
148.20881653 227.34793091 454.80029297
113.47299957 296.72799683 446.74600220
94.35287476 252.47833252 422.15155029
155.88093567 268.86123657 463.96932983
80.18966675 220.97566223 488.41366577
144.14819336 226.69393921 446.04321289
119.01454926 205.49099731 469.14193726
114.19300079 301.27700806 457.44601440
78.36363220 216.37675476 464.11105347
82.55992126 223.98117065 440.21899414
138.75801086 293.16799927 463.16400146
90.05917358 243.87562561 423.99877930
109.52100372 283.07000732 428.46499634
157.57829285 257.71035767 455.57257080
151.37843323 239.80070496 444.89602661
78.08638763 217.48083496 457.30969238
101.26399994 269.89199829 422.09698486
85.68101501 227.95005798 433.34078979
154.02075195 252.26196289 445.30435181
137.42317200 212.46720886 474.24661255
157.27110291 254.59933472 451.41806030
98.77751160 205.18992615 474.64590454
105.30000305 274.03799438 422.37899780
148.16888428 222.01419067 476.61987305
153.20193481 244.72001648 443.60205078
77.79079437 214.86834717 470.69714355
88.82110596 236.89176941 425.17730713
113.49631500 203.03352356 468.59576416
122.33300018 302.71499634 463.94500732
87.96233368 231.16123962 428.15548706
92.82057190 247.16389465 420.62203979
154.09571838 228.42185974 464.10769653
155.47000122 276.47598267 465.21697998
140.11001587 216.02844238 451.17608643
147.37899780 288.54199219 465.47201538
87.17369843 211.67175293 486.72579956
145.12895203 220.72486877 450.22070312
142.97872925 228.94041443 437.37893677
153.22900391 281.39999390 465.74398804
84.12474823 215.30227661 490.64569092
127.98101044 301.86099243 463.97201538
90.43273163 207.47941589 480.59484863
108.80200195 278.21401978 422.56900024
154.75617981 227.52598572 469.11013794
142.04252625 213.70573425 476.86450195
116.11199951 302.10800171 450.18099976
106.08750916 201.61897278 470.11376953
97.13099670 255.55899048 417.48498535
116.73300171 300.21798706 445.05300903
149.58287048 221.82205200 454.36080933
92.63500214 204.05867004 475.12548828
117.34600067 297.54498291 439.11001587
101.12711334 201.28500366 470.29138184
160.86270142 263.76623535 455.75662231
85.05272675 220.51049805 434.33059692
101.87899780 268.75201416 417.44802856
78.87154388 210.49098206 462.02563477
78.82108307 215.71080017 446.61660767
150.43479919 230.74519348 441.29626465
136.28900146 299.86898804 460.80398560
76.20729065 213.19696045 478.84268188
122.50756836 201.24067688 467.33752441
159.65414429 258.81387329 447.72738647
118.55599976 305.12600708 454.56698608
130.34762573 203.56236267 469.47399902
78.90124512 210.85041809 456.86111450
108.58800507 275.58401489 418.64700317
116.62300110 292.24600220 430.50000000
161.15168762 269.91152954 459.08294678
156.88613892 247.70285034 440.98336792
140.45899963 297.67001343 458.20700073
85.40866852 206.49342346 480.11123657
80.91154480 217.07156372 439.67501831
149.82182312 224.39694214 444.53442383
156.54856873 226.95596313 456.98315430
154.54701233 284.65802002 460.50598145
100.36800385 264.22302246 415.09600830
112.88800049 282.64300537 421.43499756
93.32070160 243.35136414 416.66339111
146.82394409 219.95169067 444.67291260
89.80571747 234.84771729 420.35638428
77.33749390 213.68397522 487.57040405
115.36299896 287.82901001 424.88598633
146.41600037 294.50500488 459.91799927
162.78253174 259.97708130 451.77789307
159.25799561 278.23300171 460.15997314
126.64200592 306.27600098 461.41400146
151.08700562 290.12500000 459.42398071
77.49169159 208.28424072 468.91177368
136.99041748 204.65342712 470.12472534
82.67411041 207.58201599 484.77902222
144.59300232 295.94699097 455.47900391
159.15142822 252.69233704 440.86392212
156.95770264 235.87406921 442.59140015
102.02277374 197.91171265 466.95617676
96.21351624 199.06098938 469.65722656
155.91836548 221.62696838 475.11492920
76.70570374 208.61712646 475.13000488
86.81964111 222.83480835 426.79660034
87.01049805 202.56713867 475.23608398
148.14299011 292.57101440 453.23397827
96.10202789 247.09516907 413.50308228
148.44763184 212.75627136 476.36691284
133.02000427 305.01300049 460.76599121
119.75800323 303.67401123 443.05200195
89.30686188 228.98728943 421.20800781
142.07232666 206.90016174 472.45071411
148.15608215 214.64241028 451.72549438
138.84756470 209.48912048 446.31909180
77.11919403 209.57333374 483.34469604
122.87899780 308.05200195 456.53302002
151.78300476 288.85498047 451.21701050
99.14500427 257.87197876 412.05902100
160.43249512 226.84561157 464.55099487
162.65151978 269.10421753 451.89630127
143.66587830 213.97875977 444.04318237
120.00000000 297.37899780 432.30599976
105.27099609 269.81799316 413.16598511
91.83995056 238.83462524 415.60256958
163.18788147 263.69757080 448.68136597
154.28483582 226.15040588 443.71459961
157.57096863 275.57601929 444.24670410
161.23422241 259.70523071 442.52008057
117.23107910 196.59176636 464.64422607
144.26531982 211.12022400 449.45587158
160.09666443 242.89926147 441.23461914
122.37710571 197.17427063 464.28555298
110.83100128 275.38601685 414.25100708
110.75045776 195.45896912 464.33410645
78.49388885 205.82559204 479.60473633
131.70675659 199.32775879 465.79666138
164.83839417 243.57954407 450.21932983
141.44599915 301.26101685 455.11199951
121.87500000 307.06201172 446.50701904
78.77156830 208.02503967 447.79504395
163.22741699 243.63462830 444.90145874
159.99099731 284.22998047 461.41497803
98.04599762 250.93099976 410.28500366
153.54389954 214.47984314 476.35882568
147.87001038 295.07800293 449.25399780
158.52850342 228.51535034 445.07238770
160.94349670 224.35580444 460.00976562
165.27037048 238.66506958 452.13381958
156.89289856 221.09672546 451.36923218
137.74900818 305.15200806 457.30599976
83.27738190 213.25306702 433.17864990
79.27980804 202.80416870 461.32113647
159.48199463 285.16799927 455.42999268
78.01292419 202.86521912 470.52093506
151.04115295 215.63429260 446.12265015
153.97865295 219.86158752 444.91363525
163.50610352 276.54748535 453.16915894
162.80429077 236.10826111 445.30041504
104.72660065 193.78616333 462.62628174
91.45085144 232.94152832 414.51074219
90.66866302 228.87049866 416.53909302
126.65885925 195.86465454 462.73864746
79.75957489 209.61166382 439.92477417
163.40585327 281.83767700 464.37100220
163.16403198 267.89410400 442.86419678
123.35600281 303.52899170 436.34997559
119.11000061 285.96499634 417.39401245
157.50799561 291.17300415 462.50000000
157.10699463 289.81597900 454.95797729
137.04252625 199.15930176 465.60598755
160.08200073 283.24700928 450.10400391
162.84571838 223.44070435 471.01599121
126.39899445 310.49401855 453.04901123
87.16810608 214.92315674 426.62142944
103.01399994 259.85198975 407.60299683
79.85655975 200.84002686 475.05566406
156.91499329 288.78201294 449.83599854
164.31546021 255.74818420 439.31079102
121.66699982 293.02700806 422.25097656
95.60007477 193.91926575 463.83587646
87.83164978 217.95634460 422.98379517
167.40325928 275.30218506 462.28527832
159.20845032 282.08560181 444.22332764
163.54092407 231.58985901 446.74130249
116.75885773 192.60150146 461.38562012
162.16938782 226.01528931 449.80584717
146.03399658 300.89102173 451.01699829
145.18316650 262.29730225 417.89462280
79.81124115 202.37817383 450.97866821
161.95841980 287.24346924 465.94271851
149.03263855 205.59184265 470.51220703
111.73400116 273.87100220 409.54501343
164.14031982 262.78399658 439.37094116
97.25568390 244.98822021 408.01181030
107.89199829 269.42300415 408.12600708
162.62692261 278.13574219 446.10430908
89.48386383 195.02754211 466.62011719
78.23259735 200.13664246 466.33898926
116.40100098 279.40600586 411.73101807
154.67999268 296.17498779 459.40301514
154.80599976 294.16299438 452.64398193
160.46171570 272.23507690 436.46704102
157.80792236 278.55850220 436.69458008
166.71528625 248.33815002 442.55157471
165.05429077 272.88339233 445.74130249
168.26898193 272.05499268 454.55746460
125.76000214 309.33697510 444.20700073
111.51287842 191.45584106 460.48007202
93.90761566 235.63407898 410.20281982
96.03137207 240.66471863 408.31210327
131.04499817 311.63497925 455.67199707
89.50069427 222.30897522 417.34475708
154.82035828 268.17437744 426.13848877
125.49500275 300.16601562 428.24899292
82.04855347 196.93569946 470.86721802
101.40100098 253.70500183 405.31799316
157.08700562 296.04797363 464.62899780
163.89260864 268.21072388 437.27932739
92.13050079 228.56645203 411.92916870
168.88072205 237.03906250 448.86138916
165.35203552 223.41812134 456.23803711
123.40299988 289.71798706 416.57299805
170.93075562 245.14054871 449.34466553
171.03216553 263.69403076 450.41387939
152.57200623 299.27200317 452.39599609
144.38307190 255.95614624 413.60995483
151.29899597 298.60699463 447.38500977
128.33200073 307.85198975 438.19299316
169.36419678 269.27343750 447.73382568
116.02799988 275.73999023 407.58499146
145.91587830 199.88204956 465.36697388
171.62725830 271.32492065 458.51126099
150.36459351 261.82431030 417.93133545
168.04380798 230.35716248 450.64648438
166.32063293 221.65444946 463.01031494
81.82907104 206.42890930 433.40350342
80.46169281 196.89036560 456.43518066
157.75958252 209.87528992 475.40219116
80.19099426 201.41749573 442.77478027
129.71800232 312.33502197 447.40701294
172.01391602 237.81903076 454.78622437
151.71499634 302.97698975 457.39599609
106.39262390 188.80218506 457.92556763
152.24960327 267.42782593 419.64147949
168.21580505 284.30627441 468.11819458
124.10411072 189.99331665 458.46548462
149.70744324 253.74084473 415.42468262
169.49383545 252.77203369 439.64434814
142.44703674 196.31674194 461.64099121
84.04545593 192.77185059 466.90307617
81.36763000 197.13281250 448.40661621
168.50160217 257.50448608 436.92852783
160.26979065 270.63320923 428.16159058
167.35847473 220.35734558 471.56314087
115.21289825 188.26434326 457.16091919
106.73400116 260.57400513 402.03799438
164.33200073 291.99200439 468.97900391
128.06600952 296.25000000 420.23400879
139.50599670 311.54598999 453.76699829
174.76429749 240.37988281 459.26727295
99.77442932 244.92536926 402.71530151
172.86549377 250.27629089 445.95730591
167.12614441 279.66976929 445.30490112
