ply
format ascii 1.0
element vertex 512
property float x
property float y
property float z
end_header
103.40647888 177.09355164 403.84942627
106.45181274 180.25083923 402.12951660
106.27571869 175.54765320 399.41152954
100.34942627 172.42658997 405.32919312
100.79805756 178.96987915 409.04876709
105.52445984 185.15554810 406.58602905
102.50922394 168.54994202 400.38900757
111.03802490 180.84053040 398.37152100
106.78116608 170.48268127 396.01025391
97.13363647 175.65486145 412.90957642
110.67602539 186.42680359 402.15237427
97.27665710 167.32356262 408.60168457
111.11106873 173.33923340 394.34197998
100.23036194 183.80505371 414.52383423
98.42520142 164.45164490 404.45614624
103.89816284 189.11058044 412.67050171
95.94501495 171.91223145 416.39947510
96.50986481 179.33497620 418.05056763
108.86148071 166.77819824 392.83721924
99.99362183 161.17074585 400.46875000
95.53504944 167.33895874 415.10882568
95.97470856 162.88783264 409.82046509
104.14136505 161.97271729 395.71154785
116.54577637 184.34153748 395.45730591
116.63635254 177.84465027 392.64480591
110.75905609 192.95971680 406.63323975
107.28372192 193.09593201 411.08129883
117.08132935 188.61357117 397.78283691
96.70441437 159.09524536 406.23571777
115.84612274 191.68986511 401.01620483
99.81043243 188.08389282 419.55834961
115.19299316 169.81890869 389.58242798
112.17614746 164.63124084 389.57467651
94.65491486 168.47830200 420.79144287
97.31675720 184.03425598 422.80895996
94.69629669 161.43365479 415.40155029
121.18789673 183.37100220 391.93154907
94.75283051 172.41629028 423.90017700
105.86306000 195.75279236 416.10333252
109.86219025 197.03742981 413.21289062
99.29673004 155.14501953 398.40194702
120.78432465 190.81784058 396.25024414
102.26824951 193.80851746 420.33789062
119.21332550 171.25759888 387.34765625
93.78923035 163.37322998 420.71981812
108.79134369 158.22430420 390.34594727
115.67975616 197.59835815 406.19406128
104.13699341 154.87481689 393.18579102
94.79012299 155.28158569 412.38467407
96.59741974 152.99201965 404.85537720
119.31827545 196.46540833 401.70013428
98.71265411 189.57601929 425.32067871
116.70159912 164.97340393 385.97555542
122.43318176 175.26925659 386.76272583
114.24661255 199.61842346 411.19610596
94.92959595 177.36013794 428.83239746
93.44574738 157.20208740 418.58364868
96.07903290 183.91047668 429.28350830
93.03289795 168.47863770 427.77401733
106.01811218 198.96076965 420.52572632
114.18782043 158.46925354 385.91650391
122.42166901 167.60527039 384.35360718
127.09883118 182.82189941 387.96667480
123.71616364 197.96646118 399.48654175
93.10318756 152.59059143 416.73837280
127.59990692 190.40675354 392.12808228
101.59245300 196.24307251 426.93139648
111.70119476 153.59443665 386.99319458
118.53623199 202.82165527 409.04815674
101.25292969 147.75000000 394.70205688
112.60380554 202.81413269 418.13137817
119.08452606 159.91850281 383.53106689
91.21484375 164.37879944 429.40307617
97.87934875 146.58767700 400.52304077
127.55664062 171.36952209 384.84869385
116.46387482 203.77952576 414.50631714
129.00186157 178.39660645 385.22415161
90.60257721 159.56517029 427.11734009
106.68423462 148.50920105 389.90612793
94.72420502 180.04167175 434.76464844
128.56913757 195.53063965 395.14279175
92.58457947 172.36674500 434.07553101
108.11862183 202.89529419 423.30355835
96.96867371 189.73832703 433.33090210
123.35570526 203.55740356 404.90881348
94.31014252 146.39508057 412.65679932
90.31681824 154.57061768 424.69354248
115.20685577 151.98902893 384.65713501
90.57051086 167.30233765 434.27896118
100.99818420 197.02195740 432.43530273
133.66589355 180.65423584 386.22079468
132.06080627 173.85704041 383.50027466
121.86431885 155.37500000 382.98498535
92.37862396 147.26724243 419.27618408
132.70320129 192.15061951 390.77160645
129.16462708 165.88854980 381.91033936
125.44363403 159.75184631 381.66723633
134.58184814 187.47047424 388.27117920
129.76303101 201.78730774 398.94812012
105.82382202 202.37954712 430.11526489
121.59075165 207.75686646 412.62957764
96.85321808 140.85945129 405.09323120
132.67968750 196.76138306 392.97055054
88.71395111 158.74903870 432.33663940
112.16505432 145.72253418 386.36068726
110.34981537 205.61367798 426.39099121
127.81794739 205.05303955 403.64297485
115.46129608 207.25355530 422.58493042
119.23164368 150.12251282 382.57644653
104.59625244 141.12707520 392.04467773
100.36199951 139.50581360 398.01193237
89.78778839 148.09304810 424.94268799
125.74941254 207.93585205 408.48449707
89.50822449 168.08071899 438.69540405
108.79465485 141.88969421 388.71792603
91.68418884 174.33123779 440.74487305
96.50881958 189.42582703 440.08685303
88.82777405 150.83186340 428.73837280
98.84246063 194.23674011 438.79983521
94.28962708 180.57115173 441.85363770
93.65443420 140.26658630 414.04562378
102.39187622 199.48365784 436.34487915
137.74119568 176.54891968 383.80316162
136.68533325 169.78764343 383.13061523
95.74864960 138.14225769 409.02246094
91.94139099 141.55230713 418.60009766
139.11204529 186.17646790 387.27029419
121.36671448 210.34788513 419.06448364
132.76260376 159.79325867 381.43612671
118.99692535 209.96835327 422.82373047
138.79559326 190.77557373 387.39718628
87.69623566 162.04963684 439.06802368
136.19320679 164.07086182 382.15692139
108.22618103 205.80696106 433.34637451
89.73551178 170.86227417 442.80706787
113.47647095 140.69181824 385.83123779
87.52079010 153.46310425 434.69491577
113.79902649 209.16912842 429.47207642
138.29980469 197.10414124 390.44625854
105.73741150 203.59303284 436.89721680
95.90119171 186.23808289 444.61816406
141.04562378 181.99780273 384.30432129
98.07581329 134.71580505 403.84738159
129.56497192 152.12661743 381.01516724
118.13150024 142.99143982 382.60186768
89.64121246 143.62881470 427.30892944
134.67713928 206.46768188 399.07836914
123.89733887 147.17857361 380.21026611
132.83131409 208.91253662 403.19476318
128.40808105 212.06221008 411.39755249
142.71618652 173.13342285 384.39111328
91.26111603 175.42677307 446.16339111
126.46536255 213.20445251 416.21215820
87.68146515 166.21273804 444.19049072
105.63551331 133.93469238 392.60263062
90.62033081 139.59638977 424.53051758
100.47154999 132.48622131 400.40652466
94.12101746 182.04919434 447.48925781
92.06173706 136.75840759 420.04833984
109.04505920 134.95869446 389.22430420
138.46640015 203.65371704 394.49340820
102.49179840 200.97196960 442.44943237
118.89988708 211.73361206 429.75976562
142.27027893 167.38618469 381.13436890
114.08544922 135.81703186 385.97116089
103.60192108 131.52566528 396.03018188
97.87457275 193.75247192 446.65463257
88.86765289 144.91259766 433.74847412
141.34631348 200.21040344 390.75308228
123.21051788 213.33442688 425.51611328
86.88871002 158.17543030 443.42678833
136.80131531 154.05746460 380.03598022
111.77645874 209.70240784 436.91571045
139.88841248 157.98300171 380.58828735
94.13881683 131.74470520 413.65509033
122.80329895 139.44136047 381.82632446
145.93234253 189.60513306 385.85412598
107.27230072 206.02662659 442.00708008
147.86627197 178.33041382 385.28945923
117.08531952 212.25205994 434.06954956
134.87844849 214.07011414 407.14239502
93.00908661 132.34381104 420.16903687
88.60802460 145.93583679 438.37738037
87.78810120 169.28236389 449.63385010
130.39448547 143.44702148 380.57073975
96.62519073 189.68487549 450.73745728
131.62182617 215.85874939 414.50808716
86.55067444 164.30494690 448.26687622
126.49131012 215.69410706 423.80117798
144.61163330 161.41532898 381.52182007
138.17665100 212.32833862 402.17700195
136.28042603 148.63937378 379.73315430
145.82789612 198.64790344 389.02932739
99.58879089 127.36222076 403.59161377
91.71054077 134.44648743 426.99960327
109.78519440 129.45170593 390.19619751
149.61936951 185.94451904 386.01071167
148.16802979 193.62608337 387.11196899
129.91203308 216.74143982 420.84573364
111.44399261 209.91648865 441.74215698
87.43449402 150.36747742 443.96905518
93.62268066 182.78186035 453.38079834
144.47663879 204.94734192 392.75115967
89.95404816 174.59771729 453.05572510
151.16935730 173.74748230 385.60549927
100.38521576 198.07945251 450.66711426
149.64523315 169.64665222 382.55603027
90.02756500 137.88224792 434.54336548
142.12202454 210.84518433 398.58270264
141.23820496 150.63513184 380.55969238
124.39692688 135.08256531 382.19918823
98.28409576 194.68968201 452.55062866
87.02675629 157.64086914 449.29998779
105.06869507 204.54649353 448.82208252
148.11618042 202.08387756 391.28302002
124.73387146 215.98742676 432.55456543
95.48113251 125.92518616 415.47015381
92.84601593 130.06124878 426.11468506
96.82650757 124.59605408 410.10406494
104.69714355 124.22257996 396.94210815
88.73156738 140.42042542 439.71023560
128.71223450 136.34532166 380.24713135
121.85327911 131.32794189 383.10632324
137.02153015 217.94436646 412.97927856
109.76470947 208.80639648 446.75485229
154.29129028 176.88398743 386.50186157
122.13063049 215.26199341 436.99526978
135.03327942 218.87271118 417.84350586
116.95925140 127.47694397 386.17431641
129.76116943 217.84594727 428.53756714
134.69744873 138.70953369 380.90240479
154.12884521 188.22689819 387.03817749
94.70297241 125.85388184 420.64425659
152.24931335 195.92878723 387.86730957
90.57972717 177.68652344 457.09548950
87.63410187 146.78836060 446.77584839
139.75251770 143.49389648 380.07730103
87.50019073 169.78404236 455.99157715
147.45790100 209.49455261 396.52856445
152.64167786 162.94566345 383.09014893
117.90895844 214.36654663 442.40829468
96.96856689 190.49475098 457.61294556
86.64221954 151.52716064 450.78311157
99.04717255 120.97700500 406.19232178
146.90898132 212.70083618 400.14559937
148.79246521 151.51626587 381.91473389
143.70748901 216.87335205 405.84475708
86.96832275 163.28932190 456.37237549
156.73005676 167.49258423 386.62887573
157.54759216 184.37460327 388.07785034
87.26202393 142.03131104 446.06698608
109.55642700 121.17782593 393.17132568
112.92665100 211.74247742 448.45339966
152.61599731 204.51000977 393.43197632
101.30751038 119.82398987 401.65936279
113.87992859 122.54636383 389.20770264
89.35236359 134.00770569 439.49179077
129.30424500 130.33735657 382.11886597
145.85125732 145.18713379 381.09045410
106.18000031 119.74420929 397.08578491
91.32035065 129.63818359 434.88925171
133.43452454 132.84332275 380.78244019
154.91000366 201.17900085 390.94097900
116.95075226 214.23190308 446.75970459
141.67033386 220.35639954 412.70632935
98.39259338 119.27164459 410.71377563
86.35886383 156.29063416 455.75827026
154.10842896 156.46118164 383.27337646
103.47761536 202.96037292 456.37496948
159.80766296 174.26449585 388.03997803
136.01904297 165.46316528 451.54220581
93.37187195 124.92897797 429.59811401
158.14158630 192.53216553 387.93301392
93.44853210 183.51502991 461.77117920
100.47838593 198.78140259 459.13314819
89.22397614 175.37585449 461.69848633
94.86818695 122.06932831 425.44207764
149.14099121 215.53199768 403.56900024
85.96638489 144.30281067 450.93792725
129.96931458 217.63844299 439.31445312
145.54727173 219.56330872 409.17895508
138.73843384 221.99040222 422.59979248
127.52670288 126.09303284 383.01956177
95.48490143 187.77201843 462.56643677
152.82200623 211.26799011 398.04101562
159.27400208 196.40299988 390.96099854
136.09741211 220.82080078 430.04031372
96.48450470 119.64215851 421.89410400
159.06393433 159.79483032 386.68801880
127.21817017 217.53311157 442.55978394
161.54399109 188.29600525 389.28601074
145.36468506 139.25671387 380.49212646
116.16230011 213.96963501 451.33068848
162.87699890 180.22200012 388.59399414
121.65461731 121.06202698 386.13748169
142.42048645 134.24194336 382.81198120
141.41925049 167.76332092 451.54959106
107.75867462 207.17083740 457.57455444
87.86878204 132.59959412 443.79638672
101.89537811 115.23073578 404.48306274
158.52293396 155.05732727 386.34268188
98.54747772 116.47261047 415.95599365
114.82862854 117.64020538 390.10925293
86.60890961 136.50918579 447.84063721
107.25241089 115.36679840 397.48638916
85.20699310 148.04768372 455.76257324
163.54499817 170.51499939 389.19400024
151.05830383 143.17144775 382.35363770
87.42134857 166.32670593 463.46618652
155.13151550 148.01600647 383.14709473
164.45899963 184.11601257 390.60400391
159.76100159 202.98300171 393.25900269
135.59883118 219.47712708 437.52352905
134.90599060 126.33747101 383.57766724
99.03257751 194.74435425 464.33569336
112.53470612 211.52923584 456.24011230
146.31912231 222.69815063 414.23593140
120.95241547 216.15534973 450.86489868
91.31026459 123.79524994 436.41296387
85.49051666 157.97744751 461.87149048
158.24684143 149.41552734 386.71597290
84.96432495 151.32048035 459.26260376
129.39479065 121.97695160 384.71353149
139.25547791 128.77267456 382.36734009
144.60949707 223.53370667 419.34725952
158.11799622 209.85099792 397.34500122
166.18699646 174.85700989 390.96099854
164.31599426 162.63000488 389.21600342
133.99807739 218.42929077 442.47625732
95.45066833 117.87121582 427.71374512
127.80158234 217.56262207 448.13766479
163.83300781 196.70100403 391.09399414
93.14569855 182.37840271 467.61788940
90.45652771 178.27337646 467.35269165
103.93542480 202.79533386 463.36010742
89.68000031 126.05860901 441.47650146
140.85218811 168.67535400 456.43405151
101.84847260 112.04267120 408.24316406
104.84533691 111.88139343 401.66024780
162.88598633 154.92500305 388.58499146
156.21800232 215.54299927 402.61199951
112.98027039 113.27384186 393.58245850
85.25552368 139.12661743 453.89120483
152.90699768 219.65100098 407.82897949
146.29704285 166.93338013 452.44409180
147.00285339 132.55538940 383.14321899
166.97299194 188.44000244 390.97500610
118.52638245 114.51871490 389.38714600
143.30628967 224.22251892 427.10638428
155.79452515 141.13676453 385.99700928
96.17060089 188.61166382 468.46380615
141.29998779 222.96887207 432.72299194
151.39498901 222.11299133 411.95199585
93.22240448 118.76440430 433.86114502
101.97207642 199.89176941 466.55575562
134.64781189 121.04914093 385.04977417
100.75048065 111.19925690 415.00772095
163.09100342 206.65399170 396.21298218
159.79054260 144.77772522 387.19921875
142.58538818 163.55638123 456.60180664
169.29000854 181.10301208 391.29998779
88.43313599 171.71517944 469.23989868
151.61157227 134.21150208 384.42718506
162.06201172 146.26200867 391.16299438
148.86300659 224.62800598 419.60098267
98.41307831 192.80201721 469.62487793
123.61436462 114.45716858 387.43753052
97.71021271 112.72223663 424.71276855
84.86753845 144.13406372 460.27655029
139.73268127 219.52238464 442.52355957
157.13400269 218.80599976 406.42898560
135.30288696 218.25065613 447.73815918
109.38401794 109.55835724 397.20452881
86.39752960 131.18632507 451.28808594
84.52606201 152.11465454 464.40661621
130.46148682 117.38153839 384.81558228
115.81050873 213.66662598 460.14297485
167.42500305 198.53800964 393.69400024
141.13858032 123.75550079 383.95928955
168.66999817 193.52699280 392.20101929
85.57297516 160.63105774 467.69812012
159.42654419 140.12261963 390.81707764
94.80229950 114.69873810 430.74353027
148.03041077 128.20407104 385.71194458
91.36787415 119.88819122 440.23645020
155.40003967 134.54656982 388.55764771
92.37808990 180.85298157 471.80764771
167.19999695 154.19499207 391.10699463
170.80599976 169.03799438 391.25100708
148.14009094 225.49792480 424.79620361
106.53303528 204.70166016 467.18359375
123.90166473 217.45214844 456.16574097
161.29200745 215.00700378 402.35702515
169.49200439 159.87199402 390.96701050
146.79852295 169.03701782 457.62637329
90.06850433 176.54704285 472.24575806
113.10726166 108.67266083 394.62060547
105.19450378 107.28130341 405.91085815
152.40722656 167.54620361 453.03369141
172.84600830 175.94799805 393.66299438
167.33700562 205.96699524 397.42599487
155.19100952 223.80099487 414.25201416
120.76148987 216.72142029 459.69952393
95.80178070 187.08119202 473.47958374
88.87817383 124.46646881 449.06475830
119.96516418 109.37065125 390.77325439
100.67677307 107.89196014 419.59851074
165.57598877 211.25500488 400.13198853
167.55000305 149.09799194 391.64599609
173.99400330 181.26000977 394.36502075
110.85700989 209.12145996 467.26831055
93.30487823 115.00116730 437.79141235
173.39299011 188.56599426 394.54202271
100.81559753 196.44868469 472.74929810
172.76098633 164.13600159 391.51400757
174.13800049 171.11599731 393.97201538
135.39184570 218.62571716 453.08352661
159.40800476 221.78900146 411.06097412
86.85961151 166.55609131 473.29846191
141.90133667 219.56311035 447.80578613
151.26301575 161.66230774 455.71594238
146.41859436 163.82063293 460.38433838
90.76380157 120.19844055 446.67391968
164.17098999 139.47099304 391.77502441
104.23131561 201.64913940 472.12731934
98.01538849 190.84922791 474.90118408
103.37722778 105.39523315 415.34234619
146.14877319 222.79319763 440.80102539
148.33418274 225.53070068 434.32315063
95.72043610 110.20008850 431.47882080
153.77203369 127.26588440 387.15768433
108.74255371 104.27494812 401.75909424
173.12001038 157.84800720 393.36199951
127.93508148 109.83832550 388.38171387
84.49925995 150.80255127 469.55535889
167.96701050 144.09799194 393.39199829
154.92199707 226.20899963 422.01800537
166.41299438 214.99600220 404.08798218
88.94028473 172.42460632 475.95468140
172.80200195 153.36199951 394.29901123
174.67900085 195.55599976 396.56500244
87.42005920 127.21261597 456.12646484
145.68692017 118.60854340 387.36349487
114.09375000 104.27446747 395.82141113
132.38549805 218.98526001 457.64898682
90.98777008 176.64266968 476.90841675
162.94700623 134.14799500 393.33502197
149.64379883 121.39298248 387.53012085
152.49848938 169.24996948 459.00762939
158.04566956 166.37683105 453.12588501
139.65365601 114.66582489 385.98953247
159.12673950 130.01092529 389.23641968
94.16740417 183.52803040 477.42153931
85.41997528 133.52101135 461.52215576
151.96899414 226.78999329 430.96499634
85.02447510 157.20909119 473.39837646
172.07400513 206.22000122 399.95700073
164.71299744 219.63299561 409.42599487
134.07096863 110.60879517 387.44363403
107.80572510 205.75689697 473.07885742
106.30124664 102.42429352 411.57934570
121.88850403 216.93528748 464.85433960
177.96299744 184.48799133 396.73199463
98.09621429 105.83358002 427.60549927
119.73604584 104.37007904 392.66888428
117.79933167 214.08352661 467.97326660
176.81098938 161.97299194 394.75598145
103.13096619 199.00080872 476.12860107
178.65000916 176.70799255 397.16000366
151.46064758 163.07475281 460.65029907
160.78099060 224.69699097 417.47702026
125.84825134 218.55201721 463.37731934
142.00790405 219.85308838 453.41934204
85.24298859 141.48031616 468.63412476
126.46112061 105.81651306 389.65887451
91.10083771 119.15837097 451.86425781
168.57301331 138.72698975 394.09701538
179.05200195 169.25799561 397.02697754
173.37300110 147.04998779 395.97698975
101.14984894 102.49169922 422.10720825
178.72000122 191.40299988 398.36401367
96.81009674 106.10937500 433.04229736
85.66153717 136.60238647 466.95626831
176.51699829 201.26300049 399.94699097
101.16182709 194.53781128 479.05239868
171.41799927 213.64801025 405.80300903
87.13073730 168.00216675 479.05072021
149.70649719 222.05207825 446.73031616
93.82374573 111.40804291 443.82049561
105.84851074 202.49114990 477.18411255
97.33341217 188.77072144 480.39279175
95.42315674 107.73210144 437.91256714
89.47134399 122.74970245 457.64108276
131.58586121 219.80940247 462.37872314
142.07243347 111.29095459 388.69708252
174.07899475 209.65400696 404.54299927
179.33000183 196.24499512 401.29501343
160.40100098 226.27000427 425.58099365
89.64272308 172.91291809 480.89373779
178.29800415 154.94999695 396.81597900
156.90370178 169.12713623 460.75534058
151.97032166 224.55667114 443.34750366
158.14300537 227.27400208 429.53100586
160.72546387 170.93191528 457.27545166
94.20960999 182.52531433 481.76574707
110.98104095 98.78443909 405.60546875
92.54200745 114.34465790 450.35742188
162.83708191 126.36144257 392.56082153
135.61830139 188.29490662 475.11279297
84.16531372 150.07005310 475.61621094
122.91768646 101.12824249 393.54797363
153.96745300 118.08184814 388.47009277
