ply
format ascii 1.0
element vertex 2048
property float x
property float y
property float z
end_header
271.69427490 184.84533691 439.87219238
280.14611816 194.37792969 444.87277222
279.86880493 184.34400940 436.91091919
287.81826782 190.00108337 439.76690674
282.93960571 236.49926758 454.95184326
284.35913086 247.75219727 460.28390503
289.34509277 230.30364990 454.05395508
290.00540161 239.02001953 457.06231689
261.11169434 179.46925354 441.29278564
267.95721436 181.39303589 448.85174561
272.70028687 179.86926270 435.93649292
277.30932617 178.89167786 442.78833008
279.48410034 206.77229309 446.89401245
283.05249023 220.75878906 451.11782837
286.78637695 202.29623413 445.99493408
288.48217773 212.13015747 448.69204712
74.27158356 169.09344482 519.32257080
77.74761963 177.70782471 525.37225342
72.90797424 181.11473083 517.77740479
77.42677307 189.70800781 522.63238525
264.19329834 263.41976929 458.07131958
262.59008789 269.59613037 466.05667114
273.57943726 259.67611694 460.11279297
269.30715942 265.38043213 464.15783691
79.35588837 137.19027710 479.27307129
73.54049683 143.08799744 486.19561768
83.80134583 135.14697266 471.93576050
78.27935791 141.73599243 476.58807373
70.84548950 149.10221863 491.10668945
68.12143707 157.61000061 497.79702759
67.86919403 148.54917908 481.86962891
64.94038391 157.32398987 486.46282959
265.28576660 189.27996826 450.88378906
268.60821533 203.65698242 457.16622925
275.58618164 188.61109924 446.98190308
273.26898193 195.90725708 453.16827393
249.35021973 183.89750671 438.82620239
252.51123047 190.66067505 441.71752930
261.12347412 183.86848450 437.48077393
260.17611694 186.77433777 439.79809570
103.31668091 123.95386505 416.21417236
94.96721649 128.38110352 418.49597168
110.38644409 121.97071838 406.39025879
100.97416687 125.70270538 407.81719971
76.63322449 154.77508545 508.31494141
73.44531250 161.60314941 516.72088623
81.90507507 158.14822388 502.53964233
79.37786102 165.49291992 508.72021484
87.35546875 128.87057495 467.76495361
80.59230804 133.49438477 474.21017456
90.86792755 125.57342529 456.77587891
83.61715698 130.55027771 462.13110352
65.85849762 151.32167053 472.75720215
63.93577576 160.24951172 478.66860962
65.07220459 150.64196777 461.82299805
62.39987183 160.25056458 466.17556763
77.92984772 147.14859009 494.52743530
74.17781067 153.36608887 503.44946289
84.09669495 147.26678467 487.12677002
80.84176636 154.13970947 494.32901001
80.50622559 179.46304321 519.54846191
84.96644592 187.26791382 525.78179932
85.51104736 192.98937988 516.77899170
90.93804169 201.52354431 522.38751221
65.39114380 162.92778015 502.41018677
66.57955170 172.40655518 509.77340698
62.34307861 167.82073975 493.05911255
64.13809204 177.66574097 499.55209351
77.19397736 136.94552612 463.54116821
70.94797516 143.56726074 468.78292847
79.73213959 134.77557373 451.18847656
72.49192810 141.44163513 454.76846313
85.32354736 130.63244629 444.67755127
77.78886414 135.92947388 449.11773682
90.34314728 127.89836121 432.90747070
81.66333008 132.90530396 435.90066528
96.28250122 120.62129211 447.98263550
88.14833832 124.06514740 453.09350586
102.59605408 117.61438751 436.60513306
93.51940155 120.86826324 440.94293213
129.11918640 117.31731415 406.36203003
119.66891479 118.87670135 408.26177979
141.37901306 117.85557556 399.04583740
131.99206543 117.88090515 400.93713379
81.20110321 138.24642944 430.95761108
75.66381836 145.08135986 435.93499756
85.79378510 135.97106934 419.06085205
79.01584625 142.82077026 422.51208496
108.53808594 122.43329620 444.87539673
102.66252899 128.50027466 452.83224487
120.76200867 122.70770264 438.99877930
114.81152344 128.50093079 445.83584595
91.04732513 138.56579590 402.18295288
85.64133453 145.37327576 406.06164551
99.23108673 136.51773071 391.64559937
92.14601898 143.33999634 394.21871948
139.81227112 117.80463409 387.56979370
130.70605469 118.50122070 386.54180908
147.48731995 123.02687836 383.80404663
138.61752319 123.22529602 383.30377197
112.37937927 117.37207031 428.88970947
103.73966980 120.24599457 433.74890137
122.42596436 115.34564972 418.89273071
113.32398987 117.47022247 422.92022705
114.75627136 122.40594482 393.58496094
106.29281616 126.56537628 394.20767212
123.49942017 124.15183258 386.21179199
113.67129517 127.16295624 386.05136108
267.10986328 225.89869690 465.27590942
265.94888306 238.56695557 469.59576416
275.42843628 225.67098999 461.57031250
270.99301147 232.44700623 466.14926147
158.24819946 118.55308533 390.34582520
154.80856323 114.76383972 395.97283936
169.36947632 125.07772064 387.28088379
165.43959045 121.01776123 392.00283813
142.48336792 115.35330200 408.76330566
136.38618469 116.13722229 416.86752319
158.25987244 117.72301483 403.89990234
152.82548523 118.78396606 411.38708496
68.73629761 154.82713318 451.96701050
66.39483643 162.75759888 458.22198486
70.22761536 154.20654297 439.58053589
67.20329285 162.38397217 444.47137451
231.36618042 280.95666504 482.83587646
228.01785278 280.84552002 493.37536621
240.91554260 279.71768188 484.43228149
235.29727173 280.87362671 490.45742798
238.83276367 266.73233032 458.97103882
235.63377380 273.58203125 467.83660889
249.09176636 266.75384521 460.14962769
242.22358704 270.74441528 464.70983887
63.56425476 169.57211304 481.85543823
65.85452271 177.89941406 489.08828735
60.63439178 173.16900635 469.87005615
63.55369568 181.48153687 477.15615845
256.26715088 214.48504639 446.81417847
255.19273376 227.50900269 448.33609009
265.44329834 213.77474976 447.68792725
261.00827026 220.98735046 448.70205688
84.16606140 203.47683716 518.70245361
92.11763000 206.59350586 526.23498535
90.99887848 216.62744141 515.46014404
99.77368164 219.71983337 522.90063477
69.17108154 184.79640198 510.70339966
75.50363159 192.38490295 518.26232910
68.73624420 196.40606689 503.16766357
76.41446686 203.37820435 511.24588013
75.62609100 156.41569519 418.29531860
71.94873047 164.85699463 424.26757812
81.20295715 154.53282166 406.30990601
76.31106567 163.50814819 410.74902344
65.56069183 182.75645447 498.41244507
69.92804718 190.83679199 505.60412598
63.21765137 190.25840759 487.65557861
68.68475342 198.13398743 495.28207397
127.82170868 119.51893616 428.51312256
121.34140015 123.42295074 436.66629028
142.31692505 120.29573059 423.97058105
136.21444702 124.42982483 431.85354614
107.16156006 137.17279053 385.30883789
99.75933838 144.04783630 386.46768188
117.32108307 137.37121582 378.17626953
108.33941650 144.26947021 377.84698486
79.88916016 212.68948364 516.26318359
87.22014618 216.74337769 524.06280518
83.46494293 225.21842957 509.60137939
91.30464172 228.19790649 518.08489990
241.75473022 239.41340637 448.94088745
239.50877380 250.56924438 452.31719971
251.20202637 239.69731140 450.04449463
245.48109436 245.75427246 451.84320068
91.39756775 142.52345276 474.01477051
87.04288483 148.65771484 483.34262085
102.17874146 144.72296143 467.99462891
98.09741211 151.43545532 476.95834351
102.47543335 134.86851501 457.12197876
96.72337341 141.39131165 465.49520874
113.65872192 137.24111938 451.94619751
108.14729309 144.06654358 459.70989990
249.02255249 192.44869995 459.28576660
248.99299622 202.95230103 467.92178345
258.25067139 196.62046814 455.05560303
253.42472839 199.59606934 463.06259155
65.08819580 173.39877319 456.10464478
66.69244385 182.56831360 462.82928467
65.44915009 174.03625488 442.18991089
66.77951050 183.71450806 448.31930542
179.01467896 129.51593018 397.66171265
183.56356812 128.66737366 400.97680664
183.73348999 137.63320923 396.17779541
188.48922729 137.16644287 401.13513184
69.61856842 168.88565063 433.99276733
68.81143188 178.61454773 440.41552734
72.00778198 168.42970276 421.42474365
70.51937103 179.08316040 426.70977783
91.05900574 165.70947266 507.97921753
87.90539551 172.93597412 517.23107910
102.24229431 171.22723389 501.63824463
98.81110382 178.93606567 511.30249023
127.23777008 127.28696442 379.31845093
118.48407745 131.88439941 377.69201660
138.01049805 131.54058838 374.40014648
128.41035461 134.96623230 372.29669189
237.53387451 200.73384094 441.30392456
234.96655273 210.50497437 442.95831299
246.58505249 201.13597107 442.86132812
241.86691284 205.94699097 444.05554199
72.76415253 204.16165161 501.03646851
78.28191376 210.19023132 508.87194824
74.23119354 213.43461609 490.44039917
80.29355621 218.40672302 499.19830322
97.91038513 227.00227356 517.93267822
104.62922668 226.66638184 527.13171387
109.70370483 238.78979492 513.28881836
114.54811096 236.08157349 522.23876953
160.46734619 123.59927368 407.62725830
156.32856750 128.03100586 417.81314087
174.72613525 129.80938721 405.23776245
170.66380310 134.45642090 415.00677490
65.20156097 191.26692200 473.82144165
69.82115936 199.34725952 480.76928711
65.91925049 198.13563538 462.40383911
71.21221161 206.35105896 469.62084961
188.06555176 278.54583740 490.22616577
182.55122375 278.29437256 499.88330078
197.78759766 279.64752197 492.82495117
190.62179565 279.91915894 497.63018799
250.56109619 230.06234741 476.97933960
247.84548950 240.94377136 483.94711304
258.68087769 232.86819458 472.38769531
252.96060181 237.11407471 478.98937988
224.31900024 178.95770264 457.96325684
224.03878784 178.82827759 469.75448608
232.74130249 180.30587769 454.42126465
229.87635803 178.55493164 464.51535034
236.05422974 249.89239502 485.97116089
231.92013550 260.59228516 492.21664429
244.87329102 252.55416870 482.24517822
238.14074707 257.02395630 487.67172241
97.56848907 154.09539795 384.63827515
90.87815094 163.00952148 388.32275391
107.14963531 152.76979065 376.59173584
100.00862885 162.53668213 378.67303467
124.99995422 258.86782837 507.49261475
127.46939087 254.81393433 519.93609619
140.74531555 266.35079956 505.02239990
137.78828430 262.86682129 514.32281494
91.91194153 228.89918518 505.72946167
97.59434509 231.86177063 515.15020752
98.60333252 241.03498840 498.11984253
102.76382446 241.58512878 508.26037598
233.67437744 196.39253235 478.42553711
229.72325134 206.29347229 487.19189453
241.04255676 199.59918213 475.59173584
234.84826660 203.49792480 483.28524780
190.01028442 148.82476807 413.48672485
187.29402161 148.82746887 413.42303467
190.26187134 148.88864136 413.44476318
190.11550903 148.89392090 413.37438965
183.96066284 137.50125122 416.01889038
180.90573120 137.49591064 415.99151611
184.27925110 137.56944275 415.96966553
184.00892639 137.57034302 415.93609619
176.18145752 123.94590759 395.05203247
171.80122375 123.90459442 395.02233887
176.78025818 124.02012634 395.03652954
176.19107056 123.96946716 395.00143433
184.59187317 143.89350891 387.82305908
181.01693726 143.91389465 387.74890137
184.97985840 143.96728516 387.84875488
184.70788574 143.95219421 387.77627563
176.22549438 133.42883301 385.94067383
172.31799316 133.43634033 385.85858154
176.67742920 133.48680115 385.95504761
176.32055664 133.45722961 385.88681030
163.84240723 120.04189301 389.20727539
158.73045349 120.00733948 389.16351318
164.55429077 120.08872986 389.16741943
163.72201538 120.04552460 389.14126587
192.66543579 149.39329529 399.56469727
190.07080078 149.42501831 399.49975586
192.87518311 149.48828125 399.57489014
192.83296204 149.48965454 399.49121094
185.64770508 134.51959229 402.13922119
182.62272644 134.53802490 402.10150146
185.94709778 134.58425903 402.15567017
185.75270081 134.57601929 402.10122681
156.14607239 113.51573944 419.63806152
151.47053528 113.51840973 419.63885498
156.82044983 113.51744843 419.60818481
155.93461609 113.54622650 419.61953735
180.52778625 128.75180054 409.70510864
176.58132935 128.75958252 409.71105957
181.05023193 128.81681824 409.73004150
180.52853394 128.80978394 409.72131348
162.59269714 131.61288452 380.77655029
157.91999817 131.62347412 380.70056152
163.19343567 131.64263916 380.80816650
162.54171753 131.62477112 380.76403809
187.02059937 162.93707275 386.45559692
183.60919189 162.98706055 386.35256958
187.36634827 163.00473022 386.51107788
187.14338684 163.02102661 386.41122437
170.17228699 141.17951965 380.76239014
165.78752136 141.20069885 380.68716431
170.70910645 141.21284485 380.81335449
170.17304993 141.19915771 380.76263428
182.40821838 143.34803772 424.96972656
179.70231628 143.35116577 424.95324707
182.69483948 143.39402771 424.93054199
182.47128296 143.40490723 424.90484619
187.62474060 153.86720276 423.71191406
185.11877441 153.86871338 423.67425537
187.88018799 153.91288757 423.66836548
187.75248718 153.91937256 423.62295532
175.90104675 156.76954651 379.45715332
171.50350952 156.80722046 379.38531494
176.44743347 156.81835938 379.51409912
175.95573425 156.81675720 379.46289062
171.76579285 120.13382721 410.82128906
167.50550842 120.16496277 410.83193970
172.35798645 120.18106079 410.87634277
171.67341614 120.19763184 410.87536621
162.22567749 113.63933563 409.12338257
157.61737061 113.66591644 409.13531494
162.87333679 113.66845703 409.16903687
162.03559875 113.68526459 409.17388916
163.74954224 149.64047241 375.24865723
158.91918945 149.67962646 375.18005371
164.37768555 149.66966248 375.29513550
163.70854187 149.66627502 375.25955200
174.96064758 136.20217896 429.76654053
171.79147339 136.19659424 429.79290771
175.35086060 136.22595215 429.72488403
174.92776489 136.23733521 429.73870850
160.29035950 120.55212402 426.66784668
156.38990784 120.54931641 426.70043945
160.88235474 120.54347992 426.65228271
160.15948486 120.56546021 426.67300415
151.51782227 110.80609131 402.42141724
146.88319397 110.76388550 402.42089844
152.23533630 110.84040833 402.38421631
151.48023987 110.79946136 402.38284302
157.71643066 139.58061218 377.18881226
152.64155579 139.60852051 377.12371826
158.40522766 139.59619141 377.22598267
157.63011169 139.59187317 377.19805908
147.58363342 115.21897125 393.83163452
142.32470703 115.18846130 393.82196045
148.39868164 115.22550201 393.79882812
147.44866943 115.19396973 393.80813599
146.98477173 123.73526001 384.45401001
141.38758850 123.71205902 384.42877197
147.85418701 123.74132538 384.41162109
146.84111023 123.70790100 384.41699219
168.26159668 163.99668884 376.21966553
163.55003357 164.04870605 376.13839722
168.88180542 164.02639771 376.30017090
168.28216553 164.03622437 376.24722290
172.00575256 175.08352661 376.66485596
167.30001831 175.14002991 376.57565308
172.63229370 175.12229919 376.75195312
172.08683777 175.13865662 376.69357300
126.33610535 111.56044769 431.00878906
122.38854980 111.56977844 431.07470703
126.99582672 111.53317261 430.96697998
126.20838165 111.56735992 431.01129150
141.66928101 110.56285095 406.38656616
136.86840820 110.53112793 406.42474365
142.42651367 110.55867767 406.35797119
141.57788086 110.53752136 406.39089966
137.46815491 112.03414917 431.36056519
133.39736938 112.03626251 431.43164062
138.14472961 112.00746918 431.32452393
137.29760742 112.03720856 431.37564087
144.82460022 135.40133667 376.90042114
139.64445496 135.42269897 376.84716797
145.56289673 135.39347839 376.91271973
144.74343872 135.38066101 376.90112305
130.72450256 112.60532379 402.23626709
125.65133667 112.57636261 402.27926636
131.60343933 112.56877136 402.21267700
130.67324829 112.54478455 402.26306152
156.18887329 159.05220032 372.35916138
150.83206177 159.10174561 372.31115723
156.94583130 159.07080078 372.39437866
156.09654236 159.07614136 372.37796021
136.16734314 118.70155334 390.93643188
130.81106567 118.67202759 390.95095825
137.06332397 118.69438171 390.89642334
136.07057190 118.66371918 390.93035889
122.10041809 113.43759155 440.35986328
118.30418396 113.45520782 440.43325806
122.74224854 113.38150787 440.32254028
121.98670959 113.42691040 440.37506104
141.93605042 110.45138550 416.28424072
137.33135986 110.46006012 416.34881592
142.67358398 110.42585754 416.32498169
141.81393433 110.44371796 416.37667847
133.87342834 126.85003662 382.51400757
128.04325867 126.82128906 382.50503540
134.87066650 126.83525848 382.45001221
133.80244446 126.79635620 382.48147583
113.34111786 113.60836029 426.76327515
109.64924622 113.62715912 426.84216309
113.99848175 113.54641724 426.74517822
113.31776428 113.58290863 426.79443359
177.35466003 149.25671387 435.66629028
174.57414246 149.23361206 435.70260620
177.69476318 149.28109741 435.60598755
177.40650940 149.27601624 435.62664795
167.42828369 137.39585876 436.92840576
164.00263977 137.38696289 436.99761963
167.88925171 137.41650391 436.86376953
167.34577942 137.42959595 436.91674805
150.05902100 121.23896027 433.97106934
146.28244019 121.23549652 434.02761841
150.67634583 121.22612762 433.94635010
149.92840576 121.24488068 433.98483276
125.70169067 120.61407471 390.91760254
120.24197388 120.59045410 390.97183228
126.63725281 120.58786011 390.83966064
125.58641052 120.56001282 390.89959717
159.76226807 128.80830383 433.83236694
156.00231934 128.80671692 433.88659668
160.36099243 128.80609131 433.81350708
159.64677429 128.83074951 433.84826660
165.05737305 145.33593750 444.88156128
161.65563965 145.32821655 444.95034790
165.50762939 145.39297485 444.87261963
165.05809021 145.39868164 444.92825317
133.23800659 142.63804626 373.72647095
127.72156525 142.67433167 373.71075439
134.04280090 142.61880493 373.70413208
133.07302856 142.61418152 373.72369385
105.42044067 116.90008545 445.01400757
102.16043091 116.92304230 445.08215332
105.99931335 116.86008453 444.98608398
105.37845612 116.89952850 445.02200317
164.39208984 157.50332642 456.75720215
160.98927307 157.47911072 456.82257080
164.90769958 157.50582886 456.68948364
164.40901184 157.51423645 456.75549316
140.55961609 153.35133362 370.48114014
134.81704712 153.39318848 370.46490479
141.39817810 153.35231018 370.47015381
140.39498901 153.34820557 370.48980713
123.10874939 131.70669556 380.54980469
117.07356262 131.69464111 380.57528687
124.15203857 131.68197632 380.45962524
122.95940399 131.65606689 380.51922607
153.05296326 173.50184631 371.17895508
147.53823853 173.55349731 371.13891602
153.84790039 173.52717590 371.21899414
152.94874573 173.53410339 371.20321655
160.64993286 179.01809692 374.22674561
155.46186829 179.06575012 374.17242432
161.38313293 179.04313660 374.29956055
160.62185669 179.05335999 374.27307129
136.34362793 118.12416077 439.38293457
132.73327637 118.13269806 439.44412231
136.96540833 118.10417175 439.34942627
136.24699402 118.13520813 439.38433838
151.61636353 137.67205811 444.29855347
147.81762695 137.66433716 444.37594604
152.18716431 137.68685913 444.32388306
151.57504272 137.70074463 444.39736938
127.61499023 111.53304291 416.87637329
123.06452179 111.53380585 416.97000122
128.38409424 111.48759460 416.89532471
127.52646637 111.49787140 416.97109985
115.26032257 118.27606201 451.90838623
112.04061890 118.30090332 451.97122192
115.85223389 118.24324799 451.87649536
115.21284485 118.28593445 451.90927124
126.64859009 150.79617310 370.86172485
120.63847351 150.85331726 370.89135742
127.57423401 150.77613831 370.82638550
126.42698669 150.78694153 370.88922119
115.59794617 118.58321381 401.78692627
110.73864746 118.55050659 401.86230469
116.46594238 118.55474854 401.71466064
115.55441284 118.52425385 401.78063965
149.70504761 189.69184875 369.87246704
144.00668335 189.74938965 369.83380127
150.59477234 189.73696899 369.96011353
149.68984985 189.74110413 369.95928955
137.49658203 167.02374268 368.78186035
131.68975830 167.07341003 368.77218628
138.39233398 167.03758240 368.77923584
137.40194702 167.03198242 368.80059814
105.02738190 121.91329193 458.93951416
102.18676758 121.93077087 459.01046753
105.57775879 121.88093567 458.90853882
105.03041840 121.91535950 458.94335938
97.33911133 123.76304626 431.18701172
94.17230225 123.76301575 431.30334473
97.95289612 123.73237610 431.15493774
97.37770081 123.74629211 431.22766113
117.69783020 114.63742065 412.96911621
113.23497009 114.64190674 413.06640625
118.49873352 114.57157135 412.97705078
117.65759277 114.58090973 413.06164551
109.32125854 127.67821503 390.75961304
103.85416412 127.65805817 390.86462402
110.31016541 127.67215729 390.61889648
109.19227600 127.64015198 390.71633911
153.63859558 154.28118896 458.17507935
150.03471375 154.25347900 458.30026245
154.23583984 154.30024719 458.13748169
153.63471985 154.29812622 458.24331665
273.63555908 218.76803589 460.90112305
269.87298584 230.93498230 465.79302979
284.78823853 221.04563904 453.87622070
281.27999878 232.08117676 459.52697754
266.45761108 193.32174683 441.41546631
269.15634155 206.20214844 445.47253418
283.44152832 198.47221375 443.98477173
285.04827881 212.86820984 449.88882446
267.61648560 244.79006958 469.26220703
259.98999023 254.26145935 474.55200195
277.87942505 245.35841370 461.56289673
271.28936768 253.62451172 466.76928711
250.94708252 201.70101929 468.98461914
245.72695923 209.20086670 476.51193237
261.47390747 207.48660278 463.83734131
255.92869568 215.17431641 471.09442139
246.96603394 225.62460327 479.39535522
239.81234741 233.18356323 484.61865234
255.98147583 231.08485413 473.72137451
248.78768921 238.65013123 478.92144775
256.30496216 268.37960815 471.34985352
249.70220947 273.91638184 480.37161255
266.78479004 264.92178345 466.91284180
261.30502319 269.37145996 475.34146118
239.56115723 258.56283569 487.77593994
230.10034180 265.03259277 492.62774658
248.90802002 261.82516479 480.63018799
240.50683594 267.65533447 485.77328491
226.99526978 184.43190002 457.09738159
229.73620605 188.19026184 466.09805298
238.89413452 187.26254272 453.60604858
241.12478638 191.51168823 463.35815430
255.93925476 227.24520874 450.60388184
259.43032837 238.77044678 453.63293457
270.66455078 231.05107117 452.52105713
272.54901123 243.26022339 456.60345459
229.94836426 191.58978271 477.81906128
224.60052490 197.40095520 484.83764648
240.78756714 196.31703186 474.84066772
234.64077759 202.27384949 481.54470825
230.39163208 237.13850403 492.23880005
222.26696777 243.99243164 496.19665527
238.25454712 243.37948608 487.18386841
230.20799255 250.32313538 491.37969971
228.00427246 209.99481201 488.44033813
220.63739014 216.41918945 492.96600342
236.89938354 216.52842712 485.14318848
229.20321655 223.10372925 489.71740723
233.31515503 191.62039185 439.15463257
238.72103882 201.83691406 441.59582520
247.06312561 195.87164307 441.54675293
251.67956543 207.62696838 444.81750488
209.58499146 175.23703003 468.91076660
208.21913147 179.07983398 477.49346924
221.93240356 177.36477661 468.50442505
219.90493774 181.18646240 477.02380371
208.87200928 170.28814697 449.80438232
211.87258911 173.37420654 458.46942139
219.55081177 173.29927063 448.16320801
222.58621216 175.77212524 457.34963989
249.13598633 249.04568481 453.43267822
251.79888916 259.48593140 457.89501953
263.22802734 252.01353455 455.94274902
264.68554688 262.63745117 461.08477783
206.63401794 186.60290527 481.25817871
199.20803833 191.80192566 485.57485962
218.20991516 190.57130432 484.52523804
210.35333252 196.06584167 489.04562378
213.52383423 222.08102417 496.55865479
205.09942627 228.14865112 499.15289307
221.70759583 229.52282715 495.59057617
213.13543701 235.78149414 498.51306152
209.93222046 177.52413940 436.25592041
215.50486755 183.64349365 441.50137329
219.85110474 182.41287231 436.84695435
226.43063354 188.20925903 442.85864258
214.81777954 250.71548462 498.59643555
205.72845459 256.17626953 501.63394165
223.83111572 257.70477295 496.10641479
215.04786682 262.96923828 499.79776001
231.31855774 280.60751343 484.55108643
223.90736389 280.05050659 495.19400024
241.17596436 278.36840820 483.11676025
235.68986511 277.55389404 493.23617554
226.84698486 216.94004822 442.56311035
231.43386841 227.09745789 446.79537964
239.45562744 219.99021912 445.86343384
242.98443604 231.10385132 450.43975830
200.49356079 232.60781860 500.80755615
191.38311768 238.02005005 502.64584351
208.63510132 240.91506958 500.93075562
199.47612000 246.37796021 503.33871460
214.30590820 197.86006165 430.16186523
219.12075806 207.60375977 434.87750244
224.97201538 199.80838013 435.90234375
229.48713684 210.73837280 440.91137695
228.76892090 269.18884277 463.62625122
228.96997070 274.49554443 472.92242432
241.67413330 270.97674561 466.96350098
241.05249023 275.88659668 476.58053589
202.10624695 203.30183411 484.32662964
193.97102356 208.85548401 487.71347046
211.99768066 209.11300659 489.00320435
203.41708374 214.68142700 492.97372437
182.55661011 178.17639160 465.37295532
180.30169678 182.36959839 473.83959961
195.16259766 182.80680847 470.83584595
193.25808716 186.00685120 479.38690186
196.63281250 258.45147705 506.68719482
186.66748047 262.12753296 509.12310791
206.20550537 265.85476685 506.07647705
196.63702393 268.95349121 509.43484497
207.18177795 280.41851807 495.08239746
200.77957153 277.61108398 505.26513672
217.32072449 280.42385864 497.17477417
212.68582153 277.37472534 507.26040649
184.11711121 175.60696411 448.57376099
185.30149841 179.74316406 457.32958984
196.11116028 181.23712158 452.77014160
198.74339294 183.25035095 462.07897949
222.22290039 253.47041321 453.33135986
225.07994080 262.36764526 459.00109863
234.32203674 256.76861572 455.48257446
236.54635620 265.72705078 461.23043823
189.39285278 153.73063660 425.09796143
189.60789490 160.44102478 431.98144531
194.28027344 165.36564636 420.45092773
195.45285034 169.95779419 428.43414307
187.31340027 212.39749146 490.94696045
178.16709900 217.81816101 493.52221680
195.91088867 219.78125000 496.58453369
186.66960144 225.51431274 499.48324585
172.66833496 151.77493286 443.87213135
168.69412231 158.18136597 452.37673950
180.55657959 160.21015930 442.81536865
176.90269470 165.05877686 451.50784302
175.50320435 183.06512451 464.23205566
171.03981018 186.97863770 472.82110596
188.19573975 187.68998718 472.58468628
184.81204224 190.62301636 481.24972534
215.19351196 233.94927979 443.72027588
219.00360107 243.31300354 448.73986816
226.96783447 236.55194092 446.89987183
230.14889526 246.40539551 451.85720825
184.52255249 141.83177185 412.87243652
185.30018616 149.56593323 418.92529297
189.68019104 154.22035217 412.50357056
190.75831604 159.71067810 418.76223755
169.68147278 138.89981079 430.81307983
166.25424194 145.75796509 439.47811890
178.53121948 146.69253540 432.37298584
174.83195496 151.82400513 440.50399780
181.64050293 238.45910645 502.54397583
172.04879761 243.48397827 503.69018555
189.60050964 247.10830688 504.76654053
180.20089722 252.32421875 506.45617676
188.32133484 177.52096558 434.53240967
191.20581055 181.95059204 443.08132935
198.42385864 184.49627686 439.06121826
202.97380066 186.66043091 448.53048706
166.50675964 158.95498657 462.99298096
162.14468384 164.93292236 471.41738892
173.76808167 166.57304382 461.49218750
169.76484680 171.13670349 469.61050415
206.91476440 274.19262695 471.90710449
207.18759155 277.42327881 482.04339600
218.78617859 276.46179199 475.53564453
218.58354187 279.18902588 485.79016113
195.75257874 185.87887573 419.67623901
200.44500732 192.21777344 427.57925415
203.03289795 190.82249451 425.92013550
208.94117737 196.14923096 434.85745239
151.71813965 178.57191467 482.25238037
144.38821411 184.90023804 489.11370850
160.74835205 180.82577515 476.54885864
152.46960449 187.00634766 482.42126465
204.82316589 216.71524048 426.92910767
209.00582886 224.39451599 434.95880127
214.61645508 216.45771790 433.62683105
218.42971802 225.32749939 441.69873047
188.83743286 208.34941101 462.24996948
187.19177246 215.04925537 468.55718994
196.84124756 212.55633545 465.99197388
195.43173218 219.19706726 473.13085938
179.74812317 200.54507446 466.52178955
175.79872131 205.87496948 473.73034668
189.26066589 204.67230225 473.05697632
185.66694641 209.55470276 481.01068115
191.40554810 160.72387695 399.50811768
192.74356079 170.90873718 400.00521851
197.43281555 168.92453003 407.00006104
198.44128418 177.00830078 408.41589355
164.27348328 218.20022583 491.97549438
155.00051880 224.27102661 494.57553101
173.37335205 226.36920166 499.63363647
164.40013123 232.94239807 501.96456909
203.14056396 261.83914185 456.78234863
204.95008850 268.49041748 463.83468628
214.33651733 264.74841309 459.03726196
215.93679810 271.36383057 465.98617554
188.78677368 224.45889282 469.74981689
185.06745911 231.88908386 475.34777832
196.95260620 230.07479858 473.37625122
192.53775024 237.42056274 479.30142212
137.47412109 164.22789001 477.18634033
131.50781250 170.81480408 485.57485962
149.75715637 166.46777344 476.43066406
142.30163574 172.16706848 482.95425415
162.10353088 250.43395996 505.56512451
152.32183838 254.27464294 508.05014038
171.83454895 258.54425049 507.76068115
162.33572388 262.04257202 510.64965820
142.09054565 146.89437866 451.60916138
136.81607056 153.31770325 460.56127930
155.67387390 151.53350830 454.96649170
149.65161133 156.49400330 462.26367188
199.77163696 202.39628601 410.93521118
203.29043579 210.94734192 418.41815186
206.82557678 201.56355286 419.74798584
209.76124573 211.35368347 427.27951050
185.70295715 275.65649414 480.77160645
185.77902222 276.78527832 491.38497925
196.59164429 278.25601196 485.09991455
196.59005737 278.86932373 495.67529297
174.42192078 275.21350098 495.93807983
172.44458008 272.25512695 507.43798828
185.22789001 276.11218262 501.27957153
183.79251099 272.78338623 512.39532471
198.29087830 247.21543884 445.14944458
201.27774048 255.13534546 451.40811157
209.31373596 249.25926208 448.65820312
211.90586853 257.34805298 454.57281494
158.00636292 204.16940308 477.22116089
151.84268188 209.76948547 485.13262939
169.99810791 209.11300659 486.13528442
163.82386780 214.75848389 493.46838379
191.36914062 183.56961060 395.43945312
192.85333252 194.76556396 399.11444092
198.58297729 186.71899414 404.87072754
199.56636047 196.85424805 408.85180664
124.53461456 178.82878113 493.25411987
117.32183838 186.06687927 500.51757812
136.83242798 183.14111328 491.35937500
129.05393982 190.17446899 497.00695801
191.64730835 232.79067993 428.71276855
195.00144958 239.37652588 437.39682007
201.34983826 232.01150513 434.96932983
204.28707886 239.31083679 443.52038574
184.54028320 266.37615967 462.44204712
186.09756470 270.88070679 471.82266235
195.20587158 269.09176636 465.95028687
196.44528198 273.29446411 475.34777832
135.83187866 198.88171387 489.78811646
128.37847900 205.19052124 495.96972656
145.89430237 199.79571533 480.02331543
136.96963501 205.75042725 484.89517212
154.93785095 185.34272766 453.74111938
154.76004028 188.62193298 463.39193726
166.45133972 190.03936768 459.44674683
166.52549744 191.83042908 468.85693359
120.27069855 157.30404663 472.54669189
115.93817902 164.04187012 482.86032104
135.06143188 160.00250244 472.41976929
128.98638916 165.07698059 480.33123779
174.11141968 153.93539429 383.29360962
174.95417786 164.37565613 382.05667114
183.03639221 159.12808228 389.83026123
183.35450745 167.26699829 389.94281006
140.19500732 226.30587769 486.67672729
133.15954590 232.66798401 493.29635620
151.90177917 234.58886719 496.53070068
145.79087830 242.21113586 501.50543213
106.84991455 166.63742065 492.85305786
102.24931335 173.87553406 503.03158569
121.14459229 171.43644714 491.82296753
115.75347900 177.75422668 500.12707520
185.58619690 219.58123779 403.84063721
188.81317139 226.05522156 413.37533569
194.28448486 217.82131958 411.78164673
197.04759216 225.26629639 421.50845337
178.51947021 257.78076172 446.75527954
180.60551453 263.05157471 455.96701050
188.88005066 259.27050781 451.12368774
190.89961243 264.59933472 460.07366943
129.79486084 235.59996033 499.27056885
126.26339722 241.03327942 508.75885010
138.73852539 246.29879761 501.57403564
137.80764771 251.70574951 510.65280151
111.28269958 195.99118042 510.05227661
105.46202850 203.53112793 518.81231689
120.42584229 202.71502686 503.29861450
114.96612549 209.93835449 510.94833374
125.48872375 215.45611572 486.32632446
118.36038208 221.13430786 494.25891113
136.94007874 218.08148193 480.39166260
129.36001587 222.94963074 486.22921753
164.17955017 268.06060791 470.67437744
165.97904968 271.02847290 481.12307739
174.37600708 271.02740479 474.81585693
176.06837463 273.56201172 485.35321045
147.88827515 195.83049011 451.16378784
148.83576965 198.90493774 460.89056396
159.12590027 198.46272278 458.96548462
160.05810547 200.89916992 468.78726196
111.13916016 215.32101440 510.25915527
106.84040833 222.25727844 519.12683105
117.43344879 227.32965088 502.63131714
114.02046967 233.86273193 511.14227295
179.23385620 202.45446777 386.48840332
181.92651367 212.35435486 392.87792969
188.96118164 203.35038757 394.59722900
190.82479858 213.07402039 400.84112549
173.90634155 179.83407593 381.67379761
175.85887146 190.67117310 384.11737061
183.60081482 183.15588379 388.14117432
184.69015503 192.33610535 391.01089478
176.67709351 246.25770569 431.03683472
179.28189087 251.79656982 440.34777832
186.41761780 245.54417419 436.85644531
188.56752014 251.55165100 445.98376465
139.12374878 266.73474121 493.89425659
142.63832092 265.46847534 504.78833008
150.52656555 269.80523682 499.60198975
153.87648010 267.94030762 510.70083618
149.30386353 268.86010742 482.69354248
152.21049500 270.03582764 493.62985229
159.89399719 271.72213745 487.68780518
162.75102234 272.29708862 498.88375854
162.38954163 263.25015259 451.88357544
164.29563904 266.09240723 462.35549927
172.47834778 264.77786255 456.61398315
174.52693176 267.47341919 467.05426025
171.44641113 237.14674377 406.80743408
174.20370483 242.04391479 417.42501831
180.98112488 235.01867676 414.12786865
183.17904663 240.59132385 424.93118286
118.37937927 255.32690430 495.96154785
123.64383698 256.02554321 505.63558960
130.12837219 261.12066650 499.70199585
135.16062927 261.23651123 509.93539429
144.19177246 154.71560669 372.14410400
145.71620178 165.81867981 371.47644043
154.50260925 159.87744141 374.52252197
155.58786011 168.75619507 374.66339111
157.07441711 256.58401489 432.41732788
159.39952087 260.12390137 442.75836182
167.38381958 256.57269287 437.93298340
169.57171631 260.20336914 448.35635376
142.79716492 262.90591431 461.89321899
145.60353088 264.95184326 472.43481445
152.86802673 265.75555420 466.50543213
155.96147156 267.44793701 477.43542480
164.88589478 222.67904663 386.55383301
167.84661865 230.68127441 394.82412720
175.66310120 222.32852173 394.03573608
177.78555298 230.56294250 402.16882324
95.24234772 235.96408081 502.21469116
101.09996033 238.99209595 510.43011475
104.76438904 245.43862915 499.30752563
110.57556152 247.59091187 508.28286743
157.40213013 207.09468079 377.57901001
160.42170715 216.71170044 383.28463745
168.73739624 208.38687134 382.96856689
170.78913879 217.53266907 388.48526001
150.32023621 184.20584106 371.82168579
152.89494324 195.08515930 374.55154419
161.40800476 187.61399841 375.62911987
163.07873535 196.86717224 378.63708496
125.78424072 259.88528442 473.02481079
129.77374268 261.72805786 483.25820923
136.49046326 263.96450806 477.82064819
140.50531006 265.40832520 488.72106934
151.72183228 248.04486084 406.76205444
154.62055969 252.54309082 417.14111328
163.00115967 247.35739136 412.98907471
165.45344543 252.17224121 423.73327637
138.60131836 259.74700928 440.04171753
141.27365112 261.94653320 450.73315430
149.18722534 261.64678955 444.66024780
152.01788330 263.51541138 455.88574219
108.94809723 251.98648071 477.54150391
113.79882812 254.89102173 486.79547119
119.60156250 257.43249512 480.57794189
124.43118286 260.01931763 490.81134033
76.35234833 216.86193848 494.54385376
81.55770874 221.13641357 502.43420410
84.03373718 226.80194092 489.16857910
89.35940552 230.39459229 497.74496460
146.00512695 233.67010498 387.99923706
149.34555054 240.99264526 396.29486084
158.65438843 234.21101379 393.29693604
161.15574646 241.64648438 401.72344971
90.40850067 235.85115051 482.48379517
95.46609497 239.85331726 490.55566406
99.48726654 244.42964172 481.43020630
104.56385803 248.14367676 490.64617920
120.14615631 257.19500732 450.77920532
123.54884338 259.01348877 460.98095703
130.64341736 260.65100098 454.81515503
134.06404114 262.01831055 465.88446045
131.90464783 254.76278687 415.70150757
134.91999817 257.83511353 426.14599609
143.41722107 256.42242432 420.32427979
146.32702637 259.35968018 431.54553223
121.75303650 167.84800720 369.66162109
123.43275452 179.20014954 369.84082031
132.75953674 172.72828674 368.36886597
134.18806458 182.35957336 369.04196167
100.80971527 246.68824768 462.19720459
105.07469177 249.66244507 471.28018188
110.73176575 252.81921387 463.70645142
114.96824646 255.45462036 473.82165527
134.03660583 216.47618103 376.14562988
137.36647034 225.55284119 382.25018311
146.78561401 218.66038513 379.20910645
149.30122375 227.28796387 385.11843872
69.75910950 207.40533447 474.91296387
73.72750854 212.96952820 482.55844116
74.88636780 216.07037354 468.46218872
78.89592743 221.51214600 476.77471924
128.46659851 193.91593933 369.36517334
131.32310486 204.67706299 372.67816162
140.56018066 197.67852783 370.91558838
142.68159485 207.08343506 374.28082275
82.59202576 228.20986938 467.93289185
86.91082001 232.72497559 476.05123901
90.54042816 236.39152527 465.69647217
94.83706665 240.78842163 474.96942139
114.08695984 253.32687378 428.09326172
117.33766937 255.79339600 438.20211792
124.53883362 257.29421997 430.95028687
127.82965088 259.35598755 442.04913330
124.31719971 240.99317932 396.42733765
127.84442139 247.39749146 404.84118652
137.38336182 243.89770508 399.45849609
140.39659119 250.31890869 408.42752075
101.56645203 246.78535461 443.49401855
105.14645386 249.66772461 452.89785767
111.08850098 252.43609619 444.75735474
114.68644714 254.92056274 455.19763184
66.12106323 193.42306519 454.41052246
68.08942413 200.74560547 462.14468384
69.33060455 200.03213501 446.43124390
71.06467438 207.39056396 454.54113770
86.33139038 231.32020569 445.32357788
89.81007385 235.67594910 453.96963501
94.04549408 238.32084656 443.92593384
97.57483673 242.59742737 453.70971680
74.16973114 214.92840576 450.44958496
77.19246674 220.56858826 458.06976318
79.61994934 222.33537292 445.88244629
82.61629486 228.16131592 454.48626709
100.92066956 165.04901123 376.84075928
101.03742218 175.90722656 377.37164307
110.60780334 170.59632874 371.56045532
110.90696716 180.58381653 372.25122070
116.37670898 224.86416626 384.40716553
119.69443512 233.40467834 390.25631714
129.58692932 228.77557373 385.10260010
132.30570984 237.00683594 391.33386230
107.66152954 241.28448486 407.46075439
111.02306366 246.73892212 416.11523438
118.55773926 246.83178711 408.15625000
121.95198822 252.20390320 417.76275635
106.93382263 190.56707764 374.88400269
108.93965149 201.15087891 377.56423950
118.36460114 195.44947815 372.54306030
120.14140320 204.99685669 375.34625244
94.82967377 237.27597046 423.14276123
97.83657837 242.21536255 431.61572266
103.55065918 244.20167542 422.23788452
106.73908997 248.94052124 431.73037720
71.71533966 201.43531799 434.38992310
73.12433624 208.85707092 441.50979614
75.78981018 208.57316589 428.62411499
77.17822266 216.29464722 436.48809814
80.86376190 218.28887939 426.57025146
83.15878296 224.74174500 434.18200684
87.06702423 225.57342529 423.34066772
89.45439911 232.27536011 431.95715332
70.25832367 183.60760498 426.89639282
70.02217865 192.79824829 433.02947998
73.55890656 190.68000793 418.49203491
73.41958618 199.53713989 424.86468506
105.36176300 205.77153015 380.67193604
107.83462524 215.53633118 384.72689819
116.84584045 210.83757019 378.59512329
119.12133789 219.97122192 382.74612427
100.76855469 224.01560974 394.37426758
103.73113251 232.37669373 400.24243164
111.90539551 230.27427673 392.50140381
114.76771545 238.46226501 398.92050171
89.18421173 220.70368958 410.11618042
91.39109802 228.43362427 416.52050781
97.20332336 228.33018494 406.66284180
99.54847717 236.07489014 413.89355469
86.66042328 175.67503357 389.95019531
86.62664795 186.52058411 391.84045410
94.59649658 182.53213501 382.70892334
95.12941742 193.11804199 384.96118164
78.16807556 203.35671997 414.02020264
79.12705994 211.73257446 420.29470825
83.71763611 210.99377441 409.01010132
84.95142365 219.53427124 416.06668091
88.69448853 212.14207458 399.69757080
90.42749786 220.63613892 405.13406372
97.31889343 219.15010071 395.67797852
99.20335388 227.70115662 401.95141602
77.89274597 186.27572632 406.22485352
77.64208221 196.07006836 410.68612671
83.03662109 193.75340271 399.10598755
83.27751923 203.28811646 404.08178711
73.13995361 146.37390137 470.41439819
73.13378906 146.36450195 470.41604614
73.14273834 146.37326050 470.41558838
73.13358307 146.36389160 470.42263794
186.96670532 163.02902222 386.48889160
186.95527649 163.01293945 386.49398804
186.97282410 163.02468872 386.49661255
186.96134949 163.01010132 386.50253296
94.00249481 198.31803894 389.26058960
94.00940704 198.30180359 389.26647949
94.02356720 198.30317688 389.25790405
94.02476501 198.28616333 389.27722168
127.59307861 111.48729706 416.92813110
127.58828735 111.47606659 416.92037964
127.60917664 111.48749542 416.93630981
127.59560394 111.47903442 416.93041992
149.05418396 160.63853455 467.03530884
149.05198669 160.61903381 467.04190063
149.06809998 160.64039612 467.03051758
149.06655884 160.62808228 467.03390503
126.54790497 150.79333496 370.85095215
126.54087830 150.78216553 370.85330200
126.56555176 150.79309082 370.85296631
126.55039215 150.77906799 370.86303711
81.92626953 149.68240356 414.83154297
81.92595673 149.67263794 414.82800293
81.93800354 149.68090820 414.82540894
81.92887115 149.67152405 414.83135986
174.88595581 136.21432495 429.77645874
174.87895203 136.19967651 429.77453613
174.89369202 136.21984863 429.78338623
174.88310242 136.20593262 429.77783203
116.84420776 129.40136719 457.62863159
116.84034729 129.39260864 457.62652588
116.84950256 129.41012573 457.63381958
116.84068298 129.40283203 457.62857056
149.71316528 189.71641541 369.93041992
149.70675659 189.70179749 369.93362427
149.71669006 189.70947266 369.93463135
149.70724487 189.69389343 369.94546509
163.73762512 120.05174255 389.19573975
163.72885132 120.03826904 389.19882202
163.75369263 120.04988098 389.20104980
163.74003601 120.03562927 389.20581055
70.34066772 184.62153625 434.05624390
70.34484863 184.60484314 434.05432129
70.34814453 184.61598206 434.06250000
70.34525299 184.59918213 434.07107544
94.37606049 162.08250427 383.35476685
94.37368774 162.07107544 383.35827637
94.39688110 162.07855225 383.35156250
94.38570404 162.06515503 383.36560059
109.14552307 127.59673309 390.70541382
109.14146423 127.58766174 390.70434570
109.16755676 127.59611511 390.71356201
109.15426636 127.58582306 390.71994019
97.34660339 123.72060394 431.23413086
97.34361267 123.71089935 431.22924805
97.35443115 123.73030090 431.23010254
97.34413147 123.71786499 431.23016357
144.96742249 129.09271240 440.96115112
144.96017456 129.08352661 440.95645142
144.97334290 129.10485840 440.96368408
144.96166992 129.09475708 440.95614624
117.74021912 183.71662903 371.15905762
117.73641968 183.70266724 371.16537476
117.75356293 183.71209717 371.15988159
117.74351501 183.69647217 371.17559814
115.23870087 156.56613159 473.03689575
115.23820496 156.55067444 473.03567505
115.25474548 156.56900024 473.03741455
115.25175476 156.56034851 473.03335571
156.10273743 159.06988525 372.34851074
156.09124756 159.05546570 372.35211182
156.11091614 159.07046509 372.35385132
156.09596252 159.05537415 372.36178589
185.62693787 134.59954834 402.18560791
185.61314392 134.58615112 402.19073486
185.63601685 134.59974670 402.18670654
185.62149048 134.58685303 402.18859863
174.18418884 158.93310547 447.42196655
174.18148804 158.91468811 447.42828369
174.19482422 158.93557739 447.42626953
174.18832397 158.91946411 447.42990112
156.07011414 113.51038361 419.62030029
156.06816101 113.50029755 419.61669922
156.07823181 113.51968384 419.63473511
156.07191467 113.50833130 419.62841797
72.17183685 151.74478149 442.35571289
72.16651154 151.73171997 442.35180664
72.18090057 151.74615479 442.35244751
72.16868591 151.73321533 442.35510254
80.35623932 179.79615784 404.94909668
80.36287689 179.78201294 404.95288086
80.37236786 179.78704834 404.94213867
80.37062836 179.77198792 404.95712280
136.03866577 118.64234161 390.92242432
136.03277588 118.63095093 390.92211914
136.05607605 118.64376831 390.93420410
136.04241943 118.63222504 390.93811035
89.55908966 126.91759491 461.17889404
89.55243683 126.91061401 461.17675781
89.56484222 126.92202759 461.17608643
89.55385590 126.91494751 461.17477417
122.02536011 113.40363312 440.35394287
122.01858521 113.39612579 440.35104370
122.03770447 113.41053772 440.36248779
122.02677917 113.40105438 440.35806274
170.10984802 141.22654724 380.77908325
170.09799194 141.21185303 380.78283691
170.11596680 141.22628784 380.78515625
170.10351562 141.21134949 380.79061890
144.75549316 135.39907837 376.89541626
144.74652100 135.38616943 376.89801025
144.77247620 135.39857483 376.90542603
144.75740051 135.38476562 376.91253662
187.65708923 153.88778687 423.67077637
187.64894104 153.87423706 423.66772461
187.66944885 153.88798523 423.68148804
187.66021729 153.87408447 423.67691040
98.80548096 141.87963867 476.11993408
98.80112457 141.87023926 476.12164307
98.80984497 141.88165283 476.12231445
98.80097961 141.87683105 476.12277222
92.60156250 141.10369873 395.47506714
92.60036469 141.09399414 395.47470093
92.62123108 141.10171509 395.47509766
92.61017609 141.09039307 395.48452759
153.47151184 146.57456970 450.54272461
153.46209717 146.55778503 450.54089355
153.47624207 146.57870483 450.53680420
153.46795654 146.56900024 450.53082275
171.94189453 175.13987732 376.67031860
171.93006897 175.12402344 376.67230225
171.94813538 175.13490295 376.67327881
171.93641663 175.12013245 376.68191528
133.21511841 149.44767761 458.21502686
133.21609497 149.43145752 458.21356201
133.22790527 149.45634460 458.20281982
133.22772217 149.44723511 458.19766235
73.01738739 165.58740234 426.28286743
73.01655579 165.57337952 426.27697754
73.02549744 165.58900452 426.28118896
73.01862335 165.57298279 426.28518677
102.77098083 123.28267670 409.77502441
102.76725769 123.27160645 409.76870728
102.79187012 123.28321075 409.78204346
102.77819061 123.27301025 409.78161621
109.15009308 144.36325073 378.27609253
109.14564514 144.35299683 378.27728271
109.17522430 144.36180115 378.27947998
109.16107178 144.34936523 378.29089355
82.14875793 137.90664673 430.61877441
82.14295959 137.89630127 430.61569214
82.15457916 137.91073608 430.62017822
82.14097595 137.89796448 430.62207031
137.47288513 167.04133606 368.79537964
137.46443176 167.02874756 368.79754639
137.48033142 167.04190063 368.79528809
137.46618652 167.02761841 368.80554199
68.89788055 170.74031067 447.37286377
68.89812469 170.72595215 447.37429810
68.90653992 170.74163818 447.37844849
68.90135956 170.72709656 447.38729858
171.74234009 120.17231750 410.86383057
171.73051453 120.15917206 410.86618042
171.75091553 120.17185974 410.86422729
171.73645020 120.16037750 410.86383057
108.92060089 201.78930664 378.02481079
108.92346191 201.77374268 378.03131104
108.93617249 201.77760315 378.02471924
108.93280029 201.76008606 378.04394531
100.54844666 181.62956238 378.96463013
100.54871368 181.61650085 378.96987915
100.56900787 181.62194824 378.96337891
100.56175995 181.60635376 378.97973633
114.76450348 165.50332642 371.30126953
114.75846100 165.49102783 371.30511475
114.77838135 165.49969482 371.29959106
114.76592255 165.48486328 371.31341553
80.86842346 197.30282593 409.25994873
80.87924194 197.28559875 409.27029419
80.88143158 197.28868103 409.26129150
80.88536072 197.27239990 409.28244019
151.51318359 110.79105377 402.43383789
151.50531006 110.77996826 402.43338013
151.52644348 110.79206085 402.43826294
151.51258850 110.78070068 402.43740845
122.92037964 131.61685181 380.49041748
122.91496277 131.60702515 380.49035645
122.93887329 131.61734009 380.49511719
122.92587280 131.60507202 380.50238037
131.03916931 164.13511658 472.25411987
131.03762817 164.11666870 472.25982666
131.05911255 164.13946533 472.25418091
131.05657959 164.12988281 472.25570679
137.38409424 112.01700592 431.35104370
137.38108826 112.00573730 431.34561157
137.39309692 112.02178192 431.36087036
137.38432312 112.01002502 431.35397339
105.37833405 116.86989594 445.03292847
105.37289429 116.86328888 445.02923584
105.38728333 116.87989044 445.03717041
105.37712097 116.87133789 445.03622437
82.61342621 135.19372559 447.72198486
82.60823059 135.18466187 447.71978760
82.61821747 135.19953918 447.71865845
82.60761261 135.18971252 447.72134399
82.10288239 161.60029602 402.50076294
82.10424042 161.58868408 402.50250244
82.12295532 161.59561157 402.48989868
82.11607361 161.58227539 402.50207520
89.54696655 134.35952759 414.23696899
89.54344940 134.34924316 414.23284912
89.55959320 134.35955811 414.23629761
89.54673767 134.35011292 414.23883057
192.66691589 149.51834106 399.58203125
192.65487671 149.50267029 399.58602905
192.67440796 149.51400757 399.59033203
192.66207886 149.50082397 399.59356689
67.64703369 158.90380859 459.02496338
67.64517975 158.89039612 459.02883911
67.65973663 158.90043640 459.02941895
67.65107727 158.88748169 459.03952026
88.03896332 176.61964417 390.65502930
88.04116821 176.60632324 390.65924072
88.06163025 176.61265564 390.64752197
88.05500031 176.59716797 390.66354370
130.05888367 126.75251007 447.70849609
130.05300903 126.74340057 447.70477295
130.06422424 126.76321411 447.71127319
130.05500793 126.75508118 447.70571899
159.61758423 128.81457520 433.82971191
159.60754395 128.80407715 433.82717896
159.62632751 128.82162476 433.83563232
159.61268616 128.81072998 433.82974243
113.31085205 113.55531311 426.79476929
113.30516815 113.54624939 426.78942871
113.32534790 113.56234741 426.79876709
113.31259155 113.55068970 426.79559326
74.02289581 179.95295715 419.39813232
74.02651215 179.93995667 419.39868164
74.03245544 179.94903564 419.39260864
74.02971649 179.93756104 419.40319824
115.52003479 118.51593781 401.76031494
115.51507568 118.50672913 401.75506592
115.53840637 118.51869965 401.76196289
115.52525330 118.50994110 401.76171875
111.86692810 143.51893616 465.60302734
111.86712646 143.50460815 465.59616089
111.88073730 143.52131653 465.59460449
111.87638855 143.51443481 465.58670044
184.54374695 143.96646118 387.87408447
184.53460693 143.95031738 387.87878418
184.55236816 143.96133423 387.87533569
184.54037476 143.94671631 387.88034058
152.97955322 173.52806091 371.18853760
152.96960449 173.51309204 371.19238281
152.98724365 173.52662659 371.19348145
152.97389221 173.51123047 371.20370483
175.83959961 156.82688904 379.46936035
175.82876587 156.81109619 379.47192383
175.84289551 156.82348633 379.47119141
175.83074951 156.80770874 379.47711182
177.31854248 149.25761414 435.66104126
177.31117249 149.24307251 435.65982056
177.33044434 149.25997925 435.66970825
177.32012939 149.24667358 435.66464233
141.92132568 110.42899323 416.33380127
141.91378784 110.41593933 416.33032227
141.93069458 110.42766571 416.34121704
141.91702271 110.41792297 416.33721924
176.12614441 123.96864319 395.09069824
176.11750793 123.95350647 395.09545898
176.13868713 123.96523285 395.09426880
176.12635803 123.95162964 395.09860229
183.97303772 137.53309631 416.01245117
183.96528625 137.52157593 416.00738525
183.97845459 137.53833008 416.02719116
183.96908569 137.52606201 416.01965332
140.46629333 153.35505676 370.45843506
140.45646667 153.34262085 370.46203613
140.47520447 153.35543823 370.46197510
140.45860291 153.34178162 370.47122192
105.02214050 121.90902710 458.94918823
105.01676178 121.90204620 458.94787598
105.03002167 121.91320038 458.95300293
105.01908875 121.90653992 458.95046997
130.63885498 112.55743408 402.24139404
130.63542175 112.54567719 402.23831177
130.65629578 112.55539703 402.24664307
130.64439392 112.54393768 402.24697876
127.84943390 193.16091919 369.72741699
127.84545135 193.14611816 369.73171997
127.85860443 193.15122986 369.72488403
127.84986877 193.13471985 369.73934937
134.08949280 180.22990417 369.97808838
134.08197021 180.21563721 369.98251343
134.09555054 180.22602844 369.97924805
134.08316040 180.21090698 369.99166870
164.36482239 157.49620056 456.83419800
164.36640930 157.47731018 456.84100342
164.37748718 157.50494385 456.83804321
164.37971497 157.49000549 456.84097290
146.87423706 123.70558167 384.41195679
146.86822510 123.69291687 384.41452026
146.89083862 123.70259094 384.42153931
146.87680054 123.68888855 384.42636108
81.95779419 136.05857849 469.58312988
81.95027161 136.05081177 469.58245850
81.96755981 136.05651855 469.57958984
81.95644379 136.04913330 469.58203125
138.91809082 140.46765137 449.84939575
138.91334534 140.45272827 449.84173584
138.92395020 140.47091675 449.83865356
138.91717529 140.46276855 449.82885742
91.57871246 124.04880524 448.40264893
91.57087708 124.04054260 448.39956665
91.58784485 124.05157471 448.40246582
91.57462311 124.04103851 448.40270996
157.64413452 139.60012817 377.20172119
157.63424683 139.58685303 377.20449829
157.65661621 139.59997559 377.20681763
157.64346313 139.58502197 377.21359253
164.99459839 145.40475464 444.92883301
164.98257446 145.38766479 444.92639160
165.00164795 145.39886475 444.91830444
164.99108887 145.38822937 444.91070557
104.61532593 158.22116089 376.76571655
104.61322784 158.20901489 376.76895142
104.63615417 158.21762085 376.76483154
104.62508392 158.20378113 376.77853394
75.65315247 142.99914551 454.99981689
75.65021515 142.98692322 455.00073242
75.66141510 143.00183105 454.99765015
75.65130615 142.99024963 455.00241089
85.96454620 192.10467529 396.67785645
85.97176361 192.08926392 396.68521118
85.98443604 192.09146118 396.67510986
85.98455048 192.07481384 396.69329834
89.16030121 154.42739868 391.80596924
89.15966797 154.41703796 391.80685425
89.18132019 154.41921997 391.80032349
89.17176056 154.40640259 391.81210327
124.35743713 140.91818237 456.53338623
124.35675049 140.90205383 456.52597046
124.36885071 140.92073059 456.52493286
124.36373901 140.91195679 456.51605225
98.76754761 148.17703247 383.25915527
98.76469421 148.16671753 383.26116943
98.78764343 148.17602539 383.25939941
98.77450562 148.16271973 383.27105713
115.21569824 118.26512909 451.90036011
115.20942688 118.25846863 451.89855957
115.22261047 118.27140045 451.90661621
115.21253204 118.26420593 451.90301514
76.26610565 148.68638611 431.48074341
76.26118469 148.67358398 431.47689819
76.27507019 148.69425964 431.47741699
76.26349640 148.68014526 431.48117065
133.74874878 126.76617432 382.47918701
133.74211121 126.75498962 382.47943115
133.76910400 126.76786804 382.48703003
133.75607300 126.75560760 382.49295044
163.67543030 149.68394470 375.26589966
163.66596985 149.66954041 375.26913452
163.68383789 149.68200684 375.27081299
163.67121887 149.66639709 375.27764893
162.16639709 113.67063904 409.16696167
162.15591431 113.65750885 409.16802979
162.17829895 113.67089081 409.17138672
162.16281128 113.65901184 409.17095947
149.93865967 121.23748016 433.94317627
149.93142700 121.22796631 433.93896484
149.94549561 121.24355316 433.94747925
149.93423462 121.23276520 433.94125366
190.04287720 148.84887695 413.48382568
190.03594971 148.83534241 413.48162842
190.05856323 148.84806824 413.49682617
190.05209351 148.83415222 413.49377441
103.27758789 137.34353638 385.24371338
103.27331543 137.33422852 385.24365234
103.30087280 137.34434509 385.24514771
103.28693390 137.33349609 385.25491333
125.38786316 169.06581116 368.76135254
125.38066101 169.05450439 368.76571655
125.39801025 169.06460571 368.76281738
125.38526917 169.04977417 368.77560425
96.24708557 125.54387665 420.03369141
96.24367523 125.53391266 420.02667236
96.26461029 125.54555511 420.03552246
96.25139618 125.53669739 420.03530884
86.35124207 147.96063232 401.81106567
86.35157776 147.95019531 401.81048584
86.37296295 147.95787048 401.80212402
86.36403656 147.94590759 401.81176758
176.20130920 133.47628784 385.99572754
176.19270325 133.46176147 385.99905396
176.20867920 133.47222900 385.99429321
176.19618225 133.45674133 385.99914551
117.66946411 114.60313416 413.00140381
117.66529846 114.59403229 412.99206543
117.68377686 114.60655212 413.00415039
117.67027283 114.59838104 412.99890137
89.15502167 137.20397949 478.86434937
89.15065002 137.19558716 478.86984253
89.15998840 137.20521545 478.86376953
89.15169525 137.19924927 478.86773682
168.19859314 164.04658508 376.23709106
168.18763733 164.03028870 376.24084473
168.20259094 164.04525757 376.23956299
168.18785095 164.02963257 376.24822998
151.54025269 137.70899963 444.35620117
151.53332520 137.69161987 444.34948730
151.54304504 137.70841980 444.34387207
151.53480530 137.69761658 444.33474731
101.55354309 128.13441467 467.24411011
101.54956055 128.12591553 467.24447632
101.56315613 128.13519287 467.24804688
101.55416870 128.12744141 467.24694824
144.69775391 149.94837952 456.05120850
144.69303894 149.93127441 456.05065918
144.70855713 149.95404053 456.04373169
144.70512390 149.94424438 456.04074097
133.14295959 142.62103271 373.72308350
133.13537598 142.60925293 373.72659302
133.15869141 142.62152100 373.72717285
133.14544678 142.60769653 373.73782349
180.49833679 128.81188965 409.74932861
180.48669434 128.79739380 409.75106812
180.51028442 128.80487061 409.74935913
180.49766541 128.79255676 409.74807739
75.79504395 168.02961731 416.11700439
75.79690552 168.01779175 416.11859131
75.80910492 168.02471924 416.10861206
75.80158997 168.01370239 416.11938477
182.41708374 143.37742615 424.95935059
182.40803528 143.36375427 424.95703125
182.42428589 143.37925720 424.97033691
182.41395569 143.36624146 424.96524048
160.16957092 120.53936005 426.65676880
160.16099548 120.52954865 426.65258789
160.17790222 120.54515839 426.66140747
160.16606140 120.53352356 426.65396118
86.82179260 131.72467041 438.47967529
86.81533051 131.71527100 438.47631836
86.83074951 131.73571777 438.48260498
86.81824493 131.72491455 438.48400879
119.76728821 150.70657349 465.38485718
119.76710510 150.69186401 465.37902832
119.77976990 150.71185303 465.37872314
119.77720642 150.70425415 465.37091064
125.55572510 120.54526520 390.88476562
125.55189514 120.53512573 390.88513184
125.57691956 120.54655457 390.89770508
125.56410980 120.53491211 390.90200806
167.32458496 137.39886475 436.94876099
167.31582642 137.38626099 436.94793701
167.33378601 137.40884399 436.95373535
167.32260132 137.39683533 436.94909668
147.48294067 115.19696808 393.81457520
147.47476196 115.18315887 393.81707764
147.49702454 115.19606781 393.82424927
147.48240662 115.18212128 393.82809448
126.26306152 111.52379608 431.00936890
126.26052856 111.51522827 431.00360107
126.26924896 111.53115845 431.01776123
126.26127625 111.52053070 431.01312256
96.67001343 133.04882812 400.51293945
96.66737366 133.03985596 400.51159668
96.69377899 133.04818726 400.51019287
96.68141937 133.03775024 400.51690674
69.92432404 174.43174744 434.02127075
69.92633057 174.41748047 434.01388550
69.93540192 174.43218994 434.02359009
69.93117523 174.41760254 434.02780151
136.27262878 118.11051178 439.35705566
136.26718140 118.10015869 439.35470581
136.28514099 118.11476135 439.36380005
136.27474976 118.10392761 439.35937500
76.47657013 142.62814331 442.96560669
76.47116089 142.61618042 442.96170044
76.48403168 142.63224792 442.95928955
76.47309113 142.61968994 442.96051025
108.11805725 191.89825439 376.26580811
108.11897278 191.88317871 376.27117920
108.13562012 191.88494873 376.26345825
108.12928772 191.86755371 376.28012085
153.52583313 154.28356934 458.22628784
153.52105713 154.26400757 458.23132324
153.53900146 154.28817749 458.22338867
153.53576660 154.27653503 458.22250366
92.66116333 131.07897949 470.88803101
92.65552521 131.07064819 470.88937378
92.66761780 131.07907104 470.88851929
92.65718079 131.07189941 470.88909912
162.51412964 131.63372803 380.80078125
162.50581360 131.61996460 380.80447388
162.52941895 131.63012695 380.80972290
162.51678467 131.61505127 380.81527710
93.04928589 188.70907593 386.85961914
93.05242920 188.69374084 386.86718750
93.06748962 188.69845581 386.85537720
93.06236267 188.68296814 386.87414551
141.64537048 110.53323364 406.39230347
141.63938904 110.52236176 406.38760376
141.66287231 110.53387451 406.39767456
141.64918518 110.52415466 406.39443970
160.57792664 179.06179810 374.23709106
160.56750488 179.04724121 374.24078369
160.58424377 179.05934143 374.24343872
160.57040405 179.04483032 374.25247192
104.77137756 125.57007599 399.28723145
104.76773834 125.56071472 399.28637695
104.79269409 125.57270813 399.29449463
104.77937317 125.56179047 399.30044556
137.54246521 192.39671326 369.79336548
137.53544617 192.38269043 369.79748535
137.54980469 192.38676453 369.79425049
137.54014587 192.37120056 369.80715942
172.76144409 128.03744507 425.16824341
172.75288391 128.02830505 425.16653442
172.77169800 128.04335022 425.17941284
172.76219177 128.03247070 425.17492676
108.74144745 133.99407959 465.03381348
108.73577881 133.98576355 465.03347778
108.74879456 133.99948120 465.03631592
108.73928070 133.99334717 465.03305054
170.95712280 119.03788757 401.27639771
170.94885254 119.02438354 401.27966309
170.96942139 119.03606415 401.27648926
170.95822144 119.02345276 401.27832031
97.11769104 120.11447906 441.91354370
97.11148071 120.10668945 441.90808105
97.13128662 120.11930847 441.91183472
97.11817932 120.11021423 441.90939331
76.13730621 156.84020996 425.23464966
76.13834381 156.82928467 425.23236084
76.15548706 156.83987427 425.22891235
76.14746857 156.83018494 425.23666382
166.84512329 120.39065552 420.16452026
166.83775330 120.38102722 420.16036987
166.84689331 120.39819336 420.17431641
166.83865356 120.38807678 420.16656494
153.93238831 147.24797058 373.50659180
153.92135620 147.23564148 373.50866699
153.94377136 147.24510193 373.50915527
153.92909241 147.23063660 373.51705933
183.67027283 134.04759216 391.30523682
183.66285706 134.03265381 391.31082153
183.68453979 134.04016113 391.30203247
183.67474365 134.02487183 391.30694580
103.40554047 173.44436646 376.10250854
103.40193176 173.43222046 376.10729980
103.42193604 173.43920898 376.09875488
103.41084290 173.42459106 376.11450195
176.49501038 147.64189148 381.12329102
176.48490906 147.62646484 381.12652588
176.50292969 147.63902283 381.12417603
176.49005127 147.62298584 381.13021851
78.85102844 169.90753174 407.81970215
78.85346985 169.89610291 407.81964111
78.86537170 169.90461731 407.81353760
78.85935211 169.89297485 407.82440186
163.53926086 115.43011475 396.86718750
163.53247070 115.41664124 396.86932373
163.55160522 115.42823029 396.86938477
163.53952026 115.41497803 396.87088013
83.84695435 139.10690308 421.97912598
83.84519196 139.09703064 421.97320557
83.86326599 139.10914612 421.97467041
83.85186768 139.10012817 421.97668457
181.98556519 156.82147217 435.80538940
181.98002625 156.80456543 435.81103516
182.00065613 156.81689453 435.81472778
181.99101257 156.80168152 435.81555176
72.30735016 162.01968384 434.35720825
72.30447388 162.00637817 434.35504150
72.31319427 162.02615356 434.35140991
72.30372620 162.01089478 434.35708618
109.62583923 118.46545410 412.50369263
109.62104797 118.45602417 412.49700928
109.64130402 118.46758270 412.51025391
109.62765503 118.45829010 412.50720215
139.83561707 113.63742828 397.89288330
139.83096313 113.62557983 397.89288330
139.85324097 113.63791656 397.90097046
139.84103394 113.62572479 397.90274048
113.43122864 113.32017517 435.57061768
113.42579651 113.31158447 435.56719971
113.44200897 113.32844543 435.57687378
113.43183899 113.31690216 435.57284546
80.80336761 135.39334106 460.97714233
80.79764557 135.38442993 460.97387695
80.80819702 135.39559937 460.97177124
80.79834747 135.38624573 460.97232056
89.86700439 140.80818176 405.25402832
89.86659241 140.79862976 405.25506592
89.88770294 140.80621338 405.25073242
89.87806702 140.79486084 405.25897217
99.00354767 120.48855591 450.90737915
98.99638367 120.48097229 450.90505981
99.01338196 120.49653625 450.91253662
99.00032043 120.48811340 450.91033936
117.21813965 142.83935547 375.71716309
117.21318817 142.82749939 375.71911621
117.23746490 142.83828735 375.72229004
117.22451782 142.82495117 375.73275757
164.01898193 171.07104492 373.91186523
164.00794983 171.05496216 373.91543579
164.02438354 171.06652832 373.91772461
164.01045227 171.05052185 373.92642212
189.18481445 151.02316284 391.98474121
189.17147827 151.00837708 391.98788452
189.19268799 151.02166748 391.98822021
189.18002319 151.00839233 391.99114990
102.97216797 120.91809845 422.32562256
102.96719360 120.90887451 422.32034302
102.98037720 120.92549896 422.32983398
102.96959686 120.91475677 422.32812500
174.66606140 124.96241760 417.20962524
174.65318298 124.94772339 417.21142578
174.67115784 124.95801544 417.20626831
174.65606689 124.94664764 417.20434570
93.37356567 177.53881836 384.15081787
93.37536621 177.52624512 384.15454102
93.39311218 177.52833557 384.14193726
93.38770294 177.51278687 384.15850830
100.30932617 199.37524414 383.71673584
100.31369019 199.35896301 383.72445679
100.32579041 199.36076355 383.72039795
100.32348633 199.34332275 383.73971558
80.28482056 155.54959106 408.96206665
80.28486633 155.53884888 408.95916748
80.30266571 155.54733276 408.95950317
80.29199982 155.53694153 408.96636963
189.07560730 142.45541382 408.13778687
189.06294250 142.43995667 408.14157104
189.08306885 142.44964600 408.13287354
189.07029724 142.43664551 408.13418579
120.43312073 196.40237427 371.71575928
120.43133545 196.38706970 371.72122192
120.44586182 196.39248657 371.71453857
120.43994904 196.37532043 371.73114014
115.77185822 157.27314758 371.77789307
115.76625824 157.26220703 371.78143311
115.78997803 157.27416992 371.78039551
115.77664948 157.26010132 371.79287720
127.36020660 157.69454956 468.55532837
127.35694885 157.67822266 468.55545044
127.37364197 157.69865417 468.54949951
127.37092590 157.68994141 468.54629517
85.70063019 165.54483032 396.17611694
85.70333099 165.53251648 396.17825317
85.72357178 165.53910828 396.16918945
85.71643066 165.52508545 396.18267822
97.51406860 148.40957642 480.96664429
97.51005554 148.40153503 480.97171021
97.51639557 148.41064453 480.97085571
97.50910950 148.40704346 480.97393799
141.53895569 145.51959229 372.72125244
141.52949524 145.50802612 372.72418213
141.55059814 145.52403259 372.72662354
141.53616333 145.50947571 372.73443604
72.28629303 175.86209106 426.30154419
72.28930664 175.85098267 426.30114746
72.29647827 175.85629272 426.29510498
72.29256439 175.84616089 426.30374146
72.05023956 148.78713989 462.72982788
72.04642487 148.77604675 462.73440552
72.05643463 148.78497314 462.72756958
72.04699707 148.77444458 462.73587036
124.99046326 158.71539307 370.02459717
124.98403931 158.70329285 370.02777100
125.00318909 158.71490479 370.02847290
124.99107361 158.70007324 370.04092407
69.16781616 162.70777893 446.41870117
69.16638947 162.69451904 446.41860962
69.17604065 162.70678711 446.41888428
69.16870880 162.69317627 446.42636108
159.98468018 139.59049988 442.37234497
159.97404480 139.57327271 442.36868286
159.98973083 139.59010315 442.36120605
159.97824097 139.57867432 442.35351562
146.45709229 182.39353943 370.96533203
146.44851685 182.37879944 370.96939087
146.46279907 182.38815308 370.96575928
146.45089722 182.37388611 370.97659302
140.48565674 175.61962891 368.22317505
140.47769165 175.60632324 368.22616577
140.49557495 175.61575317 368.22531128
140.48272705 175.60151672 368.23672485
68.01029205 176.51770020 441.79769897
68.01143646 176.50250244 441.79785156
68.01423645 176.51361084 441.80206299
68.01003265 176.49830627 441.81124878
77.09604645 184.10290527 413.20233154
77.10329437 184.08799744 413.21026611
77.11267853 184.09582520 413.19659424
77.11200714 184.08148193 413.21478271
141.27694702 159.27447510 465.52078247
141.27517700 159.25643921 465.52554321
141.29147339 159.27909851 465.51547241
141.28924561 159.26881409 465.51626587
155.37028503 115.82536316 392.66363525
155.36483765 115.81296539 392.66461182
155.38383484 115.82421112 392.66964722
155.37286377 115.81063080 392.67208862
148.44702148 111.46131897 420.81808472
148.44178772 111.45211792 420.81457520
148.45513916 111.46933746 420.82611084
148.44662476 111.45671844 420.82052612
135.17687988 133.13418579 378.00305176
135.17176819 133.12292480 378.00579834
135.19506836 133.13381958 378.01318359
135.18165588 133.12069702 378.02258301
69.16691589 154.07516479 452.94863892
69.16372681 154.06347656 452.94622803
69.17576599 154.07688904 452.94647217
69.16642761 154.06367493 452.95227051
148.86830139 115.66098022 428.46331787
148.86349487 115.65145111 428.45758057
148.88117981 115.66681671 428.47039795
148.87318420 115.65468597 428.46310425
108.52333069 152.46635437 473.27496338
108.51852417 152.45783997 473.27813721
108.52693176 152.47332764 473.27395630
108.51882935 152.46966553 473.27371216
124.34332275 116.01388550 399.05517578
124.34092712 116.00333405 399.05163574
124.36553192 116.01174164 399.05984497
124.35557556 116.00166321 399.06146240
77.99428558 156.30514526 416.41070557
77.99339294 156.29528809 416.40728760
78.00917816 156.30444336 416.40789795
78.00000763 156.29425049 416.41400146
156.98222351 185.36393738 371.48614502
156.97488403 185.34831238 371.48870850
156.98735046 185.35736084 371.48709106
156.97578430 185.34049988 371.49700928
154.96179199 111.29605103 410.77038574
154.95098877 111.28324890 410.76965332
154.97271729 111.29878235 410.77621460
154.95802307 111.28779602 410.77410889
182.63044739 157.10034180 384.07946777
182.61920166 157.08364868 384.08386230
182.63322449 157.09870911 384.08331299
182.62152100 157.08389282 384.08865356
79.16074371 189.79132080 408.39205933
79.17044067 189.77598572 408.39807129
79.17691803 189.77906799 408.38659668
79.17993164 189.76414490 408.40399170
79.77027893 143.99615479 426.48797607
79.76586914 143.98379517 426.48068237
79.77497864 144.00134277 426.48242188
79.76355743 143.98692322 426.48403931
143.70793152 160.18058777 369.33563232
143.69993591 160.16728210 369.33938599
143.71817017 160.17919922 369.33795166
143.70507812 160.16384888 369.34820557
91.97453308 126.21398926 439.44583130
91.96755981 126.20539093 439.44204712
91.98432159 126.21750641 439.44616699
91.97149658 126.20743561 439.44696045
67.57804108 164.55395508 453.94494629
67.57772827 164.54017639 453.94662476
67.58508301 164.55273438 453.94473267
67.57865906 164.53810120 453.95449829
125.87956238 112.33444214 408.14151001
125.87399292 112.32471466 408.13528442
125.89479065 112.33801270 408.14654541
125.88203430 112.32938385 408.14346313
89.72392273 163.69981384 389.08560181
89.72420502 163.68740845 389.08782959
89.74673462 163.69445801 389.07989502
89.73860931 163.67984009 389.09378052
131.99433899 161.49897766 369.68542480
131.98599243 161.48640442 369.68963623
132.00646973 161.49766541 369.68777466
131.99243164 161.48373413 369.69903564
121.95089722 117.11814880 446.89282227
121.94458008 117.11132050 446.89245605
121.96173096 117.12670135 446.89923096
121.95111084 117.11940002 446.89703369
109.38024902 117.14466858 421.16775513
109.37488556 117.13564301 421.16061401
109.38922119 117.15104675 421.16864014
109.37773895 117.13908386 421.16607666
169.16781616 131.47283936 430.84558105
169.15658569 131.46368408 430.84393311
169.17794800 131.47459412 430.85583496
169.16450500 131.46316528 430.85122681
101.66714478 188.98704529 379.92138672
101.66940308 188.97203064 379.92776489
101.68446350 188.97674561 379.92163086
101.67961121 188.95913696 379.93954468
102.30693817 134.87341309 470.43496704
102.30429077 134.86427307 470.43353271
102.31257629 134.87583923 470.44030762
102.30473328 134.86949158 470.43743896
169.99806213 119.89881134 393.64459229
169.99118042 119.88494110 393.64843750
170.01492310 119.89277649 393.64617920
170.00402832 119.87834930 393.64929199
131.60002136 173.23367310 368.31671143
131.59263611 173.22203064 368.32006836
131.60801697 173.22836304 368.31481934
131.59562683 173.21395874 368.32629395
153.51840210 132.31657410 439.53253174
153.51084900 132.30476379 439.53118896
153.52363586 132.32574463 439.52923584
153.51129150 132.31506348 439.52389526
181.40460205 128.49136353 401.31152344
181.39405823 128.47714233 401.31695557
181.41728210 128.48837280 401.31396484
181.40475464 128.47532654 401.31536865
133.61660767 111.24795532 424.95803833
133.61560059 111.23786163 424.95281982
133.62240601 111.25692749 424.96447754
133.61648560 111.24527740 424.95880127
95.86965942 129.30320740 406.86541748
95.86524200 129.29389954 406.85888672
95.88808441 129.30134583 406.86563110
95.87378693 129.29356384 406.86718750
153.58401489 121.21197510 386.34054565
153.57861328 121.19907379 386.34210205
153.60160828 121.20910645 386.35198975
153.59011841 121.19569397 386.35665894
147.26719666 150.66073608 371.62823486
147.25721741 150.64749146 371.63168335
147.27961731 150.65890503 371.63461304
147.26473999 150.64428711 371.64355469
88.14225006 133.07115173 421.83468628
88.14030457 133.06195068 421.82873535
88.15731812 133.07144165 421.83975220
88.14511871 133.06318665 421.83981323
159.31443787 112.56127930 402.42807007
159.30545044 112.54841614 402.42910767
159.32632446 112.55947113 402.43206787
159.31311035 112.54758453 402.43157959
96.75816345 168.63375854 380.89489746
96.75765228 168.62086487 380.89727783
96.77749634 168.62683105 380.89343262
96.76898193 168.61222839 380.90899658
163.75833130 152.80267334 451.19818115
163.74844360 152.78445435 451.19815063
163.76959229 152.80062866 451.18698120
163.76158142 152.78947449 451.18307495
115.91947937 124.90120697 389.83554077
115.91378784 124.89095306 389.83624268
115.94252014 124.90255737 389.84045410
115.92692566 124.89123535 389.84823608
78.41824341 163.22541809 410.77154541
78.41815186 163.21423340 410.77157593
78.43296051 163.21948242 410.76101685
78.42486572 163.20860291 410.77069092
113.69695282 177.69659424 371.92687988
113.69356537 177.68344116 371.93127441
113.71034241 177.68994141 371.92266846
113.70057678 177.67427063 371.93701172
85.95862579 129.06277466 455.22268677
85.95353699 129.05307007 455.21975708
85.96092987 129.06564331 455.21905518
85.95020294 129.05586243 455.21826172
107.80538940 151.28875732 376.48315430
107.80111694 151.27685547 376.48571777
107.82524109 151.28421021 376.48202515
107.81289673 151.26922607 376.49462891
110.06369019 132.36163330 385.29916382
110.05947876 132.35157776 385.29959106
110.08603668 132.36035156 385.30175781
110.07350159 132.34777832 385.30984497
103.53065491 147.34838867 474.52478027
103.52593994 147.33956909 474.52825928
103.53239441 147.35142517 474.52749634
103.52433777 147.34657288 474.52832031
120.32425690 174.04757690 370.26486206
120.31861877 174.03572083 370.27001953
120.33460236 174.04406738 370.26483154
120.32353973 174.02937317 370.27908325
124.15293884 180.55551147 369.91897583
124.14649963 180.54234314 369.92480469
124.16314697 180.55108643 369.91842651
124.15123749 180.53672791 369.93365479
159.28857422 125.76244354 383.57028198
159.28054810 125.74947357 383.57354736
159.30464172 125.75809479 383.58026123
159.29109192 125.74386597 383.58547974
93.68141174 149.37487793 388.28094482
93.67872620 149.36444092 388.28213501
93.70136261 149.36953735 388.28286743
93.68977356 149.35746765 388.29479980
108.09609985 164.28118896 373.86416626
108.09246826 164.26808167 373.86813354
108.11672211 164.27571106 373.86325073
108.10450745 164.26083374 373.87802124
139.71928406 122.99903107 385.24005127
139.71209717 122.98795319 385.24166870
139.73622131 123.00161743 385.25009155
139.72132874 122.98823547 385.25500488
96.30367279 124.38232422 461.59509277
96.29757690 124.37372589 461.59375000
96.31253052 124.38330841 461.59564209
96.30112457 124.37503815 461.59548950
81.35734558 136.59016418 440.76327515
81.35243225 136.58007812 440.75808716
81.36616516 136.59634399 440.75976562
81.35507202 136.58413696 440.76071167
74.82963562 187.01658630 420.40844727
74.83579254 187.00274658 420.41088867
74.83998108 187.00984192 420.40878296
74.83940887 186.99781799 420.42138672
87.15586853 185.61631775 393.88635254
87.16041565 185.60197449 393.89111328
87.17441559 185.60610962 393.87512207
87.17118073 185.59040833 393.89080811
123.92231750 124.30664825 450.43783569
123.91801453 124.29840088 450.43502808
123.93056488 124.31616974 450.44216919
123.92231750 124.30879211 450.43804932
131.46328735 113.26051331 435.59252930
131.45814514 113.25166321 435.58932495
131.47692871 113.26364899 435.60363770
131.46647644 113.25244141 435.59790039
102.57865143 117.29143524 438.27407837
102.57208252 117.28527832 438.26513672
102.59033203 117.29834747 438.27630615
102.57875824 117.29122925 438.27151489
114.62277222 189.96109009 372.66082764
114.62115479 189.94717407 372.66659546
114.63832092 189.95312500 372.65582275
114.63028717 189.93669128 372.67242432
147.17012024 143.31262207 449.83889771
147.16213989 143.29684448 449.83361816
147.17369080 143.31634521 449.82727051
147.16577148 143.30686951 449.81863403
118.24104309 137.68084717 458.20928955
118.24016571 137.66461182 458.20132446
118.25567627 137.68145752 458.20321655
118.24923706 137.67254639 458.19522095
129.76921082 185.85662842 369.50793457
129.76269531 185.84278870 369.51287842
129.77780151 185.85073853 369.50802612
129.76693726 185.83532715 369.52203369
83.05802155 183.50448608 399.56842041
83.06375885 183.48953247 399.57357788
83.07269287 183.49354553 399.55853271
83.07075500 183.47814941 399.57501221
144.96849060 167.09156799 368.57965088
144.95970154 167.07800293 368.58361816
144.97569275 167.09193420 368.58010864
144.96305847 167.07621765 368.59118652
179.94189453 136.88955688 423.67910767
179.93240356 136.87718201 423.67639160
179.94830322 136.89097595 423.68640137
179.93724060 136.87814331 423.68115234
176.92666626 140.75796509 382.56838989
176.91618347 140.74319458 382.57266235
176.93461609 140.75712585 382.57226562
176.92149353 140.74058533 382.57781982
76.07458496 141.34678650 466.45318604
76.06786346 141.33705139 466.45223999
76.07780457 141.34548950 466.45495605
76.06652069 141.33683777 466.45809937
82.56144714 175.07933044 400.21395874
82.56757355 175.06541443 400.21697998
82.57751465 175.07110596 400.20318604
82.57389832 175.05580139 400.21771240
139.34060669 124.17836761 441.16888428
139.33622742 124.16756439 441.16378784
139.34785461 124.18849945 441.17083740
139.33877563 124.17732239 441.16442871
165.81813049 124.72136688 426.71441650
165.80726624 124.71212769 426.70993042
165.82876587 124.72563934 426.72171021
165.81498718 124.71479034 426.71411133
143.66029358 136.78308105 446.23703003
143.65792847 136.76577759 446.22900391
143.67016602 136.78335571 446.22680664
143.66351318 136.77195740 446.21615601
175.47879028 169.75617981 379.43176270
175.46757507 169.74002075 379.43304443
175.48211670 169.75210571 379.43536377
175.47044373 169.73745728 379.44226074
124.45145416 163.89093018 474.60913086
124.44971466 163.87396240 474.61297607
124.46662903 163.89529419 474.60858154
124.46517944 163.88658142 474.60946655
85.85250092 131.19804382 465.28082275
85.84768677 131.18988037 465.28259277
85.85829926 131.19717407 465.27923584
85.84815979 131.18853760 465.28085327
189.51844788 158.08911133 390.72137451
189.50685120 158.07402039 390.72262573
189.52642822 158.08010864 390.72924805
189.51574707 158.06709290 390.73278809
192.29928589 149.10847473 406.89852905
192.29331970 149.09562683 406.89370728
192.31271362 149.10498047 406.91607666
192.30737305 149.09176636 406.91076660
169.11859131 156.00042725 377.88046265
169.10678101 155.98463440 377.88366699
169.12380981 156.00009155 377.88598633
169.11088562 155.98440552 377.89166260
97.19902039 137.07797241 392.19943237
97.19737244 137.06793213 392.19863892
97.22068787 137.07560730 392.19738770
97.20831299 137.06414795 392.20587158
158.28593445 165.64402771 372.03274536
158.27522278 165.63012695 372.03472900
158.29187012 165.63989258 372.03930664
158.27818298 165.62480164 372.04595947
150.82968140 163.42857361 371.53363037
150.81813049 163.41635132 371.53668213
150.83593750 163.42810059 371.53692627
150.82148743 163.41430664 371.54498291
118.54021454 112.77637482 422.40850830
118.53636169 112.76629639 422.39886475
118.55213928 112.77847290 422.41561890
118.54035950 112.77130890 422.40859985
165.96704102 117.30831146 414.11294556
165.95640564 117.29415131 414.11349487
165.97363281 117.30529022 414.11523438
165.95986938 117.29416656 414.11206055
