ply
format ascii 1.0
element vertex 2048
property float x
property float y
property float z
end_header
291.94998169 185.47700500 439.66900635
95.13100433 191.64801025 575.04901123
130.21301270 146.84399414 418.53698730
190.25399780 279.80700684 497.64300537
91.53099823 235.09599304 472.77200317
170.79299927 176.03300476 507.79699707
190.20600891 219.04699707 427.75500488
87.78200531 137.65899658 500.15597534
269.27700806 265.44500732 464.00100708
127.09500122 255.05599976 541.19000244
235.33099365 203.49699402 483.80398560
151.57299805 116.30200195 477.16400146
123.03900146 212.49600220 416.82800293
190.59899902 155.27099609 442.37701416
80.93699646 176.39700317 450.52798462
147.95599365 258.99600220 452.69998169
76.37500000 194.72500610 515.97100830
182.52400208 225.29501343 482.83401489
122.89699554 170.06100464 532.74603271
217.54800415 255.87001038 453.40698242
106.79800415 119.69100189 454.39099121
141.33900452 218.50999451 510.42700195
224.44400024 188.34300232 438.69299316
126.81099701 262.89199829 494.62399292
160.84800720 184.66400146 413.26998901
260.93899536 220.91899109 448.58300781
235.31100464 280.95901489 490.03500366
164.16200256 119.45600128 433.99398804
93.74600220 235.45500183 519.39703369
127.19799805 209.95399475 552.37194824
197.62800598 183.62799072 474.82699585
221.07600403 241.32099915 497.90701294
164.28599548 254.97698975 519.81402588
130.25000000 138.19099426 506.34701538
83.38499451 158.01000977 535.44299316
175.66398621 148.60099792 477.97900391
106.87100220 177.16699219 420.85202026
153.74099731 196.61700439 480.84301758
113.56599426 243.13600159 442.95401001
155.32499695 231.26199341 422.10198975
91.61399841 210.48300171 442.57901001
75.12900543 169.39199829 487.25198364
182.88899231 265.25598145 460.54397583
90.51599884 215.80900574 548.91400146
253.15400696 236.87399292 479.18899536
165.82701111 150.64199829 418.49301147
77.90000153 204.72801208 482.94198608
223.52301025 223.22300720 443.85900879
94.50700378 148.72900391 435.81301880
114.78199768 114.48399353 487.16000366
290.28799438 239.40299988 457.41000366
148.35700989 193.10600281 531.33502197
258.43499756 185.79701233 439.50799561
158.09899902 272.85598755 493.21899414
86.76899719 141.81600952 467.44998169
104.51300049 134.99499512 527.69598389
189.73599243 184.91000366 429.96401978
136.94200134 110.81800079 449.58801270
111.62400055 235.41400146 562.85296631
190.34300232 241.14898682 508.98699951
228.35099792 177.03300476 467.40298462
102.93599701 166.31298828 559.10198975
207.07499695 213.02099609 496.09597778
174.17800903 246.51499939 439.46701050
245.38999939 245.59100342 451.71899414
171.54901123 217.69699097 508.70401001
82.73600006 185.47799683 544.91003418
144.25698853 164.91700745 513.77996826
210.45599365 275.30099487 477.18701172
288.69400024 212.22099304 448.72702026
177.59899902 128.58299255 457.11401367
140.96299744 270.86801147 519.40203857
134.02000427 175.56799316 413.82101440
122.92800140 255.76498413 467.81097412
242.00999451 270.44799805 464.39498901
214.60899353 267.54400635 503.34603882
153.36000061 146.22401428 494.39901733
101.44599915 248.10198975 494.28497314
253.54200745 199.51899719 463.20797729
129.54998779 230.15899658 532.11999512
112.11699677 254.75498962 519.26000977
114.27500153 130.68200684 431.93701172
120.28900146 184.80000305 553.50604248
198.42498779 238.93600464 441.55200195
85.90900421 227.43000793 496.24499512
196.96701050 208.43798828 469.81497192
167.34799194 210.01100159 415.60800171
76.15100098 166.65699768 512.98999023
139.33099365 124.70500183 429.12399292
136.63000488 243.57199097 432.41302490
238.11000061 256.64999390 487.83599854
106.62799835 213.07200623 571.60198975
203.61399841 182.16499329 449.98898315
102.81299591 243.16699219 540.72796631
177.01699829 202.12500000 487.60598755
217.27000427 185.70899963 488.89898682
241.67799377 205.84799194 443.80502319
186.31500244 164.97099304 463.34698486
145.55099487 202.50399780 411.18301392
103.54599762 201.02200317 424.76498413
143.39601135 264.41000366 475.11801147
144.24499512 242.53399658 518.85003662
160.73800659 112.17700195 456.09701538
107.34099579 122.74699402 508.07797241
181.45799255 137.02000427 431.14401245
162.13198853 196.88000488 512.64599609
80.14299774 199.18901062 460.65701294
208.49899292 203.45599365 431.89401245
179.21000671 170.25000000 487.34799194
81.94300079 213.29200745 527.93902588
185.57000732 262.73300171 514.00500488
107.29700470 224.67799377 431.41699219
137.09999084 120.31400299 494.09197998
275.03698730 171.85198975 445.84799194
271.05700684 232.17900085 466.29199219
176.89100647 170.00000000 418.27999878
105.01100159 151.93598938 542.14398193
95.99600220 127.28199005 482.42800903
128.88200378 110.70600128 470.61700439
235.48600769 227.44700623 488.77001953
172.16799927 250.23300171 499.85699463
109.94999695 155.19100952 421.73999023
272.79800415 195.13600159 453.83001709
143.05099487 213.23699951 537.30200195
166.46798706 268.52099609 474.12899780
119.37899780 148.85600281 521.49200439
97.25000000 231.21699524 449.01998901
146.69099426 158.80101013 414.23602295
163.15199280 234.07901001 518.94299316
83.09400177 155.36401367 451.73400879
89.72500610 189.72900391 437.54602051
252.70599365 216.29899597 475.05999756
74.33699799 189.92900085 496.59402466
189.46299744 187.31999207 492.83200073
161.37899780 273.82901001 512.93402100
79.27400208 209.47399902 502.79699707
76.72899628 182.01600647 470.11700439
166.30999756 129.44999695 474.97497559
90.40399933 168.56401062 434.91400146
200.10699463 276.07000732 514.38897705
81.30999756 149.87100220 484.58798218
121.32599640 190.62100220 413.44000244
191.01100159 221.15400696 504.01098633
187.09599304 273.98397827 477.58801270
266.09899902 246.78500366 454.21798706
253.55198669 258.78201294 476.16799927
155.18099976 134.19500732 423.00701904
84.78700256 217.14399719 466.51397705
128.76998901 253.74697876 449.39700317
93.64900208 133.31100464 450.16299438
85.79800415 145.64801025 520.69903564
178.87001038 191.86000061 415.74902344
78.22799683 161.08999634 469.40298462
105.76200104 247.55899048 475.58200073
136.01000977 225.99501038 420.58599854
184.42698669 146.29499817 459.07199097
146.75999451 257.13699341 531.26904297
198.59999084 255.81700134 452.75399780
125.66499329 234.71800232 550.43695068
174.98399353 231.90100098 427.74700928
241.63099670 225.02499390 448.30502319
77.53500366 177.42300415 528.81799316
235.86801147 188.70899963 454.95098877
159.77198792 161.72799683 503.13000488
156.47399902 208.48199463 499.20898438
90.14099884 198.15600586 558.35595703
155.02700806 244.88000488 434.72399902
134.09799194 193.93399048 545.12298584
167.13400269 259.45700073 450.72601318
205.97698975 251.15400696 503.93099976
111.71399689 195.04598999 567.62500000
186.81498718 173.15899658 444.97000122
219.72200012 173.22599792 449.02600098
89.00199890 178.49501038 560.71398926
206.11999512 231.46900940 503.71600342
153.66600037 178.76100159 520.70300293
202.85899353 197.20600891 486.06100464
206.58599854 222.72799683 438.00799561
191.50799561 165.60800171 427.85098267
174.62100220 270.18499756 501.59503174
225.50599670 240.60299683 448.84899902
78.72500610 152.83599854 502.07601929
272.39999390 213.98699951 460.26400757
284.69500732 257.65698242 460.02001953
217.78700256 281.24099731 492.30001831
142.70800781 270.23599243 501.83200073
166.56999207 188.27299500 490.70098877
228.40798950 275.08801270 475.26898193
121.49199677 116.87100220 444.94000244
121.44000244 234.28399658 429.81900024
93.33100128 229.17098999 538.13500977
258.54998779 203.23899841 443.66699219
277.97897339 228.64900208 451.16799927
225.42298889 205.28300476 439.06799316
125.80500793 264.05999756 522.59899902
118.24099731 132.12800598 518.30297852
137.60699463 176.31300354 527.47998047
193.89300537 200.14399719 424.20199585
210.94299316 178.91999817 465.79000854
149.80099487 131.03399658 488.43801880
121.89599609 117.29199982 501.93798828
151.49299622 207.45399475 523.60198975
255.28498840 259.03601074 456.79299927
198.83100891 267.99700928 464.00399780
112.11600494 169.01499939 545.22503662
221.13899231 224.02000427 496.21200562
82.94200134 201.28900146 540.19396973
95.53299713 127.13499451 465.31997681
106.81299591 244.93099976 459.39801025
150.88800049 112.37099457 441.23901367
264.88998413 248.53199768 470.49099731
239.66799927 194.29899597 469.93701172
159.90600586 168.41400146 413.48202515
84.16199493 222.75500488 514.88500977
99.00599670 228.44700623 555.33496094
181.27999878 153.15299988 425.77499390
89.74099731 162.07598877 550.71398926
219.25898743 203.83299255 490.68499756
115.11199951 249.05300903 550.18994141
248.60400391 274.25598145 478.61499023
112.26899719 256.34899902 502.90298462
95.17599487 131.55500793 513.88696289
116.00099945 255.90499878 484.78100586
120.05799866 166.35600281 416.09298706
128.54998779 246.52000427 527.68701172
195.60099792 233.75399780 479.29000854
133.56399536 153.38400269 511.17004395
150.22900391 216.83900452 416.31799316
101.87699890 177.54399109 570.33801270
235.35501099 259.05599976 455.48400879
146.10700989 109.50099945 463.91601562
227.94599915 267.50601196 493.87402344
192.25299072 208.26399231 493.49902344
230.34100342 186.79200745 480.11700439
84.23400116 221.94898987 481.61898804
169.29400635 156.26100159 490.04598999
116.91399384 218.87899780 561.33905029
219.32899475 267.57400513 463.53097534
185.50700378 198.58000183 475.10098267
110.35100555 117.04399872 469.14700317
203.26499939 189.66198730 436.56799316
176.61898804 234.75900269 511.35198975
133.24299622 222.40299988 544.79699707
174.62899780 273.04501343 486.29400635
155.72099304 224.02000427 510.47702026
133.55900574 232.32200623 515.83599854
164.26699829 141.93899536 484.90301514
183.84599304 253.49101257 448.36999512
274.41400146 185.96998596 441.21099854
233.94000244 242.19200134 489.48999023
157.66101074 263.42800903 463.00302124
181.83399963 206.89999390 418.89398193
190.62300110 223.04199219 470.39801025
185.30699158 140.46299744 445.53198242
190.72000122 178.96301270 457.88699341
129.59500122 260.99200439 480.39300537
274.85000610 208.44000244 445.97698975
177.25199890 125.84100342 442.79901123
142.94900513 186.70199585 411.10198975
74.85300446 181.55400085 510.03897095
184.04998779 174.44599915 474.33200073
99.43299866 243.10700989 508.47201538
98.18699646 127.30400085 497.80599976
112.81199646 250.79699707 533.17199707
128.77799988 180.96701050 540.20001221
140.88598633 137.45098877 421.14700317
253.52600098 233.67900085 451.27099609
287.31900024 197.30900574 446.41500854
245.47900391 189.93400574 444.33200073
105.64199829 141.94599915 429.81799316
155.93899536 268.38699341 525.03594971
278.76699829 245.38500977 463.88998413
131.31900024 266.55398560 509.40002441
204.82798767 280.56298828 497.95898438
213.75399780 234.16200256 444.28598022
81.35599518 170.28999329 542.18402100
136.94499207 220.59400940 524.85699463
128.30400085 132.75698853 425.88601685
130.34300232 112.21600342 484.49002075
220.50100708 255.28401184 496.90399170
136.03100586 258.78799438 463.99899292
126.57399750 160.76199341 522.65698242
186.80799866 231.85299683 435.14300537
174.79800415 188.03698730 501.97900391
173.15499878 191.39799500 478.86801147
200.29899597 262.94198608 508.59301758
93.85699463 145.45899963 537.06201172
96.03199768 211.27799988 562.85400391
146.44099426 154.17500305 503.38696289
185.92800903 277.31100464 510.51699829
100.07499695 164.61700439 425.93499756
103.64899445 245.13000488 524.61804199
228.73599243 213.93699646 490.83200073
118.90299988 113.51699829 459.02499390
132.02799988 200.45199585 411.66799927
159.00099182 199.32800293 413.75299072
76.01799774 191.29499817 481.14300537
98.35799408 185.85299683 427.08798218
175.91099548 219.15400696 420.95898438
140.97399902 140.02198792 498.17599487
104.94100189 127.94199371 441.42800903
114.70300293 159.22500610 532.53100586
89.97000122 228.40798950 460.96200562
133.19400024 160.10600281 413.94699097
167.15599060 120.18699646 464.95397949
85.29499817 198.49200439 446.89300537
102.44000244 202.39399719 578.78100586
168.61698914 135.39700317 423.87701416
94.39800262 240.97500610 485.26199341
257.82800293 191.88200378 453.01397705
175.96200562 209.64999390 498.68200684
263.40499878 221.34199524 468.73199463
163.83799744 201.43499756 489.99398804
176.16699219 137.19000244 470.25000000
180.63000488 161.52099609 477.29302979
85.03299713 210.51300049 454.97302246
178.91099548 249.19599915 511.27200317
144.70799255 268.50598145 487.64398193
78.97800446 193.63200378 530.21997070
118.48500061 204.52099609 561.46801758
255.60700989 271.01901245 467.96600342
219.76100159 279.46697998 505.30798340
127.52099609 122.07800293 434.54699707
86.50899506 138.33700562 481.34100342
219.25500488 176.52499390 476.74099731
149.74600220 206.09700012 510.11199951
242.30900574 214.42300415 482.58999634
76.16799927 166.33300781 499.75100708
135.91699219 212.56500244 413.77197266
108.76799774 189.81399536 419.37100220
136.11199951 264.14199829 533.03698730
117.09100342 144.51600647 422.22799683
171.38400269 165.75999451 499.39199829
150.61199951 147.17799377 418.04800415
167.51701355 116.53900146 446.09899902
79.41999817 159.01699829 523.33599854
210.03300476 247.02499390 448.10400391
108.47200012 212.77099609 424.62301636
117.45800018 250.62998962 455.39297485
117.42099762 223.51600647 423.83398438
155.25999451 247.22599792 524.20001221
247.92001343 249.32099915 482.44799805
97.91500092 222.37699890 439.60101318
105.30000305 225.69898987 567.89001465
145.96398926 251.14100647 440.89001465
98.67800140 210.19799805 432.14898682
165.16000366 184.37799072 515.30700684
111.25800323 146.24198914 530.70495605
213.64399719 179.58599854 440.09201050
191.23800659 208.54499817 480.95599365
168.63099670 260.31100464 506.25598145
110.92399597 181.76499939 562.92401123
144.57798767 236.39599609 425.66601562
237.79800415 269.41998291 486.17102051
142.90299988 201.02299500 539.44201660
164.24499512 222.72399902 418.75201416
125.21399689 246.52899170 439.98400879
260.34799194 209.68000793 465.07901001
78.23999786 206.87899780 517.30200195
214.27400208 212.48500061 438.00900269
266.09500122 231.95999146 451.36099243
152.48200989 121.05099487 430.52301025
165.70300293 239.34100342 430.71899414
148.29699707 172.32899475 413.62500000
160.18000793 252.87899780 442.41699219
139.29299927 186.81199646 536.65100098
192.37699890 253.67399597 508.59802246
90.66899872 220.70300293 451.38800049
237.77999878 236.58000183 448.49398804
157.39999390 190.53999329 522.38800049
80.12799835 165.87199402 458.37899780
246.80499268 205.67199707 474.86599731
146.79299927 231.92900085 512.46295166
88.37500000 225.26499939 527.82098389
155.44799805 170.22700500 512.32897949
89.00199890 145.06300354 445.91702271
170.82501221 266.86599731 463.02899170
131.38699341 126.83899689 502.56503296
106.10300446 241.21299744 552.11596680
154.46299744 267.99499512 478.08001709
117.76399994 179.05200195 416.19000244
79.70600128 186.47099304 456.91799927
105.73699951 120.44699860 479.67800903
165.72000122 197.41900635 501.09295654
179.87300110 179.31399536 495.71801758
200.85301208 214.99099731 430.94598389
184.93301392 242.15600586 441.71398926
121.47500610 154.90899658 418.72000122
81.16699982 216.05200195 491.37500000
289.84201050 227.85699463 454.99600220
235.03099060 196.47799683 441.18499756
97.24800110 237.50700378 458.94400024
273.20001221 255.64599609 458.90100098
113.78099823 200.34399414 418.52502441
167.87199402 244.47000122 516.17095947
182.59201050 181.96200562 420.68899536
201.35099792 277.04199219 484.25701904
246.94499207 225.07398987 481.73400879
139.90199280 115.47100067 438.92498779
125.96400452 240.45899963 537.28997803
219.33999634 172.39500427 461.04800415
124.86100006 197.50199890 554.72796631
279.39999390 223.15199280 461.72698975
92.63499451 235.85798645 500.51303101
106.55300140 127.54399872 518.59197998
249.47000122 216.85800171 445.94699097
208.49198914 263.46798706 459.58502197
275.21600342 239.72799683 453.64999390
149.22499084 108.52199554 451.98501587
95.13600159 198.63900757 432.28997803
207.83799744 185.89199829 482.26498413
156.88299561 113.21400452 467.41699219
263.64898682 200.87599182 457.87100220
228.20100403 180.89300537 447.73800659
171.55200195 180.58100891 414.18902588
235.76899719 215.69299316 443.41598511
191.43000793 191.05300903 481.44000244
74.53700256 180.76800537 486.00900269
261.74301147 231.53900146 473.80099487
185.11100769 174.25300598 431.76300049
267.19299316 195.76300049 443.08297729
155.25099182 187.23100281 489.50000000
108.76899719 234.32600403 437.35598755
94.23100281 152.53700256 546.36596680
120.43499756 261.63000488 508.74603271
188.25100708 159.49900818 452.63800049
173.38800049 125.82300568 432.14300537
95.36299896 201.75201416 569.97399902
150.11399841 273.60998535 512.04901123
186.71501160 146.12199402 435.29098511
132.31100464 109.80399323 459.89297485
83.68399811 166.77600098 445.29797363
87.56200409 219.06300354 538.52703857
178.35499573 270.15701294 470.73098755
88.16000366 157.12100220 439.81399536
193.84199524 181.49699402 442.18099976
178.86000061 186.92399597 487.52499390
234.05200195 247.43199158 451.24301147
213.62599182 192.43299866 433.39199829
77.46200562 194.28199768 470.46398926
180.30500793 224.21101379 506.36703491
172.38200378 159.65199280 418.39700317
125.25899506 245.41799927 547.48699951
194.27398682 231.76499939 504.14199829
108.55200195 118.40800476 495.46701050
105.11899567 161.28500366 549.46099854
75.13500214 197.47999573 505.30899048
244.41499329 193.69999695 460.01101685
282.44799805 187.43699646 448.57000732
141.15400696 112.86699677 482.61199951
124.92700195 220.63800049 553.32897949
123.49499512 141.38999939 514.36700439
78.14600372 158.76400757 490.16299438
88.04900360 205.15100098 549.38299561
104.42200470 239.39900208 447.98800659
243.48999023 236.72700500 484.24099731
283.20300293 178.99299622 439.93301392
137.07199097 252.55799866 533.19903564
120.32900238 258.27301025 530.88098145
170.13899231 199.73599243 413.63299561
194.34500122 247.68899536 447.00598145
79.76000214 205.06900024 469.73199463
196.47000122 227.08200073 434.18099976
200.84700012 240.79200745 506.42401123
121.65599823 124.06300354 510.35498047
184.06001282 213.36199951 487.39199829
93.71800232 139.77099609 527.91796875
73.93199921 177.37100220 500.16302490
88.40299988 179.04899597 437.72900391
157.22100830 157.49398804 416.00601196
82.99499512 146.61300659 509.74099731
157.72200012 127.75899506 481.22299194
113.24100494 176.18800354 554.05401611
86.93000031 187.26699829 554.90496826
224.98799133 195.86000061 486.37802124
175.50900269 143.78100586 425.37899780
267.28201294 184.52000427 449.03900146
82.03999329 149.88200378 462.31799316
165.42098999 275.51498413 500.78201294
131.50698853 188.85398865 410.83401489
90.66699982 132.86801147 473.20397949
77.75000000 156.14399719 512.64001465
118.87400055 228.57800293 557.49395752
208.48500061 279.35000610 508.75799561
140.25500488 149.39500427 416.26400757
101.66400146 151.83799744 427.44201660
162.59999084 190.82400513 481.16000366
134.74600220 204.32800293 547.53295898
121.14099884 112.49900055 477.53900146
229.77600098 268.93801880 463.34500122
188.43699646 190.71299744 420.38400269
76.86500549 161.12800598 479.99798584
217.51800537 214.01501465 495.42001343
145.22700500 267.83401489 529.33599854
239.26599121 278.65499878 480.57199097
149.74400330 215.02099609 503.90600586
96.81999969 237.41899109 529.23602295
228.33499146 279.08599854 499.28097534
186.99600220 181.60800171 482.33300781
84.90399933 177.19900513 550.87695312
135.75799561 168.27000427 521.09997559
79.03099823 166.56098938 530.52398682
133.60301208 235.42700195 426.68701172
228.78298950 233.97099304 493.32101440
202.38900757 181.75799561 460.61099243
278.82299805 217.71800232 448.43600464
202.28900146 220.41999817 501.59503174
111.78500366 121.05599976 445.38699341
225.44700623 280.44097900 485.36102295
76.78599548 171.14900208 471.41598511
91.05200195 135.22599792 460.00399780
182.32299805 152.45700073 467.11297607
106.27899933 187.77301025 572.56903076
212.67700195 194.95100403 489.10702515
185.47399902 277.20700073 488.89300537
244.75700378 263.41098022 481.52200317
145.77500916 261.97000122 465.39700317
151.36100769 192.62998962 411.14199829
177.14099121 268.57598877 511.41799927
96.63400269 174.08200073 427.92700195
93.81099701 169.95201111 563.66400146
280.08200073 235.37098694 462.26098633
81.87400055 145.56199646 495.61102295
134.71699524 250.27299500 440.09201050
84.35600281 186.55900574 445.63201904
77.00499725 202.16099548 492.78399658
127.82600403 236.55099487 524.35302734
255.20799255 247.23599243 453.75100708
186.13900757 230.91600037 474.93600464
127.97300720 114.97299957 494.17401123
229.41300964 252.37500000 493.07598877
89.21399689 230.68200684 482.76098633
109.71900177 167.47399902 420.45599365
81.66699982 219.20100403 501.53601074
198.02799988 272.54800415 472.93798828
197.88398743 162.72399902 435.05599976
145.94000244 121.83900452 487.25100708
153.34700012 273.55798340 502.54898071
165.13900757 231.20700073 424.18600464
165.59100342 265.11801147 515.54199219
77.41100311 185.87599182 523.45599365
187.67500305 271.33499146 467.30102539
169.01499939 227.77999878 513.88195801
158.99200439 154.18000793 496.49398804
193.12300110 263.06900024 457.49301147
112.73799896 250.18598938 465.41900635
244.87001038 261.59899902 456.70501709
277.67300415 197.24699402 444.08898926
143.69999695 212.13099670 517.64294434
165.50099182 210.62399292 502.64697266
256.18600464 248.38499451 475.17898560
210.20500183 269.11999512 467.48300171
145.47500610 173.31700134 520.01800537
197.88700867 279.97500610 504.92901611
140.69099426 129.42199707 495.17898560
163.09599304 127.81800079 426.87402344
275.55099487 205.24400330 455.26098633
89.36700439 139.23100281 511.06399536
78.32500458 176.89900208 461.87600708
131.63800049 232.10699463 541.52502441
97.04499817 139.47900391 437.91699219
85.03100586 150.08399963 529.42504883
192.66900635 269.67300415 514.34600830
198.78100586 187.25498962 486.71099854
98.58599854 236.12399292 546.06201172
187.65798950 217.02000427 477.60900879
82.89199829 148.09399414 473.86801147
155.94400024 208.59600830 413.71701050
119.47599792 239.71099854 556.09204102
181.84300232 162.43701172 422.84201050
204.73699951 194.93899536 428.50399780
92.46300507 131.81900024 491.33499146
261.11199951 262.65200806 471.38400269
100.61000061 127.21799469 453.18600464
89.17400360 230.34399414 507.73901367
120.88400269 177.92298889 544.97998047
76.68700409 176.85400391 519.15502930
84.93500519 196.00000000 548.40301514
174.29299927 253.78701782 446.68600464
91.03900146 185.82699585 566.72003174
136.58900452 222.80499268 534.27795410
79.22399902 184.84100342 535.91400146
212.11599731 176.52200317 453.96398926
113.90700531 252.70700073 475.42898560
98.72100067 220.77799988 562.87097168
266.20901489 212.67601013 445.96798706
79.88599396 203.95599365 526.95300293
146.38600159 227.97200012 420.84301758
156.66600037 256.53298950 526.11999512
113.77400208 138.82099915 525.16802979
211.82400513 223.44400024 498.42501831
170.09001160 118.84800720 455.04501343
118.03500366 259.12100220 495.76300049
118.05599976 122.60399628 438.08901978
127.10799408 222.49198914 420.39199829
182.15901184 136.71800232 454.97998047
184.09599304 214.66000366 498.31100464
178.04299927 237.95899963 434.47802734
210.47300720 278.70800781 486.53900146
232.91600037 188.18501282 467.12197876
208.71501160 203.56700134 490.07498169
87.11499786 142.59399414 455.44699097
173.54998779 128.45700073 467.52301025
147.36599731 128.36700439 425.61001587
138.31500244 148.77600098 504.35501099
146.12500000 213.83799744 528.34497070
226.68499756 253.41400146 452.75000000
101.91299438 124.07399750 489.09500122
105.81800079 249.49499512 511.27099609
185.97898865 169.97900391 453.82101440
87.71499634 226.53100586 473.87500000
136.44500732 266.45300293 491.71502686
128.83999634 255.54901123 458.83499146
229.02099609 179.46000671 457.01901245
102.38800049 141.74899292 535.54101562
181.32301331 225.12100220 426.23001099
228.58999634 230.70399475 446.29602051
169.09800720 192.37699890 508.31298828
106.01599884 250.06398010 484.57901001
97.83200073 158.19799805 554.41497803
123.52000427 203.69799805 413.74798584
186.38899231 208.34199524 472.98498535
226.04798889 214.64399719 441.21499634
140.90899658 166.64099121 413.60400391
146.50799561 247.87800598 527.31799316
85.46099854 210.15199280 541.96502686
81.30899811 215.20700073 509.93103027
212.60200500 239.60400391 501.30599976
178.16000366 260.57199097 454.10299683
155.85200500 201.79800415 517.70996094
161.96099854 121.06599426 472.55001831
282.46600342 212.99700928 455.50900269
100.41500092 241.44900513 466.65798950
196.40800476 216.75199890 473.86599731
193.68299866 199.82699585 483.13000488
108.82999420 253.42300415 492.84698486
250.23800659 199.75799561 441.74502563
209.46200562 259.91299438 503.70401001
269.73901367 223.77200317 449.25698853
131.71400452 114.99199677 443.09197998
170.28300476 139.22200012 478.49700928
145.61599731 180.76199341 527.62500000
261.07098389 239.61399841 451.23898315
159.55300903 141.82501221 420.46298218
235.82200623 196.14300537 478.03100586
181.35699463 277.75100708 497.21398926
189.13200378 210.32899475 423.19299316
196.11000061 192.01399231 427.97698975
185.45899963 232.85800171 506.22802734
137.43400574 248.31900024 525.13098145
159.62500000 112.45500183 443.73300171
164.13299561 168.48699951 507.31997681
214.41499329 249.26300049 501.24102783
126.14299011 150.18199158 515.20196533
140.12500000 255.49900818 446.22702026
137.84899902 110.08799744 469.85998535
128.60900879 187.09201050 547.16900635
158.33100891 260.88601685 451.97601318
167.74200439 190.44200134 412.97097778
169.77900696 198.87800598 482.54000854
189.42100525 166.11500549 440.05700684
152.03199768 237.21400452 517.45202637
135.32200623 241.87100220 518.40802002
184.54800415 172.58900452 422.14099121
151.51600647 180.65499878 412.88400269
188.48399353 154.66600037 430.87500000
285.47702026 248.23200989 458.70199585
110.28599548 161.27899170 540.02795410
220.42399597 198.25999451 436.72000122
153.34899902 239.34300232 427.92401123
149.83299255 201.90200806 531.71301270
109.95700073 248.33399963 542.09204102
108.90299988 204.16000366 572.89794922
224.13200378 181.52000427 485.04598999
241.51100159 274.01998901 472.54400635
158.95300293 216.67500305 506.61300659
264.77200317 255.82901001 456.03799438
128.28999329 168.60101318 413.59201050
81.07900238 213.75199890 480.26599121
118.38899994 113.32300568 468.43798828
119.98400116 135.81599426 426.37500000
265.61599731 238.84899902 470.58999634
219.51800537 232.63600159 498.79699707
206.96899414 270.76599121 510.24697876
98.76499939 124.04700470 472.94500732
214.82600403 221.39898682 440.91201782
196.08299255 214.06201172 498.95300293
185.81999207 175.09700012 464.13000488
91.53500366 234.79199219 491.83200073
95.43299866 226.98199463 547.41101074
139.33099365 257.52600098 455.92401123
145.16499329 245.27299500 434.36898804
293.80300903 218.48100281 452.22299194
222.86700439 271.37301636 499.93301392
200.06098938 204.83599854 428.31600952
105.43000031 250.82099915 502.60900879
103.99500275 134.26699829 435.43197632
102.17499542 122.78400421 461.61099243
156.59899902 140.12399292 489.00698853
218.74000549 247.25100708 448.81500244
270.29998779 178.28099060 441.16500854
117.18099976 253.18699646 540.32299805
256.18698120 193.44299316 443.00900269
164.80099487 272.44500732 487.72100830
158.96800232 201.10900879 505.80603027
226.42100525 262.73901367 458.36401367
86.56899261 137.99299622 490.10400391
131.54100037 227.93800354 522.97802734
91.04900360 138.33700562 519.85198975
105.64099884 173.63600159 562.74798584
163.94799805 175.99398804 513.02703857
204.07701111 232.50601196 440.70700073
251.62600708 265.61001587 460.93801880
235.51499939 217.91400146 486.51300049
221.13099670 273.33700562 471.08001709
129.79100037 170.51600647 527.67095947
172.06600952 252.40200806 515.30401611
99.54299927 125.99100494 506.70397949
136.11100769 224.17399597 516.34399414
189.25898743 180.03498840 470.50799561
268.98699951 255.13101196 466.93701172
215.51400757 172.60900879 469.27099609
96.29399872 182.66999817 574.25305176
164.47999573 175.86599731 413.46600342
234.44099426 188.87298584 444.99099731
256.11099243 224.10200500 474.73202515
76.30400085 167.69799805 521.44201660
175.18099976 173.69300842 500.06402588
181.81799316 204.91500854 479.41400146
211.55500793 180.96299744 474.01800537
115.23199463 210.03698730 419.06802368
137.35400391 212.77398682 543.57397461
116.39499664 188.42199707 560.11700439
275.39797974 180.89700317 447.94000244
220.91999817 276.99499512 478.72399902
95.16799927 220.32398987 555.21295166
93.50399780 157.90499878 433.32800293
169.37600708 271.78601074 507.99798584
253.78399658 209.35299683 470.34899902
125.61100769 177.79199219 413.41900635
178.75399780 271.86001587 478.96002197
152.88899231 269.94897461 486.10202026
82.32199860 207.54499817 534.15002441
208.34599304 256.94900513 454.29598999
140.44799805 108.68599701 457.76998901
125.70999908 132.44799805 510.45401001
104.06700134 232.58599854 560.59197998
117.06399536 239.33500671 436.35601807
157.03399658 195.41500854 489.29101562
75.10499573 189.10699463 505.59802246
199.38301086 204.54199219 491.16500854
165.92199707 159.69499207 496.89297485
260.07000732 266.37500000 462.62500000
171.12899780 120.61000061 438.47500610
172.83299255 258.71099854 499.20401001
111.63700104 246.54499817 450.33300781
150.52899170 163.39399719 508.47601318
128.25199890 112.52500153 450.27499390
116.25499725 168.07499695 537.38702393
257.08499146 213.48600769 446.07800293
175.78601074 155.98100281 481.80700684
88.04199982 151.60800171 537.98004150
250.87699890 207.67800903 444.17398071
96.04599762 241.55099487 493.53201294
221.52400208 177.97799683 442.07400513
176.57400513 260.49600220 509.71102905
179.62100220 144.13900757 467.37899780
163.83000183 150.05700684 490.37100220
114.64700317 124.94000244 514.64099121
142.38099670 271.16299438 510.47598267
144.58799744 111.14999390 474.50701904
132.15600586 139.37600708 421.41900635
169.35699463 167.05900574 416.45300293
81.12000275 194.11900330 454.22000122
113.33000183 210.22200012 567.77600098
141.21699524 157.56799316 508.75997925
100.07300568 208.49600220 573.53698730
114.37100220 230.09500122 430.11099243
243.55499268 190.24200439 452.47500610
93.21299744 133.14599609 504.36096191
181.43699646 132.24699402 448.12701416
252.14799500 224.12200928 448.67300415
97.01900482 237.10099792 537.42895508
272.35098267 224.09098816 466.38800049
183.01998901 198.79899597 418.86999512
122.50500488 259.76699829 487.91302490
171.33801270 193.92100525 496.28002930
108.00399780 168.13800049 552.94799805
164.54200745 221.29699707 511.68399048
101.85099792 232.21499634 442.33502197
149.38800049 139.23600769 492.74099731
153.22299194 224.08999634 418.66799927
82.69699860 209.28099060 463.39398193
275.91299438 248.51399231 456.02398682
204.70100403 182.30400085 469.79901123
193.20399475 226.03001404 478.26300049
175.53298950 163.01699829 487.99301147
282.18701172 203.55400085 450.86300659
132.20700073 267.44500732 518.90301514
254.75698853 266.77099609 475.39700317
194.17401123 278.57501221 490.64700317
89.91300201 199.51799011 440.30200195
152.35200500 185.33000183 526.01495361
112.59600067 225.83599854 564.37805176
85.88899994 160.68499756 542.66204834
186.92399597 147.47500610 449.22998047
128.19500732 249.81700134 535.12402344
165.81500244 264.06698608 457.33300781
156.35499573 229.99299622 515.88500977
168.91198730 206.61999512 493.54602051
166.40299988 246.24600220 437.29598999
212.37100220 280.78799438 501.83700562
160.39698792 241.67401123 521.40600586
75.52099609 193.12100220 488.97601318
170.50201416 274.84701538 494.56399536
81.65599823 214.12100220 518.16796875
112.93099976 256.79299927 510.91497803
205.86000061 240.65199280 444.06900024
120.07299805 156.62899780 524.89300537
286.06701660 222.00900269 451.00997925
173.32499695 151.37199402 421.24301147
228.62799072 203.93200684 488.18002319
142.18400574 216.98098755 416.10101318
147.01899719 223.82899475 508.53298950
143.75500488 178.41300964 411.08099365
76.03300476 172.17900085 505.88201904
75.82200623 169.93499756 479.31997681
98.16999817 132.86100769 442.22399902
216.26699829 205.01899719 436.11099243
148.00399780 272.80200195 522.55895996
110.53800201 116.83000183 461.21002197
75.17299652 178.54299927 477.08700562
121.21099854 249.62399292 446.09698486
231.24099731 259.82901001 491.05999756
232.49499512 223.80200195 446.09298706
151.54699707 265.19201660 471.25698853
89.41899872 229.69000244 516.13494873
241.83599854 255.01298523 453.50097656
193.47799683 201.23500061 475.36798096
185.32699585 271.80099487 516.29296875
234.35301208 206.54200745 440.98098755
179.80900574 137.08401489 463.26199341
228.17500305 226.22099304 492.03100586
101.78399658 217.43699646 432.10198975
102.70700073 194.54499817 578.41601562
266.29702759 207.88600159 460.24899292
158.79499817 217.76899719 416.01199341
126.71199799 229.48999023 423.94598389
79.16799927 154.80299377 475.55599976
169.40599060 148.14500427 485.21398926
91.87000275 208.96099854 555.05596924
275.01800537 188.18800354 450.92098999
80.85900116 177.51699829 539.21801758
216.96099854 185.35700989 435.97601318
280.22998047 194.91900635 451.40499878
115.76599884 119.97299957 505.98001099
93.15100098 183.37200928 432.34597778
186.34599304 153.81799316 458.32101440
191.31700134 213.87701416 468.71099854
245.07600403 235.98100281 451.16799927
136.26800537 182.70700073 410.99600220
87.17299652 219.56098938 458.23999023
182.81100464 189.05799866 481.18200684
160.03300476 266.48199463 470.27902222
85.03199768 219.19299316 523.94702148
121.25199890 127.30200958 431.54498291
202.02299500 184.17898560 442.66400146
245.75201416 198.78999329 468.19400024
185.89498901 260.15499878 453.75399780
147.08100891 147.98300171 498.58700562
77.11800385 199.02600098 476.57498169
120.18500519 261.07901001 518.18499756
83.06500244 203.07000732 454.22802734
152.15100098 164.25000000 413.70901489
271.13900757 245.93000793 466.79498291
227.65000916 179.02000427 474.81600952
259.55398560 228.49301147 448.83901978
235.25399780 272.18099976 467.68200684
93.50500488 237.10600281 511.88201904
200.81800842 263.09799194 457.36199951
94.52600098 163.71099854 559.22503662
146.50500488 210.77198792 413.40600586
140.22399902 228.18099976 511.08599854
171.16000366 270.44699097 479.95300293
110.75399780 153.13699341 535.04595947
222.34599304 262.91201782 496.38900757
173.95899963 253.05200195 506.86801147
147.70300293 116.94000244 434.87500000
154.16101074 109.98699951 459.32199097
123.60399628 257.36401367 477.33700562
80.19400024 158.63500977 460.83099365
77.60400391 197.18099976 523.59497070
115.52799988 186.35499573 416.03198242
84.77999878 224.83999634 488.66598511
241.85000610 199.86199951 474.82897949
77.52200317 187.14399719 464.52502441
100.10600281 244.95700073 479.97799683
92.61000061 138.50698853 444.49099731
135.69200134 135.14999390 500.69497681
180.80699158 276.89599609 504.75598145
251.32798767 190.76800537 449.22000122
285.00598145 188.16799927 441.17599487
175.94799805 211.17700195 416.72799683
115.54799652 115.46599579 495.58499146
178.91000366 129.63800049 436.44500732
135.34100342 180.80400085 534.25994873
128.04899597 175.89799500 534.63897705
153.53800964 250.66900635 439.56198120
137.56700134 161.72698975 515.25097656
110.24600220 146.44400024 424.77600098
227.93099976 198.17199707 439.13598633
156.35900879 273.06802368 518.50897217
242.91899109 244.61799622 485.55599976
175.00999451 122.87500000 449.35299683
220.99800110 232.38800049 445.35299683
110.63999939 217.40100098 566.92303467
159.72999573 200.06300354 483.83200073
126.83400726 261.81301880 532.22796631
96.85500336 134.57701111 523.46600342
175.15400696 134.62699890 427.81201172
101.46099854 192.32299805 424.83999634
77.93399811 206.55499268 509.80502319
164.33499146 135.23599243 480.75900269
129.20500183 208.59700012 413.49899292
139.17599487 264.80999756 481.31298828
285.79397583 234.11799622 454.15802002
170.66099548 184.46800232 510.20700073
249.27999878 254.70599365 454.32299805
109.60199738 249.67601013 524.35400391
179.12001038 195.62800598 480.49600220
129.02400208 119.30799866 500.18798828
178.52600098 217.04199219 505.14602661
111.85900116 116.63199615 477.68200684
169.46600342 236.89700317 516.10498047
92.30899811 177.86100769 567.38000488
120.82099915 213.58599854 557.81298828
265.89901733 192.31800842 453.83001709
265.22201538 188.27999878 441.32098389
235.25599670 265.50799561 459.19000244
130.29600525 216.85400391 416.08398438
183.90400696 166.39900208 472.73199463
153.74400330 198.00000000 526.74798584
112.16600037 244.22299194 555.16497803
190.22999573 178.18499756 449.23098755
218.49299622 262.24200439 458.44400024
162.45600891 261.68899536 522.33795166
123.67700195 113.73899841 487.31100464
136.29199219 111.38299561 477.23999023
167.38499451 251.73899841 443.61801147
120.02400208 163.37600708 529.52496338
159.55400085 201.89500427 497.91299438
74.30899811 174.53999329 492.48400879
90.83999634 132.34999084 480.93399048
83.26999664 143.84100342 502.65301514
89.96500397 169.15699768 557.25299072
177.07699585 188.91899109 494.39300537
139.65800476 156.73098755 415.87200928
183.46099854 175.15599060 481.91299438
142.61299133 194.06298828 411.09402466
139.44599915 193.34700012 540.04003906
77.66899872 158.88301086 498.01400757
109.19400024 205.15100098 421.68798828
115.50000000 151.59899902 527.70501709
183.82099915 215.41799927 423.06799316
137.53700256 261.58499146 471.69799805
178.89100647 241.94200134 510.16198730
157.68200684 134.24099731 484.75701904
97.48600006 242.47200012 500.66400146
156.71400452 110.28199768 450.26599121
194.22599792 275.32501221 478.64300537
125.46600342 110.60099792 462.36499023
232.76800537 272.16601562 490.93698120
258.96298218 215.57099915 469.43099976
81.88600159 212.86700439 471.69198608
126.16099548 160.21501160 415.94400024
138.77099609 205.84100342 413.72601318
151.02000427 261.34197998 460.35900879
87.23699951 224.00799561 466.16400146
134.89801025 267.54901123 526.70001221
89.17699432 190.27299500 561.24597168
242.65399170 214.28700256 445.64599609
81.41500092 169.28898621 452.02899170
81.47899628 191.39199829 540.86602783
131.69000244 215.87599182 547.59899902
129.77500916 146.68099976 509.96798706
191.82899475 237.22499084 439.04000854
190.13899231 226.04699707 430.80599976
198.29699707 250.15100098 506.34701538
112.97200012 139.97200012 426.53201294
112.87800598 173.86799622 418.52301025
101.96700287 218.07899475 568.74902344
188.02400208 177.63499451 437.44998169
151.24699402 256.93197632 446.60601807
112.60499573 131.81999207 522.80096436
114.53499603 162.34899902 418.44100952
177.37300110 177.43299866 418.61099243
84.69799805 179.44799805 443.90499878
101.77799988 244.00498962 517.74401855
237.70500183 190.64399719 462.32699585
78.23199463 208.56399536 489.03399658
185.85699463 255.17498779 511.27600098
231.76899719 278.81301880 482.30902100
183.55599976 137.15800476 439.37600708
275.31701660 239.58200073 466.39999390
122.02700043 253.74000549 460.30899048
181.75700378 146.51000977 428.50500488
103.86499786 183.53100586 422.33398438
105.29599762 123.80400085 447.29000854
113.20700073 117.73999786 451.83102417
133.98500061 118.64800262 436.41000366
225.08700562 281.66299438 492.40100098
143.48599243 111.89299774 443.97698975
101.48400116 242.37098694 531.41101074
183.65701294 180.19000244 489.73199463
136.15299988 267.59799194 502.82598877
83.55099487 222.49600220 507.78198242
154.78601074 126.44100189 426.46200562
215.09500122 275.07098389 508.42098999
192.16500854 263.14898682 511.34002686
94.17299652 240.44700623 478.16299438
103.54299927 171.30300903 423.13900757
79.76800537 199.73500061 533.79797363
242.07200623 197.50199890 441.24697876
158.14399719 116.08499908 435.73400879
225.91101074 188.91200256 487.57800293
164.77200317 195.14399719 493.84399414
259.99502563 242.47900391 474.13900757
182.99700928 179.52600098 427.51199341
187.74400330 207.29899597 487.42898560
180.09500122 249.65499878 443.73699951
119.32600403 194.86500549 559.77600098
82.50799561 151.78700256 522.00402832
103.84000397 121.51599884 499.74798584
127.70099640 239.48001099 544.49304199
136.20899963 114.47499847 487.75500488
231.48300171 184.89299011 473.39199829
209.57598877 187.49900818 438.93798828
193.05000305 180.93499756 464.61099243
90.97400665 231.29699707 524.39398193
172.47801208 225.18299866 422.23901367
79.09099579 152.23098755 495.06301880
84.75899506 159.31600952 446.14099121
171.61299133 187.10600281 485.91900635
75.33200073 197.26300049 498.26898193
127.18999481 228.03700256 548.85998535
206.42399597 211.41200256 433.31301880
216.90000916 240.17199707 446.12301636
86.97499847 168.53199768 550.73699951
167.46800232 141.90499878 421.50000000
132.64900208 153.38999939 415.87899780
241.83599854 205.53399658 479.80200195
271.69998169 202.47801208 444.08898926
206.14099121 191.46699524 488.36599731
247.47599792 212.18598938 477.34298706
241.29199219 229.53300476 485.48498535
86.61000061 205.32701111 447.45498657
123.67200470 240.99501038 434.83297729
195.07600403 210.82400513 426.80902100
266.95901489 217.36499023 464.23901367
135.81199646 141.95199585 502.44702148
133.43299866 256.77999878 537.38500977
86.66100311 172.49099731 439.30899048
264.20501709 268.29400635 467.89199829
99.82900238 129.97799683 519.18695068
87.14699554 151.90699768 444.29400635
91.47900391 222.87100220 542.81799316
202.53199768 246.07699585 446.84799194
211.30999756 178.99200439 447.52499390
79.93099976 153.30000305 467.97698975
131.35600281 159.76199341 517.62902832
192.62899780 279.08398438 510.59402466
130.85900879 199.34100342 550.36901855
182.87399292 224.80900574 475.12500000
146.99000549 270.70599365 496.41000366
138.06800842 219.38900757 540.10998535
223.03498840 210.18399048 491.92398071
175.26899719 225.35800171 510.95999146
197.26200867 186.71501160 434.84698486
187.80299377 146.79100037 442.42199707
145.09700012 187.17999268 532.69000244
201.98699951 279.15798950 490.78598022
93.52199554 220.47799683 445.13000488
150.29800415 263.21701050 528.94799805
181.15499878 168.86000061 480.45001221
192.89599609 161.13800049 445.08801270
75.93700409 185.63699341 477.26800537
235.17900085 211.07499695 486.78601074
130.27799988 243.96400452 434.94900513
92.74300385 232.36199951 531.38800049
112.36499786 218.94599915 424.43402100
183.16300964 158.42500305 470.33599854
100.19599915 145.70599365 431.50201416
180.80200195 210.17498779 492.46902466
159.06498718 149.79598999 418.69598389
224.48899841 246.68499756 495.45098877
214.35700989 170.42100525 456.00198364
122.59700012 205.59500122 556.14501953
268.48199463 260.71102905 459.00198364
151.36801147 252.54800415 528.24902344
282.23101807 239.51800537 456.26300049
93.61299896 203.24101257 563.57098389
219.15699768 192.90499878 488.79299927
223.60198975 173.75000000 454.58798218
210.26701355 228.83099365 441.91198730
139.23100281 217.40199280 519.30895996
153.90800476 158.37399292 502.39901733
94.80699921 167.57600403 429.83401489
216.41899109 180.46699524 484.66900635
132.65800476 124.84099579 430.36300659
250.59500122 194.76200867 457.42098999
176.23100281 181.40600586 502.04199219
243.03900146 273.48300171 482.80297852
153.47500610 122.48799896 481.59899902
77.82699585 167.41000366 465.85900879
92.69300079 228.41699219 454.75900269
223.64300537 217.43099976 493.61499023
107.86899567 196.28599548 421.15399170
110.31600189 127.23399353 437.37200928
239.16099548 242.96699524 451.35302734
165.24200439 116.38499451 459.69097900
284.72900391 223.87400818 457.62197876
127.38099670 265.16799927 514.75103760
100.03299713 145.77099609 540.43701172
131.38400269 263.58499146 488.27401733
107.90299988 196.20401001 573.08502197
177.12600708 184.50500488 417.64501953
125.60600281 191.11000061 552.68499756
74.44499969 184.64300537 491.53302002
166.01799011 157.44000244 418.03100586
140.55999756 206.93600464 541.68304443
78.88899994 210.18800354 496.10400391
110.93099976 187.56300354 566.35900879
177.41999817 200.65798950 415.61999512
172.16200256 212.81999207 504.09799194
99.43199921 236.63800049 452.35501099
234.81900024 248.83399963 488.95999146
246.15899658 255.80099487 482.28500366
197.91400146 224.96501160 503.89898682
204.23999023 273.42901611 475.47399902
129.63500977 259.21499634 473.92498779
253.67199707 241.31600952 451.00097656
149.80999756 111.26100159 470.30300903
83.27500153 143.62500000 486.02301025
81.38899994 150.80400085 515.46899414
219.61100769 216.48800659 441.02999878
139.52000427 238.38099670 514.53002930
164.09300232 203.67399597 413.68200684
102.61900330 227.43099976 437.73498535
151.26199341 139.01499939 420.56201172
198.85200500 268.87597656 511.96002197
108.75800323 139.57699585 530.04901123
100.33699799 188.30700684 578.35797119
259.15100098 256.48098755 473.36599731
100.49299622 243.05999756 473.12997437
91.97399902 233.89799500 466.22601318
229.66099548 193.93099976 482.02999878
197.23500061 181.47100830 451.75799561
154.13800049 186.51499939 411.13400269
234.96299744 275.84399414 476.06399536
252.13700867 228.12199402 478.91900635
89.03399658 144.84600830 530.22497559
186.73800659 279.58999634 503.47799683
251.77601624 243.36500549 479.36199951
165.79699707 216.94000244 415.89700317
83.83300018 149.62300110 455.93600464
189.59799194 266.58999634 461.86898804
75.69699860 184.83099365 515.74096680
236.25000000 230.14399719 448.05801392
193.01199341 159.97200012 431.00000000
264.73001099 182.39399719 438.31802368
121.38099670 250.78999329 547.54797363
136.63700867 129.86099243 425.95300293
161.60499573 135.72299194 423.53698730
206.30499268 238.13598633 503.77798462
79.39100647 205.97599792 476.27899170
104.19700623 207.47799683 426.07098389
99.31399536 158.26199341 427.60501099
119.89399719 217.07299805 420.41500854
179.41899109 155.29200745 475.46099854
106.95500183 119.71800232 486.12799072
262.08999634 189.24499512 448.71499634
159.29299927 235.14999390 425.67102051
167.54199219 257.64199829 514.73199463
278.07000732 217.14498901 459.10000610
180.15299988 230.75898743 480.01000977
278.57299805 260.08499146 459.99099731
233.97399902 192.46701050 472.67401123
99.59799957 179.53799438 425.73999023
159.85099792 188.16099548 494.10501099
249.07200623 271.69299316 467.78100586
123.29599762 142.39099121 421.83102417
281.37399292 209.44400024 448.06997681
107.35300446 247.20799255 467.71801758
259.72698975 251.60899353 455.64801025
272.19000244 217.70300293 448.77697754
210.82200623 280.55999756 495.29299927
102.50999451 155.08699036 547.32397461
120.93099976 245.10299683 552.39599609
82.24300385 161.88398743 453.64300537
114.18199921 192.72300720 416.65802002
107.49399567 247.41500854 530.11401367
214.15400696 173.61000061 442.69100952
114.55299377 201.41600037 565.66601562
161.65199280 269.25900269 478.48400879
92.25899506 175.98699951 432.39099121
105.11000061 159.16900635 423.58999634
102.01899719 236.14700317 552.68902588
231.92700195 241.74099731 448.49700928
111.31800079 182.08700562 418.61099243
217.40699768 279.69198608 485.97698975
79.75199890 171.97599792 535.97399902
94.12500000 207.72700500 437.23999023
171.93501282 237.51899719 430.27801514
117.92399597 258.26800537 523.60101318
157.80599976 184.16699219 521.16796875
95.41200256 192.30599976 430.86401367
277.14300537 176.99400330 441.15298462
79.67399597 180.00599670 455.77999878
105.83099365 147.04600525 537.80499268
162.55299377 189.76499939 517.82202148
185.19400024 247.58399963 511.42501831
222.27899170 281.41400146 499.32199097
94.92199707 130.19099426 458.68499756
189.29000854 168.64700317 433.12698364
151.01799011 195.74099731 486.91601562
85.06699371 220.80198669 475.30499268
214.72099304 272.61798096 471.59399414
146.46199036 116.78299713 483.25299072
176.32899475 170.40699768 494.61401367
215.49501038 261.78802490 500.54598999
159.54699707 274.77999878 503.88699341
106.88700104 249.26799011 517.63098145
145.69799805 221.96299744 418.61297607
237.05198669 236.63400269 488.54199219
156.15699768 190.78999329 482.13699341
241.47599792 222.58999634 484.05398560
137.13900757 144.21499634 418.47900391
190.06900024 275.96499634 483.51498413
87.37400055 193.59899902 442.11798096
209.37399292 179.23800659 459.55999756
127.27099609 236.99600220 429.83300781
138.45401001 231.47801208 422.88101196
172.49700928 174.24499512 415.91900635
126.56999969 197.85299683 413.81399536
280.44097900 253.95700073 463.07800293
193.19898987 253.35099792 449.78799438
76.04199982 174.89199829 511.68698120
174.16600037 263.26199341 504.45800781
148.74600220 208.90800476 531.48400879
123.21299744 154.12400818 519.91302490
148.20599365 207.60600281 517.47900391
163.10099792 227.63099670 516.29101562
79.11299896 156.22100830 484.38598633
117.71599579 172.98300171 542.46600342
173.32899475 241.44900513 513.84899902
195.51499939 221.58999634 431.07699585
214.07000732 200.82199097 487.06500244
217.96000671 227.01899719 443.76599121
162.30799866 186.58900452 485.90600586
157.47399902 178.51499939 413.56399536
122.08300018 113.26599884 453.51599121
177.55999756 157.33799744 421.28500366
171.47999573 267.83300781 470.27700806
115.53399658 254.15899658 528.51800537
180.34901428 208.27700806 484.59698486
196.53799438 193.98300171 483.80499268
189.22200012 231.16000366 480.47702026
156.33699036 116.54499817 472.98101807
138.70399475 239.05000305 428.47601318
92.62000275 192.53900146 569.29699707
192.39900208 184.89999390 482.57800293
203.14100647 251.15498352 450.57800293
88.26799774 213.09300232 450.18701172
99.57099915 246.06401062 488.59799194
225.20298767 183.62100220 442.88598633
175.01100159 141.88499451 475.26300049
269.57601929 203.58100891 456.99700928
161.93699646 243.44099426 433.82702637
185.38400269 158.32800293 462.62698364
101.38700104 126.27799988 512.72796631
212.69400024 206.77299500 493.76699829
231.33300781 185.30599976 452.20700073
161.84799194 190.68899536 410.77301025
150.27200317 153.98500061 416.11297607
242.92599487 251.58500671 485.64700317
136.55099487 269.12399292 514.68402100
205.90600586 244.88499451 503.62597656
211.47100830 188.09700012 488.76300049
84.47200012 214.77000427 535.16101074
76.30500031 164.10900879 505.60803223
162.00000000 116.85100555 466.19400024
289.53399658 189.52499390 445.28298950
200.54400635 210.50801086 496.37899780
77.01600647 157.97300720 506.70599365
193.33900452 158.73500061 437.96200562
126.23199463 239.71499634 529.49298096
139.35800171 247.89700317 436.66397095
164.38500977 163.30300903 416.15301514
112.61799622 248.70100403 458.82299805
77.40999603 203.57800293 502.04299927
145.43099976 259.28698730 458.53201294
117.34400177 212.44500732 562.85296631
181.20899963 131.95899963 441.87200928
136.61900330 195.72000122 411.04000854
97.06199646 216.66300964 437.30599976
173.96099854 124.39499664 459.91799927
174.46699524 264.52197266 458.57598877
80.86799622 164.07499695 535.90795898
205.98399353 184.06201172 476.63598633
115.55899811 144.75500488 525.04199219
248.33999634 233.54299927 482.06100464
170.44000244 201.05500793 488.30200195
185.26400757 236.99699402 438.22698975
188.00000000 204.60798645 421.11599731
141.59700012 217.84399414 529.67199707
214.10598755 170.63400269 449.16497803
197.31100464 209.09799194 475.95401001
239.61499023 191.91799927 442.25500488
147.76599121 169.83898926 515.44897461
264.70501709 227.40499878 470.29598999
131.02699280 243.69999695 522.44696045
264.69400024 203.83299255 443.70401001
158.50099182 122.72500610 429.69598389
126.32599640 247.27499390 540.42297363
267.43502808 240.78099060 453.78900146
191.40901184 205.13400269 471.06298828
140.71800232 119.21100616 434.09298706
160.89599609 267.77600098 521.42401123
148.90800476 133.86399841 422.99200439
228.43598938 272.74298096 469.57000732
106.05400085 236.71499634 442.58300781
168.99099731 128.75599670 428.38800049
106.79800415 243.67100525 452.83099365
158.62399292 122.59899902 477.48898315
213.55700684 265.65701294 462.58999634
200.05198669 257.19601440 506.41299438
137.70500183 109.33200073 463.75900269
97.83399963 171.82501221 567.91699219
146.56700134 241.54600525 429.69400024
158.48399353 177.68701172 517.05200195
122.31100464 173.46499634 416.26199341
272.13497925 230.91999817 451.01400757
223.05000305 174.28498840 468.79699707
204.22900391 269.30801392 468.82699585
134.78300476 255.60400391 449.21801758
288.12200928 204.80599976 450.06799316
119.36499786 143.01599121 519.68200684
94.28700256 127.85600281 476.58602905
149.83299255 242.73001099 521.32000732
127.18899536 127.32399750 507.46798706
114.95000458 182.75999451 558.33300781
124.69599915 185.53799438 413.75601196
231.00000000 182.42999268 466.33200073
92.81300354 132.64900208 497.36898804
108.64099884 245.61099243 548.74200439
86.61199951 163.93899536 440.76998901
194.16799927 275.94900513 515.73400879
96.86299896 152.59201050 431.73699951
211.38000488 198.06799316 432.85400391
273.69897461 260.80899048 463.56698608
247.15800476 219.16600037 480.28298950
145.28800964 132.44900513 492.26901245
189.66198730 213.98599243 500.66601562
214.03199768 231.78898621 501.26303101
130.91500854 181.79098511 413.71200562
281.81698608 229.72999573 460.84100342
142.37600708 260.87701416 533.16699219
229.51899719 220.40798950 490.93301392
258.18600464 236.19100952 475.88101196
92.97599792 143.36199951 440.16702271
230.22801208 192.79000854 441.22399902
160.14500427 249.69799805 521.62597656
227.15100098 175.47200012 461.16500854
166.06399536 115.56800079 451.88998413
153.00700378 199.22399902 412.98400879
249.23300171 203.55700684 469.49301147
288.57202148 215.83799744 453.66900635
118.97000122 260.22900391 501.61898804
87.69900513 138.00500488 474.27697754
187.65899658 184.39898682 487.63201904
80.74499512 159.25300598 530.17297363
226.96200562 246.42999268 449.25000000
186.73199463 167.66700745 424.82699585
97.61000061 240.64500427 520.47698975
170.96200562 161.64300537 494.26400757
144.44099426 145.96499634 418.86401367
248.37001038 228.78298950 448.52099609
254.06799316 273.68399048 473.11599731
236.06399536 263.88800049 487.70999146
148.95500183 233.00999451 423.35998535
195.24400330 271.23001099 467.79800415
176.17100525 274.96401978 492.63598633
177.17201233 272.35000610 506.77001953
275.17898560 191.59500122 443.10699463
79.65999603 171.73699951 457.28497314
205.97299194 266.08099365 506.66397095
229.08900452 240.41700745 492.49301147
83.55999756 221.94198608 496.03997803
261.54501343 260.21200562 458.48901367
100.36700439 226.10899353 560.74902344
178.04199219 162.06100464 482.66198730
153.64100647 205.78199768 503.71496582
130.27999878 257.26101685 464.41299438
256.75698853 204.11399841 465.23498535
106.60600281 179.05099487 566.01300049
170.98799133 242.81199646 435.64297485
186.62998962 160.64100647 425.90798950
194.37199402 237.73699951 506.21997070
121.48900604 114.99199677 495.49002075
102.99900055 121.49699402 467.37097168
118.00099945 203.83399963 415.98999023
96.89199829 127.72600555 488.29901123
162.51300049 207.03199768 497.36599731
176.69799805 267.71200562 463.51199341
77.29299927 161.50599670 518.36596680
129.07099915 252.01699829 443.71499634
101.84600067 241.18899536 458.12799072
171.05400085 132.55799866 473.19799805
250.02398682 264.62799072 478.27801514
126.90100098 203.38099670 552.70397949
108.73500061 164.13499451 545.35101318
194.38398743 242.72500610 443.69097900
121.32599640 149.09799194 419.93002319
232.14399719 277.31100464 495.08700562
188.35000610 224.64700317 481.38699341
187.87998962 162.91900635 458.00302124
85.41099548 225.68099976 501.88897705
76.34300232 199.16500854 512.04199219
127.00399780 117.54499817 440.55300903
118.15000153 253.21701050 465.39801025
74.54699707 184.52699280 501.87896729
186.76899719 210.24798584 494.55099487
119.01000214 243.76800537 439.77297974
208.74800110 216.09500122 436.10198975
185.51400757 223.70399475 503.59399414
92.62000275 197.58200073 566.19604492
79.06900024 194.66699219 464.32199097
163.10400391 265.17501831 465.39398193
182.97799683 188.82400513 418.72799683
205.40499878 207.73999023 492.63800049
167.26499939 125.29000854 470.89401245
115.00199890 152.25599670 420.89501953
198.96600342 182.27299500 468.40399170
81.51800537 188.21899414 451.58099365
250.57899475 193.36099243 441.17700195
213.95799255 174.72100830 461.68899536
239.72799683 248.97299194 451.67602539
264.45999146 182.04299927 444.19198608
164.06401062 196.31999207 413.75000000
127.72199249 127.84700012 429.25500488
77.84799957 201.45800781 519.57000732
101.20899963 123.91799927 483.26300049
95.54799652 239.66899109 472.50399780
96.28199768 206.92900085 567.35498047
166.31999207 215.89698792 506.73400879
166.96600342 123.63600159 430.97399902
185.76399231 209.26199341 478.96899414
146.27299500 197.18299866 534.99401855
274.98400879 250.28198242 466.00299072
255.19499207 218.67201233 448.03399658
201.35700989 228.19200134 437.20700073
147.15499878 267.60299683 482.40399170
184.38800049 240.33999634 508.94897461
97.09700012 227.36099243 444.62002563
77.10800171 171.51400757 525.79602051
152.11500549 153.39900208 499.91299438
86.62500000 193.15899658 553.22100830
174.29299927 206.66099548 490.08300781
241.28800964 266.55502319 460.10400391
134.74699402 185.99299622 540.21697998
204.66799927 266.45202637 462.82800293
116.48799896 232.92700195 560.81097412
80.92100525 213.47099304 486.07800293
89.68800354 137.62300110 453.85299683
118.11699677 255.82701111 478.52001953
75.01100159 175.18000793 484.45800781
192.25700378 194.57800293 423.78802490
260.26400757 208.95600891 444.28900146
90.33100128 148.83200073 440.52197266
182.54699707 230.28500366 431.51199341
191.76701355 182.80300903 434.98699951
122.82399750 252.65899658 454.46701050
133.90000916 227.49499512 538.81402588
89.48300171 232.50801086 496.75802612
269.13500977 207.49600220 446.30499268
276.16400146 227.62599182 463.82098389
130.54100037 110.88899994 476.68798828
200.02398682 199.04400635 428.06100464
267.00299072 261.43597412 467.50598145
267.89797974 198.21499634 453.71499634
87.91200256 221.27799988 533.19195557
203.63500977 280.03900146 505.57797241
97.83100128 199.56300354 576.73596191
85.06600189 165.85198975 545.11395264
202.76100159 220.36900330 434.39199829
164.90599060 170.81399536 416.21398926
158.39601135 165.13400269 507.57498169
157.07899475 193.92199707 410.90499878
210.36599731 254.30000305 501.91802979
160.14199829 145.63000488 490.26400757
182.12400818 274.39001465 482.89001465
112.20700073 171.89900208 550.34796143
99.74700165 205.25900269 429.39300537
165.08198547 116.44799805 438.81402588
120.06900024 255.52999878 473.11401367
84.64600372 145.05999756 460.56802368
75.51900482 190.17300415 511.23498535
76.60400391 166.39601135 474.64599609
221.75000000 209.69801331 438.86102295
157.07699585 235.42300415 519.52496338
276.37500000 222.76000977 449.67300415
152.08599854 271.59698486 493.92898560
82.91400146 172.26300049 446.78399658
84.94000244 143.41799927 476.48098755
126.29100800 151.79600525 418.70800781
93.21199799 232.94400024 459.62399292
191.19499207 257.87899780 452.67700195
103.68800354 212.76199341 428.23400879
158.80999756 225.24600220 419.21200562
169.22799683 169.78199768 505.03897095
140.37400818 268.47900391 495.35900879
100.08600616 138.61300659 531.34399414
186.50500488 246.50099182 445.08499146
138.81700134 221.19400024 417.99499512
153.05599976 128.16000366 484.47998047
85.13800049 150.42401123 449.74700928
127.44699097 215.63099670 551.89105225
145.54600525 256.45898438 447.71298218
181.14599609 185.20500183 492.92199707
127.40999603 235.14500427 535.81201172
115.47499847 168.53100586 418.69500732
106.60500336 151.08700562 424.70397949
130.42399597 264.72500610 528.81298828
84.24499512 189.26799011 548.88598633
219.72200012 248.26399231 498.13397217
123.95499420 175.47599792 538.57098389
93.84999847 128.25299072 470.64001465
188.84100342 156.13700867 447.71798706
113.77600098 256.46099854 493.09097290
224.22200012 176.46600342 447.76300049
123.78899384 257.63299561 537.34704590
198.92500305 233.20199585 438.40399170
192.27099609 229.59199524 473.93200684
100.11900330 150.39199829 545.20098877
190.48699951 196.91999817 477.53302002
102.30200195 240.88000488 545.89898682
105.33399963 209.09500122 575.58398438
137.71099854 113.19200134 443.63598633
171.09700012 216.79100037 417.91497803
195.96299744 279.82501221 495.87802124
141.42399597 119.75800323 489.97000122
149.13700867 266.63000488 476.70700073
173.37701416 188.15399170 415.46697998
153.35400391 218.43499756 506.62500000
221.07699585 192.64300537 437.01800537
132.01600647 250.92100525 531.09503174
188.06700134 198.80099487 421.43099976
133.04600525 176.44799805 531.47399902
180.29600525 236.24800110 507.33398438
112.55899811 118.66299438 501.52499390
114.70499420 239.52999878 559.09197998
247.15499878 274.99600220 473.21798706
172.40199280 275.36599731 501.66897583
277.13201904 211.24800110 456.01998901
82.97599792 174.53399658 545.51898193
285.29000854 242.88400269 460.46798706
187.64500427 218.27999878 470.84500122
185.27999878 144.22599792 453.52798462
241.56700134 231.94999695 448.50201416
94.05599976 237.50599670 506.29199219
94.29500580 215.35800171 557.71502686
231.38800049 183.26300049 460.42697144
195.57499695 276.82598877 484.24597168
79.57500458 208.45199585 522.52899170
126.64399719 264.12002563 507.46600342
189.12899780 165.03199768 446.54901123
181.61999512 274.12799072 512.78302002
243.64500427 220.27699280 446.10198975
152.84100342 260.79800415 454.77899170
214.32901001 218.57101440 496.08901978
193.15100098 216.72500610 478.65499878
103.58399963 131.23600769 523.14398193
98.19699860 166.49598694 563.29400635
260.28900146 244.89698792 453.86099243
124.40799713 183.47599792 547.92700195
177.09001160 132.19900513 465.35400391
228.87599182 186.33300781 446.65399170
261.38101196 192.67199707 441.10699463
146.77398682 121.11599731 431.28799438
82.40900421 219.52400208 486.30398560
123.34000397 225.98298645 553.17004395
194.09300232 202.28100586 488.11901855
269.74298096 178.87500000 446.67700195
177.99600220 127.26199341 451.04797363
111.09399414 253.46699524 485.78302002
180.83000183 259.90701294 513.28802490
86.39600372 183.83300781 440.93002319
171.63999939 144.44200134 479.86401367
146.58799744 271.69900513 505.53799438
228.98100281 258.18399048 454.45401001
169.87199402 255.11801147 502.24499512
256.50500488 229.99600220 476.04901123
108.83300018 248.02899170 536.66802979
101.79699707 183.32600403 574.19000244
133.46099854 256.03900146 455.81701660
259.21801758 198.14300537 441.60397339
182.35400391 270.02798462 466.50299072
207.29899597 224.15399170 501.53601074
238.18301392 210.14100647 443.82901001
195.15599060 259.38400269 508.60000610
120.08300018 180.46099854 550.08203125
123.37200165 120.81700134 506.21902466
220.05699158 198.36199951 486.46398926
138.62699890 172.65400696 412.89099121
119.49499512 195.44500732 415.42800903
142.54299927 214.37600708 524.16998291
99.76699829 212.56600952 569.81701660
140.24501038 134.65798950 496.87100220
259.05200195 268.92199707 472.67700195
119.09200287 137.56098938 518.78100586
122.02899933 260.80099487 526.28100586
80.70500183 148.76100159 491.09201050
230.78199768 236.36199951 448.09402466
115.62900543 196.38900757 563.67498779
279.26998901 171.82099915 442.31997681
238.75799561 189.22700500 448.37899780
125.16400146 111.99399567 482.31301880
108.54000092 238.35299683 559.38299561
95.41799927 179.39500427 429.30297852
167.05400085 250.49099731 516.46899414
107.43699646 230.33300781 565.86895752
142.37300110 254.39799500 533.10601807
258.23797607 194.86799622 457.60000610
88.37100220 183.94400024 560.74395752
207.29600525 183.07299805 443.69198608
83.22000122 146.34400940 480.84802246
185.79000854 172.48800659 458.69299316
208.74600220 200.05300903 485.86599731
129.04399109 234.37400818 545.97198486
237.98699951 202.43699646 441.02798462
245.35000610 268.83898926 481.03601074
129.65299988 154.37699890 514.91101074
221.50099182 252.26599121 451.40499878
146.22999573 210.27598572 509.71197510
235.24899292 252.40998840 453.18499756
280.82699585 179.76200867 444.79998779
184.76300049 141.01800537 435.27600098
133.23498535 225.16200256 530.66699219
90.86299896 204.98800659 440.65698242
188.85198975 251.14100647 447.33102417
74.89799500 186.14999390 485.16198730
144.55000305 126.04799652 490.43597412
141.74301147 168.45500183 517.08898926
133.01300049 229.99499512 422.77600098
82.35199738 181.50801086 449.24899292
77.46600342 175.54501343 468.25900269
84.25299835 191.88200378 446.81500244
92.13600159 194.05999756 435.27600098
170.41400146 267.17901611 504.99499512
225.38700867 235.54299927 446.04800415
89.27900696 137.22999573 468.98001099
119.79100037 227.99800110 425.82397461
284.27697754 193.17500305 444.59301758
189.28498840 187.79598999 424.90399170
194.50601196 187.30899048 490.08200073
94.30400085 133.98100281 518.68200684
284.22201538 215.31500244 448.47100830
107.36000061 143.30099487 533.76397705
130.97799683 166.09700012 522.52301025
79.83200073 214.47399902 499.57299805
169.78700256 222.19400024 512.79595947
222.93099976 178.16099548 480.39498901
196.62100220 244.20300293 506.29901123
98.59899902 124.74499512 478.32699585
165.51300049 192.26899719 514.02099609
264.39898682 256.53100586 469.48001099
170.19000244 205.16101074 413.42602539
153.66099548 203.06498718 512.33398438
74.87200165 177.81098938 506.11001587
109.50600433 137.25399780 429.70098877
102.17300415 139.05599976 433.64797974
140.88299561 183.59300232 532.58398438
89.65899658 163.33700562 436.32501221
90.14099884 155.60099792 544.55401611
127.01300049 140.76699829 509.85003662
215.31399536 179.65798950 478.74700928
159.34700012 263.27401733 457.85598755
74.87999725 170.74499512 496.30801392
100.64099884 128.83099365 444.86700439
147.35600281 108.67600250 457.06399536
101.98400116 222.13099670 434.78399658
230.98100281 202.08799744 441.28601074
88.91999817 140.84599304 449.57797241
110.23400116 249.70599365 471.55200195
210.70199585 251.63800049 450.82797241
222.60699463 259.54397583 456.22399902
150.43600464 228.04400635 511.59399414
128.92199707 110.20700073 455.71398926
282.21600342 199.15299988 446.28799438
150.12100220 268.99099731 527.38702393
136.09098816 135.73699951 422.92199707
107.81900024 172.25399780 558.01800537
145.43400574 143.17900085 496.78900146
121.31900024 130.24299622 514.30700684
162.28199768 211.08399963 414.14999390
104.06900024 121.47200012 494.37698364
185.96299744 223.55000305 428.52301025
200.40699768 235.77900696 504.54699707
139.44099426 244.65798950 520.43597412
186.06300354 193.93099976 478.10699463
183.86399841 203.85099792 474.48501587
80.03099823 210.85299683 512.79302979
247.34100342 240.17900085 482.82302856
224.13699341 232.19900513 496.10998535
179.61599731 173.43600464 491.65402222
172.11399841 188.55200195 491.05099487
127.83000183 222.40200806 549.19000244
156.86799622 257.98800659 447.72698975
92.21799469 150.33300781 541.93402100
276.01901245 199.39599609 453.98797607
140.76499939 173.11799622 522.53094482
93.19000244 186.13299561 571.62799072
138.29100037 177.67199707 411.09600830
152.46200562 110.07100677 447.04397583
231.78799438 265.25302124 490.59899902
183.53498840 137.98100281 449.97998047
166.43499756 182.03300476 413.75799561
167.36500549 263.29498291 510.85101318
203.59599304 181.47900391 455.27899170
141.23100281 131.85000610 424.12100220
139.06001282 201.55900574 543.09704590
166.61599731 165.18400574 503.95297241
140.21398926 266.52398682 530.58599854
179.33699036 255.76800537 450.06799316
89.79800415 133.07798767 486.10601807
174.67300415 165.16200256 418.47802734
185.86100769 142.24000549 440.34201050
178.11499023 242.17700195 437.72399902
135.61999512 167.22399902 413.58700562
162.13899231 249.16999817 439.14898682
107.32699585 157.52198792 542.34899902
109.05599976 124.98400116 514.66400146
154.15299988 174.37001038 413.63400269
185.73098755 150.12399292 430.80999756
116.46099854 248.02101135 447.84799194
172.61299133 265.17599487 499.75601196
108.98400116 241.22200012 444.82800293
279.99301147 235.55700684 453.53399658
130.47200012 239.02299500 520.00897217
145.20999146 152.41200256 416.01898193
120.83399963 257.81802368 482.61401367
261.88998413 204.98899841 460.78198242
206.37400818 276.74600220 482.59698486
95.61499786 230.35499573 543.32897949
106.26499939 252.02900696 497.51898193
266.95098877 218.47898865 448.89797974
133.58999634 263.34197998 482.95599365
204.81799316 257.20501709 504.10299683
148.67900085 247.96800232 437.26998901
99.54199982 241.30799866 526.60400391
236.75500488 276.15802002 488.34100342
180.56100464 265.33697510 513.82800293
132.91500854 265.72900391 495.58801270
275.07000732 255.10499573 463.83200073
154.45700073 202.76400757 522.71997070
182.34098816 174.94599915 487.07397461
118.47200012 222.94599915 558.35302734
170.20300293 255.78599548 509.37002563
192.21299744 246.08198547 508.89498901
251.32901001 251.29699707 478.93899536
171.73899841 139.64801025 423.73498535
194.03999329 280.25399780 501.32901001
246.80699158 204.34999084 443.77700806
175.01600647 123.78100586 454.79397583
140.46899414 270.00299072 524.57299805
86.63700104 178.25299072 555.73602295
151.27600098 206.16499329 413.61199951
85.41999817 200.57299805 545.84698486
85.26499939 183.16999817 552.05999756
206.25799561 277.31201172 513.05902100
125.40399933 245.55400085 533.85699463
192.38699341 164.92199707 435.14901733
78.12699890 182.14300537 461.96301270
233.39599609 254.72900391 490.59899902
163.99099731 195.87699890 481.06597900
283.19299316 207.89300537 453.62600708
225.39801025 258.96499634 494.78500366
122.42300415 224.51899719 422.64199829
116.64699554 259.14801025 514.84100342
146.18200684 218.13999939 506.14398193
242.78500366 194.92498779 464.83401489
81.19899750 196.02999878 537.20599365
156.60198975 273.54800415 498.45199585
132.59600830 143.95700073 506.50698853
88.98600006 138.34098816 463.88098145
195.56900024 180.90499878 458.07098389
190.77200317 258.11599731 511.36599731
113.52200317 235.75698853 434.97500610
187.70199585 273.49499512 472.42599487
224.30799866 266.60498047 462.29699707
248.49299622 192.04800415 453.40698242
114.87400055 114.75899506 463.23202515
138.62500000 269.29199219 507.09097290
194.60099792 222.70399475 474.50500488
190.30299377 228.95399475 506.00201416
231.64500427 218.86900330 443.46899414
144.78599548 176.85798645 524.28594971
154.60499573 213.19000244 504.09899902
128.18600464 232.40899658 527.47204590
162.53800964 130.16200256 478.47399902
195.43099976 218.57499695 501.43801880
196.07099915 215.49400330 428.84600830
116.09700012 120.38599396 442.57699585
156.72900391 261.72198486 526.04296875
148.57800293 197.44299316 410.94900513
228.21701050 272.27200317 495.90899658
230.41500854 213.20899963 443.62197876
181.43400574 134.11399841 435.73999023
285.31301880 235.41499329 459.15298462
164.33599854 256.55499268 447.47000122
75.60900116 189.55400085 517.86798096
248.12799072 241.25199890 451.00598145
104.64700317 250.36001587 490.89700317
123.83399963 111.46699524 471.47598267
122.59200287 261.75399780 498.25201416
92.29599762 221.08699036 547.60601807
251.81100464 222.97200012 477.37802124
233.31500244 188.05799866 460.20599365
218.64900208 181.08799744 438.35699463
134.64300537 123.08899689 497.69400024
244.19000244 276.92300415 478.94097900
118.71799469 114.32400513 491.17999268
204.51899719 206.68600464 431.25500488
150.04100037 244.42001343 432.89599609
270.30599976 235.69900513 451.69400024
220.81098938 274.19299316 503.73602295
229.77099609 245.51100159 492.02902222
171.43200684 193.52400208 501.42300415
165.86500549 271.49502563 511.92898560
131.35699463 195.39900208 410.92898560
105.72399902 119.84399414 471.41702271
87.65100098 215.91499329 542.60198975
128.78898621 194.49600220 550.46997070
208.90299988 191.41000366 435.65899658
161.00099182 158.20899963 498.98400879
131.87300110 222.02900696 418.51199341
250.74899292 261.44799805 456.92700195
280.95199585 251.08599854 458.85101318
116.45600128 126.68099976 434.30200195
146.99800110 236.38099670 515.00897217
259.78100586 251.40800476 472.92102051
192.02000427 182.53100586 474.04000854
102.84999847 240.38999939 453.09002686
106.69400024 229.79100037 435.70599365
186.48800659 148.95700073 455.09201050
111.26200104 224.47499084 428.17300415
207.03601074 279.94702148 491.19299316
98.94999695 195.85299683 427.57998657
182.12799072 143.68099976 462.83401489
84.73500061 145.33799744 514.38800049
217.84899902 237.41600037 499.55899048
169.34500122 196.19200134 491.79699707
98.59899902 125.99800873 459.86398315
108.58900452 124.07199860 442.78201294
136.74600220 129.12001038 498.40600586
198.52400208 199.70899963 484.74197388
217.80499268 227.86900330 498.18200684
210.98400879 244.69900513 503.16400146
198.07699585 250.68699646 450.18099976
141.40098572 152.79400635 504.93698120
151.32499695 263.56802368 466.42898560
90.63600159 233.47698975 486.98999023
155.39799500 150.59100342 496.05102539
94.76200104 142.23599243 533.22204590
104.15100098 166.21899414 423.33901978
148.03799438 186.73899841 411.08099365
173.44699097 257.48800659 450.07501221
96.16600037 177.33299255 570.65600586
162.55499268 274.09298706 495.33502197
230.52999878 281.37399292 488.35198975
116.25300598 251.48698425 545.87402344
146.10099792 272.70098877 515.03302002
208.99699402 235.84700012 443.70800781
279.46798706 182.41700745 439.59399414
208.50299072 217.17199707 498.64700317
140.92799377 218.58799744 535.99298096
179.10099792 150.90901184 472.92700195
214.79899597 244.74600220 446.83700562
94.60099792 196.09400940 572.66998291
202.74800110 202.11599731 488.25299072
141.40899658 227.03799438 420.96798706
114.78699493 163.36199951 535.44903564
180.30799866 132.13600159 453.88098145
154.45100403 274.13800049 509.49502563
104.91799927 181.58599854 570.35101318
84.69699860 140.68800354 497.54000854
173.36599731 183.10398865 506.16299438
166.09500122 269.97399902 480.76998901
267.81600952 212.80799866 462.01300049
173.86401367 258.44201660 505.91897583
102.06900024 170.22399902 563.77600098
153.10400391 116.00799561 435.92300415
139.61399841 223.26100159 510.16497803
87.28800201 144.73300171 525.49603271
194.68000793 203.86900330 479.49499512
246.73300171 268.84600830 463.66302490
167.48399353 225.62100220 421.30599976
113.97100067 116.00399780 457.61297607
239.20500183 210.30599976 483.85699463
121.95300293 235.53399658 554.76098633
284.97601318 228.02799988 453.71401978
187.14700317 174.88198853 454.47900391
230.65299988 200.20100403 485.47698975
91.13999939 153.02400208 437.86499023
102.80699921 122.68599701 456.62399292
172.30500793 120.57600403 443.36300659
93.30099487 225.92500305 450.43600464
232.52799988 236.99600220 490.70297241
139.50300598 161.11700439 413.42398071
155.75500488 203.57800293 413.52798462
144.11999512 140.96699524 419.24200439
175.43399048 124.93099976 438.21002197
124.28399658 165.11000061 527.52502441
155.24099731 239.78100586 521.19500732
82.76799774 180.46400452 545.00701904
210.94000244 209.47900391 435.77502441
180.61000061 167.86299133 420.87200928
171.18899536 194.02700806 413.58599854
91.66600037 136.13400269 515.00701904
176.53800964 167.24800110 490.47900391
201.45500183 275.54800415 479.47698975
204.23799133 201.51800537 429.15402222
216.71899414 269.76498413 467.19900513
272.44799805 244.91900635 455.66201782
116.89600372 113.67599487 482.69598389
180.79699707 276.14501953 490.32299805
83.70299530 142.06098938 492.54699707
157.36399841 164.16899109 414.18798828
217.33898926 208.60099792 493.52600098
215.69799805 173.98800659 474.06900024
191.81098938 229.78900146 433.66198730
144.03900146 206.10499573 538.19696045
236.30799866 280.58200073 484.10498047
188.98899841 275.09298706 515.46099854
248.01600647 196.64399719 464.29501343
202.84899902 185.97200012 482.13299561
218.53298950 266.67700195 500.38598633
159.49499512 149.71899414 493.05099487
188.68200684 266.74200439 513.72100830
257.49398804 219.18399048 472.53201294
143.21200562 214.11100769 511.82098389
240.48300171 265.66201782 484.30999756
112.73899841 250.64700317 538.30596924
178.21598816 233.84199524 431.68301392
90.36499786 136.94200134 506.75701904
87.83800507 229.93699646 500.68801880
101.95899963 160.97799683 554.42401123
78.57599640 162.94999695 463.78601074
119.46800232 255.78799438 535.72296143
118.99200439 140.38499451 424.23001099
111.62999725 128.16398621 519.58197021
122.07900238 147.12800598 517.70001221
185.87500000 218.76899719 503.24499512
99.37799835 126.12000275 493.14001465
194.11599731 218.44599915 469.80899048
154.64199829 191.37699890 486.82098389
88.67800140 228.36900330 468.02999878
280.12402344 187.32998657 440.97500610
153.63099670 190.10000610 526.43402100
226.46499634 177.85899353 451.95700073
85.99200439 219.48100281 528.99298096
151.00199890 209.79798889 502.51000977
179.80400085 211.29199219 419.95401001
126.28099060 115.55599976 445.03097534
275.92901611 232.82299805 465.68200684
224.42199707 201.33699036 487.93798828
195.15199280 181.31298828 447.27600098
175.77700806 188.31401062 481.70300293
165.31599426 131.99501038 425.44900513
96.10799408 239.33799744 515.95697021
154.52900696 174.74499512 516.75201416
141.33999634 144.73899841 499.58898926
190.00799561 154.18598938 435.54602051
241.54501343 260.60900879 484.00900269
134.44299316 149.07699585 507.39700317
121.21599579 253.92601013 543.05902100
178.27899170 183.69700623 497.31799316
77.02100372 162.26499939 493.44699097
102.68199921 122.13800049 475.25097656
91.53500366 204.47698975 557.07696533
109.56300354 252.80799866 515.48394775
152.30200195 110.30599976 463.87402344
153.74000549 143.39199829 418.42401123
106.77799988 216.58599854 427.23599243
176.88999939 139.13099670 426.83801270
81.81100464 154.39399719 526.12298584
76.01699829 165.00000000 485.20999146
271.04602051 237.10299683 466.27499390
250.51501465 245.76499939 453.61798096
268.90200806 250.38600159 468.23300171
249.17800903 211.96598816 446.35098267
124.44000244 136.72700500 424.51098633
276.52499390 203.83399963 446.34500122
139.09399414 233.67500305 513.19500732
139.15100098 190.58099365 411.09100342
209.81100464 234.75100708 503.19302368
258.26000977 189.65600586 445.67700195
112.76199341 166.43899536 541.10498047
182.56700134 234.28698730 434.87200928
165.41600037 195.48500061 507.44598389
88.65100098 210.00599670 549.41302490
145.04598999 138.51800537 495.35501099
89.29599762 231.03601074 474.93801880
191.55299377 221.34700012 478.73602295
137.70599365 196.86000061 543.02600098
224.80999756 278.38299561 502.59698486
123.21999359 262.61999512 504.31399536
76.79100037 192.78900146 521.60797119
168.79800415 190.21800232 480.73599243
83.13199615 218.00099182 515.59399414
199.07499695 230.93000793 503.81399536
167.78500366 208.38400269 498.95700073
123.08300018 121.86600494 436.55801392
169.45999146 185.90100098 413.41702271
85.73699951 226.10099792 511.70898438
91.73899841 133.63800049 464.56097412
78.37200165 189.21299744 528.25701904
142.65499878 109.69000244 467.35000610
113.84700012 122.13800049 509.90100098
92.76200104 156.24299622 549.16699219
213.61100769 177.78100586 470.95599365
178.90800476 201.41899109 483.17300415
190.47599792 178.72999573 444.39898682
128.43899536 155.91299438 415.98300171
170.81298828 221.47999573 419.55700684
170.61599731 231.41000366 425.66000366
261.31298828 232.85800171 451.38699341
193.22801208 188.59001160 429.88500977
254.30000305 229.57099915 448.78302002
76.78399658 181.67401123 519.79699707
177.24700928 129.94999695 431.88699341
225.01400757 239.64500427 495.60498047
82.20099640 164.70600891 540.53802490
170.95999146 144.75500488 423.31399536
139.29000854 260.90698242 467.21899414
200.84199524 210.25199890 429.89099121
132.11999512 228.32901001 544.53100586
102.28499603 246.77699280 507.08502197
