ply
format ascii 1.0
element vertex 2048
property float x
property float y
property float z
end_header
249.13500977 168.26300049 441.77099609
41.49300003 114.11900330 539.48895264
99.70800018 161.62901306 405.98498535
131.70599365 54.13800049 469.49099731
161.53100586 226.51599121 462.88101196
172.81900024 136.03300476 484.53701782
58.73099899 102.15299988 454.81500244
59.12699890 186.81700134 466.60598755
102.43099976 129.94400024 504.04101562
145.68800354 110.43400574 423.31100464
80.45700073 65.68199921 513.26800537
126.25600433 171.87599182 461.91900635
99.18600464 71.69999695 423.72900391
192.90399170 177.64399719 450.52700806
38.61999893 141.85600281 492.39501953
58.01200104 149.72000122 433.38400269
97.18000031 203.34201050 438.59698486
138.28399658 101.71499634 483.81100464
81.89099884 115.15399933 409.77200317
155.14299011 157.41999817 427.04998779
82.43999481 61.30300140 466.33599854
46.05599976 93.74600220 499.48098755
164.06700134 182.53601074 483.20199585
161.19299316 82.14800262 451.92300415
84.40999603 152.02400208 472.79998779
123.70099640 212.45298767 467.35400391
150.31900024 196.97900391 438.35699463
76.82300568 104.38800049 522.03497314
121.00700378 134.31500244 469.16897583
117.29299927 128.38099670 406.24600220
113.07700348 75.32199860 494.35498047
135.59800720 63.14399719 432.69799805
153.27600098 127.66100311 454.83599854
191.50199890 213.34500122 449.11999512
67.37400055 137.42298889 512.29901123
124.04100037 181.57699585 421.06900024
75.66600037 179.33300781 426.74801636
218.13499451 154.49200439 451.83599854
182.78199768 145.25300598 450.04598999
47.60000229 133.77299500 461.33999634
93.98200226 183.40901184 465.07998657
145.43800354 153.43299866 481.23699951
119.13800049 94.09099579 411.65399170
189.93901062 163.00100708 479.05200195
107.46800232 51.51399994 447.38098145
74.12400055 89.88100433 429.67001343
39.57799911 143.17999268 525.36199951
53.16500092 88.05000305 529.72796631
132.44900513 129.48899841 496.10299683
61.66300201 78.42300415 479.89999390
101.63600159 100.47800446 503.79000854
129.50199890 155.54100037 409.20999146
45.35699844 161.91999817 472.55798340
62.67099762 118.63200378 431.44799805
36.74200058 118.26599884 511.60998535
77.74900055 143.41600037 409.23199463
136.01200867 189.49900818 481.92599487
42.47999954 115.15799713 481.98101807
104.22399902 51.42499924 480.55099487
64.59199524 156.88699341 492.62301636
220.37998962 181.61999512 448.02902222
147.84899902 76.76499939 475.13397217
124.13199615 205.15699768 439.32199097
175.50000000 201.94900513 468.38699341
168.26100159 177.18499756 440.53799438
71.84600067 197.86199951 446.29400635
109.19599915 168.04598999 481.26000977
157.84500122 104.43799591 467.08200073
143.65299988 135.40100098 417.05899048
148.32800293 84.72800446 430.31298828
80.79299927 68.94999695 442.51400757
55.82499695 170.29299927 448.08398438
99.55699921 183.80099487 420.58102417
149.31700134 124.68600464 478.96798706
94.97599792 93.73200226 411.66699219
149.97399902 208.30200195 473.57897949
103.77999878 144.66400146 485.09201050
142.72500610 215.31700134 451.14099121
209.21299744 170.91700745 466.17098999
42.78400040 162.02600098 503.75802612
148.65599060 60.55400085 452.03097534
113.06300354 193.87599182 456.56500244
159.07398987 104.56500244 443.92800903
84.52700043 59.19000244 491.45401001
66.23400116 80.20500183 456.26199341
169.91600037 207.24700928 444.31100464
84.33999634 145.40599060 499.14999390
75.19899750 170.93400574 459.70199585
62.14499664 75.90100098 504.95797729
190.75900269 184.24400330 471.81399536
168.91500854 157.97399902 486.28802490
57.14400101 124.37400055 527.39398193
175.70300293 128.73399353 463.16201782
74.56199646 82.99600220 527.18597412
203.56900024 197.02799988 457.51397705
120.41500092 110.67400360 498.98898315
95.76499939 130.88198853 403.60198975
146.27600098 178.05400085 428.49798584
162.37899780 142.65699768 442.16497803
143.79200745 158.99499512 460.64199829
120.20600128 74.01599884 421.30700684
84.70800018 121.67099762 511.84796143
125.03600311 155.33499146 476.01800537
138.67098999 226.15100098 472.33700562
93.58199310 80.81000519 507.65997314
122.68599701 57.73200226 489.17599487
156.35299683 124.34499359 434.31698608
79.58499908 163.51699829 413.66500854
49.77500153 95.12100220 478.84698486
105.52999878 110.34500122 406.12799072
129.97299194 51.91000366 448.61901855
156.83000183 143.42999268 494.47399902
131.40100098 81.95800018 485.50399780
117.74700165 185.10699463 474.78298950
198.32899475 153.29399109 459.80001831
102.38199615 58.90299988 500.24002075
130.16099548 110.95199585 410.95098877
61.25200272 107.05999756 535.45898438
64.22100067 135.31799316 421.47299194
182.86999512 147.21701050 469.95800781
50.77199936 152.00300598 455.70999146
66.74400330 159.47300720 473.54098511
137.36900330 170.84300232 486.15701294
55.79100037 132.42900085 444.05499268
182.69599915 193.59399414 448.45001221
175.68899536 159.81100464 439.49401855
113.67200470 146.68600464 403.73098755
114.44499969 59.44100189 431.67700195
43.26799774 101.20400238 520.70495605
230.57200623 166.33700562 443.51101685
177.25299072 224.83799744 453.03601074
157.78100586 139.33399963 471.29501343
118.10199738 93.20800018 493.55502319
96.94599915 164.73298645 468.00198364
61.82500076 167.80799866 431.10400391
112.69699860 211.52099609 452.35699463
115.79599762 168.30900574 410.75900269
135.56500244 94.33499908 419.08401489
52.27199936 147.12199402 512.52899170
49.70800018 116.49800110 465.60202026
77.28499603 188.67201233 460.83200073
50.64500046 167.92700195 488.53497314
112.39600372 193.28900146 428.54699707
208.17500305 167.71699524 446.05200195
87.78900146 206.46501160 453.04998779
137.48599243 138.19799805 478.52001953
134.59500122 191.21000671 430.91500854
118.06199646 138.79600525 493.44097900
64.11500549 183.86399841 439.94900513
91.96099854 57.39500046 452.72201538
42.05600357 142.72200012 475.71701050
110.80899811 49.65599823 463.99398804
71.47700500 105.00199890 422.61999512
69.58200073 68.67100525 491.15301514
36.63199997 137.34400940 510.00500488
97.82099915 60.33699799 437.01602173
118.87899780 124.43599701 482.42898560
134.31399536 168.91099548 417.90597534
154.84799194 71.47399902 440.90597534
37.37400055 126.87000275 527.31597900
87.55699921 192.20899963 431.04498291
66.47799683 151.52799988 419.20001221
179.28799438 176.36300659 481.47399902
136.45700073 66.47299957 480.92202759
154.99800110 169.35899353 486.18502808
64.60600281 102.70700073 439.66699219
143.38800049 151.55799866 417.13000488
161.77200317 197.14399719 475.27398682
39.66600037 111.26799774 497.46200562
88.51499939 95.13700104 512.64501953
129.41200256 138.56700134 408.45501709
57.20000076 115.96400452 447.05599976
134.15100098 204.63499451 476.41598511
138.76199341 117.04499817 488.05401611
189.85900879 160.58898926 448.51800537
107.43899536 83.66500092 413.70001221
147.11900330 62.87799835 467.56698608
84.15699768 77.90700531 427.79498291
71.46099854 119.02600098 520.24700928
147.89700317 92.42100525 474.28100586
51.44099808 87.31199646 514.17602539
154.22099304 141.50500488 426.82202148
107.50699615 154.59999084 473.56600952
134.68200684 79.07900238 423.55599976
47.25499725 99.83599854 537.92797852
38.04599762 126.33900452 494.55099487
91.91200256 145.67900085 403.45199585
57.55500031 87.12899780 468.02600098
70.99100494 70.70100403 469.99600220
167.61100769 192.34899902 441.69400024
124.14299774 170.32299805 478.46902466
51.72599792 173.86299133 462.25399780
169.15899658 140.30900574 455.42300415
106.32699585 115.38500214 504.30697632
68.02899933 72.34600067 518.36401367
189.64399719 197.90100098 462.98999023
96.53100586 53.25299835 466.62597656
159.55000305 217.97401428 450.83200073
118.20200348 126.17500305 501.33996582
205.67098999 185.23100281 448.68600464
41.03400040 154.44500732 484.86398315
145.58200073 134.12399292 491.07598877
69.73799896 86.46099854 443.35202026
167.45899963 213.04998779 462.27301025
159.62699890 90.46500397 439.83502197
127.92800140 214.89801025 449.50100708
78.33699799 151.21400452 487.24697876
81.50099945 96.77200317 416.22000122
69.14799500 121.04399872 418.76599121
81.54799652 129.73100281 406.82400513
121.21099854 198.37400818 469.11099243
54.22200012 84.12799835 492.58300781
96.99700165 195.50000000 454.32598877
220.23298645 168.62500000 457.28201294
86.78800201 176.19599915 418.26800537
136.91900635 150.03601074 469.31600952
65.06600189 149.11399841 504.56600952
157.83000183 118.41500092 464.72299194
65.27099609 92.22300720 535.79498291
105.53199768 86.33599854 499.04598999
155.93800354 70.67800140 458.71298218
88.54500580 56.71900177 478.15899658
156.80499268 83.75500488 465.11300659
148.37100220 183.26699829 483.56802368
174.67199707 190.63000488 476.46499634
137.84300232 205.66900635 441.21200562
157.17601013 170.64300537 432.69198608
104.00400543 178.21499634 473.48498535
160.92599487 118.38199615 448.13201904
94.53599548 67.08700562 508.20999146
135.42799377 124.92100525 413.66601562
204.05499268 182.97999573 462.13702393
39.36800003 151.90100098 512.34100342
89.51200104 134.77299500 506.07199097
150.21200562 100.06999969 431.04101562
180.60700989 210.83900452 459.34201050
42.84799957 129.11799622 475.57897949
148.00498962 196.21301270 479.46499634
179.30400085 148.04400635 483.03402710
54.99200058 136.34300232 520.32000732
51.49300003 102.95999908 467.90600586
131.82899475 222.40200806 461.30697632
102.47200012 173.04499817 412.94598389
147.78800964 111.34999847 477.69400024
116.83999634 142.23100281 479.22500610
59.25900269 184.52699280 453.35900879
91.58399963 110.17400360 511.19696045
92.74300385 107.32299805 408.63998413
76.58300018 68.72499847 456.87802124
201.69400024 159.82200623 470.95300293
44.00199890 102.69799805 488.19299316
155.09700012 184.73500061 435.91201782
162.52999878 97.49300385 454.63299561
152.23999023 208.05500793 445.40100098
182.10400391 171.16999817 446.37997437
119.02099609 51.35499954 478.15499878
84.51699829 200.63400269 441.16000366
84.81999969 80.51499939 517.50598145
98.27300262 141.17799377 498.54299927
77.33900452 63.36800003 479.93902588
147.44099426 123.87800598 422.06399536
241.24499512 157.88101196 442.85198975
84.04699707 161.06300354 463.44500732
170.56498718 145.02799988 493.64099121
138.21800232 170.59800720 457.10400391
100.11699677 209.79400635 449.78601074
110.62599945 203.17601013 436.71398926
144.95300293 71.91699982 431.43298340
144.97700500 223.47100830 460.84201050
212.21800232 158.09999084 462.66497803
118.25100708 106.71900177 408.65298462
66.27500153 194.84399414 458.79098511
125.76300049 55.77099991 437.18798828
92.08499908 147.78999329 489.27999878
90.46400452 83.83300018 418.34802246
181.92599487 134.34100342 472.70199585
50.94800186 172.82000732 475.85800171
55.10199738 158.11199951 442.43301392
146.12699890 165.58299255 423.51800537
47.92800140 132.87701416 530.83496094
69.46199799 164.33499146 421.10699463
196.29701233 173.16900635 473.90499878
122.42200470 50.25799942 458.47601318
150.02099609 128.84999084 467.18402100
54.56999969 158.15000916 499.99499512
99.85399628 194.55499268 430.12301636
139.73200989 55.45899963 460.00701904
130.38999939 106.65299988 492.11999512
126.27999115 70.98799896 488.52801514
136.08399963 160.97100830 477.36801147
40.91300201 102.37599945 508.53002930
39.31400299 112.02899933 527.42303467
110.69100189 53.02899933 491.04602051
75.45500183 65.19000244 502.00497437
166.10099792 153.10099792 435.60498047
156.23399353 157.09700012 486.46701050
179.67199707 214.91799927 446.06900024
86.09999847 173.95300293 465.02398682
169.71800232 138.25799561 468.64300537
126.53699493 133.93800354 482.62301636
64.66699982 177.12399292 461.68499756
156.19799805 216.01399231 466.46301270
154.34500122 139.50300598 483.19900513
106.42199707 122.22299957 403.54898071
58.89599991 135.91799927 432.38500977
96.25000000 149.80700684 474.06701660
139.16699219 56.95300293 442.58901978
76.44300079 189.28800964 434.82101440
107.18099976 95.45999908 410.51998901
167.62199402 171.48800659 486.34698486
206.48199463 155.71400452 449.16299438
105.53199768 186.57299805 464.09100342
61.30400085 79.78700256 526.63397217
111.35400391 179.63500977 417.59899902
95.53399658 54.55500031 490.71600342
50.95199966 125.09299469 453.85699463
50.59900284 121.44100189 537.05902100
76.59100342 78.87400055 437.22900391
79.64099884 91.58799744 520.82995605
57.56799698 163.19699097 480.25198364
45.28899765 150.08099365 467.12197876
95.09700012 119.04899597 403.56600952
135.42900085 180.76998901 424.86102295
154.17500305 112.81500244 434.02798462
90.19400024 68.32800293 433.16400146
52.05400085 140.51799011 451.63400269
160.01699829 109.05099487 455.09600830
177.85299683 165.10200500 483.98699951
76.14500427 201.22599792 456.55502319
113.52200317 63.33699799 495.58499146
87.70700073 59.56000137 502.56903076
123.91100311 195.55599976 431.62399292
59.84600067 168.58999634 469.83297729
101.36000061 74.64999390 501.76602173
51.01199722 163.45500183 457.08901978
193.61299133 196.23200989 451.74499512
125.19900513 64.94400024 428.06500244
110.81999969 138.13499451 465.36599731
86.57799530 156.34500122 407.97900391
128.54299927 94.93699646 489.07400513
78.14700317 136.32699585 508.49401855
64.38499451 128.35800171 519.44702148
121.40700531 117.69799805 406.76800537
158.66400146 138.27699280 459.45297241
95.10500336 121.51000214 506.38400269
180.38000488 182.41999817 448.48599243
124.59899902 84.00700378 418.01199341
110.88800049 157.46099854 406.17199707
182.18899536 139.37998962 459.79101562
128.69400024 179.61500549 483.18200684
138.09298706 90.65999603 481.37701416
174.34799194 148.90600586 442.12698364
68.37000275 110.89800262 527.39801025
50.96599960 109.03400421 543.18603516
125.51100922 144.77099609 472.26901245
219.52598572 164.46299744 443.85000610
132.48300171 216.92199707 473.74200439
129.46900940 117.12899780 495.89801025
63.14399719 92.14099884 452.55801392
38.61899948 153.80099487 497.46002197
227.52600098 160.46899414 452.61801147
155.11601257 133.28300476 440.80401611
121.04299927 218.52799988 457.41500854
78.04299927 72.37500000 523.15197754
184.60699463 204.72698975 447.96899414
149.94400024 224.03800964 470.81802368
103.05500031 150.12599182 403.58999634
72.60700226 134.17900085 412.34100342
135.39099121 164.82099915 466.04898071
40.32399750 125.26200867 538.04302979
161.02301025 206.76100159 469.74398804
110.89800262 67.46499634 425.14498901
86.29499817 195.99899292 455.98098755
128.98600769 55.08700180 480.14501953
74.10500336 150.94900513 497.17797852
135.70100403 138.42601013 491.00500488
91.09500122 168.73699951 411.79098511
212.73899841 177.74499512 458.57098389
71.96299744 76.82300568 447.53302002
111.10600281 101.35400391 498.86798096
126.61799622 193.31500244 478.69900513
42.44599915 162.53199768 492.75900269
188.04399109 149.98400879 461.11999512
49.08900070 92.91600037 489.35299683
135.35099792 146.86000061 411.35299683
57.44900131 96.56600189 541.47204590
166.33700562 167.06399536 436.59298706
108.14499664 202.04100037 451.42800903
172.42700195 129.49000549 473.85699463
120.47699738 82.13599396 491.17999268
156.76100159 190.14300537 481.36801147
146.36399841 162.91799927 485.75100708
76.58799744 153.60499573 411.81600952
111.07499695 136.50799561 403.58700562
147.51799011 64.11199951 439.69100952
64.14800262 78.43399811 468.40701294
115.43499756 52.79399872 440.74499512
136.63099670 105.66099548 417.17999268
72.32499695 97.34900665 528.26501465
161.51100159 200.76300049 441.74798584
117.20899963 202.72299194 460.09298706
73.35600281 128.98300171 514.04199219
165.15000916 140.89199829 479.52801514
117.02600098 188.62300110 464.56701660
68.69300079 70.49500275 480.09500122
155.35700989 94.19299316 467.33200073
89.30099487 63.11500168 442.75900269
52.85900116 84.53099823 504.39102173
75.31999969 152.79800415 477.51400757
94.49599457 174.96800232 471.40197754
239.14199829 171.83399963 444.70001221
83.97000122 63.67500305 451.53298950
192.90199280 154.59500122 471.15499878
144.83299255 189.34899902 434.34799194
144.19599915 93.62599945 425.89300537
139.03099060 76.34100342 480.45999146
191.75100708 206.11199951 457.30502319
101.88200378 52.01999664 455.89501953
89.05200195 184.74499512 423.34100342
127.38500214 99.66199493 413.81500244
82.02099609 110.86499786 516.17401123
170.46701050 218.52999878 448.86401367
126.58700562 165.11199951 412.56201172
123.53599548 147.04100037 405.95700073
38.64400101 109.78800201 517.60205078
54.56900024 146.18200684 442.18298340
62.32300186 158.22300720 425.49099731
66.93699646 177.94400024 432.30502319
196.41500854 188.96800232 464.81201172
115.53800201 175.65299988 479.49499512
35.68499756 128.22100830 505.91397095
108.81700134 138.57600403 497.35598755
59.64500046 79.29599762 514.06402588
95.67300415 91.57800293 506.63500977
69.54299927 99.15699768 431.74099731
139.51699829 115.21500397 416.98599243
131.18701172 177.97599792 455.75900269
199.28500366 163.70500183 448.49899292
61.07099915 76.45600128 495.15701294
37.17499924 144.12300110 502.85000610
185.05799866 218.66600037 455.30502319
78.46699524 106.12400055 415.59799194
57.90000153 94.71300507 461.17700195
116.13899994 161.64498901 478.59399414
127.16899872 125.61599731 408.41497803
40.46899796 125.16101074 485.12399292
107.88999939 75.21800232 419.95300293
143.37800598 157.49600220 470.28698730
145.07099915 143.20401001 482.07000732
60.35300064 172.83700562 439.84899902
182.82000732 154.47700500 445.73501587
120.50199890 158.83499146 406.71200562
152.56999207 72.81299591 467.56600952
142.86399841 214.89599609 473.92098999
87.35500336 137.51300049 406.02401733
76.33599854 157.02299500 468.84500122
224.90599060 174.26100159 443.63400269
212.60499573 191.25099182 451.77099609
46.75500107 107.45099640 475.04400635
37.31700134 119.72699738 501.61898804
71.23699951 68.65800476 509.95700073
36.34399796 135.71899414 520.18200684
148.86300659 102.00099945 473.78399658
138.09100342 59.63499832 474.17199707
156.86000061 136.31401062 449.75799561
53.13400269 112.95200348 457.35299683
116.00399780 149.51998901 473.09197998
63.29199600 126.22000122 425.68698120
161.94500732 151.07501221 491.17098999
47.93899918 143.27000427 520.77801514
54.67899704 86.99800110 479.75601196
47.82799911 92.91999817 521.75299072
66.85400391 155.86100769 482.32400513
98.41200256 55.80199814 445.31100464
35.76300049 125.92999268 517.08697510
157.57699585 80.29799652 438.93099976
64.26000214 109.37500000 432.29800415
184.97200012 153.92999268 476.20300293
165.66699219 224.27499390 454.73797607
61.18600082 142.87400818 426.14999390
85.98300171 148.71199036 481.42800903
137.25100708 160.23199463 416.04299927
80.46299744 87.03199768 423.41900635
116.73100281 50.45000076 451.07800293
60.39400101 116.11700439 530.26495361
75.96799469 170.97799683 420.64999390
91.69699860 154.92500305 467.77999878
191.17399597 186.75700378 451.13500977
107.43099976 56.43200302 436.98199463
77.30300140 179.75999451 463.46600342
174.98199463 198.36399841 446.42599487
184.16101074 193.42500305 469.00601196
58.96700287 121.97700500 439.27700806
120.55599976 101.88300323 495.75201416
103.54699707 164.85800171 474.51599121
134.66900635 175.60899353 464.04800415
76.38400269 144.25900269 503.76199341
45.84399796 124.55300140 468.04299927
213.28500366 176.07000732 445.95797729
68.48099518 143.08599854 416.12500000
151.46600342 131.35400391 425.57901001
161.23400879 209.84300232 445.92498779
46.04999924 93.41400146 508.63497925
130.60299683 135.07899475 473.39199829
100.11799622 100.84100342 408.38800049
139.28300476 181.83399963 485.64401245
160.56500244 89.82199860 459.43298340
69.74399567 75.29900360 527.75000000
43.37799835 152.56799316 475.66101074
68.44899750 166.92199707 464.29101562
60.29200363 84.75199890 534.31201172
160.79400635 146.38499451 432.55001831
67.89600372 187.23100281 464.30001831
132.26300049 70.25099945 425.99600220
74.68599701 123.97100067 412.21801758
102.99800110 63.18899918 430.14999390
189.95399475 151.49499512 452.39401245
124.24600220 133.22099304 496.98699951
157.93701172 72.28299713 450.04000854
44.64699936 165.38999939 480.87500000
123.19899750 172.94700623 415.53198242
150.33399963 150.53900146 422.78500366
153.25700378 223.49000549 457.30999756
37.13299942 134.08799744 499.03298950
86.18000031 187.32899475 460.72399902
106.03600311 207.90399170 442.83200073
48.33700180 158.85299683 464.65200806
225.77799988 158.03700256 444.11001587
147.70899963 133.65599060 481.71401978
60.42800140 143.58900452 511.34997559
76.98999786 63.82699966 492.82199097
122.40900421 50.63899994 469.90100098
107.40800476 187.15499878 423.18600464
42.40900040 103.02499390 499.36599731
187.66499329 171.59300232 478.95602417
111.76899719 49.47099686 473.40301514
87.85800171 72.86500549 514.24401855
42.50699997 105.88800049 532.93994141
57.22599792 161.38299561 490.67199707
172.74501038 219.50801086 458.47100830
117.00999451 208.67599487 443.17300415
115.89500427 85.32799530 415.61099243
82.30700684 99.28099823 517.38397217
182.44299316 183.08799744 476.75897217
40.41400146 134.03199768 482.45599365
152.94900513 148.98799133 488.87698364
47.56900024 143.06100464 462.36602783
111.93600464 142.17900085 487.16299438
123.60200500 128.30599976 475.00900269
68.37799835 93.76300049 438.69400024
37.18700027 118.79800415 522.33203125
181.17498779 140.01199341 480.17999268
88.55000305 57.76600266 461.21200562
39.30199814 145.57099915 484.53701782
177.84098816 156.87500000 481.11297607
201.61500549 177.02799988 468.18499756
139.46400452 54.47499847 451.35699463
98.72700500 81.77399445 416.55499268
61.20999908 111.86199951 440.05001831
109.05300140 146.99398804 478.60400391
130.50498962 51.96300125 461.12399292
161.30299377 160.63900757 432.21600342
162.41299438 91.55700684 447.94000244
51.54199982 153.73699951 506.77197266
203.03399658 177.01600647 448.67199707
137.34098816 197.52000427 436.11401367
64.54100037 190.04400635 449.37899780
115.97399902 185.26899719 422.17599487
143.27499390 68.91600037 476.32400513
95.01699829 176.14900208 415.86300659
68.52100372 113.04000092 422.73599243
113.52100372 114.46499634 406.04699707
142.16999817 102.25000000 422.73101807
127.31400299 188.52000427 427.32800293
160.06800842 120.48899841 456.73699951
174.20700073 186.61599731 444.33502197
146.71299744 171.38299561 486.78500366
81.08699799 185.96200562 428.48797607
173.19599915 169.80900574 440.84701538
197.29901123 155.64799500 451.26199341
142.68699646 147.44700623 475.09597778
141.88798523 124.90799713 488.83599854
40.13400269 116.19599915 490.56301880
89.23100281 99.99199677 411.04901123
119.13099670 138.33900452 405.48699951
153.50100708 121.69499969 472.23300171
127.15299225 205.76100159 471.22601318
219.30599976 160.16499329 458.52200317
61.02700043 86.55100250 460.34197998
38.94300079 111.67000580 505.86499023
153.59700012 93.07599640 434.34100342
105.77300262 67.73100281 499.81298828
52.63800049 94.85100555 469.91000366
88.07100677 124.46399689 406.06600952
130.43499756 176.14700317 419.72100830
158.39199829 117.86500549 439.26501465
125.08599091 220.73799133 467.38601685
139.65899658 197.12600708 479.63299561
40.04000092 135.22200012 532.50701904
129.99301147 61.65900040 485.26699829
162.20599365 142.06401062 488.19299316
154.24099731 112.22399902 469.06097412
157.22599792 125.45700073 445.67498779
135.69499207 212.74900818 447.32901001
159.15399170 191.41900635 438.82901001
69.33999634 172.52400208 426.43600464
107.83799744 166.88500977 408.70999146
162.81500244 183.41999817 438.78100586
154.67601013 201.49299622 475.43698120
172.48699951 181.12400818 482.07299805
112.71599579 83.74199677 495.77700806
128.52301025 163.87399292 475.53500366
145.41499329 84.56700134 476.48199463
139.59300232 87.08399963 423.75000000
148.44200134 142.19099426 490.25900269
37.42099762 144.42098999 515.28503418
112.54999542 119.91299438 501.31799316
106.83599854 107.17300415 503.63098145
74.62100220 116.16600037 415.00000000
181.42700195 163.10800171 444.81301880
100.98999786 155.14500427 468.55899048
49.22299957 167.77400208 467.20199585
119.89299774 66.70500183 491.46597290
167.69100952 201.81498718 470.98400879
111.03399658 184.72000122 470.05700684
117.74499512 132.28500366 479.17498779
76.57399750 64.88999939 471.50299072
55.78200150 175.96299744 455.45300293
98.58300018 113.22899628 508.25900269
131.52499390 149.12899780 475.69900513
162.24800110 162.71199036 486.31600952
151.74000549 215.55699158 450.60400391
58.97499847 161.34999084 435.22799683
150.77799988 136.01100159 474.54598999
81.01599884 128.89300537 511.11502075
80.17499542 204.67700195 450.38500977
166.25000000 191.29699707 478.69598389
95.06499481 103.24499512 508.81201172
59.62699890 179.03999329 447.39898682
202.20098877 168.16699219 471.51397705
135.69999695 156.88999939 464.46899414
68.46500397 70.52300262 502.60000610
157.89799500 139.11199951 435.95498657
141.44400024 110.52499390 482.61499023
149.54000854 116.86900330 426.29000854
109.63899994 103.97200012 408.82098389
105.11499786 194.80999756 455.79901123
128.26899719 90.81500244 415.90197754
61.82900238 100.62999725 447.58401489
140.30000305 171.69900513 422.44000244
152.93499756 165.54100037 428.23098755
87.44899750 63.70299911 509.94003296
67.43000031 81.58099365 532.11199951
71.45299530 72.61800385 461.60598755
144.89900208 143.72700500 416.68099976
149.22100830 61.95100021 459.91900635
158.52400208 78.40399933 459.44400024
174.10301208 134.11700439 457.50000000
96.84800720 188.71299744 459.85998535
169.04798889 144.92300415 446.54199219
52.52099991 152.37300110 447.31301880
83.52400208 72.31999969 434.87997437
44.79899979 138.10699463 467.94500732
55.35100174 83.92699432 520.21997070
91.61800385 198.33999634 435.89199829
68.10999298 103.51000214 531.00000000
68.26099396 128.82600403 417.40798950
93.05000305 206.45500183 444.62600708
88.41899872 85.78900146 512.78802490
135.47700500 122.22100067 493.08499146
116.78999329 52.59900284 485.66101074
63.85300446 121.62599945 524.29699707
135.22599792 219.53298950 454.79901123
78.02999878 120.38500214 516.10900879
46.90299988 115.12899780 472.83700562
142.77899170 166.22200012 463.72698975
131.81700134 167.47698975 481.70999146
153.11099243 176.98500061 486.46600342
54.04600143 114.41999817 537.83203125
234.93899536 159.94999695 447.05599976
49.07299805 93.86399841 533.07000732
114.23600006 132.69700623 499.48498535
136.00500488 162.58299255 458.54898071
90.11500549 55.99300003 470.50799561
134.60600281 133.62899780 411.63302612
144.47499084 201.36399841 441.18402100
90.78600311 73.45899963 427.28201294
130.01998901 200.81600952 436.54800415
156.97399902 99.22100067 438.63000488
68.47299957 190.11000061 441.62600708
85.01899719 148.81100464 406.72900391
214.00100708 159.43699646 446.05401611
124.91600037 137.96000671 489.84100342
183.82998657 202.93399048 464.21398926
84.86000061 148.95401001 492.26098633
73.35600281 96.60199738 425.47799683
103.75800323 50.89500046 468.20501709
127.13000488 124.62999725 498.98400879
95.95999908 188.77699280 425.32000732
84.90899658 106.45400238 411.30200195
198.07800293 183.26200867 449.26000977
58.43399811 79.34200287 488.19198608
118.86999512 201.16500854 435.29299927
176.36000061 141.67399597 452.42700195
48.46400070 163.21299744 498.65902710
110.42399597 92.19799805 497.87701416
206.80500793 154.78800964 458.26199341
153.27101135 66.76100159 447.34100342
64.27399445 74.18199921 488.51498413
55.15900040 180.66400146 463.47998047
58.79500198 128.64099121 434.94299316
173.85198975 151.34799194 487.36898804
225.89999390 167.86299133 451.21701050
118.72100067 141.65100098 470.41699219
175.57600403 178.40400696 444.01300049
78.94300079 195.58499146 439.53500366
59.56200027 107.93499756 446.79702759
210.08599854 185.66600037 456.40600586
124.94800568 185.91900635 480.89901733
141.90899658 203.61399841 476.22601318
143.94000244 209.73800659 446.03198242
174.77700806 207.96998596 463.39700317
114.37799835 135.38800049 472.84298706
53.64200211 176.11399841 469.44100952
129.35200500 118.53900146 411.18099976
54.71799850 90.86499786 537.22503662
125.48199463 141.45399475 482.65298462
177.99400330 132.64801025 480.15798950
129.41500854 170.63800049 455.12399292
159.93400574 97.25499725 461.73797607
51.72900009 132.50700378 452.55700684
87.55400085 102.90499878 513.33398438
197.52499390 202.11500549 454.39999390
93.69599915 152.92399597 404.56597900
152.96299744 135.60501099 465.59899902
97.05400085 147.08999634 482.73599243
55.97100067 138.10699463 439.13201904
131.53700256 157.89700317 472.11599731
201.27000427 190.75399780 451.24398804
79.98699951 84.04300690 522.10498047
38.46000290 153.44999695 505.05398560
91.97899628 160.97299194 463.35900879
107.55900574 78.98200226 498.41101074
96.84000397 134.90499878 503.58700562
86.59799957 91.29399872 415.96600342
161.39300537 175.68301392 436.26998901
133.31199646 72.46099854 484.10800171
145.70799255 118.73899841 481.68099976
176.21899414 143.89300537 488.41799927
54.87300110 123.04399872 447.39199829
208.47499084 163.83000183 468.33398438
72.05300140 183.66500854 432.69699097
100.10500336 83.06900024 502.95401001
120.45399475 172.28401184 457.27600098
56.68700027 165.69400024 442.30300903
153.45098877 226.97799683 464.96002197
190.91400146 167.94299316 448.67102051
218.72100830 175.28900146 454.36700439
90.31400299 113.89499664 405.96197510
83.14699554 140.13800049 504.53799438
89.84000397 126.25299072 508.60696411
119.42900085 190.17698669 426.54898071
102.65200043 54.18899918 492.75299072
155.47900391 132.79399109 431.64199829
99.09600067 144.76300049 492.11999512
152.31600952 82.21700287 470.78399658
142.79399109 128.06600952 416.75000000
82.06800079 179.99699402 423.11401367
95.32699585 204.51499939 451.69299316
183.58399963 140.41000366 467.20599365
117.77999878 212.41900635 459.95501709
84.40200043 181.40600586 464.73898315
39.35699844 116.98699951 533.04302979
133.15800476 56.71900177 438.33398438
44.70499802 148.51100159 516.74902344
97.58000183 53.12800217 477.88900757
152.73699951 178.47900391 432.84799194
91.40299988 141.51098633 501.13998413
161.29800415 175.21800232 486.47601318
240.97399902 164.86898804 446.04098511
202.42098999 190.17300415 459.80700684
70.33000183 89.11199951 531.53198242
95.18600464 58.64699936 501.49697876
52.98400116 159.54499817 449.27798462
98.00499725 112.94999695 406.33898926
118.82500458 195.40399170 462.54199219
69.91799927 143.38800049 506.99697876
185.66900635 177.12199402 448.57400513
91.25900269 168.05101013 464.83001709
98.92700195 143.81100464 403.62600708
140.76399231 59.37900162 467.26599121
123.41699982 132.52499390 406.19998169
139.26998901 130.71200562 493.94699097
146.75801086 158.55099487 421.84899902
61.32499695 189.40499878 458.30599976
120.81199646 213.09500122 447.46899414
53.73299789 107.12000275 462.42098999
106.88199615 123.57900238 503.87597656
119.55499268 118.90399933 499.91598511
61.77099991 150.39500427 424.52697754
99.50699615 171.66000366 475.36297607
116.39800262 56.95100021 492.98699951
150.91900635 74.38899994 434.59600830
197.95700073 170.76499939 448.71600342
141.32499695 79.52299500 426.26101685
133.04499817 224.68299866 468.12100220
102.33399963 90.29299927 411.61700439
58.25899887 151.44898987 505.78302002
45.29899979 99.33599854 530.40197754
70.67299652 156.78100586 416.73202515
126.93099976 86.68599701 488.49401855
113.68899536 154.98800659 477.15399170
172.99899292 196.69898987 472.55700684
92.29599762 160.59599304 408.39999390
73.65200043 194.98899841 458.95199585
188.75500488 177.99400330 476.01501465
147.08299255 220.03201294 454.96801758
77.32199860 83.52200317 429.94699097
145.06300354 189.57200623 483.66299438
214.07699585 167.78500366 462.02499390
149.17999268 107.18000031 428.58801270
127.52400208 75.08199310 423.81097412
44.11499786 106.12699890 481.96499634
39.28099823 133.21598816 489.42800903
75.23000336 162.28599548 464.19598389
181.06700134 132.66000366 465.85000610
41.16699982 109.21200562 488.25601196
64.31200409 100.05200195 535.90203857
164.05900574 219.27400208 461.94100952
82.78099823 62.74899673 458.46600342
111.08700562 173.88198853 413.45901489
44.82600021 156.41899109 507.58999634
154.51300049 202.87500000 441.13098145
46.12599945 138.91899109 527.60498047
204.11500549 156.32499695 465.29199219
162.49899292 140.59500122 449.68499756
136.51699829 144.17399597 473.93499756
119.54800415 191.94898987 474.60800171
106.28099823 129.29600525 403.62701416
136.58300781 153.55099487 413.28201294
218.41999817 171.23300171 446.40798950
73.75799561 65.47900391 485.64599609
132.66600037 197.70100403 478.91799927
137.07299805 140.23899841 413.04699707
81.53700256 61.00299835 497.56900024
49.18700027 100.31600189 474.01199341
161.89700317 98.46899414 446.69799805
113.53699493 78.91999817 417.95700073
171.06098938 136.76998901 475.38302612
164.27999878 139.67298889 463.42797852
81.50499725 62.30600357 504.46395874
137.24499512 210.37500000 473.84399414
104.65999603 93.74199677 501.55300903
88.53899384 57.07199860 486.11502075
181.41398621 146.00799561 457.66101074
104.47899628 178.86500549 416.53201294
76.33000183 112.36599731 519.95800781
143.16400146 95.79499817 478.17599487
76.70199585 71.57599640 447.54400635
155.17900085 148.43598938 427.36798096
52.42000198 100.69799805 543.99902344
145.58100891 58.79800034 444.63000488
59.62999725 82.52400208 472.84100342
121.58899689 179.11599731 479.34799194
77.96900177 200.91600037 444.94598389
120.83999634 206.82600403 464.39801025
108.26399994 175.71899414 478.39901733
134.82501221 111.51200104 489.59698486
196.01200867 164.73199463 476.12597656
117.30400085 152.32400513 405.59100342
100.78000641 181.90998840 466.09100342
141.99900818 159.46800232 481.08300781
51.25800323 126.89599609 532.00103760
159.60200500 111.57300568 447.88699341
89.72699738 116.84499359 510.86901855
71.90000153 153.14599609 490.98501587
131.47399902 138.76399231 484.85800171
48.68499756 127.04000092 460.16699219
133.84300232 52.43600082 455.08798218
155.52600098 107.27100372 437.88800049
49.50600052 109.68700409 469.14099121
62.41400146 134.80099487 516.26495361
152.65699768 123.94999695 428.53997803
106.79999542 198.77600098 433.09597778
141.89100647 183.22999573 429.53198242
119.61100006 138.65899658 484.84201050
159.43600464 153.23799133 430.38601685
124.63399506 106.69699860 411.16198730
169.63200378 158.99600220 436.38699341
110.68099976 191.18200684 462.40100098
160.21299744 104.80599976 460.66299438
77.58200073 92.92200470 421.43698120
44.59799957 106.26499939 539.44702148
66.15499878 93.37999725 445.14401245
84.89800262 170.29100037 415.40597534
100.10199738 167.74299622 408.99700928
190.22299194 191.08399963 466.75802612
138.73599243 72.02400208 428.64700317
116.64599609 64.51200104 427.30001831
43.23799896 123.33799744 479.14199829
212.41200256 184.33799744 448.75601196
89.52600098 56.97200012 495.49200439
115.01100159 98.97699738 409.35800171
128.87799072 208.76200867 442.58200073
112.91100311 113.14400482 501.12097168
80.23400116 121.86799622 408.93899536
97.67199707 67.25999451 429.14398193
112.70500183 50.40299988 480.71798706
134.47700500 60.02100372 480.32098389
44.69899750 96.50599670 514.50701904
142.67799377 139.44900513 488.01800537
99.68599701 67.83599854 503.89599609
196.66198730 181.11599731 470.26300049
45.59399796 119.56500244 541.18103027
73.06600189 148.07699585 413.42498779
56.05499649 167.62199402 475.38699341
169.04200745 200.24398804 443.84500122
187.26800537 198.44999695 451.47601318
75.73200226 67.79900360 463.47497559
149.60800171 142.44100952 422.04299927
84.76499939 195.68299866 436.20498657
44.88100052 131.18598938 468.14099121
52.78800201 87.80100250 486.13299561
110.21800232 50.42099762 457.36798096
88.92399597 79.14499664 422.86599731
58.45600128 128.83099365 522.59197998
50.79899979 169.38999939 482.01901245
134.81900024 96.19899750 485.28997803
178.58499146 208.33000183 446.06399536
106.33000183 141.90199280 492.12899780
63.35999680 154.31700134 498.65902710
66.84899902 84.13999939 450.91598511
141.88600159 61.11899948 437.76101685
120.78099823 51.94599915 444.62002563
140.11601257 83.39199829 480.33599854
55.84299850 81.41600037 499.33200073
152.11999512 191.01699829 436.04000854
101.54199982 201.39999390 451.75497437
148.46000671 184.25900269 432.12399292
118.96099854 74.19899750 491.50500488
125.75900269 78.84400177 488.88900757
188.01000977 212.77299500 455.89898682
50.84600067 119.14900208 456.96701050
43.14399719 158.58000183 480.15200806
38.46399689 148.46199036 492.18099976
86.65700531 205.57600403 446.05499268
154.13699341 134.18800354 456.91900635
64.87899780 163.91700745 469.02401733
115.78299713 168.43600464 481.41400146
96.72200012 87.48500061 413.64898682
195.76300049 196.35101318 461.08499146
208.71501160 177.08499146 463.89898682
113.08799744 180.57699585 475.83599854
183.27101135 162.28599548 481.52899170
99.08300018 52.89599991 485.43899536
87.45999908 131.05101013 404.29498291
153.51499939 86.01999664 434.11401367
140.94500732 121.61499786 416.95401001
139.27999878 224.68901062 465.97702026
120.96600342 59.53900146 432.30502319
159.23699951 110.20199585 464.23001099
103.44800568 136.71701050 500.58801270
54.04999924 139.95500183 445.44299316
43.28000259 98.13199615 504.17102051
168.21501160 148.15998840 440.03201294
148.72599792 214.35099792 471.12597656
56.58200073 106.56300354 539.97302246
143.41198730 102.77400208 479.94198608
190.41200256 204.62899780 450.90499878
160.38699341 85.43600464 443.88500977
212.67098999 154.76100159 455.34899902
69.71299744 198.33900452 454.52499390
112.58699799 91.90399933 410.99798584
45.71500015 128.19799805 535.95397949
134.84799194 222.44000244 476.16601562
131.77099609 101.06500244 489.15698242
223.34500122 174.06900024 450.00399780
112.84500122 122.99299622 403.78201294
237.20399475 163.19699097 441.06100464
159.45098877 78.00199890 447.28298950
182.18701172 219.88500977 449.34799194
114.88800049 133.20899963 466.32199097
95.55899811 128.07499695 506.22201538
124.95599365 107.07200623 495.57998657
97.37400055 53.76999664 460.17102051
117.52899933 215.77499390 452.75698853
108.54899597 162.39199829 477.72601318
168.96299744 150.87998962 491.51400757
142.93099976 153.94900513 464.94900513
138.12600708 165.08599854 483.40899658
75.85099792 89.80899811 525.70098877
144.07199097 195.50399780 438.46801758
66.15699768 74.48699951 475.75799561
113.46399689 205.70401001 454.95001221
57.66199875 142.83299255 435.14498901
103.32799530 203.16000366 436.80300903
130.70599365 83.48899841 421.15301514
41.32800293 105.79199982 524.73199463
151.39199829 153.33299255 483.59399414
46.38899994 167.72801208 475.04998779
83.50999451 59.37200165 475.22698975
162.71301270 145.75399780 495.44900513
146.07701111 171.64199829 425.56597900
161.37899780 103.30500031 452.23400879
179.53700256 217.02999878 458.18701172
104.53399658 156.33699036 403.73599243
94.51200104 73.45099640 507.80804443
37.25299835 133.08499146 525.90002441
36.85100174 145.74499512 509.08999634
89.94699860 146.54499817 495.20901489
176.93400574 146.41499329 447.85101318
56.18299866 110.84300232 452.20300293
103.44599915 116.62200165 403.50601196
60.89500046 173.28498840 465.03298950
118.03700256 50.11700058 463.04898071
72.47299957 67.23999786 496.81500244
52.64500046 130.74000549 527.17297363
46.49800110 99.72599792 481.68399048
52.97100067 142.42399597 516.70001221
108.32199860 143.33200073 403.63299561
83.38999939 68.99400330 517.76800537
117.45599365 178.03601074 417.51699829
124.65200043 176.98599243 457.48699951
84.59500122 169.03900146 461.36999512
90.77799988 192.11299133 458.09701538
151.53500366 107.49500275 472.21801758
193.67100525 152.92500305 465.13400269
145.21600342 118.10099792 420.92700195
130.19900513 136.55999756 493.42599487
187.32699585 151.09199524 467.78698730
94.93699646 76.11399841 422.29901123
39.76399994 140.28399658 481.16400146
67.36800385 104.71100616 429.44799805
219.77000427 156.44100952 445.02801514
82.25800323 191.76000977 458.26000977
73.15800476 86.48400116 434.85501099
85.27000427 163.99600220 411.07400513
233.88600159 171.41600037 441.31600952
144.63099670 66.53600311 434.61401367
97.60300446 54.58800125 452.11801147
108.45800018 56.43500137 495.79501343
153.79100037 131.03199768 448.41900635
99.45099640 107.34199524 506.33801270
70.30400085 75.81900024 454.45700073
65.75099945 166.59100342 425.59600830
173.81300354 213.69700623 460.48800659
69.35100555 181.28900146 463.08300781
48.80300140 151.89099121 461.62200928
151.71900940 173.07501221 429.91702271
177.69700623 129.27099609 469.84698486
99.40899658 106.89800262 406.73800659
102.38800049 189.79899597 425.74499512
170.82600403 163.57899475 484.40399170
186.52999878 208.02099609 460.06900024
149.44699097 118.59400177 476.73699951
109.17299652 151.10899353 403.65899658
132.98699951 87.81700134 484.27001953
92.57800293 181.38598633 419.51400757
152.89401245 125.56399536 460.65100098
121.27899933 88.09700012 414.33398438
71.73699951 175.76699829 461.41299438
49.06999969 90.01799774 495.57302856
146.75000000 129.93598938 486.55899048
129.32200623 132.39001465 408.64801025
89.00900269 179.44900513 468.36297607
76.69499969 96.43099976 523.28900146
124.25500488 50.67599869 450.59698486
61.21899796 77.74599457 519.83001709
148.61099243 202.08999634 476.40600586
59.54199982 156.36500549 431.64700317
81.38700104 138.63400269 407.07498169
149.24800110 90.84700012 430.59500122
140.84700012 166.08099365 419.98101807
85.56199646 155.40100098 467.70999146
111.34000397 69.68399811 496.10202026
128.58399963 144.65199280 408.75399780
131.47000122 169.24400330 463.83398438
133.10598755 175.57199097 484.58401489
168.88299561 186.12001038 441.31402588
242.84700012 168.37799072 441.23001099
80.31700134 174.83699036 461.37899780
132.15098572 163.20500183 414.31298828
156.62799072 181.13999939 483.63598633
35.54000092 131.37899780 511.16799927
74.29800415 162.95098877 416.71401978
179.07199097 192.86199951 472.83102417
50.36299896 145.94900513 456.53900146
54.72499847 99.10900116 464.41998291
44.76399994 100.26599884 493.75201416
137.72900391 222.24299622 459.66699219
60.97999954 162.89801025 475.19799805
144.61199951 226.27299500 468.48602295
152.84899902 163.65000916 486.24499512
129.95498657 195.34599304 432.41900635
102.70999908 51.25100327 462.21301270
125.26200867 139.71499634 468.87902832
164.98300171 140.33299255 471.86300659
107.46099854 208.08599854 451.43600464
130.15800476 105.06100464 413.50299072
85.67900085 118.74400330 406.66101074
62.35099792 159.42298889 480.34600830
154.24699402 195.10099792 478.94400024
100.78600311 76.07799530 419.85000610
108.98700714 128.64199829 501.29498291
120.56300354 130.29499817 484.15197754
114.88700104 127.00099945 478.42800903
149.27700806 135.94700623 422.30099487
168.89399719 206.60600281 467.48699951
92.77899933 136.14199829 403.70397949
76.53199768 101.14599609 418.43600464
91.92900085 148.04899597 479.67498779
65.64099884 116.28700256 526.49401855
117.89599609 55.64999771 435.76199341
207.91099548 193.18600464 455.04000854
130.97900391 140.65499878 471.10800171
129.32499695 211.38600159 471.37799072
184.81199646 186.44000244 449.20901489
177.44599915 171.11100769 483.98300171
94.04700470 58.99700165 442.66598511
185.66999817 187.22300720 473.03198242
102.04699707 121.01399994 506.38504028
169.05300903 213.28898621 446.26901245
46.90799713 113.47100067 543.37402344
70.74200439 148.85101318 501.69497681
148.89700317 128.58801270 474.41699219
102.68299866 55.86800003 440.61801147
62.40200043 178.17700195 438.03302002
182.56999207 148.13099670 464.03698730
170.89399719 140.49899292 489.72897339
67.63699341 135.71398926 416.56900024
53.63700104 168.92098999 453.47900391
106.22399902 161.63800049 405.92398071
55.94400024 151.97599792 438.51599121
45.54299927 152.04699707 511.59298706
172.09799194 225.43699646 458.74700928
182.51399231 169.48600769 481.11798096
151.91300964 80.29199982 433.60998535
100.14999390 89.12300110 503.54598999
122.09300232 53.13100052 482.97900391
142.22000122 176.67700195 486.22198486
85.36999512 90.81699371 515.28295898
45.06299973 156.54400635 470.01400757
71.86900330 105.28600311 526.73901367
66.44400024 72.57600403 507.80899048
65.82099915 72.19299316 494.12997437
142.46800232 63.00699615 471.97000122
225.05000305 155.77200317 449.55200195
75.43999481 76.73699951 526.89801025
79.61899567 149.43299866 495.58999634
95.08399963 124.97699738 403.70898438
182.54699707 144.16900635 476.18402100
61.90599823 184.72700500 448.06701660
172.62400818 132.58099365 466.43701172
114.26699829 163.28999329 408.02600098
104.08499908 148.76399231 475.92602539
157.52999878 111.69799805 441.25598145
43.64400101 163.96600342 486.52499390
160.92799377 122.27900696 442.33798218
127.77100372 199.39199829 476.09500122
115.19400024 197.36000061 431.76498413
65.88600159 157.19400024 420.71597290
40.96599960 160.55299377 498.11102295
121.19799805 88.65299988 491.45599365
55.00899887 119.56900024 533.62603760
144.36300659 220.58900452 473.70202637
161.29200745 213.78100586 464.56301880
48.92199707 138.71900940 458.45602417
39.79700089 146.45500183 520.25903320
110.42700195 210.30000305 446.87301636
121.91300201 124.22999573 406.18499756
37.10400009 125.47299194 500.41299438
137.18600464 107.11399841 486.50198364
71.47100067 153.34300232 484.93899536
79.55899811 67.54600525 451.34698486
79.95899963 164.58799744 461.13500977
141.04100037 162.49899292 468.30200195
90.65499878 199.06500244 453.52798462
158.39999390 138.47999573 443.22198486
124.07099915 112.75900269 408.46600342
146.74800110 130.32600403 420.43899536
82.35699463 59.95000076 480.92999268
67.94699860 130.84199524 515.53399658
54.41199875 90.21700287 472.99099731
68.33799744 123.96000671 520.25000000
186.22300720 212.28199768 446.87701416
80.28700256 77.10199738 433.08801270
141.78698730 176.75199890 424.91998291
63.64099503 183.33900452 463.51000977
68.36199951 95.90800476 532.52001953
58.10200119 139.70098877 514.99597168
44.40200043 143.61500549 469.76599121
148.56900024 68.07299805 469.73199463
38.17800140 122.36600494 531.18597412
121.90299988 149.12899780 473.58599854
156.46398926 127.95099640 438.94100952
134.70500183 118.13600159 413.39001465
113.95800018 106.40700531 498.91201782
119.08599854 156.27000427 478.85299683
142.43899536 157.42999268 418.14398193
216.54299927 183.28500366 452.68698120
120.92600250 163.95600891 409.39700317
104.32899475 69.14199829 424.49700928
39.46999741 106.84600067 512.67895508
64.41799927 109.95099640 531.52697754
62.91699982 81.66299438 462.80899048
80.43900299 78.27399445 522.29602051
134.43699646 88.83100128 420.46899414
60.82300186 130.02400208 429.70300293
153.05999756 67.67199707 462.73199463
129.13000488 171.05500793 416.50000000
80.47399902 150.49398804 478.74798584
101.98500061 160.67401123 470.85299683
123.82700348 96.65100098 491.93200684
190.38499451 158.02799988 476.15200806
128.04800415 220.53498840 457.36300659
73.77899933 78.94200134 442.26901245
73.69400024 108.29199982 418.43798828
42.00400162 134.76599121 474.79800415
160.42500305 225.43199158 457.33099365
64.59400177 119.26600647 426.05700684
75.62699890 68.03599548 515.33502197
135.95500183 54.45000076 464.23101807
178.21400452 137.95800781 485.09500122
88.55599976 60.61999893 449.38800049
56.98699951 127.07500458 442.34402466
135.18899536 53.63999939 446.95599365
99.38700104 52.12400055 471.71899414
138.17700195 218.51300049 473.62701416
62.02999878 159.06600952 487.97198486
54.14799881 129.06199646 448.65600586
162.33999634 169.25399780 486.31298828
129.98800659 53.85100174 442.15200806
61.63100052 136.64401245 426.40701294
124.50599670 114.44800568 496.88900757
125.80899811 63.45500183 488.73800659
45.49900055 97.47999573 524.99096680
155.51699829 207.59400940 471.06701660
82.66499329 199.79100037 453.72302246
127.22399902 52.76499939 475.23498535
84.24800110 82.20600128 424.02600098
111.88200378 108.41699982 406.02999878
99.49600220 206.55000305 442.70797729
164.48699951 153.55299377 486.70700073
92.75399780 62.92300034 437.38497925
108.54000092 61.40299988 498.58599854
192.63899231 169.63101196 476.98699951
103.77600098 189.96499634 459.86499023
108.60900116 62.22000122 430.01300049
140.41799927 96.87200165 422.12701416
45.46699905 122.00800323 473.11599731
245.60099792 161.50698853 442.38998413
85.06199646 66.16400146 445.02899170
82.74299622 116.26799774 514.56500244
68.59099579 74.26200104 466.27999878
105.81299591 52.25099945 488.24700928
94.85299683 97.57799530 508.53903198
134.89100647 185.62600708 427.75299072
60.99700165 162.11199951 429.98098755
52.04800034 86.14499664 498.44299316
109.11600494 52.80699921 442.12500000
130.34700012 61.05000305 432.51400757
89.10900116 80.17800140 512.61798096
38.40399933 118.09200287 495.59997559
179.78300476 150.46000671 442.11300659
124.15000153 162.68199158 478.90899658
41.52600098 140.53698730 530.45001221
137.04699707 158.98199463 471.53900146
212.13699341 154.74900818 448.58700562
153.83799744 66.30599976 455.82699585
83.13400269 133.52299500 508.68701172
153.34799194 124.23799896 467.20098877
123.47699738 70.31900024 424.03298950
167.53199768 197.09100342 474.05697632
40.04700089 130.11300659 534.88397217
171.88800049 164.83799744 438.54000854
57.48999786 83.55500031 528.35601807
140.63499451 145.94200134 413.76501465
48.71299744 121.48100281 461.60198975
49.03400040 157.88400269 503.95001221
78.78500366 153.75700378 472.68899536
104.81099701 170.45800781 478.73498535
145.05299377 59.36100006 462.61599731
141.72599792 166.24299622 457.38598633
66.71199799 77.37699890 461.07000732
127.30998993 150.46900940 408.32098389
172.10800171 175.79699707 483.73202515
144.87800598 57.68000031 454.98498535
208.63800049 172.61000061 448.71600342
38.23899841 148.30101013 499.29400635
154.78199768 78.78199768 466.66299438
81.04499817 61.08599854 487.51699829
179.49200439 134.03199768 458.97299194
118.83300018 112.55899811 406.53198242
57.38700104 184.53300476 460.12100220
125.86699677 101.87400055 493.74801636
150.56300354 158.58801270 485.65997314
74.34500122 192.44700623 439.09899902
127.89599609 51.80599976 466.14199829
64.79100037 113.84099579 428.99700928
40.49300003 106.71199799 503.08502197
44.79800034 112.08100128 477.45498657
196.50100708 159.79899597 473.57699585
162.29000854 89.80300140 454.13299561
141.61300659 220.35400391 455.95800781
81.60000610 154.19499207 409.22000122
102.68799591 52.54199982 450.02801514
143.78898621 152.78401184 473.20800781
140.38200378 157.12199402 476.31201172
177.35600281 183.96099854 478.80798340
71.37099457 159.42500305 469.46798706
159.23899841 114.17099762 457.08798218
180.24200439 199.11199951 467.92401123
71.28699493 190.55999756 461.44198608
51.12799835 157.32499695 454.23699951
73.03400421 135.90798950 510.56201172
115.76899719 204.47898865 438.45199585
53.79199982 117.15900421 451.24301147
122.59799957 128.11698914 498.60998535
192.94400024 152.07899475 459.57699585
114.69799805 74.00499725 421.04901123
140.24700928 109.12300110 419.48699951
168.92999268 185.21200562 481.08300781
170.42100525 222.75700378 452.41699219
57.70400238 82.75700378 481.52999878
52.73799896 162.74699402 495.22900391
92.50199890 191.72700500 428.69100952
107.44200134 73.05500031 498.00698853
91.82199860 202.84300232 439.70501709
224.97799683 165.10101318 443.64999390
153.32600403 98.80100250 469.50997925
75.15600586 129.47100830 411.14498901
63.70999527 142.96301270 421.28399658
51.44900131 88.33699799 524.53399658
181.65800476 222.92100525 455.86700439
198.91000366 196.19599915 453.13098145
56.50799942 80.98699951 506.40798950
148.63299561 204.47000122 443.38198853
121.26399994 216.94999695 465.41699219
131.89799500 166.43899536 457.59002686
70.45400238 187.03800964 437.56698608
172.89898682 153.03700256 438.86502075
79.94599915 148.46800232 408.71600342
182.10400391 199.00299072 448.87600708
112.86199951 50.96200180 446.76199341
67.65799713 171.43699646 461.34600830
147.50700378 149.26800537 484.07199097
152.84700012 186.35000610 483.22100830
128.59599304 51.07399750 455.57699585
37.09600067 139.70098877 499.67898560
51.32300186 96.62300110 540.56402588
69.62300110 68.97900391 485.26400757
153.67298889 140.75799561 490.52301025
64.64199829 74.05800629 483.09899902
49.13700104 89.14600372 507.32302856
78.19400024 175.71200562 422.09802246
167.41600037 140.93499756 484.45800781
153.06399536 220.11999512 468.12399292
49.68700027 157.37899780 459.60900879
40.83499908 157.69999695 490.89398193
66.23200226 72.72999573 513.22503662
91.68199921 61.37500000 505.77700806
163.48699951 214.79000854 448.89797974
125.31599426 129.11399841 480.47702026
159.17601013 138.99600220 465.10699463
76.38300323 74.20100403 442.52700806
78.97499847 158.45599365 411.55499268
87.45600128 142.90399170 406.41098022
130.76199341 183.49600220 424.86102295
95.21900177 196.04699707 432.45898438
79.44400024 110.77799988 413.04098511
175.85699463 218.60099792 448.67001343
150.49099731 160.44999695 425.24401855
207.33801270 160.49798584 446.83200073
125.41300201 159.41799927 408.85098267
154.84899902 87.94800568 467.86697388
35.68700027 131.82499695 516.52697754
101.28199768 199.08699036 433.94601440
155.92500305 213.32701111 448.06500244
86.99400330 110.68999481 408.72500610
130.32800293 223.65899658 472.64700317
92.23099518 88.09500122 508.84301758
72.14800262 113.78599548 523.01501465
38.30400085 117.30200195 527.44000244
95.98600006 171.77799988 412.90200806
84.37000275 87.35100555 419.75500488
89.80599976 94.81400299 413.50000000
99.59300232 62.47600174 503.76397705
174.53298950 213.38800049 446.02297974
35.28200150 126.02700043 511.36203003
137.13101196 170.88099670 464.57098389
81.01200104 192.06500244 434.50299072
94.88800049 101.69599915 409.16101074
59.65799713 91.27999878 539.24401855
139.50799561 71.06600189 479.70501709
59.61500168 102.27700043 538.96398926
231.61399841 165.28700256 448.64801025
159.46699524 140.83500671 482.44699097
64.91000366 72.97000122 499.44601440
143.10899353 209.56700134 473.60900879
66.86000061 194.44898987 451.31799316
133.47500610 185.27198792 483.98400879
118.39299774 81.13400269 418.13299561
93.04100037 54.82999802 475.65200806
181.23799133 150.18800354 476.92901611
163.83399963 140.19999695 455.72900391
48.92899704 166.33799744 494.21200562
78.97100067 195.47698975 456.30899048
65.09300232 173.15100098 429.59402466
55.24800110 83.68099976 513.32495117
48.43299866 93.12200165 527.83197021
113.64099884 96.04199982 496.06900024
93.82399750 54.83099747 481.26199341
140.41499329 143.10200500 477.40499878
120.09600067 165.31799316 481.59600830
36.61899948 135.38299561 505.05603027
199.08000183 155.85499573 468.55398560
147.09800720 178.96899414 486.43197632
131.34999084 134.40998840 480.41201782
132.40000916 128.47100830 411.11599731
72.38800049 200.88200378 450.63299561
86.09500122 73.72900391 430.44000244
41.16400146 120.26699829 482.94500732
222.65499878 164.04399109 456.12298584
212.73100281 162.98699951 464.67700195
67.07099915 88.36899567 447.71298218
74.89900208 184.96899414 463.79299927
59.18799973 116.36599731 441.99697876
177.39399719 172.19799805 444.16201782
202.57299805 168.16200256 448.81600952
135.67599487 175.51599121 457.12100220
73.92600250 123.63400269 516.89703369
112.98699951 140.02999878 492.58499146
145.80300903 77.02899933 430.35998535
90.97000122 149.86399841 474.19000244
96.61699677 63.75999832 433.17999268
37.60800171 114.07600403 514.70300293
39.41199875 158.14100647 502.59600830
231.71299744 171.36700439 446.11901855
95.13399506 169.27499390 469.96499634
133.71400452 56.75499725 474.70300293
73.39399719 71.02099609 521.08502197
50.13100052 166.33200073 461.40600586
67.85299683 193.60198975 445.51199341
193.68800354 200.95300293 459.60598755
61.50000000 115.66500092 435.62799072
59.43499756 97.27200317 456.63601685
172.86700439 194.38099670 443.73397827
112.76499939 189.29000854 425.16500854
171.40100098 168.76300049 483.84298706
116.25800323 190.10099792 459.59298706
157.41198730 148.89399719 492.63900757
140.28300476 139.17100525 483.36801147
146.90899658 147.83399963 419.89099121
157.14199829 162.80900574 429.89401245
145.10600281 124.27899933 484.75399780
59.50200272 157.02000427 496.37402344
83.82900238 105.64400482 515.78802490
54.99200058 164.65400696 484.56698608
159.51800537 185.70100403 481.35800171
116.92199707 68.86299896 424.41699219
149.20599365 137.92799377 487.33300781
106.82099915 79.00699615 416.51599121
102.12699890 84.58300018 413.75900269
119.50399780 101.43000031 410.36499023
122.71499634 177.46099854 418.09799194
65.47200012 74.79199982 522.19097900
58.15800095 112.49200439 535.28399658
135.56300354 133.66099548 496.11398315
113.75299835 140.18000793 469.94500732
59.22800064 144.95899963 430.49401855
158.83399963 122.99700165 449.96600342
109.51200104 51.52000046 484.67901611
63.61500168 190.16101074 464.47198486
104.86000061 193.88800049 428.92501831
173.71701050 154.67500305 483.38800049
71.86199951 94.41100311 430.80499268
71.42200470 169.02999878 422.19097900
220.63999939 176.34700012 446.22000122
187.73100281 181.38900757 450.66198730
132.41900635 66.36000061 484.16201782
59.91800308 166.39498901 435.91201782
194.23800659 161.63200378 451.07598877
196.10099792 190.49101257 451.27902222
111.18399811 87.23600006 413.65899658
164.36499023 219.85099792 450.74902344
102.05999756 95.73500061 411.15100098
186.52899170 156.64500427 448.68200684
178.05400085 192.00100708 446.85299683
100.02099609 125.29900360 504.34399414
179.81800842 207.05500793 462.80099487
132.08900452 66.03099823 428.95401001
72.95999908 67.66399384 473.90802002
184.67199707 166.75000000 447.00302124
39.35499954 122.95400238 489.63998413
90.53400421 69.30799866 511.66098022
119.71399689 60.89599991 491.93600464
143.74899292 56.90599823 449.89801025
125.21800232 78.74699402 421.05297852
134.03799438 98.73899841 416.95401001
62.01399994 76.69300079 510.34100342
153.59899902 136.52500916 427.85098267
129.17800903 153.26599121 473.79699707
87.10599518 57.68999863 466.73199463
177.03099060 203.04701233 446.25100708
125.14999390 119.16100311 498.76498413
106.84799957 50.42599869 472.41601562
169.75100708 139.04100037 460.33599854
199.12399292 199.76000977 458.64001465
65.94400024 181.57699585 435.75201416
128.99200439 188.98100281 481.45700073
96.09799957 159.84500122 466.15100098
123.02600098 50.44899750 464.06298828
128.90599060 171.65000916 481.33798218
64.66600037 188.30099487 444.58700562
113.55599976 130.42199707 403.43798828
157.34800720 223.75599670 465.62899780
39.64300156 120.31699371 537.00000000
221.49400330 157.35900879 454.87200928
184.47700500 175.46800232 479.85101318
96.02499390 153.21699524 469.86099243
166.28999329 173.09300232 438.22799683
208.20799255 177.68701172 448.67199707
49.48799896 171.52699280 470.63699341
57.33599854 91.44199371 465.04101562
117.70500183 49.76900101 471.64898682
216.45799255 171.80299377 459.99499512
76.81600189 64.88700104 506.90197754
72.69699860 139.26699829 412.28100586
155.27301025 197.74099731 439.23199463
160.44400024 192.66499329 478.93200684
155.24501038 119.62500000 432.78500366
134.56900024 109.31300354 414.31201172
107.68399811 90.45299530 411.19500732
186.87400818 216.97399902 448.70199585
102.69100189 58.33900070 436.19097900
124.54499817 201.23100281 471.64199829
147.04299927 212.93899536 449.96600342
52.71900177 144.67799377 448.83099365
114.05199432 146.06199646 477.45300293
100.16799927 191.93998718 456.92398071
105.90699768 181.21099854 469.88998413
106.32699585 100.44699860 501.93099976
166.65400696 223.52400208 461.12799072
124.91899872 138.89999390 406.18701172
126.14500427 221.53300476 462.51998901
129.67700195 178.35900879 460.55499268
132.58300781 216.14801025 450.98098755
133.16099548 157.17999268 412.25698853
150.25900269 62.74300003 447.00302124
71.06400299 179.17199707 429.70800781
188.47000122 190.99000549 451.20599365
50.84099960 137.69599915 522.80401611
57.39799881 133.53599548 436.54598999
178.67300415 130.29399109 474.66400146
70.65200043 81.30100250 445.40301514
117.09000397 139.05900574 466.37200928
156.92601013 122.27999878 461.65798950
118.48500061 132.59700012 474.22500610
43.32600021 97.83600616 509.17602539
186.71099854 172.22200012 448.78302002
111.09100342 144.26000977 482.68099976
92.19699860 90.16699982 413.82797241
118.07099915 135.40499878 497.73999023
96.09799957 179.01899719 468.93798828
135.08898926 175.27699280 421.34298706
94.87300110 145.84700012 494.68499756
56.58800125 101.50000000 460.44201660
120.43700409 173.63398743 479.00097656
151.41000366 68.15499878 439.44201660
99.70100403 147.77700806 478.08099365
109.66099548 118.43899536 403.66299438
176.49400330 222.77000427 458.81500244
158.23699951 74.78099823 456.03799438
52.20999908 85.42499542 509.24600220
157.72700500 143.52799988 429.71899414
37.64799881 138.61100769 525.68603516
119.68699646 143.90100098 405.99700928
128.05599976 111.88800049 494.54199219
209.20999146 181.58000183 459.08700562
155.65200806 139.17799377 478.42199707
100.25299835 94.17199707 503.79199219
105.25900269 183.60800171 420.46499634
118.74599457 194.36499023 430.02999878
72.70999908 166.46299744 461.80499268
139.79400635 222.63499451 476.01397705
77.10800171 137.52700806 409.30599976
156.26899719 117.97200012 470.50500488
124.80200195 93.31200409 413.40399170
180.61999512 175.86000061 446.92001343
152.19900513 92.52300262 470.75598145
180.60598755 158.35499573 443.61801147
83.98600006 102.06900024 413.37399292
149.32798767 85.52500153 473.63098145
36.44400024 120.47699738 517.75097656
139.56900024 186.51300049 483.59500122
36.96500015 118.59499359 506.40798950
130.15200806 77.23300171 486.16799927
126.45600891 132.66200256 472.25799561
120.11299896 200.94700623 463.66198730
185.54699707 158.10600281 478.76300049
110.59999847 198.44500732 453.73400879
160.38400269 84.91500092 459.03701782
142.73400879 193.23699951 481.33798218
139.07699585 187.22898865 430.12197876
184.68099976 197.63400269 466.39498901
71.10299683 116.08900452 418.44000244
117.69100189 188.70899963 469.43899536
86.10600281 68.37799835 436.28500366
154.34899902 102.38199615 435.93200684
65.31900024 162.23300171 423.36499023
141.00999451 193.13900757 435.43801880
103.87300110 105.26999664 407.98898315
131.76100159 150.55799866 410.39898682
87.24000549 164.90200806 461.25399780
149.63499451 97.29699707 472.37701416
229.36799622 161.60101318 443.92898560
178.95300293 187.32699585 448.03500366
151.86999512 113.56700134 429.76599121
157.58399963 86.54399872 437.71499634
86.91199493 59.93099976 457.13000488
203.87300110 154.59201050 453.15600586
138.83599854 129.53599548 414.26699829
86.65200043 67.70800018 514.35101318
158.36399841 211.05799866 467.38400269
147.01800537 101.16799927 427.50100708
116.00799561 120.04499817 406.07101440
76.17499542 183.80599976 430.06701660
42.32099915 100.75599670 514.95898438
117.69699860 174.08999634 414.64297485
203.49200439 195.27299500 451.70401001
37.90400314 131.18499756 493.65197754
59.01300049 132.67500305 519.63000488
40.28900146 112.19699860 533.23602295
165.61900330 205.09498596 443.44299316
203.01799011 172.51800537 469.45800781
41.23900223 149.46299744 482.32998657
116.32700348 140.26899719 488.06900024
61.28499985 148.11700439 507.64697266
90.39700317 119.82999420 406.12500000
116.87300110 134.02799988 405.32101440
173.14100647 132.31700134 479.99200439
141.55200195 135.00801086 493.92001343
149.86300659 189.66400146 481.28100586
186.66600037 148.95098877 454.91601562
122.07700348 153.16499329 405.94299316
157.24900818 73.08499908 444.80999756
98.04399872 155.07798767 404.35800171
165.05700684 177.43299866 484.34600830
163.77799988 187.74198914 440.76800537
82.23500061 73.04000092 520.18603516
230.70899963 158.55300903 448.96899414
95.45300293 166.38598633 409.21899414
159.93400574 154.10800171 485.13699341
83.66500092 134.37300110 405.88500977
62.04199982 123.43800354 429.45297241
164.50900269 146.55599976 437.36801147
46.20600128 103.74599457 478.10501099
82.52199554 203.27999878 445.04101562
175.91198730 160.67599487 483.93698120
80.81999969 123.97400665 513.55603027
67.11000061 155.85101318 487.14700317
202.32998657 159.97000122 448.80700684
85.36499786 149.21499634 487.46600342
134.79598999 116.01599884 491.32498169
136.04701233 84.22800446 483.25799561
60.21900177 91.47699738 458.45602417
130.33799744 90.95800018 487.02499390
120.55500031 124.85800171 477.92898560
136.54899597 67.77200317 429.48800659
172.28500366 143.88699341 449.95498657
206.44999695 188.55599976 457.67797852
72.44699860 67.53300476 479.53399658
145.27799988 147.83500671 480.05700684
148.68399048 226.26699829 465.93298340
160.33700562 195.38299561 441.26901245
177.27200317 137.77198792 455.07400513
138.31298828 100.35900116 419.58999634
91.93499756 207.92199707 451.12298584
64.13800049 192.39099121 455.26599121
125.46299744 199.87001038 435.38998413
125.34500885 52.65700150 442.20297241
132.84399414 164.70899963 461.98898315
164.50799561 157.39500427 433.69201660
44.71300125 165.38900757 496.61999512
122.52400208 208.43901062 442.41500854
157.22300720 94.50700378 437.85598755
210.07699585 188.71598816 448.60000610
119.20700073 136.76199341 480.00000000
122.77300262 167.98399353 412.35101318
125.62899017 60.52199936 431.98098755
162.86698914 202.74899292 471.56500244
115.82299805 159.28800964 405.87698364
183.27200317 149.07200623 445.06100464
132.65599060 193.30699158 480.77700806
191.74400330 210.59100342 453.00701904
142.31700134 139.93699646 415.37298584
50.08000183 129.32299805 455.86898804
145.81900024 225.12400818 473.76998901
126.07899475 147.40100098 476.19699097
199.84400940 163.28799438 473.63900757
89.90799713 121.51899719 509.07098389
109.59299469 70.82700348 422.04299927
87.21599579 110.64600372 513.01702881
84.61699677 86.47200012 517.06304932
191.71699524 174.28399658 475.90100098
194.74899292 177.61999512 473.33300781
103.18700409 78.97399902 500.25701904
37.21100235 140.98100281 521.59796143
66.50599670 85.83599854 533.99597168
57.39799881 173.13900757 468.23400879
131.36099243 94.87599945 416.33700562
155.19400024 220.85400391 453.88000488
133.16500854 209.92900085 444.22399902
65.38199615 77.40899658 527.01995850
64.49300385 98.71199799 442.20700073
156.69400024 151.69799805 487.85299683
96.02799988 148.00700378 403.68597412
138.53298950 96.98400116 482.46099854
164.12899780 208.87899780 466.86999512
172.06600952 174.53700256 441.48199463
161.48400879 165.08300781 433.82299805
104.74800110 210.34100342 448.28900146
118.21199799 85.12700653 494.05499268
214.43499756 164.13400269 445.77801514
159.42199707 218.33300781 463.90301514
93.68599701 185.37100220 422.67599487
125.96100616 55.63199997 484.02099609
43.31500244 148.27899170 473.69598389
69.82299805 152.83100891 496.56298828
77.18800354 89.91300201 425.21301270
74.91500092 157.80099487 413.86398315
93.91299438 141.41699219 403.70397949
81.45899963 157.50299072 466.73599243
142.62500000 113.06200409 420.49801636
165.30400085 143.18299866 492.47500610
144.83100891 200.37899780 478.63098145
140.03900146 135.29899597 414.04699707
54.15799713 167.01699829 479.64999390
121.54599762 143.60800171 474.51400757
126.63699341 215.07099915 470.24301147
141.64199829 120.43199921 486.53298950
124.79000092 174.98500061 480.14300537
69.71299744 101.07599640 427.45599365
130.29600525 204.94699097 440.23599243
57.12699890 179.39599609 452.54702759
102.66699982 141.14199829 496.89297485
47.10900116 92.55400085 515.28399658
156.23100281 75.00099945 461.72198486
79.38099670 62.39199829 474.31399536
116.32599640 211.72100830 447.37600708
81.96900177 174.73599243 419.48699951
197.71400452 175.44799805 448.54998779
195.71398926 153.18399048 455.90600586
120.11600494 106.48600006 496.89999390
64.90200043 143.16200256 510.01602173
111.72200012 82.97999573 416.47799683
150.34500122 114.44100189 474.76101685
80.70999908 71.50799561 438.53698730
151.93598938 106.40099335 432.29101562
57.15100098 161.88000488 439.63000488
205.63499451 159.64601135 468.21798706
86.64300537 149.28099060 476.83398438
127.14299774 192.38800049 430.14300537
217.29600525 186.88600159 449.80697632
115.14900208 79.46900177 493.77502441
114.69799805 213.19000244 456.23098755
38.91199875 110.77400208 522.94500732
147.58599854 72.30299377 473.79299927
131.67900085 123.13800049 495.63598633
70.65500641 124.40799713 415.90499878
168.96900940 218.95500183 461.15197754
146.18099976 158.38900757 482.83599854
149.50999451 218.94100952 471.15701294
172.61900330 134.96699524 461.82901001
173.81300354 127.82099915 467.73498535
177.36000061 167.94299316 442.28100586
66.16699982 146.94898987 418.44601440
47.71799850 162.36599731 467.63400269
166.53500366 197.42800903 441.12899780
73.21099854 100.39900208 422.80700684
80.14299774 104.72500610 518.80700684
174.30999756 147.71301270 490.23898315
38.20300293 144.73899841 496.31698608
49.71400070 90.00399780 518.67297363
171.96301270 181.12300110 442.96499634
158.95498657 182.20100403 436.39697266
86.64499664 66.09700012 440.39599609
106.73699951 159.06600952 474.55902100
161.14999390 169.90600586 434.96701050
89.24599457 173.22599792 415.69000244
48.85300064 104.96500397 543.88299561
138.16499329 63.46900177 477.82998657
70.44100189 88.47399902 439.23599243
236.66600037 168.14799500 446.01699829
211.65899658 174.09999084 461.93298340
95.54599762 138.97200012 501.56402588
66.52099609 123.43000031 421.73599243
133.18499756 138.51399231 411.13299561
147.73599243 94.79899597 428.72802734
186.53900146 182.40399170 474.72698975
133.85400391 169.54399109 454.45401001
121.45200348 142.11499023 479.42901611
91.14900208 173.41000366 468.62799072
57.86999893 79.25900269 493.36401367
67.02899933 151.80101013 500.08898926
83.84200287 189.34999084 429.98098755
134.35700989 74.36199951 426.08700562
128.10299683 68.26499939 426.17602539
46.03699875 98.78499603 486.85101318
61.78499985 188.58499146 453.79498291
201.27799988 185.64001465 451.56900024
90.73100281 76.27200317 510.79202271
134.04899597 137.97399902 474.35998535
41.11000061 107.55400085 492.54699707
146.04499817 205.83399963 475.65600586
74.01000214 195.53199768 442.49002075
123.41600037 215.51899719 450.37698364
42.09700012 127.71700287 479.92398071
142.37300110 87.32900238 478.51800537
44.59299850 126.54100037 471.98098755
186.38400269 150.31500244 449.77200317
59.99000168 180.57000732 463.39700317
229.04800415 175.78401184 444.85800171
41.81999969 159.05999756 486.63699341
92.35700226 93.26399994 509.29998779
207.92100525 156.33999634 462.41900635
95.54599762 84.62099457 506.06298828
49.34500122 89.02500153 500.75100708
134.72799683 203.26800537 438.87799072
50.88700104 94.85700226 474.41900635
40.75299835 105.56700134 520.20104980
100.31100464 177.21299744 415.63601685
38.52000046 131.33399963 530.64898682
140.91200256 167.97799683 486.48101807
144.22999573 73.34899902 476.87399292
143.01300049 162.06900024 420.16500854
107.35300446 134.41999817 501.13201904
161.51399231 93.75900269 457.04901123
50.72699738 173.70300293 466.82400513
101.12900543 185.73200989 463.24600220
128.01399231 129.04899597 498.27899170
202.69100952 181.78300476 448.54901123
111.13099670 151.94299316 474.32101440
198.04798889 185.06098938 466.48898315
194.23399353 173.30000305 450.82797241
79.52500153 160.79699707 463.89898682
181.84899902 155.26100159 479.23599243
237.42399597 167.73399353 441.33401489
53.74200058 172.46800232 472.28399658
64.36599731 85.91400146 454.28698730
129.72200012 203.49598694 476.24398804
167.61199951 166.94400024 486.42297363
125.72899628 118.84299469 408.45501709
148.44700623 144.48699951 486.33999634
63.54399872 75.22799683 515.90002441
137.23200989 58.30299759 437.10601807
102.23300171 151.14698792 472.53399658
132.10200500 145.06300354 473.36502075
87.62300110 161.04699707 408.55099487
94.22299957 55.23300171 456.00900269
116.43900299 137.75601196 476.11700439
124.60500336 185.16300964 423.78802490
137.73599243 126.58500671 492.86300659
78.63600159 65.61700439 460.76101685
77.70999908 166.29299927 416.71600342
46.18700027 168.19000244 489.29797363
143.32998657 87.75299835 426.22100830
111.14700317 134.85899353 468.47500610
153.66398621 104.95000458 469.13800049
195.09700012 165.41700745 448.58300781
99.36100006 120.55099487 403.71701050
58.45699692 105.51200104 451.79901123
111.10299683 172.14299011 481.13998413
221.17599487 178.54901123 451.24899292
163.88999939 178.75599670 438.44598389
183.10600281 143.59599304 464.04202271
124.41000366 136.87500000 494.33999634
49.17800140 94.55999756 483.28598022
141.15299988 114.66900635 484.37899780
46.47999954 169.45500183 483.31100464
147.69200134 154.19400024 421.16601562
49.49700165 150.38500977 510.21395874
110.86499786 49.46000290 468.98999023
61.96200180 126.00399780 522.58599854
157.37500000 76.37400055 441.13000488
49.48099899 117.58599854 540.06396484
116.01799774 71.64399719 493.75399780
66.58799744 157.31999207 477.48397827
75.29299927 108.61899567 522.21398926
135.89799500 138.56799316 485.62399292
54.69699860 85.30999756 525.30401611
124.86500549 92.34899902 491.15100098
157.50299072 198.09199524 476.30499268
117.99799347 147.79299927 404.21701050
43.88100052 110.64100647 541.64501953
115.86399841 116.89999390 501.62899780
115.02200317 197.75601196 457.67901611
119.20800018 194.36000061 469.14801025
44.14299774 145.81201172 521.16198730
104.19499969 110.20199585 505.61703491
94.11299896 54.05400085 471.09799194
133.56600952 152.16499329 471.39199829
86.36399841 130.41999817 508.82400513
224.12001038 179.54600525 446.69100952
113.95099640 128.70500183 501.49899292
84.94400024 60.32299805 461.94100952
69.96600342 163.22100830 466.30902100
151.24499512 167.70700073 487.98599243
226.37500000 169.35501099 443.70498657
111.50099945 169.56500244 410.66000366
55.35499954 148.62400818 509.65298462
139.35301208 158.88999939 460.08398438
44.72800064 123.64699554 539.56500244
128.36299133 158.82398987 475.12899780
122.78700256 123.56500244 498.89199829
127.70999908 174.59901428 453.93899536
140.15998840 212.75399780 447.56399536
145.39300537 106.14099884 424.51797485
102.75600433 143.78799438 489.35299683
52.23600006 90.47599792 481.13302612
213.39100647 187.13499451 453.30398560
62.36800003 172.32299805 433.02499390
93.13999939 132.18598938 506.23397827
108.86699677 50.22100067 476.70098877
186.47601318 165.34500122 481.07299805
72.64099884 70.22399902 465.57199097
61.29600143 77.28499603 484.18899536
145.49000549 66.52400208 472.54898071
45.77599716 96.28099823 495.45098877
156.48800659 209.33000183 445.74002075
53.89699936 151.78599548 443.12399292
142.36299133 150.52799988 469.65100098
159.97000122 78.94400024 454.74801636
194.41899109 185.08900452 469.44201660
96.53700256 56.58100128 497.80700684
115.83699799 208.02099609 457.90100098
134.41999817 79.42599487 483.45898438
64.48999786 128.98600769 422.42800903
61.83200073 97.85699463 451.05001831
100.07599640 166.52398682 472.30801392
60.36499786 158.71800232 492.32000732
116.41400146 145.14399719 473.68197632
91.73699951 100.88800049 510.55300903
97.73600006 146.25500488 487.03701782
132.18598938 208.97599792 473.75500488
120.44099426 186.71398926 477.91201782
85.44300079 58.94200134 497.90798950
78.42800140 146.36500549 500.44601440
184.37899780 160.40701294 446.70501709
76.37400055 151.79600525 481.69198608
218.20799255 166.77500916 460.80801392
68.73300171 108.92900085 424.35000610
144.99198914 114.40899658 481.15200806
160.60798645 118.61900330 452.76800537
56.02000046 108.18499756 455.73101807
113.75299835 140.02198792 403.69601440
36.24000168 136.51899719 514.32904053
55.00999832 165.09999084 446.34301758
87.29100037 138.68600464 504.10498047
115.40800476 181.50299072 419.31701660
67.45999908 101.97699738 434.41400146
151.66200256 129.66300964 459.59500122
163.44200134 150.09899902 433.77600098
100.43199921 178.52899170 470.92199707
133.18798828 180.87998962 483.76599121
80.47399902 185.86500549 461.99700928
111.17099762 57.37599945 434.85702515
64.43899536 170.70999146 464.61001587
117.25699615 179.59399414 478.55801392
51.49000168 113.78599548 462.63198853
41.96099854 154.36099243 480.49798584
143.50199890 181.97799683 484.42501831
143.63500977 91.44400024 477.63500977
74.08600616 139.44999695 508.18502808
114.45500183 136.52999878 463.47900391
216.51300049 156.21099854 456.90600586
110.32299805 127.46299744 403.71298218
39.79500198 106.89800262 507.41500854
153.89601135 152.06100464 424.84799194
144.57899475 97.97699738 425.46798706
121.00499725 53.23100281 440.43200684
89.38600159 148.53799438 406.44500732
57.47700119 175.99600220 449.70501709
75.65800476 203.32600403 452.74099731
122.65899658 135.92900085 483.05099487
36.31699753 141.06799316 505.86895752
39.84399796 128.62100220 487.73501587
63.78599930 96.89299774 446.25000000
127.61299133 167.75900269 479.19400024
83.18699646 158.96600342 410.49398804
98.39099884 73.03400421 504.54003906
111.46400452 206.14700317 439.80499268
38.95199966 138.61599731 489.48400879
207.82099915 191.70098877 450.93499756
94.35700226 70.95400238 427.40399170
91.07899475 57.63600159 499.51400757
38.23899841 114.84799957 502.96401978
60.47999954 153.33900452 501.78201294
114.80500031 142.27200317 483.79800415
121.88700104 97.81800079 410.86798096
153.22000122 129.54400635 429.13101196
79.59999847 150.43699646 491.35198975
215.86599731 160.12998962 461.42898560
74.65499878 155.08599854 472.99502563
189.22200012 187.97799683 470.20199585
40.79699707 129.66899109 483.58398438
190.60699463 208.71099854 449.25698853
83.03099823 177.02899170 464.94400024
145.12300110 162.48400879 462.86300659
80.70800018 143.05999756 502.44702148
106.41200256 51.10599899 455.39401245
171.14601135 193.15299988 476.26800537
179.88200378 141.96301270 454.94601440
71.89700317 128.05500793 413.90802002
168.08000183 142.86898804 450.27099609
150.98500061 156.34599304 423.93301392
129.96600342 212.25199890 446.73699951
78.51000214 118.53999329 411.11599731
79.39600372 69.35899353 520.35101318
45.18799973 97.32299805 520.63696289
162.56498718 96.38899994 450.43701172
54.84799957 132.70098877 522.65802002
42.38800049 104.66400146 528.77600098
92.66299438 113.92900085 509.33499146
149.44400024 121.09799957 425.38299561
116.28299713 101.99499512 496.41201782
177.13899231 163.69000244 441.52899170
156.43598938 114.32500458 437.39102173
51.71500015 87.50499725 490.31100464
67.57499695 117.25299835 422.54000854
145.85598755 138.89599609 418.32901001
47.75600052 119.64800262 467.82299805
157.93399048 162.90399170 486.29400635
68.29900360 118.21900177 523.07202148
63.92300034 79.79100037 530.34503174
145.79400635 81.58699799 428.79299927
103.18199921 187.00000000 422.36099243
70.30599976 154.14500427 480.39999390
74.49299622 82.60900116 437.67999268
180.86900330 134.51799011 476.87399292
70.84799957 83.96199799 531.01800537
51.80700302 168.35301208 457.33599854
148.32400513 70.95700073 434.76300049
60.34199905 76.93000031 501.18600464
64.31599426 106.20999908 437.18099976
115.65299988 90.44999695 413.64700317
202.18699646 180.43499756 465.61700439
61.37699890 81.86199951 468.96298218
