ply
format ascii 1.0
element vertex 2048
property float x
property float y
property float z
end_header
263.45074463 242.40083313 391.19262695
266.23419189 253.09457397 397.71987915
270.55245972 237.91787720 392.83987427
270.83920288 246.97546387 396.14739990
113.60034180 122.92807007 405.22439575
103.57640076 125.04751587 405.12210083
120.39396667 123.36253357 396.35043335
110.52637482 124.28409576 394.59243774
247.37579346 201.40266418 391.14996338
256.05047607 206.95220947 395.00570679
254.12960815 205.22172546 383.53115845
261.23687744 207.18577576 387.28747559
85.41545105 145.84753418 453.03582764
79.99715424 154.30603027 456.98251343
86.09683990 141.35675049 443.31298828
79.81956482 149.24772644 445.98788452
97.88385773 131.51028442 431.89950562
89.75737762 138.00083923 435.09753418
102.53872681 127.21395874 421.94699097
93.78297424 132.69403076 423.29782104
257.97781372 264.60821533 403.77127075
259.17071533 269.66589355 413.63500977
266.01934814 260.36206055 404.63073730
264.47924805 266.12292480 410.18389893
127.31335449 124.82541656 391.29919434
116.72383881 125.54064178 388.39315796
135.23715210 128.71209717 384.99780273
125.87528992 128.84214783 381.55609131
83.03099823 145.07522583 427.21438599
77.92540741 153.72674561 430.74084473
86.58850098 141.67214966 417.87185669
80.66061401 149.87582397 420.53274536
81.66251373 182.34045410 503.23223877
81.34793854 191.81040955 508.21139526
76.37198639 182.28640747 496.62683105
76.35678101 191.28536987 500.57232666
99.89871216 129.69955444 406.39059448
92.18532562 136.19302368 407.35092163
106.23208618 129.47949219 397.80044556
98.48008728 134.92288208 397.82144165
77.89296722 171.02305603 481.86932373
76.23703003 180.16099548 487.67944336
76.21121216 168.56195068 471.47863770
74.05798340 177.56091309 476.58517456
251.70945740 274.68557739 424.05685425
251.49325562 277.64709473 435.01892090
259.72082520 271.41421509 423.59527588
256.90939331 275.39718628 430.57516479
245.61947632 221.71653748 384.68194580
246.13679504 235.07986450 385.51382446
255.92788696 220.27275085 386.48452759
252.98265076 229.20149231 386.22912598
76.61770630 164.18788147 452.30993652
74.24346161 173.36058044 457.81219482
77.32756805 162.43133545 441.49264526
74.41670990 171.58857727 446.34054565
241.50476074 283.57205200 444.81042480
239.75543213 283.21252441 456.12957764
250.16398621 280.34545898 442.61267090
246.43395996 282.04412842 450.46505737
118.79786682 128.46319580 414.63546753
110.46292114 132.49746704 421.35864258
130.34094238 128.55149841 406.62722778
122.07162476 132.13748169 411.68069458
110.28117371 133.41339111 381.72067261
102.74922943 139.80261230 380.59429932
118.74304199 136.22000122 375.63250732
111.54695892 142.00698853 373.81610107
80.78686523 153.16751099 417.33172607
76.73327637 161.88465881 422.16635132
84.92200470 149.51928711 406.96997070
80.26617432 158.07427979 411.09692383
244.10467529 244.42976379 386.13204956
243.73406982 256.22183228 390.65469360
254.15853882 243.21464539 389.82733154
249.64167786 251.22204590 391.07211304
140.83909607 131.36761475 391.91082764
140.44146729 131.14178467 402.46557617
150.86528015 135.78988647 386.46838379
150.51040649 135.59204102 396.57531738
85.93514252 149.42520142 400.62780762
80.73979187 158.17321777 403.51910400
92.60884094 146.74981689 391.11346436
86.70990753 154.81838989 393.24255371
94.49687958 157.38555908 474.73419189
90.28501129 164.60095215 481.38595581
100.07248688 153.72334290 465.12335205
96.14919281 160.69937134 470.94119263
88.56916809 210.92550659 508.55438232
93.42189026 219.08287048 511.15496826
90.66943359 220.37808228 505.93258667
95.29052734 227.71315002 508.81158447
136.24371338 134.23844910 377.92715454
126.74674225 137.11022949 372.39498901
145.14038086 140.90225220 375.86563110
137.13357544 143.73397827 370.00915527
79.21663666 195.69227600 495.26821899
81.66230011 205.25488281 500.79269409
80.49061584 202.86810303 489.21099854
82.98454285 212.43841553 494.49996948
104.59101868 140.14465332 440.04452515
100.21507263 146.79638672 448.72692871
114.71340942 139.01638794 431.69992065
111.61048126 145.49537659 439.55618286
97.48006439 151.01361084 382.36193848
91.40547943 159.64582825 383.22814941
106.33329773 149.00225830 373.42312622
99.79544067 156.63459778 373.53320312
96.62396240 188.19828796 509.72415161
94.83097076 198.29751587 511.85638428
102.92535400 193.52006531 510.25231934
100.78468323 203.68106079 512.58026123
236.06385803 261.00445557 397.23739624
233.74462891 268.66671753 404.57534790
246.22340393 260.25961304 399.80117798
240.32664490 265.35772705 402.85903931
75.83843994 180.66114807 475.17855835
76.21617126 189.95738220 481.86309814
76.04703522 183.28633118 464.03118896
76.79428864 192.74470520 470.62503052
226.55702209 275.53491211 464.92749023
221.59548950 275.86019897 473.10900879
236.06768799 273.93603516 462.31994629
230.25900269 274.80487061 467.89669800
93.42381287 231.03523254 502.86111450
100.08906555 234.91894531 506.43600464
99.08290863 241.22323608 501.13690186
104.74827576 243.52268982 504.98199463
75.72521973 168.21737671 425.46685791
73.15939331 177.66030884 430.84509277
78.63391113 166.19445801 414.61480713
75.40454865 175.65283203 419.26968384
254.61064148 243.34341431 421.43414307
255.31326294 253.11738586 429.31887817
261.70623779 244.13281250 415.46066284
258.82299805 249.00363159 422.47747803
207.34350586 288.20648193 465.16085815
203.02691650 286.20141602 474.83541870
217.34248352 286.14663696 466.98245239
211.30384827 286.71234131 472.34597778
227.38812256 234.21182251 380.71563721
224.70648193 247.23928833 382.72119141
237.65335083 233.18144226 383.09469604
232.11056519 241.82957458 383.46978760
156.08665466 142.32679749 379.28173828
149.85473633 141.24679565 375.59396362
162.28285217 150.53964233 378.58276367
157.72738647 149.25891113 374.04080200
98.25335693 169.96316528 491.80200195
97.08409119 178.96212769 499.51925659
107.59880829 171.32400513 489.64782715
106.64524841 180.90399170 496.45590210
246.03308105 212.47424316 404.97625732
248.49707031 222.38815308 414.27441406
254.56375122 215.63169861 398.87368774
252.01348877 218.86177063 406.86746216
223.44799805 198.12094116 387.91629028
226.71693420 197.22431946 389.77999878
234.70249939 199.25955200 384.35299683
234.64556885 197.64704895 386.47705078
230.42242432 277.96588135 423.45559692
228.69192505 280.95831299 434.79403687
240.41452026 277.69393921 424.38278198
234.66349792 279.71737671 430.50152588
75.70886230 182.35107422 450.75338745
75.82649231 191.65888977 456.94671631
75.80163574 181.93028259 439.88592529
75.74698639 191.40795898 445.94702148
134.04304504 135.55525208 414.49203491
129.99958801 142.55636597 424.69549561
145.77818298 138.72091675 408.03439331
142.23225403 144.60054016 417.26885986
229.90820312 211.92558289 381.52694702
224.62309265 223.25631714 379.85845947
239.59916687 212.98434448 384.25372314
233.94947815 219.33351135 383.08999634
108.78224945 149.91746521 452.93438721
106.54728699 157.24673462 463.41967773
118.41265869 150.89225769 445.74771118
117.52545166 158.22346497 455.69250488
240.23942566 252.73188782 448.15930176
239.11117554 263.11004639 455.45288086
248.00259399 254.72026062 442.86105347
243.55654907 259.63739014 449.35250854
177.63873291 286.28656006 480.87277222
171.59599304 282.89843750 486.77655029
186.06922913 284.98168945 485.28924561
180.26054382 283.98910522 488.17755127
122.62651062 139.42526245 431.29895020
117.90263367 147.90112305 440.08944702
133.19381714 143.44989014 427.30810547
129.43460083 151.37176514 435.59674072
82.13372803 206.52377319 483.35110474
84.87665558 214.66181946 489.98449707
83.85649872 212.10420227 474.29565430
86.63996124 220.19400024 481.36822510
126.90116119 147.60321045 367.65148926
119.94057465 154.25302124 363.00726318
137.54666138 152.02548218 366.57440186
131.35624695 158.91271973 361.10400391
108.55358887 163.59747314 475.93395996
107.82443237 171.17190552 485.99841309
117.36676025 165.86169434 471.60095215
117.12210083 173.74110413 481.14813232
194.32936096 169.61186218 406.52047729
200.36534119 169.03375244 415.46926880
199.29452515 175.63626099 401.95391846
205.01200867 174.53215027 411.25015259
202.68859863 269.07781982 479.91055298
194.85937500 271.84631348 482.86096191
211.02113342 268.37591553 479.87820435
203.68510437 269.79672241 482.08694458
113.54846954 189.31608582 501.40948486
110.04404449 199.56587219 506.12902832
121.50025940 194.53749084 498.77947998
118.32011414 205.03820801 503.59359741
211.22113037 282.69427490 438.47134399
206.89888000 283.95425415 448.08029175
220.73741150 282.40231323 441.03353882
214.04634094 283.74938965 445.62039185
78.47776031 168.37657166 405.45825195
75.91869354 178.76147461 409.35595703
83.80146790 165.36532593 394.63613892
80.59817505 175.58808899 397.73904419
109.62008667 220.38560486 510.36965942
105.26731110 228.32870483 511.34613037
118.06314087 226.63296509 507.03439331
112.99229431 233.42175293 508.74340820
95.20391846 166.23190308 379.29006958
91.03258514 176.10334778 380.13165283
103.84578705 163.91941833 369.85113525
99.25558472 173.16932678 369.93664551
153.00256348 138.81353760 403.59341431
153.26654053 145.44403076 413.61929321
160.21023560 144.07160950 398.37103271
160.46286011 149.93000793 408.16140747
233.17791748 222.53529358 436.19836426
232.35900879 233.78495789 444.36730957
241.43035889 226.60552979 430.13391113
236.62998962 230.65235901 437.70156860
140.29563904 145.05789185 426.13415527
139.37200928 151.54364014 437.15603638
150.57968140 148.93968201 421.57482910
149.24635315 154.21127319 431.87866211
121.53736877 247.37446594 503.78570557
116.49064636 248.29472351 506.55709839
131.33836365 252.50321960 500.05712891
125.11996460 251.61251831 503.31158447
145.39935303 278.71591187 480.64309692
141.22367859 274.85076904 488.35455322
153.88728333 280.46279907 483.14520264
148.47814941 278.13922119 487.66207886
200.74493408 175.21069336 427.13916016
199.40193176 179.70825195 438.30776978
208.45108032 179.37261963 423.13769531
205.44442749 181.32606506 433.26782227
142.06990051 200.99613953 486.56979370
139.13002014 200.98965454 486.66851807
142.70780945 201.03324890 486.48382568
142.08619690 201.04080200 486.56097412
148.01525879 198.51161194 477.82788086
145.30360413 198.50862122 477.90374756
148.57963562 198.56236267 477.78341675
148.06623840 198.56887817 477.84063721
135.94294739 192.31083679 488.11865234
133.16461182 192.31330872 488.20080566
136.57246399 192.36370850 488.06161499
135.95101929 192.38020325 488.12274170
121.57469177 195.55184937 499.03527832
118.94203186 195.55212402 499.13909912
122.25794983 195.58383179 498.98248291
121.65312958 195.59809875 499.05844116
112.89708710 195.42137146 504.93560791
110.64448547 195.42335510 505.00683594
113.48498535 195.42431641 504.93334961
112.96766663 195.43692017 504.97918701
135.65731812 210.30947876 493.28656006
132.71997070 210.29696655 493.38632202
136.32424927 210.32641602 493.20660400
135.67318726 210.33320618 493.28280640
184.88647461 235.33630371 471.89880371
181.55307007 235.33320618 471.94470215
185.46304321 235.36489868 471.91891479
184.94021606 235.37953186 471.96209717
124.81990051 204.92849731 500.24850464
122.26728821 204.90809631 500.37017822
125.45842743 204.95159912 500.21554565
124.88481140 204.95005798 500.31112671
172.86695862 228.34696960 473.61785889
169.62110901 228.33505249 473.65341187
173.44361877 228.36727905 473.61996460
172.86596680 228.37593079 473.64993286
184.77116394 265.88583374 486.91958618
180.56602478 265.90414429 486.89483643
185.45452881 265.92971802 486.92504883
184.70817566 265.97140503 486.91076660
181.09283447 244.22373962 476.26547241
177.38220215 244.21891785 476.29827881
181.73719788 244.24647522 476.26046753
181.09310913 244.26556396 476.29205322
113.74389648 207.86900330 504.22418213
111.38914490 207.85708618 504.30950928
114.35789490 207.87730408 504.16912842
113.80268860 207.87910461 504.22982788
153.72259521 204.37608337 457.91183472
151.15499878 204.36141968 457.94610596
154.22734070 204.40298462 457.92257690
153.73117065 204.39997864 457.94824219
189.28683472 252.68029785 480.43792725
185.35174561 252.66452026 480.49707031
189.96311951 252.72052002 480.42526245
189.29548645 252.73118591 480.47644043
167.46186829 236.56918335 481.65740967
163.95449829 236.57350159 481.67327881
168.11901855 236.58467102 481.65933228
167.44569397 236.60960388 481.67578125
118.84025574 238.82911682 504.28646851
116.47749329 238.81198120 504.34570312
119.38746643 238.82888794 504.24917603
118.87586975 238.82894897 504.28546143
165.58872986 218.24775696 461.08438110
162.80667114 218.22990417 461.11196899
166.09237671 218.25898743 461.11413574
165.60575867 218.26104736 461.13500977
117.54903412 223.93835449 507.23107910
115.13790131 223.91435242 507.33013916
118.12526703 223.95092773 507.18682861
117.57899475 223.95042419 507.25592041
180.48971558 227.34162903 462.19030762
177.45620728 227.33401489 462.21588135
181.04031372 227.33767700 462.22753906
180.54901123 227.35195923 462.24765015
170.83985901 271.05679321 484.08883667
166.51028442 271.03045654 484.11465454
171.64379883 271.11123657 484.11907959
170.87379456 271.11657715 484.13674927
171.57533264 246.29820251 478.65258789
167.60731506 246.29042053 478.66381836
172.32730103 246.32067871 478.65646362
171.54113770 246.33879089 478.66845703
144.09757996 212.64820862 463.03747559
141.16365051 212.64181519 463.05938721
144.70094299 212.68885803 463.01416016
144.07435608 212.69692993 463.02468872
169.19252014 263.56030273 477.56884766
165.08187866 263.52987671 477.58587646
169.97816467 263.61102295 477.58819580
169.23823547 263.60995483 477.60546875
135.71284485 270.15005493 505.63024902
132.71142578 270.11407471 505.65933228
136.30685425 270.23681641 505.61758423
135.78736877 270.22927856 505.62365723
132.26205444 221.00079346 482.71643066
129.83094788 221.00158691 482.74206543
132.75122070 221.01878357 482.70849609
132.22805786 221.03067017 482.71231079
144.23146057 215.05204773 481.30029297
141.67329407 215.02833557 481.35083008
144.76515198 215.05436707 481.29309082
144.23054504 215.05110168 481.32293701
177.34584045 258.22045898 482.67745972
173.20500183 258.19903564 482.71868896
178.10504150 258.23889160 482.68826294
177.33383179 258.25012207 482.72589111
127.43226624 223.62915039 496.63055420
124.99291992 223.61926270 496.69650269
128.00314331 223.65335083 496.60494995
127.46837616 223.66093445 496.64389038
138.08985901 245.32847595 497.74560547
135.26350403 245.31556702 497.77362061
138.66915894 245.34655762 497.69635010
138.10665894 245.35697937 497.70715332
84.38168335 205.31408691 507.10778809
83.14564514 205.31027222 507.09942627
84.61254883 205.32908630 507.16482544
84.40703583 205.32768250 507.12927246
156.18811035 231.54820251 479.01379395
153.01228333 231.53730774 479.03280640
156.83122253 231.55975342 479.02044678
156.20433044 231.57122803 479.02838135
125.36013794 234.49639893 494.95037842
122.90734863 234.48489380 495.00656128
125.91725159 234.52372742 494.92196655
125.42312622 234.52897644 494.95327759
101.38093567 215.92468262 510.32867432
99.51327515 215.90704346 510.36953735
101.83877563 215.93914795 510.32427979
101.43227386 215.93476868 510.34362793
126.52220917 237.07907104 484.19729614
124.08383179 237.07125854 484.24008179
126.99496460 237.12536621 484.16436768
126.55353546 237.12887573 484.18096924
156.06324768 247.77908325 490.32067871
152.22192383 247.75471497 490.36166382
156.86492920 247.80088806 490.24191284
156.09046936 247.80191040 490.27395630
160.22323608 257.57101440 490.38110352
156.22048950 257.54785156 490.38626099
161.04698181 257.58078003 490.33886719
160.24244690 257.58923340 490.34591675
84.48014069 212.70541382 492.75747681
83.32576752 212.70501709 492.77593994
84.64396667 212.72732544 492.81341553
84.49316406 212.72631836 492.79724121
155.38967896 226.71614075 470.24002075
152.44343567 226.70129395 470.25988770
156.00257874 226.73605347 470.27810669
155.43750000 226.74311829 470.29248047
89.14172363 219.47961426 504.36437988
87.84774780 219.46565247 504.36590576
89.36460876 219.50544739 504.40994263
89.16253662 219.49653625 504.38433838
130.58845520 230.44718933 471.18701172
127.82329559 230.42807007 471.19995117
131.17739868 230.51914978 471.16186523
130.66244507 230.51358032 471.15826416
159.43231201 210.30986023 448.76068115
156.98194885 210.27381897 448.80987549
159.89706421 210.32002258 448.76678467
159.47477722 210.30113220 448.79919434
135.16352844 218.93609619 471.74105835
132.45474243 218.92930603 471.77154541
135.72631836 218.98016357 471.69821167
135.16009521 218.98539734 471.70898438
146.10946655 239.13484192 486.98294067
143.01643372 239.11512756 486.99362183
146.78152466 239.14196777 486.95910645
146.15289307 239.14842224 486.96459961
137.51501465 255.41227722 509.21093750
134.26379395 255.37939453 509.25518799
138.25541687 255.45460510 509.13885498
137.60494995 255.45433044 509.16967773
123.54814911 256.60363770 507.35260010
121.05265808 256.57199097 507.37524414
124.08904266 256.65997314 507.36175537
123.60342407 256.65258789 507.36376953
136.48864746 239.56166077 476.95645142
133.63925171 239.54594421 476.97125244
137.07376099 239.58724976 476.93130493
136.50163269 239.59222412 476.93261719
184.38961792 281.84219360 489.53234863
179.64962769 281.83520508 489.55413818
185.23124695 281.91412354 489.52655029
184.42695618 281.93768311 489.53662109
147.23652649 226.41305542 464.26315308
144.14271545 226.39649963 464.27056885
147.90603638 226.43617249 464.28839111
147.27481079 226.44284058 464.28887939
146.35183716 233.98071289 473.69818115
143.33905029 233.96484375 473.72058105
146.96171570 233.99996948 473.69433594
146.34008789 234.00724792 473.70349121
99.86954498 202.52293396 508.02722168
98.13888550 202.51565552 508.02160645
100.32893372 202.54307556 508.06860352
99.94348145 202.54699707 508.04425049
148.06942749 271.57952881 500.59307861
144.51864624 271.54467773 500.59243774
148.81678772 271.63018799 500.56817627
148.18002319 271.63247681 500.55993652
98.45646667 236.83815002 503.27319336
96.83193970 236.81108093 503.28894043
98.80587769 236.88143921 503.29470825
98.51596832 236.86531067 503.28402710
81.37055969 201.78924561 487.94644165
80.27337646 201.79804993 487.93896484
81.55568695 201.81057739 488.00311279
81.40657806 201.81460571 487.96307373
170.64715576 283.44335938 465.61816406
165.61190796 283.40136719 465.58749390
171.55908203 283.50140381 465.61239624
170.58633423 283.50991821 465.56829834
89.45733643 222.82026672 493.50051880
88.07905579 222.81523132 493.51660156
89.69992828 222.86380005 493.53295898
89.46672821 222.86303711 493.52011108
181.82019043 286.96182251 473.54443359
176.87010193 286.95764160 473.52993774
182.68823242 287.01361084 473.59265137
181.82792664 287.04641724 473.56195068
109.08103943 243.07858276 505.50119019
107.10955048 243.04614258 505.49777222
109.54972839 243.13360596 505.51373291
109.15594482 243.11827087 505.49047852
148.75848389 258.20562744 502.06024170
145.16122437 258.16766357 502.07543945
149.52529907 258.24694824 501.95205688
148.79193115 258.24411011 501.96893311
148.53781128 278.11041260 408.39617920
143.50173950 278.12576294 408.43490601
149.40718079 278.13653564 408.38391113
148.49742126 278.19137573 408.38299561
105.37743378 226.87159729 509.46994019
103.51287842 226.85018921 509.48162842
105.81866455 226.90325928 509.47244263
105.41693115 226.89775085 509.46334839
156.29403687 269.95993042 493.90725708
152.44970703 269.92572021 493.91238403
157.06681824 270.00167847 493.89105225
156.36332703 270.00698853 493.89215088
148.43634033 278.68316650 489.07763672
144.58903503 278.62213135 489.10113525
149.20756531 278.75610352 489.09591675
148.48890686 278.73971558 489.09713745
170.90144348 282.93341064 481.60745239
166.18927002 282.92404175 481.61068726
171.75378418 283.01702881 481.62768555
170.90753174 283.04190063 481.60900879
128.23754883 268.81683350 399.65249634
123.67781067 268.82516479 399.75674438
129.05541992 268.83935547 399.64028931
128.28240967 268.86584473 399.69393921
260.25335693 232.47383118 411.17773438
260.81338501 243.99372864 416.78903198
268.50311279 237.77340698 402.14498901
267.77566528 248.15058899 408.28808594
256.26974487 255.51556396 428.21365356
254.35925293 265.99697876 436.49069214
265.19537354 258.12725830 417.63958740
262.55038452 266.76910400 424.97076416
251.84988403 211.76191711 385.68161011
255.01626587 224.22381592 387.61431885
265.12829590 217.70718384 388.74206543
266.92584229 230.17292786 392.64123535
237.91664124 211.97039795 421.34378052
238.32658386 219.36143494 430.00881958
247.28152466 217.48905945 413.52999878
246.05229187 225.20825195 422.42666626
237.73374939 262.41632080 454.45651245
233.27769470 270.08145142 463.69869995
247.96615601 266.43902588 446.27984619
243.34121704 273.32046509 454.74218750
238.45855713 234.72355652 436.43591309
236.27734375 242.45045471 444.83456421
247.20562744 241.05392456 428.98214722
243.83923340 248.90051270 437.09317017
220.84693909 200.29412842 431.77188110
220.90664673 206.59263611 441.23797607
231.15089417 206.16218567 425.16644287
229.39398193 212.28503418 434.57272339
226.90101624 242.10929871 453.01458740
222.32046509 248.98687744 460.35351562
235.70599365 248.98156738 447.24114990
230.69401550 256.00778198 454.52987671
222.78952026 216.59147644 444.80221558
219.08435059 223.01931763 452.80322266
232.15138245 223.14477539 440.02383423
227.54766846 229.48188782 447.65808105
214.63023376 192.23907471 408.97357178
220.27436829 196.80032349 417.30853271
226.22155762 195.97079468 401.37985229
231.09262085 200.22319031 410.83050537
245.99269104 277.33255005 428.92083740
245.30624390 281.67471313 441.66842651
257.00662231 273.44931030 428.17288208
255.03291321 277.10623169 440.02478027
245.67877197 240.23837280 385.93353271
248.29125977 251.45330811 390.47741699
259.68682861 242.47436523 390.67236328
260.65316772 253.76263428 396.68133545
201.12153625 180.68635559 432.12124634
202.39225769 185.18969727 441.62210083
212.97283936 184.29669189 427.04461670
213.07394409 188.12057495 436.55123901
204.51170349 192.60583496 445.91793823
199.99388123 198.91976929 452.89395142
216.41574097 197.67764282 445.07534790
210.89128113 203.48199463 451.73675537
224.98039246 203.16252136 381.38867188
229.44512939 213.97402954 381.63671875
239.73931885 207.72764587 382.78765869
243.96661377 219.35757446 384.58691406
217.81616211 256.92758179 467.50039673
211.93846130 262.98864746 474.81420898
226.98016357 263.29266357 464.33181763
221.24337769 269.34216309 471.58197021
193.19255066 176.66365051 413.55581665
198.55487061 180.13623047 420.92178345
202.64222717 179.76078796 406.07406616
207.91189575 182.30392456 413.86080933
213.26937866 226.41322327 457.60095215
207.63876343 232.34497070 463.59445190
222.38320923 233.69665527 455.13983154
216.25166321 239.52996826 461.23565674
238.42913818 261.73312378 394.69699097
241.08663940 268.29412842 404.58773804
252.39614868 261.74035645 400.90090942
253.84274292 268.71640015 411.13525391
223.50613403 283.34851074 445.60690308
222.01113892 285.48049927 458.48187256
235.89178467 282.18600464 449.71188354
233.45431519 284.09698486 462.03479004
201.70748901 263.76559448 482.57708740
193.66207886 268.77465820 485.70797729
210.54382324 270.33047485 482.79400635
203.30720520 275.15231323 487.23123169
194.99446106 187.02587891 395.44207764
201.84309387 192.93783569 397.37936401
206.68423462 191.65420532 389.25939941
214.74700928 196.56289673 392.41348267
202.85890198 236.77328491 469.11602783
196.23225403 242.28422546 473.25164795
211.25418091 244.03306580 469.06100464
204.21830750 249.46293640 473.75305176
199.51614380 208.37042236 450.67318726
193.95886230 213.86013794 455.29232788
210.44538879 213.52716064 452.57968140
204.00598145 218.47061157 458.12152100
219.36134338 229.42784119 379.71127319
223.71412659 240.48834229 382.11157227
232.60499573 232.77494812 382.04498291
236.19338989 244.19641113 385.35058594
217.93293762 273.94299316 417.24652100
219.49502563 277.55163574 428.38424683
230.61102295 275.22976685 422.51812744
231.41183472 278.34521484 433.92605591
173.10449219 184.10005188 433.68923950
174.56727600 188.24919128 442.56466675
184.63754272 189.93112183 431.46557617
186.19046021 191.73545837 440.23287964
204.21058655 205.47306824 378.36077881
208.67918396 215.68424988 378.48602295
216.47558594 208.93020630 380.43127441
221.62942505 219.78802490 381.09777832
199.63316345 285.65802002 456.08761597
198.08363342 286.05874634 468.68460083
211.58485413 286.01373291 463.02310181
209.35670471 286.18814087 475.08349609
165.05424500 161.87191772 421.71752930
166.75447083 167.21493530 428.65496826
172.20654297 168.81150818 415.35339355
173.71409607 172.61898804 422.28503418
163.61582947 179.92388916 453.59561157
161.56877136 184.87698364 462.84744263
172.53276062 186.66998291 450.37011719
169.97128296 189.71173096 458.49465942
188.70079041 220.32560730 460.00341797
183.16088867 225.57211304 463.86495972
197.80012512 225.38969421 462.93624878
191.00747681 230.42387390 468.03604126
188.05245972 244.77163696 478.20523071
180.37573242 250.02778625 480.19534302
195.83316040 251.64343262 480.29946899
188.01939392 256.92080688 483.39526367
163.05653381 168.02178955 436.34808350
163.36585999 173.53659058 444.25451660
170.52676392 175.20677185 431.82543945
170.44218445 178.94186401 439.66430664
171.13909912 162.50793457 402.52429199
175.59417725 168.21867371 406.34622192
176.82087708 171.84567261 394.22985840
181.79713440 175.26033020 398.77954102
155.57284546 145.14604187 410.85922241
158.65597534 151.89816284 417.22335815
164.97668457 152.41403198 404.97573853
167.63853455 157.84004211 411.59274292
174.36557007 182.68032837 418.27246094
177.78216553 187.28598022 425.24462891
185.67507935 188.84974670 412.99121094
190.55288696 189.85301208 420.73742676
173.64074707 193.48796082 441.00765991
172.09121704 197.04450989 450.66677856
185.01129150 198.63746643 440.94650269
182.99295044 200.29702759 449.31811523
212.36987305 264.53674316 399.17813110
215.48147583 269.99169922 408.61721802
225.05276489 266.41006470 403.78765869
227.86808777 271.26956177 413.51626587
145.18504333 150.76123047 432.43539429
145.93061829 157.08676147 441.20272827
156.12248230 156.67753601 429.81506348
155.61506653 161.81689453 438.23492432
146.95016479 164.31951904 452.99047852
145.22546387 170.33425903 462.76925659
157.05613708 169.80825806 451.25033569
154.48403931 174.46505737 460.27246094
161.95097351 147.30987549 394.40649414
167.91552734 155.10049438 394.85028076
169.48774719 158.65992737 389.06491089
174.96780396 164.65151978 391.01980591
208.03446960 248.13804626 383.14233398
212.38339233 256.62356567 389.16674805
220.41720581 250.47463989 386.13427734
224.63101196 258.84240723 392.37680054
171.94789124 260.55117798 485.73477173
163.27706909 264.68197632 487.13278198
180.21334839 266.98577881 487.20593262
171.81277466 270.71844482 489.99392700
176.77937317 227.71568298 471.30963135
170.18940735 232.89270020 474.22436523
184.71475220 233.23724365 474.82385254
177.13261414 238.49629211 478.67379761
161.19573975 191.08090210 466.83734131
154.43591309 198.04922485 473.49295044
169.09445190 194.17803955 462.58782959
162.68206787 199.78646851 467.97039795
173.82315063 182.84826660 405.73818970
177.37583923 187.86312866 411.11401367
184.40011597 190.56118774 398.54403687
190.24693298 191.28407288 404.97186279
138.46574402 174.06741333 470.98742676
134.96083069 180.95080566 480.44195557
149.68066406 177.43383789 469.78872681
145.59715271 183.53544617 477.65655518
196.19123840 280.13000488 428.51742554
197.32238770 283.21847534 439.50842285
207.44427490 281.36346436 434.05346680
208.01153564 283.92977905 445.04446411
175.44216919 209.60966492 434.64581299
175.05908203 214.49133301 441.69326782
185.71415710 213.74093628 436.22793579
184.78135681 216.74060059 444.44512939
128.42779541 151.98889160 449.54782104
128.06201172 158.38583374 459.62774658
140.54803467 156.67367554 447.91094971
138.82717896 161.94526672 457.48706055
179.67745972 218.64529419 428.24237061
178.85369873 225.58079529 433.23406982
188.04148865 222.72988892 429.02316284
186.77629089 228.75236511 435.80615234
174.67536926 187.15182495 390.08749390
180.13034058 193.88366699 392.59442139
184.97534180 195.66242981 383.45697021
192.42622375 198.31813049 387.91012573
196.01654053 229.48382568 373.97351074
200.51409912 238.73371887 378.63705444
207.33184814 230.95469666 378.35717773
212.04943848 240.23741150 382.90490723
131.39271545 186.34399414 490.88476562
125.66847229 194.16741943 498.38967896
141.89923096 192.23715210 487.50387573
136.13926697 199.54132080 493.27154541
194.01098633 272.01705933 408.58920288
195.96731567 276.53582764 418.31011963
205.19116211 272.92767334 413.53073120
206.93469238 277.19165039 423.16668701
180.73162842 234.08946228 429.31463623
177.95588684 240.64276123 434.29473877
187.93736267 238.00407410 430.72854614
183.99668884 244.49560547 436.83596802
122.37637329 163.38333130 469.69027710
120.04821777 170.28407288 480.02114868
134.62979126 167.15412903 467.32183838
131.44096375 172.98646545 476.61419678
166.71490479 159.54013062 383.82565308
169.96742249 168.91743469 379.18911743
173.84631348 170.34197998 383.77789307
177.59974670 178.58717346 380.67977905
168.20242310 286.47222900 457.76309204
167.91639709 285.21899414 470.02423096
179.04408264 286.76522827 464.67929077
178.12478638 284.95077515 476.42309570
165.00563049 212.97521973 447.81515503
162.48951721 216.83096313 454.85873413
174.03549194 215.96849060 449.46084595
171.13137817 218.40402222 456.57293701
158.51313782 235.62597656 478.58502197
150.76306152 240.99021912 480.22503662
166.37710571 241.97563171 481.40481567
158.48997498 247.56088257 483.85855103
177.33770752 285.66412354 439.34051514
177.96914673 286.49295044 451.16540527
188.44308472 286.16119385 445.68917847
188.48362732 286.43301392 457.22839355
186.72996521 209.78338623 369.22695923
190.93605042 219.73011780 371.15530396
196.67863464 212.62283325 374.40878296
201.18775940 222.32055664 376.51470947
139.18717957 249.10993958 492.40774536
132.00846863 253.39033508 497.08096313
147.90432739 257.71511841 490.82684326
141.40893555 261.45312500 495.45083618
124.50161743 220.96549988 500.60177612
117.21673584 227.50527954 505.94287109
131.73339844 229.43074036 494.75109863
125.50246429 235.92903137 499.09616089
150.40017700 209.30950928 470.10723877
144.69523621 216.76037598 473.00650024
155.01065063 213.58073425 463.96447754
149.27674866 220.76908875 466.37792969
189.00190735 260.71286011 392.15383911
191.62998962 266.91290283 400.29190063
200.37512207 261.72335815 396.31747437
203.02297974 267.62808228 404.31460571
153.52699280 195.91529846 435.90399170
156.60578918 197.49377441 444.84698486
163.43028259 200.40946960 435.48669434
165.95605469 200.07492065 443.56491089
171.57148743 182.28462219 372.81607056
174.33564758 192.69848633 369.01727295
179.74911499 190.72959900 374.86676025
183.48516846 199.91966248 372.30285645
175.01412964 278.74069214 416.42422485
176.54292297 282.22677612 426.85159302
185.69726562 279.43414307 421.17465210
186.91683960 282.68185425 431.49777222
183.68399048 246.67681885 376.13446045
187.04750061 253.92501831 383.33053589
194.75027466 246.42202759 381.77471924
198.05685425 253.47622681 388.64074707
146.89671326 202.67271423 432.38665771
150.22837830 204.26664734 441.08065796
156.40141296 205.90896606 434.33673096
159.77168274 205.98822021 442.25860596
156.53894043 154.89202881 373.36065674
157.72076416 165.36186218 367.90567017
164.93928528 162.36605835 375.19924927
166.40509033 172.28480530 370.79724121
136.60386658 282.42742920 458.66259766
139.93167114 281.36987305 470.41799927
147.66726685 285.00012207 463.87820435
150.29243469 282.77593994 475.85754395
175.25155640 229.42398071 360.89392090
179.38333130 238.20095825 366.67706299
185.82467651 229.12382507 367.55340576
189.55493164 238.08418274 373.34423828
171.52804565 269.34362793 398.22940063
173.80192566 274.19247437 407.85763550
182.36849976 269.43383789 403.22689819
184.49760437 274.15725708 412.69299316
155.30888367 284.22750854 425.56408691
157.10162354 286.54241943 436.38137817
165.58857727 285.45758057 430.36856079
167.02735901 287.45251465 441.25918579
167.71562195 204.63050842 359.62997437
170.75292969 215.56747437 359.68533325
177.50311279 208.96977234 363.69235229
180.93997192 219.43188477 364.36132812
140.42738342 285.60528564 440.97158813
143.20022583 285.52380371 452.15176392
150.66076660 288.31079102 445.28961182
152.96890259 287.34780884 456.68600464
159.59700012 179.06298828 364.21075439
161.04107666 190.14279175 360.13784790
168.28710938 185.40974426 365.97692871
170.30522156 196.02435303 362.91503906
168.37976074 260.96667480 378.10430908
171.04644775 266.23635864 387.50476074
179.50878906 259.53973389 384.73483276
181.76528931 264.89334106 394.03491211
113.88796997 264.32656860 465.10876465
119.50315857 265.74414062 474.29302979
124.11652374 273.06494141 466.38949585
129.58500671 273.17233276 476.21463013
152.00085449 275.74008179 404.21615601
153.95429993 279.64309692 414.41961670
162.31338501 276.70812988 408.62493896
163.90875244 280.57543945 419.00210571
99.26538086 241.28120422 476.17990112
104.74254608 245.10171509 483.99655151
107.41405487 253.72619629 473.18023682
112.94044495 255.81765747 481.49588013
162.09573364 248.25592041 361.24331665
165.49206543 255.28213501 368.91424561
174.09242249 248.10438538 367.15383911
176.83341980 255.13928223 375.00234985
139.51725769 154.71057129 365.55169678
140.25498962 165.84443665 360.89779663
149.17492676 160.89904785 365.08941650
149.82556152 171.68353271 361.13909912
133.12417603 278.20312500 417.73065186
135.84103394 281.25198364 427.88006592
142.45803833 281.99420166 420.54309082
145.16043091 284.60971069 431.24069214
147.35322571 267.52191162 382.09997559
149.84619141 272.11984253 391.75909424
158.68203735 268.22863770 386.77706909
160.60653687 272.86517334 396.81063843
153.15179443 227.82377625 353.82235718
156.95539856 237.62574768 357.23025513
165.16970825 230.20960999 356.84420776
168.80249023 239.79151917 360.78100586
119.64213562 272.58889771 434.09881592
123.22763062 275.69665527 443.59194946
128.19038391 279.26379395 435.35964966
131.87142944 281.59655762 445.63259888
143.83529663 181.90049744 357.36538696
145.43211365 193.33934021 354.37634277
153.70674133 187.05435181 357.39916992
155.65197754 198.32331848 355.33666992
87.36302948 220.89889526 469.18212891
91.68203735 226.02186584 476.83184814
91.42623901 232.36138916 462.47827148
95.92958069 236.11096191 470.27276611
147.16598511 205.22599792 352.38143921
150.39149475 216.31352234 352.36486816
158.57202148 209.10006714 353.55984497
162.16523743 219.96754456 354.21655273
107.71493530 260.67425537 446.29144287
111.85441589 264.05899048 455.14370728
115.68602753 269.55834961 446.12783813
119.73671722 272.02041626 455.91436768
94.98184204 241.21992493 453.68850708
99.23039246 245.36616516 461.30731201
101.30930328 252.09124756 450.69537354
105.58583832 255.25402832 459.01293945
142.18104553 255.47503662 367.39898682
145.82444763 262.82553101 374.67999268
154.21054077 258.16296387 370.01837158
157.51325989 265.34552002 377.81091309
129.82629395 269.13659668 395.61389160
132.64739990 273.53472900 404.97381592
139.47189331 273.23455811 397.85491943
142.23413086 277.36441040 407.98504639
122.61621094 162.48574829 361.64434814
123.60511780 174.27975464 357.81948853
132.80036926 168.34800720 358.64562988
133.72003174 179.94898987 355.49737549
79.74421692 210.95506287 451.35360718
82.80178070 217.23040771 458.81027222
82.42296600 220.97659302 444.93347168
85.75463104 226.44314575 452.75885010
114.19392395 265.64279175 412.41406250
117.19164276 269.58151245 421.16787720
121.89959717 272.08221436 412.63363647
125.22354126 275.46984863 422.22326660
134.56126404 235.77073669 358.22869873
138.43341064 245.62289429 361.74566650
146.85522461 239.90347290 358.12783813
150.69454956 249.45835876 362.29629517
87.96334839 234.08850098 439.34893799
91.28343201 239.03871155 446.93493652
93.30201721 244.06321716 435.93765259
96.69931030 248.18823242 444.21856689
100.34223175 253.03709412 427.29483032
103.63529205 257.17175293 435.66259766
107.10304260 261.44924927 426.08840942
110.56210327 264.83398438 435.28619385
74.89076996 192.83938599 437.29440308
76.32086945 201.03343201 443.77822876
76.29227448 200.82688904 429.48449707
77.87124634 208.87036133 436.30804443
124.53636169 187.71063232 356.94952393
126.59210205 199.38497925 355.18670654
135.00715637 192.69268799 354.51184082
137.40988159 204.21066284 353.50903320
124.92820740 257.39758301 379.69677734
128.07167053 264.26361084 386.79635620
134.78518677 262.79464722 379.82345581
138.04252625 269.32287598 387.79553223
127.43081665 213.48373413 354.39358521
130.84355164 224.32032776 355.01525879
139.08294678 217.77185059 352.87313843
142.87690735 228.45401001 354.06121826
104.60766602 161.89894104 368.80422974
105.11569214 173.17176819 365.66366577
113.48261261 167.26704407 362.78173828
114.32524109 178.69816589 359.99346924
99.76990509 247.83306885 407.76113892
102.17021179 253.13554382 415.02282715
105.42852020 255.71246338 405.65905762
108.25830841 260.48989868 413.71795654
111.45774841 254.75891113 393.32455444
114.07038116 260.84506226 400.61523438
118.77543640 261.75424194 392.12875366
121.85906219 267.36557007 400.34790039
80.11965942 216.05487061 426.53936768
82.18215942 222.66607666 433.39572144
83.63952637 224.54061890 421.94674683
85.87961578 230.87387085 429.30691528
88.19739532 233.27296448 417.66152954
90.38391876 238.99334717 424.87304688
93.22915649 241.59150696 414.59237671
95.64103699 246.72218323 422.50073242
76.37925720 181.72387695 412.55209351
76.09261322 191.63006592 416.11730957
78.95362091 187.76179504 404.58197021
78.91092682 197.99613953 408.34310913
118.49651337 240.81649780 369.06155396
121.84555054 250.03744507 373.32360840
128.49343872 246.53108215 366.98687744
132.04803467 255.40844727 372.02294922
107.38195801 185.13565063 364.39208984
109.04875946 196.46252441 362.95690918
116.75540161 190.39952087 359.25970459
118.83287048 201.74569702 358.34814453
77.79017639 200.69128418 415.75103760
78.62079620 208.94129944 421.12301636
80.74314117 207.99932861 410.24926758
81.74712372 216.43850708 415.99185181
110.57754517 221.17396545 365.13259888
113.50770569 231.48165894 366.50332642
120.40170288 226.58406067 360.87753296
123.76617432 236.94772339 362.86572266
86.03982544 217.42404175 404.16018677
87.27037811 225.02548218 409.86224365
90.10016632 225.15577698 399.95507812
91.70906067 232.67807007 406.24392700
96.23025513 235.58374023 395.17184448
98.01142120 242.84353638 401.00900269
101.45986938 243.25370789 391.81701660
103.69561005 250.12164307 398.38574219
105.48739624 240.42175293 380.46551514
107.92630005 248.63894653 385.49005127
112.74910736 247.20957947 377.40747070
115.60494995 255.13143921 383.26202393
90.30728149 170.46551514 380.31832886
90.39227295 181.30596924 379.24703979
96.71379089 175.57110596 372.47271729
97.41665649 186.71075439 371.52276611
104.75678253 201.56425476 366.10327148
107.01907349 212.47998047 365.55471802
113.69397736 206.88024902 360.67364502
116.36645508 217.90986633 360.79003906
82.65170288 180.79251099 393.36511230
82.50131989 191.20443726 394.77203369
86.66596222 186.44438171 385.80999756
87.11064911 197.21919250 387.41937256
84.81029510 200.50839233 395.71618652
85.36519623 209.93202209 399.39431763
88.70120239 207.19874573 389.94271851
89.74089813 216.77679443 393.94418335
93.29043579 219.17805481 386.44119263
94.64839172 228.15193176 390.53918457
98.43704224 226.25012207 381.67919922
100.22834778 235.10816956 386.44699097
99.34524536 218.70707703 376.17163086
101.23884583 228.70205688 378.44790649
106.06165314 225.13394165 370.83004761
108.37268066 235.15208435 373.90692139
92.81703949 191.33570862 375.39517212
94.01139832 202.00242615 375.65850830
99.57591248 196.83506775 368.73327637
101.26008606 207.68324280 369.45678711
84.36693573 205.33818054 507.14703369
84.36556244 205.34516907 507.15493774
84.35963440 205.33869934 507.15081787
84.36222076 205.35034180 507.15499878
168.53730774 285.10272217 425.94192505
168.53605652 285.11230469 425.94635010
168.53454590 285.10519409 425.95043945
168.53620911 285.11505127 425.95529175
90.67793274 234.10029602 408.43795776
90.67919922 234.10563660 408.44314575
90.67160797 234.10159302 408.43249512
90.67385864 234.10523987 408.43792725
153.71379089 204.40060425 457.92507935
153.71189880 204.41252136 457.93392944
153.70446777 204.40296936 457.92541504
153.70848083 204.41708374 457.92886353
135.72634888 270.22994995 505.68389893
135.72656250 270.23034668 505.69335938
135.72554016 270.22647095 505.69033813
135.72816467 270.23614502 505.69845581
189.26017761 252.69979858 480.44317627
189.26136780 252.70300293 480.44573975
189.26268005 252.69125366 480.45016479
189.26521301 252.69990540 480.45001221
113.41739655 264.94323730 454.40737915
113.41447449 264.95135498 454.40884399
113.41692352 264.94876099 454.41424561
113.41687012 264.95916748 454.41479492
78.89982605 204.74606323 454.42282104
78.89373779 204.75387573 454.42703247
78.89263916 204.75318909 454.42675781
78.88966370 204.76016235 454.42898560
128.34786987 268.89947510 399.66864014
128.34751892 268.91387939 399.66677856
128.34219360 268.90914917 399.67703247
128.34547424 268.91986084 399.67816162
127.45834351 223.61602783 496.66903687
127.45697021 223.61827087 496.67462158
127.45262146 223.60592651 496.68017578
127.45424652 223.61468506 496.68338013
173.30639648 238.66302490 436.41729736
173.31068420 238.67082214 436.42520142
173.30511475 238.66894531 436.42672729
173.31372070 238.67727661 436.43087769
161.39585876 284.34118652 472.57113647
161.39161682 284.34188843 472.58435059
161.39215088 284.34185791 472.57586670
161.39047241 284.34808350 472.58682251
99.30561066 234.26142883 471.52175903
99.29678345 234.26866150 471.52401733
99.30052185 234.26745605 471.52896118
99.29638672 234.27929688 471.52804565
156.19685364 231.55041504 479.03027344
156.19435120 231.55628967 479.03286743
156.18844604 231.55101013 479.03204346
156.18891907 231.56088257 479.03076172
135.55673218 280.95111084 430.52395630
135.55191040 280.96231079 430.53024292
135.55258179 280.95483398 430.52777100
135.55076599 280.96594238 430.53366089
135.95385742 192.38172913 488.12017822
135.94903564 192.39122009 488.13330078
135.94630432 192.37518311 488.13064575
135.94754028 192.38839722 488.13815308
98.44387817 236.87335205 503.31091309
98.44364929 236.87747192 503.31491089
98.43363953 236.87158203 503.31695557
98.43659973 236.88233948 503.31793213
95.53573608 247.19599915 436.60214233
95.53204346 247.20388794 436.60272217
95.53218079 247.20207214 436.60501099
95.53202820 247.21014404 436.60494995
180.52957153 227.35931396 462.24771118
180.52932739 227.36706543 462.25552368
180.52424622 227.35432434 462.25021362
180.52967834 227.36462402 462.25338745
112.91934204 195.45962524 504.92733765
112.91199493 195.46757507 504.93740845
112.91229248 195.45199585 504.93249512
112.90952301 195.46459961 504.93832397
184.38316345 281.92810059 489.50625610
184.38577271 281.92721558 489.51293945
184.38450623 281.92755127 489.51730347
184.38926697 281.93316650 489.52191162
160.24958801 257.56600952 490.35052490
160.24656677 257.56869507 490.35333252
160.24732971 257.56576538 490.35827637
160.24620056 257.57546997 490.35784912
79.73146057 215.78697205 427.11614990
79.72606659 215.79354858 427.11773682
79.71849060 215.79667664 427.11990356
79.71743774 215.79972839 427.12158203
114.25373840 253.18536377 485.91485596
114.24796295 253.19062805 485.91845703
114.24955750 253.18948364 485.92175293
114.24758148 253.20135498 485.92333984
133.86782837 280.10000610 470.09527588
133.86497498 280.10363770 470.09948730
133.86384583 280.10107422 470.10150146
133.86322021 280.10989380 470.10580444
179.14096069 287.97937012 452.56207275
179.13870239 287.98071289 452.57012939
179.13273621 287.98416138 452.56713867
179.13282776 287.98925781 452.57333374
106.68836975 255.59045410 408.02856445
106.68955994 255.59967041 408.03244019
106.68571472 255.59375000 408.03192139
106.68763733 255.60055542 408.03744507
130.57824707 230.49183655 471.16204834
130.57192993 230.49777222 471.16055298
130.56504822 230.49920654 471.16677856
130.56387329 230.50790405 471.16271973
82.64688110 207.32778931 479.10824585
82.64288330 207.33421326 479.10998535
82.63896942 207.33261108 479.11746216
82.63874054 207.34059143 479.11682129
138.10719299 245.33525085 497.74847412
138.10211182 245.34240723 497.75259399
138.10963440 245.33758545 497.74826050
138.10610962 245.35026550 497.75030518
148.64045715 278.19509888 408.39682007
148.64274597 278.20849609 408.39935303
148.63233948 278.20275879 408.39865112
148.63713074 278.21362305 408.40118408
150.15605164 289.86239624 446.54486084
150.15571594 289.86712646 446.54995728
150.14671326 289.86972046 446.54867554
150.14935303 289.87622070 446.55410767
114.00571442 266.30334473 431.95874023
114.00447083 266.31427002 431.96710205
114.00332642 266.30657959 431.96017456
114.00332642 266.31875610 431.96759033
148.44926453 278.68859863 489.12570190
148.45112610 278.68664551 489.13739014
148.44671631 278.68588257 489.13186646
148.44952393 278.69198608 489.14157104
89.61556244 229.95074463 452.62722778
89.61014557 229.95906067 452.63186646
89.61304474 229.95529175 452.63098145
89.61170959 229.96434021 452.63342285
144.25296021 215.03492737 481.34191895
144.24967957 215.04310608 481.34875488
144.24917603 215.03004456 481.34509277
144.24958801 215.04292297 481.34881592
101.39268494 215.96675110 510.36264038
101.39030457 215.96955872 510.36785889
101.38835907 215.95977783 510.37207031
101.38821411 215.96965027 510.37442017
127.12757874 267.86038208 484.14297485
127.12246704 267.86465454 484.15167236
127.12670898 267.86038208 484.15463257
127.12374878 267.87149048 484.15936279
89.45867920 222.86241150 493.55224609
89.45540619 222.86691284 493.55413818
89.45467377 222.86764526 493.56390381
89.45476532 222.87615967 493.56335449
118.86456299 238.82145691 504.28854370
118.86177826 238.82562256 504.28930664
118.86098480 238.81582642 504.29602051
118.86134338 238.82656860 504.29730225
127.10542297 279.37475586 452.41165161
127.10350037 279.38192749 452.41885376
127.09867859 279.37878418 452.41571045
127.09828186 279.38964844 452.42330933
171.58796692 246.32220459 478.64349365
171.58277893 246.32920837 478.64553833
171.58572388 246.31648254 478.64987183
171.58473206 246.32853699 478.64926147
124.13269806 272.95870972 417.50918579
124.13204956 272.97015381 417.51205444
124.13045502 272.96395874 417.50775146
124.13272858 272.97320557 417.51229858
123.52520752 256.65744019 507.39660645
123.52374268 256.65933228 507.40521240
123.52164459 256.65390015 507.40454102
123.52242279 256.66513062 507.40896606
170.80178833 271.10556030 484.11700439
170.79646301 271.11013794 484.11788940
170.79481506 271.10366821 484.12088013
170.79272461 271.11349487 484.11938477
102.91591644 250.38694763 456.32498169
102.91030121 250.39503479 456.32818604
102.91285706 250.39274597 456.32595825
102.91168213 250.40344238 456.32705688
147.27384949 226.44442749 464.29269409
147.27009583 226.45469666 464.29370117
147.26364136 226.45207214 464.29080200
147.26327515 226.46391296 464.28860474
165.62026978 218.27905273 461.12750244
165.61849976 218.29174805 461.13290405
165.61405945 218.27900696 461.12734985
165.61782837 218.29336548 461.12899780
148.05622864 198.56556702 477.85287476
148.05126953 198.57679749 477.86129761
148.04701233 198.55967712 477.86407471
148.04956055 198.57438660 477.86871338
181.78977966 287.04809570 473.55880737
181.78981018 287.04840088 473.56582642
181.78958130 287.04547119 473.56628418
181.79130554 287.05139160 473.57156372
89.25182343 236.14228821 425.10659790
89.25061035 236.14942932 425.10806274
89.24691772 236.14854431 425.10778809
89.24745941 236.15444946 425.11019897
112.53784180 257.60919189 469.31564331
112.53018188 257.61654663 469.31936646
112.53479004 257.61444092 469.32424927
112.53174591 257.62640381 469.32421875
148.78437805 258.21917725 502.02798462
148.78292847 258.21661377 502.03833008
148.78620911 258.22027588 502.03170776
148.78715515 258.22695923 502.03808594
162.87675476 288.62921143 456.53973389
162.87362671 288.63064575 456.55242920
162.86691284 288.63250732 456.54913330
162.86593628 288.63833618 456.56085205
89.79346466 220.49501038 473.13372803
89.78849030 220.50296021 473.13253784
89.79067993 220.49720764 473.14495850
89.78948975 220.50750732 473.14205933
99.06297302 251.09921265 421.53353882
99.06127167 251.10939026 421.53778076
99.06343079 251.10565186 421.53610229
99.06492615 251.11404419 421.53982544
124.88080597 204.94467163 500.28997803
124.87813568 204.95004272 500.29708862
124.87454224 204.93809509 500.30212402
124.87649536 204.94946289 500.30679321
99.96917725 236.60140991 487.46569824
99.96489716 236.60491943 487.46716309
99.96364594 236.60000610 487.47659302
99.96318054 236.61029053 487.47540283
153.16326904 281.56405640 424.93975830
153.15730286 281.57546997 424.94726562
153.15621948 281.56802368 424.94186401
153.15333557 281.57958984 424.94918823
126.51522827 237.11358643 484.18658447
126.50692749 237.12040710 484.18362427
126.50535583 237.11576843 484.19531250
126.50135803 237.12702942 484.18981934
184.75350952 265.91909790 486.92117310
184.74736023 265.92449951 486.92376709
184.75117493 265.91452026 486.92736816
184.74792480 265.92535400 486.92785645
82.80519104 218.02600098 446.44982910
82.80129242 218.03242493 446.45285034
82.79848480 218.03012085 446.45626831
82.79774475 218.03701782 446.45758057
146.15939331 239.12899780 486.97460938
146.15257263 239.13436890 486.97888184
146.15667725 239.12699890 486.97131348
146.15411377 239.13864136 486.97167969
147.78427124 283.92086792 466.79620361
147.78184509 283.92187500 466.80398560
147.77148438 283.92263794 466.80184937
147.77078247 283.92907715 466.80722046
105.28007507 255.83477783 443.04208374
105.27427673 255.84344482 443.04226685
105.27571106 255.83911133 443.04562378
105.27391815 255.84765625 443.04495239
117.58569336 223.95280457 507.26629639
117.58146667 223.95678711 507.26809692
117.58001709 223.94573975 507.27706909
117.57787323 223.95710754 507.27719116
135.73027039 210.33944702 493.28283691
135.72831726 210.34609985 493.28936768
135.72290039 210.33439636 493.30206299
135.72549438 210.34741211 493.30578613
122.84547424 271.62783813 468.70419312
122.83868408 271.63662720 468.70834351
122.84609222 271.63195801 468.71270752
122.84278870 271.64456177 468.71472168
112.63021851 265.31387329 416.04742432
112.63072968 265.32394409 416.04956055
112.62748718 265.32171631 416.05355835
112.63008118 265.33023071 416.05715942
85.40874481 229.96376038 436.92755127
85.40476227 229.97174072 436.93157959
85.40302277 229.96823120 436.93218994
85.40274811 229.97531128 436.93505859
172.84906006 228.35478210 473.64364624
172.84637451 228.36351013 473.64938354
172.84873962 228.35156250 473.64431763
172.84962463 228.36361694 473.64511108
99.90788269 202.54440308 508.08837891
99.90312958 202.54960632 508.09591675
99.90042877 202.53541565 508.09350586
99.90042877 202.54827881 508.09765625
144.10379028 212.68772888 463.03369141
144.09907532 212.69810486 463.04016113
144.09254456 212.68995667 463.03646851
144.09390259 212.70094299 463.03948975
137.55096436 255.46316528 509.21527100
137.55090332 255.46069336 509.22439575
137.55131531 255.46461487 509.21856689
137.55314636 255.47264099 509.22454834
132.22512817 220.98977661 482.71890259
132.22018433 220.99758911 482.72409058
132.21926880 220.99502563 482.72558594
132.21762085 221.00700378 482.72824097
148.13040161 271.60549927 500.61624146
148.13475037 271.60452271 500.62698364
148.12884521 271.60284424 500.62530518
148.13398743 271.61038208 500.63253784
171.19245911 247.86929321 446.00964355
171.19425964 247.87457275 446.01678467
171.18048096 247.87525940 446.01086426
171.18713379 247.88009644 446.01284790
184.89314270 235.36215210 471.94201660
184.89367676 235.37002563 471.94616699
184.89418030 235.35096741 471.94894409
184.89959717 235.36097717 471.94848633
160.33242798 276.76385498 415.00793457
160.33129883 276.77645874 415.01574707
160.32571411 276.76766968 415.00778198
160.32833862 276.77807617 415.01419067
164.12388611 288.98748779 437.64480591
164.12184143 288.99496460 437.65231323
164.11450195 288.99224854 437.65274048
164.11517334 289.00115967 437.65954590
117.33029175 262.07586670 398.41073608
117.33247375 262.08758545 398.40844727
117.32737732 262.08447266 398.41528320
117.33163452 262.09252930 398.41537476
137.60481262 286.48687744 446.48052979
137.60287476 286.49588013 446.48220825
137.59742737 286.49270630 446.48193359
137.59815979 286.50271606 446.48397827
126.41181946 277.68084717 438.95526123
126.41099548 277.68948364 438.96374512
126.40473938 277.68756104 438.95687866
126.40493774 277.69741821 438.96405029
115.16827393 251.63603210 498.59884644
115.16400146 251.63973999 498.60510254
115.16567230 251.63401794 498.60830688
115.16449738 251.64491272 498.61224365
98.33116150 245.90968323 407.38800049
98.33327484 245.91764832 407.39285278
98.33033752 245.91677856 407.38250732
98.33209991 245.92169189 407.38702393
107.45442200 245.88246155 478.22613525
107.44671631 245.88932800 478.23406982
107.45265198 245.88601685 478.23315430
107.44819641 245.89830017 478.23776245
159.44801331 210.31140137 448.79342651
159.45353699 210.32151794 448.80282593
159.44218445 210.31690979 448.78820801
159.45092773 210.32810974 448.79095459
136.51174927 239.57714844 476.95074463
136.50706482 239.58419800 476.94970703
136.50788879 239.57719421 476.95193481
136.50598145 239.58813477 476.94909668
170.88601685 283.03076172 481.61434937
170.88496399 283.03051758 481.62432861
170.88238525 283.02938843 481.62203979
170.88284302 283.03552246 481.62841797
105.29197693 244.10371399 495.40591431
105.28640747 244.11074829 495.41094971
105.28962708 244.10925293 495.40921021
105.28825378 244.12203979 495.41156006
134.55477905 277.06213379 412.75689697
134.55499268 277.07446289 412.76000977
134.54803467 277.06961060 412.75909424
134.55093384 277.07888794 412.76406860
113.79696655 207.89390564 504.20776367
113.79483032 207.89715576 504.21307373
113.78930664 207.88790894 504.22164917
113.78996277 207.89834595 504.22552490
78.91020203 207.65277100 441.70153809
78.90557098 207.65907288 441.70764160
78.89617157 207.66093445 441.70584106
78.89709473 207.66644287 441.71014404
123.18327332 262.27774048 496.82238770
123.17903137 262.28237915 496.83160400
123.18148804 262.27865601 496.83078003
123.18084717 262.29071045 496.83581543
85.44093323 218.49961853 462.26159668
85.43703461 218.50659180 462.26342773
85.43506622 218.50622559 462.27075195
85.43540955 218.51461792 462.27139282
137.14953613 275.35180664 487.62908936
137.14712524 275.35382080 487.63818359
137.15171814 275.34939575 487.63973999
137.15136719 275.35848999 487.64480591
95.25369263 228.12397766 480.71823120
95.24571991 228.13110352 480.72192383
95.25065613 228.12884521 480.72363281
95.24642944 228.14065552 480.72421265
105.37912750 226.90803528 509.53967285
105.37458038 226.91093445 509.54730225
105.37059021 226.90315247 509.54382324
105.36914062 226.91513062 509.54791260
170.63568115 283.47378540 465.57611084
170.62887573 283.47705078 465.58483887
170.63121033 283.47589111 465.57672119
170.62709045 283.48361206 465.58355713
135.14112854 218.97154236 471.71594238
135.13294983 218.98112488 471.71899414
135.12860107 218.97827148 471.72332764
135.12628174 218.99084473 471.72329712
177.32701111 258.21856689 482.69470215
177.32048035 258.22171021 482.69784546
177.32049561 258.21719360 482.70104980
177.31869507 258.22506714 482.70071411
146.36523438 233.99182129 473.70608521
146.35801697 234.00167847 473.70666504
146.35919189 233.99461365 473.70959473
146.35531616 234.00871277 473.70809937
90.58814240 238.72877502 442.37692261
90.58352661 238.73841858 442.37692261
90.58259583 238.73529053 442.38104248
90.58151245 238.74415588 442.38037109
89.13887787 219.48991394 504.39071655
89.13825226 219.49783325 504.39447021
89.13697815 219.49349976 504.39593506
89.14015961 219.50654602 504.39810181
84.44709778 212.72590637 492.81018066
84.44535065 212.73144531 492.81176758
84.44351196 212.73387146 492.82312012
84.44570160 212.74272156 492.82321167
104.44084167 257.41293335 431.87521362
104.43598938 257.42321777 431.87741089
104.43962097 257.41809082 431.87792969
104.43745422 257.42825317 431.87908936
81.51982117 204.89805603 468.17776489
81.51377869 204.90596008 468.18133545
81.51145172 204.90676880 468.18408203
81.51010132 204.91542053 468.18359375
125.38348389 234.49371338 494.99154663
125.37973785 234.49684143 494.99276733
125.37736511 234.49191284 495.00399780
125.37596893 234.50143433 495.00222778
84.54972076 224.08779907 421.49328613
84.54670715 224.09458923 421.49227905
84.54276276 224.09526062 421.49670410
84.54251099 224.09979248 421.49676514
167.45797729 236.56991577 481.67056274
167.45439148 236.57809448 481.67321777
167.45285034 236.56686401 481.67416382
167.45268250 236.57940674 481.67306519
98.62548065 240.18864441 462.48721313
98.61700439 240.19767761 462.49182129
98.62609863 240.19398499 462.49066162
98.62273407 240.20568848 462.49249268
135.27404785 284.77124023 456.97003174
135.27001953 284.77902222 456.97665405
135.27037048 284.77648926 456.97448730
135.26968384 284.78829956 456.97985840
106.62244415 249.08920288 466.36453247
106.61576843 249.09535217 466.36843872
106.61795807 249.09225464 466.37506104
106.61436462 249.10301208 466.37591553
109.08786011 243.11386108 505.55133057
109.08341980 243.11849976 505.55902100
109.08065796 243.11291504 505.55154419
109.07981873 243.12654114 505.55520630
142.10806274 201.04492188 486.56994629
142.10124207 201.05540466 486.57855225
142.10078430 201.04138184 486.58233643
142.10104370 201.05638123 486.58670044
156.32763672 269.95336914 493.93365479
156.32809448 269.95236206 493.94464111
156.32583618 269.95040894 493.94137573
156.32858276 269.95809937 493.94793701
156.10185242 247.78379822 490.27832031
156.09928894 247.78608704 490.28237915
156.09867859 247.78494263 490.28210449
156.09774780 247.79318237 490.28265381
156.17485046 280.79043579 482.18701172
156.17416382 280.79058838 482.19741821
156.16876221 280.79107666 482.19586182
156.17051697 280.79840088 482.20422363
81.37354279 201.80973816 487.99316406
81.37199402 201.81668091 487.99609375
81.36637878 201.81915283 488.00012207
81.36811829 201.82888794 488.00006104
115.51781464 266.98147583 444.42959595
115.51522827 266.98809814 444.43057251
115.51200104 266.98614502 444.43487549
115.51181793 266.99453735 444.43469238
179.77156067 241.94555664 443.79394531
179.77624512 241.95246887 443.80560303
179.76596069 241.95089722 443.79580688
179.77362061 241.95953369 443.80413818
93.12149048 230.30958557 464.37500000
93.11441040 230.31878662 464.37805176
93.11899567 230.31822205 464.38049316
93.11662292 230.32955933 464.38165283
93.38285828 242.05311584 415.42321777
93.38229370 242.06106567 415.42596436
93.37982178 242.06053162 415.42440796
93.38034058 242.06553650 415.42831421
142.08554077 285.46536255 437.47003174
142.08428955 285.47470093 437.47781372
142.08143616 285.47207642 437.46981812
142.08126831 285.48223877 437.47793579
169.18115234 263.57519531 477.56964111
169.17494202 263.57968140 477.56912231
169.17304993 263.57763672 477.57476807
169.17118835 263.58706665 477.57199097
181.10751343 244.24424744 476.26226807
181.10783386 244.25038147 476.26519775
181.10574341 244.23397827 476.27410889
181.11039734 244.24502563 476.27374268
155.44894409 226.72509766 470.28268433
155.44525146 226.73394775 470.28491211
155.44433594 226.72439575 470.28530884
155.44422913 226.73582458 470.28411865
121.62492371 195.59185791 499.03363037
121.61942291 195.59873962 499.04272461
121.61671448 195.58506775 499.04330444
121.61640930 195.59777832 499.04864502
98.55270386 249.11013794 446.06481934
98.54692078 249.11878967 446.06396484
98.55036926 249.11659241 446.06918335
98.54855347 249.12522888 446.06756592
153.51882935 287.15231323 433.11297607
153.51721191 287.16171265 433.12115479
153.51087952 287.15798950 433.11608887
153.51170349 287.16802979 433.12414551
124.84044647 214.64535522 499.91348267
124.83815765 214.64810181 499.91964722
124.83859253 214.64257812 499.92938232
124.84069061 214.65167236 499.93344116
133.91819763 243.92164612 489.13638306
133.91271973 243.92736816 489.13546753
133.91418457 243.92057800 489.13940430
133.91183472 243.93150330 489.13528442
122.05094147 274.40759277 458.97082520
122.04402924 274.41510010 458.97998047
122.04985809 274.40847778 458.98120117
122.04602814 274.41983032 458.98843384
151.72991943 287.85336304 455.85345459
151.72586060 287.85726929 455.86254883
151.72113037 287.85644531 455.85940552
151.72045898 287.86434937 455.86776733
158.48484802 239.06652832 484.52423096
158.48185730 239.07295227 484.52896118
158.48425293 239.06301880 484.52380371
158.48388672 239.07490540 484.52377319
144.85424805 281.12835693 420.20385742
144.85261536 281.13781738 420.20883179
144.84902954 281.13284302 420.20767212
144.85046387 281.14160156 420.21292114
94.39273071 232.60949707 495.76119995
94.39115906 232.61517334 495.76452637
94.38890076 232.61587524 495.76556396
94.39037323 232.62704468 495.76605225
112.36930847 234.10076904 509.40173340
112.36408997 234.10403442 509.41131592
112.35959625 234.09986877 509.40197754
112.35801697 234.11174011 509.40820312
132.95237732 247.18630981 505.37780762
132.94859314 247.18969727 505.38201904
132.94686890 247.18435669 505.37988281
132.94546509 247.19584656 505.38244629
130.36067200 261.73214722 511.19024658
130.35870361 261.73489380 511.20059204
130.36099243 261.73153687 511.19445801
130.36236572 261.74307251 511.20242310
80.08865356 216.11811829 436.41555786
80.08508301 216.12490845 436.41918945
80.07673645 216.12553406 436.41537476
80.07626343 216.13069153 436.41854858
92.99964905 227.91007996 505.27197266
93.00022888 227.91253662 505.27597046
92.99407196 227.90650940 505.28063965
92.99822235 227.91548157 505.28186035
113.58068848 262.82171631 407.15136719
113.58321381 262.83245850 407.15429688
113.57966614 262.82598877 407.15267944
113.58273315 262.83419800 407.15802002
92.83115387 238.64395142 452.27273560
92.82731628 238.65232849 452.27349854
92.82414246 238.64834595 452.27709961
92.82455444 238.65754700 452.27587891
178.68505859 287.57162476 443.32681274
178.68765259 287.57489014 443.34136963
178.67988586 287.57412720 443.33035278
178.68371582 287.57989502 443.34301758
145.92758179 210.76609802 473.31347656
145.92276001 210.77532959 473.32159424
145.92123413 210.76818848 473.31347656
145.92105103 210.78097534 473.31881714
120.74580383 263.51712036 479.04904175
120.73849487 263.52322388 479.05914307
120.74531555 263.51779175 479.05975342
120.74244690 263.52960205 479.06689453
151.44473267 212.06329346 453.33789062
151.44833374 212.07160950 453.34793091
151.43688965 212.06834412 453.33096313
151.44398499 212.07827759 453.33514404
173.26147461 247.56521606 434.04968262
173.26922607 247.56637573 434.07785034
173.25555420 247.56938171 434.04296875
173.26725769 247.57168579 434.06436157
146.83975220 245.90887451 494.95550537
146.83554077 245.91229248 494.95727539
146.83517456 245.90751648 494.95941162
146.83415222 245.91828918 494.95935059
127.39498138 227.87858582 486.32818604
127.39276123 227.88426208 486.33255005
127.38959503 227.87966919 486.33584595
127.38906097 227.89015198 486.33721924
164.88880920 227.68771362 478.06250000
164.88690186 227.69488525 478.06878662
164.88705444 227.68440247 478.06616211
164.88861084 227.69593811 478.06781006
138.84736633 218.90068054 488.32189941
138.84875488 218.90670776 488.32797241
138.84060669 218.89527893 488.32586670
138.84437561 218.90596008 488.32852173
137.79885864 234.26725769 467.70208740
137.79368591 234.27244568 467.70111084
137.78703308 234.27253723 467.70455933
137.78587341 234.28080750 467.70095825
129.35491943 276.31066895 423.74197388
129.35456848 276.32138062 423.74923706
129.34912109 276.31787109 423.74105835
129.35084534 276.32803345 423.74829102
144.37052917 281.39938354 474.47970581
144.36814880 281.39865112 474.48855591
144.36320496 281.39981079 474.48751831
144.36322021 281.40637207 474.49380493
161.68540955 272.09228516 487.35470581
161.68191528 272.09246826 487.36376953
161.68077087 272.09481812 487.35418701
161.67922974 272.10186768 487.36068726
151.47608948 204.20117188 472.07162476
151.47520447 204.21095276 472.08096313
151.47041321 204.19638062 472.07897949
151.47463989 204.20898438 472.08361816
128.30540466 267.54528809 502.27026367
128.30508423 267.54928589 502.27709961
128.30387878 267.54376221 502.27651978
128.30570984 267.55612183 502.28076172
180.82684326 286.55795288 483.22833252
180.83052063 286.55783081 483.23510742
180.82405090 286.55816650 483.23724365
180.82839966 286.56509399 483.24176025
125.44535065 242.54602051 500.26214600
125.44396210 242.54905701 500.26559448
125.44259644 242.54173279 500.27304077
125.44270325 242.55073547 500.27398682
140.58084106 276.71612549 405.98706055
140.58064270 276.72882080 405.98623657
140.57032776 276.72659302 405.98880005
140.57440186 276.73608398 405.99069214
166.14128113 254.92770386 484.77270508
166.13697815 254.92984009 484.77621460
166.13684082 254.92826843 484.77899170
166.13514709 254.93566895 484.77847290
109.64587402 215.16789246 508.44046021
109.64302826 215.17173767 508.44482422
109.64344788 215.16467285 508.45278931
109.64282227 215.17549133 508.45556641
127.86543274 272.93344116 475.37805176
127.86159515 272.93872070 475.38302612
127.85701752 272.93713379 475.38430786
127.85588074 272.94766235 475.38784790
167.59945679 273.50640869 476.66217041
167.59538269 273.50564575 476.67166138
167.59158325 273.51025391 476.67068481
167.59150696 273.51638794 476.67666626
173.45161438 278.63543701 488.34884644
173.44888306 278.63577271 488.35290527
173.45358276 278.63259888 488.35925293
173.45274353 278.64035034 488.36083984
157.87261963 289.61166382 449.82135010
157.86875916 289.61526489 449.83059692
157.86289978 289.61846924 449.82208252
157.86169434 289.62597656 449.82995605
103.04364014 238.32487488 477.78710938
103.03651428 238.33042908 477.79162598
103.03957367 238.32978821 477.79656982
103.03707886 238.34092712 477.79785156
81.79176331 206.17303467 499.25897217
81.79033661 206.18118286 499.26623535
81.79148102 206.18171692 499.26089478
81.79382324 206.19221497 499.26446533
107.71813965 253.20196533 400.12588501
107.72064209 253.21115112 400.13128662
107.71565247 253.20921326 400.12820435
107.71855927 253.21621704 400.13400269
152.19132996 252.90350342 496.60485840
152.18711853 252.90734863 496.60845947
152.19029236 252.89781189 496.60711670
152.18780518 252.90863037 496.60842896
142.25985718 278.92971802 482.17303467
142.25621033 278.93090820 482.18438721
142.25976562 278.92901611 482.18533325
142.25900269 278.93658447 482.19314575
128.61097717 279.29516602 463.75982666
128.60786438 279.30056763 463.76806641
128.60751343 279.29925537 463.76690674
128.60737610 279.30819702 463.77359009
172.54541016 288.12289429 437.84094238
172.54536438 288.12884521 437.85125732
172.53796387 288.12573242 437.84429932
172.53923035 288.13360596 437.85314941
82.51927948 224.00172424 432.01666260
82.51753998 224.00723267 432.01934814
82.51239777 224.00859070 432.01855469
82.51232910 224.01274109 432.02139282
107.39862061 258.97375488 416.59768677
107.39633942 258.98492432 416.60372925
107.39712524 258.97781372 416.59304810
107.39727783 258.98751831 416.60034180
143.78245544 251.87927246 503.51116943
143.77842712 251.88122559 503.51513672
143.77935791 251.87765503 503.51293945
143.77774048 251.88824463 503.51437378
152.37736511 220.76371765 461.33801270
152.37300110 220.77497864 461.34289551
152.36883545 220.76463318 461.34124756
152.36894226 220.77700806 461.34320068
114.38768768 256.97073364 478.67980957
114.38084412 256.97561646 478.68750000
114.38330078 256.96981812 478.68554688
114.38041687 256.98123169 478.69064331
139.76766968 223.85665894 462.42675781
139.76367188 223.86526489 462.42712402
139.75340271 223.86457825 462.42517090
139.75489807 223.87591553 462.42251587
121.98811340 267.33685303 404.51025391
121.99083710 267.34857178 404.51416016
121.98283386 267.34609985 404.51239014
121.98677826 267.35494995 404.51770020
109.61474609 261.32965088 447.10757446
109.60961914 261.33966064 447.10946655
109.61708832 261.33447266 447.11453247
109.61396790 261.34594727 447.11544800
130.31398010 200.36701965 496.43438721
130.31076050 200.37544250 496.44235229
130.30609131 200.36158752 496.44781494
130.30651855 200.37548828 496.45294189
117.09963226 268.04531860 460.87045288
117.09515381 268.05459595 460.87719727
117.09747314 268.05062866 460.87722778
117.09561157 268.06298828 460.88186646
120.55133820 272.46539307 437.08810425
120.54762268 272.47488403 437.09158325
120.54748535 272.47482300 437.09255981
120.54730225 272.48455811 437.09481812
87.36849976 216.78703308 479.80142212
87.36366272 216.79260254 479.80364990
87.36764526 216.79080200 479.81118774
87.36566925 216.79960632 479.80981445
103.86021423 235.13926697 508.92486572
103.85749817 235.14340210 508.93347168
103.85107422 235.14039612 508.92703247
103.85153961 235.15245056 508.93194580
109.84086609 247.67002869 489.59909058
109.83335114 247.67700195 489.60528564
109.84129333 247.67059326 489.60906982
109.83724976 247.68367004 489.61273193
97.71977234 244.26922607 455.74649048
97.71400452 244.27671814 455.74716187
97.72030640 244.27494812 455.75042725
97.71830750 244.28462219 455.74917603
135.40133667 277.56958008 477.42675781
135.39601135 277.57296753 477.43569946
135.40095520 277.56723022 477.43768311
135.39859009 277.57714844 477.44345093
86.16208649 222.58543396 455.53210449
86.15759277 222.59426880 455.53543091
86.15747070 222.59513855 455.53796387
86.15718842 222.60559082 455.53936768
103.58340454 257.19757080 424.02032471
103.58098602 257.20779419 424.02011108
103.58316040 257.20236206 424.02630615
103.58358002 257.21099854 424.02679443
110.05725861 261.89785767 437.20404053
110.05283356 261.90881348 437.20980835
110.05793762 261.90161133 437.20803833
110.05682373 261.91253662 437.21188354
114.69876099 268.23452759 423.09051514
114.69847870 268.24658203 423.09518433
114.69659424 268.24005127 423.09207153
114.69865417 268.25018311 423.09695435
175.42352295 287.33145142 459.47003174
175.42085266 287.33258057 459.48059082
175.41612244 287.33520508 459.47659302
175.41575623 287.34075928 459.48522949
165.28176880 222.73333740 467.60327148
165.27806091 222.74246216 467.60821533
165.27609253 222.73143005 467.61053467
165.27871704 222.74267578 467.61047363
169.97909546 283.44671631 473.41293335
169.97277832 283.44860840 473.42276001
169.97502136 283.44665527 473.41683960
169.97155762 283.45471191 473.42517090
165.64831543 265.27801514 484.96917725
165.64146423 265.28125000 484.97155762
165.64042664 265.27664185 484.97293091
165.63601685 265.28659058 484.97335815
127.17129517 266.67910767 491.84530640
127.16798401 266.67901611 491.85369873
127.17184448 266.67791748 491.85647583
127.17245483 266.68585205 491.86111450
142.54537964 208.68794250 487.73742676
142.54138184 208.69764709 487.74365234
142.54136658 208.68127441 487.75363159
142.54267883 208.69555664 487.75778198
92.37150574 242.35350037 428.48797607
92.36753082 242.36358643 428.49096680
92.36730957 242.36238098 428.48950195
92.36557770 242.37100220 428.49127197
171.66061401 288.93713379 451.01470947
171.65599060 288.94226074 451.02322388
171.65225220 288.94308472 451.01831055
171.65031433 288.95095825 451.02633667
165.50016785 289.52722168 445.19116211
165.49382019 289.53375244 445.20046997
165.49214172 289.53350830 445.19464111
165.48910522 289.54208374 445.20242310
110.22940063 251.55389404 473.85305786
110.22094727 251.55926514 473.86077881
110.22669983 251.55502319 473.86187744
110.22270966 251.56585693 473.86557007
137.59791565 279.47381592 421.87689209
137.59710693 279.48571777 421.88629150
137.59098816 279.47940063 421.87796021
137.59185791 279.49044800 421.88653564
154.74629211 201.25788879 464.76718140
154.74696350 201.26962280 464.77914429
154.73493958 201.25607300 464.77026367
154.74118042 201.26942444 464.77706909
108.61920166 259.08819580 454.27478027
108.61337280 259.09698486 454.27899170
108.61990356 259.09313965 454.27987671
108.61766052 259.10458374 454.28317261
122.35990906 261.93908691 486.27093506
122.35375214 261.94192505 486.27886963
122.36042786 261.93862915 486.28308105
122.35844421 261.94885254 486.28775024
173.06111145 218.75866699 459.94763184
173.06277466 218.76853943 459.95364380
173.05520630 218.75439453 459.94757080
173.06233215 218.76522827 459.94750977
145.47731018 286.17733765 459.71282959
145.47581482 286.17977905 459.72509766
145.47076416 286.17822266 459.71929932
145.47181702 286.18634033 459.72897339
181.03981018 275.47750854 491.46002197
181.03503418 275.47698975 491.46627808
181.04324341 275.47354126 491.47076416
181.04129028 275.48104858 491.47439575
80.17413330 211.30134583 448.51364136
80.17086029 211.30819702 448.51693726
80.16596222 211.30642700 448.51864624
80.16551208 211.31356812 448.52056885
118.04165649 270.59466553 452.76901245
118.03624725 270.60253906 452.77429199
118.03800964 270.59738159 452.77554321
118.03577423 270.60729980 452.77917480
141.59089661 279.90093994 413.58145142
141.59210205 279.91381836 413.58499146
141.58299255 279.90802002 413.58349609
141.58763123 279.91815186 413.58813477
152.56376648 283.26110840 476.12237549
152.56124878 283.26211548 476.13513184
152.55848694 283.26101685 476.13040161
152.55943298 283.26818848 476.14007568
124.63533783 275.54626465 431.66284180
124.63420105 275.55566406 431.66705322
124.62745667 275.55389404 431.66561890
124.62748718 275.56283569 431.67053223
123.29570770 249.34146118 506.06900024
123.29261780 249.34329224 506.07406616
123.28715515 249.34284973 506.07116699
123.28607941 249.35348511 506.07348633
177.10861206 269.39480591 487.64105225
177.10491943 269.39349365 487.64697266
177.10826111 269.39392090 487.65185547
177.10673523 269.39953613 487.65469360
127.36687469 241.62794495 491.74560547
127.36221313 241.63215637 491.74514771
127.36100769 241.62683105 491.75170898
127.35897827 241.63677979 491.74938965
85.59848022 212.15336609 504.73974609
85.59767151 212.15872192 504.74276733
85.59250641 212.15440369 504.74591064
85.59554291 212.16511536 504.74719238
158.78201294 216.95416260 458.88784790
158.78053284 216.96711731 458.89474487
158.77131653 216.96032715 458.88812256
158.77499390 216.97465515 458.89071655
139.89810181 282.90744019 467.05203247
139.89837646 282.90771484 467.05770874
139.89126587 282.91162109 467.05496216
139.89268494 282.91741943 467.05892944
109.26689911 255.12103271 463.19021606
109.25944519 255.12939453 463.19262695
109.26672363 255.12590027 463.19836426
109.26165771 255.13739014 463.19802856
162.87567139 244.79260254 483.37759399
162.87136841 244.79847717 483.37750244
162.87280273 244.79046631 483.38275146
162.87207031 244.80139160 483.38058472
103.83452606 243.68492126 470.41625977
103.82766724 243.69253540 470.42172241
103.83363342 243.69085693 470.42233276
103.82967377 243.70213318 470.42489624
154.68473816 285.93533325 465.77468872
154.68011475 285.93829346 465.78335571
154.67979431 285.93908691 465.77972412
154.67864990 285.94647217 465.78543091
104.70375824 210.11752319 506.98452759
104.70072937 210.12030029 506.99090576
104.69622803 210.11488342 506.99404907
104.69702148 210.12399292 506.99792480
96.18448639 208.67227173 508.80059814
96.18208313 208.67863464 508.80661011
96.17737579 208.66944885 508.80267334
96.17782593 208.68299866 508.80487061
135.52302551 283.40820312 439.60522461
135.52050781 283.41662598 439.61264038
135.51921082 283.41156006 439.60882568
135.51951599 283.42123413 439.61492920
102.07119751 253.14953613 437.17526245
102.06623840 253.15988159 437.18139648
102.07176208 253.15524292 437.17901611
102.06851959 253.16525269 437.18347168
149.91624451 206.86929321 463.50671387
149.91416931 206.88090515 463.51559448
149.90950012 206.87197876 463.51232910
149.91203308 206.88536072 463.51718140
89.19320679 232.99768066 418.66748047
89.18965149 233.00556946 418.67013550
89.18464661 233.00521851 418.67004395
89.18328857 233.01077271 418.67214966
130.61372375 223.49766541 476.20809937
130.60678101 223.50650024 476.21185303
130.60363770 223.50410461 476.21340942
130.60142517 223.51612854 476.21450806
127.72752380 271.14764404 406.43167114
127.72782898 271.16125488 406.43353271
127.72117615 271.15612793 406.43170166
127.72368622 271.16690063 406.43603516
86.70909882 229.99842834 446.11117554
86.70606995 230.00550842 446.11047363
86.70508575 230.00508118 446.11499023
86.70481873 230.01205444 446.11468506
93.22192383 227.05842590 487.46536255
93.21781921 227.06275940 487.46514893
93.21720886 227.06031799 487.47619629
93.21701813 227.06898499 487.47326660
80.14869690 201.67817688 474.32556152
80.14474487 201.68670654 474.33215332
80.14200592 201.68606567 474.33670044
80.14256287 201.69525146 474.34057617
118.12642670 200.13160706 503.87924194
118.11982727 200.13868713 503.88763428
118.12414551 200.12236023 503.88873291
118.12245178 200.13429260 503.89474487
156.68618774 203.96917725 449.90866089
156.68884277 203.97900391 449.92025757
156.67605591 203.97290039 449.90097046
156.68292236 203.98263550 449.90545654
87.95593262 234.81866455 432.57504272
87.95201111 234.82708740 432.57751465
87.95046234 234.82574463 432.57794189
87.94905853 234.83337402 432.57998657
87.71533966 218.39648438 488.45797729
87.71407318 218.40052795 488.45883179
87.71426392 218.40036011 488.46768188
87.71586609 218.40899658 488.46649170
162.10243225 286.75662231 466.04568481
162.09851074 286.75839233 466.05566406
162.09396362 286.75814819 466.05023193
162.09318542 286.76495361 466.05874634
176.24636841 249.60833740 441.51992798
176.24797058 249.61421204 441.52545166
176.23223877 249.61373901 441.52340698
176.23898315 249.62086487 441.52630615
133.68156433 224.02639771 467.15597534
133.67478943 224.03431702 467.15560913
133.66676331 224.03625488 467.16207886
133.66525269 224.04693604 467.15917969
178.26234436 286.86590576 467.58065796
178.25898743 286.86779785 467.58746338
178.25885010 286.86529541 467.58587646
178.25718689 286.87231445 467.59109497
119.35275269 230.64585876 506.87207031
119.35066223 230.64964294 506.87384033
119.34638977 230.64270020 506.88244629
119.34611511 230.65411377 506.88235474
178.95315552 250.45700073 478.44909668
178.94789124 250.46176147 478.45034790
178.95297241 250.44943237 478.46078491
178.95094299 250.45904541 478.45855713
146.75495911 282.31634521 427.45870972
146.75361633 282.32482910 427.46795654
146.75088501 282.31716919 427.46032715
146.75021362 282.32632446 427.47024536
117.92724609 266.51596069 467.57418823
117.92086792 266.52526855 467.57876587
117.92472839 266.51998901 467.58044434
117.92085266 266.53329468 467.58303833
129.99316406 254.64639282 508.80685425
129.98910522 254.64944458 508.81686401
129.98793030 254.64724731 508.80413818
129.98707581 254.65924072 508.81137085
130.04548645 281.40426636 446.49948120
130.04364014 281.41168213 446.50402832
130.03741455 281.40866089 446.50183105
130.03689575 281.41821289 446.50729370
80.78035736 204.98445129 461.30630493
80.77727509 204.99357605 461.31021118
80.77307129 204.99755859 461.31225586
80.77424622 205.00622559 461.31292725
111.99867249 261.75073242 460.35787964
111.99355316 261.75759888 460.36322021
111.99623108 261.75296021 460.36572266
111.99499512 261.76367188 460.36862183
165.38102722 213.25231934 450.73596191
165.38494873 213.26036072 450.74490356
165.37084961 213.25425720 450.73910522
165.38122559 213.26275635 450.74133301
98.89073181 229.11122131 508.77453613
98.88843536 229.11573792 508.77966309
98.88362122 229.10762024 508.78002930
98.88539124 229.12007141 508.78244019
