ply
format ascii 1.0
element vertex 2048
property float x
property float y
property float z
end_header
103.43350220 178.55426025 541.78906250
268.90042114 200.47998047 356.68502808
89.71299744 177.34100342 369.02899170
172.74697876 257.20980835 447.03710938
153.38259888 113.34837341 449.65405273
174.90100098 220.62699890 362.95001221
93.37001038 202.17800903 454.80523682
214.64335632 183.24050903 426.51724243
162.88287354 138.10023499 375.44476318
255.92904663 253.41871643 425.71975708
115.29299927 244.92929077 401.76101685
147.83209229 228.55895996 509.35382080
91.36593628 135.72505188 423.08135986
106.92900848 133.89102173 492.24307251
163.26353455 175.36946106 473.68542480
226.85166931 234.09704590 379.96206665
148.68127441 191.38049316 424.23916626
221.10140991 243.23629761 471.19238281
141.99699402 180.89100647 348.37899780
123.65783691 245.32415771 463.26696777
109.33499908 128.57800293 379.19598389
179.16995239 255.53250122 399.98638916
201.46597290 180.55259705 378.70141602
184.61215210 138.16870117 419.39724731
87.96299744 203.99699402 411.52502441
122.47700500 224.61999512 358.44998169
104.23719788 202.66029358 499.44241333
143.70896912 105.25604248 403.55487061
272.50445557 237.24363708 384.28698730
186.56398010 213.35125732 448.58062744
88.45391083 157.14318848 459.02737427
246.41470337 213.17147827 413.36242676
186.32913208 211.98187256 408.76257324
132.69487000 168.27880859 501.72311401
212.01158142 251.56309509 428.01123047
111.10867310 119.11343384 455.33410645
181.34906006 237.19596863 480.17843628
141.46180725 207.76367188 458.07186890
148.69500732 247.41000366 377.16000366
238.70384216 175.01144409 361.99179077
138.27046204 254.25907898 429.27664185
102.00383759 232.18904114 433.08325195
138.89619446 145.05218506 466.01089478
177.20462036 169.40991211 439.54861450
84.70999908 166.81700134 403.86300659
223.05084229 219.26062012 442.24865723
96.40028381 167.08811951 504.21493530
116.83700562 155.11000061 355.84899902
92.63700104 212.64700317 375.46301270
181.09500122 171.85398865 406.93161011
172.26499939 173.33399963 365.00497437
121.06323242 208.89822388 529.30633545
147.11326599 199.65379333 491.53762817
233.84550476 187.16006470 395.07040405
84.64916992 178.11360168 431.83215332
117.81149292 111.66194916 424.44009399
111.86299896 192.62300110 350.99099731
112.81458282 150.35848999 526.35491943
148.63264465 246.18223572 482.79351807
121.57502747 227.16024780 489.21865845
202.29600525 213.37200928 376.76501465
242.32379150 207.24499512 371.65057373
173.12132263 119.04824066 398.05844116
163.40202332 141.80335999 441.42788696
92.27247620 182.39048767 479.41500854
247.01942444 248.74647522 395.74752808
211.60043335 251.30731201 400.88729858
147.42800903 210.14399719 348.61001587
145.93460083 255.56832886 403.27542114
185.47007751 145.93992615 392.12994385
240.89093018 241.52610779 449.26733398
137.73818970 119.34006500 377.93222046
145.52200317 154.29299927 359.31201172
192.63899231 240.21899414 380.29400635
165.18746948 112.65816498 424.53024292
198.08985901 250.35577393 456.78405762
90.28800201 151.62500000 379.36199951
165.12849426 192.48089600 449.32934570
127.41213989 120.62294006 476.90414429
106.46279907 222.76943970 467.57748413
104.94493866 121.05335236 403.67709351
181.27555847 196.39500427 429.21444702
146.17088318 259.02255249 456.52990723
168.74472046 258.99212646 421.89224243
120.44477844 181.56153870 520.76342773
107.75399780 233.91300964 379.17199707
163.24847412 221.88749695 466.68508911
96.43000031 226.66600037 401.77200317
185.23899841 195.69699097 368.35198975
209.40203857 171.81358337 401.11196899
94.73986053 136.40000916 445.92678833
84.94699860 192.39999390 389.73098755
92.98759460 154.57328796 481.95239258
89.85785675 208.45228577 432.89947510
203.36131287 225.84910583 461.47650146
221.41166687 193.29899597 370.13607788
257.27957153 217.15301514 388.36495972
91.69300079 143.74899292 403.48498535
164.07998657 192.77699280 353.75299072
126.66556549 146.34729004 486.66189575
146.59899902 231.13600159 359.73501587
98.88984680 134.45280457 470.48617554
140.55158997 106.45221710 431.20553589
139.70703125 227.81446838 470.49026489
133.44297791 206.96109009 509.41479492
144.75588989 163.53289795 481.12817383
159.74203491 198.44361877 472.58248901
158.40985107 158.86897278 458.35766602
268.79409790 220.58181763 368.01470947
246.63209534 232.80197144 425.57775879
207.56413269 202.24713135 437.02084351
126.36500549 136.11399841 366.12600708
266.46304321 243.75773621 406.84295654
166.34446716 250.67170715 469.18362427
126.31900787 246.30899048 382.97201538
191.48374939 256.36566162 419.22705078
232.20770264 196.16166687 418.75433350
120.13492584 247.05268860 440.21743774
86.83963776 180.07650757 454.27947998
185.37440491 162.65507507 379.14865112
132.76564026 110.84214783 457.22061157
233.03012085 249.92950439 417.98538208
123.19842529 110.61647034 391.59838867
176.64982605 225.64018250 421.18206787
99.67618561 186.76382446 516.06378174
100.22023773 205.57366943 479.21792603
170.13700867 247.94499207 380.99499512
218.64366150 250.39276123 447.52563477
85.45764160 152.68721008 435.13442993
147.07548523 220.69120789 489.26007080
202.71481323 240.59431458 481.34600830
100.46463776 167.19738770 524.48138428
104.73299408 173.35499573 354.73699951
184.33743286 159.14601135 423.39370728
254.79164124 190.60000610 369.64862061
102.18607330 147.06004333 507.28451538
182.49200439 180.75099182 388.78698730
120.36662292 246.93743896 419.37487793
195.41700745 182.18817139 418.18832397
191.93179321 254.33271790 438.30969238
248.95864868 234.03460693 380.24298096
155.64067078 114.26943207 388.17254639
126.59799957 207.45700073 348.36199951
95.30100250 197.49699402 362.62802124
103.63359070 123.51575470 433.00296021
223.48669434 214.36166382 376.00839233
84.18743896 183.20890808 413.25628662
136.51396179 187.99256897 503.53909302
146.99281311 132.11854553 452.46813965
109.50344086 233.35981750 450.17111206
130.88180542 223.49163818 519.93328857
104.29199982 143.37199402 367.11401367
250.03457642 197.45205688 389.53710938
183.12490845 225.05676270 463.50384521
107.06199646 212.52000427 358.64099121
184.88401794 188.41140747 445.49392700
121.05035400 153.23211670 509.18597412
148.38883972 180.25535583 490.74618530
172.46183777 175.79243469 456.59790039
114.77111816 214.97572327 509.80313110
106.92738342 196.86990356 534.13012695
94.66698456 223.72543335 418.15557861
138.71836853 209.28855896 476.21896362
154.76760864 260.95407104 440.18704224
123.33300018 171.41799927 348.63497925
163.80999756 155.63299561 369.15798950
225.54133606 231.79096985 457.19021606
165.97261047 184.88395691 431.58551025
85.93995667 161.87435913 420.70346069
174.63681030 126.92687225 431.25216675
95.28727722 183.73840332 496.66781616
252.84851074 228.31071472 405.34167480
86.19199371 170.40100098 385.44900513
96.98915100 219.73553467 444.71765137
96.18099976 160.78298950 364.91598511
228.30317688 247.90580750 392.08728027
164.91200256 234.99800110 367.14102173
136.19635010 236.14361572 495.00027466
210.00199890 229.05200195 381.66497803
130.60699463 237.89801025 367.34197998
145.77299500 135.50000000 371.10098267
157.04873657 234.39892578 495.42077637
216.30645752 183.74963379 389.56198120
158.29600525 254.45100403 392.85598755
131.02627563 243.14700317 480.18710327
236.71305847 218.97817993 430.04235840
153.91400146 169.40798950 356.09399414
161.11547852 109.95610809 407.31130981
95.93099976 136.65100098 388.02700806
125.94057465 108.15906525 407.80618286
256.51965332 186.16014099 352.50415039
174.87197876 131.92752075 385.37789917
194.46655273 251.56877136 392.86230469
205.98150635 213.86386108 449.31079102
104.34163666 237.03862000 412.25265503
150.77845764 257.47384644 418.40048218
88.46999359 210.75599670 395.65798950
177.19143677 121.60687256 414.51123047
262.02108765 204.75224304 376.77301025
224.70782471 205.29808044 432.56414795
126.74284363 109.35115051 441.02316284
116.07671356 136.96354675 506.90979004
232.98339844 181.39686584 378.06277466
176.78585815 152.16616821 437.50949097
210.69799805 245.70300293 387.92398071
197.45130920 187.03973389 433.62182617
204.31500244 196.25100708 373.70602417
152.40309143 203.57533264 445.61389160
85.17864227 193.79951477 424.78961182
240.42251587 251.50257874 432.96319580
171.04551697 209.92652893 458.10025024
182.86245728 133.45571899 402.83813477
163.68243408 255.47749329 407.54815674
188.22200012 223.12800598 372.85000610
188.27937317 155.92066956 406.73382568
127.33000183 188.46499634 346.67901611
158.82254028 234.39419556 477.06433105
174.99127197 148.97631836 379.37500000
165.11599731 209.26600647 353.94000244
239.01231384 192.61178589 364.49774170
136.99328613 125.86548615 464.75323486
132.72781372 253.73321533 448.40524292
220.49378967 181.83987427 408.81130981
180.51295471 250.44157410 459.25262451
92.94872284 194.94146729 468.21618652
194.51388550 180.51983643 402.05380249
109.44399261 214.50141907 489.97448730
117.48502350 233.26248169 475.60766602
181.31878662 175.85816956 423.83700562
139.67749023 252.90441895 471.07897949
125.54428101 225.53511047 504.65899658
250.02836609 250.89248657 411.25463867
159.72210693 125.72622681 442.29779053
148.07482910 222.76617432 458.17974854
139.35647583 251.20872498 390.21163940
108.09935760 202.43930054 519.59393311
87.96099854 193.70269775 443.59289551
116.08949280 165.74612427 524.99554443
129.31384277 251.80688477 403.79415894
190.72982788 245.78570557 469.61178589
191.62217712 204.32002258 437.33578491
251.43653870 219.79649353 373.23910522
179.35000610 236.41900635 372.47100830
132.16400146 159.31999207 353.39099121
88.44493866 169.74862671 467.91592407
243.84675598 199.29891968 404.76870728
112.71406555 123.81887817 473.31729126
85.07611084 162.83668518 446.07675171
174.87109375 203.02699280 416.91705322
122.54534149 131.50811768 486.67645264
261.75878906 245.81106567 391.16641235
92.27973938 141.97064209 459.25408936
230.06005859 248.49470520 457.71600342
136.05099487 219.67199707 351.86801147
183.71498108 162.90322876 394.94522095
159.12799072 223.06098938 356.89999390
205.73851013 252.41648865 414.36962891
154.66378784 198.27937317 458.76586914
179.79739380 260.45581055 431.82229614
86.57599640 194.20300293 374.95397949
134.27343750 253.99818420 415.82125854
151.48703003 107.55317688 420.89636230
166.93585205 188.80412292 463.33859253
103.05199432 223.32499695 369.71899414
129.55383301 137.40052795 475.14132690
125.83563995 195.78602600 515.53692627
139.91244507 109.98293304 388.25411987
176.62841797 201.80230713 444.20190430
94.53400421 222.61599731 386.26098633
172.64250183 161.65756226 451.86282349
161.17817688 260.15637207 455.67160034
143.79699707 195.95199585 348.64999390
201.27992249 168.74935913 389.10647583
194.41195679 231.08770752 473.95318604
106.60042572 119.63185120 416.98724365
235.85330200 221.05818176 378.10275269
133.88259888 160.03932190 489.69433594
96.19887543 155.36070251 495.84243774
178.78500366 183.48899841 375.07901001
122.18300629 122.09700012 380.02801514
94.38234711 132.27165222 410.54251099
100.42346191 129.10038757 457.64035034
185.33299255 210.03399658 367.42599487
91.93563843 168.24963379 486.70962524
105.88400269 236.98699951 394.82501221
262.34512329 230.15936279 376.74768066
208.38159180 248.46641541 466.18927002
240.28091431 231.27627563 439.34408569
149.28982544 147.82577515 456.09640503
87.04299927 157.33699036 393.47198486
106.04688263 164.17620850 537.19006348
152.84396362 123.41738892 378.29608154
148.02020264 157.33560181 467.40676880
238.40130615 243.47994995 381.40936279
226.09213257 249.69770813 433.46517944
137.85702515 106.53367615 416.98825073
89.17867279 147.01576233 414.60131836
156.21701050 187.35458374 481.72140503
112.02327728 118.66340637 387.63156128
157.90104675 110.08164215 436.05691528
123.66436768 168.74462891 512.11578369
140.62429810 212.81723022 499.06484985
111.69792175 242.57144165 428.54946899
192.40200806 190.28599548 379.89801025
99.97197723 208.08557129 466.59429932
210.13369751 175.66421509 416.08078003
260.70101929 229.50488281 393.16943359
135.37359619 151.21231079 477.38671875
192.75004578 255.72833252 406.71023560
176.32899475 200.50300598 359.19601440
134.12599182 146.87500000 360.34201050
141.48396301 108.01345062 444.50076294
244.54200745 187.69731140 381.51602173
213.66099548 232.53294373 467.37667847
112.51141357 184.52854919 533.24072266
85.60399628 178.36099243 396.77499390
181.66737366 250.95439148 387.72613525
173.54400635 186.59899902 362.85299683
166.83883667 196.84785461 425.64132690
97.27589417 192.55378723 486.77993774
249.85308838 210.68148804 399.82321167
99.23218536 141.80305481 484.66906738
177.89292908 257.36987305 411.94201660
171.32154846 232.00213623 471.17864990
236.47209167 250.38438416 404.24752808
88.62140656 148.71925354 447.16455078
214.60133362 223.22595215 452.73391724
161.83125305 246.95269775 481.05953979
118.27600098 232.83200073 368.01000977
109.93168640 215.73884583 477.48150635
90.40451813 150.40399170 469.60476685
115.22434235 114.49604797 436.80297852
90.36848450 216.42779541 407.25552368
167.16360474 262.18853760 435.53320312
152.28195190 256.15063477 468.44717407
154.61300659 182.91699219 351.53100586
258.02117920 203.45367432 363.96588135
90.17752838 211.43331909 420.73364258
248.68717957 250.55146790 443.88781738
85.58901978 194.08274841 402.22793579
254.00749207 239.22918701 414.96810913
97.39780426 131.88380432 398.61700439
214.42384338 205.27723694 376.75311279
182.20985413 181.45529175 435.31561279
218.91674805 249.74549866 411.87121582
145.78706360 201.93180847 468.03112793
98.11899567 185.77099609 358.11099243
118.47505188 194.60963440 525.94213867
152.52299500 145.67999268 367.11001587
155.10336304 181.73715210 436.94638062
122.01422119 116.06052399 466.27673340
114.12712097 235.24555969 461.22082520
127.87120056 180.68241882 510.59561157
151.90699768 239.73500061 367.65301514
144.96501160 118.31937408 458.50985718
99.45122528 217.06832886 456.00146484
204.11065674 252.14430237 441.65484619
167.25411987 121.67351532 387.29934692
138.02912903 200.27902222 500.04577637
155.78599548 213.35763550 454.98861694
90.01290131 182.44450378 466.27929688
229.03976440 203.47425842 371.14480591
139.76208496 217.47433472 511.20733643
141.99371338 169.65356445 492.08355713
141.54400635 167.41000366 353.79602051
121.15277863 141.36312866 496.35354614
221.10865784 194.38433838 428.39077759
89.23500061 165.75799561 373.85800171
176.58422852 139.23945618 431.36804199
103.02539062 155.32977295 520.60498047
125.03894043 153.38131714 496.41687012
155.96101379 201.61401367 351.05999756
178.05332947 244.45887756 471.01208496
167.03855896 197.67620850 436.71997070
116.19100189 243.87599182 390.35299683
153.65859985 229.64163208 467.58404541
159.10639954 150.39796448 449.63674927
95.51847076 222.18115234 429.71829224
246.18896484 182.03887939 369.72903442
167.09140015 118.48490143 435.43783569
115.50500488 181.27299500 348.66397095
101.10527039 186.54132080 529.57708740
118.19783020 244.77618408 451.34997559
146.32225037 229.51847839 480.08145142
150.96742249 204.50573730 481.26620483
95.53904724 132.93928528 433.89236450
155.74559021 166.22766113 470.45306396
97.80841827 175.09829712 513.51379395
194.10600281 182.92599487 390.83099365
228.58741760 181.59750366 366.60372925
86.80528259 149.98333740 424.65899658
176.28570557 179.72056580 446.13507080
212.00869751 187.62527466 375.47616577
246.83483887 241.54229736 434.06719971
185.49783325 253.61958313 449.13064575
114.52899933 204.25300598 350.82098389
133.59500122 129.17500305 372.58599854
233.14424133 249.60618591 445.46276855
173.30500793 162.58799744 370.96597290
130.25563049 210.48887634 520.24017334
230.48574829 189.77149963 408.89108276
137.29762268 216.63166809 464.73437500
102.94933319 123.93705750 444.25183105
166.12847900 169.26281738 463.97885132
197.25898743 228.74800110 378.03997803
236.41598511 206.36401367 422.73135376
134.82865906 254.58863831 459.59219360
117.75099945 142.83799744 361.59500122
156.18110657 258.75494385 429.34436035
85.13607788 174.34674072 442.16690063
116.31124115 112.26148987 400.93283081
116.58014679 144.82540894 516.10052490
85.70999908 183.61199951 379.98800659
91.59642792 206.71516418 443.54843140
271.55108643 241.73883057 396.05529785
113.65599823 134.24398804 369.94699097
153.95030212 108.34031677 398.23898315
203.48391724 179.00259399 426.00500488
97.78199768 209.61799622 365.08102417
247.93833923 224.54025269 415.86022949
135.61520386 231.47895813 505.52056885
118.45300293 214.83399963 353.66500854
127.25720978 249.71897888 428.42639160
209.83264160 190.30229187 434.41931152
99.79399872 137.74900818 377.16497803
86.75800323 202.13299561 383.38900757
179.67256165 220.68081665 412.49481201
83.49195099 175.03364563 421.37374878
153.73094177 174.11950684 482.89859009
106.96800232 160.79800415 357.16799927
105.48645020 132.24723816 479.26055908
185.92298889 150.29583740 416.02267456
103.06880188 126.77167511 389.05740356
85.07603455 167.02232361 430.19558716
121.35574341 114.12280273 453.38516235
85.96599579 156.84999084 409.31100464
178.65798950 171.64700317 377.78500366
249.92100525 244.46681213 385.39956665
185.80180359 144.44009399 406.06057739
249.80169678 177.13943481 354.58264160
114.71412659 218.51693726 499.00045776
146.02012634 236.94799805 500.66638184
200.86782837 253.03878784 424.72561646
159.71800232 245.30799866 375.54400635
99.84857178 157.84085083 509.94677734
233.69879150 232.59883118 449.09106445
193.55200195 202.97000122 370.74597168
115.92173004 113.24832153 413.91690063
103.22792816 196.36981201 511.29312134
133.60810852 105.82209015 398.37747192
156.36500549 160.16801453 362.03302002
268.35949707 207.84774780 365.60336304
223.40202332 185.61776733 418.94262695
139.75083923 220.15081787 479.56387329
136.09700012 246.30500793 377.54101562
142.98638916 256.96252441 444.81002808
177.80223083 220.51728821 455.02679443
164.13200378 180.30300903 356.74398804
121.65583801 217.49783325 521.85955811
174.37303162 188.09675598 454.18029785
112.25958252 172.56468201 533.32836914
156.81246948 192.20657349 432.85803223
249.02120972 190.71136475 359.64520264
128.22727966 108.18332672 426.77362061
104.31446838 236.86102295 422.79888916
186.66899109 205.49465942 416.60610962
180.40856934 166.16224670 415.28289795
193.65298462 221.90641785 457.87957764
110.61453247 239.84071350 438.44702148
186.59284973 155.45390320 386.16827393
117.31192780 131.06005859 497.00381470
259.89437866 249.27381897 415.29763794
147.36480713 222.86311340 499.93777466
137.73745728 177.75619507 499.56024170
89.31700897 142.69462585 438.04382324
126.10100555 248.53900146 394.64199829
154.40579224 136.91706848 446.36376953
215.31556702 209.04536438 440.43273926
101.27069092 143.80760193 494.81027222
222.23661804 183.87052917 376.38995361
132.66670227 115.13014984 468.23831177
196.60874939 210.13348389 444.72244263
170.82800293 253.36900330 394.62701416
262.21786499 192.30201721 361.68026733
180.57565308 149.50769043 426.77371216
169.41293335 250.62117004 458.87075806
222.46090698 249.76931763 422.07296753
174.05970764 188.14439392 439.75399780
141.29699707 239.01901245 366.27798462
168.45281982 151.55599976 444.86087036
260.45693970 235.72807312 402.22274780
100.06069183 192.36932373 500.95553589
119.49300385 240.23300171 377.44500732
192.07980347 237.75451660 481.78778076
121.30786133 248.95098877 409.14266968
180.56500244 174.95399475 398.70199585
145.52894592 214.29623413 451.30181885
216.91900635 237.11100769 383.48699951
168.31625366 132.70211792 437.51632690
132.95899963 230.94000244 359.77600098
89.60887146 160.90679932 474.56466675
265.72756958 218.53228760 378.08926392
244.15393066 252.50866699 423.07089233
127.97823334 114.13037872 383.33001709
89.76428223 190.36854553 455.65109253
179.74221802 164.46922302 430.82000732
160.68940735 203.40124512 452.50604248
237.28500366 232.89744568 380.49835205
86.58764648 194.96571350 414.52670288
112.80799866 223.65899658 362.32501221
108.38825226 205.40773010 509.63897705
217.39486694 179.76313782 399.09356689
103.08200073 195.75599670 355.88198853
146.34649658 256.92221069 435.16766357
172.58055115 227.27528381 462.22763062
199.94799805 246.98899841 386.41299438
136.53199768 138.37599182 365.96099854
212.04342651 240.44131470 475.86132812
254.46566772 197.40542603 379.44894409
144.61830139 188.31697083 495.96319580
210.09184265 175.71337891 385.58520508
222.19673157 224.95669556 378.09704590
115.22330475 123.78231049 483.20220947
162.61999512 169.18598938 361.73300171
188.97027588 183.55117798 426.08999634
83.68799591 172.28401184 412.59100342
132.61799622 176.53700256 348.65200806
170.74887085 115.42842865 409.05572510
200.13250732 177.73860168 409.48382568
251.67996216 244.07196045 424.90075684
100.09089661 176.32389832 530.59558105
149.12879944 241.03706360 491.98327637
85.63725281 186.08633423 437.57690430
106.26830292 138.51756287 503.33172607
119.98842621 160.55844116 517.02264404
216.32014465 250.66282654 437.74700928
207.23144531 250.89996338 451.51681519
106.50209808 125.56308746 464.79739380
86.14290619 167.81477356 454.25619507
97.37319946 127.46482849 420.44378662
202.34399414 237.79000854 382.32897949
227.99879456 239.74342346 462.89074707
140.07032776 226.87622070 517.11663818
180.85426331 259.36380005 420.79049683
168.45095825 240.23628235 465.90322876
181.05505371 257.39605713 441.02120972
105.97858429 156.78781128 530.23150635
272.56692505 230.14291382 376.61254883
243.53877258 192.75421143 396.42111206
190.93038940 255.95755005 428.66625977
107.12297058 228.06216431 458.82141113
182.75730896 130.54432678 412.79528809
259.57101440 212.60946655 368.00314331
189.68460083 194.29841614 435.90393066
91.03600311 144.74501038 393.45999146
149.55499268 219.07000732 352.79901123
136.15399170 204.30499268 348.46301270
112.50454712 243.25129700 413.39828491
140.87028503 135.99491882 459.30093384
188.31686401 180.24533081 411.50122070
201.19033813 253.26741028 400.23403931
189.05599976 233.08700562 374.18499756
256.62869263 205.80355835 385.68704224
161.75009155 128.63995361 378.57669067
131.52238464 196.94097900 507.48617554
113.16770935 116.21464539 446.14163208
134.73046875 253.44926453 439.18630981
231.33131409 224.81809998 441.13290405
126.20674133 160.50134277 504.79638672
221.19107056 248.91984558 462.70391846
254.08741760 221.21340942 397.44689941
159.37878418 187.17106628 424.96118164
192.98799133 213.75100708 373.32998657
85.76799774 201.35099792 394.01000977
161.72665405 238.20770264 485.74838257
111.83752441 205.28089905 529.81353760
224.03115845 249.77195740 403.48019409
210.76800537 217.80999756 379.26599121
248.54875183 199.06135559 365.00872803
241.98951721 203.53926086 413.94882202
126.95105743 107.21131897 417.17938232
89.59200287 211.43600464 385.00500488
104.61452484 237.58966064 403.64385986
179.52699280 169.08399963 387.23699951
148.86399841 253.21400452 389.01599121
138.73294067 241.37799072 487.36077881
151.47789001 123.89946747 449.19039917
144.68664551 211.15946960 488.35140991
205.06204224 233.11383057 472.28475952
115.77728271 221.23625183 483.07281494
102.66500092 152.30700684 363.47698975
257.31903076 238.79905701 382.71350098
123.80252075 242.11338806 472.13922119
94.38689423 145.17060852 477.20993042
152.19326782 261.24884033 449.22128296
243.95828247 217.83686829 421.91226196
256.18490601 248.61955261 398.70526123
239.76374817 247.69929504 456.63784790
181.23699951 130.08000183 425.03466797
182.04699707 243.95500183 381.46902466
151.07769775 107.64024353 409.41772461
250.34281921 253.49438477 434.62548828
123.74909210 236.45568848 482.09371948
227.88281250 243.38055420 383.48553467
166.11999512 147.93899536 374.51400757
89.56500244 186.90599060 367.77200317
95.46399689 174.52398682 361.81399536
163.19558716 263.16879272 444.54049683
179.88575745 140.83615112 385.88903809
113.66764069 210.35003662 520.10302734
180.94680786 133.76742554 392.58367920
201.79225159 190.48556519 380.46673584
112.80999756 169.19000244 351.65899658
164.72822571 114.29623413 396.46292114
147.37518311 115.42974854 383.39257812
160.65953064 256.58410645 414.85070801
90.99200439 201.86799622 369.94699097
135.25048828 135.09106445 466.95330811
159.93940735 109.89426422 417.02157593
128.42048645 230.73884583 496.36914062
184.84352112 229.70651245 473.26910400
178.12214661 123.30320740 405.04595947
228.86546326 213.57109070 434.11016846
92.24899292 177.78294373 488.07873535
124.11199951 129.09098816 372.78598022
156.53262329 255.47164917 401.55557251
87.78305054 201.74092102 420.48706055
102.28175354 227.49104309 442.63284302
130.66693115 128.48585510 472.11874390
125.23099518 148.71899414 357.88299561
161.07112122 199.23866272 443.93188477
229.49482727 185.94612122 386.77239990
218.90167236 247.87835693 391.69836426
180.65928650 201.96902466 436.01251221
173.31404114 188.87882996 428.03579712
152.97863770 230.73858643 487.81860352
96.56799316 228.75044250 411.19332886
127.08799744 197.81599426 346.14398193
103.42348480 187.40966797 538.80749512
184.78204346 214.74624634 417.15042114
168.47839355 178.52853394 464.31213379
163.57116699 186.68688965 471.55529785
199.70446777 195.28344727 437.17465210
107.99546051 146.25975037 519.50195312
100.72200012 228.67800903 382.28298950
163.64965820 213.10632324 462.63952637
98.70889282 228.84480286 424.15130615
187.83758545 152.85214233 398.15728760
176.42864990 158.68040466 444.06005859
92.35200500 219.09700012 394.82302856
109.94164276 211.55645752 502.83325195
101.12020111 201.52569580 491.19519043
215.02703857 216.47973633 446.48092651
105.65200043 182.44000244 353.57498169
152.79586792 250.84820557 475.76101685
94.43339539 165.59967041 495.65136719
188.17677307 254.61856079 397.60058594
102.06800079 204.46301270 358.57498169
176.04341125 122.02382660 423.61865234
238.23229980 247.77926636 389.61712646
96.90392303 182.04406738 505.16128540
174.54199219 212.09600830 359.71899414
157.12599182 233.17700195 362.75799561
192.09512329 226.75062561 465.47122192
131.21212769 249.36410522 470.75415039
237.63825989 176.49009705 371.64675903
249.79170227 218.34341431 405.53982544
163.90267944 195.59976196 458.02600098
165.32499695 226.86799622 362.30499268
86.78133392 197.89665222 432.10537720
99.21585846 179.50112915 521.40759277
225.35023499 185.70046997 401.46737671
238.75305176 184.02067566 361.09432983
84.26370239 163.02507019 438.15301514
177.13999939 228.16200256 367.32299805
95.42220306 196.98510742 476.12103271
167.86099243 241.85800171 373.94198608
152.60418701 194.63293457 485.42434692
175.18298340 202.78729248 425.46911621
199.51821899 246.35771179 471.89599609
143.89299011 110.49740601 452.71524048
98.59500122 228.92900085 393.37997437
157.32299805 251.75198364 384.37100220
230.34490967 193.22172546 368.46606445
112.20935822 225.91722107 474.57907104
157.33799744 213.55400085 352.95098877
152.23899841 193.04899597 348.32901001
97.45299530 147.61898804 370.96499634
96.65499878 222.24099731 377.62899780
137.23999023 190.23699951 346.79498291
122.78199768 162.90699768 351.15600586
170.68260193 138.03164673 379.27029419
216.89447021 200.86718750 433.27810669
119.66976166 145.47312927 503.90023804
213.19866943 250.72669983 418.61566162
99.72251892 124.56580353 412.82934570
232.43080139 213.20440674 375.48849487
84.96123505 178.97578430 406.71737671
167.85000610 200.78800964 353.69100952
150.47651672 108.51029205 440.58279419
233.96987915 238.26492310 456.37063599
223.39376831 226.98852539 450.29479980
202.30970764 219.93658447 454.40841675
93.05599976 155.44000244 371.90802002
127.56499481 217.54600525 352.94699097
264.80538940 227.84405518 385.15963745
160.84718323 115.69288635 442.19012451
157.17858887 109.37612152 427.26614380
259.95983887 221.40701294 371.65051270
86.06999969 168.86100769 394.08099365
154.37300110 137.40199280 373.63299561
139.90560913 254.65631104 409.65975952
122.60489655 110.05654907 433.13043213
184.97000122 184.98001099 381.55999756
171.16853333 144.74763489 439.01098633
212.65054321 196.90820312 373.49645996
104.74756622 122.30683136 424.62316895
237.78193665 194.55783081 409.71264648
170.83581543 218.88914490 460.59597778
142.14900208 145.25898743 363.27600098
87.63600159 152.07099915 400.36300659
111.78500366 148.85499573 359.65499878
146.71356201 256.68414307 427.15673828
167.00799561 217.00898743 357.38998413
119.93615723 173.11669922 518.83520508
147.96987915 201.15960693 454.17858887
130.04046631 110.45283508 449.12622070
89.90031433 169.34095764 477.11499023
89.47424316 139.33404541 430.56072998
134.87007141 105.19399261 409.23037720
138.49163818 247.51622009 479.25222778
95.02200317 135.53092957 454.16027832
99.62400055 167.24600220 359.80599976
129.62211609 236.52932739 488.21023560
83.89521790 183.33943176 422.96029663
181.95352173 198.82206726 421.31024170
125.40833282 223.46537781 512.84020996
201.02641296 173.77720642 399.63705444
150.83595276 255.34248352 409.83670044
251.95172119 182.82621765 361.47912598
242.31047058 225.35888672 430.04040527
229.31527710 247.03865051 467.02807617
164.83621216 240.89823914 473.58831787
178.59600830 157.25498962 377.45898438
110.47600555 238.85800171 386.47299194
147.86698914 174.51199341 352.88800049
182.75074768 162.59606934 408.17874146
239.90333557 251.34187317 412.62863159
124.14177704 201.38569641 521.69348145
141.85807800 227.13742065 462.87762451
174.31896973 204.51277161 452.54687500
125.91144562 187.28872681 516.01647949
144.69842529 190.68411255 430.58514404
140.12699890 226.16299438 355.55300903
149.62284851 254.34538269 397.09680176
92.66799927 143.55300903 384.32199097
205.43000793 251.02146912 394.31201172
95.49397278 201.85282898 462.78674316
141.48515320 156.98461914 476.08312988
186.60441589 257.38650513 412.28329468
91.57662964 216.64277649 414.60626221
163.04730225 255.89814758 463.58587646
108.87352753 117.60206604 397.31411743
204.12600708 223.85501099 378.49398804
267.77365112 235.78077698 391.27859497
87.52159119 185.94721985 447.08923340
200.50300598 203.59599304 375.47100830
140.07240295 255.64849854 421.79067993
142.31500244 249.80899048 382.59500122
88.33000183 159.95700073 379.87301636
185.35583496 223.63012695 417.42254639
249.31973267 212.11425781 370.46502686
110.08423615 116.41552734 408.98992920
245.91401672 226.28979492 379.02297974
179.34088135 127.44331360 397.75558472
115.82971191 178.42285156 528.57324219
105.07392883 212.45732117 471.79095459
193.89979553 252.96986389 447.13076782
134.36672974 107.63189697 437.90820312
87.24900055 204.23600769 401.69900513
111.02142334 116.57413483 426.12121582
206.18618774 209.17797852 442.67007446
217.07502747 229.94909668 460.26422119
152.42434692 167.48515320 477.72738647
153.52032471 233.43740845 502.79379272
155.68389893 219.74580383 460.58825684
170.56742859 116.03707886 417.27160645
199.40620422 176.55473328 386.81143188
112.79342651 231.07878113 468.33407593
183.80854797 208.33697510 442.80722046
136.91535950 251.32754517 397.47644043
86.12389374 189.71652222 408.66799927
96.91014099 148.26959229 489.29406738
85.40800476 182.44000244 389.56799316
186.54331970 158.59857178 414.75588989
138.88348389 113.28681183 462.20867920
110.04919434 140.46769714 513.50946045
101.79367828 217.33418274 463.45538330
130.67900085 168.81700134 351.35598755
191.05821228 159.10188293 392.38385010
264.44494629 200.77630615 368.61801147
264.16543579 246.93762207 399.41076660
162.29360962 231.66662598 470.46527100
102.25142670 124.36350250 397.27127075
126.01924133 251.27517700 415.02420044
143.59788513 106.66396332 394.60131836
178.63200378 193.02299500 362.44000244
191.29400635 247.52000427 387.00100708
145.06726074 257.27639771 464.67263794
92.17070770 214.63418579 428.17602539
112.69235229 240.37185669 447.12411499
212.41773987 175.07975769 393.47927856
231.04849243 250.09080505 426.69836426
158.69416809 120.28194427 382.76742554
213.78625488 247.58303833 472.28488159
124.70899963 180.94099426 348.49200439
112.50881195 161.57925415 531.30767822
94.88520050 174.25042725 500.57553101
114.59877777 119.64981842 462.46289062
144.82966614 149.63003540 462.86566162
170.50187683 166.98912048 457.48352051
87.28044891 174.18774414 459.59060669
150.79779053 107.88965607 432.09640503
141.24407959 127.33757782 374.61358643
169.96589661 257.32028198 414.83370972
188.40354919 250.61676025 456.39208984
85.94970703 158.59872437 426.73660278
248.45605469 203.07434082 397.43884277
103.58777618 208.12635803 487.19168091
85.87951660 157.32823181 451.57687378
95.19370270 213.17828369 449.03579712
198.80784607 253.44613647 433.79129028
267.52514648 212.21058655 373.20135498
128.07855225 251.58969116 456.21740723
201.00598145 254.58172607 408.03964233
182.20298767 203.34100342 364.18301392
131.75216675 152.64414978 484.20745850
142.52799988 244.27000427 372.26901245
116.74126434 156.72242737 523.33087158
94.00328827 158.63909912 488.57815552
206.21556091 171.83760071 408.49081421
193.12199402 195.13999939 372.46099854
237.25988770 190.22113037 401.63061523
185.40974426 179.51472473 418.60147095
102.87604523 193.81376648 518.70965576
84.67900085 164.39099121 411.75198364
234.25263977 249.23965454 396.65032959
130.51502991 175.23822021 505.47610474
143.08248901 127.04211426 457.04153442
133.94999695 249.07701111 384.71600342
92.59600067 168.90100098 366.69000244
174.67959595 172.23368835 448.76177979
200.30815125 203.52159119 440.62551880
86.81800079 175.06100464 376.09500122
241.17956543 188.95393372 389.26687622
243.02833557 240.16976929 441.16278076
130.89900208 224.43998718 355.66299438
151.43132019 155.45628357 460.74792480
98.05163574 128.70986938 427.69378662
167.12400818 251.82899475 387.24801636
182.75100708 217.53900146 367.60699463
122.79700470 139.19944763 488.70660400
201.93948364 176.89756775 416.87728882
148.01501465 163.49501038 356.16201782
119.22058105 220.24697876 505.17446899
185.32215881 178.75531006 405.11813354
137.43099976 212.11299133 348.39498901
89.63198853 149.91424561 455.65182495
178.57186890 173.47338867 433.21432495
127.03700256 250.89141846 441.84201050
85.49900055 185.36500549 400.43499756
173.26637268 195.49378967 421.88159180
119.56021118 120.34678650 477.60910034
163.13856506 194.87994385 466.62850952
164.85163879 189.50204468 437.15698242
96.45558167 208.45034790 458.57034302
199.82798767 228.15153503 468.01605225
188.24000549 181.74000549 397.65997314
90.11486053 178.64137268 473.14331055
119.00486755 245.94689941 427.85086060
120.34734344 112.09402466 446.03878784
133.55358887 144.28961182 473.98208618
137.89717102 209.68180847 468.36514282
89.08909607 201.99192810 438.12689209
94.89472961 218.42636108 436.01226807
184.96315002 242.38816833 475.56933594
240.25218201 250.51451111 448.49557495
113.65332794 127.39509583 489.84594727
150.14071655 130.54197693 374.51324463
174.63800049 178.30499268 370.91601562
87.25952911 164.79399109 461.24734497
149.80708313 140.63624573 451.43927002
99.11505127 231.87730408 417.57543945
141.92701721 151.72692871 469.60244751
101.79400635 172.35928345 537.31683350
123.81124878 108.92021179 400.68066406
88.91400146 205.91099548 376.82800293
151.93530273 227.85939026 494.89505005
97.27200317 215.94900513 369.63299561
256.58959961 248.87815857 407.31649780
186.51600647 190.69999695 374.20498657
104.15200043 233.85000610 387.89599609
181.15678406 189.03062439 433.38284302
99.59446716 167.54255676 514.73864746
155.39456177 258.63000488 461.88980103
168.15682983 256.69747925 454.30108643
140.39500427 217.26069641 458.16912842
179.70245361 212.73164368 452.94165039
221.63873291 205.31001282 372.84667969
253.13183594 252.97087097 417.98995972
129.23399353 243.27999878 375.54800415
179.25411987 209.93554688 414.84512329
100.78486633 223.04948425 450.31793213
258.36184692 196.91265869 372.35385132
111.59400177 228.95300293 368.52200317
158.35006714 179.92544556 480.74429321
177.30125427 253.50921631 451.93054199
171.02900696 192.07499695 358.03198242
130.42910767 189.78596497 510.11718750
145.60098267 204.36686707 475.02453613
118.00900269 188.67799377 348.55999756
172.65560913 261.01052856 428.72229004
99.19104767 128.90612793 438.88894653
153.35923767 200.16671753 467.38323975
252.78425598 211.61856079 392.20516968
126.28907013 127.96005249 478.87249756
220.22578430 237.20178223 466.66699219
105.29789734 234.24240112 440.24795532
175.11724854 247.29309082 464.71313477
217.14637756 249.56225586 454.87597656
186.02980042 142.35697937 398.60617065
177.63796997 190.39225769 447.17681885
91.74622345 136.49801636 416.05221558
197.69195557 255.33595276 415.00173950
110.43541718 133.42185974 499.32952881
244.34513855 217.43533325 374.57824707
142.49932861 218.60852051 503.98153687
195.51457214 216.99586487 452.24993896
211.05427551 182.12187195 381.66796875
183.19276428 256.44326782 405.99057007
113.98831177 191.79057312 531.72058105
177.97854614 227.24642944 470.80828857
90.33630371 198.49182129 448.64199829
98.06014252 159.06301880 502.87722778
129.85937500 216.75218201 524.49017334
265.86911011 235.97998047 380.26925659
204.90649414 185.04092407 431.99014282
174.50135803 256.41296387 405.91610718
114.92300415 122.58799744 383.33898926
156.69120789 196.21626282 479.38931274
196.98756409 184.55764771 426.12414551
175.15599060 243.72399902 377.23898315
181.82374573 200.36271667 414.52563477
135.80606079 113.87211609 382.80221558
150.71325684 186.08232117 429.23464966
167.54348755 200.69923401 450.58123779
262.01629639 192.22138977 354.00592041
217.36363220 181.13122559 417.88964844
228.95602417 199.69531250 424.81695557
171.35939026 194.81697083 441.88134766
136.78817749 217.28855896 471.64782715
228.66410828 220.11929321 376.83300781
247.04812622 249.96179199 403.20278931
85.70550537 154.08546448 443.08224487
147.86534119 169.21563721 484.94445801
89.37599945 149.66000366 388.07202148
99.27630615 138.00483704 478.43997192
158.96600342 174.90800476 356.24798584
114.03397369 243.69511414 421.78475952
157.26539612 194.24789429 426.76062012
105.89700317 134.48500061 374.37399292
103.06900024 217.52899170 365.02001953
153.60418701 202.50671387 474.72058105
211.77876282 251.45887756 444.85781860
235.88482666 198.41069031 367.90747070
262.53314209 211.79551697 379.13146973
153.00099182 152.56999207 364.33099365
138.15400696 153.68199158 358.47500610
222.09872437 211.48799133 437.96774292
94.02478027 190.47364807 480.69635010
145.66970825 120.44730377 378.68692017
144.97817993 106.33867645 424.35327148
245.88444519 206.16108704 407.82452393
167.51701355 165.80900574 366.16500854
143.24185181 206.98931885 494.35894775
134.86029053 215.57264709 517.48815918
141.21859741 231.71568298 510.64868164
164.88200378 254.71401978 402.19302368
99.73400116 178.61599731 357.12701416
158.97200012 147.19699097 370.40499878
163.42779541 157.31367493 453.41268921
208.36576843 252.29534912 407.12185669
159.29481506 164.07344055 463.46691895
98.00933075 130.61863708 449.51565552
187.14494324 186.88180542 438.14065552
94.02299500 145.52299500 377.32800293
94.40216064 184.90568542 487.00833130
159.78608704 252.16334534 472.37472534
116.28199768 129.16499329 374.61798096
146.23396301 231.15028381 467.82534790
136.74935913 107.09078979 424.05154419
181.01892090 140.83343506 425.25619507
129.50581360 118.66438293 378.14071655
179.25700378 177.37199402 383.10598755
218.88986206 249.86968994 398.52239990
131.84765625 162.06285095 496.28982544
181.28599548 206.73954773 420.91336060
86.01366425 178.51470947 447.67700195
129.03202820 250.94485474 435.24963379
125.66818237 250.26055908 449.70712280
108.11000061 204.32699585 354.35800171
84.94599915 195.12200928 382.26101685
231.12419128 206.82144165 428.86245728
159.10699463 239.64401245 368.97702026
104.18981934 124.37351227 453.45513916
149.90168762 109.49977875 391.77673340
136.54014587 157.98957825 482.61053467
170.61622620 117.01158142 426.91500854
184.43061829 162.74574280 386.58883667
179.47589111 156.24143982 432.23483276
196.74237061 185.63151550 382.92840576
185.30500793 218.90422058 454.36605835
159.15026855 182.19853210 429.88253784
118.96849823 111.35538483 407.80194092
267.85830688 242.90185547 388.40093994
100.89399719 133.20399475 382.73901367
140.55900574 174.17199707 351.32199097
253.06958008 247.78926086 391.83584595
182.32835388 149.32321167 384.55505371
108.89860535 118.43918610 434.08547974
85.12923431 171.58030701 435.39883423
217.05903625 189.13545227 431.44506836
129.72747803 251.95497131 422.57470703
107.48907471 238.18933105 432.43215942
234.26861572 243.38041687 462.15667725
168.42434692 131.31309509 380.84963989
249.73953247 232.67701721 418.71942139
148.45547485 192.32855225 490.75326538
113.06200409 217.68798828 358.28097534
217.49543762 219.79568481 377.59564209
90.94860840 190.36480713 463.25213623
242.18798828 251.64216614 441.16583252
95.97016907 201.39802551 469.96966553
123.70199585 230.41300964 362.55200195
125.01138306 113.77561188 460.22372437
192.10998535 243.23954773 477.19625854
246.79797363 177.78181458 361.40377808
172.92178345 239.64022827 473.77166748
86.97114563 146.75694275 431.19696045
246.58390808 184.24366760 356.72146606
231.89170837 228.58183289 378.90130615
141.75921631 194.29536438 498.95404053
151.76390076 211.14062500 449.38568115
240.73434448 181.80099487 375.48709106
236.20713806 224.64797974 435.59997559
149.04849243 232.10050964 474.31433105
271.69586182 214.15660095 365.86572266
146.57623291 106.77066803 415.84399414
113.04900360 162.09399414 353.68499756
110.62765503 242.82241821 406.20443726
117.69019318 227.93899536 481.38662720
120.76953888 224.16389465 495.30389404
99.20652771 188.51260376 507.22940063
108.79476166 129.79104614 484.89471436
178.39442444 231.02519226 478.26354980
86.82999420 163.76100159 387.88198853
173.73370361 123.51481628 392.67184448
120.43000031 197.73300171 348.59100342
162.77862549 111.95133972 431.31665039
116.24713898 240.01387024 456.59643555
185.44177246 143.56118774 413.31079102
214.26075745 176.98171997 410.36676025
207.57952881 245.98638916 475.55374146
210.36753845 227.33332825 460.48370361
235.87385559 212.70826721 427.00927734
207.58900452 206.23100281 378.71499634
233.59753418 187.01646423 365.07543945
105.36256409 196.35615540 527.30609131
138.19277954 252.48223877 403.38223267
88.51045227 142.34556580 424.46679688
183.59300232 229.72999573 371.27200317
117.61354065 152.15374756 518.09863281
101.29778290 233.72981262 398.67517090
97.52955627 134.04267883 463.85714722
259.78320312 243.05288696 411.97686768
174.39585876 200.25871277 432.83569336
85.44599915 160.34899902 401.23800659
154.47276306 197.90116882 448.99960327
179.56643677 167.69541931 424.90948486
180.44799805 163.40899658 374.43499756
125.56700134 142.55300903 361.20300293
117.88520813 119.42176056 470.96008301
224.96655273 193.30081177 422.35498047
121.28511810 247.70008850 433.77661133
92.16803741 188.50041199 470.95233154
93.20999908 182.63000488 363.60498047
94.45429993 137.12930298 403.75729370
209.98748779 249.53356934 459.56817627
145.01998901 202.81698608 348.54000854
251.06579590 191.13018799 375.87304688
184.50000000 238.25299072 376.79498291
166.54499817 174.90200806 361.03601074
90.15099335 215.64599609 400.75900269
95.01764679 140.83074951 471.93798828
232.99401855 249.58573914 410.36264038
103.60399628 228.08000183 375.98199463
99.26832581 152.15151978 502.90090942
233.46473694 250.19004822 433.35269165
141.64500427 159.15800476 356.01498413
252.56353760 228.02044678 378.27035522
153.85806274 129.56333923 446.10876465
119.20971680 239.89323425 464.11758423
110.78099823 143.19999695 363.51901245
254.58374023 234.57603455 409.70578003
136.46365356 167.51226807 496.12457275
99.33324432 192.38351440 494.35983276
133.25614929 181.60060120 505.22195435
144.68556213 207.38471985 481.75888062
224.42547607 249.93269348 443.34585571
128.27072144 201.99224854 513.82135010
122.84310913 125.02907562 484.37802124
159.98490906 132.62942505 441.53826904
220.86270142 244.00994873 386.17285156
188.56512451 232.97319031 478.07553101
257.04101562 196.92008972 360.87127686
241.48518372 211.71255493 420.18835449
114.64399719 236.03500366 374.93701172
98.39627838 199.23242188 485.11987305
129.70767212 251.40208435 462.99017334
103.98721313 129.92517090 471.80001831
132.39884949 107.87273407 392.12335205
174.71699524 260.31555176 440.40615845
87.69137573 153.21582031 418.17904663
178.47846985 160.45091248 437.96508789
210.81399536 240.49000549 383.45901489
243.41400146 238.07382202 380.27255249
103.21498108 197.63063049 504.11038208
171.46398926 232.01499939 367.38601685
166.52349854 188.27258301 425.73187256
139.33239746 163.34181213 487.28747559
131.36485291 226.90530396 512.98590088
163.01998901 207.99394226 458.17196655
183.91508484 205.42567444 410.67663574
265.89624023 239.77378845 399.41204834
120.78867340 247.56924438 398.45205688
170.94300842 152.69599915 375.27798462
143.80055237 142.12677002 458.24688721
197.22399902 222.22599792 376.08200073
185.12121582 257.20761108 434.72216797
174.84800720 250.18098450 387.38400269
196.27584839 248.29484558 462.83538818
151.10528564 193.89021301 429.51290894
217.23178101 211.79071045 375.63839722
169.38462830 186.30392456 457.85488892
111.16699982 241.07800293 395.86700439
103.88552094 149.16316223 514.98437500
248.97126770 204.89802551 368.41064453
135.79400635 183.86300659 348.52600098
233.38206482 238.56929016 381.25274658
114.93994141 244.26904297 435.56307983
93.51725006 214.63229370 441.88482666
116.90046692 113.44639587 393.08477783
123.64233398 147.32853699 493.76019287
271.04327393 224.31660461 373.42590332
142.77464294 177.32794189 495.29470825
158.30065918 239.94726562 491.87368774
127.88143921 141.40744019 480.16000366
94.58100128 190.85900879 361.90600586
250.79968262 247.05570984 431.02200317
135.95600891 241.28300476 369.65600586
177.83099365 171.27198792 371.13601685
91.25128937 163.55763245 482.09881592
180.31890869 219.71549988 421.28305054
100.77516174 207.27401733 472.99478149
140.41488647 256.93011475 453.70074463
116.00725555 220.16545105 489.24954224
228.10694885 191.67964172 416.10659790
93.19700623 208.28999329 370.43801880
199.49470520 235.69944763 478.13839722
118.74931335 200.83161926 528.27746582
158.76347351 112.50697327 393.66217041
89.93899536 147.68899536 408.55300903
160.98399353 185.07798767 353.34500122
243.66792297 235.76492310 434.43786621
157.89199829 194.89399719 351.30200195
152.75085449 260.56170654 456.23101807
263.80413818 201.08477783 361.11230469
165.76499939 162.04165649 457.50277710
148.55328369 200.46553040 460.59500122
174.24615479 181.64514160 451.83273315
109.23889923 180.84381104 537.65667725
126.70299530 155.57701111 353.85400391
204.61766052 175.02580261 380.61636353
153.69325256 161.54016113 465.78659058
139.32398987 234.42399597 361.92797852
84.77899933 168.65800476 423.33001709
106.50300598 189.51300049 353.33898926
137.88800049 197.20600891 345.93899536
102.86053467 163.14819336 531.50714111
153.95513916 231.90058899 481.57849121
172.21299744 180.18199158 363.71099854
237.99468994 198.31692505 415.86572266
133.06903076 123.25428772 375.05758667
117.96636200 212.95280457 525.13061523
238.44976807 185.94471741 383.82656860
168.78500366 184.97698975 356.95800781
113.28873444 115.22524261 420.33279419
218.89414978 183.73390198 383.10705566
145.36210632 216.32464600 493.92697144
120.88986206 109.86992645 418.48663330
85.00370026 190.71662903 419.44430542
92.33393860 221.29298401 411.13079834
92.09000397 216.46598816 381.57299805
150.81529236 186.09930420 488.83816528
147.16600037 141.86000061 367.06399536
182.68296814 175.78468323 413.91427612
96.91470337 129.79490662 403.85836792
176.43399048 184.24000549 368.72598267
161.30686951 169.79055786 470.44577026
89.14720154 210.49858093 409.39285278
96.43200684 174.67323303 506.72894287
180.84403992 188.06153870 439.91433716
107.26482391 212.63438416 484.07586670
224.73875427 186.37399292 369.07363892
141.85241699 239.13400269 493.61865234
213.36126709 250.02378845 395.46087646
153.67500305 226.68200684 357.28601074
139.48876953 212.55958557 481.62280273
93.21556854 137.17080688 438.28536987
117.86706543 188.10360718 525.89569092
190.62001038 185.25799561 385.41900635
143.35699463 218.00300598 350.96899414
120.26800537 244.29499817 384.45898438
177.40409851 166.00778198 444.97567749
138.48262024 212.67715454 506.99179077
89.24417114 156.93124390 468.86651611
148.34463501 161.21279907 472.55819702
216.23712158 228.57937622 380.57656860
144.56004333 222.82249451 483.68978882
104.41400146 138.47691345 496.97192383
144.90718079 207.74676514 452.61956787
257.56845093 222.84582520 391.63928223
179.58499146 170.33700562 393.63101196
183.05255127 162.74201965 402.26437378
176.96533203 145.69425964 432.86822510
121.00099945 209.03498840 351.25299072
187.04939270 218.45414734 413.24090576
188.01344299 251.98292542 391.06900024
160.32748413 188.13555908 476.80291748
197.28698730 194.03298950 377.91799927
244.63476562 247.20713806 387.88049316
143.52803040 107.30740356 436.77578735
155.04998779 248.31399536 379.39398193
106.10925293 121.12467194 392.97845459
100.72628784 180.24494934 535.64605713
111.74599457 186.04600525 350.82800293
185.58753967 247.42036438 466.09646606
147.31500244 225.94499207 355.98901367
112.60207367 199.72721863 533.09222412
101.32600403 158.93800354 361.52200317
109.79435730 127.56314850 477.98919678
144.66755676 249.41032410 478.81188965
110.38400269 175.13301086 351.23199463
105.18109131 229.06726074 447.79269409
136.21092224 108.62950897 448.62051392
246.01992798 247.79779053 449.15924072
245.55761719 252.74604797 416.79772949
149.67161560 117.65696716 454.26248169
245.51945496 225.73440552 421.99108887
166.95953369 227.14157104 467.02087402
89.33013153 207.15374756 427.15219116
161.06016541 262.11520386 437.60058594
130.13824463 107.77333832 432.67349243
171.87876892 186.54028320 434.14151001
172.26899719 206.58900452 357.35601807
162.22074890 258.04870605 421.30853271
157.14927673 171.84004211 477.42968750
108.75530243 212.63694763 495.84786987
183.47877502 180.54742432 428.09194946
154.33319092 151.22622681 453.57809448
145.99504089 254.18972778 470.85458374
148.65100098 184.78601074 350.17202759
223.23757935 249.58906555 416.10510254
100.09112549 232.58819580 404.10882568
255.82044983 245.00497437 419.74899292
117.88400269 227.88600159 363.24899292
92.39764404 140.93086243 451.89944458
178.98278809 180.30081177 440.40368652
92.61397552 197.55111694 458.82168579
98.06553650 222.67326355 439.50946045
208.23373413 251.75141907 423.40222168
158.58876038 243.77398682 486.85052490
187.06680298 222.68701172 459.20834351
124.84888458 136.70066833 483.16525269
248.73213196 247.27241516 438.38146973
154.67553711 145.71922302 449.67810059
130.97900391 249.65800476 390.30798340
112.25270844 210.05078125 512.89288330
249.07293701 238.58326721 423.45785522
92.29045868 217.14825439 422.93829346
156.37948608 118.52037811 447.59985352
141.30216980 105.44751740 409.76217651
248.17187500 192.05928040 384.38983154
140.76257324 205.12893677 464.97109985
140.01002502 235.02694702 501.21212769
98.41369629 226.16381836 433.56433105
166.03927612 112.76186371 404.35403442
123.77498627 214.43347168 527.24176025
164.28472900 193.21817017 443.47579956
87.05300140 184.43901062 373.85400391
161.91899109 203.67599487 351.61700439
92.00183105 204.68696594 449.54718018
223.55036926 249.28627014 455.03579712
174.78138733 133.15849304 432.52465820
143.74917603 252.37390137 395.24539185
102.02578735 160.37606812 524.15429688
84.81399536 188.63500977 384.69897461
85.95317078 159.43951416 415.16891479
193.12681580 189.47865295 439.12512207
143.75048828 256.11267090 414.15472412
103.57129669 191.58734131 533.68322754
219.01637268 250.65544128 427.23867798
196.94900513 208.90499878 373.65698242
91.14199829 192.90399170 366.72799683
109.77702332 241.10450745 418.13272095
159.53083801 226.35919189 468.67053223
211.23522949 196.20376587 435.69912720
257.82699585 187.90928650 360.90341187
262.83453369 221.48072815 383.04595947
160.00637817 110.13149261 401.22915649
94.66999817 138.49499512 398.58499146
228.43116760 180.33901978 372.89758301
149.60198975 250.62298584 383.37500000
117.11899567 173.58799744 350.58599854
153.13499451 209.25498962 350.99700928
222.01448059 186.88085938 424.97344971
130.56799316 212.62500000 350.54699707
208.66143799 221.21850586 453.87716675
141.16862488 182.72798157 497.92385864
180.78639221 126.82612610 417.31915283
250.06318665 254.65342712 427.69723511
165.88540649 260.70800781 429.88226318
198.15608215 178.76930237 392.98550415
88.51300049 150.57598877 394.15802002
134.29209900 202.35290527 504.41430664
173.71859741 118.10391235 404.34918213
122.43235779 246.42959595 457.54663086
164.95526123 127.04700470 439.38104248
125.72963715 231.50901794 491.01855469
186.71310425 254.87881470 442.36868286
85.45300293 176.55700684 385.10501099
103.54719543 137.42585754 485.85614014
122.79199982 236.82099915 369.50900269
104.06349945 120.46833038 410.51446533
114.06893921 146.92895508 521.39251709
162.35400391 249.55700684 381.48400879
121.85499573 246.50700378 390.02902222
88.71558380 182.01695251 459.42269897
256.19442749 233.22814941 380.17425537
140.02764893 254.57281494 434.72866821
88.38600159 156.28999329 384.85800171
153.54003906 225.02796936 462.72967529
122.99015808 153.29922485 502.11734009
204.61796570 252.49890137 435.84671021
243.17118835 199.81991577 368.06088257
152.29081726 258.84310913 434.16021729
190.56640625 213.06816101 412.50631714
137.36676025 118.84063721 466.76571655
160.41468811 145.94093323 445.52142334
110.84116364 232.35479736 455.68151855
128.56065369 152.16325378 489.29345703
189.90238953 211.04676819 443.97952271
86.46451569 192.28344727 438.16665649
230.59681702 249.46804810 401.88626099
150.21380615 228.29777527 503.70346069
84.68764496 186.30680847 427.65979004
228.25009155 226.48031616 446.32577515
88.91103363 163.16661072 468.11029053
85.00900269 172.93099976 403.30999756
180.73315430 253.56846619 392.69589233
109.53772736 190.85035706 535.83453369
120.50399780 134.73300171 367.33697510
183.40666199 153.30451965 420.68115234
220.18289185 185.16465759 394.06286621
258.17706299 243.44345093 386.71264648
264.79333496 224.88647461 373.34469604
86.61699677 167.56700134 380.03097534
238.28990173 250.73585510 424.29534912
171.54125977 191.36437988 446.96942139
175.49499512 260.33984375 423.65908813
183.40744019 156.68206787 380.97659302
216.90960693 188.69047546 371.69952393
263.55490112 240.35603333 384.80722046
190.32687378 158.31146240 400.16491699
138.51510620 221.02572632 516.38665771
140.71540833 121.06143951 461.90759277
229.86323547 249.04838562 451.68679810
158.29437256 262.32171631 449.09011841
138.62260437 131.28637695 462.46591187
177.79678345 225.44407654 459.26599121
156.11520386 131.19677734 375.61709595
174.94616699 168.05575562 453.59426880
170.19635010 157.40373230 448.15432739
99.28800201 132.04998779 390.19500732
187.50032043 152.89308167 392.40902710
160.82330322 195.96197510 451.82241821
123.01986694 178.52986145 516.20703125
171.83312988 125.95697021 387.12240601
163.18783569 241.16531372 479.63543701
255.27610779 227.08312988 399.53302002
114.73699951 240.35200500 382.41299438
85.55100250 188.02400208 393.89700317
177.32487488 225.31643677 415.94067383
180.06050110 207.48710632 450.02810669
119.17799377 148.41899109 358.16000366
138.78552246 211.05873108 462.51818848
89.29329681 191.46020508 449.18807983
149.71081543 109.68138123 446.44491577
83.81002045 175.95777893 427.12835693
105.59199524 166.58499146 356.01998901
131.19999695 140.08000183 363.64498901
199.80358887 213.93173218 448.57913208
250.25689697 228.04219055 411.27398682
161.38851929 184.80929565 435.17089844
166.77906799 117.70626068 391.94613647
128.66712952 166.93347168 505.91903687
87.11399841 200.14900208 377.24798584
202.97999573 252.95538330 419.36560059
193.56781006 180.77194214 408.62103271
117.60340881 117.18610382 385.07302856
139.19819641 255.61064148 464.86758423
170.28300476 237.01000977 370.56600952
208.22677612 177.43150330 421.53860474
184.29495239 145.10205078 418.95590210
204.37599182 247.87800598 390.57498169
148.05300903 149.43299866 362.92300415
96.65799713 155.12199402 367.08898926
102.72718811 143.04644775 501.42724609
151.87342834 180.98901367 485.87573242
174.04512024 143.35704041 380.35250854
184.99151611 139.06100464 408.61175537
172.47029114 137.79272461 435.77569580
109.91699982 198.78100586 352.87500000
225.40553284 187.36019897 413.01126099
234.04656982 207.87464905 373.07220459
168.84297180 246.58863831 464.19836426
114.92651367 113.56788635 429.47302246
204.16299438 230.40899658 381.17901611
147.20170593 124.48914337 453.51065063
222.10377502 233.54357910 462.32528687
149.28500366 198.38301086 348.62399292
139.40612793 224.85502625 475.95578003
119.20218658 218.86260986 511.09243774
165.24818420 246.83763123 476.18859863
85.29313660 180.01428223 436.99102783
202.93849182 249.51933289 460.06118774
93.67237091 175.08795166 494.99884033
131.41804504 106.99144745 421.02236938
107.36399841 221.67100525 364.92098999
150.39999390 217.14564514 453.88565063
118.86733246 238.17848206 469.57388306
91.34785461 211.04949951 437.81872559
152.93884277 108.46083069 414.90795898
265.84371948 195.29850769 357.93774414
169.34240723 173.04579163 460.72613525
195.67481995 199.70964050 437.64587402
238.30911255 242.31950378 454.69360352
164.43688965 197.30050659 430.27410889
205.29547119 169.38363647 393.52770996
188.58799744 200.59199524 368.35198975
83.12061310 180.32084656 418.08560181
97.47855377 186.94845581 501.15673828
251.50302124 186.09425354 367.67044067
146.09042358 243.13607788 487.41510010
182.06637573 259.66455078 426.27615356
201.17988586 251.40077209 451.17193604
148.34049988 259.61386108 443.87200928
154.68475342 255.38179016 406.14062500
222.46418762 238.61569214 381.98178101
219.33488464 227.85151672 455.26171875
167.94692993 259.89035034 449.40942383
85.40599823 189.98800659 378.92300415
187.84500122 243.62899780 382.54699707
149.25738525 203.31211853 486.72460938
129.93069458 106.49010468 403.73300171
106.75212860 141.02395630 508.68444824
210.70153809 251.68472290 436.09063721
170.21810913 124.82505798 434.41455078
108.86148834 174.99320984 538.02783203
201.27255249 248.19487000 465.91473389
206.11004639 187.04228210 376.88955688
107.24869537 125.12355804 385.46859741
85.39301300 172.44056702 447.36843872
261.17913818 240.09062195 406.85073853
127.23175049 124.61042023 374.98678589
89.68675995 141.26264954 419.36938477
182.38600159 190.53199768 370.01498413
121.67572021 188.24488831 519.92962646
218.08679199 221.57266235 448.23318481
215.99928284 248.59524536 465.71878052
115.57699585 209.64500427 353.43600464
179.45599365 214.15800476 364.10702515
132.68800354 199.94198608 345.84399414
211.07565308 251.10729980 411.73825073
260.52743530 216.10789490 382.78921509
188.16743469 184.69212341 431.41622925
144.14674377 224.91632080 512.01678467
88.52944183 207.90370178 414.39501953
241.08247375 223.49391174 377.26800537
117.32556915 246.79614258 412.46063232
219.33959961 205.50939941 435.67462158
262.67587280 247.55957031 409.64807129
198.46400452 234.59100342 379.32800293
268.15328979 226.62336731 380.30810547
109.45200348 231.39199829 373.38998413
181.38999939 223.22499084 367.81500244
154.45579529 246.46257019 483.49542236
175.69522095 214.01184082 456.97027588
162.35885620 182.73600769 475.75961304
117.26688385 171.33218384 523.79949951
122.46370697 160.57989502 511.80535889
234.01618958 175.78950500 365.57907104
110.99278259 115.01421356 403.71719360
248.34219360 212.62962341 407.58596802
144.11628723 216.56295776 486.01580811
181.29299927 177.59298706 393.55798340
119.34949493 116.71501923 460.66091919
178.31900024 208.21699524 361.86798096
144.82655334 258.49392700 450.28436279
227.23510742 217.49739075 438.18200684
123.00686646 195.76910400 520.81219482
133.05982971 252.45153809 431.26953125
103.58235931 221.83647156 460.27624512
211.23793030 184.56352234 431.13092041
172.63084412 243.24813843 468.97149658
155.33700562 218.90899658 353.92498779
209.22900391 212.26200867 378.58700562
107.36007690 120.34513092 445.61767578
135.98098755 166.50100708 351.10501099
91.12547302 174.55581665 483.58099365
137.53051758 222.46130371 465.84152222
158.16046143 234.57902527 489.59115601
91.66500092 217.30099487 389.36999512
240.89328003 212.34471130 373.97454834
92.93600464 220.68099976 401.26400757
128.08801270 251.75410461 408.43609619
141.82099915 187.16900635 348.51300049
100.46095276 163.72628784 518.93267822
257.57818604 211.79760742 386.05584717
208.15499878 234.34098816 383.05099487
143.57072449 112.71589661 458.14147949
91.27603149 155.74497986 476.64385986
132.82705688 254.15504456 454.00802612
250.15452576 239.47366333 381.83346558
121.25225830 111.12374878 440.31155396
104.83255768 226.88616943 453.97756958
131.58467102 120.17751312 473.04345703
106.04756165 151.02442932 522.99621582
239.70407104 234.21409607 444.28115845
136.02339172 195.35595703 502.28576660
207.08441162 171.10894775 387.24713135
130.85714722 229.65463257 502.79553223
98.87554169 163.33880615 508.42028809
164.96598816 112.23416138 415.35403442
154.76416016 231.42652893 473.45196533
228.03123474 230.23823547 451.22735596
107.16100311 137.85398865 369.89901733
215.31697083 177.05851746 404.72964478
97.91400146 142.70498657 373.89001465
97.85639191 181.96949768 510.64068604
207.72300720 201.26501465 375.85000610
106.25679779 120.43399811 438.65530396
118.91981506 149.23545837 513.27362061
88.73298645 176.70739746 466.06475830
143.54212952 230.15502930 474.54959106
131.50903320 106.08307648 413.83047485
95.02152252 136.54153442 459.54531860
105.07205963 208.39450073 492.47714233
232.57542419 218.40402222 434.25833130
124.99143982 221.28479004 518.02526855
241.63638306 249.59678650 397.45651245
83.45169830 171.78086853 417.52246094
156.85601807 208.54096985 452.09738159
205.68800354 242.59799194 384.82000732
162.00013733 194.37097168 435.54357910
84.55630493 168.38949585 442.37341309
187.35110474 228.14898682 468.40097046
132.97599792 153.28100586 356.13098145
202.02487183 168.99082947 402.53143311
84.71456909 158.15257263 433.49243164
97.95142365 170.15382385 510.07949829
169.72132874 260.99047852 443.04776001
92.71065521 137.57708740 408.88937378
168.87500000 221.38699341 360.48999023
151.58300781 234.40800476 362.62701416
264.87481689 216.43284607 367.97241211
171.84001160 180.94151306 459.00390625
142.18928528 245.39593506 482.89279175
166.23106384 176.21134949 468.82693481
200.33061218 244.63858032 477.14440918
126.85519409 172.86753845 509.95397949
88.14567566 146.67950439 441.83087158
243.62347412 177.54847717 366.23895264
154.85714722 110.41761780 443.61761475
218.38983154 250.03955078 405.64797974
107.81300354 217.60499573 361.01202393
247.23171997 187.01600647 375.90084839
169.87165833 200.17367554 422.25708008
243.86425781 243.98956299 382.98074341
91.16728973 195.57006836 453.00143433
246.27569580 194.16662598 363.31597900
180.82330322 213.15560913 411.06246948
159.06399536 228.63000488 360.02798462
141.54856873 222.85156250 459.36828613
149.59248352 174.31948853 486.75836182
122.72486115 109.81835175 426.80789185
128.33204651 110.66625977 388.89105225
193.26129150 213.30216980 447.98925781
163.05334473 120.75903320 441.18502808
111.80551147 216.16290283 484.00347900
272.05694580 232.02565002 382.06356812
100.27900696 229.29699707 387.86599731
160.99000549 161.31900024 365.03799438
101.17402649 158.28335571 516.21356201
163.29585266 114.39341736 436.35412598
180.50483704 171.55123901 417.61877441
145.85543823 138.13635254 454.40057373
138.95018005 110.68915558 455.65631104
167.39791870 204.70523071 457.02279663
219.54504395 199.99981689 372.95504761
110.34510040 205.38125610 523.82019043
126.61116028 242.23100281 476.87902832
178.87300110 247.49099731 384.54101562
111.01722717 116.66307831 414.74038696
187.27900696 216.92900085 370.86599731
132.36592102 246.86955261 476.28823853
147.01699829 168.62500000 353.61599731
103.89364624 209.88851929 478.39651489
165.17091370 256.14813232 412.06622314
102.91774750 139.85942078 491.22915649
249.62597656 222.62083435 410.24746704
103.89597321 216.45178223 468.29144287
111.18274689 123.02780151 466.60064697
160.97392273 198.34065247 462.76434326
253.15687561 201.80380249 387.80004883
251.80023193 186.28450012 355.72372437
152.79800415 177.00601196 353.80999756
90.49935913 148.15849304 464.66156006
108.14942169 200.99803162 528.82250977
102.28200531 139.16899109 372.30999756
244.61709595 244.07511902 445.26553345
222.80519104 199.65678406 428.81527710
224.36972046 198.11102295 370.17990112
138.03471375 207.85697937 499.02154541
156.50225830 257.01248169 418.88781738
128.20797729 205.56172180 518.65167236
131.36599731 132.92300415 369.10098267
247.08459473 218.29954529 415.40335083
166.27647400 182.42445374 469.26116943
106.77416992 208.22676086 498.60839844
185.37815857 199.58624268 433.89065552
181.19207764 166.44639587 398.90768433
92.25631714 140.09727478 442.84536743
197.15983582 241.30332947 481.28671265
201.80763245 190.61378479 435.08233643
146.37216187 111.46005249 388.02777100
113.50599670 138.15400696 366.00399780
211.68826294 211.70581055 443.89883423
130.58699036 193.51300049 346.05700684
107.07508087 169.25914001 539.08544922
236.25112915 230.06681824 443.27603149
137.47512817 104.60490417 402.11642456
110.48186493 206.77688599 516.91918945
149.30044556 227.43540955 485.13473511
199.81130981 250.53790283 392.41683960
113.09526062 221.59671021 477.75369263
134.17733765 253.06404114 465.79888916
86.40748596 173.55143738 453.96447754
214.95898438 250.74098206 432.42706299
153.73829651 108.03355408 403.68923950
111.43500519 155.82301331 356.82601929
146.21020508 233.29183960 506.99551392
172.25926208 201.23895264 447.76678467
130.88999939 250.23300171 396.82199097
164.47554016 236.68354797 470.12072754
101.78675079 168.05148315 533.88281250
157.93000793 153.50500488 366.64102173
108.03637695 217.24259949 472.60650635
86.35400391 163.19799805 393.35400391
210.59729004 223.05598450 380.43093872
99.62599945 199.57800293 359.35000610
158.58432007 215.11663818 459.96356201
196.54615784 252.85098267 397.13745117
194.03472900 255.28370667 423.68920898
175.93591309 137.53909302 383.44900513
101.61270142 196.99287415 496.50384521
178.59962463 134.38381958 428.84387207
158.98979187 249.72541809 477.26763916
155.86300659 165.50000000 359.42901611
181.64933777 129.08630371 407.64050293
110.49365997 153.40972900 530.25775146
249.56341553 254.12666321 422.26861572
97.12699890 138.37500000 381.92199707
85.39276886 154.23941040 429.83038330
179.94900513 167.84599304 381.90798950
99.53093719 148.43740845 497.21932983
226.78816223 184.78298950 382.03527832
153.98445129 188.77691650 424.49581909
101.22518921 130.24783325 465.44039917
125.92400360 234.49600220 365.46002197
164.85655212 125.84629822 381.94665527
180.15383911 255.03161621 447.60177612
244.03524780 188.42956543 360.43951416
91.26644897 143.29508972 447.48745728
92.90699768 163.68299866 368.31900024
88.22100067 152.87399292 412.32400513
169.39233398 232.17501831 465.99514771
235.08796692 246.65553284 385.30438232
118.97000122 168.47399902 351.15701294
150.82081604 239.43026733 496.85971069
186.41925049 248.96267700 461.08221436
97.39517212 127.59075928 409.13061523
232.92124939 193.00964355 412.41528320
107.17500305 152.85800171 360.45300293
230.44779968 186.94105530 403.04653931
116.24523926 214.71398926 514.94232178
226.73602295 249.71258545 407.62997437
96.76547241 188.53465271 491.47174072
258.84558105 226.34596252 374.90255737
91.07574463 141.77444458 412.78363037
199.01499939 197.45199585 373.45001221
124.18199921 241.12300110 374.83401489
122.00699615 220.00700378 355.60501099
89.60563660 151.97450256 460.54522705
198.11361694 223.82826233 460.31936646
119.35174561 222.12460327 499.93676758
166.52200317 245.75000000 377.46701050
201.09236145 174.94578552 405.03106689
214.88230896 238.38006592 471.71444702
87.66300201 152.37500000 405.76699829
92.00901031 186.83082581 476.42791748
258.35958862 249.19252014 423.20242310
261.04168701 225.06230164 387.96304321
151.38299561 159.14199829 360.22100830
161.80899048 252.37500000 388.02099609
204.67663574 237.08757019 477.07916260
175.01536560 200.45307922 439.35470581
98.32300568 193.12199402 358.75698853
240.42214966 206.78494263 418.37930298
115.17469788 139.81893921 511.92837524
117.07099915 221.28599548 358.36700439
213.90466309 205.23077393 436.92059326
180.36378479 171.21118164 402.17752075
125.33898926 117.28417206 473.23068237
141.79000854 150.36801147 360.65499878
166.60000610 191.61006165 455.73669434
121.18215942 248.46641541 404.36132812
134.28556824 253.55773926 410.94061279
112.89608765 236.77182007 453.35867310
145.71176147 106.59334564 429.57473755
221.03764343 248.26759338 467.99749756
237.95625305 216.66812134 375.14099121
93.86753082 133.01693726 429.21685791
129.45077515 156.76718140 491.89230347
99.80438232 129.15684509 394.74215698
87.48020172 202.17532349 428.30508423
153.88641357 242.96133423 489.19439697
178.12265015 195.33389282 425.09255981
245.26683044 196.92961121 399.25946045
241.40159607 229.72546387 434.24096680
96.32013702 128.03997803 415.29766846
104.85478210 236.19812012 427.66186523
227.08374023 207.67701721 373.85446167
145.78799438 236.84400940 364.38800049
137.10899353 142.92100525 363.22900391
152.54199219 254.53799438 392.63998413
129.59889221 112.66128540 462.68649292
267.65942383 232.28704834 387.07760620
107.62999725 147.68199158 362.77197266
243.05697632 180.29003906 357.53308105
222.69692993 219.45921326 378.36566162
166.36589050 218.73655701 463.46994019
105.02000427 129.10699463 383.06201172
118.23326874 134.67544556 500.69915771
271.00906372 216.55783081 370.79904175
163.21000671 254.29698181 394.86502075
175.09382629 235.06393433 477.29272461
135.81900024 171.86399841 350.69702148
165.01434326 147.27595520 443.38134766
121.59997559 134.74922180 491.36672974
252.10949707 181.61831665 352.85034180
154.13958740 182.67437744 432.36315918
242.16224670 220.84893799 426.07638550
136.73547363 147.07878113 470.89779663
138.97280884 172.09632874 497.12908936
94.68899536 223.83200073 394.52499390
123.52747345 247.82174683 423.18411255
177.30271912 258.62786865 416.55895996
261.71389771 233.79974365 396.13864136
209.93200684 193.26879883 376.31021118
184.51330566 255.77714539 400.95581055
180.23901367 181.42098999 379.86401367
131.76502991 148.82936096 480.31347656
114.66201782 171.03746033 528.90875244
126.34044647 112.33740234 453.74819946
176.92448425 185.47633362 449.52523804
95.60330200 137.93104553 466.87979126
151.58314514 257.49530029 425.18618774
172.01000977 198.61599731 356.08700562
205.94609070 195.43475342 436.56713867
137.38688660 215.23103333 476.19180298
85.46366119 188.87074280 413.19253540
146.83970642 126.45438385 375.50576782
88.03504181 203.35307312 433.51489258
139.67472839 256.73828125 458.97415161
92.62372589 146.83787537 472.67413330
95.30756378 146.37660217 482.05572510
124.80949402 226.55545044 499.71221924
254.46295166 253.01780701 430.86816406
168.59796143 213.80819702 461.00778198
161.78720093 191.93405151 425.05963135
121.94400024 153.93099976 355.48699951
172.93757629 255.66592407 401.64251709
224.70379639 241.83132935 467.55590820
103.13546753 236.36868286 416.86044312
148.90341187 106.83377075 399.22991943
86.20028687 163.05366516 456.75253296
121.18207550 237.01457214 476.36990356
159.87899780 195.56254578 447.00067139
90.82587433 176.70776367 477.67077637
109.99880981 121.45051575 460.69210815
160.57099915 218.27600098 355.32901001
240.67628479 227.97093201 380.06600952
227.77589417 185.34529114 396.50817871
178.98097229 134.78407288 387.98364258
185.17282104 139.41641235 402.68554688
188.53147888 160.69514465 383.46203613
90.73600006 160.00900269 372.95401001
183.40484619 132.81065369 417.48770142
115.31396484 159.86883545 527.23193359
124.23799896 213.98500061 351.06097412
207.25579834 251.69920349 430.64834595
265.98977661 245.88720703 394.23791504
219.53254700 232.48492432 379.68759155
130.03100586 181.07099915 348.51501465
156.65740967 109.27216339 410.02145386
224.25791931 223.33813477 445.28128052
181.62199402 155.94625854 426.40051270
122.35227203 114.48381805 385.17797852
87.99500275 190.45500183 371.25799561
86.61410522 195.26951599 410.14028931
118.39469147 176.33580017 522.59796143
182.93684387 160.88490295 418.85549927
95.59052277 153.23313904 490.45150757
158.76168823 254.86090088 468.14584351
100.42359924 185.79414368 524.52203369
130.67448425 206.77963257 514.25524902
101.42163849 231.97817993 428.30053711
188.74230957 206.35726929 412.42007446
148.56498718 242.44099426 370.57598877
238.09480286 237.32447815 450.50750732
159.85346985 138.24415588 442.72543335
117.75164032 182.93470764 526.23364258
183.56298828 179.19699097 398.68899536
258.38253784 201.18199158 377.83926392
102.18875122 124.59344482 437.99758911
179.40699768 240.87500000 376.37100220
205.02200317 217.28199768 378.81600952
166.52731323 255.69247437 459.79162598
195.65499878 244.77299500 384.52200317
183.83015442 140.80784607 391.60238647
122.27999878 191.61599731 348.67098999
178.02497864 128.75114441 393.01208496
93.28334045 170.17102051 493.26074219
193.41799927 181.65400696 397.67797852
233.99696350 186.63429260 389.07678223
86.57736969 196.66467285 419.73223877
155.89884949 197.34326172 453.55651855
178.74252319 218.17707825 416.13739014
136.00556946 211.20996094 511.27661133
177.18759155 174.74470520 439.93377686
135.92958069 141.98597717 468.85034180
110.74200439 131.41700745 375.10998535
126.56371307 115.10838318 468.54598999
144.39074707 222.81340027 506.29074097
170.70658875 120.32919312 431.82379150
184.47125244 216.78367615 409.59115601
252.74511719 223.40837097 402.30502319
209.26930237 206.28030396 439.56610107
118.99147034 146.41888428 508.85198975
131.52206421 228.45690918 507.66140747
260.70922852 193.96092224 366.46963501
131.61679077 239.84825134 484.92126465
202.49877930 172.38400269 412.03555298
96.30010223 133.27224731 439.79586792
152.38499451 140.80900574 370.32000732
86.86055756 200.22055054 407.91537476
92.85001373 196.83068848 463.73666382
172.85557556 153.70249939 443.35021973
99.24162292 213.81072998 460.70635986
105.70820618 198.13125610 521.10595703
181.69821167 165.28741455 390.47045898
168.31204224 141.92214966 377.44039917
97.15414429 228.61589050 405.86959839
169.68969727 115.63417816 399.93734741
114.58989716 245.56729126 407.95373535
103.01533508 235.69267273 407.42886353
209.15347290 229.97694397 467.13717651
229.84202576 249.75292969 441.75830078
138.53015137 255.31932068 442.05270386
155.49426270 255.24108887 397.19424438
111.13392639 116.80846405 439.02328491
191.18547058 247.91763306 464.25762939
98.11100006 220.15899658 372.44097900
162.16154480 119.09483337 386.26770020
152.03862000 117.74398041 382.50048828
157.47801208 179.08500671 353.60299683
167.37760925 245.97720337 471.63226318
271.72137451 238.96362305 391.24801636
175.51568604 261.30725098 435.60217285
124.02200317 201.38200378 348.55200195
85.55799866 180.14300537 402.13702393
134.98941040 225.78977966 517.96820068
85.39871979 166.90040588 449.12268066
178.22741699 166.51922607 435.55392456
168.44555664 183.85870361 463.05648804
186.93197632 257.97409058 421.08850098
98.96320343 172.34741211 517.57580566
178.67800903 189.03500366 365.64001465
234.91795349 203.66925049 370.28338623
100.05570221 172.02598572 526.13018799
190.26344299 181.60261536 416.66668701
256.15328979 207.70135498 366.15704346
108.54207611 118.67536163 422.43380737
148.66413879 226.81546021 461.93243408
193.51998901 231.80699158 376.31100464
158.40142822 255.74234009 409.51608276
186.85699463 182.73899841 390.51397705
223.51930237 248.85414124 395.74429321
268.19100952 245.48318481 402.10406494
89.80395508 172.58055115 473.36376953
229.42199707 236.85452271 458.37893677
180.29888916 185.85046387 445.40826416
181.88403320 225.73094177 421.33172607
120.67417908 229.88751221 484.90557861
158.41400146 170.42100525 358.58398438
179.83724976 246.57991028 466.69641113
108.13349915 226.81030273 464.96109009
87.37179565 169.96565247 463.30529785
254.83291626 211.68058777 369.72052002
134.47171021 108.59049225 443.92599487
141.10800171 246.85501099 376.94497681
158.99845886 258.39669800 425.45010376
111.14813232 167.66731262 532.75512695
127.20447540 220.99215698 522.57031250
151.74000549 214.13099670 351.03298950
180.20118713 203.05686951 440.80319214
134.51789856 174.64244080 501.88290405
240.86474609 195.30894470 404.27096558
177.68467712 197.52290344 418.81613159
126.75432587 135.06394958 478.56143188
141.47994995 212.90524292 455.71701050
152.66999817 245.80999756 374.46099854
145.08024597 218.59063721 498.47872925
170.56573486 192.92739868 425.15298462
145.84584045 172.00531006 489.87933350
105.98516846 144.77229309 513.58673096
160.63862610 133.63143921 376.08276367
243.31466675 252.05081177 428.04306030
263.43817139 206.71252441 364.76580811
89.47499847 147.51699829 399.14700317
92.70623779 181.19090271 484.02462769
127.71588898 248.11033630 467.38900757
157.17799377 189.91400146 350.85299683
133.64865112 191.24473572 506.03717041
126.81503296 208.31719971 523.20581055
85.10299683 166.26699829 398.86001587
134.43457031 253.86923218 423.48602295
140.67601013 221.52600098 353.38400269
90.85861969 183.58895874 471.96795654
127.68199921 227.15798950 358.43301392
176.11599731 176.95399475 375.54101562
167.12734985 139.67176819 438.78741455
90.54170227 169.75201416 481.84805298
166.43899536 152.36199951 372.12399292
100.30313110 181.44798279 530.79943848
118.76528168 129.15635681 492.67514038
193.58885193 233.86308289 478.00100708
232.88265991 243.62408447 381.93600464
88.11000061 208.12500000 388.49099731
106.35755920 204.51940918 503.48614502
255.56123352 217.49461365 371.52160645
198.79270935 253.11201477 438.48236084
174.66198730 238.19099426 372.86599731
178.82121277 152.17356873 380.86471558
134.62699890 236.38800049 364.73797607
228.70829773 224.79020691 379.54653931
129.94635010 164.06094360 501.76675415
93.38685608 150.29801941 479.31988525
189.63400269 205.60299683 369.04800415
187.51957703 205.91958618 440.62734985
141.18499756 133.48899841 370.88201904
192.24604797 252.26420593 451.67095947
183.42123413 231.41096497 477.96273804
105.78222656 201.46179199 507.85665894
133.91612244 128.28604126 467.83221436
141.67178345 200.26753235 496.68115234
127.97480774 107.36227417 398.07107544
99.53987122 195.83319092 489.74734497
156.04122925 141.74095154 446.48092651
200.94982910 172.99845886 391.82177734
147.61949158 112.99398041 454.93447876
133.37588501 253.01467896 405.82464600
157.94807434 204.04391479 448.34613037
138.56710815 138.61033630 462.83166504
108.14897919 240.22831726 411.29629517
96.04920197 163.90147400 500.46719360
101.90836334 133.64225769 476.17053223
179.07800293 173.54100037 389.83099365
109.25093079 241.08874512 424.72436523
158.72084045 221.41130066 464.52502441
189.90208435 159.53491211 387.73663330
176.05113220 171.60595703 443.72338867
226.71829224 246.47065735 387.55007935
200.35900879 242.22500610 383.46697998
83.42640686 177.78820801 414.77249146
100.97087860 123.59946442 408.09506226
177.47212219 240.12765503 475.90243530
175.79600525 195.22300720 358.98199463
100.89631653 126.56407166 448.49078369
161.96000671 197.75299072 351.00201416
168.22189331 223.35949707 463.83493042
148.43020630 222.54730225 495.09683228
149.12437439 258.62561035 462.11538696
88.99233246 206.28169250 418.98416138
180.13099670 198.87100220 363.50198364
126.54299927 249.62200928 400.90798950
94.46839142 207.13386536 454.34588623
114.67761230 241.11091614 451.37774658
198.55545044 181.41694641 383.99087524
200.96606445 208.36811829 442.73391724
185.79985046 235.98381042 482.06225586
156.30928040 108.79981232 420.32888794
114.73783875 116.57508850 453.01113892
119.58496094 168.17243958 518.67901611
114.42182922 243.25164795 440.09375000
249.94587708 201.77192688 392.50323486
140.56373596 160.91325378 481.69967651
