ply
format ascii 1.0
element vertex 2048
property float x
property float y
property float z
end_header
245.35499573 212.52000427 494.29299927
69.38699341 124.06800079 527.71002197
123.27300262 211.81799316 448.45599365
114.71199799 210.83999634 550.07501221
151.59599304 118.07700348 473.02401733
175.77700806 254.09799194 512.95599365
78.40699768 146.90100098 452.40798950
180.31500244 176.95100403 514.09899902
187.41300964 216.41699219 460.98001099
81.29499817 192.13600159 497.52398682
126.43299866 149.94799805 535.84405518
96.93399811 97.20599365 482.75799561
156.47799683 171.91499329 465.24200439
126.06100464 228.75000000 499.98999023
82.46599579 169.41400146 539.45001221
95.85200500 133.10700989 566.97705078
124.17700195 145.23400879 443.82000732
244.23399353 173.23899841 472.29598999
213.32000732 243.63900757 490.31002808
136.43299866 185.30499268 510.16598511
110.21199799 105.01599884 524.84204102
61.93500137 150.71299744 492.85198975
87.26599884 189.86900330 454.86999512
163.67498779 214.00999451 523.07299805
208.41200256 189.73500061 485.43499756
152.15901184 146.31199646 503.34899902
154.87199402 239.11898804 472.17898560
111.91500092 172.32299805 566.33801270
118.81700134 109.37199402 454.22399902
199.77600098 214.88999939 513.18298340
160.36599731 201.07499695 488.75201416
130.27099609 97.13300323 494.91998291
101.35900116 213.13198853 477.55899048
120.74899292 168.23600769 484.73599243
156.71600342 201.89599609 449.30099487
131.13800049 178.27899170 440.95297241
73.90999603 121.45300293 477.91201782
100.48100281 211.72499084 517.11499023
136.62500000 231.61700439 532.08898926
124.90099335 181.49699402 539.16003418
127.93000031 127.41300201 511.95401001
217.98300171 217.71299744 473.56701660
183.22399902 245.67900085 482.98001099
88.29600525 109.28299713 548.64001465
69.14099884 173.80799866 473.79498291
182.61801147 172.44699097 481.17300415
102.80500031 166.18501282 441.28701782
151.13699341 143.91799927 459.55398560
92.17500305 120.58000183 453.66702271
84.27799988 104.16200256 512.10998535
65.57799530 152.02600098 522.10498047
152.02299500 240.68099976 504.45495605
105.75500488 130.80300903 540.19500732
226.26300049 230.30799866 511.29501343
201.86099243 243.95899963 515.77197266
127.83999634 226.53999329 471.66101074
94.23699951 195.38299561 538.68902588
78.58899689 143.12799072 547.37097168
157.80499268 173.12399292 493.20797729
127.62699890 208.18699646 520.97998047
177.94400024 192.31500244 464.62698364
233.65100098 196.67599487 473.86102295
220.67999268 207.29100037 498.59301758
67.22900391 126.29799652 502.82699585
144.19900513 161.33799744 521.62500000
73.23799896 174.05799866 513.22503662
109.89800262 190.97900391 443.85000610
148.15998840 121.66199493 497.26800537
94.18599701 156.85800171 559.56799316
160.94900513 191.08100891 510.61599731
159.64700317 151.66799927 480.65399170
100.19499969 140.68600464 443.72299194
147.37500000 222.62200928 456.99499512
201.37699890 234.36799622 471.63098145
182.34500122 231.98899841 521.32000732
134.08500671 100.94400024 469.95602417
135.84199524 125.39599609 452.88400269
199.57099915 192.04699707 506.83999634
181.99400330 199.94599915 521.86401367
109.59500122 93.20499420 504.18902588
232.41799927 229.33700562 486.29199219
67.43399811 143.68798828 471.73199463
113.79299927 147.99200439 553.76702881
104.94200134 191.84700012 557.53601074
137.41900635 166.63800049 498.91598511
82.48899841 194.72700500 475.58001709
141.62400818 160.64199829 447.91201782
80.69799805 168.32199097 450.36199951
114.86199951 222.14299011 531.63000488
199.16400146 199.29200745 468.56701660
159.31700134 235.21800232 523.85003662
175.46099854 233.47500610 465.16400146
146.53300476 198.71998596 523.81201172
104.56999969 207.46701050 457.62899780
85.96499634 194.46299744 519.44897461
113.49500275 95.01799774 468.47500610
150.02799988 182.55999756 448.10299683
79.62799835 107.96199799 492.19500732
140.42100525 234.75900269 486.89401245
105.09099579 215.58900452 498.04602051
93.75199890 103.55100250 463.77700806
167.94799805 217.50799561 453.79998779
194.22399902 250.40701294 498.67599487
68.78499603 175.29399109 494.04098511
154.72799683 211.77400208 504.32003784
137.55999756 197.63800049 446.04501343
120.48400116 189.39801025 520.53497314
138.26200867 141.80799866 519.82299805
164.18099976 245.81800842 490.45101929
116.95600128 126.45999908 445.91799927
122.68099976 106.07600403 510.43600464
122.52500153 164.46200562 547.51599121
93.67500305 176.25799561 553.09802246
144.64199829 105.96199799 485.77697754
225.82598877 180.09899902 478.30099487
82.90000153 126.23999786 554.76202393
92.40299988 103.32400513 530.42297363
166.67201233 182.83200073 476.07897949
77.59399414 129.77400208 461.87298584
112.92500305 124.30900574 524.64196777
187.92900085 178.39999390 497.68002319
124.82299805 229.56700134 518.49200439
108.85400391 155.06799316 570.62103271
219.10699463 246.37699890 507.61599731
155.77299500 131.83100891 483.70199585
228.40599060 193.10900879 491.07400513
145.08299255 215.74499512 528.60394287
119.42099762 199.54299927 537.23797607
115.69499969 221.29499817 484.05599976
113.80400085 91.18799591 487.14398193
130.33700562 174.80300903 523.88604736
69.39399719 158.64199829 461.69497681
119.75699615 162.10000610 441.10198975
91.13600159 204.90600586 491.02700806
235.94599915 213.21000671 477.90701294
155.21200562 171.10900879 510.05999756
217.02200317 192.87500000 470.95401001
246.82800293 198.36000061 484.55102539
192.31500244 185.15100098 475.19000244
103.58999634 210.62899780 537.04400635
209.52400208 228.77200317 511.45797729
64.14700317 160.69400024 507.83096313
68.47900391 134.25299072 487.22299194
62.26100159 143.12200928 507.75701904
135.36900330 111.99900055 501.23297119
114.10400391 218.44599915 467.68899536
203.49200439 219.12300110 465.89599609
76.83100128 118.65599823 541.66101074
137.86799622 235.61599731 510.91598511
238.23899841 225.27600098 501.53500366
172.54400635 244.21099854 526.67395020
95.73799896 180.51100159 443.87200928
84.69799805 183.69500732 532.18103027
170.21598816 209.68901062 500.21899414
86.43800354 108.62399292 477.56399536
100.38399506 115.47399902 539.94201660
120.04999542 179.95100403 554.70697021
191.68800354 256.21398926 514.25897217
172.97999573 178.57499695 492.20098877
64.19800568 158.91400146 479.46200562
217.29299927 233.72200012 478.63198853
88.64899445 156.51200867 443.49899292
139.11599731 143.93200684 448.78500366
68.91500092 140.62500000 532.50500488
73.66299438 115.32600403 515.33801270
185.28300476 216.56500244 518.93597412
91.33700562 202.07099915 464.94799805
163.63699341 188.49598694 459.54598999
152.45599365 188.83100891 497.70001221
143.71800232 133.81999207 507.64102173
74.65600586 154.53599548 537.62799072
132.96499634 164.20899963 534.75097656
198.56900024 244.62400818 483.56900024
124.19799805 138.51701355 525.10705566
129.03800964 218.04399109 535.81298828
141.38600159 114.06400299 462.32000732
169.35400391 242.15299988 476.18200684
112.77400208 221.57899475 513.67901611
98.36400604 122.71700287 553.16198730
77.20100403 179.31599426 460.21200562
170.40499878 201.92100525 455.64999390
115.37599945 176.26899719 438.47799683
179.20100403 250.05299377 497.97201538
86.93399811 134.22200012 450.34201050
157.91999817 155.95401001 465.29800415
149.94799805 129.39700317 462.79098511
161.61898804 230.13600159 460.88000488
89.53800201 201.96699524 505.50997925
101.37400055 96.29499817 516.16198730
226.72200012 238.58399963 497.58300781
157.97500610 157.23500061 495.22097778
124.63800049 192.55599976 440.94400024
157.64201355 166.27700806 479.51199341
92.98200226 97.38499451 502.30596924
83.20400238 115.46199799 464.20300293
140.61500549 211.82400513 448.49899292
104.78700256 112.96099854 451.72399902
213.96699524 194.25000000 499.05700684
118.36899567 195.16999817 552.68402100
166.06700134 199.80299377 521.23999023
164.64201355 248.68400574 504.59100342
132.01400757 221.00999451 459.00799561
72.88999939 164.85800171 524.32604980
194.26300049 229.92900085 513.51000977
143.03599548 231.40800476 469.43899536
73.61199951 183.83500671 483.54400635
65.00700378 132.33999634 516.96301270
87.91300201 144.21199036 558.15100098
150.64900208 227.68499756 533.51800537
110.62200165 151.51800537 441.09899902
77.42199707 112.58300018 529.15197754
190.52400208 229.82600403 464.20300293
207.32901001 204.04400635 506.36798096
211.30500793 205.75498962 471.17999268
84.74499512 159.72399902 549.08898926
114.51800537 141.44400024 539.00201416
173.97900391 188.82299805 518.50201416
126.68000031 94.14300537 481.95999146
145.69500732 237.10400391 523.09002686
107.05000305 142.80499268 564.62097168
168.44200134 179.53201294 507.68798828
139.77499390 170.68499756 512.58599854
185.74899292 245.33399963 523.20202637
150.55499268 150.13099670 516.39001465
238.59500122 187.50399780 482.62597656
194.76200867 201.69999695 515.14801025
138.67999268 152.41799927 530.49499512
156.51300049 140.02198792 472.98101807
133.79399109 197.59400940 515.07098389
144.92001343 177.33200073 495.77297974
207.30599976 249.06599426 501.40600586
187.97999573 189.16400146 512.96301270
99.26399994 196.25799561 450.06799316
103.52400208 125.62100220 447.54299927
196.01899719 186.49198914 489.26602173
186.67500305 203.32301331 463.57797241
224.73800659 219.32800293 503.90499878
74.19300079 131.62599182 541.13195801
101.95600128 200.83599854 548.28900146
178.33900452 170.19699097 501.66897583
74.21199799 115.00099945 501.98800659
78.79400635 185.36199951 509.28198242
116.33899689 161.28300476 560.71398926
156.16500854 143.45399475 490.24002075
112.37799835 203.57800293 447.92300415
211.36199951 216.43400574 505.96899414
233.64500427 204.65800476 493.60702515
152.66198730 169.24400330 453.18099976
104.94300079 137.77999878 552.98797607
93.90100098 202.51199341 525.49499512
91.50700378 205.01800537 478.14398193
128.08099365 132.92199707 446.25698853
153.77999878 241.34098816 484.76202393
90.84600067 184.30101013 543.62298584
159.23100281 199.47099304 501.18200684
105.52400208 101.12300110 460.19299316
224.65299988 204.90699768 471.21899414
116.16500092 113.71099854 517.84301758
63.40599823 163.06599426 493.63897705
147.83099365 186.64399719 515.01000977
189.74800110 239.21800232 472.34899902
128.02600098 227.64399719 487.75100708
171.52799988 223.62100220 523.78399658
100.97700500 169.91700745 560.89599609
154.78500366 159.08500671 507.05200195
235.25000000 183.92900085 471.23300171
129.66500854 107.32099915 459.67297363
103.05300140 92.69499969 493.78601074
118.93799591 210.15800476 531.04400635
155.33499146 213.93299866 451.18600464
180.46200562 182.37001038 473.81402588
164.79499817 247.91300964 518.04699707
150.29699707 155.06399536 454.79000854
78.02300262 175.81300354 525.36700439
132.17300415 171.30200195 489.04498291
72.40399933 132.95399475 474.30700684
100.37400055 96.44599915 470.97900391
153.26300049 120.28200531 485.91299438
114.73600006 98.53299713 515.30804443
115.74600220 222.28999329 496.00000000
132.82400513 153.52499390 443.70599365
138.84300232 235.00700378 499.00799561
175.65899658 211.42100525 523.78100586
145.00000000 108.17199707 473.80200195
72.98199463 117.53900146 489.79199219
130.67199707 166.26899719 442.89999390
210.77400208 227.21199036 471.24600220
127.18599701 117.42900085 452.15402222
176.75000000 223.60600281 458.63101196
91.65599823 169.12300110 443.48098755
114.85099792 213.07800293 457.27499390
89.00400543 144.73500061 445.65899658
80.43900299 189.29199219 465.49200439
113.91100311 184.05799866 563.70300293
138.37599182 122.72000122 504.53399658
88.41899872 100.59700012 490.42599487
89.71899414 118.09600067 559.41699219
122.32500458 96.31800079 503.30798340
106.29000092 216.30899048 526.50500488
150.85099792 136.02999878 498.29400635
64.19499969 145.37599182 482.89199829
176.94500732 210.83499146 458.69400024
141.30699158 175.39300537 446.36898804
114.58699799 139.08499146 443.75198364
102.87200165 105.47299957 535.17401123
119.00900269 200.86500549 521.97900391
204.39100647 188.39299011 497.23498535
96.92099762 147.62400818 566.30700684
99.46600342 153.55599976 441.15600586
144.38499451 135.87600708 454.76400757
85.93499756 179.33399963 449.41601562
154.12100220 206.80000305 526.07299805
228.18598938 222.68499756 478.22897339
97.48699951 211.78700256 505.44900513
158.42900085 178.75700378 454.98202515
157.64999390 180.87800598 503.76199341
124.19200134 99.11000061 465.01699829
195.54699707 210.80699158 466.25399780
220.22200012 188.20899963 485.24499512
156.30599976 194.41500854 520.17498779
138.26699829 205.75000000 526.26800537
71.79799652 144.74900818 461.08801270
204.78298950 190.02301025 474.99002075
83.03199768 195.44999695 487.12200928
126.34999847 181.99400330 514.80700684
211.81201172 239.73699951 513.49902344
119.36199951 216.58900452 541.87902832
233.66400146 213.59999084 500.90402222
75.78500366 157.59100342 452.43399048
186.87100220 180.74800110 486.98898315
65.77400208 169.78298950 485.02001953
189.32099915 192.98200989 466.16598511
126.25999451 228.07798767 531.53302002
137.85099792 186.55799866 443.38000488
64.16600037 136.22898865 499.46298218
136.36599731 98.95200348 484.48800659
120.75099945 152.05999756 544.91503906
149.25000000 194.56599426 446.22799683
135.38299561 233.96800232 521.56298828
97.70700073 190.88900757 549.14599609
128.28799438 115.97999573 508.36801147
154.51901245 128.47999573 472.94400024
156.03099060 221.00399780 526.13598633
107.36899567 115.62300110 527.86395264
71.86199951 170.33099365 462.78598022
104.32899475 212.24600220 467.24298096
146.53100586 170.09700012 503.49700928
238.57800293 222.10900879 491.22100830
158.50199890 211.54800415 494.33499146
162.22700500 191.04200745 494.04098511
121.12400055 187.61099243 531.29101562
83.64199829 108.39399719 536.70599365
156.22399902 241.43199158 515.78399658
126.79199982 202.03300476 446.30102539
67.35599518 169.63999939 503.27099609
183.45700073 255.46499634 520.75598145
75.36999512 183.16300964 499.60198975
110.70600128 201.43798828 556.10003662
146.23400879 183.80999756 505.06799316
66.73199463 164.10600281 470.71798706
81.34500122 184.88598633 521.42401123
223.58999634 236.13700867 486.57699585
243.49301147 208.63999939 483.45101929
106.21599579 92.29800415 478.53601074
89.19699860 193.28900146 529.92303467
158.49299622 176.70899963 474.67898560
201.01399231 251.94400024 509.31198120
171.72200012 233.90800476 523.66296387
78.34100342 112.85799408 482.36502075
206.88499451 239.90100098 479.79998779
113.75500488 132.77299500 530.40899658
92.67699432 100.30999756 520.60900879
93.32399750 105.38700104 540.58599854
150.57299805 239.37001038 494.38101196
102.13899994 160.33700562 564.87695312
127.36000061 171.93199158 541.59405518
191.63900757 185.26899719 504.32598877
121.42800140 190.63499451 544.15399170
102.21900177 98.95300293 527.45996094
95.44199371 110.68999481 456.82400513
178.44599915 170.37400818 490.23699951
185.25299072 253.17698669 505.35501099
74.00599670 182.27200317 471.50497437
105.39399719 179.95800781 441.25500488
137.59100342 105.39600372 494.03302002
115.60800171 100.58999634 460.07400513
192.69299316 239.77600098 518.62597656
162.13999939 162.82499695 471.18600464
114.71299744 117.01899719 449.30200195
105.91799927 216.92900085 508.12203979
63.89599991 141.80499268 519.84698486
81.38700104 116.44799805 550.23303223
159.99800110 192.71699524 451.08898926
201.77301025 247.64299011 492.44699097
125.65100098 165.10699463 493.19000244
121.91600037 219.17100525 461.65298462
164.63301086 180.65400696 487.32598877
102.56200409 179.50999451 559.16101074
92.18700409 166.59899902 554.23498535
164.83900452 237.27700806 468.92999268
87.96800232 133.32800293 561.14898682
83.92600250 105.54700470 521.79302979
106.64000702 216.25599670 485.18099976
117.94699860 93.06199646 476.96600342
134.90299988 134.21400452 512.44097900
169.19900513 188.76100159 467.51800537
128.79299927 103.56900024 503.01699829
91.55400085 101.03599548 474.34100342
175.89900208 179.48600769 481.87597656
174.71900940 247.66099548 489.72299194
61.73699951 152.42199707 503.43798828
152.01699829 229.64399719 461.81698608
180.29600525 240.78900146 471.33099365
118.54500580 170.33700562 558.29199219
126.89299774 192.07798767 511.24798584
148.16300964 142.21600342 511.48199463
227.44200134 189.52900696 470.89898682
210.02499390 248.74299622 510.82800293
137.30500793 222.13398743 533.34698486
242.91099548 202.63299561 492.59100342
158.05700684 222.26300049 454.93298340
161.83200073 182.76600647 466.95501709
121.52899933 227.41099548 509.85598755
143.02999878 113.07099915 495.29400635
150.37600708 112.80500031 480.79498291
84.23600006 126.70401001 455.89501953
237.34300232 195.05200195 488.71298218
121.44699860 92.77500153 492.44897461
119.08300018 123.17299652 517.58599854
148.83099365 164.13700867 513.90399170
146.25300598 150.89898682 525.10101318
188.08200073 206.71899414 519.43896484
148.38400269 204.67799377 445.98098755
69.16099548 123.07599640 512.55297852
82.61199951 150.26899719 551.93499756
146.80400085 238.19200134 512.04400635
91.04900360 203.06199646 514.69000244
136.01300049 166.28199768 526.13903809
164.50500488 208.82600403 453.11599731
147.73300171 236.23199463 479.78399658
226.50199890 239.18199158 506.89697266
139.13198853 225.94699097 462.48699951
217.73399353 185.25099182 476.28598022
139.20199585 232.38299561 477.88800049
79.22600555 115.09200287 472.63198853
123.58499908 172.81700134 441.23797607
81.38700104 105.58900452 503.36700439
219.15499878 243.98599243 498.19799805
88.56700134 172.21400452 546.46301270
68.82900238 126.23299408 491.89099121
78.65600586 138.16299438 455.38500977
231.85299683 223.02099609 508.46701050
174.91799927 252.23100281 522.04296875
201.82899475 223.69499207 511.29101562
151.31401062 206.57800293 497.26901245
75.62399292 162.77799988 532.87603760
73.02600098 144.53500366 539.75500488
67.62800598 160.64100647 518.10900879
121.25399780 182.79899597 441.08502197
126.92099762 159.44099426 541.25500488
123.41600037 180.63899231 525.21099854
96.01999664 130.83499146 447.98202515
81.13099670 135.58299255 551.86401367
77.15799713 122.67600250 467.61599731
119.88600159 201.54200745 546.33203125
120.56600189 223.55699158 476.68499756
98.21099854 211.72300720 493.50500488
106.40000153 208.92199707 545.52801514
94.82699585 124.71500397 563.64697266
229.81700134 186.64500427 484.73800659
66.04799652 134.84799194 525.60699463
97.47999573 204.48799133 534.40600586
185.38800049 176.41799927 506.61801147
163.43400574 227.19599915 521.88403320
83.85199738 194.00500488 505.99996948
233.02899170 232.15899658 498.44100952
113.75900269 152.70201111 561.90698242
158.02000427 164.46200562 460.36599731
69.68100739 149.55499268 531.45495605
117.66199493 225.09098816 521.63201904
71.95800018 136.94299316 466.25399780
238.23899841 204.74499512 475.93298340
181.93699646 184.52000427 518.66296387
64.24699402 142.07200623 492.04098511
94.46199799 199.54100037 456.92199707
110.92600250 160.09600830 438.47097778
132.11000061 143.84700012 526.01300049
153.41799927 127.83600616 491.36999512
142.15501404 191.47599792 519.98199463
186.75099182 225.62500000 516.83197021
117.36599731 197.72698975 443.37002563
133.27301025 213.03201294 527.62298584
105.04399872 121.44499969 534.21801758
136.05099487 133.93800354 450.48498535
170.67700195 193.87899780 459.40399170
217.93499756 228.91398621 508.60296631
110.08599854 217.86599731 475.56298828
117.66799927 156.89900208 553.16101074
191.09700012 247.06600952 487.56399536
132.83599854 172.88101196 533.16497803
121.35299683 131.34199524 519.96203613
143.87699890 124.51699829 458.69100952
112.43499756 192.67599487 562.73504639
106.11800385 133.18600464 443.91400146
227.51901245 212.78700256 473.76199341
225.64799500 200.06300354 495.57000732
95.12100220 115.22599792 550.11102295
220.58300781 238.14299011 513.19299316
158.45100403 174.48500061 484.65402222
157.04699707 164.58299255 500.72903442
113.23500061 222.15499878 505.03497314
68.70600128 138.78500366 479.54299927
96.01200104 209.03300476 485.18600464
140.41000366 177.43701172 505.66799927
94.12699890 187.69900513 448.40899658
147.91099548 119.96199799 465.43499756
85.77299500 199.52799988 497.52700806
108.92199707 164.41200256 568.31799316
101.74500275 129.05599976 548.42102051
123.11799622 178.06201172 546.84197998
123.02000427 153.33999634 441.19500732
63.73900223 153.93299866 513.12799072
120.41100311 141.01600647 532.77703857
136.64599609 175.36099243 496.88299561
170.69700623 181.26399231 515.77697754
178.22499084 199.71400452 458.37301636
194.45001221 222.23500061 463.68499756
154.05499268 197.69700623 494.59902954
131.63700867 210.90798950 446.88998413
144.96398926 233.93499756 532.21704102
134.61900330 116.78099823 456.32400513
101.79500580 94.29599762 507.46899414
65.90999603 153.36599731 473.21502686
220.17500305 191.88000488 493.73001099
190.73199463 243.35700989 479.73098755
86.97800446 177.80299377 539.79998779
200.47900391 235.66900635 513.87695312
235.83500671 175.57800293 472.33099365
112.10299683 216.85699463 537.59698486
168.99900818 248.70500183 497.37899780
73.57299805 119.56900024 533.95404053
153.09899902 188.90600586 506.08895874
201.57200623 227.56700134 466.68402100
221.10700989 225.45999146 474.55700684
108.97399902 139.52699280 545.02703857
243.38800049 193.72799683 478.43997192
110.99199677 106.69699860 455.67199707
126.09300232 201.79699707 515.77001953
202.01100159 208.30699158 470.95599365
95.35600281 160.83799744 440.93298340
168.60101318 225.05400085 457.31298828
236.65399170 220.44900513 483.27099609
159.25900269 244.83299255 497.11001587
163.86300659 243.58599854 482.29199219
174.04800415 251.81999207 504.27996826
165.88699341 199.18000793 496.21298218
109.70899963 170.21400452 438.75302124
159.32499695 162.87399292 486.88400269
186.63800049 249.02400208 494.45300293
152.22300720 235.24198914 528.42999268
210.28999329 216.01499939 470.98602295
92.21600342 206.47900391 499.09399414
146.32099915 147.92900085 453.41699219
85.86299896 194.50799561 462.04901123
71.21299744 127.78900909 482.50100708
198.91999817 188.21099854 480.52600098
193.57901001 220.28100586 514.06201172
97.21399689 208.83799744 469.66998291
132.15600586 231.18199158 494.99197388
198.07598877 250.97599792 517.86602783
197.64801025 239.95800781 476.40499878
78.27999878 190.19200134 481.18902588
79.73600006 153.49299622 544.93200684
157.25299072 141.56900024 482.30499268
241.97599792 218.02200317 499.38000488
164.08599854 179.37800598 495.40499878
125.36300659 124.49800110 448.46600342
183.47099304 234.88099670 465.98397827
197.00999451 191.95300293 471.44201660
132.80099487 233.94801331 504.72897339
87.77999878 108.04799652 467.06799316
147.45999146 216.08500671 451.44799805
107.91999817 97.16500092 521.89099121
78.62000275 125.82300568 547.81903076
172.36000061 177.99400330 500.30798340
124.32300568 95.30500031 472.41400146
80.58599854 174.17100525 532.92602539
141.44100952 102.74499512 478.72399902
89.25499725 102.00600433 482.08499146
64.25199890 133.62799072 508.96899414
125.34600830 214.83000183 527.58502197
131.21000671 140.39799500 445.91500854
119.78800201 207.43598938 538.98498535
73.60500336 164.50999451 456.01400757
100.70600128 210.47499084 526.83300781
134.19898987 176.46299744 511.68603516
165.35800171 241.75399780 523.97198486
206.30200195 195.78500366 504.50402832
213.75900269 201.99499512 501.99002075
145.07499695 168.46699524 447.91998291
225.77699280 230.21699524 481.60498047
162.43701172 190.63600159 502.05804443
155.58799744 148.27301025 465.29199219
223.64500427 197.29598999 473.51901245
113.17099762 183.52000427 441.07501221
62.72199631 157.12699890 487.11801147
81.57200623 154.19200134 448.10699463
136.65600586 106.62099457 464.96499634
152.86999512 136.69599915 464.13601685
180.43998718 223.23399353 521.06799316
98.79899597 173.69300842 441.12597656
78.34299469 109.23500061 510.57601929
131.36799622 232.11500549 513.88299561
73.07299805 181.80599976 492.11401367
145.05799866 168.90899658 495.78500366
185.15600586 186.87500000 469.03100586
196.42500305 186.09399414 498.08801270
158.93598938 152.57899475 472.36801147
210.75999451 197.67999268 471.26800537
156.09599304 149.73400879 496.80398560
193.08799744 252.72700500 506.18600464
122.50299835 222.85200500 538.26501465
146.27799988 208.15800476 526.82800293
162.41699219 209.51400757 501.34896851
154.33500671 135.61700439 490.54400635
68.92099762 131.95599365 532.33996582
96.28699493 95.30699921 490.75000000
99.58600616 129.50000000 559.61901855
99.98200226 185.60699463 554.49896240
97.44500732 206.11000061 462.10797119
152.24299622 174.70500183 500.76599121
135.40400696 229.60099792 471.63998413
131.00999451 156.65000916 535.14099121
114.61699677 145.56500244 546.38397217
69.20700073 167.37901306 513.69000244
175.27600098 196.10699463 520.95001221
118.54600525 194.10800171 527.86895752
159.11500549 203.20899963 520.47900391
119.24900055 187.68299866 554.80596924
116.90699768 92.32299805 499.44299316
183.36000061 255.72999573 512.69903564
178.84700012 240.27799988 524.43200684
190.85299683 251.82199097 520.59002686
138.72000122 198.25000000 521.49304199
85.28800201 163.70399475 446.17398071
156.76400757 185.69099426 451.33398438
199.82699585 199.60099792 509.68801880
186.78900146 195.68200684 516.95898438
233.81100464 181.53199768 478.44201660
218.19400024 208.71701050 473.10098267
107.74400330 218.44099426 519.21704102
159.53099060 245.27700806 509.27697754
79.84100342 176.22500610 453.64901733
72.43099976 117.38400269 522.66503906
129.49499512 137.36300659 519.63800049
184.88499451 223.68901062 461.04898071
99.67500305 121.11000061 545.13403320
144.82000732 237.06900024 503.38800049
136.17800903 216.92399597 453.99798584
147.50500488 128.29199219 501.08599854
70.89799500 158.14599609 527.47796631
130.23200989 170.37998962 496.41601562
72.38099670 176.32499695 505.95300293
102.47399902 136.86000061 563.06304932
193.98899841 210.86500549 516.17498779
159.24000549 153.48500061 488.69198608
165.85099792 191.68899536 516.43701172
132.79299927 225.06399536 538.73803711
128.99200439 231.01300049 524.69403076
99.23799896 119.65999603 450.99197388
120.53099823 146.07200623 539.00500488
68.16499329 149.44400024 465.81100464
123.88099670 120.83399963 512.18096924
72.31199646 151.25900269 457.24401855
141.71699524 153.12998962 448.85699463
78.25600433 189.37300110 488.70501709
127.91200256 178.09599304 530.71899414
149.48300171 175.05599976 448.49899292
84.33199310 103.17599487 496.20501709
165.46900940 206.59999084 495.01699829
108.42900085 144.31799316 441.02600098
203.01400757 208.61000061 510.51300049
242.16600037 215.14299011 487.00000000
218.00000000 214.30000305 503.17501831
131.98100281 96.91799927 477.44198608
90.09300232 100.02200317 509.83697510
131.70899963 191.32099915 443.08502197
87.12899780 200.33100891 473.84197998
139.16699219 169.86300659 491.26800537
160.43199158 171.97700500 457.40802002
70.70899963 119.64300537 497.30700684
231.12001038 232.49200439 506.07501221
83.83899689 141.01899719 449.54498291
141.49899292 228.02099609 536.42999268
88.78900146 187.56799316 537.25097656
161.63999939 159.73699951 477.94198608
87.63600159 201.43400574 483.39001465
120.70899963 172.92300415 551.63903809
116.96399689 145.64900208 441.23199463
147.06399536 144.55099487 519.81201172
149.41799927 115.37500000 489.93301392
169.75100708 206.94700623 523.76696777
125.97299957 214.97799683 454.57901001
110.30599976 91.31999969 494.26300049
80.79999542 162.59098816 541.75598145
227.52799988 208.08300781 495.92999268
156.89698792 229.00700378 527.02099609
119.51000214 133.58900452 443.78997803
102.74700165 190.27299500 445.50897217
192.99299622 184.48699951 482.85601807
133.26800537 229.61300659 481.22598267
134.17599487 171.48399353 518.58197021
85.08399963 105.83099365 529.03497314
240.57101440 209.74699402 499.10101318
131.83300781 225.61100769 465.59701538
235.82899475 189.89300537 475.50698853
98.78700256 202.34599304 541.27301025
185.95300293 181.18800354 479.75799561
93.47100067 138.90299988 445.92999268
122.35900116 195.50399780 515.82000732
87.42900085 117.07600403 458.48599243
135.45599365 160.83900452 443.67901611
138.95001221 159.64299011 526.46704102
149.65599060 191.69700623 521.24200439
184.66099548 172.12300110 493.55502319
115.93299866 94.30599976 507.53802490
105.00500488 200.57099915 449.08499146
96.21199799 146.70599365 443.08099365
132.85499573 164.76300049 492.53100586
74.09899902 170.84300232 520.44598389
115.96299744 176.98001099 562.57501221
211.31500244 190.02200317 492.04400635
217.29199219 201.72500610 471.06900024
173.05099487 185.37500000 473.87200928
94.70600128 208.03298950 510.94299316
163.42399597 200.85800171 451.72698975
177.37300110 243.89399719 479.16998291
82.87599945 142.41799927 553.33099365
69.14400482 175.86900330 480.67999268
141.14999390 237.01399231 517.52398682
169.15200806 251.06098938 509.64700317
110.89699554 134.98300171 536.61102295
128.04800415 185.09001160 440.92102051
93.13199615 139.36300659 564.78601074
133.57299805 204.21501160 520.53704834
130.36599731 95.39099884 487.96798706
157.59800720 236.23399353 466.22601318
137.28700256 129.17199707 507.96096802
101.18799591 153.35200500 566.68597412
122.49500275 225.02000427 491.43200684
179.47100830 248.34899902 525.94500732
153.11900330 161.55400085 455.75601196
65.21399689 165.79901123 477.87402344
115.54899597 105.15899658 517.76300049
104.54700470 92.21400452 486.85000610
182.05200195 206.83700562 523.60803223
214.50399780 238.90599060 482.61401367
90.76499939 127.20100403 451.09298706
109.35799408 127.42100525 531.96697998
62.42900085 146.04798889 498.17898560
211.70599365 188.51300049 478.12399292
175.53199768 176.25099182 506.40301514
120.13700104 204.44999695 445.96600342
131.78401184 122.95999908 508.01699829
159.88800049 240.37500000 477.01498413
80.96900177 113.29699707 543.72900391
183.51499939 196.58200073 463.71398926
62.15100098 156.14099121 497.38198853
100.00199890 141.90100098 569.05401611
148.88900757 221.55900574 530.50701904
78.58999634 188.91200256 472.28302002
146.94799805 113.49500275 469.62298584
82.32399750 185.41799927 457.16799927
88.07700348 151.23300171 557.82403564
75.21499634 113.04800415 494.71600342
215.72700500 222.58399963 506.49899292
165.72299194 184.50700378 511.83700562
144.14599609 188.06399536 446.10900879
117.23799896 203.41900635 530.06201172
120.06100464 225.93699646 528.83099365
116.78200531 204.63400269 552.58001709
209.32101440 233.29899597 474.38800049
109.38599396 94.50499725 513.26696777
229.71600342 234.52999878 492.73498535
231.55599976 207.08100891 473.55599976
106.88500214 148.55499268 569.03302002
68.81199646 123.57199860 519.50903320
108.80000305 143.08198547 557.86798096
119.30599976 207.54901123 524.58001709
101.11899567 105.79899597 457.46401978
83.66799927 106.88199615 483.72702026
115.59400177 209.21299744 450.48800659
154.37998962 123.81500244 480.00198364
126.36399078 143.85299683 529.95697021
74.80999756 138.14300537 543.49499512
186.13700867 182.47698975 512.43902588
151.91000366 238.22000122 520.18701172
170.89700317 245.51100159 484.33898926
136.94799805 169.19299316 443.39099121
109.96600342 127.96199036 446.37799072
85.86599731 114.18199921 555.18298340
96.01100159 207.00900269 519.53601074
179.92399597 217.09500122 458.56100464
76.67099762 111.86000061 520.53399658
148.00100708 138.57301331 504.97399902
92.79599762 193.23899841 452.34997559
194.58100891 195.35798645 512.39599609
148.99600220 158.13999939 517.80596924
119.87599945 208.78698730 545.76599121
155.45498657 190.21800232 514.75195312
140.11199951 147.09899902 526.32299805
204.97299194 244.70899963 486.15200806
108.05899811 180.45500183 563.22601318
106.95800018 119.73200226 448.51800537
76.93599701 178.53799438 516.92303467
95.10900116 182.88299561 550.47100830
150.33699036 233.88899231 466.96798706
121.99299622 224.24600220 483.37899780
226.74499512 213.95799255 499.41400146
170.76399231 216.23800659 523.49597168
173.73600769 239.53999329 469.74600220
118.05699921 169.87100220 438.45999146
120.91600037 222.90899658 469.87399292
115.13300323 166.28700256 565.21899414
142.12300110 166.16700745 517.13995361
89.84200287 158.42999268 554.54302979
85.32299805 166.21699524 546.14196777
138.66099548 205.69000244 446.23501587
65.77999878 169.08399963 495.79998779
212.81201172 246.47399902 497.93099976
156.52200317 169.13600159 473.42999268
134.00801086 191.51599121 512.00701904
148.19200134 237.94700623 486.63800049
85.10600281 188.55099487 527.27801514
157.20399475 165.36199951 493.98101807
200.49501038 250.20999146 501.20800781
108.27100372 187.27799988 561.81799316
165.66300964 193.41799927 454.71002197
85.38600159 195.08799744 512.48901367
188.33599854 233.53199768 518.63201904
175.83100891 181.07199097 520.14202881
73.46100616 116.08900452 508.59701538
119.09200287 225.11399841 503.51797485
72.47799683 176.83599854 467.83599854
170.50700378 211.26799011 454.93899536
157.66699219 213.90299988 526.10498047
219.69599915 199.83099365 498.68701172
110.39900208 213.87701416 462.24401855
157.76400757 243.51200867 489.69598389
148.06100464 171.27600098 509.91500854
88.75499725 124.85800171 560.85900879
130.01799011 110.37200165 505.18399048
127.29400635 158.46299744 441.02200317
180.65998840 229.58000183 463.07000732
171.82299805 229.03900146 461.58099365
63.13899994 146.44700623 515.12298584
65.92900085 145.63600159 524.90197754
205.23199463 218.32800293 509.30703735
203.34999084 188.29299927 490.67599487
175.75601196 204.11799622 523.72998047
154.76599121 194.33900452 502.66897583
90.64900208 175.16101074 446.03402710
141.07299805 137.13499451 512.72900391
90.50499725 109.45899963 461.05999756
129.86401367 102.51799774 464.89700317
121.00399780 115.37500000 451.02398682
122.43600464 189.12899780 537.58898926
154.59700012 152.72900391 502.49700928
148.71299744 235.92599487 473.03598022
182.52600098 176.27600098 475.79602051
97.17000580 162.67498779 560.47497559
115.76200104 189.59001160 441.01599121
129.94599915 186.75999451 508.82696533
150.91299438 212.67900085 528.06903076
75.79699707 170.70500183 455.49301147
131.65100098 147.32099915 445.59298706
152.42399597 142.35499573 497.32699585
235.08999634 227.62500000 492.08502197
76.50299835 169.68800354 527.19201660
96.41200256 111.32899475 544.98400879
228.67399597 183.34100342 473.35101318
102.59299469 147.78298950 441.21997070
134.96899414 231.56100464 488.66400146
236.53199768 218.67300415 503.91500854
120.90200043 92.57399750 484.63699341
180.50601196 193.35900879 518.11895752
109.93000031 218.86700439 495.08700562
69.30300140 176.90100098 487.71600342
105.14900208 110.51200104 531.68499756
119.79500580 99.23999786 509.36196899
79.00500488 187.55300903 503.14300537
74.62000275 126.13099670 472.51300049
192.58999634 202.02799988 465.95901489
123.47499847 105.76100159 458.46899414
104.34600067 214.83399963 491.08499146
183.32800293 242.31300354 476.84500122
80.27099609 123.04299927 461.95098877
120.90100098 111.98899841 512.37896729
65.12799835 148.14999390 477.11898804
140.51599121 235.27101135 527.70898438
140.97200012 129.00599670 454.46801758
211.83599854 208.23399353 504.37301636
164.22100830 220.44700623 523.35900879
139.35600281 171.55000305 503.21002197
158.81800842 186.58399963 498.55398560
182.82200623 208.02200317 461.40301514
193.22399902 246.19898987 518.49700928
136.97999573 179.25900269 443.49200439
166.88699341 232.41200256 463.98800659
205.67601013 202.61999512 471.22299194
230.94299316 199.17900085 491.56201172
112.11899567 118.23199463 522.69604492
77.64199829 187.00300598 494.64602661
127.49900055 165.80400085 487.07699585
139.89601135 211.64099121 528.23699951
151.61700439 149.45800781 510.09899902
154.29798889 154.84399414 459.79699707
245.95401001 207.57701111 489.89001465
94.98199463 99.33100128 469.09600830
118.12999725 163.93400574 555.18701172
239.96701050 182.12799072 475.14099121
191.40901184 183.42399597 492.44400024
145.78099060 226.97900391 461.37899780
66.36899567 130.59201050 497.43801880
178.83599854 187.23799133 469.83999634
127.35299683 229.91900635 506.12802124
116.22200012 130.49400330 524.98400879
106.06700134 172.88101196 563.32299805
142.91099548 119.51799774 500.14801025
147.01699829 162.96299744 450.43298340
153.51300049 182.53601074 499.26000977
163.70399475 179.07099915 503.35998535
218.92799377 240.08099365 488.23800659
90.81699371 178.12800598 546.56396484
160.62399292 217.38999939 451.30499268
124.83899689 111.01000214 455.24499512
194.89399719 236.00399780 470.62500000
77.31700134 114.94900513 536.05596924
105.74700165 95.47299957 467.82601929
108.20099640 216.09700012 532.49902344
75.16300201 136.25300598 460.88598633
94.98199463 97.58699799 512.94702148
147.33799744 210.50601196 448.08200073
99.86000061 93.76799774 499.08398438
101.36000061 203.13699341 454.41101074
224.87100220 220.06399536 473.59201050
201.92399597 212.62899780 466.41000366
103.53600311 196.74200439 552.77099609
134.14999390 148.08599854 530.36199951
154.66499329 208.31399536 448.48800659
122.52999878 215.01800537 536.70300293
158.33300781 179.11399841 463.25601196
134.47601318 111.43399811 459.58700562
122.36800385 185.19200134 547.11096191
98.81600189 101.29000092 532.16998291
82.16699982 189.72200012 512.27197266
143.08500671 183.86999512 510.47802734
143.35299683 181.29299927 446.19699097
113.54299927 160.33099365 566.21099854
155.28100586 165.26699829 507.70098877
64.57400513 164.54499817 500.99401855
190.55700684 208.18699646 463.54800415
165.53900146 235.17599487 523.90496826
100.22100067 100.05100250 463.24398804
156.29100037 190.88800049 492.22100830
63.58900070 163.16400146 483.94799805
215.49299622 245.87200928 512.63702393
103.31600189 125.13199615 540.77398682
115.03299713 195.60800171 557.93103027
83.85399628 111.38800049 470.82000732
128.17298889 177.32200623 518.65600586
156.11000061 204.43800354 491.74401855
169.53300476 249.25300598 522.72497559
104.93000031 158.57000732 438.41000366
100.52500153 213.38999939 510.58197021
244.54499817 203.28700256 480.57699585
72.72000122 126.62899780 537.83398438
168.92300415 194.34500122 521.23303223
159.26000977 166.49800110 466.16400146
90.08699799 197.72399902 524.92199707
86.14599609 200.14900208 489.56399536
228.85400391 200.87001038 473.16500854
122.02500153 158.40100098 546.65704346
76.69200134 183.13400269 464.99600220
161.86499023 196.23799133 517.44995117
108.88499451 212.63700867 540.64801025
94.36900330 199.25599670 533.76104736
90.14199829 99.40799713 496.16799927
139.96600342 222.03900146 457.86300659
180.03300476 215.43099976 521.83599854
146.56799316 107.84600067 479.68798828
237.39799500 200.83299255 490.69500732
139.83599854 105.23399353 469.97500610
101.44799805 132.32899475 554.55297852
191.20800781 187.46200562 469.35498047
80.31099701 107.85800171 517.48101807
242.57501221 194.15800476 485.65899658
212.25000000 248.55400085 505.17398071
108.97100067 216.04100037 469.88299561
81.52599335 181.70199585 527.40802002
151.83299255 125.93400574 467.40200806
136.47900391 216.36000061 531.55102539
109.78300476 208.62100220 454.75598145
133.76399231 106.08799744 498.68301392
69.90700531 164.59399414 462.89501953
75.65999603 186.35200500 477.29998779
95.77299500 208.71099854 475.54699707
100.01300049 185.30799866 443.41598511
185.88499451 174.14100647 487.99600220
71.22200012 138.22099304 537.54003906
188.58499146 251.44898987 500.56396484
80.14500427 162.01499939 448.84600830
132.82200623 202.20500183 446.27899170
96.87200165 167.23300171 441.02001953
157.33900452 145.93600464 472.18899536
156.50199890 171.92700195 503.99499512
109.55400085 198.30599976 445.85101318
88.74700165 199.80000305 519.40203857
89.16600037 102.89700317 525.36901855
84.32800293 148.16400146 447.25997925
173.99699402 217.61700439 457.70700073
214.41499329 189.60099792 485.90600586
75.42199707 149.22300720 542.64300537
238.97300720 198.15899658 476.19598389
78.09600067 132.61599731 547.63800049
143.22300720 199.58599854 446.09002686
153.18200684 190.77099609 448.67797852
106.18499756 185.94599915 443.20700073
186.87699890 182.34098816 473.96099854
110.88000488 110.85300446 523.71502686
62.79700089 150.02000427 486.97998047
208.55200195 234.31800842 513.44903564
154.69400024 201.09300232 523.89099121
113.11000061 221.55599976 525.95196533
204.61801147 249.42399597 513.34503174
139.71699524 120.57399750 457.05999756
97.22299957 173.31600952 557.75598145
216.44799805 223.52198792 471.39401245
154.12600708 142.51100159 464.98501587
133.29899597 117.62699890 505.61099243
95.24800110 192.74699402 543.92803955
112.71499634 132.34999084 443.46099854
74.83200073 129.65199280 467.13098145
127.53400421 176.19499207 537.46405029
221.56700134 188.96398926 471.51501465
99.50399780 135.23100281 446.06597900
98.72200012 108.21899414 540.50701904
129.43899536 171.96800232 441.01101685
88.93399811 184.43499756 449.52398682
93.87799835 153.19099426 443.06600952
125.35299683 95.20500183 497.57998657
162.29699707 186.06199646 507.27600098
184.88598633 239.73800659 521.50701904
67.64200592 157.94599915 467.29098511
164.35700989 196.90699768 490.99099731
125.31599426 164.49398804 441.19598389
178.03999329 174.19200134 485.76699829
126.10900116 131.87800598 516.52996826
182.32699585 247.29399109 488.56900024
127.06800079 222.71299744 463.73699951
110.69100189 113.15299988 451.13598633
124.33399963 169.88299561 490.04598999
108.56000519 196.48500061 558.39501953
75.87099457 180.28399658 509.48297119
169.49499512 251.83699036 517.46398926
203.07398987 230.46099854 513.18701172
196.97399902 215.88900757 463.71200562
224.97599792 225.31799316 508.50997925
202.07800293 188.88099670 502.60000610
112.24099731 147.59600830 559.48297119
158.34201050 148.04299927 486.73901367
106.56999969 205.05400085 549.91198730
122.63999939 205.39698792 519.74896240
147.96798706 110.73500061 486.30499268
122.26500702 139.71899414 443.67599487
155.81098938 134.23199463 473.07501221
111.03800201 97.80699921 463.98199463
117.76000214 183.53399658 559.35900879
135.36700439 180.07299805 507.26800537
160.25100708 183.76000977 459.49102783
119.05500031 96.07700348 467.13198853
71.56100464 180.18099976 477.62298584
160.41400146 240.67401123 521.11694336
104.88800049 133.68199158 545.16601562
156.68000793 206.41000366 503.24398804
98.37199402 114.40100098 453.45300293
95.58100128 152.36000061 562.96405029
86.43499756 198.36599731 468.42797852
153.22500610 239.62300110 477.71701050
120.37000275 196.12400818 541.82202148
114.46200562 155.85299683 441.05999756
151.41299438 155.97599792 513.00903320
84.21699524 137.27099609 556.46398926
66.19300079 128.26100159 509.92001343
106.59000397 105.11600494 530.18096924
216.39700317 234.65499878 511.26098633
157.39401245 169.03300476 486.25601196
208.20799255 245.96301270 491.66699219
138.56600952 101.77500153 489.64700317
122.92400360 182.49499512 519.77001953
105.90600586 139.88099670 443.87200928
68.61600494 169.46699524 469.74398804
120.47599792 226.92799377 515.50000000
158.31199646 213.30900574 499.96200562
154.50100708 174.69898987 453.28598022
70.18700409 121.38299561 507.15399170
77.48699951 160.19999695 537.65496826
65.33599854 136.26199341 493.84298706
66.84700012 139.91500854 484.84899902
207.64100647 222.51699829 467.93197632
75.39099884 124.00899506 543.11297607
103.76899719 165.80900574 563.72796631
82.21600342 132.00199890 455.16601562
142.71000671 155.38400269 527.05401611
116.31600189 221.44099426 472.90899658
141.50199890 109.97299957 466.28698730
87.11100006 108.19899750 541.22399902
124.27799988 169.91299438 545.93902588
128.61199951 196.04598999 443.81600952
107.53600311 93.16300201 473.06298828
136.89399719 100.33000183 476.29800415
134.23500061 232.59100342 526.96197510
112.92500305 213.41600037 545.33203125
120.87400055 185.85400391 524.96099854
177.91299438 170.98901367 495.86099243
142.77600098 126.22000122 503.71200562
119.65999603 136.54800415 527.87500000
142.04899597 201.53700256 526.02099609
158.53401184 178.00801086 468.80798340
176.54499817 246.08198547 484.32699585
153.17500305 218.64099121 453.47299194
194.67900085 189.88400269 508.69201660
131.55299377 228.82099915 475.89300537
149.10000610 138.69599915 458.79400635
138.26499939 192.38301086 515.98199463
110.42700195 219.72100830 500.65100098
149.44900513 113.15900421 475.23199463
120.03500366 117.01300049 514.81298828
205.58399963 195.47599792 471.05398560
159.51399231 176.32600403 500.79101562
158.98699951 208.08699036 523.28302002
171.39199829 182.72399902 479.14099121
142.83900452 171.29899597 507.82000732
75.40900421 142.60700989 457.34500122
123.52000427 198.45500183 443.45098877
231.32899475 177.66099548 474.97201538
111.00699615 218.36799622 482.33801270
161.79699707 181.08900452 473.45098877
176.33200073 227.00099182 521.80102539
188.96199036 234.95399475 467.17797852
131.34098816 122.46099854 451.27600098
95.30899811 118.43500519 555.09899902
164.20399475 221.67900085 453.76699829
155.05500793 242.05900574 510.26702881
69.35100555 143.62199402 466.47000122
127.78800964 164.95500183 540.81701660
215.63200378 228.35400391 474.08102417
93.08499908 205.66700745 471.70001221
221.40599060 184.71899414 481.04501343
141.28599548 177.92799377 499.97500610
99.82600403 212.58500671 487.19598389
70.22100067 174.96499634 500.99099731
130.84199524 128.57099915 448.39001465
143.60499573 218.55599976 454.62799072
82.10500336 112.12900543 477.54602051
194.89898682 235.06100464 515.58001709
113.59400177 91.45700073 481.58499146
87.92600250 138.86000061 560.29895020
79.44100189 184.57398987 514.75000000
62.64399719 141.02600098 502.62301636
104.41999817 216.00399780 513.56298828
175.39500427 204.33300781 457.13299561
103.93299866 115.56100464 533.64404297
112.61499786 100.49200439 520.04602051
152.70100403 225.35101318 458.37399292
222.16799927 244.35499573 503.45800781
207.10499573 242.18000793 516.04699707
96.59799957 124.20500183 449.23202515
157.98098755 145.26100159 477.64901733
105.40200043 210.84700012 461.99301147
140.56900024 138.05699158 451.39599609
89.91099548 100.66100311 515.33398438
142.45100403 219.70399475 531.43298340
138.12600708 117.05300140 501.42401123
156.34800720 133.79299927 478.56799316
79.24000549 168.35699463 535.09399414
144.20600891 119.67399597 461.35601807
208.15299988 222.94599915 508.54998779
144.73699951 167.72900391 512.54199219
206.65599060 209.52400208 468.25701904
105.29500580 153.77600098 441.09799194
98.05799866 178.69499207 556.09698486
123.57500458 189.22799683 514.59497070
162.88299561 226.82600403 456.67599487
88.44100189 199.82800293 511.09201050
85.98799896 173.48001099 448.40899658
85.10199738 198.65800476 479.38497925
145.28700256 131.11900330 457.35101318
198.84001160 205.37400818 512.00994873
104.22699738 157.63099670 569.17199707
141.68000793 166.60499573 502.86502075
222.78500366 242.21600342 510.27398682
171.71701050 181.21400452 484.95501709
152.58100891 117.36100006 478.71499634
63.65200043 137.70700073 512.56695557
234.17399597 227.77000427 507.07101440
222.48100281 240.79499817 494.93701172
161.57800293 188.35900879 454.48498535
233.15499878 190.31300354 487.02801514
71.14800262 122.54499817 488.59701538
90.07699585 161.77799988 443.47302246
91.89399719 145.90699768 561.47497559
95.82099915 101.09500122 526.80200195
242.11700439 198.81799316 488.45700073
75.71200562 113.33399963 487.64498901
82.61500549 120.92700195 553.56701660
193.86300659 197.51699829 468.74301147
161.25201416 177.98799133 490.66299438
155.01199341 202.72900391 498.35699463
205.50599670 250.44300842 506.62100220
131.38499451 151.36100769 533.89898682
152.48300171 198.94300842 446.29098511
66.73300171 171.69999695 490.02099609
149.61099243 187.57499695 446.03799438
151.72999573 196.53601074 523.92199707
196.88198853 187.63099670 503.59500122
160.45799255 245.87998962 502.54797363
71.12599945 133.02000427 481.04699707
162.77299500 204.10099792 501.13897705
118.34500122 197.07398987 532.53002930
125.72300720 178.09100342 441.09402466
241.75100708 217.61700439 491.80401611
210.82598877 192.49501038 472.84100342
179.87799072 252.87600708 504.74203491
124.92700195 154.42498779 540.79595947
233.00300598 217.74800110 478.19900513
151.43800354 121.43900299 492.96502686
95.41300201 167.59899902 558.45898438
102.82599640 207.21299744 541.84899902
126.92399597 150.61500549 443.75100708
115.01499939 165.41099548 438.35397339
159.46800232 193.29600525 505.69396973
198.68600464 228.06399536 510.94000244
183.73699951 171.76300049 498.85202026
224.83399963 235.50000000 511.12301636
104.30700684 212.91600037 530.56701660
85.37100220 129.45300293 558.45898438
139.57899475 163.73799133 523.00897217
179.31999207 172.78100586 508.01199341
119.52999878 215.49198914 458.37301636
233.04598999 225.07800293 483.07800293
94.41600037 96.15799713 496.07400513
187.98799133 181.42401123 503.48501587
123.89899445 101.63000488 506.86096191
90.83399963 105.04399872 535.25903320
91.43699646 190.42199707 540.95800781
151.11399841 129.08000183 496.04898071
233.15499878 209.54299927 497.43801880
151.30200195 150.60099792 457.58102417
105.56999969 174.60499573 441.24499512
120.93199921 101.68099976 460.81500244
153.17800903 224.54400635 529.36199951
115.18800354 153.43899536 556.80603027
172.69000244 238.28500366 526.57904053
161.19499207 157.42300415 472.46600342
161.10501099 207.92500305 491.39498901
140.65100098 192.10299683 446.22000122
72.27799988 179.02200317 496.60098267
225.12699890 188.67399597 487.30401611
85.57300568 197.81399536 502.67999268
88.73199463 151.22300720 444.16799927
91.00299835 111.37599945 552.72503662
205.59400940 231.00000000 471.35299683
95.22800446 98.40399933 477.85501099
186.99299622 256.57400513 516.92895508
110.22299957 147.44499207 565.03497314
144.49598694 109.29600525 490.07299805
123.12300110 128.67100525 446.04098511
198.06599426 240.30099487 516.46600342
191.89700317 214.33099365 463.86599731
165.17900085 186.33000183 464.87600708
190.85400391 183.01300049 497.70901489
105.08499908 195.01499939 445.98199463
155.58500671 126.71899414 485.11300659
216.33300781 207.89199829 501.57498169
101.59899902 191.12100220 553.48095703
116.84600067 150.95199585 441.15200806
153.34999084 122.99700165 474.86401367
163.33900452 211.76399231 496.49899292
148.95999146 179.95298767 497.98797607
234.15400696 202.35400391 473.55398560
211.89500427 236.17300415 478.01300049
127.44799042 228.03300476 492.99401855
239.98800659 215.07899475 482.18399048
130.96299744 230.19799805 530.38299561
146.96900940 237.52699280 497.77600098
91.36599731 205.16799927 483.61502075
163.34599304 179.60198975 509.07598877
219.97100830 235.85299683 482.74200439
117.06499481 122.13999939 448.94097900
210.67599487 242.43099976 485.91400146
140.37899780 174.65600586 493.08801270
204.16699219 188.65100098 480.47998047
157.31700134 171.89399719 480.22100830
96.54500580 103.38600159 536.94396973
126.74899292 225.76100159 536.22503662
197.26000977 230.52301025 467.19802856
99.33999634 196.28700256 548.26202393
129.82200623 216.36599731 529.84295654
151.41600037 183.94699097 506.32901001
155.97599792 158.37899780 501.99700928
129.33000183 214.26499939 450.18801880
96.68800354 122.45500183 559.30102539
207.11199951 211.21299744 508.54199219
164.14601135 247.01100159 496.36300659
70.30200195 171.54798889 509.68496704
65.29100037 140.43901062 524.73004150
72.93000031 120.70700073 483.00399780
67.15699768 171.59399414 478.39700317
166.75199890 182.13101196 481.49600220
72.88500214 118.37300110 528.90197754
82.22699738 180.88200378 453.57998657
144.87600708 142.90499878 453.43801880
134.88299561 99.63499451 492.67700195
117.34600067 93.84999847 471.81100464
132.70098877 129.81001282 510.38598633
199.38999939 187.00000000 493.83200073
146.95700073 117.07899475 495.06597900
204.27499390 248.32699585 497.21499634
132.38899231 186.18800354 443.74499512
99.48399353 208.40699768 531.60101318
91.89700317 115.24800110 456.51098633
155.47200012 180.57200623 451.08801270
97.72100067 98.26300049 519.32104492
125.70199585 109.97299957 508.73797607
146.27900696 152.94400024 451.99700928
170.61599731 201.34899902 523.25799561
161.18598938 245.52200317 515.14697266
177.56199646 232.97799683 523.12396240
96.61400604 210.64500427 500.44500732
83.75199890 177.40899658 535.49304199
123.74600220 182.89401245 534.28295898
144.18800354 141.42599487 516.81604004
136.21600342 138.71798706 448.45300293
138.38699341 155.93299866 446.02398682
69.45700073 138.90899658 471.57202148
123.68799591 185.58599854 542.10198975
88.98400116 194.42900085 457.91598511
130.36100769 231.61900330 500.29598999
211.69500732 220.98399353 471.36398315
138.42199707 164.76799011 445.63101196
240.88500977 177.08200073 473.17800903
215.49700928 213.09800720 473.63998413
151.90499878 172.71398926 506.42501831
148.13299561 171.77600098 498.79199219
188.59399414 211.80300903 518.67401123
108.59400177 91.31700134 483.00997925
87.45800018 182.62100220 537.87304688
68.30599976 156.56300354 523.30603027
127.79000092 97.83399963 469.55099487
147.80799866 154.09399414 521.36395264
107.66500092 120.62899780 529.04998779
100.41300201 209.63800049 465.14498901
141.75100708 148.23399353 450.43099976
88.67699432 166.27200317 550.03900146
130.04800415 170.89801025 537.33697510
91.00899506 171.11100769 550.84899902
103.73699951 137.04399109 558.08801270
152.64601135 212.30700684 499.65701294
118.53499603 107.51199341 514.31500244
109.90899658 177.33799744 441.31100464
66.47200012 143.20401001 477.26397705
231.86399841 191.96798706 472.89599609
104.65399933 93.05300140 502.83200073
111.65299988 123.38200378 447.93099976
190.89399719 201.05900574 518.44000244
119.96099854 177.87500000 440.56500244
75.75499725 120.23600006 473.29800415
101.84500122 214.39500427 504.83697510
130.18499756 231.68099976 519.76501465
108.47200012 141.60899353 552.98199463
216.22900391 246.62800598 501.73001099
85.33699799 102.58399963 504.57196045
69.78900146 121.27899933 502.05398560
175.39199829 249.21099854 494.68801880
160.71000671 159.83900452 467.06100464
236.29600525 228.12800598 497.01101685
199.00601196 189.70001221 475.55200195
112.01699829 206.41299438 552.86401367
209.81900024 190.15400696 496.90399170
174.06498718 190.23300171 467.68099976
134.03700256 160.01200867 532.08599854
93.47999573 107.19099426 545.34399414
88.01899719 188.99600220 532.37896729
134.11299133 171.50599670 524.72802734
62.68300247 157.36599731 504.14401245
196.80699158 246.94000244 487.73501587
100.96199799 212.36300659 472.55300903
78.55100250 157.41600037 541.76904297
116.74600220 137.54600525 532.21295166
167.63000488 180.37800598 491.41601562
91.55000305 128.58100891 563.90899658
168.89399719 206.29699707 453.39300537
82.00199890 193.29100037 470.73999023
145.66600037 137.81199646 510.08801270
137.12699890 167.84899902 520.52996826
124.10499573 115.85600281 511.24197388
175.59899902 217.71800232 523.87103271
79.19999695 109.58300018 487.41098022
124.92500305 228.68099976 526.61700439
61.53300095 151.11500549 497.88699341
155.55299377 195.61099243 448.55899048
120.52100372 193.58900452 536.14099121
131.30900574 201.83099365 516.68499756
84.53099823 121.22599792 458.64297485
183.80899048 189.63700867 515.79400635
116.41600037 151.85600281 551.81500244
160.47000122 238.16500854 471.32299805
245.59600830 207.18600464 494.92199707
129.00000000 99.52999878 499.98098755
92.36799622 206.15499878 505.50299072
102.07600403 147.00799561 568.89300537
79.56600189 121.01999664 549.06799316
221.89399719 195.83999634 496.33499146
159.79600525 205.32099915 451.34500122
68.51599884 152.71400452 527.70697021
122.13999939 187.75700378 441.13000488
135.45001221 234.25100708 515.91699219
222.57000732 211.87100220 473.63201904
119.91299438 194.76699829 547.91400146
175.72698975 175.45199585 496.60800171
134.29400635 167.17199707 530.91802979
178.11100769 254.79000854 519.12896729
189.09199524 225.02799988 463.82299805
156.57499695 231.73399353 462.03399658
175.47599792 178.10598755 487.57998657
144.37800598 224.28999329 532.08294678
131.10198975 210.58300781 523.82299805
168.56600952 185.22900391 471.63299561
93.41999817 161.12500000 556.79400635
157.96699524 195.51600647 491.27200317
106.67099762 205.49299622 452.40301514
118.98600006 195.89999390 521.39196777
227.82800293 233.83499146 487.86398315
140.50399780 166.58000183 494.99401855
111.18700409 102.59500122 458.50698853
63.28400040 138.27499390 507.17001343
77.81600189 152.91999817 451.13302612
212.33999634 225.64401245 508.63598633
91.35899353 180.28799438 446.23602295
64.20800018 152.64199829 479.06500244
107.02200317 92.00800323 497.94097900
82.41899872 105.35700226 489.00100708
204.50498962 199.99200439 506.96701050
185.92500305 177.10499573 483.73602295
175.38499451 241.99099731 475.03201294
114.88399506 161.17900085 441.39099121
103.19599915 133.58599854 549.84301758
176.00799561 181.95700073 477.48602295
160.45300293 156.65299988 485.07101440
230.21400452 219.71299744 505.15997314
117.24200439 219.51300049 538.48797607
144.98600769 193.40899658 523.55596924
94.85100555 175.66000366 443.42498779
228.24501038 195.16000366 473.99099731
91.40299988 133.30300903 448.43701172
142.72000122 228.83000183 464.79202271
174.53700256 178.46499634 510.70999146
145.12400818 115.41300201 465.25698853
86.42499542 153.13499451 553.57702637
91.82900238 195.04800415 534.39099121
168.51200867 190.64498901 463.00698853
218.28900146 189.93200684 489.60598755
165.81900024 249.41000366 513.45697021
173.02499390 250.41899109 499.65899658
161.96000671 195.57499695 499.88699341
157.26399231 159.12500000 461.58099365
101.14099884 94.81199646 481.84500122
167.27299500 197.95399475 453.66702271
106.43599701 164.53599548 438.40600586
153.08799744 161.51100159 510.97702026
118.39199829 175.24699402 558.21398926
131.54399109 135.97300720 448.02297974
79.04700470 110.24700165 524.51904297
109.26499939 218.10699463 490.27999878
96.51999664 205.74699402 528.10296631
98.51899719 191.94300842 447.85198975
67.47299957 127.48099518 522.15399170
232.82000732 211.74398804 474.40798950
245.59300232 198.39199829 479.80401611
76.74800110 164.40100098 452.25000000
67.31300354 131.19601440 492.66400146
133.63101196 229.24700928 535.16400146
104.04799652 215.22299194 519.32299805
222.11399841 184.55000305 474.20599365
182.81100464 212.92098999 461.38900757
201.87500000 237.73500061 475.31500244
105.88400269 215.60600281 474.47100830
187.52600098 255.58900452 510.13601685
62.00300217 149.15100098 507.06701660
120.18000031 166.45799255 551.31604004
85.75599670 171.48500061 542.41595459
100.77899933 179.70700073 442.84201050
73.83599854 176.21398926 463.18701172
221.77000427 230.40899658 478.82800293
129.96600342 177.95999146 514.16394043
176.49800110 195.59100342 460.32501221
106.69100189 108.54299927 454.29998779
187.63600159 211.52200317 461.51699829
188.33399963 221.02299500 516.53997803
134.62799072 173.44898987 443.91000366
149.31799316 202.65800476 524.48498535
140.19299316 234.91899109 491.75598145
147.56900024 238.41300964 507.23999023
216.51300049 188.35299683 472.73800659
162.95300293 206.12899780 521.14202881
85.49500275 120.27700043 557.43701172
196.47200012 226.66600037 464.33801270
139.31399536 109.95499420 494.90402222
181.88999939 248.73701477 493.19299316
126.52200317 197.75399780 513.10400391
121.45500183 168.00000000 441.38601685
117.83599854 218.92399597 464.27899170
71.27999878 123.66799927 532.71801758
211.05400085 196.65400696 502.11001587
125.51499939 94.53900146 477.05902100
164.47601318 241.84500122 477.60598755
220.28199768 224.21299744 506.86996460
159.36900330 168.95899963 461.56701660
195.06399536 248.98399353 494.12097168
178.92900085 175.72698975 478.99401855
173.55599976 198.58099365 457.75799561
156.66299438 173.65299988 469.80499268
179.98899841 179.81800842 518.00195312
119.64900208 224.45100403 533.40899658
70.34899902 144.37800598 535.73699951
117.97299957 206.06500244 534.72601318
119.68699646 193.86199951 441.64199829
246.12399292 202.51800537 488.99002075
89.68599701 203.93000793 495.86901855
175.60699463 179.83799744 515.48199463
126.13099670 219.39900208 459.31500244
139.28300476 133.75199890 509.79501343
149.92700195 133.98001099 461.29901123
108.44400024 130.15299988 535.82501221
216.24099731 187.42900085 482.01901245
168.15499878 211.13200378 525.52404785
143.13000488 186.88200378 516.00500488
157.67599487 241.30499268 481.94500732
121.75600433 121.26799774 448.35699463
195.64799500 204.79600525 468.42300415
153.15901184 194.41300964 498.15301514
99.88999939 158.33100891 441.18698120
239.84300232 221.95201111 497.65301514
129.42098999 111.73699951 456.44302368
181.30599976 170.69900513 486.06100464
176.19000244 185.61999512 521.60003662
69.43400574 151.72299194 461.79598999
115.58100128 171.98799133 563.27697754
130.36399841 132.79899597 514.54095459
189.74398804 215.88000488 516.44598389
146.74800110 133.20899963 503.98699951
115.52500153 120.85700226 519.78900146
159.38800049 164.38700867 474.76898193
239.17298889 206.65100098 495.73800659
156.05500793 136.36499023 485.18899536
84.40099335 111.99600220 549.17901611
79.98400116 112.18199921 538.89001465
76.30300140 128.74600220 544.83801270
70.26000214 164.21400452 519.87097168
192.56199646 225.49299622 513.94702148
224.91000366 226.12500000 477.81698608
136.37899780 233.66700745 495.15301514
79.35500336 111.39400482 533.61999512
152.76499939 130.59399414 467.03298950
78.50000000 109.04900360 501.81399536
106.82500458 216.24400330 480.41900635
96.87400055 95.40399933 504.20397949
91.90399933 115.29599762 556.19598389
186.18299866 200.95999146 519.10504150
157.42799377 172.79499817 498.38098145
134.09500122 171.33000183 499.02297974
125.86799622 208.21400452 446.75601196
130.39900208 182.23200989 510.20700073
109.05699921 159.68699646 569.51397705
165.87799072 228.05400085 460.53500366
93.64099884 97.52700043 507.89703369
63.70800018 164.62300110 489.16000366
188.66999817 197.63400269 465.45199585
130.30900574 161.53800964 443.13299561
195.84600830 253.95599365 514.67700195
159.58699036 222.83900452 523.57800293
89.80599976 99.82600403 505.10101318
67.00800323 168.02699280 474.08599854
86.97800446 102.87200165 518.33898926
108.06700134 110.93299866 527.67901611
159.99299622 185.63699341 503.04901123
86.42199707 111.36299896 463.96197510
113.81800079 222.45800781 520.76397705
159.72599792 230.91099548 521.91503906
238.34300232 213.42900085 501.63400269
78.72399902 149.82800293 547.75604248
184.33999634 210.06500244 521.00500488
156.07800293 191.26600647 508.91500854
95.86899567 209.00300598 489.91702271
70.64999390 120.29899597 516.62701416
206.72300720 191.67199707 502.20196533
150.57400513 140.72999573 501.36602783
133.92799377 195.48001099 443.47900391
134.75000000 213.94599915 448.74798584
169.81199646 235.25999451 466.37600708
152.01499939 168.19400024 511.96496582
163.55900574 203.07699585 491.60400391
81.86499786 178.06999207 530.40899658
157.38900757 225.92700195 458.38601685
75.69599915 112.49499512 505.70498657
137.87699890 115.24300385 459.39001465
202.96000671 204.04100037 508.83801270
229.79499817 235.18699646 500.06503296
80.12300110 185.51799011 461.33999634
226.38499451 239.80999756 502.12597656
112.46799469 142.14801025 543.24499512
124.93900299 225.60200500 475.25500488
157.75999451 175.41200256 506.90298462
96.61499786 197.08700562 542.37902832
118.69899750 222.95600891 489.58502197
140.64801025 170.03599548 446.15701294
92.40700531 199.00999451 529.50195312
136.08000183 150.96199036 445.90698242
80.72900391 146.14900208 550.71301270
131.62699890 216.86900330 455.13098145
229.02000427 218.30200195 474.88400269
64.89700317 131.29800415 504.95703125
124.81500244 134.71099854 520.02502441
72.57199860 156.52101135 531.53302002
235.67700195 229.31599426 502.92098999
131.41600037 140.97500610 522.38897705
137.33300781 224.52500916 537.75903320
86.65800476 101.70699310 499.98300171
221.69000244 201.53500366 473.62399292
107.28900146 101.30400085 527.58099365
101.96199799 119.78399658 539.10296631
117.82500458 212.86499023 546.72998047
61.81500244 147.73899841 502.62802124
243.67900085 213.69500732 499.67700195
65.16799927 157.99699402 514.90197754
151.80799866 121.60400391 469.98797607
190.27799988 182.81799316 479.19799805
188.18699646 245.63099670 482.89599609
143.90299988 180.33300781 502.97998047
117.39900208 166.01699829 559.58996582
84.24299622 159.16900635 446.14898682
185.08000183 228.37899780 463.87698364
104.95999908 185.19699097 559.30700684
201.45199585 242.15798950 480.88800049
106.20500183 200.38000488 553.87597656
123.39700317 133.67498779 446.33099365
121.50599670 227.66999817 521.27398682
136.99499512 191.32398987 443.46697998
105.96299744 137.56999207 547.95904541
153.27101135 148.11299133 461.28100586
140.77700806 101.86499786 485.57498169
110.06300354 136.14199829 443.62399292
92.84400177 188.15100098 545.23999023
165.01200867 213.93099976 453.83599854
169.39799500 185.58099365 516.82000732
111.25299835 177.13600159 563.63397217
157.67399597 161.75000000 496.82901001
183.30299377 251.52400208 501.50399780
113.87000275 220.55700684 492.14801025
148.70800781 238.44000244 516.86401367
119.87000275 201.80599976 541.23803711
77.85200500 138.57400513 547.56201172
75.52999878 117.24700165 478.90298462
196.42799377 253.21800232 509.32901001
110.90199280 152.15200806 567.69403076
101.73600006 111.89500427 537.36901855
118.04000092 104.13500214 458.19400024
153.86499023 241.36599731 496.91702271
149.60899353 144.23300171 507.59799194
85.25299835 191.66799927 523.89001465
210.31401062 245.05200195 514.44299316
184.97399902 252.15301514 523.55401611
143.37599182 145.71499634 523.40301514
109.09099579 219.32199097 512.12402344
153.54899597 154.75199890 507.92401123
115.18599701 112.48000336 451.76300049
87.21399689 169.70799255 446.10501099
151.33399963 189.49499512 517.58496094
157.21699524 175.92500305 460.15399170
110.63700104 96.09700012 517.38201904
219.18701172 196.24699402 473.29598999
200.81298828 203.90899658 470.49398804
89.13999939 202.99400330 501.06399536
122.97999573 128.53399658 516.46295166
109.99699402 218.66198730 527.80798340
116.48000336 224.11399841 514.57800293
62.48300171 158.91499329 491.32299805
73.04900360 157.77899170 456.09600830
81.98200226 192.26100159 502.04403687
129.55300903 160.91799927 537.82098389
144.03599548 206.06100464 446.22799683
149.44999695 233.14100647 532.55499268
75.67800140 142.96099854 543.85504150
187.97999573 185.02200317 509.12796021
133.58999634 173.57400513 492.74099731
115.18499756 199.68299866 555.89697266
183.63200378 228.44601440 518.76000977
137.36199951 156.97898865 529.80499268
204.22099304 239.03100586 514.45800781
162.09100342 244.27899170 486.70797729
124.58100128 146.03100586 534.44500732
187.86999512 177.94099426 493.15399170
187.16500854 247.67500305 489.76498413
77.74400330 186.66900635 468.42199707
180.51699829 221.08599854 460.64999390
164.00900269 248.36799622 509.42398071
151.12001038 239.59800720 512.14495850
146.97801208 157.40800476 451.55798340
220.84599304 211.98199463 500.50799561
137.53298950 138.02499390 515.41900635
136.90200806 235.30801392 503.09301758
83.30000305 190.48300171 516.59100342
239.67300415 187.71099854 478.23199463
171.53700256 221.73500061 456.38497925
98.60900116 157.54400635 565.35498047
98.39399719 136.11199951 569.21099854
199.58500671 210.19200134 513.00402832
80.53700256 130.85099792 551.01300049
156.51400757 199.79000854 491.04699707
183.59300232 200.30599976 461.15698242
128.04499817 120.60499573 508.95297241
91.33999634 199.34498596 460.17599487
73.75500488 150.14599609 538.16302490
226.01200867 183.35301208 481.42098999
236.54699707 224.22799683 505.59597778
200.20199585 251.88999939 513.74902344
104.52400208 94.58499908 511.04498291
117.79199982 146.86499023 543.46502686
66.06200409 131.75700378 522.22900391
121.67800140 213.70199585 531.50201416
156.17700195 233.44700623 526.83697510
210.19799805 211.21699524 470.45999146
95.48999786 128.68000793 566.07403564
112.21800232 218.92599487 533.32299805
70.57700348 161.17700195 523.18798828
168.22299194 226.66299438 523.75604248
124.28800201 93.37699890 487.47399902
190.68699646 230.46499634 516.34698486
173.99198914 208.66600037 456.04800415
217.46400452 241.90499878 511.91503906
217.87998962 218.58200073 504.50701904
143.66899109 234.96900940 481.20199585
214.45899963 191.09899902 495.90399170
92.05400085 98.06100464 491.10800171
88.85700226 140.44499207 446.95599365
208.50000000 200.19799805 504.38500977
126.46099854 141.29499817 443.72497559
74.01499939 173.02499390 459.92300415
235.52000427 224.95899963 488.51098633
142.89100647 233.59599304 475.65798950
71.39399719 132.49301147 537.75000000
183.02600098 176.31900024 510.59698486
153.75199890 139.98899841 493.77099609
169.26699829 247.68699646 493.03201294
157.96800232 198.50799561 520.86901855
122.66600037 227.37998962 504.96298218
234.15100098 186.65200806 483.63900757
88.78199768 162.53300476 553.11999512
108.36499786 91.17700195 488.92999268
129.48899841 146.80198669 531.18200684
100.24300385 124.69599915 547.73699951
147.73799133 123.47100067 462.67599487
133.47000122 96.94000244 481.74600220
168.23199463 179.37800598 501.30499268
183.36599731 180.10800171 515.09796143
155.52200317 137.87699890 469.19500732
156.10200500 237.93399048 521.69104004
75.87400055 174.87800598 521.13702393
177.63600159 238.14900208 468.08901978
119.63000488 154.82800293 548.22698975
198.36599731 231.61900330 513.94201660
74.72699738 164.80099487 528.38800049
167.71900940 246.08000183 487.41299438
83.35500336 196.03399658 482.53399658
117.11399841 102.65000153 514.42999268
88.12699890 202.19898987 478.80798340
157.22599792 169.33999634 490.69299316
236.13600159 209.09799194 476.21899414
68.61999512 123.52700043 498.39898682
91.16099548 102.74299622 470.25399780
103.99800110 96.61699677 519.87597656
153.47898865 187.27600098 510.20401001
101.33300018 174.38600159 559.05798340
159.70799255 157.83999634 489.42800903
191.77099609 183.89700317 487.08401489
78.83500671 142.58499146 453.34600830
197.04400635 223.98599243 511.53100586
176.63600159 174.26200867 502.16598511
80.04800415 118.07499695 465.89999390
201.27299500 196.63999939 471.42700195
198.26400757 249.19400024 497.31100464
238.44799805 180.44300842 471.33200073
244.57600403 211.38600159 488.08801270
237.17500305 194.05999756 476.19598389
190.11599731 242.71899414 520.70495605
140.34600830 124.85700226 455.87600708
120.94400024 208.07400513 448.81298828
116.81700134 98.12400055 463.54101562
160.09199524 178.69400024 478.29299927
156.76901245 138.07600403 477.55398560
95.07399750 142.45700073 443.52099609
75.10600281 149.29800415 454.44100952
162.20399475 244.31100464 519.36297607
107.97800446 93.85199738 508.24700928
215.45199585 197.07701111 471.09197998
137.93598938 175.52099609 509.53100586
139.22700500 113.91400146 498.52499390
225.44999695 195.04100037 493.71798706
142.08100891 150.73400879 527.85400391
119.91000366 189.72801208 550.95703125
237.86199951 224.66799927 494.77301025
146.83699036 231.29199219 466.30798340
74.20300293 122.65799713 539.09197998
141.68899536 236.24600220 506.36898804
77.09600067 111.05500031 498.16098022
155.78900146 242.95001221 504.38201904
112.75800323 143.55899048 440.98098755
80.97699738 106.88199615 513.18902588
162.00399780 212.07499695 451.22702026
66.91300201 149.71899414 470.00900269
205.90400696 216.58999634 468.54699707
149.56300354 149.31300354 520.58398438
111.08799744 167.62701416 566.26599121
170.52101135 179.14199829 495.78698730
221.08200073 233.38299561 511.94000244
179.10499573 254.23600769 510.10501099
120.32300568 161.55799866 549.94500732
85.35599518 183.63999939 451.92098999
232.78399658 194.10200500 489.19000244
151.66899109 218.64900208 528.78601074
120.75299835 224.68000793 495.43197632
116.35700226 223.98300171 507.49600220
146.09199524 177.20700073 446.77001953
134.84899902 208.07699585 446.01501465
92.63700104 109.73799896 548.81298828
117.04100037 189.45500183 558.13000488
121.01099396 93.79100037 499.69299316
125.57800293 224.44300842 468.57199097
120.63500214 211.22500610 540.97998047
131.89999390 221.32701111 536.09197998
107.55400085 218.03399658 504.23001099
91.96099854 152.65699768 560.54504395
66.75899506 128.38200378 517.51000977
106.89800262 149.24700928 441.06799316
124.95099640 219.24499512 538.19903564
103.12799835 128.22399902 543.83703613
70.03500366 127.60399628 486.69100952
146.70999146 229.31900024 534.39801025
104.47999573 170.39599609 441.04098511
83.14199829 166.25199890 542.37701416
157.11000061 153.88700867 497.86199951
168.58300781 238.28099060 523.89801025
168.51399231 243.79600525 480.11599731
144.38200378 194.31999207 446.06597900
149.51499939 145.74499512 516.43597412
230.33100891 182.85499573 480.66601562
134.60099792 155.49899292 533.00500488
102.95200348 121.38199615 448.52301025
110.84700012 209.77999878 548.43096924
153.75999451 229.96299744 531.54998779
85.51899719 130.82798767 452.61898804
90.63299561 191.42700195 536.61700439
110.56900024 187.65998840 441.16198730
200.63400269 219.54501343 511.13497925
135.55101013 167.66198730 490.39999390
165.09999084 230.73300171 523.72399902
71.43999481 172.96501160 466.22100830
114.32500458 108.68699646 519.93103027
228.68800354 202.64401245 493.91699219
97.83600616 198.64399719 453.36898804
124.71599579 216.28199768 533.20404053
190.18299866 249.73300171 496.80099487
119.10200500 205.76800537 548.74298096
97.62399292 208.34300232 523.30297852
92.02799988 133.42698669 565.02301025
158.46499634 165.76499939 470.79501343
83.55200195 195.24499512 495.58099365
118.62300110 198.73500061 550.28405762
153.15499878 204.20999146 448.60800171
105.53400421 104.37799835 457.38500977
156.07101440 168.66600037 455.73498535
204.21800232 188.81599426 485.24099731
184.78199768 173.34399414 502.70898438
110.30100250 91.68499756 477.37100220
119.81199646 191.63600159 531.97900391
74.00000000 133.28599548 465.01098633
116.52899933 127.18500519 522.27404785
79.57600403 181.43699646 457.34201050
121.62099457 210.98199463 525.68902588
128.68299866 171.81600952 491.47900391
122.47200012 149.09700012 440.95098877
150.00399780 213.97499084 448.72097778
106.49099731 168.26300049 565.94201660
162.93099976 195.83299255 451.21899414
135.32200623 173.11199951 514.10101318
91.83399963 147.12699890 443.51800537
119.11100006 174.18199158 438.46197510
94.55599976 170.43901062 555.37597656
114.11199951 95.24800110 512.63897705
173.56201172 248.27900696 523.78100586
188.22200012 188.48399353 466.46801758
173.18299866 244.22599792 479.96200562
193.70600891 239.22300720 473.97000122
108.50899506 135.32899475 540.14202881
99.04000092 93.97499847 494.51800537
138.82600403 187.69200134 512.78002930
228.92298889 227.45899963 482.47201538
82.42800140 194.31500244 491.19400024
183.41299438 249.82600403 497.32101440
133.62899780 224.11500549 462.02700806
146.15798950 123.44499969 500.58197021
148.25599670 185.65200806 510.88702393
169.01899719 220.17799377 523.68402100
176.78100586 243.97399902 526.28796387
153.28300476 185.59800720 502.87698364
67.97800446 128.05900574 527.26196289
230.26699829 229.22900391 508.65899658
140.62200928 184.79299927 446.07202148
223.64700317 215.94900513 501.52398682
93.17500305 164.65600586 443.81698608
101.07099915 128.78199768 446.13400269
160.67599487 160.24099731 482.04101562
147.43000793 199.07099915 446.22497559
158.04499817 151.44799805 492.21200562
94.12400055 97.31499481 487.48498535
157.76998901 172.98400879 488.59799194
69.51399994 167.31298828 466.20800781
237.23699951 190.63900757 485.94201660
97.13300323 202.78599548 457.44100952
104.03800201 205.45700073 546.11804199
82.38100433 174.26699829 450.88601685
118.02499390 197.49600220 525.38696289
155.46701050 197.65699768 499.58499146
191.59999084 192.43699646 513.08398438
212.16400146 234.74000549 511.29501343
233.36599731 231.08799744 493.78500366
228.61199951 236.25999451 504.69296265
97.35900116 187.21699524 551.20404053
225.14599609 238.12699890 493.04101562
85.36100006 148.70401001 555.81402588
76.94499969 126.72199249 464.96099854
124.79700470 229.53900146 514.27899170
106.54199982 213.40400696 535.89398193
169.90800476 250.18701172 502.47900391
71.42099762 119.30100250 510.59698486
155.90199280 176.67900085 503.34603882
83.42800140 173.88699341 537.77197266
155.57899475 129.02799988 480.57101440
171.30899048 197.80500793 521.08197021
137.74700928 110.00800323 462.72598267
133.88299561 217.93099976 534.61096191
181.34500122 191.31800842 466.87899780
160.44299316 233.72801208 464.42498779
80.89300537 114.44400024 468.83499146
98.18000031 104.16900635 459.97802734
199.78800964 187.60398865 487.79498291
161.28900146 178.50999451 485.97698975
80.70999908 148.89900208 449.24700928
125.63900757 226.18800354 482.66400146
159.59001160 184.67601013 454.70397949
160.41900635 245.14100647 493.09500122
198.64199829 251.75801086 505.86300659
180.50099182 205.35600281 459.15402222
130.79899597 192.40400696 509.46600342
95.88500214 209.49700928 496.18200684
70.07099915 172.87400818 505.41799927
122.41099548 150.61900330 541.35296631
86.58599854 102.47000122 487.16299438
148.87901306 132.29499817 500.50299072
114.37100220 156.78199768 564.15802002
86.18199921 157.92599487 552.58898926
99.03700256 98.23500061 467.44702148
179.41500854 226.08999634 461.13900757
98.87299347 210.93699646 480.09399414
215.20901489 244.74301147 494.98501587
149.39900208 169.54899597 450.59799194
193.99200439 244.46701050 482.08697510
132.44099426 182.08700562 443.00100708
69.45999908 122.64399719 523.79400635
144.08500671 172.88400269 493.78500366
116.36599731 200.62799072 446.18600464
134.01699829 103.41799927 466.60800171
101.66600037 143.70800781 441.26599121
213.17500305 213.06700134 504.32998657
198.52299500 195.65299988 509.76199341
195.68699646 215.08599854 513.91296387
200.58799744 222.05599976 466.39999390
67.98500061 144.15200806 530.51000977
82.82299805 161.30900574 545.76098633
81.81499481 135.69000244 453.29202271
102.35199738 138.31800842 566.95196533
143.70100403 130.31800842 505.40603638
80.07199860 129.31098938 458.57199097
126.64000702 168.91000366 441.26000977
151.32899475 208.63400269 501.07598877
220.18400574 205.37200928 471.65701294
99.25899506 131.89401245 564.93902588
113.52500153 93.11900330 473.25900269
205.80400085 226.23300171 468.12600708
146.14900208 112.85900116 491.41201782
204.19000244 213.32701111 510.59298706
135.34800720 124.88099670 506.36999512
100.82100677 93.87899780 487.58502197
136.74501038 145.11399841 524.94299316
147.10299683 134.78500366 458.01098633
94.53400421 144.34899902 564.26104736
122.33100128 201.00900269 517.31402588
71.64700317 162.69000244 459.17401123
123.46099854 181.71200562 544.92095947
65.84500122 164.40998840 507.17199707
168.04499817 240.38400269 472.67800903
100.43399811 110.91500092 454.28698730
170.95700073 215.27099609 456.17300415
93.72200012 119.58900452 559.59497070
132.13198853 100.39599609 496.64102173
237.01899719 185.95700073 475.11300659
80.71500397 109.17200470 528.14001465
126.74899292 170.20700073 486.71697998
152.04699707 116.58300018 484.55300903
158.27299500 146.02999878 483.13998413
185.61799622 237.64199829 468.16900635
157.09300232 143.39399719 486.22399902
139.65199280 233.30700684 481.88000488
73.11100006 132.53199768 469.52502441
142.12001038 198.05400085 523.81903076
156.02600098 161.94699097 504.35900879
80.55400085 106.31299591 499.39700317
133.46398926 166.51300049 497.77200317
198.31199646 207.91499329 468.77200317
86.50500488 101.97699738 509.34399414
182.26100159 219.54399109 521.05303955
153.56900024 145.69200134 499.44201660
133.78100586 99.14099884 473.63998413
122.82299805 182.00599670 529.04302979
223.03700256 190.63700867 490.25000000
109.98600006 144.95700073 561.77099609
152.81900024 185.57299805 447.96899414
