ply
format ascii 1.0
element vertex 2048
property float x
property float y
property float z
end_header
293.49899292 208.95999146 394.98699951
109.72800446 214.56900024 530.98498535
131.48200989 204.83699036 368.66098022
216.50799561 271.78100586 480.28201294
154.40100098 131.89500427 459.23501587
128.39299011 259.87399292 447.04699707
205.80500793 202.07400513 419.58499146
97.25999451 184.88000488 439.54501343
174.26800537 201.20300293 490.02099609
246.12399292 267.29501343 409.93301392
175.03300476 260.78997803 387.31198120
163.80000305 155.28300476 396.21899414
117.28499603 159.66999817 501.85000610
137.45899963 256.17401123 503.10397339
179.73199463 275.36599731 441.08200073
156.70800781 213.63699341 441.10501099
104.95600128 229.03900146 408.22500610
103.80599976 222.47500610 476.92199707
237.99499512 232.36300659 449.16497803
112.12200165 163.06098938 395.09698486
270.04998779 273.72198486 455.22399902
182.62899780 205.79299927 373.62799072
185.90599060 170.25099182 453.28799438
293.10000610 253.50299072 416.88098145
247.19799805 217.84899902 400.92098999
116.96600342 143.56199646 437.40499878
133.97599792 248.24400330 382.36599731
210.45700073 237.79499817 394.20700073
197.95700073 218.82598877 457.65899658
153.47399902 166.55799866 484.29699707
220.30299377 277.14898682 439.57498169
138.84899902 195.36698914 508.28997803
180.87300110 139.86698914 428.33700562
148.68600464 272.32699585 415.77801514
146.49699402 230.25799561 474.79299927
197.38499451 244.29098511 429.48898315
98.36199951 182.19599915 478.64300537
186.98400879 252.77998352 469.78302002
192.68701172 177.03199768 395.01699829
161.25300598 233.05799866 365.98101807
145.96598816 134.82899475 419.51501465
122.80000305 139.41400146 472.00701904
100.20300293 194.85699463 402.17797852
155.56399536 180.13600159 373.76599121
99.77799988 223.26899719 442.69897461
150.65699768 267.54998779 472.08999634
206.28799438 270.24600220 408.95397949
264.59301758 233.70001221 425.80599976
164.49600220 245.53201294 445.60400391
222.96899414 198.75498962 447.47799683
104.60399628 188.70899963 511.65197754
243.72099304 259.34799194 466.18499756
152.29399109 224.49800110 505.63400269
115.25399780 232.73199463 505.63598633
123.47599792 254.60699463 412.09600830
119.39399719 250.76499939 475.25097656
210.17298889 204.82000732 389.76098633
102.99699402 159.67999268 458.71200562
199.07299805 172.50500488 426.26602173
215.24200439 244.27099609 466.21099854
268.79098511 267.96697998 426.83700562
174.31199646 225.63900757 472.76300049
237.18400574 213.92700195 427.84500122
104.80800629 163.99099731 422.22799683
280.86700439 233.17498779 401.64501953
177.63299561 273.70199585 413.14700317
117.70700073 225.51499939 381.88201904
135.39401245 148.23600769 397.61700439
187.18299866 236.52799988 379.43597412
125.84899139 179.06199646 376.38598633
189.43199158 194.56199646 468.40301514
197.96598816 275.45898438 460.99902344
163.12300110 201.91000366 465.81201172
152.51699829 270.70700073 443.71499634
192.87799072 193.56100464 441.38699341
157.67300415 205.44999695 363.76898193
268.27200317 201.18299866 398.57800293
246.78500366 275.10101318 441.40499878
234.89500427 241.34799194 403.79199219
96.02300262 201.20399475 460.29598999
168.85400391 155.61999512 465.86700439
129.87400818 240.22000122 525.21398926
109.73500061 243.43000793 430.72500610
228.48799133 200.13200378 408.89498901
186.61799622 158.34201050 410.26602173
256.47500610 252.42498779 443.09698486
130.56900024 216.68000793 518.51397705
193.69299316 268.18298340 487.76199341
150.16500854 263.20999146 392.47900391
111.50099945 198.56700134 380.76599121
99.00999451 209.25299072 423.03298950
258.68698120 247.10899353 406.00601196
109.80500031 243.25999451 454.68099976
145.00300598 144.63200378 480.28399658
136.63899231 228.43000793 367.68099976
103.18899536 209.05200195 499.49099731
173.47399902 177.74699402 478.12399292
136.66799927 131.46499634 442.34100342
171.96400452 271.46398926 463.31900024
137.17199707 172.87600708 499.66601562
117.26300049 147.48899841 412.72799683
192.94599915 251.73599243 398.13198853
221.24000549 218.93901062 457.71600342
177.66400146 210.70199585 450.76400757
107.51499939 161.48300171 480.84899902
197.36000061 244.45700073 451.88998413
145.31100464 162.99800110 383.57299805
226.17599487 222.35299683 396.20300293
227.78799438 273.67999268 461.47399902
158.81500244 186.37800598 494.70001221
163.59899902 131.72200012 438.86300659
227.08299255 274.37402344 417.41101074
178.86199951 184.97900391 380.49099731
196.86099243 277.66900635 428.26599121
201.77301025 224.53099060 436.74298096
267.45501709 215.99299622 414.05001831
181.14599609 147.45800781 448.25698853
177.86399841 254.64299011 431.78298950
164.83900452 141.60299683 412.36001587
140.43598938 249.06399536 482.39498901
158.13200378 251.31100464 376.91699219
119.81199646 197.73100281 522.93798828
223.03399658 258.32699585 400.90399170
165.56599426 232.10400391 491.59301758
156.92298889 245.62500000 464.92999268
121.89199829 177.15899658 513.01904297
180.52500916 232.69599915 452.72100830
196.00700378 261.53298950 440.79598999
116.75699615 240.42601013 395.62600708
104.51900482 175.06599426 496.72799683
100.44599915 183.81098938 419.06600952
98.61000061 203.37001038 480.31298828
198.06399536 219.53800964 383.50497437
163.98899841 278.87100220 429.19702148
156.22698975 205.02899170 501.35797119
223.71899414 194.39601135 428.35598755
98.02700043 178.54299927 459.14099121
196.86900330 193.87100220 403.67300415
105.56200409 215.38600159 393.09399414
128.49600220 146.82299805 490.00799561
274.77801514 249.84201050 426.52197266
131.63598633 262.49502563 427.40100098
190.39799500 156.74699402 434.77899170
176.55499268 168.29299927 391.35800171
136.06999207 130.53900146 462.38101196
113.18500519 235.54701233 487.37799072
107.19099426 182.87800598 389.80599976
176.81401062 223.52301025 369.36199951
132.25500488 262.61599731 469.08300781
140.71899414 238.07400513 509.98699951
194.34700012 194.04199219 384.38000488
279.65100098 265.67300415 441.41198730
207.63899231 208.39401245 445.03500366
204.80300903 255.40701294 476.23199463
250.09700012 228.82899475 435.75900269
226.43699646 257.11398315 472.68997192
104.13300323 162.38301086 440.35198975
129.16999817 138.83399963 424.88101196
276.33602905 250.52299500 408.55499268
163.31199646 270.96499634 401.87799072
98.37899780 204.69699097 442.90097046
142.02299500 190.27101135 368.43298340
261.40798950 228.44299316 401.24801636
184.80700684 210.06999207 475.44500732
123.21099854 248.33500671 496.65002441
200.75898743 260.12899780 422.91998291
119.21700287 141.67300415 454.58499146
172.24499512 261.21899414 447.90399170
233.46200562 246.91699219 459.77999878
256.13598633 271.26101685 465.41799927
133.13999939 257.52197266 398.14099121
147.02700806 237.21800232 494.00201416
126.45899963 160.43501282 385.97802734
277.97201538 216.16000366 396.35400391
108.41300201 219.96800232 514.77099609
250.25099182 212.79699707 416.86801147
231.52899170 216.28601074 444.50302124
101.32399750 219.30000305 460.48501587
204.03399658 279.14599609 443.62899780
168.24800110 194.20899963 371.16198730
150.01200867 143.49900818 404.68099976
102.00999451 226.19700623 426.30599976
103.76200104 172.16799927 407.52301025
262.81100464 262.39202881 412.25100708
236.81199646 268.92797852 478.30001831
142.13000488 266.22702026 455.98999023
168.47599792 140.29400635 456.43298340
139.95599365 159.08500671 490.80300903
184.33999634 265.97601318 400.14401245
187.37699890 270.73498535 472.77200317
241.13499451 275.39700317 425.88699341
202.95199585 181.23599243 412.21899414
100.27999878 193.39401245 495.85101318
171.97000122 217.96701050 487.28900146
185.95599365 267.38900757 453.66702271
113.56099701 242.32299805 415.10198975
212.62200928 199.64799500 405.23699951
143.73399353 210.91400146 509.57299805
104.94899750 202.94200134 519.02001953
205.33599854 232.59001160 461.17700195
184.17300415 239.99400330 437.42800903
149.25199890 219.02999878 363.68798828
172.88200378 245.40299988 375.26199341
194.39799500 189.67599487 425.97100830
208.67900085 214.12600708 468.34100342
148.11399841 240.69200134 370.33798218
158.44400024 143.80499268 468.79501343
139.42300415 265.29800415 482.95098877
188.80200195 221.10800171 445.06600952
108.81900024 237.39700317 469.17199707
166.17498779 275.87301636 449.47000122
193.93399048 204.55000305 452.78997803
169.22299194 222.76599121 458.42700195
159.92799377 168.03100586 383.71801758
119.35900116 211.15499878 375.84201050
120.62699890 253.88198853 433.86798096
276.80099487 237.50399780 417.26199341
162.99200439 259.22702026 461.17498779
213.24099731 276.55599976 423.51998901
111.63999939 150.26100159 467.04000854
285.68701172 261.39898682 427.52200317
208.06799316 252.28500366 398.70397949
212.10398865 221.03599548 390.82299805
293.32299805 224.62699890 401.07501221
262.54098511 274.25100708 439.07601929
125.76399994 245.74600220 511.28500366
189.96900940 184.23600769 457.13101196
106.98300171 221.50599670 491.93701172
121.42399597 254.71401978 460.99499512
247.06600952 233.00900269 401.74401855
122.40000153 229.36900330 518.25305176
192.22100830 268.98800659 414.63699341
160.99198914 232.47900391 472.62298584
217.23200989 204.95800781 460.36199951
224.96398926 207.62300110 396.25201416
255.33500671 272.54901123 422.88397217
177.30499268 167.67700195 465.11199951
239.56100464 255.38700867 404.26498413
209.76899719 236.59700012 431.39801025
213.99598694 275.97998047 457.18301392
143.98300171 270.69299316 431.84701538
244.20300293 246.34599304 449.90798950
100.86100006 212.75399780 406.63098145
134.49000549 141.34500122 411.55200195
135.38800049 264.87200928 413.52600098
141.42399597 174.73699951 375.90600586
99.11299896 195.00100708 429.26898193
162.61799622 205.08099365 451.22702026
207.04100037 253.35600281 436.25000000
112.21499634 151.34799194 426.22799683
183.86698914 271.36401367 427.85702515
225.89300537 234.95700073 457.08700562
241.40399170 205.31900024 405.22799683
185.23699951 250.92700195 384.96499634
185.77400208 255.88398743 410.27398682
290.73699951 242.25799561 408.25201416
159.04598999 132.92799377 425.31799316
182.37901306 192.62200928 480.73599243
178.58200073 147.47200012 415.00000000
198.12998962 233.25000000 388.55599976
195.58000183 176.34199524 439.55599976
126.75000763 235.20199585 376.78302002
194.90798950 169.70700073 408.69201660
150.82701111 129.21200562 445.80502319
115.55200195 172.40600586 385.07501221
261.90701294 213.56500244 396.22900391
163.36000061 219.33299255 363.47601318
144.99899292 184.54701233 500.76699829
104.92599487 236.35000610 442.89999390
260.79101562 262.89999390 455.15399170
171.36099243 187.18899536 488.26300049
215.07400513 191.37200928 416.24200439
116.07799530 153.17500305 489.11199951
230.67300415 204.54899597 435.88198853
120.05099487 152.63000488 399.91799927
122.68400574 192.22999573 373.90597534
162.19200134 218.01300049 498.61300659
269.83599854 256.58499146 437.43701172
164.61700439 164.80599976 475.16799927
109.02299500 151.24200439 446.71499634
222.02700806 243.25299072 399.17001343
153.73800659 226.70799255 485.85598755
278.57699585 223.50500488 411.37600708
165.37300110 236.41299438 459.38800049
197.66099548 202.02400208 431.78601074
182.96701050 180.31999207 468.15698242
114.65299988 185.26100159 521.30401611
132.70600891 183.14201355 507.38400269
235.30299377 275.01898193 448.65798950
164.39199829 276.36099243 414.54800415
146.14700317 254.70599365 382.24200439
200.79598999 245.45399475 467.98397827
99.75299835 174.50300598 431.31802368
146.94300842 153.20800781 392.67501831
260.02999878 244.01300049 433.25299072
154.80000305 270.44000244 457.28298950
144.31298828 205.91198730 363.43801880
233.16499329 267.92098999 406.76800537
177.02099609 213.54701233 465.18600464
210.79299927 204.25700378 432.43899536
204.08099365 272.51397705 475.54699707
149.87599182 253.85800171 472.64999390
191.49800110 255.64797974 456.48001099
257.32601929 221.60800171 423.84298706
108.69400024 159.85700989 408.00698853
215.24000549 192.82099915 438.49301147
154.28100586 153.66500854 477.52600098
117.42199707 252.48899841 446.98599243
138.55099487 134.33299255 474.78100586
240.35299683 272.10198975 465.65802002
200.32200623 230.57000732 449.15597534
276.22399902 260.19097900 417.51000977
167.90100098 177.58299255 379.41299438
100.10299683 169.66000366 468.63201904
100.12199402 196.60099792 416.01101685
145.46099854 267.22299194 404.08200073
281.82699585 202.94900513 394.53900146
258.16500854 207.25399780 407.11199951
155.04899597 193.20500183 367.67599487
193.88000488 160.95899963 422.86398315
109.18299866 227.61500549 395.87899780
175.58898926 156.18200684 401.65600586
186.61599731 220.45298767 377.47399902
198.76300049 206.12699890 382.98300171
233.33700562 204.32899475 420.09500122
111.74599457 171.00199890 507.95697021
145.31600952 130.77799988 431.66299438
139.61199951 225.67098999 512.61199951
95.80599976 193.40699768 448.83999634
183.34400940 262.19799805 440.87298584
162.57398987 264.06799316 390.33499146
208.06098938 266.76602173 488.20098877
129.51699829 257.67498779 484.58798218
203.49200439 241.10198975 441.35800171
125.74499512 248.48100281 392.00299072
189.93901062 254.43598938 428.24499512
129.26701355 157.69000244 498.75500488
100.45299530 170.59600830 448.95800781
144.74099731 250.93400574 493.92001343
138.86000061 264.93798828 442.67098999
268.93801880 238.00399780 403.72799683
126.83599854 191.31100464 514.96099854
218.49800110 268.13500977 408.40798950
180.43200684 159.36698914 455.54797363
125.73400116 221.88999939 373.17199707
103.62300110 203.22099304 391.86901855
173.70500183 138.06399536 445.19799805
140.39199829 236.75100708 483.24499512
121.64799500 210.89599609 524.63500977
186.23599243 260.92098999 480.01998901
191.41999817 276.67199707 444.33099365
143.21899414 241.75299072 472.38601685
96.47999573 187.30000305 467.44900513
188.70599365 209.10299683 463.98400879
231.03498840 276.32800293 432.46499634
124.79999542 137.21301270 443.97698975
119.06500244 250.39801025 422.41998291
188.51800537 149.05899048 425.79498291
134.86000061 216.67001343 366.38500977
98.94199371 211.61100769 471.64898682
185.04301453 165.73300171 399.38800049
130.24400330 204.84399414 516.83404541
237.23500061 225.60000610 399.30200195
173.62399292 211.60499573 368.38900757
98.42699432 215.53300476 433.15600586
248.21800232 272.68798828 456.66302490
116.06999969 148.14900208 477.84799194
169.19000244 235.55200195 480.59100342
152.26699829 176.85900879 492.36700439
226.78199768 267.38900757 484.25000000
173.54699707 238.27999878 443.68698120
103.94100189 230.95999146 460.63800049
191.83699036 165.39601135 442.59899902
240.92001343 222.83000183 442.03100586
185.53799438 145.20199585 437.62100220
98.64299774 210.87298584 452.78298950
163.37400818 174.88400269 483.18298340
105.65900421 235.52600098 420.29800415
199.19200134 259.67401123 403.90701294
169.34800720 137.50700378 422.51000977
251.67900085 255.99598694 453.28500366
124.60699463 167.19799805 506.72000122
199.90699768 243.50199890 393.95202637
110.78199768 202.07699585 528.93499756
273.71902466 208.35499573 405.78100586
152.87399292 193.97799683 501.01797485
176.64900208 235.00900269 372.11499023
137.04499817 240.08900452 373.36001587
207.48600769 250.52999878 425.13201904
177.34300232 274.89001465 452.29901123
250.88098145 239.52500916 439.81900024
120.93800354 248.99501038 402.45599365
245.74800110 244.81500244 404.32000732
174.17199707 270.15701294 397.12200928
128.41799927 134.42100525 454.89199829
115.08899689 183.02899170 381.02001953
183.03799438 194.84899902 376.62802124
213.89399719 260.51199341 480.73599243
103.35499573 181.21499634 400.32199097
174.77899170 277.84402466 426.03601074
164.07600403 196.26901245 496.07101440
236.39599609 214.36700439 398.75997925
102.15100098 200.07400513 506.18600464
162.13500977 132.13099670 449.99301147
131.19099426 169.53599548 378.92800903
102.49800110 212.68699646 485.16000366
201.08999634 197.76199341 394.07699585
259.30700684 273.74499512 452.18798828
190.47399902 234.24400330 445.46899414
102.14500427 171.17199707 481.88702393
213.38899231 273.36499023 467.97399902
98.84200287 192.13398743 484.91799927
167.21600342 211.81700134 460.28399658
203.24299622 182.78099060 425.93399048
136.56201172 155.21900940 389.08700562
252.91799927 256.32400513 408.06298828
282.85299683 246.65200806 418.43899536
147.72700500 229.67498779 366.00802612
109.83999634 165.30599976 496.05300903
246.82200623 218.71598816 430.02600098
149.92900085 137.01599121 470.13299561
197.47999573 196.34799194 415.35299683
208.43901062 221.69599915 460.43200684
217.28800964 229.43099976 395.89199829
229.22100830 225.08299255 453.47698975
132.03700256 186.91700745 371.17300415
121.03700256 238.65400696 385.77899170
138.27799988 261.94097900 493.23699951
181.99800110 176.86599731 387.45700073
167.52099609 255.15199280 380.77499390
111.96900177 236.76499939 405.24798584
205.27899170 211.09700012 455.59899902
183.40499878 264.17898560 463.69900513
225.82000732 207.94999695 452.45401001
200.48899841 275.47698975 417.13397217
155.85200500 159.50801086 388.95498657
136.01100159 248.71699524 512.84197998
113.77999878 246.47299194 466.17300415
160.96598816 277.63198853 440.27297974
117.20199585 245.02499390 484.42300415
273.08700562 224.71200562 400.53201294
155.83300781 233.84500122 499.04901123
131.58300781 140.48500061 481.96499634
271.50601196 272.05398560 444.42700195
132.55400085 262.22598267 458.32897949
197.72599792 233.84500122 431.42199707
188.50601196 215.41200256 454.19699097
117.56400299 238.09201050 496.70199585
207.16198730 279.20800781 433.49002075
100.34799957 172.81100464 418.37399292
107.36899567 193.29400635 522.66198730
227.87899780 232.33500671 399.21502686
247.82099915 266.65301514 472.61199951
210.31199646 261.53298950 403.18301392
140.64698792 258.51501465 390.85000610
145.43600464 244.02700806 501.80102539
215.98400879 253.08200073 471.79699707
134.15600586 234.44200134 517.62597656
104.57299805 210.00700378 511.34802246
175.86999512 215.62400818 477.89801025
163.78498840 255.35299683 449.60000610
178.43400574 222.49501038 452.94201660
271.91299438 228.36500549 418.15200806
159.65199280 215.30101013 450.94201660
171.40100098 134.74200439 432.70401001
199.94000244 178.35000610 402.71401978
179.42599487 208.02200317 484.13699341
220.16300964 192.77699280 407.13000488
284.75201416 234.29701233 411.43301392
161.68699646 246.98098755 455.47399902
117.04900360 221.09500122 521.44000244
100.41600037 180.30899048 488.60400391
287.91497803 215.60099792 400.61102295
106.06999969 172.02499390 396.43798828
192.99299622 245.75099182 461.16702271
161.51599121 242.20498657 370.78402710
151.29299927 235.08700562 467.01800537
169.32600403 148.88800049 405.42098999
215.62998962 233.38200378 461.13299561
111.83799744 212.64599609 382.73300171
145.17100525 169.47099304 492.98901367
119.87199402 144.13999939 427.58102417
186.00698853 156.68598938 447.36599731
141.95600891 268.29202271 466.71102905
106.66600037 218.30200195 504.80801392
102.67099762 184.05899048 501.27798462
268.11599731 263.03698730 448.00601196
132.46199036 133.91900635 433.34399414
171.22499084 247.77099609 438.23400879
229.88000488 272.01000977 471.34301758
146.44599915 155.15899658 483.94799805
170.77900696 278.22802734 437.14599609
150.89500427 171.83599854 378.28298950
224.96099854 193.56599426 417.22900391
213.95300293 192.07400513 426.32400513
191.80099487 185.19799805 388.68298340
195.30799866 165.39799500 432.72097778
100.13999939 216.68000793 415.93701172
97.27200317 197.13600159 469.60397339
239.71200562 273.42599487 414.74301147
142.19999695 129.38900757 454.45300293
196.97601318 204.47399902 443.17300415
139.51100159 268.77499390 421.85501099
112.06800079 148.87799072 457.06900024
166.35000610 209.56100464 495.04699707
173.76800537 202.81800842 455.67300415
174.17399597 148.49800110 457.66699219
157.49501038 276.39498901 421.91897583
195.99699402 250.86999512 421.08700562
230.48199463 251.18099976 403.58401489
190.03599548 211.05499268 378.10501099
192.11801147 194.71701050 452.61801147
138.48699951 149.74499512 487.57400513
156.31599426 258.94201660 384.50399780
100.31200409 201.68598938 489.98901367
196.90798950 259.20501709 480.96002197
112.60099792 246.48699951 439.75299072
101.17700195 227.16400146 451.88500977
167.00000000 203.16000366 366.19897461
127.84300995 146.50399780 403.78298950
277.44900513 265.57202148 431.03997803
103.46700287 221.69099426 401.33300781
224.99400330 275.44400024 452.18099976
106.20299530 159.30599976 431.22100830
250.44700623 275.14599609 432.27801514
129.42401123 260.33599854 436.73101807
97.58900452 183.95201111 450.83200073
111.54299927 228.69500732 497.58200073
124.87999725 142.22599792 415.72698975
194.05099487 185.02600098 448.34201050
155.21598816 271.51098633 407.23400879
102.86000061 230.77400208 435.20800781
226.12300110 249.99600220 466.07699585
201.02799988 251.05101013 445.76599121
121.20100403 238.97000122 517.43194580
106.75099945 193.13700867 387.24700928
217.70199585 213.16899109 391.67700195
99.71799469 168.79699707 458.59597778
285.43402100 252.89300537 411.02297974
189.05200195 275.90399170 434.99697876
152.77500916 274.68600464 432.02099609
222.91600037 276.81298828 427.26000977
193.56599426 186.54400635 398.34100342
214.58799744 205.10299683 451.08898926
188.64199829 273.31298828 461.92700195
99.09899902 204.17399597 433.33102417
255.38700867 237.29499817 403.91900635
199.77200317 184.03099060 435.64700317
267.14797974 253.26200867 408.42102051
110.19100189 152.92799377 437.16101074
142.83599854 247.49400330 376.88400269
128.27099609 252.10198975 504.59201050
280.42098999 242.19599915 406.25500488
251.61499023 209.39500427 400.41299438
106.24299622 212.33200073 520.45501709
240.33599854 210.51699829 418.13400269
97.68199921 184.43099976 430.02301025
155.85499573 138.58300781 413.30297852
192.13899231 244.79199219 387.20700073
129.29100037 256.06301880 493.93002319
187.01399231 201.21200562 477.88900757
158.82398987 266.87899780 465.05401611
111.74699402 177.51400757 514.79101562
215.66900635 204.00999451 397.38198853
203.47100830 225.31600952 388.63500977
147.00700378 261.30801392 479.05401611
168.80799866 162.97900391 391.23400879
184.54701233 260.89501953 392.26599121
241.41400146 251.54901123 458.00799561
102.81500244 189.46699524 394.91500854
178.81999207 138.15901184 437.30700684
164.55400085 184.47299194 374.06399536
161.71400452 229.66499329 481.99499512
202.30300903 260.48599243 432.53100586
148.09001160 201.18600464 504.47900391
109.55400085 233.59100342 479.02999878
122.80199432 201.47900391 372.84402466
169.00799561 227.53599548 366.26699829
196.07899475 187.26100159 416.75399780
138.33500671 133.54100037 426.14300537
207.45899963 213.22000122 386.83798218
128.50099182 153.00900269 393.16101074
104.71999359 159.33200073 467.84201050
204.21899414 276.97302246 452.66500854
157.18899536 148.11000061 400.99798584
193.65299988 227.80700684 382.52899170
151.46099854 215.27000427 505.55599976
113.98900604 229.35398865 514.40197754
101.59400177 189.00500488 410.94900513
148.23199463 235.64399719 505.19699097
128.00000000 259.75497437 418.27398682
111.31100464 220.90199280 386.80899048
176.91400146 251.71199036 381.09698486
99.03199768 202.27400208 408.84899902
172.48300171 227.30000305 482.92199707
124.43099976 138.36300659 433.56399536
235.74600220 254.18099976 464.89300537
169.65499878 215.02200317 451.61102295
217.47698975 213.82200623 464.28701782
193.22000122 228.67700195 438.78298950
172.81599426 170.59100342 472.51901245
256.81600952 235.52299500 432.48199463
175.46400452 200.67199707 371.32400513
281.91198730 208.55599976 401.69000244
188.52299500 247.45300293 433.88101196
129.08999634 134.59600830 467.56500244
131.33399963 225.72200012 518.17498779
290.82299805 232.98800659 403.55599976
214.22000122 201.62800598 440.41699219
239.07501221 275.48797607 436.56701660
102.90099335 161.01300049 449.77899170
244.28099060 238.14900208 445.82501221
123.04999542 143.39601135 482.41299438
173.05099487 273.81597900 405.29299927
196.79800415 273.55001831 469.73898315
196.44500732 253.68600464 473.31802368
122.90200043 167.96099854 382.38702393
130.06498718 174.30400085 506.01898193
236.80500793 240.86700439 454.04400635
136.17601013 197.19799805 368.75500488
146.85200500 197.75299072 366.14099121
135.41699219 164.38099670 497.41500854
193.53500366 276.12399292 453.26699829
191.86499023 202.33300781 378.74697876
147.12400818 183.41799927 371.03201294
268.49200439 243.50199890 426.62799072
168.50399780 232.29699707 466.66299438
194.98200989 239.90798950 438.96200562
101.17100525 207.64799500 399.32800293
190.60899353 199.18600464 460.87500000
97.85699463 211.38299561 462.65798950
198.70599365 172.30999756 417.37698364
284.83700562 225.34400940 398.50802612
168.52400208 237.46900940 451.15798950
255.59600830 220.17001343 399.30999756
168.88900757 170.82400513 385.05398560
237.47499084 216.14100647 437.38601685
126.80399323 256.83502197 476.21899414
110.34999847 155.16799927 415.31100464
196.82499695 221.62400818 449.36300659
136.38800049 163.42001343 382.60299683
152.37001038 129.96000671 436.86398315
197.26300049 210.98899841 461.58901978
137.86199951 216.57699585 513.61199951
181.52398682 185.27699280 475.99700928
223.78799438 196.33000183 439.09500122
193.99900818 260.78097534 449.29000854
216.40299988 273.60699463 415.91598511
181.01499939 214.31599426 372.51202393
97.74500275 179.06401062 469.98199463
155.22399902 259.19000244 468.31701660
232.29899597 206.43200684 400.76699829
203.99099731 198.89999390 404.50701904
173.24400330 263.59600830 459.88400269
161.40299988 227.32800293 497.52600098
253.73199463 267.83499146 414.06301880
220.84001160 272.53100586 472.80599976
111.14199829 155.08900452 476.23501587
191.05499268 175.64399719 448.88299561
145.44599915 139.57501221 410.88500977
224.52999878 242.01300049 461.88699341
120.77400208 239.23001099 508.58099365
168.65499878 255.55101013 442.45898438
144.14698792 131.63800049 465.22998047
260.54498291 205.00199890 398.17199707
279.31799316 257.07400513 431.41000366
196.18600464 271.93798828 478.95800781
265.40197754 221.32099915 398.49798584
103.40299988 227.77700806 416.60101318
182.21800232 228.18099976 374.16699219
163.98001099 181.39399719 488.75799561
151.80599976 145.06300354 475.06500244
97.01800537 193.79200745 440.35900879
180.26300049 207.20799255 459.14300537
269.96099854 210.63000488 396.19699097
190.15299988 267.79199219 440.70300293
285.58798218 226.46800232 406.95001221
264.05902100 222.45300293 418.64700317
163.09500122 156.84098816 472.05297852
235.40599060 273.61999512 457.06497192
135.48199463 262.11102295 405.46301270
199.02500916 238.82299805 458.05499268
99.30599976 214.52299500 441.56500244
107.09700012 226.53700256 483.63800049
162.42698669 139.12500000 462.30200195
207.17201233 240.72599792 464.92300415
155.53100586 267.37899780 397.59399414
106.23099518 181.01400757 508.41702271
203.37399292 231.61000061 441.15200806
252.37799072 261.18402100 459.96697998
207.76599121 249.83100891 470.03100586
287.36401367 259.28399658 419.23599243
115.55799866 231.03399658 387.94400024
211.25100708 277.56698608 447.75799561
96.62000275 191.49099731 475.87002563
165.25700378 273.26501465 458.49298096
217.82800293 250.55300903 398.43801880
96.66399384 202.76499939 451.52398682
187.49800110 264.08200073 407.73800659
186.55101013 188.05099487 382.06198120
264.57501221 266.94900513 419.11502075
221.92799377 199.89300537 401.21701050
173.20199585 188.23899841 375.19299316
143.48800659 257.66699219 485.76699829
182.59201050 263.85900879 472.07400513
113.67900085 153.07701111 407.57199097
122.63700104 251.32400513 485.61099243
217.37001038 268.90798950 488.12197876
143.67100525 147.05699158 398.33999634
156.02900696 223.97500610 363.63198853
234.95001221 261.45199585 474.98300171
144.61599731 176.82299805 496.97802734
100.42099762 219.05000305 449.92898560
137.15800476 203.03800964 511.19400024
104.36000061 226.81700134 467.90399170
269.09197998 270.24298096 434.88699341
260.75900269 259.11300659 447.31597900
228.18000793 205.43899536 444.83102417
103.79499817 166.25500488 414.24099731
198.94100952 247.48300171 438.46099854
281.61999512 216.37600708 406.04400635
96.72299957 189.67199707 456.85397339
105.68899536 235.95399475 428.63500977
145.27000427 221.05999756 508.56100464
118.81200409 159.40699768 391.69699097
190.33000183 273.29598999 422.95001221
122.84600067 256.60501099 441.75799561
148.09599304 267.63998413 450.07601929
140.78498840 221.83799744 363.66400146
215.52899170 278.12002563 432.85198975
104.03299713 235.53199768 453.71301270
196.68400574 185.21200562 408.51599121
101.34999847 219.29200745 469.64898682
101.63299561 169.98500061 438.00399780
145.71400452 230.43299866 483.34100342
117.33800507 144.14300537 462.22900391
114.18599701 243.98599243 476.82299805
122.47599792 153.47599792 496.82000732
232.53900146 259.64099121 403.82000732
174.97499084 160.22200012 462.57098389
184.29100037 171.33399963 393.43099976
155.71400452 227.07299805 477.02600098
103.88100433 196.59001160 513.94500732
266.07098389 205.45999146 405.21899414
176.02301025 141.90100098 420.41998291
257.88198853 211.77000427 413.92800903
187.99800110 228.74299622 450.99301147
230.61401367 275.88000488 440.61199951
126.90800476 243.10700989 382.25701904
125.36500549 257.58697510 468.22500610
170.96998596 229.51899719 454.20700073
233.59799194 206.63699341 428.52301025
126.99300385 256.06301880 404.89599609
204.52900696 229.82400513 429.46697998
188.82499695 257.86700439 436.70800781
205.08000183 260.67501831 482.39401245
235.91400146 204.51399231 411.14498901
191.13500977 258.08297729 403.66799927
261.92700195 271.70498657 428.98300171
138.37400818 143.09599304 404.66299438
121.49400330 184.80999756 516.99603271
158.28799438 273.26199341 448.77801514
178.88000488 247.31199646 435.68099976
128.18600464 214.60400391 370.70501709
198.51200867 278.64700317 437.76199341
173.02999878 220.51699829 465.97399902
184.92500305 269.23699951 418.06097412
183.28100586 174.37799072 462.72097778
137.35299683 266.35501099 474.08102417
247.80599976 208.22100830 410.70602417
141.44100952 235.32299805 368.58200073
258.22201538 228.99099731 427.21398926
187.41198730 187.47499084 465.18200684
128.00100708 245.64300537 519.00897217
222.15100098 227.43299866 456.50100708
111.62299347 159.74000549 490.54101562
179.74301147 269.91201782 458.10897827
155.56600952 153.69300842 394.46398926
150.89100647 211.19900513 363.66201782
262.71798706 252.93400574 437.41198730
256.34500122 274.60198975 444.11901855
138.30299377 181.46200562 372.92901611
215.42100525 196.24299622 446.78302002
176.25999451 258.53298950 440.51000977
150.01399231 273.98300171 423.47000122
213.01400757 198.92900085 420.92901611
187.93701172 154.94799805 417.35900879
133.92700195 153.45600891 492.95800781
111.78500366 244.14399719 422.65600586
99.24499512 177.24800110 440.60998535
193.50099182 194.56300354 432.17700195
282.24099731 253.27301025 425.07101440
184.43000793 243.95799255 379.99798584
129.92199707 135.82199097 475.36901855
102.55799866 180.50601196 408.18200684
194.71000671 191.79600525 392.50799561
106.17300415 166.38099670 402.66400146
165.27099609 146.10899353 464.72100830
246.13200378 273.66598511 419.36901855
205.57400513 274.71600342 463.01300049
235.46501160 233.68699646 400.96701050
187.30198669 152.52700806 440.69400024
109.86000061 220.21499634 525.46502686
245.31399536 214.46000671 422.82400513
141.66499329 214.01501465 363.38299561
178.39500427 263.10101318 452.44900513
115.14900208 191.91900635 378.64300537
189.55599976 204.35200500 470.18399048
99.97099304 201.46099854 422.73001099
270.67800903 245.39099121 406.74798584
264.19601440 269.47201538 458.24700928
134.88499451 130.59001160 451.90100098
167.17100525 220.68199158 493.18399048
150.42300415 269.48101807 463.70800781
229.41400146 200.08898926 429.48202515
161.22599792 239.13099670 465.65698242
208.88600159 230.01100159 391.75997925
204.43600464 244.53500366 433.78100586
204.71600342 204.48799133 427.56799316
124.97399902 256.63998413 428.02102661
145.05499268 268.61102295 439.70300293
187.71099854 268.05200195 482.79299927
106.77099609 166.66799927 489.05102539
163.34500122 211.56999207 363.39797974
196.54400635 266.57299805 408.66299438
116.30699921 243.87500000 405.98699951
117.35200500 143.05999756 447.19500732
190.65699768 171.06300354 399.60198975
138.44299316 137.82400513 417.20397949
223.63301086 261.14300537 478.65499878
123.61399841 256.22698975 453.74301147
182.87500000 235.10800171 444.40600586
185.25399780 256.98300171 461.61700439
157.78300476 160.45999146 478.48800659
175.04200745 142.69200134 452.67901611
166.08799744 210.17298889 446.68099976
154.03799438 235.60800171 366.22198486
124.09199524 137.44400024 460.43301392
114.08100128 157.50900269 399.97900391
146.92201233 163.96499634 488.00399780
177.22999573 192.36500549 486.35900879
201.98400879 224.83399963 444.35900879
167.72000122 235.93600464 368.79199219
136.64199829 265.22897339 432.44000244
248.32699585 225.36900330 401.10598755
152.31199646 186.73500061 498.62701416
102.27300262 167.11199951 475.45401001
158.32200623 143.42599487 406.87298584
143.15199280 243.41400146 491.93600464
157.20899963 207.97399902 446.75299072
107.87599945 204.61698914 385.73797607
239.32899475 263.57098389 405.98400879
150.03399658 249.84300232 376.44000244
108.06000519 154.04400635 461.53100586
202.95100403 225.47100830 454.10299683
234.34500122 222.36900330 448.60800171
274.77801514 215.26699829 409.07299805
184.59300232 270.96398926 447.14199829
161.18901062 197.23899841 365.90100098
195.30599976 221.60600281 440.43698120
131.81700134 252.02301025 389.23901367
219.64399719 274.38400269 461.89599609
144.59800720 248.95300293 474.81399536
112.17800140 234.56199646 398.06301880
145.88400269 194.03601074 503.76803589
244.62899780 231.47399902 442.39801025
178.18400574 152.20700073 407.47100830
124.47299957 219.22299194 522.03900146
246.53401184 260.00402832 406.77999878
148.44499207 230.82600403 490.27999878
156.48899841 229.93501282 492.54699707
169.94500732 193.67599487 491.67498779
191.66299438 190.99700928 459.78500366
99.54599762 218.35499573 423.18002319
138.28900146 253.47300720 385.44601440
102.91100311 167.88700867 430.04000854
108.52299500 157.18099976 423.45300293
128.62100220 231.85899353 521.87402344
173.06298828 208.50000000 489.28399658
115.16600037 248.13400269 428.82901001
159.58100891 131.60200500 432.61798096
254.32801819 246.09799194 439.59799194
202.16400146 245.58200073 423.60699463
151.17199707 246.44200134 469.55001831
106.24200439 238.01000977 460.45397949
130.52200317 164.63198853 503.05401611
155.96499634 136.16499329 465.09100342
131.12699890 197.28900146 514.13702393
277.86099243 230.54400635 414.32601929
122.70700073 244.24800110 503.49801636
116.22399902 145.77600098 470.84399414
150.12699890 129.79699707 453.57998657
143.98400879 231.00100708 509.07498169
98.99500275 205.65299988 416.58099365
158.17900085 174.86500549 378.23098755
243.45700073 274.09197998 451.19601440
215.05099487 243.78999329 396.81900024
176.58000183 183.65199280 481.27899170
133.31300354 190.78401184 509.95498657
252.78198242 223.36499023 429.38000488
182.30999756 199.72599792 483.36700439
142.18600464 262.62997437 396.76498413
174.64601135 178.86799622 382.07998657
118.53999329 204.19900513 526.20300293
118.81499481 218.20199585 377.87100220
117.19000244 211.59599304 530.43499756
289.27001953 246.82701111 414.86901855
213.53199768 226.67999268 458.67300415
129.84899902 230.47900391 372.09899902
249.97900391 250.10400391 447.42797852
178.34500122 174.77899170 470.17098999
124.51300049 203.81001282 521.25799561
173.43200684 216.81100464 457.89300537
170.17399597 218.48300171 365.98001099
149.33499146 132.00799561 425.35202026
188.77999878 254.21301270 390.44299316
166.17199707 248.26100159 374.87701416
270.35202026 236.49501038 422.29699707
203.23400879 217.74600220 465.09997559
194.83500671 259.71499634 429.42999268
207.21900940 200.33000183 397.08001709
110.68200684 188.35900879 383.39498901
200.54400635 255.86399841 440.16998291
163.29400635 137.70100403 418.48199463
109.39999390 242.38999939 447.47900391
97.02099609 204.37699890 469.09100342
187.67599487 164.45399475 448.45797729
116.51100159 250.99598694 457.17901611
173.04399109 277.65899658 447.17199707
205.21701050 206.94099426 438.36798096
167.94699097 203.55799866 459.89801025
165.04100037 266.35501099 461.40899658
285.95401001 208.81199646 393.68899536
156.82501221 215.30699158 363.51699829
191.40100098 163.22299194 412.58099365
179.81900024 274.84802246 419.92102051
145.53700256 129.79899597 439.14398193
138.71900940 140.69700623 481.00900269
155.30699158 186.82800293 371.12600708
183.19200134 269.77700806 408.63201904
142.70899963 129.73399353 447.28402710
170.48800659 204.86199951 449.60498047
224.99600220 270.52301025 410.34799194
192.33200073 248.12799072 467.91699219
203.41500854 236.91000366 393.08300781
211.21099854 200.06900024 414.07400513
167.93000793 133.81401062 445.47702026
110.09799957 224.24099731 509.26501465
232.76600647 211.20401001 439.60299683
284.50097656 241.09700012 413.67098999
159.79200745 251.19500732 461.46899414
229.27500916 215.90699768 396.06402588
203.63800049 179.44000244 419.62399292
179.03498840 277.11700439 434.18801880
167.12098694 236.01100159 473.76998901
243.78100586 210.49400330 400.92599487
219.29800415 276.70800781 446.62402344
158.56900024 130.27600098 443.70700073
229.92900085 198.67500305 417.25997925
273.52200317 256.69699097 411.91900635
178.15400696 161.61199951 397.83297729
269.21200562 262.34201050 415.35299683
162.24501038 202.92199707 498.23001099
113.11600494 247.78799438 450.20898438
159.29899597 150.84500122 472.21401978
209.35598755 273.99099731 415.16302490
241.91699219 262.73199463 472.35699463
139.67100525 187.19500732 504.61203003
154.10600281 244.20500183 371.72799683
251.30999756 264.64199829 466.78799438
232.40501404 275.05499268 422.01400757
117.79599762 242.60499573 491.26602173
247.40899658 271.47497559 467.46502686
183.91300964 148.50300598 419.51098633
171.51699829 265.26000977 391.48699951
200.47900391 237.01699829 446.23699951
203.70001221 238.62998962 428.49002075
224.12100220 264.26199341 404.50997925
274.51101685 268.22598267 449.49099731
115.06500244 147.94599915 432.26300049
201.36601257 254.03601074 399.82901001
165.71701050 134.08300781 427.43200684
154.72799683 252.20098877 467.73800659
269.18701172 231.27799988 401.78100586
141.27899170 268.61599731 412.93200684
276.39999390 205.15798950 399.01797485
200.75000000 199.69400024 384.90701294
183.26499939 152.62300110 412.51501465
255.02601624 272.48901367 458.27401733
203.25698853 277.41302490 425.46099854
192.57099915 199.74899292 445.83801270
168.88999939 278.35598755 422.31900024
213.98001099 198.11099243 431.54901123
151.33300781 239.25100708 500.10000610
147.05899048 259.22598267 387.67498779
227.08700562 238.92599487 401.33499146
117.67300415 251.72499084 440.06698608
155.15499878 274.07601929 413.88800049
275.34500122 259.92102051 440.07901001
157.25900269 214.19300842 501.86801147
117.30699921 172.00399780 512.13702393
145.42601013 267.92599487 477.62200928
202.79400635 270.72900391 485.99200439
229.65599060 270.81997681 478.93399048
99.82099915 189.13600159 423.46502686
119.90900421 177.45300293 379.58200073
119.13899994 144.34300232 418.98699951
130.23999023 260.52902222 409.71301270
100.65699768 186.53399658 494.95501709
182.68499756 212.97299194 469.52301025
226.32099915 214.57600403 454.40701294
141.79399109 249.90899658 501.48703003
168.57699585 201.13299561 494.07000732
190.81900024 268.33901978 448.56100464
186.09001160 189.35800171 471.68200684
154.30900574 199.47099304 364.45401001
151.89099121 165.03700256 383.35000610
199.36500549 264.40200806 486.76602173
160.95800781 210.36000061 455.56100464
117.07799530 202.04800415 376.63400269
231.92900085 234.36500549 453.82400513
115.68499756 191.54399109 523.92297363
145.46299744 139.42100525 475.81100464
287.43402100 251.74800110 420.36599731
218.83399963 200.26800537 453.50997925
281.61199951 262.19601440 435.37899780
122.11800385 147.10499573 407.53201294
128.06799316 253.10501099 396.74197388
200.06799316 232.22898865 456.44598389
216.98400879 237.03601074 396.18899536
180.60900879 239.76998901 376.13400269
104.47599792 215.31100464 493.48199463
102.41300201 197.19999695 394.92098999
108.13099670 240.94999695 436.91400146
195.81900024 186.85800171 441.97799683
233.52000427 272.61401367 465.54199219
242.85400391 237.96400452 403.89999390
208.04299927 245.75000000 396.66000366
126.99100494 181.32699585 511.14797974
99.01499939 176.65599060 424.86300659
155.88499451 173.82398987 487.42498779
219.60299683 222.40499878 394.33200073
124.53600311 228.18499756 375.73001099
108.54899597 185.82600403 518.28997803
150.22799683 149.20500183 397.11801147
218.42799377 192.70500183 432.31100464
266.99002075 210.66099548 409.52899170
133.39399719 177.45498657 375.42501831
256.68099976 216.48500061 419.40600586
241.09600830 220.02301025 398.79400635
124.36199951 161.12998962 503.65698242
134.24398804 241.23999023 517.77203369
233.03799438 212.04798889 422.80599976
127.46900177 196.88198853 371.12500000
120.15599823 232.57200623 382.94601440
111.65600586 224.75799561 519.64404297
263.55902100 227.64801025 423.01699829
186.44200134 209.20999146 457.33401489
130.94400024 241.10400391 377.24600220
179.42399597 141.22299194 443.27600098
199.10800171 207.86300659 450.02801514
198.79600525 277.34500122 447.45800781
139.33799744 243.94400024 477.43298340
165.51100159 274.10000610 408.32000732
167.24200439 269.05700684 396.77301025
159.03500366 169.49699402 481.94302368
126.88399506 259.02600098 459.96298218
106.85900116 231.39900208 472.12100220
102.01200104 220.97399902 411.13497925
171.71199036 159.33700562 396.06100464
207.82600403 256.42599487 428.30801392
237.76400757 270.91198730 471.72799683
116.50100708 166.27799988 507.82901001
188.54600525 256.58599854 475.45999146
209.88699341 271.88900757 481.30300903
111.88999939 156.86500549 482.94500732
264.98098755 258.10302734 442.21697998
216.96501160 260.92202759 403.56600952
202.55799866 253.95799255 421.07098389
101.24600220 229.77000427 442.13500977
192.28900146 246.85501099 424.94100952
192.24800110 236.01499939 383.76800537
145.96000671 254.59599304 478.12799072
276.01800537 263.14801025 423.49697876
256.91101074 274.35800171 433.76898193
191.62100220 154.66000366 427.69302368
135.84899902 178.25999451 503.38601685
142.30599976 158.05099487 387.22299194
180.28799438 265.79400635 393.77401733
169.71200562 224.65600586 488.37100220
172.80699158 143.90400696 414.94400024
186.55400085 181.25000000 461.99899292
132.88299561 264.16598511 419.64700317
100.02099609 224.76100159 435.22998047
152.23300171 159.58100891 482.03701782
245.55400085 256.34899902 459.99398804
118.49700165 148.11000061 484.02801514
223.83799744 277.15798950 433.95599365
165.69299316 188.13101196 491.56600952
265.31198120 249.53498840 432.35598755
181.24400330 165.46800232 457.98901367
233.29399109 271.73001099 412.17199707
131.66000366 253.06901550 510.42495728
275.53399658 238.20799255 403.33102417
101.82800293 190.40599060 502.91503906
151.31500244 208.10299683 504.53298950
189.61300659 227.74900818 444.66098022
139.71998596 246.02999878 508.10598755
107.88299561 221.53199768 392.39401245
199.62100220 200.24800110 420.90298462
162.81098938 163.31199646 388.54598999
198.56900024 177.87001038 433.69100952
203.62199402 237.11100769 436.13800049
161.12800598 209.44898987 499.49200439
108.14499664 229.74499512 402.53002930
107.52099609 207.24299622 526.53198242
147.55499268 177.77999878 374.34899902
180.61399841 257.45498657 386.49200439
115.77600098 166.45799255 387.81500244
112.19300079 147.75100708 442.16799927
188.50700378 148.72200012 432.96398926
142.45500183 234.71600342 477.34799194
223.03800964 271.61300659 480.49099731
115.62200165 157.22200012 496.02301025
211.66700745 210.99400330 463.31900024
158.58200073 192.87200928 497.04598999
245.49501038 253.43600464 406.17098999
222.05300903 212.71299744 459.50000000
285.84600830 246.56799316 408.04998779
251.98599243 244.09001160 406.07897949
196.61299133 167.61801147 421.39102173
143.13800049 203.31098938 508.14099121
143.71598816 169.44999695 378.94201660
232.13299561 264.81198120 480.18597412
250.91999817 217.46600342 425.12701416
206.73599243 230.59498596 435.67800903
133.77200317 262.93701172 478.29397583
106.04699707 233.93901062 412.35400391
256.74700928 265.45199585 462.57098389
189.06300354 261.31298828 454.43200684
176.23999023 194.70800781 373.78201294
102.60800171 216.52198792 479.93200684
170.45199585 134.25700378 439.52102661
212.85699463 255.86000061 401.21701050
174.01599121 215.40899658 470.61801147
111.91500092 179.35200500 385.30999756
170.20500183 165.09799194 470.29501343
123.06600189 184.87800598 375.91601562
161.53199768 189.30200195 371.01599121
181.61399841 256.95498657 436.50799561
197.09800720 255.12998962 448.89102173
149.16700745 149.48199463 479.39498901
212.78099060 270.02502441 410.71200562
138.69400024 232.53298950 512.58599854
253.33198547 273.95999146 449.78100586
185.67399597 182.63099670 385.43298340
240.57800293 275.09298706 443.11898804
195.44898987 239.09899902 388.70300293
209.96501160 278.55398560 441.20401001
99.31299591 174.95100403 474.67398071
275.03201294 244.67800903 422.69900513
142.21900940 265.83297729 448.07699585
195.19299316 188.10301208 433.71099854
283.51501465 219.40199280 396.12600708
167.33399963 277.66998291 443.41702271
105.72999573 155.84999084 452.32702637
174.55799866 234.75498962 451.58700562
98.20999908 199.90800476 438.02700806
109.40299988 223.95800781 501.32501221
219.87500000 257.14901733 474.85000610
220.88800049 264.24801636 483.53298950
117.76599884 247.14199829 414.89199829
175.11700439 138.27200317 426.04898071
186.18099976 200.40998840 376.33499146
194.73500061 170.59298706 436.40399170
149.33000183 181.12899780 496.66500854
263.55297852 242.97599792 406.32501221
163.97898865 135.86399841 454.84301758
119.72600555 143.08898926 476.47900391
170.49501038 226.98800659 463.71600342
167.88700867 260.68801880 452.54498291
185.28900146 264.63101196 447.56500244
113.79299927 146.55799866 451.39102173
270.73999023 221.44900513 414.18798828
176.21600342 174.38400269 386.46600342
186.64999390 175.67500305 456.52999878
104.79000092 218.39399719 486.78399658
272.25598145 253.27500916 432.57800293
126.22000122 150.05200195 398.30499268
247.46400452 274.81600952 425.95700073
200.60800171 176.29901123 408.68600464
174.42999268 229.80099487 369.24200439
112.76399994 196.61299133 526.38397217
155.11199951 216.38000488 446.59799194
239.58801270 249.06900024 403.74697876
120.89200592 191.63800049 520.31304932
215.92999268 220.64199829 460.71697998
134.86199951 132.22099304 468.58001709
147.98199463 268.24899292 457.25799561
267.97100830 266.99298096 452.92800903
169.66700745 181.66099548 485.72201538
171.83599854 276.55200195 454.89801025
183.34500122 258.22000122 469.34597778
162.91200256 260.04400635 385.48800659
175.02899170 222.66200256 479.48599243
231.66600037 240.55000305 457.68899536
182.66500854 217.82000732 453.11801147
201.72700500 212.30200195 384.37301636
194.61500549 179.65600586 444.82699585
131.58300781 224.91200256 368.99899292
214.91500854 196.40499878 410.53799438
196.52799988 199.01499939 426.23901367
137.35899353 210.32800293 513.14501953
201.80200195 265.17800903 405.44598389
133.72200012 259.64297485 496.89999390
123.45100403 254.85700989 421.85000610
187.46400452 163.57800293 404.76400757
255.58099365 230.75300598 401.04400635
108.74700165 171.77000427 502.50299072
164.46598816 151.00399780 400.75497437
121.67199707 246.94700623 396.57699585
103.42200470 172.09201050 487.95397949
124.00099945 238.05999756 525.54101562
198.37200928 184.98300171 422.66500854
106.18700409 177.66200256 503.12399292
160.82499695 243.40200806 460.56399536
171.77799988 231.21400452 474.06399536
169.27400208 173.13099670 477.69702148
194.39401245 244.99798584 434.95700073
179.61599731 151.08200073 453.11901855
186.38000488 193.97000122 475.88800049
154.22700500 131.30299377 429.41799927
272.53100586 217.83700562 398.90499878
217.01000977 239.16999817 463.08499146
264.38098145 274.52297974 445.02899170
174.39700317 242.14700317 438.86898804
139.07099915 207.93600464 366.14099121
286.67102051 239.50498962 404.41000366
99.39499664 185.60400391 485.47802734
193.99699402 246.94200134 392.74798584
109.60199738 168.88299561 392.39001465
190.25599670 276.73400879 428.94799805
193.53399658 171.36700439 443.03100586
212.76899719 256.42498779 476.18499756
112.12699890 206.65100098 381.10598755
178.82501221 246.14199829 378.42300415
150.47900391 259.94500732 473.74002075
197.75999451 180.53999329 395.72900391
156.17599487 130.92799377 452.81698608
154.82899475 134.35499573 421.00399780
124.60099792 173.45899963 378.91098022
174.17900085 209.65798950 461.29098511
196.70599365 228.02099609 433.25201416
274.83200073 268.50500488 436.40899658
149.74200439 188.51399231 368.69497681
130.88400269 133.42300415 443.33099365
184.11900330 143.94099426 425.00201416
130.55999756 133.24198914 461.68099976
110.65900421 230.21798706 489.19900513
161.80400085 226.12200928 363.89898682
263.19000244 234.02600098 403.13101196
136.28100586 264.65698242 462.57901001
170.16699219 214.18699646 491.79397583
149.83099365 226.94100952 480.39599609
182.86399841 251.56301880 433.59500122
96.74599457 185.28599548 473.24499512
191.41699219 263.18600464 485.01501465
102.12799835 213.64100647 400.18399048
189.19200134 193.57398987 381.09899902
223.51800537 214.63101196 394.39498901
117.43499756 234.41900635 514.42895508
179.27500916 180.12300110 473.57601929
107.05800629 156.47000122 444.21398926
99.06400299 176.33799744 450.53900146
140.00700378 257.36999512 497.67898560
176.68899536 216.62998962 452.66400146
97.66100311 197.37400818 482.00698853
107.51199341 210.33500671 387.84097290
203.57600403 217.92399597 386.62698364
152.79499817 273.38201904 437.98101807
188.43099976 273.42797852 455.22299194
125.66000366 209.11100769 371.46301270
124.22499847 137.42500305 451.65499878
229.46398926 219.21199036 450.40597534
155.17599487 228.91299438 502.54702759
133.99600220 263.05499268 452.48498535
202.44799805 248.29899597 398.14999390
135.79901123 244.73098755 377.65197754
188.76899719 226.31298828 379.24600220
251.18099976 263.94598389 409.75799561
258.92401123 255.68801880 408.55899048
102.10099792 206.41200256 494.14797974
182.27799988 220.62799072 373.25399780
170.38800049 183.23999023 377.12600708
205.21099854 200.46499634 413.41799927
122.59600067 243.83099365 389.76300049
100.95199585 199.73999023 495.67498779
193.61099243 260.46899414 408.63299561
114.64700317 234.93499756 392.45999146
196.37399292 211.71400452 381.65798950
150.02999878 132.95700073 465.09100342
172.98600769 256.66601562 383.42098999
170.06599426 154.57699585 399.86300659
95.93400574 195.63600159 456.54998779
126.09800720 209.76899719 520.73901367
127.75599670 151.17601013 495.07998657
107.01300049 160.14300537 415.78900146
157.51600647 277.25299072 434.66400146
122.75000000 148.49400330 490.48501587
220.47700500 248.00399780 466.44500732
198.91600037 272.32501221 412.27902222
185.27799988 272.05700684 437.62298584
187.72200012 264.75900269 413.68801880
193.52200317 198.15899658 437.59997559
168.48899841 232.80799866 486.41397095
153.50399780 229.49600220 364.46197510
183.28100586 263.43399048 457.26901245
101.68600464 187.64199829 405.12698364
108.88800049 238.53700256 414.90499878
244.62300110 272.36700439 461.42599487
98.50099945 174.30200195 465.23602295
246.23699951 224.70300293 437.68200684
144.33700562 134.94700623 472.03100586
186.10200500 221.90499878 450.47000122
140.35299683 152.48599243 392.78399658
240.50599670 216.48300171 432.27099609
161.73300171 273.63900757 453.61798096
213.11000061 264.63198853 485.88800049
130.52999878 164.22900391 381.99697876
130.80699158 156.93099976 388.00497437
164.02999878 240.10499573 454.94198608
230.48199463 227.05499268 398.49600220
258.70300293 268.33999634 417.25701904
107.98400116 155.74899292 471.26098633
188.94499207 250.04299927 461.74099731
222.78100586 275.83102417 421.41900635
132.89299011 262.45098877 444.19000244
184.27699280 142.66600037 432.28500366
241.30000305 240.99800110 450.20300293
291.56198120 250.48199463 410.82699585
252.38999939 206.84500122 405.91601562
187.10800171 178.29998779 390.05999756
198.92401123 234.02699280 438.11199951
247.28199768 251.85498047 452.38198853
99.20000458 209.64799500 438.24099731
221.59100342 253.11801147 469.95800781
222.86599731 229.43598938 398.08700562
98.92600250 211.31399536 428.55999756
99.20800018 221.41499329 430.44097900
155.89599609 231.06199646 470.01901245
159.70199585 228.76899719 487.46200562
104.19799805 210.99400330 505.55001831
101.24500275 175.37300110 413.14797974
191.37799072 204.96900940 460.07400513
101.20099640 163.80099487 454.90899658
182.32501221 227.16900635 451.01800537
140.80200195 199.53399658 365.96899414
147.60301208 240.47399902 468.68701172
113.75299835 240.45599365 483.10699463
195.55799866 259.12500000 435.46798706
267.84597778 258.36398315 411.22399902
230.65499878 274.80099487 453.54501343
209.86500549 236.29200745 461.40399170
198.56500244 225.92199707 385.50000000
256.69500732 214.08599854 398.84100342
96.84500122 183.29200745 463.20098877
118.51300049 195.92199707 376.03500366
126.39600372 197.87699890 517.51397705
131.48599243 235.93499756 373.39401245
279.21398926 256.85302734 413.21899414
125.24299622 172.65699768 508.86798096
190.40100098 160.51199341 439.23898315
157.04800415 264.67700195 392.65298462
222.92199707 251.30799866 401.16699219
135.41300964 262.20397949 488.17300415
203.59500122 250.63198853 440.07098389
96.09700012 197.51300049 444.73202515
139.09899902 242.07400513 485.19302368
227.20399475 247.15100098 400.97799683
135.52400208 255.90199280 391.65301514
120.41600037 216.41400146 525.95599365
194.32899475 160.76300049 429.36599731
188.89201355 257.71099854 395.06799316
162.95098877 278.30999756 422.36599731
117.43699646 249.93699646 469.03698730
204.90899658 202.13800049 388.10699463
204.45300293 207.30300903 385.40399170
191.44999695 219.33500671 380.44900513
158.68499756 255.98698425 464.51397705
209.53700256 219.30099487 465.90399170
226.88600159 275.80700684 446.72998047
132.87899780 140.23300171 416.99099731
195.99400330 276.44000244 422.69000244
147.39799500 245.38299561 373.62899780
164.94099426 151.08999634 467.61798096
98.88699341 219.66900635 437.69400024
100.07900238 196.56999207 410.24200439
121.22599792 223.72099304 518.23999023
96.58499908 207.03199768 459.09301758
219.91099548 191.72300720 412.79199219
147.96798706 159.12400818 387.31100464
255.97100830 255.74299622 447.77798462
230.03100586 198.93899536 423.87301636
134.41200256 145.68400574 487.69097900
101.80999756 162.50700378 463.57400513
243.59799194 270.52200317 472.13198853
248.32400513 274.32299805 446.88098145
104.31499481 175.56700134 400.67898560
138.16801453 168.08900452 379.47100830
179.13200378 238.68901062 439.79901123
212.60600281 205.57199097 444.72900391
263.93301392 241.08499146 429.09100342
204.87300110 213.14500427 462.12899780
143.04899597 236.56399536 489.95397949
194.48600769 250.82000732 455.85598755
179.78199768 211.97700500 480.03302002
115.22499847 147.78999329 421.31201172
241.82099915 266.57098389 476.90899658
144.45799255 271.60800171 421.63000488
177.62100220 208.69000244 371.22698975
228.86900330 256.13299561 401.22198486
97.65700531 200.56500244 475.44000244
185.72099304 214.12800598 375.70800781
139.95399475 263.92999268 402.45300293
169.35198975 271.89001465 401.42501831
136.13400269 234.20199585 370.29299927
201.54100037 177.47299194 424.80499268
221.81799316 206.93600464 457.64999390
143.89399719 251.87701416 488.38101196
172.69000244 276.08801270 414.60800171
99.82199860 195.29399109 423.64697266
211.18800354 208.77499390 453.76000977
234.53601074 207.77400208 415.75598145
164.83700562 251.62699890 445.46197510
144.20500183 240.44300842 506.01397705
100.40000153 200.03298950 399.39001465
96.34199524 189.22000122 445.07400513
195.27299500 256.14199829 423.00399780
115.36800385 248.57400513 434.46401978
178.50500488 269.94601440 400.73999023
125.27600098 252.33799744 492.57000732
103.41200256 204.75399780 509.06997681
149.41600037 265.70999146 397.47802734
226.64498901 200.86898804 440.83599854
170.27301025 145.54400635 409.85998535
96.70300293 192.54299927 461.70397949
112.27600098 164.69099426 501.09799194
220.14201355 207.90899658 393.35299683
180.11199951 276.08401489 428.75997925
99.79000092 208.72799683 479.06301880
140.65299988 131.53900146 436.95797729
132.08399963 210.42298889 368.47601318
175.40599060 155.17599487 460.13198853
283.94100952 213.80200195 396.35198975
120.90999603 235.22700500 521.80200195
278.53997803 211.71900940 406.65899658
208.39500427 275.67300415 420.82598877
105.99599457 199.39399719 523.24200439
206.66200256 227.44900513 459.35897827
167.21899414 160.11300659 470.11599731
278.93298340 227.91500854 401.49499512
177.51400757 261.31799316 445.20898438
197.03898621 242.79400635 463.67300415
155.88800049 199.47799683 500.72903442
285.40499878 219.72300720 403.63699341
264.65499878 248.17199707 408.08801270
162.02500916 256.20401001 380.70397949
170.47000122 278.77301025 429.48300171
105.27300262 161.48899841 475.72399902
213.01199341 226.53999329 393.24700928
98.20099640 179.82398987 433.14999390
211.09899902 274.90499878 462.17901611
179.82199097 199.13299561 374.46401978
220.55400085 234.81300354 458.91897583
110.25399780 153.04100037 431.57897949
123.82099915 157.41400146 390.24600220
167.59700012 240.95100403 444.87698364
194.66300964 187.34100342 403.75302124
97.91600037 187.79400635 480.56997681
169.19900513 242.45899963 372.29202271
229.72700500 276.01300049 426.80499268
155.23399353 220.39100647 503.28201294
116.90399933 231.08500671 518.86102295
224.87998962 194.29301453 409.67800903
101.89100647 167.64199829 443.05200195
161.62901306 212.73300171 444.53900146
128.29899597 259.19601440 454.24801636
209.96699524 202.48199463 423.94598389
202.36199951 273.45898438 469.91598511
249.65600586 239.76199341 403.46597290
122.84400177 256.19198608 448.23101807
198.52000427 195.45799255 398.44198608
114.76200104 233.15100098 498.44299316
114.37799835 206.59400940 529.01000977
132.80500793 211.38000488 516.15295410
99.79399872 215.16500854 456.11599731
175.63800049 212.35099792 486.22000122
104.78099823 180.86599731 394.38699341
195.36399841 253.75000000 402.70599365
233.92900085 221.16600037 398.86798096
177.41999817 137.42500305 431.92498779
188.55899048 272.17199707 467.54800415
242.57600403 206.92199707 412.01098633
105.42099762 233.32099915 465.43099976
238.55101013 259.20297241 469.72500610
265.23797607 274.58898926 452.61599731
233.42399597 212.78401184 434.33499146
212.48100281 212.75801086 389.11502075
105.42099762 164.31300354 407.82299805
161.10600281 232.25100708 494.85702515
180.63198853 166.95199585 394.83700562
230.80299377 211.45799255 399.02899170
184.36700439 163.83099365 452.83599854
102.92299652 224.19799805 462.47299194
162.10099792 253.74600220 457.15200806
169.15400696 209.60499573 365.84298706
115.38500214 220.53498840 382.38998413
164.35000610 207.54299927 462.26998901
169.83700562 199.20500183 368.79199219
260.61697388 238.98999023 403.48498535
223.37500000 235.48200989 398.76300049
182.04598999 189.81399536 378.64199829
158.58000183 238.17098999 368.44198608
184.39199829 148.44799805 443.91500854
118.49600220 187.90100098 376.91000366
273.15701294 263.66201782 445.87899780
101.29100037 221.33000183 418.64099121
97.09300232 189.25000000 436.21298218
205.00099182 209.97999573 450.22601318
182.91400146 212.65299988 451.26797485
193.52600098 189.54100037 454.82699585
125.21800232 139.63200378 479.05297852
184.76399231 232.41700745 376.54998779
111.17400360 226.46600342 390.90499878
143.66200256 132.26200867 426.05099487
112.15600586 152.22300720 419.56201172
260.29397583 269.89300537 462.13598633
115.22499847 180.67500305 518.38000488
155.10299683 264.88000488 468.52600098
174.11099243 277.89199829 441.81600952
155.68299866 211.54499817 451.01400757
231.42201233 202.18899536 413.20602417
238.51199341 209.05999756 400.97100830
185.01399231 267.30200195 478.10699463
120.92400360 140.05699158 438.75100708
152.64299011 260.90301514 388.02902222
191.23500061 181.72499084 452.46301270
289.27600098 235.91400146 408.86199951
177.03700256 227.77200317 452.17401123
155.68499756 240.57899475 466.55999756
279.70599365 207.89100647 395.38800049
127.12399292 187.66499329 373.38998413
187.56700134 205.66500854 376.57400513
173.29699707 206.17599487 368.49600220
200.81700134 249.89700317 471.11898804
124.39399719 237.88200378 380.88598633
260.36798096 270.60400391 423.53900146
169.69700623 260.20397949 386.46099854
192.44099426 193.84600830 447.26498413
235.61599731 204.21699524 405.72900391
110.64399719 161.63999939 400.75799561
146.71600342 244.57099915 495.86499023
289.00201416 228.93800354 400.43499756
171.64399719 223.09899902 453.58700562
150.69599915 230.33900452 505.24301147
132.43701172 255.70500183 505.75500488
102.87400055 233.63299561 448.77301025
200.13299561 240.97700500 434.64999390
241.51000977 227.51699829 444.67999268
140.89601135 267.39697266 434.99301147
120.13600159 250.19601440 480.94497681
119.17700195 251.93699646 429.03100586
127.27500153 258.65100098 423.56100464
194.29499817 278.01702881 434.43798828
124.71599579 141.65599060 423.70401001
144.81100464 264.96899414 482.74099731
276.67901611 269.13601685 444.63000488
159.87500000 271.36999512 458.87399292
260.41900635 273.28900146 457.75299072
198.55799866 236.40299988 453.25900269
138.20999146 251.16300964 507.43902588
190.24200439 241.58898926 437.02301025
163.66799927 236.07798767 469.63302612
198.91600037 196.73500061 389.01901245
130.20500183 261.41500854 464.24801636
101.83899689 208.50000000 488.48300171
176.54199219 218.17300415 368.82998657
207.51400757 250.59700012 431.65298462
251.55601501 275.25698853 438.91900635
175.34899902 220.41999817 473.55999756
223.72700500 193.48699951 423.05401611
191.86199951 160.92900085 417.42398071
257.68597412 261.29598999 411.04501343
128.08599854 134.80900574 448.97900391
255.65600586 239.89799500 435.38400269
164.92900085 213.95599365 455.10598755
273.40600586 233.48901367 418.79000854
196.73300171 174.07000732 403.25000000
162.55599976 173.16299438 380.84399414
150.62899780 140.06100464 409.57000732
221.19000244 272.15100098 413.97799683
268.93499756 231.34199524 422.76199341
133.26800537 246.68699646 516.97998047
131.04100037 192.18600464 371.10900879
167.93099976 177.58099365 482.33999634
122.06199646 253.69099426 471.63800049
195.92399597 196.37599182 420.80300903
238.32400513 268.54699707 408.05398560
123.60200500 214.43200684 373.45901489
218.32301331 195.00199890 442.28298950
142.06098938 153.91500854 486.74899292
209.39900208 272.45300293 474.98101807
178.33299255 264.23999023 461.39498901
189.07600403 231.58100891 380.16998291
120.33899689 164.54100037 385.79101562
115.56900024 241.54299927 401.23599243
151.59800720 171.47799683 489.58297729
174.87199402 240.64900208 373.85601807
104.58700562 214.11299133 500.45300293
119.01999664 248.21299744 407.50302124
213.71099854 266.42001343 406.78997803
130.77299500 143.66300964 407.21899414
289.27200317 222.10200500 398.69299316
98.98600006 173.81199646 456.87500000
180.16700745 274.72299194 446.35198975
240.80300903 273.06301880 457.78201294
202.05299377 275.78799438 457.37902832
225.37699890 272.74002075 468.60699463
171.32200623 139.12800598 451.35800171
269.35699463 265.40100098 420.84899902
266.94900513 215.18299866 396.70602417
269.05502319 274.16400146 448.64599609
170.45600891 265.84197998 463.81301880
120.13500214 141.85800171 433.49298096
157.21400452 274.66000366 442.58200073
106.43099976 188.12899780 388.99401855
233.75601196 256.76101685 469.08798218
136.79499817 190.97399902 369.04998779
111.45199585 239.45100403 476.50097656
239.33699036 213.28001404 423.04098511
191.09399414 211.26799011 458.82699585
165.41099548 227.35099792 493.92700195
101.54000092 183.24800110 413.91400146
243.18000793 229.45700073 401.16699219
112.47800446 246.17399597 458.20401001
291.85400391 215.86799622 397.08502197
194.01499939 219.30599976 453.20300293
224.15499878 196.39399719 404.50500488
186.79200745 209.64900208 469.22698975
189.97700500 249.61100769 387.52899170
135.00801086 228.12500000 515.22100830
207.61399841 244.84098816 468.21902466
100.71499634 191.35198975 415.74401855
167.80899048 231.99699402 460.97100830
128.99600220 182.45799255 373.83801270
147.64199829 224.06298828 363.67199707
154.69299316 181.20098877 494.15002441
201.62298584 206.95500183 443.56900024
120.91600037 247.13000488 492.05599976
234.36999512 246.59100342 403.63500977
159.64601135 222.38800049 500.08303833
104.00099945 230.84600830 424.82199097
271.96499634 204.92799377 401.85498047
137.65299988 129.53900146 457.45599365
282.15200806 260.03799438 419.39498901
135.62400818 137.08900452 421.59301758
164.68800354 258.60900879 456.23098755
172.26699829 263.30102539 453.83700562
115.71499634 213.52499390 379.28701782
140.68299866 246.14900208 488.10897827
187.71499634 268.89898682 425.26699829
195.15299988 190.10398865 409.65399170
189.24200439 273.30499268 449.20700073
164.70100403 167.68800354 385.85202026
166.44099426 133.06900024 432.92498779
112.33399963 228.44099426 504.92697144
229.76799011 203.90400696 405.49600220
168.17399597 188.22500610 373.58001709
128.56900024 248.30599976 387.49301147
98.05300140 189.60400391 430.72698975
195.81900024 168.62200928 415.04602051
164.55799866 144.58300781 408.07101440
129.20300293 260.21798706 431.50698853
228.43800354 212.08399963 450.32800293
212.20600891 278.35501099 428.82800293
275.55502319 232.98600769 403.46398926
99.11999512 205.37100220 426.52600098
267.27499390 226.44200134 401.29400635
197.25199890 247.95399475 397.77697754
242.31800842 220.38101196 437.64199829
243.46199036 275.42401123 430.55499268
108.14099884 217.78300476 521.19000244
217.46299744 276.10598755 453.29602051
168.34700012 168.67999268 475.15402222
135.58801270 221.81401062 366.00399780
99.62599945 177.32398987 479.98199463
133.46099854 151.63000488 393.94598389
205.11099243 261.58499146 403.36199951
151.83399963 253.49101257 379.68600464
193.03399658 275.08300781 459.38598633
142.87500000 216.93299866 510.63400269
227.80000305 198.28001404 434.08502197
132.62100220 146.11000061 401.76400757
162.81799316 205.87399292 457.58798218
101.16499329 170.68299866 426.02099609
257.18399048 205.79899597 402.22000122
170.77699280 275.22201538 459.93301392
109.58400726 242.70700073 441.65100098
190.02799988 240.60200500 382.77499390
171.57901001 228.90299988 469.10797119
129.59001160 141.78100586 413.21099854
141.63101196 243.39100647 373.94699097
248.11900330 245.57901001 445.71701050
212.96400452 209.12300110 458.66299438
214.95300293 218.13999939 465.64099121
182.40399170 161.86399841 401.60400391
203.51300049 230.12100220 390.56900024
250.33200073 248.99398804 406.19799805
98.97100067 210.93499756 447.61700439
145.55799866 268.42300415 461.82800293
188.47900391 173.99800110 394.89401245
118.97100067 150.10299683 404.72799683
237.79701233 275.05599976 421.95098877
188.71099854 197.67298889 473.13201904
151.51699829 271.75000000 411.04598999
140.41600037 269.29400635 426.91799927
106.52399445 219.13699341 496.50799561
229.25500488 253.76799011 467.70700073
147.41101074 269.34100342 408.37100220
110.91699982 175.16799927 388.16500854
118.41300201 237.52400208 501.76000977
158.37399292 134.97000122 460.40698242
141.34300232 147.10900879 484.18701172
210.13900757 206.27400208 439.74099731
127.65899658 259.69699097 441.95602417
116.24700165 246.75000000 420.14102173
115.40200043 151.68899536 482.01501465
219.44200134 192.38699341 426.33398438
280.64797974 263.26098633 427.74798584
185.16000366 184.72300720 469.63900757
278.02600098 223.72599792 398.66799927
109.11199951 240.96099854 419.64700317
160.85400391 159.29899597 391.07498169
194.30899048 191.57800293 398.99700928
138.28300476 267.42300415 416.91900635
162.88000488 191.52999878 494.53100586
141.36900330 185.13000488 371.08599854
213.16300964 231.93299866 393.82400513
131.30900574 258.75000000 404.26901245
187.79200745 262.36401367 401.26602173
170.22200012 218.48100281 461.51599121
197.81500244 172.27200317 431.22299194
141.32499695 229.42199707 365.88098145
235.06001282 274.47302246 417.66900635
162.77900696 247.13400269 450.48202515
182.94300842 207.04400635 480.55899048
99.50300598 196.79200745 488.75701904
201.62500000 244.12600708 445.02999878
115.24900055 235.38600159 493.03900146
257.44900513 274.59600830 438.88299561
183.52999878 158.24499512 451.54800415
184.52299500 268.83700562 468.99200439
187.91101074 205.41200256 474.89602661
287.83499146 209.71099854 398.34402466
146.29399109 267.38500977 445.31198120
214.41600037 194.02700806 420.87899780
165.67599487 236.14799500 464.88299561
182.99099731 211.32699585 464.71099854
190.43800354 224.63099670 440.13500977
100.10600281 217.00199890 464.86300659
160.07299805 261.97100830 464.53298950
121.50800323 224.38000488 377.23199463
214.39500427 196.41099548 416.07098389
292.69702148 237.54200745 404.82101440
153.32199097 274.76300049 419.52099609
137.46299744 264.77899170 457.38198853
167.24101257 136.15599060 450.79299927
200.61300659 278.68200684 433.14001465
179.73500061 207.04199219 454.09701538
217.32699585 195.72999573 404.13601685
160.18399048 179.93399048 375.84799194
144.43499756 236.85299683 472.86297607
242.72898865 224.10101318 401.32299805
188.33200073 160.48399353 444.94699097
140.92999268 178.10099792 500.21200562
153.91099548 269.03997803 402.09799194
200.41101074 211.02200317 456.99798584
118.89099884 253.85800171 451.63598633
126.66300201 136.01200867 439.42800903
153.60899353 270.00100708 452.38598633
225.51100159 203.83000183 448.81399536
126.15699768 144.46798706 409.10198975
143.26499939 143.68400574 403.55899048
249.56799316 270.44497681 415.21701050
198.17199707 215.90399170 462.29299927
193.36601257 264.90701294 445.87698364
201.72399902 183.13800049 431.08001709
260.98199463 248.69400024 434.87799072
207.28399658 240.50599670 434.83599854
124.98400116 257.20700073 433.03201294
170.94799805 152.68998718 462.33697510
196.90699768 186.33100891 429.31198120
147.72300720 166.70100403 381.05200195
146.96299744 206.62100220 506.60299683
214.25900269 197.75100708 436.56701660
215.34700012 277.92501831 439.11099243
101.83899689 165.37100220 470.62200928
244.24499512 275.35501099 437.06399536
176.15299988 268.65197754 462.46200562
152.75500488 228.38999939 472.90701294
281.92300415 238.10899353 403.50100708
105.69300079 214.47399902 508.86099243
152.08900452 136.63198853 416.00399780
119.75499725 141.75700378 468.76599121
190.28300476 170.45800781 446.75299072
253.08001709 209.17098999 410.31597900
204.43699646 257.49700928 437.39199829
214.54598999 205.60101318 392.10598755
104.87999725 235.31700134 434.49301147
99.77799988 200.13900757 427.57202148
261.43301392 236.12500000 428.85699463
121.39399719 144.65199280 412.51000977
100.10500336 224.85700989 447.56600952
143.03199768 179.90599060 373.48300171
99.60099792 208.84100342 409.49301147
178.64300537 200.69099426 486.63900757
171.94000244 166.82499695 390.08502197
282.55798340 222.50199890 407.32800293
257.27099609 273.47000122 428.51702881
287.22399902 257.41299438 424.92199707
194.32798767 197.99200439 381.31500244
141.37199402 167.06700134 495.17599487
191.06399536 260.04998779 480.97802734
169.93400574 251.45599365 378.43099976
128.11199951 254.15701294 498.39401245
174.15200806 216.66799927 482.98800659
211.04200745 231.43699646 461.45901489
197.46200562 181.23400879 439.07897949
181.92900085 248.89799500 381.19900513
275.18798828 225.65800476 414.34402466
103.38099670 165.30000305 436.37100220
102.95400238 229.38099670 430.03298950
236.38600159 219.27000427 445.26898193
101.06800079 195.12500000 500.46600342
182.37699890 270.62100220 452.38302612
204.06399536 260.81402588 427.87799072
177.80500793 164.19300842 461.53900146
229.42001343 259.97497559 475.47500610
139.03799438 182.07600403 503.09197998
183.46800232 270.86700439 413.58798218
194.82398987 191.92999268 418.85400391
97.38499451 183.75599670 458.27499390
204.11399841 238.06799316 462.03399658
102.70199585 167.39599609 419.27600098
99.95999908 190.23899841 491.71002197
119.90100098 155.93899536 395.09100342
112.94600677 216.78001404 527.31103516
142.29100037 255.12600708 492.84600830
249.80000305 224.53401184 433.18301392
200.90000916 183.47200012 418.64401245
145.13101196 268.57501221 472.70300293
154.27699280 139.26100159 469.26501465
109.12200165 177.57199097 510.52899170
191.37400818 270.60800171 480.62197876
128.41300964 235.43701172 525.30902100
174.01100159 253.31500244 434.61499023
195.26000977 277.91900635 441.43701172
254.89900208 251.95800781 406.80200195
145.16000366 149.68399048 482.35000610
225.60598755 201.29400635 404.83401489
158.66200256 277.64001465 426.57101440
162.83399963 135.23001099 422.75198364
127.34100342 136.77699280 429.88101196
182.93699646 156.35398865 407.61700439
253.26600647 225.02299500 401.07797241
252.20201111 216.15699768 398.64999390
269.95199585 249.82499695 429.87701416
253.77601624 230.18099976 432.73699951
171.42300415 275.34402466 409.88201904
125.82099152 242.72200012 522.35504150
191.41101074 156.93199158 421.39398193
111.13599396 242.60200500 467.75201416
114.01399994 245.45100403 472.10198975
149.56698608 189.81599426 501.35202026
162.48699951 206.53900146 363.48199463
108.88200378 151.52400208 454.36901855
204.51000977 279.65499878 438.73599243
264.81198120 203.76199341 396.00900269
200.93199158 202.18600464 425.25500488
286.41699219 233.12799072 400.85198975
237.16300964 236.60699463 451.54800415
211.03700256 270.57400513 485.92098999
191.84201050 169.33200073 404.06997681
191.30599976 200.54901123 453.99298096
205.25099182 246.28601074 427.39099121
135.04899597 197.02999878 511.15499878
126.47999573 248.21199036 507.03799438
263.95300293 272.39401245 433.42501831
193.60099792 190.06199646 388.02798462
259.08898926 209.47399902 396.69497681
108.63000488 241.31999207 463.21298218
118.33699799 245.44499207 399.87399292
136.14100647 221.13000488 514.35101318
183.46099854 246.30099487 434.19998169
99.82600403 168.82800293 463.79199219
146.66999817 214.66900635 508.36199951
171.78599548 231.57598877 478.96798706
209.11900330 275.85900879 457.76901245
129.18800354 175.31999207 376.79400635
214.61700439 248.50199890 468.62399292
103.38400269 179.72200012 499.09298706
173.52500916 209.54600525 448.39297485
106.41400146 223.99699402 397.69900513
104.38999939 160.67500305 445.11801147
162.15600586 202.40400696 366.15600586
101.72999573 165.89700317 448.39297485
153.48699951 212.05000305 444.97399902
113.09700012 149.40400696 471.87799072
103.62799835 207.98001099 393.02999878
188.78999329 253.60998535 432.93399048
262.75302124 214.80400085 414.73199463
245.74501038 206.56399536 403.08599854
238.26600647 245.37100220 455.26998901
136.78700256 239.57798767 513.93902588
140.50500488 132.25000000 430.33001709
107.72200012 183.36900330 514.14501953
105.70199585 190.08399963 516.21301270
208.13499451 217.71701050 388.63000488
174.83699036 136.41299438 439.63198853
183.57699585 273.36001587 432.30899048
107.88600159 167.50000000 396.74801636
138.03300476 266.66702271 469.25601196
251.83699036 270.91699219 469.44400024
160.33200073 268.17398071 397.21600342
130.04598999 218.86000061 369.20999146
151.44300842 232.26100159 493.85198975
168.73100281 145.76800537 461.29797363
278.86999512 243.98500061 419.34100342
231.25299072 236.41299438 401.06799316
202.37599182 224.12399292 449.16000366
212.52900696 201.57800293 428.45401001
174.15499878 151.96398926 404.75500488
229.51998901 246.68901062 462.62100220
205.78999329 256.57202148 423.59301758
175.07299805 204.77000427 451.22000122
101.56500244 189.77000427 399.60299683
102.04100037 227.06599426 456.66699219
214.22999573 277.54901123 443.91799927
99.50399780 212.22900391 414.09201050
271.56100464 206.04699707 396.26898193
143.65899658 251.35699463 379.76101685
141.35800171 266.13299561 406.54400635
148.50599670 273.49798584 430.04000854
147.38400269 192.70600891 368.12002563
149.70300293 236.40299988 368.22799683
118.96599579 151.88400269 492.77600098
222.47700500 270.36801147 485.13497925
101.01900482 179.33900452 416.71899414
133.41000366 172.94400024 502.70898438
237.81600952 226.28300476 447.55102539
125.14899445 252.34898376 400.52499390
207.81999207 224.16600037 390.40600586
241.65501404 255.95999146 463.42797852
221.92999268 203.47100830 397.97198486
140.22799683 262.42300415 488.84500122
115.89299774 249.52999878 463.08898926
98.11600494 194.04299927 433.89498901
125.02600098 137.04598999 466.67700195
215.37800598 201.83799744 447.62301636
109.81500244 208.97000122 530.40997314
171.25099182 215.26699829 466.66601562
261.08200073 251.38699341 408.90197754
101.01300049 215.89900208 410.28298950
127.36700439 142.71800232 484.45098877
220.46501160 275.26797485 456.97500610
189.03199768 272.77099609 442.80697632
264.40499878 262.81298828 451.07498169
114.14799500 241.18800354 409.35400391
107.00900269 174.58300781 392.46401978
178.85099792 271.85501099 408.51300049
130.11999512 258.85998535 479.96301270
192.79899597 181.49200439 391.58599854
132.70799255 134.93501282 428.64801025
177.28900146 234.90400696 447.63500977
218.44799805 276.49700928 423.38601685
164.00000000 242.49200439 450.51800537
102.11999512 193.80000305 506.29598999
143.50700378 197.43800354 506.17498779
226.99700928 260.18701172 402.96701050
155.72300720 146.17599487 472.53500366
218.15100098 259.56198120 478.61499023
122.13599396 254.81999207 465.73300171
233.18701172 226.38999939 450.94299316
111.93600464 246.06999207 445.75100708
144.97000122 130.13499451 458.27697754
222.52600098 203.26300049 453.01602173
106.96099854 200.12199402 387.07199097
125.46199799 186.74400330 514.69396973
197.01799011 259.06198120 444.75601196
202.98699951 244.85400391 438.31900024
165.72799683 159.68798828 392.80001831
193.74699402 272.54800415 473.26699829
110.40099335 236.61199951 409.74798584
169.29100037 206.51799011 492.85198975
203.80300903 220.33500671 461.13800049
284.50500488 205.37400818 397.64801025
99.48900604 175.68400574 445.10498047
148.59700012 271.74197388 436.44500732
152.67999268 156.37199402 390.62100220
175.00199890 195.60598755 489.03598022
107.20399475 239.47100830 425.81497192
131.41000366 242.88200378 521.58599854
150.33200073 231.34899902 470.08401489
273.17498779 266.15899658 427.16000366
203.82299805 205.47200012 432.13098145
210.05599976 276.92999268 452.31301880
188.85800171 152.29899597 436.07199097
275.41101074 245.51800537 406.35601807
215.84500122 218.19000244 391.50302124
125.91600037 224.21400452 518.80096436
220.61199951 191.97599792 418.27600098
105.87300110 226.69898987 477.57199097
140.87200928 140.55700684 410.07800293
167.85099792 262.82199097 459.94500732
188.94700623 251.25300598 424.86798096
194.03199768 235.92900085 442.82098389
143.39700317 158.85600281 487.54501343
165.83200073 224.06401062 365.67599487
137.41200256 244.19000244 512.98699951
248.04901123 233.97000122 440.26602173
106.17900085 171.15199280 494.63201904
142.69499207 239.29400635 370.84399414
131.62800598 162.11900330 499.19400024
190.31800842 189.79400635 384.34298706
201.37100220 198.15899658 408.38198853
199.04899597 237.49198914 391.32699585
217.84199524 254.76300049 400.59701538
228.96899414 230.67698669 453.69699097
132.22799683 160.43199158 384.25000000
113.68799591 148.73799133 437.79199219
139.91999817 238.67900085 477.80001831
184.40000916 224.18099976 375.59899902
230.92399597 211.60299683 444.61798096
189.74600220 199.52101135 468.91098022
121.69200134 169.47300720 509.65499878
161.99600220 207.84400940 446.39999390
161.15499878 248.36599731 374.81298828
184.57600403 197.30000305 480.01901245
