ply
format ascii 1.0
element vertex 2048
property float x
property float y
property float z
end_header
252.17047119 212.11218262 404.17770386
259.91641235 216.95317078 409.81234741
261.45007324 214.13607788 398.77807617
269.54852295 217.51217651 402.48248291
122.58385468 109.58429718 421.29205322
115.92823029 113.16542816 426.25439453
129.92959595 109.87902832 415.26635742
123.53981781 113.11823273 418.49496460
112.09635925 118.62479401 445.75186157
107.10993958 124.19972229 451.46548462
116.37677002 117.25995636 440.68936157
112.26588440 123.19704437 444.94281006
100.17665100 156.37551880 499.58074951
99.56880188 166.56411743 505.00927734
97.13538361 159.06860352 496.02465820
96.89574432 168.69660950 500.50155640
221.45944214 309.84960938 422.92834473
221.12905884 314.52130127 433.07843018
232.38415527 308.63500977 422.26376343
227.99911499 312.89892578 427.82254028
100.11953735 142.94525146 484.34243774
96.17816925 151.57113647 491.28411865
100.47398376 138.78381348 476.80645752
96.65976715 147.95333862 481.71484375
103.35737610 126.89429474 464.04693604
97.16696930 133.31683350 469.73165894
103.23600769 122.21128082 453.34399414
96.36848450 130.08438110 457.07345581
111.64361572 116.33292389 436.78225708
104.45534515 121.86835480 441.76965332
115.00898743 113.50403595 425.74029541
106.45973206 120.31954956 428.74542236
248.92280579 287.70153809 414.01684570
247.27767944 297.86221313 419.95150757
257.69769287 281.91494751 414.64199829
254.66882324 290.61614990 417.21340942
135.87968445 114.53666687 423.00634766
131.19282532 119.23702240 430.75808716
144.53874207 120.25028992 418.72979736
141.44113159 124.92367554 425.17544556
94.22169495 159.18957520 494.86312866
94.23590851 169.49952698 500.58639526
89.66919708 159.68656921 485.40078735
89.84226990 170.74395752 491.02920532
97.25724030 135.44085693 467.04748535
92.99032593 143.33898926 472.45745850
95.32171631 134.02160645 453.92117310
90.48651886 142.69413757 458.08407593
261.86975098 249.67887878 412.88491821
262.72988892 261.23229980 415.12432861
267.93856812 241.19223022 408.42776489
269.37490845 252.31030273 411.28408813
102.01162720 126.37705994 444.39822388
95.69889832 133.67561340 449.24884033
103.82339478 123.73804474 432.04244995
96.73626709 132.43370056 435.64862061
111.95944214 119.19657135 416.36639404
104.38397217 125.22323608 419.71252441
118.07230377 117.87387848 405.69427490
109.49223328 124.92247772 408.21206665
93.78694153 150.39923096 480.65652466
91.60484314 159.18736267 485.88165283
90.79769135 149.87237549 468.81704712
88.56213379 159.47149658 473.26263428
150.69813538 110.56991577 400.88452148
144.34880066 111.15390778 406.95452881
162.17739868 118.91358185 395.82971191
156.97233582 119.86785889 401.25054932
99.03431702 172.37986755 508.08096313
102.16563416 182.68405151 511.90649414
100.60816956 185.82824707 503.61947632
104.96947479 197.59838867 509.45132446
105.00942993 131.20327759 407.99069214
99.71093750 138.54083252 411.77770996
109.12416077 130.88351440 399.25265503
102.97325134 138.53121948 402.51641846
138.42799377 109.55992889 403.07690430
128.79612732 113.28746796 403.98806763
145.69235229 112.94312286 394.34078979
135.81005859 116.57530212 394.95529175
90.32550812 151.21900940 458.30459595
88.88121033 160.17665100 463.57330322
88.98643494 151.26524353 446.55755615
87.23970032 161.26504517 451.41851807
124.37609863 117.57042694 396.69955444
115.77676392 123.34184265 398.19055176
129.68518066 120.95603180 390.15179443
121.19758606 127.11657715 391.52337646
191.46522522 308.81304932 438.68341064
189.01921082 310.07952881 449.57705688
201.52949524 310.94989014 437.66827393
195.29406738 311.20199585 443.48196411
90.83083344 177.27195740 497.66186523
94.88200378 186.93850708 503.92160034
88.63031769 184.13803101 489.45162964
93.38075256 193.93173218 496.64279175
199.52140808 311.33483887 462.80508423
196.37564087 307.87411499 472.67968750
209.92605591 311.60195923 462.96316528
204.66006470 310.47186279 468.56060791
112.22349548 132.86927795 453.98992920
106.58692169 140.27908325 462.67306519
121.82069397 135.69720459 447.43255615
116.99705505 143.52984619 455.40390015
93.72300720 141.50006104 437.47549438
90.14091492 149.89712524 442.29766846
95.30961609 139.83374023 424.98486328
90.95793915 149.25370789 429.33111572
152.59371948 125.33502197 416.98052979
147.48400879 131.76043701 424.90081787
162.56607056 132.19772339 414.69198608
158.76629639 138.23498535 421.74444580
89.45486450 169.45932007 484.13647461
90.84763336 178.48245239 490.27099609
85.90792847 171.81623840 472.44338989
88.20994568 181.37106323 478.74841309
202.17085266 296.23852539 421.17025757
197.85961914 303.24090576 428.33444214
212.55520630 298.21691895 420.18444824
205.25881958 301.28875732 423.18695068
173.40245056 126.38668060 398.93176270
174.80628967 128.95166016 409.86587524
183.50315857 134.70861816 397.12481689
184.67848206 138.15634155 407.16702271
98.10821533 205.12445068 505.52386475
106.21439362 209.01669312 510.95816040
101.34885406 219.41525269 501.42453003
109.73243713 223.00987244 507.54077148
129.58692932 129.54031372 435.38009644
123.40904236 136.85282898 443.53637695
139.44802856 134.04080200 431.02648926
134.30461121 141.34368896 438.23114014
108.73144531 156.12229919 492.50445557
104.34412384 164.58679199 501.99569702
117.83548737 161.72419739 484.15939331
114.06556702 171.33872986 495.08966064
242.43826294 255.18621826 410.23181152
240.79603577 267.39172363 413.82031250
252.74473572 252.18029785 410.99853516
248.10722351 260.32055664 412.35818481
161.49522400 116.59786987 389.39538574
152.97100830 117.46281433 390.02722168
168.81448364 126.88278198 383.42938232
161.72735596 127.95770264 384.61218262
246.35113525 227.61624146 405.46765137
243.87478638 240.54992676 405.73831177
258.78204346 222.66232300 403.93762207
253.78982544 232.71318054 404.96267700
181.59362793 303.87963867 466.00711060
176.97465515 300.43670654 474.31558228
190.24786377 305.08892822 468.32196045
184.75793457 303.60949707 472.27154541
87.54065704 169.02020264 464.22512817
87.52897644 178.14349365 471.06280518
86.64864349 168.07820129 451.40896606
86.62071228 177.98745728 458.70608521
139.95960999 120.98671722 387.89904785
130.16015625 124.09395599 386.22360229
148.11973572 129.00621033 381.56079102
138.48400879 131.65304565 380.18054199
169.84654236 300.77792358 448.38153076
165.35418701 300.22796631 457.64544678
177.83122253 303.41946411 449.65274048
171.73857117 302.78186035 454.19345093
93.22356415 149.71052551 423.51663208
90.37879181 158.70861816 427.97113037
96.32210541 147.47207642 410.83099365
92.73327637 157.07891846 414.99386597
91.86076355 189.86177063 485.61502075
96.36655426 198.66145325 491.87765503
90.99439240 196.80058289 477.13317871
96.04534149 205.22653198 484.15097046
225.92932129 268.92257690 412.88980103
222.06213379 280.76593018 415.38061523
236.29273987 269.01251221 412.72229004
229.75712585 275.58386230 413.26971436
215.80390930 292.84967041 446.57553101
209.68574524 298.31817627 454.34170532
224.03794861 294.53479004 442.95309448
217.06233215 296.15557861 447.69848633
109.28633118 137.63391113 396.86633301
102.87727356 146.01556396 398.63473511
117.43296814 136.35479736 386.34350586
110.27070618 145.76127625 387.55545044
114.92113495 146.87574768 472.61633301
110.39608002 153.38978577 482.34259033
124.49136353 151.54142761 464.98019409
120.31112671 158.93870544 476.02987671
242.53308105 269.96682739 435.93707275
237.45707703 280.41741943 440.54437256
250.17114258 270.16162109 430.74081421
244.41177368 275.76040649 435.03894043
246.39724731 213.16575623 419.42037964
247.57812500 221.38174438 428.91839600
257.19699097 216.23953247 408.32833862
254.00787354 219.01399231 418.36666870
178.27769470 134.34472656 386.62817383
175.11518860 133.20431519 386.76205444
182.62351990 143.99562073 382.94400024
181.56890869 143.51596069 384.40225220
102.97003174 157.09390259 398.59963989
98.53743744 166.54855347 400.69268799
110.08316040 156.55067444 388.74142456
104.96478271 165.87625122 389.91793823
225.03530884 193.58047485 448.36120605
222.64660645 201.38807678 458.08746338
232.57803345 198.41183472 443.98062134
229.48474121 203.43388367 454.34451294
103.39019775 225.58602905 499.82901001
109.69907379 230.71597290 507.49597168
105.49699402 238.63336182 493.01156616
111.28189087 241.71171570 500.80181885
217.90890503 183.47454834 430.49124146
220.61160278 185.81895447 441.54476929
224.60690308 188.96760559 427.56698608
226.60649109 191.42710876 438.95571899
132.76148987 282.43832397 459.70935059
132.11422729 280.40081787 470.02700806
139.52162170 286.60266113 460.02297974
136.62544250 284.84448242 465.88168335
92.63200378 173.22891235 427.86532593
91.61222839 183.43098450 433.35260010
93.95000458 172.65098572 416.89270020
92.06552887 183.11120605 421.84155273
187.13438416 141.48129272 394.86267090
191.42346191 144.48547363 404.39822388
192.55496216 151.21623230 392.39306641
196.44816589 156.14968872 401.22354126
169.61099243 141.99584961 421.43048096
164.50321960 149.84967041 430.77532959
179.78610229 147.68634033 418.62567139
175.63284302 154.86016846 427.63150024
89.80061340 182.37811279 461.20217896
90.55708313 192.07933044 467.56210327
89.11049652 181.78865051 450.17755127
89.69075012 191.99456787 456.89672852
117.64826965 173.65182495 498.80139160
112.45861816 183.55723572 507.53942871
127.03790283 180.20149231 490.10574341
122.38907623 191.21264648 499.89172363
232.03121948 242.75091553 459.22048950
226.94418335 253.41146851 464.11685181
239.98088074 245.52983093 451.68066406
233.92597961 250.32916260 457.63412476
166.86796570 133.16070557 381.40716553
158.86965942 137.83599854 376.42459106
173.70851135 141.57894897 379.60504150
166.00494385 147.06141663 374.77175903
174.48397827 287.38903809 425.40673828
168.94354248 292.76266479 433.00628662
182.98506165 290.43548584 424.55914307
176.08407593 291.94937134 428.31948853
121.52290344 264.79812622 411.40093994
119.35380554 271.28421021 420.87097168
129.51374817 270.87582397 408.52389526
125.23622894 273.21347046 414.56307983
179.49775696 128.89212036 408.19741821
175.94456482 128.86679077 408.16534424
180.00309753 128.92044067 408.20187378
179.38040161 128.91857910 408.17694092
178.45310974 125.13255310 393.82174683
174.64483643 125.11509705 393.76452637
178.97315979 125.20390320 393.86590576
178.39849854 125.18534851 393.81381226
188.67086792 141.89495850 417.65359497
186.07087708 141.86303711 417.64260864
189.01934814 141.90684509 417.65573120
188.70288086 141.89828491 417.64523315
187.66578674 132.00411987 402.28042603
184.85894775 131.99145508 402.23471069
188.00651550 132.10569763 402.30804443
187.77981567 132.09216309 402.25567627
184.19964600 136.87402344 387.06118774
181.40351868 136.83433533 386.96081543
184.56442261 136.98846436 387.11737061
184.45228577 136.94519043 387.02828979
170.47561646 130.58352661 415.07339478
167.19468689 130.56707764 415.06774902
170.99034119 130.58264160 415.08309937
170.38871765 130.59300232 415.08038330
167.60533142 128.24594116 382.68847656
163.15686035 128.17858887 382.59896851
168.30136108 128.32582092 382.69900513
167.55104065 128.26504517 382.63790894
163.13325500 184.38598633 366.57879639
158.72041321 184.37957764 366.39636230
163.85234070 184.40895081 366.60601807
163.12272644 184.42123413 366.46786499
154.07249451 115.31817627 387.91235352
149.52595520 115.25125885 387.83886719
154.81616211 115.38239288 387.85629272
154.00263977 115.32109070 387.81100464
170.15016174 138.75642395 377.99270630
166.38253784 138.71307373 377.87783813
170.68740845 138.81369019 378.06347656
170.20808411 138.77563477 377.98583984
161.16053772 115.37652588 400.89212036
157.17170715 115.31671906 400.85818481
161.80334473 115.43337250 400.85864258
161.12789917 115.38670349 400.82525635
147.43963623 108.19567871 404.37295532
143.30818176 108.14097595 404.37185669
148.10618591 108.22988892 404.28610229
147.35165405 108.19118500 404.27883911
158.20960999 128.96014404 379.01562500
153.49221802 128.89733887 378.91632080
158.99063110 129.01284790 379.02008057
158.15097046 128.95709229 378.96075439
153.63812256 123.35511780 414.66384888
149.70332336 123.34368134 414.67050171
154.29956055 123.34906769 414.62384033
153.49662781 123.36975861 414.63525391
174.14480591 150.73603821 376.91488647
170.45857239 150.70033264 376.80364990
174.67530823 150.79049683 377.00527954
174.19967651 150.76104736 376.92803955
160.40815735 141.22149658 374.55618286
156.17759705 141.18605042 374.43218994
161.07838440 141.25497437 374.63916016
160.45916748 141.22229004 374.56903076
139.80404663 116.12851715 388.55249023
135.14752197 116.06908417 388.48995972
140.61428833 116.15412903 388.49987793
139.73587036 116.10327911 388.47039795
145.53720093 122.51869202 381.52453613
140.65794373 122.45876312 381.44207764
146.37535095 122.55596924 381.47927856
145.47399902 122.49870300 381.44491577
133.53897095 109.60226440 401.42706299
129.44355774 109.54289246 401.40893555
134.27598572 109.63520813 401.33435059
133.57113647 109.58605957 401.32638550
133.28485107 107.41014099 415.48004150
129.33064270 107.41682434 415.51278687
133.95866394 107.38332367 415.44866943
133.16513062 107.39662933 415.47723389
143.08885193 112.42514801 413.37524414
139.15502930 112.43300629 413.39132690
143.75271606 112.42051697 413.37390137
142.97024536 112.43661499 413.38491821
112.40602112 118.04464722 429.09478760
109.71072388 118.05533600 429.12600708
112.94282532 118.01450348 429.04284668
112.48883057 118.04373169 429.04943848
137.59591675 121.19300079 420.88949585
134.06324768 121.18607330 420.91900635
138.25251770 121.15514374 420.82907104
137.54095459 121.18001556 420.85208130
158.25862122 131.73554993 419.41418457
154.78610229 131.73112488 419.42501831
158.85070801 131.72302246 419.41799927
158.17636108 131.74877930 419.43200684
169.86256409 164.24688721 454.62960815
166.82083130 164.22543335 454.67974854
170.41949463 164.25553894 454.54150391
169.94842529 164.26672363 454.59786987
146.53388977 134.98159790 375.48748779
141.34953308 134.95104980 375.39822388
147.47161865 134.98504639 375.48492432
146.42269897 134.95193481 375.44229126
172.08030701 142.38043213 425.32287598
169.15484619 142.35714722 425.33914185
172.51202393 142.41050720 425.28759766
172.04556274 142.41766357 425.30429077
182.96214294 150.85809326 429.95108032
180.40457153 150.82844543 429.96289062
183.31072998 150.86560059 429.91461182
182.95695496 150.86254883 429.92639160
126.80071259 118.98081970 394.58563232
122.32014465 118.93885803 394.56539917
127.65665436 118.97856903 394.51840210
126.76173401 118.94759369 394.51766968
157.39573669 153.01274109 370.61376953
153.06127930 152.97975159 370.49807739
158.09347534 153.04168701 370.70071411
157.44013977 153.00950623 370.63919067
121.81002808 111.13115692 416.43923950
118.16365814 111.14630127 416.46487427
122.46382141 111.08530426 416.41418457
121.75238800 111.10574341 416.43127441
132.35333252 128.83670044 380.30487061
127.36654663 128.80151367 380.24969482
133.29159546 128.83917236 380.23150635
132.29391479 128.80041504 380.21981812
160.14973450 166.90434265 462.81417847
156.88185120 166.86166382 462.89810181
160.80831909 166.89759827 462.69589233
160.23937988 166.89541626 462.78845215
119.11738586 120.13459778 403.54830933
115.12799072 120.13363647 403.58923340
119.86524200 120.09910583 403.52291870
119.06004333 120.10051727 403.56427002
145.68867493 131.71047974 424.01324463
142.44403076 131.70327759 424.04031372
146.29457092 131.69589233 423.99703979
145.65773010 131.71716309 424.02084351
151.28150940 170.91433716 471.13601685
148.02038574 170.87896729 471.23626709
151.97961426 170.89611816 471.01116943
151.37747192 170.90182495 471.11428833
164.10629272 152.24264526 437.48379517
160.91897583 152.21073914 437.52142334
164.59150696 152.29383850 437.42709351
164.07606506 152.28906250 437.46322632
127.14772034 126.86779022 430.03909302
124.27755737 126.87010193 430.08038330
127.70118713 126.84317017 429.98898315
127.15367126 126.86849976 430.01226807
134.61755371 142.76867676 374.26437378
129.85458374 142.75807190 374.18554688
135.44563293 142.78833008 374.25198364
134.57431030 142.76770020 374.23269653
176.08308411 156.62989807 440.11026001
173.33895874 156.58502197 440.16708374
176.49807739 156.64170837 440.01855469
176.06170654 156.63246155 440.06588745
113.77963257 119.77593994 412.35220337
110.39582825 119.77349854 412.39855957
114.45454407 119.73098755 412.33337402
113.87226868 119.73348236 412.37063599
99.20751953 129.86531067 439.72515869
97.29981232 129.87904358 439.76385498
99.61315918 129.86657715 439.69915771
99.36219025 129.88943481 439.70526123
103.99443054 132.85565186 456.64752197
101.98257446 132.87066650 456.66348267
104.43128967 132.83840942 456.59829712
104.10939026 132.86859131 456.59146118
150.71617126 148.69483948 438.46194458
147.23054504 148.67491150 438.51156616
151.36727905 148.72204590 438.44714355
150.69624329 148.73088074 438.49191284
114.03668976 127.81367493 440.61782837
111.57544708 127.82094574 440.64767456
114.55517578 127.79988098 440.56027222
114.12815857 127.82791901 440.56542969
166.85307312 168.02630615 371.46380615
162.82942200 167.99908447 371.33981323
167.44932556 168.05014038 371.56329346
166.86045837 168.03256226 371.47473145
155.88919067 158.52500916 448.84478760
152.71697998 158.46766663 448.92385864
156.47799683 158.56880188 448.75115967
155.94764709 158.54547119 448.82568359
97.83656311 135.52282715 429.39743042
95.76095581 135.53321838 429.44757080
98.26512909 135.52664185 429.35360718
97.98159027 135.54661560 429.37182617
141.97776794 156.48597717 451.45529175
138.83825684 156.43957520 451.53814697
142.63876343 156.50982666 451.35861206
142.08528137 156.49386597 451.43789673
136.46369934 131.82400513 428.33248901
133.51620483 131.82670593 428.36065674
137.05091858 131.81149292 428.30694580
136.48414612 131.83761597 428.32632446
153.00292969 138.06782532 427.30053711
149.81671143 138.05598450 427.34344482
153.59196472 138.06785583 427.28674316
152.95692444 138.08764648 427.32012939
148.04193115 163.91044617 461.08956909
144.82781982 163.86357117 461.19757080
148.68930054 163.93283081 460.96627808
148.07812500 163.91952515 461.06640625
139.94787598 151.85237122 371.41799927
135.18913269 151.83479309 371.33813477
140.76907349 151.86560059 371.44866943
139.91461182 151.84326172 371.42758179
118.54521942 132.75955200 389.60006714
114.12779999 132.72863770 389.61645508
119.42785645 132.75888062 389.49145508
118.53944397 132.72848511 389.52041626
136.20812988 199.21818542 361.50317383
131.00186157 199.21887207 361.41778564
137.18215942 199.25436401 361.47479248
136.22343445 199.23898315 361.43652344
93.02745819 150.82891846 487.89221191
91.58526611 150.82327271 487.87808228
93.30994415 150.81723022 487.86218262
93.11576843 150.82807922 487.83312988
104.77993774 125.25559235 425.51968384
101.90774536 125.25718689 425.57669067
105.38548279 125.20364380 425.47726440
104.89733124 125.21018982 425.51437378
99.07174683 141.97323608 474.58517456
97.50126648 141.97802734 474.58618164
99.41392517 141.97177124 474.53457642
99.20803833 141.98884583 474.51937866
130.37361145 162.29003906 466.87911987
127.46453857 162.26876831 466.99057007
131.00245667 162.29997253 466.75442505
130.43862915 162.30606079 466.85107422
88.38638306 151.08808899 473.67608643
87.13928986 151.08731079 473.68200684
88.63051605 151.10020447 473.65426636
88.51704407 151.10652161 473.63604736
118.08633423 139.76898193 448.31268311
115.39048767 139.75982666 448.36810303
118.71300507 139.73744202 448.27468872
118.28034973 139.74757385 448.31842041
90.75366974 144.15206909 458.47039795
89.30731964 144.16104126 458.48867798
91.04463196 144.16873169 458.44387817
90.88432312 144.18269348 458.43429565
95.33354187 135.74426270 449.85275269
93.67697906 135.75146484 449.88214111
95.67888641 135.75445557 449.81982422
95.47499084 135.76962280 449.81896973
121.49131012 143.05529785 380.73828125
117.10224915 143.04296875 380.71804810
122.29818726 143.07246399 380.69000244
121.50869751 143.05169678 380.71081543
256.32421875 240.10363770 421.86611938
249.64550781 250.27490234 428.48709106
265.06323242 243.86126709 412.96435547
259.66458130 253.02117920 419.30020142
253.68510437 221.40986633 402.86920166
255.27893066 234.13163757 403.75003052
267.08880615 229.48136902 402.82055664
268.65338135 241.92959595 405.39321899
245.34968567 230.64587402 443.42996216
238.94256592 238.22615051 451.12390137
253.01666260 238.93794250 435.73025513
247.22790527 247.06532288 443.11788940
219.01663208 192.70761108 450.24771118
218.69757080 195.24656677 459.62530518
227.91369629 198.50575256 444.35299683
227.40550232 200.37722778 454.35089111
224.94456482 207.88623047 429.32504272
228.72122192 211.07342529 438.01107788
232.97657776 214.03955078 422.00866699
236.74552917 216.61271667 431.87942505
216.00811768 186.63543701 427.52197266
219.74913025 189.23699951 435.35073853
222.11567688 193.53523254 421.31903076
226.30169678 194.81207275 429.93762207
248.95971680 266.03192139 428.59542847
241.09046936 276.19546509 432.53872681
257.82681274 269.18008423 420.58654785
251.55261230 277.71200562 424.74221802
231.20046997 214.78457642 459.76177979
225.44445801 219.69683838 468.28790283
239.50988770 222.85079956 452.42611694
233.73171997 227.98457336 461.25277710
235.06958008 250.17448425 450.09713745
227.52012634 258.31533813 455.76068115
242.23568726 257.52166748 442.53997803
235.37010193 265.99774170 447.78741455
225.06303406 230.42337036 471.27569580
216.80851746 236.94992065 476.60308838
232.24456787 239.81443787 464.06915283
224.58721924 247.12310791 469.72113037
213.65504456 201.84849548 465.94253540
204.65502930 206.34851074 469.22219849
223.31002808 208.94549561 465.11419678
215.21154785 214.07736206 469.52752686
215.07189941 200.99317932 412.29589844
220.08720398 205.62419128 417.83999634
222.01550293 208.94044495 409.58163452
228.84643555 212.08972168 415.93289185
226.42498779 217.35388184 406.45416260
230.77665710 226.78926086 407.36773682
236.99499512 223.66757202 404.90826416
242.82034302 232.95077515 406.35833740
246.95242310 243.57279968 406.32125854
248.78790283 256.36392212 408.60498047
262.39617920 250.01652527 409.41018677
262.52908325 262.88470459 412.69561768
197.49565125 187.45077515 457.78240967
193.96365356 191.41813660 466.76318359
205.69912720 194.87791443 455.44619751
203.23529053 197.91868591 464.51943970
238.54379272 291.01940918 428.70477295
231.68013000 300.66284180 434.70733643
247.51107788 290.18142700 420.09771729
241.80708313 297.74822998 425.67648315
216.43814087 258.24118042 466.43423462
207.76560974 265.37454224 470.32647705
223.76992798 266.42346191 459.39190674
215.90068054 273.99218750 463.23452759
203.09786987 165.75883484 409.72323608
204.01931763 171.93864441 416.54260254
205.88693237 179.52085876 402.25949097
208.85548401 183.96115112 410.57373047
191.93710327 150.03305054 417.10125732
190.82708740 155.78327942 426.26309204
198.52084351 160.74562073 414.20684814
198.03407288 165.18206787 423.50738525
193.28652954 164.78817749 430.45294189
191.40444946 169.79098511 439.84014893
199.80874634 174.80340576 425.44534302
198.81039429 178.59835815 435.10031128
220.86738586 279.18182373 454.02117920
212.13705444 286.59066772 458.01068115
229.30876160 285.13818359 445.23437500
221.93844604 292.19641113 449.04727173
197.63146973 187.39395142 434.94525146
198.61463928 190.94810486 443.96453857
205.41955566 197.22134399 431.55578613
208.10780334 198.62374878 441.16839600
204.60446167 239.86837769 475.49255371
195.68533325 246.07708740 478.52081299
211.68869019 249.78535461 472.45706177
203.34846497 256.63168335 475.56091309
197.90693665 150.10896301 399.86563110
200.59616089 158.00325012 403.95532227
202.26054382 163.45874023 398.49246216
205.79351807 169.36212158 403.36425781
187.27720642 171.31546021 449.69934082
182.51905823 176.16607666 459.53543091
195.28225708 179.51025391 447.36938477
192.04304504 183.07597351 456.78936768
241.62022400 269.46325684 409.62017822
242.07870483 282.76296997 412.45193481
256.60308838 274.18289185 413.50759888
254.85827637 287.07418823 417.10317993
176.67131042 189.84814453 475.50698853
165.92599487 195.33445740 479.76235962
185.94679260 192.90530396 469.35317993
176.39198303 198.45133972 473.86187744
197.91607666 189.70269775 418.46655273
200.18054199 194.22872925 426.11233521
203.91000366 202.17982483 414.41107178
209.05534363 203.96690369 423.20111084
164.56138611 173.91558838 472.55386353
155.88500977 180.00100708 480.39996338
174.44177246 178.08570862 470.83215332
166.58215332 183.68374634 477.57061768
201.41677856 218.54919434 458.89154053
194.96343994 224.44197083 463.93862915
210.38694763 226.01004028 461.37799072
204.01739502 232.11665344 466.94522095
174.35893250 157.50914001 441.51129150
168.92269897 162.62173462 452.20266724
184.98481750 164.52691650 441.82046509
180.45590210 167.88555908 451.39263916
214.34371948 220.46208191 400.16455078
217.73703003 230.78746033 403.02328491
223.69145203 226.05242920 405.45343018
228.68847656 235.79025269 408.42871094
185.82086182 197.66441345 449.61749268
186.52590942 199.45112610 460.59780884
195.37664795 204.00868225 450.97653198
197.23944092 204.82330322 461.71798706
220.58541870 238.12693787 406.73278809
224.48536682 249.68904114 409.09545898
233.07987976 243.88679504 408.34393311
236.66775513 255.52595520 410.54626465
200.09722900 272.30853271 472.64053345
190.62330627 278.48641968 475.04656982
207.54940796 282.22839355 466.77352905
199.15907288 288.57867432 469.39749146
199.51641846 199.58404541 403.38824463
202.56683350 205.18400574 410.19027710
204.56738281 210.79939270 403.57327271
210.85313416 214.09902954 411.40399170
190.34205627 249.31677246 477.70016479
181.19371033 254.99957275 480.07586670
197.01116943 259.52124023 475.55416870
188.40220642 265.78967285 478.10614014
195.76191711 174.01719666 390.72677612
196.94952393 184.36183167 391.12698364
201.07870483 184.04975891 395.75027466
203.11488342 192.19351196 396.65759277
150.52583313 162.30917358 463.74166870
143.84805298 167.99391174 473.89364624
162.68896484 166.67675781 464.42309570
155.82336426 171.06118774 472.48690796
180.98565674 226.46467590 471.21405029
171.95866394 232.29002380 474.41088867
187.31958008 235.15261841 473.50161743
178.49293518 241.92190552 476.46536255
218.83554077 310.90728760 446.31710815
213.03715515 314.12048340 455.88735962
228.79779053 309.95083618 437.02044678
223.55131531 312.21145630 445.17669678
183.27900696 212.48593140 445.88995361
181.81077576 217.16027832 455.24057007
191.49211121 218.63973999 450.40246582
192.21847534 222.96636963 460.02664185
146.84066772 189.18113708 487.19525146
137.11248779 195.44378662 492.51977539
155.34561157 193.78805542 482.19836426
146.43806458 200.34928894 487.19250488
187.75302124 226.74014282 449.00576782
184.09771729 234.95613098 453.55780029
194.88107300 233.59033203 450.72900391
191.81765747 241.99317932 454.90634155
221.23617554 298.45904541 419.55255127
220.07083130 309.41241455 427.08468628
235.05416870 300.91519165 421.73129272
231.10607910 311.30990601 429.36550903
133.71627808 171.39202881 483.53900146
125.87016296 178.39633179 492.09594727
144.91044617 176.91061401 481.97286987
137.03927612 183.52386475 488.96752930
193.63513184 193.03436279 383.11831665
194.26127625 203.92608643 383.62878418
200.21569824 199.84602356 390.61022949
201.99276733 209.03242493 391.62591553
163.50765991 231.94134521 479.61257935
154.11851501 237.67039490 482.19006348
169.75152588 240.48675537 481.75421143
160.72068787 247.37739563 483.98110962
182.46319580 276.78833008 477.51522827
173.28401184 281.44436646 481.02893066
190.34783936 287.71374512 474.03958130
181.98159790 292.24652100 478.02862549
209.58268738 251.76181030 407.41253662
213.35452271 263.11199951 411.14199829
221.84213257 257.00347900 409.73767090
225.14393616 268.52899170 412.95471191
214.28015137 273.71286011 412.66204834
217.13745117 286.12255859 416.18249512
227.85723877 278.84664917 413.99063110
228.60322571 291.43743896 417.41186523
172.58088684 253.68434143 481.52017212
163.14936829 258.78536987 483.96231079
178.38601685 263.77084351 479.05273438
169.47653198 269.25137329 481.62539673
155.64517212 205.74964905 481.55484009
146.42745972 212.28102112 488.03900146
163.88041687 206.59918213 471.46063232
154.52017212 213.45706177 477.18197632
203.50689697 234.83776855 392.60256958
207.31341553 243.46986389 400.24835205
212.69474792 235.91642761 401.84338379
216.85089111 245.31713867 409.19830322
179.23916626 162.42849731 379.75173950
178.61862183 172.84632874 376.06079102
186.78091431 169.45169067 382.67980957
186.90155029 177.84454346 380.11196899
198.14195251 216.53324890 382.68655396
200.29660034 226.76229858 388.52154541
205.47084045 218.84585571 392.81735229
208.18606567 228.78594971 398.49822998
166.56144714 195.53143311 450.36489868
167.13165283 197.49151611 462.40859985
176.36958313 199.51168823 450.11639404
176.58245850 200.81884766 460.81549072
196.70680237 311.57382202 459.71792603
192.02957153 308.34906006 471.17214966
207.37651062 313.53005981 458.17297363
203.28536987 310.11941528 467.94549561
165.52795410 216.00637817 466.21127319
157.53735352 221.35400391 473.64321899
172.98301697 220.59115601 469.17016602
165.50097656 227.43556213 475.31915283
184.14376831 243.63444519 451.50531006
179.65243530 252.16058350 454.37756348
190.41267395 250.94888306 452.00714111
185.70220947 260.19161987 454.37466431
130.29696655 200.43875122 497.08718872
121.35474396 207.22343445 505.39373779
140.30833435 208.01193237 493.29223633
131.70899963 215.31288147 499.76004028
198.63896179 303.87216187 432.44192505
198.01673889 309.54342651 443.35290527
211.73661804 307.87710571 434.62451172
208.76589966 313.37496948 444.98068237
161.10211182 201.81117249 442.28182983
162.58204651 205.23626709 453.25061035
171.51898193 206.05207825 447.58901978
172.60954285 209.43191528 457.96444702
143.52441406 220.49676514 485.24383545
134.16609192 226.71798706 492.07284546
150.47622681 224.54022217 477.70101929
141.06973267 231.76026917 483.24029541
193.33757019 282.03863525 418.64331055
196.10095215 292.74926758 423.75204468
205.51226807 287.51147461 419.12103271
206.59800720 298.58041382 423.99478149
154.80189514 262.72094727 488.15652466
145.75180054 266.49377441 492.66519165
162.16064453 272.82574463 485.45239258
153.77128601 276.67562866 489.74145508
191.14151001 263.88449097 411.11550903
194.51651001 274.19830322 416.14913940
202.45510864 268.59832764 413.44787598
205.48577881 279.15679932 417.61077881
175.36846924 185.47816467 372.80810547
175.44515991 197.02099609 371.05895996
183.78347778 191.28137207 376.64450073
184.06689453 200.88916016 375.61724854
145.21673584 236.31422424 482.41592407
136.03178406 241.81787109 488.07946777
152.13580322 244.95401001 484.06585693
143.34478760 251.99684143 488.36071777
191.67414856 249.71215820 394.33822632
195.00485229 257.32904053 403.53860474
201.33685303 249.59898376 403.41915894
204.92375183 257.83615112 412.18609619
179.72280884 206.88836670 370.19689941
180.56907654 218.70475769 372.94680786
188.48472595 210.87644958 377.69244385
189.26954651 221.11608887 380.57815552
123.34468842 225.26068115 501.64114380
114.31384277 230.99357605 509.04806519
130.88932800 234.28575134 495.44302368
122.67333984 241.44415283 501.18170166
184.84564209 230.81996155 375.94329834
187.16836548 240.38633728 383.21920776
193.83312988 232.18022156 385.76586914
195.87171936 241.85639954 393.06491089
155.72439575 157.42533875 373.49487305
154.55267334 168.03195190 369.23468018
163.75135803 164.25241089 372.88226318
163.07940674 173.49371338 369.55108643
134.74377441 247.40628052 492.09402466
127.67204285 250.95178223 500.36975098
143.01284790 257.48458862 491.35238647
136.43898010 261.66723633 497.38769531
161.76815796 294.44882202 463.04141235
161.38368225 292.49163818 474.30685425
171.85417175 300.19763184 466.67358398
171.51078796 297.25024414 477.16076660
171.41494751 297.86959839 443.47235107
172.87562561 301.26000977 454.70309448
182.70639038 304.17556763 446.52563477
183.08251953 306.84747314 457.53295898
173.27246094 286.46353149 426.66305542
176.05509949 294.93377686 434.43789673
184.20367432 292.33126831 428.12490845
185.86607361 300.78417969 435.50485229
172.21777344 273.23126221 410.19229126
175.15740967 282.10028076 418.16748047
183.11141968 276.51959229 414.93887329
185.44906616 285.40594482 422.11462402
174.18315125 265.85830688 394.52896118
176.49432373 273.17083740 404.56152344
183.56121826 264.63385010 403.70428467
185.47412109 272.42990112 413.25137329
157.26452637 187.92176819 365.86834717
157.57028198 199.91152954 363.78448486
166.68780518 193.51596069 367.00875854
166.95924377 204.00892639 365.76119995
172.52598572 248.31071472 376.53662109
174.92721558 257.08728027 385.15521240
182.71650696 248.70851135 386.01437378
184.37414551 257.69311523 394.48464966
131.39886475 279.32125854 468.99005127
135.87190247 277.99710083 479.52734375
141.70689392 285.51043701 472.27548218
145.47390747 283.62307739 482.53921509
166.30380249 230.05928040 364.97161865
168.09628296 240.80075073 369.35314941
177.59138489 233.34567261 371.73800659
178.88110352 243.24435425 376.73693848
150.85331726 286.11004639 434.93368530
153.29306030 290.83062744 445.50564575
160.82133484 291.58190918 438.63330078
162.79394531 295.59838867 449.09735107
158.73458862 208.26524353 361.84054565
160.10665894 220.28196716 363.18200684
169.42716980 212.60922241 365.56686401
170.42768860 223.08966064 367.35839844
153.66003418 282.70516968 415.13729858
155.89944458 287.69256592 425.96737671
164.04608154 285.51959229 420.88946533
165.72348022 290.10437012 431.62322998
137.60371399 285.29974365 450.01672363
140.93537903 286.29400635 461.08566284
147.65167236 290.51132202 454.23693848
150.60865784 290.58477783 465.23651123
116.33075714 263.46359253 473.92929077
121.83441162 264.18096924 483.48794556
126.17260742 271.97116089 475.28833008
131.01165771 271.81054688 485.11285400
137.98416138 168.20532227 369.80007935
136.93284607 179.64799500 366.02343750
146.22134399 174.54502869 367.06079102
145.44453430 185.00619507 363.91741943
102.09196472 243.34259033 481.26202393
107.78632355 246.15222168 489.60900879
109.91689301 254.24780273 478.44134521
115.10655212 255.96469116 487.29495239
153.22082520 275.16546631 392.97052002
155.48335266 281.54946899 403.61566162
164.24401855 275.87423706 400.77233887
165.75430298 282.25537109 411.32116699
150.97370911 258.76995850 375.60809326
153.44139099 268.16296387 383.92810059
163.62710571 261.97930908 382.62973022
165.28907776 271.28753662 391.15588379
90.01624298 217.76034546 474.84719849
94.49891663 223.56643677 482.60662842
94.51914215 229.02000427 468.98138428
98.89393616 234.50823975 477.45742798
131.86599731 282.51782227 424.64569092
134.97613525 284.08685303 435.86105347
142.01896667 286.69421387 429.19677734
144.59307861 287.47235107 440.95919800
139.23631287 195.80256653 362.32672119
139.64048767 208.00807190 360.96911621
148.96046448 201.05386353 360.87689209
149.46873474 212.01493835 360.29876709
118.79074097 274.21514893 442.33657837
123.00179291 276.04135132 452.61761475
128.12786865 280.86932373 444.73797607
131.82940674 281.89373779 455.69519043
107.99726105 260.59616089 454.72091675
112.93070984 263.52618408 463.81341553
116.34231567 268.94024658 454.75799561
120.87507629 271.22351074 464.68655396
145.28320312 239.76049805 364.44860840
147.72969055 250.64837646 369.07962036
158.75048828 244.19116211 367.68106079
160.65518188 254.66485596 373.02099609
88.44046783 200.24911499 461.08132935
91.33676910 207.97773743 468.72134399
90.54720306 210.39918518 453.27951050
93.28842926 218.13357544 461.60916138
119.94415283 160.32934570 377.99102783
118.08135223 171.31738281 374.69116211
126.88151550 166.81930542 372.42813110
125.22001648 177.37390137 369.23663330
131.94401550 277.47122192 402.41744995
134.84417725 281.71405029 413.53262329
142.85885620 282.06945801 407.27963257
145.05059814 285.92608643 419.08444214
96.61334991 241.13304138 462.06762695
101.53813171 245.23910522 470.30865479
102.69395447 251.18968201 457.33020020
107.17277527 254.57432556 466.38800049
138.43493652 218.43746948 361.18087769
140.26210022 230.15367126 363.10870361
149.54145813 222.96252441 361.22723389
151.17646790 233.56335449 363.66796875
88.84284210 185.58892822 441.92449951
90.07427216 194.83938599 448.95190430
90.04730225 194.34574890 433.40029907
91.10633087 203.78112793 440.93627930
116.04469299 268.91619873 419.44226074
119.55165100 272.86523438 429.64434814
124.75671387 276.26528931 420.74496460
127.90538025 279.51895142 431.86016846
130.03112793 262.64584351 383.90499878
132.96981812 271.71136475 391.93026733
141.71748352 268.74475098 386.49789429
143.97134399 277.79870605 395.25518799
93.10446167 227.20632935 447.73733521
96.34847260 233.81956482 455.59307861
96.65476990 237.08091736 441.30517578
99.59056091 243.58242798 450.17034912
101.32237244 250.65800476 439.43658447
105.33501434 255.36029053 448.38653564
107.94910431 259.65032959 436.70404053
111.45317841 263.83441162 446.62872314
120.49365234 183.52578735 371.80157471
119.56128693 195.33445740 369.59780884
128.64944458 189.46479797 366.71017456
127.87672424 200.66859436 364.92996216
126.59255219 246.54904175 373.16448975
129.18161011 257.21731567 378.08636475
139.09182739 252.52658081 372.45968628
141.67413330 263.00991821 378.26577759
108.84028625 166.39334106 386.64044189
106.78485107 177.30432129 385.69747925
113.82646942 173.16839600 379.32312012
111.83676147 183.81932068 378.51223755
94.14205170 177.47119141 418.03070068
93.28981781 188.13560486 423.03350830
95.44765472 185.57809448 408.66275024
94.42595673 196.10572815 414.11441040
92.17498779 209.61274719 435.03433228
93.73149872 218.37197876 441.84408569
94.05850220 218.87667847 427.17474365
95.42622375 227.72067261 434.83978271
115.70179749 258.48101807 397.59332275
118.25231934 266.87231445 405.31808472
123.93994141 266.59106445 396.13314819
126.41629028 274.69146729 404.97134399
105.89654541 250.66763306 415.25433350
108.42491150 257.88385010 423.39712524
111.59283447 259.60217285 411.97131348
114.07400513 266.36373901 421.19863892
94.13500977 197.93699646 421.63494873
94.52275848 207.80387878 427.52197266
95.73925781 206.47372437 413.01828003
96.04747772 216.21925354 419.72399902
119.10040283 207.98110962 368.94766235
119.90370178 219.93232727 368.78680420
128.34170532 213.53869629 364.30029297
129.36172485 224.73092651 364.86349487
120.44067383 227.72067261 370.79119873
122.51634216 239.28276062 373.36193848
130.68801880 233.49786377 367.31408691
132.91491699 244.30868530 370.65826416
97.73065186 229.18278503 424.02560425
99.74371338 237.38336182 431.29379272
101.03726959 238.69906616 418.06924438
102.90296936 246.91699219 426.40658569
100.10707092 178.19935608 399.26397705
98.47134399 189.49562073 401.09271240
102.70840454 186.00405884 390.22158813
101.26626587 197.07685852 392.60833740
112.47752380 241.66375732 387.26556396
114.52767181 252.32817078 391.17126465
120.44067383 249.32110596 382.59506226
122.73643494 259.68499756 387.74234009
107.54263306 189.64395142 381.06948853
106.42774963 201.05194092 380.77584839
113.20521545 196.13775635 373.90667725
112.18147278 207.16047668 374.05447388
98.33047485 215.63073730 411.51187134
98.93559265 225.60549927 416.74581909
100.73771667 224.66159058 403.78903198
101.46035004 234.44371033 410.15570068
104.95045471 234.72111511 400.92547607
106.31553650 244.76138306 405.89938354
109.53547668 243.09313965 394.60986328
111.18252563 252.67298889 400.91101074
99.87121582 200.70759583 401.37719727
99.43730164 211.81892395 404.45748901
102.36730957 209.00450134 392.76245117
102.30735779 219.78063965 396.87527466
106.21536255 201.74591064 384.57296753
105.77133179 213.09996033 385.85256958
111.49555969 208.64425659 377.34954834
111.27426147 219.57450867 379.38186646
104.83969116 211.74717712 385.88626099
105.02342224 223.02801514 387.34887695
110.20886230 218.95759583 378.33969116
110.92727661 229.96488953 380.91525269
93.07926941 150.84115601 487.89550781
93.08079529 150.84674072 487.89318848
93.06977844 150.83190918 487.88922119
93.07583618 150.84114075 487.88476562
163.24494934 184.44775391 366.52288818
163.24041748 184.45045471 366.51205444
163.24053955 184.44499207 366.53051758
163.24438477 184.44386292 366.52203369
98.08455658 220.27735901 424.01882935
98.08910370 220.28282166 424.01321411
98.07048035 220.27178955 424.01730347
98.07787323 220.27902222 424.01293945
133.30329895 107.41075897 415.43057251
133.30110168 107.40924072 415.41857910
133.29718018 107.40027618 415.44274902
133.29266357 107.40042877 415.42919922
169.96508789 164.27754211 454.65026855
169.97294617 164.27601624 454.65124512
169.96574402 164.28375244 454.65750122
169.98223877 164.28584290 454.65512085
105.45882416 162.96109009 393.65225220
105.46157074 162.96365356 393.63977051
105.45216370 162.96435547 393.65301514
105.45678711 162.96266174 393.64419556
187.72503662 132.06878662 402.34106445
187.71878052 132.06909180 402.33679199
187.71697998 132.05990601 402.33703613
187.71807861 132.06010437 402.32708740
85.21096802 173.37457275 441.22198486
85.21614075 173.37664795 441.21206665
85.20172882 173.37443542 441.21688843
85.20802307 173.37705994 441.20974731
114.33760071 209.12117004 374.00051880
114.34481812 209.12515259 373.98901367
114.33088684 209.11614990 374.00543213
114.34052277 209.11679077 374.00027466
146.51632690 134.97698975 375.40368652
146.51661682 134.97631836 375.39587402
146.51380920 134.97665405 375.40917969
146.51483154 134.97462463 375.40292358
118.21496582 139.74859619 448.29879761
118.21766663 139.74847412 448.28546143
118.21333313 139.74133301 448.29867554
118.21667480 139.74581909 448.28381348
131.35931396 175.50019836 479.84875488
131.36549377 175.49771118 479.85540771
131.36039734 175.49647522 479.85089111
131.37310791 175.50167847 479.85311890
152.92283630 138.09365845 427.33132935
152.91577148 138.10180664 427.31829834
152.91662598 138.10479736 427.32980347
152.91427612 138.11134338 427.31213379
91.85164642 204.28570557 459.99111938
91.85968781 204.28829956 459.99005127
91.84562683 204.28019714 460.00122070
91.85860443 204.28735352 460.00012207
127.54945374 176.05245972 368.97900391
127.54992676 176.05679321 368.96966553
127.54471588 176.05148315 368.97872925
127.54819489 176.05352783 368.97253418
104.05038452 131.42944336 417.38220215
104.05429077 131.43110657 417.36981201
104.05280304 131.42697144 417.38195801
104.05360413 131.42987061 417.37246704
174.19589233 150.75607300 376.93621826
174.19348145 150.75628662 376.93078613
174.18733215 150.75610352 376.93771362
174.19056702 150.75460815 376.93173218
100.24522400 195.57917786 399.19696045
100.25213623 195.58168030 399.18704224
100.23764038 195.57466125 399.19476318
100.24368286 195.57510376 399.18743896
118.50384521 132.74304199 389.45989990
118.50935364 132.74407959 389.45037842
118.50633240 132.73896790 389.46704102
118.50862122 132.73904419 389.46020508
161.22688293 115.38465118 400.84146118
161.22401428 115.38470459 400.83428955
161.21871948 115.38059998 400.84365845
161.21784973 115.38097382 400.83258057
182.95281982 150.86839294 430.02975464
182.95227051 150.87100220 430.02044678
182.94555664 150.86892700 430.03277588
182.95034790 150.87155151 430.01867676
90.81893921 144.16885376 458.47424316
90.82041931 144.17285156 458.46777344
90.81365204 144.16795349 458.47167969
90.81776428 144.17153931 458.46478271
141.97412109 156.47904968 451.44387817
141.97709656 156.47749329 451.44171143
141.97044373 156.48353577 451.43875122
141.98065186 156.48652649 451.43154907
85.76224518 179.98753357 473.58309937
85.77180481 179.99047852 473.58322144
85.75831604 179.98085022 473.58773804
85.77125549 179.98669434 473.58657837
94.12206268 173.06567383 415.55374146
94.12664032 173.06668091 415.53985596
94.11522675 173.06130981 415.55517578
94.11996460 173.06091309 415.54589844
136.32408142 199.22666931 361.48745728
136.32493591 199.23388672 361.47277832
136.31668091 199.22587585 361.48748779
136.32357788 199.22850037 361.47833252
91.77414703 148.32746887 433.02328491
91.77600861 148.33081055 433.01470947
91.76907349 148.32888794 433.01989746
91.77138519 148.33061218 433.01358032
102.30152893 221.63763428 398.61471558
102.31221008 221.64210510 398.60168457
102.29238892 221.62896729 398.61413574
102.30479431 221.63229370 398.60586548
148.83236694 162.65899658 367.89483643
148.82910156 162.66174316 367.88528442
148.82723999 162.65829468 367.89828491
148.82688904 162.66082764 367.89013672
111.50114441 151.49868774 470.78536987
111.50207520 151.50720215 470.78042603
111.49275208 151.50146484 470.78558350
111.49806976 151.51229858 470.77688599
92.18093872 198.82543945 436.11285400
92.18537903 198.82945251 436.10250854
92.17067719 198.82272339 436.11532593
92.17684937 198.82896423 436.10675049
127.18813324 126.88833618 430.00225830
127.18756104 126.89308167 429.98898315
127.18486786 126.89188385 430.00457764
127.18713379 126.89495087 429.99114990
139.71720886 116.13446808 388.44195557
139.71926880 116.13608551 388.43429565
139.71513367 116.13243866 388.45394897
139.71632385 116.13224030 388.44610596
125.07389832 153.52629089 374.96807861
125.07704163 153.52743530 374.96063232
125.06996155 153.52534485 374.96954346
125.07456970 153.52513123 374.96615601
167.59231567 128.27749634 382.64382935
167.59077454 128.27775574 382.63754272
167.58787537 128.27374268 382.65374756
167.58918762 128.27247620 382.64599609
109.81823730 181.54946899 381.48745728
109.82183075 181.55183411 381.47644043
109.80816650 181.54803467 381.48617554
109.81269836 181.54695129 381.48031616
151.35307312 170.96420288 471.10314941
151.36314392 170.96463013 471.10888672
151.35055542 170.97267151 471.11303711
151.36959839 170.97741699 471.11511230
170.45140076 130.62464905 415.10824585
170.44500732 130.63131714 415.09536743
170.44502258 130.63169861 415.11404419
170.44435120 130.63357544 415.09744263
98.29109955 150.02485657 408.88928223
98.29244995 150.02621460 408.87811279
98.28260040 150.02760315 408.89035034
98.28460693 150.02661133 408.88345337
99.30515289 129.87731934 439.74075317
99.30319214 129.88322449 439.72845459
99.29687500 129.87445068 439.74176025
99.29556274 129.87863159 439.72964478
164.08567810 152.27722168 437.48046875
164.07870483 152.27645874 437.47418213
164.07847595 152.27174377 437.47601318
164.08045959 152.27548218 437.46350098
113.24530792 166.43000793 484.25952148
113.24639130 166.43817139 484.25936890
113.23692322 166.43464661 484.25469971
113.24330139 166.44839478 484.25106812
119.07049561 120.13865662 403.48712158
119.07530212 120.13929749 403.47915649
119.06939697 120.13633728 403.49334717
119.07061768 120.13659668 403.48739624
130.39793396 162.30972290 466.85412598
130.40432739 162.30685425 466.85421753
130.39407349 162.31192017 466.85113525
130.40437317 162.31677246 466.84695435
86.23104095 161.64398193 460.25134277
86.23724365 161.64649963 460.24426270
86.22360992 161.64758301 460.25073242
86.23114777 161.65043640 460.24517822
153.63430786 123.38160706 414.63641357
153.63464355 123.38411713 414.62417603
153.62474060 123.38809967 414.64581299
153.62887573 123.38905334 414.62988281
104.08176422 132.87301636 456.62384033
104.07993317 132.88058472 456.61599731
104.07588196 132.87057495 456.62554932
104.07545471 132.87751770 456.61578369
166.89332581 168.05789185 371.47473145
166.88616943 168.06010437 371.46539307
166.88325500 168.05938721 371.47824097
166.88235474 168.06207275 371.46905518
95.60441589 199.75019836 415.51104736
95.60926819 199.75456238 415.50238037
95.59313965 199.74865723 415.51428223
95.59881592 199.75271606 415.50634766
144.13696289 180.24113464 366.02264404
144.13519287 180.24630737 366.01095581
144.13085938 180.24131775 366.02194214
144.13352966 180.24517822 366.01242065
138.74583435 141.03715515 436.62731934
138.74053955 141.04534912 436.61602783
138.73966980 141.04705811 436.62710571
138.73916626 141.05322266 436.61282349
112.47846222 118.03250122 429.09185791
112.48094940 118.03577423 429.07992554
112.47352600 118.03836823 429.09341431
112.47431946 118.03966522 429.08209229
122.81282043 194.69535828 371.15655518
122.81442261 194.70074463 371.14776611
122.80564880 194.69638062 371.15966797
122.81132507 194.70085144 371.15499878
100.18412018 178.83802795 398.79077148
100.18907928 178.84101868 398.77938843
100.17781067 178.83599854 398.79547119
100.18373871 178.83624268 398.78771973
94.74423218 214.60368347 439.96188354
94.74855804 214.60908508 439.95681763
94.73531342 214.59783936 439.96798706
94.74322510 214.60607910 439.96331787
184.34989929 136.92597961 387.09274292
184.34696960 136.92878723 387.08618164
184.34121704 136.92169189 387.09204102
184.34527588 136.92288208 387.08288574
188.71313477 141.91433716 417.73107910
188.71282959 141.91699219 417.71868896
188.70684814 141.91262817 417.74246216
188.71371460 141.91313171 417.72619629
132.30622864 128.82989502 380.17047119
132.30998230 128.83032227 380.16189575
132.30776978 128.82655334 380.17706299
132.30963135 128.82531738 380.17153931
86.69270325 183.75161743 453.36776733
86.69772339 183.75465393 453.35943604
86.68538666 183.74980164 453.37240601
86.69377136 183.75361633 453.36590576
99.15988159 142.00430298 474.57604980
99.16140747 142.01013184 474.57238770
99.15061951 142.00341797 474.56838989
99.15611267 142.01144409 474.56259155
147.46450806 108.20202637 404.28332520
147.46223450 108.20274353 404.27423096
147.45889282 108.19695282 404.29296875
147.45614624 108.19717407 404.28186035
105.59576416 208.98609924 389.94137573
105.60498047 208.98931885 389.93194580
105.58625031 208.98284912 389.94140625
105.59535217 208.98362732 389.93627930
108.99319458 136.57473755 401.25631714
108.99873352 136.57649231 401.24450684
108.99140930 136.57464600 401.25561523
108.99444580 136.57638550 401.24780273
125.89199066 151.56205750 454.68850708
125.89375305 151.56207275 454.68127441
125.88778687 151.56451416 454.68603516
125.89427185 151.56954956 454.67590332
87.67203522 157.07751465 445.08706665
87.67659760 157.08087158 445.07995605
87.66761780 157.07955933 445.08917236
87.67245483 157.08219910 445.08309937
160.45861816 141.22238159 374.54629517
160.45779419 141.22193909 374.53939819
160.45497131 141.22200012 374.55010986
160.45692444 141.22103882 374.54357910
89.05207062 162.09706116 427.28155518
89.05612183 162.09947205 427.26904297
89.04576874 162.10040283 427.28048706
89.05039215 162.10165405 427.27203369
112.23435211 164.69862366 380.28259277
112.23838806 164.70285034 380.27175903
112.23318481 164.69746399 380.28344727
112.23761749 164.70066833 380.27679443
137.64537048 121.20304871 420.85174561
137.64454651 121.20685577 420.83999634
137.63978577 121.20626068 420.86447144
137.64038086 121.20709991 420.85009766
91.07461548 185.79090881 428.89916992
91.08149719 185.79354858 428.88729858
91.06497192 185.79052734 428.89642334
91.07232666 185.79223633 428.88781738
114.13660431 127.83068848 440.60552979
114.13679504 127.83739471 440.59545898
114.13046265 127.83298492 440.60961914
114.13172150 127.83816528 440.59713745
85.90699005 166.38916016 479.26263428
85.91236877 166.39538574 479.26104736
85.90213776 166.38801575 479.25827026
85.91130066 166.39665222 479.25579834
172.05125427 142.42210388 425.37689209
172.04611206 142.42651367 425.36544800
172.04046631 142.42799377 425.37500000
172.04315186 142.43107605 425.35919189
139.97337341 151.86257935 371.37332153
139.97599792 151.86393738 371.36328125
139.97064209 151.86036682 371.37521362
139.97465515 151.86010742 371.36828613
154.04516602 115.33238983 387.81323242
154.04533386 115.33142090 387.80718994
154.04296875 115.32612610 387.82492065
154.04287720 115.32494354 387.81692505
178.44418335 125.18067169 393.83401489
178.44029236 125.18115997 393.82916260
178.43751526 125.17505646 393.83444214
178.43806458 125.17544556 393.82598877
100.68440247 209.34959412 405.79727173
100.69389343 209.35253906 405.78793335
100.67367554 209.34652710 405.79757690
100.68152618 209.35049438 405.79104614
155.91026306 158.53019714 448.84573364
155.90759277 158.52893066 448.84103394
155.90351868 158.53004456 448.83972168
155.90988159 158.53482056 448.83001709
133.53414917 109.60729980 401.32077026
133.53662109 109.60898590 401.30758667
133.53082275 109.60037994 401.33029175
133.53019714 109.60299683 401.31762695
88.46409607 151.10676575 473.69845581
88.46849823 151.11187744 473.69412231
88.45456696 151.10876465 473.69442749
88.46162415 151.11557007 473.68920898
150.69271851 148.72476196 438.44772339
150.69085693 148.72383118 438.43765259
150.68780518 148.72103882 438.44015503
150.69300842 148.72427368 438.42581177
88.25444031 191.97868347 467.27059937
88.26347351 191.98211670 467.26785278
88.24884796 191.97387695 467.27368164
88.26222229 191.98101807 467.27130127
114.00254822 145.66900635 388.54229736
114.00957489 145.66986084 388.53289795
114.00305176 145.66613770 388.54260254
114.00796509 145.66723633 388.53726196
113.71496582 194.22998047 381.19000244
113.71824646 194.23214722 381.18200684
113.70291138 194.22799683 381.18853760
113.70838928 194.22824097 381.18411255
124.02337646 207.30099487 365.28723145
124.03001404 207.30688477 365.27160645
124.02233887 207.29235840 365.28787231
124.03233337 207.29423523 365.28027344
98.55391693 165.47018433 404.50878906
98.55736542 165.47129822 404.49746704
98.54798126 165.46971130 404.50808716
98.55158234 165.46887207 404.50003052
176.11096191 156.62855530 440.16192627
176.11637878 156.62799072 440.15637207
176.10678101 156.63226318 440.16278076
176.11726379 156.63235474 440.15341187
160.23368835 166.92079163 462.79742432
160.23725891 166.92108154 462.80145264
160.23310852 166.92588806 462.80654907
160.24703979 166.93016052 462.80615234
157.45875549 153.02011108 370.60928345
157.45881653 153.02066040 370.60162354
157.45324707 153.01707458 370.61175537
157.45811462 153.01692200 370.60513306
148.02842712 163.89262390 461.05859375
148.02949524 163.88995361 461.06063843
148.02479553 163.89451599 461.05416870
148.03376770 163.89823914 461.05056763
95.43651581 208.93031311 428.91900635
95.44061279 208.93466187 428.91262817
95.42874146 208.92842102 428.92285156
95.43496704 208.93515015 428.91723633
133.89579773 165.66027832 368.25030518
133.90040588 165.66169739 368.24127197
133.89215088 165.65771484 368.24694824
133.89805603 165.65696716 368.24240112
121.84038544 111.12735748 416.37765503
121.84079742 111.12741089 416.36553955
121.83212280 111.11743927 416.38732910
121.82853699 111.11928558 416.37493896
119.59767914 162.71170044 474.77984619
119.60147858 162.71002197 474.77725220
119.59683228 162.70887756 474.78009033
119.60438538 162.71511841 474.77404785
127.49654388 139.94483948 440.43237305
127.49645233 139.95205688 440.42053223
127.49104309 139.95275879 440.42993164
127.49385071 139.95951843 440.41540527
85.37204742 173.38676453 462.05178833
85.37933350 173.38951111 462.04528809
85.36395264 173.38507080 462.05197144
85.37319946 173.39089966 462.04663086
126.73198700 118.97016907 394.48025513
126.73724365 118.96737671 394.47052002
126.73608398 118.96494293 394.48565674
126.73741150 118.96267700 394.47933960
97.91913605 135.54151917 429.40710449
97.92036438 135.54603577 429.39434814
97.91107178 135.55014038 429.40710449
97.91235352 135.55181885 429.39712524
92.26701355 203.89311218 448.15075684
92.27202606 203.89739990 448.14428711
92.25843811 203.89031982 448.15692139
92.26737213 203.89738464 448.15093994
108.06738281 142.11929321 462.60830688
108.06779480 142.12702942 462.60128784
108.06089020 142.12069702 462.60995483
108.06431580 142.12982178 462.60025024
156.06004333 171.72003174 367.26147461
156.05406189 171.72460938 367.25067139
156.05192566 171.72242737 367.26434326
156.05213928 171.72566223 367.25524902
95.42311096 135.77087402 449.85290527
95.42351532 135.77644348 449.84295654
95.41532135 135.77005005 449.85098267
95.41650391 135.77365112 449.84060669
87.92694092 189.30715942 443.66812134
87.93354034 189.30940247 443.65567017
87.91867828 189.30511475 443.67004395
87.92759705 189.30783081 443.66113281
121.51239014 143.07498169 380.64666748
121.51840210 143.07484436 380.63638306
121.51216888 143.07197571 380.64883423
121.51605225 143.07180786 380.64251709
145.47618103 122.52636719 381.41363525
145.47659302 122.52739716 381.40490723
145.47314453 122.52462769 381.42355347
145.47421265 122.52471161 381.41497803
103.21177673 151.27474976 399.00946045
103.21677399 151.27798462 398.99917603
103.20932007 151.27304077 399.00808716
103.21369934 151.27661133 399.00170898
108.67807007 156.91761780 480.03887939
108.67923737 156.92550659 480.03509521
108.66764069 156.91915894 480.03466797
108.67446899 156.93162537 480.02728271
131.98731995 186.14007568 367.80010986
131.98680115 186.14505005 367.79165649
131.98185730 186.13998413 367.80404663
131.98495483 186.14405823 367.79788208
93.30484772 157.52645874 415.18896484
93.30770111 157.52821350 415.17547607
93.30223846 157.52700806 415.18960571
93.30529022 157.52688599 415.17929077
143.12484741 112.43196106 413.35482788
143.12373352 112.43158722 413.34573364
143.11618042 112.42372894 413.36325073
143.11407471 112.42409515 413.35153198
134.64251709 142.78446960 374.18347168
134.64576721 142.78451538 374.17404175
134.64186096 142.77690125 374.18420410
134.64544678 142.77532959 374.17895508
158.23190308 131.77856445 419.43557739
158.22749329 131.78396606 419.42218018
158.22055054 131.78430176 419.44042969
158.22158813 131.78701782 419.42349243
136.47543335 131.84701538 428.31942749
136.47279358 131.85430908 428.30615234
136.47547913 131.85258484 428.32064819
136.47557068 131.85681152 428.30514526
111.43953705 156.68701172 387.47518921
111.44441223 156.68969727 387.46423340
111.43942261 156.68659973 387.47604370
111.44362640 156.68963623 387.46905518
118.52403259 185.97155762 375.42913818
118.52434540 185.97579956 375.42050171
118.51480103 185.97105408 375.42968750
118.51744080 185.97094727 375.42462158
170.20497131 138.78945923 377.99166870
170.20278931 138.78971863 377.98623657
170.19973755 138.78848267 377.99664307
170.20162964 138.78674316 377.99072266
179.50563049 128.91679382 408.22143555
179.50457764 128.92121887 408.21011353
179.49374390 128.92507935 408.22991943
179.49971008 128.92568970 408.21441650
96.04747009 147.86996460 418.95486450
96.04895782 147.87283325 418.94070435
96.04490662 147.87579346 418.95443726
96.04728699 147.87625122 418.94387817
90.57450104 146.67329407 448.26788330
90.57889557 146.67642212 448.25988770
90.57159424 146.67639160 448.26489258
90.57589722 146.67965698 448.25704956
137.53518677 168.49374390 471.24865723
137.53958130 168.49157715 471.25332642
137.53439331 168.49160767 471.24908447
137.54548645 168.49610901 471.24862671
96.28255463 181.68608093 410.32553101
96.28830719 181.68669128 410.31646729
96.27548218 181.68476868 410.32617188
96.28099823 181.68548584 410.32037354
119.98596191 166.50321960 373.79199219
119.99240875 166.50517273 373.78189087
119.98196411 166.49649048 373.79428101
119.98997498 166.49682617 373.79010010
113.84072876 119.75572205 412.31140137
113.84310150 119.75738525 412.29556274
113.83781433 119.75047302 412.31805420
113.83555603 119.75339508 412.30523682
104.87157440 125.24985504 425.47402954
104.87415314 125.25242615 425.45904541
104.86689758 125.24346924 425.47463989
104.86579895 125.24816895 425.46160889
145.67053223 131.73403931 424.00665283
145.66691589 131.74008179 423.99362183
145.66729736 131.74026489 424.00680542
145.66690063 131.74365234 423.99044800
158.19326782 128.97158813 378.94714355
158.19349670 128.97286987 378.93994141
158.18904114 128.97134399 378.95297241
158.19117737 128.97091675 378.94555664
105.45231628 171.61796570 388.40444946
105.45666504 171.62089539 388.38970947
105.44538116 171.61955261 388.40969849
105.45176697 171.61978149 388.40164185
131.62522888 148.77325439 446.89620972
131.62792969 148.77311707 446.88644409
131.62118530 148.77331543 446.89587402
131.62780762 148.77780151 446.88253784
89.08839417 175.94761658 428.91235352
89.09506989 175.94841003 428.90093994
89.08433533 175.94720459 428.91064453
89.09228516 175.94750977 428.90310669
148.36131287 188.77748108 363.04003906
148.35884094 188.78517151 363.02465820
148.34793091 188.77542114 363.04370117
148.35186768 188.77775574 363.03161621
166.67436218 118.78091431 393.40814209
166.67425537 118.78169250 393.40301514
166.66883850 118.77822876 393.41137695
166.67074585 118.77697754 393.40249634
178.66870117 159.46641541 377.66238403
178.66531372 159.46499634 377.65695190
178.66183472 159.46691895 377.67065430
178.66584778 159.46592712 377.66448975
135.97927856 159.40774536 459.32391357
135.98425293 159.40489197 459.32437134
135.98008728 159.41128540 459.32061768
135.99052429 159.41380310 459.31689453
105.94445801 128.40679932 448.11108398
105.94377136 128.41351318 448.10061646
105.94288635 128.40444946 448.11169434
105.94322205 128.40963745 448.09988403
105.44874573 196.46788025 391.07800293
105.45425415 196.47102356 391.06842041
105.44332886 196.46437073 391.07904053
105.45037079 196.46565247 391.07391357
121.24373627 114.59447479 425.31506348
121.24135590 114.59881592 425.30270386
121.23583221 114.59789276 425.31372070
121.23463440 114.59873199 425.30261230
160.57829285 143.13926697 429.84100342
160.57452393 143.14416504 429.82962036
160.57266235 143.14807129 429.84167480
160.57273865 143.15249634 429.82604980
146.89390564 145.41038513 371.89208984
146.89482117 145.41134644 371.88391113
146.89031982 145.40603638 371.89440918
146.89292908 145.40422058 371.88796997
97.78781128 190.60528564 406.75222778
97.79386139 190.60859680 406.74276733
97.78121948 190.60292053 406.75289917
97.78748322 190.60655212 406.74658203
121.86059570 169.82385254 480.43127441
121.86649323 169.82202148 480.43383789
121.86376953 169.81936646 480.43255615
121.87445068 169.82456970 480.43176270
155.78987122 116.65560150 408.32946777
155.78529358 116.65504456 408.32125854
155.78010559 116.64778900 408.33389282
155.77719116 116.64907837 408.32141113
126.59805298 109.89893341 408.48864746
126.59892273 109.90058899 408.47387695
126.59362793 109.89328003 408.49914551
126.59123230 109.89633179 408.48431396
162.24700928 124.36222076 411.42297363
162.24443054 124.36721802 411.41159058
162.23780823 124.36744690 411.43127441
162.24078369 124.36809540 411.41680908
102.71948242 142.00747681 408.60870361
102.72360229 142.01011658 408.59658813
102.71495056 142.00695801 408.60720825
102.71797180 142.01022339 408.59875488
85.67453003 163.21551514 469.25619507
85.67996216 163.21997070 469.25006104
85.66547394 163.21536255 469.25515747
85.67415619 163.22137451 469.25036621
99.62932587 148.48229980 482.12832642
99.63189697 148.48948669 482.12335205
99.61771393 148.47988892 482.12579346
99.62458801 148.49012756 482.11953735
87.02936554 157.48243713 479.96313477
87.03112793 157.48809814 479.95846558
87.02214050 157.47671509 479.95956421
87.02957153 157.48410034 479.95446777
170.49411011 158.70877075 373.98171997
170.49230957 158.70919800 373.97436523
170.48521423 158.71180725 373.98547363
170.48880005 158.71202087 373.97827148
105.79444122 186.72836304 387.56982422
105.79931641 186.73002625 387.55902100
105.78950500 186.72274780 387.57199097
105.79431152 186.72251892 387.56512451
184.34524536 145.06881714 383.53363037
184.34405518 145.06889343 383.52786255
184.33697510 145.06591797 383.53784180
184.34265137 145.06515503 383.53103638
119.86946869 122.40672302 432.28421021
119.86893463 122.41249847 432.27316284
119.86041260 122.41357422 432.28491211
119.86180878 122.41667938 432.27261353
84.91619110 167.66931152 453.87680054
84.92315674 167.67179871 453.87002563
84.91020203 167.66979980 453.87438965
84.91867828 167.67358398 453.86996460
154.67094421 182.55519104 365.38977051
154.66557312 182.56109619 365.37634277
154.66416931 182.55393982 365.38873291
154.66667175 182.55549622 365.37918091
145.35781860 109.61277008 395.82757568
145.35969543 109.61318970 395.82199097
145.35467529 109.60590363 395.84027100
145.35427856 109.60562134 395.83245850
165.39877319 150.41911316 373.19171143
165.39762878 150.41915894 373.18292236
165.39065552 150.41737366 373.19415283
165.39556885 150.41612244 373.18627930
87.40856934 165.07476807 435.33395386
87.41455841 165.07846069 435.32415771
87.40274811 165.08142090 435.33120728
87.40920258 165.08358765 435.32379150
99.31597900 212.95137024 413.56744385
99.32418823 212.95611572 413.56228638
99.30471802 212.94841003 413.56900024
99.31336975 212.95419312 413.56427002
165.84861755 135.50653076 421.11703491
165.84062195 135.51306152 421.10452271
165.84095764 135.51013184 421.11779785
165.83944702 135.51473999 421.10131836
167.83146667 120.44765472 403.18676758
167.82495117 120.44800568 403.18048096
167.82287598 120.44294739 403.18966675
167.82064819 120.44407654 403.17828369
122.59016418 158.63577271 467.11920166
122.59474182 158.63470459 467.11434937
122.59072876 158.63485718 467.11624146
122.59848022 158.64038086 467.10797119
154.89024353 121.68023682 382.04556274
154.89274597 121.68219757 382.03695679
154.88981628 121.67522430 382.05737305
154.89341736 121.67456055 382.04885864
88.44342041 192.13751221 453.23999023
88.44876862 192.14173889 453.23126221
88.43715668 192.13558960 453.24264526
88.44634247 192.14111328 453.23513794
144.82960510 120.28821564 416.34060669
144.82714844 120.29321289 416.32873535
144.82415771 120.29099274 416.34848022
144.82524109 120.29207611 416.33386230
168.80548096 176.21716309 370.06286621
168.79940796 176.22006226 370.05377197
168.79713440 176.22100830 370.06500244
168.79820251 176.22377014 370.05688477
111.15502930 129.35784912 405.15243530
111.15905762 129.36058044 405.13937378
111.15490723 129.35577393 405.15481567
111.15598297 129.35905457 405.14480591
122.41828918 133.48150635 438.63546753
122.41711426 133.48794556 438.62237549
122.40901184 133.48698425 438.63299561
122.41163635 133.49237061 438.61691284
118.71813965 150.82077026 380.91421509
118.72413635 150.82208252 380.90689087
118.71995544 150.81994629 380.91961670
118.72566223 150.81997681 380.91561890
126.97499084 137.20147705 378.78012085
126.98038483 137.20242310 378.76986694
126.97789001 137.19740295 378.78112793
126.98220825 137.19674683 378.77526855
96.68321991 209.88531494 420.66735840
96.69083405 209.88903809 420.65899658
96.66931152 209.88528442 420.66680908
96.67738342 209.89010620 420.66018677
117.14234924 126.25354004 398.42120361
117.14863586 126.25382996 398.40988159
117.14118195 126.24762726 398.42520142
117.14421082 126.24767303 398.41812134
94.25527954 138.89300537 463.55947876
94.25584412 138.89773560 463.55166626
94.24877167 138.89274597 463.55517578
94.25012970 138.89770508 463.54568481
112.72315979 133.79299927 448.12280273
112.72134399 133.80014038 448.11322021
112.72229004 133.79473877 448.12652588
112.72158051 133.80139160 448.11416626
120.55383301 152.81462097 460.55694580
120.55682373 152.81343079 460.54904175
120.54998779 152.81224060 460.55563354
120.55638123 152.81765747 460.54495239
87.74932098 156.33815002 453.07772827
87.75286102 156.34115601 453.07012939
87.73867035 156.34463501 453.07626343
87.74453735 156.34802246 453.06979370
127.18620300 199.94180298 365.64642334
127.18833923 199.94831848 365.63510132
127.18010712 199.93962097 365.64916992
127.18558502 199.94151306 365.64276123
93.64969635 185.41070557 421.32882690
93.65542603 185.41323853 421.31680298
93.64085388 185.40977478 421.32333374
93.64829254 185.41238403 421.31430054
181.58422852 141.44104004 421.31884766
181.58110046 141.44604492 421.30688477
181.57627869 141.44416809 421.32632446
181.57864380 141.44580078 421.31018066
127.80290222 119.15740204 425.20574951
127.80044556 119.16230774 425.19213867
127.79486084 119.16263580 425.20840454
127.79460144 119.16547394 425.19433594
188.32000732 135.06849670 409.69152832
188.31651306 135.07360840 409.68222046
188.31604004 135.07092285 409.70303345
188.31944275 135.07241821 409.68984985
175.59695435 135.73110962 418.36596680
175.59547424 135.73480225 418.35449219
175.58750916 135.73826599 418.37411499
175.59173584 135.74008179 418.35934448
131.10762024 121.09074402 388.19735718
131.11126709 121.09040070 388.18829346
131.11120605 121.08744049 388.20706177
131.11247253 121.08729553 388.20040894
134.47528076 154.46357727 453.10305786
134.47966003 154.46224976 453.09942627
134.47012329 154.46734619 453.10037231
134.47875977 154.47087097 453.09298706
93.13548279 142.13058472 442.27789307
93.13714600 142.13461304 442.26889038
93.12834167 142.13496399 442.27331543
93.13155365 142.13772583 442.26541138
89.23460388 154.03181458 437.97763062
89.23857880 154.03471375 437.96801758
89.22679138 154.03588867 437.97644043
89.23079681 154.03839111 437.96951294
148.22261047 171.45336914 366.56011963
148.21788025 171.45826721 366.54864502
148.21664429 171.45655823 366.56234741
148.21653748 171.46051025 366.55291748
93.79872894 201.53318787 426.89385986
93.80226135 201.53729248 426.88604736
93.78626251 201.53173828 426.89523315
93.79091644 201.53688049 426.88873291
102.34899902 159.67732239 400.06024170
102.35242462 159.67872620 400.04953003
102.34214783 159.67971802 400.06289673
102.34513855 159.67782593 400.05599976
112.84303284 139.96272278 453.92150879
112.84245300 139.97113037 453.91317749
112.83662415 139.96337891 453.92718506
112.83811951 139.97238159 453.91543579
93.41041565 207.19816589 437.99301147
93.41384125 207.20397949 437.98120117
93.40064240 207.19445801 437.99932861
93.40793610 207.20130920 437.98907471
85.27358246 166.41247559 444.70916748
85.27825165 166.41474915 444.70108032
85.26616669 166.41616821 444.70526123
85.27190399 166.41798401 444.69839478
97.81115723 139.39718628 422.64956665
97.81256866 139.40112305 422.63668823
97.80567932 139.40646362 422.65093994
97.80780029 139.40911865 422.64120483
174.48190308 147.82569885 430.36517334
174.47624207 147.83099365 430.35595703
174.47151184 147.83509827 430.36306763
174.47244263 147.84017944 430.34863281
124.11381531 127.57915497 388.23968506
124.11782837 127.57983398 388.23107910
124.11566162 127.57672882 388.24700928
124.11784363 127.57698822 388.24142456
108.96792603 210.24945068 383.16381836
108.97650909 210.25242615 383.15502930
108.96191406 210.24362183 383.17114258
108.97020721 210.24453735 383.16616821
119.96940613 174.01734924 372.32247925
119.97094727 174.02111816 372.31188965
119.96092224 174.01260376 372.32403564
119.96499634 174.01548767 372.31744385
110.06014252 120.14520264 422.17010498
110.06333160 120.14723206 422.15515137
110.05028534 120.14872742 422.16827393
110.05274963 120.14932251 422.15509033
114.04815674 132.96812439 396.59997559
114.05445099 132.96905518 396.59039307
114.05081940 132.96362305 396.60742188
114.05435181 132.96395874 396.60061646
119.69049835 158.56665039 376.81701660
119.69646454 158.56744385 376.80798340
119.68834686 158.56057739 376.81661987
119.69497681 158.56062317 376.81240845
86.32245636 178.44413757 435.67355347
86.32778168 178.44677734 435.66070557
86.31781006 178.44209290 435.67391968
86.32342529 178.44425964 435.66561890
101.72308350 169.71221924 399.06304932
101.72795105 169.71401978 399.04946899
101.71803284 169.71223450 399.06445312
101.72236633 169.71148682 399.05548096
85.02078247 176.75328064 448.01788330
85.02804565 176.75550842 448.00921631
85.01271820 176.75463867 448.01403809
85.02191925 176.75703430 448.00817871
180.87638855 151.43325806 380.43188477
180.87358093 151.43115234 380.42861938
180.86979675 151.43072510 380.43762207
180.87297058 151.42840576 380.43228149
95.26937103 190.66227722 413.88815308
95.27516937 190.66514587 413.87832642
95.26063538 190.66014099 413.88473511
95.26665497 190.66169739 413.87863159
92.60637665 176.17407227 422.22387695
92.61107635 176.17587280 422.21249390
92.59844971 176.17263794 422.21917725
92.60339355 176.17361450 422.21160889
132.80529785 158.71209717 370.89187622
132.81025696 158.71354675 370.88421631
132.80554199 158.70935059 370.89013672
132.81103516 158.70901489 370.88513184
139.01583862 135.14691162 375.12136841
139.01905823 135.14730835 375.11331177
139.01171875 135.14263916 375.12329102
139.01518250 135.14073181 375.11746216
138.52517700 188.33706665 364.88589478
138.52452087 188.34146118 364.87438965
138.51554871 188.33470154 364.88421631
138.51980591 188.33656311 364.87597656
108.03865814 163.85101318 386.41314697
108.04388428 163.85403442 386.40069580
108.03611755 163.84899902 386.41430664
108.04139709 163.85250854 386.40631104
127.24436951 111.41806793 422.19787598
127.24291229 111.41734314 422.18591309
127.23249054 111.40797424 422.20812988
127.22756958 111.40879059 422.19461060
108.99745178 144.04704285 393.82839966
109.00183105 144.04968262 393.81530762
108.99644470 144.04476929 393.82998657
108.99864197 144.04721069 393.82092285
90.62533569 168.63766479 420.42959595
90.62838745 168.63972473 420.41659546
90.61993408 168.63647461 420.42797852
90.62390137 168.63629150 420.41885376
94.71534729 142.76811218 429.03213501
94.71682739 142.77145386 429.01861572
94.70636749 142.77186584 429.03439331
94.70736694 142.77351379 429.02371216
178.61772156 125.31552124 401.26309204
178.61083984 125.31610107 401.25894165
178.60638428 125.31204224 401.26229858
178.60501099 125.31247711 401.25241089
114.48409271 171.08837891 377.28958130
114.48732758 171.09207153 377.27984619
114.48114777 171.08287048 377.29208374
114.48600769 171.08570862 377.28695679
124.80153656 185.71707153 371.53009033
124.80413818 185.72186279 371.52038574
124.79817200 185.71833801 371.53262329
124.80226898 185.72137451 371.52713013
117.44256592 197.81324768 375.15530396
117.44665527 197.81587219 375.14788818
117.43248749 197.80950928 375.15603638
117.43771362 197.80981445 375.15231323
86.26264191 182.81587219 460.67700195
86.27096558 182.81907654 460.67044067
86.25342560 182.81509399 460.67959595
86.26516724 182.81938171 460.67471313
89.53953552 197.28811646 459.82052612
89.54625702 197.29173279 459.81790161
89.53324890 197.27903748 459.82736206
89.54412842 197.28643799 459.82623291
87.31638336 154.92829895 463.06115723
87.32135010 154.93220520 463.05642700
87.31039429 154.93087769 463.06118774
87.31767273 154.93536377 463.05609131
138.59217834 146.28955078 441.77639771
138.59408569 146.28887939 441.76568604
138.58946228 146.28692627 441.77493286
138.59529114 146.29122925 441.76104736
125.74203491 163.04754639 370.89489746
125.74899292 163.04866028 370.88729858
125.74175262 163.04327393 370.88986206
125.75013733 163.04412842 370.88729858
105.99690247 159.96664429 486.06997681
106.00093079 159.97451782 486.06982422
105.98776245 159.96603394 486.06570435
105.99652100 159.97857666 486.06185913
158.75445557 160.09817505 369.92077637
158.75411987 160.09855652 369.91192627
158.74876404 160.09614563 369.92059326
158.75308228 160.09567261 369.91265869
184.36677551 136.63578796 415.56262207
184.36375427 136.64068604 415.55096436
184.35877991 136.63922119 415.57250977
184.36235046 136.64099121 415.55612183
166.92738342 146.26440430 430.87844849
166.92491150 146.26829529 430.86810303
166.91792297 146.27372742 430.87707520
166.92109680 146.27709961 430.86187744
172.77427673 133.35900879 381.86016846
172.77133179 133.35913086 381.85458374
172.76895142 133.35549927 381.86669922
172.77046204 133.35479736 381.86004639
172.61944580 121.77347565 396.16851807
172.61570740 121.77334595 396.16259766
172.61053467 121.77033997 396.16958618
172.61125183 121.77034760 396.16067505
106.85406494 155.98171997 394.05941772
106.85984039 155.98507690 394.04830933
106.85359192 155.98062134 394.05877686
106.85820007 155.98405457 394.05166626
131.38610840 193.03031921 366.06323242
131.38630676 193.03567505 366.05267334
131.37751770 193.02954102 366.06396484
131.38130188 193.03364563 366.05700684
89.56460571 189.77565002 436.74664307
89.56909180 189.77853394 436.73693848
89.55600739 189.77166748 436.74835205
89.56176758 189.77595520 436.74044800
162.34495544 158.02575684 445.83697510
162.34155273 158.02409363 445.83096313
162.34397888 158.02111816 445.83184814
162.34957886 158.02427673 445.82052612
117.91223907 144.90661621 453.27789307
117.91606140 144.90670776 453.26681519
117.91152954 144.90179443 453.27883911
117.91644287 144.90725708 453.26571655
109.44143677 124.68158722 414.91616821
109.44448853 124.68395996 414.90280151
109.43906403 124.67933655 414.92285156
109.43945312 124.68212128 414.91116333
126.07469177 146.59771729 376.12371826
126.07968903 146.59945679 376.11581421
126.07626343 146.59570312 376.12820435
126.07995605 146.59558105 376.12301636
160.27621460 138.19775391 424.76678467
160.26950073 138.20500183 424.75457764
160.26789856 138.20559692 424.76974487
160.26611328 138.20989990 424.75350952
151.29660034 154.77926636 445.02282715
151.29576111 154.77774048 445.01556396
151.29208374 154.77844238 445.01678467
151.29885864 154.78239441 445.00527954
96.08858490 136.58651733 436.15512085
96.08868408 136.59126282 436.14178467
96.07943726 136.58651733 436.15213013
96.08009338 136.58941650 436.14111328
121.40472412 201.88871765 369.18911743
121.40660095 201.89477539 369.17922974
121.39601135 201.88655090 369.19207764
121.40020752 201.88854980 369.18597412
126.97945404 157.04837036 461.81976318
126.98481750 157.04772949 461.81848145
126.97335052 157.05126953 461.81497192
126.98301697 157.05586243 461.81066895
103.55291748 125.48357391 436.25988770
103.55155945 125.48852539 436.24621582
103.54862976 125.48206329 436.25894165
103.54693604 125.48508453 436.24575806
112.67079163 201.15916443 380.65158081
112.67509460 201.16233826 380.64425659
112.65957642 201.15473938 380.65374756
112.66470337 201.15530396 380.64981079
96.72415924 171.17721558 409.31222534
96.72859955 171.17773438 409.30343628
96.72036743 171.17391968 409.31335449
96.72389984 171.17311096 409.30587769
91.28857422 144.80204773 472.60617065
91.29055023 144.80683899 472.60089111
91.27998352 144.80148315 472.59780884
91.28413391 144.80725098 472.59265137
173.39971924 125.55582428 407.84927368
173.39183044 125.55535889 407.84390259
173.38633728 125.55419159 407.85021973
173.38366699 125.55494690 407.83999634
92.21095276 192.66694641 428.62145996
92.21667480 192.67039490 428.60952759
92.20408630 192.66542053 428.62405396
92.21089172 192.66958618 428.61437988
116.23943329 114.24544525 419.11474609
116.23927307 114.24677277 419.09979248
116.23215485 114.23693085 419.12353516
116.22808838 114.23959351 419.10922241
116.76457214 154.52481079 467.37472534
116.76926422 154.52447510 467.36831665
116.76443481 154.52111816 467.37271118
116.77248383 154.52784729 467.36315918
169.22746277 123.22994995 387.13726807
169.22653198 123.23058319 387.13134766
169.21932983 123.22420502 387.14138794
169.22224426 123.22360992 387.13299561
100.41065979 134.51766968 462.28500366
100.40962982 134.52365112 462.27658081
100.40061951 134.51724243 462.27923584
100.40187836 134.52357483 462.26983643
99.24426270 199.70793152 404.67147827
99.25042725 199.71240234 404.66223145
99.22940826 199.70712280 404.66949463
99.23542023 199.71067810 404.66339111
159.78875732 114.78842926 394.08370972
159.78674316 114.78953552 394.07513428
159.78218079 114.78554535 394.09197998
159.78190613 114.78619385 394.08093262
151.48466492 127.40541077 378.50903320
151.48428345 127.40527344 378.50189209
151.47943115 127.40584564 378.51516724
151.48118591 127.40409851 378.50894165
89.43665314 150.89584351 480.53219604
89.43922424 150.90228271 480.52987671
89.42839050 150.89523315 480.52377319
89.43544769 150.90377808 480.52053833
101.32194519 128.73580933 430.24258423
101.31958008 128.74214172 430.22897339
101.31506348 128.73910522 430.24487305
101.31341553 128.74287415 430.23272705
132.04936218 152.25717163 373.10882568
132.05288696 152.25727844 373.10040283
132.04823303 152.25398254 373.10855103
132.05278015 152.25379944 373.10388184
133.86705017 125.05173492 425.08328247
133.86677551 125.05609894 425.07135010
133.86308289 125.05496979 425.09402466
133.86386108 125.05686188 425.07974243
