ply
format ascii 1.0
element vertex 2048
property float x
property float y
property float z
end_header
246.17999268 220.62699890 384.78198242
65.95500183 177.57099915 512.56597900
131.09199524 92.19499969 379.61700439
99.34200287 235.89999390 381.21301270
162.44299316 173.62899780 445.19000244
132.95700073 285.22198486 471.02697754
60.95199966 150.80200195 415.76000977
177.61599731 276.01098633 394.49099731
154.67500305 173.28298950 359.21798706
73.97200012 234.83200073 457.49801636
104.80800629 99.59399414 450.26498413
82.33200073 171.78599548 347.86001587
157.57499695 237.03199768 439.45800781
178.48899841 128.69400024 394.35000610
108.08300018 159.11399841 469.79098511
198.07099915 186.59399414 398.40200806
121.08399963 275.12899780 416.45199585
57.33200073 206.16200256 405.64401245
159.16299438 226.36700439 376.06497192
113.30300140 170.95500183 415.71701050
85.19699860 121.25399780 377.05401611
56.62899780 185.02700806 457.39300537
119.22699738 206.70098877 343.42700195
116.82300568 209.01399231 449.13598633
138.28199768 128.32600403 426.54299927
68.78399658 130.73800659 464.36499023
202.35800171 234.40800476 403.08200073
127.20799255 132.63600159 356.17001343
163.15400696 293.91699219 435.02700806
141.85099792 205.38299561 413.41400146
83.65599823 249.70500183 418.61199951
99.25099945 96.37799835 407.51300049
98.35799408 268.50198364 454.05999756
73.62300110 210.08500671 361.54602051
84.75199890 143.16999817 500.96798706
80.64799500 203.53401184 484.56600952
182.43199158 206.77099609 429.83801270
64.13300323 174.05000305 381.93899536
135.71299744 90.57199860 417.53799438
138.93099976 256.23599243 388.43701172
120.04000092 168.30599976 343.80099487
75.01200104 119.96799469 429.44699097
171.61500549 165.39601135 410.64599609
156.70199585 116.89600372 368.57901001
122.63800049 243.97000122 449.75097656
60.02999878 160.13400269 480.62701416
129.04499817 177.30599976 450.38299561
160.15000916 100.29000092 397.33499146
116.08499908 132.25099182 450.40499878
170.13200378 195.04100037 377.93200684
178.84500122 251.86500549 416.97100830
58.26499939 212.76300049 439.75698853
176.52200317 157.41600037 379.62100220
92.07499695 174.26000977 494.37799072
128.06199646 227.45800781 368.73400879
98.05699921 144.94599915 353.64300537
144.64401245 266.16400146 445.06900024
206.27499390 264.07302856 392.64999390
86.37999725 203.69699097 452.45401001
215.17599487 210.21499634 387.76699829
182.65800476 245.89100647 381.41198730
97.57500458 126.62400055 474.68399048
151.31500244 279.36102295 409.79498291
72.62500000 229.90199280 394.76800537
60.05999756 155.17500305 448.84197998
55.30300140 180.18800354 420.87600708
144.98600769 204.08500671 361.02499390
97.97900391 225.98199463 353.10998535
142.10400391 176.91700745 420.78997803
70.62000275 146.10600281 387.22802734
128.02099609 227.33299255 426.45999146
190.78401184 178.78399658 427.73602295
148.02799988 209.79100037 441.14199829
110.16600037 111.43500519 367.11300659
123.80100250 285.55700684 443.53198242
91.79499817 198.23600769 343.02600098
111.26100159 254.48999023 399.90499878
188.80699158 218.37100220 381.39297485
106.46399689 186.55599976 464.35498047
146.15400696 153.48500061 435.18499756
151.79200745 145.72100830 360.43399048
226.11900330 239.67300415 390.00000000
75.36499786 124.48600006 402.77401733
159.30000305 140.47299194 414.74301147
61.46100235 211.95599365 468.86599731
100.36700439 228.89801025 446.06500244
82.24400330 111.71199799 453.60400391
59.49699783 185.25500488 485.74398804
66.55299377 229.78300476 422.47198486
121.20199585 111.11599731 434.29602051
119.50699615 264.89999390 466.51300049
113.47500610 87.30799866 430.57098389
75.90200043 152.94801331 362.39199829
161.37098694 192.65800476 429.83697510
100.67099762 267.17098999 427.29397583
196.12300110 209.87699890 409.96899414
65.65399933 201.33499146 503.53002930
151.00799561 288.32000732 455.14602661
61.36800003 203.39199829 381.98901367
134.38999939 187.24900818 346.69100952
130.65199280 195.62600708 432.76501465
178.78800964 230.38600159 427.43200684
125.80400848 153.78999329 452.89700317
108.34900665 96.25600433 385.17498779
174.12100220 289.46200562 413.59698486
90.66899872 101.47300720 431.49600220
162.44499207 268.17001343 427.18801880
80.60400391 251.35897827 442.39898682
69.62099457 185.91499329 361.07299805
147.87001038 112.48600006 412.70898438
159.60598755 248.96701050 381.31500244
145.35998535 83.04899597 396.02200317
132.80599976 110.59500122 365.06399536
118.78699493 85.89799500 403.12298584
174.01100159 183.95001221 397.10101318
92.33900452 248.19299316 461.29901123
137.69300842 285.86502075 426.20199585
169.49200439 137.38299561 373.87600708
69.62600708 140.58200073 483.89599609
173.32499695 109.45200348 382.45300293
65.25000000 138.39698792 436.10699463
59.22599792 168.83300781 402.82299805
136.87400818 228.14401245 446.10900879
68.87699890 157.64099121 500.47601318
193.58700562 168.41000366 408.85098267
122.14999390 244.65200806 381.83099365
182.87699890 150.54299927 398.81301880
138.39801025 160.46200562 351.14700317
97.48099518 149.28300476 484.96099854
155.95098877 267.46697998 393.11502075
83.63299561 228.15699768 369.86099243
90.77799988 107.59700012 391.69897461
107.98099518 185.95999146 338.64001465
154.39700317 96.64499664 377.77999878
92.73600006 245.76600647 400.07098389
189.97200012 197.47700500 383.30398560
204.47898865 245.12701416 385.99499512
142.06199646 239.60000610 376.62899780
58.62500000 187.84399414 396.35501099
56.20900345 172.96400452 440.67599487
165.93200684 217.90299988 436.14898682
125.52200317 172.23500061 431.27502441
169.81700134 174.52000427 371.92300415
101.23500061 162.21598816 343.71398926
97.70800018 125.56900024 361.74499512
162.00999451 162.25199890 428.41000366
163.00999451 121.62200165 404.87997437
132.03900146 267.91098022 402.16500854
54.49099731 193.88200378 434.43099976
116.28700256 149.88600159 347.65301514
92.90200043 189.48599243 480.05599976
86.00600433 108.46900177 414.18399048
144.96499634 179.94999695 440.11300659
116.12000275 190.58599854 444.10800171
118.91500092 223.75099182 352.46499634
104.17900085 117.36199951 456.94299316
131.00599670 141.32800293 439.55200195
192.63699341 259.20501709 404.91101074
80.16999817 188.39999390 498.62600708
198.67500305 194.12500000 420.11300659
180.11399841 189.56799316 438.81799316
189.75498962 263.49499512 383.81799316
187.76600647 173.60499573 389.84997559
80.37100220 118.44400024 472.20800781
117.00999451 282.82400513 461.74600220
107.71199799 141.30699158 464.75601196
82.71299744 166.66500854 508.37396240
141.35800171 245.75999451 443.94497681
88.75000000 140.02500916 368.57000732
208.47700500 227.10198975 386.19299316
176.52000427 269.67001343 411.47698975
157.23300171 190.59899902 363.91699219
75.85299683 216.94799805 459.16400146
171.77000427 179.64700317 421.71697998
161.02500916 209.19999695 370.93402100
62.15299988 148.65499878 466.95898438
166.50999451 249.66900635 430.40798950
122.40000153 156.64300537 423.07202148
118.57199860 225.85200500 441.48400879
57.67499924 168.55299377 465.12100220
84.39099884 128.67500305 486.39602661
171.35800171 263.37100220 383.97500610
68.13800049 132.51799011 416.65701294
130.64799500 213.32600403 438.90399170
71.12699890 124.45600128 445.99499512
141.77900696 163.98799133 448.47198486
221.77799988 255.85899353 394.82699585
101.74400330 173.38499451 477.55300903
108.67000580 277.30700684 439.00000000
130.47500610 260.40701294 453.29202271
156.75599670 277.87701416 440.36999512
61.10500336 205.51200867 487.35800171
133.59500122 110.36699677 422.27600098
66.00999451 228.51000977 443.56500244
229.39201355 222.62600708 388.03100586
69.50999451 217.93399048 377.74499512
145.37399292 219.67999268 368.43499756
109.19799805 250.95298767 461.17098999
86.83399963 213.58900452 349.52200317
115.34400177 171.48699951 458.68301392
64.01300049 222.31500244 407.30801392
57.81900024 159.47100830 430.53100586
143.41500854 130.70500183 360.48800659
190.03300476 231.54600525 414.92098999
131.18099976 211.16000366 354.50198364
194.41000366 274.95800781 397.48901367
98.07600403 257.74899292 413.73199463
164.62600708 155.99900818 367.98999023
108.87799835 231.98500061 368.08999634
103.47000122 212.01998901 342.94998169
105.01100159 273.80499268 468.87600708
100.71199799 212.61500549 450.75601196
141.21200562 290.04202271 441.87301636
59.16399765 194.98899841 470.38800049
148.56700134 94.59000397 407.51699829
210.47000122 218.97200012 400.78298950
71.24199677 168.81098938 359.46899414
58.23099899 212.11500549 420.81002808
204.32400513 202.96600342 397.54299927
128.24900818 214.50599670 416.42498779
77.70700073 239.80799866 407.13198853
149.09500122 191.43099976 418.70001221
139.88000488 276.89599609 458.21801758
158.88600159 289.81201172 419.64300537
55.94400024 199.55599976 450.18899536
111.84500122 136.90400696 358.89498901
89.40499878 227.51100159 457.77801514
80.13100433 188.87800598 348.92498779
176.85499573 231.28500366 378.65600586
98.99300385 107.01399994 377.54101562
66.30400085 143.38000488 402.29602051
172.50601196 138.72499084 405.14099121
55.12599945 195.76499939 417.75302124
102.63299561 195.64099121 450.78399658
87.14900208 155.45498657 349.98199463
176.99499512 208.80599976 375.82901001
135.70700073 145.37200928 353.62698364
76.89499664 131.28300476 385.44000244
95.78900146 197.97200012 464.42999268
91.39099884 261.91299438 439.24600220
146.81300354 195.78399658 433.73999023
93.18900299 111.38800049 467.53698730
82.37799835 207.25099182 469.77401733
124.15499878 127.15199280 438.39199829
164.69099426 278.67700195 402.37600708
93.90400696 181.31999207 342.44601440
117.77099609 278.39099121 476.36099243
63.47700119 215.09100342 391.50399780
147.14399719 140.59899902 425.11697388
61.71400070 174.14300537 498.41497803
84.95199585 233.94599915 385.53802490
125.62400055 97.49900055 429.66397095
126.87500000 181.75399780 419.74700928
61.36800003 188.66198730 379.14300537
130.14799500 85.06400299 392.77301025
154.65299988 255.32099915 437.60498047
90.11299896 158.29199219 498.40701294
69.61399841 156.10900879 376.13299561
181.60200500 180.64799500 409.53900146
205.85299683 248.77700806 401.05798340
153.15200806 126.73899841 414.83599854
74.43899536 243.10700989 431.64102173
64.21800232 140.84700012 454.49099731
141.16400146 175.03300476 351.72998047
155.14599609 179.22000122 429.19000244
122.38299561 102.25900269 371.48898315
64.26999664 161.26200867 391.16601562
141.50599670 216.94200134 422.56100464
61.78800201 217.73500061 454.81100464
113.99400330 118.34099579 444.92797852
194.33000183 234.72599792 383.82101440
192.88299561 245.56399536 411.64099121
102.30799866 92.36700439 421.23898315
177.30999756 123.91299438 380.62399292
123.79299927 282.60101318 429.06100464
70.01999664 216.00199890 479.90997314
110.73199463 264.77798462 412.58801270
136.16999817 277.12399292 412.53799438
145.09400940 104.43600464 369.14797974
120.61899567 120.58300018 360.24600220
108.58499908 239.70700073 452.31802368
173.22698975 171.54798889 390.05499268
198.91899109 181.41299438 411.67501831
181.67500305 139.96299744 386.21099854
199.22099304 208.29400635 383.37002563
157.23599243 133.78199768 365.90701294
189.05599976 217.12300110 419.89700317
109.07199860 244.03900146 387.51300049
60.31699753 188.54899597 500.63003540
150.17900085 223.50500488 443.89401245
165.36000061 153.98100281 417.42700195
158.78900146 206.39100647 431.52899170
120.07500458 85.07200623 418.36398315
116.64400482 96.99299622 440.45300293
125.71999359 255.14999390 393.04501343
121.80799866 193.29299927 340.45999146
171.65100098 200.66900635 436.05599976
81.33000183 110.21900177 439.88299561
169.27999878 278.20001221 419.97500610
170.47200012 115.59700012 394.48199463
150.30999756 160.26100159 358.06701660
183.11999512 164.20100403 400.40499878
136.16400146 81.92600250 406.89001465
144.41500854 189.71699524 355.71398926
132.18699646 288.26300049 454.01098633
98.59600067 259.58499146 465.54199219
58.51599884 166.67201233 418.95602417
66.56699371 198.08399963 366.11898804
168.24899292 179.88699341 434.76501465
143.89700317 89.29699707 382.60900879
102.87900543 93.46400452 438.43902588
156.80000305 87.50299835 390.52502441
73.10400391 240.50000000 444.99700928
81.50299835 120.02600098 391.66998291
190.60400391 193.28599548 430.83300781
128.89799500 168.24400330 418.91000366
215.25601196 231.98699951 396.63500977
91.85100555 102.42199707 453.33401489
194.77101135 196.33898926 406.79101562
183.17900085 280.15100098 405.78201294
152.98899841 163.75199890 439.97897339
58.22699738 175.94100952 476.45101929
177.02299500 194.04100037 389.29299927
109.25699615 278.65698242 451.94100952
78.06400299 202.16000366 352.21298218
106.21499634 198.79499817 338.80499268
150.99499512 290.32498169 429.90197754
77.46900177 141.18699646 377.19000244
110.87699890 220.47099304 451.42401123
99.57800293 162.35501099 483.76000977
133.15400696 184.97200012 439.71697998
65.88400269 175.35800171 369.28900146
129.97500610 200.59700012 347.34298706
137.05499268 204.33099365 425.21701050
95.48500061 231.84999084 366.83401489
89.94400024 258.60000610 454.32901001
197.65199280 222.89900208 409.54000854
194.60600281 205.34100342 426.62799072
57.02099991 167.10800171 451.88201904
154.29901123 151.04800415 424.82000732
73.31500244 128.14399719 476.15899658
53.84600067 184.77499390 444.42901611
144.62800598 268.29498291 398.57800293
115.56999969 153.36999512 460.20498657
72.16600037 208.22399902 492.67102051
143.60099792 116.81700134 363.44702148
105.37400055 129.36801147 461.67401123
108.73399353 91.56599426 396.80902100
166.62600708 123.00099945 373.23999023
112.79299927 276.01901245 425.76599121
73.89499664 145.04200745 495.09298706
151.09199524 257.07598877 385.50799561
100.76600647 138.68400574 474.96701050
73.85800171 240.62500000 418.95800781
79.02700043 153.75498962 506.57598877
114.80099487 184.19100952 454.70602417
168.62699890 237.51100159 433.75399780
65.48500061 152.82598877 489.51797485
91.90600586 137.58100891 490.72097778
170.77699280 259.41500854 422.65701294
120.76200104 253.89701843 457.44198608
166.14599609 99.01399994 386.55401611
128.88800049 272.87500000 465.05297852
161.87599182 107.04199982 374.02001953
79.07099915 179.85600281 507.52801514
140.95201111 101.38700104 414.51901245
129.83299255 238.58900452 373.78900146
163.92500305 281.85000610 430.48901367
126.62699890 200.28900146 443.45999146
79.71599579 245.48100281 455.15298462
56.33499908 184.69799805 409.46298218
76.83100128 119.92300415 414.11199951
193.42799377 250.52999878 385.63699341
62.65600204 157.30599976 405.42098999
74.75999451 120.70099640 460.51202393
91.68399811 259.08801270 425.12802124
179.50500488 169.64900208 379.71899414
167.60699463 182.52299500 380.90597534
157.01699829 110.42000580 404.86499023
149.00698853 203.00599670 423.19299316
155.20199585 183.37899780 446.20401001
80.92199707 219.55799866 359.25100708
155.06599426 294.13400269 445.26202393
96.93600464 238.44300842 455.73498535
127.35700989 235.46600342 442.51000977
123.91799927 179.51699829 341.36599731
136.50399780 187.83499146 425.61001587
177.23100281 241.58700562 423.17001343
119.61600494 143.43699646 453.19000244
90.09099579 214.92500305 455.89102173
130.23999023 118.97499847 429.96002197
174.95700073 150.58499146 407.83798218
136.68000793 153.02301025 442.42599487
84.19300079 236.66799927 463.36697388
58.35799789 203.29800415 461.23098755
119.84100342 89.72200012 389.08099365
170.89100647 221.34399414 375.98800659
58.17700195 202.73300171 394.30999756
64.38600159 140.60301208 424.45300293
133.90000916 122.88600159 360.48001099
98.74299622 99.62300110 395.23898315
154.52699280 238.61500549 378.75000000
162.54200745 144.26100159 367.09799194
121.05599976 266.85397339 407.31201172
82.36599731 111.12699890 426.94400024
169.30200195 175.52598572 405.14099121
188.72100830 184.65000916 385.93499756
71.15200043 188.79400635 506.14398193
71.19700623 134.05000305 395.31698608
75.34200287 226.80999756 382.58297729
69.63300323 232.69200134 411.57202148
90.80699921 105.79699707 403.18899536
133.55099487 246.80599976 382.51300049
170.03799438 291.03900146 426.14901733
99.71699524 138.87300110 363.37899780
183.22700500 160.26100159 389.50601196
60.06900024 175.63299561 392.67501831
65.97799683 139.14399719 472.34100342
147.25700378 285.62997437 419.69900513
137.39599609 177.26998901 431.82400513
118.65100098 234.41400146 373.71701050
220.65701294 217.95399475 395.46902466
141.88900757 288.66299438 462.18600464
129.00599670 154.07499695 349.25601196
71.88100433 164.09799194 511.26699829
130.39599609 164.32798767 453.07998657
176.53100586 217.81199646 431.70602417
196.01699829 175.32800293 399.09500122
168.63800049 239.27799988 378.72698975
63.29700470 221.08200073 429.16900635
172.53300476 252.34197998 381.12399292
85.43399811 146.27200317 359.57199097
83.09799957 238.65699768 397.10699463
187.42098999 174.72299194 417.59197998
162.38600159 180.57499695 365.71600342
142.53099060 120.10800171 419.86700439
104.20899963 151.63999939 346.74002075
88.02500153 127.08699799 367.68902588
59.92599869 169.78700256 486.62899780
96.21600342 115.73000336 370.79501343
86.32600403 191.18099976 489.53900146
149.45500183 277.64001465 448.94299316
210.45799255 253.88101196 390.33999634
99.11399841 269.65600586 441.76501465
151.87800598 172.41999817 448.74200439
130.91300964 169.96699524 345.88998413
105.58200073 175.30200195 341.03701782
77.85099792 198.61100769 494.72299194
215.21000671 243.37300110 388.56399536
167.84599304 271.05398560 392.30200195
55.23300171 182.99198914 431.67901611
108.67600250 228.45300293 355.01300049
139.54000854 204.47100830 436.28298950
111.34700012 107.57199860 445.90399170
110.66899872 102.00000000 376.03100586
83.98400116 254.55200195 432.39001465
75.08899689 217.50100708 470.23800659
91.02000427 166.33099365 343.76300049
61.44800186 148.62200928 434.77899170
163.04699707 169.03099060 364.88299561
108.04100037 89.19899750 412.44998169
59.40600204 195.47698975 492.21499634
219.37500000 227.83100891 386.70700073
108.36900330 176.22999573 467.38601685
179.19999695 182.20500183 429.23901367
184.74101257 269.59802246 403.79800415
108.26300049 123.87899780 359.94601440
173.38800049 146.70700073 377.79800415
189.54400635 203.29899597 417.26400757
75.99599457 179.53999329 352.50900269
163.12899780 131.81900024 409.50500488
181.19400024 138.73001099 397.25302124
139.66600037 215.66900635 444.55999756
200.17300415 220.66400146 383.81002808
166.87298584 170.23600769 419.93399048
138.34799194 255.83999634 446.11599731
136.73800659 98.80300140 372.83300781
181.32199097 269.40200806 386.90200806
81.01300049 115.68599701 405.14001465
140.83700562 230.48300171 371.14300537
65.92500305 208.83799744 373.37899780
144.11399841 249.59201050 381.84298706
79.25900269 227.19700623 463.79000854
132.99499512 219.19499207 364.08599854
184.45399475 180.13999939 397.62698364
89.21899414 119.14200592 478.14700317
118.32399750 227.96499634 364.38900757
184.79800415 199.31599426 437.43499756
55.97599792 201.57400513 427.20999146
138.94900513 196.25900269 418.03399658
87.48199463 196.56098938 474.26901245
161.28900146 259.86700439 384.45300293
99.24700165 186.10699463 472.13900757
69.25900269 133.90800476 406.08901978
104.42700195 150.91101074 475.46099854
162.15499878 198.77700806 368.55502319
91.00199890 251.18601990 409.37298584
94.39700317 180.94299316 486.10299683
162.53100586 227.65000916 438.41601562
96.36899567 241.40299988 391.16497803
183.18499756 259.64999390 409.55798340
56.67499924 194.45399475 405.49200439
123.69000244 144.50299072 352.82098389
109.83499908 262.27398682 469.66000366
122.79599762 217.25698853 445.78799438
133.34399414 223.55699158 417.89599609
77.48900604 162.51899719 353.97500610
77.66199493 136.44100952 490.56100464
147.87800598 237.66600037 443.82299805
89.79000092 226.91400146 359.68801880
139.01699829 145.98600769 434.57800293
59.21100235 194.10699463 388.11801147
59.73400116 197.69799805 480.37500000
119.21299744 175.94499207 423.95202637
128.69499207 215.90699768 426.67001343
69.11999512 163.94500732 369.40899658
121.75700378 110.78400421 365.72000122
195.96701050 197.45999146 395.08599854
68.08599854 230.37500000 433.64700317
139.43199158 174.00799561 448.57998657
128.68400574 281.12301636 419.93200684
59.01200104 157.54299927 458.77902222
123.04000092 215.37199402 348.19702148
69.57899475 127.97200775 436.50698853
67.93499756 131.27799988 452.92300415
107.83799744 204.84001160 451.67700195
124.72200012 85.84000397 427.42300415
165.59399414 170.06100464 435.25201416
95.53000641 99.03000641 444.48901367
163.08599854 285.35000610 409.85400391
154.79501343 268.33901978 437.60400391
180.28399658 258.70300293 383.11999512
154.75199890 90.61299896 400.60299683
111.05000305 220.39599609 347.12600708
129.60800171 82.83399963 414.48797607
100.44100189 251.75100708 402.55999756
92.64100647 101.23799896 416.42999268
124.39900208 220.56100464 435.20700073
146.58700562 130.75000000 421.41299438
199.46701050 270.65301514 389.29800415
181.38400269 149.68200684 388.70300293
124.63999939 185.45399475 445.09899902
172.91999817 165.13499451 373.36099243
79.93199921 145.96800232 368.29199219
69.13600159 226.13200378 458.04101562
120.95999908 94.94300079 380.66400146
126.47899628 286.77499390 463.61398315
150.51100159 230.70399475 373.50299072
79.60300446 131.45700073 375.85699463
122.05900574 161.65800476 457.72900391
170.72200012 189.35998535 433.23599243
149.70498657 181.31799316 356.23400879
99.39300537 190.82899475 339.45199585
132.76899719 100.52099609 421.57800293
96.58799744 218.02600098 346.76300049
185.81199646 205.47898865 379.24798584
56.82799911 174.55500793 412.89801025
213.52499390 209.65400696 397.48599243
63.18999863 150.04600525 480.33099365
115.67900085 234.66900635 444.84100342
88.03799438 113.69899750 382.73098755
92.52500153 146.70999146 494.40197754
63.09799957 163.62400818 493.60400391
171.25099182 129.44200134 400.96398926
111.06500244 164.38000488 342.97601318
173.93499756 167.62199402 401.09698486
149.67900085 211.14399719 366.18798828
66.04000092 166.55999756 503.80200195
130.95300293 248.95800781 448.38699341
111.70999908 238.11799622 379.52999878
130.67700195 286.03900146 435.07098389
57.42099762 209.04600525 451.89700317
58.36499786 185.54100037 472.67599487
141.97100830 290.52001953 452.27398682
117.12999725 250.63800049 392.40802002
109.97599792 125.13700104 452.94000244
57.70500183 160.25700378 440.20397949
105.81000519 257.96301270 407.73400879
196.64500427 176.51799011 419.99700928
134.29100037 262.09899902 394.61599731
119.46599579 165.57099915 425.46798706
102.45800018 107.97000122 455.28900146
145.38099670 214.80200195 413.94299316
166.00199890 189.10899353 371.48602295
138.87600708 199.80000305 354.89401245
56.41699982 168.98199463 429.60800171
153.59500122 200.81700134 363.91400146
86.00699615 108.32800293 461.87698364
138.58898926 211.13999939 362.51599121
175.86100769 279.79699707 413.11599731
65.92500305 150.35299683 395.67898560
212.04901123 240.94801331 397.97698975
171.12800598 210.12699890 429.73397827
115.06600189 199.76300049 447.28698730
163.79000854 258.83901978 429.75100708
85.97399902 179.55000305 499.51800537
176.99800110 117.52399445 387.74099731
80.85700226 207.47900391 459.28799438
198.67999268 260.87100220 386.02899170
143.98899841 140.57199097 358.53799438
75.89499664 219.09500122 367.33599854
187.66200256 227.82600403 381.30502319
156.14199829 218.53799438 371.58999634
167.09800720 144.82800293 411.49801636
151.76699829 126.33499146 363.74200439
135.84899902 137.04598999 432.61199951
142.61900330 151.33500671 356.14599609
73.86399841 192.63999939 354.92501831
195.00399780 265.53799438 398.31799316
95.09100342 157.37300110 490.44702148
91.84599304 233.22399902 376.15698242
159.72299194 245.66999817 436.34899902
126.93299103 144.73600769 447.38800049
149.53399658 204.78099060 433.14001465
95.51999664 202.88999939 450.34899902
65.66500092 140.89801025 413.22299194
68.70500183 131.70799255 425.98999023
104.35699463 247.60200500 394.79000854
59.76599884 159.22200012 471.31100464
75.29799652 119.19000244 438.76998901
203.63398743 235.81300354 385.64199829
110.69899750 136.19300842 457.55499268
109.01200104 167.38499451 464.52200317
124.46199799 136.42098999 443.98999023
63.65299988 140.70500183 444.96798706
75.81500244 118.00499725 451.27999878
187.00199890 174.63600159 404.66201782
159.24101257 161.11401367 361.86901855
157.79699707 212.70201111 438.25399780
66.23799896 165.11199951 380.67901611
197.88999939 250.87400818 405.94000244
205.82200623 258.62197876 400.11199951
92.20800018 208.42900085 344.03900146
178.75799561 159.67999268 407.19198608
160.78199768 286.52798462 440.05398560
97.94999695 119.27799988 468.29400635
138.12899780 269.68197632 452.74200439
184.31399536 240.60699463 417.35198975
185.65000916 237.18499756 381.11901855
237.09599304 220.27400208 383.42401123
136.36000061 134.50599670 355.98901367
170.54699707 227.55900574 433.93200684
56.25099945 176.06900024 459.30001831
83.78499603 252.66099548 451.04797363
183.54899597 220.84901428 426.19699097
80.64699554 123.69499969 479.70501709
145.39698792 84.00700378 405.11199951
153.93499756 274.44500732 402.56802368
123.31300354 286.23800659 454.51300049
120.47900391 90.31099701 435.53601074
56.08500290 204.64498901 436.29000854
152.94000244 102.31400299 405.45098877
126.95400238 220.30799866 357.39599609
176.30299377 136.06900024 379.70999146
110.55100250 88.80200195 422.16101074
202.41999817 200.90499878 388.96301270
215.94700623 249.47300720 397.41098022
203.23200989 211.79800415 404.75799561
88.65900421 167.71000671 501.67102051
120.81900024 157.57400513 346.37298584
174.92799377 282.62799072 403.13500977
68.35099792 219.29701233 464.53298950
149.25999451 182.36599731 421.15301514
115.37599945 269.71899414 472.89498901
64.01200104 184.47700500 371.63400269
68.29799652 155.40200806 384.99899292
94.15899658 165.52198792 494.61697388
188.57499695 185.53399658 434.86599731
131.06599426 220.47599792 444.52398682
157.35700989 179.64201355 437.85900879
170.22700500 269.54400635 417.88000488
61.02700043 207.34899902 476.51699829
139.29000854 237.15899658 446.24200439
103.50400543 245.16200256 457.51898193
77.00800323 210.31401062 480.08700562
139.60800171 85.46199799 389.67498779
171.24398804 186.61500549 389.07598877
155.55599976 188.08799744 424.89999390
213.58200073 234.66000366 388.07400513
103.36000061 263.88601685 417.44598389
110.42000580 206.81199646 341.13601685
75.61899567 173.53999329 512.71301270
153.65800476 104.29199982 371.41601562
193.54499817 191.58399963 388.91598511
112.29400635 280.46398926 469.73999023
169.66099548 202.75900269 373.65200806
125.93400574 262.13397217 399.44198608
61.57999802 205.08099365 496.16900635
109.66199493 149.63999939 466.92498779
61.69899750 220.81401062 443.20999146
59.91100311 159.75799561 413.64999390
56.55699921 193.84500122 457.09698486
146.10800171 252.73698425 441.39501953
195.33799744 185.86599731 425.13299561
146.17100525 97.26799774 374.69100952
88.15900421 104.94200134 441.62100220
94.41299438 130.10301208 482.12399292
102.48100281 273.85198975 459.68600464
55.21099854 190.88800049 425.06399536
115.79799652 181.89999390 338.99398804
94.96600342 219.14599609 449.50698853
129.60598755 182.16200256 428.08499146
67.76200104 221.68399048 387.60501099
115.16200256 247.20899963 455.94097900
109.52999878 270.23898315 420.04400635
193.98400879 179.55000305 391.49902344
106.64600372 143.45300293 352.80297852
156.01399231 285.73501587 447.54400635
90.42900085 189.60400391 343.46499634
96.64099884 96.50500488 426.45098877
60.42599869 214.40798950 408.27301025
67.37500000 132.43701172 444.28598022
147.90501404 169.42399597 355.29598999
54.57600021 194.11300659 443.51300049
190.55500793 273.13101196 389.89099121
199.48100281 242.33500671 405.22399902
88.34400177 202.15000916 462.76901245
221.40299988 219.39599609 386.12698364
135.68200684 171.11199951 423.52899170
169.57800293 107.86399841 390.12597656
139.78601074 271.95901489 404.77600098
100.96199799 100.77899933 384.97299194
109.15100098 279.34701538 460.66201782
96.32699585 155.59700012 346.33599854
120.61800385 177.39500427 452.31198120
130.28498840 267.32098389 458.57800293
83.68699646 113.47599792 397.22299194
110.58399963 89.93999481 439.94598389
215.14799500 261.32800293 394.99700928
172.38299561 174.59100342 380.12600708
70.28500366 177.62100220 358.63000488
190.69500732 168.06900024 399.23501587
165.97099304 231.13699341 378.54299927
164.15800476 111.91999817 400.39797974
145.93200684 176.75698853 431.92602539
85.07099915 179.75900269 346.43600464
141.28700256 88.63200378 411.00900269
104.10299683 131.15899658 358.35998535
131.77398682 179.15399170 346.06600952
69.09600067 232.62300110 450.85702515
186.19500732 251.89199829 411.42898560
120.75299835 215.74699402 420.30001831
119.43000031 129.14399719 356.19799805
84.12200165 199.51799011 346.83401489
117.30200195 282.05801392 439.31002808
107.55900574 114.25500488 449.78799438
71.48600006 201.44100952 360.05700684
72.37300110 125.97900391 420.89797974
167.52299500 174.99600220 427.85702515
160.06399536 93.39299774 383.19998169
157.79100037 150.96699524 363.35098267
115.31900024 143.16999817 353.18197632
194.24299622 236.42399597 409.41101074
57.72700119 179.81900024 402.67398071
64.06299591 184.84700012 508.66000366
181.79798889 222.11199951 378.47097778
180.06800842 200.35398865 382.76800537
60.12000275 181.38700867 493.23400879
109.03199768 230.05899048 447.29098511
79.92199707 114.69300079 463.45901489
70.05100250 235.80900574 427.48999023
107.86899567 191.78999329 456.16900635
148.46499634 263.99099731 391.38601685
78.67299652 247.42601013 425.77099609
58.18999863 167.52999878 476.91000366
181.58900452 180.57600403 419.22100830
168.25999451 213.65899658 373.76498413
155.16999817 198.55599976 432.58499146
73.35600281 195.18099976 501.14602661
153.83900452 117.64899445 409.82501221
207.15899658 207.91200256 386.09201050
78.90499878 210.07899475 354.88598633
122.38600159 283.76702881 471.84899902
171.53100586 162.36999512 418.48001099
125.06100464 170.26600647 455.68298340
60.69900131 149.31399536 454.82000732
133.84098816 288.37500000 445.52902222
84.04699707 163.15400696 348.76300049
186.57701111 226.44799805 420.74099731
151.52299500 244.49899292 440.63601685
177.65399170 144.74900818 402.43301392
73.80400085 149.71600342 380.39498901
101.71300507 117.82400513 364.85800171
170.81800842 115.25200653 376.99197388
83.04599762 230.52799988 377.83300781
113.79499817 194.69801331 338.65899658
127.54200745 109.82400513 427.97000122
159.08099365 220.45899963 440.98498535
102.53099823 273.42199707 448.81799316
102.13200378 131.14898682 469.11697388
78.35900116 115.67000580 421.07901001
80.67700195 124.00899506 384.23202515
57.49599838 209.56001282 429.77099609
116.28899384 282.80700684 450.54598999
83.41900635 245.49600220 409.03698730
116.18699646 257.77301025 463.90899658
135.84199524 221.90600586 425.99600220
169.74798584 176.96400452 395.86599731
126.45600891 208.59700012 444.23699951
63.67799759 218.68998718 398.94598389
185.87599182 279.04699707 398.05099487
176.94400024 239.96501160 380.79199219
104.26499939 92.45699310 429.24899292
182.79699707 186.58200073 392.76599121
121.20700073 173.32600403 416.40100098
187.00900269 209.21299744 422.40701294
102.05699921 231.23899841 361.91299438
136.44898987 83.52400208 397.81100464
173.21301270 182.82899475 440.60299683
100.34199524 251.31700134 461.93298340
177.03900146 260.38800049 414.94500732
227.84399414 230.63301086 387.14901733
73.18700409 124.19699860 467.75299072
112.24600220 179.18600464 460.66799927
138.15200806 197.63499451 430.16299438
64.07699585 141.11900330 464.39901733
153.45899963 292.95797729 437.33401489
106.25399780 169.07598877 472.27600098
172.02000427 250.49299622 424.43402100
97.29299927 139.96900940 482.24301147
130.14599609 90.89899445 424.01300049
149.90901184 193.30799866 360.56100464
63.96300507 198.37998962 373.82901001
135.94599915 214.87001038 413.79202271
125.38600159 190.25999451 438.57000732
58.51399994 157.65299988 422.62597656
130.13499451 132.11099243 435.65301514
97.10600281 173.34500122 487.07199097
139.69099426 184.35299683 418.61199951
173.08399963 179.45300293 411.13998413
69.08300018 142.24598694 394.77499390
82.91500092 221.94500732 458.85699463
180.45100403 129.36000061 385.69097900
113.71300507 174.35800171 340.97702026
205.66799927 227.09399414 403.89801025
60.56699753 211.24400330 397.97198486
77.84300232 231.44799805 388.69299316
107.32099915 274.44400024 431.58001709
76.50999451 234.91700745 399.85800171
194.17601013 242.80599976 383.48400879
141.40499878 288.78399658 432.72500610
137.48799133 280.01098633 465.24798584
221.90399170 246.61099243 392.82299805
59.95900345 203.48100281 469.09298706
126.51499939 83.76200104 403.30599976
105.63000488 234.02301025 375.13000488
102.96999359 221.55900574 450.71798706
119.90599823 137.43600464 356.36898804
99.55000305 202.45599365 341.29800415
85.13800049 158.71398926 505.13601685
100.62299347 267.78900146 465.95800781
127.41600037 250.08898926 387.09701538
132.05699158 155.77999878 448.33801270
198.14201355 189.26100159 408.33398438
114.96499634 214.21299744 343.91998291
164.50500488 131.93600464 370.82800293
86.84100342 257.48199463 444.08801270
65.29100037 212.23600769 485.10800171
123.98600006 260.67001343 460.13598633
198.61500549 202.90200806 403.10400391
72.49200439 160.13600159 362.65899658
103.36399841 159.97601318 477.18798828
156.31001282 181.43199158 360.61999512
89.50699615 220.46699524 352.41000366
96.06999969 98.12300110 436.64398193
144.26199341 159.59199524 442.38299561
134.30699158 206.66598511 418.19097900
206.19699097 215.73199463 385.55599976
180.85800171 167.17399597 392.49700928
70.45999908 230.87799072 403.93499756
149.46099854 110.98899841 368.86798096
76.15999603 245.30300903 438.99700928
144.44099426 209.64399719 422.52499390
61.49200058 181.96299744 383.25000000
131.54800415 241.36799622 446.45898438
86.84600067 194.86099243 481.90899658
99.21699524 111.82700348 462.52899170
84.03299713 173.92199707 505.71102905
103.78699493 109.25900269 371.11898804
92.40999603 132.18299866 363.66299438
94.22799683 264.66699219 448.61901855
118.79599762 103.69600677 437.01800537
158.87199402 292.57199097 428.60800171
111.19999695 99.73300171 445.74499512
61.21500015 212.69799805 460.77700806
144.55400085 229.57899475 446.44100952
98.39600372 172.23300171 341.25997925
131.13200378 161.98100281 348.70700073
63.09500504 221.09500122 414.96301270
155.16200256 157.00698853 429.78601074
149.10299683 244.37400818 378.87701416
168.92799377 150.39700317 372.58099365
118.84800720 258.98297119 400.17398071
163.38999939 200.12899780 431.17098999
64.25900269 224.36300659 449.90600586
115.91899872 86.74500275 410.29400635
85.23999786 136.32200623 494.50701904
73.25799561 138.11399841 385.94201660
116.62599945 112.37000275 440.74401855
130.08700562 272.91598511 410.22302246
202.03900146 254.37799072 388.60101318
139.40000916 108.46900177 417.25601196
156.49000549 144.98500061 420.53298950
107.81499481 91.02299500 404.47698975
148.02600098 260.43600464 441.11300659
191.83500671 223.08898926 415.82699585
114.60799408 262.29101562 406.37399292
199.49800110 201.63800049 421.72698975
112.41899872 146.31399536 460.16500854
95.87599945 264.23599243 460.01101685
89.01899719 184.20300293 491.45001221
159.98699951 167.62500000 439.95999146
171.90299988 122.80400085 397.08898926
61.31900024 150.66300964 442.21401978
138.44400024 282.41299438 417.65600586
82.58800507 212.70799255 453.90798950
157.93899536 262.37197876 433.28402710
187.35800171 255.76300049 383.78399658
56.12599945 202.41299438 414.03799438
129.70599365 116.50700378 361.26300049
95.66500092 264.82498169 432.61001587
141.72500610 135.35499573 426.48501587
123.49099731 118.40399933 434.81900024
158.19799805 126.25999451 367.89398193
94.60300446 105.71499634 385.34201050
73.27500153 150.49000549 372.44497681
132.73699951 177.90600586 416.70199585
76.72800446 148.40299988 501.34597778
62.42399979 168.37100220 389.05902100
95.90299988 192.62500000 469.97399902
166.77400208 292.42300415 419.38400269
132.50199890 203.11599731 438.90698242
112.03900146 117.70000458 362.34899902
128.58200073 88.74400330 385.93399048
158.85099792 273.86502075 434.23599243
163.09800720 183.93699646 430.87399292
83.56399536 134.53199768 369.55197144
65.01899719 211.23899841 380.55102539
126.62799835 226.78300476 438.97399902
134.39999390 287.82901001 463.22500610
108.64400482 193.56300354 446.63400269
162.22200012 180.87800598 447.65798950
104.10399628 223.09300232 348.55599976
71.17700195 203.34700012 498.74301147
114.13899994 279.56500244 432.32299805
216.76799011 224.58801270 396.40600586
188.76600647 201.60800171 431.43399048
71.42700195 124.03599548 454.61499023
71.74800110 128.21899414 410.38299561
115.32199860 270.22799683 415.07000732
198.70300293 228.05400085 383.49099731
77.03099823 225.34100342 375.38400269
161.21899414 94.07599640 393.20300293
63.15500259 147.75801086 407.56198120
66.32799530 189.69799805 366.72500610
136.24699402 120.66099548 425.74700928
117.45099640 127.45599365 444.77700806
75.51699829 128.21101379 392.16101074
181.64099121 182.53399658 436.68499756
220.94699097 234.75700378 392.30599976
172.01499939 285.85498047 419.82299805
194.25000000 216.48500061 413.23400879
167.80599976 106.11800385 378.50299072
152.18299866 137.42799377 361.75399780
127.48799896 165.04299927 425.52899170
177.14700317 205.70899963 435.41601562
61.46699905 195.97000122 381.03298950
94.87599945 225.97399902 452.55499268
173.56799316 129.62399292 377.11099243
61.61199951 180.54998779 503.07101440
68.28500366 219.50199890 472.55798340
78.92900085 160.98600769 511.37899780
143.22200012 276.31198120 409.75799561
130.08399963 193.10400391 345.04397583
148.05599976 84.70900726 389.28298950
165.43499756 265.54699707 387.93099976
116.21800232 240.25500488 450.17098999
135.10600281 211.37399292 426.55300903
151.15899658 90.76700592 382.08300781
185.60600281 192.04499817 388.59399414
90.67100525 149.32000732 352.23599243
60.23199844 182.91200256 391.05401611
114.36199951 162.26998901 464.73501587
102.09400177 95.32599640 400.23800659
126.59700012 221.87500000 420.39801025
128.81900024 139.95799255 355.58599854
155.06399536 134.56900024 416.07699585
102.99299622 193.54901123 461.42599487
147.62599182 201.54499817 416.09399414
167.62399292 172.82299805 413.06799316
178.13398743 182.50498962 403.30099487
117.32499695 222.53199768 448.50097656
68.07900238 170.51998901 512.73797607
86.96799469 105.40899658 426.42401123
110.28400421 274.82400513 474.35598755
55.67900085 181.44599915 451.03799438
113.83200073 96.67400360 380.18099976
91.31900024 254.86001587 415.72799683
151.93099976 196.29600525 423.81500244
55.26499939 189.19299316 450.11700439
87.49800110 114.78199768 472.50399780
86.27399445 107.43699646 449.22000122
170.57000732 243.82499695 428.65499878
104.97599792 255.99301147 465.85101318
93.25900269 102.02799988 409.17599487
189.34599304 168.22299194 414.80899048
71.28600311 213.40499878 367.63000488
161.58999634 273.37500000 398.42297363
56.87899780 166.10099792 444.65301514
57.08400345 179.92100525 468.19699097
140.12800598 181.93299866 349.58499146
77.84799957 129.93399048 483.41598511
126.33599091 125.94599915 358.94900513
112.36699677 155.68000793 345.58599854
86.01800537 249.67999268 458.01498413
148.21800232 292.67199707 447.23999023
182.90299988 234.59799194 421.20401001
138.94200134 180.19400024 444.16799927
72.15599823 133.75500488 480.62500000
153.63700867 232.21301270 443.19598389
69.95500183 151.12799072 495.22000122
162.69700623 220.25900269 374.43798828
164.55101013 105.47299957 394.85202026
195.49800110 214.48600769 383.06298828
178.01399231 146.12100220 383.38800049
123.33100128 85.63599396 395.08599854
149.35099792 152.45599365 358.49099731
123.39700317 276.44900513 472.28698730
205.50000000 241.45401001 401.36297607
133.84899902 231.98500061 370.26101685
122.26899719 200.36500549 341.87799072
61.91299820 147.17700195 421.90200806
134.62699890 224.46400452 368.70397949
83.18299866 206.52200317 349.66299438
89.98200226 240.45098877 461.44299316
102.58100128 181.86500549 341.00299072
137.27000427 192.64698792 350.41799927
143.72399902 275.04901123 452.37200928
98.64400482 198.41299438 456.03100586
56.64899826 173.66600037 423.47698975
170.95401001 276.26400757 397.06399536
118.80000305 120.76000214 440.22598267
67.79299927 225.69499207 397.91699219
59.13599777 176.85499573 487.22299194
171.88800049 192.39201355 384.62600708
78.47299957 244.22499084 414.88299561
195.73800659 197.89999390 414.82498169
128.43499756 98.82099915 373.03399658
165.38600159 160.28900146 422.44500732
172.51600647 155.35099792 412.53799438
136.68499756 186.00199890 432.49099731
192.59700012 206.33700562 381.65399170
152.84700012 84.83900452 396.90899658
149.24398804 119.38200378 414.97100830
166.93800354 180.87400818 373.31399536
144.26699829 146.10000610 429.78201294
197.50300598 174.57400513 413.22799683
126.50799561 186.11399841 341.69097900
96.90399933 260.64398193 420.10098267
129.50000000 279.10900879 469.83901978
156.15800476 202.23200989 426.42098999
183.74400330 143.35099792 392.08798218
166.23599243 256.20401001 380.93099976
124.27400208 162.34800720 419.29998779
92.05899811 144.15100098 357.32702637
175.25700378 236.51100159 427.82000732
93.34999847 104.36399841 459.96902466
101.96700287 271.07000732 434.72497559
91.51699829 208.51100159 451.85198975
91.31999969 237.60899353 388.02798462
60.37899780 207.71099854 389.83499146
197.90400696 188.34700012 416.15600586
61.65700150 218.97799683 435.68200684
158.26199341 280.76898193 407.58700562
175.75601196 134.72099304 399.87399292
82.54199982 151.66699219 356.12899780
182.75601196 134.12800598 392.18801880
161.63299561 239.62699890 378.56500244
105.59099579 144.46798706 470.63400269
181.21099854 215.14700317 378.82000732
188.88198853 192.85499573 437.59799194
164.77900696 115.36700439 373.47000122
159.41700745 151.38900757 420.04000854
165.59199524 246.56799316 378.61898804
111.47399902 213.06001282 451.08898926
86.97699738 152.49499512 502.54397583
195.31799316 195.38400269 426.13598633
191.66000366 209.71701050 415.32702637
190.85000610 200.90199280 410.31900024
153.25199890 285.61700439 416.14498901
169.63200378 176.78999329 387.19699097
130.76600647 284.48999023 428.28900146
140.82199097 123.27200317 361.04000854
148.79299927 106.05899811 409.58300781
146.45899963 291.20001221 437.47399902
63.31700134 147.25099182 473.97598267
162.08200073 98.55699921 379.02999878
178.72200012 285.78601074 408.00900269
64.17000580 194.84800720 505.48498535
55.63800049 174.54199219 433.67999268
123.90299988 224.47399902 362.02499390
148.03700256 165.83999634 446.13000488
98.73200226 96.10400391 414.41500854
59.85499954 151.63700867 428.75201416
139.68099976 110.63899994 365.87100220
152.34500122 272.52999878 442.53500366
144.69599915 281.41799927 414.85101318
114.07399750 169.65100098 424.08401489
95.37200165 100.69899750 402.31698608
70.39699554 235.64698792 440.91299438
122.73699951 270.92498779 467.48501587
104.10600281 93.85800171 445.21099854
103.62300110 239.96099854 386.42300415
61.33599854 217.72499084 423.32101440
112.34000397 230.13299561 361.77999878
143.60299683 200.32598877 426.96801758
199.03700256 258.61001587 402.49401855
124.68099976 163.89698792 346.27801514
182.09800720 165.07800293 384.75900269
62.49900055 162.83799744 397.59799194
96.63400269 183.75599670 480.17401123
64.06400299 211.05799866 491.73098755
80.77400208 114.38299561 413.40197754
169.78100586 157.72299194 372.13000488
147.34899902 273.18502808 403.86099243
196.65299988 201.46299744 385.34997559
121.16899872 279.26300049 421.88299561
114.85700226 243.25099182 382.74499512
66.48399353 135.89300537 460.53100586
83.58300018 107.67600250 432.69900513
165.98999023 272.07800293 422.88101196
122.16500092 240.33999634 376.55899048
54.47900009 179.45899963 439.59298706
159.13499451 126.43000793 410.66299438
76.81600189 171.39799500 351.82699585
128.39500427 104.23199463 368.91201782
64.07499695 215.05700684 476.74301147
176.70500183 224.58699036 431.16998291
123.10900116 150.77899170 348.54400635
55.75299835 188.69599915 414.92300415
141.93501282 191.17300415 432.74398804
113.41399384 89.91199493 392.18301392
95.40799713 143.93000793 488.92901611
98.52600098 233.55300903 451.32501221
89.33200073 221.69299316 454.31500244
66.70200348 169.43800354 372.54199219
181.49200439 212.91700745 427.16198730
208.16500854 203.91200256 392.05398560
102.37400055 180.18400574 473.09197998
61.35400009 145.99800110 448.96298218
133.26300049 230.15600586 423.25799561
198.65100098 181.40499878 404.92300415
154.91000366 207.04899597 367.39001465
215.25999451 222.16400146 386.24099731
210.61801147 253.39001465 398.69201660
111.68599701 130.17498779 358.86801147
128.57699585 254.02500916 452.32202148
165.47100830 287.81701660 433.17999268
142.41600037 190.49400330 418.90902710
119.89299774 150.44300842 455.96798706
145.16400146 219.75498962 446.34197998
137.89799500 104.21500397 369.02099609
130.34201050 126.46800232 432.02200317
90.00500488 233.71000671 460.27301025
185.43499756 180.29199219 389.83499146
69.42500305 131.43199158 471.79998779
77.47600555 203.81100464 490.50900269
63.31200027 174.22898865 504.92001343
145.20199585 287.20501709 425.87500000
142.21200562 264.13598633 393.75497437
146.78999329 283.39700317 456.76199341
59.36900330 191.11199951 479.32199097
71.04299927 181.82699585 511.78402710
148.75399780 177.62300110 445.95401001
90.89800262 114.79399872 376.79800415
84.71600342 192.72099304 345.96401978
57.79199982 192.16500854 463.43698120
165.37800598 178.73199463 442.04598999
120.07099915 186.99499512 338.43698120
183.13500977 157.54200745 400.01199341
167.47599792 284.03100586 425.28302002
83.40799713 142.34001160 372.66497803
57.67799759 194.46598816 398.90997314
73.79100037 158.22898865 508.17001343
131.58099365 254.60299683 389.95098877
102.52399445 123.38700104 462.19799805
201.39799500 262.50900269 397.03198242
168.90800476 283.90197754 405.64401245
68.80200195 205.01499939 364.96798706
103.98100281 102.87900543 378.98001099
134.54901123 274.65298462 462.08999634
126.26699829 84.09700012 421.21801758
86.83600616 112.61299896 389.90701294
156.44000244 232.38099670 376.62399292
95.02399445 119.91899872 475.05798340
66.62000275 147.21499634 485.23599243
139.04899597 262.32901001 447.22698975
81.20200348 206.58000183 476.57998657
122.65399933 283.69000244 435.77700806
59.81100082 155.18200684 466.07397461
149.93299866 223.92599487 370.64700317
126.08798981 209.52198792 347.77099609
97.81900024 99.77000427 452.35400391
57.54499817 168.14700317 458.53497314
226.14700317 217.58200073 390.77301025
81.82799530 224.21299744 364.89999390
131.83799744 146.87399292 443.01199341
117.19900513 100.52199554 375.16702271
98.35399628 233.59799194 375.12002563
141.34399414 174.63000488 426.91400146
89.82499695 160.22799683 346.33801270
116.89399719 227.48098755 357.87200928
54.86899948 187.35800171 436.55401611
73.57199860 239.22500610 451.40600586
74.12100220 186.11000061 355.29800415
60.25400162 195.02699280 499.73800659
65.22399902 136.41000366 449.79598999
131.05900574 189.05299377 431.15899658
152.33300781 217.64900208 441.97799683
105.94499969 138.18000793 361.37500000
106.76799774 276.94799805 445.33898926
193.96600342 267.86999512 386.18402100
58.59000015 168.98500061 410.02200317
85.51000214 111.11499786 404.05099487
103.55699921 167.58898926 340.89199829
149.20599365 118.23700714 366.40899658
78.42200470 115.25099945 432.33099365
79.58000183 112.88899994 445.53900146
69.14400482 233.97099304 418.24298096
79.58300018 240.69599915 459.52999878
92.67400360 200.91700745 456.36401367
76.40799713 135.52999878 380.16998291
157.50799561 254.55599976 383.82000732
190.29200745 270.95199585 400.46398926
165.36499023 242.99000549 432.71801758
156.93099976 167.45999146 360.85598755
165.22799683 138.88999939 409.79498291
89.31300354 175.46400452 344.16101074
113.45899963 281.37399292 456.30999756
79.14399719 142.32600403 497.90100098
175.32398987 183.40200806 434.54098511
141.31700134 210.01799011 441.94000244
88.15799713 106.09299469 419.77200317
215.36099243 249.55599976 390.36499023
91.44999695 121.71900177 368.63000488
90.55599976 234.47799683 382.42599487
176.80400085 122.81900024 392.35202026
132.64498901 185.25099182 421.16601562
83.40599823 127.60399628 372.39599609
56.15000153 175.63000488 446.52200317
188.46499634 165.79901123 404.81698608
106.58799744 106.17900085 449.98602295
134.54798889 207.17999268 433.28900146
123.72999573 272.02697754 411.49700928
196.21400452 185.52200317 392.22500610
185.15400696 179.67700195 424.47500610
88.31199646 246.41999817 405.00000000
87.41200256 254.19598389 421.22201538
59.99099731 188.22300720 385.69799805
135.83200073 167.05200195 348.78097534
130.85398865 210.69000244 421.78100586
142.00100708 168.38900757 353.06298828
167.03900146 264.55300903 421.99002075
64.23600006 176.86698914 376.20700073
68.64500427 137.67201233 400.65499878
124.20999908 179.44499207 425.83200073
89.18300629 198.69700623 468.50000000
148.80500793 236.29899597 376.04998779
209.44898987 230.63899231 400.18002319
152.09500122 159.36000061 435.44097900
207.57800293 207.79000854 400.14202881
100.02799988 168.56401062 482.40499878
71.23000336 237.77299500 433.43298340
116.07400513 201.10099792 340.59799194
185.21900940 275.14099121 392.72698975
147.52400208 176.77200317 425.76101685
120.77700043 247.78099060 387.20300293
65.65299988 144.28100586 479.22302246
125.39200592 266.99298096 462.63302612
165.50000000 209.53900146 432.64099121
78.26300049 246.91900635 449.14401245
65.46500397 225.87600708 437.27600098
104.72599792 94.88199615 393.18298340
67.42200470 133.67300415 431.87799072
89.14299774 123.92900085 482.29598999
128.05099487 103.95800018 425.65798950
168.20899963 169.27200317 368.78201294
78.13599396 122.12999725 397.60101318
190.24400330 241.02400208 415.19900513
155.10700989 262.93298340 388.79498291
159.85398865 254.37001038 434.14498901
105.02999878 266.29299927 470.48300171
117.24600220 219.54199219 347.99298096
152.03500366 288.44000244 422.72201538
177.30499268 197.88800049 436.43399048
91.42900085 186.58599854 485.46499634
77.74599457 212.14799500 472.25299072
173.50000000 198.13301086 382.57598877
65.60900116 156.60198975 396.44100952
116.83499908 185.60899353 448.91198730
183.16000366 154.10499573 392.82598877
78.47700500 156.44999695 356.58599854
94.07099915 141.62799072 363.57699585
200.28300476 217.48199463 407.74600220
135.97099304 242.67500305 378.44699097
100.28800201 153.46600342 481.22900391
100.30599976 125.26499939 467.96899414
58.22600174 161.68899536 465.75997925
138.25399780 159.19099426 446.51400757
167.57800293 196.16999817 433.62100220
198.77400208 269.73599243 395.45199585
179.33499146 154.39399719 384.32699585
103.44999695 236.93800354 449.47497559
156.92800903 170.69099426 445.45901489
88.49500275 258.75799561 433.38299561
83.56700134 235.88999939 391.30599976
135.85899353 173.88899231 348.64801025
137.03900146 152.79600525 353.76599121
122.17600250 237.86700439 444.99499512
127.34800720 243.25999451 378.39697266
165.61700439 167.32600403 428.38998413
56.84499741 167.05400085 438.50897217
132.12998962 233.86700439 446.15798950
59.73200226 193.50700378 485.04098511
96.37400055 244.16600037 458.07098389
84.24200439 201.20799255 477.20797729
127.24000549 233.56900024 371.22601318
57.26300049 187.62600708 402.40200806
57.98399734 165.15399170 470.98999023
159.40199280 175.81700134 362.32501221
68.76599884 154.81300354 391.14901733
111.46599579 146.56999207 349.69000244
56.99399948 206.42599487 446.29998779
121.77700043 84.97399902 411.23101807
56.72000122 200.44999695 407.93499756
137.70399475 288.86999512 457.63998413
100.86999512 205.89700317 451.07800293
179.52099609 275.90701294 408.38098145
175.95899963 218.30700684 378.08801270
58.15400314 211.35499573 414.68499756
57.22499847 185.28700256 463.53097534
62.47600174 157.80099487 487.46899414
97.22200012 253.53900146 407.50100708
194.82499695 170.74699402 417.24600220
137.54899597 205.55700684 356.64001465
136.91600037 83.78499603 412.71099854
96.37899780 229.78300476 360.03500366
88.35099792 241.02699280 394.95599365
74.54600525 239.68000793 412.92199707
194.25900269 222.17401123 383.08001709
76.36900330 186.85499573 503.53698730
142.53500366 95.86199951 412.34399414
121.51200104 201.74400330 446.53799438
71.20099640 125.58500671 431.08499146
164.15899658 163.05198669 365.71401978
82.75099945 251.87799072 424.69799805
120.09400177 138.14599609 450.13201904
168.73399353 143.22698975 372.18899536
115.66799927 108.81300354 367.75100708
208.70800781 239.23500061 385.90402222
139.33999634 181.26800537 436.03399658
187.96699524 172.60200500 395.88497925
86.48099518 107.17300415 455.88601685
96.22699738 150.10499573 349.79400635
61.63199997 163.41899109 404.35202026
70.90000153 211.58898926 487.72601318
58.84400177 160.12699890 452.21499634
140.03401184 218.74299622 416.90899658
109.21599579 106.51200104 371.65002441
182.04200745 265.25698853 407.11901855
177.17399597 247.25799561 420.94000244
57.45899963 173.11599731 469.15200806
146.68099976 272.36102295 447.70602417
194.69699097 205.31300354 419.80697632
100.19499969 147.57800293 479.68099976
150.97200012 180.69499207 439.50302124
220.56900024 213.71899414 388.13598633
92.52799988 192.91099548 475.04800415
84.52799988 255.90499878 438.29101562
187.79798889 264.47299194 402.66201782
99.57700348 132.34899902 475.01098633
128.71499634 147.74400330 351.76501465
73.66799927 228.55900574 461.26602173
178.79199219 253.18699646 381.07699585
191.22000122 174.62699890 423.33798218
130.06800842 226.45500183 444.51800537
225.16099548 226.22300720 390.46002197
62.94099808 144.31999207 440.15600586
162.02198792 192.83799744 367.35598755
81.92099762 215.32000732 354.50698853
185.12100220 246.74700928 414.44000244
174.54299927 171.66799927 374.40899658
215.70600891 254.67700195 393.57501221
90.32299805 231.23100281 369.93200684
119.36199951 195.69200134 444.25201416
171.84199524 226.95199585 378.04498291
151.42401123 249.40399170 381.30099487
143.73500061 197.41598511 357.58999634
88.49500275 203.42700195 345.38000488
150.29600525 137.26599121 421.18600464
77.29899597 166.78500366 511.83599854
197.57400513 183.06399536 419.06698608
78.93600464 210.71499634 464.01300049
106.90599823 199.42500305 448.81100464
121.96499634 98.89499664 434.26000977
187.82398987 171.96600342 410.01400757
66.57499695 135.64999390 467.08599854
137.06700134 167.05999756 450.65399170
107.67199707 272.23300171 425.97799683
137.48599243 115.83399963 363.73098755
153.22200012 292.81698608 450.85202026
60.55999756 163.84500122 485.82501221
67.20700073 181.30000305 364.10900879
170.41499329 214.65499878 433.78201294
116.02199554 124.05999756 358.52600098
168.91099548 133.07400513 405.14401245
136.73699951 93.32600403 377.89700317
165.34700012 277.98901367 424.51199341
116.54000092 216.58499146 448.81600952
150.47801208 146.41700745 424.85601807
156.22999573 98.94599915 401.72799683
115.38100433 87.54100037 398.46499634
196.42999268 174.57699585 405.03201294
125.89299774 172.32600403 343.60998535
62.88199997 144.75900269 459.78601074
132.63200378 115.16500092 425.73699951
110.20500183 93.41199493 444.81701660
76.05200195 121.50000000 407.92501831
145.89999390 208.95199585 416.75399780
55.56700134 182.42199707 414.94900513
132.49400330 180.45201111 446.63302612
71.40299988 226.15200806 389.21298218
163.43200684 292.80200195 424.33200073
60.68899918 174.52799988 492.53500366
71.92800140 155.86199951 370.18701172
58.64500046 213.96499634 445.60198975
130.34300232 82.19700623 408.59100342
102.89700317 141.65699768 357.09301758
107.69000244 119.65100098 452.36300659
164.52500916 234.13999939 436.48202515
172.13499451 268.03399658 387.61801147
182.81500244 231.01699829 378.54598999
112.59199524 224.82901001 350.80798340
173.47698975 273.72802734 414.59899902
133.78300476 283.49301147 421.88598633
115.18900299 137.94200134 454.06100464
175.96400452 271.87200928 390.54699707
144.12400818 213.15600586 365.49600220
137.98500061 96.01000214 416.78900146
118.81600189 85.58000183 427.98699951
70.90499878 144.16499329 490.03900146
91.75600433 256.86700439 459.70800781
158.08799744 141.34800720 364.47201538
163.48100281 99.46900177 392.21298218
168.53800964 189.33399963 378.09899902
177.88299561 210.91600037 431.41497803
173.20300293 246.45700073 381.29898071
108.61699677 215.82199097 344.26501465
134.47200012 287.86401367 439.22900391
101.68900299 188.90299988 466.93798828
137.06199646 250.99400330 384.77297974
171.61700439 122.47899628 376.36798096
79.41299438 233.10301208 463.60998535
101.93000031 232.43499756 367.69802856
76.48500061 123.42700195 474.54699707
145.51499939 157.41400146 356.11798096
171.14601135 221.68399048 433.92700195
59.36700058 189.58200073 492.55697632
64.57599640 224.31700134 421.43399048
115.25599670 92.81100464 387.00802612
153.81599426 193.58299255 429.71102905
105.10900116 192.07600403 338.69799805
155.36700439 177.17500305 448.66897583
185.88299561 211.57400513 379.24700928
216.81500244 241.84500122 394.63101196
147.55000305 175.29200745 355.68099976
57.72900009 162.83599854 425.30300903
80.63800049 193.48500061 493.94799805
120.17499542 167.12699890 458.77099609
124.10900116 105.80599976 430.54101562
134.10800171 130.86601257 431.02301025
158.80200195 294.19897461 439.43499756
60.23300171 169.83000183 397.12399292
75.69000244 120.89099884 420.79299927
89.47800446 142.74301147 497.47299194
167.71099854 204.10699463 432.85302734
98.83700562 208.63099670 341.74099731
140.45300293 150.84600830 437.53100586
99.51000214 178.53799438 479.23599243
63.18400192 168.51901245 497.67498779
146.24198914 123.93900299 363.15301514
174.92500305 255.42100525 419.47497559
119.25199890 167.82400513 416.80599976
177.31500244 263.71801758 383.65701294
172.63198853 180.14900208 403.80297852
177.36700439 203.58599854 378.44699097
132.32199097 169.90699768 428.16098022
164.69700623 127.22100067 406.25302124
59.17900085 200.83500671 388.87301636
74.81499481 119.06099701 444.59097290
138.01600647 140.63200378 356.13598633
85.06999969 186.28900146 495.21099854
137.85900879 88.49700165 385.00698853
95.00200653 187.04000854 340.90899658
161.89199829 288.93099976 414.73300171
141.41499329 114.58300018 418.40499878
114.42900085 87.48400116 436.32800293
111.38999939 233.79200745 374.31100464
72.43999481 221.43200684 460.62200928
154.27301025 270.72299194 398.10601807
95.79199982 111.33599854 375.31900024
178.80599976 163.87399292 379.67602539
91.32800293 101.46299744 422.08901978
65.38099670 218.21899414 459.65399170
134.93600464 270.69000244 457.69000244
111.34100342 185.06399536 459.28698730
116.14400482 161.64900208 343.64398193
153.03700256 186.15399170 359.78900146
136.72399902 220.30400085 446.44702148
167.21800232 288.72399902 412.14199829
114.74700165 87.28100586 417.72900391
172.13200378 264.19400024 416.68899536
105.94200134 253.59600830 402.56900024
173.37800598 145.14900208 406.56997681
206.69799805 258.23300171 391.08398438
79.44499969 115.04799652 457.69100952
175.65100098 168.29699707 394.78799438
196.95399475 193.56698608 399.26699829
128.41999817 287.16201782 447.18499756
200.43299866 227.38999939 406.35400391
130.91300964 83.30599976 399.48898315
110.48000336 172.75799561 462.94598389
163.78100586 147.52101135 415.40301514
112.79199982 155.13299561 464.96298218
57.74900055 206.47700500 399.63400269
134.86399841 193.03700256 428.95098877
84.16999817 229.66699219 462.00497437
147.04299927 125.47799683 419.08999634
153.81201172 279.69299316 445.75302124
73.55699921 220.18200684 372.50500488
121.94200134 230.43000793 440.47299194
103.90299988 92.60099792 410.30697632
168.41600037 119.50600433 400.29098511
66.51700592 227.10000610 409.33801270
65.29600525 202.47499084 369.62802124
209.54899597 244.37400818 388.94097900
86.55699921 185.83999634 345.46899414
66.77100372 155.90299988 494.74700928
183.06199646 263.76400757 383.40301514
203.55700684 221.93499756 405.30899048
159.30398560 289.85501099 445.26202393
112.10200500 189.16999817 453.30599976
172.11000061 181.82499695 430.05099487
128.82499695 196.48901367 439.76699829
68.94599915 191.83699036 362.10000610
122.08200073 130.22700500 442.75701904
186.58599854 276.38800049 403.13598633
219.88000488 229.37800598 393.94000244
143.42900085 162.88900757 353.72900391
118.95299530 224.97799683 435.84298706
202.06900024 253.82598877 403.27600098
83.79600525 244.43000793 460.52600098
105.19000244 216.12699890 451.26901245
103.66900635 138.14300537 470.07598877
74.04299927 133.27899170 389.97000122
179.13800049 169.51499939 386.79998779
182.93899536 227.19900513 425.07699585
120.24199677 156.27301025 457.21899414
155.29899597 157.06199646 361.10800171
75.56100464 215.62899780 362.81799316
94.93699646 213.01499939 452.54400635
218.26399231 210.46099854 394.43399048
174.83801270 118.82299805 379.30899048
83.19499969 148.58999634 504.22698975
212.41200256 217.23901367 386.11901855
119.32800293 176.18099976 340.94400024
106.37699890 89.93600464 418.09500122
81.18999481 183.25799561 348.68197632
58.20800018 174.14300537 404.58801270
180.70399475 280.70101929 399.73800659
131.03300476 221.87699890 429.02697754
80.34400177 171.66400146 509.67199707
99.34899902 95.77299500 431.39099121
91.42500305 132.80200195 487.68801880
97.83600616 156.51799011 485.54901123
231.23899841 218.34400940 384.79199219
80.90000153 147.54499817 362.73101807
173.92900085 112.75900269 387.57199097
146.18000793 205.10501099 437.69799805
64.14099884 216.90200806 469.69699097
135.65100098 286.92999268 432.50701904
114.13399506 175.67401123 455.06500244
138.37699890 195.13999939 423.55700684
65.30699921 162.19801331 385.67901611
59.17399979 180.28199768 395.95498657
73.60900116 163.38400269 358.00497437
149.31799316 87.91399384 403.92700195
55.44599915 199.68501282 443.99197388
186.38299561 242.25099182 383.61700439
140.71199036 81.99100494 402.66799927
211.53199768 225.43099976 399.46899414
78.53399658 196.73500061 350.69201660
144.08500671 255.69999695 386.17700195
116.50100708 230.71600342 370.02099609
55.50999832 193.75799561 412.42001343
192.55099487 257.93298340 384.30499268
151.27200317 177.61000061 433.56100464
197.74499512 246.20201111 386.24502563
172.38700867 233.47200012 432.55499268
199.76000977 239.68200684 384.26501465
211.10301208 246.81500244 398.56698608
74.60500336 205.14500427 357.16799927
136.61000061 207.97399902 439.57800293
139.47099304 285.77798462 466.37298584
68.13600159 172.04600525 365.33801270
159.99501038 279.27301025 435.22900391
124.04199982 220.38499451 440.80798340
128.02600098 269.09399414 405.90899658
63.44100189 143.45700073 417.98498535
56.49399948 206.85699463 417.59802246
132.03900146 218.89599609 413.78997803
60.21500015 200.03601074 489.04998779
186.73999023 248.88299561 383.82199097
96.50199890 96.84299469 419.50299072
160.10099792 107.46199799 401.24301147
109.44799805 89.57900238 434.47399902
125.06699371 204.90699768 344.78198242
146.92999268 92.87400055 379.09701538
175.37699890 192.71501160 435.56298828
95.30599976 149.73600769 490.08798218
179.86099243 164.69599915 404.99301147
143.16600037 169.39399719 448.71099854
133.84799194 212.00999451 359.69497681
72.46099854 240.31098938 438.63897705
133.25199890 130.60900879 358.50097656
81.63200378 181.62500000 502.33901978
73.14299774 129.49598694 401.74200439
155.57199097 109.52799988 371.26400757
126.12899780 92.04199982 382.14999390
150.91200256 131.79301453 363.01101685
87.55799866 243.39999390 399.93499756
72.85600281 235.46800232 407.97299194
99.34500122 245.17098999 394.90197754
85.23300171 222.46299744 357.24801636
67.67199707 207.44700623 497.36499023
159.16999817 276.33898926 402.55001831
73.90800476 153.19299316 501.64801025
133.87799072 157.21600342 351.27301025
63.12300110 204.08399963 376.75299072
98.44499969 106.31100464 458.87802124
169.03199768 163.83300781 369.58502197
161.11799622 116.44999695 404.12500000
137.16099548 265.60800171 397.82800293
113.24800110 187.72099304 338.52999878
88.94400024 148.13500977 499.72000122
138.17399597 217.87500000 365.59500122
147.20100403 288.32901001 459.27499390
168.00900269 196.62500000 373.05700684
89.57099915 107.89900208 398.20599365
132.92098999 254.21598816 448.87799072
119.35900116 161.22599792 421.60498047
96.94900513 166.53799438 489.93798828
126.02600098 217.48500061 352.72000122
80.91100311 197.94000244 490.15399170
103.71000671 267.10098267 422.66400146
60.80799866 216.08399963 428.58401489
85.62400055 202.62199402 470.10498047
134.53199768 201.19599915 351.76101685
54.67300034 184.68501282 426.44000244
114.31500244 174.34500122 421.16400146
162.38999939 119.71399689 371.03201294
172.87098694 151.94599915 376.12701416
129.93399048 175.55500793 431.39202881
183.70700073 163.05700684 395.03500366
185.92199707 181.61000061 432.04000854
142.00801086 125.98699188 423.21801758
180.54800415 270.56100464 407.50900269
112.50600433 205.35800171 448.79202271
170.08000183 168.98500061 404.79299927
125.28100586 90.62000275 430.10800171
82.90900421 113.83700562 468.00900269
106.00200653 136.06999207 464.70300293
104.65600586 156.67599487 344.55401611
185.52301025 176.84100342 411.13800049
86.84700012 255.71400452 426.47900391
96.84199524 102.36500549 390.86599731
162.64300537 205.63200378 427.68402100
157.72599792 88.99000549 396.27600098
80.64500427 127.44400024 379.94400024
92.84099579 110.82399750 380.06100464
143.98400879 195.31098938 416.05300903
104.06299591 113.29299927 367.40100098
84.07199860 111.45899963 409.34100342
162.24198914 181.18600464 435.88598633
166.05700684 174.13999939 438.89498901
82.92099762 119.07599640 385.06698608
63.94699860 190.43000793 371.60501099
160.58599854 157.76600647 425.62298584
163.52799988 149.58700562 367.85800171
106.96399689 225.27799988 451.06900024
60.78900146 216.15600586 415.38800049
111.82100677 247.61299133 390.60400391
168.49101257 175.27600098 421.70901489
141.30799866 282.07901001 461.93502808
215.81300354 217.35900879 397.92001343
97.82599640 247.78399658 399.87399292
127.84999847 283.03500366 473.25198364
194.43699646 197.71600342 388.64099121
80.39299774 251.00401306 434.46298218
66.50099945 228.70999146 417.12200928
150.98799133 264.89999390 440.07901001
193.67300415 226.94699097 412.44400024
112.69900513 88.15699768 403.16702271
94.16999817 176.97599792 490.14700317
123.21399689 161.76699829 426.52899170
166.94599915 110.23200226 395.96600342
65.75399780 225.72000122 430.60897827
103.17800140 126.18599701 360.36801147
142.24598694 244.26199341 379.42999268
124.86799622 114.64499664 362.91598511
120.76999664 255.43400574 395.28500366
156.52600098 243.65800476 379.15997314
97.25800323 213.40599060 343.80999756
116.91100311 239.09899902 377.21401978
114.28400421 252.80201721 460.74398804
103.27600098 274.97000122 453.96499634
102.21300507 147.55299377 349.69799805
78.06699371 119.73300171 402.46701050
189.48799133 177.96200562 387.08499146
191.74699402 188.58599854 428.14700317
164.99400330 203.99600220 371.19100952
58.64400101 176.93600464 481.82800293
171.73300171 234.83300781 378.66601562
116.51699829 91.59500122 440.61599731
158.98999023 164.66400146 435.55398560
80.48400116 132.37699890 488.39599609
58.74300003 183.76699829 477.76098633
141.84600830 94.45300293 376.57400513
122.12500000 285.61700439 449.28900146
200.86799622 199.59199524 394.36401367
73.25399780 143.93399048 383.05499268
97.47900391 166.08200073 343.59298706
127.12800598 287.37100220 458.14801025
101.65499878 98.71900177 389.90499878
205.29000854 250.07998657 388.64801025
150.04499817 199.50599670 431.21600342
105.61600494 155.77999878 473.23199463
139.95001221 223.65200806 368.60598755
59.13599777 189.59399414 391.05499268
149.99000549 282.39300537 452.55099487
65.12500000 148.61199951 401.89999390
161.22999573 233.65699768 378.83499146
56.50099945 200.25700378 455.48800659
136.67201233 238.56599426 375.05499268
195.73800659 180.26300049 423.74200439
76.17399597 245.13999939 444.52700806
90.12900543 260.23199463 447.32000732
144.54199219 226.60499573 370.96099854
167.91200256 125.39599609 402.09298706
158.72200012 203.27400208 367.48699951
145.24301147 181.55999756 353.26400757
99.43599701 199.29100037 448.49499512
182.41700745 143.90499878 397.93801880
118.15299988 159.47399902 460.97799683
62.22100067 146.00799561 430.16299438
55.26699829 195.88400269 429.52200317
122.89600372 228.22499084 369.92800903
128.13099670 259.28100586 395.47698975
124.47599792 87.20000458 390.09500122
110.33999634 244.88900757 455.84802246
102.85900116 167.33399963 478.03302002
95.56300354 265.94201660 440.26898193
141.24200439 202.46798706 431.62899780
120.11100006 248.18499756 454.17498779
68.88200378 161.36999512 375.57199097
105.83399963 277.27899170 464.30001831
126.72099304 286.00299072 468.95999146
81.40700531 240.18399048 401.93399048
106.41899872 261.74600220 411.77999878
141.81199646 155.22700500 440.25201416
153.85800171 261.81997681 436.80502319
118.40800476 171.17700195 426.79101562
59.00600052 206.66400146 457.14599609
110.21500397 235.25599670 447.18099976
58.28400040 196.37399292 392.85000610
59.78799820 200.58799744 475.89901733
113.04900360 225.60099792 449.30099487
63.43799973 215.93699646 464.36599731
128.60600281 172.88400269 416.32501221
95.46600342 255.84999084 463.41198730
169.10900879 131.06599426 374.59899902
91.96200562 101.71200562 439.78399658
78.13700104 245.61599731 420.00000000
164.25498962 185.39099121 368.11798096
93.99099731 192.50201416 340.79598999
117.31700134 276.07101440 420.10098267
193.98899841 199.88900757 428.60601807
60.43000031 163.28900146 409.51699829
58.89099884 156.09300232 417.57397461
102.13100433 143.75500488 475.67300415
146.11299133 147.36199951 356.41799927
127.14700317 246.03700256 382.91497803
98.51699829 223.51300049 448.62500000
84.29799652 216.92800903 456.60498047
134.14601135 181.47599792 431.45599365
72.32700348 151.08399963 386.67999268
192.92399597 227.11700439 381.74700928
154.89801025 195.33100891 363.63500977
128.34899902 286.29101562 439.80599976
115.48099518 168.03599548 341.14700317
114.98699951 113.16600037 364.83801270
140.62599182 212.42498779 413.87600708
201.64900208 264.48101807 388.48599243
67.22299957 137.20799255 409.78399658
78.06400299 221.73799133 460.92901611
121.01499939 284.41699219 466.79498291
107.08600616 124.50800323 457.30902100
66.18999481 137.05299377 418.51300049
128.15199280 277.88299561 415.80700684
103.62699890 217.09400940 345.39300537
77.69600677 146.45199585 377.31701660
194.11000061 204.97000122 409.53698730
171.54499817 178.65599060 416.11798096
132.71400452 169.75698853 451.90100098
162.41799927 273.43801880 427.26098633
161.29399109 112.09700012 371.26098633
235.19900513 220.37200928 388.33401489
120.02500153 172.14199829 456.36499023
136.86099243 175.52900696 418.94998169
135.15600586 259.03698730 448.81799316
212.75399780 206.46299744 392.42999268
65.06300354 139.15499878 430.90298462
133.77099609 201.97999573 433.34500122
169.47099304 186.66600037 384.13101196
173.09799194 200.58499146 377.87600708
169.21600342 157.73600769 417.66101074
142.96499634 234.54199219 373.68701172
59.57999802 214.46000671 433.41198730
166.20199585 174.02600098 367.90798950
145.35200500 174.12400818 448.23101807
108.00599670 270.31600952 472.99099731
95.04800415 122.29399872 364.87698364
92.94400024 249.39100647 404.86199951
75.50099945 126.88599396 397.87399292
130.36199951 216.49299622 358.46200562
146.18000793 216.06500244 418.94998169
161.89999390 267.53802490 391.22302246
179.51499939 181.15599060 414.46099854
95.49299622 262.98699951 427.72299194
145.15200806 100.36199951 411.58700562
97.22399902 197.78999329 341.28500366
109.58499908 250.82901001 396.59802246
180.14801025 125.74699402 389.64099121
149.12701416 199.40100098 361.64797974
179.52500916 122.79499817 385.19702148
112.03200531 123.22600555 448.57000732
146.06900024 208.49600220 363.56402588
71.70500183 127.32799530 415.49301147
153.70201111 207.47999573 434.63000488
178.18099976 188.92900085 393.00201416
157.24200439 250.30299377 436.00698853
89.87799835 178.93600464 494.73898315
151.36300659 187.09098816 421.34197998
134.87599182 213.10000610 441.87997437
137.63000488 248.22200012 446.55200195
98.42099762 178.79499817 340.88702393
91.98300171 216.03999329 348.01901245
122.85300446 280.17800903 475.82598877
166.02299500 188.75599670 431.16900635
94.85899353 124.85600281 478.70999146
155.33000183 182.75900269 425.42800903
107.26799774 164.14199829 468.92102051
114.40200043 261.29299927 467.24200439
84.29899597 108.69400024 422.81799316
101.91100311 228.70799255 355.05599976
109.16899872 150.20599365 346.67300415
122.44000244 98.68799591 375.21499634
176.04699707 224.05999756 378.80200195
55.91300201 202.93598938 422.23800659
67.83500671 139.53700256 479.17602539
94.08399963 162.20300293 344.13098145
129.43099976 98.99300385 425.19500732
149.23800659 229.47700500 444.29598999
126.16400146 161.12699890 454.67001343
172.84600830 212.12500000 375.52401733
160.82299805 187.30000305 427.71398926
144.76800537 111.29199982 366.25997925
117.31400299 117.02999878 361.95001221
142.76499939 141.35499573 428.48699951
172.61000061 141.71699524 376.83099365
119.25700378 115.19700623 437.35299683
110.72699738 129.71299744 455.14700317
102.77300262 272.55899048 439.63198853
117.57399750 282.01199341 472.16299438
92.39499664 153.42399597 348.99801636
134.09201050 176.47200012 449.44699097
58.80900192 155.79199219 437.93499756
166.15701294 293.15100098 430.94302368
102.76699829 92.48300171 415.30200195
218.05299377 239.11399841 388.46902466
189.60600281 233.98800659 381.71701050
65.25900269 220.36900330 394.37500000
70.37599945 160.04598999 504.81997681
117.84300232 280.07000732 428.82998657
172.65299988 173.23100281 385.10998535
91.08000183 107.55100250 463.25701904
88.35600281 106.87000275 409.93698120
87.96600342 111.57300568 468.55499268
89.72100067 172.51800537 498.56399536
106.29899597 230.55599976 359.15197754
164.90100098 263.10198975 426.39498901
120.80300140 190.73399353 440.77200317
144.26499939 241.26499939 443.56301880
162.33700562 155.37699890 421.30999756
115.06500244 133.27400208 356.63198853
153.83399963 120.37000275 366.17999268
204.87100220 217.09500122 404.37799072
141.05099487 267.39001465 448.47500610
127.66799164 140.91200256 443.38500977
170.03799438 182.14599609 391.20297241
94.89299774 139.36000061 486.74600220
72.10300446 123.67900085 437.55700684
74.15699768 174.88899231 354.40399170
56.16699982 174.50300598 454.45999146
69.94999695 126.55599213 458.77902222
159.48699951 101.79199982 376.08700562
157.93800354 120.29199982 408.39401245
113.52799988 229.51699829 444.98699951
87.35399628 231.42599487 374.60699463
63.68199921 211.86900330 385.41098022
68.99599457 195.68600464 504.14501953
156.25900269 228.02400208 442.03799438
127.10599518 213.50898743 443.14599609
58.72600174 170.02299500 481.29498291
100.88399506 256.55499268 409.68002319
135.82600403 182.38600159 346.68600464
100.63500214 118.71899414 462.78900146
74.21500397 140.41799927 490.87701416
61.78800201 201.88101196 500.29699707
187.99800110 197.09600830 433.61300659
140.62100220 83.89499664 394.43698120
161.24198914 92.34300232 388.01397705
57.90600204 168.47099304 423.64999390
93.42200470 172.53201294 343.76300049
126.90000153 120.63399506 360.40802002
186.60198975 266.97201538 385.71499634
62.38500214 182.94200134 378.36502075
149.38800049 153.38200378 431.29299927
106.65100098 99.42700195 381.62197876
160.38200378 209.42401123 435.24200439
104.54000092 182.31298828 469.05899048
203.82901001 211.43199158 384.37799072
141.09100342 285.33200073 422.50698853
73.55500031 215.56800842 476.33297729
141.98699951 251.49899292 444.02999878
139.77999878 200.97100830 416.43701172
176.19499207 163.69999695 409.38699341
97.17600250 161.69099426 488.56298828
127.39199066 133.99900818 439.43597412
222.76799011 223.06098938 393.56900024
58.44099808 196.89500427 465.04797363
77.03600311 214.65599060 466.56900024
147.39799500 136.45899963 360.52600098
54.66199875 189.97499084 429.97900391
77.52600098 115.49900055 441.76300049
75.82800293 120.00499725 466.90100098
74.71399689 151.66400146 367.10400391
187.93399048 205.26100159 428.08599854
96.85500336 132.87800598 361.42901611
66.44999695 224.67399597 402.64801025
138.80200195 289.51300049 448.50997925
106.81600189 238.20300293 382.96801758
59.43700027 213.81900024 452.72299194
142.69400024 100.85099792 371.70700073
160.71400452 137.20999146 367.05099487
143.21600342 206.36000061 426.11199951
73.00200653 240.50801086 423.89498901
109.63999939 159.24600220 343.36001587
65.60800171 142.53399658 407.18399048
65.24299622 136.94400024 440.89999390
152.42098999 86.64300537 387.76998901
162.30400085 249.10398865 433.77499390
107.15500641 210.53298950 451.24700928
176.54000854 264.76300049 412.46701050
70.58099365 221.60600281 380.97198486
173.72601318 118.75000000 392.35800171
108.29400635 277.48800659 470.16000366
196.91699219 246.53599548 408.84701538
197.64498901 255.97900391 386.17199707
91.63899994 117.18399811 372.18002319
127.70999908 217.41600037 437.23699951
201.41899109 206.99200439 403.70800781
195.16400146 231.13200378 410.17098999
78.21399689 211.26300049 457.39099121
194.61500549 200.01800537 402.34100342
180.93000793 184.62799072 396.95999146
83.41400146 253.69700623 446.18298340
73.35900116 211.50199890 483.27301025
68.13800049 166.96299744 509.24301147
60.30799866 157.92100525 476.09399414
175.32600403 181.03199768 418.33599854
149.47900391 267.07901001 395.16299438
114.01999664 103.82500458 372.82800293
82.75900269 111.20300293 416.78698730
158.77200317 132.78199768 413.28399658
156.06201172 214.13000488 369.28900146
112.61199951 189.78799438 448.39797974
161.31900024 157.42799377 364.56600952
120.99500275 209.01200867 446.43801880
176.08599854 152.53199768 380.41497803
132.93299866 226.92700195 427.07699585
182.78099060 193.75799561 438.87200928
184.99598694 196.54600525 386.58599854
179.07099915 236.52600098 424.64300537
146.75999451 245.64201355 441.43499756
175.71699524 258.69799805 381.17797852
168.53601074 149.50500488 412.32101440
204.27699280 230.94700623 386.36801147
198.12400818 190.91300964 403.29199219
210.06800842 214.03999329 401.10299683
156.67800903 103.97000122 402.06301880
217.01901245 236.89399719 394.79101562
151.93000793 97.52199554 404.68798828
191.16400146 238.88899231 383.84899902
83.37100220 120.11000061 477.64099121
93.74299622 115.79100037 472.64599609
190.56999207 252.70301819 409.26098633
164.47299194 126.96099091 371.19601440
124.17200470 168.22999573 416.46200562
70.28599548 195.99800110 359.78298950
117.45500183 181.05099487 451.26501465
157.22799683 282.31701660 442.49697876
87.63700104 256.86401367 449.94598389
150.77799988 199.88299561 419.51699829
125.34099579 241.47599792 446.16400146
122.91099548 146.79699707 451.69198608
60.66299820 218.52999878 447.46398926
80.14599609 230.92498779 384.35900879
129.89099121 159.71200562 451.41198730
182.38499451 135.20500183 387.29901123
56.93700027 207.30300903 440.35501099
96.77999878 134.08799744 480.44299316
171.85899353 171.44699097 394.86599731
164.98799133 224.17601013 376.36398315
152.28800964 109.30100250 408.34600830
130.51100159 151.21499634 447.32901001
81.34300232 176.51000977 348.83499146
152.32499695 99.46499634 374.31900024
