ply
format ascii 1.0
element vertex 2048
property float x
property float y
property float z
end_header
290.24993896 277.58044434 463.43811035
293.47888184 286.01925659 465.81237793
295.60968018 274.25418091 463.63931274
297.94732666 280.90884399 464.03762817
132.95951843 182.64021301 559.26971436
124.51859283 188.90515137 563.52197266
136.01564026 174.21838379 548.53295898
126.04347229 180.01461792 551.14941406
125.35009766 165.24867249 505.41433716
116.84661865 173.34707642 506.22238159
130.49948120 163.10769653 495.64566040
121.85496521 170.25277710 495.46472168
144.66567993 158.49400330 504.49432373
134.19511414 162.30407715 503.15277100
151.11459351 158.93539429 495.16040039
140.73947144 161.54826355 492.49026489
137.27172852 166.73605347 533.85351562
127.58270264 172.17385864 536.69311523
141.83894348 161.88145447 522.44873047
130.64942932 166.14009094 523.36596680
118.84997559 172.73614502 526.11590576
110.86821747 181.48883057 528.55609131
122.64103699 167.75323486 515.15863037
113.66778564 176.37655640 516.57629395
153.94009399 162.08544922 526.28210449
149.69735718 165.67390442 536.17156982
163.54322815 161.34844971 514.79327393
159.59211731 164.27734375 523.79833984
118.85801697 194.29812622 564.50592041
112.48385620 204.00308228 567.66943359
117.62263489 188.47009277 554.01416016
110.35241699 198.44436646 556.41174316
124.33569336 255.54579163 619.30969238
130.46490479 266.22631836 624.12823486
122.64060974 265.62612915 618.28002930
129.70298767 276.70959473 623.08801270
111.43664551 177.86277771 501.95397949
104.63088989 186.50094604 503.95498657
116.01234436 174.60942078 491.65997314
108.70819092 182.40348816 492.86965942
113.61512756 185.87646484 542.83850098
107.52197266 195.55593872 546.18072510
114.38711548 181.89715576 532.33087158
107.40532684 191.33276367 534.90130615
104.68785858 194.66519165 480.60650635
99.23094940 204.94912720 483.30819702
109.43322754 191.64088440 470.08532715
103.18312836 201.10404968 471.89678955
106.28703308 188.15496826 523.75390625
101.62332153 197.90869141 527.64965820
107.76950073 184.47320557 513.12847900
102.34864807 193.86425781 516.37762451
126.72286224 168.55047607 484.81753540
118.03167725 175.75708008 483.84460449
134.21670532 170.22381592 476.05953979
125.93908691 176.23638916 474.58822632
114.99917603 179.59619141 479.27673340
108.04177856 188.63943481 479.85943604
121.94384766 178.48912048 469.57022095
114.69059753 186.46769714 469.58697510
150.53321838 164.05038452 482.05636597
139.66181946 167.10543823 477.86242676
159.30287170 170.20875549 474.33599854
148.23635864 172.90380859 469.48352051
251.29359436 239.71336365 466.69180298
257.45037842 242.18466187 469.45208740
257.29528809 241.93440247 462.84927368
260.91345215 242.71725464 464.89532471
266.97589111 262.66622925 464.83499146
266.90032959 273.65213013 464.18841553
274.01385498 263.11801147 464.48861694
272.29492188 269.81454468 464.26553345
126.87280273 210.83268738 583.37017822
122.10092926 220.47399902 588.30957031
130.20251465 204.07781982 574.82958984
124.71591949 214.54202271 578.91534424
270.85113525 305.10098267 482.42700195
269.21752930 312.68563843 488.49206543
277.43682861 302.61337280 481.38180542
274.01434326 308.44552612 485.28823853
129.43466187 280.64367676 619.21582031
138.05796814 286.13876343 624.32281494
135.96575928 292.51611328 614.99194336
144.98355103 296.55206299 620.14764404
168.95698547 161.48870850 501.90844727
169.70562744 163.64732361 513.18280029
176.37672424 167.58251953 493.37646484
177.93128967 169.92710876 504.04849243
140.46641541 267.78268433 624.56933594
141.89866638 277.01254272 629.37725830
153.45297241 276.27450562 623.66479492
153.85487366 286.20849609 628.16198730
101.53121948 195.11758423 502.73083496
97.29909515 205.25093079 506.25592041
104.19287109 190.77835083 492.39599609
99.15800476 200.56388855 495.37469482
146.38208008 295.94989014 617.59832764
151.37452698 295.22668457 625.42840576
157.60128784 304.07586670 611.63555908
162.72947693 302.73153687 618.24194336
105.90682220 204.25108337 551.85241699
103.21601868 214.69406128 557.00103760
104.68416595 200.27769470 540.72656250
101.41065979 210.82672119 545.67022705
127.55051422 233.44132996 602.35559082
126.27059174 245.42828369 606.72662354
128.20982361 232.89733887 595.02917480
127.32981873 245.79200745 600.07781982
113.96853638 204.03378296 453.44085693
107.44803619 214.65493774 451.85714722
122.26736450 205.65835571 445.55084229
115.88789368 215.54992676 443.11401367
117.65267181 247.40437317 602.62866211
120.97177124 259.11138916 607.62322998
116.03897858 253.90632629 596.64154053
120.30397797 266.41500854 601.99029541
140.48518372 189.20751953 561.82232666
137.13372803 198.33560181 570.22290039
152.52728271 188.68156433 554.64538574
150.01939392 198.11503601 562.43945312
172.86256409 168.67303467 522.35052490
171.49143982 176.02172852 532.81896973
183.42776489 173.67184448 515.41961670
182.75970459 180.78935242 525.63354492
120.11515045 189.48664856 463.85766602
111.35822296 197.64550781 461.12548828
130.38742065 191.84925842 454.94647217
122.04617310 198.89891052 451.74398804
156.33670044 175.84771729 544.66595459
152.75250244 185.04577637 553.69226074
168.90476990 178.82962036 537.22393799
165.81365967 187.70742798 545.74121094
113.41732788 223.09011841 580.80804443
112.81579590 234.15238953 586.17956543
110.04837799 220.70310974 570.24414062
109.67816162 232.21075439 575.71801758
170.23815918 171.58819580 480.22811890
167.70162964 169.66143799 482.21057129
176.85092163 180.49465942 474.31866455
173.72268677 178.38906860 475.23620605
100.38026428 206.44323730 466.59970093
95.56491089 217.71334839 468.55737305
106.20619202 203.53344727 455.91094971
100.67081451 214.02734375 456.85711670
95.98296356 208.23587036 494.14218140
92.99417114 219.33207703 498.09179688
97.51685333 204.41836548 483.62814331
93.73858643 215.31097412 486.87460327
94.07527924 219.22004700 482.17568970
91.67661285 230.80828857 486.06582642
95.04065704 217.17131042 471.79208374
91.96544647 228.44143677 474.57250977
129.86306763 176.87449646 470.91751099
120.77954102 183.64419556 467.12756348
141.18197632 180.80015564 462.87954712
132.19387817 186.50096130 458.61984253
134.92436218 245.71578979 608.89080811
134.27194214 257.79180908 616.35614014
145.87051392 251.46112061 607.44335938
145.33447266 264.43640137 614.59906006
253.08816528 335.78408813 499.24896240
250.63966370 334.46362305 509.88070679
262.02008057 332.45120239 499.79428101
257.72616577 333.70623779 506.80337524
166.82757568 273.24468994 609.88720703
161.18722534 280.89666748 616.20092773
180.82084656 277.73660278 606.60205078
173.77331543 286.04391479 612.76306152
274.19073486 278.57357788 480.87948608
272.54550171 290.10244751 484.20004272
280.09811401 278.26977539 478.21099854
276.74298096 285.15719604 481.36767578
123.11170959 274.35342407 603.12805176
129.67568970 282.18142700 610.13421631
125.60713196 284.30224609 596.62768555
133.58146667 292.24264526 604.12908936
200.84097290 283.44082642 590.69818115
195.60145569 287.17349243 598.43762207
214.05563354 287.25885010 581.70794678
207.61041260 290.06683350 589.91131592
99.61035156 209.97164917 531.49945068
98.00355530 220.66276550 536.75012207
98.72171783 206.20928955 521.20495605
96.89144135 217.15278625 526.30657959
100.92855072 225.60304260 452.49676514
97.23193359 237.75119019 454.56512451
106.85839844 226.05690002 442.62396240
102.43646240 237.95903015 444.12478638
238.99945068 321.27682495 471.19595337
236.21426392 328.35830688 478.36013794
249.32420349 320.70300293 472.81454468
243.14541626 325.50857544 476.04556274
151.73991394 176.72042847 465.05249023
142.31916809 182.89840698 458.87237549
161.12673950 183.27592468 460.97839355
152.26588440 189.18669128 454.07507324
154.54444885 238.64408875 596.84094238
153.13595581 249.34580994 605.86932373
166.93489075 243.28022766 594.13476562
165.11151123 254.51216125 603.12707520
149.82864380 311.45794678 592.64123535
153.52101135 307.88912964 603.72259521
162.83789062 319.11737061 585.90124512
163.62626648 314.48437500 595.75671387
185.94226074 230.80693054 576.20812988
184.76626587 237.69752502 587.91088867
198.09040833 232.91079712 570.21783447
195.74012756 239.59143066 582.20898438
103.59008026 226.23266602 561.05877686
104.63803864 236.67565918 567.46691895
100.54608154 223.59010315 551.43481445
102.00057983 234.38514709 557.86938477
246.78005981 285.35385132 461.23590088
243.90032959 295.47659302 461.31118774
254.43228149 285.28656006 462.43203735
250.49310303 291.69946289 462.21307373
160.77952576 218.98388672 576.37329102
160.01708984 229.39294434 585.77703857
172.61271667 222.80987549 574.66760254
171.59869385 233.58370972 584.23254395
153.01362610 200.06767273 562.33459473
151.79254150 209.41842651 571.29089355
164.42079163 205.13009644 560.45129395
163.46508789 214.47874451 569.21038818
235.96060181 258.12124634 456.48431396
231.48458862 269.07748413 452.66998291
243.23294067 259.36831665 458.03729248
239.84809875 265.99884033 455.96252441
225.20561218 307.36309814 460.39859009
222.76506042 317.37344360 464.20336914
235.26393127 307.81808472 461.00476074
229.83831787 314.03082275 462.49557495
174.42465210 201.51296997 554.39886475
175.01477051 210.84040833 564.35406494
185.12770081 206.26364136 551.70117188
185.41427612 215.53593445 562.44958496
182.32606506 187.84353638 534.40936279
181.89288330 196.30142212 544.50024414
191.53512573 192.96112061 528.11682129
191.54718018 201.38719177 538.98394775
179.30874634 310.53302002 599.72369385
173.82743835 307.51257324 607.94824219
193.75294495 313.35693359 592.96667480
185.40747070 310.85223389 599.68334961
111.66534424 245.62420654 582.89575195
115.34817505 255.47335815 589.81597900
110.01692963 249.14903259 573.86920166
114.72836304 259.53265381 581.44903564
138.22622681 221.03330994 587.31237793
137.41394043 232.15921021 595.63879395
148.00009155 223.40016174 581.17895508
147.45927429 235.40408325 589.48413086
184.52272034 326.94219971 571.94732666
182.43370056 324.02770996 583.58007812
198.19680786 329.75573730 566.03283691
192.02941895 327.48486328 574.78442383
260.66961670 241.31031799 464.45941162
257.35903931 241.30090332 464.50915527
260.94247437 241.26750183 464.43426514
260.50772095 241.26295471 464.45913696
298.45861816 281.22668457 464.51153564
294.40325928 281.23193359 464.55859375
298.73858643 281.20605469 464.52166748
298.34808350 281.20608521 464.52416992
240.14671326 232.29496765 502.30895996
237.69210815 232.28356934 502.33575439
240.39260864 232.29000854 502.28469849
240.15286255 232.28385925 502.30426025
286.15298462 273.59875488 458.91473389
281.60949707 273.58050537 458.96359253
286.55776978 273.57299805 458.90966797
286.00000000 273.55981445 458.91574097
227.66819763 224.61694336 499.98736572
225.39599609 224.61975098 499.98379517
227.93910217 224.59957886 500.00967407
227.72882080 224.60723877 500.00448608
255.90789795 257.16476440 520.91101074
253.38954163 257.16677856 520.96148682
256.06262207 257.16067505 520.90875244
255.83781433 257.17504883 520.95153809
281.91491699 259.18417358 465.60140991
278.02026367 259.16339111 465.65838623
282.23733521 259.14492798 465.60028076
281.79293823 259.12722778 465.61880493
229.96047974 228.86122131 481.24050903
227.34773254 228.86331177 481.24682617
230.24444580 228.87388611 481.23553467
229.94018555 228.87747192 481.23544312
280.55307007 279.79437256 477.45574951
276.39852905 279.80783081 477.47906494
280.87405396 279.77511597 477.44219971
280.40612793 279.79870605 477.44763184
217.20162964 224.99261475 477.98999023
214.43479919 224.97697449 477.97393799
217.55784607 224.99168396 477.98864746
217.21818542 224.98553467 477.97760010
248.09133911 243.06013489 480.60733032
245.08630371 243.04602051 480.60809326
248.41369629 243.01489258 480.61758423
248.04698181 243.01148987 480.61499023
240.01910400 239.54512024 465.19073486
236.46397400 239.52732849 465.20202637
240.44857788 239.48402405 465.19769287
239.90020752 239.48497009 465.20275879
266.33941650 256.37118530 477.50177002
262.85003662 256.36761475 477.50427246
266.63342285 256.33953857 477.50592041
266.21582031 256.34494019 477.49859619
236.89218140 238.95359802 474.87310791
234.12261963 238.94750977 474.86770630
237.23239136 238.91279602 474.89703369
236.92288208 238.91694641 474.88684082
287.03076172 272.52011108 471.83721924
283.08398438 272.50415039 471.86328125
287.33142090 272.48098755 471.82888794
286.90585327 272.47256470 471.83013916
252.54554749 246.80386353 519.81243896
250.23132324 246.80041504 519.85662842
252.71362305 246.79592896 519.82556152
252.53308105 246.80070496 519.85681152
250.96301270 259.14974976 459.81414795
247.05575562 259.15069580 459.81430054
251.37931824 259.05953979 459.84313965
250.77062988 259.07968140 459.83007812
244.43011475 238.31944275 520.10833740
241.96769714 238.32475281 520.13427734
244.65368652 238.30224609 520.12640381
244.40150452 238.31729126 520.14666748
201.05447388 209.43124390 491.95822144
198.72970581 209.42970276 491.95291138
201.35710144 209.39942932 491.96362305
201.01995850 209.40112305 491.95834351
232.79969788 287.84713745 453.69549561
227.50141907 287.88745117 453.68716431
233.52500916 287.77233887 453.72549438
232.54438782 287.85458374 453.71310425
194.57368469 208.72549438 473.08300781
192.40779114 208.70664978 473.05667114
194.90554810 208.71754456 473.08898926
194.69841003 208.69844055 473.06130981
292.09930420 292.70782471 472.63128662
287.85745239 292.70132446 472.64819336
292.40612793 292.65945435 472.63574219
291.94134521 292.66671753 472.62277222
266.04895020 275.71905518 466.37622070
261.57604980 275.70513916 466.38601685
266.49755859 275.65792847 466.39007568
265.87164307 275.67095947 466.38662720
246.30555725 248.55101013 461.31945801
242.39677429 248.54534912 461.31719971
246.73678589 248.49263000 461.31408691
246.13049316 248.50363159 461.30639648
231.54583740 230.64131165 518.86633301
228.87854004 230.64308167 518.87487793
231.87838745 230.61148071 518.87890625
231.54794312 230.62533569 518.88995361
221.46212769 229.92178345 509.02249146
219.05989075 229.91618347 509.02749634
221.76416016 229.88716125 509.03271484
221.47288513 229.89533997 509.03933716
238.83790588 236.10369873 487.60647583
236.31344604 236.08714294 487.62454224
239.12580872 236.07572937 487.62649536
238.88079834 236.06748962 487.63473511
260.29360962 244.17855835 474.96826172
257.11114502 244.15666199 474.99749756
260.58862305 244.13180542 474.96667480
260.20376587 244.12013245 474.97418213
257.19097900 253.84162903 484.14535522
253.64793396 253.82052612 484.16445923
257.53616333 253.78196716 484.13693237
257.01934814 253.78121948 484.14804077
266.28045654 258.21777344 463.33251953
262.17907715 258.18588257 463.35931396
266.67761230 258.16009521 463.33267212
266.13992310 258.14376831 463.33874512
223.51074219 236.11743164 521.59320068
220.86036682 236.11813354 521.59155273
223.84292603 236.05776978 521.60467529
223.47329712 236.07902527 521.61071777
245.15042114 272.58905029 456.50173950
240.74465942 272.59219360 456.49987793
245.69137573 272.50021362 456.55233765
245.00198364 272.53402710 456.53826904
218.03895569 274.96432495 451.53353882
213.14569092 275.01358032 451.49758911
218.76780701 274.88800049 451.56262207
217.84829712 274.96765137 451.53338623
277.17407227 298.74035645 473.04800415
272.51824951 298.72518921 473.05227661
277.61682129 298.69369507 473.06161499
277.09881592 298.71459961 473.04663086
261.03936768 284.76510620 493.22772217
257.18966675 284.73709106 493.23364258
261.35873413 284.74606323 493.19720459
260.92224121 284.75390625 493.20352173
234.88059998 269.58416748 453.40151978
230.25605774 269.58285522 453.40133667
235.48092651 269.50296021 453.41229248
234.66479492 269.53656006 453.40472412
264.47433472 295.28829956 466.35046387
259.51931763 295.29107666 466.35699463
265.03167725 295.21963501 466.38867188
264.30291748 295.26016235 466.37026978
251.35850525 255.45372009 509.31503296
248.90377808 255.44667053 509.35424805
251.57357788 255.43713379 509.34033203
251.36155701 255.44294739 509.36669922
183.29058838 213.16273499 457.40527344
180.15974426 213.15060425 457.34017944
183.78349304 213.15931702 457.44104004
183.31604004 213.15805054 457.40185547
217.33134460 222.66801453 491.74981689
214.95971680 222.65583801 491.75601196
217.62048340 222.66064453 491.74328613
217.32708740 222.65357971 491.74261475
245.60655212 245.82826233 496.83425903
242.92874146 245.83114624 496.85256958
245.88717651 245.80897522 496.85052490
245.60491943 245.82104492 496.86010742
225.64038086 239.59912109 471.20831299
222.83160400 239.60855103 471.18057251
225.97534180 239.57017517 471.21105957
225.66102600 239.59019470 471.18093872
275.84005737 267.79855347 475.99285889
272.27520752 267.77911377 476.02136230
276.13275146 267.73959351 476.01190186
275.74874878 267.73510742 476.01620483
246.50051880 295.95352173 459.50009155
241.03701782 295.93060303 459.50738525
247.24046326 295.87100220 459.55163574
246.35964966 295.90527344 459.54138184
252.14193726 260.39428711 493.35281372
248.99290466 260.38302612 493.38146973
252.46051025 260.37359619 493.35775757
252.10784912 260.38208008 493.37567139
203.77514648 264.23294067 446.71441650
199.25581360 264.25457764 446.66467285
204.45294189 264.18383789 446.76031494
203.63357544 264.23037720 446.72796631
250.16113281 242.50926208 508.29727173
247.82040405 242.50994873 508.34298706
250.37628174 242.48315430 508.33459473
250.19166565 242.48864746 508.36276245
215.48091125 259.92965698 450.70269775
211.14334106 259.94244385 450.67608643
216.10095215 259.85391235 450.70892334
215.33094788 259.89367676 450.68670654
235.51362610 278.33578491 512.28924561
231.86122131 278.31988525 512.28350830
235.92868042 278.32232666 512.27984619
235.43060303 278.34710693 512.28509521
229.86677551 256.08462524 454.88113403
225.60792542 256.07559204 454.87255859
230.43171692 256.01760864 454.89907837
229.70837402 256.03747559 454.88803101
250.25227356 285.34500122 462.71661377
245.68353271 285.34078979 462.72720337
250.78244019 285.26068115 462.75415039
250.11080933 285.29757690 462.74783325
269.88006592 283.46380615 484.33807373
265.88409424 283.44772339 484.34329224
270.23321533 283.42385864 484.30859375
269.76068115 283.43145752 484.30728149
283.67892456 281.79400635 467.27795410
279.27587891 281.75402832 467.32153320
284.06854248 281.71841431 467.26635742
283.52667236 281.69973755 467.27618408
226.43826294 284.33880615 498.06335449
222.80050659 284.30294800 498.06362915
226.91607666 284.30258179 498.08935547
226.50781250 284.32205200 498.10012817
205.55075073 274.22009277 447.54220581
200.62382507 274.26077271 447.48745728
206.32479858 274.13555908 447.59555054
205.39044189 274.20703125 447.55801392
255.54861450 274.55804443 465.27957153
251.01678467 274.53335571 465.28839111
256.03637695 274.48913574 465.28417969
255.32839966 274.49755859 465.27838135
216.68035889 236.85301208 486.18572998
214.01200867 236.85562134 486.17309570
217.03332520 236.84259033 486.18841553
216.67367554 236.85952759 486.17523193
230.77166748 301.33554077 456.33734131
224.89164734 301.32391357 456.34860229
231.65252686 301.26641846 456.33868408
230.51867676 301.32293701 456.33053589
264.49447632 271.84796143 484.77056885
260.70071411 271.82217407 484.78253174
264.84545898 271.80093384 484.75369263
264.39602661 271.79937744 484.75756836
193.21104431 223.24472046 488.16992188
190.78335571 223.25515747 488.13333130
193.55862427 223.23223877 488.19387817
193.22171021 223.24755859 488.16281128
223.48428345 301.92199707 499.69866943
218.03738403 301.83969116 499.68249512
224.24725342 301.93753052 499.64611816
223.48243713 301.95568848 499.65310669
272.18835449 314.41140747 481.49703979
267.16400146 314.39227295 481.48086548
272.69232178 314.34732056 481.53265381
272.04809570 314.37875366 481.50503540
214.92953491 242.18676758 461.94158936
211.72480774 242.17724609 461.93011475
215.38003540 242.15347290 461.96249390
214.93844604 242.16357422 461.95178223
252.02810669 303.81317139 464.31231689
246.49998474 303.78308105 464.31460571
252.73123169 303.73712158 464.33639526
251.86712646 303.76425171 464.32318115
277.38751221 283.79125977 478.87347412
275.97079468 295.12500000 482.44177246
283.65432739 289.52069092 475.27917480
282.11328125 300.40905762 479.42327881
261.16366577 307.06854248 494.70495605
256.22106934 315.92938232 500.91687012
268.70428467 310.93157959 488.20141602
263.95257568 319.19433594 494.08886719
259.00463867 273.53079224 492.94998169
255.24124146 282.43405151 498.79287720
264.23516846 279.15084839 485.98727417
260.09210205 288.30014038 491.79199219
280.74426270 264.35592651 460.81933594
282.73651123 277.54751587 462.39617920
288.52136230 268.66546631 466.79141235
289.35974121 281.61102295 468.67065430
240.43673706 309.85525513 516.67254639
234.45281982 315.90490723 524.85900879
247.69636536 314.92086792 508.61657715
241.97434998 320.38201904 516.26220703
249.90573120 292.62875366 503.67077637
244.54638672 300.45040894 509.72045898
256.19348145 298.36138916 497.06015015
250.44708252 306.44812012 503.04089355
250.05792236 254.65177917 511.36730957
245.75262451 261.41937256 518.65661621
255.77462769 260.23303223 503.13211060
250.48313904 266.80972290 510.61441040
247.15979004 239.23887634 492.34783936
249.15231323 245.92163086 500.09313965
253.59016418 245.38293457 484.07873535
255.51667786 251.82179260 492.65536499
232.06872559 231.87268066 523.80389404
232.13288879 235.05075073 534.48016357
241.63595581 237.18432617 515.96527100
241.00830078 239.05012512 527.06994629
232.17184448 295.35192871 522.44866943
225.53576660 301.73138428 529.25549316
238.58312988 301.31677246 515.53686523
231.43804932 307.26675415 522.28112793
240.07249451 274.22467041 518.05853271
233.79058838 280.76956177 523.57379150
246.05484009 280.67575073 511.46908569
238.79309082 287.19729614 516.96630859
220.21458435 307.68139648 538.18103027
214.29640198 311.11840820 549.08209229
227.54631042 313.94778442 529.26501465
221.82855225 316.37573242 539.23083496
223.62622070 222.79605103 500.82250977
228.31962585 225.61888123 509.37371826
231.89111328 227.19465637 491.31692505
236.67041016 228.86480713 500.64010620
228.22709656 245.78800964 539.48742676
223.59732056 249.89500427 548.60705566
237.46121216 252.20195007 533.96374512
231.86645508 255.73048401 542.24560547
209.11970520 308.16519165 567.04559326
204.64686584 310.55035400 579.51605225
214.94087219 313.96496582 559.03308105
211.42716980 315.46591187 570.53222656
223.58352661 283.06060791 536.20013428
217.49461365 288.17288208 544.39080811
230.38717651 290.11874390 529.64886475
223.65246582 294.83868408 537.50872803
243.55438232 332.77801514 497.68368530
239.69233704 333.70428467 509.78091431
252.26251221 330.73794556 495.88201904
248.61256409 331.10494995 506.99520874
224.92707825 225.78218079 478.22607422
231.18566895 232.48190308 479.89477539
232.53875732 233.68228149 471.71618652
239.27877808 239.82421875 474.35980225
215.72477722 291.10919189 549.17120361
209.89460754 294.68304443 558.88885498
222.03108215 299.36163330 542.67083740
215.98352051 302.62637329 551.62500000
249.76417542 297.13128662 461.16821289
252.14295959 308.49896240 465.54879761
262.46160889 299.87777710 464.78952026
263.64715576 311.62084961 469.74591064
221.91442871 330.62591553 519.84851074
219.40124512 328.12597656 532.73046875
229.36465454 328.94274902 517.22344971
227.38195801 326.03613281 528.73535156
200.21989441 236.09951782 563.25988770
198.35978699 241.15664673 573.16204834
207.38587952 244.18624878 555.21557617
205.49493408 247.99209595 565.22167969
206.61924744 330.83639526 541.78112793
204.73991394 328.05703735 555.18054199
213.27256775 328.89501953 539.07916260
212.01013184 325.80920410 551.18066406
196.98150635 300.43371582 592.18383789
190.40055847 303.94580078 601.07861328
203.71131897 308.42102051 586.50366211
197.83341980 312.43948364 595.37725830
175.56996155 245.16926575 598.99597168
169.91262817 254.03858948 605.42840576
184.69590759 253.22312927 596.02038574
180.24322510 262.55267334 602.31292725
206.60876465 289.37646484 570.13989258
200.21975708 293.05929565 578.43231201
212.95497131 299.01275635 566.59564209
206.81091309 303.28594971 574.25610352
236.92623901 253.15686035 457.00286865
241.07034302 264.84265137 455.48171997
247.51344299 259.14608765 459.04367065
251.01705933 271.39178467 458.12454224
201.34870911 237.46293640 539.33471680
202.80148315 239.24682617 551.18597412
211.62733459 243.96913147 533.85980225
213.09097290 244.19393921 545.21478271
193.93745422 211.87374878 539.17834473
193.00640869 217.80996704 548.63726807
200.58413696 220.94030762 529.52008057
199.27134705 225.45770264 539.41162109
171.04615784 265.32247925 607.79742432
165.97206116 273.53222656 615.16943359
178.78355408 273.76394653 603.05523682
175.15957642 282.40423584 610.54174805
198.20986938 249.09996033 578.64019775
193.61242676 256.66073608 585.54138184
202.27922058 257.36804199 571.63714600
198.93624878 264.34240723 578.78863525
215.92837524 265.80969238 537.95037842
211.75988770 268.63412476 547.19506836
224.32476807 271.23638916 533.76312256
219.50410461 273.13983154 542.29101562
176.59962463 228.35794067 581.82989502
172.30653381 237.44146729 588.72473145
186.76159668 235.21989441 578.39520264
182.91758728 244.55368042 585.07373047
243.56445312 322.05108643 470.16213989
243.59149170 329.38708496 479.12478638
256.02380371 321.91879272 473.56979370
254.79161072 329.14447021 482.66815186
210.17826843 274.18173218 552.84655762
205.18794250 276.09579468 562.72119141
217.17649841 280.86303711 548.62188721
212.03877258 282.82839966 557.24096680
185.85336304 213.78091431 560.06164551
182.94807434 222.24092102 569.01580811
195.28788757 220.39314270 555.04479980
191.92106628 228.40353394 563.47729492
175.74121094 287.71054077 604.44226074
171.44229126 292.97659302 612.58837891
182.74501038 296.80575562 598.97259521
179.91024780 302.27218628 607.51531982
190.44294739 198.85818481 520.49536133
191.74238586 205.78483582 528.70513916
194.97003174 209.02334595 509.71942139
196.02474976 213.94155884 518.67993164
192.20791626 229.73223877 515.74047852
195.35734558 232.77880859 526.00103760
201.59153748 237.12400818 508.36526489
206.03999329 237.61471558 519.05212402
182.50376892 176.51307678 513.23364258
185.14472961 185.67083740 520.09875488
188.77532959 186.11833191 503.08438110
190.95291138 194.07147217 511.34078979
200.26953125 248.57478333 546.81915283
202.57434082 249.46554565 558.95880127
208.55000305 254.27665710 540.44287109
211.06929016 253.59567261 551.43939209
192.00112915 192.87319946 496.17575073
195.89179993 200.79663086 501.46301270
193.18879700 204.07437134 485.07107544
197.80903625 209.97879028 491.25753784
198.19644165 273.63827515 566.00634766
192.17645264 276.83544922 572.70605469
205.22982788 281.16113281 563.68402100
199.77398682 284.96566772 569.99353027
155.65638733 213.41772461 571.63293457
151.37812805 221.27752686 580.91796875
168.46092224 216.95315552 567.21020508
164.48541260 225.14169312 576.06469727
179.30262756 190.47665405 536.62646484
177.16589355 199.56866455 545.46185303
191.32670593 199.16040039 530.47070312
188.01077271 206.81874084 539.52032471
190.39990234 262.49993896 582.82458496
186.52566528 269.11056519 589.12554932
193.98132324 269.65243530 576.59143066
192.05627441 275.37762451 583.25299072
219.69790649 335.21511841 496.42178345
218.67327881 335.25793457 508.49780273
229.94604492 335.28051758 497.76214600
228.38192749 334.89117432 509.34613037
164.80142212 196.93246460 557.33428955
162.18272400 205.31401062 566.47717285
177.38221741 203.23452759 553.79351807
173.96237183 210.26296997 562.40197754
189.58549500 277.42318726 586.13946533
185.16355896 282.68496704 592.74371338
195.44496155 285.58599854 585.05780029
192.89399719 290.93261719 591.94201660
183.70123291 176.13555908 489.85247803
188.21543884 186.80760193 490.43200684
186.86074829 189.25186157 482.33407593
191.78956604 198.25056458 483.61166382
182.22090149 326.52487183 556.15429688
184.65243530 324.89129639 569.46887207
193.11668396 327.99157715 559.97680664
194.69670105 325.60720825 572.98602295
196.65338135 264.88043213 555.05651855
194.43922424 266.32577515 565.24920654
203.13975525 270.86010742 549.25177002
201.18858337 271.30868530 558.31835938
198.79522705 258.25958252 531.57037354
200.03536987 259.12911987 542.96350098
208.26156616 262.85317993 529.95214844
209.45028687 262.29791260 540.71325684
189.63108826 226.38980103 494.47061157
192.82295227 230.39498901 503.38449097
196.78784180 234.51199341 484.69781494
202.08993530 235.29862976 494.43667603
222.85502625 283.23559570 453.39349365
226.48802185 294.78140259 455.44302368
234.72109985 286.62680054 455.74047852
237.35133362 298.77917480 457.91696167
199.07994080 259.63919067 513.69812012
197.60331726 263.94873047 522.73498535
207.99168396 264.94287109 510.81008911
206.63064575 267.54724121 520.18414307
201.26811218 335.07659912 515.48834229
201.70831299 333.78900146 528.04370117
210.62310791 334.31906128 517.55004883
210.76255798 332.73376465 529.21466064
189.02188110 332.43710327 532.19281006
191.03402710 331.42837524 545.30810547
199.01791382 332.69635010 536.92968750
200.38796997 331.02621460 549.62078857
213.99417114 255.48817444 453.37518311
217.65473938 267.18246460 452.14053345
224.16571045 260.58453369 454.75149536
227.44610596 272.38485718 454.00006104
196.63090515 280.51245117 505.36532593
193.12304688 285.66711426 511.96325684
204.78021240 286.51174927 503.01995850
200.03273010 291.46179199 510.01446533
217.35198975 328.62594604 474.27325439
217.83676147 333.47418213 484.74591064
229.50967407 329.82290649 476.45413208
228.79124451 334.32330322 486.94799805
186.79872131 220.76852417 473.25588989
190.06268311 229.25822449 475.80090332
191.74847412 230.79052734 464.89346313
197.40899658 235.84872437 468.93576050
184.30885315 244.26472473 536.39739990
188.47418213 246.25512695 547.89654541
190.56108093 251.37959290 529.71148682
194.25875854 250.60018921 540.33685303
159.16795349 317.18484497 563.73492432
164.90057373 318.80941772 575.48437500
170.75831604 322.66348267 567.94689941
176.23219299 323.48193359 580.37927246
213.63894653 311.09594727 459.25308228
216.49252319 320.58029175 465.72799683
226.05749512 313.54229736 461.30816650
227.82553101 323.17303467 467.78945923
178.98291016 192.72473145 468.73217773
180.93461609 205.02557373 462.15332031
185.71749878 203.13644409 467.79473877
187.36392212 214.43412781 461.25833130
144.11056519 306.42691040 579.04101562
150.55789185 310.13732910 589.09375000
154.55566406 314.99719238 578.89892578
161.65621948 317.85079956 589.94421387
198.48875427 331.73431396 490.65429688
199.91555786 333.60223389 502.46734619
209.26896667 333.50466919 493.14721680
210.04505920 334.93093872 504.76089478
128.24459839 288.74975586 589.53277588
134.60922241 294.16848755 598.52935791
135.34515381 300.11743164 583.60931396
142.81684875 304.61465454 593.24633789
179.43809509 253.13981628 532.73260498
183.31286621 254.93244934 544.71954346
185.96310425 259.47317505 527.79528809
189.32463074 258.61633301 539.04840088
200.06771851 284.82092285 451.53643799
204.06867981 295.30633545 455.26486206
211.16287231 287.84521484 453.67584229
214.75820923 298.56390381 457.14868164
159.77291870 319.48489380 541.91369629
164.71023560 321.33532715 553.80731201
170.16288757 324.14172363 546.01959229
175.03550720 325.34130859 558.47314453
191.06372070 253.62661743 443.68206787
194.38175964 265.07489014 444.53768921
199.97970581 257.27020264 448.15249634
203.23413086 268.51062012 448.90023804
180.98445129 330.63012695 509.12344360
183.38099670 331.52114868 521.14855957
190.93753052 333.03860474 511.92083740
193.05041504 333.42245483 523.62359619
180.95104980 221.00393677 449.99353027
182.70550537 234.21249390 444.41149902
188.53515625 228.99472046 451.78405762
190.40997314 241.36978149 446.88174438
169.03248596 325.75540161 527.45385742
172.81605530 326.56027222 539.71228027
179.22097778 329.26434326 531.34765625
182.76701355 329.46347046 543.64428711
193.54615784 321.21655273 470.79150391
196.10493469 327.50271606 480.03833008
204.99972534 323.95562744 472.31848145
206.85916138 329.99362183 481.65652466
113.53767395 265.35272217 583.00274658
118.85990906 271.48828125 591.81689453
115.91300964 275.46008301 574.25109863
122.55333710 281.01242065 583.36431885
163.23345947 195.68966675 455.09201050
164.37567139 208.18136597 447.73696899
171.25094604 204.46249390 454.20764160
171.94810486 216.16737366 447.34884644
186.16777039 302.43338013 456.93609619
189.93119812 311.20092773 463.78424072
197.09324646 305.21063232 458.72552490
200.53749084 313.98873901 465.47827148
133.58380127 303.20748901 556.66143799
139.73422241 307.01968384 566.26031494
144.46792603 311.52963257 558.64916992
151.02130127 314.79995728 569.07098389
121.98177338 283.62158203 569.38061523
127.73559570 289.47933960 577.47796631
127.96995544 294.48660278 564.78686523
134.62936401 299.84597778 573.64349365
177.06303406 323.48266602 485.87539673
179.84661865 327.51647949 496.51348877
187.25469971 326.97143555 487.41882324
189.88453674 330.47824097 498.02301025
139.60537720 309.78100586 537.96893311
144.95413208 313.11495972 548.35675049
150.03776550 316.26547241 541.09503174
155.47982788 319.13494873 552.29730225
106.46363068 254.77398682 564.57269287
111.07962036 260.89685059 573.28717041
106.80084229 263.81933594 555.36877441
112.44862366 269.53710938 564.32720947
176.26771545 278.14984131 439.39453125
179.96856689 286.77102661 446.48870850
186.44136047 278.75637817 444.86523438
190.21537781 287.55996704 451.52462769
161.44520569 319.62487793 501.89141846
164.97956848 322.97259521 513.24633789
171.06425476 323.94714355 504.30493164
174.84675598 326.81237793 515.98645020
163.52998352 222.59457397 437.38995361
165.45358276 236.01945496 432.39218140
172.48573303 229.73223877 439.27484131
174.10552979 242.27697754 434.87356567
148.59718323 314.96325684 518.70538330
152.75932312 318.46688843 529.66583252
158.36892700 320.40426636 521.61938477
162.83859253 323.44238281 533.18646240
168.83525085 251.77301025 432.40280151
171.76306152 263.62423706 434.41918945
178.49565125 255.26284790 437.16195679
181.44573975 266.58172607 439.08767700
98.87952423 234.08525085 549.34295654
102.01835632 241.47210693 558.01080322
97.05666351 241.51452637 538.65264893
101.06822205 248.44117737 547.35864258
169.94656372 309.77651978 467.17758179
174.08007812 317.37335205 475.76910400
180.62921143 313.29815674 468.40130615
184.76058960 320.48355103 477.02038574
111.35997009 274.22735596 551.42559814
116.53799438 279.98751831 559.66717529
115.69866943 284.21701050 545.85418701
121.65185547 289.50637817 554.67895508
120.53321075 292.52166748 538.66455078
125.77697754 297.39321899 547.44055176
128.85855103 301.80456543 537.72399902
134.53178406 306.17559814 547.39074707
142.32402039 200.26669312 447.37322998
143.05491638 212.60145569 439.92272949
150.63743591 208.46583557 443.04037476
150.99121094 220.49945068 435.93664551
160.89802551 294.32754517 447.70831299
164.90534973 301.44296265 457.16937256
171.74716187 295.29571533 452.36779785
176.00685120 302.54791260 461.72067261
153.59918213 309.98779297 479.40631104
157.21943665 315.44894409 489.84506226
163.71768188 314.04177856 481.42749023
167.82572937 319.15191650 492.25646973
101.65357208 255.46803284 540.98980713
105.87615967 261.74569702 549.25256348
102.91387939 264.54412842 532.92163086
107.93389893 270.55035400 541.57250977
128.46940613 303.78329468 514.18060303
132.89982605 307.27947998 524.55145264
137.92620850 310.04718018 516.44354248
142.51782227 313.05981445 527.62878418
140.18490601 308.67819214 494.69540405
143.79455566 312.75549316 505.56893921
149.94073486 313.58685303 497.61581421
154.02015686 317.26330566 509.16162109
152.09231567 277.62811279 430.01208496
155.55352783 286.17507935 437.72344971
163.10475159 278.98385620 434.76699829
166.60731506 287.80862427 442.39562988
142.53054810 228.12889099 428.63140869
144.45678711 241.58346558 424.49578857
152.36485291 234.85192871 428.06356812
154.23065186 247.82719421 424.68402100
105.66194916 272.85305786 528.83978271
110.31718445 278.36297607 537.20434570
110.01284790 282.17675781 523.43933105
115.20889282 287.18615723 532.48260498
94.52243805 223.08447266 516.01190186
95.91847229 232.58369446 522.16235352
92.52762604 230.42468262 504.80014038
94.74495697 239.65243530 510.95904541
95.70781708 241.50498962 525.96710205
98.73424530 249.10606384 533.52575684
95.29319000 249.88864136 516.54675293
99.08630371 257.26702881 524.33026123
145.00662231 254.95320129 422.43859863
148.39889526 266.75775146 425.10449219
156.07206726 259.27969360 424.99475098
159.21461487 270.83187866 427.83773804
113.68083191 289.29586792 516.06072998
118.39120483 293.35620117 525.42205811
121.16843414 297.30203247 514.70123291
126.11421967 300.70489502 524.85369873
143.66519165 300.58825684 456.14288330
147.44239807 305.67401123 466.89550781
154.99044800 303.13327026 459.68679810
158.90126038 307.96133423 470.82965088
124.45254517 213.31379700 441.08282471
125.12113953 225.85641479 434.82849121
132.56791687 219.71923828 434.17105103
133.54084778 232.69238281 428.56353760
119.30316162 298.18215942 490.35937500
123.59361267 300.67840576 500.94232178
128.24459839 304.09399414 491.33706665
132.55625916 305.89193726 502.55630493
128.63482666 302.75628662 469.18176270
132.43960571 305.61569214 480.34585571
138.95375061 306.98788452 472.01626587
142.81155396 309.22006226 483.71478271
98.54019165 263.01818848 510.62289429
102.48493958 269.14212036 518.76690674
100.96721649 272.02365112 503.64553833
105.44323730 277.78173828 512.46820068
129.49589539 287.18673706 435.01937866
133.53289795 294.03915405 443.82083130
141.57272339 291.22320557 436.68847656
145.39976501 297.84234619 446.21102905
106.58345795 281.43817139 498.97369385
111.02130127 285.72756958 508.10815430
112.40620422 289.86639404 495.12811279
117.11445618 293.36364746 504.99633789
92.81827545 224.55845642 490.16955566
93.41837311 235.04386902 493.74768066
91.72806549 231.57418823 478.77111816
93.11615753 241.87507629 482.56582642
94.00319672 246.42379761 498.13754272
96.37057495 254.77140808 504.55093384
94.35472107 254.65051270 488.48031616
97.24330139 262.69061279 495.44937134
120.86091614 239.50610352 429.25070190
123.28714752 252.43470764 426.37536621
130.88185120 245.53245544 423.80017090
133.88813782 258.64132690 422.34777832
122.37730408 265.37817383 425.74868774
126.37826538 276.39376831 429.21517944
134.05912781 270.87829590 423.83514404
138.05690002 281.88964844 428.37585449
107.90248108 218.11535645 450.77716064
108.13166046 230.41195679 446.42733765
113.32823944 224.05581665 441.18145752
114.50848389 236.99291992 437.30032349
117.76873779 290.95172119 449.52615356
121.90118408 295.69708252 459.25653076
127.89041901 296.80786133 449.10437012
131.92211914 301.09301758 459.84851074
99.84450531 270.81491089 484.96078491
103.69381714 276.46377563 493.06872559
103.65180206 279.34332275 478.63247681
107.72167969 284.46939087 487.68206787
109.31190491 287.38818359 471.24429321
113.71475983 291.54501343 480.72653198
116.82072449 295.37841797 468.68179321
121.26811218 298.70178223 478.92117310
96.44109344 224.02401733 466.10736084
96.18155670 235.72677612 464.96875000
98.29523468 230.09384155 455.19592285
98.94049835 242.05110168 454.32003784
96.48828125 257.71347046 473.02261353
99.00677490 266.02078247 478.59829712
98.60964966 265.62100220 463.72698975
101.34287262 273.57623291 470.36096191
106.65132141 242.66189575 442.22915649
108.54681396 254.75489807 440.59213257
113.55052948 248.82928467 433.31872559
116.43380737 261.08346558 433.22119141
102.85396576 274.06085205 458.90420532
106.43711853 281.33532715 465.87750244
108.46656036 282.11181641 452.41552734
112.14089966 289.01724243 460.72283936
107.97154236 270.81387329 441.13586426
111.60665131 280.72027588 445.37542725
116.37216187 278.06924438 435.07769775
120.25753784 287.72540283 440.82727051
95.87111664 248.29643250 464.29431152
97.19293213 258.63763428 466.93157959
97.92885590 255.38426208 454.15353394
99.73130035 265.55364990 457.82894897
161.71176147 248.11624146 433.89184570
161.70925903 248.12115479 433.91162109
161.70382690 248.12768555 433.89157104
161.69604492 248.13310242 433.90979004
298.59783936 281.19091797 464.44476318
298.60113525 281.18695068 464.46316528
298.61010742 281.18627930 464.43420410
298.60879517 281.18533325 464.45605469
223.61656189 236.09315491 521.59741211
223.62075806 236.08647156 521.61950684
223.60043335 236.09471130 521.58300781
223.60673523 236.09213257 521.59863281
207.27146912 328.42767334 481.14514160
207.27830505 328.42590332 481.16162109
207.26310730 328.42288208 481.13973999
207.26797485 328.42236328 481.15682983
229.86216736 256.05142212 454.86022949
229.86592102 256.04568481 454.87518311
229.86775208 256.05319214 454.84881592
229.86830139 256.04971313 454.86099243
246.55407715 294.76193237 518.29101562
246.55334473 294.75595093 518.30725098
246.55201721 294.75570679 518.28704834
246.55291748 294.75411987 518.29968262
194.76759338 208.69647217 473.04132080
194.77098083 208.69349670 473.05731201
194.76232910 208.69537354 473.03491211
194.76425171 208.69221497 473.04476929
165.09761047 297.71304321 457.45013428
165.09757996 297.71438599 457.46929932
165.10488892 297.71951294 457.45223999
165.09875488 297.72402954 457.46844482
252.09936523 303.75817871 464.30560303
252.10478210 303.75506592 464.32058716
252.09767151 303.76037598 464.29785156
252.09982300 303.76062012 464.31292725
252.19030762 260.40057373 493.34954834
252.19329834 260.39450073 493.36672974
252.19326782 260.40069580 493.33718872
252.19345093 260.39822388 493.35086060
202.74423218 285.28628540 450.30230713
202.74765015 285.28274536 450.31890869
202.74726868 285.28952026 450.28945923
202.74862671 285.28845215 450.30447388
230.03355408 228.88612366 481.19992065
230.03694153 228.88018799 481.21295166
230.02320862 228.88737488 481.19052124
230.02816772 228.88478088 481.19879150
193.73548889 244.90307617 454.53451538
193.73408508 244.90077209 454.55169678
193.73568726 244.90124512 454.53872681
193.73211670 244.90196228 454.55041504
260.67907715 241.29000854 464.42141724
260.68771362 241.28558350 464.43771362
260.67608643 241.28750610 464.40335083
260.68090820 241.28302002 464.41781616
216.58464050 295.08963013 501.77593994
216.58496094 295.08892822 501.79235840
216.57699585 295.09832764 501.77423096
216.57789612 295.09912109 501.78622437
267.33282471 314.04644775 492.49362183
267.33825684 314.03530884 492.51779175
267.32653809 314.04364014 492.48657227
267.32885742 314.03903198 492.50970459
225.25230408 269.15887451 527.39300537
225.25259399 269.14935303 527.41967773
225.23799133 269.15942383 527.38500977
225.23818970 269.15710449 527.40142822
196.55230713 228.12171936 503.36688232
196.55589294 228.11567688 503.38882446
196.55445862 228.12776184 503.36285400
196.55541992 228.12597656 503.37429810
266.05108643 275.69320679 466.32394409
266.05200195 275.69149780 466.33953857
266.04476929 275.69525146 466.30856323
266.04309082 275.69653320 466.32376099
238.54769897 329.32556152 478.88494873
238.55529785 329.32061768 478.89935303
238.54365540 329.31481934 478.88217163
238.54791260 329.31301880 478.89855957
173.23677063 223.51962280 447.31243896
173.23677063 223.52264404 447.32681274
173.22508240 223.52542114 447.31250000
173.22282410 223.52995300 447.32272339
217.13903809 310.08901978 459.66525269
217.14633179 310.08590698 459.68252563
217.14144897 310.09075928 459.65933228
217.14584351 310.08993530 459.67529297
252.64337158 246.77304077 519.80969238
252.65295410 246.76441956 519.83148193
252.62829590 246.76982117 519.80438232
252.63742065 246.76614380 519.81945801
178.97193909 273.11251831 439.52398682
178.97335815 273.11541748 439.53649902
178.97181702 273.12103271 439.52807617
178.97169495 273.12515259 439.53982544
183.03526306 316.04312134 473.29190063
183.03935242 316.04159546 473.31118774
183.04008484 316.03674316 473.28854370
183.04008484 316.03601074 473.30627441
232.82054138 287.83764648 453.69140625
232.82794189 287.83737183 453.70513916
232.82135010 287.84027100 453.67913818
232.82699585 287.83972168 453.69165039
206.27801514 240.84730530 478.65420532
206.28094482 240.83813477 478.67575073
206.28114319 240.84814453 478.64913940
206.28027344 240.84161377 478.66302490
277.26055908 298.71060181 472.99374390
277.26501465 298.70721436 473.01010132
277.26245117 298.70498657 472.98721313
277.26284790 298.70501709 473.00369263
261.06619263 284.76055908 493.21228027
261.06909180 284.75671387 493.22830200
261.06787109 284.75744629 493.20867920
261.07086182 284.75811768 493.22293091
231.27113342 270.19989014 504.41656494
231.27191162 270.19427490 504.43179321
231.26359558 270.20211792 504.41394043
231.26467896 270.20199585 504.42449951
240.23770142 232.27922058 502.29580688
240.24696350 232.27146912 502.31332397
240.23352051 232.27697754 502.29800415
240.24188232 232.27366638 502.30987549
281.99392700 259.17410278 465.55160522
281.99581909 259.16894531 465.57226562
281.99838257 259.16976929 465.53259277
281.99508667 259.16784668 465.55300903
203.74938965 264.18484497 446.72692871
203.75038147 264.18310547 446.73678589
203.74746704 264.18750000 446.72109985
203.74746704 264.18579102 446.73077393
215.36151123 237.97810364 502.20596313
215.36721802 237.96893311 502.22866821
215.35729980 237.98181152 502.19644165
215.36042786 237.97705078 502.20989990
250.99406433 259.09252930 459.79684448
250.99639893 259.08923340 459.81097412
250.99008179 259.09631348 459.78637695
250.98925781 259.09490967 459.79916382
240.04373169 239.52413940 465.18328857
240.04743958 239.51826477 465.19738770
240.04722595 239.52232361 465.17196655
240.04730225 239.51794434 465.18225098
186.29168701 303.56256104 457.82952881
186.29765320 303.56210327 457.84454346
186.30241394 303.55993652 457.82406616
186.30503845 303.56011963 457.84014893
201.11982727 209.43211365 491.93893433
201.12171936 209.42602539 491.95684814
201.11892700 209.42562866 491.92788696
201.12037659 209.42034912 491.93649292
266.39062500 256.35998535 477.46319580
266.39007568 256.35351562 477.48110962
266.38711548 256.36090088 477.45581055
266.38516235 256.35855103 477.47149658
160.22077942 278.62722778 436.45593262
160.22651672 278.63177490 436.46679688
160.22866821 278.63681030 436.45761108
160.22967529 278.64169312 436.46875000
255.56980896 319.66479492 476.21749878
255.57659912 319.66113281 476.23437500
255.56124878 319.66021729 476.20861816
255.56481934 319.65975952 476.22573853
246.68911743 265.82220459 515.68914795
246.69665527 265.81237793 515.70819092
246.68450928 265.81979370 515.67950439
246.69009399 265.81427002 515.69342041
235.72128296 315.53948975 465.61328125
235.72666931 315.53637695 465.63043213
235.71919250 315.54287720 465.60644531
235.72100830 315.54171753 465.62420654
189.32983398 226.69743347 470.85821533
189.32923889 226.69464111 470.86968994
189.32414246 226.70193481 470.85833740
189.32028198 226.70176697 470.86401367
215.00488281 242.18577576 461.93713379
215.00785828 242.17900085 461.95648193
215.01202393 242.18339539 461.93289185
215.01193237 242.17900085 461.94631958
280.61535645 279.80032349 477.42822266
280.61151123 279.79800415 477.44555664
280.61511230 279.79244995 477.41503906
280.61026001 279.79421997 477.43151855
250.32791138 285.30987549 462.70291138
250.33319092 285.30886841 462.72097778
250.31964111 285.30935669 462.68930054
250.32118225 285.30960083 462.70498657
218.07327271 274.95169067 451.54776001
218.07611084 274.94985962 451.56192017
218.07327271 274.95590210 451.53497314
218.07551575 274.95452881 451.54785156
200.66848755 316.34289551 465.18759155
200.67451477 316.34057617 465.20541382
200.67916870 316.33822632 465.17584229
200.68319702 316.33712769 465.19470215
180.17623901 244.07376099 442.09228516
180.17779541 244.07728577 442.10336304
180.16795349 244.08174133 442.09536743
180.16857910 244.08552551 442.10540771
255.50700378 304.06127930 502.48062134
255.50772095 304.05502319 502.50027466
255.50735474 304.05456543 502.47457886
255.50733948 304.05297852 502.49157715
230.96994019 285.84906006 520.41088867
230.96820068 285.84359741 520.42340088
230.95697021 285.84436035 520.41058350
230.95629883 285.84466553 520.41845703
248.16415405 243.02304077 480.58312988
248.16905212 243.01795959 480.59829712
248.16200256 243.02450562 480.57525635
248.16473389 243.02114868 480.58743286
183.35469055 213.14804077 457.34365845
183.35731506 213.15014648 457.35668945
183.34175110 213.15411377 457.33825684
183.34469604 213.15744019 457.34558105
217.41088867 222.68635559 491.72140503
217.41658020 222.67703247 491.74346924
217.41064453 222.68524170 491.71636963
217.41293335 222.67863464 491.72848511
179.96777344 288.75494385 445.28253174
179.96958923 288.75759888 445.29705811
179.97882080 288.75793457 445.28137207
179.97901917 288.76068115 445.29580688
193.26106262 223.25723267 488.12738037
193.26522827 223.25195312 488.14230347
193.25390625 223.26129150 488.12359619
193.25836182 223.25936890 488.13046265
205.02377319 237.34805298 514.50653076
205.02340698 237.34103394 514.53521729
205.01445007 237.35310364 514.50097656
205.01396179 237.34963989 514.51873779
250.32902527 284.62384033 506.40386963
250.33206177 284.61355591 506.42440796
250.32406616 284.62139893 506.39398193
250.32449341 284.61776733 506.41052246
216.95866394 290.67062378 455.04608154
216.96212769 290.66717529 455.06332397
216.95651245 290.67694092 455.03503418
216.95993042 290.67462158 455.05068970
264.50805664 271.81201172 484.72152710
264.50924683 271.80633545 484.74136353
264.50964355 271.81027222 484.70989990
264.51080322 271.80847168 484.72662354
219.58601379 321.84283447 469.98025513
219.59271240 321.83917236 469.99740601
219.58317566 321.83816528 469.97262573
219.58825684 321.83740234 469.98870850
286.19433594 273.58670044 458.85528564
286.19601440 273.58172607 458.87243652
286.20046997 273.58392334 458.83914185
286.19750977 273.58145142 458.85671997
245.66667175 245.82583618 496.83319092
245.67208862 245.81639099 496.84878540
245.66113281 245.82559204 496.82952881
245.66531372 245.82095337 496.83990479
166.73492432 262.68884277 432.29199219
166.73704529 262.69427490 432.30511475
166.73226929 262.69491577 432.29046631
166.73112488 262.70101929 432.30456543
292.15994263 292.65905762 472.55593872
292.16461182 292.65472412 472.57296753
292.16503906 292.65121460 472.54156494
292.16613770 292.65039062 472.56048584
202.92092896 302.16635132 459.71875000
202.92591858 302.16397095 459.73904419
202.92646790 302.16949463 459.70776367
202.92877197 302.16818237 459.72714233
185.31983948 259.87802124 443.91488647
185.31945801 259.87741089 443.93472290
185.32351685 259.88775635 443.91525269
185.31858826 259.88864136 443.93331909
226.54751587 284.30447388 498.10330200
226.54916382 284.30523682 498.11825562
226.54307556 284.30731201 498.09384155
226.54696655 284.31072998 498.10473633
264.44006348 307.93594360 471.75973511
264.44689941 307.93194580 471.77627563
264.43597412 307.93414307 471.75787354
264.43783569 307.93444824 471.77572632
245.19926453 272.53292847 456.48876953
245.20594788 272.52981567 456.50506592
245.19978333 272.53405762 456.47860718
245.20315552 272.53207397 456.49313354
221.64654541 328.77307129 484.89828491
221.65263367 328.76672363 484.91998291
221.62907410 328.76803589 484.89071655
221.63386536 328.76486206 484.91180420
269.02630615 295.85467529 488.41976929
269.02880859 295.84680176 488.43930054
269.02590942 295.84698486 488.41381836
269.02624512 295.84445190 488.43115234
225.77700806 239.58259583 471.16525269
225.77847290 239.57470703 471.18231201
225.77606201 239.58457947 471.16134644
225.77545166 239.57940674 471.17358398
266.29330444 258.17636108 463.29602051
266.29635620 258.16943359 463.31317139
266.29318237 258.17736816 463.28466797
266.29220581 258.17315674 463.29943848
174.29202271 308.35433960 465.58984375
174.29435730 308.35430908 465.60504150
174.29663086 308.35040283 465.58923340
174.29618835 308.35247803 465.60552979
230.82215881 301.30725098 456.31072998
230.82975769 301.30416870 456.32604980
230.82690430 301.30636597 456.29687500
230.83233643 301.30511475 456.31140137
264.54043579 295.24139404 466.32891846
264.54721069 295.23898315 466.34503174
264.53930664 295.24154663 466.31948853
264.54290771 295.24154663 466.33633423
185.72886658 226.73873901 457.02288818
185.72714233 226.73707581 457.04010010
185.72506714 226.74348450 457.02734375
185.71902466 226.74290466 457.03906250
190.12272644 277.73452759 446.05395508
190.12568665 277.73257446 446.07202148
190.12542725 277.74118042 446.05252075
190.12455750 277.74053955 446.06814575
217.27928162 224.97341919 477.95547485
217.28804016 224.96633911 477.97106934
217.27395630 224.96885681 477.94638062
217.28242493 224.96365356 477.95584106
216.77308655 236.85586548 486.15316772
216.77648926 236.84739685 486.16979980
216.77191162 236.85910034 486.14813232
216.77471924 236.85351562 486.15917969
252.88711548 273.95227051 498.60818481
252.88897705 273.94384766 498.62777710
252.88299561 273.94564819 498.60055542
252.88394165 273.94177246 498.61557007
227.81903076 224.61061096 500.00183105
227.82345581 224.60317993 500.02197266
227.81163025 224.60673523 499.99639893
227.81747437 224.60119629 500.00958252
206.25584412 249.36555481 452.60681152
206.25837708 249.36070251 452.62442017
206.26087952 249.36120605 452.60644531
206.26126099 249.35818481 452.62023926
237.30871582 259.50378418 499.14895630
237.31355286 259.49273682 499.16378784
237.30732727 259.50360107 499.14129639
237.30921936 259.49725342 499.15161133
167.99911499 232.68403625 439.39575195
167.99774170 232.68849182 439.41381836
167.98925781 232.69215393 439.39132690
167.98559570 232.69598389 439.40670776
238.96704102 236.08119202 487.58807373
238.97215271 236.07293701 487.60443115
238.95962524 236.08126831 487.58319092
238.96273804 236.07554626 487.59408569
215.49967957 259.90338135 450.68008423
215.50372314 259.89978027 450.69802856
215.50070190 259.90808105 450.67221069
215.50215149 259.90695190 450.68630981
251.46115112 255.45970154 509.32342529
251.46650696 255.45111084 509.34326172
251.45275879 255.46022034 509.30996704
251.45742798 255.45608521 509.32440186
275.90167236 267.75469971 475.96472168
275.90447998 267.74972534 475.98614502
275.89965820 267.75317383 475.95269775
275.89947510 267.75112915 475.97262573
164.80703735 292.12921143 445.71163940
164.80902100 292.13150024 445.72454834
164.81677246 292.13018799 445.70785522
164.81520081 292.13400269 445.72070312
217.10098267 307.01159668 505.99224854
217.10047913 307.00305176 506.01641846
217.09129333 307.01464844 505.99130249
217.09091187 307.00933838 506.01000977
269.90939331 283.46136475 484.28735352
269.90786743 283.45678711 484.30764771
269.90960693 283.45877075 484.27783203
269.90631104 283.45901489 484.29550171
250.25331116 242.48928833 508.31738281
250.26069641 242.47691345 508.33843994
250.24868774 242.48922729 508.30780029
250.25451660 242.48056030 508.32269287
194.93731689 322.21829224 474.57156372
194.94255066 322.21722412 474.58905029
194.94125366 322.21185303 474.56628418
194.94296265 322.21261597 474.58352661
201.87300110 236.81201172 496.23706055
201.87561035 236.80332947 496.25787354
201.87509155 236.81623840 496.23437500
201.87556458 236.81082153 496.24661255
221.57156372 229.92193604 509.03582764
221.57914734 229.91481018 509.05712891
221.56681824 229.91888428 509.02618408
221.57255554 229.91447449 509.04058838
272.28332520 314.38766479 481.44561768
272.29107666 314.38305664 481.46426392
272.28189087 314.38037109 481.44531250
272.28634644 314.37991333 481.46508789
198.99145508 240.27261353 469.09582520
198.99360657 240.26643372 469.11291504
198.99261475 240.27842712 469.09359741
198.99186707 240.27520752 469.10409546
235.56640625 278.34378052 512.29174805
235.56404114 278.34255981 512.30230713
235.56240845 278.34277344 512.29028320
235.56163025 278.34643555 512.29681396
250.51541138 328.78991699 482.04907227
250.52432251 328.78512573 482.06527710
250.50694275 328.78771973 482.04992676
250.51275635 328.78756714 482.06793213
173.31022644 255.57537842 439.08108521
173.31004333 255.57783508 439.09924316
173.30610657 255.58682251 439.08605957
173.30093384 255.59020996 439.10278320
244.50494385 238.30757141 520.10913086
244.51153564 238.29913330 520.13146973
244.49243164 238.30285645 520.09979248
244.49844360 238.29896545 520.11602783
246.29980469 248.53575134 461.26684570
246.30157471 248.52964783 461.28054810
246.29562378 248.54031372 461.25695801
246.29559326 248.53619385 461.26983643
257.18551636 253.81355286 484.13711548
257.19207764 253.80413818 484.15502930
257.18789673 253.80920410 484.13311768
257.19161987 253.80381775 484.14685059
261.30841064 325.19525146 484.47753906
261.31933594 325.18777466 484.49612427
261.30187988 325.18627930 484.47885132
261.30776978 325.18276978 484.49868774
287.12033081 272.49438477 471.75848389
287.11660767 272.48947144 471.77908325
287.11923218 272.48937988 471.74493408
287.11251831 272.48977661 471.76666260
234.88597107 269.55215454 453.38925171
234.88943481 269.55026245 453.40609741
234.88851929 269.55572510 453.37426758
234.89056396 269.55447388 453.38861084
279.11450195 292.09567261 481.64776611
279.11932373 292.08963013 481.67065430
279.11254883 292.09268188 481.63516235
279.11337280 292.09078979 481.65762329
175.62951660 296.54846191 454.38482666
175.63230896 296.55017090 454.40295410
175.63887024 296.55084229 454.38125610
175.63771057 296.55285645 454.39620972
260.34747314 244.17333984 474.95175171
260.34851074 244.16685486 474.97344971
260.34600830 244.17073059 474.94049072
260.34341431 244.16752625 474.95742798
255.98059082 257.11810303 520.91607666
255.98883057 257.11349487 520.93457031
255.96902466 257.11373901 520.91137695
255.97772217 257.11187744 520.92517090
283.70556641 281.76580811 467.19296265
283.70294189 281.76226807 467.21389771
283.70916748 281.76684570 467.18066406
283.70294189 281.76699829 467.20144653
229.41265869 270.18515015 515.80114746
229.41783142 270.17498779 515.82226562
229.40272522 270.18258667 515.79345703
229.40724182 270.17810059 515.80737305
245.40545654 320.64227295 472.79614258
245.41181946 320.63690186 472.81393433
245.40335083 320.63906860 472.78948975
245.40698242 320.63821411 472.80654907
246.59887695 295.90704346 459.49926758
246.60646057 295.90490723 459.51446533
246.59951782 295.90713501 459.48794556
246.60415649 295.90692139 459.50354004
171.50340271 283.33810425 441.62060547
171.50733948 283.33953857 441.63265991
171.50709534 283.34304810 441.62097168
171.50794983 283.34609985 441.63369751
255.54685974 274.52346802 465.22796631
255.54556274 274.51885986 465.24526978
255.54104614 274.52798462 465.21542358
255.53814697 274.52655029 465.23056030
194.71350098 234.42913818 476.67822266
194.71377563 234.42248535 476.69207764
194.70800781 234.43093872 476.67291260
194.70651245 234.42895508 476.67932129
169.76289368 242.84033203 438.43688965
169.76481628 242.84275818 438.45617676
169.75292969 242.85241699 438.43963623
169.75091553 242.85597229 438.45587158
191.64187622 287.34027100 449.48165894
191.64474487 287.34008789 449.49761963
191.64637756 287.33999634 449.47860718
191.64598083 287.34127808 449.49368286
183.36056519 235.72273254 447.00720215
183.36186218 235.72282410 447.02136230
183.35430908 235.72885132 447.01098633
183.35260010 235.73089600 447.02175903
205.51501465 274.16503906 447.56063843
205.52050781 274.16317749 447.57653809
205.51678467 274.17239380 447.55184937
205.52053833 274.17053223 447.56509399
237.03153992 238.93347168 474.85671997
237.03421021 238.92636108 474.87310791
237.03013611 238.93452454 474.85400391
237.03088379 238.92913818 474.86547852
231.64288330 230.62344360 518.86254883
231.64660645 230.61474609 518.88507080
231.63143921 230.61361694 518.86157227
231.63568115 230.61038208 518.87609863
223.62489319 301.92370605 499.66592407
223.62942505 301.92285156 499.67578125
223.63049316 301.92468262 499.65960693
223.63571167 301.92416382 499.66671753
212.82839966 238.44432068 471.45614624
212.83126831 238.43553162 471.47491455
212.83154297 238.44125366 471.44543457
212.83213806 238.43464661 471.45867920
196.45449829 215.64300537 482.55465698
196.46047974 215.63897705 482.56942749
196.44734192 215.64413452 482.55285645
196.45321655 215.64094543 482.56002808
229.09457397 223.71409607 489.64566040
229.10154724 223.70832825 489.66436768
229.09010315 223.71118164 489.64498901
229.09600830 223.70668030 489.65478516
228.44836426 322.74850464 474.35189819
228.45603943 322.74191284 474.37155151
228.43916321 322.74407959 474.34844971
228.44349670 322.74142456 474.36608887
218.26132202 245.97685242 453.41976929
218.26641846 245.97210693 453.43173218
218.26110840 245.97586060 453.40728760
218.26445007 245.97184753 453.41625977
245.37524414 270.41122437 503.90780640
245.37890625 270.40673828 503.92117310
245.37747192 270.40740967 503.90081787
245.38104248 270.40805054 503.91085815
267.09155273 248.54617310 469.45217896
267.09252930 248.53819275 469.47207642
267.08810425 248.54170227 469.43832397
267.08386230 248.53692627 469.45458984
276.72656250 304.46844482 480.74822998
276.73483276 304.46371460 480.76708984
276.72384644 304.46472168 480.73748779
276.72781372 304.46475220 480.75701904
190.63026428 252.18063354 446.33889771
190.62770081 252.18205261 446.35214233
190.62493896 252.18482971 446.34106445
190.62182617 252.18624878 446.35058594
200.01054382 237.47428894 486.85144043
200.01235962 237.46577454 486.86975098
200.01072693 237.47967529 486.84655762
200.00854492 237.47482300 486.85784912
242.60769653 255.92245483 456.37014771
242.60903931 255.91822815 456.38653564
242.60394287 255.92909241 456.36087036
242.60264587 255.92601013 456.37405396
190.91809082 314.29504395 468.30535889
190.92199707 314.29293823 468.32543945
190.92344666 314.28668213 468.30065918
190.92596436 314.28546143 468.31951904
217.69142151 238.90396118 514.73840332
217.69493103 238.89788818 514.76251221
217.68409729 238.90414429 514.73626709
217.68783569 238.90139771 514.75201416
263.43002319 285.94323730 467.67810059
263.43478394 285.94219971 467.69543457
263.42233276 285.94436646 467.66766357
263.42382812 285.94628906 467.68450928
190.75131226 214.75386047 462.99499512
190.75471497 214.75251770 463.00769043
190.74659729 214.75570679 462.98577881
190.74900818 214.75422668 462.99340820
208.02819824 311.80957031 461.19384766
208.03314209 311.80856323 461.21044922
208.03663635 311.80841064 461.18576050
208.03933716 311.80786133 461.20278931
247.07543945 303.15802002 514.15240479
247.07421875 303.14791870 514.16967773
247.07293701 303.14791870 514.14929199
247.07101440 303.14474487 514.16400146
252.96708679 295.05361938 502.47143555
252.96795654 295.04898071 502.48672485
252.96487427 295.04870605 502.46838379
252.96405029 295.04913330 502.48040771
230.69699097 228.03125000 509.82675171
230.69778442 228.02572632 509.84649658
230.68710327 228.02825928 509.82662964
230.69038391 228.02650452 509.83810425
230.84420776 247.29125977 457.86428833
230.84741211 247.28656006 457.87911987
230.84841919 247.29252625 457.85623169
230.85028076 247.28793335 457.86865234
239.86215210 279.72045898 454.00610352
239.86827087 279.71997070 454.02066040
239.85974121 279.72293091 453.99438477
239.86456299 279.72326660 454.00787354
203.63314819 322.91732788 471.80770874
203.63980103 322.91406250 471.82501221
203.63481140 322.91088867 471.80435181
203.63894653 322.90969849 471.82171631
195.87983704 231.13787842 491.99105835
195.88273621 231.13015747 492.01077271
195.87844849 231.14196777 491.98406982
195.87754822 231.13752747 491.99478149
188.24154663 235.26162720 459.16885376
188.23898315 235.25839233 459.18786621
188.24333191 235.26133728 459.17123413
188.23699951 235.26086426 459.18316650
194.88276672 266.08361816 445.59066772
194.88551331 266.08291626 445.60791016
194.88201904 266.09088135 445.58663940
194.88125610 266.09094238 445.60000610
251.45043945 314.03356934 470.33862305
251.45520020 314.02893066 470.35528564
251.44093323 314.03573608 470.33282471
251.44302368 314.03549194 470.34902954
215.95285034 302.06500244 455.59252930
215.95655823 302.06137085 455.60754395
215.95448303 302.06945801 455.58547974
215.95663452 302.06753540 455.60113525
270.92028809 304.67138672 487.75067139
270.92062378 304.66540527 487.76989746
270.91510010 304.66860962 487.74020386
270.91320801 304.66809082 487.75918579
225.58441162 286.99789429 506.65768433
225.58729553 286.99139404 506.67654419
225.57467651 286.99600220 506.65789795
225.57708740 286.99328613 506.67291260
272.39916992 269.70700073 464.10620117
272.39865112 269.70370483 464.12359619
272.39825439 269.71209717 464.09503174
272.39410400 269.71133423 464.11154175
253.01223755 239.43920898 472.79479980
253.01519775 239.43368530 472.81512451
253.01391602 239.43371582 472.78451538
253.01406860 239.42846680 472.79980469
245.59875488 254.30570984 493.95745850
245.60525513 254.29631042 493.97015381
245.59606934 254.29980469 493.94766235
245.60186768 254.29374695 493.95626831
235.45416260 227.01062012 496.11288452
235.46224976 227.00149536 496.13128662
235.45156860 227.00714111 496.09970093
235.45767212 227.00085449 496.11218262
221.77210999 266.91964722 451.93164062
221.77635193 266.91738892 451.94720459
221.77432251 266.92263794 451.91772461
221.77708435 266.91998291 451.93154907
214.95091248 326.29849243 475.98873901
214.95899963 326.29467773 476.00775146
214.94677734 326.29223633 475.98626709
214.95364380 326.29141235 476.00436401
263.35137939 267.34561157 465.71704102
263.35281372 267.34286499 465.73153687
263.34454346 267.34777832 465.70269775
263.34326172 267.34771729 465.71691895
261.47091675 250.59941101 463.01132202
261.47119141 250.59664917 463.02484131
261.46301270 250.60128784 462.99975586
261.46151733 250.59959412 463.01199341
174.98176575 265.33801270 440.32290649
174.98010254 265.34103394 440.33978271
174.97833252 265.35235596 440.32553101
174.97343445 265.35632324 440.34045410
252.09448242 239.72637939 463.46157837
252.10031128 239.72082520 463.47720337
252.09536743 239.72274780 463.44595337
252.09753418 239.71810913 463.45962524
198.29664612 257.32632446 447.24121094
198.29571533 257.32434082 447.25512695
198.29681396 257.33212280 447.23977661
198.29440308 257.33062744 447.24954224
244.17907715 305.89550781 461.19683838
244.19012451 305.89263916 461.21115112
244.17898560 305.89535522 461.18606567
244.18728638 305.89434814 461.20156860
225.65211487 292.14639282 456.17071533
225.65773010 292.14300537 456.18872070
225.65049744 292.15170288 456.15313721
225.65304565 292.14950562 456.16925049
259.95364380 300.22003174 496.09350586
259.95495605 300.21423340 496.10995483
259.95465088 300.21353149 496.08764648
259.95550537 300.21337891 496.10299683
245.52542114 280.94671631 512.61187744
245.52972412 280.94079590 512.62493896
245.52111816 280.94250488 512.60644531
245.52285767 280.94204712 512.61596680
258.76376343 268.20376587 490.07897949
258.77093506 268.19515991 490.09680176
258.76019287 268.20538330 490.07452393
258.76446533 268.20147705 490.08905029
242.31030273 234.26501465 512.81848145
242.31701660 234.25631714 512.83758545
242.29989624 234.26078796 512.81127930
242.30668640 234.25590515 512.82342529
229.52204895 331.43218994 482.67211914
229.52957153 331.42501831 482.68920898
229.51452637 331.42135620 482.66940308
229.51927185 331.41796875 482.68884277
198.23661804 296.05078125 456.04400635
198.23704529 296.05059814 456.06207275
198.23719788 296.05169678 456.03778076
198.23565674 296.05303955 456.05355835
290.29373169 265.96276855 467.28298950
290.29275513 265.95922852 467.30648804
290.29885864 265.96334839 467.26617432
290.29409790 265.96212769 467.28829956
237.39758301 269.17700195 518.52093506
237.40200806 269.16891479 518.54101562
237.39117432 269.17248535 518.51184082
237.39614868 269.16940308 518.52569580
214.48228455 317.01904297 463.42044067
214.49015808 317.01599121 463.43664551
214.48458862 317.01937866 463.41534424
214.48922729 317.01895142 463.43127441
177.75248718 230.15428162 444.44433594
177.75418091 230.15568542 444.45651245
177.74273682 230.15666199 444.44396973
177.74263000 230.15841675 444.45358276
278.48590088 290.71411133 471.08917236
278.48858643 290.70944214 471.10610962
278.48590088 290.70928955 471.08050537
278.48583984 290.70822144 471.09707642
260.78192139 276.82376099 490.75894165
260.78796387 276.81887817 490.77398682
260.78527832 276.81655884 490.75436401
260.78979492 276.81542969 490.76736450
218.45422363 235.89837646 494.23269653
218.45980835 235.89038086 494.25268555
218.45353699 235.89877319 494.23205566
218.45582581 235.89364624 494.24414062
227.94740295 318.22262573 466.75720215
227.95188904 318.21994019 466.77526855
227.94381714 318.22583008 466.74981689
227.94531250 318.22601318 466.76681519
191.62480164 219.70010376 477.20785522
191.62808228 219.69566345 477.22198486
191.62265015 219.70248413 477.20391846
191.62121582 219.69952393 477.21047974
290.68133545 286.13421631 467.22817993
290.68243408 286.13128662 467.24749756
290.68634033 286.13400269 467.21270752
290.68322754 286.13452148 467.23254395
293.63140869 273.22479248 462.36022949
293.63189697 273.22018433 462.37811279
293.64285278 273.21945190 462.34356689
293.63821411 273.21868896 462.36367798
251.66841125 265.29388428 522.20202637
251.67608643 265.28753662 522.21954346
251.65519714 265.28808594 522.19390869
251.66305542 265.28759766 522.20758057
280.08660889 273.26565552 464.32183838
280.08642578 273.26150513 464.34024048
280.08615112 273.26480103 464.30722046
280.08294678 273.26321411 464.32577515
237.77551270 261.88229370 453.61291504
237.77699280 261.87811279 453.62542725
237.77154541 261.88922119 453.60049438
237.77151489 261.88760376 453.61206055
204.03681946 243.82514954 463.76281738
204.03747559 243.81898499 463.78253174
204.03862000 243.82192993 463.76364136
204.03639221 243.81765747 463.77728271
225.04330444 292.07330322 500.35635376
225.04252625 292.07397461 500.37158203
225.03883362 292.07672119 500.35043335
225.04077148 292.07855225 500.36117554
225.11914062 308.78085327 460.30108643
225.12339783 308.77801514 460.31729126
225.12222290 308.78497314 460.29107666
225.12361145 308.78402710 460.30657959
238.30072021 282.30102539 518.79870605
238.29473877 282.29711914 518.81274414
238.29156494 282.29602051 518.79235840
238.28778076 282.29824829 518.80200195
227.97912598 242.59429932 464.00616455
227.97978210 242.58761597 464.02536011
227.98599243 242.59223938 463.99655151
227.98399353 242.58711243 464.01220703
211.70724487 322.68865967 468.53210449
211.71286011 322.68682861 468.54882812
211.70718384 322.69232178 468.52832031
211.71000671 322.69250488 468.54486084
181.74900818 222.61862183 451.39526367
181.74787903 222.61795044 451.41195679
181.74160767 222.62220764 451.39587402
181.73785400 222.62269592 451.40573120
221.78227234 284.25796509 455.04306030
221.78640747 284.25393677 455.06140137
221.77940369 284.26208496 455.02835083
221.78128052 284.25985718 455.04418945
264.72537231 305.88031006 493.00683594
264.72784424 305.87091064 493.02655029
264.71914673 305.87362671 493.00637817
264.72009277 305.87103271 493.02389526
167.19451904 269.89251709 435.74850464
167.19778442 269.89608765 435.76144409
167.19088745 269.90051270 435.74322510
167.18963623 269.90539551 435.75747681
193.50672913 230.86520386 483.70910645
193.50866699 230.85830688 483.72604370
193.50469971 230.87075806 483.70373535
193.50309753 230.86643982 483.71261597
249.57388306 266.97625732 460.12802124
249.57604980 266.97335815 460.14401245
249.56707764 266.98034668 460.11437988
249.56726074 266.97906494 460.12829590
245.16921997 238.33380127 499.42700195
245.17575073 238.32249451 499.44787598
245.16546631 238.33567810 499.41799927
245.16979980 238.32952881 499.43139648
237.42318726 263.03887939 506.22085571
237.42601013 263.02999878 506.23675537
237.42118835 263.03631592 506.21356201
237.42436218 263.03231812 506.22576904
197.27447510 205.47439575 479.80603027
197.27804565 205.47175598 479.82449341
197.27453613 205.47311401 479.80053711
197.27998352 205.47024536 479.81039429
197.79231262 215.63787842 495.48367310
197.79460144 215.63241577 495.50512695
197.78996277 215.63883972 495.47717285
197.79037476 215.63616943 495.48825073
272.08612061 307.00918579 473.41656494
272.09558105 307.00485229 473.43310547
272.08465576 307.00292969 473.40866089
272.08944702 307.00253296 473.42639160
272.26684570 280.00543213 468.52423096
272.26788330 280.00234985 468.53793335
272.26080322 280.00668335 468.51391602
272.26013184 280.00610352 468.52783203
289.54574585 280.06500244 461.82315063
289.54638672 280.05932617 461.84027100
289.55508423 280.06097412 461.81201172
289.55026245 280.06018066 461.83065796
209.02737427 288.80273438 453.50421143
209.03179932 288.80029297 453.52053833
209.03099060 288.80386353 453.49377441
209.03399658 288.80239868 453.50933838
248.80992126 266.20358276 498.26309204
248.81582642 266.19586182 498.28063965
248.81146240 266.19860840 498.25936890
248.81484985 266.19525146 498.27233887
191.95011902 236.98660278 465.83978271
191.95333862 236.98091125 465.86041260
191.95394897 236.98930359 465.83523560
191.95286560 236.98599243 465.84814453
207.79251099 296.48672485 457.41784668
207.79740906 296.48373413 457.43780518
207.79653931 296.48730469 457.40686035
207.79898071 296.48541260 457.42495728
257.91427612 292.67611694 495.82763672
257.91421509 292.67208862 495.84426880
257.91461182 292.67108154 495.81759644
257.91278076 292.67190552 495.83093262
258.21731567 259.42330933 462.74697876
258.21691895 259.42181396 462.76373291
258.21218872 259.42657471 462.73159790
258.21102905 259.42727661 462.74566650
243.47192383 256.80853271 503.05566406
243.47747803 256.79776001 503.07336426
243.46371460 256.81048584 503.04479980
243.46817017 256.80511475 503.05792236
271.87326050 254.62654114 469.92279053
271.87600708 254.61973572 469.94433594
271.87313843 254.62451172 469.91030884
271.87274170 254.62091064 469.92831421
237.04791260 305.89099121 458.15078735
237.05538940 305.88909912 458.16571045
237.04823303 305.89187622 458.14410400
237.05364990 305.89215088 458.15887451
265.16561890 264.50531006 482.21905518
265.16687012 264.49859619 482.23535156
265.16064453 264.50054932 482.21347046
265.16180420 264.49722290 482.22943115
270.20468140 289.48049927 468.37869263
270.20523071 289.47521973 468.39526367
270.20422363 289.47799683 468.37097168
270.20214844 289.47576904 468.38812256
186.73866272 242.50909424 445.95404053
186.74035645 242.50868225 445.96780396
186.73770142 242.51292419 445.95745850
186.73695374 242.51391602 445.96829224
239.95199585 233.04223633 494.70971680
239.95785522 233.03265381 494.72848511
239.94560242 233.04302979 494.69921875
239.94883728 233.03718567 494.71173096
259.81591797 313.95733643 473.51513672
259.82006836 313.95419312 473.53048706
259.81188965 313.95901489 473.50735474
259.81375122 313.95983887 473.52365112
162.69570923 255.06538391 431.04147339
162.69779968 255.07145691 431.05593872
162.69149780 255.07312012 431.03582764
162.68994141 255.07849121 431.04992676
286.84558105 283.61080933 475.43478394
286.84478760 283.60421753 475.45584106
286.84396362 283.60769653 475.41754150
286.84002686 283.60656738 475.43933105
255.51318359 280.60644531 496.19967651
255.51583862 280.59924316 496.21862793
255.51501465 280.60079956 496.19329834
255.51473999 280.59857178 496.20898438
249.70030212 277.14782715 505.58178711
249.70071411 277.14315796 505.59603882
249.70486450 277.13619995 505.57312012
249.70657349 277.13626099 505.58398438
210.50717163 267.32534790 447.69515991
210.51136780 267.32156372 447.70867920
210.50798035 267.32977295 447.68353271
210.51210022 267.32727051 447.69561768
195.38269043 311.16586304 463.12295532
195.38732910 311.16482544 463.13952637
195.38488770 311.16503906 463.11358643
195.38795471 311.16561890 463.13122559
225.05989075 232.48405457 473.47854614
225.06718445 232.47665405 473.49627686
225.06527710 232.48217773 473.47125244
225.06848145 232.47595215 473.48266602
229.31362915 278.90051270 518.15661621
229.31063843 278.89416504 518.17352295
229.30715942 278.89569092 518.15545654
229.30462646 278.89669800 518.16558838
245.99758911 287.43640137 517.01147461
246.00114441 287.42764282 517.03192139
245.99423218 287.43292236 517.00299072
245.99838257 287.42977905 517.01721191
220.10720825 223.68048096 498.54501343
220.11061096 223.66824341 498.56677246
220.10183716 223.67425537 498.53942871
220.10267639 223.66535950 498.55352783
237.83853149 245.68681335 459.64178467
237.84149170 245.68144226 459.65570068
237.83782959 245.68927002 459.62857056
237.84074402 245.68464661 459.63934326
191.60820007 299.22589111 455.13458252
191.61004639 299.22622681 455.15081787
191.61286926 299.23004150 455.12518311
191.61259460 299.23156738 455.14056396
188.03831482 320.56115723 476.49981689
188.04283142 320.56100464 476.51828003
188.03985596 320.56024170 476.49676514
188.04113770 320.56201172 476.51290894
243.72549438 315.39035034 467.94317627
243.73138428 315.38742065 467.95974731
243.72047424 315.38967896 467.93304443
243.72351074 315.38885498 467.95010376
277.80172729 253.98526001 462.49102783
277.80722046 253.97953796 462.50869751
277.80709839 253.97894287 462.47448730
277.80725098 253.97494507 462.49032593
235.55908203 228.76077271 489.02893066
235.56480408 228.74983215 489.04739380
235.55726624 228.75514221 489.02185059
235.56106567 228.74835205 489.03375244
251.03907776 299.78665161 507.65744019
251.04000854 299.77633667 507.68188477
251.03125000 299.78646851 507.64392090
251.03268433 299.78234863 507.66406250
234.73519897 268.06842041 511.32131958
234.73712158 268.06222534 511.33837891
234.72628784 268.06970215 511.31701660
234.72695923 268.06948853 511.32897949
245.75048828 246.60012817 486.42770386
245.75500488 246.59213257 486.44259644
245.74867249 246.60002136 486.42291260
245.75151062 246.59489441 486.43338013
227.59712219 282.36019897 511.85260010
227.60067749 282.35034180 511.87664795
227.58547974 282.35968018 511.84707642
227.58766174 282.35424805 511.86572266
217.41279602 233.78956604 479.63366699
217.41877747 233.78083801 479.65237427
217.40921021 233.78936768 479.62698364
217.41180420 233.78207397 479.63851929
203.01762390 236.06875610 507.68261719
203.01869202 236.06146240 507.70751953
203.01277161 236.07278442 507.67654419
203.01336670 236.06912231 507.69134521
183.95272827 251.72421265 443.66760254
183.95480347 251.72479248 443.68103027
183.94792175 251.72598267 443.66809082
183.94696045 251.72804260 443.67987061
262.15597534 318.72717285 478.95718384
262.16296387 318.72314453 478.97460938
262.14685059 318.72482300 478.95291138
262.15020752 318.72619629 478.97140503
186.81228638 208.80932617 462.10067749
186.81526184 208.81027222 462.11462402
186.80479431 208.81184387 462.09829712
186.80647278 208.81332397 462.10726929
270.83105469 318.62249756 487.05996704
270.83953857 318.61532593 487.07907104
270.82794189 318.61401367 487.05810547
270.83236694 318.61221313 487.07751465
207.46559143 239.57774353 492.73693848
207.47096252 239.56816101 492.75613403
207.46809387 239.58084106 492.73806763
207.47161865 239.57595825 492.75122070
225.14006042 274.99929810 452.60836792
225.14434814 274.99505615 452.62646484
225.14466858 275.00793457 452.60009766
225.14546204 275.00463867 452.61520386
209.31469727 256.31994629 450.44091797
209.31732178 256.31570435 450.45776367
209.32168579 256.32345581 450.43948364
209.32206726 256.32067871 450.45248413
244.04562378 283.97552490 457.93719482
244.05200195 283.97460938 457.95269775
244.04409790 283.97711182 457.92974854
244.04830933 283.97708130 457.94409180
253.20893860 252.60697937 461.78594971
253.21350098 252.60140991 461.79888916
253.20423889 252.61283875 461.78002930
253.20651245 252.60882568 461.79241943
260.86666870 307.30636597 498.82681274
260.86828613 307.29733276 498.85006714
260.86306763 307.30426025 498.81814575
260.86273193 307.30081177 498.83859253
231.90579224 270.13537598 522.90850830
231.90705872 270.12826538 522.92993164
231.89820862 270.12863159 522.90417480
231.89976501 270.12796021 522.91802979
272.29721069 262.75323486 462.75933838
272.29977417 262.74853516 462.77545166
272.29171753 262.75561523 462.74639893
272.29138184 262.75393677 462.76110840
