ply
format ascii 1.0
element vertex 512
property float x
property float y
property float z
end_header
146.76977539 167.93743896 411.51144409
142.68270874 170.45530701 414.06613159
150.84951782 164.93319702 414.01004028
147.66488647 166.73574829 417.34973145
143.56991577 171.79522705 407.83386230
151.47119141 165.93299866 407.37030029
147.74613953 170.59237671 404.65023804
142.23730469 170.07572937 418.61593628
140.36578369 174.11738586 410.57006836
145.97082520 167.36758423 421.36404419
153.33941650 172.72154236 404.86105347
147.51832581 176.94670105 405.49484253
151.72290039 164.60409546 421.17626953
155.71023560 164.84796143 404.77456665
156.66117859 161.99160767 416.35723877
137.58258057 173.71800232 417.96209717
157.91325378 162.00431824 409.41415405
137.16331482 176.30220032 413.45092773
158.38328552 172.58079529 406.87512207
152.39642334 180.26097107 409.46447754
139.77923584 179.89482117 410.27386475
146.27220154 182.59455872 409.39144897
159.74354553 166.80902100 403.68173218
157.31474304 162.10957336 420.85562134
142.42416382 168.61592102 426.69540405
158.72814941 178.41278076 411.24810791
155.59187317 182.28318787 412.94775391
134.38447571 179.37020874 416.53103638
146.67539978 163.10493469 428.81808472
155.63298035 161.60853577 425.80935669
162.48637390 162.55438232 404.38641357
164.68455505 171.18394470 407.44183350
136.67327881 183.76129150 414.46951294
150.75917053 160.30548096 428.55361938
163.50386047 159.17933655 415.20794678
151.05816650 186.53593445 415.02053833
135.76466370 173.91729736 426.47964478
142.64587402 164.50183105 430.51641846
161.76785278 159.32191467 421.17687988
143.46374512 187.48489380 413.67654419
165.36386108 159.55413818 409.20544434
162.53796387 180.33457947 416.01867676
132.92260742 177.57795715 423.49768066
158.55400085 183.97613525 417.51950073
145.11004639 157.85270691 430.74813843
150.75900269 154.90559387 428.62936401
157.97996521 156.11547852 426.36254883
138.81074524 168.61100769 432.13589478
166.91384888 176.82518005 414.31674194
166.79920959 160.38897705 404.99896240
166.84208679 164.41728210 401.84124756
133.08383179 184.43165588 419.58471680
134.74330139 173.96151733 430.99423218
136.88639832 188.85319519 417.88790894
140.03698730 159.19108582 433.18368530
156.09687805 187.58926392 422.40194702
170.78654480 171.43948364 409.11019897
165.02166748 182.96052551 419.43832397
163.85061646 153.40924072 422.78631592
141.92030334 191.77699280 419.08563232
159.28991699 151.13088989 426.08026123
153.30216980 149.91403198 428.65496826
131.34034729 184.49122620 423.98190308
146.58293152 192.11718750 420.66485596
142.57017517 153.86868286 432.85031128
167.97549438 154.03871155 418.04461670
160.71199036 187.15602112 423.08416748
172.53706360 174.41477966 412.83035278
134.74940491 168.25321960 435.29104614
151.06138611 191.40280151 424.02368164
172.52061462 168.30084229 403.39178467
171.23132324 156.23799133 412.46429443
130.79142761 182.12055969 428.92944336
170.72137451 161.63238525 399.32290649
146.00160217 149.78205872 432.44555664
131.88784790 177.12336731 433.55203247
172.60511780 159.35260010 404.26699829
170.88102722 181.79179382 417.85406494
141.71360779 193.57469177 424.32025146
133.55683899 190.45075989 424.51687622
160.56469727 146.13629150 425.22668457
152.65933228 144.27014160 427.78002930
135.51309204 157.03028870 436.99603271
138.29638672 151.96240234 435.39120483
171.03405762 161.33584595 395.15582275
133.24014282 164.83497620 438.17050171
159.87959290 191.88496399 424.27676392
163.14520264 158.72480774 387.84460449
164.62738037 146.27464294 422.86175537
174.80705261 179.16612244 413.83587646
148.76753235 144.28909302 430.41351318
165.46202087 189.09922791 423.33529663
169.03717041 186.55348206 421.34902954
177.16212463 174.60946655 409.80685425
170.50764465 148.92256165 419.72982788
131.13356018 171.31443787 438.87466431
174.92959595 161.79928589 398.21060181
166.08053589 154.79142761 389.43572998
159.30076599 141.17373657 424.68231201
149.97041321 194.31597900 430.04913330
161.67985535 153.58152771 386.50668335
137.40110779 193.77781677 429.13955688
168.62496948 161.80444336 388.01211548
177.67556763 169.67427063 400.95986938
154.61915588 139.62940979 426.02401733
132.93980408 191.06451416 430.41854858
174.30874634 185.20838928 417.29574585
144.98265076 142.43008423 432.57534790
177.44120789 154.93299866 411.26843262
156.85890198 195.41708374 427.90472412
175.93203735 151.25416565 414.99908447
142.32144165 194.52488708 431.90167236
179.58776855 173.91328430 405.34262085
132.07304382 187.88322449 434.82403564
171.45436096 154.90046692 391.79525757
131.72142029 157.60813904 440.57528687
139.29336548 145.22392273 436.48110962
171.79739380 190.42773438 421.17660522
162.56349182 155.91540527 382.61730957
178.91571045 159.18382263 400.44549561
166.16252136 139.75733948 420.17004395
161.59101868 137.54876709 421.73483276
171.12783813 143.83609009 420.36535645
148.05627441 137.09463501 429.12203979
176.17692566 166.05238342 391.32263184
134.04177856 149.88223267 439.66882324
154.35676575 135.25941467 423.98727417
179.72441101 172.26654053 397.29998779
128.17127991 176.19514465 441.52368164
162.21669006 196.32406616 428.37417603
136.99394226 193.80880737 435.62954712
181.35321045 156.54864502 406.88299561
130.55053711 184.04763794 440.38693237
180.49241638 182.97978210 411.89636230
175.12866211 144.96955872 417.95535278
144.14535522 195.55198669 436.20379639
154.78132629 198.17314148 431.98919678
182.58775330 178.32342529 407.54562378
168.32638550 195.29653931 425.75439453
150.16998291 133.19543457 426.07073975
178.57527161 188.04287720 416.14715576
178.37316895 155.35217285 394.29031372
168.09062195 154.95338440 382.56079102
142.10879517 137.15478516 433.74697876
148.30126953 197.55014038 435.71411133
162.18299866 133.64802551 418.84194946
127.01898956 161.46141052 443.87609863
180.85289001 149.30293274 413.70327759
129.87818909 152.64956665 443.50616455
176.33891296 161.08291626 386.33056641
173.21133423 139.21618652 417.61849976
179.79943848 171.23158264 389.90640259
137.32295227 140.77130127 438.74151611
173.66035461 154.55227661 385.47250366
134.99049377 193.14338684 440.08007812
173.87799072 195.10375977 422.86032104
155.87158203 129.50828552 419.86529541
177.14646912 193.60147095 418.61434937
183.52671814 150.97395325 410.59478760
140.60437012 196.36441040 439.82846069
124.97782898 173.31181335 445.44036865
185.49563599 173.18496704 400.04724121
133.64300537 206.41699219 414.02600098
138.26699829 207.69999695 415.27700806
133.05676270 145.14765930 442.52188110
124.78987885 166.59910583 445.97091675
144.34884644 131.43772888 430.17654419
128.02099609 204.55999756 414.66098022
125.56399536 203.27000427 408.36001587
185.30471802 156.42372131 401.62915039
162.56710815 200.88287354 431.22225952
163.65824890 130.07629395 415.11248779
149.19358826 128.69778442 425.17593384
135.21899414 206.68600464 422.11199951
125.97843933 178.51351929 446.21224976
180.19972229 156.60758972 388.98449707
186.68772888 178.00436401 403.79934692
123.20300293 202.00000000 418.19998169
132.45700073 206.99000549 405.97299194
179.99375916 142.47099304 414.92285156
142.99499512 209.24900818 418.08502197
139.83200073 209.35699463 410.29299927
169.06643677 132.52587891 415.47253418
120.80900574 200.51499939 405.08401489
119.24699402 199.92199707 410.71298218
129.26599121 204.75199890 422.44799805
186.59437561 153.93449402 408.72665405
131.12608337 189.52012634 444.44302368
170.60443115 198.96083069 428.18041992
125.22700500 203.63900757 401.60800171
123.54299927 201.79399109 424.09899902
187.53959656 181.32186890 409.18576050
142.07899475 208.82501221 423.92501831
116.04999542 197.44099426 405.22500610
108.87957001 186.25267029 420.64529419
111.66906738 191.34573364 420.20178223
137.68481445 135.12837219 437.97113037
111.89330292 190.14851379 423.95684814
125.69586945 156.68684387 447.51348877
115.98799896 197.88700867 416.81097412
185.45237732 156.62086487 395.74481201
184.96902466 175.80700684 392.73953247
133.20700073 205.82600403 427.62399292
184.04446411 162.00926208 390.13430786
137.85000610 207.64399719 426.57797241
130.91300964 207.19300842 401.15698242
145.31245422 200.33610535 440.65289307
148.04400635 210.70599365 420.10198975
118.98099518 199.37800598 399.40499878
117.09199524 197.93200684 422.77700806
145.34500122 211.64199829 411.82897949
128.39399719 203.77500916 428.55001831
112.59700012 195.17399597 413.27499390
138.25399780 210.30799866 404.06600952
112.78399658 194.93701172 418.04998779
111.45491028 187.88784790 428.30685425
105.48018646 181.90301514 417.20861816
184.48559570 145.34008789 409.68051147
159.31059265 203.47265625 434.26043701
111.33799744 193.91999817 407.81097412
156.74772644 125.18255615 416.07687378
107.22103119 187.60121155 411.26724243
189.90959167 176.03326416 406.34875488
120.75599670 199.51899719 428.26501465
119.32476044 195.21345520 432.94818115
134.44607544 138.82371521 442.51419067
149.21900940 212.15100098 414.64999390
143.53599548 211.92100525 406.32199097
146.73901367 210.26199341 425.17901611
127.51601410 184.76564026 448.06179810
177.46691895 135.56140137 414.02780151
114.12200165 193.30300903 428.56198120
184.38388062 166.74902344 387.28826904
108.43152618 183.56997681 428.54605103
153.29580688 203.45439148 437.97634888
186.52876282 148.91459656 403.37313843
107.53216553 189.09826660 406.78512573
113.34833527 187.80397034 433.84814453
161.34550476 125.51773834 413.18145752
165.47857666 127.13076019 412.12142944
183.76535034 192.18159485 419.24636841
114.39300537 195.37899780 396.75201416
104.95233154 184.03405762 407.73571777
189.35368347 168.39918518 397.07171631
168.47000122 202.00454712 431.28137207
175.06399536 199.89599609 425.69799805
187.09504700 187.39785767 416.25244141
125.80600739 201.58900452 432.86401367
123.63052368 197.81167603 436.10400391
110.13899994 192.17300415 401.25701904
116.38252258 190.04185486 436.57406616
104.58934784 178.98460388 423.32452393
127.71600342 206.03401184 396.43099976
180.89192200 195.87341309 421.59179688
151.40573120 123.65413666 419.70959473
172.39941406 130.63079834 412.82815552
102.86529541 177.30921936 418.98309326
152.69100952 212.28698730 420.17098999
127.39620972 148.48985291 447.98214722
148.82099915 213.23300171 405.82901001
189.19480896 162.20042419 395.49523926
131.86299133 208.64599609 396.58001709
121.37200165 201.75599670 393.78698730
152.63200378 213.42800903 411.73101807
182.46572876 139.09809875 412.42736816
105.39973450 185.75177002 402.42990112
102.14678192 178.08627319 406.91845703
138.94528198 129.32826233 435.46301270
140.89700317 208.80200195 432.03500366
116.94700623 197.86700439 393.00900269
105.15804291 176.60284424 429.54714966
121.53604889 193.86984253 440.24414062
191.94073486 169.03503418 401.47238159
109.46186829 189.47372437 394.53338623
123.52864075 179.88545227 449.77035522
101.94873810 173.62217712 421.79797363
135.90399170 210.66699219 397.05200195
188.75061035 152.05363464 399.72622681
110.11776733 182.16000366 436.18112183
100.78328705 173.84623718 415.21362305
191.57237244 163.15284729 399.89941406
133.79139709 196.63418579 445.77050781
132.20100403 204.83200073 435.95401001
139.15197754 199.99494934 444.51620483
100.48427582 173.78227234 407.16696167
141.94853210 125.37698364 430.86334229
128.77799988 201.71600342 438.82400513
131.21636963 140.21492004 446.30963135
152.54800415 212.10099792 426.98400879
105.66239166 185.08383179 395.99404907
99.73873901 171.79743958 410.99078369
186.29537964 175.48538208 386.78762817
112.83399963 193.32099915 390.65499878
106.86697388 176.79632568 435.21038818
153.21800232 214.26998901 404.41098022
192.81951904 159.26992798 404.74874878
186.57044983 143.72474670 402.97988892
157.06900024 213.91299438 416.43597412
191.96986389 182.12615967 412.51608276
101.84472656 170.25645447 426.42272949
189.97279358 169.23379517 391.89874268
142.62600708 213.09500122 397.15298462
101.95660400 179.51864624 400.14291382
121.73793793 170.87709045 452.09622192
115.09671783 185.32453918 442.90798950
127.02120972 198.33009338 442.82583618
99.16731262 169.06636047 417.09036255
154.21020508 120.70448303 415.56066895
102.90300751 169.84100342 430.98193359
129.93426514 192.52462769 449.36923218
123.56011963 154.88775635 451.71191406
158.60200500 214.78700256 411.65301514
129.80000305 208.07099915 390.61700439
194.66070557 166.85237122 404.96444702
167.52233887 124.29396820 408.65106201
136.50000000 206.71199036 438.64501953
148.54144287 205.21624756 442.38198853
117.30799866 198.42498779 387.80001831
110.98224640 179.74060059 442.23345947
149.27099609 214.30900574 397.10101318
98.91918945 169.81419373 402.84072876
139.14099121 212.31498718 392.91000366
177.97300720 203.15200806 424.17098999
100.27428436 165.90495300 426.12170410
163.01399231 206.95500183 435.95001221
181.62101746 133.67657471 409.84613037
147.70172119 120.28380585 422.47006226
158.74700928 213.43199158 424.92199707
185.68301392 195.56877136 422.33816528
160.84399414 214.05200195 420.02499390
97.80990601 167.27960205 409.91845703
120.61316681 190.46365356 446.28967285
105.41415405 183.03477478 389.94869995
144.06585693 121.56021881 427.37417603
187.74830627 169.40202332 384.42294312
97.56452942 165.31105042 414.39236450
173.81800842 205.61000061 428.49298096
105.53771973 170.20924377 438.62088013
161.09700012 215.08699036 407.35098267
175.61268616 127.87352753 408.57006836
98.50717926 162.74345398 421.03280640
101.30688477 177.87596130 394.66278076
162.64247131 121.10562134 409.38247681
133.52600098 204.62899780 442.07199097
124.80802155 194.54254150 447.09542847
149.09901428 211.62899780 434.86700439
102.47700500 166.06565857 433.84356689
143.52198792 210.04199219 437.64199829
108.70997620 175.12333679 442.67352295
191.50869751 188.73750305 417.65762329
121.19516754 160.90597534 453.56491089
134.94134521 130.69494629 442.35589600
122.27500153 203.11500549 386.13998413
163.57299805 214.81100464 413.01101685
154.17300415 212.78500366 431.91799927
126.57700348 206.36500549 386.92797852
107.11544037 184.63450623 386.20162964
189.01057434 149.10656738 392.58950806
193.54458618 156.92861938 397.67144775
112.17399597 192.47299194 384.98498535
99.49706268 173.38711548 395.91500854
156.26899719 215.24099731 397.98999023
191.48002625 178.13494873 391.01641846
127.80168915 142.76821899 450.64233398
138.95193481 123.92385864 434.48263550
187.09024048 138.04505920 407.95364380
101.05132294 161.28823853 431.68096924
114.35677338 181.43821716 447.71447754
188.05101013 142.39080811 397.81771851
117.95823669 186.12097168 448.72567749
158.91600037 213.54499817 429.44198608
169.61898804 207.64500427 432.78500366
152.13299561 209.05398560 440.42599487
160.62800598 215.55101013 400.96899414
136.72999573 211.76100159 388.01199341
96.63443756 164.14265442 404.75842285
196.63046265 177.40252686 411.83468628
99.07370758 158.94476318 426.46130371
124.48870850 187.95751953 452.52780151
143.62351990 205.22819519 445.89266968
103.69879913 164.82627869 438.36630249
96.26110077 162.15600586 410.27255249
96.51766968 160.29763794 414.82369995
101.82628632 177.53103638 389.47604370
119.77032471 176.65304565 453.89843750
190.20896912 193.28042603 420.21099854
176.48200989 207.75500488 423.22497559
130.65699768 201.46099854 446.59600830
143.88200378 213.71400452 388.87597656
97.09180450 164.78208923 399.13662720
197.96621704 171.24810791 409.39889526
107.02227783 168.79920959 444.09893799
117.44199371 198.86199951 382.72900391
132.17427063 133.17700195 446.63430786
136.77629089 202.57231140 448.37203979
183.53100586 201.02999878 426.22799683
167.95399475 215.08898926 410.14999390
154.10900879 215.63499451 392.93499756
109.24603271 188.13101196 382.20367432
136.70469666 124.93756104 438.42901611
110.46064758 175.20794678 447.63320923
138.49099731 206.98500061 444.50302124
103.64379883 178.28948975 384.66198730
190.83093262 180.67466736 387.28311157
100.23726654 156.66084290 431.57672119
170.77937317 122.28784180 405.40740967
158.07411194 117.08517456 410.68182373
145.83300781 210.41500854 441.80899048
120.98630524 155.88345337 455.27883911
149.23800659 215.12100220 389.29000854
188.96270752 185.38313293 386.10220337
160.96099854 215.87300110 395.81900024
156.84400940 212.04400635 438.13101196
96.52665710 154.60684204 419.58456421
130.02095032 136.11676025 449.90917969
166.88699341 215.00599670 423.69299316
99.06937408 171.68087769 389.55255127
95.88190460 154.69998169 414.17974854
121.40999603 202.48800659 380.91400146
169.95700073 214.90701294 417.53399658
171.02900696 211.40899658 428.90301514
129.52200317 208.40100098 382.38400269
192.04800415 153.84298706 388.32360840
113.66999817 194.61700439 380.19497681
122.61966705 149.92138672 454.89935303
166.42298889 215.95999146 401.61499023
97.83013153 153.99230957 425.71292114
116.60321808 180.61158752 453.01608276
181.49610901 128.45935059 406.01269531
95.50244904 160.20938110 401.10494995
102.93753815 158.55625916 439.60363770
104.66952515 162.49177551 443.09481812
150.79016113 115.49744415 417.38195801
97.80657959 167.31361389 391.01153564
172.25199890 213.19599915 422.55300903
172.73199463 214.44900513 410.52899170
199.54371643 161.92329407 407.35260010
109.43783569 170.69496155 449.59640503
166.56201172 214.54000854 428.56100464
113.11262512 176.76472473 452.08016968
164.32400513 213.49600220 433.34600830
138.77900696 212.99200439 383.64099121
94.79003906 155.18319702 407.35256958
191.74810791 188.34642029 390.38235474
140.12489319 118.74811554 432.22210693
198.27870178 183.40870667 414.55105591
101.50957489 151.59754944 435.81634521
175.46600342 213.14099121 418.13201904
185.39540100 130.77413940 405.29187012
154.69752502 114.53112793 412.85800171
163.24075317 116.74452972 406.41680908
189.51385498 146.98268127 385.90728760
107.17694092 184.28100586 378.35791016
119.04766846 166.74356079 458.06433105
119.12682343 161.40469360 457.83822632
189.59669495 141.80520630 390.58245850
189.26556396 135.59671021 401.30606079
104.78215027 155.00035095 443.57104492
190.16893005 198.61444092 423.35354614
173.15199280 215.10000610 404.65100098
99.40436554 148.52833557 430.18292236
197.04258728 187.62286377 419.23034668
146.40348816 114.42793274 422.47778320
176.06799316 211.17800903 427.62500000
96.72462463 149.43571472 423.50619507
107.14711761 163.90299988 448.99551392
96.45466614 162.11181641 390.81234741
95.55972290 158.58494568 394.42785645
167.45501709 117.66994476 403.98229980
142.73419189 115.70578766 428.05645752
104.13965607 176.79515076 377.89801025
117.54933929 173.80084229 457.76937866
103.81469727 149.77017212 440.79632568
95.12171173 148.76385498 409.56845093
95.86230469 148.06700134 418.83450317
193.14456177 173.85160828 382.24862671
101.50388336 172.89729309 380.13375854
181.67401123 206.82600403 429.82699585
167.26599121 216.83700562 395.45800781
93.94197845 154.33836365 401.38250732
176.88099670 214.39300537 407.70999146
172.48240662 119.62609100 402.12408447
110.38099670 190.10398865 375.79101562
200.64648438 159.25910950 400.82891846
192.71818542 178.43894958 382.00115967
121.34200287 202.14801025 375.76998901
98.90564728 168.64274597 383.08929443
98.62070465 143.53671265 425.83038330
124.69052887 141.77813721 455.65609741
101.77169800 143.24937439 433.82931519
132.72100830 210.54499817 378.01501465
179.58399963 123.43042755 402.60729980
115.39600372 195.88600159 374.46697998
197.99546814 157.18478394 391.20034790
196.28727722 172.67842102 385.46511841
152.11099243 216.97200012 384.67401123
132.43280029 127.54909515 447.86221313
147.97399902 216.34899902 382.92599487
95.43034363 144.75291443 413.61074829
200.05636597 157.97586060 395.98947144
177.75100708 215.19599915 412.47900391
196.75659180 182.45141602 389.39688110
190.07604980 147.99806213 380.96362305
203.20159912 172.61744690 410.76455688
202.00636292 180.54481506 412.26507568
100.68943787 140.32984924 429.76150513
105.41645813 152.69653320 447.33044434
112.57406616 172.33686829 456.74594116
99.66344452 138.69134521 424.21792603
192.22027588 152.60165405 380.76846313
197.86825562 177.29818726 388.07684326
97.04544830 140.96833801 418.47094727
