ply
format ascii 1.0
element vertex 2048
property float x
property float y
property float z
end_header
309.49499512 177.53199768 397.16101074
71.74900055 144.97000122 546.38702393
107.08100128 179.50599670 343.62899780
181.18899536 250.71600342 476.19598389
133.69000244 78.51000214 438.15499878
73.37799835 211.83999634 451.34298706
200.27899170 162.58099365 408.03097534
62.39999771 131.93699646 409.26501465
151.79100037 242.02301025 391.17800903
247.74900818 238.01899719 417.04199219
132.60899353 154.95500183 483.40298462
139.88400269 111.17500305 366.77899170
115.52000427 228.88499451 515.25000000
77.00199890 103.81700134 483.54400635
255.26899719 146.33000183 372.30798340
89.82100677 223.98400879 387.48400879
168.37400818 188.93099976 358.72598267
124.88099670 170.45300293 423.29098511
179.54699707 191.28399658 459.04800415
60.88199997 164.94900513 489.02700806
126.44800568 239.98800659 452.16699219
94.76300049 84.90800476 393.89199829
163.29200745 128.64099121 436.31500244
84.54299927 128.61700439 357.16598511
207.75399780 215.91999817 386.10198975
65.77999878 176.81199646 379.51498413
195.40299988 251.85000610 424.98098755
262.83898926 198.14500427 383.36499023
103.21699524 178.97399902 523.15100098
220.82299805 200.95401001 433.66900635
112.50000000 200.34300232 476.73999023
56.96799850 165.44599915 442.36801147
77.77700043 97.43399811 436.53100586
163.77000427 95.59999847 403.01800537
225.01400757 243.94200134 459.43298340
171.20599365 144.48100281 372.42498779
101.00699615 134.58499146 511.38500977
117.34300232 115.82499695 459.32998657
127.86499786 220.74000549 358.52499390
285.90399170 216.75000000 416.45898438
152.31799316 218.72000122 480.52401733
164.83299255 185.47099304 419.20599365
134.30101013 149.45500183 348.57498169
227.17100525 177.08399963 380.94799805
67.06099701 201.36999512 411.73300171
60.17100143 128.43299866 456.60498047
80.95800018 202.96398926 500.46200562
96.51999664 231.73600769 426.49700928
141.28599548 181.88600159 457.44198608
188.94100952 157.14801025 445.36599731
158.78201294 246.64700317 434.00201416
131.91198730 79.11100006 395.28701782
103.15000153 83.20800018 460.03500366
288.90600586 156.91099548 375.54602051
163.43598938 151.16799927 409.27499390
65.78300476 136.77099609 509.29803467
197.93400574 221.78199768 459.76998901
128.88101196 244.08799744 417.11801147
74.71800232 111.13200378 384.92901611
193.30500793 172.79499817 375.66198730
173.79798889 217.67300415 376.42401123
244.48600769 192.21000671 411.11300659
69.79700470 174.85900879 521.46697998
161.22200012 150.95298767 463.31500244
86.36900330 199.46600342 360.97299194
105.89600372 101.88500214 367.40402222
95.69200134 228.45100403 469.77401733
188.24699402 241.83399963 394.09597778
135.18099976 243.30000305 493.70101929
80.64299774 160.78900146 354.44998169
101.77300262 78.40800476 425.92498779
137.75700378 189.46600342 344.35702515
61.59200287 165.77699280 409.27600098
129.26000977 150.60600281 447.85198975
219.22299194 242.79899597 401.39401245
119.73600006 237.90299988 387.32901001
66.89299774 145.94300842 381.45898438
66.39800262 192.23800659 473.98699951
79.43499756 118.83300018 530.13903809
226.21199036 147.12500000 386.45498657
114.44999695 126.95800018 350.93499756
138.98899841 108.11599731 439.08102417
152.74600220 246.94299316 467.81799316
263.23599243 169.45600891 391.40100098
170.69000244 125.14400482 395.05999756
123.28399658 179.05700684 497.99200439
114.66200256 130.21600342 484.90100098
142.65798950 128.58900452 468.04199219
236.10400391 215.59800720 393.91799927
290.79397583 199.91600037 392.05599976
155.27600098 162.49800110 434.75601196
224.68901062 249.25399780 430.52398682
203.70500183 178.37300110 432.58801270
83.24500275 198.05499268 528.49298096
129.21301270 213.65499878 494.51199341
199.08000183 251.63800049 455.53100586
185.37899780 141.69999695 422.23400879
87.82599640 167.19900513 541.95001221
159.54299927 161.97599792 355.54998779
225.03399658 173.20199585 407.54800415
107.01799774 151.88500977 344.16400146
249.10099792 235.92401123 443.65399170
63.65499496 128.39700317 482.91098022
71.83699799 104.28699493 410.26101685
113.50499725 158.07600403 510.76101685
96.84999847 226.21600342 496.93399048
163.44499207 205.62399292 435.87500000
62.97800064 118.72000122 431.86599731
63.64099503 189.75099182 435.27401733
152.92700195 213.39199829 358.30200195
106.32900238 199.57600403 505.11300659
187.72299194 146.13899231 392.69097900
170.09899902 249.96499634 410.39999390
241.58700562 213.56600952 425.13800049
264.85601807 220.52200317 402.19598389
281.69900513 182.20700073 376.01901245
177.03099060 222.65798950 475.57101440
162.32299805 243.08900452 491.52899170
223.96600342 225.47900391 439.58398438
70.75399780 201.15399170 384.89199829
150.04699707 134.38299561 361.48699951
152.22599792 90.52000427 425.80300903
138.77799988 197.71798706 477.11898804
192.32598877 197.77299500 376.37500000
83.21099854 111.08399963 506.78698730
267.94601440 228.39700317 429.08297729
102.34600067 219.13200378 366.62200928
114.07299805 202.73300171 348.56799316
118.83300018 235.38999939 475.02200317
98.63000488 112.70800018 474.77798462
79.58000183 94.70099640 460.58599854
158.32400513 108.56900024 382.75500488
58.98600006 170.55299377 465.64801025
123.22699738 176.62799072 472.00500488
58.89799881 143.69100952 429.63098145
91.63800049 144.00599670 533.46301270
200.72000122 200.12399292 450.50497437
166.79400635 111.36899567 420.49200439
269.29797363 197.60299683 406.10900879
80.17900085 220.94599915 410.01400757
80.08699799 213.25599670 478.86700439
114.44499969 84.99900055 381.35098267
107.00499725 236.68199158 406.46401978
103.61299896 233.77400208 448.20800781
123.72299957 75.58100128 417.75799561
178.08799744 250.91600037 446.46798706
173.57600403 174.02299500 445.30001831
142.15399170 233.29299927 372.55798340
160.46499634 197.11199951 470.80200195
57.38700104 148.33000183 468.58901978
118.94100189 96.86599731 447.72601318
175.50100708 162.82499695 384.58401489
245.02400208 166.00500488 373.47601318
288.54800415 169.28700256 393.88598633
214.49400330 194.93701172 383.16299438
68.95899963 184.57699585 501.20599365
139.61799622 93.62300110 379.98199463
303.48901367 153.77398682 391.64099121
204.33599854 249.78900146 476.44000244
68.24199677 154.01899719 526.60101318
79.60200500 219.10600281 431.35198975
210.91499329 161.52400208 382.47698975
267.99301147 164.87300110 371.08700562
93.94899750 212.70300293 516.49603271
240.12799072 196.22700500 386.09799194
129.74398804 169.81600952 343.55300903
239.76199341 165.64500427 393.59997559
143.94999695 161.64199829 459.12997437
63.93399811 184.40299988 398.43197632
116.08300018 236.57299805 432.33300781
77.24900055 181.52200317 361.36099243
138.02899170 241.91699219 434.82501221
114.13899994 77.18099976 444.42700195
85.97100067 111.53800201 367.43899536
120.50600433 145.03799438 497.35198975
136.85800171 167.89700317 441.48800659
149.00399780 81.35700226 408.40798950
150.80900574 245.93800354 412.08999634
148.23100281 121.66999817 449.97998047
161.24699402 181.45401001 458.88800049
117.22200012 235.64100647 494.91998291
88.22900391 88.23400116 415.79602051
171.39099121 235.96299744 386.37399292
90.69900513 84.85900116 443.68197632
172.35400391 153.33500671 434.66500854
201.91299438 250.29200745 405.81900024
110.75600433 76.28800201 400.60498047
68.67100525 111.49199677 460.58099365
223.52500916 185.54598999 422.32098389
97.66699982 124.23499298 495.67199707
71.77700043 129.55099487 372.93801880
63.67000198 155.49198914 506.52099609
302.82000732 195.21499634 406.02200317
270.43499756 152.85299683 385.58398438
191.63000488 234.42498779 472.60998535
65.49800110 127.10499573 391.22500610
132.67999268 131.25500488 353.41598511
189.87399292 226.40899658 383.41998291
72.19400024 146.19900513 363.40200806
252.88000488 182.39100647 381.32299805
147.52400208 144.83100891 475.95599365
198.86199951 158.17100525 426.15600586
176.48699951 171.63899231 367.56301880
98.48500061 160.43800354 527.73699951
70.00199890 135.46099854 527.94702148
108.78700256 212.95199585 489.98199463
64.44899750 195.58699036 453.14099121
163.53001404 128.28500366 377.48199463
131.77600098 228.66499329 505.17098999
156.95600891 144.83999634 446.32699585
91.30399323 95.36900330 475.29299927
126.34299469 192.11900330 461.25097656
183.70999146 208.26199341 466.09899902
134.82501221 243.81999207 398.24600220
234.88099670 232.04598999 405.23400879
62.07600021 148.40200806 399.07901001
157.83900452 144.80000305 427.20498657
171.42599487 130.53298950 412.62200928
55.37599945 145.48901367 450.53900146
131.90899658 136.75401306 485.06600952
206.83999634 233.49000549 391.04598999
58.94099808 172.97500610 425.85699463
136.63299561 206.61700439 350.47201538
105.84899902 101.76300049 460.72702026
190.39799500 180.55899048 447.58099365
86.75300598 224.15199280 451.18099976
258.27899170 216.36499023 418.61901855
276.05102539 181.39700317 398.73999023
150.90400696 177.81298828 348.51901245
84.98000336 212.10501099 374.82299805
80.58899689 97.17799377 394.61401367
91.81900024 142.66200256 348.66397095
68.97499847 121.44200134 500.52297974
210.59500122 216.79200745 447.74401855
91.63200378 184.85299683 350.94198608
76.62500000 180.59899902 538.02001953
134.58700562 240.36599731 468.08499146
91.43800354 97.30300140 376.87600708
60.28400040 146.66398621 491.37301636
99.36199951 118.89500427 356.01699829
115.76999664 229.48800659 371.74002075
174.96398926 251.22698975 428.46798706
125.40200043 98.33999634 370.55398560
255.05900574 182.09800720 400.47299194
111.00900269 189.70500183 490.60897827
123.56299591 112.95600128 360.85198975
209.45500183 250.11000061 438.95300293
124.95200348 127.49500275 471.17700195
205.74499512 237.03799438 462.47900391
157.95500183 226.15499878 372.15499878
64.29900360 164.42900085 392.25997925
162.46501160 248.72499084 453.29699707
155.06100464 113.11299896 435.60900879
174.28300476 158.24499512 454.95098877
143.68400574 242.43600464 450.95501709
142.99899292 227.26100159 492.38900757
286.24200439 198.31399536 408.61401367
169.30400085 204.82299805 366.19100952
229.16999817 160.31298828 375.93499756
252.06800842 208.27700806 391.74499512
158.12399292 179.15199280 433.69998169
280.86502075 212.37799072 397.69100952
151.97099304 195.83700562 350.91201782
150.36100769 88.91799927 392.14199829
215.00000000 249.54800415 416.71197510
298.64801025 178.68701172 384.23898315
216.95700073 161.39599609 398.16000366
96.06500244 167.11000061 346.16101074
70.20700073 165.68200684 366.63699341
75.47000122 193.00199890 514.53601074
181.32499695 151.75299072 407.06698608
233.46998596 199.33299255 422.13101196
171.57800293 143.54699707 395.33599854
241.21800232 143.56799316 380.48898315
195.77301025 160.41099548 391.48300171
212.00199890 173.70001221 417.47399902
124.82599640 160.83000183 496.92599487
69.53099823 206.38800049 429.14501953
98.63100433 194.56100464 521.17901611
104.94400024 232.03300476 483.96099854
182.54100037 187.29499817 368.66198730
174.05599976 197.66500854 424.47500610
73.04800415 161.06800842 546.07000732
291.70700073 184.24099731 401.12298584
152.66700745 235.34600830 481.29998779
63.62900162 181.46699524 485.55099487
222.38099670 223.80499268 394.09701538
76.37599945 213.21099854 393.76300049
104.96199799 231.83000183 387.75500488
90.89999390 128.57099915 524.83496094
135.67100525 166.50299072 472.88299561
223.23001099 208.39900208 388.04000854
59.78899765 180.73399353 450.26498413
233.08099365 236.49899292 448.13900757
93.25999451 228.96400452 402.02297974
242.12899780 244.31001282 430.27801514
59.30000305 148.78599548 414.80899048
211.69699097 177.52699280 378.47399902
69.91400146 108.88600159 445.18399048
120.83800507 189.48500061 343.66400146
167.61499023 110.10099792 398.15200806
229.49699402 245.51199341 412.68600464
63.35900116 187.12001038 416.38800049
167.83499146 250.18901062 468.08599854
131.25000000 117.22200012 452.78100586
148.61300659 147.98699951 354.49499512
248.36698914 225.05599976 403.02499390
141.45399475 79.68299866 424.65200806
113.08699799 183.22399902 512.22998047
73.95999908 201.55900574 486.63397217
252.78500366 157.74198914 383.75698853
72.41299438 206.53199768 467.48400879
82.34100342 133.43200684 539.41101074
171.34300232 137.23999023 426.64001465
73.12899780 191.21499634 372.36401367
139.56999207 93.33699799 435.53399658
153.77999878 137.70700073 463.11300659
99.97299957 197.84300232 351.28097534
89.29100037 110.46999359 489.42599487
186.83099365 250.00599670 407.14999390
57.90299988 132.54000854 442.24301147
215.98699951 232.93000793 452.18099976
91.45200348 179.06199646 532.59899902
240.52500916 177.54699707 402.81900024
267.05899048 210.19799805 391.45800781
279.08001709 196.24499512 383.36599731
175.19400024 236.47401428 481.21899414
119.34600067 140.88299561 348.14102173
128.90901184 172.43899536 485.15701294
238.45001221 227.85000610 436.91302490
260.62899780 230.74600220 412.15597534
111.09200287 122.31200409 472.35699463
170.79399109 157.75399780 364.22000122
69.20199585 113.52100372 475.25000000
72.61700439 118.50599670 517.01300049
150.56799316 172.34199524 444.72100830
153.86499023 118.34300232 372.48199463
142.05000305 245.52600098 479.69201660
109.87400055 234.46600342 461.50299072
68.80799866 117.33599854 404.18099976
114.17800140 215.52999878 357.20898438
78.26200104 97.17000580 421.85699463
103.51000214 148.86698914 520.25402832
169.55200195 209.15699768 469.68499756
192.62600708 246.17399597 484.37899780
206.33200073 190.74699402 440.89999390
65.35800171 170.51100159 508.31597900
146.79800415 161.97499084 348.54501343
89.31200409 223.40299988 483.67102051
274.57299805 227.03700256 416.24298096
125.49200439 205.32600403 480.74600220
137.41600037 240.10899353 384.41101074
188.11999512 212.67199707 379.32299805
157.05500793 158.27499390 451.59500122
250.98898315 223.37100220 429.91400146
108.09099579 220.55099487 503.91699219
183.63999939 144.64900208 440.60900879
270.96200562 211.67300415 413.72000122
91.65699768 122.36899567 509.34201050
253.76400757 203.10301208 410.95999146
115.48099518 76.16300201 430.22702026
273.91201782 151.87699890 371.02801514
56.87699890 157.39999390 426.21401978
167.98399353 174.32400513 356.42599487
65.39299774 115.96699524 417.96099854
165.24600220 243.69900513 398.54699707
266.36999512 184.08801270 377.08700562
198.58999634 167.26799011 439.80300903
84.02899933 151.99699402 545.31799316
108.11799622 133.37199402 498.59301758
162.83500671 95.69400024 417.95199585
56.06200027 158.11898804 458.43197632
213.07800293 250.36399841 463.53598022
79.80900574 218.23799133 464.52398682
121.53600311 241.22700500 402.36700439
176.13800049 247.83299255 489.53198242
135.26800537 77.26100159 408.86102295
255.70700073 238.05999756 428.68399048
140.10598755 210.47300720 486.14099121
228.77700806 214.16400146 430.95498657
182.74299622 251.60801697 459.72799683
150.52600098 205.34899902 476.45501709
61.35599899 130.23799133 424.07299805
120.71199799 154.52900696 343.38400269
150.46200562 187.87199402 467.91500854
289.25799561 156.08500671 389.62500000
90.06199646 215.69400024 503.54098511
161.45199585 147.73500061 362.96200562
280.99398804 168.69700623 373.79199219
61.93200302 185.73999023 462.80801392
98.11799622 81.64499664 406.72399902
110.57999420 235.10398865 419.94400024
110.35200500 76.56600189 415.36901855
198.96900940 185.90399170 376.21398926
85.75200653 88.14399719 430.63400269
294.76101685 208.84199524 409.35000610
97.54000092 208.45100403 359.31399536
301.50100708 164.30899048 383.46298218
141.38600159 224.32899475 362.53500366
115.92800140 84.61300659 455.48498535
101.87999725 131.34600830 349.13998413
194.60099792 150.16700745 408.34600830
73.76100159 110.12200165 495.13302612
171.66101074 156.85301208 396.76300049
90.44599915 226.98300171 438.63400269
103.67800140 91.96099854 376.39599609
302.44299316 190.46800232 393.56600952
239.84399414 182.08299255 383.84698486
204.84500122 203.78700256 381.12301636
69.69400024 200.85301208 398.09399414
176.70300293 148.20800781 384.05200195
116.34300232 167.02600098 343.57699585
136.02299500 155.36199951 437.33099365
83.98199463 212.77999878 491.48800659
182.77600098 139.28599548 402.94998169
60.78799820 130.62699890 469.59701538
128.42999268 86.77999878 381.33599854
111.14399719 144.52799988 506.61199951
185.62200928 168.25799561 451.60601807
138.00599670 166.20199585 428.48797607
85.05100250 225.62199402 421.31298828
118.64900208 180.78799438 484.71200562
73.78199768 211.66700745 416.73999023
69.42700195 107.52200317 429.64898682
148.09899902 243.81900024 491.52801514
143.42700195 244.68199158 422.76901245
177.70401001 152.43899536 419.52899170
67.42200470 188.38200378 385.15200806
198.98800659 170.17700195 418.44400024
156.56300354 131.74800110 446.93301392
117.34099579 187.92100525 474.03201294
66.32099915 159.62100220 377.30599976
223.90399170 246.98098755 447.00198364
142.84999084 123.75699615 361.89999390
122.65699768 219.77299500 503.94702148
171.87100220 133.88000488 385.79101562
85.43199921 172.52999878 352.82000732
153.11500549 235.41799927 380.35101318
97.94499969 224.36199951 377.67602539
127.27099609 236.04400635 377.23098755
128.44898987 239.85600281 483.48199463
168.32701111 123.69999695 425.74899292
187.88600159 220.52999878 467.43801880
146.15798950 160.13101196 445.35198975
227.18399048 194.74501038 383.45401001
86.31999969 89.61100006 403.03997803
106.51600647 167.05400085 520.30499268
300.63500977 166.62199402 396.68200684
159.36100769 102.59000397 428.00900269
180.32099915 204.68499756 373.31500244
129.89700317 89.25800323 443.69998169
76.68899536 117.85800171 373.31301880
276.10900879 168.51699829 391.65402222
115.83100128 171.13600159 509.65499878
165.66699219 228.41600037 479.38601685
58.56600189 162.57600403 476.87399292
159.94499207 180.62199402 446.16601562
74.64800262 185.86799622 525.18096924
193.70199585 251.68600464 444.15899658
110.23600006 111.32700348 360.32501221
233.39599609 186.54299927 414.62298584
143.45100403 236.50300598 500.83703613
194.18800354 251.72201538 467.05999756
74.66600037 103.97100067 468.58599854
162.43099976 249.40200806 480.75698853
229.26100159 158.92800903 393.40499878
98.17600250 231.55200195 413.57897949
70.33100128 165.17500305 531.66198730
59.89199829 139.89999390 480.21600342
90.34200287 88.58100128 461.03201294
191.11601257 190.71800232 454.59301758
212.78601074 204.56900024 442.31900024
214.00498962 187.13900757 431.92700195
163.55000305 215.69400024 367.15399170
64.59099579 131.77000427 495.39599609
168.96598816 199.36401367 462.16000366
82.95999908 202.43400574 516.91198730
260.91500854 232.03100586 438.43902588
101.30199432 121.59900665 482.76599121
128.76799011 178.43699646 461.23901367
85.03800201 116.86900330 519.43499756
182.06199646 251.09500122 418.36801147
120.77700043 79.44200134 390.11499023
122.49700165 74.48300171 403.14999390
145.85099792 103.13200378 375.72900391
160.52799988 99.86100006 392.12701416
192.80999756 204.46400452 458.60400391
240.06498718 155.00299072 373.71600342
115.61799622 237.33599854 444.35198975
256.06500244 170.77900696 373.36297607
80.68399811 146.26799011 354.88598633
130.68400574 229.07699585 366.68301392
125.01000214 209.49299622 351.11599731
188.29199219 161.40100098 382.17398071
125.80199432 105.96500397 444.04000854
106.63600159 200.64300537 493.19299316
61.99000168 121.54199982 446.99401855
160.68699646 136.21200562 368.98498535
161.17500305 247.35699463 422.31600952
170.40200806 178.67399597 427.29898071
66.96800232 199.94799805 440.51800537
191.59500122 148.39700317 429.91598511
251.55499268 169.88400269 393.80899048
89.36599731 155.24398804 348.50601196
163.61700439 164.84298706 442.84701538
138.78799438 177.46199036 343.40899658
218.91699219 213.63000488 437.81900024
81.38999939 91.90999603 446.33901978
75.62699890 134.91799927 362.68698120
101.24800110 81.28300476 447.61401367
140.80700684 155.87300110 472.82202148
165.30000305 153.45098877 424.23199463
96.68199921 109.36799622 363.06597900
122.77500153 238.21400452 463.20501709
168.99800110 105.12100220 408.70999146
76.39700317 202.25900269 374.61599731
164.36700439 118.41599274 384.79501343
63.83399582 138.65399170 392.21701050
126.32499695 239.53199768 437.14599609
165.37100220 205.46699524 424.15402222
102.31900024 234.28500366 436.27999878
74.92200470 106.79299927 397.94497681
114.50300598 188.79499817 502.10897827
99.95199585 93.94699860 467.02001953
65.71699524 148.93400574 515.90197754
153.41099548 227.85499573 472.44198608
177.58500671 248.23200989 400.33798218
57.43000031 152.26300049 437.32000732
114.09900665 94.97000122 371.80999756
73.30300140 102.02200317 453.86300659
208.69299316 250.98600769 427.45101929
213.86801147 249.82899475 451.91699219
236.03999329 244.75000000 440.05999756
152.92799377 245.30899048 444.69400024
108.39399719 80.47599792 390.13998413
125.59799957 238.03100586 502.65597534
291.04699707 191.10398865 384.70501709
167.15000916 140.95500183 414.71899414
140.57800293 171.74400330 452.16500854
101.64199829 209.97300720 504.20803833
108.73699951 190.52799988 346.20700073
258.88897705 192.86698914 406.11099243
73.22100067 211.99800110 439.91299438
57.31099701 138.27299500 461.86898804
159.55000305 204.15200806 357.50000000
124.94400024 79.38099670 447.29998779
181.02000427 149.91299438 451.13000488
95.59600067 227.78199768 457.29602051
290.86599731 173.37199402 377.93499756
163.30300903 217.11799622 474.75399780
237.67399597 156.53399658 386.22702026
69.79799652 191.03900146 486.51400757
90.91000366 155.65299988 537.11804199
127.26799774 198.59799194 471.87200928
178.44801331 227.82899475 383.02697754
183.88299561 250.90699768 436.79998779
58.32799911 169.25199890 454.49099731
169.48899841 250.64799500 438.25799561
250.88301086 193.23899841 383.41098022
72.74000549 210.04100037 403.89498901
135.18800354 123.13199615 461.45098877
124.05599976 123.42700195 355.48999023
201.97099304 168.19999695 381.00601196
166.20700073 153.49499512 447.35800171
83.46000671 105.09099579 376.86300659
169.28199768 118.58899689 405.15499878
126.09200287 179.98400879 340.92300415
139.76000977 141.28999329 353.85702515
278.32498169 219.73699951 405.62701416
151.35600281 152.36399841 468.73599243
208.02099609 242.34298706 397.65100098
256.80801392 157.24000549 371.09899902
74.10600281 127.22698975 535.36303711
166.03100586 228.22999573 379.40899658
67.75200653 119.29199982 487.63201904
80.92800140 220.76701355 442.18399048
98.14299774 139.41000366 522.02996826
67.73999786 135.00199890 382.42599487
218.08999634 152.34201050 391.69699097
58.93300247 178.48500061 435.35501099
65.58000183 196.93099976 425.20498657
107.91799927 231.41300964 502.34097290
141.70999146 79.94400024 400.14401245
116.81299591 103.56500244 365.59701538
170.94400024 155.31399536 378.04400635
101.09099579 79.22799683 436.86999512
147.46699524 170.38400269 432.00601196
181.51499939 157.40998840 392.10098267
156.18998718 87.86900330 401.67098999
82.43399811 216.29400635 385.19702148
243.12500000 201.36900330 416.84899902
105.67900085 111.78199768 464.99600220
107.14199829 140.30900574 345.89199829
70.89799500 120.88500214 382.00000000
139.69198608 84.39900208 389.84701538
139.02899170 190.52700806 463.61199951
60.63599777 176.17100525 476.57598877
128.55499268 147.33700562 489.96099854
167.96499634 188.66400146 463.52801514
86.30599976 222.60600281 473.29598999
127.66799164 168.64801025 433.59500122
173.39299011 182.09298706 452.49600220
278.32800293 204.45600891 390.33801270
204.20199585 252.47898865 417.75100708
197.22399902 216.38200378 383.81500244
232.02699280 170.33900452 399.86700439
211.43400574 166.48399353 405.87298584
219.72000122 169.66900635 378.66601562
172.70199585 250.98600769 455.76998901
135.66600037 101.37799835 371.49600220
164.76599121 192.31900024 427.46798706
152.12699890 177.69900513 453.88699341
83.89700317 221.99900818 400.00399780
108.94200134 232.22898865 472.32897949
160.18598938 185.36700439 352.78500366
266.86401367 187.43800354 401.43099976
127.37600708 197.54800415 346.28601074
112.22500610 94.65100098 455.76599121
206.72500610 160.19599915 395.36801147
235.83500671 168.94400024 378.03302002
237.49899292 206.26600647 388.95898438
110.98699951 236.44299316 396.60800171
85.08600616 187.10800171 535.37896729
138.31900024 132.75199890 477.60400391
181.08000183 170.14299011 379.30999756
63.40400314 173.82398987 398.61801147
70.36799622 153.86299133 538.78302002
95.86100006 168.86499023 533.58398438
115.71299744 105.65299988 452.65600586
83.70199585 189.58200073 358.39599609
176.85099792 196.15299988 367.93499756
278.04800415 204.96200562 408.77398682
232.93800354 247.45899963 422.46899414
174.83900452 180.59599304 362.25100708
99.75899506 204.55400085 513.18597412
79.01100159 95.74600220 411.44897461
118.88299561 241.34999084 412.54199219
246.52899170 215.61299133 396.82199097
92.52700043 202.32299805 526.10601807
58.83900070 153.43299866 483.50997925
221.91799927 185.67498779 383.81298828
150.41400146 244.79199219 401.70300293
155.00000000 86.17099762 415.47201538
127.97200775 76.51200104 429.66397095
139.28399658 216.59800720 355.88000488
77.03799438 170.67900085 545.89202881
145.21199036 160.28599548 433.09500122
302.61599731 185.15400696 403.47799683
74.11900330 193.37699890 499.39297485
69.36699677 127.61899567 512.57196045
62.43000031 176.08499146 409.55401611
62.65100098 146.00900269 502.51800537
119.48300171 153.75801086 502.79898071
61.00799942 155.86698914 496.01199341
65.06600189 119.65899658 465.75299072
193.86000061 234.52700806 388.37399292
92.78500366 90.45999908 384.45800781
64.78800201 176.09100342 497.13198853
125.06300354 240.01799011 425.76901245
96.52799988 186.05099487 526.57702637
215.81600952 234.76300049 395.95199585
179.47200012 147.79501343 429.72601318
137.07299805 160.07200623 345.80801392
193.49899292 147.50500488 419.78298950
137.30700684 245.11698914 408.13299561
153.41999817 98.65900421 384.80801392
64.58100128 178.58599854 389.59301758
261.15701294 150.25399780 382.03201294
200.54100037 213.17700195 454.81500244
149.87400818 102.39399719 431.90899658
81.36100006 97.00600433 471.98199463
194.57099915 251.65599060 414.38400269
69.87100220 155.46899414 367.08798218
90.31500244 118.04599762 499.17199707
178.27198792 138.79199219 412.11898804
91.79600525 132.63000488 351.18801880
82.27500153 104.39399719 493.67401123
69.99500275 143.51899719 536.44000244
171.10299683 140.66900635 405.09997559
133.34399414 116.48600006 361.05001831
60.56499863 155.92098999 406.96099854
195.52099609 156.26699829 435.57501221
116.17500305 216.97599792 496.62701416
97.41199493 221.16600037 507.93899536
64.96199799 154.44799805 390.47399902
65.09600067 193.28300476 405.92700195
219.49000549 155.86399841 382.28601074
188.06399536 142.45500183 411.00698853
130.89799500 160.39399719 445.79199219
70.65899658 116.10600281 392.76400757
137.32699585 168.47099304 462.57400513
161.42199707 237.28799438 387.37899780
86.76899719 208.01599121 509.40298462
257.99899292 215.12300110 397.11599731
262.67098999 159.47000122 385.84100342
196.39900208 177.20300293 440.25497437
197.30900574 231.49099731 464.85900879
129.15199280 140.26998901 350.15600586
62.36400223 183.19400024 425.55999756
198.74000549 186.93099976 446.21099854
107.97999573 190.64599609 516.60900879
207.95999146 227.51200867 454.71002197
200.18899536 240.24101257 470.14999390
137.52900696 144.61299133 482.49700928
185.49501038 178.13499451 371.36099243
79.23799896 124.23499298 364.40597534
73.51799774 113.10900116 505.48498535
153.56401062 245.46598816 456.42501831
280.99301147 189.47698975 401.89001465
146.63600159 115.11000061 442.64199829
116.92199707 238.53399658 455.14199829
67.27600098 165.60800171 518.76495361
278.50698853 158.55400085 386.79299927
160.42900085 138.14599609 437.04101562
160.43501282 170.50999451 429.34600830
111.51200104 222.69400024 365.12500000
119.46500397 211.66600037 485.48098755
148.80400085 135.61099243 471.48498535
128.99899292 241.02101135 389.61999512
69.64299774 106.96900177 419.57598877
125.55700684 232.39399719 511.95401001
297.00900269 152.84300232 379.58999634
289.79098511 208.44699097 399.54199219
246.89300537 174.87600708 378.92300415
69.14799500 142.75300598 372.37100220
211.41999817 247.15299988 405.61102295
92.59700012 212.60499573 366.77398682
59.35899734 127.90200043 433.44699097
173.26701355 155.56498718 411.29898071
250.03298950 147.79299927 381.72598267
118.27500153 195.11199951 467.37399292
167.56599426 177.68899536 436.67401123
227.86499023 239.41299438 404.66799927
161.95700073 115.38800049 428.97201538
89.26899719 134.47900391 532.51800537
149.18400574 205.22000122 351.68798828
60.62400055 139.33200073 402.54598999
141.72599792 242.39799500 460.55499268
211.72399902 225.18199158 389.34002686
91.87100220 104.02600098 479.81198120
104.14200592 161.20800781 343.66900635
94.00700378 82.50199890 421.64901733
72.77999878 135.89500427 541.84899902
150.71701050 223.41300964 365.21801758
153.41499329 246.47499084 483.04000854
56.81800079 155.83700562 446.36499023
88.97299957 117.80599976 360.62399292
201.48100281 227.01699829 386.13702393
68.63199615 179.83999634 509.69897461
100.76200104 233.57499695 397.89797974
266.15899658 231.67799377 420.11401367
134.62998962 223.28401184 497.61099243
141.40798950 198.41499329 348.57299805
70.41799927 201.17298889 475.28100586
271.79101562 173.42401123 373.50500488
160.20298767 146.85299683 417.92102051
182.46899414 236.50999451 388.47900391
206.24299622 208.09500122 448.91198730
226.20700073 195.52099609 427.21301270
261.22000122 208.65400696 413.62301636
148.58500671 129.19200134 460.46798706
161.12699890 247.03698730 408.46197510
156.43798828 123.76399994 441.01199341
97.73100281 150.05200195 345.88400269
67.65499878 200.66699219 460.65597534
106.58100128 129.06298828 490.13000488
119.56199646 235.86801147 485.59298706
226.77999878 231.22599792 399.75198364
116.37999725 177.09899902 343.74099731
60.50299835 137.93901062 416.51202393
56.85099792 159.45899963 467.96600342
124.23799896 130.88000488 480.11199951
111.66000366 232.71701050 380.98999023
71.01000214 177.28399658 367.23501587
295.28601074 174.65800476 398.00097656
157.19400024 171.35299683 351.65701294
304.62899780 172.27600098 388.01501465
176.21499634 165.63400269 449.00799561
198.41400146 171.24900818 427.90200806
116.26799774 117.42799377 356.17797852
222.35200500 177.94799805 415.35299683
62.86199951 166.05299377 500.30200195
88.55699921 225.57600403 463.28298950
209.51199341 187.28399658 380.54498291
216.87400818 216.75000000 388.61700439
130.96398926 108.20999908 365.43200684
182.48699951 230.38198853 476.19198608
169.11500549 120.57899475 414.41799927
195.23599243 153.99700928 398.42901611
172.58499146 165.65798950 373.75500488
195.32600403 246.69900513 397.99801636
200.20199585 240.34201050 392.23199463
246.04600525 184.67601013 405.56201172
149.00498962 187.04399109 348.61300659
101.99300385 79.89999390 398.31298828
85.41200256 125.63900757 532.72698975
181.22000122 178.39900208 448.80398560
118.94000244 137.26399231 492.29699707
156.18299866 158.62300110 460.95098877
243.67800903 233.44898987 408.21902466
76.97200012 152.45201111 551.46905518
247.90699768 209.32101440 418.16500854
171.74200439 204.61599731 430.97299194
191.99800110 250.79501343 476.11499023
132.35800171 76.77300262 421.16400146
183.91700745 239.58399963 479.90301514
96.45999908 150.05000305 528.23797607
163.18499756 151.69699097 434.12899780
275.65499878 188.84800720 378.54000854
151.89799500 125.62799072 367.02001953
138.84599304 218.41600037 490.83398438
159.82400513 178.89498901 424.55899048
128.03999329 160.49798584 343.65002441
197.90499878 251.65501404 435.86798096
266.39199829 220.50599670 420.44100952
129.63800049 184.99000549 454.72500610
93.05699921 175.61300659 348.32501221
172.89599609 188.47200012 424.09597778
155.36500549 139.15100098 454.10000610
214.51699829 179.63400269 424.12298584
71.70099640 125.46400452 526.61700439
83.06700134 141.96600342 542.87896729
125.59300995 170.22000122 496.62597656
61.39599991 188.13299561 444.98199463
135.83099365 241.09899902 503.29400635
149.90599060 244.72500610 435.60800171
202.55400085 250.93600464 446.63101196
298.48098755 198.09399414 396.89801025
134.03500366 203.87998962 484.00100708
169.68699646 165.17298889 358.87399292
107.22499847 226.39100647 512.11901855
165.98400879 149.10600281 400.07699585
83.04899597 100.15799713 384.61700439
90.78299713 104.37899780 370.63299561
188.62899780 151.84600830 385.54699707
264.74600220 152.42799377 371.18899536
141.89100647 132.25599670 357.85101318
72.80500031 177.34700012 529.77197266
175.54299927 135.66300964 397.85098267
106.28300476 227.43800354 375.39498901
78.99200439 193.67300415 365.12197876
139.09300232 116.11600494 447.75000000
265.22601318 176.99900818 396.20700073
59.08700180 164.28401184 417.95797729
162.51899719 235.10000610 484.79299927
68.85700226 202.57400513 449.20901489
292.76400757 191.98199463 405.87298584
233.67300415 207.50700378 426.19601440
82.77799988 137.38699341 354.77200317
63.11599731 129.85099792 400.41101074
239.43099976 241.68600464 416.28100586
69.08799744 134.29899597 518.73999023
202.92698669 251.65298462 464.60101318
85.40900421 100.10000610 484.82498169
97.83600616 104.57800293 470.84100342
214.46099854 193.73600769 438.22198486
133.45700073 99.34400177 438.44198608
214.66700745 207.24501038 385.37799072
178.29998779 213.02099609 471.55697632
233.97999573 150.19898987 378.35699463
183.92300415 251.65798950 427.45797729
64.91000366 122.93199921 475.83801270
241.57099915 239.55200195 448.13201904
168.30499268 135.93299866 377.31201172
105.58599854 232.33599854 492.94299316
109.51399994 208.65400696 353.74099731
139.92300415 168.58898926 345.77102661
88.95699310 227.81300354 409.81201172
288.32000732 214.86599731 407.69799805
307.19598389 161.80599976 390.17199707
166.26199341 249.06599426 429.71600342
180.13099670 200.41699219 463.72100830
233.40000916 178.97999573 408.01501465
251.22299194 229.75199890 437.55999756
118.76200104 180.21299744 505.59698486
130.40199280 164.33100891 488.55502319
149.52999878 228.38301086 485.86898804
196.04399109 207.93099976 381.29400635
57.34600067 140.60099792 438.52099609
76.03699493 207.78900146 382.25000000
118.12799835 122.73000336 466.95199585
123.94200134 75.77200317 437.54000854
106.39900208 170.65800476 343.44598389
246.97000122 201.57099915 387.94299316
58.68600082 139.36900330 471.44100952
98.81099701 189.34400940 348.30200195
224.02999878 234.10501099 448.64099121
123.16200256 184.08100891 465.14001465
109.43300629 175.08799744 517.98199463
217.15199280 239.88099670 459.68899536
95.37999725 130.23999023 516.65100098
170.43800354 153.06698608 387.97198486
304.50000000 181.61499023 391.11798096
236.92098999 224.82398987 400.58099365
74.90399933 170.29400635 360.76501465
84.39599609 177.10499573 540.29998779
66.22399902 168.02400208 374.63500977
293.56100464 164.99101257 378.42300415
192.83700562 212.77000427 461.55102539
104.95999908 234.48799133 427.88897705
217.27000427 250.19601440 425.68600464
281.51397705 154.34700012 379.55700684
173.08900452 250.16999817 479.56201172
94.86299896 84.74099731 452.56399536
111.75700378 191.30400085 482.00500488
132.42300415 239.70899963 459.59799194
94.67900085 116.31500244 485.05999756
108.05100250 158.84100342 517.64801025
76.71599579 99.31299591 402.17700195
241.67098999 221.63299561 431.64797974
150.57000732 196.89300537 474.18402100
144.10800171 242.17001343 442.21401978
246.05400085 148.62200928 373.46899414
79.75599670 218.89199829 451.22702026
108.91699982 125.25000000 480.30200195
126.98699188 238.15899658 473.51901245
271.02999878 202.99099731 385.75698853
164.50099182 109.64699554 389.99798584
197.19099426 155.01899719 417.27502441
203.55999756 160.82299805 387.25097656
57.43600082 169.53599548 434.66699219
148.82199097 235.35899353 493.56600952
87.78099823 163.86300659 350.47201538
89.86299896 219.79499817 379.82897949
203.38700867 193.10200500 378.40899658
180.22898865 142.06600952 390.93701172
218.10198975 249.27299500 439.41799927
169.43598938 240.49099731 487.28900146
95.69499969 229.21800232 445.16998291
61.83100128 138.12998962 488.48400879
291.70501709 182.74499512 381.00201416
99.78400421 128.81599426 502.71899414
72.48300171 105.11600494 437.39300537
176.12100220 151.82699585 444.24600220
127.38401031 239.52799988 493.54800415
94.07199860 229.07200623 393.04998779
168.13899231 249.74000549 446.76000977
64.17299652 183.96798706 475.35601807
135.27500916 242.48300171 424.62899780
174.69599915 242.02400208 391.57000732
143.36801147 243.55299377 392.34500122
121.61000061 91.71400452 374.58499146
117.11000061 127.36399841 476.74499512
127.10499573 152.55099487 439.72900391
58.58900070 173.77600098 443.91198730
141.16099548 84.86299896 435.73901367
186.73699951 198.30599976 458.59399414
156.20500183 154.06500244 356.30499268
224.54100037 165.30400085 399.34997559
285.90301514 176.96900940 396.74499512
85.97299957 224.90200806 429.83801270
220.63000488 200.14299011 386.18499756
143.31900024 243.78800964 468.88598633
158.72200012 205.67700195 473.89401245
66.88400269 185.01899719 492.65200806
146.70999146 92.77299500 384.72900391
152.73300171 246.32600403 421.28399658
203.15100098 176.99499512 378.53698730
99.95300293 85.95999908 385.70800781
129.70599365 172.12800598 468.69500732
167.24400330 154.20100403 457.64398193
132.39001465 111.42800140 445.25900269
114.90299988 232.66699219 507.61096191
186.70600891 251.66799927 449.06600952
122.54699707 87.34600067 449.24798584
168.42100525 117.15399933 393.09201050
270.05700684 224.30500793 407.80801392
105.17299652 215.85899353 497.41198730
124.91100311 119.74299622 459.61898804
124.72100067 133.02600098 350.88299561
120.70800018 223.38600159 362.29299927
72.31199646 110.21500397 486.62200928
141.72500610 153.51499939 349.45199585
79.16100311 198.78800964 507.65002441
67.20700073 150.76799011 374.44201660
68.00600433 144.47599792 522.76702881
145.62899780 238.81100464 382.69497681
79.14099884 218.68299866 422.88500977
98.74299622 229.41300964 477.62997437
92.36000061 82.85099792 430.11798096
160.73100281 172.30799866 440.07998657
90.26300049 193.95401001 355.31698608
64.09400177 125.85400391 414.89300537
115.99399567 222.17599487 508.56900024
215.49800110 225.73100281 447.77398682
185.27600098 194.36900330 372.39099121
270.50598145 195.31500244 381.21301270
295.52099609 160.08999634 393.64099121
133.79499817 162.89399719 480.78500366
252.58999634 231.76499939 409.81399536
107.73800659 79.40499878 452.66198730
227.19700623 216.93499756 393.29998779
271.38598633 216.72999573 398.47900391
308.93600464 168.37200928 395.12301636
158.72900391 188.99699402 466.89501953
229.58700562 231.47000122 441.35900879
121.23500061 111.97399902 452.45999146
107.07999420 121.15699768 353.61599731
133.05599976 127.71099854 468.13900757
146.32600403 116.41699982 367.86898804
66.63700104 192.90000916 397.70599365
276.62597656 217.06500244 416.70999146
262.01901245 200.99798584 408.43899536
75.34500122 212.12199402 460.97698975
61.50799942 177.29699707 419.17700195
103.69400024 231.92599487 456.36001587
73.37200165 171.82398987 538.47302246
82.69599915 90.19100189 438.13000488
129.60400391 243.97399902 405.13101196
100.60800171 79.22899628 417.70999146
116.62500000 184.03300476 493.01599121
189.15399170 144.54100037 401.84997559
78.49299622 112.79500580 515.49700928
200.45700073 163.99798584 432.38897705
129.18699646 187.25000000 343.51300049
114.92200470 148.92500305 345.41601562
154.56700134 157.82398987 443.67999268
145.35998535 221.13400269 486.45700073
149.13400269 83.79699707 422.04602051
132.19599915 161.67799377 433.54498291
166.86900330 103.82799530 417.03601074
184.92098999 251.70001221 468.85601807
230.72900391 187.25199890 383.64498901
151.20199585 110.78500366 374.51199341
199.95401001 162.50100708 399.77600098
119.70099640 166.75599670 503.81701660
261.55297852 223.81900024 426.56900024
111.06500244 205.83898926 482.71798706
82.52600098 205.12300110 369.91000366
257.49600220 203.05900574 388.40499878
56.51100159 150.11399841 460.30700684
69.05099487 205.82600403 420.95599365
206.96798706 175.87899780 425.47100830
104.01000214 213.49200439 359.70300293
148.70298767 182.77200317 460.84799194
86.84500122 91.53000641 390.01300049
181.63800049 160.06800842 451.81201172
76.63399506 152.64099121 358.08102417
230.81600952 242.58300781 453.80499268
84.11499786 90.46099854 455.24298096
172.30099487 210.22599792 371.56600952
147.75399780 108.86399841 436.45700073
194.97799683 164.84400940 446.73602295
83.71300507 161.85800171 546.57696533
166.09500122 184.12300110 431.60198975
257.51901245 223.66499329 403.93701172
91.97600555 89.84400177 468.92398071
189.52000427 187.28700256 372.88400269
63.29899979 165.77499390 401.30099487
210.43301392 248.19099426 471.27999878
200.98200989 162.17898560 419.38998413
158.98800659 248.94300842 473.41000366
167.27600098 198.32899475 361.74899292
66.26200104 114.80999756 449.37500000
303.25799561 174.21499634 401.16900635
104.41400146 197.70899963 512.76000977
109.84200287 151.09600830 512.62097168
112.12699890 165.48800659 514.11096191
191.00099182 251.60501099 455.93499756
155.13600159 143.13999939 360.86300659
229.46099854 201.75599670 386.76199341
294.18600464 199.76499939 408.49899292
71.84999847 185.78599548 514.32800293
113.66199493 139.04899597 500.08999634
57.70999908 150.00599670 423.07901001
65.54000092 160.49099731 512.57598877
97.40000153 228.57800293 485.53198242
60.98899841 178.32798767 466.33499146
77.94699860 208.48899841 487.54699707
70.10400391 194.71299744 380.11599731
173.26100159 132.68699646 405.09600830
238.50399780 194.85198975 415.78201294
250.48699951 215.65299988 422.38101196
244.95600891 242.22000122 437.49801636
287.19299316 207.71699524 411.78598022
143.87199402 79.48000336 414.29098511
220.75399780 247.78799438 411.40899658
296.26599121 204.51499939 402.16000366
78.33699799 190.66799927 530.42602539
108.53900146 197.63700867 485.70199585
89.62200165 220.24600220 491.02301025
222.57800293 249.92799377 419.24801636
62.91999817 122.29000092 422.19000244
146.14700317 95.10500336 431.38000488
225.78999329 247.52099609 438.23001099
128.10200500 81.90900421 387.62997437
216.50399780 170.68499756 410.35299683
274.83099365 160.79199219 371.14999390
226.13400269 152.34098816 379.67398071
69.15599823 184.95300293 375.23800659
242.67800903 152.19700623 381.82199097
166.03698730 154.14500427 416.17398071
111.81300354 234.30599976 488.40902710
189.41499329 149.64399719 438.39498901
171.94999695 250.30899048 421.16900635
181.38499451 217.62300110 378.78399658
119.16899872 74.45500183 410.36401367
139.36999512 245.18400574 487.16299438
272.72299194 224.20401001 423.48699951
270.10699463 164.21299744 388.74099731
259.47399902 191.16200256 381.65798950
236.75100708 238.90499878 409.36801147
125.36600494 153.02799988 495.70797729
190.38400269 251.58399963 432.01699829
138.58500671 120.64799500 454.20901489
72.74800110 207.06399536 390.36499023
197.60600281 243.80000305 478.71801758
83.60400391 182.08599854 355.91900635
98.10300446 102.10800171 368.64901733
165.68000793 98.18500519 410.49002075
99.93399811 170.73599243 527.09100342
166.46798706 198.97100830 432.90499878
230.37699890 222.32598877 436.25900269
262.62600708 234.37599182 427.92001343
61.22900009 172.75199890 483.64599609
105.50100708 140.93899536 512.58496094
248.98699951 156.60400391 371.70999146
124.72899628 148.23300171 345.85800171
64.59600067 146.60299683 390.25802612
68.78200531 111.44400024 411.22601318
111.47399902 158.30599976 343.53399658
76.20899963 99.94400024 429.27301025
56.52000046 135.08599854 449.52600098
79.27700043 197.03199768 521.81298828
159.57299805 210.81599426 361.61700439
262.42700195 177.54299927 375.36901855
78.23199463 216.92599487 401.87002563
151.82499695 129.12400818 452.58599854
109.95599365 236.41101074 452.26898193
108.04600525 77.37500000 432.33901978
130.45599365 214.34600830 353.93099976
160.28300476 247.25599670 442.90899658
280.33999634 222.94400024 412.92599487
66.35900116 194.79798889 465.64401245
159.91600037 119.89899445 435.01098633
182.86000061 248.55099487 485.65100098
65.23100281 194.63099670 415.51397705
245.06999207 158.87699890 385.62899780
146.84899902 170.81999207 348.52200317
227.13800049 206.55999756 430.94198608
68.44799805 194.63899231 390.34399414
161.23199463 248.74700928 460.97601318
78.34100342 104.00699615 391.54299927
92.82199860 193.31399536 526.19201660
284.67599487 162.28700256 390.57897949
233.65499878 247.49700928 430.20001221
84.56800079 216.78001404 484.86599731
207.55699158 199.39799500 444.79000854
254.42298889 236.13500977 421.28399658
136.54699707 154.25700378 444.98599243
78.08399963 111.00199890 377.95498657
133.22700500 240.82200623 448.52301025
87.92600250 206.51000977 521.50097656
218.14900208 220.88099670 441.78701782
133.75500488 241.05000305 475.89901733
154.50399780 211.95100403 476.04299927
162.59600830 139.19599915 429.55999756
121.78599548 202.79798889 348.58999634
167.58399963 193.90399170 420.47198486
104.63600159 118.44200134 474.00097656
249.57899475 164.11900330 389.01699829
74.84800720 207.72500610 477.79199219
173.66400146 137.23500061 419.31597900
99.94200134 140.13800049 348.55300903
148.33100891 246.91699219 475.50900269
133.95300293 123.65700531 358.39001465
90.37899780 206.32000732 362.97299194
115.57099915 235.13999939 468.08200073
158.19300842 126.81600189 372.17102051
165.61999512 222.66000366 374.16299438
101.58300018 226.72200012 504.71096802
142.88101196 138.84599304 478.45199585
161.88200378 91.61000061 409.54199219
118.18399811 78.94699860 450.86898804
118.81700134 234.42700195 378.90402222
65.76999664 112.66200256 424.84701538
148.99800110 229.20100403 369.91098022
71.05200195 119.17500305 509.55801392
80.63399506 216.41500854 471.92999268
172.50799561 153.86900330 370.56799316
129.05499268 156.50199890 489.97900391
179.91499329 155.46800232 399.30499268
175.42498779 193.16500854 418.47100830
203.23100281 183.91899109 439.52999878
123.39899445 225.29199219 510.22399902
186.84400940 149.38400269 446.24700928
140.27699280 160.57800293 465.71600342
146.36500549 86.68599701 430.48797607
170.11299133 180.80299377 445.18899536
132.90100098 93.69699860 376.40499878
114.09000397 239.44898987 406.32998657
156.83900452 240.16600037 487.14700317
181.37001038 183.95500183 453.99099731
234.74900818 176.53300476 381.13299561
107.09399414 79.24099731 442.45599365
116.61899567 236.51699829 424.32998657
59.49100113 181.17498779 442.45700073
167.01600647 248.27000427 488.56500244
100.09600067 181.02999878 346.14599609
155.89999390 146.22999573 465.92501831
206.63499451 251.13400269 453.76397705
142.40499878 192.32299805 470.15197754
126.53000641 95.82199860 442.00198364
103.75600433 187.32400513 521.93896484
219.90699768 246.13900757 464.56301880
94.43599701 125.94699860 353.52297974
158.87500000 192.69700623 354.04901123
155.70298767 217.95600891 363.66900635
107.68000031 138.00700378 505.03497314
146.37699890 211.70899963 354.32400513
107.46199799 77.08599854 408.43499756
77.39199829 95.84899902 451.35198975
174.98300171 139.80999756 382.36599731
65.73699951 113.67700195 436.71499634
134.95098877 176.04899597 457.69198608
62.62999725 156.84500122 399.79699707
73.19000244 212.89799500 428.33200073
75.34900665 161.80700684 359.67999268
168.44200134 113.57199860 411.81100464
102.76699829 155.76901245 523.10900879
148.72799683 244.67800903 428.08200073
248.02699280 240.05599976 424.25399780
165.40499878 157.73699951 359.01199341
151.16700745 161.98500061 454.37301636
88.37799835 87.37000275 423.65899658
134.59600830 235.91299438 375.66400146
63.32799911 184.65399170 409.31600952
168.48500061 127.27700043 386.80300903
63.98700333 137.01699829 500.70297241
105.86900330 91.21599579 463.34002686
257.61199951 173.91101074 395.56597900
59.62300110 177.89199829 457.18499756
138.53800964 229.43099976 499.25698853
92.67500305 84.40499878 401.03900146
285.23599243 188.47399902 380.83700562
160.36399841 177.96299744 353.65301514
169.02400208 155.44700623 405.17199707
116.95400238 208.83599854 351.69601440
159.79699707 224.66500854 476.78900146
168.60200500 129.36399841 430.55499268
252.59899902 238.48100281 437.61898804
165.26499939 181.20700073 451.31201172
106.70600128 200.94099426 350.89599609
138.18800354 162.49699402 446.39501953
78.00299835 108.28099823 502.09301758
250.92199707 176.23199463 398.63000488
257.12600708 165.78599548 389.39199829
66.78699493 156.28799438 519.70397949
66.21099854 120.13100433 410.52697754
82.78899384 153.18800354 353.31600952
259.69897461 209.50199890 391.80300903
178.11399841 148.23300171 437.24200439
171.47700500 166.35000610 366.35800171
230.90599060 208.79800415 391.11398315
65.17200470 117.20500183 457.48300171
161.94799805 150.84700012 453.75000000
123.56700134 239.90400696 445.37402344
121.12699890 240.71200562 419.56600952
210.83399963 235.47099304 457.37902832
189.61100769 205.50199890 378.53698730
113.22700500 133.75100708 348.36502075
174.61599731 250.81800842 470.88400269
209.35598755 242.59599304 466.61801147
134.29800415 235.58399963 507.92300415
68.09999847 161.48098755 525.69995117
239.01399231 233.38099670 441.73300171
173.70399475 153.60800171 427.44100952
163.90701294 167.88000488 355.20397949
75.66799927 215.14500427 409.98001099
153.79899597 164.87998962 350.91000366
147.33499146 158.49800110 464.83999634
128.79299927 76.34499359 412.19601440
159.76600647 117.10099792 379.23602295
274.02301025 191.74099731 401.67700195
177.08499146 251.37100220 408.68099976
141.17599487 245.04800415 414.34402466
243.91500854 170.93699646 396.47900391
282.11798096 159.05999756 373.87500000
279.69000244 223.69799805 420.25799561
64.54100037 143.97099304 509.55499268
57.40800095 162.89801025 430.99401855
299.36001587 186.50999451 388.27301025
98.88500214 212.37300110 510.51699829
92.32099915 217.12901306 372.48199463
86.78399658 147.31199646 539.60595703
128.55200195 140.10299683 490.84100342
59.80899811 141.45300293 409.46798706
143.11698914 183.45800781 346.26498413
120.91899872 214.31100464 354.72299194
151.93000793 175.52799988 434.89398193
185.34399414 143.51100159 429.57299805
193.60400391 172.47499084 445.01800537
203.72999573 167.93299866 411.53399658
123.19899750 177.01399231 480.48898315
256.60198975 227.05000305 433.49298096
137.62800598 170.78399658 434.86801147
64.98300171 195.44099426 445.90100098
128.44898987 218.86700439 499.66699219
75.38399506 197.31500244 493.42999268
65.22600555 164.96600342 385.08999634
90.72799683 124.80100250 517.78503418
58.31100082 148.95599365 477.83801270
90.26899719 229.19400024 417.77700806
122.52400208 173.72499084 341.67797852
116.20199585 194.36801147 346.33401489
141.87399292 102.22200012 436.01599121
229.23100281 223.29699707 396.38998413
166.46200562 135.13200378 434.36898804
129.40100098 209.14100647 488.85699463
135.93399048 84.51899719 441.49499512
269.61199951 151.75700378 376.83200073
274.45999146 182.12799072 376.17800903
96.87200165 159.94801331 345.88098145
109.91699982 193.63699341 507.06500244
59.28699875 125.63799286 440.72100830
192.35899353 226.41900635 466.12600708
167.57899475 160.10800171 449.84799194
165.32998657 144.27099609 407.43499756
112.77500153 235.20700073 387.64599609
203.40299988 210.27400208 383.87701416
173.31700134 230.00300598 478.70098877
221.27500916 193.87899780 432.47399902
239.30599976 183.07200623 408.06298828
160.66000366 201.98500061 429.95501709
132.11700439 194.56199646 464.73397827
109.59600067 193.42399597 499.67898560
279.03802490 210.65998840 413.00500488
158.89898682 92.98100281 397.44400024
130.89199829 170.62799072 476.26699829
142.95298767 124.95899963 459.20101929
67.87500000 127.85300446 382.27499390
206.46099854 220.90100098 452.43701172
239.75500488 243.95401001 423.05099487
57.47000122 155.01600647 473.52401733
259.85699463 165.15299988 371.13198853
275.27899170 210.60000610 393.61502075
165.28199768 139.87199402 421.52398682
294.72500610 194.30700684 389.91601562
170.31001282 129.10099792 421.52600098
226.85099792 152.62899780 391.07098389
66.35499573 199.97900391 433.40798950
146.92401123 209.74000549 480.77398682
182.10501099 146.93600464 418.42599487
182.86000061 162.25900269 386.71099854
84.30599976 93.74500275 465.83300781
169.13899231 184.55000305 457.65499878
104.58700562 205.24699402 498.22299194
165.90100098 103.35800171 399.66400146
86.19999695 116.66400146 510.04098511
249.48999023 197.24400330 411.57202148
175.41900635 205.48400879 468.06201172
137.00599670 77.41200256 415.82598877
167.59201050 149.24000549 366.20001221
167.75299072 170.79000854 442.83700562
91.36900330 229.29200745 431.25799561
69.70800018 136.39900208 375.48699951
92.67300415 84.91100311 409.89801025
106.91600037 235.03999329 413.86801147
131.43099976 132.15098572 479.19799805
57.74499893 155.53698730 416.34100342
75.06700134 99.87400055 415.65399170
209.03800964 168.73300171 381.03198242
140.58200073 242.73599243 498.24899292
110.79899597 106.94900513 457.58599854
82.52799988 219.36700439 393.57598877
155.65599060 243.49499512 396.91900635
117.63700104 238.61900330 394.04498291
244.50399780 187.39399719 383.62698364
95.99000549 201.42999268 355.88601685
131.73001099 171.13600159 428.38699341
93.95700073 110.74099731 480.38699341
145.36199951 218.58200073 358.85598755
137.32600403 151.77899170 479.23498535
137.66700745 79.07199860 432.36300659
77.74099731 138.42399597 546.16302490
241.45199585 211.05400085 393.32000732
112.51100159 133.18299866 493.09201050
62.75200272 119.15000153 439.99002075
73.36100006 190.98899841 508.12600708
279.89199829 175.63999939 373.40899658
94.45399475 221.40400696 501.55801392
272.83401489 175.75399780 396.04699707
103.69999695 109.10399628 361.66000366
159.80799866 233.33099365 380.88900757
109.17900085 235.81401062 436.39697266
96.22100067 86.34700012 464.54800415
194.85099792 162.92799377 384.17398071
194.44599915 180.88699341 374.28500366
142.17199707 157.30699158 440.30999756
254.30900574 176.20700073 378.35501099
91.95400238 225.72399902 476.02398682
252.87600708 187.44200134 404.43200684
91.18099976 173.07299805 536.63000488
122.56799316 75.52899933 424.65100098
212.42199707 156.41699219 391.38400269
295.22201538 155.27200317 386.07901001
232.02000427 244.34399414 445.75198364
79.11899567 105.71800232 383.08599854
305.29800415 192.20599365 400.24398804
122.34199524 179.98699951 490.56301880
153.53100586 170.34700012 428.44000244
130.54899597 239.38400269 383.03100586
187.09500122 247.08599854 400.83798218
179.83799744 172.11100769 451.85699463
185.55000305 225.69100952 471.47100830
171.16099548 126.65100098 402.36099243
170.96998596 214.54299927 473.83401489
142.83099365 163.74400330 452.60598755
308.00799561 184.24099731 398.13800049
68.09700012 174.72599792 514.35601807
79.84399414 206.73599243 493.97900391
79.54999542 100.32600403 477.78900146
93.87699890 82.54999542 436.87298584
118.42700195 200.37800598 473.15002441
134.92498779 199.81700134 346.58102417
125.06599426 230.96600342 370.23699951
220.99299622 228.77400208 444.89398193
87.33300018 111.81900024 498.99200439
120.48800659 161.50500488 343.56201172
287.55999756 166.78500366 375.52197266
146.13600159 140.24501038 356.28598022
186.16799927 200.72500610 374.92999268
56.06800079 152.83900452 452.53302002
110.58899689 90.48799896 375.70300293
237.37899780 189.04699707 383.68698120
166.54600525 152.87800598 440.50601196
204.35699463 251.03800964 432.80200195
57.48500061 163.50900269 450.78598022
236.03500366 214.77200317 429.02697754
65.26000214 157.50000000 384.30999756
122.40100098 76.21499634 395.97399902
176.61698914 251.49398804 439.77200317
153.40800476 231.24000549 374.89398193
271.21401978 205.53800964 409.28598022
188.52200317 174.32800293 449.80401611
65.88400269 130.57998657 502.19900513
183.66500854 151.53900146 395.09100342
146.28900146 199.95799255 478.59899902
79.15799713 114.76899719 522.30297852
301.99200439 153.16799927 384.96398926
180.12599182 178.48500061 366.09399414
202.90699768 194.10299683 445.81600952
61.30400085 185.18798828 455.99301147
109.46700287 117.83000183 467.41799927
69.92000580 108.26699829 452.01699829
58.50899887 168.89500427 474.21099854
71.69100189 111.77899933 401.38598633
240.76699829 219.25399780 397.55599976
176.14201355 149.76699829 374.67797852
136.86000061 241.31399536 442.73699951
135.52099609 212.28399658 490.89599609
150.49900818 83.13999939 401.96899414
210.97599792 181.25599670 430.19699097
179.86399841 141.77799988 433.27297974
130.52299500 76.98500061 401.63201904
68.36499786 201.05099487 467.87399292
71.72500610 207.31199646 397.24002075
159.60499573 247.40800476 415.10299683
80.97500610 93.75000000 431.76300049
152.50599670 141.86500549 469.92001343
122.45899963 214.21000671 493.73599243
63.81600189 187.96800232 468.96600342
167.32199097 202.34399414 468.04400635
159.38200378 148.75599670 438.93301392
100.98699951 233.74398804 405.31500244
62.08100128 124.79700470 462.45898438
94.69900513 206.70300293 521.00402832
68.08100128 120.47799683 397.27999878
102.77000427 206.70199585 355.34899902
170.29899597 222.20500183 476.34500122
100.04399872 96.69799805 373.17098999
84.70700073 223.12500000 436.26202393
122.04399872 132.93800354 486.18200684
71.73300171 191.15998840 493.45401001
113.61100006 233.80300903 479.02499390
71.40000153 161.47500610 539.52001953
83.94799805 222.74600220 459.22000122
60.06800079 149.17599487 406.92700195
114.98799896 194.20599365 473.25900269
130.77099609 200.47999573 477.33102417
280.21301270 149.86599731 372.38601685
173.59399414 193.62300110 461.18200684
181.88600159 243.61700439 395.44400024
304.01098633 160.79899597 396.32400513
89.08099365 123.37200165 356.82400513
194.10800171 190.94100952 376.18099976
69.99299622 196.03900146 482.01998901
115.80400085 76.65399933 437.93698120
84.07199860 91.06499481 411.33801270
65.83199310 124.26599884 402.97799683
91.53000641 162.31698608 537.67901611
168.36700439 239.78599548 391.44799805
264.10699463 170.34600830 371.17098999
75.17600250 101.21499634 462.48901367
255.19898987 219.83200073 424.68197632
70.11100006 127.66799164 519.23297119
69.88400269 207.36099243 436.42199707
171.42100525 224.32998657 378.67199707
135.51499939 88.88100433 382.32299805
194.83099365 166.90998840 378.45999146
107.05000305 96.62500000 371.37600708
119.49700165 180.54100037 476.17999268
209.22599792 184.66900635 435.89801025
285.68801880 204.15200806 391.23999023
60.47099686 136.83099365 423.43701172
153.38101196 117.87100220 440.25100708
70.89900208 205.94500732 454.60400391
192.95999146 153.91198730 390.19201660
68.88800049 125.31700897 505.95999146
132.13301086 177.90600586 343.69598389
215.86099243 185.26300049 380.95999146
189.73699951 218.89500427 381.09698486
86.29699707 120.54499817 524.85595703
276.23400879 196.31401062 405.99600220
115.43000031 185.58799744 343.52301025
127.39500427 165.33699036 427.81500244
143.83499146 244.72500610 400.67199707
222.64100647 163.69599915 378.86102295
230.73100281 193.28199768 422.48498535
82.99700165 92.60500336 420.90100098
264.56500244 204.24499512 386.64901733
176.52299500 241.49299622 485.35998535
171.49400330 192.85600281 428.87600708
72.46500397 102.76799774 423.86697388
149.97099304 154.39799500 353.48699951
125.19800568 243.56498718 410.06799316
279.65200806 174.81199646 396.29598999
208.40100098 251.38198853 412.74801636
201.08700562 228.04400635 460.65499878
81.42399597 116.34399414 367.25198364
80.14799500 176.61399841 357.28100586
232.31999207 164.32499695 395.69699097
130.90899658 240.27999878 432.44100952
123.86400604 107.01100159 363.71600342
106.29899597 84.89499664 384.21697998
240.95800781 206.52200317 420.35601807
131.97801208 163.51300049 439.88000488
56.71099854 160.74099731 437.18698120
72.41100311 209.39799500 410.70300293
94.19100189 134.24299622 523.09698486
274.75399780 167.37599182 370.92599487
155.38600159 134.10299683 365.70501709
169.97900391 165.76400757 446.92800903
285.51699829 195.41200256 384.40298462
159.12799072 161.00900269 439.86300659
135.63400269 196.20800781 471.55401611
258.95199585 184.69000244 380.33898926
219.77200317 247.33799744 453.32800293
201.86999512 247.11500549 400.08099365
132.52499390 149.55200195 441.88500977
173.26499939 130.76899719 392.89297485
75.79900360 188.01599121 365.98901367
146.94500732 246.89399719 485.85800171
79.82599640 220.47700500 416.53601074
132.50700378 193.37399292 344.18298340
127.94099426 124.90000153 465.18600464
223.67799377 156.66299438 395.94998169
87.56399536 89.66899872 396.62600708
269.54901123 181.61000061 398.14599609
56.36199951 145.61599731 444.08700562
103.01899719 230.87200928 462.76599121
80.36500549 169.38499451 355.47000122
80.88700104 211.60200500 380.14001465
112.89499664 76.00199890 424.24700928
252.30500793 217.87699890 398.81100464
80.71599579 146.59500122 546.81799316
154.07699585 224.98098755 480.26699829
70.36600494 136.62600708 534.33697510
143.31201172 149.77200317 475.64199829
253.99198914 208.58999634 414.43698120
124.50200653 240.94499207 394.31100464
134.47700500 92.26599884 439.42599487
217.25300598 227.77999878 393.73202515
144.41000366 171.72099304 442.76101685
101.75400543 216.44000244 504.71597290
220.71899414 177.62799072 381.30099487
140.65299988 98.63600159 376.00698853
127.50999451 173.56700134 491.42001343
260.22000122 185.95199585 401.13400269
165.49600220 175.77299500 424.24099731
86.40200043 212.92900085 498.98300171
284.31600952 214.80599976 402.62402344
169.61799622 246.66500854 402.26699829
153.58599854 125.93500519 447.25000000
154.84500122 182.59500122 462.83099365
182.46200562 145.94900513 385.88699341
94.48099518 119.30300140 490.77499390
228.04400635 179.75500488 412.91101074
188.79798889 163.25500488 449.05599976
209.88099670 162.70799255 400.88299561
96.17699432 127.69300079 510.78201294
85.72599792 143.82200623 351.70501709
76.38700104 96.70700073 445.04602051
187.05799866 167.86499023 380.05300903
59.63100052 159.48500061 485.85699463
143.61299133 107.98600006 370.94799805
107.53800201 218.25698853 362.21200562
88.18000031 85.75999451 436.09301758
121.99199677 87.15399933 379.10598755
175.26699829 153.43800354 450.79299927
72.14599609 154.90800476 547.67797852
159.27999878 104.06299591 387.24099731
156.16899109 176.90699768 442.52899170
135.22399902 242.81401062 482.86898804
238.98799133 163.95899963 374.26599121
181.51899719 218.77400208 473.12600708
114.41699982 234.04100037 501.36203003
143.95899963 192.88099670 346.56997681
55.14400101 144.69599915 456.89700317
154.44299316 202.09999084 353.60101318
253.75300598 163.31199646 371.76599121
188.40199280 251.73500061 419.03201294
134.54100037 165.45799255 343.44000244
81.60900116 111.17699432 372.11199951
196.29000854 190.74099731 450.82199097
113.60900116 188.72200012 508.99600220
109.16999817 235.73300171 442.79598999
91.12100220 185.67399597 529.97497559
163.30699158 141.76499939 367.19900513
172.24200439 171.72500610 360.42599487
72.58799744 122.05000305 375.95001221
132.47399902 224.94200134 362.15698242
87.83899689 139.77499390 536.36901855
182.27600098 211.60499573 376.87100220
226.61698914 237.79000854 453.70999146
225.53700256 244.59298706 407.55502319
131.69599915 80.46499634 443.97698975
166.78399658 117.70299530 424.27099609
197.80999756 205.43299866 454.78900146
213.17700195 201.26899719 383.79098511
227.94699097 166.53199768 376.79998779
76.19100189 184.97300720 532.27105713
138.30099487 160.13200378 432.67599487
245.31700134 218.96200562 427.19799805
222.11399841 208.81300354 434.08798218
252.50801086 198.98899841 386.24700928
299.09802246 170.05500793 382.28298950
96.30099487 142.15501404 527.43798828
86.15099335 223.84400940 444.02700806
266.37301636 190.28800964 378.39001465
78.66699982 164.92601013 548.87005615
102.69400024 105.44499969 464.80398560
153.57400513 105.52600098 379.88000488
105.22899628 114.21799469 357.75198364
115.67399597 78.02700043 393.57000732
129.37399292 205.70799255 348.54800415
167.38299561 183.11299133 356.46099854
88.90000153 86.60800171 449.48199463
196.29800415 222.62699890 383.61700439
286.27200317 192.84098816 405.46200562
231.88400269 152.59300232 387.25598145
195.09098816 239.49000549 474.84799194
103.92300415 172.40100098 522.44000244
265.81900024 214.63101196 415.87500000
159.45098877 244.15899658 401.91702271
150.84100342 234.60200500 487.28399658
155.32701111 95.46600342 389.88900757
119.11199951 82.49100494 384.86499023
101.76199341 232.85501099 418.58599854
180.06100464 141.88499451 397.22500610
97.75000000 227.06500244 383.35400391
145.64299011 235.60200500 377.28399658
112.21999359 238.02000427 412.27099609
131.47200012 155.80299377 346.04400635
216.08599854 249.84001160 457.79299927
55.96800232 137.74099731 455.18197632
141.39399719 78.45700073 408.26602173
154.87800598 85.06500244 409.30200195
141.75700378 229.41899109 367.64599609
133.90499878 219.49200439 357.40597534
86.66400146 104.70099640 489.21002197
73.78099823 102.31500244 442.84600830
70.35599518 207.42300415 443.09298706
221.99900818 188.87199402 427.40100098
169.27301025 215.60501099 372.61199951
114.79599762 185.23500061 486.85000610
149.75399780 158.87899780 437.16299438
71.12800598 171.12699890 529.91699219
154.88000488 245.81399536 407.34500122
204.97099304 183.44500732 378.61099243
155.97698975 89.97299957 420.83099365
75.71200562 123.52899933 369.52001953
94.54399872 123.86000061 501.07098389
198.34700012 157.42201233 405.09600830
230.42399597 171.80900574 380.21401978
158.28298950 96.77799988 426.01998901
75.68900299 216.17900085 435.22302246
101.01200104 172.05900574 346.24902344
176.64599609 186.23701477 364.18798828
192.39799500 185.83000183 450.95101929
71.96500397 137.52200317 366.99798584
216.14498901 201.16600037 438.32998657
190.39300537 144.56201172 424.56701660
108.27899933 130.05700684 349.16601562
173.97799683 159.22200012 389.42700195
142.78599548 205.79499817 350.91998291
154.38699341 107.31299591 433.45999146
165.77600098 195.94400024 466.26300049
299.35501099 158.16200256 381.79998779
57.15900040 163.72200012 460.89300537
157.97399902 240.77400208 391.20098877
156.54798889 143.22599792 438.86300659
68.47299957 171.03298950 369.68499756
62.45700073 159.44300842 501.89297485
162.49200439 210.59700012 473.75399780
115.60700226 110.82699585 456.05999756
101.69599915 230.16600037 472.24102783
94.30500031 158.73899841 532.96203613
63.54199982 174.96099854 491.17800903
75.49100494 215.13200378 444.73901367
119.41400146 160.59599304 504.24499512
168.06698608 149.13999939 394.25900269
134.12100220 130.01100159 473.99301147
97.05699921 231.99200439 433.99600220
87.91399384 158.94999695 543.11102295
87.79499817 149.50599670 350.47998047
76.85800171 211.92300415 387.74697876
103.43599701 162.16500854 522.47100830
144.95599365 176.04798889 451.55200195
116.01900482 145.13301086 502.88702393
162.23699951 158.64599609 447.14297485
157.59300232 137.34899902 444.58099365
157.80200195 141.85600281 432.61599731
69.26599884 147.48899841 531.78900146
228.96000671 188.01599121 419.83300781
86.52199554 93.12100220 471.53601074
72.26800537 106.17200470 460.30102539
97.76399994 200.27500916 519.07995605
241.54100037 227.39399719 403.71899414
79.40399933 125.81700134 538.14501953
65.83800507 185.63400269 481.61502075
222.59700012 237.91499329 399.81500244
65.90999603 152.10699463 381.44601440
249.98899841 191.17199707 408.59600830
77.84799957 217.04598999 456.76199341
247.58200073 241.50399780 430.43701172
226.44500732 249.52099609 423.98199463
147.00500488 98.76999664 379.86599731
221.68699646 192.05699158 383.61599731
59.70100021 154.50898743 489.47299194
59.09499741 144.18899536 418.83700562
178.49800110 152.89700317 413.00500488
191.71899414 148.51998901 396.65899658
103.18299866 223.49600220 371.89801025
172.85699463 230.28300476 382.77398682
104.93899536 210.47100830 494.02499390
286.93499756 155.35398865 384.02398682
141.81600952 205.27000427 483.43798828
147.41000366 127.57800293 363.27499390
221.60499573 231.08000183 396.45098877
123.00399780 167.06199646 343.49600220
135.36199951 157.77899170 477.85501099
118.01899719 91.01799774 451.02798462
196.41600037 172.77301025 433.45401001
106.84799957 146.18701172 515.36901855
116.16699982 205.86801147 479.39102173
66.22299957 142.87200928 515.59503174
77.93500519 158.56799316 548.70495605
169.80999756 120.30900574 398.65197754
183.03999329 146.77299500 410.11700439
68.65700531 121.26300049 387.64599609
76.05899811 105.89900208 489.17898560
282.63299561 168.10800171 393.13198853
135.90000916 244.24099731 417.24899292
268.37997437 178.45100403 373.64300537
189.51499939 239.50199890 477.54299927
132.48400879 143.30799866 487.49899292
62.16400146 189.97999573 452.36700439
82.84500122 170.16200256 544.20501709
261.14401245 147.45100403 371.27798462
206.57699585 221.87300110 386.14498901
188.97700500 251.61399841 440.35198975
143.80000305 175.57400513 346.26098633
97.25199890 91.40600586 380.46200562
139.97399902 118.69400024 363.60400391
66.56500244 119.47200012 480.53601074
104.02999878 133.16400146 505.05297852
75.73500061 142.62899780 360.01199341
113.81999969 142.41799927 346.17297363
62.70700073 170.62699890 404.88699341
231.11599731 181.23200989 383.04901123
217.74899292 165.32299805 402.70599365
250.09599304 170.75300598 375.85101318
225.11500549 219.33000183 436.15798950
104.48600006 231.30500793 477.91998291
120.36400604 189.26499939 466.53100586
145.63600159 85.22399902 392.95300293
154.42900085 246.54800415 428.87197876
272.54000854 219.74800110 403.86300659
214.44499207 212.54800415 441.73898315
108.62799835 86.31999969 461.12100220
165.65998840 210.18699646 365.83999634
113.70899963 149.95899963 507.22302246
149.57701111 82.26999664 414.34799194
109.44200134 225.56201172 370.01498413
182.51499939 140.27099609 416.14599609
282.81701660 184.39300537 399.20199585
248.39300537 180.90499878 401.47201538
168.12400818 110.31999969 404.14898682
79.78800201 130.96299744 360.01901245
73.90499878 106.54000092 473.97598267
154.38899231 247.89300537 477.14599609
96.49800110 82.34500122 413.76699829
59.62999725 132.41299438 463.97500610
164.75300598 204.00000000 362.35498047
246.05200195 231.37399292 440.14401245
71.80999756 181.50100708 522.19897461
164.75000000 123.26999664 430.54800415
216.66101074 163.98899841 378.49700928
174.23200989 144.56900024 390.05499268
127.95800018 116.95899963 358.46002197
187.04499817 185.87699890 454.18301392
244.56700134 225.77600098 434.86999512
269.26602173 156.36199951 371.11199951
145.33799744 186.80700684 463.72799683
103.94000244 193.02799988 348.78097534
183.91400146 231.27299500 385.96298218
148.24501038 244.04899597 458.77902222
147.68399048 124.78099823 455.06298828
125.67700195 226.16699219 364.13400269
89.12400055 179.21699524 351.03698730
62.22200012 134.11700439 396.31399536
195.98699951 250.65100098 406.54901123
134.21699524 186.39099121 458.30801392
189.13699341 143.08700562 417.79397583
67.99900055 176.71099854 372.36898804
150.52099609 229.02500916 477.67901611
127.53899384 91.11600494 376.89700317
154.89399719 207.61599731 356.10897827
161.63800049 150.30400085 445.22698975
87.15299988 96.18499756 382.90798950
68.82900238 118.79399872 493.47497559
142.20100403 166.86500549 445.79199219
272.62197876 207.71299744 389.02801514
100.08499908 82.64199829 392.45700073
74.02999878 129.42199707 367.42498779
238.75399780 172.98500061 399.42602539
132.24301147 240.42098999 438.24197388
81.61199951 183.73300171 538.87396240
142.91099548 146.60101318 353.50900269
110.49400330 197.35600281 348.03399658
103.17199707 229.29200745 382.34002686
204.17399597 172.24499512 420.49301147
199.75900269 159.05099487 412.78799438
162.93099976 179.70100403 439.80899048
85.61699677 209.34001160 503.72302246
63.88199997 188.93699646 425.78799438
170.72200012 154.60400391 422.08499146
175.73001099 202.58801270 370.18002319
158.03300476 139.58898926 364.64398193
165.87799072 174.29800415 432.09902954
61.86899948 184.35000610 431.36099243
296.10800171 180.26499939 401.04699707
99.44899750 230.84199524 391.28500366
235.64300537 241.44900513 450.15902710
114.38999939 98.85399628 452.19601440
57.22100067 152.15901184 428.94699097
56.65100098 143.55300903 464.45797729
106.40499878 207.63499451 488.95001221
193.25700378 196.23098755 454.71502686
164.66600037 206.96200562 429.82901001
73.16600037 166.17298889 543.10400391
74.12100220 114.47699738 511.39700317
163.99499512 133.48400879 374.10400391
171.53100586 202.97599792 424.93298340
68.88200378 200.62400818 403.93099976
291.41000366 210.72999573 404.73101807
127.06099701 223.77301025 505.86199951
218.70599365 178.58299255 420.11199951
153.87600708 98.76299286 429.39300537
96.24200439 82.50600433 444.75399780
287.26599121 180.42799377 377.89401245
200.92999268 163.99900818 426.51501465
245.93399048 195.27499390 386.38497925
93.76000214 100.72299957 475.30902100
120.68600464 127.50199127 352.89898682
97.29900360 231.56100464 439.86300659
183.98399353 145.79200745 404.37399292
95.94200134 175.85598755 530.55200195
119.22399902 102.71099854 448.34500122
69.74800110 159.36698914 532.40502930
103.99700165 125.46700287 351.05899048
161.56100464 107.97899628 427.16101074
75.19699860 108.97599792 391.65301514
132.34600830 104.44899750 441.14199829
185.42700195 191.18499756 459.03500366
258.93499756 233.96398926 418.20401001
82.94100189 203.27900696 507.41897583
185.46099854 213.68800354 467.49801636
140.40699768 243.14900208 474.58200073
136.63400269 242.25300598 389.81597900
75.53499603 129.97799683 540.34197998
65.66999817 181.46200562 384.60202026
115.93399811 237.24499512 438.50000000
169.73500061 182.55799866 420.55599976
135.89500427 212.48799133 352.79000854
97.69400024 214.41400146 364.52297974
154.37098694 176.04899597 429.48202515
118.20999908 185.28099060 499.24401855
163.08499146 99.56199646 422.34100342
129.10400391 158.44799805 439.28997803
122.00599670 174.43099976 501.33996582
202.64300537 251.53198242 411.72097778
104.08599854 221.55599976 508.06201172
199.40400696 251.07099915 473.57601929
234.91999817 160.99800110 391.65802002
60.80099869 132.61500549 475.08999634
275.22598267 153.76499939 382.37100220
234.11599731 198.26998901 386.29699707
97.23200226 228.72200012 464.15399170
58.82700348 133.57800293 432.21301270
78.96599579 175.61799622 543.46502686
136.54800415 138.88899231 481.99099731
75.43600464 196.56599426 372.40200806
87.70000458 181.13499451 536.54602051
126.62099457 238.03199768 467.57800293
255.01901245 148.62799072 378.83099365
154.18598938 185.74400330 350.93600464
268.95401001 229.30000305 415.59298706
67.48600006 162.76499939 372.48001099
92.57900238 113.33200073 361.55502319
175.16600037 250.92900085 461.04101562
184.46099854 224.30000305 383.09402466
164.02999878 193.11698914 356.71401978
79.36900330 207.07600403 375.95700073
150.15800476 132.66299438 464.85998535
88.93699646 228.18299866 424.78900146
126.66599274 78.75999451 392.82199097
195.39801025 151.03300476 426.40798950
197.54299927 199.17700195 378.50299072
117.97799683 112.48400116 359.33798218
121.51799774 236.76399231 498.65600586
174.12400818 188.81100464 457.99600220
157.75799561 146.89500427 460.47698975
160.41000366 132.69900513 442.57800293
69.20099640 148.33900452 369.57897949
95.79700470 230.34899902 407.03799438
104.94899750 146.82600403 346.06701660
155.41900635 194.34700012 471.41500854
259.51901245 179.24200439 398.14300537
126.46700287 113.94400024 450.97799683
88.21099854 193.16799927 529.67999268
109.72100067 182.65899658 516.89794922
90.05300140 168.94898987 348.92098999
169.75801086 124.55999756 410.27502441
62.76699829 181.51399231 404.49801636
116.57099915 88.42100525 377.20901489
146.63400269 245.73800659 405.96899414
178.05899048 249.89999390 482.73400879
201.17401123 251.94200134 425.19900513
156.39900208 245.78500366 488.40902710
165.50000000 248.75601196 418.75299072
278.71701050 155.28700256 371.07400513
156.60299683 144.63398743 452.08697510
162.26100159 145.66899109 412.65802002
208.54400635 169.88598633 414.04797363
101.89100647 154.03700256 346.19097900
121.51200104 76.03099823 444.09399414
112.45500183 177.38699341 513.64099121
172.14199829 140.92799377 377.47399902
219.76300049 249.42199707 433.89801025
214.74899292 245.33699036 467.00299072
225.40699768 182.89799500 417.56298828
155.40400696 246.86199951 462.70800781
230.17199707 174.28199768 405.17898560
110.89599609 81.46900177 457.01199341
61.76799774 144.53298950 496.50897217
124.55500031 238.72799683 384.29498291
171.98500061 197.35699463 364.90899658
135.35800171 171.36601257 343.63897705
59.17499924 146.69500732 483.05700684
108.38200378 230.55000305 508.31997681
142.56399536 215.66999817 486.25698853
138.52999878 105.92199707 369.24099731
57.74300003 165.93200684 469.35000610
57.70800018 164.38099670 423.53298950
158.83000183 229.36500549 479.94500732
103.40200043 204.51399231 505.20800781
64.58900452 189.00900269 402.13000488
147.07901001 245.82701111 416.44799805
163.95098877 104.03399658 394.07199097
136.95700073 136.30299377 353.43997192
126.09300232 183.41099548 460.24798584
246.30700684 167.31199646 392.73699951
72.68500519 120.44300079 522.40802002
181.42601013 146.56999207 424.47998047
272.71301270 158.09599304 385.95599365
70.58799744 112.40100098 481.61599731
243.16999817 163.02700806 389.81301880
194.16700745 229.00100708 386.17700195
84.31900024 222.65299988 465.76898193
207.00299072 251.46099854 460.60101318
193.88800049 150.11300659 402.68399048
130.33500671 239.98400879 443.59799194
93.31200409 151.95600891 532.59405518
115.82099915 75.08700562 416.00900269
199.55299377 234.39500427 388.65301514
95.29899597 108.10299683 475.22100830
141.55699158 166.64500427 457.82000732
109.07199860 184.81500244 344.15298462
144.03199768 88.59500122 387.51901245
241.36000061 170.28900146 377.83200073
119.34200287 134.15299988 349.41101074
166.70899963 250.18298340 477.09399414
145.31399536 171.49198914 437.14898682
163.55699158 198.80700684 426.23999023
191.22299194 168.20100403 450.65100098
152.32199097 87.03199768 397.59399414
129.73199463 101.65899658 368.96801758
256.00799561 233.51599121 440.88299561
98.67499542 180.33599854 526.27496338
184.10499573 251.58300781 413.09500122
138.71798706 237.73899841 379.11199951
57.92700195 147.81900024 433.39898682
300.15899658 190.22000122 406.40701294
86.97399902 210.14698792 369.89300537
113.73200226 81.54199982 386.37097168
103.09100342 234.44299316 442.61102295
131.65199280 168.79299927 481.80999756
293.52600098 159.05200195 378.00799561
182.76800537 139.40000916 408.60302734
170.11999512 189.15699768 418.76699829
64.36399841 190.24800110 410.62899780
105.80200195 231.32400513 467.65399170
278.95999146 163.58799744 389.29098511
243.31500244 207.00100708 389.87698364
218.77999878 236.93099976 454.99899292
197.37599182 216.31098938 458.54699707
209.71600342 209.06799316 383.40399170
197.60400391 249.24899292 480.14398193
222.80799866 214.58399963 390.66799927
147.65100098 216.76899719 482.99700928
66.80799866 178.78599548 504.48400879
179.98500061 140.15800476 421.91299438
247.36199951 183.35800171 380.89300537
64.33500671 191.17599487 461.85699463
122.03100586 238.35400391 433.72299194
64.39000702 171.28900146 502.83999634
168.02799988 235.14599609 483.72000122
195.36900330 160.89799500 442.76602173
77.93900299 98.66400146 466.65298462
300.54699707 200.01399231 404.21600342
138.84500122 126.38999176 358.60800171
124.59799957 91.69599915 445.26602173
218.77899170 248.62199402 444.94302368
140.62899780 173.09799194 446.65899658
97.21600342 84.32199860 457.62899780
114.59500122 74.80999756 404.40402222
