ply
format ascii 1.0
element vertex 2048
property float x
property float y
property float z
end_header
54.59450150 192.46786499 555.39202881
270.95800781 226.81961060 407.92218018
100.48288727 136.88757324 374.45626831
121.31399536 283.73901367 439.60601807
141.29089355 176.74938965 479.28268433
170.45802307 216.38825989 375.81375122
64.22222900 209.04701233 430.48239136
216.43499756 297.06698608 453.22399902
69.28971100 125.44502258 461.42184448
93.03399658 267.92999268 521.54699707
203.32394409 209.84278870 447.29718018
172.11607361 143.92123413 399.64779663
99.68096161 246.73715210 376.17779541
160.67098999 297.12600708 496.56799316
56.46830750 186.47924805 488.87167358
176.36099243 269.86502075 409.94302368
122.58915710 125.07141876 430.57870483
114.45420837 193.12702942 353.67544556
157.81100464 240.17900085 476.16799927
104.40834045 204.00151062 522.41149902
82.54873657 251.02886963 464.03637695
229.63893127 260.56594849 413.50683594
66.63031006 155.13215637 417.33221436
123.08171844 210.84745789 440.53347778
97.62618256 155.69781494 494.06311035
58.45058823 154.09278870 524.90185547
167.01998901 301.20999146 447.97998047
140.34696960 109.60305023 387.71795654
77.62377930 192.73722839 385.01031494
168.38172913 175.02812195 436.55221558
146.66996765 257.19165039 377.23492432
112.38200378 291.60198975 485.74502563
150.62463379 165.47009277 364.84283447
64.99177551 230.13366699 530.56201172
200.97425842 189.70469666 405.73834229
111.98571014 224.73176575 486.51177979
197.53900146 255.15899658 461.42898560
91.08715057 258.99581909 419.24969482
166.03050232 223.85530090 432.00549316
199.63825989 235.67765808 400.01196289
232.95901489 212.69575500 418.26345825
87.55299377 119.55770111 411.38687134
129.73884583 229.23875427 354.87237549
55.13185501 162.34017944 456.00238037
66.67778778 223.96095276 486.05633545
117.16397095 149.03480530 460.94271851
78.76602936 228.18814087 401.71365356
156.87942505 259.85382080 443.71054077
118.96499634 272.24600220 402.93600464
129.59800720 257.26199341 491.21798706
58.84833527 145.82345581 489.76879883
189.78599548 303.50100708 475.79101562
82.41471100 177.94380188 534.43469238
222.63214111 240.18496704 441.00479126
149.74411011 146.04547119 429.98178101
94.14321899 169.12355042 366.48437500
54.71029282 195.65739441 522.02465820
139.11099243 299.20797729 466.95300293
171.66900635 273.15499878 476.16000366
147.36705017 198.46699524 355.85232544
203.61999512 282.84298706 422.93200684
175.51634216 181.57133484 379.15768433
238.81700134 285.83300781 431.68600464
94.52550507 214.30520630 368.33612061
148.20800781 282.96301270 421.99099731
172.98104858 203.83041382 455.77627563
117.99755859 179.73007202 501.37460327
114.35281372 102.64477539 405.15045166
134.24008179 181.87356567 448.74310303
136.60896301 135.54710388 370.04150391
77.76699829 251.45599365 497.33099365
74.15285492 237.35440063 435.60845947
57.88420105 200.61898804 462.35372925
93.11815643 116.27534485 443.07156372
101.51399994 274.74499512 462.03298950
94.60700226 236.78498840 519.93603516
78.83002472 153.70248413 388.72903442
172.27638245 242.55212402 389.58166504
134.03985596 207.26509094 468.24667358
199.00291443 181.71220398 434.44384766
58.71827698 180.90657043 434.11911011
250.84111023 241.95123291 424.46871948
79.98385620 206.66206360 540.61297607
121.77904510 166.24696350 357.93597412
69.51226044 132.11802673 433.37799072
172.13871765 188.36180115 413.07543945
148.38273621 125.21071625 410.98184204
92.85786438 138.33303833 468.26907349
218.38800049 270.26800537 447.64398193
68.44942474 180.45263672 407.33529663
149.34123230 209.09547424 446.39959717
93.40399933 271.98999023 489.86599731
201.22599792 260.28298950 408.45001221
66.14774323 227.40484619 459.39645386
145.11099243 278.31799316 486.02999878
203.18881226 212.37480164 421.03338623
114.10400391 275.26000977 506.42199707
181.86944580 233.36569214 464.54623413
115.48450470 117.27233887 382.74700928
150.89100647 266.28198242 400.23800659
159.83760071 128.28604126 382.32958984
126.36816406 203.86372375 493.81625366
161.54771423 180.09445190 463.24691772
192.24600220 297.41601562 442.43600464
82.98656464 156.88117981 516.63702393
153.76701355 235.94248962 365.94116211
130.40499878 236.69900513 473.75399780
189.39195251 210.09153748 396.02325439
192.65699768 281.42800903 463.39099121
56.97869110 169.21397400 545.03601074
121.24550629 261.57632446 380.49761963
227.11528015 236.03858948 409.55377197
253.94311523 268.16784668 421.44940186
184.11828613 167.60252380 400.21420288
64.60384369 213.38949585 507.04080200
104.83500671 250.39500427 493.81100464
138.51092529 157.49581909 452.58065796
175.67601013 287.92700195 426.49700928
100.01242828 174.40635681 517.43103027
57.20265961 216.25524902 548.72875977
54.73595047 173.72056580 508.38775635
70.75855255 203.79008484 406.96719360
165.87899780 304.26898193 474.44299316
99.68291473 260.94732666 396.40591431
169.71507263 156.85015869 420.40811157
101.98000336 269.14901733 438.99398804
117.37138367 162.78424072 483.99206543
164.18795776 151.77444458 377.75543213
143.32600403 292.47799683 442.40200806
91.90542603 191.43624878 364.44116211
101.25830078 104.79208374 424.69305420
86.75147247 131.26928711 391.95886230
72.50093079 236.24975586 510.67144775
109.50423431 216.78002930 505.97662354
203.46746826 232.35365295 454.28649902
109.25279999 131.56874084 447.26062012
233.43605042 259.51937866 435.50201416
254.49880981 212.52705383 408.30798340
115.01373291 214.13034058 358.04641724
87.84326935 256.97940063 442.81689453
55.18711090 162.98840332 477.44705200
79.26584625 145.25300598 496.88275146
172.06526184 244.51660156 438.58865356
131.40419006 246.67114258 365.61727905
119.12751007 146.53224182 364.46221924
164.34854126 196.33380127 368.75830078
118.47499847 287.01901245 464.27700806
61.12950134 141.90382385 451.51876831
164.38558960 225.57254028 456.71618652
127.27591705 141.13096619 443.72369385
74.74549866 136.00653076 411.34289551
80.46527863 213.27790833 384.09423828
183.60403442 193.78878784 441.76782227
87.87373352 243.62472534 394.10366821
107.54458618 231.85929871 364.06082153
177.71099854 254.14498901 471.34500122
218.11935425 220.08468628 436.96673584
133.25207520 111.81278992 408.34786987
136.09642029 181.67077637 355.87139893
141.44599915 299.50500488 487.14001465
153.82400513 260.67999268 481.25698853
223.66799927 278.60198975 420.22799683
147.92082214 218.17448425 356.93035889
113.71199799 277.37298584 422.14599609
91.73523712 229.50938416 380.29928589
87.34941101 225.94120789 533.27130127
80.27700043 251.09500122 523.78997803
82.71743011 243.23640442 415.04895020
75.94374847 134.88096619 480.05783081
216.78115845 219.84443665 405.43179321
74.41844940 241.83712769 478.58697510
76.71588898 172.72477722 386.76644897
155.57698059 166.94567871 448.89291382
60.44870758 205.31689453 486.84289551
100.68283844 116.15572357 395.72750854
60.29944229 159.85638428 437.19296265
182.06300354 252.23898315 402.42700195
236.18920898 229.76823425 429.00503540
55.30153656 183.47729492 469.48233032
70.81840515 224.40921021 421.05612183
147.94500732 224.85198975 466.92599487
59.06529999 142.85630798 470.68579102
128.72700500 286.96502686 494.63900757
148.70953369 193.44042969 455.90533447
246.17948914 230.45388794 409.84860229
185.02691650 226.68673706 388.46057129
177.14401245 295.11801147 487.44000244
190.67929077 194.00746155 421.04028320
129.60961914 162.60162354 469.48834229
52.22282410 174.97387695 527.80938721
71.26184082 189.55346680 547.02264404
99.43199921 234.19000244 501.94900513
178.52963257 201.00445557 382.31604004
137.19000244 277.09002686 406.88000488
221.11399841 290.52001953 435.20401001
90.64710236 152.78564453 374.45983887
61.50338745 147.08096313 508.38796997
160.10697937 139.15046692 412.56088257
199.91099548 301.85897827 459.41000366
99.61300659 254.41398621 510.81402588
135.85336304 268.16693115 390.43765259
139.26092529 195.27799988 479.80999756
95.75046539 189.15943909 528.01043701
112.25499725 241.08399963 479.18899536
206.67301941 199.41276550 432.55236816
212.75900269 252.56100464 451.26000977
214.19302368 248.87203979 410.27252197
188.47944641 216.01960754 456.63842773
75.28617096 117.18734741 444.13388062
130.91094971 206.49327087 354.03549194
105.16140747 150.32484436 474.33407593
134.09402466 200.00265503 448.17599487
97.33300018 281.04400635 508.12600708
74.32356262 162.31811523 531.42901611
84.79000092 265.64898682 505.47802734
90.66200256 264.75000000 471.95101929
57.80907059 213.48498535 529.94311523
84.40772247 112.65795135 428.13363647
115.51227570 197.66450500 509.64505005
182.55999756 303.81597900 457.04498291
160.26690674 254.41519165 391.68307495
60.82488632 211.97889709 447.84173584
86.20444489 125.01457214 457.43896484
136.47566223 155.18159485 363.41369629
55.85579300 178.65977478 451.17495728
160.23098755 293.10699463 434.29699707
58.14178848 195.27682495 505.45715332
161.13781738 179.61741638 368.48880005
50.74451065 192.15638733 538.18524170
178.47178650 172.62850952 416.38214111
151.47300720 301.71398926 455.17599487
140.27770996 131.82043457 424.69357300
131.49800110 281.97900391 425.97799683
116.69893646 131.60437012 372.05905151
163.57299805 279.82598877 415.70199585
205.34625244 206.79338074 401.93606567
129.13330078 187.28082275 491.33120728
175.68080139 165.45881653 385.83462524
102.55446625 267.91751099 411.42382812
161.37300110 284.30499268 483.35000610
169.84809875 186.67019653 450.37969971
107.40724945 178.54508972 357.12246704
153.22080994 117.25147247 395.28820801
114.14099884 292.04199219 502.40200806
191.85699463 273.25299072 415.08801270
204.03001404 270.52099609 456.05999756
243.20655823 251.45152283 412.89746094
125.33299255 296.29199219 476.24298096
114.98811340 249.56971741 368.99841309
55.32581711 162.60650635 495.69714355
142.86700439 248.52700806 483.97601318
58.16324615 193.70756531 445.32299805
106.53085327 158.75846863 362.85574341
118.61291504 112.32837677 420.69000244
84.43968964 180.25808716 374.02590942
63.22884369 171.10447693 419.79113770
63.71191025 191.40934753 423.31759644
177.07760620 198.63000488 398.87149048
71.62841034 165.22888184 402.05108643
144.56550598 167.83393860 464.07205200
191.96606445 200.11283875 454.79666138
160.16123962 246.02301025 378.19473267
125.22547150 105.40951538 392.12503052
105.91436005 167.68331909 503.71981812
67.84990692 224.22212219 439.19055176
160.92272949 160.70484924 433.47970581
106.91851807 117.02367401 434.74108887
187.21499634 266.34402466 466.90802002
238.92900085 273.65100098 419.30499268
129.47160339 122.66320038 376.52801514
88.37318420 144.09872437 483.69519043
71.26896667 222.45855713 545.02819824
153.28535461 140.73771667 373.81683350
115.11599731 260.48999023 500.77896118
181.01100159 287.14099121 472.44900513
196.79000854 179.09654236 419.06338501
73.00056458 149.28555298 403.51797485
101.90227509 202.47216797 359.90332031
110.31100464 277.92297363 449.19900513
99.57688141 220.15934753 523.98590088
123.98999786 222.86199951 477.15600586
152.17176819 189.92260742 470.98223877
105.72399902 281.99499512 475.59500122
82.77576447 253.25131226 482.01473999
186.29971313 181.18479919 393.33996582
213.73599243 267.68499756 413.54299927
72.29185486 237.08648682 493.09365845
130.89700317 290.99597168 451.17398071
74.49784851 238.91621399 451.39974976
163.95735168 131.12660217 398.06607056
99.04374695 106.77080536 409.73730469
94.61352539 265.46206665 452.63269043
63.00690079 217.43664551 471.90881348
173.05137634 190.11605835 429.98611450
65.14971161 203.85650635 551.87451172
186.36766052 241.06387329 394.93246460
167.23417664 233.06349182 378.27145386
93.19725800 209.05012512 531.68267822
128.05200195 271.78002930 494.94998169
191.42300415 288.91000366 429.17800903
84.72527313 250.25392151 428.69631958
247.32929993 219.97151184 420.30520630
228.70799255 279.30798340 441.37899780
165.37300110 262.72198486 403.01400757
76.58010101 238.83119202 535.87292480
85.45278168 202.34732056 372.08236694
144.20550537 124.23889160 377.44467163
206.46501160 291.51898193 436.45700073
102.78900146 285.58401489 495.06500244
99.85359192 126.02967072 385.03762817
161.76628113 211.67086792 439.08764648
62.44583893 146.00912476 432.74194336
88.74499512 253.03240967 405.82156372
191.60981750 201.74906921 407.65203857
202.80293274 220.76673889 399.64395142
160.42439270 223.26225281 366.32714844
245.07669067 255.04824829 427.68173218
200.76997375 192.93577576 443.81793213
181.12329102 193.38948059 461.45681763
127.06735992 173.53622437 487.43850708
174.17848206 219.22373962 442.85842896
158.77098083 207.56086731 362.17553711
217.40023804 211.67398071 418.63388062
111.22138977 267.27972412 392.74905396
88.16023254 168.73197937 525.00134277
162.90504456 166.24143982 372.60604858
151.60099792 304.83300781 473.56097412
203.92500305 287.47698975 457.02297974
131.27659607 193.37767029 459.72506714
107.96703339 257.37408447 380.70721436
104.17422485 139.68211365 459.91717529
212.64649963 233.20249939 406.62246704
74.11360931 214.45150757 399.34768677
88.87795258 140.74218750 381.72106934
71.13092041 174.67817688 542.20367432
125.06100464 248.15901184 479.91400146
206.70277405 196.86572266 416.48388672
255.80375671 254.16117859 418.70095825
136.08662415 213.74179077 457.07681274
77.37931824 125.97845459 423.37265015
176.86740112 156.46321106 404.29525757
150.50556946 184.88124084 361.22140503
108.84833527 187.13821411 515.06231689
95.04598236 162.80155945 510.41812134
141.66024780 150.27371216 440.55990601
151.50399780 272.77697754 412.39700317
240.13035583 218.17523193 407.76828003
68.43650055 225.94198608 516.60864258
160.76852417 196.83937073 449.94583130
72.79238129 189.46900940 398.49029541
171.22599792 240.89099121 473.51300049
258.09082031 238.35737610 413.40759277
124.94407654 211.70384216 481.55963135
129.32945251 193.21202087 354.26544189
82.14965820 191.13414001 538.21624756
196.51614380 248.89671326 404.54086304
120.77989960 237.52148438 361.01956177
98.53665924 266.86676025 425.56918335
120.84468842 180.18508911 355.04162598
83.05587769 162.82698059 380.04541016
163.75500488 252.81900024 476.85198975
70.96725464 151.76908875 520.63781738
139.70364380 236.22618103 360.19848633
177.52799988 295.07000732 437.65301514
167.14186096 140.49423218 384.08355713
218.51199341 283.54901123 448.96899414
168.63499451 304.78701782 461.44198608
174.54229736 152.91714478 389.82980347
51.50674057 204.79769897 545.63952637
192.44648743 242.88607788 463.58453369
132.20980835 121.98487854 421.24017334
182.28536987 213.30195618 384.70809937
61.72057724 159.77572632 536.19769287
137.02169800 167.79650879 360.44378662
112.68112946 109.34229279 392.93057251
138.43099976 287.61700439 479.57901001
148.00166321 262.12292480 388.29211426
82.06131744 131.14315796 468.58908081
145.67199707 232.94700623 476.90499878
75.40351868 241.46279907 464.80807495
149.53846741 247.17807007 370.05523682
56.69625092 195.42933655 475.45593262
67.93922424 231.66043091 474.32131958
82.45215607 224.82435608 388.81484985
117.84664917 157.30171204 471.81259155
116.17696381 214.88679504 492.39291382
131.37500000 257.17129517 373.19406128
67.69541168 129.88798523 449.38452148
98.13715363 129.92074585 453.63269043
77.70600128 254.40000916 511.53701782
126.11598969 279.16299438 414.55001831
191.17500305 293.72299194 467.44799805
182.25141907 179.66459656 406.31005859
104.40499878 270.44000244 513.44903564
168.96652222 190.62384033 463.49163818
141.33499146 266.04397583 486.46600342
214.09181213 231.48823547 445.79992676
58.96456528 181.28514099 551.25500488
187.07301331 262.95098877 408.93099976
69.08073425 212.46295166 418.59878540
233.96102905 246.51188660 433.54132080
105.56558228 146.34906006 367.73892212
87.50868225 152.79020691 502.98541260
64.63391876 215.81323242 494.30813599
79.64955902 138.90246582 399.33172607
72.20790100 238.59814453 523.63000488
239.70100403 273.23898315 431.95797729
54.39036942 184.36761475 515.72613525
69.20150757 138.67549133 490.69027710
142.86257935 111.53100586 400.16156006
223.34956360 257.72290039 442.79660034
154.89100647 302.81799316 485.52899170
162.62937927 248.85630798 446.03543091
55.23984909 175.29600525 480.68154907
149.56800842 291.77902222 492.63800049
123.59655762 269.24703979 391.59161377
155.02499390 155.00975037 370.12008667
177.83590698 221.97187805 457.76284790
68.43507385 143.37249756 419.99813843
151.01153564 177.59806824 471.36074829
74.55219269 147.59346008 508.11123657
89.71680450 121.98540497 399.31436157
117.13219452 226.11598206 358.47525024
79.92668152 248.81712341 450.71893311
75.75341797 236.04533386 423.05572510
120.36799622 284.62200928 451.79998779
114.63378143 168.90922546 495.31057739
94.70008087 251.04141235 387.46118164
205.40744019 211.65928650 433.70147705
181.04592896 197.30465698 412.82687378
164.74456787 233.94050598 441.31130981
59.44632721 206.06369019 517.59179688
169.69625854 178.86134338 422.54544067
257.82611084 223.38351440 412.64697266
54.54663086 172.37066650 463.31060791
205.53498840 297.79498291 447.90200806
151.30278015 136.47776794 420.38943481
128.48663330 155.19364929 458.88076782
192.54214478 229.51873779 459.46783447
128.82099915 293.56399536 464.03598022
227.73591614 249.21972656 410.99917603
160.51007080 149.59420776 422.97210693
151.13658142 159.10351562 440.26812744
228.80014038 221.75849915 408.04611206
157.82600403 272.99499512 481.11999512
65.25346375 132.76400757 472.81146240
237.64674377 240.83947754 412.53802490
104.99922943 218.27282715 363.75634766
55.54328156 160.73576355 507.37512207
161.71699524 230.06500244 468.16198730
61.30513000 215.83911133 459.79861450
154.96299744 297.40301514 444.18298340
177.43598938 304.00601196 471.34799194
133.22601318 223.64201355 467.97799683
133.13198853 286.68902588 440.07501221
56.22118378 152.18707275 464.03115845
177.35467529 189.84375000 387.80096436
144.88415527 146.33663940 367.56668091
98.73745728 225.95715332 370.87924194
118.24679565 206.71870422 503.13372803
128.07862854 217.73521423 353.90679932
103.00581360 189.37211609 357.91156006
56.29527664 151.17654419 478.95043945
168.01622009 148.57977295 411.87661743
138.82017517 140.84887695 433.67645264
85.44900513 260.96002197 490.81799316
68.00376892 191.85116577 409.76397705
85.30099487 239.17700195 529.80902100
97.36900330 246.35099792 502.52597046
111.20536041 208.53945923 513.77874756
242.41798401 262.60025024 416.22790527
96.88299561 273.96600342 478.80899048
206.50529480 221.84489441 447.41247559
170.40019226 165.85884094 428.15982056
92.08100128 255.87001038 519.70703125
227.23356628 218.70878601 426.70135498
106.17499542 236.34300232 488.01602173
158.10688782 223.19639587 442.04031372
96.09654999 180.86408997 362.26861572
55.49876404 189.49214172 459.14529419
122.65799713 296.60000610 491.93399048
152.46319580 116.52342987 383.64450073
127.74584961 113.21115112 383.15628052
147.68399048 289.09399414 432.10000610
164.35726929 175.75454712 449.10494995
75.48851776 205.31063843 390.63906860
109.76599884 278.25000000 437.58099365
140.93360901 197.29734802 464.45193481
164.44436646 208.86485291 449.64358521
108.74600220 284.73999023 510.39999390
83.01799774 262.98202515 518.41101074
51.29064178 177.36804199 539.00988770
95.00105286 261.79559326 434.64358521
118.35224915 141.63870239 451.17123413
88.09619141 219.28581238 376.84494019
251.04370117 230.86209106 420.84197998
189.32441711 191.12548828 432.55419922
192.74429321 183.71377563 443.85723877
69.41944122 227.45167542 502.08044434
202.08757019 244.64035034 457.75155640
83.54251099 191.48017883 373.94955444
115.43700409 251.61299133 485.18499756
52.78033066 202.70744324 533.97302246
96.98317719 109.54634094 434.43179321
203.95100403 273.60699463 414.25000000
90.20275116 198.06701660 533.96520996
153.26745605 221.08261108 454.89483643
128.64785767 133.84007263 434.62594604
79.45108032 246.37763977 439.18014526
135.28631592 208.41159058 442.24453735
61.17770004 225.96789551 540.22412109
83.10736084 238.96449280 403.26760864
85.74271393 258.24752808 456.79055786
216.46499634 283.91799927 427.11099243
224.31799316 295.93899536 444.57800293
170.02252197 205.64912415 374.02459717
182.44200134 281.20602417 420.57400513
55.28802109 176.88247681 497.93789673
120.76829529 190.48727417 501.35308838
113.38706207 125.55307007 437.96401978
98.23750305 236.26852417 373.83328247
119.95379639 204.00753784 355.47225952
146.81646729 197.45286560 445.62078857
61.83165359 204.83894348 497.77532959
172.00100708 286.70001221 478.98098755
97.54312897 150.14070129 482.84838867
169.70417786 253.91304016 397.45111084
165.72299194 301.94500732 487.89099121
141.82099915 296.26300049 452.73699951
135.64002991 262.68853760 381.05569458
115.66699982 289.58599854 475.35800171
176.31611633 223.50024414 382.09887695
92.09565735 110.12063599 417.85787964
108.75933075 126.15776062 378.30133057
60.11220932 208.16479492 475.79367065
61.45528793 197.03707886 435.63687134
152.09857178 260.00857544 453.68005371
154.64474487 172.54045105 459.01544189
125.13038635 137.53192139 367.98007202
226.93515015 230.04609680 435.33071899
73.61403656 222.07504272 408.72964478
107.88155365 157.74029541 484.11734009
57.85374832 153.09014893 445.19915771
109.41452789 103.94461060 414.93130493
57.36172867 169.59927368 444.76284790
64.18054962 138.43435669 440.74957275
102.08021545 224.74177551 515.43170166
194.37408447 224.58621216 393.86621094
153.37400818 249.22401428 481.19598389
72.72431946 178.29132080 397.28610229
125.16959381 105.65863800 404.51446533
125.75240326 155.43663025 361.25820923
155.76448059 195.01672363 361.94363403
80.51733398 127.30551910 408.38165283
91.22292328 178.92248535 528.32910156
232.50000000 290.06900024 439.35800171
120.86199951 283.60800171 502.84396362
171.58097839 235.01829529 431.93011475
204.49595642 191.08042908 425.81945801
182.42999268 276.79602051 469.80801392
65.09111786 203.19544983 421.02722168
169.68362427 186.24734497 439.47036743
162.71800232 271.45999146 409.00000000
110.77999878 280.43197632 459.61199951
131.55413818 145.72198486 364.39929199
53.87036514 163.80172729 525.14538574
108.44356537 177.15467834 510.73031616
59.07421112 170.37989807 432.86120605
76.72277069 121.91210938 434.72149658
135.57499695 279.89398193 490.64199829
235.57183838 229.93803406 408.77374268
180.40805054 174.94961548 386.74005127
63.78738403 218.82086182 522.07354736
178.68568420 193.40148926 450.88717651
240.21911621 239.76316833 427.99169922
132.82864380 149.22579956 447.81115723
186.93800354 254.13200378 466.16299438
176.14115906 186.29847717 401.03985596
173.99699402 303.42199707 481.33200073
106.44558716 221.60885620 498.22103882
84.31605530 117.28533173 449.48007202
133.40426636 168.99964905 477.08090210
191.79501343 300.97601318 452.32598877
53.35617065 166.11396790 535.35357666
66.79508209 142.89912415 500.11575317
84.50386810 215.78471375 536.56231689
92.59200287 275.01699829 499.86401367
131.25300598 272.16601562 398.45401001
184.33833313 205.37341309 459.21023560
68.17946625 229.23512268 449.32391357
174.83047485 233.35420227 385.76791382
108.40508270 168.57751465 359.38140869
212.73683167 215.17405701 427.35427856
156.73699951 304.67297363 463.69100952
208.99574280 211.49310303 412.18078613
178.15600586 264.52197266 472.00500488
113.95999908 272.94097900 412.73498535
173.54223633 191.40261841 377.23855591
145.48193359 173.94879150 361.30291748
119.04299927 231.77600098 475.10598755
191.82400513 304.82199097 465.20800781
138.31231689 223.26385498 354.37994385
63.41189194 180.87251282 423.38699341
139.69192505 119.81542969 412.48904419
62.82544708 137.60308838 481.81716919
93.10503387 242.12127686 383.25598145
136.40399170 279.19702148 417.33599854
159.76499939 288.12399292 425.28399658
85.97469330 234.27513123 392.83816528
164.07400513 265.16299438 478.75299072
184.35700989 295.93200684 480.13299561
132.19566345 204.49307251 482.99499512
145.34255981 186.97644043 480.01187134
85.80319214 110.60398102 438.75411987
110.18865967 270.32037354 404.30548096
205.05999756 243.85475159 405.96237183
104.96394348 107.81656647 399.63165283
190.97225952 180.63920593 428.20532227
136.10600281 298.47601318 476.68002319
62.19451523 136.81967163 462.89242554
59.79217148 202.53808594 450.58032227
158.39137268 191.47824097 458.26293945
140.52087402 210.08663940 354.93945312
101.09500122 280.82202148 485.05200195
75.86195374 164.10530090 392.68402100
224.32200623 269.36099243 416.04901123
70.59790039 212.52917480 546.87500000
246.32998657 277.36599731 425.17001343
76.17945099 231.88078308 413.37646484
213.75900269 294.88699341 442.61499023
141.44836426 190.10748291 357.12817383
133.56019592 106.36109924 398.82992554
139.76498413 190.08337402 449.96395874
99.94045258 123.23598480 445.55291748
79.14486694 201.85810852 380.19598389
74.83706665 245.19425964 517.26489258
141.40899658 271.61099243 399.56701660
180.78500366 244.84899902 469.04699707
74.56295776 118.90383148 454.08758545
89.23984528 162.36781311 372.00494385
190.09281921 191.63044739 449.29757690
142.50517273 204.89553833 459.38238525
197.09732056 188.90093994 415.20703125
204.41099548 260.22900391 456.22100830
134.92199707 242.96900940 481.60601807
121.28400421 280.96801758 427.55801392
59.21282196 194.85000610 494.41082764
179.71511841 194.50881958 424.62362671
171.48800659 228.40699768 464.70001221
72.66120148 199.65603638 546.83831787
118.37531281 133.16079712 442.01797485
56.46945190 186.89405823 499.11563110
115.74729919 118.07395172 429.35485840
95.39325714 262.42642212 410.28265381
89.43531036 149.55294800 493.69729614
95.23699951 242.85600281 511.52996826
89.41199493 272.17199707 513.38000488
67.63429260 168.79403687 411.04672241
166.65199280 292.22698975 489.37402344
127.32687378 113.41748810 416.12976074
245.69209290 266.11578369 428.43771362
160.17390442 122.47543335 390.23068237
70.29522705 231.77609253 542.08477783
154.98986816 124.95346069 403.71261597
198.60124207 223.17201233 453.44253540
248.88769531 242.77008057 414.91293335
128.56361389 209.47390747 449.45840454
194.71200562 270.19198608 461.94000244
81.07897949 144.30229187 388.73443604
167.53343201 175.03599548 374.10159302
229.27099609 286.99200439 430.04000854
218.61067200 257.25262451 411.52825928
70.08660126 134.40855408 423.19119263
169.99742126 137.13323975 392.88604736
196.14938354 208.97058105 454.51431274
85.22708893 138.20365906 476.40606689
75.14714050 245.72218323 506.89828491
54.61282349 163.20428467 466.11804199
174.44799805 278.16500854 416.05899048
105.91498566 240.57009888 367.44082642
174.47521973 163.88969421 415.76907349
57.01717758 155.46755981 515.52624512
100.81400299 241.67700195 494.82797241
245.66619873 212.93043518 413.61752319
105.59192657 160.88816833 494.53274536
227.36500549 269.78497314 440.91299438
108.52344513 110.36959076 427.49496460
201.32995605 199.23362732 405.53225708
88.40999603 246.04399109 523.08599854
56.87716675 154.25701904 500.29373169
55.94205856 214.90872192 539.29425049
210.95300293 279.31402588 453.07897949
92.56099701 266.90798950 462.16900635
131.47241211 196.53549194 489.56338501
134.15330505 179.49339294 485.86135864
109.23594666 196.68025208 517.13012695
182.60900879 300.54797363 448.06900024
111.50185394 138.93640137 369.08654785
119.71200562 256.68600464 492.04098511
55.95242310 201.77595520 555.25469971
108.94300079 263.31799316 507.42602539
124.74285889 148.33848572 453.12564087
56.35246658 152.34127808 454.52102661
147.55368042 160.84550476 449.00698853
104.93700409 271.11898804 422.15402222
51.03571701 185.43580627 548.06451416
92.86569977 200.63027954 364.57556152
222.64479065 214.68019104 410.70068359
168.57054138 160.01072693 379.64035034
79.51641083 247.22320557 471.83151245
110.30653381 201.82559204 355.28656006
78.21648407 183.64961243 383.80856323
179.41682434 161.76162720 393.60217285
166.31088257 187.27717590 370.70278931
83.77101898 119.38526917 421.14758301
151.94099426 284.80099487 485.87399292
81.43041229 162.15419006 524.68548584
63.34297180 190.72573853 552.32043457
63.49489212 154.37208557 428.89852905
52.08577347 184.46644592 527.60498047
98.39179993 156.09887695 366.89410400
221.53768921 229.28019714 406.34472656
85.29631805 149.54411316 381.50894165
212.56298828 278.96600342 420.16198730
207.05294800 204.44200134 424.81399536
138.20597839 117.67642212 380.57501221
199.17395020 212.68357849 396.52722168
106.72570801 119.57640076 385.31427002
169.20500183 292.58599854 431.66101074
182.37159729 204.91059875 391.57220459
68.25421143 217.06280518 427.13275146
98.25013733 230.78549194 510.91403198
78.62429810 228.90666199 538.41229248
177.30299377 262.17700195 404.73199463
232.43800354 281.54699707 423.16601562
86.64183044 250.80514526 416.07400513
120.52799988 240.92300415 474.09201050
132.40400696 292.24099731 484.96697998
144.94639587 228.44609070 358.30221558
194.35200500 282.30398560 422.29000854
91.72618866 131.74037170 460.71682739
208.82649231 240.13256836 451.90383911
76.31284332 184.43882751 541.14434814
91.84219360 253.69425964 396.17404175
188.97915649 218.12187195 389.75320435
105.16735077 261.64501953 388.56237793
70.70858765 226.94239807 430.99722290
76.83552551 170.26319885 535.46527100
140.87239075 243.55119324 365.17935181
239.07780457 222.29350281 424.27136230
67.19468689 166.04183960 540.09704590
109.63191223 147.66488647 466.48391724
139.15908813 253.06604004 369.99523926
206.99946594 204.65489197 440.21981812
161.93095398 167.65501404 439.87423706
93.61238098 115.97425079 405.31573486
215.96878052 243.14167786 446.83905029
83.64226532 171.72032166 376.57504272
206.63661194 253.11482239 407.85684204
212.26899719 264.57299805 451.40698242
208.93701172 295.88601685 458.32800293
123.89499664 251.76786804 369.18377686
73.58137512 199.69122314 397.34356689
88.11968231 186.39949036 533.20019531
64.32351685 225.10244751 467.93524170
145.39817810 132.44448853 373.71942139
183.24789429 168.70828247 409.20208740
130.38433838 174.68101501 356.44635010
203.16111755 189.79037476 434.86929321
77.01177979 248.18147278 488.07049561
112.54499817 232.62100220 482.39498901
62.76542664 214.08474731 482.81408691
197.56999207 292.96301270 436.64199829
54.86209869 169.07360840 489.72659302
138.31869507 201.34121704 353.50073242
103.32299805 273.21099854 453.35299683
124.88563538 166.77520752 481.70068359
97.28666687 199.17999268 528.73944092
118.99044800 219.26576233 481.64633179
63.05878448 212.57852173 439.10491943
106.07791901 216.34481812 518.10211182
201.19400024 278.84600830 457.86199951
115.17061615 154.19743347 362.40234375
182.56799316 273.77999878 415.08599854
135.60816956 189.43139648 485.36831665
57.84580231 193.45457458 483.87414551
87.07623291 257.10464478 472.71881104
159.86676025 188.71154785 467.09808350
63.81248093 220.07101440 449.60345459
61.31551743 163.87561035 426.85913086
144.05099487 302.57299805 477.76898193
157.80186462 254.38520813 382.96405029
124.72200012 263.58398438 495.89801025
132.12921143 129.27136230 427.66537476
209.89686584 216.30407715 440.47277832
155.68930054 215.67756653 361.54925537
153.51017761 214.28713989 439.64755249
175.73242188 248.15684509 395.44439697
126.59973145 129.69648743 372.12429810
137.72999573 255.28300476 486.45300293
98.42611694 160.58209229 502.50299072
94.06741333 144.74754333 374.75329590
150.32676697 209.86328125 357.41900635
117.73522186 106.63819885 413.66921997
191.48098755 255.20101929 405.92199707
160.99324036 238.49060059 374.27282715
71.28060913 147.65545654 412.02896118
148.17700195 303.47100830 465.32101440
103.75051117 191.90193176 521.70806885
79.17562103 242.89096069 426.83459473
120.65399933 271.26300049 499.65301514
99.48659515 143.94841003 468.83303833
54.35889053 165.57733154 516.67187500
55.81098938 156.44061279 489.26364136
149.19610596 166.18569946 456.42327881
165.74754333 141.34753418 406.27655029
129.47663879 238.92202759 359.79983521
173.21890259 226.10475159 437.51495361
121.57819366 175.86781311 494.04080200
137.33300781 284.68200684 432.68002319
56.18537521 205.81352234 525.68103027
156.67018127 171.56002808 366.87380981
148.74899292 270.23397827 484.58099365
264.95147705 220.52792358 407.79248047
201.15748596 182.73605347 425.65841675
122.40881348 198.69308472 499.89245605
135.35633850 161.54830933 462.95932007
131.17152405 192.11793518 451.04421997
95.71638489 230.95051575 525.68273926
71.96122742 126.21459198 440.69668579
164.60537720 209.80340576 368.47735596
105.69900513 230.49800110 494.38198853
142.34599304 290.91702271 487.59100342
220.25152588 241.07627869 409.59872437
148.44599915 240.95800781 478.58898926
149.79598999 300.40402222 492.36199951
155.22900391 259.38098145 394.45901489
92.54455566 123.69219971 451.61285400
148.49781799 119.29953766 403.60263062
53.36510468 176.65992737 519.45172119
164.44006348 248.14186096 437.31970215
140.36564636 169.55802917 472.10549927
91.93099976 267.72000122 482.01901245
70.64807892 236.04118347 482.61532593
107.96202850 209.40135193 358.58636475
61.68147278 205.76278687 509.12963867
199.43299866 293.79299927 462.26699829
175.17399597 303.12799072 452.75500488
147.42190552 155.98181152 366.23654175
113.02548981 262.59179688 385.12753296
80.28807831 140.25456238 485.21945190
175.77264404 180.12789917 411.91427612
121.75285339 188.31552124 353.12731934
171.38890076 221.96263123 452.80563354
149.04750061 111.54060364 390.47958374
128.24513245 213.17269897 472.23025513
50.59252930 196.42276001 548.93792725
165.71095276 247.35806274 387.34698486
100.71028137 182.02694702 521.48718262
92.85134125 219.22309875 530.19073486
160.80113220 218.72013855 449.89004517
56.15392303 183.86541748 477.91632080
161.85699463 302.80200195 454.57101440
140.89346313 209.73596191 450.61596680
74.32566833 129.52206421 471.68588257
88.97031403 184.36228943 367.83511353
157.74031067 202.90646362 445.20910645
199.80200195 301.24499512 467.89801025
161.08726501 230.80238342 369.66781616
136.02999878 230.42900085 472.69400024
194.78900146 265.89398193 410.89401245
76.40487671 149.08074951 395.63311768
93.63137817 131.69204712 384.26651001
105.79299927 255.82901001 500.25701904
156.26950073 153.73764038 431.83966064
116.57157135 173.09616089 356.33990479
93.92697144 167.36653137 517.53161621
109.37699890 281.93899536 467.80300903
166.02635193 225.62651062 444.33258057
193.14944458 242.42283630 399.69061279
208.63223267 225.44421387 403.65579224
60.56755829 208.44129944 463.83804321
247.58122253 221.29402161 409.99374390
171.33100891 258.73501587 474.36801147
200.66632080 201.99058533 448.86389160
145.76773071 217.55575562 455.65078735
95.99138641 121.94544220 391.34243774
97.35115814 264.68481445 444.47994995
157.24024963 131.72634888 408.24383545
62.38879013 149.06091309 516.72863770
60.85241699 204.57550049 439.55630493
208.40859985 215.45140076 402.89376831
69.86582184 229.48060608 492.73706055
99.68099976 261.48098755 515.34997559
193.36387634 232.78196716 395.23721313
54.45393753 173.92936707 471.56445312
154.39399719 232.82200623 474.19699097
59.91647339 221.33105469 532.44750977
57.63075256 186.22811890 441.32226562
107.82289124 250.41589355 373.59317017
66.91662598 176.64372253 414.40988159
78.69577789 244.96481323 458.50796509
123.35684204 183.73098755 496.68148804
101.13462830 174.31425476 360.62802124
70.13999939 234.08349609 458.32067871
108.46500397 245.91799927 484.79000854
134.00000000 265.20098877 490.26300049
63.30113220 213.09066772 515.41455078
129.32302856 162.63250732 359.34353638
99.54000092 276.21298218 516.87902832
55.16055679 155.17625427 471.75891113
143.72700500 276.25399780 414.81997681
168.66200256 296.28198242 439.04800415
111.20299530 138.04400635 452.86611938
92.31136322 143.03283691 476.36938477
86.63365936 212.10389709 373.55068970
220.41497803 228.23805237 440.29995728
167.87048340 196.85508728 455.01110840
134.10113525 203.39576721 474.83935547
71.27110291 231.91473389 442.49270630
153.45677185 223.37825012 361.43060303
97.66179657 195.45555115 360.16000366
166.64859009 223.04016113 373.07479858
209.12800598 286.67898560 430.39797974
56.61796570 176.79937744 441.34936523
116.44528961 187.75830078 507.57843018
72.91300201 237.25891113 501.68209839
99.01402283 211.03826904 526.57879639
92.72955322 105.85141754 424.77328491
127.71199799 275.47601318 405.00302124
119.34799957 296.02301025 484.52499390
170.78790283 167.82925415 379.37719727
105.57835388 266.25125122 400.11639404
211.33000183 288.80899048 453.99002075
77.69092560 125.95731354 464.07901001
171.59495544 212.95179749 454.00369263
143.16490173 195.34486389 471.86978149
158.07861328 147.64704895 374.20803833
73.36545563 156.38229370 399.92581177
78.12500000 244.66999817 530.00000000
63.64023590 222.92739868 547.71343994
195.37605286 209.18667603 402.61923218
160.10600281 140.03565979 378.09741211
168.03125000 183.18273926 431.73318481
61.55478668 189.43336487 432.91360474
68.82657623 154.90827942 409.49728394
117.83877563 122.93546295 377.52740479
126.77399445 227.62599182 471.29199219
105.97000122 287.85299683 502.09701538
158.44500732 289.57901001 488.67098999
123.24900055 290.78601074 500.11300659
114.09847260 255.66142273 375.46493530
66.09499359 178.19209290 547.33648682
206.87185669 202.79754639 411.26608276
54.88230896 181.70153809 507.08514404
123.74099731 288.92300415 457.65200806
75.25727844 183.08198547 391.35168457
146.17698669 259.93600464 483.48501587
166.21073914 158.96463013 427.30538940
153.45140076 133.51589966 377.11895752
141.62788391 162.65887451 458.15701294
210.76899719 260.72601318 411.00399780
172.63400269 297.74902344 493.47399902
177.61299133 208.65980530 379.96752930
243.76669312 230.19052124 424.15057373
143.82148743 161.79910278 362.36636353
90.39055634 256.74542236 432.45425415
71.59764862 213.04490662 406.87432861
158.30500793 225.59899902 462.33401489
52.54441071 194.66371155 529.45135498
99.80276489 210.38815308 363.67196655
87.03793335 206.29148865 535.65740967
172.83810425 145.14260864 389.51440430
56.71975708 194.72584534 513.01470947
129.22399902 251.00100708 486.37802124
105.72299957 273.89199829 444.15701294
75.09974670 142.44787598 406.92864990
173.01922607 156.90066528 412.18536377
57.12339401 160.84713745 446.85766602
183.92500305 304.87399292 465.63198853
87.95146179 156.90750122 510.50656128
217.48701477 259.40002441 447.89001465
77.51943970 220.54968262 396.41647339
84.81600189 257.55599976 524.20800781
231.19604492 238.92182922 433.65258789
159.94308472 217.68878174 433.93121338
167.11300659 285.78500366 423.57598877
78.54595947 220.57974243 539.03009033
110.10500336 291.46600342 493.29901123
148.25265503 194.34863281 463.87091064
157.57398987 186.58647156 364.62207031
70.02207947 234.29461670 467.38064575
175.21093750 193.81939697 404.75512695
69.16101074 155.39477539 527.35583496
112.02300262 255.09199524 492.67700195
226.26200867 288.31100464 444.88000488
87.55000305 259.60998535 480.58502197
180.94413757 193.76235962 432.42349243
187.58615112 178.59394836 400.60549927
197.40415955 235.97192383 458.56958008
145.09817505 139.85276794 428.58108521
75.88201141 241.02075195 442.74011230
83.33699799 261.18402100 499.19598389
67.17475128 220.89665222 509.24450684
94.88700104 249.22900391 516.62701416
83.71197510 127.28453064 401.14913940
105.49400330 273.75500488 432.81100464
170.45199585 233.72801208 470.34100342
251.89215088 258.22195435 425.44094849
199.77900696 286.80300903 428.46798706
172.50187683 190.04534912 421.23962402
170.08815002 153.33145142 383.43017578
62.33209229 201.39161682 428.04956055
185.33280945 203.53411865 402.81445312
118.47927094 102.87689972 398.48641968
74.73811340 244.04879761 494.76223755
135.36749268 202.43606567 460.55679321
238.75784302 252.50935364 431.56375122
56.22858810 192.80291748 467.95712280
166.29368591 179.87733459 442.61209106
84.19693756 255.00085449 449.25064087
184.09300232 292.66198730 434.31402588
156.27500916 267.42199707 407.51699829
135.77200317 294.48599243 457.23300171
180.10740662 211.64854431 458.28970337
141.01187134 125.52531433 417.61392212
234.92900085 268.36499023 435.61700439
248.29833984 257.72384644 415.69293213
111.92782593 184.36485291 354.94531250
167.02247620 216.95492554 437.38009644
194.20329285 196.59324646 412.65087891
55.50739288 177.20964050 490.35726929
114.54836273 163.91441345 359.68450928
126.51099396 280.16998291 497.52200317
225.92613220 247.21815491 439.43087769
205.59999084 266.43499756 411.02700806
158.79376221 256.99673462 450.67926025
87.64043427 261.51715088 465.54290771
165.62683105 129.70025635 387.21890259
115.63730621 213.49147034 499.56375122
256.25927734 244.05868530 419.45681763
93.35448456 258.38272095 402.01776123
175.55023193 191.19207764 437.51083374
156.79000854 283.31698608 420.08901978
127.66848755 264.41607666 382.64862061
112.47225189 143.46597290 458.51440430
69.00902557 236.78970337 530.04083252
188.00309753 247.73957825 400.37869263
180.69599915 301.67300415 485.66400146
184.17103577 235.01965332 390.99020386
123.74090576 210.35308838 354.23062134
240.21873474 261.69845581 431.67074585
139.27799988 281.61300659 425.94299316
128.73176575 183.93305969 355.35900879
186.51855469 194.82633972 456.03118896
163.61000061 245.15100098 476.38500977
185.18168640 226.38504028 460.79016113
147.70004272 150.82580566 435.93246460
65.95023346 196.81997681 415.46466064
117.06626892 271.13183594 395.76608276
90.37159729 235.90386963 385.90353394
162.64669800 144.48268127 417.49938965
134.89863586 186.16387939 455.35034180
112.13021088 163.34138489 490.60165405
81.90184021 123.87407684 415.37487793
109.55099487 287.33700562 480.11300659
203.06071472 186.03903198 419.15118408
66.20291138 137.69001770 429.52871704
206.00531006 236.72496033 403.99346924
63.92359924 135.24525452 453.73788452
56.73241806 188.31544495 450.03805542
133.50129700 142.70144653 439.73184204
107.37088013 270.64694214 414.73120117
67.47190094 229.38551331 481.57595825
165.52679443 239.07902527 435.83245850
253.34867859 232.24502563 411.41418457
97.54335785 136.46763611 461.20660400
79.11466217 114.87012482 435.90563965
158.16499329 260.96600342 401.58798218
97.41500092 272.88601685 471.35699463
238.36718750 211.25889587 412.84204102
77.18726349 156.45277405 522.13879395
220.46743774 215.48489380 424.44976807
123.27010345 244.16363525 362.79675293
159.44572449 253.24005127 440.54318237
97.97848511 104.09203339 417.96099854
112.63979340 237.08837891 362.64865112
154.11549377 193.26000977 451.01440430
132.75842285 109.66085815 387.42858887
245.41453552 246.58032227 426.98532104
153.25978088 177.25328064 363.66232300
82.54305267 198.62576294 539.20898438
58.62559891 145.37318420 461.78295898
59.43454742 147.24237061 499.13681030
231.61399841 272.81399536 417.95300293
184.26400757 287.20501709 427.81399536
140.11323547 201.14062500 444.26919556
165.25471497 180.40942383 455.07498169
75.89508820 129.99148560 415.50274658
178.94393921 185.54377747 393.47076416
103.52432251 222.27668762 507.82199097
138.26745605 193.57019043 457.18243408
251.97097778 249.62280273 423.22546387
129.58610535 203.53086853 441.78656006
96.88600159 279.04299927 495.29000854
167.10600281 278.39599609 478.85501099
144.55889893 114.43452454 383.86245728
100.21359253 253.93626404 383.31066895
125.22290802 120.91859436 424.86303711
101.06141663 117.07100677 439.40292358
236.69152832 254.84829712 413.25857544
55.60755157 168.86723328 452.75656128
66.42387390 162.33419800 416.01651001
134.59747314 214.25277710 352.78567505
56.58843994 208.74841309 553.06561279
189.91291809 190.11938477 441.12823486
199.09300232 264.32699585 459.39498901
79.43000031 256.18600464 504.54199219
194.32247925 185.73320007 421.37020874
120.77095795 220.22511292 356.05032349
66.13234711 149.40733337 423.78411865
140.63000488 223.53300476 467.82199097
235.27899170 281.43099976 436.47500610
67.07790375 227.41004944 523.59484863
58.40871429 201.72187805 479.49948120
122.02779388 210.01945496 494.39236450
106.41629791 132.52169800 374.67364502
175.70158386 149.92968750 397.34161377
132.85876465 215.01113892 464.94076538
162.96099854 303.46600342 481.22399902
150.90930176 131.86695862 414.55813599
145.77500916 272.06201172 405.49002075
99.59954834 164.79187012 364.00015259
229.92326355 214.57766724 410.77487183
50.51767731 184.83596802 539.17138672
85.73368835 245.14939880 401.77679443
180.80690002 168.32705688 390.64730835
69.54994202 148.33061218 514.32745361
172.55899048 248.11300659 473.18801880
148.12100220 296.93698120 446.82299805
171.58673096 148.80532837 405.17517090
60.29941559 144.16200256 444.64242554
112.61514282 220.47122192 360.24014282
81.88164520 208.22885132 378.53424072
76.42771149 213.58093262 540.77178955
134.87147522 129.22116089 373.22637939
113.57164001 243.79777527 364.81692505
136.81365967 229.51268005 357.57019043
78.71446991 237.74931335 416.44851685
173.37962341 195.43821716 460.51626587
153.37011719 143.68128967 424.03976440
80.18309784 235.45753479 408.72839355
83.96778870 220.62951660 382.94329834
168.94898987 275.13198853 412.37399292
139.92753601 107.67008209 394.72280884
207.00900269 252.37399292 455.70498657
142.52301025 265.08999634 391.39102173
177.38906860 199.68606567 389.92294312
182.84399414 259.87600708 468.96697998
62.72243881 212.62702942 551.78338623
182.91300964 303.33099365 478.09500122
120.46810150 169.90753174 489.86746216
140.18200684 273.47000122 488.20498657
80.08250427 120.78474426 427.51562500
197.10400391 298.51699829 447.69400024
75.36212158 192.91186523 392.04852295
80.03737640 152.42135620 511.72482300
167.06639099 172.60060120 429.73455811
123.62545013 118.06915283 379.84512329
87.92099762 267.87500000 499.37100220
115.95800018 295.40100098 494.79400635
81.01997375 148.81542969 502.97439575
169.64498901 269.57397461 407.35000610
66.69145203 183.90254211 413.64950562
92.06003571 261.61032104 446.80386353
145.31257629 156.10652161 443.15731812
111.38040161 153.59915161 473.61117554
147.32864380 236.47319031 362.47488403
158.69100952 304.59298706 474.69299316
185.93911743 240.48622131 465.53042603
199.65931702 216.03855896 448.80584717
212.71530151 242.73591614 407.07611084
86.02902985 252.79330444 437.14273071
118.04900360 246.78700256 479.32299805
164.99101257 237.36900330 473.81298828
112.24799347 171.86801147 501.56735229
95.65393829 175.73600769 522.94116211
103.91796112 171.25498962 509.73611450
68.37265778 132.60774231 440.49261475
125.95500183 281.14300537 421.42999268
172.78775024 169.95695496 422.90481567
151.41931152 258.59002686 384.08831787
115.90100098 268.00500488 503.89099121
136.50445557 206.40635681 454.81488037
88.34110260 169.72261047 371.42248535
140.85200500 239.01699829 481.08898926
151.37310791 147.76583862 370.33380127
90.11373901 108.20875549 433.18704224
149.94500732 294.19000244 440.27099609
169.51832581 197.37287903 373.81030273
88.46353912 161.32110596 517.45709229
147.65409851 209.58143616 453.67700195
151.89524841 252.67835999 375.86950684
55.12352753 167.34620667 501.14465332
69.91341400 228.40057373 509.39904785
94.49861145 262.29626465 426.43453979
57.94100189 197.17317200 454.20413208
70.96723938 218.30599976 413.86996460
149.22424316 191.37396240 359.23245239
122.28922272 156.43638611 466.26010132
126.40399933 296.49798584 484.84799194
182.29643250 182.32601929 387.68530273
119.77014160 265.22640991 386.15759277
217.77600098 272.97000122 415.95700073
189.61868286 181.28096008 435.10287476
101.86392975 231.68138123 368.99340820
173.74661255 174.27047729 379.51119995
177.48823547 161.93548584 409.64880371
150.71899414 123.50341034 380.09518433
231.24726868 224.72921753 429.86270142
94.73748016 136.40312195 378.64898682
86.04792023 174.10220337 529.12713623
71.27037811 174.57449341 403.00674438
82.35973358 156.64596558 383.07781982
171.00700378 304.78799438 468.54299927
97.41699982 269.67800903 457.86499023
241.06217957 216.74133301 419.96963501
59.11512375 144.75575256 477.52038574
142.76211548 116.78659058 406.82958984
73.82895660 206.32710266 544.94158936
78.06559753 215.94578552 390.99490356
52.73519516 178.64369202 548.12194824
65.26771545 171.24531555 544.34039307
73.56568909 128.26782227 428.93643188
107.82930756 194.16027832 356.26873779
69.44113159 132.62425232 478.90063477
106.25323486 114.07925415 391.89315796
220.16526794 251.52137756 444.79910278
84.80599976 266.57501221 512.43701172
65.05632019 222.87390137 478.98602295
134.67938232 188.68952942 354.46951294
127.65399933 286.22500610 444.42300415
160.34878540 200.16136169 363.32550049
83.07723999 246.71105957 422.67178345
146.92057800 140.56221008 370.80712891
194.00900269 261.18600464 463.02600098
167.03001404 241.98091125 383.48703003
121.86427307 130.57893372 436.41348267
157.25024414 181.56767273 468.58706665
129.63800049 283.67001343 434.83798218
81.78999329 167.35534668 529.33868408
81.02100372 255.21697998 492.44100952
201.27200317 295.84802246 442.73999023
55.05674362 179.16477966 462.26370239
173.52700806 279.86999512 476.01199341
126.98572540 109.19715881 410.56869507
99.20500183 266.68200684 433.01699829
231.29037476 241.56738281 409.63287354
91.06900024 237.47200012 525.88000488
109.58895874 222.19049072 491.25817871
94.51270294 220.99363708 372.25146484
124.21120453 163.29197693 475.57192993
251.63978577 216.16716003 415.02868652
73.86528778 207.45771790 397.27337646
200.31250000 228.99533081 398.69836426
205.10333252 193.82855225 409.52200317
213.93067932 222.14678955 442.13299561
182.89581299 177.34332275 412.78366089
132.66200256 297.43701172 470.75000000
162.19326782 256.54034424 397.78250122
81.82105255 250.95849609 444.17681885
53.48262787 188.37374878 522.15386963
144.35232544 183.15806580 358.30392456
92.16609955 127.54708862 389.73812866
131.94599915 279.38900757 410.88198853
170.89924622 182.13758850 416.68267822
159.79299927 300.34100342 448.48001099
105.73128510 122.03820801 440.04733276
223.68833923 223.42182922 434.35586548
186.59899902 288.63598633 468.19000244
198.35800171 278.21401978 418.49099731
198.95233154 182.66383362 412.94174194
162.78503418 157.79653931 374.93865967
88.48928070 196.38310242 367.75857544
92.93255615 207.09988403 366.37326050
105.10593414 180.30056763 515.93627930
159.77449036 125.69625854 398.00173950
120.13545990 159.31317139 360.92614746
158.75109863 172.23309326 452.03768921
57.67688370 157.63079834 530.64141846
241.29399109 281.98599243 425.44100952
234.50000000 265.12701416 414.92199707
125.38758087 191.19750977 496.36132812
109.37699890 276.41497803 427.33499146
156.45510864 163.25506592 439.20858765
121.10699463 292.36001587 472.31201172
81.42424774 113.11068726 444.89926147
136.98699951 292.58297729 444.92001343
143.86045837 145.38160706 434.04315186
114.92200470 280.10699463 429.85400391
157.63301086 255.19299316 478.68099976
55.02039719 163.05870056 486.16595459
84.09378052 137.35488892 390.79791260
136.70085144 135.20449829 430.40203857
148.87001038 228.92999268 472.43899536
95.80594635 263.57543945 417.18618774
147.24359131 179.90559387 476.55200195
149.37867737 172.46440125 464.93045044
69.69683075 236.71914673 537.49609375
145.39006042 261.59567261 382.35995483
58.60710144 203.57043457 470.54479980
115.57400513 281.13400269 446.34197998
170.92999268 265.24798584 476.25399780
216.08509827 213.08039856 410.41833496
246.01000977 268.12802124 417.93600464
98.48266602 147.69546509 370.46987915
228.90470886 229.52378845 408.73556519
63.50280380 141.07666016 493.56481934
106.83567047 102.34104919 408.87072754
103.88000488 280.39300537 513.76495361
69.83215332 161.55332947 407.34655762
166.39428711 136.81658936 400.89514160
233.35499573 274.97399902 437.15399170
182.71000671 267.79299927 411.05801392
222.60400391 262.05200195 413.67300415
194.75599670 299.84799194 472.18701172
68.46220398 160.26950073 534.12902832
145.75601196 300.53201294 458.58801270
137.17399597 285.05300903 485.70800781
189.08399963 278.04199219 418.97299194
68.67290497 206.88618469 414.74279785
59.13422775 152.37867737 438.56286621
175.44599915 255.64100647 399.77301025
90.08752441 177.87709045 368.36212158
196.12150574 196.77604675 450.81408691
80.07587433 175.36082458 381.10668945
107.80181122 105.87059021 421.21563721
182.28100586 297.86898804 441.90698242
96.40399933 237.56698608 507.54202271
70.75291443 124.25137329 447.22622681
92.43218231 148.31349182 487.73132324
263.01760864 226.96504211 407.68350220
190.16999817 275.42800903 465.09997559
214.85992432 226.39688110 405.73104858
66.10949707 130.11927795 457.38980103
127.98561096 199.44761658 352.97393799
79.26863861 121.95238495 457.74929810
157.63571167 162.98312378 369.80950928
176.28900146 191.45944214 444.69848633
103.54015350 156.97573853 489.33386230
115.13015747 136.21302795 447.62112427
216.60800171 277.12500000 449.01699829
80.16355896 188.42016602 378.85037231
143.37599182 302.48901367 471.10699463
73.11347961 225.87911987 414.47424316
173.97636414 238.28488159 439.04376221
121.04122925 213.34547424 486.85842896
57.62043762 164.60803223 540.31365967
179.28680420 243.14601135 394.23693848
76.01001740 198.55455017 387.73229980
204.11341858 197.59419250 440.49722290
104.48699951 256.98999023 506.68798828
66.08889771 217.84585571 433.54016113
127.50012970 180.91658020 491.29803467
100.63372803 165.86645508 507.54879761
222.68000793 274.91000366 445.57199097
65.79700470 217.74250793 500.89840698
116.72213745 111.67749786 388.13320923
74.43235016 141.56790161 494.19906616
114.64899445 286.32101440 507.78598022
128.59899902 293.91500854 490.67199707
103.14327240 134.12951660 454.39492798
193.74249268 216.92411804 452.66397095
151.45904541 231.00001526 362.39337158
138.37937927 174.09660339 359.34539795
71.60101318 236.76152039 474.04541016
170.85023499 227.91419983 380.13394165
60.60125732 208.52491760 453.49777222
234.51507568 246.57092285 412.86978149
65.46765900 143.85260010 427.12091064
120.34200287 277.70901489 417.41201782
212.79600525 271.51199341 450.93301392
191.62100220 249.81300354 464.43701172
254.03829956 260.54635620 418.68594360
55.24276733 185.96331787 553.95855713
203.34851074 214.85885620 427.46966553
73.29586029 169.83624268 397.86224365
227.86210632 253.76864624 438.61486816
141.39500427 289.46499634 436.86898804
135.26840210 165.63948059 468.68658447
180.66763306 160.73852539 399.97949219
87.88716125 229.65333557 385.87295532
89.67126465 262.83453369 455.30249023
99.44599915 252.34400940 504.26901245
98.25640106 256.73678589 389.07449341
154.04499817 298.02099609 496.77899170
68.90847015 127.63412476 467.70904541
51.28997040 200.57948303 540.63439941
93.01709747 157.49984741 504.32986450
212.96598816 290.61700439 436.23400879
102.09999847 277.41000366 472.19198608
165.90434265 202.71670532 369.51766968
65.90384674 219.31365967 515.02795410
175.34391785 192.70182800 393.60736084
191.12199402 294.07998657 436.23098755
78.92231750 132.75793457 405.23733521
102.82800293 284.74899292 506.93499756
118.45700073 227.40599060 479.94900513
152.27362061 201.75224304 358.84884644
79.91332245 133.75628662 474.87234497
88.92649078 136.05172729 386.18872070
207.13796997 203.23962402 417.86358643
166.67010498 185.44999695 466.63714600
54.57216263 210.13966370 534.48339844
176.55299377 235.53698730 468.70397949
138.77375793 143.98080444 366.75045776
170.51855469 184.13946533 374.42477417
152.41127014 241.62123108 368.41998291
221.35501099 290.63400269 448.49801636
118.66776276 160.84625244 477.61608887
165.57948303 202.18406677 452.12020874
184.11793518 200.14234924 408.08471680
89.30788422 255.52705383 411.95932007
70.26155090 184.58734131 401.56002808
185.55479431 171.75021362 395.44760132
157.42533875 120.76916504 383.55404663
116.24400330 283.88198853 458.90100098
150.10699463 278.60900879 417.56100464
241.27088928 234.46290588 411.12698364
252.75817871 225.69242859 417.23678589
155.50900269 291.37997437 430.19000244
77.17800140 252.67800903 517.77099609
137.58500671 295.23901367 482.10000610
221.58204651 250.96986389 410.55493164
233.19161987 218.09669495 423.93643188
249.91984558 270.65573120 426.16522217
250.46113586 251.67337036 415.39981079
104.11515045 153.51750183 480.89187622
246.28961182 215.42086792 407.55218506
155.03599548 279.47000122 483.90798950
189.04299927 303.91500854 459.44000244
154.99162292 219.94407654 446.46255493
147.36599731 302.01901245 486.50000000
93.12000275 243.45700073 518.92700195
140.30993652 257.98596191 375.63229370
101.75442505 181.53237915 359.08016968
105.93165588 126.62071228 444.71493530
195.48001099 288.73199463 462.82601929
137.84797668 124.18181610 376.27258301
182.05734253 206.23219299 385.13711548
108.38056946 225.79743958 362.83453369
75.14395142 241.92694092 471.50381470
81.80497742 233.14778137 400.11318970
156.07856750 207.22016907 441.06909180
187.03300476 280.62399292 467.22097778
168.45185852 147.10206604 383.48422241
100.96299744 228.46501160 506.53201294
54.91920471 158.79168701 461.19342041
179.49398804 291.05401611 477.29800415
75.99169922 157.89367676 393.56130981
171.30400085 260.65200806 401.74002075
207.77140808 230.12280273 450.16607666
144.80499268 284.09698486 483.27499390
187.24993896 210.78869629 389.83395386
132.77758789 252.15277100 369.24859619
78.25687408 165.40626526 386.85858154
130.21516418 208.15057373 477.37417603
222.75898743 284.96499634 427.36599731
164.86795044 229.87664795 433.92761230
138.81550598 199.65493774 470.19570923
161.92715454 217.22932434 366.65798950
189.82156372 235.11177063 462.63314819
71.34640503 234.22575378 518.26458740
61.08823776 175.26034546 424.66839600
124.53140259 225.22184753 356.30334473
227.38456726 213.92895508 421.22155762
90.42599487 273.77798462 507.30700684
126.58199310 242.44500732 475.32400513
81.94683838 143.60415649 491.28048706
109.32099915 272.67300415 509.71798706
170.44999695 282.02700806 419.14199829
171.21307373 231.81019592 440.76495361
195.32519531 217.03356934 393.97808838
90.48381042 248.97654724 391.83496094
228.40100098 260.66101074 439.24398804
77.92397308 247.64045715 481.18716431
134.06860352 118.49755096 416.21673584
211.00300598 274.70898438 415.72799683
80.55099487 259.89099121 512.93200684
145.74166870 204.34043884 354.79028320
204.37452698 214.69265747 443.18606567
153.87428284 191.59718323 464.72824097
67.33478546 222.70445251 497.54870605
253.43545532 237.29101562 420.97790527
110.90653229 214.29200745 511.27450562
60.04420853 199.81948853 491.13137817
84.21813202 127.98451233 462.83410645
134.91799927 247.86500549 485.61599731
98.24100494 268.37399292 517.98498535
175.96299744 298.20901489 442.91299438
169.36367798 248.98139954 392.18969727
187.49295044 197.29760742 416.62557983
95.15584564 118.98236084 396.97537231
65.19609833 189.23634338 416.85409546
85.60073853 123.43366241 405.70989990
126.78063202 196.74665833 494.18917847
167.25187683 173.50033569 443.01724243
100.03105927 132.40547180 378.82028198
177.08100891 274.89999390 473.42800903
115.84557343 217.51403809 487.02481079
63.60190201 196.94340515 552.90887451
61.01808929 212.89352417 521.53881836
91.53630066 227.15403748 529.21899414
123.92099762 254.11700439 488.12100220
156.76249695 228.24263000 364.68566895
146.99316406 191.51689148 476.00192261
186.13600159 247.22399902 466.34899902
71.89889526 140.65202332 414.61538696
166.67799377 298.59500122 495.40499878
163.66200256 298.32199097 442.27600098
166.61221313 218.43354797 444.84292603
126.56973267 104.01015472 398.09020996
134.20359802 173.89282227 482.95303345
184.17204285 220.08857727 386.05523682
104.20921326 112.00829315 432.11550903
171.87222290 162.64236450 421.65353394
160.33383179 134.27655029 380.50848389
249.41104126 237.05551147 411.82345581
135.10646057 208.84092712 462.41207886
150.77499390 286.75500488 427.18099976
114.00836945 178.48760986 505.96255493
132.33250427 105.90625763 392.71694946
242.51010132 225.49729919 408.72653198
177.94882202 155.81417847 397.16403198
165.59300232 259.29901123 476.78698730
168.65869141 185.84594727 456.29635620
137.71319580 109.74697876 403.23345947
174.62515259 184.13781738 407.47659302
219.72399902 294.51501465 440.59301758
63.95998001 160.19613647 422.38815308
115.94689941 203.63258362 508.18246460
134.28625488 199.25498962 455.18002319
155.62100220 227.20498657 467.72097778
53.61364365 210.61996460 545.37823486
60.42040253 146.29847717 438.73437500
147.93199158 265.79699707 394.79299927
157.39099121 274.76000977 412.25497437
176.36399841 282.70999146 420.90600586
68.68015289 145.61824036 507.83575439
65.28490448 131.91877747 465.14007568
69.47283173 124.70928192 455.20217896
94.30619812 226.30570984 375.44491577
212.42347717 215.70198059 434.87493896
210.70500183 258.26998901 452.54598999
55.61561584 184.45832825 455.23193359
111.10977936 182.71008301 511.00479126
111.63005066 104.67830658 399.98916626
54.30421829 167.72213745 471.69525146
193.10403442 223.55796814 455.96438599
58.59096146 220.80709839 542.23339844
200.63250732 254.28965759 408.15530396
74.33267212 172.83015442 392.57147217
78.89779663 142.89144897 394.38467407
98.71717834 263.51840210 405.07608032
174.53086853 197.33711243 378.52490234
68.65740967 197.57713318 408.31869507
59.63872528 143.20973206 484.17526245
135.64131165 199.18879700 483.25616455
93.70198822 112.36024475 412.31542969
86.41113281 155.85929871 378.38204956
58.70721817 164.51579285 441.10537720
97.48974609 189.18704224 360.85266113
101.97799683 270.05300903 447.19100952
83.76727295 253.03390503 474.73037720
89.15401459 115.80928040 415.93963623
82.49399567 245.37500000 525.72698975
55.62306976 156.82588196 483.18750000
84.88568115 233.84732056 532.89746094
51.65228271 178.95356750 532.43316650
107.43235779 151.53047180 365.11557007
155.76741028 140.40579224 418.97113037
161.67127991 226.19554138 437.72436523
139.39801025 153.06172180 445.69931030
82.67396545 229.59178162 393.27862549
126.32617188 209.42910767 486.68484497
200.31843567 185.62097168 438.98501587
211.40835571 212.32650757 419.88299561
186.40443420 173.05969238 406.27801514
259.66125488 215.78652954 408.45849609
172.55809021 159.57711792 384.26339722
99.39800262 282.85598755 499.36599731
170.50987244 237.08081055 383.57821655
70.53377533 181.94869995 545.46118164
83.61037445 242.55018616 408.77990723
123.03768921 256.12319946 373.12731934
156.03421021 253.59672546 446.00942993
226.91600037 292.23901367 435.93499756
185.91087341 195.29444885 424.83505249
99.50733185 169.61570740 513.46435547
96.86000061 276.46099854 487.59698486
184.66473389 194.03634644 448.11016846
123.47699738 291.05200195 465.52099609
117.54379272 138.13558960 368.44384766
197.81700134 249.08200073 461.57501221
138.65127563 184.19309998 484.50598145
100.03520966 147.26301575 474.75964355
204.59700012 297.99398804 462.01199341
195.92239380 188.04081726 446.66168213
164.77647400 192.29879761 457.43414307
71.54324341 136.47113037 485.44857788
198.51271057 242.80990601 402.40646362
190.92910767 179.14811707 420.57937622
183.81362915 219.70045471 456.66131592
102.26784515 141.59065247 371.13128662
87.49400330 268.34600830 519.14099121
120.16920471 195.20062256 354.30496216
169.34295654 241.15351868 442.95193481
176.38619995 193.22076416 382.39312744
123.48406982 123.85755920 375.44580078
163.73611450 255.95095825 444.33068848
87.72601318 253.29193115 421.64382935
161.99398804 304.87100220 466.65002441
166.34799194 287.70300293 483.46701050
88.15984344 225.26878357 381.73300171
120.57565308 137.70426941 445.66067505
75.70157623 246.02975464 523.54290771
137.01440430 127.34992981 422.32452393
151.82221985 259.77212524 446.86526489
191.77474976 186.69847107 429.32192993
71.15841675 194.24688721 401.86801147
126.16023254 259.99822998 377.14608765
100.48389435 111.91996002 399.93484497
68.46920776 194.11900330 549.69885254
166.38499451 270.69299316 478.80499268
62.44129562 193.65615845 429.17562866
72.68730164 242.36241150 530.18878174
146.88887024 243.23692322 366.27587891
119.00023651 198.45811462 504.89193726
128.87562561 211.99285889 443.06723022
60.33501434 199.92088318 442.77493286
113.46891022 207.53269958 356.72460938
88.82512665 249.37481689 398.48266602
229.80786133 254.21595764 413.32562256
130.52900696 296.17300415 479.19900513
242.94100952 277.93698120 430.18698120
136.44213867 160.88388062 361.91171265
137.03852844 265.56347656 385.50045776
76.73586273 175.66935730 537.96502686
220.06890869 218.33863831 431.56918335
166.44544983 216.07955933 371.12899780
122.02181244 112.96036530 384.89071655
169.76919556 185.91711426 426.01968384
94.08900452 277.33200073 511.46398926
87.14693451 189.79640198 369.12042236
188.68400574 297.18200684 476.25000000
58.13440323 148.88038635 449.91610718
154.59600830 266.54602051 481.78799438
159.21899414 301.21401978 492.51300049
174.78504944 176.63520813 418.89208984
75.15995789 145.62733459 502.51931763
119.29814148 104.63578796 407.72821045
56.85301971 148.56018066 473.59472656
125.33200073 271.83898926 398.60900879
66.19677734 208.66041565 422.78683472
102.54976654 251.34542847 377.95449829
124.44757843 175.49679565 356.31072998
191.03259277 209.87886047 457.27050781
51.84536362 172.95368958 535.15637207
114.99108124 179.25648499 355.97058105
56.52000809 189.64671326 506.44622803
194.36399841 259.76602173 408.33700562
173.20372009 190.45378113 454.16802979
64.98251343 218.62344360 486.66122437
197.47320557 228.59780884 456.28042603
121.55999756 276.91000366 501.11801147
120.77199554 274.84899902 407.91601562
156.71815491 117.77352905 389.24655151
142.65481567 218.24508667 354.05041504
94.22510529 261.16680908 441.25051880
99.77210999 193.44316101 525.76678467
148.60972595 113.65091705 396.03921509
165.11579895 168.66769409 435.05764771
111.13214111 217.17153931 497.10198975
176.40826416 214.25157166 379.65890503
132.58380127 155.02340698 454.59765625
151.74501038 223.57699585 461.91702271
138.42175293 194.76382446 447.21633911
161.63188171 134.76487732 405.84246826
206.91200256 265.69302368 454.34600830
146.11401367 296.21499634 494.34997559
235.58998108 235.33891296 430.91754150
155.11830139 149.51394653 427.78466797
90.03227234 119.35478210 448.49597168
84.26307678 148.25466919 497.28924561
73.06427765 229.49247742 420.88854980
103.43154144 105.52202606 404.83248901
112.64911652 202.19337463 512.71533203
188.70399475 269.10299683 412.40200806
88.30899811 262.77700806 485.45599365
86.99836731 134.19567871 468.44897461
60.03989410 193.58291626 439.76022339
222.67399597 268.23498535 444.05801392
150.67599487 268.87301636 405.81597900
191.12089539 186.89154053 436.46414185
81.95375061 133.66717529 398.18139648
77.61848450 192.58531189 541.62286377
112.24108124 109.57870483 422.99072266
65.94200897 216.61528015 549.12286377
130.70500183 276.77200317 493.44097900
198.72091675 204.36521912 405.27407837
114.08213806 212.32978821 506.34628296
113.29332733 146.48681641 365.36206055
98.73873138 110.81681824 405.43859863
74.56758881 218.71163940 403.39904785
176.69964600 226.81150818 463.32150269
211.20301819 255.26771545 410.81802368
162.24549866 155.60430908 429.84301758
117.98911285 106.92261505 392.62118530
148.22599792 254.54199219 482.61700439
53.77751541 200.22091675 527.95483398
88.00892639 113.55482483 443.45751953
153.21400452 183.01118469 472.50119019
180.25761414 201.01492310 458.13391113
205.46199036 299.45098877 455.29498291
102.35500336 270.15701294 429.46899414
98.58699799 232.75199890 522.22802734
128.00138855 158.78274536 465.25357056
144.53890991 193.01571655 448.69442749
55.92058182 179.96755981 485.47668457
96.86917114 241.00941467 376.76043701
166.93815613 214.45445251 448.35433960
203.45986938 225.33560181 451.06069946
167.47898865 303.96301270 455.51602173
95.73616028 246.76248169 381.37631226
92.30088043 154.50651550 499.30276489
61.09788132 218.64007568 527.48291016
59.91378403 173.55175781 547.46643066
145.35610962 133.60960388 422.60617065
172.49108887 229.34178162 432.96295166
60.59528732 201.72901917 504.67758179
223.30351257 212.19636536 415.91012573
54.77465057 173.54956055 502.43783569
165.29951477 163.53514099 431.06518555
133.49501038 285.50900269 490.15899658
64.90956879 223.33882141 454.56961060
135.39057922 196.73204041 355.19976807
63.73344421 137.88682556 448.15756226
114.34095764 259.66613770 380.40341187
101.82300568 250.83601379 498.71701050
54.95312119 170.59487915 483.74902344
129.50946045 169.25077820 357.82662964
95.47869110 232.25959778 376.96368408
70.32192230 233.67245483 488.31164551
65.68720245 232.60272217 535.71575928
125.74688721 145.77223206 364.13674927
91.79212189 127.36727142 456.14880371
207.12199402 278.10000610 418.31500244
138.50314331 248.46617126 366.98468018
131.96044922 205.72927856 451.16204834
53.33786392 169.04217529 540.25939941
160.32528687 209.64678955 445.84515381
173.69699097 300.61001587 447.79000854
123.80523682 216.98175049 476.91183472
157.34785461 242.54946899 372.39038086
115.63123322 198.72117615 354.84982300
223.53157043 219.67916870 407.91122437
226.93074036 237.09408569 437.17156982
131.57888794 151.14445496 362.68725586
112.31246948 231.86022949 360.62020874
244.97036743 235.80760193 424.56005859
202.99098206 238.29421997 455.93435669
161.38043213 172.61093140 370.09570312
168.58114624 247.45744324 442.22650146
162.78230286 191.16044617 366.90332031
94.86031342 183.09948730 526.93353271
165.26618958 151.19166565 420.31146240
117.42517090 267.91461182 390.62588501
116.50916290 173.61254883 498.31726074
161.93200684 278.77200317 481.26699829
208.18608093 204.90756226 433.32138062
144.89749146 204.32907104 445.22637939
254.37551880 222.44680786 408.18502808
163.36412048 144.65853882 379.14993286
59.53553009 197.35772705 499.69982910
217.27400208 297.21600342 446.46600342
135.06526184 239.26130676 361.69241333
61.33729172 202.35833740 433.73260498
101.10938263 119.47572327 390.67910767
120.38400269 260.35601807 497.72598267
71.68849945 234.52899170 452.14300537
132.60409546 224.25097656 354.63009644
151.27000427 303.86901855 481.24700928
54.79507828 185.84521484 463.22503662
89.11431122 147.09249878 377.95312500
185.37800598 258.03802490 406.57998657
111.65100098 285.34899902 471.76400757
165.10609436 238.98048401 378.37045288
131.91894531 140.56298828 366.66360474
242.19744873 211.62194824 408.62890625
192.57260132 179.67214966 415.15560913
175.54299927 291.13800049 481.39398193
159.22500610 247.86700439 478.78900146
212.22999573 298.07800293 449.53201294
146.10733032 253.60638428 373.19284058
143.08790588 198.99897766 458.23715210
101.82280731 268.54281616 417.21228027
198.17362976 192.00120544 410.13327026
113.74409485 106.67567444 417.76089478
80.52262878 167.50973511 381.99874878
136.71598816 269.75698853 395.09399414
97.15969086 152.92274475 488.99411011
180.64172363 229.94889832 386.91781616
77.28149414 241.60253906 432.01678467
206.20846558 195.90431213 422.01538086
61.31846619 139.78797913 458.19680786
55.23625183 178.95498657 474.41671753
202.74137878 248.82489014 406.32916260
143.00100708 279.75601196 422.10598755
187.26699829 301.79000854 481.36199951
53.75063705 166.13417053 460.12509155
121.90685272 205.60102844 498.73529053
108.63600159 277.49197388 454.58297729
165.17173767 253.00057983 394.68759155
140.55299377 298.50302124 461.53500366
71.32391357 231.58160400 499.66641235
157.24299622 293.26400757 494.27999878
87.45200348 252.65699768 523.23699951
75.57892609 246.68873596 501.42187500
83.32760620 213.50003052 378.48782349
67.03308868 230.05244446 468.46270752
58.34200287 200.25219727 513.00903320
123.89953613 160.12998962 470.37445068
124.28299713 233.45899963 473.91302490
72.26805115 134.39654541 416.17019653
185.13143921 206.39817810 396.65045166
216.63784790 237.52699280 444.75308228
76.55268860 229.29159546 408.17459106
206.30041504 211.54412842 399.10931396
136.64799500 237.72900391 477.58200073
55.71780396 176.61642456 457.15457153
55.65942764 181.47126770 501.49655151
87.24506378 112.79135132 423.21270752
63.78079987 222.76284790 460.53909302
53.23312759 168.84176636 522.71337891
145.58702087 171.94062805 469.05413818
111.67871857 192.36283875 514.07409668
133.93899536 270.77200317 490.97100830
85.79416656 247.28535461 407.13867188
225.18600464 281.95001221 444.86199951
112.48366547 158.59454346 481.14306641
179.06199646 291.39599609 432.18499756
121.29227448 229.67700195 357.27209473
166.69242859 180.41795349 372.49594116
130.88600159 281.00100708 416.83599854
92.40597534 112.04956055 439.40005493
197.39300537 275.21099854 459.77499390
210.60333252 247.43632507 452.82272339
75.08280182 177.91099548 389.39743042
142.33526611 153.69395447 365.29031372
137.16804504 113.31542969 383.90768433
118.02072144 153.00582886 465.60952759
116.61999512 237.61099243 476.31900024
165.66886902 134.59423828 384.55334473
60.79183960 162.75361633 432.26846313
107.43223572 164.45741272 498.51892090
82.80670929 183.29689026 536.03759766
144.17738342 248.90202332 369.21353149
62.72780991 151.13113403 521.85168457
62.28872299 228.12406921 535.27416992
54.75284195 171.27345276 497.20117188
58.83821869 202.70497131 456.07891846
162.16400146 266.86700439 405.89498901
108.29827118 172.96960449 506.87963867
68.13285828 207.67816162 549.20562744
212.57440186 215.86256409 407.07043457
194.65299988 303.23498535 460.62500000
126.03999329 294.41198730 470.75097656
149.41307068 185.60763550 476.49731445
180.76290894 202.36744690 397.37332153
87.16587067 193.46131897 534.93182373
178.35647583 206.04159546 459.48004150
105.24935913 264.86489868 394.64724731
111.91101074 121.98394775 380.04931641
74.15667725 242.33012390 488.99981689
103.57968140 227.20712280 498.59020996
188.99670410 207.80686951 401.02627563
201.71398926 290.44601440 433.79101562
99.36210632 215.68850708 365.87921143
105.15871429 143.49310303 464.02951050
163.59492493 127.16218567 391.70599365
124.54994965 144.43455505 448.98336792
118.13700104 281.89797974 434.00799561
130.46557617 268.61190796 390.67501831
158.83387756 236.40159607 369.60168457
133.07472229 184.60314941 487.88336182
131.22058105 233.84219360 358.79702759
110.79000092 256.98300171 497.73898315
91.61399841 271.27700806 495.06100464
92.27944946 258.68453979 408.40298462
103.53878784 103.15612793 418.99127197
81.16327667 249.38105774 458.47616577
93.36800385 268.33700562 475.18499756
54.50647736 162.13894653 531.23291016
74.37614441 235.94705200 428.54690552
117.04399872 279.71701050 504.98098755
124.98522186 108.91496277 387.86077881
87.63000488 261.64199829 521.76898193
56.42220306 198.66127014 517.85571289
233.77244568 236.71739197 410.14114380
151.11135864 214.49801636 450.23065186
198.82200623 271.60800171 413.84698486
62.62770462 207.54650879 502.82281494
152.69293213 128.54289246 410.24136353
136.36900330 273.72698975 400.29699707
89.68237305 124.77061462 394.57781982
105.61000061 287.16598511 490.60101318
178.42599487 304.63000488 460.59600830
251.46925354 227.07460022 411.09780884
73.10063171 217.14814758 543.38006592
248.08799744 272.75601196 421.44500732
62.52438736 136.76123047 470.26455688
75.86122131 145.67388916 399.86398315
198.78207397 223.36180115 396.96224976
93.78099823 272.89102173 519.28802490
170.25830078 224.76750183 458.93646240
174.78996277 218.84355164 448.56655884
204.75381470 208.16874695 410.79263306
163.48800659 291.48199463 430.18099976
153.97914124 189.71078491 361.99517822
77.03546143 243.23100281 453.29031372
216.90100098 290.97100830 451.69400024
195.95907593 181.74919128 438.98205566
241.96000671 277.91198730 421.82400513
56.58972168 188.37257385 475.19479370
96.14199829 254.48001099 515.64904785
166.31700134 227.92799377 462.92999268
68.13890076 201.55964661 412.24414062
118.86884308 184.84403992 503.31658936
108.85799408 238.08898926 483.56399536
82.12412262 196.31796265 375.95172119
217.31300354 263.48199463 413.83697510
80.95342255 234.87771606 535.23107910
90.69470978 257.61816406 438.10134888
177.04400635 241.15901184 470.58599854
106.54145050 208.14834595 519.80029297
127.24427795 220.15122986 470.91323853
119.40364075 247.64013672 366.15521240
119.85699463 293.97799683 477.38702393
72.24751282 232.85800171 433.43737793
62.98229980 139.51763916 488.31396484
124.45166779 234.28323364 358.50335693
114.48975372 113.82512665 426.11560059
81.06749725 181.54405212 378.25482178
125.19921112 207.51361084 443.74246216
155.56495667 262.51266479 449.96566772
207.45776367 210.64881897 405.22357178
62.02327728 137.92486572 476.41577148
125.67815399 247.84939575 365.71444702
62.26353073 209.71887207 490.12289429
94.99919128 174.14172363 364.83282471
140.09300232 164.95057678 463.16690063
52.27755356 205.91812134 550.93670654
256.06842041 232.73880005 416.12902832
57.86387634 174.59339905 436.30731201
130.52700806 244.27000427 478.62500000
70.54251862 168.90798950 406.35549927
131.26086426 134.27969360 370.01339722
93.98799896 277.76901245 504.35299683
205.56320190 208.20213318 416.60415649
71.29875946 169.83760071 539.78826904
185.88099670 272.90600586 467.29299927
152.05949402 198.19729614 446.32653809
112.52552795 270.61355591 398.60299683
52.59521103 169.54841614 528.34576416
110.36051178 121.08840179 435.58685303
156.02700806 295.06201172 439.41598511
114.51252747 126.82627106 375.87817383
208.17460632 213.78060913 423.95346069
228.81098938 293.40802002 441.49099731
131.17434692 203.24981689 488.09265137
108.56600189 229.82899475 489.85101318
198.77799988 286.11801147 459.43899536
245.88934326 260.60202026 428.29153442
107.16635132 218.82928467 513.76165771
233.61708069 251.98748779 434.27005005
80.39299774 258.35601807 519.29498291
134.45605469 158.72233582 458.17642212
140.27301025 232.17800903 475.52099609
198.00831604 179.21270752 428.22409058
189.21800232 299.61300659 447.79800415
160.40882874 171.40339661 446.95797729
183.89900208 291.68499756 472.34402466
71.50998688 232.47703552 506.11782837
117.78640747 233.33668518 359.88821411
163.21109009 251.93244934 387.77343750
82.69924164 249.16131592 436.26254272
150.20956421 170.52020264 363.32818604
124.31999969 283.14797974 434.30599976
100.20964050 107.24742889 429.39492798
60.72932816 169.17274475 427.36590576
101.87941742 223.08644104 367.51379395
80.83812714 137.24879456 479.31884766
169.70199585 253.62699890 474.34399414
62.00645065 166.38642883 542.82916260
160.30599976 234.78199768 474.13400269
82.68550110 223.25215149 536.98229980
135.68980408 115.34780121 411.55892944
133.04225159 118.47032928 379.34759521
79.81420135 246.95883179 463.65576172
62.83492661 214.97512817 444.12622070
178.62799072 282.35000610 472.39801025
180.44400024 269.24301147 470.96697998
83.44792938 111.23311615 434.00424194
54.79114532 157.91711426 466.76141357
149.69772339 135.78126526 374.11215210
159.18199158 304.27798462 458.96200562
77.10795593 244.01509094 447.16088867
75.03415680 120.08818817 439.45742798
61.27403641 212.93141174 469.34671021
112.98495483 151.47222900 468.12289429
82.43164062 250.66488647 469.57559204
129.19799805 145.63618469 445.94763184
50.89639664 191.41305542 550.69525146
110.15548706 270.82540894 409.70452881
54.35239029 177.64483643 512.11425781
118.93338013 252.87399292 371.17288208
220.48831177 236.67967224 406.65267944
139.35066223 144.92666626 437.18783569
73.99403381 158.57014465 527.69415283
140.51522827 209.82225037 456.93832397
141.28131104 139.91001892 368.95639038
62.05153656 214.08207703 475.47778320
105.78649902 246.47845459 371.01605225
141.55101013 286.10900879 429.79898071
57.21045303 150.02609253 483.98233032
181.02560425 163.91464233 406.27578735
106.53371429 267.92761230 406.48019409
176.14598083 170.32643127 383.87713623
213.82998657 283.98199463 451.40902710
154.13337708 248.25636292 374.52267456
74.01696777 193.81092834 545.29986572
218.09100342 281.54299927 422.67599487
143.32411194 195.10580444 355.09887695
104.13902283 185.48297119 519.63879395
184.95814514 177.00604248 390.40795898
162.64500427 283.06698608 419.74600220
88.11460876 145.61134338 488.83792114
93.15718079 162.29386902 368.39675903
