ply
format ascii 1.0
element vertex 2048
property float x
property float y
property float z
end_header
132.97200012 168.90199280 623.84100342
271.32400513 227.72599792 476.22900391
127.49299622 131.06599426 453.59997559
137.46400452 261.19198608 514.12500000
172.91600037 172.00500488 531.33398438
182.82099915 209.41000366 443.45300293
222.13500977 262.93499756 541.66198730
96.95800018 189.33999634 504.50701904
201.55300903 139.99800110 467.77999878
117.42299652 217.81599426 571.90301514
113.48600006 142.35099792 558.95300293
150.60700989 112.01300049 512.17297363
194.90400696 260.69702148 481.66998291
118.15799713 194.96099854 444.23999023
224.79100037 191.81199646 499.81799316
168.05499268 253.43701172 567.79101562
140.99499512 245.80200195 458.66299438
175.29598999 214.62300110 500.04501343
245.36700439 268.74899292 496.05398560
107.18599701 139.87699890 507.75598145
150.63099670 178.46398926 576.24694824
165.21400452 159.76699829 438.76300049
153.66500854 215.68901062 542.49603271
223.73899841 226.99398804 468.48300171
110.21699524 232.28298950 490.23800659
164.50799561 107.85699463 467.77099609
181.51600647 266.56201172 524.87396240
100.30999756 183.46199036 550.23303223
103.32400513 163.41699219 469.55401611
210.68099976 225.73300171 523.68298340
110.10300446 227.10299683 531.91503906
171.98899841 144.49499512 498.44699097
192.40400696 182.56799316 472.98101807
112.97000122 171.51899719 586.67498779
145.49400330 144.62500000 532.57299805
131.48899841 249.22900391 555.04498291
139.85299683 143.59800720 587.27197266
242.28399658 231.65400696 501.91802979
158.89898682 266.43197632 483.25601196
153.66799927 186.63800049 505.11199951
124.91499329 116.94099426 487.47598267
177.26499939 241.60099792 458.23199463
125.21199799 201.10099792 601.49700928
99.87400055 204.06599426 472.64901733
152.19099426 192.52999878 440.46099854
195.26899719 243.41101074 548.92199707
130.23699951 163.86100769 440.85800171
211.70100403 268.26797485 508.91400146
177.28900146 129.96600342 447.66400146
190.32800293 179.82398987 505.51098633
100.91000366 156.65798950 534.50396729
185.99299622 120.97500610 485.31100464
124.49099731 122.82700348 525.67401123
155.57899475 222.33299255 444.20401001
220.40499878 197.19999695 470.68899536
119.96400452 223.24900818 461.58901978
181.09799194 215.71501160 530.66497803
154.93800354 259.86999512 540.21398926
128.46400452 255.09599304 484.86599731
224.50000000 259.19500732 477.25900269
269.73098755 250.34001160 495.05401611
247.29100037 211.86099243 476.01602173
144.82099915 153.04798889 560.63299561
191.94599915 162.89498901 452.55999756
158.94400024 189.56199646 550.50000000
142.04800415 203.36199951 567.66998291
248.63900757 243.56700134 476.79202271
148.17300415 165.96299744 600.90100098
235.40400696 253.66699219 516.76300049
195.57901001 158.79798889 489.03900146
99.79100037 201.96199036 528.41503906
134.69499207 127.85700226 550.77600098
198.89900208 225.08599854 458.28802490
204.01899719 201.16700745 514.37701416
110.59999847 137.16400146 473.30599976
151.65600586 135.59899902 443.66601562
176.14900208 183.23999023 443.85702515
170.22399902 234.24600220 550.55200195
99.60500336 162.91999817 499.08502197
129.88600159 222.75700378 549.92401123
117.66999817 242.53199768 512.85302734
101.01399994 214.71899414 506.38699341
139.78298950 112.27700043 466.66400146
106.14099884 208.24499512 551.58398438
165.50700378 108.14099884 492.42202759
163.14199829 264.00100708 508.70901489
109.25000000 192.00601196 573.62200928
173.74700928 195.18699646 519.39794922
223.75500488 216.48300171 504.76998901
159.67300415 154.73200989 516.55102539
180.92199707 262.07199097 549.05895996
124.53400421 158.90798950 602.80200195
135.14801025 211.07099915 446.77297974
106.32699585 163.28999329 565.88604736
202.55799866 194.18699646 489.98999023
96.78400421 179.37199402 526.01599121
119.59899902 180.24800110 609.65197754
198.34199524 202.61099243 459.27798462
103.74200439 186.47999573 459.19299316
188.72399902 265.52001953 502.66098022
206.55599976 243.39100647 468.56298828
180.63899231 235.68099976 505.25701904
155.81700134 164.98799133 543.54602051
127.26000214 246.17799377 533.59698486
199.67800903 264.26397705 537.08599854
116.86699677 151.78999329 453.48599243
118.76799774 151.43299866 579.53295898
148.91600037 232.61900330 555.55096436
219.00900269 245.13999939 529.37103271
98.45300293 180.82398987 484.46499634
110.40299988 137.30099487 537.90100098
204.95700073 161.41200256 469.76300049
151.72100830 135.01499939 514.41900635
139.53700256 185.55799866 599.70404053
160.14599609 254.28700256 461.74200439
143.83499146 107.73600006 487.04000854
173.42599487 192.46099854 498.56900024
184.00799561 117.33100128 464.85800171
132.56600952 212.20498657 584.98504639
218.01699829 180.79200745 482.88000488
176.52000427 164.84199524 510.81799316
176.70599365 256.02902222 473.59799194
130.60099792 137.26200867 570.26501465
122.64599609 241.22099304 470.27502441
143.92199707 123.94499969 530.50701904
229.04100037 206.61999512 486.98898315
249.93499756 268.94500732 515.55297852
113.19599915 172.62199402 448.32299805
155.86500549 117.49199677 452.83801270
259.08599854 232.18899536 491.01800537
127.83799744 116.45700073 507.33398438
188.07600403 140.25500488 487.93899536
150.50601196 173.61601257 435.85501099
158.37800598 204.26000977 527.24304199
227.73300171 235.11500549 514.38702393
225.52200317 268.40399170 495.36801147
166.86500549 125.40200043 500.97399902
194.63999939 228.80000305 536.41198730
191.76300049 143.75199890 450.91302490
205.82899475 258.14898682 555.18402100
249.10198975 249.56401062 501.56402588
143.12300110 264.65798950 493.85101318
150.64999390 253.98001099 560.03100586
125.73300171 234.49699402 565.60198975
149.29998779 158.39399719 580.02801514
103.99199677 145.04400635 489.93600464
173.63500977 225.44999695 448.50000000
134.12399292 145.52499390 443.78799438
131.89401245 183.64498901 438.58901978
226.66600037 268.24700928 524.40502930
123.67600250 121.11599731 469.18698120
143.98199463 260.11801147 474.22900391
193.96301270 183.76899719 454.59802246
98.78399658 204.07899475 491.50198364
156.41200256 240.17498779 450.92898560
186.65600586 205.92300415 512.58203125
115.86599731 189.77400208 591.13500977
104.30799866 220.66000366 477.75900269
136.13299561 229.51600647 453.03100586
154.96699524 167.70799255 561.95495605
139.49200439 156.00999451 613.41400146
108.54299927 207.49800110 457.51501465
261.91900635 264.53799438 503.27099609
212.22099304 213.34899902 461.66900635
140.90399170 194.45799255 582.91796875
175.44000244 260.15600586 490.73400879
188.07099915 256.15298462 563.96398926
113.09199524 130.33799744 492.82199097
98.94999695 160.40100098 516.41204834
126.74500275 253.59100342 502.56698608
167.78900146 200.66400146 443.72399902
138.87399292 259.56799316 533.86499023
184.98100281 182.36300659 522.13696289
255.66300964 256.74700928 487.36300659
140.64698792 207.29798889 549.88098145
112.80299377 223.91099548 548.83300781
149.96899414 151.82800293 438.44799805
209.33799744 266.16601562 490.25100708
152.91999817 264.89099121 524.01397705
169.66099548 188.08799744 535.99499512
195.75999451 217.15800476 522.27404785
230.02600098 241.77600098 473.83001709
241.92300415 227.65100098 473.36199951
242.23800659 218.78599548 490.46099854
100.19400024 166.75299072 547.86700439
194.13598633 178.10900879 489.32800293
116.92199707 206.50199890 585.40600586
168.42300415 143.63400269 440.91000366
231.03399658 209.80299377 469.01199341
239.82800293 261.13900757 482.37698364
189.58300781 244.85499573 468.30200195
107.54399872 227.36500549 513.82397461
103.83499908 145.48599243 523.37097168
178.73300171 167.41700745 444.22299194
176.90299988 109.13600159 479.53900146
163.77900696 204.30799866 510.87200928
115.25800323 125.07499695 512.91198730
205.13600159 198.23699951 474.69400024
130.44500732 213.63600159 564.15100098
206.07299805 239.54998779 537.29199219
104.72399902 178.89900208 565.01599121
151.79899597 189.43499756 565.07403564
141.32699585 143.48699951 548.75598145
179.61199951 245.24900818 556.31500244
137.16900635 180.92300415 615.11895752
193.02600098 129.29600525 460.66900635
199.52999878 266.64700317 518.23400879
171.66200256 222.23100281 541.06097412
118.58300018 245.35200500 491.48898315
171.39099121 117.82500458 454.81900024
167.59500122 263.94201660 530.58898926
258.19799805 218.36399841 484.60998535
120.39900208 236.91999817 550.63800049
122.30599976 127.18400574 540.00799561
166.62199402 176.28300476 544.91802979
208.91799927 257.89401245 476.78698730
221.37899780 202.97399902 511.01702881
151.18800354 207.97200012 443.76699829
141.10200500 126.09599304 449.74398804
104.95000458 213.58000183 536.34698486
100.43099976 165.72700500 484.39498901
186.14999390 196.67900085 450.58398438
256.19400024 230.69900513 476.28500366
98.01899719 174.98699951 508.29501343
194.45799255 128.27799988 475.49301147
105.75799561 150.86700439 549.51605225
144.84600830 150.22200012 599.61401367
156.88999939 105.30500031 480.27398682
99.04400635 201.64900208 513.10498047
187.89898682 166.27598572 499.20202637
162.95599365 260.11300659 552.59899902
201.05099487 148.00498962 480.12701416
137.34999084 115.27299500 518.47998047
98.57199860 189.54400635 536.96801758
104.68900299 195.39900208 558.52398682
142.80099487 256.17300415 547.85400391
234.47300720 270.04598999 512.17901611
212.77999878 184.86399841 468.87799072
210.97399902 265.98199463 528.03900146
121.11800385 210.92700195 450.62802124
160.51701355 164.26100159 527.51300049
261.73599243 244.21800232 483.14300537
180.50199890 153.01499939 443.71899414
211.40701294 252.24998474 543.15698242
154.24301147 201.28999329 541.54302979
176.36799622 132.61599731 491.40100098
134.59600830 245.37699890 568.65502930
186.95700073 220.95700073 451.48300171
227.27999878 192.36999512 485.70001221
211.81500244 214.72200012 512.38897705
184.48999023 234.47700500 546.33496094
159.65499878 242.96299744 560.19097900
164.46299744 174.71099854 438.39700317
196.69400024 172.52099609 463.86599731
104.07099915 215.75300598 522.43798828
210.19500732 229.80299377 465.93402100
193.11000061 192.62400818 512.24902344
136.94400024 198.47099304 440.90100098
147.20700073 174.55500793 589.89599609
118.21699524 238.03900146 526.77703857
108.14599609 149.21299744 466.75698853
126.01800537 250.99000549 520.58703613
211.50000000 197.22299194 500.22399902
113.86399841 230.63600159 476.01602173
100.29000092 178.16099548 470.96401978
174.64900208 210.51899719 517.78601074
110.03000641 133.11399841 524.73699951
202.87899780 151.79299927 460.07299805
128.05700684 149.14099121 591.80200195
109.96299744 204.57800293 567.36303711
149.45500183 264.85198975 507.91799927
185.65599060 223.58700562 501.14602661
151.26399231 109.16300201 498.80001831
151.58900452 200.60899353 554.95001221
143.41700745 145.88999939 574.27899170
238.51600647 243.49200439 508.21102905
172.05700684 226.57600403 510.57797241
182.56600952 151.90798950 494.22000122
182.34600830 202.63000488 499.57800293
176.50300598 264.52301025 510.96499634
176.54100037 117.27199554 494.27499390
161.23899841 143.27099609 506.53500366
98.38800049 194.38200378 481.94198608
146.93099976 154.65599060 541.47796631
158.36599731 123.03800201 511.94100952
164.09500122 127.84799957 446.07699585
120.18000031 132.96299744 551.96600342
160.84399414 197.15699768 499.13598633
115.66200256 140.17300415 460.24798584
132.56199646 250.25698853 470.02600098
103.89599609 221.37500000 494.82299805
159.10400391 227.78099060 546.84698486
118.52200317 160.09700012 590.85601807
201.17401123 170.74899292 478.53698730
151.76199341 179.86599731 516.42797852
156.07699585 266.38299561 496.38800049
227.05200195 255.64399719 529.97796631
136.32998657 111.46800232 497.20800781
124.56400299 166.95800781 613.13500977
111.27700043 234.83000183 503.84597778
109.37100220 161.27899170 458.23699951
167.15599060 188.33599854 509.14300537
164.64399719 113.40899658 506.05703735
132.31300354 200.62699890 590.74298096
190.35099792 234.44099426 460.42999268
138.04598999 216.90200806 541.77203369
192.75500488 188.70399475 496.44100952
115.65099335 126.89000702 479.00598145
123.79399872 212.16600037 595.24694824
101.82300568 149.83399963 501.58502197
126.60099792 222.58399963 580.53302002
195.01799011 262.49600220 550.02703857
139.44000244 139.47799683 560.64202881
126.28699493 180.05599976 621.54699707
218.07899475 238.56700134 470.53201294
107.90100098 217.35499573 466.12701416
228.67900085 206.04899597 499.71197510
156.54598999 261.65597534 471.28799438
142.87200928 169.77999878 616.15399170
193.73098755 209.90000916 449.65298462
108.71099854 172.05700684 574.89099121
127.20200348 190.15899658 610.59899902
185.46398926 263.75299072 537.53698730
131.05999756 113.94699860 476.17700195
112.58000183 215.09599304 560.79797363
198.29499817 251.36000061 474.28302002
153.38900757 110.46900177 463.05798340
238.67199707 265.44000244 523.61499023
128.88200378 143.27799988 580.91497803
193.49600220 190.73899841 482.35699463
97.98700714 174.98699951 537.47900391
163.84400940 188.67900085 441.23300171
134.88900757 231.43899536 557.05200195
122.71600342 174.97799683 440.94198608
168.53498840 210.58100891 529.98901367
134.10299683 120.55200195 458.13302612
165.11599731 214.70800781 443.64498901
179.33300781 188.91600037 509.52398682
103.48899841 153.15798950 480.86398315
119.28799438 144.30700684 569.66900635
148.19400024 231.54100037 448.43200684
130.15699768 237.66699219 459.79400635
193.10900879 194.08999634 466.17300415
171.89801025 251.04100037 463.60900879
118.47799683 121.49199677 499.06900024
212.25700378 191.82200623 482.07000732
142.60501099 220.46899414 448.28799438
172.21400452 155.25999451 503.92700195
142.07899475 162.81900024 438.77899170
116.84400177 172.74198914 598.01000977
214.01699829 186.53999329 492.72900391
144.40501404 243.88299561 558.13903809
227.38600159 245.62300110 520.80700684
158.63000488 180.26399231 558.05499268
135.42999268 122.76100159 539.96197510
143.75900269 175.90800476 605.80804443
151.70800781 152.68299866 526.35095215
97.29499817 191.07299805 518.26098633
258.96899414 243.03199768 495.88299561
235.63099670 220.90699768 500.05798340
97.86800385 165.80801392 527.64202881
99.58699799 192.10400391 468.73797607
101.83799744 198.45700073 546.53295898
109.16999817 194.87400818 451.89602661
169.01100159 237.02999878 451.17300415
262.51098633 220.38600159 473.62701416
98.46399689 174.19299316 495.93402100
246.03599548 259.63000488 509.53399658
141.59700012 134.59399414 537.25201416
123.55100250 223.43299866 562.52697754
173.93800354 260.43200684 558.26098633
149.90200806 119.01100159 521.78900146
199.48199463 266.38900757 498.27099609
104.04699707 172.24099731 461.66900635
200.56700134 194.59100342 503.12399292
187.00199890 252.94500732 478.16198730
117.95400238 236.00601196 538.18395996
111.67600250 153.75999451 569.68096924
223.24598694 269.14901733 506.68597412
211.13699341 202.32200623 464.83401489
144.05799866 184.60200500 438.57000732
237.63699341 250.04101562 476.29400635
219.13099670 222.98399353 515.62500000
186.58000183 175.65699768 451.29202271
184.01899719 225.54301453 539.22100830
157.69200134 255.38798523 530.07800293
147.74699402 255.08999634 464.69598389
219.17399597 236.16400146 522.32702637
210.17700195 263.51498413 544.41705322
145.65199280 222.58599854 548.05798340
148.55400085 159.41299438 551.67901611
136.33898926 259.61199951 501.69097900
180.92199707 141.85200500 445.76901245
187.04399109 262.13397217 489.73797607
249.97299194 226.66200256 495.24499512
168.58399963 262.30499268 541.71197510
118.41500092 162.74101257 446.92001343
218.89799500 249.33399963 473.72299194
171.01000977 262.66000366 500.77099609
128.61700439 245.53201294 544.82904053
187.01300049 266.61599731 514.33697510
145.57499695 116.20999908 457.39901733
125.31900024 152.41999817 446.12399292
196.13699341 252.55200195 556.00103760
129.59001160 132.70999146 559.50799561
147.00099182 107.66799927 473.91000366
270.11700439 235.33599854 484.37600708
112.90299988 160.90800476 578.29199219
145.89299011 209.50500488 537.32098389
146.06900024 136.35400391 525.05700684
112.13199615 183.75300598 448.08898926
166.67799377 197.22500610 529.76300049
118.28199768 241.69200134 480.51898193
184.69299316 174.52999878 514.22296143
128.31500244 221.02899170 454.58700562
186.01199341 213.39199829 496.80398560
167.85299683 262.11300659 476.23898315
221.57800293 205.83100891 463.83700562
167.14799500 162.81799316 517.54498291
149.57299805 160.20899963 590.92999268
237.58900452 211.99299622 482.55398560
178.17300415 188.24400330 528.99096680
166.00799561 264.50000000 519.71002197
140.67300415 136.16600037 445.38098145
260.08297729 253.59698486 499.10101318
98.05599976 188.12799072 492.59100342
127.52999115 203.69000244 444.18099976
122.51100159 142.57099915 451.98199463
149.29899597 159.98699951 569.23400879
104.09400177 146.18800354 537.59899902
187.76400757 133.58399963 452.17098999
118.22399902 187.77899170 601.96697998
120.38099670 130.59500122 462.14700317
228.98599243 225.04100037 508.87799072
174.13299561 227.04899597 499.96200562
171.61000061 204.75999451 502.52401733
136.64700317 205.31498718 577.72698975
193.49800110 265.50997925 528.30798340
137.32899475 261.23800659 485.21398926
119.27300262 245.69000244 502.67498779
218.38999939 264.80401611 484.05999756
231.27299500 266.07299805 486.51998901
155.67100525 163.58799744 435.78402710
251.84899902 221.27999878 473.64398193
157.49800110 144.18299866 441.13900757
187.77899170 117.98399353 474.81997681
255.70800781 264.60299683 494.57101440
235.91700745 219.24099731 470.82098389
132.20300293 151.56399536 602.14801025
174.85800171 111.96299744 465.60900879
200.92999268 225.12500000 528.69396973
222.96400452 216.14299011 465.90100098
99.48399353 203.89999390 502.08096313
158.61000061 131.83100891 506.02297974
108.45299530 137.20600891 483.68002319
154.18099976 145.26901245 514.95996094
208.69200134 181.46400452 477.98098755
163.90701294 228.78399658 446.23501587
235.91700745 269.98001099 500.50299072
137.14300537 174.55099487 438.48699951
202.64500427 158.36000061 480.13800049
111.57300568 184.92799377 582.92199707
106.65400696 154.79399109 559.14495850
240.17199707 238.28799438 473.74298096
201.06999207 234.77799988 465.39498901
183.07499695 230.32798767 453.79000854
266.98300171 260.65200806 495.06802368
147.08499146 265.34701538 484.26699829
205.04499817 151.00700378 471.02600098
117.65799713 199.76699829 593.28900146
117.55899811 128.74400330 530.63702393
222.11599731 188.59199524 476.21798706
133.91999817 118.23999786 527.78796387
218.40600586 267.73699951 516.78198242
150.97399902 168.15798950 575.35797119
250.76300049 236.51100159 498.28100586
227.46199036 200.93699646 477.23300171
253.05598450 269.47201538 505.17498779
200.24000549 163.71400452 459.85299683
102.62899780 169.58900452 557.44702148
184.25599670 212.08799744 521.08898926
158.72099304 195.39601135 510.18798828
176.81700134 195.88198853 444.74398804
196.41700745 138.97299194 482.10998535
146.15200806 194.07199097 572.26000977
231.26499939 264.66101074 532.82501221
167.91699219 134.99000549 497.62200928
141.34700012 112.16600037 507.88497925
151.68798828 125.83200836 446.59997559
200.76599121 215.51699829 455.33599854
196.34400940 207.91299438 514.90802002
131.32000732 215.48399353 574.08795166
197.73899841 267.47900391 508.20498657
162.56900024 195.80400085 538.92700195
182.95100403 124.97399902 454.49899292
177.59298706 252.01200867 564.71099854
163.16799927 215.98799133 539.11602783
198.20899963 140.93199158 458.31500244
113.08699799 197.82200623 580.86999512
102.64500427 199.50799561 462.71398926
114.48100281 208.73600769 575.95599365
163.39700317 246.08999634 454.90399170
113.25000000 233.97700500 518.63903809
210.25199890 235.29798889 529.31396484
152.46200562 159.23899841 533.80297852
159.73599243 256.97698975 562.70495605
150.50700378 248.95001221 457.39901733
132.88800049 194.67399597 598.66497803
206.23300171 217.03700256 520.24102783
133.15699768 256.09201050 526.55999756
101.69400024 156.01399231 490.14898682
117.95800018 229.35198975 556.94201660
219.92799377 254.49699402 536.71197510
101.04899597 212.04200745 481.26599121
187.64099121 196.21301270 504.88800049
143.61099243 183.69500732 589.20300293
153.04699707 258.80599976 551.79296875
191.38101196 221.55700684 530.61199951
162.64698792 186.90901184 500.52999878
136.58100891 207.91000366 559.04504395
103.36499786 147.90699768 511.87097168
188.92700195 130.71600342 485.92300415
184.24800110 191.13500977 517.88098145
179.22698975 210.09600830 507.81201172
176.43000793 169.60301208 519.33001709
125.49700165 249.74900818 477.26800537
114.84799957 216.28298950 457.07000732
142.24700928 237.28900146 453.57400513
125.38999176 241.59300232 558.97497559
147.96299744 263.30700684 532.17700195
133.11601257 111.92400360 486.43899536
215.86399841 268.42800903 500.20700073
166.07398987 263.73699951 492.55499268
97.19300079 171.66999817 517.30499268
185.21200562 184.79600525 448.63500977
147.20599365 150.98600769 589.67401123
248.50698853 253.97801208 481.58999634
265.35098267 224.71598816 483.98599243
145.49798584 143.23001099 441.07299805
132.89999390 161.30999756 618.05499268
122.82800293 185.23600769 441.08798218
180.20999146 159.26100159 499.81100464
108.97599792 142.43099976 545.80096436
133.23399353 154.65399170 441.28201294
176.47900391 216.24400330 445.30902100
114.56400299 180.41600037 592.18103027
192.34600830 148.74600220 487.87899780
166.33898926 105.86500549 479.89898682
234.73001099 232.52398682 507.55697632
132.09399414 213.92599487 552.48101807
207.32901001 208.05000305 455.57998657
158.72601318 169.78399658 553.54998779
159.16700745 184.59799194 512.49700928
196.07398987 236.56600952 542.50097656
158.78399658 201.42500305 441.19302368
156.56300354 183.38299561 438.59899902
101.69599915 204.40800476 539.28295898
119.29400635 230.81300354 468.37899780
134.00700378 250.94898987 539.42797852
146.89601135 160.13400269 608.10498047
142.29600525 262.70898438 521.98901367
165.74600220 170.30599976 537.78302002
223.61299133 186.58299255 492.05999756
233.42199707 214.87799072 493.27200317
130.33799744 157.25601196 610.04901123
180.57798767 249.66999817 466.67401123
111.71800232 129.79499817 505.71603394
196.55599976 151.38400269 453.21899414
196.94200134 179.21600342 480.37298584
155.24398804 175.91899109 566.30700684
127.59899902 115.50799561 498.09201050
162.27600098 111.95700073 459.74600220
139.98899841 252.52699280 556.72503662
101.54399872 157.90299988 545.21002197
127.19200897 119.65700531 517.40100098
164.90100098 152.69599915 509.19503784
98.20300293 192.85800171 528.19097900
130.04399109 255.81900024 512.93304443
152.63200378 106.50599670 489.56500244
248.66700745 262.64102173 488.44400024
163.88400269 202.84800720 519.95996094
131.65800476 257.25100708 494.12500000
214.38899231 221.63400269 465.42800903
120.68199921 216.16700745 583.37402344
99.12799835 165.96800232 538.71502686
197.42498779 181.69100952 462.82397461
99.80099487 171.57800293 477.30899048
138.41299438 238.31999207 562.25799561
100.47399902 212.27000427 495.20498657
109.04700470 221.31100464 538.99902344
102.72200012 212.95700073 472.24200439
105.82599640 139.99700928 530.46502686
187.86399841 155.93099976 448.29498291
220.15100098 266.14801025 533.36102295
97.80000305 180.72700500 515.37701416
179.24700928 231.25299072 513.66400146
231.21299744 231.53999329 471.02001953
131.44000244 115.91699982 467.29498291
174.21899414 110.32299805 488.87597656
158.03900146 236.47999573 554.01800537
193.63999939 167.35299683 491.44500732
108.61600494 137.52200317 499.10198975
104.84600067 224.69499207 485.87200928
202.08999634 250.60299683 549.44299316
177.95300293 221.17599487 506.31396484
98.54399872 165.21600342 508.75698853
179.13000488 220.32800293 494.16699219
155.56199646 248.91600037 565.69000244
174.99899292 180.47900391 533.70098877
191.19999695 192.53100586 456.82400513
169.43598938 135.00599670 443.35601807
129.55300903 193.32000732 441.32699585
157.96199036 210.34300232 534.45800781
177.37600708 229.66000366 543.60198975
203.30999756 263.17199707 484.36499023
211.33000183 200.44900513 508.53997803
171.66000366 246.17098999 560.24700928
127.45699310 218.35299683 589.99200439
107.84899902 183.13800049 572.18701172
229.40998840 197.50300598 492.64199829
175.90199280 263.72998047 536.87103271
103.66699982 186.08200073 559.93096924
208.78500366 266.86297607 519.54504395
133.18099976 255.15699768 477.32800293
149.31900024 144.80101013 523.21704102
170.34899902 166.53601074 441.09899902
265.48199463 239.43699646 490.58499146
263.33099365 236.26600647 478.92599487
179.31900024 263.10299683 498.05899048
182.20800781 256.37399292 484.62899780
115.17600250 204.56300354 449.99398804
191.82400513 123.94999695 467.45700073
113.19699860 228.88299561 540.07696533
122.90200043 137.32800293 562.61499023
172.69299316 175.70401001 441.22100830
105.67499542 145.24800110 478.06298828
254.49899292 260.29199219 504.63699341
101.10999298 155.19300842 525.98101807
256.74899292 214.13999939 477.21798706
213.39599609 247.08700562 536.53094482
185.97599792 241.79400635 551.62902832
99.76300049 156.70199585 508.23199463
106.97100067 227.77799988 499.69900513
136.15299988 140.00601196 577.67895508
178.64799500 142.03498840 493.59701538
175.27999878 205.41099548 444.31600952
151.01200867 127.68299866 518.81298828
169.27400208 197.58500671 512.49499512
116.68899536 128.58801270 470.67401123
197.46899414 132.48799133 467.50701904
199.05300903 176.80500793 470.88098145
218.64601135 194.79200745 504.96203613
104.15299988 155.42100525 472.46398926
249.93099976 216.41899109 485.58700562
143.95600891 151.61000061 549.15203857
226.03700256 199.23899841 504.91397095
120.28399658 167.45700073 603.76300049
169.52200317 262.10400391 484.90200806
237.84400940 268.13699341 491.55599976
98.73400116 185.66499329 474.69699097
213.13699341 193.33801270 472.82202148
239.39399719 210.63000488 473.16198730
110.84600067 224.27000427 470.05999756
188.07299805 260.93997192 556.96398926
158.24299622 154.94898987 438.75598145
264.39999390 251.83299255 488.64099121
119.10600281 122.95000458 486.13101196
206.34800720 222.97300720 461.69000244
170.04899597 151.92399597 441.22500610
241.46400452 251.39999390 508.64703369
188.22000122 182.40299988 513.27398682
126.85400391 229.90399170 460.05300903
138.92300415 190.97599792 593.26800537
100.85900116 206.89900208 521.66302490
143.68499756 193.43699646 440.48397827
142.85301208 209.11500549 443.81399536
129.47000122 121.58499908 534.15502930
116.86499786 125.20999908 521.15795898
99.49299622 175.01998901 546.56201172
149.71501160 167.45098877 583.62902832
180.58599854 111.73999786 471.74099731
107.42299652 136.36399841 515.34497070
129.62300110 137.74800110 449.04501343
190.49499512 175.11999512 498.60098267
188.79200745 158.00399780 493.85000610
98.65399933 203.43600464 483.17901611
106.95500183 214.13600159 544.42102051
174.22000122 265.80798340 520.05200195
148.39099121 197.71299744 565.12097168
164.18899536 258.77401733 467.45898438
229.62098694 252.20298767 475.85498047
197.74299622 243.41699219 468.96499634
103.17199707 161.86599731 554.42199707
195.95899963 195.18899536 475.78601074
139.04499817 146.12600708 595.34503174
193.98500061 200.58700562 510.15798950
101.91400146 212.12998962 515.32104492
179.47399902 174.76600647 525.01000977
188.43400574 249.86199951 557.23297119
124.44200134 117.90800476 479.29800415
149.20100403 200.18600464 441.13900757
255.45799255 224.86700439 489.36199951
232.99600220 259.85400391 525.73400879
165.44699097 186.79800415 542.95495605
147.26098633 204.79699707 544.13598633
141.80900574 150.55799866 441.24798584
186.57800293 147.90899658 446.10699463
171.14799500 107.62199402 473.49499512
149.58200073 216.72700500 446.16799927
140.71199036 108.47599792 479.07901001
140.00601196 151.38700867 606.68499756
108.47900391 170.19599915 454.54901123
172.30099487 215.77600098 535.05999756
140.66499329 163.13700867 620.38299561
96.95999908 180.78799438 502.63702393
254.53901672 248.47698975 481.86001587
192.63800049 170.74200439 457.00601196
107.53800201 180.42599487 453.95999146
205.85000610 246.30700684 542.54504395
187.95899963 203.54699707 445.80398560
104.31800079 222.15800476 506.31600952
214.45100403 208.00599670 508.62597656
183.88499451 168.04400635 506.03698730
115.17099762 239.37001038 495.79000854
148.73799133 186.20300293 574.74603271
139.24899292 250.99301147 464.62899780
156.94799805 111.12300110 505.04101562
137.82901001 226.41400146 551.43499756
162.92799377 120.70400238 450.57897949
106.46299744 219.30700684 530.85498047
134.89300537 186.79100037 606.18798828
151.07899475 264.36001587 515.80603027
135.27600098 209.76998901 569.99597168
101.48500061 177.61399841 555.65795898
201.02200317 195.51300049 482.04498291
232.02200317 243.69000244 514.51599121
245.22300720 240.16700745 502.82400513
128.41999817 127.06300354 545.23303223
272.11300659 243.92199707 489.82699585
167.46899414 167.04800415 524.36700439
206.02000427 208.88999939 513.50598145
142.30899048 141.90899658 540.46203613
152.00000000 264.72000122 477.96301270
211.16099548 249.96499634 471.72601318
121.52200317 135.78799438 456.13198853
102.12300110 191.20800781 551.11596680
138.42298889 138.93299866 569.99395752
142.77101135 117.63499451 525.72204590
130.30000305 244.60501099 464.83999634
126.65299988 172.23001099 619.96697998
114.39300537 221.84201050 556.37097168
146.05799866 152.70700073 569.52001953
185.68399048 240.81500244 461.51400757
121.33800507 120.13999939 511.46798706
211.56199646 194.09799194 492.36599731
135.27398682 176.41900635 622.64300537
190.52200317 183.15100098 482.89498901
147.06001282 260.35498047 541.00103760
138.82699585 134.62400818 550.89404297
168.14500427 228.20500183 544.90502930
111.23999786 153.16101074 460.63900757
174.70201111 158.34500122 443.00100708
144.70399475 264.36599731 501.59298706
156.02600098 263.01397705 531.31994629
146.64700317 182.10198975 582.02203369
232.25399780 207.58999634 476.49301147
102.54199982 209.62199402 528.87304688
151.36801147 240.82499695 556.05798340
124.60199738 222.43598938 572.90795898
171.86399841 127.16899872 495.13998413
180.42900085 174.94599915 445.80700684
107.22100067 195.47801208 565.97503662
161.28500366 261.36801147 545.01300049
114.24600220 138.08200073 551.30102539
175.75199890 233.11999512 452.05398560
124.06600189 250.95001221 491.70700073
243.02400208 270.56698608 503.73797607
218.97499084 267.23599243 525.45898438
159.71099854 133.91500854 443.79199219
215.09700012 205.31600952 458.79901123
123.99400330 149.45899963 585.14703369
207.45399475 264.59899902 536.64898682
171.00399780 113.06700134 497.79800415
149.93600464 161.88900757 560.70697021
126.84201050 228.29598999 557.40997314
109.77600098 228.58299255 523.04602051
158.78399658 166.08700562 536.43603516
167.99198914 181.90499878 441.16198730
172.90499878 123.84500122 449.60299683
114.34099579 159.08999634 452.65200806
152.68699646 266.91799927 489.41000366
142.43798828 145.95800781 563.65002441
256.20999146 240.65100098 479.06301880
151.99501038 205.32398987 535.06597900
221.18798828 209.19999695 504.47500610
199.08900452 136.77400208 475.20199585
98.04700470 199.77600098 520.65600586
244.70100403 217.26399231 471.15002441
139.76800537 247.72399902 562.96801758
216.86900330 181.61100769 474.55798340
167.24301147 239.78799438 555.01995850
194.79499817 258.41702271 560.81500244
201.32798767 257.38400269 478.00399780
170.74800110 261.22000122 551.29699707
167.09500122 259.10101318 561.91497803
98.50099945 194.64201355 496.67098999
180.42799377 192.28099060 501.75100708
133.67700195 126.71700287 452.25799561
195.72700500 264.16400146 491.95797729
121.65699768 248.49798584 483.79299927
203.93400574 232.63800049 532.74102783
179.15699768 125.67700195 489.74002075
231.85198975 259.92501831 479.27297974
246.77499390 234.44500732 474.25100708
162.27799988 176.19299316 551.21997070
201.50799561 200.89100647 468.50900269
205.61799622 268.08398438 504.28598022
187.00599670 123.06700134 460.79998779
106.71699524 205.71299744 558.76599121
160.86000061 264.50698853 525.34997559
124.56499481 185.97500610 617.04302979
176.27899170 207.15499878 496.98199463
181.11999512 112.90500641 484.66000366
148.69099426 240.44898987 451.00399780
198.18901062 168.94200134 485.28201294
113.30399323 212.63800049 568.17700195
156.59700012 265.32901001 505.09799194
170.86000061 207.41699219 511.98501587
161.62300110 105.75799561 486.35900879
118.39400482 165.49700928 596.39801025
242.78700256 225.51399231 497.36199951
182.87699890 226.76199341 507.71099854
240.29600525 258.99801636 514.52301025
154.09199524 195.06399536 504.20599365
101.96900177 160.77999878 477.34399414
173.77699280 232.49499512 505.31201172
120.86599731 244.57398987 519.39501953
222.23800659 229.81600952 516.48901367
192.38198853 200.33900452 455.24902344
162.31100464 264.60498047 500.23300171
144.91499329 147.22999573 583.03796387
217.11599731 188.71800232 499.23300171
140.02099609 257.28601074 540.95300293
144.60800171 109.14699554 495.32501221
174.37001038 265.79400635 527.54699707
154.87899780 192.75900269 555.91998291
155.43299866 197.83799744 549.14996338
170.42599487 245.28401184 457.35897827
98.24299622 182.05400085 535.02203369
105.83399963 222.74200439 520.41900635
143.12500000 169.64300537 435.88800049
233.35299683 269.00000000 519.50402832
211.68600464 183.40200806 485.85198975
129.76199341 207.68299866 595.31201172
127.93099976 121.70299530 462.16000366
102.36900330 149.08100891 530.94799805
184.45700073 166.55400085 448.91598511
149.56300354 159.26599121 438.46301270
114.77200317 233.32199097 532.01196289
127.29999542 218.69799805 558.17700195
124.87100220 142.94500732 574.39099121
224.05900574 204.79299927 471.86099243
159.16600037 106.25900269 473.26300049
217.23901367 260.76199341 477.51199341
188.64500427 262.94601440 546.24096680
104.86599731 208.78100586 463.82598877
201.16600037 169.74299622 470.11700439
169.24099731 208.58200073 522.46301270
191.48699951 186.10400391 489.61499023
148.84799194 167.13200378 593.44000244
159.80300903 115.14600372 511.37399292
202.62100220 144.20300293 473.98699951
123.30599976 240.86700439 542.67797852
135.68499756 218.85200500 450.30502319
124.15800476 154.60800171 594.85498047
242.28199768 269.75799561 518.85095215
192.67199707 263.66900635 539.29400635
109.67499542 214.50999451 553.15502930
171.94200134 189.27699280 443.82299805
162.75599670 261.80899048 537.25500488
162.83700562 166.72200012 438.70498657
125.02600098 194.16500854 603.90502930
214.61900330 264.64797974 538.23999023
99.91600037 191.36500549 543.95001221
176.83799744 152.82798767 498.76699829
173.58200073 193.69799805 527.27801514
184.13500977 215.73300171 447.19500732
112.56900024 147.43000793 564.13903809
146.39698792 203.26699829 559.36199951
135.81700134 190.70098877 438.63601685
159.56900024 264.83999634 516.29797363
159.70300293 159.76100159 521.83099365
230.05500793 223.23500061 469.15200806
190.32000732 187.08799744 506.02297974
100.97599792 182.56700134 465.21099854
200.47900391 265.68200684 526.25500488
181.06700134 160.77200317 446.05999756
98.66300201 170.81800842 502.37600708
145.34799194 113.68299866 516.90100098
183.72300720 214.78599548 503.55398560
110.18499756 142.25399780 467.00997925
106.13500214 170.31500244 567.67901611
124.02899933 245.07800293 527.19897461
119.58800507 206.77999878 592.82501221
130.36199951 170.69200134 438.43499756
144.12799072 264.03701782 513.78698730
170.85299683 187.19300842 503.02600098
146.67199707 217.53900146 542.97100830
200.86700439 205.55400085 453.16897583
121.78800201 173.83399963 612.14801025
144.89201355 177.18901062 598.79302979
97.88200378 196.15901184 506.68002319
180.82000732 225.19299316 449.25201416
178.02700806 118.83599854 457.46200562
169.06100464 158.52899170 509.96704102
129.86199951 239.50399780 568.72900391
162.75000000 136.69299316 502.34097290
211.10800171 264.11798096 483.57800293
144.69200134 162.86900330 614.38201904
183.05400085 135.13598633 488.45300293
211.24600220 259.31997681 550.15301514
171.82699585 175.41598511 537.69396973
146.55299377 129.19700623 525.02197266
223.92800903 186.68299866 482.89999390
145.30400085 130.75000000 446.16400146
147.26799011 253.68499756 552.87805176
163.27099609 221.87399292 543.20501709
140.55299377 199.40798950 576.62097168
120.40399933 122.62599945 475.72000122
191.58999634 189.35101318 475.13000488
154.26899719 151.05499268 519.86804199
193.31399536 239.19200134 465.26000977
153.25799561 165.36299133 554.82501221
120.39200592 187.30899048 608.91699219
174.76400757 211.92399597 526.76202393
136.31300354 252.25601196 550.61602783
160.41999817 207.88900757 443.70700073
114.81300354 134.46600342 467.11599731
205.53399658 157.17799377 464.07101440
179.40499878 258.81698608 563.70300293
229.91900635 251.69500732 523.50000000
189.52200317 230.59100342 541.00695801
139.26600647 181.50700378 608.04199219
151.53199768 186.05899048 511.86001587
203.48300171 263.14498901 546.74902344
174.69599915 146.83500671 442.88500977
97.80599976 186.42300415 525.25701904
217.85299683 230.92601013 468.71600342
116.94899750 181.24000549 599.56500244
129.95700073 214.24000549 450.38400269
109.45499420 161.48799133 571.96301270
169.96299744 198.53498840 499.58398438
155.07400513 257.43899536 465.81900024
153.73699951 182.81799316 566.53704834
114.15699768 234.13999939 482.11300659
190.49101257 122.94300079 479.00302124
148.48699951 155.50000000 596.03204346
265.30297852 258.38699341 501.50399780
141.51098633 209.79699707 542.80200195
126.51899719 218.85398865 566.93902588
189.15299988 216.75700378 524.59301758
146.60101318 151.29199219 577.40301514
180.58999634 200.78698730 448.01501465
155.31500244 159.15399170 527.41302490
107.12300110 138.93200684 492.41302490
115.06800079 237.07800293 488.67999268
218.59899902 266.93499756 490.71899414
268.10000610 220.61300659 477.81698608
177.63200378 221.01499939 537.64404297
144.26300049 176.55700684 436.92800903
178.53100586 239.34500122 552.75799561
127.60299683 130.20500183 553.30700684
134.66799927 204.05200195 585.15100098
180.42700195 227.38499451 496.99801636
139.74600220 132.67100525 544.27301025
154.58599854 222.61199951 547.92303467
172.15399170 121.06599426 498.44598389
158.45300293 200.07600403 535.31701660
223.26899719 220.98100281 510.42700195
225.00799561 234.62599182 471.24002075
117.46899414 221.88299561 565.46905518
216.55699158 256.84600830 542.53002930
212.01699829 220.94599915 518.87103271
193.22000122 136.86700439 454.87298584
144.86399841 188.56201172 580.30999756
111.40000153 202.35099792 573.75000000
156.97500610 215.58700562 443.63201904
137.46299744 110.89699554 473.48098755
104.38299561 221.22200012 513.66900635
162.90100098 221.25299072 443.60797119
191.32099915 187.59599304 464.63598633
180.40400696 190.18299866 446.24502563
170.11299133 113.42900085 459.97198486
198.65399170 153.48400879 483.55401611
145.28700256 148.92199707 537.95300293
129.66799927 245.66999817 562.51000977
152.25799561 107.63400269 469.47100830
116.87400055 232.76998901 546.43200684
100.32899475 197.74499512 538.29302979
105.25599670 165.18600464 463.20098877
163.31700134 170.28099060 544.52099609
159.47000122 108.22599792 495.66702271
101.57600403 214.20800781 488.73001099
118.52700043 194.65600586 597.76000977
136.07299805 212.11199951 547.21801758
201.30300903 196.60099792 509.61203003
97.85900116 181.33898926 491.86898804
157.82299805 173.19700623 437.94699097
168.40800476 198.14999390 522.44104004
141.59100342 230.59498596 555.29602051
135.96899414 114.77700043 511.81799316
117.94900513 236.73899841 475.84399414
193.08599854 218.14199829 452.47500610
160.89099121 182.84300232 551.78497314
226.47000122 268.61700439 517.60205078
191.69799805 228.51300049 457.35101318
179.87200928 206.02700806 513.22900391
106.28900146 158.64799500 465.71002197
135.92399597 205.16400146 443.50100708
241.55000305 254.75299072 479.24102783
122.40499878 217.85398865 455.56500244
190.20399475 238.36199951 547.59197998
136.75599670 240.54499817 458.12500000
251.51100159 264.53500366 509.54699707
154.82200623 232.16999817 549.70697021
156.07998657 186.48699951 558.73797607
154.66600037 119.90599823 516.65100098
140.43399048 262.43902588 508.18801880
191.45500183 211.55000305 517.82000732
155.91799927 228.85699463 445.91598511
229.90399170 269.92098999 505.87301636
111.73400116 129.65800476 516.39697266
228.71200562 213.71499634 497.95498657
200.68598938 193.49400330 496.47399902
100.89299774 171.18699646 470.66900635
163.35499573 148.06999207 441.03399658
110.47899628 144.41900635 553.29101562
108.93800354 228.06100464 479.81500244
185.08900452 145.45199585 491.00198364
244.44900513 270.30200195 511.89999390
132.00000000 185.19499207 614.57299805
162.62899780 124.55099487 506.12997437
212.03599548 236.34399414 468.58502197
194.07199097 131.55999756 481.35198975
201.01899719 212.19700623 517.13299561
188.66699219 259.01202393 483.50000000
103.33699799 193.75999451 459.31301880
165.14801025 110.48100281 499.81399536
166.57400513 144.95300293 502.37799072
107.16600037 200.22000122 455.41198730
99.15200043 171.29499817 489.92898560
100.41300201 156.47000122 497.45300293
182.73599243 135.80000305 448.00399780
141.37100220 145.09999084 555.24597168
126.96699524 146.07398987 447.44000244
175.68899536 258.01300049 484.40499878
164.55699158 200.17900085 505.67401123
262.65902710 229.00999451 476.16400146
166.33799744 192.97200012 498.85101318
149.01499939 174.98300171 583.48205566
115.22599792 240.48300171 503.66903687
133.20399475 144.05499268 587.41894531
199.17201233 158.25399780 456.18600464
149.84098816 106.43900299 483.51800537
121.49299622 234.37200928 559.51599121
120.99400330 167.88999939 443.58502197
139.92401123 120.91500092 454.93701172
185.76499939 263.91101074 496.71701050
259.85501099 260.04800415 492.12301636
224.54699707 245.86799622 473.62597656
120.32800293 156.16198730 448.36102295
141.11900330 175.84199524 613.55499268
170.31500244 263.77099609 513.19702148
107.03399658 187.40800476 453.52499390
111.65100098 131.87500000 486.54699707
206.32398987 197.39399719 504.75399780
105.69599915 185.33399963 566.34301758
96.89500427 184.97698975 509.45800781
148.93699646 247.50399780 561.28503418
161.15600586 264.08999634 475.33099365
225.46600342 194.68000793 477.78100586
116.33399963 177.17300415 444.74899292
120.55099487 203.79798889 446.27499390
139.44900513 169.30801392 622.77398682
136.95399475 261.09701538 493.56100464
228.73500061 198.50698853 483.89199829
115.52400208 197.65800476 587.46704102
123.83300018 249.68099976 514.55401611
192.08000183 177.74800110 456.35000610
122.95700073 249.45199585 506.56497192
114.29599762 126.29300690 500.82803345
138.88299561 254.89500427 469.86499023
124.41900635 162.24899292 443.34399414
167.62599182 194.17700195 443.04299927
191.08299255 266.82699585 509.24301147
202.47200012 265.46600342 492.55401611
117.77999878 122.99499512 492.77697754
203.15299988 267.41299438 511.81198120
204.40899658 229.03298950 463.04101562
243.92199707 246.92698669 504.61697388
215.73500061 197.91699219 466.14700317
137.95399475 126.44200134 544.75402832
184.41101074 220.48500061 535.16101074
249.76600647 228.74101257 473.41299438
215.36900330 229.93699646 522.10101318
138.54199219 121.10400391 534.51196289
179.50099182 213.86000061 494.44601440
224.37699890 239.33699036 520.12597656
101.84399414 152.15000916 516.51800537
183.41000366 265.25900269 531.58599854
147.96099854 223.47999573 446.25500488
163.68299866 139.24301147 441.16400146
98.72100067 195.23699951 488.34100342
182.33999634 251.30500793 474.00097656
135.49000549 135.68800354 565.24005127
158.41899109 123.86599731 447.20397949
164.50999451 231.57901001 549.16296387
124.60599518 207.18798828 599.43200684
252.03898621 214.81799316 472.79400635
118.27400208 175.22000122 603.79400635
163.16400146 167.98399353 532.06201172
164.19300842 248.97499084 565.20599365
125.18399811 238.60899353 464.96398926
199.33799744 162.78498840 483.44497681
162.05699158 237.64799500 449.14300537
176.31599426 200.51300049 498.81399536
133.97898865 211.31999207 578.20898438
113.21099854 190.01899719 447.10900879
186.63600159 208.75799561 501.22100830
111.41999817 232.88400269 512.57098389
147.66600037 119.99200439 452.64300537
137.61999512 131.25399780 448.17700195
98.62100220 186.98098755 486.24798584
163.93899536 115.83500671 454.92199707
143.87998962 137.99299622 532.32501221
117.24600220 183.59999084 444.23400879
181.30700684 118.18399811 488.66900635
131.70799255 251.35099792 530.61297607
118.80400085 131.64801025 545.85302734
204.60499573 251.55499268 473.21798706
209.33599854 267.63201904 496.48202515
112.62100220 131.86399841 476.27197266
116.93800354 149.46499634 573.72601318
97.64800262 173.03300476 525.98101807
225.73600769 263.66000366 481.66400146
113.30000305 219.96598816 462.05801392
132.39599609 181.46600342 619.98303223
227.85099792 197.39100647 499.07498169
178.38400269 191.84399414 515.45599365
125.83899689 126.97399902 459.22698975
179.74600220 192.33399963 522.24200439
142.27999878 129.14900208 533.99798584
230.02400208 205.83300781 493.23800659
142.18899536 229.67800903 451.05099487
194.76600647 255.53100586 477.55798340
251.18199158 244.04499817 499.16500854
115.81300354 146.60699463 457.02401733
190.91700745 182.66700745 497.19598389
200.70700073 243.62400818 545.14099121
180.94900513 180.63400269 526.94201660
170.58700562 220.41799927 446.11001587
134.27099609 257.72900391 520.53100586
166.57099915 119.39700317 505.22900391
216.38200378 239.69400024 527.45001221
198.81599426 197.26300049 515.40502930
132.47900391 113.56099701 501.78701782
195.22500610 191.21800232 488.42199707
156.91299438 257.99099731 556.73095703
123.56999969 198.19499207 443.75500488
156.89801025 139.28900146 508.83102417
134.04299927 250.24501038 562.05798340
203.45300293 145.49900818 465.31799316
231.51899719 268.44799805 493.38702393
98.88999939 197.43399048 472.04901123
105.95300293 226.94400024 492.68298340
110.63499451 170.12699890 580.58203125
149.94799805 266.33200073 497.87200928
102.43599701 151.81300354 539.91699219
105.83899689 139.54100037 523.99304199
243.27301025 247.24499512 476.68399048
147.62200928 156.61799622 602.17498779
110.84700012 134.45300293 532.29998779
182.62701416 265.39099121 509.78900146
239.19400024 237.47399902 506.50399780
114.77799988 209.84199524 453.38800049
104.25999451 143.84899902 496.10400391
233.66099548 267.99301147 528.06097412
151.09999084 159.91799927 539.90301514
200.05700684 234.35499573 537.38201904
186.04600525 202.20098877 505.93298340
111.04199982 234.83399963 497.15600586
185.10800171 116.05100250 480.16400146
183.83898926 235.41299438 457.38299561
140.37699890 156.78500366 438.58798218
214.22799683 243.47999573 471.13101196
154.64498901 245.24499512 454.16799927
149.17999268 155.76200867 585.71600342
116.38099670 225.55999756 466.58798218
172.12599182 210.78500366 443.64102173
112.04799652 146.08900452 462.41799927
103.30999756 199.12399292 553.68402100
144.09899902 110.26900482 501.44702148
104.15699768 207.54699707 545.70501709
136.76499939 133.52200317 556.67901611
121.46900177 159.82000732 596.96002197
236.54901123 259.64001465 519.45397949
137.28498840 166.78999329 438.81900024
204.11000061 203.45799255 461.44802856
217.31599426 216.00799561 509.78500366
193.46900940 266.48397827 519.61901855
159.16700745 195.93200684 544.55902100
123.67600250 241.63400269 535.86700439
268.62298584 232.78900146 478.61001587
176.50500488 160.48599243 504.64498901
181.90798950 263.05599976 543.00805664
131.61698914 117.72499847 522.04901123
140.20599365 261.14498901 479.71697998
145.76100159 170.18899536 607.14300537
176.64199829 247.05099487 462.65600586
178.84500122 255.43200684 479.38601685
105.88700104 142.26899719 514.25701904
109.32199860 133.49800110 510.18899536
181.56900024 266.30398560 517.27404785
166.59500122 251.49301147 460.44201660
117.10099792 122.98799896 507.38101196
136.98800659 197.02899170 586.95501709
143.60600281 148.39500427 543.88500977
97.06999969 184.78999329 497.69699097
133.09599304 258.28601074 508.17102051
187.64099121 191.92900085 509.48501587
182.05699158 261.09399414 555.61901855
154.18299866 191.30299377 509.37097168
251.56098938 213.11601257 480.38000488
227.28300476 191.72100830 491.82199097
104.50900269 155.74400330 553.04803467
245.48199463 264.73901367 515.02398682
215.90100098 262.06500244 546.12799072
157.84899902 190.61100769 499.50799561
138.73699951 116.87500000 459.78201294
100.32099915 206.52101135 509.59497070
164.68800354 211.56098938 534.66998291
265.88601685 245.97898865 487.56799316
200.64799500 261.18499756 553.94500732
170.28900146 181.22999573 538.84600830
147.43701172 111.85199738 462.71899414
162.18400574 195.98400879 440.90499878
173.08900452 259.44000244 477.92398071
130.33999634 176.80700684 438.39898682
259.37500000 250.15299988 485.58801270
198.46899414 136.48199463 462.98699951
255.96400452 249.13999939 498.42199707
135.93199158 221.95799255 547.71697998
129.42599487 208.96499634 446.82199097
233.27499390 211.25500488 486.79299927
217.55500793 211.57099915 464.01599121
113.05500031 137.26300049 545.38702393
242.08000183 214.90199280 485.77600098
97.57199860 177.04998779 531.63299561
172.82099915 189.46099854 511.02798462
122.18499756 178.92199707 615.44299316
99.54799652 185.31199646 543.66101074
264.22698975 231.82099915 487.81100464
251.31800842 254.95698547 503.24099731
107.69799805 157.37899780 564.52801514
129.99600220 199.52699280 596.22003174
138.65199280 109.25599670 489.75900269
226.81799316 260.90402222 534.45300293
207.43099976 195.46000671 482.16799927
106.20899963 148.12899780 472.77999878
160.79699707 266.02301025 488.97299194
125.28400421 162.42698669 609.22399902
237.70399475 231.94999695 473.57800293
146.74600220 203.48500061 552.82299805
148.76000977 227.19299316 552.95697021
177.48899841 147.59700012 495.87399292
132.99598694 217.38700867 544.98901367
121.26300049 243.71199036 475.55999756
98.24399567 165.66799927 519.19195557
117.55100250 157.90399170 585.36297607
120.46000671 135.96600342 557.14202881
232.48001099 236.94500732 511.22601318
149.33801270 167.75099182 436.14398193
135.20799255 195.84498596 592.87103271
125.09000397 242.80500793 548.81402588
221.69500732 183.17100525 487.18899536
133.24899292 250.16700745 545.93005371
262.46801758 217.87800598 480.45797729
116.09899902 131.17698669 535.89398193
114.06400299 164.79800415 450.45797729
114.65599823 238.47000122 509.67700195
173.39801025 258.74099731 563.96301270
249.26300049 221.40899658 488.79501343
158.38299561 148.45700073 512.16503906
193.78800964 143.61500549 485.19400024
122.81099701 191.20300293 441.04199219
217.23200989 189.73001099 470.41299438
96.78799438 190.44799805 511.82998657
174.98300171 135.78500366 445.39700317
150.46099854 257.14901733 546.68402100
214.95899963 202.83200073 512.62402344
173.35000610 136.77999878 494.40701294
150.41000366 178.85899353 438.67999268
151.41799927 115.41500092 456.56100464
191.00601196 251.05101013 474.18298340
264.93701172 246.82701111 495.38800049
101.76700592 151.60000610 494.30902100
169.47999573 258.49398804 470.17098999
220.19100952 222.01800537 466.69500732
187.07499695 173.01000977 506.76602173
129.61299133 219.22399902 584.40100098
171.93199158 107.51000214 484.16799927
135.68400574 235.01899719 455.22497559
159.66700745 174.47898865 557.20697021
139.43600464 180.87500000 438.62301636
241.42199707 264.90499878 486.68099976
153.50199890 172.01699829 570.39501953
233.34098816 224.67898560 504.89401245
187.72399902 191.01300049 451.16000366
187.67399597 151.24499512 491.33398438
110.24100494 148.46299744 558.81396484
220.76399231 199.87300110 463.75500488
255.41400146 236.50201416 494.65100098
182.91600037 231.46400452 501.81799316
204.98100281 155.31199646 475.04400635
200.48100281 220.67999268 524.86096191
154.94500732 130.49200439 444.22799683
131.18099976 199.33999634 441.70901489
195.81900024 233.75399780 462.49099731
228.07798767 216.00900269 468.80700684
99.51300049 161.29598999 531.03900146
122.73500061 125.09499359 530.80102539
221.82199097 254.22999573 475.63400269
256.58999634 225.54400635 473.50601196
171.58900452 128.26899719 445.97698975
155.79399109 166.36000061 549.62701416
122.86599731 214.70401001 590.02801514
169.22399902 110.12400055 464.73397827
99.73099518 166.07199097 494.14501953
120.69000244 203.03698730 598.10400391
98.94599915 160.44000244 522.26300049
153.96499634 129.84100342 512.86102295
139.61000061 139.31199646 554.29901123
108.79699707 229.99800110 506.00302124
184.30000305 188.05000305 523.29394531
131.06599426 229.08300781 456.10299683
231.80900574 249.22200012 517.91101074
235.68400574 247.65199280 512.30902100
134.76200867 138.48200989 446.39797974
122.09500122 153.29200745 589.09899902
229.00399780 217.49400330 502.37500000
212.41700745 188.16400146 475.38800049
99.47600555 177.38500977 477.27798462
189.18399048 180.76800537 452.22299194
149.66200256 186.13000488 438.66500854
261.00399780 224.14199829 487.80798340
247.05700684 231.23100281 498.64501953
226.69699097 228.97399902 512.47601318
195.97500610 197.19799805 470.14498901
117.81899261 239.64099121 519.33697510
203.77400208 166.51100159 474.16101074
167.56900024 193.60800171 534.20196533
144.59599304 203.67399597 442.84600830
143.33500671 181.58399963 594.59197998
143.80699158 234.88099670 558.49896240
169.71899414 265.57202148 524.11297607
120.73100281 125.60500336 467.03500366
141.16198730 206.02799988 556.06597900
137.12799072 199.98699951 581.23602295
195.21899414 198.95399475 462.47698975
152.20600891 212.63200378 537.83001709
182.02400208 262.31799316 492.56301880
159.64601135 249.77500916 457.25698853
152.95100403 165.50799561 566.88098145
255.92500305 267.61300659 500.54598999
152.69400024 106.23999786 476.45800781
104.34899902 180.77999878 458.76699829
175.05000305 232.99301147 547.69799805
139.93099976 125.86199951 538.19799805
114.51499939 174.67300415 592.21398926
183.05200195 175.90699768 519.55004883
177.16400146 176.64801025 529.91601562
149.16899109 110.87899780 506.73400879
154.72698975 180.11898804 511.52099609
144.04701233 242.94300842 454.74301147
151.22300720 143.03100586 440.87500000
191.62100220 264.76602173 495.90798950
112.83499908 178.60800171 587.02703857
131.08000183 236.01399231 564.22802734
129.95100403 213.30999756 591.04101562
122.18099976 230.07099915 563.22198486
193.22499084 203.04800415 450.28399658
226.00900269 269.19000244 501.00701904
265.68298340 253.01501465 498.05502319
223.29299927 247.46200562 526.40600586
129.18099976 151.31300354 597.31799316
140.45399475 205.77799988 562.64599609
117.29799652 142.87799072 564.52099609
143.87199402 151.90299988 554.84497070
201.61799622 254.51400757 553.94299316
137.58399963 259.62399292 527.17297363
150.91999817 260.86700439 471.70199585
163.72200012 192.27198792 511.40399170
98.49599457 199.89199829 477.16702271
214.25199890 256.37899780 475.45001221
222.99099731 265.75500488 487.26498413
169.24899292 229.06999207 448.54501343
196.02900696 164.60398865 456.14599609
126.21399689 179.65100098 441.06100464
207.98100281 253.33499146 547.53796387
121.25099945 150.80000305 449.94299316
159.72599792 232.47698975 448.03598022
180.61299133 147.35899353 443.41400146
226.24499512 266.98898315 531.61596680
149.75898743 140.33601379 519.76000977
141.63200378 188.86700439 588.01397705
144.38299561 249.17698669 554.71197510
235.62599182 255.76400757 478.65600586
109.64900208 183.00401306 577.53698730
100.81099701 171.44499207 552.43597412
151.93901062 236.55900574 448.52200317
161.08299255 259.73300171 531.28302002
172.56500244 240.52398682 455.22000122
128.09400940 162.95700073 614.94897461
206.32499695 236.62300110 466.24600220
109.66999817 134.96099854 504.76004028
127.65200806 246.47900391 469.44100952
163.98699951 207.86599731 528.09399414
166.52700806 207.13800049 517.45898438
143.66400146 193.85400391 577.29296875
172.09300232 166.17700195 518.34399414
190.99600220 170.43099976 495.32501221
224.83900452 204.52600098 506.35202026
151.55099487 201.63500977 547.75396729
107.23300171 177.96400452 570.15197754
154.48799133 149.02700806 440.18499756
130.12699890 246.88800049 538.34600830
131.26599121 256.87500000 502.34097290
182.66999817 164.15199280 502.21002197
192.83898926 186.90599060 459.30200195
192.38600159 157.48500061 451.23300171
112.77500153 198.49301147 449.63800049
140.67800903 215.47399902 446.70199585
146.40499878 171.49700928 601.75299072
167.20298767 149.86300659 504.97198486
206.03900146 213.10299683 457.56900024
144.34700012 147.26600647 592.69702148
188.53900146 224.54400635 536.10400391
194.22698975 182.48300171 467.32800293
142.36299133 144.13600159 568.92297363
113.32400513 164.70800781 582.35504150
157.48500061 190.77600098 440.47100830
195.52400208 192.39999390 504.05300903
110.87100220 189.28800964 578.20800781
154.55700684 114.51100159 515.20300293
210.49000549 197.71600342 470.61999512
211.26799011 267.50201416 514.60601807
221.24400330 242.21499634 525.19799805
144.14199829 251.45399475 462.02200317
256.63998413 218.45300293 473.60299683
99.48200226 201.40499878 497.10900879
165.56700134 158.55699158 514.29199219
97.69200134 194.27900696 522.78503418
138.41600037 141.68499756 443.69799805
103.85499573 164.80799866 560.00299072
99.94499969 209.01000977 487.63299561
160.33700562 183.90699768 507.11602783
134.34100342 148.40899658 598.11596680
181.92100525 129.33699036 450.63998413
181.51100159 170.24398804 512.74298096
122.82899475 250.28398132 500.48001099
251.92201233 270.26000977 510.53100586
204.08299255 265.21899414 532.30798340
147.72200012 146.99299622 528.09899902
213.27101135 190.92098999 488.17398071
105.77300262 141.91299438 484.77999878
101.69100189 175.54800415 465.41799927
199.96699524 142.68598938 479.10400391
105.89700317 147.70401001 544.99102783
196.18800354 262.93798828 486.55001831
253.56701660 236.40899658 476.72500610
173.44799805 242.54299927 556.50201416
149.27000427 154.84500122 534.73297119
100.90499878 161.22000122 491.82299805
99.35099792 197.24301147 532.89904785
156.08500671 138.10400391 441.57998657
183.86399841 128.19999695 488.45300293
100.49299622 166.06900024 477.19699097
173.37800598 209.08700562 505.40698242
165.37199402 264.30801392 480.61697388
164.83500671 241.36399841 452.50897217
220.77000427 251.10700989 532.47705078
173.46798706 200.18600464 444.16299438
236.60501099 214.39799500 468.34201050
179.40400696 211.85700989 523.84197998
184.18699646 218.31700134 494.82699585
105.24700165 143.37800598 504.01199341
147.52900696 263.95498657 523.03497314
109.56800079 211.56401062 557.89398193
211.00700378 268.46600342 502.72399902
184.51599121 208.09899902 506.21997070
183.04899597 140.23500061 490.42498779
232.46400452 247.79699707 474.30899048
134.07299805 111.89600372 481.05902100
195.99600220 144.50000000 454.28500366
244.97799683 223.58200073 471.37399292
138.77999878 257.98498535 475.49600220
149.66999817 189.12899780 570.22900391
151.53401184 194.28999329 562.25299072
235.74499512 241.47898865 473.54299927
130.07701111 165.64199829 619.80303955
170.97500610 202.08700562 507.23898315
182.13101196 206.88299561 496.16598511
229.95300293 208.12100220 481.82498169
191.79600525 253.86500549 560.63702393
109.31199646 218.16900635 547.23199463
100.16699982 154.84899902 502.93499756
206.37600708 230.10400391 528.58099365
116.77599335 242.17900085 487.44799805
167.67900085 263.11999512 505.82803345
143.27099609 226.29598999 551.44299316
215.63301086 251.64500427 538.48999023
113.57700348 189.48901367 586.20800781
150.61399841 172.28900146 578.87695312
148.90299988 124.62500000 523.24896240
113.05500031 232.68600464 524.45098877
154.75698853 253.83201599 461.23199463
192.96998596 246.94700623 552.34399414
101.55699921 204.95300293 467.56298828
203.22700500 163.99499512 465.31100464
161.95599365 182.76800537 438.47900391
164.33200073 201.44000244 525.18304443
114.47799683 203.05400085 581.25000000
162.60600281 130.44599915 502.62600708
194.20700073 263.23397827 544.71496582
101.26999664 215.65798950 499.35900879
265.48901367 240.30999756 483.20599365
141.65699768 261.98699951 529.89501953
172.35699463 261.78802490 494.87799072
216.93499756 268.49099731 507.53997803
118.42399597 183.34999084 605.37200928
188.26499939 186.61700439 516.67102051
172.01901245 226.44900513 504.90499878
247.87100220 270.22000122 501.36398315
146.10299683 106.93299866 479.19100952
192.04400635 123.81500244 472.85598755
154.48500061 258.73602295 534.95098877
129.65699768 191.82699585 605.41302490
253.21701050 230.97898865 495.27200317
150.21499634 160.63900757 546.69000244
99.71500397 185.87100220 469.28900146
199.65100098 148.55200195 456.61499023
197.33900452 175.86299133 485.61401367
127.72799683 245.21000671 552.84796143
267.59799194 224.84399414 473.61901855
107.50199890 224.31900024 475.43298340
102.37100220 217.43499756 484.49298096
155.68000793 112.83099365 458.59701538
235.20199585 224.55400085 471.31198120
149.96899414 162.87500000 575.60003662
131.81900024 112.54000092 494.47598267
97.81599426 170.35899353 512.12902832
185.54200745 209.48100281 516.56903076
152.92100525 266.59201050 484.05099487
269.88299561 255.71000671 494.92898560
130.66700745 213.97801208 557.65197754
118.06500244 215.40899658 576.65301514
216.28298950 194.01399231 500.21301270
165.94799805 106.33000183 473.49798584
188.12799072 140.05200195 449.57400513
244.95500183 212.90800476 480.71798706
211.80599976 242.15699768 535.18096924
212.42700195 186.51499939 481.40200806
129.43299866 158.65199280 441.75698853
188.76499939 210.43600464 447.75500488
163.38999939 198.05000305 510.43301392
115.31200409 154.15098572 576.49798584
224.81300354 208.01499939 467.66998291
125.62899017 117.93099976 473.00100708
136.51800537 255.17698669 537.35601807
114.69799805 166.62199402 587.89801025
210.65600586 219.27101135 462.44601440
134.74499512 190.35899353 601.18298340
142.06199646 143.68699646 580.26098633
97.79299927 184.29499817 520.37194824
201.43499756 165.36801147 479.29000854
124.95599365 139.44200134 567.04699707
112.51399994 130.74499512 498.09597778
114.04499817 129.97999573 526.84301758
146.19099426 257.85400391 468.95901489
128.90000916 117.87399292 512.69903564
175.14500427 263.50399780 503.99499512
149.08200073 134.95500183 519.02600098
192.30499268 148.95300293 449.99398804
193.69799805 153.87899780 488.36700439
128.87899780 232.08200073 560.52099609
146.08499146 156.39401245 556.59899902
121.83999634 147.81401062 577.17102051
269.92602539 228.13800049 481.32601929
121.90299988 169.02301025 609.04199219
153.37100220 122.11100006 449.97900391
144.48001099 155.75599670 609.86199951
220.91000366 183.33500671 477.52197266
179.06199646 219.80200195 448.26699829
193.45599365 247.30099487 471.35202026
218.03900146 198.65701294 508.53298950
209.17098999 194.53700256 487.66101074
158.20098877 220.65800476 544.12902832
105.28100586 217.37399292 470.84100342
238.14498901 228.59899902 503.16400146
101.35099792 160.95700073 486.55700684
105.58300018 189.90998840 563.04003906
103.13499451 208.77699280 535.08001709
117.91400146 243.99200439 507.77603149
118.59700012 211.38600159 584.24096680
219.49800110 243.85101318 470.96401978
189.06300354 125.82899475 483.91500854
108.41400146 211.64299011 460.79000854
106.68299866 175.48699951 455.63098145
188.05200195 266.53500366 519.51599121
193.05700684 267.20101929 514.12200928
190.34500122 184.24000549 477.54202271
128.48399353 120.51899719 529.08300781
131.49600220 226.80500793 552.89898682
100.66600037 209.17401123 475.28201294
136.18800354 207.91999817 565.14605713
136.54200745 150.47801208 441.13201904
108.34999847 166.57798767 572.75201416
180.28700256 249.65299988 560.84802246
156.96099854 259.86297607 547.61602783
175.84300232 261.42599487 552.59100342
135.87300110 224.56300354 451.28198242
107.53600311 143.05099487 473.08401489
175.21398926 220.23500061 501.92898560
155.27799988 196.73399353 441.09402466
97.83899689 170.80500793 534.30303955
135.57598877 161.82998657 438.56497192
144.20500183 109.32499695 469.78598022
147.56800842 266.27099609 491.56900024
194.28900146 222.39799500 455.30398560
172.61700439 168.89601135 522.86401367
138.17199707 112.91600037 503.77600098
206.02299500 218.42999268 459.08700562
257.47201538 267.23400879 506.88702393
161.13699341 201.23599243 530.51104736
121.87300110 221.22900391 578.73199463
265.70498657 256.23001099 491.16198730
241.12699890 270.09002686 498.88500977
167.55099487 169.52799988 529.66796875
109.44200134 199.54399109 569.79498291
97.80400085 196.59399414 513.60601807
194.84899902 172.25100708 490.07498169
122.24700165 122.77700043 520.95800781
245.65699768 251.95700073 504.67098999
98.64400482 183.92700195 480.27200317
221.74899292 187.90400696 496.97100830
120.41500092 248.02899170 495.57598877
164.27299500 153.20500183 440.94500732
150.41300964 219.46301270 546.05297852
150.36700439 115.17900085 518.28302002
178.40499878 226.77999878 510.38299561
168.89299011 140.34100342 498.97799683
141.80200195 263.58099365 486.48699951
110.85900116 196.56098938 575.55505371
127.43699646 188.64999390 440.44799805
173.52799988 188.95700073 532.63201904
119.03099823 126.27600098 526.31097412
203.90098572 266.26101685 521.19598389
188.22300720 129.19700623 454.90597534
117.86100006 232.27700806 551.49902344
244.82501221 240.14199829 476.01397705
164.91499329 185.96499634 505.09399414
130.24499512 255.16700745 518.50897217
120.08599854 127.91599274 535.35003662
146.52999878 172.88999939 596.41497803
97.50899506 183.85000610 530.22100830
111.21299744 219.41400146 551.88201904
157.35499573 163.71099854 532.06701660
153.47799683 178.82699585 570.20300293
112.92099762 192.40600586 581.98901367
109.37599945 208.27000427 563.79199219
183.05900574 156.58299255 496.36502075
220.53700256 268.27499390 496.72100830
178.81298828 137.37200928 491.38198853
170.14299011 261.69000244 490.12197876
174.76199341 254.49499512 469.06997681
103.08599854 217.01499939 516.50201416
145.54100037 135.61799622 443.76300049
140.11199951 119.06999969 530.03900146
237.20300293 215.34700012 489.79699707
122.95000458 228.49099731 463.10897827
166.39100647 205.62100220 443.53698730
176.29499817 188.52398682 505.38302612
260.96099854 263.17999268 496.05899048
182.91899109 237.81900024 549.92297363
146.27000427 263.80200195 479.42401123
183.03399658 220.05499268 503.82000732
177.55799866 115.08200073 462.53201294
164.52200317 244.58500671 560.58001709
188.42098999 265.55499268 529.13201904
156.15400696 205.82200623 441.60800171
113.39900208 154.78999329 456.27001953
192.12399292 138.50399780 485.30700684
139.25799561 202.08399963 572.44494629
178.06401062 214.61599731 504.35900879
117.57299805 131.33799744 540.79803467
130.55899048 134.64599609 564.33099365
183.21199036 231.91900635 507.59100342
182.21299744 179.60501099 446.95300293
124.33700562 117.72800446 503.82400513
130.44400024 173.35000610 623.93096924
161.95500183 187.96699524 546.50701904
102.47699738 150.63198853 524.11004639
175.53900146 124.07000732 493.39398193
175.62199402 153.26499939 442.20999146
118.39800262 139.26799011 560.45800781
227.56100464 267.43298340 489.76098633
165.73300171 234.11401367 448.56100464
199.04499817 229.35099792 461.09100342
225.59899902 240.41398621 471.68798828
133.00601196 132.63200378 449.84500122
157.45001221 108.55500031 465.46600342
163.87799072 191.32099915 541.21704102
102.31500244 218.44999695 509.59597778
103.57399750 148.59800720 486.31701660
195.90798950 264.75701904 532.72601318
145.16099548 155.06599426 438.37298584
128.56199646 254.62800598 497.19400024
164.38800049 259.55999756 557.44702148
101.76700592 160.85400391 549.34503174
160.63299561 169.96600342 548.82800293
249.76899719 249.16200256 480.23999023
178.05300903 232.92700195 501.63601685
182.20899963 264.62298584 501.95199585
213.82699585 267.09698486 520.12597656
225.46899414 264.42797852 538.13702393
127.46099854 254.24998474 489.87799072
97.59899902 179.86900330 509.61499023
236.87399292 270.17999268 507.71099854
157.09799194 172.31098938 561.85003662
210.65499878 195.23100281 476.82101440
137.16000366 158.65699768 617.31500244
130.49099731 214.53500366 569.14300537
176.39001465 223.50500488 497.01800537
119.20800018 147.08000183 453.28799438
136.82499695 241.59399414 565.78399658
167.91899109 255.59700012 466.16900635
161.47099304 203.67399597 515.33502197
182.52299500 112.56999969 477.55200195
144.54499817 198.43600464 570.27502441
208.99699402 201.13200378 513.50598145
187.50000000 169.06001282 452.07501221
223.68598938 234.87600708 517.39398193
171.19799805 263.95098877 534.12097168
144.47399902 214.59500122 539.51300049
234.31700134 235.67500305 473.86700439
214.89900208 227.66700745 466.25201416
131.41099548 124.39800262 456.29598999
172.39700317 151.16400146 500.99499512
223.93000793 256.77999878 534.21002197
123.87300110 131.44200134 457.12399292
211.74700928 181.10099792 473.99099731
205.24301147 152.24101257 465.03298950
250.52499390 257.14001465 484.95297241
155.39700317 205.93699646 530.94000244
154.66900635 243.51899719 560.62597656
168.92599487 121.15399933 451.10000610
109.45800018 135.51998901 489.54702759
132.19801331 258.14700317 486.29199219
188.09899902 226.39698792 454.54998779
122.62999725 233.75700378 466.04098511
185.78800964 218.72900391 499.57202148
150.55300903 260.84500122 537.42303467
120.21800232 239.28500366 531.21301270
196.77600098 225.19900513 531.51202393
206.60499573 200.78599548 466.35101318
163.45300293 163.05099487 522.38397217
143.13299561 225.49299622 448.45101929
200.75199890 217.27799988 521.18499756
121.67099762 191.98100281 607.62103271
156.78399658 179.88200378 562.70098877
124.87000275 146.46301270 580.92895508
126.11299896 224.04299927 554.86297607
169.45399475 160.63999939 441.28601074
193.67199707 179.19799805 484.16799927
192.46199036 175.66600037 493.36801147
171.32200623 140.72799683 443.77899170
181.26499939 243.52200317 460.55297852
98.01899719 193.23899841 474.63699341
106.44300079 141.81600952 538.23797607
167.63099670 170.92500305 439.21499634
149.00399780 160.41999817 596.76995850
126.35800171 124.12899780 537.12799072
100.77300262 157.67300415 539.39697266
114.48799896 227.60699463 470.82000732
124.05999756 129.13900757 546.49298096
184.14999390 253.18301392 563.14099121
112.02700043 128.82000732 510.59698486
194.98999023 220.62001038 527.30102539
256.70199585 256.95898438 501.65600586
201.40100098 220.83799744 457.55197144
125.09900665 238.78300476 563.08001709
206.72700500 262.25900269 550.42303467
124.44599915 241.65699768 554.03399658
172.88600159 231.50900269 510.11096191
202.15800476 205.73799133 513.71502686
138.17199707 260.55398560 519.01000977
106.97399902 199.04200745 562.51300049
194.60900879 127.80000305 470.54602051
115.61199951 126.84700012 490.33499146
185.63800049 116.10200500 470.74899292
188.20199585 121.14600372 465.52999878
204.44200134 160.81201172 476.20901489
147.93199158 158.41500854 563.63598633
118.17500305 213.57800293 453.62298584
171.84400940 201.80999756 512.15399170
121.18199921 198.26400757 600.99200439
157.23800659 265.09698486 521.59600830
229.09800720 211.44099426 493.57400513
116.00899506 157.08898926 580.73004150
116.65999603 200.81100464 446.93698120
113.48400116 128.82398987 521.20202637
122.66000366 118.36499786 491.64199829
178.13700867 211.86700439 443.71200562
111.05000305 165.96400452 577.94598389
192.49400330 161.24400330 492.02999878
175.68099976 225.10699463 541.14404297
221.23600769 268.64599609 502.16900635
269.50601196 240.17100525 487.81298828
104.77200317 215.94200134 527.65698242
196.06199646 177.16099548 461.40798950
105.51200104 202.84700012 459.25000000
167.45999146 106.58599854 486.03900146
198.06001282 177.32901001 466.07598877
124.16500092 220.93998718 584.49499512
114.73400116 216.71600342 564.92700195
123.16300201 222.86898804 567.39904785
163.90100098 256.80398560 565.31201172
114.83000183 219.65100098 560.75000000
198.64199829 238.99301147 466.08901978
137.86799622 254.42401123 544.31402588
149.90901184 161.84300232 555.71899414
126.67800140 168.74099731 441.02001953
181.16600037 194.77499390 447.79101562
183.54399109 223.66699219 496.28399658
147.29400635 125.35299683 448.72201538
106.24100494 153.92201233 468.28900146
133.13500977 207.96200562 587.66900635
130.59001160 154.74699402 605.85400391
187.43699646 231.87799072 457.45501709
153.21899414 235.94699097 552.36297607
205.87300110 213.34899902 515.50103760
185.76100159 161.84599304 448.83200073
102.28600311 215.31500244 477.85699463
146.81900024 163.56700134 436.06201172
158.36900330 160.77200317 438.71301270
176.95100403 265.29101562 531.65100098
118.98699951 123.55200195 481.29901123
192.00498962 204.99000549 510.79702759
146.93200684 142.35099792 526.86602783
202.96501160 158.68099976 460.22201538
199.69000244 247.47799683 471.70300293
111.28199768 231.50900269 485.55499268
152.13400269 264.97799683 503.19702148
247.89099121 271.00900269 507.91500854
131.94599915 215.50900269 579.60998535
198.15200806 179.40199280 474.88900757
102.06399536 182.42298889 555.99395752
155.19499207 195.66699219 499.51998901
182.80200195 198.09800720 501.24801636
158.95498657 253.70800781 566.20300293
203.72100830 241.78298950 540.89703369
113.98200226 184.64199829 589.87597656
136.12300110 114.98400116 465.00097656
218.02699280 215.96301270 466.00698853
177.32299805 233.97900391 508.35198975
118.82099915 122.49700165 514.94403076
120.57199860 241.70599365 524.66296387
133.68800354 115.22699738 507.57098389
145.40701294 247.21499634 457.25799561
128.56799316 219.41400146 574.72900391
169.58099365 117.45300293 501.97601318
100.76300049 195.89700317 465.97299194
124.09199524 157.66699219 444.86300659
138.99600220 174.61000061 620.13897705
137.05700684 247.11500549 462.74502563
111.05299377 133.28399658 481.96499634
164.44699097 183.17900085 545.99395752
116.99900055 169.83599854 445.47399902
104.83399963 210.70800781 540.22302246
189.55400085 188.23300171 511.92599487
170.12399292 109.50299835 492.10101318
143.12399292 148.69999695 559.41900635
238.01899719 269.95797729 516.60900879
206.00199890 156.12300110 470.40298462
258.20300293 235.88000488 477.92800903
225.22700500 269.18798828 511.07800293
207.22499084 195.25698853 494.11099243
100.71299744 156.09799194 521.16101074
236.82099915 265.20098877 485.29101562
192.48899841 127.22100067 479.93798828
185.43099976 217.79299927 530.39904785
144.88198853 151.23599243 565.09002686
167.58699036 219.69400024 540.76397705
141.22000122 145.78799438 441.09698486
173.97799683 261.94198608 547.80902100
176.86300659 162.57600403 443.74099731
177.02899170 195.75900269 498.73501587
147.24501038 120.77400208 525.59899902
167.36599731 180.48399353 542.70898438
215.89100647 225.65899658 519.98297119
194.01399231 127.97899628 465.17898560
100.20100403 211.25000000 503.16900635
173.74800110 169.92199707 441.20700073
196.17800903 212.32000732 517.46099854
141.17599487 189.90699768 438.42599487
172.40400696 252.56198120 565.97399902
127.53100586 115.81599426 493.31097412
149.52699280 165.57400513 588.03302002
146.97000122 156.73999023 548.03302002
259.79000854 236.83399963 491.95199585
146.07701111 239.49000549 557.23602295
174.88400269 121.20999908 453.07098389
204.70201111 224.55500793 525.80798340
140.68299866 242.46600342 563.09497070
241.31500244 255.57398987 510.97702026
129.11898804 149.86999512 444.74099731
139.98699951 140.61898804 574.89099121
217.32200623 183.95399475 490.44201660
190.15200806 256.13598633 479.98699951
138.45999146 142.02700806 582.92297363
149.83700562 212.54100037 443.42999268
199.48699951 173.94999695 481.80099487
116.07400513 236.16699219 522.94201660
187.84300232 135.26300049 486.88800049
173.63700867 213.25700378 531.20397949
102.44899750 188.73199463 556.15698242
134.35299683 154.72599792 610.50396729
148.31900024 148.15800476 441.00399780
213.97698975 218.00199890 515.08703613
228.43099976 206.52799988 472.61999512
133.56900024 243.30400085 461.62899780
181.42500305 204.67700195 445.40200806
248.02499390 257.17199707 505.97601318
222.24000549 196.52799988 507.84497070
150.15600586 107.65899658 493.46200562
251.26200867 266.27999878 494.31298828
111.92400360 206.80700684 571.08099365
114.67699432 228.63600159 545.59197998
124.98000336 207.27600098 446.84600830
96.95700073 174.96099854 521.68902588
109.48400116 165.15100098 455.48199463
244.93699646 257.04000854 482.26300049
104.77300262 168.25799561 563.13403320
175.58898926 108.72799683 474.75601196
241.74400330 263.54400635 517.69396973
130.40701294 140.66999817 577.25500488
97.69999695 169.10800171 522.41101074
133.58799744 258.26901245 514.91400146
200.68299866 229.18699646 532.67004395
269.35000610 248.51499939 489.57501221
161.76199341 148.45199585 508.84402466
133.54598999 125.19000244 545.95703125
118.85499573 236.08900452 543.69299316
148.92100525 150.94299316 530.41900635
180.59100342 172.42098999 517.50598145
239.98999023 216.83700562 471.07101440
202.50000000 210.61801147 455.65097046
183.77600098 248.76199341 557.78497314
212.69099426 180.04600525 480.06298828
196.13999939 261.16400146 555.36297607
213.72300720 233.40000916 524.86096191
129.43400574 203.83999634 598.05297852
235.02699280 240.63700867 509.76000977
143.69299316 261.23999023 537.81701660
101.94699860 159.44599915 481.86801147
167.48500061 173.21899414 541.43798828
197.83499146 148.70500183 483.50302124
226.66299438 219.69500732 506.62899780
98.75099945 179.25000000 544.61700439
210.42199707 205.77499390 458.40298462
155.41299438 255.61401367 561.41003418
108.25199890 231.05599976 494.34301758
179.18400574 234.99200439 454.68597412
221.61898804 191.52600098 503.28701782
240.82699585 242.59500122 476.41000366
201.55699158 257.28100586 557.74804688
126.28899384 249.17800903 524.91894531
158.08700562 197.91699219 502.87002563
154.82200623 162.81799316 535.92596436
178.79199219 235.75900269 549.01898193
229.69700623 259.51599121 529.69097900
129.52700806 114.62199402 487.81600952
182.58500671 122.68599701 488.28399658
102.64600372 167.31900024 467.03198242
173.02400208 237.38000488 552.64300537
253.90800476 240.24200439 497.04998779
128.26399231 115.35900116 502.78402710
125.40200043 133.04699707 557.42797852
200.91299438 142.19500732 461.92700195
229.99099731 269.47799683 510.93899536
209.60700989 247.34899902 539.94799805
102.17200470 217.02299500 494.67098999
123.55899811 188.61900330 613.09600830
198.50399780 201.30200195 513.06799316
128.61700439 146.83500671 587.77496338
243.96899414 267.09500122 491.91299438
98.15999603 195.62300110 502.04800415
178.93299866 123.96799469 452.34298706
196.80200195 167.50300598 459.72100830
159.50000000 167.11399841 541.62500000
220.05699158 213.90299988 505.97000122
133.97399902 141.61500549 581.47802734
148.11199951 245.22100830 555.64599609
126.82999420 244.14799500 540.17700195
177.22200012 216.19000244 533.20599365
108.56999969 176.90899658 574.48797607
129.01599121 194.48100281 601.52203369
202.17500305 241.82099915 468.37500000
143.06298828 113.41100311 462.36398315
150.33599854 198.40599060 560.43395996
195.31300354 191.41299438 499.50701904
155.50199890 183.22000122 515.01501465
205.64801025 249.58599854 545.83801270
154.32299805 105.91000366 484.63800049
101.40000153 213.65299988 510.95800781
119.30999756 234.41700745 471.31500244
225.19900513 213.03700256 500.91796875
158.41500854 212.82400513 538.35797119
104.75099945 160.28199768 559.50396729
182.11700439 120.03900146 459.29299927
134.14500427 132.98001099 560.46801758
173.04598999 262.54202271 543.30895996
163.41101074 265.69302368 484.58099365
203.84800720 194.93499756 499.54000854
196.97299194 133.40200806 477.57400513
141.46899414 186.10099792 592.53302002
98.47699738 175.58099365 488.30499268
182.59100342 259.98699951 488.60299683
132.50199890 211.12500000 560.85003662
261.46200562 255.60200500 489.41998291
145.31900024 154.03900146 605.64599609
137.16299438 149.35099792 601.66198730
208.29200745 222.11900330 522.05401611
184.48899841 248.84001160 470.72601318
191.67800903 187.32200623 452.70999146
253.69300842 220.34899902 488.01199341
196.38600159 265.86898804 524.11999512
145.75199890 257.78500366 544.60797119
