ply
format ascii 1.0
element vertex 2048
property float x
property float y
property float z
end_header
83.91699982 211.37300110 510.74301147
263.84298706 376.50601196 468.72799683
131.91699219 357.49099731 561.71801758
215.36499023 256.46298218 489.61700439
118.18800354 306.34399414 464.75601196
172.29499817 376.94799805 482.78298950
82.35699463 286.44400024 555.95794678
161.26600647 286.47198486 538.99505615
156.94599915 208.41099548 487.26400757
266.26599121 303.89199829 469.24099731
211.77899170 325.99499512 508.91500854
179.67001343 299.87200928 460.50097656
225.40800476 386.07498169 513.88000488
82.63800049 268.47000122 493.35501099
215.10099792 346.51699829 453.64401245
121.71799469 351.87701416 501.89001465
125.95899200 248.33999634 520.73596191
139.69198608 256.31298828 468.59802246
177.47401428 372.06201172 536.88000488
101.92900085 324.04901123 584.06701660
98.02299500 327.10498047 535.66198730
163.68299866 328.85400391 516.87298584
171.56698608 246.94700623 509.50698853
152.85200500 338.51098633 468.85299683
223.40699768 295.72497559 468.53198242
246.65499878 338.97598267 485.26599121
112.06999969 225.94699097 481.39398193
82.31800079 247.95599365 533.26202393
139.11299133 314.25399780 562.96099854
199.93899536 284.46002197 520.83203125
213.18400574 383.62899780 472.51498413
97.47299957 307.40499878 499.70098877
119.73799896 280.74099731 543.68200684
178.25500488 260.05899048 472.71200562
275.15798950 340.21697998 459.33898926
197.80400085 361.30700684 506.76696777
232.86799622 292.55999756 504.71801758
142.96600342 368.98400879 527.44104004
130.04901123 214.58500671 508.72897339
181.47599792 354.08300781 458.36700439
147.20500183 290.82598877 456.02200317
109.30299377 270.65701294 472.50802612
172.69499207 298.30300903 509.03601074
86.03099823 285.98699951 520.70599365
244.35600281 333.29702759 453.62799072
153.47700500 337.91799927 547.52703857
108.80699921 296.28399658 568.98699951
199.00700378 281.76000977 482.45800781
243.34500122 372.14300537 491.49099731
237.80200195 368.24798584 454.29699707
115.67000580 351.58300781 531.84997559
196.37200928 325.02401733 463.54998779
144.81399536 365.30599976 487.20199585
125.16699982 332.07501221 478.43600464
107.29199982 200.47399902 496.52001953
80.78599548 239.31900024 502.71398926
106.72800446 343.36700439 560.28302002
165.97000122 378.81799316 510.91302490
85.51000214 314.90499878 559.57800293
204.52499390 343.75100708 484.91400146
159.15699768 237.40100098 477.96499634
248.28300476 285.39999390 480.91198730
106.63300323 227.73399353 516.38000488
151.43099976 259.95999146 523.80200195
187.87300110 267.92098999 503.00598145
190.73399353 243.94400024 490.62500000
154.16899109 226.57899475 507.55297852
289.72799683 316.74502563 469.87899780
211.17900085 305.28799438 492.40100098
105.26000214 330.74899292 509.34399414
195.57099915 384.79098511 495.07800293
244.95098877 311.13601685 490.85699463
177.26998901 351.90600586 519.60699463
95.03799438 248.90400696 481.62500000
221.65901184 321.80099487 458.92797852
155.32398987 313.88800049 538.16003418
225.56300354 350.72900391 498.09799194
139.62001038 318.98199463 458.45999146
94.29500580 269.34201050 540.65399170
125.16500092 333.05599976 574.31903076
133.05300903 199.23399353 488.77099609
218.46101379 271.00302124 510.15197754
156.05400085 366.64102173 549.00299072
136.69999695 222.80700684 478.96502686
174.40100098 269.89599609 523.87396240
187.95600891 317.82000732 510.29598999
175.48400879 224.71499634 492.69299316
242.44999695 310.48397827 463.94198608
96.63500214 287.02999878 484.79800415
201.62899780 367.12701416 458.96301270
171.47000122 321.84100342 465.54299927
164.91999817 275.70501709 460.86099243
88.94699860 302.20800781 580.51000977
140.25300598 295.30599976 548.78900146
223.62800598 278.25000000 485.52099609
257.08099365 354.03900146 453.68002319
129.30099487 278.00802612 463.50198364
239.71299744 383.50399780 471.70901489
88.38299561 303.68399048 535.31597900
263.95898438 326.82699585 473.82800293
155.45498657 348.14199829 525.46502686
103.93899536 252.88800049 528.71301270
160.25799561 359.80700684 471.88800049
201.07699585 297.35400391 466.30001831
118.18700409 245.92300415 473.58798218
80.64799500 261.13702393 515.35601807
187.97799683 380.02600098 515.43096924
255.11000061 357.55099487 476.31100464
140.09399414 275.29598999 534.94696045
216.72299194 390.47500610 493.10101318
109.84300232 317.70001221 484.53598022
232.91000366 327.67401123 498.17098999
194.22698975 338.62701416 509.29498291
83.75799561 228.24899292 524.55999756
93.85299683 222.87400818 492.42498779
121.96300507 312.25799561 575.41900635
180.87100220 290.49499512 526.70300293
190.65399170 378.38000488 472.34698486
171.72700500 311.70700073 525.91400146
184.06300354 280.29598999 466.43499756
242.03500366 389.31201172 502.43801880
201.30500793 324.12298584 489.42898560
199.60899353 300.75698853 508.52502441
159.07000732 309.57299805 455.14801025
136.72601318 365.57400513 505.79202271
137.23599243 348.17001343 477.61999512
144.74398804 242.21701050 515.52404785
216.65699768 367.67102051 507.33798218
141.28399658 335.85598755 562.92803955
96.34700012 315.61898804 518.34295654
129.90899658 360.89797974 541.66503906
159.15000916 255.81800842 471.39999390
271.78298950 359.35101318 465.80200195
103.19200134 285.57598877 554.33398438
118.22900391 266.23300171 531.57501221
216.43499756 291.55499268 514.00103760
233.28199768 350.24899292 450.16400146
112.68000031 288.89401245 470.36401367
89.61000061 285.80999756 501.88296509
125.88299561 297.56799316 560.23504639
167.73599243 356.55798340 536.99798584
95.26800537 330.67199707 568.36401367
195.75999451 341.79400635 456.25698853
124.75500488 230.21299744 516.58203125
157.99600220 374.71600342 495.10897827
226.78900146 309.38400269 500.29403687
103.43299866 209.64300537 511.46899414
159.62600708 374.98098755 529.89398193
171.23199463 339.61401367 466.05499268
253.51101685 384.16201782 482.87200928
218.66600037 364.27099609 455.39797974
139.15299988 239.90798950 475.58798218
178.15100098 383.62301636 499.24902344
194.14999390 258.59600830 479.90798950
204.08999634 273.68701172 499.87701416
114.98499298 337.07897949 495.59301758
210.22399902 342.54000854 503.59201050
147.58799744 274.30200195 461.97799683
133.57199097 302.85098267 456.92300415
232.84600830 389.48199463 486.97702026
120.32499695 210.63000488 486.43402100
239.89399719 354.39599609 488.83398438
119.84399414 349.44000244 570.96203613
228.45100403 295.03802490 488.27600098
126.75599670 360.65301514 518.86999512
106.58599854 338.28198242 525.87402344
266.32501221 288.80599976 477.18200684
104.72399902 301.16098022 479.77700806
117.98200226 352.93798828 551.87701416
203.77999878 378.55398560 509.60797119
146.03201294 212.53100586 502.94601440
250.94500732 296.58999634 468.62500000
174.89799500 240.36100769 483.03298950
213.27899170 308.93399048 466.43399048
179.22698975 334.83099365 516.10699463
80.17700195 299.41497803 566.11297607
83.73600006 287.91497803 539.48999023
178.79899597 367.77401733 467.63900757
104.40000153 340.45898438 543.14801025
165.72499084 291.71899414 456.63500977
257.51599121 301.75997925 483.13000488
144.33799744 350.43200684 553.33398438
96.24099731 265.38299561 481.98199463
95.58699799 239.66300964 523.50201416
256.31799316 321.60897827 460.30599976
186.97200012 365.78900146 525.15795898
124.20600128 261.48098755 468.58502197
226.17199707 378.08200073 464.37298584
93.95500183 327.40701294 552.47601318
147.81500244 323.36199951 552.09497070
82.01200104 272.41299438 528.70501709
263.13000488 342.85400391 471.23599243
107.02200317 308.31500244 580.45001221
275.39398193 322.14901733 463.35000610
234.62300110 375.24600220 505.47497559
157.43499756 328.89700317 532.78796387
135.49398804 260.57699585 525.59204102
83.83999634 251.92999268 493.31900024
150.48699951 372.70501709 509.77801514
79.39399719 243.75799561 517.96801758
154.11299133 323.63800049 463.33102417
186.70300293 291.12698364 511.94000244
108.91000366 338.84500122 575.40795898
92.02899933 288.79800415 568.30499268
91.75799561 300.82800293 515.26202393
213.36500549 288.24401855 478.05599976
230.13600159 275.59899902 500.67300415
139.09800720 331.02301025 468.43902588
157.09799194 273.42199707 531.44097900
87.43199921 317.94299316 574.79296875
191.78700256 310.14599609 463.46701050
161.83500671 223.32499695 483.65301514
209.36499023 332.49499512 456.39602661
179.98899841 237.10800171 501.22000122
252.30500793 370.35998535 458.94500732
124.40200043 346.25100708 487.65200806
251.72001648 322.91098022 483.80398560
123.21499634 320.92199707 468.16198730
113.07199860 346.01000977 514.38897705
168.65499878 298.02600098 532.37402344
188.62300110 273.55599976 517.12902832
132.36300659 358.77999878 492.38101196
123.38999939 201.07200623 500.05902100
237.37199402 287.85198975 471.02697754
198.29499817 349.29901123 497.75799561
163.19499207 216.28500366 498.18899536
153.21600342 298.70001221 541.43695068
179.09399414 259.08898926 513.33203125
111.53499603 242.79199219 521.11102295
83.23799896 299.92800903 550.20794678
259.98101807 335.26400757 456.35900879
88.64199829 237.32499695 490.57199097
82.94599915 224.88600159 502.68698120
158.21499634 249.18299866 516.68103027
184.02799988 332.70401001 464.38299561
227.67900085 333.87600708 453.47601318
93.72200012 207.39799500 500.75198364
139.33200073 229.50000000 511.12002563
101.50099945 235.98599243 480.97198486
146.34700012 308.51000977 549.51000977
125.08599091 233.53298950 476.26400757
199.44799805 315.41601562 500.73303223
143.75300598 367.84899902 541.69201660
243.25299072 296.32199097 488.58599854
167.64900208 229.37100220 503.88003540
154.87399292 353.46600342 542.26702881
116.15200043 324.82299805 581.46295166
186.36999512 250.09199524 502.58798218
192.35299683 269.85601807 471.55599976
108.24400330 273.62600708 539.72900391
83.32999420 273.53298950 509.30899048
227.22900391 308.83099365 465.04400635
141.16099548 210.63099670 484.22399902
105.35500336 321.01300049 497.30899048
172.92199707 280.37802124 532.83599854
173.79798889 314.28097534 512.45703125
165.05799866 344.32501221 516.23602295
117.42600250 219.73599243 511.14202881
157.16999817 368.96499634 481.77001953
214.01600647 387.77700806 506.40301514
228.68199158 391.47601318 499.90100098
200.13200378 384.40002441 480.18099976
95.12200165 219.65501404 515.70001221
103.98100281 212.91300964 491.91799927
210.59599304 274.66699219 487.49798584
227.72000122 365.00497437 499.71398926
125.50100708 290.92498779 461.39898682
223.29998779 336.77899170 501.20700073
172.07199097 377.20901489 524.97705078
252.67601013 370.99798584 479.75201416
190.71699524 271.53900146 485.70001221
149.58099365 227.87699890 478.44201660
233.35600281 341.33300781 492.34500122
107.90999603 254.34500122 475.89901733
204.29598999 273.02200317 513.33099365
189.69400024 351.87597656 514.47497559
85.06199646 276.04898071 547.90698242
213.35400391 302.73397827 505.35900879
202.01000977 332.70800781 499.60198975
188.95700073 258.83599854 492.13598633
127.83799744 289.17102051 550.17797852
82.07599640 260.65100098 536.97094727
149.27999878 351.57299805 473.43600464
196.09199524 355.20498657 457.99099731
131.49299622 343.92602539 566.44702148
197.21699524 369.30502319 517.17700195
234.73599243 322.35800171 458.77297974
223.85899353 266.19198608 494.12399292
246.60299683 346.68600464 451.08700562
196.00300598 285.58901978 468.72399902
261.16799927 314.49801636 476.93301392
89.96699524 316.89599609 545.97198486
165.95100403 260.54998779 520.88800049
166.27099609 374.54400635 542.86804199
159.99501038 237.94200134 510.52301025
146.13699341 305.61502075 456.29800415
170.43200684 357.56900024 463.91497803
183.42300415 302.77301025 516.23400879
212.45199585 373.13601685 462.34399414
251.71301270 380.54998779 467.68600464
96.27500153 298.92401123 489.58001709
131.04499817 323.27600098 568.54101562
145.87100220 201.92800903 492.30599976
145.34098816 284.70800781 541.80798340
226.44000244 387.01998901 476.23699951
212.97299194 355.99700928 503.80895996
183.46699524 381.64801025 487.85000610
277.15600586 310.31201172 470.06799316
92.94200134 315.92102051 532.68499756
179.67599487 313.04202271 461.35800171
88.49700165 279.35800171 490.58801270
235.63999939 285.87100220 493.02301025
213.56600952 316.14199829 501.32400513
94.68799591 313.09100342 583.81597900
92.84500122 254.69300842 534.49603271
184.27600098 249.28199768 481.32897949
116.61299896 290.33898926 556.00299072
135.43099976 204.39900208 500.09100342
78.25499725 223.33200073 514.55303955
161.41099548 347.22900391 466.78601074
167.79499817 264.47998047 467.80599976
207.73300171 321.01699829 461.00100708
140.48999023 362.47198486 554.54998779
223.33000183 323.24499512 505.96701050
167.02600098 246.82099915 476.25299072
263.47000122 365.50997925 458.68600464
114.57700348 314.19598389 473.99499512
149.60899353 248.83000183 473.81201172
130.08000183 247.84199524 473.08499146
166.35499573 353.24902344 524.53997803
154.77099609 341.62200928 536.23303223
236.19599915 303.70300293 495.80099487
114.72399902 207.90199280 508.30001831
92.93899536 297.25900269 503.71997070
235.06900024 300.15200806 466.71798706
137.01200867 284.90701294 457.82199097
245.38000488 388.10198975 490.44799805
128.35000610 274.83300781 535.58599854
175.77999878 286.59100342 460.93402100
135.76200867 268.20199585 463.90701294
265.97500610 315.53201294 465.69201660
202.48800659 379.74499512 469.64498901
123.56800079 220.67399597 481.30599976
209.50099182 357.00900269 456.23001099
162.86500549 330.90399170 466.13897705
147.51400757 370.41101074 498.00100708
100.59999847 326.33297729 520.29797363
81.60099792 257.70599365 503.21298218
99.85599518 299.25399780 577.60498047
242.43800354 327.32000732 489.32702637
114.86499786 255.16098022 525.47698975
206.04200745 386.73999023 489.89498901
102.45600128 279.75198364 477.91699219
101.89999390 308.95001221 488.35598755
129.98298645 313.33499146 461.43499756
163.76000977 319.28698730 529.44702148
245.19799805 358.14898682 450.91998291
255.09899902 337.26501465 477.58200073
102.19000244 262.24099731 536.15100098
224.90899658 281.98800659 508.72302246
236.86599731 316.64099121 496.94299316
226.65499878 286.72299194 475.09701538
256.07699585 308.44000244 466.39001465
115.36900330 327.69500732 485.80102539
189.13301086 385.27999878 504.54998779
189.52299500 293.68499756 463.89300537
190.60200500 366.23699951 461.87500000
134.17098999 282.38998413 542.50598145
135.15501404 304.14199829 559.34002686
143.60800171 252.06300354 521.30200195
173.37599182 301.21200562 521.35998535
268.13699341 352.98999023 456.18899536
240.71900940 376.86199951 462.56301880
100.41999817 318.35897827 507.12698364
222.87001038 354.48797607 451.16601562
154.89399719 282.11700439 458.39501953
168.20800781 302.69400024 455.93899536
186.03999329 320.97598267 466.10501099
192.59800720 296.36300659 519.90399170
129.39100647 361.70397949 530.53497314
260.95397949 366.10400391 471.56301880
183.97900391 343.22198486 458.72000122
204.51199341 290.12799072 512.39196777
92.53100586 282.93600464 552.50000000
154.28900146 264.73699951 466.86300659
248.11599731 349.74899292 482.98901367
155.04998779 327.34600830 544.53302002
167.43400574 379.99499512 497.59997559
194.16500854 327.58502197 508.31002808
187.76600647 282.17800903 524.37200928
118.19200134 353.18698120 521.21801758
127.98101044 307.36300659 567.08099365
213.22399902 267.56298828 499.57901001
118.65299988 274.30599976 468.01998901
206.38899231 364.93301392 500.93798828
165.92599487 368.72698975 474.86801147
218.20298767 378.43099976 510.68597412
175.81201172 361.36300659 531.37097168
224.07499695 298.78500366 506.60699463
163.21000671 307.84899902 531.57696533
181.74099731 234.39500427 489.12100220
154.63999939 374.79800415 519.64904785
271.44699097 335.42498779 468.39801025
207.19900513 333.22000122 488.30300903
180.54200745 375.51800537 475.18200684
80.54900360 238.30400085 528.55804443
157.20899963 337.41198730 525.13500977
145.54299927 268.15399170 528.82000732
198.48899841 252.25099182 487.59201050
178.20899963 271.14297485 466.16500854
215.63499451 279.49600220 516.30902100
103.03899384 222.76799011 486.64901733
149.51499939 217.54100037 483.77297974
193.27000427 274.81900024 495.72100830
82.82999420 308.64700317 571.67297363
245.57200623 321.05899048 461.41299438
127.19699860 360.46002197 505.63500977
150.60800171 316.24099731 456.08999634
79.93499756 233.68400574 511.93798828
202.73199463 311.18899536 465.82699585
235.80799866 386.45898438 511.11001587
155.02000427 299.72799683 453.53100586
168.01100159 312.54000854 461.38098145
188.89799500 300.55999756 507.27899170
235.31300354 285.33599854 481.24899292
243.06799316 378.80502319 499.99899292
180.02600098 324.17398071 513.56896973
267.79898071 328.22201538 458.95901489
111.96699524 238.51199341 478.01699829
91.88400269 308.20599365 525.47003174
87.12300110 261.47198486 485.75500488
115.06400299 349.92797852 561.57800293
155.49800110 372.74899292 540.43103027
270.84402466 348.88601685 466.48599243
229.59899902 362.59100342 450.91500854
195.52500916 273.69100952 507.55899048
177.92700195 380.05398560 512.33294678
214.00000000 388.53900146 483.14300537
134.76899719 242.34999084 518.76098633
219.06500244 266.97702026 484.83801270
81.83900452 271.23199463 539.18200684
168.60800171 217.04499817 489.25701904
95.97799683 229.73098755 518.41900635
194.04800415 309.71701050 507.68099976
116.36399841 202.05599976 491.63201904
256.83599854 287.00799561 473.28201294
141.52799988 325.52999878 564.01000977
142.69499207 356.27200317 481.12802124
80.75199890 259.49600220 525.56799316
117.74900055 301.33502197 570.21099854
100.74300385 333.05099487 577.98999023
182.04598999 374.92401123 526.29998779
87.40899658 294.68399048 525.96197510
130.92799377 210.54299927 484.19000244
139.55200195 219.74099731 508.05200195
80.47200012 250.24700928 510.13601685
99.44100189 335.49499512 555.48297119
204.44299316 347.11700439 455.47100830
89.23999786 289.53100586 511.68298340
126.89099884 357.84997559 551.12097168
120.32300568 336.74200439 486.07699585
169.83300781 231.56001282 483.68200684
133.22399902 336.81900024 474.44097900
143.32998657 341.19299316 471.15899658
146.62901306 333.73699951 554.55700684
235.57501221 362.17001343 493.72000122
132.66200256 322.69497681 464.83297729
102.14199829 278.60098267 546.11596680
119.18000031 323.07601929 477.62997437
95.56500244 309.17700195 510.57601929
211.26300049 299.29400635 468.70199585
203.75900269 384.31100464 500.95397949
124.59799957 260.19097900 526.60205078
155.02700806 210.39498901 497.58200073
112.89399719 349.29598999 543.98297119
85.49500275 293.13900757 574.56701660
99.97399902 200.55999756 504.60601807
149.48699951 359.27899170 550.68096924
88.31299591 215.78599548 500.28698730
245.82398987 360.44897461 483.54000854
235.79100037 339.67199707 453.04998779
122.18199921 238.50000000 521.44903564
89.56299591 322.98999023 563.71099854
197.77500916 347.75500488 507.61901855
262.85299683 354.30099487 471.00500488
111.31300354 217.20899963 486.77502441
182.39100647 309.73602295 508.80401611
112.15600586 283.92199707 549.21301270
135.56900024 364.37197876 521.43902588
164.25399780 364.38598633 543.93603516
227.08000183 371.36502075 457.25100708
93.95000458 325.32998657 578.48699951
139.46099854 349.08999634 561.75103760
174.42700195 347.79800415 461.05398560
152.34500122 278.95199585 538.01501465
222.25199890 288.05801392 485.24401855
203.09300232 306.30999756 500.56701660
121.94100189 357.41000366 536.62500000
166.63700867 320.01599121 519.85101318
111.12500000 299.21099854 472.67401123
105.24199677 289.04199219 476.91598511
120.11499786 341.23501587 576.20397949
199.60699463 333.18399048 458.59399414
94.82800293 275.27899170 484.47399902
165.14801025 268.54598999 526.39196777
175.85699463 251.66401672 476.88201904
94.03800201 207.45100403 510.80798340
113.42099762 261.19699097 471.88601685
221.86900330 303.30801392 494.63800049
152.53298950 361.27297974 477.42901611
98.27799988 331.56298828 544.15899658
278.15899658 331.48397827 462.81497192
257.91201782 291.07800293 481.88497925
124.70299530 321.80899048 575.54101562
202.07501221 277.43899536 490.80398560
136.52600098 365.96899414 535.73797607
103.56999969 236.31900024 519.21704102
107.36199951 337.92901611 515.26599121
142.50401306 367.94000244 513.00500488
203.74800110 288.37799072 473.51800537
254.85301208 310.87600708 483.86999512
225.05400085 345.22198486 451.29901123
163.56900024 375.27401733 487.41201782
82.19000244 271.67098999 518.57196045
111.14999390 337.59100342 504.25100708
106.42799377 218.22999573 514.13800049
184.48600769 342.68899536 515.53601074
196.02101135 324.03799438 498.89401245
170.99699402 237.95098877 506.00302124
108.61299896 317.37701416 583.87200928
89.66399384 242.87500000 530.19000244
151.00599670 235.20399475 511.18701172
206.62400818 318.89501953 495.18200684
159.40499878 377.26101685 504.36801147
258.96200562 377.34899902 476.70001221
94.88700104 231.55599976 485.92599487
101.19400024 337.49801636 565.95202637
85.44699860 274.70498657 499.72998047
231.65400696 277.77600098 490.68298340
260.26202393 296.39398193 468.50201416
196.79299927 347.82098389 488.15600586
84.72699738 286.34899902 530.35699463
174.42500305 330.64898682 466.13500977
110.56099701 328.92297363 496.32702637
181.80899048 267.26699829 517.55902100
218.50100708 331.24200439 455.52798462
157.71499634 353.88400269 532.36596680
133.26199341 351.80599976 485.10400391
173.85501099 289.53701782 533.23199463
169.91400146 377.41400146 533.92401123
168.11099243 255.68299866 473.41098022
115.78000641 232.63099670 518.49902344
150.18499756 237.06599426 476.18899536
88.25500488 245.95700073 487.56597900
92.54799652 291.82199097 495.65600586
143.65200806 264.72500610 466.93600464
185.50999451 258.75500488 505.33300781
120.26100159 354.94500732 510.36102295
174.13600159 341.86398315 518.90997314
255.93298340 342.80599976 453.22998047
106.93500519 290.27301025 562.40899658
225.56999207 370.83200073 506.36898804
223.83500671 390.39801025 486.07098389
256.43200684 348.24401855 474.21600342
106.02000427 245.81900024 478.44100952
172.04699707 365.10900879 539.30297852
210.91101074 376.50100708 504.35299683
155.49899292 217.74700928 502.87301636
121.74399567 283.27600098 464.48901367
99.74300385 257.41101074 479.46398926
82.45899963 288.66101074 564.71997070
108.62399292 309.29101562 480.11599731
236.84500122 370.82601929 497.92999268
85.77600098 310.63500977 550.91601562
111.27600098 345.95800781 525.60101318
85.30899811 232.78999329 497.59399414
204.76899719 356.25799561 499.17901611
117.85399628 295.00500488 466.28201294
266.21899414 341.70498657 455.80300903
178.93399048 293.15899658 515.93695068
194.73899841 293.15600586 508.53799438
171.19500732 255.16200256 516.02203369
162.22000122 295.34500122 538.28302002
248.60499573 379.36401367 491.09201050
110.38299561 260.31698608 531.23095703
102.20299530 334.55200195 532.70300293
140.05699158 366.31500244 495.30300903
187.50500488 333.01498413 513.31298828
127.07300568 223.23001099 511.54000854
131.61100769 335.18002319 568.09503174
181.22999573 275.60101318 524.07403564
86.68599701 221.60198975 519.41699219
221.05699158 264.79797363 502.77102661
246.27299500 386.96301270 478.55401611
153.07901001 316.32901001 546.38299561
171.18899536 324.62500000 513.70196533
98.16699982 287.08801270 562.16699219
82.41500092 291.41198730 547.98504639
116.94400024 273.17602539 536.89099121
196.67599487 378.62597656 516.11102295
229.86300659 318.18301392 502.85296631
209.28399658 334.04299927 506.29400635
145.45700073 323.61401367 464.99801636
108.90200043 331.50500488 580.93896484
191.51901245 382.61801147 480.39199829
247.99198914 288.97100830 471.87997437
192.38899231 360.20700073 515.07995605
81.88999939 303.84600830 558.73498535
195.13900757 374.17797852 466.09301758
271.72799683 322.50000000 471.30700684
268.35501099 295.25399780 471.62197876
253.39001465 328.70800781 456.13299561
139.24301147 276.47299194 460.57800293
140.40899658 231.34001160 476.72900391
120.33899689 344.88699341 495.25897217
183.90400696 357.54299927 520.17095947
206.19499207 322.55798340 503.17300415
202.22698975 341.35897827 498.61599731
116.37799835 344.45700073 503.11599731
125.70400238 301.09301758 460.20300293
80.32800293 250.85499573 524.65997314
193.19898987 278.13800049 474.07699585
228.94200134 378.46600342 511.60299683
146.22099304 281.93499756 457.96798706
109.01300049 344.48400879 568.57196045
85.71700287 297.60000610 540.88702393
125.25000000 202.97900391 488.56402588
186.20599365 256.83297729 476.95300293
134.85099792 253.14099121 521.20898438
235.74000549 330.26998901 455.42202759
136.93701172 363.92999268 545.69500732
150.29699707 371.88598633 533.57397461
108.29199982 202.62199402 505.74499512
234.24301147 294.88800049 496.50897217
210.50498962 365.63800049 457.89001465
180.87600708 362.23199463 461.34399414
153.37799072 307.17401123 544.67303467
220.95700073 358.05801392 501.28198242
127.35099792 267.78701782 530.73498535
85.16699982 280.80499268 513.88299561
165.28199768 377.89099121 519.72802734
170.56900024 334.74002075 515.66302490
267.78900146 367.22601318 465.92199707
207.13299561 284.56198120 482.70498657
207.55999756 278.69097900 519.09503174
149.19100952 343.08300781 552.86901855
233.93099976 284.17300415 501.24801636
112.65700531 280.39801025 469.33697510
103.81499481 264.61398315 477.29598999
232.52999878 352.19000244 493.35797119
87.06700134 307.12197876 543.22796631
123.86100006 354.68899536 561.15698242
130.07199097 343.95797729 481.68499756
263.47399902 305.19900513 477.19201660
190.00199890 349.41000366 456.66302490
157.03601074 245.47299194 476.25198364
161.50500488 319.42999268 463.32601929
248.25799561 304.40399170 486.85299683
125.70899963 207.25199890 505.39202881
82.72299957 278.71899414 534.30200195
281.67401123 318.61999512 468.12200928
99.73300171 293.78500366 571.16198730
132.82600403 233.75999451 514.42596436
137.36300659 211.85700989 505.50598145
147.93600464 292.74099731 544.25195312
82.31499481 266.76602173 501.61499023
163.28500366 283.66198730 458.57598877
180.68699646 297.02499390 506.70898438
87.61299896 310.85800171 579.83203125
217.97900391 378.42898560 466.28201294
178.98799133 250.00798035 506.97302246
216.08399963 348.14599609 501.36297607
111.52500153 347.49298096 554.34802246
147.60499573 331.97299194 468.40100098
152.69898987 370.21099854 488.75799561
174.09899902 380.04800415 492.50601196
96.29800415 320.85800171 526.82800293
128.10499573 326.37100220 472.18798828
101.01499939 313.73300171 495.56298828
155.50999451 291.76397705 455.92199707
185.89599609 238.41999817 495.49801636
117.77999878 254.17199707 470.91497803
88.86499786 235.43399048 525.94500732
175.05599976 305.40200806 512.63397217
131.78601074 296.88800049 554.44000244
133.07699585 260.63998413 466.00402832
207.92199707 297.41400146 510.39797974
191.89900208 373.78201294 521.68902588
202.39700317 367.98300171 508.46499634
270.28900146 314.02297974 472.82299805
222.91299438 290.08401489 509.07199097
184.91900635 264.76400757 471.46099854
234.36799622 387.66299438 478.41400146
255.76400757 362.16799927 454.02801514
161.47999573 325.79101562 524.19104004
150.61099243 256.53698730 471.11801147
83.09700012 244.29899597 496.28601074
170.33900452 221.70700073 498.33700562
218.90600586 339.21600342 453.62500000
103.07399750 246.14300537 524.13305664
141.55299377 298.83798218 456.07000732
221.34300232 391.67898560 503.51296997
188.02000427 301.08700562 460.74899292
98.34600067 305.94799805 582.23699951
101.33200073 294.12399292 482.19601440
157.15800476 273.20700073 461.44100952
149.36999512 205.67199707 485.92401123
257.20001221 328.11801147 478.20800781
127.96999359 315.22000122 569.14996338
150.96600342 350.04498291 548.66198730
89.19400024 269.55999756 485.58999634
107.72100067 342.39599609 532.76098633
242.86199951 302.67001343 466.04299927
91.34600067 261.43701172 538.72698975
175.43600464 230.44799805 500.59597778
144.46899414 317.77099609 558.02398682
246.78500366 365.31298828 454.32400513
161.06900024 339.28997803 468.27999878
221.37100220 315.54498291 504.49697876
188.01100159 266.66702271 493.86199951
228.10700989 391.27798462 508.32803345
135.07301331 270.10598755 531.08001709
172.63400269 276.60501099 463.02899170
153.41799927 266.95700073 527.25897217
115.69999695 317.04699707 579.43096924
111.14899445 267.39199829 535.54998779
161.03900146 224.17799377 504.12200928
236.37199402 358.25198364 451.08398438
200.38099670 339.98501587 490.68200684
191.31599426 333.63598633 461.13101196
79.16600037 235.44999695 519.73803711
220.95201111 314.90600586 462.98501587
192.62899780 318.70401001 503.83401489
216.27900696 264.18701172 492.44601440
193.94999695 251.36300659 494.13101196
152.46998596 243.44400024 513.86199951
173.25300598 371.92199707 475.01400757
217.40800476 310.11099243 497.77200317
196.46200562 275.05001831 516.86798096
236.30599976 333.09899902 493.40298462
140.42399597 304.02200317 552.41796875
132.61300659 291.71600342 457.88000488
117.86799622 246.71598816 523.94903564
219.15400696 303.94400024 468.45999146
120.04899597 355.57400513 544.65002441
95.04100037 330.64801025 560.41400146
172.74400330 381.34100342 504.61602783
131.42800903 228.75000000 478.98901367
242.35400391 283.52999878 475.98901367
209.23200989 388.65100098 496.89901733
92.78400421 276.02999878 546.10699463
80.58799744 218.99198914 507.43002319
117.12599945 295.22698975 562.21899414
196.39700317 290.59402466 516.04095459
236.17100525 290.91098022 486.79797363
249.28500366 314.58200073 464.02999878
232.09199524 381.81100464 468.03097534
196.27600098 316.32901001 465.44900513
249.33999634 292.43902588 485.40802002
165.98400879 249.01199341 515.34100342
138.58700562 308.93200684 456.91000366
184.17700195 264.83999634 510.45196533
202.97399902 311.96401978 494.38299561
109.19599915 324.60299683 489.58297729
175.09899902 306.26199341 460.87301636
132.55999756 362.90899658 499.07199097
141.83300781 247.02101135 473.64102173
241.63400269 319.82800293 491.50799561
216.57901001 290.55899048 471.28701782
100.23000336 203.96299744 497.55297852
157.54200745 322.04800415 536.58099365
238.26600647 346.70999146 489.47598267
126.96500397 254.16499329 468.77499390
174.64601135 262.25201416 518.92797852
164.45700073 275.91299438 532.29803467
109.09500122 206.80799866 492.31600952
205.10800171 348.34100342 502.49499512
114.59700012 197.37400818 497.61001587
233.58399963 315.02999878 461.14501953
84.88000488 315.14498901 567.90295410
161.80198669 336.40997314 516.85705566
144.46899414 369.51300049 505.09100342
126.69199371 197.59201050 493.95700073
247.28399658 367.92901611 484.94799805
125.09299469 268.76800537 466.11199951
101.04199982 271.62600708 479.03399658
174.08900452 295.63400269 526.67303467
127.54100800 241.11999512 475.94601440
151.41999817 252.83900452 520.79699707
143.96501160 261.88201904 524.60198975
207.52301025 340.07901001 456.12600708
228.78298950 300.07897949 498.13198853
125.15099335 350.88900757 494.86300659
137.45999146 288.28497314 546.20898438
211.78401184 268.70999146 507.08197021
191.32299805 288.94799805 523.49102783
113.60900116 305.37899780 575.28198242
121.94999695 357.59402466 528.93798828
94.16600037 238.96299744 483.99902344
83.92299652 278.47702026 521.68798828
187.73699951 372.56600952 467.35900879
264.27798462 296.98397827 477.89401245
145.64498901 300.85098267 547.76696777
227.92900085 325.25399780 456.15197754
110.15799713 306.76901245 471.82000732
117.76200104 233.52799988 478.61297607
97.51200104 248.39199829 528.88696289
195.77099609 383.72399902 508.01800537
147.70600891 222.84899902 505.88800049
169.55799866 224.43200684 486.43099976
208.69099426 385.54299927 478.39401245
87.59299469 253.45399475 486.24600220
137.65100098 330.04299927 568.80303955
83.64500427 259.50500488 494.26000977
171.35499573 366.61898804 469.86700439
162.00900269 214.81298828 486.15802002
185.35700989 272.26599121 468.56500244
211.22200012 286.56701660 516.46203613
122.53900146 213.28898621 508.81100464
204.07199097 374.51101685 464.36199951
158.04399109 303.75299072 538.45501709
155.78800964 335.30700684 540.79803467
158.20401001 229.99000549 479.15899658
154.34400940 288.67098999 541.10595703
94.60099792 213.11399841 495.87899780
80.16699982 248.00000000 502.93301392
262.23599243 335.81201172 473.80398560
89.20700073 294.36199951 518.19000244
182.77099609 287.25100708 463.67999268
152.26901245 344.26501465 543.66302490
135.05299377 352.83801270 566.72796631
196.36399841 355.09500122 511.27099609
217.47100830 282.11999512 483.63800049
187.06600952 384.71798706 497.35900879
138.66600037 361.01699829 487.08901978
216.73699951 333.97900391 505.52899170
274.23199463 353.10299683 461.30200195
142.00399780 309.92401123 557.57397461
118.48500061 334.52499390 579.04797363
140.83999634 342.76501465 558.02899170
114.17800140 345.66799927 575.31201172
179.47299194 378.52999878 520.29504395
144.05599976 221.86500549 481.11999512
250.18200684 330.10699463 484.98098755
234.33299255 390.32199097 495.19100952
233.57400513 375.52899170 460.99697876
229.28099060 334.30798340 497.56301880
91.37400055 286.19000244 490.13998413
93.26100159 320.25799561 540.23400879
99.98200226 321.63699341 513.76098633
196.25300598 384.77502441 486.48397827
252.39399719 336.34701538 453.95599365
162.98699951 268.86001587 464.29501343
159.94999695 349.54898071 519.78601074
182.13699341 243.20300293 484.91900635
90.40900421 229.37199402 492.99499512
105.33699799 228.91200256 481.91897583
190.92599487 248.93699646 485.20300293
166.09500122 373.17700195 480.82400513
153.23999023 373.81100464 502.30300903
106.85800171 300.32501221 574.82098389
235.58200073 307.85302734 463.78601074
140.76000977 236.43499756 513.11199951
247.77198792 318.01901245 487.61901855
157.91799927 353.34100342 468.90197754
243.81799316 294.79299927 468.51998901
195.13000488 277.26199341 486.99502563
118.09600067 313.91799927 467.55798340
161.76399231 298.79998779 456.26300049
118.49900055 226.07899475 514.66497803
168.81599426 304.95001221 527.84503174
228.27400208 283.88101196 486.14697266
203.82800293 327.64398193 460.83798218
126.91000366 280.91699219 542.26702881
178.75599670 321.10900879 465.59899902
250.85299683 343.40100098 480.66500854
207.50300598 312.09701538 500.09899902
168.08299255 284.16500854 536.75000000
87.68799591 223.62699890 497.31100464
239.48001099 339.02001953 489.16900635
189.10099792 325.86999512 513.22503662
138.77900696 342.01898193 565.83203125
241.08499146 326.83398438 458.92999268
230.07800293 292.94799805 469.17797852
259.98699951 371.47399902 460.87200928
147.13700867 274.49600220 533.45800781
178.76200867 339.80798340 462.40298462
159.55999756 377.04699707 513.76202393
80.65800476 293.07199097 558.29901123
93.54399872 293.55499268 574.89099121
131.44200134 363.61798096 514.23699951
217.42700195 298.05401611 509.34201050
160.23199463 231.06999207 506.13397217
173.16099548 355.06201172 526.13403320
221.25599670 373.68099976 461.45098877
248.80300903 375.93298340 462.98501587
262.01699829 358.77200317 455.93301392
178.83299255 283.43899536 530.09497070
189.74398804 359.96697998 458.45800781
184.60099792 307.39999390 461.17202759
176.41000366 375.63101196 530.72900391
89.62800598 310.90100098 537.67504883
80.03299713 254.58198547 518.52099609
138.90199280 200.80099487 493.58300781
171.76699829 293.43499756 515.79901123
188.57499695 256.90698242 499.02499390
193.98200989 280.45700073 521.25402832
111.00599670 346.95700073 537.20202637
229.00299072 358.62298584 496.73300171
107.26300049 327.93701172 502.58898926
172.70599365 292.63497925 458.68301392
154.63900757 345.58801270 468.36502075
144.87800598 206.90100098 497.33599854
88.05400085 208.96301270 504.79299927
249.71899414 305.21200562 466.36798096
82.41799927 302.28201294 574.85900879
274.25399780 315.82800293 466.44299316
125.31999969 343.00802612 571.67199707
117.02899933 202.10400391 503.09802246
82.42300415 281.31600952 541.83197021
201.41200256 335.37997437 484.75900269
82.08899689 282.39898682 549.11999512
210.84399414 378.94799805 467.70199585
252.99000549 384.92700195 475.82299805
91.58399963 213.54299927 513.52502441
191.42900085 265.65798950 477.21499634
227.44799805 272.60699463 493.13101196
158.97099304 259.87802124 521.92401123
227.37599182 328.45300293 502.52801514
240.97299194 387.87298584 484.90597534
191.81500244 303.64199829 512.94702148
99.23300171 327.20101929 527.95001221
154.13301086 222.52499390 481.79901123
180.73199463 243.98899841 503.69799805
171.98799133 308.97201538 517.90100098
88.95300293 284.89300537 558.25903320
257.81802368 376.85400391 465.10299683
108.94300079 324.52801514 584.06402588
213.03201294 316.91598511 463.12399292
159.27400208 280.20501709 536.51397705
81.27000427 265.80700684 532.27502441
196.48300171 304.93301392 463.57400513
143.49900818 369.46099854 534.87097168
203.75299072 303.83102417 466.16699219
224.94700623 342.86599731 498.16500854
224.50000000 270.47399902 504.99398804
190.90600586 344.10000610 513.14196777
165.06600952 242.73200989 511.01602173
164.55200195 354.99899292 466.69302368
202.46299744 350.75500488 485.32000732
240.47698975 361.72598267 488.76800537
89.22799683 301.66101074 528.69799805
98.44300079 215.12399292 511.58099365
160.51499939 358.59899902 542.97003174
123.62699890 311.00698853 463.02801514
138.76300049 358.70001221 561.60900879
249.75199890 374.99301147 485.81298828
127.97599792 254.59098816 522.99102783
146.08099365 327.66000366 557.86901855
105.39700317 318.15902710 489.84500122
210.25498962 271.30200195 494.54598999
265.14102173 322.34201050 461.49899292
192.14999390 365.17300415 519.90496826
190.03201294 261.07800293 484.88800049
182.85400391 367.74398804 530.36303711
118.92099762 226.17700195 480.45401001
272.61297607 333.60299683 459.26300049
142.93199158 202.92199707 486.12402344
168.04400635 291.88098145 536.15399170
110.76900482 249.17698669 523.64398193
182.79100037 383.40802002 506.53796387
103.03000641 332.46801758 524.78698730
258.55700684 314.13598633 463.38800049
130.53799438 284.01602173 460.34600830
99.72599792 273.40499878 542.28302002
148.51400757 371.89297485 520.85296631
179.76998901 379.06399536 482.65600586
81.36700439 255.99301147 531.44702148
219.66799927 386.43301392 477.22698975
88.15100098 270.20498657 543.60198975
228.27499390 301.13299561 466.96002197
210.85198975 273.89401245 515.14001465
126.23499298 356.36401367 499.37500000
129.58499146 237.88800049 519.01501465
215.61700439 301.48101807 488.84500122
160.20899963 210.38499451 493.12200928
253.26499939 349.07299805 450.94000244
169.67999268 348.63598633 518.82598877
121.79199982 306.88500977 571.21697998
162.96600342 254.71699524 518.99304199
166.37500000 361.21197510 468.82400513
244.94799805 380.04898071 467.05499268
241.77799988 303.77999878 491.90499878
227.27101135 318.22198486 460.34301758
161.23500061 313.16900635 460.50097656
112.20899963 248.25799561 475.82598877
134.00700378 308.86199951 564.09100342
236.58200073 391.19198608 506.02502441
241.07598877 352.77200317 451.38201904
196.77400208 337.91000366 500.72698975
215.94299316 273.99700928 483.38601685
165.61799622 235.80599976 480.50201416
253.39099121 364.52297974 477.89199829
158.36000061 341.76800537 520.08197021
215.79499817 325.71499634 458.34500122
259.51498413 328.04901123 458.92599487
159.41900635 313.39199829 532.34100342
181.30398560 317.55599976 511.44998169
102.60599518 311.91500854 584.06799316
196.09400940 362.23999023 458.48199463
89.51200104 321.57400513 557.12298584
150.02700806 369.38900757 543.59399414
285.16198730 311.82501221 469.34597778
86.57400513 282.39199829 507.49395752
168.23500061 348.01199341 463.68499756
255.88899231 317.77200317 482.57601929
132.97300720 217.74198914 481.34197998
109.55000305 212.42800903 511.48800659
219.37500000 387.39898682 510.44000244
257.91799927 381.50000000 471.54000854
90.37200165 301.27999878 521.80395508
205.48098755 302.76300049 505.99496460
143.59100342 348.08401489 474.00500488
147.26300049 361.91201782 481.50900269
210.83000183 304.93499756 499.57098389
136.33699036 365.81701660 529.05700684
162.30900574 375.79000854 535.96301270
186.48800659 291.68298340 519.79797363
223.02299500 383.36499023 471.83297729
89.27700043 249.08399963 534.01000977
120.30400085 239.21400452 476.25299072
79.26200104 228.07000732 519.12396240
113.69699860 211.29299927 488.68701172
175.44799805 230.23300171 487.00399780
79.99099731 243.70298767 511.25299072
151.62300110 331.04699707 551.07897949
238.05200195 310.07400513 496.28399658
221.12800598 285.71298218 478.65701294
211.55099487 311.79898071 493.66598511
189.75099182 271.05599976 509.50802612
99.76100159 313.93600464 502.22201538
79.00299835 228.20500183 508.31402588
216.75700378 353.49200439 453.53698730
189.89401245 326.13198853 464.39599609
125.69299316 349.62200928 567.85400391
81.21299744 265.85702515 510.74200439
106.81000519 276.87899780 473.84301758
118.59700012 264.98602295 468.51797485
183.00000000 294.63000488 463.39898682
245.34899902 370.78402710 457.74002075
84.97899628 273.44097900 488.88098145
156.33399963 329.91702271 466.25500488
110.47699738 232.18399048 479.17800903
153.91400146 349.09899902 534.84204102
92.65500641 322.87899780 546.63702393
251.69400024 351.46499634 477.72698975
123.23799896 284.79901123 547.51800537
246.35699463 385.84100342 498.88598633
160.08900452 375.52401733 523.37402344
125.50400543 338.39602661 482.41601562
239.29501343 382.34698486 507.40402222
186.00801086 314.97601318 463.49798584
82.32299805 215.65599060 515.42401123
108.91400146 279.71200562 545.40100098
203.05999756 355.88397217 456.19000244
117.35299683 217.46000671 484.28601074
134.66499329 224.96099854 510.61499023
80.82099915 294.11798096 570.11499023
132.95599365 237.49800110 476.33401489
155.62300110 216.06799316 485.52297974
208.89799500 291.65301514 471.23001099
179.35000610 298.73999023 520.55999756
114.80200195 334.74697876 489.51400757
226.49099731 390.54800415 493.83801270
94.92900085 298.87597656 497.73400879
180.15299988 359.54998779 525.10101318
174.59700012 316.49600220 463.51199341
104.43899536 332.14700317 515.76800537
210.08900452 369.86801147 502.97998047
155.33599854 317.64797974 461.13900757
173.35099792 275.45700073 528.61999512
264.39700317 289.66702271 471.04098511
185.98599243 243.38699341 499.93099976
218.54400635 304.50201416 501.88296509
147.89299011 315.82998657 550.24597168
127.70399475 327.32901001 572.64501953
223.21000671 275.44702148 508.94396973
182.09700012 232.77400208 496.89001465
176.21499634 357.66799927 461.00198364
89.20100403 281.16699219 497.38897705
100.94899750 301.78298950 486.14199829
103.51999664 337.69400024 572.02398682
243.50500488 289.74301147 486.04101562
244.53300476 345.36199951 486.08200073
101.14900208 334.84301758 539.06298828
96.91799927 319.99499512 583.87896729
217.25900269 322.59698486 508.94702148
274.41098022 329.49398804 467.66598511
190.89700317 246.63099670 497.33401489
91.24600220 319.53799438 579.71502686
83.46799469 310.29299927 563.55902100
169.62899780 284.22900391 459.41000366
191.79399109 273.84201050 479.80200195
155.31500244 359.15399170 547.98901367
129.66500854 353.33300781 490.31698608
149.12199402 268.36199951 465.72198486
91.78200531 324.83898926 572.47503662
195.44898987 381.69299316 475.00500488
200.17999268 320.50500488 494.58300781
161.34199524 371.48202515 545.55499268
111.23899841 341.61697388 510.12701416
144.44599915 252.17700195 470.93099976
242.24600220 389.64797974 495.78900146
120.83800507 328.64300537 578.27502441
261.10000610 346.50900269 453.75500488
85.88600159 255.59397888 536.21801758
208.94700623 351.18402100 453.52301025
99.26599884 219.54800415 490.64801025
102.22800446 250.90399170 478.91400146
179.38200378 276.97399902 463.70501709
122.39799500 270.71801758 533.42095947
198.96499634 306.35198975 505.50198364
220.65100098 261.36199951 487.31802368
191.69099426 273.22702026 501.64901733
177.35000610 246.58000183 480.34997559
152.86799622 206.12100220 493.44000244
80.88899994 265.94201660 520.92602539
188.33898926 285.98898315 466.41098022
211.22300720 362.60797119 504.28701782
259.74200439 320.57601929 477.92498779
179.41500854 345.39398193 518.16699219
210.03399658 383.34701538 504.29898071
98.87699890 255.48500061 532.79498291
203.32699585 383.45101929 474.81799316
145.66198730 242.04200745 474.24600220
138.99398804 247.76800537 521.48803711
259.98101807 302.67999268 468.21298218
268.99002075 341.21398926 468.06201172
186.66400146 379.94500732 477.40798950
106.44000244 312.25399780 485.51300049
98.07900238 281.88897705 549.73205566
114.07999420 302.45001221 468.16900635
132.48098755 360.67102051 551.64300537
205.22000122 329.26498413 506.53701782
223.07299805 272.19998169 488.65197754
237.80000305 345.98498535 451.01498413
252.52301025 297.58798218 483.78198242
138.72900391 323.36999512 466.24899292
218.22999573 261.05300903 497.50799561
149.14199829 371.68899536 527.42199707
134.03900146 278.30801392 537.76196289
100.98999786 242.21299744 481.33200073
118.69000244 340.87600708 490.74899292
172.61399841 268.34802246 466.32400513
135.65400696 319.23602295 564.49505615
216.65400696 390.87799072 499.45797729
250.49099731 354.82901001 450.96099854
197.71200562 291.14599609 466.44000244
138.32699585 265.58898926 528.01501465
229.71501160 345.71298218 494.90600586
206.69700623 279.41598511 486.43301392
197.41799927 347.79598999 456.18798828
265.94299316 308.98602295 472.80801392
133.98300171 328.60101318 471.02600098
266.38699341 360.89300537 468.47998047
201.42900085 330.33001709 489.77499390
243.64399719 338.89099121 451.01898193
237.47200012 322.93701172 494.91500854
150.25399780 296.21600342 455.52899170
190.52400208 383.45599365 491.71200562
137.32499695 250.49900818 471.17401123
229.25500488 287.83499146 506.48498535
264.63500977 318.59500122 473.82000732
269.21798706 354.46701050 468.65200806
254.74700928 286.07199097 480.05200195
102.45099640 223.16400146 516.13098145
204.23098755 325.18301392 494.89599609
259.84899902 308.76300049 480.89199829
265.31402588 309.40899658 466.21298218
149.10099792 364.72399902 547.79101562
200.90299988 374.79098511 513.57104492
185.13398743 367.51898193 464.43899536
129.29800415 202.84800720 500.16702271
229.91799927 281.48001099 505.15802002
166.37699890 313.11398315 531.04296875
110.95300293 287.31997681 554.21502686
237.15400696 297.75500488 491.89199829
93.71999359 303.52600098 508.96899414
217.50000000 297.43600464 468.63101196
268.95300293 329.34399414 471.27200317
95.12699890 259.41900635 482.99200439
169.08499146 368.93002319 543.09796143
153.77500916 306.93099976 453.50097656
231.21800232 369.82699585 501.19299316
103.62999725 269.62301636 539.15502930
218.34999084 342.45397949 501.68002319
125.85599518 226.22399902 478.60598755
130.09800720 262.98202515 528.10198975
204.93499756 362.10400391 457.81201172
243.27699280 334.27301025 488.47799683
107.27500153 294.77398682 476.33297729
155.57299805 250.94699097 473.96798706
159.46899414 332.73300171 521.92303467
98.17800140 305.12301636 491.32400513
110.11000061 237.43400574 518.55096436
173.53599548 303.44598389 505.85501099
185.45500183 376.91101074 521.64300537
144.77799988 227.19400024 509.01501465
112.94300079 314.60400391 480.30499268
175.81399536 299.75799561 514.79205322
80.40600586 259.01602173 509.65499878
226.67300415 339.34399414 451.00598145
206.80400085 372.69100952 507.23797607
222.41101074 360.53198242 451.50302124
238.00399780 380.34799194 466.71499634
223.05099487 297.26898193 489.89001465
155.23699951 319.37899780 541.51098633
160.25898743 264.43798828 467.85598755
270.31201172 358.10198975 460.05999756
124.72200012 215.29400635 483.83200073
142.92300415 313.06100464 456.01901245
218.88400269 362.96200562 504.26196289
128.21101379 356.58898926 556.88800049
224.22799683 366.25497437 454.09201050
148.97698975 343.25997925 470.51599121
139.77099609 281.51199341 540.39801025
171.48399353 378.88601685 513.39599609
178.88999939 265.07101440 469.39001465
125.12699890 316.87301636 464.10000610
96.16299438 293.60897827 486.70797729
258.44201660 371.56100464 475.04898071
133.90499878 242.87399292 473.74902344
212.87300110 340.74200439 453.40600586
107.64099884 344.11001587 546.70001221
198.73599243 356.12500000 499.13998413
220.13301086 286.56597900 513.09503174
130.26300049 271.33300781 464.40197754
232.37500000 307.56301880 498.39498901
104.51200104 341.09197998 555.17498779
168.32600403 271.56799316 463.58697510
123.67700195 293.39797974 556.51202393
203.55400085 346.73602295 490.03402710
248.36698914 383.62698364 472.22097778
197.88700867 384.19601440 502.18600464
137.13000488 299.00399780 552.71899414
194.20300293 253.25300598 482.62701416
85.54799652 288.85202026 569.85302734
114.32299805 278.47702026 542.52600098
230.99899292 299.18399048 492.65399170
219.08999634 328.53500366 506.26498413
140.19299316 256.61001587 523.13897705
89.81999969 226.55700684 520.56799316
250.84701538 335.37600708 482.24499512
116.22200012 238.87998962 521.51696777
167.47399902 241.09399414 478.45300293
240.35101318 386.95098877 477.86999512
94.06500244 203.34999084 506.48699951
159.93499756 323.45397949 531.31298828
116.85700226 351.24298096 513.53900146
79.91000366 233.02200317 525.11401367
132.24600220 204.42199707 485.99200439
175.51100159 328.64199829 514.37200928
214.34700012 359.72500610 454.14199829
201.04100037 285.38598633 477.86798096
248.59500122 325.54199219 457.60598755
174.35499573 363.50100708 465.81100464
105.52199554 335.74899292 520.52197266
239.62899780 367.59100342 492.28601074
180.92199707 301.97702026 510.91897583
140.80500793 367.09100342 522.00299072
114.02200317 311.42398071 578.61999512
90.45600128 307.64898682 531.18902588
99.11800385 209.39199829 495.00598145
188.82200623 313.26602173 506.61801147
198.18000793 351.79299927 503.31301880
116.84499359 286.17501831 467.16201782
101.99499512 204.75601196 508.25299072
170.26499939 356.91799927 531.66400146
227.45401001 350.11499023 449.00302124
122.56299591 249.46199036 471.79800415
168.96699524 328.39700317 466.09100342
168.38200378 297.21099854 458.11999512
208.71398926 305.83200073 468.65798950
192.57600403 280.79101562 468.51797485
190.09899902 343.90597534 458.78500366
118.18900299 259.42999268 527.82702637
87.94199371 286.52999878 564.31701660
170.44099426 317.03799438 516.44299316
143.29100037 269.66198730 463.73400879
166.51899719 377.48199463 492.34701538
114.55999756 269.21298218 469.24298096
220.23100281 371.96600342 509.19699097
165.78399658 336.59698486 466.00299072
91.00199890 291.74200439 503.06701660
132.84599304 254.03898621 468.79101562
265.22299194 333.60400391 458.43499756
171.31100464 374.70098877 539.85205078
122.36000061 355.04000854 555.18298340
200.87500000 273.80801392 505.13500977
105.42900085 198.91999817 501.86996460
122.96599579 302.10699463 567.62396240
124.02500153 277.00997925 538.96398926
120.90899658 329.90802002 481.85198975
156.40400696 327.86102295 538.46801758
93.12200165 306.26800537 516.97802734
172.96099854 261.58499146 470.72601318
150.41799927 327.23199463 466.10501099
110.96800232 224.25801086 514.54003906
156.49501038 336.62200928 530.89001465
115.15899658 350.76699829 538.76605225
165.34899902 236.97200012 508.37896729
205.67601013 338.07501221 504.07598877
236.80900574 293.20700073 468.74801636
131.31498718 247.23300171 518.67004395
92.66000366 281.93899536 486.34298706
201.04800415 319.08200073 463.50698853
110.74300385 343.84799194 520.18395996
229.74200439 297.91198730 505.52700806
180.97000122 329.27297974 516.35302734
134.98400879 293.00601196 549.75701904
151.39399719 213.58200073 500.91397095
158.87300110 264.60702515 525.32800293
115.81900024 322.32800293 482.33099365
184.60899353 297.10000610 516.77899170
81.30100250 233.53298950 502.91503906
142.19898987 364.18301392 549.26501465
192.56100464 320.45401001 463.73599243
180.66899109 382.30801392 492.89797974
199.96299744 384.90499878 490.94900513
143.14900208 355.67501831 555.51599121
102.24800110 327.18399048 513.72100830
145.75700378 247.71900940 518.12500000
235.28199768 364.01199341 451.25299072
88.28499603 320.85299683 569.85900879
143.28298950 216.50199890 483.15399170
276.75598145 336.84097290 464.49499512
206.87500000 271.50402832 508.32998657
99.77000427 283.77700806 481.20098877
205.70300293 339.33898926 488.54101562
160.66400146 353.05801392 525.46899414
171.82000732 378.60900879 519.14801025
203.06100464 294.75399780 508.79598999
234.71899414 380.26498413 510.22500610
91.51300049 296.82601929 511.12301636
129.16000366 308.21200562 458.92999268
193.86099243 297.46401978 463.60498047
218.79600525 276.11700439 512.88098145
270.74099731 344.01599121 458.51599121
118.70700073 318.56500244 470.89801025
132.22900391 220.09800720 508.73501587
175.34400940 243.78999329 506.53201294
201.61599731 277.11401367 518.36901855
229.31399536 290.61999512 484.70300293
164.97799683 376.70700073 526.15203857
127.89799500 295.38800049 458.68701172
123.14900208 323.30899048 473.38598633
250.59700012 359.10498047 479.49099731
163.68899536 252.13500977 474.25601196
94.13899994 299.90597534 579.73803711
230.76100159 344.81298828 450.98001099
140.46701050 367.45397949 500.89596558
147.33499146 211.01200867 486.21401978
126.84899902 360.94097900 512.12103271
181.02600098 292.09301758 510.72399902
79.20700073 238.68901062 508.62002563
96.49800110 226.50300598 488.05801392
179.93399048 229.83500671 492.05499268
105.01599884 258.47000122 532.91900635
144.23799133 339.47900391 554.82000732
146.60400391 260.16299438 468.68197632
197.87800598 343.69702148 484.36297607
120.12899780 254.03500366 523.58300781
79.97200012 245.16500854 524.58099365
196.27900696 364.18399048 513.83197021
122.34600067 357.12100220 518.10699463
265.31198120 372.15100098 464.47198486
138.22500610 343.62301636 474.33200073
121.44800568 199.49899292 491.37197876
208.67199707 312.27801514 466.29501343
164.71501160 309.45001221 457.91598511
169.00999451 340.22900391 516.23999023
239.24900818 315.51400757 460.88900757
190.59599304 383.62899780 510.38403320
232.24600220 286.48498535 474.06500244
152.03599548 366.79101562 482.87200928
81.41400146 254.07800293 498.85699463
135.61099243 314.97399902 458.36999512
128.65098572 352.94299316 564.34100342
155.48600769 342.06701660 527.85498047
223.34100342 376.55599976 512.12603760
188.71800232 360.41702271 519.43304443
197.03599548 310.00000000 465.99200439
103.98799896 324.30401611 505.39999390
195.55899048 368.89099121 461.47601318
101.98400116 338.66598511 559.58599854
158.56900024 330.14700317 527.41802979
105.99400330 218.31799316 488.42199707
196.52799988 331.51699829 500.05197144
158.60398865 363.59097290 475.70401001
151.97000122 277.48901367 460.47601318
193.31500244 254.86201477 487.92800903
138.27900696 353.13201904 482.57101440
87.10800171 265.26400757 541.16497803
169.04299927 265.82199097 523.42303467
106.82099915 284.05099487 474.92098999
185.95300293 241.26200867 489.48498535
249.51300049 312.72000122 487.20199585
251.10000610 341.16598511 450.94497681
137.19200134 214.95201111 483.72302246
129.85198975 284.54501343 545.33099365
85.19999695 312.55099487 575.08996582
110.48000336 332.40802002 501.67602539
151.36801147 248.10099792 517.84802246
98.75799561 327.47000122 581.01000977
134.04199219 274.94400024 461.88598633
175.74598694 319.46398926 513.07598877
85.44499969 302.09899902 545.00195312
120.41200256 320.04101562 578.61199951
121.63700104 298.21499634 563.76898193
155.41600037 259.35501099 469.28900146
100.25999451 290.61999512 566.62200928
85.95400238 281.79400635 553.06604004
211.36399841 293.82397461 514.01300049
207.84899902 287.95901489 477.47998047
100.20300293 241.47099304 521.00097656
186.39199829 276.44500732 522.21203613
155.60198975 313.82098389 456.24798584
140.27999878 293.43701172 456.23901367
118.32699585 285.82598877 549.88995361
176.57899475 379.68298340 487.55599976
95.67199707 325.24200439 542.62603760
249.12998962 384.53601074 493.02499390
187.95700073 371.33999634 524.73095703
128.79901123 361.43499756 523.96502686
183.10000610 327.57101440 466.25701904
194.32899475 248.00300598 489.47900391
274.48898315 327.43899536 461.87698364
132.25199890 209.71800232 505.41400146
220.53599548 308.49099731 465.61102295
269.24801636 319.80300903 464.37200928
169.14099121 377.26797485 487.47399902
157.20700073 294.84600830 540.58099365
205.75700378 274.48098755 493.69201660
234.22799683 280.87899780 494.94699097
146.58599854 232.42199707 508.91601562
257.31097412 341.78799438 475.28900146
172.00500488 220.23600769 492.23397827
226.73500061 270.81500244 499.95199585
145.35600281 367.83200073 492.08502197
177.86399841 292.22299194 460.61099243
157.98200989 243.40798950 513.54400635
202.37699890 337.57202148 456.70898438
230.83401489 385.43600464 473.29699707
119.50299835 301.02999878 464.07199097
126.34100342 358.77697754 545.71197510
105.28800201 341.37200928 565.95996094
173.52400208 256.63098145 473.82901001
214.07099915 319.21499634 505.98699951
81.45600128 222.17300415 521.05096436
90.92199707 286.12899780 495.74499512
189.00300598 295.07699585 507.72399902
95.68199921 234.37799072 521.34503174
205.83799744 316.38400269 463.42797852
177.32701111 366.89697266 535.01000977
261.08599854 287.19601440 477.38000488
202.93499756 291.09799194 468.82699585
188.78201294 306.42797852 509.32998657
167.59100342 330.67898560 513.49200439
104.68800354 305.52700806 484.71798706
203.49000549 318.21502686 490.73999023
106.35600281 341.52401733 538.14599609
99.22299957 334.50100708 570.88000488
84.86100006 276.49700928 504.86398315
279.69699097 326.64801025 464.84597778
236.37400818 288.67999268 497.65399170
166.20799255 379.91000366 505.56396484
147.30900574 318.97601318 459.47399902
164.89599609 230.09001160 481.87701416
202.59800720 361.00799561 500.74703979
197.60699463 346.34597778 502.35803223
95.98899841 284.82199097 556.26501465
163.06201172 259.53100586 470.65100098
152.55799866 242.37998962 476.38299561
118.45899963 351.50500488 566.12005615
248.95001221 386.99002075 483.75897217
224.47299194 290.34500122 471.68200684
195.38000488 313.39599609 503.90899658
83.13400269 277.58599854 527.47900391
139.08999634 337.80801392 471.20401001
113.10300446 253.14300537 473.45999146
229.68499756 357.17999268 450.60598755
81.49799347 296.68600464 554.18499756
244.25199890 352.76098633 485.29800415
215.83799744 369.90802002 459.61599731
133.74800110 359.88000488 557.21905518
167.68998718 317.38702393 463.76898193
224.06100464 304.39901733 465.92199707
129.03599548 228.26799011 513.90899658
243.71400452 383.33200073 502.88397217
219.51899719 258.73898315 492.22399902
240.16200256 372.28399658 457.47302246
191.81401062 321.38699341 509.02401733
85.07800293 239.73399353 531.14001465
165.98999023 214.52999878 493.91101074
214.16899109 373.78500366 507.69799805
133.06700134 200.87799072 496.74902344
93.59999847 314.44299316 527.53503418
141.93699646 271.39199829 531.19702148
266.22097778 347.84799194 469.06997681
165.59500122 222.88400269 501.53601074
209.57798767 325.82797241 459.40499878
274.16400146 346.37698364 463.05401611
164.45700073 301.20700073 533.53204346
111.39699554 217.49400330 511.53601074
118.76699829 350.90701294 507.11697388
220.52600098 388.02099609 482.30297852
184.72200012 286.33401489 525.94396973
162.74699402 354.46200562 530.53601074
166.27299500 323.24099731 465.48699951
191.03300476 275.59201050 469.86199951
97.65899658 320.07699585 521.04595947
276.66000366 315.50900269 471.34201050
175.12400818 254.39500427 512.44201660
200.56900024 275.68899536 496.35101318
183.19900513 380.79299927 511.70599365
211.41700745 349.02700806 503.84701538
144.17498779 216.52301025 505.99801636
96.12700653 330.53298950 573.64898682
132.47599792 348.37402344 563.63098145
136.81399536 335.66497803 569.25897217
131.71899414 341.15899658 477.42901611
242.31100464 290.37298584 471.13299561
250.48100281 359.72601318 453.11199951
216.29699707 320.42199707 460.74700928
107.93000031 303.80801392 475.67599487
176.27499390 280.79501343 461.62301636
84.68999481 214.17799377 503.87399292
202.12399292 322.40301514 499.71801758
192.60501099 289.16900635 465.97900391
142.19999695 320.36700439 562.84796143
140.17300415 198.91600037 488.31201172
243.03799438 285.08300781 481.81997681
96.38399506 264.71600342 539.02301025
81.59700012 305.50900269 564.98199463
238.26499939 328.14401245 493.51400757
142.03100586 284.44400024 455.83901978
189.74800110 267.34201050 482.56497192
186.71899414 381.79202271 482.54901123
149.39799500 285.70199585 455.94900513
186.79499817 354.18600464 458.60000610
155.69200134 375.07299805 507.48800659
87.51200104 297.83697510 531.96697998
223.02400208 283.14501953 483.37799072
201.17900085 288.39801025 516.73797607
204.38600159 317.24600220 500.08599854
236.78199768 353.76800537 448.27899170
150.26899719 337.89898682 552.68103027
84.06700134 306.77600098 577.12695312
114.00300598 331.27001953 579.53204346
269.41601562 337.81298828 458.94100952
97.81300354 314.79299927 510.04702759
143.31300354 335.04299927 468.82598877
185.58900452 338.58599854 460.69198608
128.96899414 332.14398193 474.76300049
151.88099670 272.61499023 531.71002197
207.72799683 271.21899414 502.80700684
220.94500732 352.79299927 500.90496826
79.64499664 249.32899475 518.85498047
112.24600220 300.94900513 572.75897217
143.45500183 329.18200684 466.10400391
107.70400238 207.82400513 508.96603394
192.01699829 384.82498169 500.15802002
260.02697754 360.95498657 472.20199585
122.55300140 327.10800171 477.24899292
225.70500183 287.15802002 480.83300781
115.19000244 346.48001099 507.83300781
232.06999207 313.70199585 501.17999268
152.93299866 357.14599609 474.18298340
216.44900513 303.48001099 493.64501953
159.42098999 308.56298828 535.16296387
149.73400879 373.00100708 514.98004150
124.38599396 273.98397827 466.19497681
150.46499634 310.99002075 456.41799927
174.85398865 299.32598877 458.44998169
255.07301331 300.78598022 468.32800293
175.53199768 293.94201660 509.80300903
139.53100586 240.51600647 516.19201660
104.50299835 328.47500610 582.87194824
167.47898865 316.01797485 526.80200195
79.05200195 239.30799866 515.19195557
263.11697388 351.57800293 455.56900024
81.22800446 303.87100220 569.99804688
237.76699829 334.84597778 453.66201782
143.35099792 278.28601074 537.77600098
110.95999908 293.78198242 472.73001099
142.58599854 289.21600342 545.57598877
95.73200226 254.07901001 482.09802246
195.60099792 334.62799072 504.64199829
126.18799591 209.66200256 486.23898315
170.22499084 271.54299927 527.09197998
146.79699707 255.65901184 523.37701416
172.02299500 248.29499817 478.04400635
172.29600525 352.55499268 461.51199341
82.14399719 264.09799194 497.11798096
131.51300049 223.47399902 478.91799927
135.24700928 325.00500488 565.95703125
248.83900452 330.65200806 454.10699463
245.83799744 378.57800293 495.45300293
177.33200073 335.82601929 465.46200562
153.00000000 323.70599365 547.66400146
94.68699646 320.79501343 535.24200439
249.17100525 284.54101562 474.36999512
235.99200439 357.05102539 492.80801392
234.15899658 291.71301270 492.37298584
94.41999817 270.14700317 483.66299438
105.51300049 335.10299683 578.43298340
122.04500580 233.66198730 519.39398193
103.87799835 296.82998657 571.99401855
85.71700287 220.18400574 501.31100464
137.04200745 228.05101013 478.95898438
97.74299622 333.99398804 564.23999023
149.25999451 302.37200928 453.68200684
222.77699280 266.97702026 489.09197998
166.39498901 343.78900146 466.10998535
105.81500244 283.91500854 550.15600586
149.68598938 208.88699341 497.45300293
161.35301208 288.45501709 457.98800659
172.75000000 306.52697754 522.42498779
155.51899719 283.89498901 539.42401123
199.52600098 327.73599243 497.88800049
94.36299896 302.20401001 503.02499390
146.14900208 354.81900024 477.53399658
127.54200745 321.41900635 464.76098633
99.30899811 231.59599304 483.21801758
137.98699951 207.14199829 486.37399292
164.59300232 320.86898804 524.53704834
123.83099365 219.31399536 510.53298950
199.00000000 310.78500366 498.45001221
240.56700134 374.22601318 496.72897339
159.49598694 302.71398926 453.73498535
228.13099670 292.50100708 508.42297363
127.24099731 242.49101257 518.73797607
243.18600464 365.96997070 487.42199707
130.97700500 318.39999390 461.11499023
228.95300293 323.26599121 502.57098389
95.49099731 327.84399414 547.08996582
200.75799561 382.38400269 507.78399658
254.28599548 374.73898315 461.97698975
155.97898865 374.19198608 526.32098389
230.62998962 387.88500977 511.29595947
114.21900177 340.86001587 577.18902588
194.52500916 349.33001709 511.30401611
234.06900024 321.88000488 498.64501953
90.18599701 314.75299072 541.05505371
129.55699158 361.56698608 535.68499756
263.94201660 370.07098389 470.19198608
157.46400452 255.04699707 520.97399902
153.23300171 231.47299194 478.88800049
171.55999756 227.15798950 501.37698364
103.77000427 206.17500305 494.54901123
137.99099731 365.72998047 540.66094971
251.89199829 380.64199829 486.25201416
245.06199646 315.03900146 461.13397217
153.78199768 334.36300659 465.88400269
159.06498718 362.99197388 546.99700928
173.76899719 381.61297607 497.47402954
250.47299194 318.95800781 461.61599731
190.75199890 338.19000244 458.82299805
180.79699707 347.25000000 458.74398804
232.75999451 368.61398315 455.18402100
242.31900024 363.26699829 452.85601807
170.64900208 314.32800293 521.64202881
217.04598999 390.44601440 487.98498535
84.69499969 284.11901855 525.28399658
199.75000000 350.48101807 491.38198853
120.68600464 288.93399048 465.19799805
91.62699890 326.15597534 560.25799561
152.56799316 221.26100159 506.04498291
163.02900696 356.29598999 538.97998047
86.95700073 318.59698486 563.61297607
110.78099823 290.00299072 559.05798340
250.15800476 309.57998657 463.47799683
148.05999756 232.45300293 476.70199585
135.44100952 232.40501404 476.27401733
232.39100647 366.13198853 497.87799072
155.60400391 309.25500488 540.27496338
213.62200928 269.17898560 491.35800171
84.73200226 265.33697510 488.06802368
113.30900574 275.34100342 469.31500244
115.09700012 348.69598389 569.26800537
156.48800659 354.04901123 537.46997070
257.16998291 291.62698364 471.16601562
107.21099854 239.71701050 479.37701416
226.06599426 313.40399170 503.33099365
179.02700806 313.84500122 508.81600952
161.59098816 370.04000854 479.50299072
219.20600891 347.57098389 450.84100342
135.58801270 362.61599731 493.21499634
156.00801086 231.84999084 508.84597778
194.54899597 300.76797485 508.94897461
109.77700043 346.11499023 563.26995850
81.91400146 271.04699707 523.59698486
97.57799530 260.14001465 536.20599365
134.65200806 356.05200195 487.48498535
86.00600433 291.23300171 530.71099854
128.33799744 262.60998535 465.89099121
82.65899658 275.15499878 542.26599121
228.35800171 389.45098877 484.01901245
93.95000458 243.80200195 527.67498779
102.23100281 287.04598999 559.06805420
182.37200928 293.67300415 523.08001709
182.51599121 253.60798645 506.77197266
161.49200439 243.12399292 475.98699951
267.84899902 293.60699463 476.35702515
104.90599823 275.57098389 542.96301270
143.89199829 331.66699219 559.99798584
206.00399780 283.46600342 518.70397949
192.11700439 274.26400757 489.69299316
239.27299500 376.77301025 502.60198975
112.26099396 295.67001343 565.38201904
122.38200378 294.61999512 462.77999878
135.68299866 279.86199951 459.52001953
88.72000122 231.30999756 523.07501221
240.36100769 299.12701416 468.58297729
159.58599854 334.67001343 466.70700073
80.78300476 264.44302368 526.43402100
232.58300781 391.80599976 503.04501343
115.01300049 206.56900024 489.89700317
208.31700134 387.05798340 485.43200684
86.48600006 290.04498291 524.28900146
174.26499939 224.79499817 497.86697388
93.14700317 223.25299072 518.79101562
150.52899170 320.13601685 463.39999390
84.27300262 304.81298828 549.84802246
157.15600586 372.13299561 487.53198242
175.81999207 237.92100525 503.86697388
266.04000854 300.53900146 474.84500122
220.53900146 368.61898804 457.01699829
257.78897095 365.86801147 456.71902466
212.54199219 281.30999756 483.88699341
160.66299438 374.38601685 540.47100830
195.22000122 329.53100586 461.71798706
146.60899353 354.46499634 551.45104980
214.02000427 379.23699951 507.14804077
184.78399658 347.67098999 515.48394775
84.16700745 293.76501465 543.67999268
107.64200592 336.16799927 510.61099243
149.19400024 239.77699280 513.05999756
136.08399963 364.83898926 512.90704346
104.49299622 304.26898193 579.03601074
110.36199951 313.40701294 581.34503174
150.61500549 344.78302002 548.41900635
132.34399414 328.32000732 568.25799561
166.71598816 376.60699463 538.10400391
90.14300537 297.25399780 578.44598389
207.78800964 359.20501709 501.79998779
92.38500214 308.69699097 584.04602051
107.61699677 222.07499695 484.85800171
133.74800110 314.92999268 566.06604004
205.71400452 328.54000854 487.57699585
223.17799377 303.52999878 500.39498901
189.06300354 339.49398804 513.02600098
160.96900940 326.35302734 465.58898926
200.43400574 343.85897827 456.19100952
183.33399963 372.60198975 469.64099121
143.31599426 237.33200073 476.37500000
140.70298767 351.61502075 478.44897461
177.69099426 266.94400024 520.29595947
273.43698120 348.48599243 458.63299561
216.14601135 266.37500000 507.01898193
209.32400513 318.57498169 502.07699585
88.71400452 208.85099792 509.69201660
206.88200378 371.26300049 461.91400146
227.08599854 277.47799683 505.77902222
182.91500854 279.98797607 525.60198975
254.79798889 375.45401001 479.97097778
133.39099121 363.83599854 532.57696533
189.21800232 382.69601440 486.70898438
171.01199341 299.41201782 527.46203613
178.25199890 277.95098877 527.23004150
196.12599182 276.43099976 491.75598145
86.15399933 243.37800598 491.20901489
124.70199585 359.42199707 533.06799316
124.45400238 359.12799072 524.28198242
202.42999268 385.13101196 484.47201538
120.12500000 205.35699463 505.10699463
255.86399841 380.40798950 480.73501587
233.39900208 346.38900757 491.71899414
180.72900391 374.26901245 532.64099121
189.90100098 259.98602295 476.20098877
260.02499390 298.47399902 480.47399902
192.28599548 276.31100464 519.23602295
253.74900818 331.62500000 480.96200562
136.54299927 201.62500000 486.27401733
111.26100159 230.75000000 518.08502197
138.12200928 307.94097900 560.27697754
96.14899445 330.96701050 555.04797363
83.49499512 271.18499756 503.39801025
165.33799744 218.95399475 486.13299561
196.13999939 289.89199829 520.89202881
156.32299805 276.51000977 535.20599365
170.53500366 302.07199097 511.30996704
139.91899109 304.26300049 456.23001099
91.64699554 322.44299316 551.41503906
221.22499084 348.36599731 498.81900024
106.99099731 240.96499634 520.91601562
191.56800842 291.26998901 515.58801270
141.08699036 352.59600830 558.71496582
228.52000427 338.95999146 496.24197388
252.57398987 288.78500366 483.49499512
98.05099487 279.25299072 481.89999390
199.51300049 279.42800903 486.95300293
141.29499817 207.92100525 500.49697876
159.29899597 377.05902100 499.48800659
197.78700256 379.40200806 470.91699219
123.54800415 337.63098145 574.85400391
118.31700134 352.57598877 559.08599854
83.64500427 283.45501709 535.02398682
185.86399841 322.31301880 514.04296875
93.30000305 248.21501160 531.33795166
230.08399963 375.24499512 508.12698364
168.16699219 279.31298828 461.30300903
151.19500732 347.51702881 471.34500122
163.23800659 363.62600708 472.39700317
128.38500977 339.44500732 570.39501953
206.60600281 297.97299194 468.16900635
171.80900574 242.95399475 480.30401611
180.85899353 257.12100220 475.59298706
178.37100220 238.48800659 485.88201904
237.66000366 283.94500732 477.19500732
128.52600098 355.75299072 494.37902832
216.82499695 284.83898926 516.21301270
159.23200989 279.92599487 458.48101807
232.25498962 286.32800293 487.48400879
258.20300293 313.33499146 480.83697510
266.36697388 361.64700317 459.20602417
132.23500061 363.92599487 504.95999146
87.09300232 314.97399902 552.64996338
114.53800201 213.79699707 511.41601562
238.20201111 390.49801636 498.33102417
230.77799988 275.61898804 494.96499634
152.93200684 349.41598511 540.44201660
80.45800018 254.59098816 506.74099731
147.55499268 370.34600830 539.54602051
114.97799683 349.47799683 517.63299561
260.62100220 339.98699951 455.53201294
221.42300415 287.44699097 474.15399170
143.20799255 225.73100281 478.34500122
134.07400513 274.31600952 535.04003906
136.94000244 346.43499756 566.51098633
121.67699432 206.17399597 487.96200562
114.39499664 221.19000244 483.46899414
112.81800079 199.11399841 501.74801636
276.58798218 324.21899414 467.62600708
191.85000610 303.67498779 463.08999634
267.65100098 365.89398193 461.28799438
111.07499695 322.35699463 484.73501587
117.66999817 259.08099365 471.04702759
156.64100647 370.47500610 545.89703369
185.28700256 352.85897827 516.16003418
174.77799988 336.73901367 516.89300537
269.94299316 323.74099731 461.68301392
253.18101501 346.24499512 477.15802002
206.73799133 381.66000366 470.85601807
120.85399628 269.73999023 468.17999268
196.06900024 318.82299805 500.34301758
85.90399933 250.15399170 489.31698608
115.99200439 282.22702026 546.31103516
248.53399658 354.81100464 480.16699219
211.91300964 389.39898682 502.39099121
236.63299561 389.39099121 489.94299316
114.15000153 349.64300537 526.73901367
195.90699768 343.47299194 508.75097656
231.46000671 297.54098511 468.89199829
171.78800964 233.38099670 504.75103760
152.75000000 210.51100159 486.25399780
92.92700195 285.23498535 560.92797852
212.53900146 298.31799316 509.45095825
192.02700806 331.12600708 510.74200439
87.24800110 228.43800354 496.48202515
109.34100342 265.93301392 473.33898926
110.73000336 243.72399902 476.32199097
115.56299591 318.50201416 479.34100342
186.85301208 270.75100708 513.67004395
110.42100525 254.93299866 527.25500488
136.44500732 289.49600220 456.05001831
137.55000305 260.59100342 468.83200073
145.30999756 296.22900391 546.20898438
154.33599854 354.51000977 547.38897705
166.51699829 323.63598633 516.73101807
225.21199036 300.16000366 493.02200317
199.13500977 292.24099731 510.16497803
142.99600220 345.12600708 554.48199463
145.72698975 314.67599487 554.62097168
184.84599304 376.06600952 473.21200562
110.01699829 341.88198853 515.09600830
278.83801270 314.53698730 466.35198975
90.10499573 276.97500610 486.79101562
135.01599121 335.80499268 564.82501221
256.31100464 362.26000977 474.87597656
121.65499878 355.53198242 550.32000732
110.27600098 335.44097900 578.64703369
103.00300598 319.21801758 501.02902222
85.39900208 300.00698853 577.77703857
223.31799316 337.29998779 453.67800903
260.51501465 348.00000000 471.80102539
104.62999725 341.22402954 548.97198486
223.35000610 366.86300659 505.00000000
142.00599670 321.35498047 462.64401245
82.64199829 252.51701355 534.54498291
128.61799622 349.86599731 487.24697876
252.35098267 307.15499878 485.42800903
220.75801086 381.49398804 513.25701904
188.94700623 269.80700684 497.29400635
121.70299530 197.72200012 495.76397705
154.37098694 372.91101074 530.59600830
201.11199951 359.19601440 458.97100830
153.59700012 373.05398560 495.72100830
145.53700256 369.75601196 509.70397949
100.63099670 335.67700195 544.28295898
84.14500427 308.02099609 554.51898193
205.52699280 343.16598511 503.70700073
101.45700073 318.64801025 583.76000977
249.42399597 386.02502441 488.54199219
149.71701050 228.87500000 508.79000854
79.70400238 218.08500671 512.31903076
264.64501953 331.74197388 473.62802124
127.61400604 301.18099976 562.75305176
199.40100098 344.88000488 491.32299805
231.05000305 378.61697388 464.70700073
178.33699036 325.79800415 466.00900269
85.62899780 256.75799561 488.99200439
117.16500092 280.82098389 467.99401855
79.95300293 294.89498901 564.78601074
146.46499634 298.88800049 456.38299561
109.66799927 259.68399048 474.30398560
239.59001160 387.80798340 507.33398438
96.24599457 203.42401123 500.93698120
196.97900391 283.92098999 473.01300049
87.32300568 286.17501831 514.36401367
90.34000397 248.63299561 484.30899048
177.98001099 288.02499390 530.68695068
196.26499939 285.07501221 523.68798828
265.20401001 313.93600464 473.82501221
215.18800354 285.83700562 481.90701294
227.75700378 305.64999390 497.62298584
242.53300476 314.93197632 492.18197632
180.30599976 282.19799805 463.56698608
110.48500061 345.92300415 531.37799072
204.52999878 335.68200684 491.26397705
108.28399658 213.34100342 490.11499023
242.79699707 357.45901489 485.50000000
217.90200806 301.94100952 506.14703369
240.98699951 320.29598999 460.84298706
226.64999390 312.96200562 462.91900635
162.46501160 246.34300232 513.79003906
199.52900696 315.13101196 494.46200562
171.08699036 305.40402222 458.44299316
90.03400421 219.51599121 516.89898682
215.27000427 338.29199219 504.46395874
173.92599487 342.31298828 463.34698486
223.12500000 329.56201172 504.13195801
228.75500488 382.82000732 514.14697266
198.36000061 304.61199951 510.85598755
163.27999878 378.13299561 496.54000854
98.68000031 207.81800842 509.45095825
93.63600159 292.36297607 491.14801025
232.35400391 311.22000122 463.63000488
246.86299133 298.67300415 486.79199219
99.93399811 227.26499939 518.21002197
183.63900757 336.25799561 515.59399414
128.29699707 233.87800598 517.01599121
119.19499969 210.11399841 508.12698364
249.10700989 300.59701538 466.13601685
172.76200867 361.31900024 534.89501953
135.18600464 295.05999756 455.90399170
119.46400452 293.48300171 558.58599854
121.93099976 342.46099854 486.54101562
201.98699951 323.38000488 461.19400024
208.56500244 346.15100098 453.52999878
89.90499878 264.71701050 483.91198730
163.92999268 290.97198486 538.13098145
83.88599396 232.70001221 527.50201416
90.74000549 243.02799988 484.94900513
135.82398987 334.50500488 471.32998657
207.26199341 379.97601318 506.88397217
133.05999756 265.34399414 466.36700439
100.30999756 266.17599487 479.90100098
139.06900024 367.84899902 532.34704590
187.24200439 264.01098633 497.58398438
169.47099304 218.00900269 495.41299438
189.83000183 299.16598511 517.46099854
184.24198914 384.61398315 502.30596924
84.26599884 243.57000732 533.60803223
150.22900391 286.58999634 541.53503418
111.02400208 201.99299622 494.23699951
133.52299500 256.91799927 523.53002930
124.34700012 243.71600342 473.83200073
172.96899414 309.73498535 512.23498535
169.96400452 334.61697388 466.08401489
273.00997925 340.88702393 465.80200195
80.22499847 259.19198608 520.98901367
193.49000549 293.78399658 466.36999512
134.45199585 308.34399414 458.88000488
191.59500122 314.75601196 463.65499878
258.08001709 382.02600098 477.02099609
100.95500183 232.59199524 518.45800781
119.65999603 229.75199890 517.20397949
214.07400513 295.17199707 470.73300171
189.43899536 269.70098877 490.69400024
163.75898743 348.64700317 517.18499756
123.40699768 264.06100464 528.80902100
231.43499756 304.42102051 466.27600098
221.29100037 310.85397339 500.14501953
155.97399902 269.56600952 464.01000977
239.23399353 287.84298706 485.23001099
146.23999023 370.22799683 517.20501709
81.74499512 264.84100342 505.76400757
131.61300659 324.50198364 468.94100952
194.33499146 278.29000854 482.57397461
195.74299622 335.67300415 458.92001343
148.64900208 367.83901978 487.52499390
188.11799622 268.34402466 470.55899048
177.14401245 382.59399414 505.13601685
180.81900024 306.61499023 511.80099487
205.57899475 337.78799438 484.20901489
197.98100281 381.57598877 511.43597412
120.83999634 290.27398682 554.19000244
151.15199280 271.65499878 463.17800903
224.38499451 362.07199097 500.87799072
92.70399475 304.52401733 582.15899658
84.77999878 278.52200317 509.18798828
85.17099762 293.43200684 539.05603027
79.38400269 223.88999939 506.81198120
256.01501465 366.98400879 475.04998779
147.74000549 329.27600098 552.74804688
174.10501099 250.75199890 509.74099731
125.89399719 311.15002441 569.45300293
132.82099915 361.68798828 547.19195557
228.96899414 329.49298096 453.72598267
191.23999023 254.87699890 492.35699463
176.21299744 358.53100586 527.18902588
109.35700226 305.74899292 577.47003174
117.37999725 342.13400269 497.39599609
98.70500183 333.85598755 548.08996582
182.25599670 259.02499390 510.03302002
101.42300415 337.24902344 551.76403809
165.33300781 280.65698242 535.77398682
