ply
format ascii 1.0
element vertex 512
property float x
property float y
property float z
end_header
112.03599548 207.03298950 469.60000610
109.50099945 210.48100281 467.24700928
114.86899567 203.39100647 467.97299194
112.07800293 206.93499756 474.53601074
114.22800446 204.09500122 463.25799561
113.55300140 202.54400635 475.59197998
107.24400330 212.98899841 471.15100098
109.12500000 212.39900208 462.27200317
109.20800018 208.37399292 478.86599731
111.63600159 209.12500000 459.73699951
110.32099915 203.92900085 479.13101196
117.82900238 198.63600159 468.97198486
115.61199951 197.98800659 473.02200317
106.15699768 213.44900513 476.40100098
106.72299957 216.19700623 465.17398071
114.34300232 206.19499207 457.56201172
106.30699921 211.41999817 480.96298218
111.25899506 196.38999939 478.24499512
120.40899658 198.76199341 462.49301147
104.80300140 219.19299316 470.72399902
118.49700165 201.90800476 457.72601318
116.99099731 192.35099792 470.67401123
110.05899811 217.10299683 457.90200806
112.78600311 212.53399658 454.96899414
107.90000153 198.75801086 482.22698975
103.50199890 217.28100586 477.86300659
112.71200562 191.50300598 474.99002075
105.99800110 204.60000610 484.71398926
107.42900085 221.49800110 462.73101807
117.00000000 209.50601196 452.49499512
122.92700195 194.17900085 463.13500977
104.60700226 200.09899902 485.42999268
102.00999451 214.06300354 484.06698608
119.93900299 205.64700317 452.12701416
104.30199432 224.97900391 468.65499878
105.75900269 193.53199768 482.64398193
110.35200500 224.82299805 460.76199341
98.82699585 220.52099609 476.01898193
108.72200012 189.07499695 477.68301392
113.14799500 221.98800659 456.17398071
119.21600342 188.24000549 466.85900879
96.52799988 216.67599487 479.14999390
101.17700195 224.38000488 472.64401245
124.21499634 196.94699097 455.61599731
93.63300323 218.16600037 471.80499268
108.71999359 227.97698975 465.35800171
116.64400482 218.04100037 451.51901245
119.59600067 212.62500000 449.63800049
123.43800354 189.11199951 463.60498047
112.19599915 184.98500061 472.24102783
91.98799896 212.16101074 478.22698975
100.94899750 201.94099426 488.55502319
118.45700073 225.25599670 457.60598755
98.47599792 209.54299927 488.07998657
101.96799469 194.30999756 486.35000610
116.63100433 229.02999878 462.41799927
95.98399353 224.13099670 466.53802490
103.31999969 189.47399902 482.87799072
89.45999908 214.59500122 468.13101196
124.70899963 202.96899414 449.67098999
88.33000183 210.74398804 472.15597534
121.87599945 222.14700317 453.40200806
107.58000183 231.08300781 468.79699707
123.70899963 224.70300293 457.33401489
92.30699921 209.79400635 484.04699707
119.45199585 183.64801025 465.94302368
127.45499420 189.26200867 460.55401611
101.96099854 229.79499817 465.39498901
128.32800293 222.01699829 457.24099731
127.10100555 226.08500671 462.03298950
87.81900024 207.20899963 477.69201660
114.74800110 232.55599976 467.51098633
121.87899780 230.07200623 463.53302002
90.14199829 218.86299133 462.66897583
114.35700226 181.26800537 469.12301636
106.43599701 182.55200195 475.84799194
128.39601135 218.15100098 452.69998169
94.02199554 224.07600403 461.42599487
85.69743347 205.97297668 469.12011719
96.98099518 203.37100220 491.05200195
128.71398926 195.49499512 452.57897949
126.10599518 207.50500488 447.08200073
102.62099457 184.23500061 480.00799561
132.88900757 221.94799805 461.80700684
85.79743958 209.69888306 464.39440918
125.33000183 214.50900269 447.33398438
88.82699585 206.24000549 483.54199219
86.47100067 213.24899292 462.39901733
134.41899109 217.31799316 457.39700317
128.40600586 199.91700745 448.61502075
97.68400574 196.99600220 491.05999756
123.25399780 182.34400940 463.65698242
131.78099060 212.54800415 450.43499756
104.63899994 233.99899292 465.13400269
92.82700348 223.57699585 456.87600708
98.35700226 229.41899109 458.33099365
131.87100220 192.09001160 455.49398804
86.24436951 201.71142578 481.53369141
110.33999634 178.04699707 471.57400513
130.14300537 229.63800049 466.25701904
107.28400421 235.85099792 468.33898926
128.22399902 184.36700439 460.63299561
136.43699646 211.96701050 454.04101562
134.47799683 225.47799683 464.36499023
90.74000549 204.40499878 490.19198608
83.32798004 199.20585632 472.69494629
119.84700012 178.63499451 464.16699219
99.61499786 186.19699097 487.53601074
82.78302002 201.44367981 464.19268799
93.69400024 200.61099243 493.19601440
87.03300476 217.42799377 455.24298096
114.90699768 237.50300598 471.40698242
122.91000366 235.66999817 467.01898193
132.54299927 187.31300354 457.91799927
105.57299805 177.19300842 474.84698486
101.38700104 233.15000916 456.09997559
133.33000183 194.89399719 449.91799927
140.35899353 218.58599854 461.56100464
93.10299683 225.90098572 452.55801392
104.51200104 236.19699097 459.64398193
140.71400452 210.58100891 456.41400146
131.91799927 208.08699036 444.74200439
98.11199951 230.87200928 452.74002075
84.63005066 209.80746460 452.18771362
127.58000183 235.60200500 467.55099487
138.35400391 207.04600525 449.98999023
132.41299438 200.50999451 444.69799805
101.11799622 176.87300110 478.34399414
96.46499634 189.20100403 493.08801270
80.48777008 196.92254639 465.02236938
107.85900116 173.77899170 471.79602051
94.88800049 194.16600037 495.48300171
130.64700317 180.83900452 458.90997314
81.47234344 202.80203247 455.15377808
114.24099731 173.13798523 466.60101318
85.88200378 199.04600525 490.02999878
98.17700195 179.63800049 484.68301392
82.68896484 193.97027588 481.63189697
122.62699890 239.75401306 470.73901367
89.35862732 218.90736389 446.23977661
137.69799805 229.76399231 463.97500610
96.53600311 184.57501221 491.30801392
89.67799377 199.26300049 495.26901245
91.17482758 223.25749207 446.61450195
144.65800476 214.08000183 458.90499878
119.87000275 173.56599426 462.19198608
102.95599365 173.59399414 475.74801636
79.70157623 193.14739990 470.87701416
85.97119141 214.07505798 446.28283691
125.74599457 175.41799927 459.46697998
134.15299988 235.35699463 466.59100342
111.34999847 243.00099182 466.61599731
93.88700104 228.63000488 446.86199951
138.42601013 187.45500183 453.90899658
99.86299896 234.04901123 448.33200073
134.70899963 181.56500244 456.57199097
145.24101257 207.34199524 454.09899902
78.99542236 197.48503113 455.77111816
106.69599915 240.54600525 454.66598511
143.64099121 204.83200073 450.10699463
109.10499573 242.45401001 458.41699219
78.22026825 194.55735779 459.49020386
83.60705566 210.38285828 445.24691772
139.29499817 192.94999695 447.61401367
142.77799988 227.28599548 461.06402588
131.01600647 239.88800049 468.56298828
104.69599915 238.77600098 450.07397461
95.70000458 178.28500366 488.37301636
81.64350891 206.23080444 446.61782837
92.63800049 191.25900269 498.56900024
82.12423706 191.71789551 488.38265991
118.15900421 245.02900696 471.52899170
146.23699951 221.18901062 458.72598267
98.44499969 172.27200317 479.50698853
80.13804626 202.27378845 447.97424316
87.47399139 216.95330811 441.18533325
77.04808044 189.96578979 467.14575195
136.21699524 203.05200195 439.22900391
105.54700470 168.47898865 470.95401001
127.00699615 243.51699829 471.44699097
140.30200195 234.14399719 463.49600220
100.86399841 169.33599854 475.04602051
138.15400696 197.24099731 441.34799194
115.40699768 167.94900513 462.74398804
96.26699829 173.71099854 485.04199219
132.89801025 175.17300415 456.38201904
102.04499817 237.18998718 444.68499756
114.93600464 247.42900085 467.14599609
140.61799622 202.05000305 441.02200317
91.66400146 227.53199768 440.89300537
85.14399719 193.50999451 497.67102051
138.61199951 179.72200012 453.77099609
123.01900482 168.87699890 458.13400269
128.63500977 171.56698608 456.32699585
92.62699890 183.42199707 497.49899292
149.80499268 218.28300476 456.89898682
77.45478058 186.03137207 478.66406250
88.19572449 219.92022705 437.65451050
138.32800293 239.59100342 466.59298706
145.35200500 202.03599548 444.47000122
81.17564392 207.08763123 441.04360962
143.87600708 189.18800354 448.52200317
98.15599823 234.21600342 440.47799683
109.87000275 244.84899902 450.93701172
82.22760773 189.62396240 493.98971558
77.06247711 195.83950806 448.55505371
79.87482452 187.06098938 488.72802734
107.13999939 164.96699524 467.00399780
151.34201050 211.98300171 454.39498901
113.36100006 247.45599365 456.57000732
87.93400574 192.03999329 501.31701660
92.79399872 177.23899841 493.59500122
74.58560181 185.87448120 468.85192871
146.09300232 232.24900818 461.15600586
78.40090179 200.64302063 443.05819702
150.83900452 204.88999939 450.26300049
75.14124298 191.97723389 452.30734253
73.86505890 189.08657837 459.09472656
110.98100281 164.07400513 462.89700317
131.13400269 246.08799744 471.15298462
142.97898865 193.78900146 441.71398926
139.59799194 198.39500427 436.76199341
106.05799866 241.24301147 442.92398071
73.55857849 186.47973633 463.62475586
89.31300354 187.40899658 502.00402832
116.94599915 250.19401550 461.35900879
136.40299988 244.12800598 468.87100220
122.97000122 250.20599365 470.24499512
119.77300262 164.86599731 457.50497437
99.38000488 164.35499573 472.68099976
94.49800110 168.78900146 484.87100220
93.94699860 230.94299316 436.35299683
74.88213348 182.40315247 474.16870117
133.23899841 170.75698853 453.48901367
94.97499847 166.35400391 478.73397827
76.88506317 183.03620911 484.36450195
127.00699615 166.93299866 455.49801636
110.34099579 245.48498535 446.04000854
152.12899780 224.53199768 458.34197998
81.65901947 209.76115417 435.91659546
150.35800171 229.27600098 459.43298340
137.63398743 172.75700378 454.03201294
84.38940430 214.02288818 433.86474609
143.37899780 178.98599243 451.28100586
89.14989471 223.90116882 433.50476074
92.62500000 170.98001099 490.65399170
120.82400513 252.32299805 465.11700439
147.61700439 236.06399536 463.12902832
114.35600281 161.81999207 458.94900513
146.91099548 189.98300171 443.86801147
143.82200623 241.05101013 463.95199585
90.11600494 181.62300110 502.43502808
98.91500092 235.78199768 434.66699219
81.49655914 185.75804138 498.59750366
117.84700012 251.57299805 455.08798218
155.12899780 221.37300110 456.48898315
143.86399841 196.13101196 436.29800415
148.06100464 183.16400146 450.19299316
72.62117004 180.84683228 466.17816162
155.89599609 216.54200745 453.71600342
152.69300842 201.46000671 445.37698364
109.75799561 244.98100281 440.65698242
115.97699738 250.11100769 449.16998291
74.36283875 193.82922363 443.07415771
155.99499512 207.23699951 450.19702148
73.89233398 178.36167908 475.85180664
71.93014526 183.61282349 456.20172119
131.87500000 251.19500732 470.72399902
72.74488068 188.52694702 447.97094727
106.30300140 159.34700012 462.69198608
100.47299957 159.93400574 467.61798096
127.30400085 253.20300293 469.21499634
71.75367737 185.86547852 451.99951172
106.33399963 241.66999817 435.63900757
75.87574005 196.97138977 438.32901001
78.52213287 181.65914917 494.51690674
102.31099701 238.60499573 433.49398804
89.79100037 174.13899231 498.74401855
122.30699921 254.29901123 460.05801392
94.33200073 161.13899231 473.92401123
139.83200073 248.05200195 468.08200073
75.52529907 178.68850708 487.61837769
153.03599548 233.18299866 459.41799927
118.29499817 160.01799011 454.71502686
72.65878296 176.52336121 469.93588257
147.72700500 190.61500549 438.86599731
72.07572174 178.69604492 459.52523804
92.62800598 230.33200073 429.67098999
124.73400116 255.23901367 463.84799194
90.08611298 226.63018799 428.67868042
80.19474792 207.58752441 430.50595093
114.31999969 248.23300171 440.56600952
77.16326141 200.08912659 433.26312256
151.39999390 184.66099548 446.06799316
85.63604736 218.39199829 427.37689209
140.58200073 168.76699829 451.31100464
144.27299500 246.65699768 466.57601929
156.48300171 228.83500671 456.56799316
147.07598877 174.20500183 451.56698608
95.76799774 233.53999329 428.77899170
153.72698975 197.80200195 441.11999512
73.25958252 175.67413330 481.86505127
149.03999329 242.46099854 464.05499268
89.84700012 164.98599243 489.55599976
133.10400391 163.69900513 450.81298828
118.89199829 252.07000732 445.00198364
100.61299896 237.45500183 429.29501343
150.20098877 195.52299500 436.35101318
85.49700165 182.65199280 507.24298096
71.40660858 175.28948975 462.02435303
146.79199219 194.05500793 432.90399170
153.56098938 237.49600220 460.73699951
121.29000092 254.11199951 448.86199951
124.90600586 159.76899719 451.35400391
71.35108185 181.32330322 448.93966675
72.00131989 177.64186096 452.79718018
130.59399414 255.88598633 465.24798584
160.89500427 212.69898987 451.36700439
88.95300293 162.18699646 485.53698730
88.35299683 174.97299194 504.51397705
88.69599915 160.45401001 479.29901123
78.76372528 178.44247437 499.51840210
161.44099426 218.08000183 453.56100464
75.08050537 175.38087463 491.10571289
106.68600464 241.75299072 429.62399292
110.95999908 155.88800049 454.90597534
72.73126221 189.92478943 437.78707886
88.30300140 170.00601196 499.90698242
151.46299744 177.36599731 448.91000366
125.47799683 256.73602295 455.02297974
111.60100555 245.45001221 432.26599121
137.70001221 254.23399353 465.93600464
128.80499268 257.27902222 459.40301514
151.13499451 186.81800842 438.13400269
161.35699463 223.63800049 453.74301147
146.41400146 169.68899536 449.55398560
88.42899323 165.87799072 496.56900024
93.13599396 155.83898926 470.16400146
101.97900391 154.27200317 459.79602051
71.02781677 181.67549133 443.91589355
70.41055298 171.63749695 466.26275635
148.52600098 247.44400024 463.72198486
70.97835541 172.78703308 457.70758057
82.34534454 213.18705750 423.97573853
118.04799652 250.22900391 436.44400024
161.05200195 202.99099731 445.28897095
137.96900940 163.45399475 448.44299316
79.28043365 206.26266479 425.47329712
77.43074799 201.65464783 427.01354980
122.95800018 254.31999207 442.84600830
72.95703888 171.69274902 487.75384521
95.92199707 153.81900024 465.08200073
149.54200745 189.05000305 432.39999390
115.47599792 247.97099304 431.81399536
163.43000793 208.65599060 447.75399780
145.21501160 251.73899841 462.86999512
135.74301147 256.86599731 459.58200073
71.86356354 176.12658691 445.58175659
104.48300171 240.13000488 424.72601318
117.00299835 154.41600037 450.16799927
71.01805878 170.41928101 481.94836426
141.64799500 253.96400452 459.24697876
159.29299927 235.23699951 456.97201538
126.51999664 256.74301147 447.03701782
131.44999695 258.34399414 455.85998535
110.71799469 244.09500122 426.84298706
155.42800903 185.09199524 440.59399414
70.03812408 169.31518555 474.00891113
76.74047089 172.88061523 497.83963013
83.66181946 176.64166260 508.10705566
87.32099915 169.94799805 504.68499756
159.52398682 197.45300293 439.95800781
71.29894257 183.91201782 437.30630493
72.90940094 188.50958252 432.35968018
74.36710358 195.17303467 428.17306519
157.61999512 240.25799561 458.44097900
88.52300262 154.53900146 473.52700806
87.06394958 222.59143066 419.92407227
155.17700195 193.56800842 433.61898804
85.90225983 157.69984436 484.46231079
152.40000916 247.32199097 459.50897217
92.23490906 229.04669189 419.80630493
149.06199646 250.26599121 458.35900879
87.21599579 161.00599670 494.79101562
157.19200134 178.25099182 446.95599365
96.61400604 234.18701172 420.49499512
84.91642761 155.68081665 476.58737183
69.94911957 168.60426331 456.21524048
134.99101257 158.86099243 445.48098755
84.34730530 218.17579651 419.12945557
163.38999939 230.71000671 453.88098145
87.33000183 165.03399658 502.39001465
85.66510010 158.18348694 488.97570801
73.71229553 167.20396423 489.67138672
107.69999695 151.11000061 451.84899902
71.66075134 170.28521729 447.66299438
153.25100708 171.35200500 447.27600098
91.12831116 152.09678650 465.16931152
79.36887360 207.51353455 420.47930908
122.16130066 250.66566467 431.18652344
147.03700256 165.42999268 446.52798462
102.77999878 238.71600342 420.42401123
115.51992035 246.78871155 425.70574951
80.90302277 172.22689819 506.34909058
123.84899902 153.57600403 446.08398438
130.67599487 156.14601135 444.77999878
140.83999634 256.74798584 453.44799805
127.46715546 254.49755859 436.78842163
75.93144226 167.14425659 495.65994263
89.02251434 225.48628235 417.53952026
167.27400208 215.31700134 447.86398315
150.94799805 249.03700256 451.88000488
146.58099365 253.44601440 453.55401611
71.71108246 164.41390991 483.16177368
69.19495392 164.85977173 464.38293457
140.37799072 160.12500000 444.33297729
134.16400146 259.51702881 449.51199341
167.70201111 220.86698914 449.91101074
96.38852692 149.84918213 456.40527344
158.33799744 243.70500183 455.30798340
158.75401306 189.03500366 434.89797974
86.65899658 160.62300110 499.95101929
101.62599945 149.04199219 453.60501099
71.13023376 181.36054993 432.24118042
73.33055878 188.01856995 426.34445190
83.01411438 153.79469299 478.50265503
74.63083649 163.01362610 490.14694214
69.73428345 162.85873413 474.62362671
70.67053223 177.08901978 435.51818848
165.52999878 200.38198853 440.11199951
74.75911713 198.82637024 421.38079834
78.37729645 166.41711426 501.23870850
131.81964111 257.56051636 440.60559082
167.35400391 205.98800659 442.63101196
160.47200012 183.23899841 439.83599854
80.29577637 210.39614868 416.67974854
82.26049042 214.51058960 415.75491333
161.56100464 194.38600159 434.11300659
71.73850250 171.75628662 437.82086182
163.34899902 239.06500244 454.58999634
120.19909668 247.95039368 423.26928711
112.74549103 244.30572510 419.55294800
84.21655273 151.16949463 469.86770630
157.73298645 171.85400391 445.35699463
111.53900146 148.80599976 446.62402344
70.45991516 164.59214783 449.84036255
117.09600067 149.60600281 445.14700317
136.19700623 156.29998779 441.90698242
163.43000793 188.05299377 438.78399658
94.87599945 232.61700439 414.79400635
83.67586517 155.08444214 490.89938354
129.31755066 252.36901855 429.33563232
125.58747864 250.88858032 426.34631348
145.42999268 160.75000000 442.22998047
92.30512238 148.15194702 457.07034302
160.90998840 242.73699951 450.87298584
69.40811157 161.99736023 456.49981689
107.83699799 241.77500916 416.72500610
169.73200989 212.41900635 443.81201172
82.40386963 152.90165710 484.73324585
164.57200623 181.68899536 443.65298462
133.04281616 255.21856689 433.28564453
83.53814697 162.91754150 505.98330688
158.32099915 246.09700012 449.13500977
151.25900269 255.11300659 454.07400513
168.66700745 230.33999634 450.83099365
73.62890625 193.61227417 420.11499023
138.56900024 261.07901001 447.57800293
70.05698395 158.45141602 467.14025879
171.07299805 219.06100464 446.82601929
98.18394470 147.30491638 449.72451782
73.94781494 156.97103882 483.73880005
79.17388153 161.11782837 501.15936279
82.84496307 157.31355286 498.94778442
152.77700806 164.57499695 442.69000244
72.24035645 166.12145996 439.08013916
76.77569580 158.91036987 494.72720337
167.55000305 235.22700500 451.56600952
147.69299316 259.56198120 456.22900391
100.92099762 237.18800354 413.16900635
130.20600891 151.95199585 440.30999756
71.22273254 156.54257202 472.81930542
71.39163208 163.41535950 443.46682739
121.52999878 148.53500366 442.56799316
170.55200195 226.78300476 448.59100342
118.32730103 246.46366882 417.97216797
136.61000061 259.93899536 439.84402466
142.28999329 262.33300781 451.76397705
155.97300720 252.86199951 453.25402832
163.39999390 241.17599487 447.31900024
169.76800537 204.71600342 438.37899780
166.33200073 192.85699463 435.46301270
74.10785675 153.92752075 478.28320312
105.36900330 239.99198914 412.99700928
84.79817963 219.70672607 411.01080322
89.53131104 226.37217712 410.78988647
80.12820435 149.39047241 471.48040771
104.30599976 145.39199829 447.34600830
75.82502747 201.94294739 414.49444580
87.03400421 146.48954773 459.36407471
69.48781586 157.05279541 460.00677490
135.28601074 153.09800720 438.71899414
71.19564056 181.13995361 424.08895874
127.33514404 249.41921997 420.48873901
80.18959045 211.03280640 411.17138672
140.94599915 155.47700500 438.60302734
83.10185242 147.07752991 464.19802856
174.22700500 211.53298950 445.43600464
163.62699890 174.09700012 442.66000366
174.34098816 215.88999939 446.89700317
76.37858582 151.96081543 484.06246948
78.26203918 153.31657410 491.73309326
