ply
format ascii 1.0
element vertex 2048
property float x
property float y
property float z
end_header
322.94985962 217.63937378 378.91851807
134.25335693 187.85203552 530.55419922
142.41717529 156.92059326 352.45123291
202.27099609 256.39901733 435.34402466
154.36044312 129.64903259 449.00787354
236.21571350 168.94079590 394.05355835
123.55445099 208.90718079 422.26223755
285.95101929 260.73754883 442.76766968
184.27999878 223.93499756 366.03997803
186.62059021 194.23147583 475.97729492
253.23399353 238.13598633 382.22100830
185.65264893 112.94675446 387.51837158
125.98875427 179.97467041 472.70919800
162.60084534 236.17472839 510.08129883
238.29142761 256.27325439 480.09722900
243.00321960 213.15704346 433.18008423
121.75350952 149.48835754 404.31060791
187.65039062 193.59700012 423.43252563
196.80899048 170.56399536 356.17398071
150.30368042 237.52272034 459.41494751
279.24865723 189.70872498 366.22625732
133.37100220 206.41699219 375.93399048
157.56797791 152.11712646 502.22848511
161.93998718 240.76300049 408.45300293
288.34170532 225.99229431 409.40856934
202.31553650 147.21954346 414.77981567
188.63307190 255.22319031 477.05654907
224.70300293 204.55200195 370.89401245
247.70799255 255.72499084 422.23699951
140.67457581 120.38318634 376.55014038
208.17900085 244.93600464 394.63601685
211.40507507 225.51959229 458.87179565
163.40998840 192.62600708 350.97799683
122.88222504 155.61569214 442.33364868
166.68008423 168.86705017 447.46527100
177.97122192 136.74285889 358.44372559
137.99421692 210.63774109 493.33447266
155.74201965 116.44138336 412.58230591
263.48178101 196.40722656 401.36441040
167.70756531 189.33638000 507.49658203
210.17088318 145.46914673 375.90084839
118.98644257 169.84616089 377.30297852
256.66186523 238.83267212 454.44345093
216.92242432 210.73115540 409.81124878
127.38172913 208.37924194 454.02401733
140.73835754 147.89500427 475.33209229
230.48986816 183.07902527 423.18692017
290.46600342 218.98500061 378.41699219
170.70835876 222.18009949 479.64562988
230.94599915 260.21502686 449.92599487
170.75978088 246.56094360 438.32302856
199.77226257 185.39332581 449.41949463
173.22489929 142.87286377 425.14227295
163.40698242 172.40689087 477.81179810
154.89399719 228.99700928 380.90802002
119.04793549 183.50022888 404.73666382
313.38153076 239.76620483 397.87432861
133.96107483 173.24771118 499.56942749
151.70108032 210.76953125 521.98541260
276.96499634 254.00001526 412.86099243
253.97000122 207.42399597 375.93099976
207.60975647 173.24034119 396.40042114
141.51879883 234.40881348 431.79708862
268.01922607 265.85290527 465.50042725
134.26338196 132.28479004 425.56561279
195.38499451 199.33000183 356.83898926
269.19134521 227.72851562 430.13229370
188.78523254 120.53594208 414.74307251
134.98323059 221.77693176 402.10925293
209.50636292 125.73698425 396.27972412
214.79692078 226.96061707 432.31344604
168.77700806 164.71899414 354.29000854
119.34632874 184.66351318 435.57385254
232.18267822 176.30746460 368.03747559
227.17199707 232.18299866 375.36199951
181.66400146 241.45600891 388.82897949
127.81645203 143.38018799 369.30096436
138.38499451 184.76899719 360.83200073
150.32336426 169.01344299 521.50885010
233.30599976 248.38800049 401.27499390
186.28401184 248.50698853 414.21801758
187.13142395 166.55979919 433.90899658
214.58467102 244.62858582 476.90606689
277.62402344 240.08500671 390.89199829
160.23251343 110.54581451 388.56109619
261.16201782 262.41000366 441.95101929
300.29409790 247.30596924 418.02026367
211.48895264 194.02984619 433.06359863
161.93400574 215.38000488 360.77999878
235.11419678 236.99494934 466.03662109
136.27661133 124.52690887 401.05865479
153.26872253 132.89259338 357.91561890
171.09027100 251.50299072 460.09368896
207.35800171 262.32299805 458.04101562
168.65267944 212.86856079 503.01373291
223.94700623 254.36100769 424.10299683
146.94950867 229.01544189 479.92532349
260.25531006 184.54064941 380.25115967
305.79583740 206.71485901 365.60778809
190.30757141 218.45776367 468.72045898
203.36650085 172.52127075 419.51690674
208.28099060 175.62599182 375.48599243
256.56198120 251.73199463 400.41598511
206.56800842 220.92300415 370.40298462
133.19737244 195.26109314 509.33129883
168.46466064 121.04779816 430.52005005
281.94598389 208.19250488 396.61245728
231.87303162 220.89207458 451.11868286
134.43127441 142.49301147 455.64035034
154.56372070 157.65411377 460.82211304
118.50511169 165.43148804 419.67562866
247.02581787 198.73034668 417.25451660
131.04107666 201.99787903 475.42498779
214.71588135 148.30848694 397.12072754
197.07759094 127.55084229 373.24826050
123.97792053 201.48243713 392.47857666
267.72750854 209.23313904 418.52752686
171.08589172 120.50965881 370.16406250
197.48619080 150.51884460 359.88085938
164.79357910 243.17015076 478.12301636
269.58401489 222.51300049 380.93200684
176.63597107 181.23854065 462.41647339
120.77747345 174.65553284 452.82629395
303.62243652 221.27574158 394.96871948
207.58294678 207.57797241 447.61505127
166.98707581 170.64768982 498.90338135
158.54214478 148.83132935 442.23565674
272.44692993 245.06535339 441.42733765
249.11703491 262.86120605 458.50726318
212.40200806 189.64700317 361.46499634
168.09408569 197.34028625 425.50155640
126.29583740 160.49195862 465.40005493
179.74198914 180.96501160 351.13598633
177.58087158 185.18559265 490.94796753
147.60472107 222.91596985 507.05783081
246.21209717 185.23112488 400.10012817
146.99900818 202.94400024 359.41601562
128.65480042 133.67320251 386.20480347
153.81425476 189.49821472 520.95507812
136.35719299 227.04542542 447.65322876
207.35000610 250.19198608 414.95498657
122.77085114 152.64215088 386.04199219
191.54557800 236.36192322 476.43667603
230.00622559 199.65882874 438.71719360
203.19906616 207.31988525 421.04666138
188.62100220 257.03497314 448.74099731
174.71536255 112.44174194 404.65390015
127.32879639 166.89518738 360.66500854
178.15899658 206.72000122 353.77697754
179.05764771 205.82124329 489.28500366
157.50352478 150.61048889 483.65951538
196.72399902 234.45199585 379.98699951
140.18447876 156.43428040 490.86685181
152.12400818 174.23899841 353.55200195
293.04501343 243.37699890 400.89898682
274.33175659 205.33447266 375.23278809
136.61105347 220.53840637 464.93765259
163.88925171 147.50601196 352.08340454
283.41546631 241.95468140 425.20156860
196.35652161 199.67642212 460.47314453
224.33792114 176.11535645 406.31472778
141.38813782 231.55029297 415.52932739
150.29112244 123.69311523 430.35528564
123.00695038 190.16223145 377.90039062
239.58200073 194.03900146 372.96398926
123.48200989 147.31703186 424.24026489
224.77604675 259.82452393 466.91351318
241.33999634 220.36000061 376.07199097
255.04100037 226.73387146 441.10968018
141.25932312 158.58116150 507.85165405
138.70700073 218.88899231 387.36199951
227.04920959 163.38800049 379.98132324
307.11035156 225.90356445 378.40570068
133.58483887 177.13705444 516.74285889
135.57066345 204.53387451 525.52905273
155.77050781 232.36085510 494.07086182
159.30799866 243.91900635 425.35202026
122.97436523 202.12954712 439.32073975
132.09098816 190.51602173 493.44650269
149.96199036 232.15499878 399.48400879
248.80661011 248.83911133 468.65649414
183.50950623 178.47012329 448.01254272
122.51743317 204.09443665 407.14505005
291.07174683 200.61383057 371.99768066
201.46829224 177.66006470 435.03683472
120.21042633 166.51380920 397.90057373
265.82800293 259.55001831 425.95700073
180.05320740 245.56433105 488.12792969
237.17300415 243.83700562 385.51000977
165.25300598 238.06401062 390.31500244
146.89900208 217.72999573 371.58999634
129.97158813 220.98936462 434.26245117
152.79177856 241.50799561 444.65545654
181.60374451 154.80891418 355.12988281
196.46723938 115.23656464 400.95550537
138.64002991 133.65361023 441.09512329
185.68199158 251.10000610 432.39401245
187.85841370 140.53472900 417.77740479
242.93699646 259.45800781 438.72201538
242.99928284 177.69436646 380.19003296
267.00296021 251.58425903 456.46160889
172.51100159 231.02000427 374.75201416
120.15129852 189.46473694 418.49649048
205.39013672 258.59805298 473.37033081
291.06301880 256.60501099 427.86599731
149.27003479 141.85726929 462.61053467
218.99000549 178.80099487 389.15301514
122.72171783 192.27981567 451.12622070
214.26422119 184.87634277 414.68292236
302.43435669 209.56045532 382.21343994
272.88195801 192.61029053 385.71865845
209.46162415 159.66093445 384.72885132
320.66336060 226.20024109 392.40814209
201.27952576 128.76205444 410.20474243
219.05900574 257.74700928 439.73898315
131.79252625 166.34985352 478.94830322
209.31999207 206.58000183 364.47799683
193.70600891 243.64500427 401.26998901
218.96939087 210.17329407 434.19985962
138.45045471 141.39160156 357.82226562
298.51998901 234.86000061 388.79098511
161.25373840 221.35112000 515.72076416
168.38853455 156.60975647 433.97369385
199.61163330 247.49508667 484.65975952
155.87745667 116.66053772 374.85446167
127.51953125 135.72671509 408.71749878
214.10900879 238.29699707 380.92999268
118.97713470 168.43891907 433.77975464
189.81407166 194.42868042 436.39553833
207.65356445 159.78085327 407.95648193
258.93939209 216.39764404 428.73590088
210.29139709 157.82260132 367.45034790
161.07026672 175.66050720 513.18304443
162.62153625 134.12985229 436.01214600
118.32097626 180.07473755 388.82287598
207.80580139 240.03013611 463.99304199
193.02622986 156.72425842 423.52297974
244.74546814 228.69696045 453.17367554
218.49499512 249.33299255 404.92098999
142.25045776 122.45693970 415.34765625
215.72930908 221.29695129 445.48809814
175.68188477 183.22778320 476.13735962
195.51199341 215.13200378 361.96301270
221.73219299 220.73097229 419.58279419
159.84068298 201.78340149 513.62542725
175.05499268 243.63000488 401.75100708
145.71308899 116.62601471 389.74282837
137.52832031 214.69363403 479.89105225
238.69680786 193.97325134 428.40530396
211.93220520 136.25363159 386.77722168
172.06500244 246.91999817 416.91198730
272.01000977 265.55899048 451.11401367
278.64074707 215.07324219 409.24127197
170.59161377 224.65382385 494.77279663
302.47067261 234.08328247 406.92221069
241.81253052 185.38055420 414.24081421
193.81399536 185.37600708 353.41400146
235.60400391 252.59700012 414.84799194
253.83311462 261.51538086 473.07946777
188.96952820 257.61352539 461.43612671
131.04997253 177.90943909 486.85665894
190.49125671 185.77635193 461.33694458
225.31098938 190.73199463 367.42999268
254.81701660 221.64698792 380.34701538
126.47280121 181.59078979 368.58816528
198.78428650 119.28493500 384.35314941
221.03086853 235.39859009 467.15930176
261.60601807 255.23999023 413.11801147
126.21401215 192.57965088 466.19793701
162.24584961 170.29205322 461.32501221
181.69308472 209.08735657 476.18655396
179.90130615 129.27655029 421.33248901
222.85630798 255.47128296 480.65463257
130.33708191 221.23631287 415.13385010
159.07293701 162.00619507 511.85906982
253.58331299 193.87091064 372.59405518
174.36567688 198.35380554 499.67263794
264.13699341 242.74299622 389.33599854
194.64518738 138.12211609 364.40051270
122.60760498 156.98283386 371.07540894
225.19700623 218.83599854 373.04602051
150.51699829 189.40899658 354.21899414
224.83099365 244.89399719 391.16799927
229.13160706 244.27140808 475.24694824
267.05090332 192.62940979 371.70568848
207.94799805 176.86300659 361.36599731
145.23327637 180.75967407 526.98022461
166.35499573 179.05999756 351.22601318
224.74638367 163.62315369 398.81536865
270.36300659 249.85000610 401.88400269
136.63984680 130.18952942 368.26132202
138.84710693 210.36984253 506.22940063
231.00932312 213.44862366 439.61022949
200.94476318 191.89999390 423.49163818
162.06202698 163.21633911 488.85974121
254.30216980 191.34536743 391.46575928
145.07514954 222.83872986 491.12240601
201.74162292 203.25961304 432.12734985
211.20188904 139.82679749 406.44097900
129.16647339 143.21530151 440.72396851
285.56600952 229.28399658 385.27700806
279.78060913 229.92019653 420.37023926
185.52713013 118.80181885 375.71151733
241.07499695 233.48300171 378.13800049
129.47470093 153.06141663 359.61444092
177.96415710 234.26542664 477.02819824
199.69712830 228.94523621 469.14822388
154.82617188 161.90658569 354.10464478
277.26199341 261.24502563 432.39199829
317.08126831 207.35556030 372.91519165
157.18975830 161.43981934 473.11679077
178.01794434 222.69654846 469.35543823
182.78099060 167.11999512 355.54901123
238.23800659 206.96299744 374.15298462
177.12263489 115.98072052 417.75177002
245.48699951 248.67799377 394.19799805
139.72279358 169.78038025 355.57992554
199.70399475 213.50254822 460.78018188
134.21400452 196.15299988 368.16998291
151.83967590 113.63903046 400.58953857
184.24000549 193.62300110 350.93399048
221.27824402 177.68435669 375.69244385
220.02085876 191.66998291 424.90921021
176.31752014 169.35888672 440.48254395
205.27124023 193.31874084 441.36608887
166.82373047 128.53837585 361.28793335
197.84199524 250.98100281 424.64398193
152.62995911 237.14672852 471.26354980
178.87582397 190.36872864 430.24023438
175.35935974 252.67257690 448.52304077
174.00672913 110.13578033 392.12326050
150.09582520 226.46574402 519.13995361
178.04257202 252.67800903 470.19183350
293.58126831 212.28434753 391.44845581
148.67326355 124.57957458 366.02716064
214.90330505 203.77165222 420.07641602
180.33781433 156.11253357 428.04077148
165.87742615 233.57247925 485.61761475
239.11846924 176.07759094 404.87835693
162.54399109 225.13600159 370.14898682
241.30815125 220.56021118 442.88967896
311.55499268 233.80744934 387.29888916
125.86766815 138.86437988 397.32186890
148.62837219 199.81840515 526.60736084
286.31286621 202.71900940 383.37084961
154.33036804 143.42663574 452.06094360
289.22500610 249.34400940 411.01101685
265.03439331 234.07144165 440.63946533
212.28300476 254.15399170 428.09997559
159.83699036 244.78137207 455.54330444
248.42199707 252.58099365 409.54800415
219.09600830 259.74099731 452.93899536
118.24053955 179.16638184 425.24438477
239.02618408 260.79571533 468.90005493
254.71893311 206.82252502 422.30947876
162.59799194 205.15600586 354.22198486
254.59701538 258.72998047 431.79501343
175.27900696 217.88301086 360.55499268
149.02536011 144.41844177 352.69271851
174.23696899 113.98785400 379.73742676
135.00569153 123.54352570 388.16772461
152.74482727 147.00981140 472.48986816
124.10283661 159.42758179 454.09072876
302.45657349 216.23506165 372.17132568
148.57835388 147.53744507 491.69857788
203.08789062 165.43873596 364.13433838
163.23045349 245.52291870 466.80776978
133.75531006 149.80917358 464.69546509
131.96997070 183.21627808 506.73693848
312.28353882 216.70948792 387.27072144
139.68429565 164.33383179 517.96215820
225.07720947 227.24514771 458.19512939
185.51699829 233.29000854 376.25198364
129.37397766 205.02557373 464.82171631
292.75347900 236.19102478 413.87142944
281.30941772 248.87243652 434.69546509
142.87161255 217.27326965 517.23345947
165.08317566 116.57794189 419.57638550
157.73815918 158.06489563 449.69378662
215.37600708 228.58399963 374.42700195
246.07005310 239.05468750 462.28182983
209.26632690 158.92819214 396.43817139
166.52661133 236.58703613 496.69485474
150.92147827 238.41105652 411.69293213
131.68479919 189.29957581 519.34826660
145.28158569 135.29547119 454.24359131
130.39057922 192.77143860 482.33459473
159.08363342 122.78478241 437.76083374
264.67098999 232.66699219 383.51898193
273.14437866 182.23413086 372.59680176
181.89976501 128.40705872 365.06152344
192.09527588 159.91392517 357.46398926
143.61384583 229.37794495 469.48983765
127.13785553 210.26028442 399.41662598
258.22210693 198.69015503 414.19177246
185.22505188 113.04860687 399.45764160
202.47801208 260.17199707 447.80798340
191.94143677 175.44015503 442.06399536
163.06813049 111.04295349 400.86816406
308.16290283 243.73899841 409.32833862
167.68591309 177.22773743 468.94873047
174.92100525 249.41000366 428.48300171
201.57598877 241.80726624 473.34689331
133.19354248 225.68325806 424.45452881
168.56381226 176.26808167 489.35726929
270.18743896 203.02024841 407.74597168
273.95413208 200.12829590 396.21835327
120.13726044 157.68957520 428.41839600
167.23202515 226.50343323 506.41430664
199.10900879 239.06600952 391.43499756
189.88911438 251.49899292 488.82357788
237.26100159 256.58700562 429.45001221
152.10392761 239.71832275 433.60638428
129.95399475 208.38299561 387.02700806
271.58404541 220.72514343 421.69244385
257.34011841 247.41262817 461.62182617
123.53144836 178.80261230 462.31268311
218.38157654 153.62510681 380.84173584
189.41473389 208.80023193 462.33013916
250.72601318 261.71899414 446.34197998
119.20701599 160.07304382 410.26510620
133.74610901 157.46328735 472.94421387
246.21948242 183.65634155 389.14434814
206.60406494 174.86241150 406.26586914
284.51025391 209.87451172 375.16867065
261.46798706 265.38000488 456.83898926
281.97299194 247.12699890 403.04602051
164.26882935 145.64082336 433.07162476
185.25387573 144.93630981 356.79479980
215.74499512 215.28599548 368.42300415
274.25296021 237.40611267 431.85671997
236.45349121 168.51699829 382.50717163
288.40090942 216.26132202 400.57723999
265.88702393 241.37362671 449.21713257
182.16987610 195.69500732 486.58856201
318.50787354 227.34219360 380.80841064
129.06849670 215.00308228 446.13357544
311.55859375 229.15713501 399.18731689
118.46969604 175.31300354 415.14953613
119.60379028 168.48138428 387.40744019
199.01918030 168.18318176 427.92272949
127.57620239 148.81660461 450.22100830
169.80422974 132.80101013 427.58401489
262.87002563 213.11601257 377.99099731
207.94003296 171.81419373 385.38458252
275.41693115 254.11859131 446.85330200
281.57897949 194.81604004 375.45254517
313.66961670 218.26052856 373.60592651
206.20417786 127.01934814 383.11581421
198.87518311 260.45471191 465.13391113
197.10000610 225.84100342 369.94299316
141.68714905 231.60894775 455.80029297
135.68235779 166.29232788 489.62219238
142.67698669 225.48599243 395.50201416
204.45198059 136.33505249 374.06378174
214.34011841 259.29537964 464.63357544
143.76521301 235.44372559 442.40817261
210.96536255 254.24215698 480.67626953
232.89997864 174.65832520 413.20547485
280.48101807 220.60800171 381.30899048
141.89215088 213.02566528 526.73144531
202.32925415 196.87948608 450.23138428
205.13999939 197.71400452 360.36801147
237.47756958 204.04873657 431.98587036
151.70300293 211.88500977 362.25100708
134.99929810 128.68595886 410.97296143
174.81289673 177.53326416 452.87042236
120.95361328 196.37568665 399.98251343
120.64294434 190.62988281 386.32003784
287.91998291 238.42900085 391.37200928
198.32499695 247.26599121 409.90100098
235.85028076 227.94705200 458.44421387
153.84880066 231.13874817 505.02700806
133.89759827 201.58845520 489.83218384
123.91790771 149.09652710 434.25415039
173.95687866 217.19470215 488.47460938
263.29101562 202.81800842 376.21398926
120.63819885 194.39051819 431.71820068
208.99409485 208.94087219 438.08618164
120.83514404 200.07878113 416.24731445
142.48399353 208.60600281 366.82000732
216.36528015 179.91427612 399.33135986
119.91100311 167.63763428 443.39392090
167.75657654 138.67713928 355.46777344
201.47084045 160.92987061 419.93789673
171.46141052 179.89466858 499.53402710
120.62159729 155.63180542 396.84930420
148.43940735 128.18367004 440.77029419
238.90254211 246.80108643 472.85787964
146.17399597 223.60099792 380.45401001
254.63198853 246.74400330 390.00201416
124.91509247 209.43922424 431.47863770
296.90600586 226.20800781 381.67102051
154.75207520 235.08590698 483.10787964
141.53912354 230.27388000 407.04061890
187.82200623 207.79800415 356.83200073
217.91999817 181.93499756 365.14700317
148.05136108 158.67166138 516.43341064
206.78141785 165.00071716 376.61294556
228.46699524 257.39398193 435.91601562
213.56506348 219.56857300 424.76367188
196.33030701 137.50155640 412.96151733
120.56353760 183.64886475 444.80963135
238.72045898 182.94755554 372.20330811
217.02699280 200.16400146 365.77099609
231.43295288 168.54408264 405.10610962
260.29190063 257.73400879 466.29602051
133.36531067 127.31861877 378.17791748
176.50706482 249.40432739 479.68081665
139.94487000 171.02856445 525.37902832
205.19401550 148.76525879 366.01290894
228.66136169 190.16378784 430.05654907
148.58175659 145.79296875 481.18527222
240.34700012 261.51901245 454.06600952
226.69898987 250.74099731 410.47900391
169.31011963 155.81190491 354.05395508
250.48678589 184.37213135 377.58300781
172.75900269 187.86399841 349.35800171
166.76249695 203.69323730 506.35272217
143.58172607 191.16079712 529.42620850
206.43299866 232.43400574 378.51599121
213.31771851 136.71325684 397.13262939
122.37520599 147.78092957 414.87646484
163.31715393 162.03137207 502.06570435
142.30300903 194.21600342 359.99700928
164.76713562 245.93919373 444.77313232
158.73764038 123.59821320 364.99600220
276.40100098 257.50198364 423.25601196
205.10496521 185.16275024 429.31405640
263.95794678 193.53805542 391.26483154
128.29586792 138.38714600 420.79037476
203.17723083 118.53511810 393.60940552
254.31645203 193.04512024 402.87307739
147.53828430 237.12889099 425.14898682
154.64715576 179.24192810 519.80017090
208.90252686 209.17694092 428.87393188
154.88200378 198.19900513 353.26599121
138.76345825 198.92683411 533.08105469
225.46662903 167.37402344 388.84671021
158.92950439 230.92149353 517.47161865
126.68174744 139.77981567 378.13174438
136.09953308 167.12857056 509.34756470
224.13200378 239.84600830 382.79000854
223.63475037 174.55220032 396.03384399
193.70314026 188.75503540 428.78475952
126.82373810 213.66685486 408.47003174
147.58560181 152.18153381 504.01348877
153.91827393 152.83799744 350.65899658
223.64752197 182.28639221 414.14193726
203.01300049 186.59800720 356.27801514
170.72399902 199.00199890 350.88101196
127.29002380 199.94496155 380.99948120
182.50938416 115.09502411 409.71524048
225.06196594 212.83894348 414.46182251
135.59875488 203.31961060 500.56137085
155.98907471 118.70137024 422.04339600
177.23100281 236.45899963 381.82897949
159.76499939 237.24299622 399.72497559
186.56082153 226.87477112 473.02716064
301.58193970 240.60929871 396.83312988
119.26703644 180.15757751 380.40979004
188.42808533 241.66659546 483.40029907
141.92451477 128.14379883 431.98471069
132.33799744 214.91600037 393.63500977
119.20069885 193.01806641 408.41537476
191.34425354 192.41246033 467.87637329
182.76300049 250.15800476 423.01800537
162.52976990 243.95597839 433.69354248
284.61700439 255.23999023 418.88897705
134.56407166 202.93186951 516.26617432
128.71411133 141.12693787 431.16687012
132.38647461 216.69912720 456.13504028
172.57211304 240.72521973 483.38253784
228.96577454 167.90850830 371.84600830
291.33300781 246.96017456 423.49490356
276.16598511 229.20599365 383.76998901
133.45254517 210.74455261 471.09146118
200.66676331 206.75393677 453.89782715
133.17601013 176.94419861 361.01483154
209.74031067 186.18962097 421.60382080
154.42199707 232.87699890 389.57501221
188.61900330 174.53999329 353.43399048
199.99279785 256.35311890 481.36727905
230.07901001 257.82067871 474.50573730
160.20051575 154.42608643 492.06808472
126.93358612 167.79106140 471.16024780
120.93712616 160.57240295 379.74465942
139.23100281 214.09700012 375.79598999
146.09399414 181.26100159 356.11798096
209.35134888 210.33052063 414.80209351
224.70329285 218.71455383 444.69326782
163.01670837 158.97659302 440.57208252
214.65205383 147.07095337 387.81140137
127.59916687 217.47225952 425.20565796
219.24200439 251.71598816 416.12802124
183.51994324 199.80126953 429.06381226
197.54199219 261.11199951 455.75799561
298.01086426 225.61744690 401.59671021
208.14302063 216.52532959 455.58483887
249.19831848 218.95890808 438.26580811
161.93899536 171.14700317 353.54598999
215.95678711 257.84527588 473.63842773
161.91835022 189.16511536 514.70135498
136.70780945 157.35650635 481.26428223
246.13166809 206.04864502 425.96151733
293.77667236 209.45771790 374.63061523
271.11599731 263.24700928 439.06900024
216.21002197 202.54588318 428.75122070
242.73213196 177.53211975 395.08276367
144.96331787 118.83255005 404.38159180
123.64128113 187.63504028 459.03869629
190.88200378 240.20199585 387.31500244
134.01324463 138.96751404 447.32550049
178.28500366 246.80499268 409.87701416
173.14085388 146.13392639 354.13467407
179.42900085 250.96800232 439.83798218
124.17675781 143.91625977 388.80523682
209.09599304 248.80899048 405.99398804
165.42285156 112.59068298 409.67517090
307.72366333 206.62416077 374.99453735
175.01200867 171.43000793 353.08502197
184.31445312 186.66023254 471.20327759
181.24360657 146.25097656 422.71826172
134.62820435 161.76098633 355.33773804
195.87054443 119.98313141 408.86309814
118.35794067 185.76976013 396.90744019
197.98020935 189.78851318 456.82568359
187.09568787 203.95808411 471.22540283
122.67130280 168.72676086 459.28305054
232.72799683 238.38299561 379.20999146
211.46998596 259.35198975 446.22497559
280.75411987 261.35256958 450.20275879
261.43109131 223.59324646 433.85513306
122.85625458 172.07757568 367.16070557
253.29849243 231.88740540 448.37380981
233.77099609 214.70800781 375.90200806
157.34661865 140.05717468 354.07153320
194.55055237 114.44841766 390.73745728
119.04892731 176.13888550 397.78582764
176.27621460 122.38864136 425.80020142
123.68778992 200.80325317 447.79580688
191.29571533 129.23678589 413.99792480
128.92596436 184.08299255 479.77526855
220.07096863 198.49827576 436.11462402
142.02143860 216.24351501 499.07855225
157.67828369 137.20045471 445.19943237
186.44300842 215.84400940 360.71099854
248.90998840 214.60501099 378.03201294
184.81500244 245.17999268 400.94198608
233.01699829 261.01800537 462.26300049
165.80358887 115.78498077 375.67694092
170.37998962 223.18099976 365.92098999
169.75833130 229.89309692 474.39453125
172.95993042 207.31304932 497.57675171
136.99154663 163.84330750 501.36972046
173.24900818 241.49099731 392.26800537
195.92599487 257.08599854 442.61999512
145.16342163 131.63209534 361.56393433
193.12599182 201.07383728 430.01770020
275.07598877 213.50700378 378.80001831
247.03202820 257.54672241 477.95626831
263.78399658 248.56199646 396.16598511
159.63757324 210.54060364 514.62420654
217.29014587 182.22311401 407.09072876
246.02886963 191.14402771 409.23703003
166.11224365 176.12576294 505.72961426
130.22982788 130.98727417 400.71621704
281.30859375 223.84934998 414.17224121
208.45967102 130.34661865 405.65744019
216.51899719 243.41400146 388.91900635
125.93458557 197.94975281 459.71270752
274.88604736 265.13018799 459.27862549
142.22402954 124.54853058 423.79779053
122.28701019 201.46487427 427.06484985
216.33120728 154.87240601 391.51712036
153.81022644 113.92295837 382.80035400
257.62298584 257.06100464 423.85198975
201.88127136 193.41708374 433.62130737
207.94599915 240.53999329 387.20800781
153.91865540 152.01914978 454.60586548
246.65200806 199.11601257 373.43499756
158.21699524 181.84800720 350.90499878
124.44676971 148.33660889 377.99240112
205.05833435 122.30782318 402.68411255
132.13177490 222.34469604 441.89953613
150.05203247 229.03295898 487.73510742
170.62390137 248.38571167 473.60809326
182.09933472 181.85816956 456.61080933
135.19110107 180.23744202 526.77990723
234.54100037 227.90499878 376.21600342
204.01318359 167.25270081 412.01083374
141.45236206 222.16931152 477.75183105
249.82200623 228.47200012 379.27499390
200.95500183 205.13699341 360.58999634
242.85430908 192.27438354 420.97241211
263.52624512 184.88934326 372.09539795
190.59495544 129.24163818 367.90927124
203.26809692 156.94696045 361.99990845
313.10147095 210.36386108 380.45355225
200.68299866 178.42898560 355.92999268
150.20716858 226.97212219 497.64544678
231.44300842 195.57600403 371.11099243
132.08116150 183.57093811 498.58911133
233.06800842 245.65699768 393.02502441
204.15139771 224.01853943 462.81954956
193.81204224 148.62286377 419.19485474
213.75497437 155.00408936 402.44296265
268.52166748 258.86523438 460.73385620
197.59858704 201.38241577 424.37426758
147.35382080 165.68778992 353.52246094
183.91400146 211.54418945 467.41418457
301.49316406 214.73338318 389.53063965
204.24707031 138.17427063 410.69735718
245.38800049 242.64700317 384.21899414
217.79891968 226.71942139 453.66171265
277.84786987 198.94172668 388.46948242
216.54814148 213.12304688 419.88253784
134.95191956 207.39996338 484.07748413
217.91986084 248.96160889 483.20098877
236.18229675 172.05093384 375.02258301
147.84545898 237.94505310 450.01855469
171.46800232 211.84300232 356.20098877
209.12997437 197.57676697 425.48727417
127.94461823 190.57025146 474.70547485
154.42471313 218.54888916 520.93951416
226.53298950 181.94499207 366.54598999
119.09827423 168.82997131 405.26928711
176.24761963 195.58044434 424.91439819
133.35884094 194.54702759 500.25653076
128.63664246 174.47454834 478.27267456
172.49566650 181.08856201 484.06271362
319.05535889 233.15275574 396.96435547
204.69799805 213.47500610 364.60900879
219.92700195 255.54000854 431.25701904
154.89050293 154.89601135 509.50653076
160.50573730 165.64270020 454.88287354
240.94999695 250.61500549 403.54202271
248.58285522 224.52554321 445.66445923
136.67391968 224.42376709 458.15795898
128.57099915 194.70700073 374.22299194
154.21899414 220.13400269 368.71401978
176.57600403 161.74000549 355.92098999
142.90805054 143.21839905 467.38482666
160.13943481 168.49995422 468.34341431
203.04916382 176.41670227 426.49597168
190.78788757 182.88958740 454.27108765
268.17327881 186.25244141 380.98751831
146.10325623 116.61838531 381.52700806
180.65647888 255.09997559 459.87536621
253.85499573 254.57600403 415.56900024
293.13998413 252.54399109 417.40997314
232.07400513 254.50599670 423.49200439
287.41137695 255.86512756 436.32104492
230.54167175 250.47483826 480.13098145
275.04260254 197.96658325 371.85168457
298.51345825 205.62426758 369.00305176
176.31895447 215.02568054 477.21209717
211.43035889 148.06013489 405.77764893
310.43200684 236.04826355 404.40066528
294.82189941 206.88705444 383.33966064
142.32843018 151.64819336 485.09735107
121.24697113 160.75512695 389.59979248
168.42988586 234.86338806 504.68307495
154.79559326 202.53923035 519.80200195
166.79798889 246.85400391 425.38500977
201.28167725 182.58132935 442.52053833
133.48114014 196.74629211 525.59783936
125.98569489 213.23805237 416.49404907
214.72891235 239.73213196 470.87243652
137.48416138 229.97395325 436.86282349
141.55978394 140.57655334 460.21066284
278.51000977 264.20599365 443.19702148
168.13224792 175.57141113 459.11798096
138.21379089 210.12603760 516.67993164
147.19931030 218.52571106 524.44079590
169.10800171 250.04864502 452.57586670
323.44793701 222.66482544 385.63427734
157.77378845 242.19004822 439.16894531
129.93269348 149.28135681 457.97814941
133.60893250 174.94102478 507.05636597
215.13000488 178.56800842 382.18099976
239.68649292 222.51257324 450.43453979
213.72341919 233.32765198 461.87036133
269.19900513 255.19999695 415.49499512
201.50845337 140.78950500 368.06115723
119.12122345 187.07334900 428.10516357
265.71594238 202.01698303 414.23190308
190.56642151 116.41230774 382.30490112
220.27326965 223.49510193 427.10665894
274.98559570 189.61308289 378.40905762
189.50599670 228.01899719 370.40298462
296.89999390 247.76800537 409.93499756
275.51803589 205.21794128 402.38241577
177.79512024 193.91622925 494.18759155
257.02706909 264.55981445 464.28604126
182.37066650 121.16874695 420.47619629
167.74977112 112.00999451 383.89392090
179.79307556 121.38946533 370.87185669
189.57225037 115.28270721 406.24832153
139.17234802 232.02787781 425.16003418
231.89199829 187.51100159 370.30801392
173.72468567 173.52337646 446.51962280
206.12336731 166.72229004 390.52832031
215.00498962 247.30200195 397.75402832
160.03712463 236.24450684 502.70861816
152.31700134 224.25900269 375.12902832
130.69502258 133.85198975 374.30157471
184.71440125 201.01075745 479.24588013
240.66397095 173.05297852 388.82278442
212.28900146 256.83999634 435.47100830
205.19474792 167.24334717 401.70388794
156.96899414 242.36900330 415.16500854
180.44427490 186.72158813 484.08432007
132.50398254 141.47140503 363.23565674
295.15167236 218.22238159 396.57647705
245.35900879 257.41799927 429.51000977
157.18428040 241.26231384 463.60736084
183.59556580 173.09934998 440.98394775
270.52600098 244.43699646 393.51998901
131.36199951 187.26600647 366.98999023
213.63900757 177.57600403 370.02600098
166.07037354 126.98353577 436.25155640
167.82099915 240.69898987 401.91799927
223.92199707 247.87298584 399.50399780
125.21790314 159.89393616 363.46166992
121.31919098 182.65966797 452.29089355
215.64511108 154.20472717 373.69195557
119.42990112 184.79876709 411.56845093
143.03001404 205.83729553 529.37701416
205.30499268 253.11601257 424.45800781
215.14201355 214.27525330 439.82122803
210.76382446 129.07360840 389.27212524
202.50999451 246.03498840 402.98199463
131.59266663 128.49163818 393.34634399
259.24798584 263.51800537 449.37500000
161.44683838 156.49766541 352.95394897
311.20098877 211.10470581 369.04629517
236.35020447 181.19683838 417.67681885
177.19380188 161.33821106 432.95684814
192.35910034 257.43209839 470.62243652
191.67999268 221.83099365 365.36700439
173.91369629 190.63388062 500.16583252
246.59025574 261.82421875 467.01293945
206.83151245 152.47023010 410.70367432
273.57867432 209.75683594 411.56527710
153.75199890 154.98863220 467.46899414
159.62858582 241.80271912 472.47375488
228.89137268 232.75048828 463.94091797
265.76770020 214.93572998 423.39065552
137.28240967 218.20118713 471.72689819
162.02899170 231.75199890 380.09597778
251.23814392 211.27476501 428.63229370
125.88968658 209.63542175 440.22991943
196.92692566 241.89562988 479.26806641
237.35220337 187.31944275 422.96261597
133.93908691 223.13391113 409.40722656
200.00498962 249.27600098 417.48300171
153.98751831 163.49342346 517.43011475
121.24256897 180.55677795 373.92935181
148.14950562 118.25028992 374.33349609
285.88116455 234.21197510 416.57806396
263.81399536 260.86999512 433.20700073
244.88681030 187.66505432 372.44033813
139.28015137 148.23432922 354.50363159
169.45399475 234.40200806 380.86300659
277.04302979 245.66000366 397.41998291
207.55242920 179.64787292 412.97653198
284.92587280 194.85063171 368.56332397
168.96978760 225.18130493 487.49514771
241.23541260 261.82296753 461.73727417
140.96269226 135.09550476 448.07199097
164.62658691 216.79205322 508.09478760
242.53028870 199.44502258 424.27362061
211.99156189 214.70809937 448.00054932
212.89733887 203.72529602 413.06576538
257.67300415 228.66299438 380.86398315
192.58000183 248.56999207 419.75299072
159.37265015 120.50636292 430.49929810
133.10348511 135.88482666 434.37878418
204.38595581 169.37829590 371.62216187
145.62181091 233.30653381 463.70477295
227.11676025 239.03604126 470.31918335
249.07701111 250.69299316 400.68399048
224.39128113 172.82546997 384.01968384
168.68041992 178.25634766 478.23547363
188.03500366 253.37500000 439.18698120
192.07000732 193.39799500 353.57299805
173.49499512 198.90289307 430.40490723
320.47140503 232.59921265 388.50970459
186.74600220 186.49899292 351.11801147
177.83700562 226.85000610 368.57901001
119.83605194 157.77311707 421.38735962
187.49894714 136.59054565 361.62167358
255.73501587 253.36700439 408.03399658
147.54100037 227.06599426 386.97299194
218.76400757 222.25601196 371.24600220
234.41073608 217.22967529 445.21649170
143.76133728 153.30984497 497.80499268
132.72358704 213.84478760 464.39248657
125.07141876 184.72384644 467.21286011
139.81098938 199.94898987 364.08001709
182.47294617 251.44526672 483.78890991
159.56259155 163.69883728 479.57821655
119.36719513 177.32940674 440.74481201
227.70500183 258.86801147 443.36199951
218.33999634 208.32000732 368.79797363
151.90052795 112.91756439 391.58056641
133.55383301 173.02897644 492.03909302
168.43145752 235.87251282 479.00463867
119.97444153 161.49752808 436.42477417
207.21835327 201.23263550 419.39303589
224.76910400 222.35073853 452.58953857
256.28811646 186.62507629 373.45822144
213.20568848 177.58773804 391.86810303
194.08300781 252.18298340 430.90600586
312.58914185 223.70581055 393.89389038
188.80072021 152.97845459 356.30374146
296.29476929 252.93388367 424.10147095
120.91070557 192.43908691 438.21591187
135.90556335 204.03262329 508.80545044
221.38964844 187.15608215 418.93429565
209.59011841 138.29702759 380.19689941
172.54797363 217.71176147 496.42211914
186.75692749 160.85778809 428.53976440
205.00752258 247.68649292 476.69296265
288.43484497 207.28230286 389.68606567
161.91090393 134.28152466 356.59857178
252.82762146 187.52059937 383.84497070
252.93699646 260.23400879 438.78399658
156.88101196 208.74600220 358.11297607
224.66908264 204.61697388 438.41018677
177.83799744 197.18099976 350.85400391
137.14961243 128.07446289 420.03677368
206.86244202 232.40020752 465.76437378
193.37765503 170.73371887 435.83786011
219.40000916 234.07499695 378.13500977
243.50099182 253.99899292 416.50097656
127.55611420 174.71873474 363.26263428
240.23492432 234.61778259 461.28659058
287.89312744 250.15299988 429.32516479
165.47915649 182.94323730 510.08737183
163.22204590 169.26553345 484.98184204
135.34399414 213.58200073 383.65301514
168.49790955 163.79693604 439.05703735
259.78887939 235.79034424 448.68063354
194.42520142 121.81233215 376.79104614
143.55696106 118.48519897 396.53179932
170.11814880 110.21334076 399.12463379
158.05920410 194.99772644 516.82275391
142.52401733 123.55652618 369.85455322
171.45886230 149.70339966 428.26361084
275.31552124 232.37010193 426.66375732
149.18577576 120.29469299 420.38516235
156.40727234 155.21562195 476.74295044
308.76052856 238.06858826 392.72689819
195.19329834 207.43461609 458.68124390
306.56207275 243.06161499 402.37231445
151.98475647 230.28184509 513.32080078
168.59300232 243.27301025 409.77200317
153.53457642 135.69110107 452.80587769
233.17118835 165.02517700 387.84188843
185.22644043 254.84204102 470.82632446
163.26483154 166.96534729 507.32116699
160.42462158 143.05094910 438.10949707
126.13384247 151.27145386 365.58685303
187.01312256 150.52264404 421.46926880
293.75531006 230.62380981 408.34802246
252.55682373 241.36054993 459.64724731
275.26086426 217.77033997 416.27813721
279.77099609 211.11856079 403.26651001
260.86254883 204.50782776 419.32614136
152.33355713 148.73007202 464.20080566
168.23883057 196.64982605 506.38674927
227.92283630 178.42158508 418.42248535
220.07118225 206.18699646 414.17276001
174.48266602 124.98696136 365.81768799
121.75823975 166.50874329 452.83728027
136.30999756 203.75900269 369.96902466
169.83799744 221.80267334 501.72293091
154.15861511 147.97663879 496.06973267
188.36399841 246.27499390 407.05499268
185.29400635 238.19099426 383.35299683
184.25463867 133.32049561 417.70932007
293.11401367 230.80499268 385.59402466
205.21899414 173.33300781 366.92498779
223.65216064 246.78898621 479.66839600
158.32012939 169.47637939 515.20550537
270.85598755 235.07598877 386.07699585
147.06161499 117.90373993 411.02658081
245.66600037 205.54100037 376.30099487
201.78195190 199.45945740 443.25765991
217.15986633 217.69096375 415.07739258
153.86900330 235.95201111 404.01699829
203.08099365 227.35899353 374.89199829
185.00602722 233.10023499 476.81863403
146.98278809 136.56632996 356.94970703
260.42620850 189.18261719 385.77270508
261.13922119 244.28721619 455.70755005
193.17106628 225.69512939 471.25759888
186.88600159 199.61799622 353.55999756
206.77372742 245.31289673 469.42410278
302.98199463 229.81298828 382.47900391
232.61801147 202.25100708 373.05798340
190.52299500 259.52999878 455.61999512
198.13728333 134.42375183 369.05746460
249.52758789 190.72720337 397.21740723
199.23300171 193.45599365 356.28100586
166.18086243 139.41468811 429.68423462
139.88800049 176.64698792 358.62100220
247.77389526 234.39569092 456.09906006
205.09365845 122.08158875 387.89987183
210.40364075 158.34585571 377.95077515
119.56545258 161.79039001 402.40716553
169.38909912 229.39727783 500.37835693
235.77459717 209.86354065 436.12033081
284.27551270 202.95285034 374.23452759
159.08175659 128.01040649 444.18121338
125.50513458 140.65058899 413.50622559
262.46154785 197.34124756 408.75399780
159.36097717 182.19734192 515.03021240
140.46453857 118.59428406 385.58398438
200.18840027 152.86769104 419.22567749
320.19903564 213.55989075 373.82235718
262.77801514 251.90200806 403.61401367
280.67526245 253.15069580 440.28286743
286.22799683 243.89199829 398.54199219
296.30917358 216.28627014 375.41561890
185.67153931 189.38359070 431.88528442
258.29254150 193.82824707 397.17160034
221.66400146 260.20199585 459.41201782
182.75291443 114.82842255 380.67156982
149.19657898 237.51014709 417.29370117
283.54598999 259.30700684 430.07498169
208.71600342 183.16300964 358.32400513
318.16619873 214.78634644 383.06292725
182.86810303 255.68286133 452.91690063
128.16693115 154.66250610 462.14337158
203.67895508 236.08428955 470.26016235
227.52099609 212.31700134 373.52697754
234.21525574 196.53775024 434.18136597
189.45899963 165.65699768 356.71099854
168.22799683 218.22200012 361.40499878
155.80049133 112.87024689 406.17852783
271.04672241 248.63374329 447.33563232
163.16795349 237.11392212 490.83517456
172.58616638 116.83223724 422.94000244
120.87024689 194.23298645 394.17434692
267.36950684 221.43908691 427.11096191
162.62100220 244.75399780 418.38101196
204.22286987 200.59727478 437.45715332
254.61810303 253.79687500 468.00891113
141.33125305 232.60232544 449.44592285
130.67648315 184.80584717 488.05755615
195.53027344 192.62631226 462.24484253
141.06701660 217.48686218 489.06063843
147.18795776 155.29714966 510.58786011
165.78196716 170.27264404 491.32406616
227.62399292 225.50199890 373.77798462
193.15032959 165.13201904 429.69259644
161.08000183 220.34400940 365.45101929
158.04627991 164.55241394 463.24246216
163.13848877 119.03990936 370.24853516
241.90834045 181.54315186 408.25888062
205.90740967 159.33253479 415.07974243
170.94244385 114.65959167 413.07192993
132.46083069 168.92387390 357.18258667
126.36209869 148.80119324 443.77722168
120.90888214 166.30955505 370.22982788
292.09741211 241.59049988 418.16546631
255.64300537 213.77600098 378.85000610
271.05267334 188.14590454 368.49472046
255.19636536 199.94433594 375.57089233
193.87426758 190.06512451 423.24429321
122.12360382 195.11972046 444.03881836
245.73913574 251.62449646 473.99264526
190.03077698 201.83332825 464.55123901
271.02343750 238.93884277 438.49725342
131.85841370 132.60250854 415.77755737
145.68962097 164.00732422 521.20336914
157.68391418 110.40854645 396.77511597
181.78268433 239.67440796 482.79971313
268.58300781 252.95999146 407.67898560
158.49685669 157.82867432 482.90783691
172.50306702 132.61732483 359.48233032
222.86421204 194.50823975 430.48068237
120.77295685 194.94660950 424.47952271
120.82772827 153.29478455 411.03771973
163.54176331 152.03099060 436.21441650
234.66386414 241.81559753 470.93057251
202.92900085 236.32000732 385.40399170
190.31437683 178.98277283 447.71060181
285.51748657 220.22320557 407.00582886
198.17085266 144.08715820 363.43817139
255.78096008 220.94223022 436.48446655
198.52735901 164.36141968 359.68722534
211.23699951 197.57600403 363.29699707
178.64637756 111.40443420 399.20663452
229.12800598 242.62500000 386.40100098
194.11500549 205.99299622 358.48999023
218.66000366 189.04598999 363.91799927
235.39500427 259.79699707 444.87399292
227.13517761 171.87155151 410.69183350
210.11080933 150.00480652 370.51443481
188.09199524 243.32701111 395.34899902
243.76898193 242.90618896 467.12063599
118.45958710 167.05094910 425.80865479
263.14700317 220.58900452 381.33901978
196.57002258 252.96730042 487.04763794
190.87153625 142.80809021 359.92565918
158.33447266 243.87176514 448.13842773
135.85040283 171.35234070 520.08227539
223.82769775 213.82673645 440.13555908
121.99357605 161.52920532 448.35876465
181.04458618 111.23093414 392.12924194
184.60618591 160.56808472 357.13088989
145.92953491 174.14356995 526.36083984
167.25817871 231.79046631 491.79086304
124.06818390 197.08546448 384.97195435
128.04940796 198.93428040 468.06271362
176.21624756 228.35690308 472.50711060
222.57516479 242.58735657 474.55975342
134.09252930 226.94036865 432.07519531
231.86103821 166.61410522 398.51132202
269.12600708 211.09298706 376.72799683
122.35710144 149.22837830 394.39071655
247.22898865 237.37399292 379.37301636
146.56857300 131.56770325 447.07510376
177.37280273 211.28308105 485.77056885
210.76795959 178.09309387 401.51278687
156.44699097 189.59001160 351.16799927
222.87200928 197.56401062 367.65200806
137.30639648 149.82754517 470.06079102
299.30798340 244.08569336 403.00381470
192.61393738 245.71366882 486.66369629
183.13760376 188.90327454 478.68096924
210.56999207 251.98799133 420.54800415
205.96299744 258.54000854 440.44598389
196.03280640 218.18127441 465.71850586
139.83854675 227.39160156 402.06188965
205.92413330 179.70521545 419.23440552
171.75563049 248.86804199 443.18078613
178.00149536 139.35311890 422.05734253
198.58322144 258.63677979 472.69879150
175.38502502 212.46336365 492.88888550
135.55763245 227.56555176 419.14096069
290.34399414 224.93299866 381.34399414
280.78201294 234.87399292 388.28598022
156.61926270 238.76490784 477.27609253
275.20953369 259.12200928 453.06478882
259.45404053 211.27915955 423.69805908
124.63500977 141.45646667 406.99911499
137.43501282 134.84489441 363.68783569
262.04907227 196.92567444 372.21206665
119.01461792 190.24786377 402.33569336
153.01953125 145.96124268 485.89401245
153.56440735 240.72187805 422.78622437
224.45759583 168.69583130 402.92883301
201.89947510 127.44988251 377.84796143
225.75633240 172.39732361 375.63772583
138.72290039 160.42108154 496.25781250
137.11549377 221.71815491 394.93292236
201.94900513 171.04899597 360.24002075
200.04899597 220.66999817 367.16500854
277.67330933 243.07524109 431.87725830
124.15299225 173.96528625 466.59896851
179.31307983 183.79113770 467.77636719
148.64794922 185.44454956 523.97937012
316.35726929 236.40431213 391.95333862
191.11624146 113.09674835 396.14620972
118.93193817 178.35266113 431.14276123
132.19482422 189.26664734 511.90997314
134.65588379 154.99566650 355.59060669
163.09391785 196.25473022 512.30780029
161.88153076 157.47041321 497.53723145
281.62500000 214.59999084 378.77099609
298.64553833 238.88967896 413.14184570
147.50531006 151.64707947 351.61230469
197.26699829 230.47399902 374.86499023
130.42674255 217.01580811 404.32070923
140.90660095 122.68561554 409.07711792
207.08032227 259.99478149 467.29580688
229.34681702 163.27439880 392.72076416
299.08651733 205.87889099 375.51351929
171.14262390 250.43630981 467.70727539
179.71899414 248.76399231 417.46600342
164.65798950 165.56422424 495.58615112
139.54470825 182.87321472 530.75134277
270.16787720 195.32141113 391.22650146
243.97091675 260.64816284 473.30709839
292.90707397 240.29174805 395.05252075
237.07171631 171.03210449 400.15548706
123.22187805 204.60408020 401.53033447
166.83876038 109.92533112 389.94433594
161.21199036 198.65899658 351.73999023
291.12179565 222.49206543 404.63848877
209.97000122 260.50500488 452.41497803
276.69317627 223.69702148 419.12304688
166.51284790 172.27165222 453.98461914
119.12781525 176.29441833 409.51162720
171.47499084 126.69441223 429.98217773
187.75790405 123.40637970 371.89193726
134.18565369 146.91479492 358.18862915
264.70635986 229.15769958 436.42233276
175.77479553 151.93057251 354.24511719
124.64303589 149.79119873 371.98211670
132.29313660 199.31436157 484.35556030
131.48941040 215.38470459 397.95520020
306.18585205 221.01744080 374.25863647
269.19827271 200.24485779 374.43121338
247.53900146 262.20300293 452.39801025
119.66270447 171.18910217 393.43875122
230.60398865 256.19097900 429.48599243
189.88800049 250.01300049 425.36700439
178.40315247 216.33105469 471.55065918
303.68853760 229.59162903 402.37530518
156.42910767 159.00218201 455.42919922
128.30252075 215.50305176 438.48461914
263.56637573 253.11547852 461.50753784
159.22000122 235.94500732 392.40597534
144.10829163 218.38607788 509.85156250
131.93598938 194.52595520 488.68402100
249.75416565 195.84951782 412.30279541
155.51350403 120.33732605 369.34191895
280.68093872 257.32543945 445.16668701
204.54133606 186.96495056 434.85968018
132.44502258 220.67419434 447.50781250
167.41511536 227.46855164 480.93508911
239.88200378 239.60598755 379.23602295
259.00201416 235.94099426 383.64498901
160.53588867 237.80357361 484.25396729
240.05099487 213.93199158 376.08200073
182.96499634 229.92900085 371.53399658
122.16003418 200.81907654 432.92288208
164.57980347 229.44853210 511.32708740
156.33940125 241.55722046 429.66210938
197.67672729 161.22006226 424.72116089
265.69000244 265.74798584 452.17599487
152.58148193 144.33735657 457.66284180
240.91300964 246.59700012 389.75799561
164.16700745 186.37600708 350.86898804
164.01499939 210.72100830 356.80401611
169.12229919 182.18162537 505.05291748
175.03160095 132.68116760 424.35464478
149.93481445 137.59429932 457.84075928
214.73400879 249.92799377 409.92800903
138.50308228 120.62296295 393.52246094
119.25029755 186.60574341 390.78964233
141.73999023 219.22099304 379.72998047
118.52776337 168.22605896 410.87023926
238.65200806 200.18600464 373.79901123
227.64704895 195.18646240 435.07095337
146.31832886 222.01216125 514.97753906
312.91165161 205.11981201 368.57818604
128.29159546 133.94261169 393.38818359
135.91636658 167.56976318 496.54989624
212.91668701 211.66342163 434.51779175
182.19400024 175.69799805 353.44799805
206.79737854 192.27247620 427.89581299
206.37263489 143.82395935 371.14926147
186.83796692 246.09201050 489.52932739
139.67489624 138.40290833 454.88476562
134.96171570 194.30102539 531.12359619
199.66194153 198.34895325 455.60018921
158.30882263 128.37648010 361.10375977
137.72296143 212.81698608 485.85565186
303.42330933 243.03048706 413.45578003
182.05400085 210.44799805 356.89700317
172.95466614 180.65718079 467.89419556
232.48599243 250.81300354 408.19000244
173.22673035 180.77072144 491.55328369
212.04608154 225.84527588 426.06564331
147.42800903 195.87300110 356.88201904
166.46864319 175.26759338 482.96691895
227.13661194 177.94767761 371.59790039
167.38400269 172.93299866 350.94198608
208.64494324 211.60491943 420.21063232
222.06031799 231.54905701 462.69839478
182.26489258 202.98551941 484.35888672
154.43220520 147.31423950 479.33972168
164.25056458 247.59483337 459.12982178
208.74992371 159.87554932 390.61285400
156.40521240 149.74952698 447.56967163
196.40000916 259.79699707 449.80697632
181.51152039 166.84284973 435.96255493
213.08123779 220.84547424 430.60134888
163.51559448 210.54594421 509.84649658
212.56541443 145.23861694 381.50323486
181.80644226 197.07835388 433.39709473
178.79899597 243.41200256 394.18798828
187.70266724 186.64968872 466.46908569
144.35485840 236.23225403 436.67800903
240.03994751 216.20210266 438.67172241
202.68200684 243.83300781 397.20599365
147.38699341 235.23800659 408.07501221
278.02484131 188.00558472 372.04656982
212.30276489 220.56411743 452.95837402
141.83659363 160.64860535 513.59765625
194.06327820 231.22001648 474.69177246
125.59567261 202.26135254 454.37677002
179.09861755 199.42027283 491.75375366
208.05088806 192.75233459 436.58221436
239.17500305 255.38700867 423.72799683
204.79013062 162.58918762 369.95483398
146.94599915 172.07199097 356.06301880
127.76899719 188.13800049 371.89700317
154.15414429 196.69673157 521.49719238
146.54382324 143.68295288 472.06784058
135.95164490 122.99897766 381.63366699
233.11494446 167.05232239 376.87896729
129.80220032 162.26423645 471.69430542
132.24160767 182.83038330 514.70825195
185.37533569 126.01940155 418.38348389
120.25304413 156.10020447 404.61181641
154.95243835 241.15124512 457.40798950
150.53022766 236.69853210 465.73339844
141.94566345 128.00503540 365.71978760
161.24417114 163.40649414 449.05120850
179.45100403 232.95498657 375.63500977
316.07092285 223.20254517 377.02908325
255.58283997 195.58540344 408.28479004
119.83006287 175.65278625 447.21749878
141.10577393 229.15934753 462.19119263
229.67599487 260.88000488 457.16900635
157.24623108 234.33518982 512.33471680
179.33200073 187.03800964 351.00201416
246.48199463 222.21099854 378.75100708
180.01657104 190.54885864 489.43551636
143.30567932 143.16860962 354.62289429
155.85400391 166.84300232 353.39001465
307.41329956 212.21539307 384.44555664
198.32341003 158.90251160 358.87762451
271.64700317 264.69900513 444.93600464
167.38499451 228.06700134 372.32901001
173.69929504 117.27658081 374.73043823
268.86843872 198.43630981 399.00030518
273.88699341 226.98674011 424.11981201
198.85845947 235.14099121 473.69381714
191.86119080 255.38031006 482.04089355
212.70098877 180.55799866 362.05499268
173.86746216 217.28025818 481.97845459
161.24314880 113.71246338 379.13101196
175.54808044 253.01861572 463.92730713
196.05549622 142.73338318 416.53155518
161.00599670 234.16299438 385.54098511
191.54800415 237.08799744 381.64401245
260.42196655 190.78152466 371.89968872
165.67185974 117.70349121 426.34750366
195.40399170 241.61599731 395.85198975
137.14054871 145.23799133 462.66394043
249.48443604 243.76789856 464.09979248
278.00366211 183.86758423 366.95724487
247.49589539 191.34202576 403.47616577
269.77099609 261.04199219 430.23397827
169.15499878 192.77499390 349.23898315
159.65563965 157.20146179 506.62933350
278.02917480 195.40202332 383.32214355
277.50799561 250.93299866 407.73498535
205.47024536 256.07617188 478.73083496
131.96965027 130.66323853 406.38940430
177.91099548 222.44699097 364.51101685
282.75299072 241.86399841 394.10000610
132.64538574 197.22399902 519.73876953
148.23071289 192.96659851 526.14721680
239.66600037 248.10400391 395.45300293
202.32185364 166.82911682 423.32220459
119.05257416 182.04574585 416.17391968
281.66244507 237.02680969 422.13479614
138.68367004 210.37615967 499.01263428
231.10588074 205.92868042 437.10034180
176.14599609 239.76800537 387.29101562
151.05136108 233.98626709 478.69833374
132.13546753 172.01028442 485.93420410
211.97492981 131.10466003 395.34951782
207.05899048 255.54498291 431.89901733
267.06243896 266.90991211 458.06927490
160.42768860 168.01414490 474.85797119
130.25952148 143.25054932 449.24108887
215.41038513 188.38534546 420.91638184
242.14881897 179.10481262 400.84347534
231.08964539 224.75675964 456.70684814
140.74505615 157.63665771 501.00915527
210.51669312 247.14588928 480.16656494
118.42877960 172.38003540 428.85534668
209.71099854 226.83399963 374.11801147
152.47802734 127.35265350 362.34402466
202.32185364 198.11036682 422.75634766
137.17900085 193.27500916 363.91198730
189.40582275 198.81306458 469.58941650
225.84500122 252.53298950 416.06900024
141.27854919 176.58409119 529.12548828
299.78363037 220.97845459 376.24884033
171.87933350 222.79122925 474.15805054
170.16671753 245.44396973 480.99822998
206.34848022 205.21147156 442.26986694
260.04348755 231.66996765 442.68576050
146.25601196 222.48103333 497.12680054
168.79400635 206.98100281 354.16702271
212.26152039 209.71951294 424.60427856
201.73121643 117.50850677 399.58511353
184.88940430 221.87687683 469.80105591
176.01547241 202.71739197 495.49276733
180.19300842 253.44300842 445.13500977
215.35603333 155.27696228 385.61822510
164.95228577 164.32359314 443.33798218
302.57174683 246.26232910 408.66836548
124.79014587 161.44473267 460.00646973
240.38200378 227.62500000 376.79602051
209.66799927 247.04100037 400.42199707
183.76826477 189.41226196 427.09924316
201.05393982 122.16510773 407.39620972
235.51074219 250.10340881 476.89227295
243.68290710 183.30175781 376.30844116
238.23767090 259.21524048 474.46954346
143.14700317 222.73300171 385.39999390
205.57234192 182.21846008 424.09191895
132.15699768 199.54100037 372.48400879
268.40927124 238.37487793 443.65121460
148.05522156 158.51733398 352.03402710
289.27001953 245.93800354 404.56100464
144.84777832 234.57093811 419.78369141
155.72215271 145.26235962 351.84863281
171.72212219 193.15277100 427.67333984
196.23300171 254.87300110 435.63101196
202.56576538 190.99043274 449.20483398
234.17643738 189.32984924 428.26889038
256.82299805 249.52999878 395.01501465
150.29714966 176.79647827 523.55114746
213.50517273 143.08575439 399.26593018
176.41299438 249.57899475 435.04101562
191.38087463 198.98542786 424.35925293
167.62042236 110.86103821 404.47390747
128.09239197 208.88970947 394.77658081
173.64500427 176.76100159 351.17199707
282.94326782 246.80241394 429.49346924
159.58300781 176.23600769 351.64099121
269.41601562 216.94900513 379.23498535
216.77392578 254.57534790 482.60946655
152.74589539 241.60310364 450.06359863
174.24591064 252.70530701 454.67376709
145.13301086 230.50700378 402.23898315
212.13999939 222.32901001 371.16500854
136.27873230 227.11039734 414.12869263
232.04100037 220.22799683 375.96197510
165.44631958 122.64475250 366.45553589
270.66622925 233.26577759 433.68881226
279.06430054 194.73483276 369.05517578
305.12234497 238.61471558 409.98654175
267.14700317 257.50500488 420.37600708
288.74307251 230.98400879 412.42697144
232.88400269 209.02200317 373.50399780
124.02225494 208.94296265 413.03430176
150.14067078 144.32386780 467.31387329
312.13592529 227.95805359 380.19638062
211.46252441 189.74594116 426.24090576
124.98652649 209.38415527 404.98013306
220.56600952 179.84800720 370.45401001
221.03492737 222.77479553 448.05145264
304.59600830 233.07600403 386.93301392
174.52600098 248.70100403 421.78799438
177.89006042 143.18420410 355.83786011
126.13673401 174.12347412 472.87106323
221.23806763 176.80253601 381.69131470
211.54556274 134.64854431 403.60314941
153.32899475 204.42601013 356.83398438
125.42779541 206.52127075 447.72998047
119.04958344 185.32614136 421.93945312
236.83813477 177.03941345 371.30899048
269.79299927 227.54000854 383.68200684
270.72387695 255.86103821 455.31948853
166.13859558 132.53895569 431.74209595
205.35803223 219.02360535 459.58227539
173.95144653 245.75041199 485.89480591
205.70805359 167.08457947 396.36978149
194.83578491 259.51959229 460.72448730
148.67663574 150.04565430 498.93795776
139.53057861 223.03921509 469.52731323
249.29800415 259.00799561 434.54901123
206.88424683 171.65121460 378.42230225
235.91600037 234.58599854 375.94598389
166.68273926 240.89027405 483.02087402
145.89726257 235.52719116 454.65066528
265.98699951 264.02600098 444.61502075
248.40400696 215.22412109 433.00231934
136.08306885 126.64316559 372.63870239
221.78750610 210.63920593 418.28219604
302.54699707 237.33299255 391.98699951
228.37017822 162.46792603 386.04986572
195.46798706 178.69400024 353.64099121
202.06356812 203.97537231 449.22308350
138.37559509 128.35641479 426.23486328
286.77551270 240.01330566 419.34674072
157.40231323 149.48728943 491.28570557
157.20057678 234.92385864 488.01757812
147.26799011 207.71699524 362.51101685
135.27018738 203.98059082 495.14657593
181.32400513 218.20199585 361.50299072
263.22045898 263.29446411 467.54608154
246.57699585 246.40800476 389.09899902
124.25720215 143.19389343 394.21124268
138.31526184 210.30854797 522.28729248
154.33290100 158.55305481 513.76794434
205.40798950 209.77435303 452.47198486
118.25939941 171.02456665 382.94689941
278.30139160 209.42533875 375.44409180
202.17649841 205.47821045 425.61749268
196.88688660 180.25679016 444.99185181
286.90322876 197.29632568 373.79296875
288.43899536 213.21653748 377.37738037
163.39567566 121.35473633 434.36010742
182.48727417 252.88037109 475.33825684
148.28437805 115.44314575 395.54916382
132.60514832 194.21812439 515.04034424
156.90086365 214.65119934 517.38128662
220.64900208 216.08099365 371.10702515
122.87874603 154.01159668 380.94784546
243.68963623 177.33351135 385.76257324
294.10372925 203.45375061 376.66903687
148.08499146 213.55200195 366.23199463
221.23007202 216.45756531 422.98522949
319.24401855 210.68782043 378.56069946
245.95765686 193.21482849 373.10516357
191.78999329 231.75799561 374.90698242
277.99200439 255.97300720 418.02700806
183.88099670 204.32800293 354.18701172
283.61245728 204.39129639 389.20385742
276.40722656 249.55287170 441.17687988
164.33784485 246.89239502 450.83862305
196.94883728 176.48948669 440.10214233
197.57827759 114.99140930 395.43881226
209.22505188 131.75224304 383.96179199
229.81379700 259.53707886 469.16162109
144.09375000 198.41137695 529.56243896
118.10475159 180.61988831 394.05825806
181.40005493 113.77881622 404.36685181
189.62701416 180.04899597 353.66500854
174.49546814 111.22879791 386.65573120
153.90699768 179.54600525 353.66897583
226.67517090 187.20936584 423.40542603
129.14006042 178.72889709 481.72772217
251.70657349 202.86228943 419.71118164
319.20101929 220.29360962 388.33584595
195.31044006 196.23954773 421.55950928
268.40048218 182.27188110 376.97875977
215.39424133 155.20262146 397.15191650
132.35321045 185.74603271 525.77587891
140.12817383 151.02508545 479.56127930
204.71714783 167.28773499 406.77304077
139.60099792 231.66072083 443.61752319
207.01510620 165.46459961 383.21350098
122.00711060 154.47782898 434.02584839
139.54109192 164.37792969 353.66796875
156.36877441 174.26026917 518.02410889
120.46702576 199.33876038 409.43719482
171.10499573 247.70199585 432.14199829
126.20384979 142.91221619 426.22604370
203.06028748 211.27391052 457.02084351
201.01884460 189.74563599 427.75497437
164.53152466 109.40774536 394.97113037
237.90399170 258.50701904 436.63598633
224.83843994 169.07257080 396.68627930
190.32914734 135.92558289 415.41345215
263.51101685 238.10699463 385.98001099
170.29832458 176.88934326 494.51208496
219.11619568 218.12864685 441.33065796
121.17998505 152.55603027 426.20373535
128.76216125 209.41371155 458.93707275
213.39898682 177.59799194 375.93902588
282.15399170 252.31001282 412.15399170
184.61595154 184.02040100 460.88424683
126.88053894 136.31979370 403.45623779
212.68800354 232.72999573 376.83200073
180.49682617 149.04469299 354.96191406
211.87733459 180.78387451 407.62963867
169.58399963 183.39799500 348.98599243
216.47819519 222.18681335 420.38040161
238.83299255 179.85415649 412.92849731
198.11260986 170.90538025 432.67791748
121.13876343 188.86184692 442.90014648
125.03896332 212.14199829 427.12860107
210.57861328 175.82878113 383.49639893
245.68908691 182.82849121 381.36611938
132.49835205 154.37794495 467.31365967
138.02925110 157.99778748 486.29013062
120.70075226 161.80525208 373.87759399
155.72399902 234.78900146 396.97302246
187.07301331 199.24679565 432.93276978
200.57650757 122.92242432 380.74224854
142.41760254 130.51481628 438.64736938
156.12501526 227.08885193 520.15039062
123.31544495 165.06231689 365.51965332
210.69647217 243.42669678 473.15228271
182.19900513 246.24099731 406.10699463
196.91409302 198.03564453 432.29290771
129.83399963 205.03999329 381.33401489
148.21299744 228.59098816 392.17098999
212.04647827 259.53341675 458.40463257
147.34204102 231.36926270 475.30142212
239.42900085 251.63400269 408.68099976
207.48600769 191.71200562 360.33898926
216.19500732 195.25498962 363.56298828
228.68299866 249.29901123 403.99899292
283.64300537 261.74398804 437.97698975
156.40776062 142.63781738 445.27511597
206.32731628 146.86170959 410.73031616
274.30798340 219.83399963 381.08798218
291.04925537 214.34133911 395.97988892
222.43901062 229.75599670 374.26400757
169.10681152 206.91590881 502.75628662
215.83799744 252.79798889 421.57299805
242.02593994 231.23185730 457.01242065
161.82546997 131.52459717 440.56887817
122.31606293 205.55438232 417.29830933
151.16600037 168.70401001 355.55200195
156.20376587 232.55697632 499.27700806
270.36730957 213.97305298 418.99105835
204.20037842 252.38972473 482.52621460
162.39605713 115.33008575 415.06704712
167.07807922 248.85685730 464.44183350
190.28500366 211.91300964 359.34298706
222.87156677 251.09700012 484.12173462
301.54748535 211.31413269 370.16067505
163.62365723 243.93582153 437.53027344
184.30587769 196.24642944 481.83010864
212.37400818 258.03198242 441.06600952
142.55133057 225.51910400 473.18463135
306.44277954 213.62246704 368.90728760
120.69954681 189.03666687 381.78375244
126.65203094 214.85920715 431.73379517
286.16101074 221.53599548 381.23800659
126.32769012 138.61093140 387.05990601
265.95129395 246.04682922 452.02813721
131.89767456 135.92166138 369.56341553
251.49801636 248.49000549 394.01000977
180.23342896 185.47723389 474.39901733
210.56317139 157.73655701 372.69326782
130.33897400 179.91134644 364.87097168
269.26101685 239.53999329 388.58200073
302.66833496 225.20132446 398.82424927
297.17706299 242.96542358 417.16381836
171.48016357 220.68499756 485.21551514
124.60009766 204.69325256 396.25820923
152.33589172 239.95858765 438.33917236
291.12197876 234.96000671 388.84698486
209.15800476 213.55900574 367.56198120
219.72618103 205.05693054 432.48117065
256.86199951 263.95898438 454.52600098
133.85354614 226.07580566 438.60903931
191.48988342 148.78448486 357.83636475
166.32400513 244.19000244 414.51901245
131.44277954 129.77124023 382.62451172
218.57800293 245.70800781 393.27697754
233.43800354 258.65701294 440.04501343
202.10400391 254.64799500 430.15798950
145.20256042 169.70654297 523.56048584
189.19117737 171.70854187 438.86260986
244.47013855 191.15832520 416.03021240
193.15272522 124.23280334 413.12902832
215.38075256 208.45985413 430.56155396
156.83799744 213.17100525 361.05297852
240.48857117 173.71827698 383.34014893
181.81576538 116.45784760 415.35049438
277.31600952 265.40197754 450.94900513
125.63331604 154.30284119 453.28222656
118.23197174 174.52983093 389.71783447
193.47299194 247.70199585 414.60000610
302.10198975 225.28498840 379.41598511
153.02877808 184.28128052 520.93255615
175.90785217 148.79670715 425.89724731
148.67022705 122.72074890 425.11251831
173.23529053 164.50698853 437.30273438
167.85705566 151.21037292 431.53570557
130.74731445 137.32034302 428.00421143
132.27845764 178.22628784 492.57778931
219.66558838 259.56478882 465.92092896
243.72399902 261.27499390 448.85598755
183.24424744 255.35874939 466.29916382
260.41299438 256.44400024 418.12197876
121.69445038 155.50610352 390.68539429
146.28269958 127.35904694 436.08029175
239.93472290 199.49223328 428.85281372
252.06840515 263.31384277 462.65344238
142.99600220 189.15399170 358.68200684
126.84822083 203.75755310 388.09237671
136.24320984 175.43600464 524.90203857
231.59588623 164.53900146 382.39483643
285.92922974 211.54312134 397.64926147
239.74926758 226.31072998 455.44793701
129.56419373 146.06288147 363.67465210
275.33621216 244.61550903 437.12145996
170.43673706 168.33076477 441.79223633
160.91236877 235.77149963 497.66873169
203.49742126 166.84112549 417.97888184
155.88601685 209.59458923 518.24847412
259.95367432 227.73422241 438.10501099
262.53100586 225.79499817 381.21701050
168.46636963 150.06385803 353.24838257
170.27493286 160.23533630 355.01501465
154.16136169 124.32377625 436.98553467
241.06018066 251.96250916 476.48141479
308.00820923 209.34460449 379.86532593
240.11241150 238.28540039 465.03475952
210.18728638 256.76815796 474.10940552
136.84735107 132.17362976 434.55517578
248.03965759 188.37809753 390.92861938
150.26165771 117.82095337 415.84652710
182.22343445 134.58924866 360.77029419
157.72146606 235.12002563 507.24273682
171.17567444 137.93029785 425.64736938
160.41099548 228.58900452 376.27398682
157.25875854 163.07083130 468.48635864
196.11236572 129.70997620 412.31991577
220.61439514 179.78305054 402.70895386
266.89013672 199.48344421 405.74514771
280.22097778 225.99198914 383.16400146
253.48698425 262.82000732 450.61801147
204.15200806 241.00300598 390.74298096
224.55740356 258.51730347 471.70489502
279.10012817 238.42601013 426.43637085
288.76440430 206.82447815 375.01010132
251.33145142 187.95698547 372.60574341
135.96676636 168.71966553 514.18377686
134.13000488 183.24600220 363.40698242
162.38743591 160.06275940 493.06658936
203.37300110 248.44599915 409.49099731
256.53024292 258.32003784 470.00964355
215.27624512 229.58717346 458.08544922
257.01498413 240.33700562 385.56399536
134.41888428 208.72157288 479.37396240
150.20422363 114.39336395 386.93304443
150.70336914 205.81445312 522.99658203
219.83900452 179.13000488 394.25500488
170.63973999 192.00765991 504.28915405
248.96391296 229.48258972 449.94598389
164.04330444 173.86233521 470.67254639
271.93615723 193.10398865 369.67840576
243.72064209 247.15698242 470.90579224
161.81846619 162.02148438 507.37918091
184.89100647 180.50700378 350.93899536
121.75976562 178.88032532 455.69540405
136.84056091 154.86112976 477.04666138
127.87562561 194.04222107 471.02502441
150.63206482 227.19888306 506.15185547
239.85121155 175.73411560 376.55383301
186.37947083 112.17917633 394.25369263
213.44537354 140.86233521 388.79293823
163.95759583 223.56407166 511.94918823
194.10087585 213.37747192 464.01306152
170.28201294 237.18800354 385.12399292
192.59214783 258.19671631 465.07568359
138.19107056 204.60292053 530.59960938
135.75051880 162.73341370 486.07736206
146.68708801 145.32890320 476.74069214
129.58395386 213.12600708 453.09539795
144.78317261 219.76364136 501.63119507
172.38800049 203.36100769 353.54901123
120.18277740 165.46231079 392.24679565
265.36871338 190.58851624 386.99182129
190.87016296 117.92993164 410.47525024
152.53099060 150.63935852 503.88830566
230.86099243 252.88500977 417.11199951
149.84164429 227.48054504 492.75097656
246.29499817 210.68699646 375.98999023
246.98699951 260.49899292 443.04800415
156.88699341 171.99699402 353.73800659
233.53340149 172.05513000 370.48162842
221.26800537 243.40798950 386.99298096
308.06100464 229.99299622 383.13101196
244.83460999 217.14489746 436.04840088
152.93754578 152.78140259 459.47906494
211.29899597 243.83799744 390.72702026
182.16683960 152.50344849 424.59152222
143.09098816 217.36801147 375.02600098
177.99530029 176.58833313 448.08795166
124.26878357 194.77050781 380.88385010
207.43400574 202.09799194 362.91000366
186.81025696 238.16479492 480.09680176
182.03312683 207.28863525 481.57736206
274.50732422 207.41624451 407.07629395
224.31999207 259.35900879 447.14599609
155.31983948 111.97516632 387.85464478
197.36300659 188.36499023 355.52099609
183.95542908 180.75219727 452.23501587
162.09268188 216.68412781 512.46997070
134.81057739 124.18505096 393.34426880
144.23931885 186.17352295 528.75817871
135.79147339 172.74221802 358.24804688
232.21952820 255.26284790 479.78729248
208.09812927 123.93187714 391.69100952
313.04360962 240.18580627 402.93557739
124.12555695 192.55241394 457.48236084
159.15528870 154.36753845 487.15731812
119.32038879 174.75840759 405.08020020
133.91540527 217.66851807 461.37631226
161.35720825 117.76237488 422.86886597
137.97810364 161.04412842 491.50784302
132.02075195 201.66883850 480.07611084
182.28900146 235.52699280 379.46398926
250.99998474 241.55500793 385.22900391
163.94136047 141.69302368 353.69042969
205.52592468 121.01245117 397.78762817
162.04153442 160.90560913 355.38018799
187.50184631 190.37339783 472.91558838
201.43324280 133.55027771 412.14923096
226.68499756 237.09300232 379.39501953
314.03363037 233.43634033 400.11593628
180.81770325 230.48770142 475.04165649
162.68148804 172.11605835 465.94598389
120.36304474 161.16900635 396.90701294
278.54037476 204.45657349 395.99749756
207.54252625 205.05973816 415.14498901
130.98480225 222.65682983 427.63690186
167.33976746 132.93154907 358.44348145
234.72100830 261.14300537 457.13601685
204.41629028 194.07516479 445.94088745
161.08433533 153.93846130 439.95089722
259.43402100 244.45500183 388.67898560
166.42854309 221.41331482 507.17181396
322.66320801 227.68902588 388.01095581
159.12153625 156.86711121 445.38006592
282.20556641 197.65496826 379.69296265
175.68238831 183.33876038 480.95693970
180.85099792 250.50700378 427.67001343
287.07699585 256.91900635 424.79898071
307.35040283 216.06396484 388.24807739
128.68792725 134.57185364 381.31387329
176.31900024 213.58700562 358.14398193
127.43991852 144.69749451 436.44174194
242.13696289 208.85058594 430.64263916
119.15438843 173.05821228 436.14013672
234.80076599 233.50473022 462.53353882
146.26153564 221.12020874 519.88391113
217.84100342 254.50199890 426.80297852
282.85000610 249.87600708 407.81701660
187.63424683 199.84335327 426.82910156
272.67443848 185.52832031 376.59857178
132.37124634 191.21397400 523.87994385
179.98300171 201.22900391 353.55099487
308.46633911 240.45564270 397.10870361
141.11891174 214.28709412 509.78814697
139.28593445 231.31159973 420.72537231
216.16143799 194.85696411 431.39303589
315.88824463 212.29937744 371.54467773
174.75064087 156.92861938 430.74114990
168.80899048 240.56599426 394.39599609
295.53878784 201.40335083 369.98037720
175.89147949 207.39093018 492.70010376
165.65600586 230.72999573 376.79998779
250.73999023 202.48199463 376.08001709
217.85069275 218.93307495 427.40188599
133.19000244 213.62500000 388.16400146
186.30290222 207.12876892 466.56777954
202.92596436 182.14067078 432.73828125
197.75463867 124.23181152 410.78939819
133.33383179 132.53869629 420.82522583
185.94749451 131.39027405 364.21923828
244.94700623 226.95899963 378.77999878
223.65100098 257.27798462 437.21099854
121.99546814 176.59133911 369.99441528
292.92050171 208.60530090 387.84353638
156.45100403 238.68499756 407.28198242
259.45709229 252.92306519 464.23214722
132.88172913 192.94134521 505.08862305
176.55741882 156.62921143 354.05807495
265.61795044 188.46398926 369.30038452
142.49099731 212.48100281 369.94299316
199.18519592 116.31313324 390.58596802
303.20886230 204.24397278 369.81854248
203.35791016 188.37876892 440.79214478
154.79402161 154.12622070 472.38891602
271.77066040 262.87951660 462.39739990
193.93501282 166.82699585 358.50500488
135.96981812 228.97300720 427.56564331
210.22898865 224.85389709 432.79626465
119.71206665 193.75762939 412.80447388
211.87745667 258.49374390 469.04101562
186.45724487 145.04893494 420.16943359
222.42193604 257.34945679 475.97509766
136.15476990 206.60575867 519.49261475
219.16949463 184.05657959 412.59127808
230.83049011 229.37329102 461.13516235
121.13538361 198.75299072 421.55859375
211.20600891 217.82701111 369.35400391
201.07499695 258.13800049 441.04702759
180.85289001 193.64149475 425.15740967
182.38586426 140.70974731 420.57470703
206.78199768 235.87500000 382.03799438
174.97000122 193.18800354 351.26400757
201.81599426 245.68516541 480.06530762
258.34799194 210.24299622 376.72100830
271.90496826 253.56787109 451.09347534
130.66687012 139.98406982 437.30960083
122.87367249 175.33201599 458.79690552
140.68667603 145.89558411 470.62335205
133.31254578 220.23356628 453.00866699
138.82801819 225.21488953 464.18606567
172.58100891 245.84899902 412.13198853
298.84799194 230.28700256 385.11199951
168.64503479 176.33129883 501.55783081
195.40780640 154.91139221 357.96850586
152.34300232 184.88700867 353.55099487
201.10499573 209.88499451 361.87899780
281.04598999 257.77600098 426.12399292
169.34381104 178.79377747 473.13693237
137.78199768 208.19898987 371.48498535
207.16571045 154.83666992 364.98233032
251.06349182 253.42097473 471.46157837
157.67489624 242.92173767 443.44195557
162.56079102 125.95161438 362.95541382
140.24494934 121.93062592 402.27993774
229.07044983 173.59233093 372.10772705
213.15711975 202.79989624 425.10366821
170.47947693 199.67201233 503.33309937
139.54421997 229.02267456 411.35021973
223.80049133 217.22262573 416.62393188
132.81504822 161.34083557 475.64212036
145.66859436 149.99101257 494.72796631
143.07963562 234.90043640 427.03314209
143.58999634 199.73999023 360.87301636
224.32617188 179.14151001 410.60025024
265.60882568 223.87471008 430.97994995
280.63330078 219.30442810 410.86804199
163.73956299 244.62434387 472.94787598
179.58511353 118.15647125 374.46368408
159.71281433 138.19639587 439.10391235
161.64675903 226.22705078 515.83728027
121.02264404 169.53483582 449.25927734
206.50962830 160.26934814 365.57571411
318.94714355 218.77468872 376.36581421
183.65403748 125.22158051 368.24789429
139.26966858 208.86763000 528.50720215
195.28601074 238.38099670 386.24298096
128.67942810 217.59375000 411.01156616
205.13699341 263.40600586 462.25299072
257.03619385 243.10830688 458.06982422
193.93899536 246.33799744 407.96597290
119.35503387 166.10490417 438.30618286
223.93002319 173.61959839 388.74728394
172.55101013 228.03099060 370.89199829
193.95133972 193.25820923 431.99151611
199.11213684 117.85611725 404.13510132
188.83787537 213.81796265 466.80206299
213.00799561 149.38542175 374.92086792
264.53146362 195.92807007 396.56002808
208.58120728 229.38011169 462.69381714
252.53889465 248.03778076 465.67761230
123.11829376 148.88009644 428.69613647
254.33406067 214.83219910 430.00787354
220.58457947 213.52113342 411.73672485
146.03254700 208.76387024 526.96618652
176.48973083 179.80888367 456.66653442
268.31500244 204.80999756 376.11599731
133.91169739 133.75401306 430.11151123
315.54467773 230.33554077 383.17111206
283.10815430 214.64556885 403.85995483
205.68554688 131.42382812 409.50521851
155.59346008 157.84725952 351.44741821
135.15100098 210.72299194 377.29901123
149.65663147 226.75454712 510.79565430
145.65760803 234.70655823 411.53933716
130.47300720 191.61300659 369.85900879
207.31044006 174.07795715 401.68804932
260.19497681 258.78097534 427.58200073
268.52593994 184.70687866 370.82089233
119.53260803 159.26673889 417.16622925
288.99188232 200.66604614 376.60644531
214.70698547 216.53750610 443.93075562
243.58927917 222.79788208 447.66342163
213.67800903 237.14326477 467.00076294
130.08274841 188.13290405 483.94149780
126.60999298 186.69242859 472.18072510
197.74150085 156.44961548 422.48617554
201.48506165 173.33641052 430.34857178
251.91763306 199.87042236 415.92025757
145.38771057 225.86653137 483.12734985
172.54611206 186.11514282 501.13879395
152.99192810 127.41407776 444.95989990
192.36822510 125.18924713 372.07748413
177.22361755 131.85755920 360.94696045
188.95193481 203.66313171 460.29638672
245.83444214 221.38360596 441.49871826
136.08334351 214.23258972 474.15078735
125.77748108 142.24201965 419.31442261
121.04029846 160.44261169 384.26229858
121.87641907 149.70172119 398.97329712
119.99768066 171.07292175 372.07940674
257.44433594 263.63613892 468.94146729
271.72924805 189.44134521 382.11734009
195.59938049 244.01000977 483.24859619
254.42799377 261.65802002 443.29397583
153.57354736 232.01811218 489.42047119
132.54444885 178.65655518 497.06240845
180.98731995 212.25299072 471.81341553
155.58221436 159.84164429 464.74133301
248.32269287 186.99676514 386.33737183
217.94366455 222.85107422 430.87960815
161.22599792 242.43899536 412.87899780
150.76065063 131.36552429 451.55786133
125.60281372 213.54450989 422.69311523
288.43701172 258.91799927 432.84197998
293.50723267 252.42111206 427.91949463
121.37814331 161.89135742 443.90484619
139.10462952 224.74977112 398.34185791
321.86090088 223.02575684 381.11746216
209.98997498 235.83361816 463.23532104
249.69000244 257.05599976 427.52600098
119.87467194 189.47616577 432.25616455
137.59779358 163.01695251 505.90051270
121.98323059 148.55694580 409.94644165
200.71380615 191.88368225 453.26931763
140.73173523 135.88040161 360.44171143
165.12834167 167.99247742 503.07345581
228.51400757 199.33099365 371.13198853
271.53900146 257.42501831 422.21298218
237.25488281 190.62342834 370.32757568
118.90744781 180.22569275 400.66366577
192.43859863 240.77659607 480.78854370
243.02099609 249.47300720 398.52398682
119.07008362 172.53796387 441.64031982
128.64471436 136.09716797 415.18661499
158.05612183 163.15917969 457.80413818
166.97140503 232.31637573 508.43859863
197.40072632 222.81600952 466.99407959
196.17541504 181.96684265 449.02883911
273.94900513 260.21298218 428.16400146
213.60600281 203.23699951 364.66198730
154.97438049 120.59477234 426.31564331
134.02209473 177.77131653 521.33831787
257.67498779 218.04399109 378.72601318
161.09255981 206.43611145 512.75000000
250.84901428 219.90800476 378.45599365
182.46656799 191.47250366 484.46615601
201.41902161 142.40478516 413.82696533
162.32843018 125.52095795 439.83026123
154.03500366 231.24000549 384.97000122
166.42601013 202.50601196 353.45397949
157.71099854 195.02299500 351.23101807
297.42611694 229.64381409 405.50524902
167.41722107 146.34410095 429.98999023
121.78426361 150.11882019 418.84582520
171.98110962 221.05465698 492.10183716
178.14338684 237.64790344 480.21539307
225.61100769 260.23501587 454.88598633
226.54225159 210.46018982 438.37179565
141.22697449 165.37678528 522.24597168
182.89859009 249.98335266 488.18130493
205.77700806 251.17001343 419.27999878
187.69599915 249.28900146 418.63699341
184.00439453 138.52575684 358.98428345
