ply
format ascii 1.0
element vertex 512
property float x
property float y
property float z
end_header
121.72512817 91.94612885 487.25335693
126.49509430 94.12332916 489.39517212
127.40563202 91.03183746 484.30041504
115.88372040 92.34249878 483.93399048
122.09671783 95.00198364 493.33532715
120.10276794 89.65876770 479.70907593
115.48503876 95.89978027 494.62698364
133.36334229 93.16819000 486.38305664
110.53603363 93.50032806 483.73425293
113.98895264 90.18435669 476.62545776
119.60045624 88.33070374 474.63479614
110.11145782 97.09272766 491.58853149
128.42271423 97.85445404 497.49670410
127.29854584 87.43907166 475.16354370
134.74411011 96.62150574 492.01177979
134.91123962 90.44361877 479.05847168
113.12475586 98.31838226 498.73013306
121.00363159 99.62070465 501.84387207
108.17114258 92.90742493 476.58987427
139.63040161 94.53098297 485.12707520
103.69377136 96.42807770 485.59133911
132.42424011 86.93750763 472.80691528
130.65496826 101.98644257 501.67816162
127.38713837 85.99051666 468.85894775
103.52753448 99.80567932 492.48727417
113.70261383 100.73706818 504.08023071
116.80870819 89.15919495 467.34637451
109.12430573 100.01617432 501.56427002
140.91487122 99.37549591 490.08203125
102.95890045 95.40102386 479.04043579
136.59187317 102.99774933 496.94506836
140.39630127 90.61463165 476.37088013
124.75472260 104.13903046 505.91052246
122.95294189 86.77237701 465.34851074
104.22434998 101.56185150 500.31600952
105.28019714 94.23226929 469.48159790
142.30538940 104.09462738 492.06167603
111.01959991 91.67834473 465.19281006
130.80064392 108.09122467 503.59713745
114.08745575 102.61677551 508.80743408
101.05205536 97.06536865 473.70761108
135.11222839 85.80609131 466.58569336
145.19355774 92.86836243 477.61364746
97.69625092 101.05324554 489.50323486
108.00768280 101.84214020 506.88708496
146.71708679 98.07070160 483.21868896
146.08992004 102.07221985 487.04229736
96.97053528 100.37136078 483.63870239
142.47401428 88.20108032 470.92468262
140.07672119 110.51335907 496.46957397
119.95847321 106.29669952 511.28594971
121.50282288 87.29558563 459.36535645
129.56950378 85.61080933 460.48092651
126.13509369 110.25698090 508.90362549
96.29077911 100.40438080 476.87606812
102.55390930 103.34726715 505.85217285
135.44828796 113.93678284 500.59722900
146.64588928 107.87786102 488.52297974
114.32857513 89.86637115 457.84060669
137.66108704 84.89071655 462.06561279
99.02455902 99.34438324 467.75711060
141.93643188 86.25465393 464.34579468
95.59838104 105.20655060 498.18063354
92.66680145 103.23071289 482.38711548
150.56883240 104.27095795 482.65264893
146.88858032 87.93300629 468.24905396
151.69184875 97.23771667 476.87734985
129.93354797 117.06916046 505.66333008
103.81198120 96.98152924 460.86419678
145.14146423 114.05146027 491.27859497
107.09746552 94.44118500 457.92355347
91.29258728 104.97720337 488.47091675
103.76528931 105.19201660 511.78097534
150.41088867 91.10659790 470.36999512
149.55502319 111.11958313 485.66729736
124.65776825 87.77496338 453.67257690
138.96578979 120.80879211 496.19683838
98.30689240 106.61230469 508.80194092
114.88941956 110.31223297 516.60119629
143.20739746 119.42814636 492.83154297
154.18435669 102.29930115 477.26535034
122.60308838 116.85236359 513.00524902
134.59934998 122.58427429 501.49392700
91.87379456 106.47041321 471.83889771
133.94999695 84.76900482 453.18499756
153.62965393 109.16806793 479.80819702
107.65695953 108.13305664 517.49914551
108.47280121 94.54697418 452.71630859
131.04385376 123.28026581 505.51504517
89.58178711 108.30153656 497.66577148
89.88180542 108.51293182 475.88183594
149.73301697 86.49825287 462.56716919
119.37029266 89.16222382 449.67211914
150.12240601 116.96597290 484.86517334
144.79737854 84.77513123 457.01947021
87.73724365 109.32292175 480.43936157
114.02109528 91.24900818 449.01422119
92.17295837 109.92742157 506.14630127
98.97238922 108.99623108 514.90368652
125.65553284 123.56886292 510.93853760
156.70312500 106.35140991 475.06396484
86.12655640 109.80307770 491.86669922
117.34140015 117.67799377 517.77520752
97.73593140 102.71859741 456.85653687
157.29592896 97.69030762 469.27001953
130.42243958 86.67180634 448.11846924
148.73524475 122.46599579 486.33612061
143.03808594 126.38513947 492.64685059
93.18087006 106.96875000 461.83627319
153.75831604 116.65115356 479.80487061
102.58470917 99.03480530 451.38534546
128.70001221 128.00332642 507.20458984
139.95100403 84.93099976 450.10800171
155.79440308 91.41702271 462.74877930
106.58258820 96.38094330 447.86712646
86.46054840 112.14105988 474.28942871
138.41336060 129.95249939 498.15084839
119.00281525 89.48523712 444.41363525
120.37922668 124.45752716 515.69079590
157.74266052 112.36715698 474.45620728
83.49775696 112.55286407 487.11044312
133.00982666 130.85232544 502.91955566
124.20156860 87.67288208 443.99777222
101.51529694 111.32317352 521.14239502
94.01251221 111.86266327 515.06152344
110.01719666 116.00346375 522.27966309
160.46398926 103.76632690 468.98211670
150.72099304 85.88200378 453.70901489
83.87900543 112.95420837 499.30761719
83.32517242 114.31535339 480.61633301
156.56259155 117.85755920 475.64822388
87.12034607 112.66653442 467.40029907
153.00555420 123.80072021 481.02865601
82.44088745 113.25322723 494.04241943
85.51841736 113.32379150 504.33312988
89.24223328 110.88365173 461.27746582
116.01423645 123.86595917 520.04345703
160.67738342 96.37998962 462.71551514
131.03259277 86.63869476 441.94476318
92.93618774 106.62391663 453.06527710
161.39540100 110.36064911 469.81826782
109.38117981 94.30267334 441.35507202
100.85923004 99.81841278 445.08645630
146.27516174 132.85095215 490.05535889
96.39955139 103.21829987 448.21960449
121.02037811 131.37518311 514.56811523
87.70943451 115.06533051 512.03063965
139.94108582 135.47456360 496.57928467
149.58900452 85.97999573 448.25299072
156.66999817 88.42100525 454.02099609
142.22499084 86.04499817 442.85699463
114.39499664 92.05699921 438.41799927
95.38285065 113.96586609 522.76220703
149.96612549 132.56022644 486.34188843
88.93679047 110.40928650 455.04977417
81.56169891 117.75312805 473.94223022
157.84939575 123.93035126 475.69592285
109.49055481 122.69582367 524.55554199
135.70599365 85.90599823 439.71401978
160.59127808 119.86802673 471.98715210
104.07841492 118.02964783 526.48266602
126.45764923 137.05679321 509.16101074
144.04966736 136.96975708 492.57510376
78.83046722 118.42714691 492.38641357
79.39939880 119.78619385 484.81600952
79.79951477 117.52087402 500.05377197
120.93609619 89.51704407 436.34533691
116.34194946 130.94502258 519.66918945
162.39100647 94.19299316 456.20401001
156.30967712 129.62106323 479.57534790
131.80863953 139.93237305 504.05102539
165.46099854 102.86199951 461.10400391
129.12899780 86.68500519 435.93200684
154.39599609 88.18600464 446.76501465
122.69098663 137.22387695 513.33392334
88.16406250 116.82021332 518.69500732
82.80289459 118.08789062 511.48104858
84.82936096 114.69982910 456.53930664
165.65873718 109.57927704 462.98806763
81.13869476 119.47281647 466.27618408
149.09300232 86.39299774 441.33697510
111.91199493 94.22600555 434.46298218
77.62429047 122.17520142 479.45721436
92.17816162 108.72101593 445.23638916
136.91969299 142.41029358 499.98553467
165.05587769 117.44553375 466.71014404
101.43999481 102.44300079 437.82101440
106.85099792 97.57699585 434.89300537
95.69152832 118.28876495 528.50439453
86.69721222 113.00296783 449.52462769
138.93699646 86.61899567 434.61798096
109.61168671 130.28312683 525.83984375
81.22049713 118.99974823 460.12475586
96.42868805 106.29077911 439.58865356
78.55377197 120.37054443 508.96643066
75.73254395 124.04888916 484.79153442
104.23359680 124.71740723 529.44451904
116.63399506 137.63259888 519.75866699
125.92400360 88.83100128 431.19201660
115.51599884 93.36000061 430.87197876
120.86900330 90.92900085 430.41400146
75.10302734 124.27104950 491.53762817
76.75075531 124.45153809 474.27621460
99.62909698 121.45889282 530.73406982
122.24487305 142.21289062 514.13824463
76.23308563 122.34324646 504.20706177
166.49499512 99.99100494 452.38000488
162.88099670 94.81800079 447.45401001
144.16899109 144.86930847 495.49096680
154.14761353 140.07099915 484.13217163
148.55000305 86.96399689 435.75299072
163.54145813 129.54666138 471.73461914
158.61676025 136.37991333 478.75411987
88.02970886 119.00505829 526.57574463
133.31199646 87.43099976 429.85800171
166.83439636 123.30628204 466.32296753
156.14799500 89.42399597 439.59701538
110.60099792 97.15799713 429.49102783
73.84838867 124.68798065 498.70089722
132.41571045 147.39997864 505.14315796
79.73822021 121.87944794 516.68243408
81.34584045 119.71601105 453.64648438
169.54399109 114.88100433 460.35702515
75.93908691 125.93053436 469.00308228
162.00941467 134.32171631 474.27786255
150.91865540 144.28836060 488.37890625
126.09149170 146.93026733 510.96475220
82.79863739 121.14057922 522.75842285
105.43518829 131.68609619 529.83361816
88.57861328 114.46489716 441.89978027
83.36334229 118.86385345 448.70367432
110.89977264 138.55712891 524.68939209
170.63101196 107.59200287 454.73501587
141.79199219 88.25099945 429.82400513
75.00283051 124.40219116 510.10168457
105.52700043 101.63100433 428.65100098
73.15397644 129.10763550 479.90347290
114.26367188 142.80795288 521.73309326
148.22628784 147.97766113 492.26803589
118.31703949 145.78138733 518.27435303
91.45330048 113.22769928 437.17904663
101.20616150 129.19050598 532.79748535
139.21148682 150.31280518 500.38479614
124.92100525 91.40499878 424.96899414
95.25810242 109.40165710 433.42462158
71.55529785 129.27796936 490.85021973
95.03936005 124.42613983 534.12799072
158.14192200 143.05375671 481.19390869
77.90550995 124.02367401 455.15362549
99.95214081 106.71858215 429.23272705
119.93499756 94.29599762 423.60498047
151.50399780 90.15999603 430.93099976
170.96299744 104.51499939 448.63198853
111.46900177 98.40599823 424.48400879
120.89608765 149.62576294 515.94262695
163.95401001 96.46300507 438.79101562
79.02996826 124.75717163 522.68469238
161.55862427 141.64454651 476.75952148
138.49600220 89.79299927 424.84399414
147.11999512 90.27700043 427.49200439
86.72034454 122.97067261 532.33459473
105.08045959 137.52087402 530.76300049
164.50753784 139.03604126 473.00714111
169.59094238 130.62812805 465.57504272
131.74400330 90.60900116 422.74200439
156.27198792 92.46900177 431.81100464
173.33999634 112.39899445 452.73797607
71.74983215 131.88644409 473.56027222
74.68634796 126.38977051 517.36779785
73.60991669 127.89855957 460.00305176
144.04232788 153.36830139 497.43405151
172.71963501 124.23352051 460.20043945
130.39739990 153.76641846 509.24258423
82.11692810 124.28554535 529.31365967
154.36898804 149.71325684 486.77563477
110.23219299 145.04086304 525.70458984
96.13972473 110.71398163 428.71499634
171.29499817 102.27999878 443.77899170
77.94081879 126.24435425 450.04501343
101.47975159 135.73056030 533.81701660
97.90964508 132.06246948 535.66296387
150.00010681 152.87394714 492.36392212
69.40843201 132.19848633 501.40930176
106.67068481 103.64826202 422.37384033
81.10546875 124.91637421 444.32897949
136.59312439 155.78166199 504.29010010
70.08737946 130.02536011 509.09548950
168.21147156 137.50370789 468.25439453
74.27066803 128.29991150 455.01821899
174.70001221 118.55999756 454.02700806
86.12442017 121.23328400 437.31091309
152.72100830 93.03600311 426.70898438
162.67399597 97.09300232 432.81900024
92.36156464 128.03071594 537.37786865
126.77300262 94.62599945 418.40600586
162.48110962 147.09603882 477.69567871
105.82162476 143.81759644 530.62738037
68.47013092 136.38009644 481.82864380
90.88091278 117.74802399 430.40148926
69.82501221 134.48893738 468.41268921
67.69531250 136.01184082 490.86758423
68.97893524 136.10766602 474.68746948
70.35073090 130.76786804 514.64227295
116.64988708 153.42999268 520.28082275
75.15787506 128.25143433 525.07073975
174.85800171 106.65100098 443.69400024
122.86746216 156.29772949 515.46466064
120.52700043 98.80400085 417.31100464
112.34600067 101.53800201 418.14199829
140.46900940 158.38848877 502.10302734
136.90699768 94.29599762 418.30999756
131.70599365 95.25500488 417.08697510
85.29199982 127.20562744 536.90795898
168.41925049 142.52519226 469.76202393
112.21075439 151.74070740 524.52050781
176.24899292 111.15599823 445.69500732
70.64216614 133.96121216 460.88879395
77.39591217 130.83551025 447.09054565
144.75099182 94.87800598 419.70700073
67.66893005 134.78840637 505.87231445
151.77899170 95.68399811 422.47000122
96.21199036 113.35908508 423.75421143
144.87809753 158.84582520 499.30517578
155.62254333 155.95471191 488.54940796
172.50184631 138.68389893 464.58496094
100.67585754 109.06293488 419.84197998
172.41300964 103.20399475 436.32699585
100.58561707 142.19282532 535.50726318
74.08277893 134.81753540 452.61126709
177.24000549 125.79800415 454.33898926
176.17900085 131.17199707 458.68499756
77.93247223 128.82292175 532.48449707
65.90653229 138.47402954 495.34936523
168.55200195 102.18199921 431.91098022
160.75683594 153.73890686 482.76104736
106.45272827 149.58578491 529.97918701
85.14406586 126.22042084 433.58755493
69.51174164 132.96354675 519.02850342
94.52574158 136.04452515 539.58984375
160.91600037 100.02899933 424.86398315
178.26499939 121.26200104 449.11999512
156.93600464 98.48300171 422.16400146
137.38664246 162.23165894 506.33358765
129.61270142 161.95970154 511.53213501
80.11619568 132.29220581 440.37802124
65.71516418 139.11407471 502.01242065
120.68048859 160.06077576 518.14123535
108.48099518 105.37700653 414.83200073
119.19800568 102.19200134 413.04202271
124.36900330 99.69799805 412.49002075
69.93918610 137.61198425 457.38964844
131.40499878 98.09799957 412.83398438
82.23235321 130.65687561 436.13320923
153.88125610 160.07015991 491.16363525
89.82129669 134.17202759 541.35369873
91.51502228 119.96756744 423.66867065
66.07424927 138.30122375 509.89718628
175.58999634 138.10501099 460.15301514
108.96569824 154.84065247 528.09307861
148.89292908 162.39566040 497.39260864
80.31159210 130.89691162 538.26348877
179.01399231 116.97699738 443.26202393
68.19114685 140.50369263 462.13449097
65.16863251 142.36828613 476.34783936
102.58427429 149.05720520 534.53186035
72.28399658 132.74845886 529.43603516
177.18400574 108.96400452 436.85400391
64.54129028 143.34376526 485.46243286
142.79681396 164.32519531 502.91787720
139.39100647 99.73700714 412.60900879
115.41825867 160.32147217 522.44061279
102.82800293 110.30599976 414.66900635
168.51504517 151.73085022 472.75289917
148.74699402 100.31499481 414.94302368
125.29465485 164.33789062 515.63439941
65.37679291 142.87684631 469.85559082
134.17433167 165.51077271 509.90402222
72.15262604 140.88122559 451.93487549
94.35278320 141.89665222 540.69207764
115.46400452 105.20300293 410.50799561
76.00331116 138.92843628 444.60632324
179.97500610 129.70700073 450.72100830
63.17330933 144.18205261 493.18759155
173.65499878 147.44799805 466.86499023
160.73377991 160.34577942 486.69601440
94.96068573 116.79722595 416.93594360
164.05043030 158.71652222 481.47839355
63.31820679 143.87164307 501.21426392
83.24969482 130.92088318 429.66619873
111.09440613 160.22084045 526.77459717
180.59500122 123.82700348 444.16799927
157.95899963 103.08499908 417.17898560
118.47958374 164.43133545 520.22253418
63.49493408 145.98332214 480.41226196
98.41687775 114.48317719 414.32461548
65.32419586 140.27337646 516.65734863
170.10800171 106.44100189 425.02297974
123.19100189 104.32700348 408.07299805
77.23767090 139.27259827 439.74658203
174.36698914 108.82299805 428.65899658
66.48813629 138.73802185 522.62713623
107.87300110 109.55300140 409.76000977
69.98094940 144.80712891 455.05114746
86.34422302 127.79804993 424.11300659
68.22468567 146.54248047 460.45513916
62.43634033 147.31150818 487.96316528
81.36859894 134.73280334 543.26776123
97.63620758 150.44920349 538.69305420
132.44999695 103.17800140 407.08300781
181.45599365 120.72599792 439.31298828
166.42799377 106.83599854 420.28399658
129.66740417 169.25302124 513.46911621
180.94601440 136.01300049 451.19299316
100.39356995 154.11231995 536.54943848
146.97100830 104.47000122 410.03997803
63.24725723 144.07283020 512.16479492
181.66500854 129.12100220 444.88497925
67.70957947 138.48847961 528.78802490
104.12795258 158.33244324 533.07446289
136.58262634 170.00021362 509.86425781
63.26902008 148.73776245 473.06512451
154.50399780 105.46500397 412.32498169
73.39363098 145.24720764 446.07940674
180.29100037 140.82301331 454.67401123
73.46541595 136.19590759 538.30975342
140.81193542 170.45581055 506.40231323
61.17334366 147.84060669 497.53646851
179.83299255 114.62400055 432.39901733
65.28240967 148.62490845 464.81903076
169.07135010 159.70341492 476.89111328
178.77400208 146.37599182 459.81402588
78.11309814 139.14488220 433.66531372
96.99800110 118.87100220 411.69198608
90.25099945 126.11000061 417.28799438
151.20271301 169.98269653 497.64660645
85.62344360 141.05017090 545.17382812
102.66600037 115.08599854 408.50799561
156.29939270 168.71311951 492.18881226
61.05711365 147.73779297 505.37533569
80.05927277 136.68276978 428.86260986
60.88862228 150.57344055 481.02932739
166.65126038 163.62008667 481.31103516
112.28247070 166.21221924 527.14593506
138.75498962 106.07299805 404.89700317
181.57600403 119.85699463 433.02801514
123.74969482 171.91372681 517.92071533
182.71000671 128.05900574 438.50201416
164.72647095 166.50801086 485.51580811
60.14502716 152.10203552 489.67056274
74.41452026 145.57289124 439.23464966
133.61814880 173.64367676 511.92004395
63.90321350 144.12969971 524.16009521
145.73753357 172.92636108 504.42987061
131.31700134 106.88299561 402.74798584
91.15175629 149.58901978 543.90014648
107.11399841 114.89900208 405.21099854
161.55000305 110.38899994 412.78698730
119.08599854 109.86699677 402.62698364
174.27162170 158.30735779 469.10415649
97.00653076 156.45269775 539.45111084
93.66899872 124.96600342 412.15899658
68.39481354 153.12039185 456.37686157
177.53799438 115.03499603 424.44699097
177.27677917 154.83360291 463.75393677
183.58099365 134.09399414 442.50000000
113.23300171 112.70099640 402.80300903
71.39065552 150.85179138 446.68896484
76.73728943 139.60263062 545.37408447
183.52299500 139.40399170 447.05502319
125.94899750 109.48199463 401.10900879
99.97099304 120.57500458 406.83401489
93.51393127 154.46109009 542.61248779
82.15287781 138.54341125 423.69372559
107.56730652 167.02508545 531.32708740
146.33099365 109.81099701 404.43997192
116.02690125 172.01571655 523.91101074
171.19500732 114.27700043 417.59802246
99.78956604 161.13783264 537.79974365
61.61059570 147.84436035 520.29229736
89.83000183 131.11599731 414.38101196
62.03179932 155.22526550 469.90789795
58.86444092 153.27932739 500.76098633
65.97361755 156.04547119 461.09729004
72.13879395 141.27310181 542.47534180
154.38699341 112.51499939 406.72497559
58.99806976 152.26820374 507.59494019
183.00900269 146.74200439 452.08297729
80.66709900 144.51264954 546.99603271
126.12386322 176.49285889 516.84381104
85.53753662 136.05389404 417.93505859
76.99169922 143.48539734 428.83636475
59.20149612 152.48980713 512.81958008
140.02468872 178.24586487 509.31994629
167.78300476 117.06800079 412.94400024
152.27995300 176.85948181 498.70794678
69.29985809 156.06068420 449.48388672
177.59368896 160.35491943 464.87643433
67.12754822 158.48791504 457.03179932
136.20500183 111.45700073 399.30999756
66.88710022 144.23400879 538.18811035
176.76100159 119.72699738 419.71600342
101.07258606 166.26199341 536.38140869
119.65684509 176.60142517 521.83392334
88.85971832 154.38684082 545.63165283
171.69746399 168.01161194 476.96749878
63.73208618 146.69227600 532.38067627
144.53799438 113.11199951 401.04800415
159.92199707 117.09899902 407.50698853
180.85198975 122.59400177 423.82699585
162.85639954 174.23100281 489.34295654
126.36600494 113.38599396 397.81399536
159.06700134 175.96543884 492.80706787
