ply
format ascii 1.0
element vertex 512
property float x
property float y
property float z
end_header
117.84500122 223.80999756 491.04699707
120.83399963 222.33399963 485.03500366
116.41999817 224.33100891 498.26400757
122.28099823 221.92700195 497.02001953
115.91000366 228.62300110 484.99798584
125.20599365 220.27699280 488.13098145
126.16400146 220.78500366 493.98498535
113.22399902 232.15199280 493.58099365
124.16600037 221.22999573 480.98498535
118.23700714 218.55000305 502.81698608
116.50100708 235.45700073 484.92300415
109.48800659 228.83898926 500.38397217
119.40299988 227.65000916 478.06100464
130.81100464 218.46699524 490.40499878
116.07099915 237.81498718 490.08700562
108.77899933 224.36999512 502.59899902
129.73300171 217.55300903 497.71499634
128.65499878 218.08399963 480.43099976
120.29299927 232.66200256 477.43899536
110.81500244 219.91600037 505.63598633
123.53599548 212.87300110 502.45498657
109.53900146 236.17399597 499.32299805
121.30100250 237.53799438 480.75698853
114.57900238 240.29199219 496.64199829
132.88200378 216.76400757 484.40798950
119.68900299 242.51399231 492.76098633
103.84300232 226.86900330 503.46798706
123.03499603 228.51100159 473.36398315
135.57099915 216.96501160 492.58499146
122.96800232 242.01100159 487.03701782
104.57099915 234.33799744 501.53295898
132.64599609 212.01800537 498.18798828
124.71400452 235.06599426 475.14297485
113.96299744 211.89099121 507.48699951
126.26500702 240.80699158 482.59500122
125.75199890 208.27799988 502.96597290
130.44400024 219.83300781 474.34500122
133.10900879 216.61700439 477.76300049
126.60199738 225.17498779 470.99301147
109.88199615 242.39399719 500.67901611
102.30300140 221.58099365 507.10498047
100.87200165 230.86300659 504.00500488
138.50900269 215.60000610 487.32998657
108.19800568 214.56498718 509.50903320
130.23899841 206.68600464 500.67596436
104.60900116 240.03500366 501.19400024
120.50899506 205.94200134 506.21200562
131.36000061 243.05899048 486.95800781
131.42601013 238.97099304 478.51800537
115.85800171 246.94200134 497.02398682
127.11599731 246.02200317 491.10998535
138.01799011 215.12899780 480.89599609
99.14399719 226.70500183 506.27999878
137.28399658 209.41600037 495.60699463
115.91000366 205.72399902 508.78500366
122.23600006 248.67999268 493.87500000
110.22100067 209.19799805 511.00601196
136.28900146 239.69999695 481.89602661
98.81099701 238.12800598 501.60903931
129.85299683 233.31700134 469.85998535
136.15599060 216.49200439 473.20101929
133.81900024 219.70201111 469.27700806
133.24000549 201.99101257 496.92401123
142.83000183 212.81700134 488.66900635
100.72200012 216.92599487 511.40301514
94.45700073 237.75300598 494.91000366
91.82199860 233.51800537 490.73602295
95.82799530 240.77099609 490.28997803
97.61100006 242.33000183 496.17700195
131.63598633 226.46899414 466.87200928
93.74600220 235.08801270 499.63699341
109.41399384 249.20800781 499.26300049
96.65899658 241.69699097 484.72799683
104.43499756 211.25500488 512.85797119
136.89199829 236.32598877 473.89599609
102.96600342 246.71499634 499.42098999
138.87699890 242.55900574 485.57202148
95.81999969 222.86799622 509.61499023
91.46800232 230.97000122 501.36798096
140.45600891 237.49000549 478.57800293
126.24800110 198.41000366 502.80899048
130.66700745 250.13198853 491.22500610
93.89700317 237.31700134 480.85998535
90.67299652 232.04299927 483.31002808
89.24900055 226.99501038 497.79699707
142.70899963 213.33999634 478.90798950
142.32000732 206.99800110 491.10400391
88.82799530 228.40000916 486.41900635
100.28400421 247.28199768 485.95800781
102.59999847 249.44999695 491.28601074
92.58499908 227.34899902 507.14099121
98.66400146 244.43299866 480.01199341
139.38499451 202.53900146 493.15701294
87.42699432 223.29499817 494.35101318
112.35699463 202.30000305 512.51800537
136.05599976 233.42700195 467.92098999
117.39900208 254.05499268 498.35800171
134.28999329 197.24099731 494.94400024
104.49900055 251.72599792 484.97500610
88.73099518 228.37899780 479.77301025
118.51100159 197.45500183 508.49200439
138.48300171 247.71800232 489.08697510
103.26900482 248.76300049 477.91201782
91.68700409 233.08900452 475.11102295
85.91699982 220.95799255 489.65298462
107.83100128 254.45300293 491.84600830
95.68800354 239.72399902 473.66299438
144.84700012 235.41499329 476.93899536
106.16300201 204.84300232 514.89501953
86.29900360 218.31700134 497.42901611
135.46000671 251.59698486 491.36999512
136.84800720 221.78800964 463.97299194
136.68200684 229.06999207 464.25100708
99.94100189 243.98300171 471.58398438
89.38200378 228.63999939 474.30102539
95.15100098 215.84799194 514.35699463
87.79299927 220.22500610 505.45697021
109.30000305 254.99499512 481.89898682
126.57900238 256.09201050 494.61300659
145.49900818 241.68301392 483.83599854
85.39800262 220.36700439 482.13400269
107.65799713 251.95500183 475.25701904
143.06600952 233.00599670 470.35501099
129.22599792 192.80200195 499.35202026
148.41400146 210.34700012 482.31698608
141.17201233 216.34500122 466.67797852
98.56099701 209.95100403 516.46600342
121.31199646 258.14398193 496.08297729
86.90399933 223.76600647 474.85400391
148.64199829 237.06300354 481.15399170
85.05299377 213.37098694 497.76101685
148.90499878 207.59899902 486.69799805
84.16799927 214.87200928 484.16500854
114.01700592 259.16601562 492.50000000
91.48899841 232.36100769 468.54299927
89.84999847 219.43800354 512.82604980
84.18499756 211.61900330 491.71002197
94.59400177 237.22999573 467.29998779
103.01200104 246.54299927 467.57598877
123.84399414 190.94400024 504.18502808
109.28399658 252.03298950 470.38299561
114.36499786 194.74400330 512.08599854
145.27999878 213.71200562 469.75698853
132.68800354 256.66299438 494.02999878
145.77099609 246.36100769 486.16299438
146.99600220 202.06298828 489.61999512
140.53698730 252.32099915 488.84799194
88.31600189 226.03700256 469.66400146
148.21200562 211.12098694 475.14797974
141.78498840 195.68200684 491.85699463
85.48499298 213.10700989 505.57897949
113.34100342 256.16400146 473.22601318
115.42200470 260.38800049 484.61898804
144.43301392 228.11099243 465.08099365
83.77099609 213.96299744 478.33099365
97.71800232 239.67799377 463.20999146
137.02499390 256.61599731 491.37600708
83.82300568 207.71099854 496.69598389
143.48399353 219.63999939 463.22100830
150.05999756 230.73699951 471.78997803
101.32800293 243.09500122 462.49499512
94.05999756 211.63499451 518.52001953
136.13999939 190.31900024 495.41400146
90.59600067 215.18499756 516.87298584
152.98399353 232.16700745 477.11898804
84.10199738 216.28799438 473.58001709
105.49499512 199.47999573 518.64801025
117.69200134 259.16799927 475.01300049
82.76599884 209.14599609 483.00299072
109.38999939 250.36999512 463.88302612
98.22899628 205.68699646 519.64404297
117.05199432 189.24800110 509.51098633
86.17000580 214.18499756 512.31201172
82.93199921 205.93400574 487.47302246
83.90399933 207.59700012 503.50601196
152.46400452 208.36399841 479.11599731
153.47000122 240.86000061 483.76901245
121.01200104 262.43002319 479.74301147
86.46099854 220.81300354 465.73599243
111.28500366 192.55000305 515.93798828
128.75999451 262.66400146 496.22299194
120.44999695 185.98599243 506.36203003
123.80400085 264.13299561 495.76800537
131.07800293 185.72599792 498.70898438
119.02199554 258.97799683 469.86300659
121.91200256 264.77899170 488.81997681
148.92601013 222.90499878 463.91799927
101.64300537 241.57800293 457.48800659
91.19900513 230.22399902 460.02999878
95.56999969 235.72300720 458.13400269
153.53498840 202.76899719 485.39599609
147.62100220 216.91999817 462.44201660
116.90699768 256.75100708 465.15499878
146.80099487 254.10899353 488.24200439
149.80499268 196.55400085 489.62301636
82.56900024 207.95899963 474.27801514
83.73699951 214.96200562 467.90701294
82.21199799 204.00999451 479.78399658
141.76699829 188.46299744 493.66598511
82.38299561 201.90599060 500.73999023
82.62142181 200.32240295 483.48339844
113.66000366 252.98899841 459.61898804
133.62599182 263.73898315 495.01998901
81.80999756 200.07899475 491.64999390
153.74800110 224.85198975 466.89700317
157.80999756 237.52499390 481.54602051
158.63700867 231.22100830 478.31900024
82.95100403 205.39799500 509.10299683
154.05200195 246.64300537 483.78802490
122.97499847 261.91699219 470.79400635
156.91200256 227.38600159 472.07299805
108.30199432 247.76800537 455.49899292
156.41200256 205.51100159 480.05599976
126.53499603 264.90798950 477.45498657
112.74799347 185.28201294 512.43597412
100.69899750 239.01499939 452.88500977
93.20999908 231.24299622 454.64001465
127.30799866 181.26599121 500.94799805
87.33099365 210.71800232 521.03503418
123.11699677 181.46699524 504.90499878
87.29799652 221.62400818 458.07702637
128.38800049 267.59799194 491.60501099
96.69099426 235.08200073 452.74298096
81.84400177 200.63600159 505.54101562
82.24716187 196.24012756 486.36822510
145.91099548 259.36898804 489.40899658
154.81300354 211.07398987 467.53201294
82.88200378 206.37199402 514.97503662
153.37899780 252.33099365 486.24398804
154.79100037 220.06199646 463.99398804
149.50599670 190.42399597 491.56900024
82.30903625 200.02108765 474.02578735
107.90200043 189.22900391 519.83300781
98.90799713 198.12699890 524.29400635
137.37800598 182.33599854 496.33700562
142.38299561 262.92602539 491.52499390
82.70182037 209.22537231 464.66494751
90.80599976 226.72399902 453.53900146
81.94898987 194.47064209 491.38101196
128.95899963 268.31100464 484.15399170
157.65899658 206.26100159 474.92700195
81.50599670 196.81300354 501.29098511
106.17900085 244.74600220 450.96200562
103.91400146 192.31900024 522.73901367
153.21000671 214.99400330 461.68499756
159.72200012 242.97200012 480.98098755
132.11599731 179.22799683 498.96197510
116.11100006 254.56600952 454.73300171
155.71800232 194.64201355 488.51699829
130.13400269 265.20700073 470.35299683
82.52741241 202.87385559 466.37332153
82.82075500 194.69119263 476.04681396
83.40200043 207.10800171 520.26300049
163.42399597 230.90200806 476.67599487
121.31399536 258.69198608 457.60800171
110.20800018 183.78399658 517.29901123
90.94099426 203.02000427 526.58404541
103.52099609 240.68099976 447.10900879
86.37400055 217.40199280 453.77600098
113.17900085 251.92001343 450.74798584
86.05899811 206.71301270 524.98602295
150.38900757 261.35098267 488.73400879
134.36601257 267.80001831 474.73498535
116.91100311 177.83500671 510.27603149
127.25000000 263.20098877 461.90701294
143.73600769 181.26599121 494.38299561
122.19300079 176.27400208 505.79702759
134.21699524 270.63500977 484.80401611
99.62500000 235.57501221 445.98098755
161.26499939 201.08799744 480.87899780
82.30815125 190.71667480 478.62841797
81.76909637 188.95756531 492.49710083
163.57099915 223.58000183 469.97897339
154.23400879 188.74501038 491.16900635
84.61900330 211.66500854 454.88699341
81.10631561 192.99246216 507.23605347
96.43899536 231.17199707 445.52600098
83.35483551 207.54551697 457.41082764
94.69699860 198.27101135 528.47302246
82.05696869 188.82698059 501.06369019
89.47000122 222.06599426 448.64700317
81.45800018 196.53298950 514.28601074
159.48699951 217.36698914 462.16799927
93.06800079 227.49200439 446.43200684
137.43699646 176.78900146 496.17098999
110.81200409 248.97900391 446.95300293
126.58399200 174.48300171 501.99902344
82.76620483 195.26113892 466.81784058
142.99299622 268.54699707 490.17300415
138.06599426 271.01098633 488.81301880
166.28999329 227.70401001 473.59402466
82.27656555 186.74354553 485.31246948
81.40199280 199.47099304 518.50897217
159.78900146 253.46099854 483.71499634
111.75499725 178.45700073 516.02899170
137.61399841 270.98199463 480.61999512
106.46600342 244.04100037 444.25100708
159.84800720 209.68499756 463.38800049
82.32332611 202.95747375 458.90170288
163.90899658 247.06600952 482.21902466
167.41700745 235.92401123 478.76098633
151.18899536 182.79299927 491.10900879
118.73199463 254.40499878 447.94601440
82.33080292 184.94052124 496.68353271
136.63800049 266.40798950 465.77999878
162.83799744 204.68099976 470.13598633
107.83399963 180.69999695 520.63201904
82.80589294 188.39654541 472.08489990
103.40599823 184.22700500 523.75195312
157.73298645 212.81999207 456.88800049
87.02400208 216.00100708 447.75799561
135.28099060 264.89099121 460.56900024
165.52799988 220.62001038 465.72598267
118.35099792 172.33100891 507.76797485
141.43200684 272.02902222 484.04699707
140.55900574 270.44601440 475.49600220
158.26599121 259.91201782 485.43200684
146.52999878 270.19198608 486.82299805
126.91600800 260.22601318 450.93499756
168.71400452 242.03300476 480.64498901
81.48500061 200.43798828 525.26300049
83.88378906 205.66165161 451.09851074
91.03199768 221.95300293 442.40499878
82.37878418 197.14851379 457.42510986
170.74200439 233.12699890 476.14898682
97.25800323 189.04598999 529.60595703
122.58999634 169.77799988 504.91101074
113.47500610 249.65499878 441.54000854
91.72000122 196.36100769 532.32403564
81.70267487 187.15542603 513.20446777
86.39000702 200.20199585 531.06701660
163.94700623 217.20401001 459.71899414
165.16702271 200.19757080 472.22561646
102.47500610 237.29699707 438.58001709
98.89300537 231.89399719 438.61700439
82.65827179 179.94876099 495.23944092
117.36900330 252.58699036 442.48501587
171.13241577 228.84777832 472.92544556
94.85000610 225.64299011 439.17098999
82.80024719 180.28933716 480.98760986
113.74499512 171.67800903 513.26605225
133.52101135 169.66900635 498.37301636
165.37075806 194.21926880 481.08853149
169.58099365 222.95700073 467.33499146
142.27899170 268.43197632 465.43301392
83.88503265 186.83746338 463.84564209
83.12094879 178.46249390 489.95385742
161.63075256 187.36334229 485.18759155
135.75000000 263.35900879 453.69198608
108.91600037 244.48899841 438.30099487
82.58811188 179.63673401 501.20574951
146.20147705 173.92520142 488.71255493
82.65636444 182.22383118 472.17562866
163.92561340 203.45553589 462.95748901
82.41275024 181.21311951 507.53665161
108.76700592 174.29800415 519.73095703
94.41000366 191.62500000 533.17199707
164.87699890 256.24600220 481.14401245
140.58500671 265.37399292 457.46298218
155.39799500 267.55999756 483.85501099
82.65164185 191.98997498 457.09722900
80.45499420 191.94799805 522.70300293
81.35716248 187.21014404 518.66607666
85.71533966 210.27651978 443.74987793
147.91799927 272.66799927 478.29602051
123.98799896 256.22799683 442.40899658
156.75697327 180.34594727 483.68377686
141.22760010 169.85725403 489.59136963
134.11299133 261.44702148 448.70401001
162.08024597 205.57948303 456.51446533
169.57299805 220.56900024 462.81399536
103.50300598 177.59500122 524.91601562
128.71398926 166.54699707 501.06900024
128.81100464 258.73501587 444.53399658
105.54800415 240.28498840 435.36697388
118.30200195 167.22999573 509.06903076
161.95700073 261.90701294 479.66302490
148.59600830 271.66198730 473.10299683
84.28711700 203.22639465 446.18157959
92.02816772 220.74241638 437.19439697
172.18400574 246.90499878 481.50900269
163.01499939 209.36599731 454.46801758
83.89039612 174.70405579 496.93554688
151.80445862 174.52870178 486.08242798
117.19100189 251.32598877 437.60498047
154.08508301 202.60874939 447.91879272
113.08799744 247.43199158 435.78601074
140.83099365 263.98400879 452.29501343
85.96599579 196.89300537 534.84399414
164.78199768 215.17300415 453.86300659
165.95779419 188.32057190 481.37231445
164.69799805 259.08801270 475.53500366
154.21699524 195.24246216 451.45346069
149.06599426 270.09899902 465.84698486
147.64199829 268.20098877 461.08401489
82.79009247 176.38549805 474.32507324
83.92467499 183.40618896 459.64944458
159.37208557 199.62164307 452.80697632
168.48100281 217.58300781 456.69601440
176.30699158 230.07800293 472.66400146
83.02178955 197.87983704 447.26672363
82.88715363 179.99684143 465.15481567
175.37400818 226.07499695 468.55398560
171.45800781 252.13998413 478.89398193
169.95503235 194.51696777 475.16284180
140.13800049 262.07501221 447.71002197
159.85632324 206.62237549 448.60577393
99.57499695 179.30799866 530.47003174
82.66287231 176.27906799 510.54321289
177.18550110 234.84999084 475.69204712
82.09886169 180.31001282 517.84948730
159.03158569 194.92338562 453.97738647
146.33978271 168.49124146 484.97998047
103.02300262 236.25000000 431.47201538
156.36601257 271.93298340 479.70397949
167.79461670 204.34371948 458.47723389
176.19000244 243.33099365 478.56597900
79.93199921 192.02400208 529.81195068
87.43556213 211.37422180 437.35601807
84.82701111 170.75694275 482.73443604
168.15100098 255.47700500 470.03201294
110.49800110 166.92700195 517.22900391
88.17200470 192.71699524 537.28698730
85.29833221 169.70816040 491.57974243
161.14700317 268.00299072 478.45599365
82.70307922 189.61422729 451.06777954
156.38343811 174.26348877 482.18542480
126.37726593 161.74836731 500.96749878
95.61599731 184.19200134 535.54199219
140.82749939 164.55346680 487.11807251
84.64197540 170.22396851 500.15252686
99.28800201 229.89199829 430.26501465
83.46234131 174.61982727 469.27084351
171.77278137 197.09872437 469.46563721
136.30799866 260.62500000 442.09100342
147.55999756 265.02297974 452.16900635
80.89920044 182.51284790 523.20892334
149.14595032 198.18798828 441.35128784
165.32348633 201.82719421 453.95898438
161.36148071 177.95407104 480.14755249
109.96520996 243.20793152 430.25369263
131.58700562 258.54000854 438.70800781
156.35099792 272.17700195 473.13601685
146.63885498 201.49147034 437.96340942
81.48100281 194.47999573 535.35998535
171.77958679 202.27146912 463.12579346
173.55400085 251.05300903 473.34201050
117.70700073 162.45700073 511.03698730
118.29100037 250.23300171 432.14099121
165.79499817 263.54598999 473.70498657
174.80300903 221.07099915 460.51699829
85.18410492 203.94302368 438.79797363
132.84899902 160.81672668 492.95745850
106.33899689 168.58599854 523.01800537
80.14065552 186.99813843 529.01959229
96.71260834 224.37107849 429.56759644
166.64486694 182.46195984 479.05258179
91.15499878 187.74600220 538.20697021
152.32633972 169.33683777 481.02380371
83.83085632 177.72439575 459.69390869
84.62516785 169.59004211 475.95404053
156.41400146 269.18899536 463.93099976
170.71246338 187.72631836 476.73010254
153.00799561 267.60101318 456.88900757
170.00900269 215.29100037 451.95599365
101.62699890 172.00300598 528.15899658
122.53200531 252.81399536 432.19598389
84.94422913 168.69779968 506.37442017
176.47500610 253.74400330 484.67800903
181.18501282 231.83999634 473.18301392
157.31063843 205.32305908 440.92749023
121.30899811 159.35499573 506.77902222
128.42700195 256.67102051 434.28201294
147.61799622 263.55499268 446.88400269
84.53036499 181.43495178 451.75765991
138.12498474 160.27481079 487.42776489
83.23896790 189.77917480 445.08349609
173.41500854 218.87300110 454.21600342
147.39588928 164.54808044 481.34423828
180.18699646 247.58699036 484.03997803
163.44633484 196.68679810 449.89776611
86.98738098 164.87429810 481.41275024
172.22200012 253.72698975 465.02899170
159.43820190 189.53170776 450.71130371
152.76899719 265.97198486 451.77902222
151.29217529 203.41368103 435.87774658
173.73699951 260.65499878 480.72399902
86.99023438 163.63984680 496.51715088
98.66400146 173.94200134 532.89904785
83.68385315 193.06982422 441.01815796
175.57301331 259.50698853 487.92800903
104.82199860 236.33299255 425.41900635
166.05044556 209.34368896 445.10665894
170.91499329 259.56402588 467.50399780
89.22315216 213.02000427 429.93313599
83.87936401 171.03138733 518.16589355
154.10845947 193.68772888 441.49310303
115.35543823 247.23306274 426.68594360
114.24300385 159.71000671 515.15594482
182.96655273 241.89285278 479.26538086
110.30799866 161.70599365 519.24096680
137.42098999 260.14398193 436.20700073
86.81371307 164.50013733 475.49572754
171.97705078 261.87759399 472.48428345
94.53800201 179.38700867 538.24597168
88.56641388 161.60859680 485.23010254
163.39700317 270.35202026 468.22802734
144.06999207 261.50799561 439.48400879
82.87699890 189.03199768 539.47900391
80.22954559 185.09408569 534.61944580
81.44644928 178.41842651 529.06506348
144.87229919 160.52244568 480.75436401
