ply
format ascii 1.0
element vertex 2048
property float x
property float y
property float z
end_header
77.34700012 215.31399536 571.48498535
250.36999512 252.05799866 417.42199707
83.48600006 202.29199219 397.16400146
136.01799011 302.23400879 479.92199707
122.39699554 135.07199097 490.99697876
167.09500122 212.34400940 449.04598999
67.72200012 237.25199890 483.10198975
135.75500488 276.22000122 393.09201050
212.00099182 296.30099487 467.94799805
137.86299133 149.67500305 417.22000122
128.24699402 205.06599426 515.83996582
69.77999878 172.67500305 459.21298218
147.55299377 211.07800293 386.02001953
73.85399628 168.01100159 526.23803711
88.55000305 268.83300781 535.79498291
91.29299927 274.83901978 437.89602661
194.63899231 280.20901489 411.03298950
201.83000183 224.44799805 403.81802368
140.99699402 247.65899658 481.74899292
159.58399963 161.78298950 463.93902588
205.40100098 247.63800049 450.54299927
91.54699707 252.16699219 393.30999756
116.48000336 215.33999634 452.48602295
98.84500122 135.28298950 443.52401733
157.32299805 294.85501099 437.53497314
70.88299561 227.53900146 435.80401611
92.58300018 277.49197388 488.45602417
64.00600433 217.75000000 526.00000000
176.26998901 296.97299194 497.16299438
168.10600281 184.26699829 415.53198242
234.33799744 289.27600098 431.67098999
98.03900146 164.19799805 410.48199463
152.93699646 252.53298950 440.30300903
167.69898987 247.16499329 394.25299072
101.91799927 229.62200928 536.67803955
62.16400146 197.61199951 490.52899170
84.16700745 148.16500854 491.43099976
137.42601013 130.15499878 451.86199951
148.26199341 196.43699646 482.66500854
177.90800476 264.74499512 474.08102417
125.84799194 241.04499817 376.20800781
110.26200104 170.88400269 507.50399780
109.79799652 246.70800781 503.66497803
128.47100830 179.47999573 394.12899780
93.30300140 193.83099365 544.76599121
237.48500061 217.66899109 411.31698608
122.49199677 294.75299072 424.91000366
198.15798950 201.78100586 431.75698853
72.28499603 192.74499512 430.12100220
178.41499329 301.05999756 463.47201538
111.19000244 292.56399536 458.75799561
217.27900696 255.41499329 411.17098999
74.76499939 242.81999207 552.54901123
112.06999969 207.50700378 380.95300293
75.43999481 255.03599548 508.91299438
124.48299408 275.16299438 493.14599609
77.99700165 260.15698242 463.16000366
169.77598572 215.54100037 408.88000488
135.48199463 163.59899902 486.06500244
182.65501404 225.23500061 473.38299561
65.53799438 209.76200867 461.66900635
161.94200134 283.80099487 408.92401123
102.09999847 279.01300049 407.74801636
192.58399963 297.51397705 436.15902710
127.87400055 221.38800049 489.78497314
143.17500305 224.86401367 462.17300415
216.87699890 226.60600281 430.82897949
160.67999268 157.77600098 434.21600342
151.33599854 276.87298584 478.12701416
79.65700531 251.32598877 421.18298340
79.96399689 162.51400757 433.89099121
213.95599365 275.46398926 448.32000732
99.51899719 134.17500305 472.10800171
164.39999390 183.32499695 445.38900757
68.44400024 171.90200806 497.46002197
198.58599854 220.36199951 451.88098145
79.32399750 229.71699524 401.58798218
63.62400055 190.79899597 516.68402100
111.14700317 143.11500549 421.19500732
191.63299561 251.74200439 406.08700562
91.98300171 151.74800110 516.97497559
102.98999786 184.26998901 393.12402344
100.43399811 276.52401733 513.05999756
113.15000153 265.64898682 386.68399048
69.09500122 203.72900391 546.96002197
132.09500122 184.17199707 500.70602417
137.86500549 295.47698975 455.52301025
162.72599792 240.09500122 467.55001831
229.64199829 264.46398926 431.84399414
98.69499969 228.62899780 383.47900391
144.82699585 141.99400330 472.67700195
82.92099762 149.08799744 456.76101685
118.91199493 228.11199951 517.17700195
151.01901245 188.83900452 397.90600586
110.97999573 190.27200317 525.08905029
156.75599670 201.80599976 429.79602051
62.86299896 222.16300964 501.39099121
69.84700012 238.02299500 458.45800781
196.56900024 278.10400391 464.65701294
146.62500000 252.90901184 384.33798218
184.39500427 196.01599121 452.10900879
123.40200043 297.57199097 501.47802734
196.89401245 299.37298584 485.95800781
100.46300507 250.34698486 525.75598145
161.17100525 301.38702393 479.90499878
217.96899414 280.95001221 417.28100586
72.13000488 243.83399963 529.06695557
93.39900208 216.79499817 554.08697510
120.77500153 160.78401184 406.28201294
186.43099976 199.64300537 412.07098389
150.91900635 169.62001038 411.80300903
92.68700409 278.70498657 460.20498657
76.93000031 259.52801514 486.83599854
110.94200134 292.09100342 483.49499512
73.53199768 213.09199524 418.77099609
103.03500366 137.48399353 502.16699219
166.63000488 234.72000122 440.93298340
121.36699677 129.34599304 467.47601318
139.35699463 289.85299683 411.01000977
119.49300385 241.89099121 483.66201782
85.32199860 182.15699768 406.70202637
186.87899780 246.59399414 462.96798706
94.08599854 176.32000732 530.36999512
76.37599945 179.34800720 545.13800049
153.38699341 196.81199646 459.10400391
121.47600555 130.71200562 436.65100098
113.84500122 211.91600037 531.66094971
154.74299622 231.76799011 385.31198120
156.01499939 143.59899902 450.23599243
215.69900513 210.77301025 413.71499634
177.93099976 291.93499756 421.33999634
234.15499878 239.34399414 411.17700195
157.65600586 268.26000977 394.76098633
153.65600586 175.93200684 479.37301636
213.68899536 293.01300049 435.25799561
177.62300110 209.58100891 428.70901489
182.66000366 284.58300781 479.89498901
248.09199524 271.78100586 424.85998535
75.53700256 252.03201294 443.83499146
141.57299805 206.66598511 499.74798584
135.67500305 207.15800476 453.87301636
183.36399841 232.80499268 398.74301147
176.14999390 268.81701660 406.06100464
146.17300415 138.05200195 432.74798584
162.11099243 218.34799194 468.28100586
109.72299957 261.09500122 488.74801636
158.33898926 299.35900879 457.63497925
105.94899750 289.25799561 438.95501709
118.09200287 156.76300049 494.75399780
63.51300430 190.71101379 471.31402588
75.22399902 158.50000000 476.21301270
221.36900330 245.55101013 437.07498169
131.05799866 221.48300171 378.45599365
68.61799622 192.19400024 450.04000854
130.66799927 199.93499756 386.39001465
69.33700562 223.89100647 548.05303955
79.37999725 196.72299194 562.75897217
160.02799988 258.05200195 477.95800781
225.21099854 293.00201416 450.88601685
90.98899841 244.88400269 542.09100342
62.87200165 215.74200439 483.07699585
120.05999756 288.28100586 406.79101562
182.11799622 191.19000244 432.42498779
156.94400024 292.70300293 496.40100098
94.05300140 150.66400146 423.93600464
139.79400635 285.78500366 490.09002686
108.59999847 248.09800720 381.63500977
174.05400085 298.62500000 445.59500122
198.63499451 299.51300049 455.49899292
89.84100342 264.68499756 406.83901978
178.83700562 208.94500732 465.51199341
67.66699982 237.97500610 509.64099121
142.49000549 215.37199402 480.27102661
68.67399597 208.93199158 442.31097412
152.77700806 223.83000183 445.85699463
123.33699799 213.52400208 469.32901001
76.73600006 157.98500061 505.87301636
106.98200226 289.68701172 501.99902344
137.66300964 296.55398560 434.81600952
156.55101013 203.16200256 409.64001465
161.40800476 180.13999939 462.96798706
212.55900574 238.13299561 408.85098267
67.15399933 191.24899292 534.38995361
202.76899719 218.37699890 423.17898560
75.17199707 233.07499695 418.46600342
77.94900513 178.07600403 422.26898193
86.09200287 269.81198120 502.86801147
75.61299896 196.47898865 413.27600098
130.10501099 231.03498840 474.85198975
121.48900604 296.61199951 442.48699951
128.70899963 258.84100342 488.92199707
67.85699463 173.90600586 478.92199707
85.31800079 144.68798828 474.16601562
119.90499878 233.40701294 499.55001831
201.40400696 291.46099854 422.72500610
93.96199799 211.10699463 386.93600464
81.67099762 231.25599670 563.06304932
162.09300232 218.14399719 392.51000977
61.69400024 206.43200684 510.14797974
73.51599884 178.59700012 439.50201416
233.49800110 255.95999146 416.14599609
86.90799713 147.77299500 439.03601074
132.52699280 262.25997925 383.72000122
107.77399445 129.97599792 456.82299805
102.99299622 259.83599854 511.67202759
114.55799866 224.45599365 378.65798950
200.35398865 262.11898804 457.22601318
153.70500183 291.77798462 421.52899170
84.97600555 269.90600586 474.76800537
122.31200409 295.98999023 470.66900635
207.13500977 268.60601807 411.30001831
163.85499573 173.59100342 427.52600098
186.15399170 217.74501038 408.01599121
85.54299927 268.46600342 519.34698486
180.25300598 302.35998535 479.82202148
79.43099976 256.44601440 544.50299072
93.82600403 274.64300537 421.60699463
222.24200439 224.95800781 408.73699951
106.79800415 130.99198914 487.76800537
120.12899780 184.99499512 511.64300537
166.11500549 280.21499634 483.83200073
129.42599487 138.34300232 424.92199707
134.82501221 146.62699890 484.39898682
102.44400024 209.13600159 542.64996338
116.60400391 192.30799866 386.17102051
205.74400330 233.72900391 442.65499878
141.34500122 238.22100830 378.84701538
65.67600250 224.21299744 469.90798950
105.67200470 152.45098877 506.84100342
72.31099701 249.74299622 473.72500610
163.89801025 165.36100769 447.79501343
127.13299561 218.44799805 507.38101196
106.59100342 287.70300293 420.14898682
101.39799500 286.60800171 472.33898926
67.90499878 222.93600464 450.46600342
145.88700867 183.88800049 491.67001343
191.02500916 231.87300110 459.25701904
119.19899750 279.15100098 394.16400146
141.64898682 266.70101929 485.19500732
148.93199158 279.99801636 400.50100708
98.95999908 166.90299988 517.37396240
232.71701050 243.76901245 425.97201538
150.81900024 160.56401062 476.63900757
102.30500031 270.20401001 498.80999756
151.14801025 156.70100403 420.80300903
110.33200073 172.33200073 399.55899048
137.16200256 167.23400879 405.25900269
83.36299896 266.70101929 450.29800415
76.25800323 160.75498962 449.28100586
165.73699951 193.16099548 402.43597412
149.27799988 300.12197876 470.01400757
233.98199463 276.45999146 421.26599121
197.15901184 205.97399902 447.08300781
194.41500854 301.42300415 469.98599243
83.39600372 262.89199829 432.83398438
216.15499878 261.69100952 442.44097900
151.32699585 207.86898804 469.58700562
70.92300415 246.91101074 494.17800903
100.56500244 266.04598999 394.84500122
126.24299622 170.72599792 495.46301270
147.60400391 234.97200012 472.14901733
174.07000732 249.15400696 470.64398193
132.72898865 133.74200439 477.51400757
91.56300354 230.59700012 549.21197510
176.72399902 235.93099976 463.67999268
162.85000610 188.46798706 431.20898438
112.40100098 241.30499268 517.60205078
122.55500031 127.32901001 450.90899658
82.39299774 243.91398621 403.44900513
92.76899719 138.50100708 459.86599731
155.41999817 197.58500671 443.73397827
67.92599487 229.91799927 534.86199951
85.59899902 164.23399353 420.56597900
63.63700485 188.76100159 502.29901123
137.09600830 298.95401001 495.43399048
77.67099762 213.47000122 404.23199463
78.95100403 257.98898315 530.18200684
190.08499146 266.42297363 408.76498413
97.76300049 197.35499573 388.78802490
230.16099548 230.15600586 422.27700806
165.85899353 247.98699951 435.58697510
159.99400330 262.02899170 448.28799438
88.68000031 235.91500854 390.36199951
69.06900024 173.57499695 511.49200439
166.79200745 231.47200012 393.01699829
89.23800659 144.88999939 504.91796875
226.43199158 279.76998901 438.48498535
189.95599365 260.36001587 466.60000610
157.60398865 188.26300049 473.84197998
180.67700195 281.99398804 411.03198242
94.14599609 138.26300049 491.33599854
198.25201416 239.39601135 405.95498657
165.03399658 212.96000671 423.60897827
197.26400757 206.47500610 417.67498779
71.92199707 208.24099731 560.09899902
149.53199768 213.18499756 456.82498169
176.45899963 254.92599487 401.81402588
208.05700684 285.74200439 459.78100586
105.69900513 179.01399231 518.38800049
192.21701050 211.30000305 460.22000122
199.97300720 221.46800232 436.35601807
109.57399750 155.28700256 412.16299438
157.64300537 228.84500122 460.56900024
86.41000366 162.59999084 527.69201660
147.57501221 297.82000732 485.92001343
146.33200073 136.63299561 460.16601562
120.42500305 254.96101379 380.97500610
64.10700226 184.16699219 487.13800049
123.78100586 299.60900879 485.41302490
178.28401184 206.60301208 442.02798462
144.61599731 265.74798584 388.89599609
63.82299805 225.64999390 514.92999268
106.08100128 136.35798645 431.84399414
107.29900360 199.25000000 534.59802246
211.09700012 296.66799927 448.07699585
249.05101013 282.92599487 432.54400635
99.90000153 284.15899658 450.08599854
75.51799774 158.40800476 490.51800537
129.72499084 218.50700378 457.88601685
73.65299988 240.55599976 434.02099609
156.73098755 205.69300842 394.16000366
63.63800049 201.06900024 525.99798584
154.22200012 147.83300781 462.79598999
85.02700043 219.01300049 392.97000122
224.56900024 265.83901978 416.21899414
195.80799866 288.68099976 473.53601074
95.27500153 275.22201538 525.38195801
133.82301331 195.50000000 507.43997192
146.70201111 295.20602417 445.44000244
121.58600616 215.76300049 521.69104004
82.88999939 187.94900513 552.72802734
90.40100098 189.59799194 397.11599731
87.01699829 207.37699890 562.64898682
138.59799194 188.46899414 393.73999023
168.12300110 294.78500366 430.16799927
143.73800659 177.73799133 401.11398315
121.73099518 147.82099915 415.20199585
204.36100769 251.22100830 408.86700439
72.20800018 221.52999878 561.24798584
95.89499664 174.98899841 403.50198364
62.01000214 202.04399109 477.53399658
110.38099670 230.95298767 526.96099854
134.36199951 130.91200256 437.21600342
134.82099915 299.42199707 467.40402222
119.66899872 199.74800110 525.30200195
75.06700134 160.13999939 463.48101807
61.47599792 209.93598938 497.73898315
158.05200195 180.53500366 408.51300049
227.89900208 209.75099182 408.30599976
135.08000183 249.54100037 378.64300537
153.73001099 147.93199158 429.81698608
70.63099670 214.88800049 431.06500244
143.41799927 225.84700012 381.11499023
88.24300385 181.07000732 540.93298340
123.12300110 295.16598511 455.31600952
164.30099487 211.55899048 436.18399048
100.97599792 188.42999268 532.82000732
68.14400482 179.29400635 526.26403809
113.09099579 144.80599976 499.94000244
225.39299011 217.79100037 418.65301514
152.67900085 246.29199219 474.24099731
168.66000366 228.63900757 471.24499512
221.82301331 288.07299805 427.08001709
66.38000488 216.65299988 538.25299072
109.32199860 247.84600830 491.19897461
156.95500183 255.56999207 390.84600830
109.34200287 236.00199890 378.59201050
157.58700562 235.83898926 450.23797607
179.24499512 211.11000061 415.99398804
240.43400574 259.67800903 425.78698730
140.41200256 294.21200562 422.61697388
70.58600616 238.35299683 445.85000610
110.26300049 128.43899536 474.35900879
98.34100342 263.41198730 523.27197266
103.73199463 256.20800781 498.40701294
177.79699707 221.78900146 399.85098267
98.12300110 242.69898987 385.25302124
145.35200500 200.04100037 390.98001099
190.63000488 194.61399841 424.25500488
124.77199554 211.29000854 381.16799927
111.44900513 279.25598145 497.35998535
66.62700653 184.44900513 460.09298706
67.66200256 236.67900085 470.39898682
156.81999207 194.72099304 419.85198975
71.54099274 191.28001404 545.78100586
94.08999634 279.06900024 500.51199341
184.92900085 299.46600342 451.05902100
152.15901184 285.22900391 486.95800781
189.52499390 293.31600952 424.77099609
187.33898926 272.53298950 470.18798828
146.02899170 134.31100464 444.52200317
67.62500000 235.15400696 522.05499268
206.07000732 282.26400757 414.16000366
104.42900085 216.79200745 380.88400269
203.81399536 214.38500977 410.08401489
145.83699036 195.80200195 494.40399170
72.46799469 241.67799377 540.84899902
166.48500061 300.69299316 466.29598999
167.63499451 268.26998901 479.08801270
179.51600647 192.17399597 420.57601929
148.59800720 257.23999023 481.36199951
157.44699097 242.93299866 388.60101318
204.35499573 300.23599243 476.68701172
101.48600006 285.02301025 485.05398560
240.91600037 229.06599426 411.01397705
94.18599701 258.33200073 533.18902588
134.83200073 216.99800110 468.51501465
106.93400574 276.75399780 397.15701294
172.61500549 289.30398560 488.91897583
80.39999390 156.11100769 516.93096924
127.20100403 286.13299561 496.34500122
150.88101196 287.89898682 409.90600586
117.08499908 181.74299622 392.42602539
186.41500854 300.21701050 491.15100098
138.88899231 214.78800964 491.74301147
78.30000305 260.25302124 475.23098755
222.06500244 244.53898621 411.18801880
81.65399933 169.73200989 535.61199951
120.57399750 129.64900208 479.68798828
244.61900330 241.91200256 415.64498901
140.88700867 218.50700378 451.09600830
101.47599792 239.88600159 531.20898438
183.18099976 244.16300964 401.26800537
72.31900024 248.97099304 455.50399780
165.63999939 272.66299438 401.94000244
224.79499817 291.83398438 438.40899658
93.28699493 205.27999878 552.91894531
84.79100037 254.60800171 409.39999390
123.84200287 270.71697998 387.76998901
128.89799500 218.94801331 478.54098511
65.39200592 230.80499268 494.16000366
136.19400024 209.59800720 383.40499878
204.52700806 274.39300537 457.26901245
127.80900574 155.50599670 488.73901367
86.70600128 263.61297607 417.81100464
84.93900299 269.00198364 491.50000000
137.67300415 133.31500244 467.21398926
136.68901062 177.13800049 492.28097534
181.22898865 297.34500122 435.29598999
86.15999603 219.21099854 562.52905273
109.32399750 131.05699158 442.17800903
164.95199585 301.10800171 490.62402344
72.29399872 246.69599915 518.06903076
160.11300659 153.96499634 452.44900513
102.34799957 255.32400513 387.74899292
198.32701111 238.93099976 452.18301392
196.36799622 249.83699036 457.67999268
239.92599487 276.09698486 431.42001343
174.35899353 217.88500977 471.05300903
120.60700226 231.55300903 488.14498901
227.41000366 252.86199951 430.92098999
65.25799561 195.66400146 460.26098633
131.40100098 242.91099548 485.35098267
125.00000000 168.83599854 399.58200073
131.43199158 286.35498047 403.76202393
156.80200195 207.74400330 449.05902100
143.30700684 152.76199341 479.63299561
138.66400146 236.87799072 479.27600098
75.37099457 222.07200623 411.03100586
166.94000244 259.22799683 397.77301025
187.65998840 220.83100891 463.93902588
143.75500488 171.34300232 485.87600708
78.93399811 259.48599243 518.51501465
72.90499878 223.60800171 424.54299927
119.64300537 175.62899780 502.93399048
224.76400757 235.05101013 430.64498901
128.88699341 292.32800293 413.72201538
111.03200531 292.07998657 472.00000000
158.11500549 149.21600342 440.92800903
129.68400574 130.31800842 460.20300293
88.06099701 172.67300415 411.54901123
219.88099670 295.38299561 460.33499146
133.24000549 296.10101318 444.86499023
107.66200256 220.33099365 535.48199463
157.49800110 242.58799744 440.61898804
168.22200012 213.53800964 460.58700562
164.17300415 170.68499756 438.24301147
160.07701111 188.46499634 454.01901245
130.63200378 157.36801147 409.53900146
93.87400055 278.82199097 473.71899414
161.18901062 211.70100403 402.09799194
177.84098816 207.24800110 452.89401245
114.92399597 295.59100342 494.93798828
72.02899933 172.71000671 448.56198120
178.43901062 194.98200989 443.07800293
204.15100098 296.16299438 439.38198853
119.59899902 253.31500244 486.89700317
111.21099854 160.57800293 502.28799438
143.97700500 161.30900574 412.15597534
170.50399780 286.69500732 414.89099121
158.11100769 166.48899841 421.71798706
109.75000000 286.42700195 409.49899292
215.37699890 236.58599854 438.70898438
119.91600037 265.68600464 490.72799683
213.49099731 219.01600647 406.67700195
125.88100433 194.60200500 515.04998779
157.13400269 268.41598511 481.39700317
115.12300110 292.99099731 432.48199463
151.20899963 196.78900146 472.37597656
64.98500061 226.90400696 480.24200439
71.92099762 202.24800110 425.23800659
113.03599548 292.88101196 448.24697876
123.91699982 209.19099426 457.04800415
112.92299652 134.16500854 495.90600586
72.72599792 175.82798767 535.25195312
153.60000610 221.17799377 385.84100342
199.64799500 261.52200317 408.78298950
134.01199341 273.13900757 489.00100708
65.66500092 203.47500610 536.10400391
214.22499084 217.68499756 421.58200073
79.57199860 262.02600098 497.35299683
133.86900330 208.43099976 506.75000000
158.83700562 171.86000061 468.99499512
144.92500305 145.24600220 424.65200806
100.80300140 283.48999023 427.90200806
100.92700195 286.56198120 460.29098511
78.78600311 185.42900085 414.78198242
214.69299316 251.32000732 443.44100952
69.81399536 195.88999939 439.81600952
191.81900024 228.30599976 402.99401855
88.83300018 143.91499329 448.56597900
217.62199402 286.08502197 452.85299683
196.02299500 230.18899536 446.95401001
123.99599457 229.16198730 377.98699951
77.31600189 172.36999512 431.75900269
175.35301208 275.24798584 478.76300049
86.12900543 153.98100281 429.77700806
84.23999786 246.68200684 550.86700439
122.38899994 147.36599731 492.11697388
237.51100159 266.48901367 418.61199951
240.03900146 249.88099670 421.29400635
207.17098999 258.01000977 450.69302368
84.50800323 269.26101685 464.50497437
90.63899994 275.87399292 450.52999878
72.90299988 197.61199951 554.84899902
200.46600342 211.40800476 438.27600098
96.85800171 140.77999878 432.53500366
188.78599548 193.92300415 439.71099854
81.79499817 194.41400146 403.48498535
117.09299469 239.47900391 507.27700806
63.39800262 210.67700195 471.61499023
133.95599365 231.40499878 377.08801270
165.25498962 296.95599365 500.48797607
144.93800354 207.35200500 488.28598022
164.26800537 175.13800049 451.45401001
67.56099701 203.07199097 450.56097412
76.54000092 250.31301880 433.75201416
67.12500000 228.24700928 459.21200562
66.24300385 179.81100464 470.79797363
73.27300262 164.92399597 514.79699707
161.90499878 176.42300415 417.97900391
98.48199463 155.76000977 416.37399292
171.22900391 302.03802490 475.15298462
98.27099609 282.67300415 438.29299927
188.08099365 293.14300537 484.08801270
106.73200226 251.08399963 517.84301758
196.25100708 298.52200317 445.71301270
146.50698853 228.02999878 452.59100342
80.18399811 244.88798523 413.26202393
171.66200256 299.64797974 455.32598877
115.84799957 292.03201294 417.84997559
193.44200134 210.88099670 408.88198853
219.71600342 270.74700928 439.93399048
114.52999878 238.22100830 492.55599976
162.79299927 252.34500122 444.09899902
84.63300323 236.36799622 553.61499023
128.41400146 188.81500244 390.47900391
146.92201233 293.90200806 430.21899414
71.86800385 233.63700867 549.89898682
97.62699890 145.67599487 510.27297974
152.78300476 140.78298950 440.65200806
69.83699799 215.45899963 553.53100586
155.97799683 297.88699341 447.89401245
106.69400024 193.14900208 386.52301025
79.27300262 152.82499695 468.69598389
169.73100281 183.94200134 425.70001221
62.28100204 214.75300598 515.49102783
100.44300079 222.09399414 542.91198730
147.42100525 219.49499512 469.28399658
157.97000122 205.53700256 420.76000977
181.49800110 255.44398499 469.15399170
146.51800537 299.58798218 460.58499146
169.05599976 256.87597656 474.23101807
182.09500122 202.79499817 420.37298584
210.85398865 290.52600098 425.13201904
69.94200134 182.64601135 448.40499878
70.97200012 248.26200867 483.27401733
161.50199890 287.39102173 489.60998535
76.04499817 242.82099915 424.85299683
90.99200439 274.60198975 511.64401245
139.34100342 211.90998840 461.55599976
146.54199219 275.54199219 486.48599243
94.41999817 272.76300049 409.71197510
78.02300262 203.53799438 405.10202026
138.69799805 228.79199219 469.83798218
98.93000031 134.65798950 483.42498779
99.69599915 156.42500305 513.36700439
88.15399933 269.71499634 427.73199463
190.41000366 302.22799683 478.76098633
80.21199799 150.78700256 479.67700195
88.26699829 254.18901062 541.27600098
151.39299011 151.86099243 472.49298096
70.58499908 167.77400208 471.98297119
174.35899353 240.51399231 396.36999512
119.46099854 138.85000610 423.56399536
158.16200256 219.34098816 459.14099121
151.65299988 187.43499756 482.85699463
65.11600494 183.04100037 511.19400024
74.74400330 182.79499817 430.00201416
162.72898865 227.86100769 446.41400146
167.80500793 233.43099976 461.16598511
116.98400116 288.62197876 501.20300293
68.17500305 238.49900818 500.08398438
81.06099701 155.46000671 440.28100586
208.87400818 298.64498901 457.18197632
204.30700684 290.02697754 467.46298218
131.73001099 215.69000244 499.46600342
146.16699219 286.14498901 479.59500122
126.07300568 223.58700562 499.41799927
91.75000000 221.90499878 386.86499023
82.70200348 264.53302002 510.04202271
130.09199524 138.17199707 486.34100342
216.42399597 272.26199341 413.76400757
195.27799988 267.54699707 463.11798096
78.19200134 235.43199158 409.81900024
77.99900055 224.40699768 568.97998047
61.32299805 201.22100830 502.27600098
247.94100952 260.86801147 420.21398926
194.79299927 288.43899536 416.72702026
110.52799988 257.15100098 383.48001099
170.94799805 277.94201660 407.62698364
167.20600891 297.40597534 439.28900146
184.75199890 259.09899902 406.31600952
224.11898804 235.59600830 409.22000122
221.74000549 254.86099243 438.17999268
77.33699799 257.80499268 451.00799561
231.97599792 227.74000549 408.50299072
146.74499512 273.85800171 393.76699829
162.88400269 248.39599609 471.89700317
105.77300262 289.32601929 492.18698120
99.48600006 284.05899048 507.58999634
73.20600128 163.67700195 499.34597778
61.35599899 206.95401001 485.87899780
133.77799988 173.26499939 398.99200439
165.63000488 179.64799500 434.37200928
184.72099304 202.30400085 458.95001221
151.46900940 258.34100342 448.47598267
62.67099762 221.62400818 492.13400269
86.91199493 198.80000305 557.77697754
105.86900330 130.79899597 466.30999756
101.37700653 206.33900452 384.18298340
90.27700043 259.36300659 399.31500244
71.82700348 246.91000366 464.97601318
158.08700562 189.42900085 462.94702148
69.99500275 203.91499329 434.71899414
65.76900482 219.20600891 460.19500732
84.55400085 228.46199036 393.80801392
190.89099121 300.95498657 461.54000854
161.03900146 289.06399536 416.76000977
238.37199402 236.85499573 420.03500366
113.91400146 221.05300903 528.84802246
147.35099792 243.47099304 383.31600952
81.46099854 151.98298645 500.85198975
161.83799744 191.47200012 410.52499390
169.86000061 222.36199951 395.36398315
155.98399353 300.53799438 488.97998047
69.68399811 219.30499268 439.57299805
65.53299713 226.72499084 526.63897705
180.26800537 202.15000916 433.29000854
136.52600098 258.54998779 484.23800659
104.91699982 167.26300049 404.84802246
78.67900085 203.64099121 568.63500977
71.55100250 165.93399048 481.29498291
140.25199890 284.48999023 402.64801025
83.49499512 265.65301514 528.41900635
118.43799591 246.40800476 378.67297363
139.61898804 188.79899597 498.61801147
67.51599884 174.77500916 487.93099976
71.08899689 166.29699707 490.56802368
230.69200134 284.01199341 424.97100830
71.98799896 246.90599060 507.03598022
89.82899475 142.03199768 484.36999512
104.05399323 163.79701233 510.53799438
92.98699951 168.18000793 525.05999756
198.95399475 271.09701538 408.47201538
101.64199829 146.10398865 422.28500366
94.87800598 236.82699585 541.17797852
117.83900452 201.23199463 383.77099609
92.77500153 159.58200073 521.26800537
74.36600494 253.70300293 498.91201782
210.07099915 266.24102783 448.64498901
232.73500061 287.31900024 440.27001953
100.07499695 272.48098755 401.97000122
113.60900116 185.43099976 518.03796387
63.85599899 199.25299072 468.29299927
204.26901245 300.65499878 467.36700439
85.48799896 145.14700317 464.29501343
208.07800293 228.29299927 436.03100586
201.27099609 294.67800903 430.98599243
163.42399597 171.90200806 460.41598511
64.12799835 230.30599976 504.62197876
229.04899597 218.38499451 406.73898315
200.62400818 210.97799683 427.52902222
164.81498718 298.90399170 447.67001343
127.77000427 188.25300598 507.24798584
100.70499420 267.97500610 509.10299683
132.37998962 292.35397339 499.88800049
157.68400574 199.08300781 399.94201660
126.14199829 226.67799377 481.79901123
123.87400055 296.08599854 434.00299072
218.91499329 294.75097656 444.46899414
225.52398682 285.96401978 445.58502197
83.83799744 263.21701050 540.97399902
96.16200256 248.17199707 533.13299561
62.97600174 194.89399719 508.58401489
62.80899811 193.42799377 479.65197754
129.42999268 145.02899170 418.41500854
73.67199707 233.38000488 427.12301636
168.27900696 291.45700073 421.91101074
156.93399048 194.65699768 435.61300659
158.81900024 278.07199097 402.73898315
129.88999939 211.63400269 463.69699097
73.51099396 231.83700562 559.98602295
122.42399597 234.55099487 479.95300293
113.09899902 178.27198792 511.17895508
113.33799744 273.06198120 392.07000732
153.87600708 215.06500244 465.40399170
81.68399811 263.15798950 441.36300659
186.00801086 289.05401611 418.04699707
221.84098816 223.22000122 424.53701782
149.20399475 210.32499695 478.03399658
108.60099792 269.19201660 491.69400024
204.44200134 233.31600952 406.16900635
157.44400024 231.99400330 440.91000366
99.21500397 201.11599731 543.28698730
75.55799866 250.24700928 533.78302002
119.10499573 167.12300110 498.79800415
119.34899902 192.24600220 520.20599365
130.64099121 294.97702026 422.02301025
211.71099854 227.47700500 406.69699097
240.40499878 267.74499512 428.87100220
79.07799530 240.51800537 559.66802979
113.05999756 282.02899170 400.17102051
116.87800598 214.66200256 380.42199707
141.69499207 216.90499878 383.57897949
162.32499695 157.43200684 442.66598511
99.31000519 280.77398682 419.05999756
189.00000000 238.07099915 403.02899170
65.53699493 180.36698914 502.23602295
74.96699524 189.44799805 422.63998413
116.15899658 128.13999939 457.41201782
135.75099182 135.63800049 430.16400146
99.99900055 133.44499207 457.98300171
189.34500122 280.33999634 473.16101074
157.13700867 205.54499817 440.76098633
69.13399506 228.79501343 444.11901855
131.40000916 128.55200195 444.90600586
226.55700684 272.12899780 434.60299683
76.76900482 165.64900208 442.27099609
160.97000122 226.61900330 389.05099487
98.59999847 283.45300293 494.71600342
67.25099945 214.48999023 449.34899902
106.92899323 241.51499939 524.85198975
123.61399841 225.94499207 509.37597656
155.22499084 236.98300171 465.01498413
216.50500488 263.46798706 413.80102539
195.17100525 219.33700562 405.11199951
117.66400146 237.67900085 378.51397705
74.98999786 251.32901001 524.64099121
192.33900452 201.72900391 452.60098267
209.15499878 221.34800720 427.86499023
184.78399658 274.95101929 408.85699463
98.49400330 214.65100098 547.71697998
89.92900085 224.39299011 555.14300537
85.41699982 149.67698669 512.13098145
112.13700104 161.40901184 406.98800659
104.56299591 183.87800598 525.14898682
141.04600525 197.23500061 501.13897705
184.61300659 207.48600769 409.73999023
185.23600769 228.57800293 465.93899536
81.45500183 257.89700317 425.98199463
185.99699402 298.58700562 442.84298706
234.03300476 281.43298340 434.45901489
156.83000183 155.65200806 427.14599609
127.71399689 300.36300659 492.70199585
160.44900513 209.91499329 414.13900757
128.27500916 213.97801208 451.07000732
113.90999603 135.73600769 428.89999390
117.93500519 174.38400269 396.92599487
153.89299011 206.49200439 459.07699585
74.18900299 204.36500549 415.39199829
136.22399902 155.36299133 485.58102417
223.92498779 275.32800293 418.50201416
180.20401001 217.40100098 465.20999146
176.16101074 228.77900696 395.73699951
157.43400574 180.20999146 471.99899292
91.15000153 201.72799683 391.07901001
82.01200104 236.86698914 398.47100830
151.97399902 262.34298706 390.39297485
71.48099518 183.65299988 540.09197998
100.84100342 134.61000061 494.45599365
166.03399658 242.71200562 442.84201050
118.57499695 296.06698608 478.00698853
190.20800781 240.06399536 459.17001343
209.29499817 260.39099121 411.29199219
168.81700134 301.52999878 483.37200928
122.87699890 220.69599915 378.65200806
81.73699951 265.62802124 484.14001465
89.60199738 238.36499023 547.27697754
133.36401367 251.12199402 485.72399902
162.22601318 165.22200012 431.13198853
126.18300629 213.90699768 515.15502930
158.32099915 188.28601074 401.59799194
157.47100830 300.41799927 469.87799072
213.34999084 248.24200439 410.64001465
128.86300659 222.43499756 469.89398193
151.04299927 177.07499695 406.10598755
93.03499603 138.58898926 474.40200806
156.27899170 260.59899902 441.15100098
86.33500671 269.77600098 443.33700562
230.70899963 246.44100952 413.29602051
233.08599854 222.91700745 415.76498413
104.92599487 280.59500122 502.08401489
194.10800171 224.33898926 458.64099121
180.19999695 291.16799927 486.54699707
158.70399475 276.20800781 483.24398804
108.05200195 289.21697998 430.98898315
91.16500092 158.31199646 419.94400024
90.23799896 142.23199463 497.28997803
91.50800323 244.38000488 389.68301392
109.13199615 206.87699890 536.75000000
128.51100159 300.33001709 477.46200562
210.00399780 240.12100220 445.29000854
142.09799194 293.26000977 492.25802612
142.15299988 301.21099854 473.74600220
63.15600204 208.85899353 523.79101562
135.36399841 222.69900513 462.30700684
196.37200928 200.29998779 423.62799072
149.69200134 167.94599915 479.77798462
111.46400452 246.93299866 511.56802368
139.63800049 258.42602539 383.83599854
225.99198914 254.55000305 413.55099487
128.29100037 164.32099915 491.01098633
148.94799805 297.64801025 452.78997803
170.76699829 239.87500000 468.02999878
76.01799774 249.18399048 545.17602539
123.36699677 207.24000549 521.86401367
85.52999878 244.62500000 396.07000732
196.89300537 201.09300232 439.65701294
93.16200256 182.53999329 399.74499512
103.42200470 132.62500000 449.54602051
132.84899902 270.35400391 388.46398926
89.40800476 274.40597534 468.21002197
134.15400696 218.32600403 484.53997803
94.71499634 186.48899841 537.40100098
173.61999512 282.90798950 483.23898315
169.61199951 189.79499817 409.71801758
154.08499146 219.04598999 452.12100220
119.66200256 282.41900635 496.94799805
81.75700378 265.44400024 458.05499268
106.36399841 252.90399170 507.33297729
86.75000000 211.27900696 392.07397461
137.55400085 143.24200439 422.37402344
62.05200195 214.90701294 504.57699585
240.19999695 289.05599976 437.05200195
95.47699738 137.34500122 452.47201538
131.42900085 281.49499512 397.46002197
122.73400116 263.90499878 383.81100464
149.62300110 229.30200195 463.56500244
105.32800293 224.85299683 381.27099609
64.20300293 193.21600342 524.95495605
82.24199677 173.43099976 417.47497559
129.02200317 163.76799011 405.13299561
68.37700653 240.11898804 490.97698975
160.99501038 255.63299561 437.11401367
77.27199554 161.59700012 521.71301270
151.93598938 163.59298706 416.83700562
106.29399872 289.39102173 450.47000122
64.81800079 183.10398865 477.84298706
173.25599670 211.49600220 438.39498901
221.17399597 213.88200378 408.40499878
223.36000061 262.62399292 436.24899292
115.71900177 130.00000000 485.89398193
66.09700012 182.81799316 519.52203369
93.43299866 140.75599670 441.86099243
104.52000427 130.97499084 479.28399658
152.69200134 198.81098938 393.88400269
106.07499695 263.12701416 388.97601318
184.63000488 301.51300049 468.24499512
161.90299988 211.90499878 454.91497803
113.73899841 128.15299988 466.07501221
179.19300842 200.83999634 448.24401855
190.72000122 194.01300049 432.11599731
115.70700073 273.91201782 493.53799438
206.62599182 242.77099609 406.73699951
146.81700134 291.93099976 417.82598877
145.08900452 171.69700623 405.89300537
69.14099884 174.15000916 519.28698730
243.61099243 255.81199646 416.13098145
155.63899231 158.76300049 470.76898193
163.28099060 238.49800110 391.26000977
123.40000153 154.62399292 410.50500488
127.02399445 251.78099060 378.31301880
159.86601257 189.65499878 445.55801392
200.41899109 218.28100586 444.60400391
240.48901367 248.39498901 413.67199707
88.46399689 272.10400391 527.45599365
129.39100647 295.84301758 463.16000366
117.04599762 129.90499878 442.97702026
194.38000488 256.43399048 461.57199097
163.50199890 226.17800903 464.90402222
80.34999847 154.49499512 451.82498169
165.80200195 292.06201172 494.50000000
170.08900452 212.96699524 429.48699951
139.63600159 203.24499512 386.21301270
63.22999954 187.36000061 494.14599609
206.31900024 214.32400513 417.41400146
139.22399902 132.63099670 458.97100830
102.11199951 237.05000305 381.13400269
113.95700073 201.37300110 530.25695801
174.02000427 225.27799988 475.67901611
154.19200134 274.60598755 397.65301514
99.26699829 178.31001282 524.86004639
113.80699921 132.07499695 435.66000366
122.96199799 283.37100220 399.36898804
114.92800140 234.07598877 519.93298340
71.38600159 188.43699646 440.80297852
128.71099854 177.64500427 497.70098877
78.20600128 222.23100281 400.38299561
154.73699951 167.69898987 473.95397949
178.86399841 300.79800415 490.00601196
136.27600098 217.97299194 476.62799072
97.28099823 283.43701172 466.25201416
147.80299377 202.87400818 476.98300171
128.19300842 268.39199829 490.47601318
113.04900360 129.18699646 450.50000000
175.47300720 294.92898560 427.93701172
65.79899597 180.10101318 493.38702393
159.93598938 208.49299622 427.92199707
107.47000122 201.80599976 383.39297485
103.63099670 175.70999146 398.15200806
67.45000458 210.35099792 543.53497314
210.44599915 281.04498291 454.26699829
158.55400085 293.27801514 430.18099976
133.16600037 301.34799194 486.92700195
143.91799927 164.03100586 482.81900024
183.55200195 251.31100464 403.82299805
148.92500305 265.54501343 483.33999634
83.36699677 256.80801392 417.43600464
138.78401184 136.89399719 474.20001221
143.13000488 211.34999084 452.21099854
189.16099548 287.57000732 477.39898682
88.11900330 273.04299927 484.25000000
71.12200165 168.58200073 506.17599487
147.89801025 235.84201050 381.79598999
142.38700867 133.23498535 437.18298340
84.34999847 149.63699341 446.48297119
105.88099670 289.51699829 465.16799927
171.57598877 263.93899536 402.55200195
134.54200745 240.70599365 376.72201538
145.27099609 191.95799255 393.49697876
105.54199982 144.99800110 505.75399780
180.55699158 243.38899231 465.51599121
85.17099762 252.53498840 402.17098999
184.13899231 234.82099915 461.89001465
88.02799988 173.68499756 535.09802246
115.02400208 247.38700867 486.27798462
155.31599426 194.24700928 452.31301880
170.61099243 214.59400940 416.27401733
115.75900269 167.64199829 401.74099731
129.69499207 237.07699585 480.96298218
181.56201172 274.12301636 474.69100952
216.46099854 286.69299316 421.96499634
72.40399933 167.77000427 454.17999268
138.26499939 180.52299500 396.83099365
218.86500549 281.55099487 447.02899170
149.51499939 176.11500549 485.62500000
83.05599976 175.11700439 540.61401367
95.44199371 279.84600830 480.95898438
149.11199951 136.71701050 450.89001465
162.16799927 160.85499573 454.48498535
95.57600403 139.69599915 501.85400391
175.99299622 219.52200317 406.73300171
157.21000671 154.59799194 463.79699707
101.93000031 256.49099731 519.68200684
127.00499725 134.26800537 430.68298340
191.84201050 197.53999329 417.50500488
117.62799835 223.32099915 522.73602295
75.26499939 186.80000305 550.40502930
88.58699799 192.78498840 550.41802979
232.69000244 257.83801270 429.29800415
64.09999847 219.37500000 475.32098389
160.98699951 249.44000244 391.92898560
158.00698853 192.78399658 427.61499023
91.43499756 163.76000977 414.93099976
101.17399597 263.12500000 500.64498901
78.60199738 191.22399902 557.87298584
74.80999756 213.14799500 411.03802490
119.59099579 233.80300903 511.28900146
154.32199097 214.15600586 387.98901367
181.07699585 197.42498779 425.50997925
93.43099976 265.53601074 531.36199951
91.05500031 147.87599182 430.05697632
131.64801025 282.47399902 491.76498413
89.28500366 274.24301147 494.26699829
159.35200500 227.50300598 452.92401123
213.78498840 291.63198853 462.57202148
119.70800018 295.12899780 463.86297607
177.16200256 301.71499634 470.66598511
105.14300537 173.17298889 513.99603271
241.55900574 276.38400269 424.28698730
198.71400452 227.13400269 440.86999512
122.66799927 216.97599792 459.08599854
202.88899231 280.83599854 461.44802856
74.06400299 254.12199402 480.16699219
139.45298767 277.95599365 488.14300537
82.58399963 162.73799133 427.06100464
195.80000305 295.29898071 479.98898315
83.16699982 182.68400574 547.66900635
238.18499756 282.01199341 427.50201416
80.91699982 265.00799561 470.34600830
124.74600220 193.81800842 386.63800049
112.16200256 152.03500366 500.15597534
106.62999725 214.19599915 539.27398682
61.80899811 194.90699768 498.68099976
162.10800171 239.04000854 436.24099731
174.53999329 297.66198730 438.13897705
233.20800781 273.34298706 431.80798340
111.73100281 242.26400757 498.25500488
68.70699310 174.60000610 466.38500977
107.28900146 148.25700378 417.82598877
79.48300171 257.05297852 434.63800049
62.48699951 209.58801270 479.21301270
146.72900391 240.79699707 476.38400269
71.00500488 242.22599792 451.96301270
79.91900635 169.37200928 425.69500732
145.23899841 295.12100220 438.34201050
69.50700378 243.72300720 476.61901855
147.88999939 249.09899902 478.89001465
97.32899475 216.93899536 384.27600098
177.69400024 229.94599915 471.04098511
97.90200043 259.52099609 393.24502563
65.16300201 210.94999695 533.98901367
111.95899963 187.78100586 389.33398438
106.44300079 270.74600220 393.19198608
194.89500427 208.84600830 453.29898071
188.53298950 284.55099487 413.02801514
184.02198792 300.53100586 458.12197876
92.25700378 275.30801392 429.65600586
105.99599457 140.77499390 426.16998291
194.23001099 245.08999634 404.20202637
150.31401062 294.51199341 491.67800903
79.47499847 152.94699097 486.48800659
94.71199799 236.40899658 385.86700439
86.30000305 156.65400696 522.29699707
119.90399933 141.41499329 495.27099609
115.97900391 152.09600830 412.72500610
125.75399780 250.10400391 488.71401978
105.17700195 160.36799622 409.64599609
136.12300110 195.75900269 388.46002197
68.89700317 235.80000305 529.08496094
100.47999573 190.76499939 389.57501221
73.08900452 253.12399292 488.09600830
95.43499756 279.60397339 444.10800171
153.31399536 182.89700317 402.61001587
145.71699524 199.78300476 488.44598389
73.50800323 215.91000366 565.48602295
139.65600586 131.08601379 444.49801636
192.74200439 260.41497803 405.97097778
149.11499023 142.80099487 467.02999878
163.02600098 182.16999817 455.63000488
83.26399994 214.74600220 567.27899170
72.99599457 244.30899048 442.75201416
137.45700073 160.87100220 409.32901001
111.59999847 177.81199646 394.68801880
174.12699890 248.92300415 398.78500366
153.34098816 142.53700256 458.13098145
154.40798950 201.13099670 450.08502197
216.47801208 296.73199463 452.71600342
227.37200928 241.69200134 430.15499878
70.11800385 208.01499939 552.52203369
167.82499695 186.13600159 436.22299194
145.34098816 184.71899414 396.85897827
94.41600037 266.74200439 401.83599854
91.60599518 139.07099915 466.81298828
184.40901184 264.27600098 471.35202026
145.31399536 156.15199280 416.79699707
128.15399170 131.23999023 467.94400024
68.66500092 196.62399292 542.18103027
90.59600067 269.48300171 417.44100952
131.54100037 295.08297729 452.46801758
152.76199341 191.90399170 477.38998413
235.68600464 229.29200745 417.07299805
186.62899780 207.87699890 462.74600220
98.57399750 194.37699890 540.20397949
151.78201294 248.67401123 386.41198730
187.36499023 223.32000732 400.97399902
120.20500183 298.57199097 491.47497559
159.69100952 213.10800171 461.88900757
201.42999268 218.13299561 430.40002441
154.66700745 283.29797363 406.27200317
204.77899170 266.28100586 453.81399536
104.10299683 284.33401489 412.99600220
229.00700378 291.81500244 444.12899780
130.70300293 296.71600342 435.20599365
69.54800415 230.97599792 541.54901123
66.38700104 203.97900391 457.35998535
66.62500000 232.99699402 476.20901489
143.37500000 300.36398315 481.00000000
65.11399841 197.76800537 532.17700195
153.66999817 253.73699951 478.17297363
234.80500793 251.62500000 425.49600220
125.62300110 203.90600586 383.77899170
62.79300308 205.25201416 517.88702393
197.96900940 212.59100342 413.83801270
102.13999939 134.83200073 437.33099365
221.29699707 212.02200317 417.59399414
211.15100098 276.73101807 413.59899902
165.46000671 175.80000305 444.67700195
84.11499786 147.53100586 484.35900879
96.56600189 282.51800537 455.95700073
65.67900085 223.11000061 532.51599121
90.48799896 187.51800537 542.75695801
230.10299683 215.25099182 414.30700684
79.84100342 189.49299622 409.32800293
112.48999786 253.78501892 486.19299316
97.08599854 135.11199951 464.01797485
115.08700562 294.21899414 441.70599365
78.91099548 164.93600464 529.74304199
97.39000702 182.33399963 530.83404541
66.70399475 186.25900269 529.67901611
77.33499908 249.18699646 552.19799805
149.97000122 299.90701294 476.84799194
173.27799988 211.21099854 445.25997925
151.87600708 200.75898743 464.51602173
98.85800171 271.98800659 520.51403809
133.54699707 264.40798950 486.18701172
67.48300171 234.38600159 463.75399780
157.19799805 243.14700317 470.17401123
204.12300110 276.52099609 411.00399780
169.22299194 217.66899109 400.29202271
241.87100220 283.55499268 433.36401367
79.35900116 154.02198792 494.68402100
142.33499146 247.57099915 381.16799927
232.04701233 236.51400757 423.86697388
201.65200806 294.46099854 474.27697754
195.06800842 217.44200134 459.47097778
136.44898987 140.90899658 481.07098389
142.87200928 216.70199585 473.51501465
156.46499634 172.49000549 414.51901245
218.11300659 232.44799805 408.59899902
135.46900940 216.76899719 380.84600830
182.68899536 266.97000122 405.91400146
221.03099060 277.03100586 442.15597534
151.78700256 231.30400085 444.60202026
148.02600098 220.61500549 449.49401855
75.22899628 255.21499634 466.88601685
76.68000031 159.13499451 455.85098267
168.72200012 221.49400330 469.98001099
136.32499695 219.97700500 456.17498779
125.27500153 181.15000916 502.36999512
147.41699219 214.11100769 463.62799072
144.40699768 289.45800781 485.20202637
221.16699219 238.42900085 435.79098511
189.18000793 195.98199463 447.37100220
129.27299500 275.94400024 391.29299927
135.03399658 293.35098267 417.19201660
203.04800415 253.50901794 453.52301025
73.49099731 197.46800232 420.77301025
200.39300537 211.69599915 420.52398682
162.78601074 185.53500366 407.53100586
149.13400269 190.05499268 488.50000000
231.93099976 262.48300171 416.02999878
106.32699585 289.05902100 479.68997192
139.28698730 295.22399902 447.61898804
189.10099792 253.51799011 464.49301147
130.95599365 128.52500916 452.38302612
156.28401184 253.69799805 448.51400757
61.64899826 215.37500000 489.98300171
131.73899841 199.89700317 512.02600098
71.97900391 208.83299255 423.68298340
118.97299957 208.95199585 526.60101318
105.86000061 275.61199951 496.96499634
151.30200195 142.14399719 434.01797485
132.07299805 172.31201172 492.13800049
206.13899231 219.77999878 405.88198853
157.30200195 196.57699585 410.40100098
122.15799713 186.55499268 390.91198730
111.80700684 292.86999512 465.42700195
77.21900177 258.07501221 503.05599976
99.75099945 172.79699707 520.38098145
107.84100342 193.01599121 530.28295898
94.87100220 279.16799927 508.75097656
160.03100586 211.57699585 395.54901123
95.84799957 221.92700195 547.70703125
137.26901245 225.79400635 378.37402344
86.68199921 230.16600037 555.62597656
75.27300262 209.93499756 567.75500488
164.20201111 301.20199585 472.49798584
129.72299194 148.44400024 488.22000122
66.02399445 233.29100037 515.90100098
183.64199829 294.46600342 427.59100342
128.12001038 234.39199829 376.13897705
244.02700806 266.14599609 421.04299927
65.74399567 233.14599609 487.90298462
86.20999908 268.07800293 436.94201660
96.98999786 251.72001648 389.19500732
75.55599976 253.32498169 518.35797119
101.27400208 276.50100708 505.78100586
106.58599854 253.81600952 491.94198608
156.95899963 148.84400940 456.86599731
172.50299072 211.75700378 452.79602051
153.91300964 213.49400330 471.88601685
166.52999878 180.30599976 420.64199829
140.33200073 218.54100037 463.56298828
84.45999908 187.95199585 403.67700195
69.59400177 178.51899719 453.53399658
71.38200378 173.86299133 528.11804199
72.30999756 167.49499512 462.39999390
208.55400085 272.30700684 452.49499512
172.36399841 301.06698608 491.01000977
207.25500488 288.37200928 420.07299805
74.45700073 200.52699280 560.65100098
85.16999817 264.45800781 425.16198730
68.73300171 232.98100281 454.39898682
192.97500610 295.72799683 429.80599976
93.10100555 230.06900024 386.58898926
75.50299835 231.06999207 566.18603516
69.14699554 240.94900513 465.48001099
73.94200134 224.32899475 418.11099243
159.38700867 248.98699951 435.85699463
131.16799927 298.59997559 498.19500732
91.23899841 198.74800110 550.93701172
204.33500671 237.83599854 447.61401367
165.06500244 233.86799622 447.50402832
146.89601135 280.59899902 475.10702515
127.26600647 129.61801147 439.47500610
154.29901123 192.91400146 468.11898804
161.54100037 236.17201233 462.46902466
159.72700500 262.20898438 393.47299194
243.11299133 235.56700134 415.68600464
110.94200134 291.08398438 423.63101196
179.33399963 209.62600708 422.33999634
91.99099731 180.41899109 535.64300537
127.51799774 131.91799927 480.96798706
140.57000732 231.90699768 475.23599243
106.37599945 210.56599426 381.69699097
113.05599976 242.76199341 378.43899536
164.90299988 267.48800659 398.07501221
124.33899689 128.27299500 457.08798218
66.39099884 212.08099365 455.65798950
122.99700165 222.25799561 514.69097900
111.33799744 284.88201904 501.74200439
161.19400024 190.41900635 421.95999146
65.15299988 189.85099792 463.35800171
68.80999756 200.63499451 444.11599731
173.40501404 212.42700195 466.12200928
151.96299744 271.91601562 483.12899780
233.33500671 213.53199768 406.52999878
94.40500641 192.60099792 391.63198853
197.73599243 301.45901489 479.47299194
104.09499359 233.81599426 532.24804688
207.36099243 294.13101196 434.14102173
175.74400330 215.20500183 412.38201904
98.10599518 278.40899658 412.80200195
198.78100586 249.34298706 405.94799805
73.16500092 162.29299927 469.27499390
182.39300537 191.86698914 438.84899902
146.47599792 147.72898865 475.16198730
147.36199951 284.33099365 405.01498413
199.76100159 244.97100830 453.91699219
102.90600586 194.14900208 535.07104492
159.66300964 189.85499573 439.12399292
76.26699829 159.69599915 512.54302979
100.48600006 285.54098511 500.50003052
80.64699554 212.08601379 398.70101929
159.63800049 282.48901367 485.89199829
153.96800232 261.97299194 481.57598877
163.12199402 167.25000000 453.88800049
112.64800262 293.16400146 502.54898071
177.30101013 261.30801392 403.77798462
134.16600037 207.11599731 460.10699463
70.18999481 211.94100952 436.74002075
94.66200256 169.29699707 408.56399536
91.48100281 147.37500000 512.32501221
116.47800446 236.71600342 486.64700317
70.59700012 223.06500244 554.27404785
65.23300171 217.24798584 466.25399780
76.49800110 158.26199341 498.53399658
148.94700623 217.18800354 384.04101562
214.90000916 243.93699646 443.78399658
96.17800140 279.89102173 431.75598145
180.36698914 299.03997803 446.42401123
85.68699646 270.40402222 457.24697876
122.70499420 291.36999512 412.48101807
82.21600342 263.95898438 522.40502930
162.05599976 291.83300781 425.05200195
169.92199707 299.75598145 497.16601562
136.84300232 211.93099976 500.08499146
74.95199585 158.53300476 484.17199707
82.81900024 263.78698730 534.71600342
143.87500000 282.52801514 486.45700073
133.36999512 256.54901123 381.05499268
127.78699493 296.08200073 428.99798584
204.33000183 297.29299927 445.63101196
183.61300659 195.23300171 416.80599976
174.08999634 282.72698975 411.46499634
86.09700012 194.09799194 398.36300659
72.08200073 234.68400574 435.85299683
147.19900513 150.54998779 422.01199341
133.08100891 185.35499573 393.39898682
107.94000244 227.33399963 531.56402588
151.17900085 226.57200623 383.54199219
180.79499817 204.05900574 427.26400757
78.22200012 250.13000488 427.24298096
74.89400482 254.26501465 457.85900879
123.77500153 198.13500977 519.87500000
163.37800598 163.23600769 440.36099243
106.69300079 133.73999023 496.94897461
77.00499725 168.09100342 436.40399170
156.96200562 207.16000366 400.87701416
115.42800140 230.71701050 378.52902222
194.25498962 283.80798340 469.82699585
97.62599945 255.43200684 528.19500732
62.94599915 191.76300049 488.29098511
134.37600708 215.57901001 451.23699951
127.94700623 149.82299805 414.58999634
139.91299438 183.71899414 494.88800049
167.23999023 211.99899292 441.74798584
168.19799805 242.18099976 436.34600830
126.83400726 288.49899292 407.50302124
179.79499817 199.26300049 454.93701172
86.53199768 269.25000000 511.70098877
139.73001099 146.59599304 480.45300293
124.87300110 174.73699951 396.17401123
77.01099396 226.41400146 406.78201294
179.08999634 204.94799805 459.87500000
161.61898804 299.71798706 496.16500854
107.12799835 281.56301880 404.96600342
128.09799194 296.73098755 441.31402588
64.17500305 205.40399170 465.97601318
201.86099243 300.24600220 461.58499146
151.46200562 269.73501587 393.39300537
134.90499878 289.66299438 494.81600952
182.10899353 296.27001953 493.41299438
177.10299683 277.12899780 408.43899536
137.30000305 241.92999268 483.49600220
101.00000000 265.76501465 514.94598389
127.15700531 259.74499512 381.74301147
114.68800354 294.88302612 487.63400269
126.69800568 217.09700012 463.85000610
222.88000488 283.04299927 420.51300049
96.30200195 241.02999878 536.79296875
136.15000916 295.96499634 428.79400635
172.12699890 232.48899841 466.10702515
73.00900269 240.60900879 546.99304199
102.67900085 286.49801636 434.42800903
61.47700119 205.52999878 491.93701172
118.23199463 208.34300232 381.13702393
83.79799652 177.37300110 412.92300415
123.47399902 228.11700439 502.79299927
97.63199615 227.61599731 542.44299316
198.69799805 284.55001831 413.87200928
210.83599854 253.91600037 410.64300537
225.24600220 228.22299194 425.90902710
105.51300049 263.25198364 492.76400757
216.40299988 290.64199829 430.21200562
102.99299622 257.39700317 504.44699097
151.79100037 300.05899048 463.80401611
96.32900238 278.32699585 517.33203125
151.03698730 229.48600769 456.53900146
66.92100525 189.28300476 455.22399902
91.24600220 144.16700745 434.99899292
200.06700134 268.41900635 459.30902100
159.34300232 207.93699646 435.49401855
75.49300385 257.10998535 492.33599854
165.34300232 278.75201416 405.16400146
80.58699799 153.42800903 507.45999146
95.54900360 187.00698853 394.90600586
112.83999634 195.64299011 527.81396484
135.95298767 202.64401245 507.13497925
90.04299927 170.20599365 530.08001709
137.71699524 280.05798340 397.49398804
162.69700623 158.59800720 448.77697754
149.44999695 205.80599976 388.58099365
69.40100098 182.81900024 534.01898193
89.67099762 212.24800110 559.97503662
191.78601074 202.67700195 412.23098755
128.55699158 266.79998779 385.85098267
127.46800232 217.29800415 381.18698120
191.03300476 299.60699463 451.78601074
197.04200745 233.63600159 404.19000244
193.93299866 234.55799866 454.55999756
168.12500000 285.50500488 486.20901489
88.82900238 226.52900696 389.64797974
210.12001038 294.94400024 440.11898804
229.20500183 272.21398926 418.69699097
123.18799591 260.27899170 491.15197754
217.30299377 290.11999512 457.79299927
212.77099609 256.89700317 445.06500244
190.09899902 205.69099426 458.21197510
67.85400391 178.36700439 460.33001709
143.88600159 278.79299927 397.27301025
141.59899902 255.22100830 483.54501343
105.95800018 230.88299561 380.54699707
70.60199738 208.06199646 430.28500366
143.38499451 300.13400269 465.78799438
168.62200928 275.34802246 481.14801025
136.77799988 168.88099670 488.81799316
141.03298950 299.02700806 490.61798096
87.10300446 260.59402466 410.42300415
84.47299957 201.88101196 563.27496338
118.65200043 294.60998535 503.86297607
206.19499207 298.23101807 451.34500122
109.17299652 140.49400330 501.68197632
163.42700195 181.61399841 412.13400269
162.54200745 264.95297241 479.02499390
71.84100342 228.98300171 554.88201904
193.07400513 272.61297607 408.71200562
84.30699921 224.99400330 562.75305176
182.38999939 213.45600891 411.35800171
175.79301453 255.44398499 471.23501587
70.68900299 241.62500000 523.59698486
78.08499908 155.66400146 460.70098877
125.00399017 130.13600159 475.57101440
98.05500031 144.24499512 426.80999756
116.52400208 294.64300537 472.25201416
211.70300293 282.61599731 416.37500000
90.95300293 261.26699829 537.39398193
117.16799927 294.85000610 452.21701050
89.91400146 274.68298340 500.38702393
182.71499634 219.77700806 470.17800903
154.56900024 181.76699829 478.06500244
214.96200562 298.01101685 462.66799927
145.68499756 289.92098999 412.23898315
72.21700287 216.83399963 425.56802368
234.41099548 222.04899597 408.51300049
142.90599060 132.66099548 452.27700806
115.95700073 146.93998718 416.72900391
121.01399994 133.85499573 431.19000244
95.81500244 203.16000366 547.82202148
195.17900085 228.11900330 454.07299805
122.87600708 211.23300171 462.61901855
146.18299866 206.43399048 481.55798340
198.89799500 205.26499939 425.90100098
178.24800110 207.67300415 434.53298950
160.45500183 232.60499573 388.90399170
168.54299927 263.15399170 476.07498169
87.05599976 158.16999817 424.32098389
155.40798950 288.71301270 413.76000977
188.26000977 213.83399963 463.94900513
139.23999023 139.51200867 426.75799561
238.58801270 242.69999695 421.36199951
228.51799011 288.94998169 430.29498291
96.75099945 279.18600464 425.84298706
89.20399475 216.54400635 389.47299194
75.33699799 177.88800049 433.36099243
157.42500305 150.13999939 433.95700073
123.21800232 131.20600891 485.04702759
160.81500244 299.97302246 464.57400513
103.00199890 247.97099304 383.69100952
96.71299744 209.56199646 550.57800293
110.89199829 289.16299438 414.67098999
194.51699829 292.05899048 421.77600098
197.21800232 256.49801636 406.70498657
90.70600128 177.64799500 404.67102051
63.50600052 221.13000488 485.50299072
182.30599976 220.49299622 403.49099731
230.13400269 235.02400208 410.52200317
130.33500671 213.11299133 505.85198975
152.71699524 238.32899475 384.20098877
156.00498962 192.77900696 398.49600220
63.12099838 198.37799072 520.73999023
139.99000549 154.96200562 414.47698975
107.76399994 247.71000671 496.91299438
162.69500732 231.86099243 458.57400513
89.55500031 272.81600952 519.09100342
137.33898926 295.85900879 500.47802734
67.52799988 219.30900574 543.41699219
168.13600159 215.76899719 468.60299683
146.60600281 258.41299438 386.50598145
123.75199890 160.72399902 492.21200562
74.82099915 252.61500549 449.71697998
117.70600128 260.82299805 383.44897461
198.45500183 224.81199646 446.72500610
118.94799805 233.25900269 493.54898071
109.46199799 220.71499634 380.46801758
88.71299744 197.12500000 394.02401733
113.14799500 266.24899292 489.35000610
238.12100220 234.97700500 411.06900024
128.14700317 224.49600220 475.37500000
212.56500244 213.77900696 409.72201538
90.13700104 205.71800232 557.92602539
106.14400482 285.79598999 506.34701538
191.25700378 296.59201050 487.66000366
120.99199677 181.45799255 507.00903320
103.92200470 154.03500366 414.91000366
115.53399658 260.13500977 488.69299316
126.19799042 290.88299561 499.66799927
178.68701172 300.03399658 455.69799805
133.49301147 153.60101318 413.02401733
80.15000153 245.31100464 556.45104980
140.07699585 252.96199036 381.73699951
84.10400391 254.25898743 547.29901123
106.07700348 188.36100769 389.85101318
236.00900269 263.91000366 428.31600952
173.92599487 302.20498657 480.34600830
108.24600220 245.80599976 519.86804199
142.29499817 209.64500427 494.76300049
128.02700806 296.24600220 447.93701172
130.21501160 217.56900024 472.84600830
75.76200104 236.53199768 562.65197754
115.86900330 251.29399109 381.04501343
143.61099243 296.17599487 454.68499756
89.78900146 142.15299988 491.15899658
86.04299927 146.22799683 498.04199219
127.62899780 141.93400574 490.06997681
132.06399536 168.13400269 402.55697632
142.12800598 178.22000122 490.45199585
166.03500366 214.90701294 404.44500732
179.03900146 286.11300659 414.82202148
175.06399536 213.09500122 420.40600586
169.38999939 245.52301025 468.44000244
162.18000793 254.90298462 393.57098389
152.71400452 293.27899170 430.14199829
114.60500336 167.27299500 502.49499512
210.93699646 232.84800720 439.20098877
118.89400482 267.40597534 386.43499756
70.70100403 238.41899109 536.36096191
141.22200012 272.69900513 392.34399414
62.85099792 198.43199158 513.20202637
84.31000519 166.40600586 531.55999756
164.56599426 187.85501099 441.74502563
133.46299744 290.41101074 410.69201660
139.62001038 216.54200745 485.36398315
214.84201050 221.87100220 426.81198120
132.73699951 300.91699219 473.52700806
120.81400299 247.04800415 486.16000366
161.54800415 168.00999451 464.28701782
102.83399963 287.27099609 454.61199951
184.19200134 250.97099304 466.23297119
116.70600128 151.22698975 495.76898193
63.01300049 225.24699402 507.22097778
71.59200287 177.47500610 445.29400635
68.18299866 174.79899597 472.95599365
75.38399506 169.22799683 531.68798828
198.29598999 296.59399414 436.25500488
150.49800110 294.68200684 435.96899414
204.53999329 258.45199585 408.43399048
93.33399963 211.14199829 555.31402588
144.53401184 231.31401062 379.59301758
98.77600098 283.17300415 477.60400391
161.24800110 241.98399353 446.00497437
73.88799286 162.87001038 507.08197021
122.45199585 235.67999268 375.97201538
165.91400146 299.18798828 455.68499756
181.17498779 197.24400330 411.97500610
225.36100769 246.72799683 432.13497925
214.08000183 268.20300293 444.99002075
98.10599518 180.78199768 397.35299683
111.71600342 129.39199829 481.79598999
132.70300293 226.72801208 469.85800171
82.71200562 265.58700562 500.89700317
222.33999634 261.31900024 413.44400024
194.83700562 200.13299561 444.94198608
200.70500183 233.49900818 446.52899170
94.15000153 137.82800293 483.81799316
96.38899994 202.78599548 387.50698853
151.16000366 257.99798584 440.94400024
71.01599884 222.94799805 432.35202026
158.38800049 208.35800171 408.03201294
134.94500732 296.64199829 461.95401001
117.94200134 284.83001709 401.73400879
78.34400177 258.13101196 445.36999512
152.82699585 151.62500000 425.52398682
152.66099548 299.52697754 456.73400879
141.01199341 223.02000427 454.89498901
229.77900696 277.29299927 434.55401611
68.56299591 239.33500671 515.13000488
78.62299347 245.50799561 418.73400879
97.18299866 160.32501221 517.69396973
80.90799713 264.77499390 477.57699585
219.14599609 249.45500183 410.96499634
99.72599792 169.55200195 405.57598877
240.24499512 222.38999939 412.99301147
154.53300476 280.06298828 483.86898804
172.22200012 187.38000488 421.87698364
92.36700439 252.59500122 537.63098145
83.38999939 249.42900085 407.44702148
110.74499512 291.49801636 436.81500244
99.55599976 150.69100952 419.60299683
103.64399719 202.87600708 540.14599609
81.39599609 149.24099731 474.31298828
62.43999863 196.96499634 474.97698975
211.27299500 225.23200989 432.43798828
172.60600281 293.61199951 494.37698364
78.83699799 160.70700073 440.32800293
130.23599243 209.12901306 453.33200073
108.31700134 241.18598938 381.17401123
169.83898926 236.26199341 393.44000244
178.89300537 192.32699585 427.87799072
122.80899811 154.88099670 491.37698364
80.47200012 241.56700134 408.65399170
151.61499023 254.20999146 387.69500732
71.96099854 214.32099915 560.25500488
76.90000153 184.12100220 422.25799561
197.78099060 294.00698853 426.55599976
73.99600220 167.59001160 447.10000610
121.41600037 189.40899658 514.96795654
141.77799988 210.24200439 384.16900635
88.36399841 142.96400452 459.91998291
128.42799377 295.10900879 457.31900024
141.61099243 165.40600586 408.25399780
150.87799072 181.90200806 483.76000977
76.44400024 191.04899597 414.62200928
120.40799713 128.40199280 461.14999390
87.21199799 205.47799683 392.62701416
134.67800903 181.05999756 496.75900269
71.73200226 190.52299500 435.28399658
68.55500031 216.12300110 444.10397339
72.34100342 163.60198975 475.35397339
219.99600220 230.93800354 432.66000366
70.76899719 243.43800354 459.73797607
72.74299622 184.75500488 436.75198364
184.61799622 302.15600586 473.84701538
182.80200195 205.54100037 414.70999146
245.59800720 248.66500854 416.03298950
208.95700073 299.80902100 464.36199951
116.28700256 128.81700134 476.13201904
158.35299683 250.47201538 474.50900269
162.23100281 186.19200134 460.94998169
162.11700439 301.35598755 485.44897461
185.25999451 192.97799683 424.57800293
118.14499664 295.01797485 457.92498779
123.26300049 276.17999268 391.66098022
219.69200134 238.80200195 410.52801514
199.78100586 286.81600952 468.35101318
220.76199341 218.86500549 405.83999634
154.93099976 297.81402588 495.21600342
173.70599365 270.22601318 476.86300659
70.63599396 196.32099915 434.27801514
112.40299988 285.65200806 404.40802002
136.87100220 264.84799194 386.14801025
100.29800415 223.00900269 382.93099976
200.44900513 274.64898682 461.10900879
115.12000275 138.82299805 498.12200928
159.99800110 186.64500427 467.42199707
73.82199860 251.90699768 504.55499268
70.60199738 245.65798950 488.72799683
67.36899567 175.07499695 502.33602905
173.44599915 261.36300659 474.00900269
219.89401245 291.33798218 435.74700928
156.14099121 199.94599915 437.26098633
224.26800537 209.78100586 413.41500854
239.57200623 259.09997559 418.17098999
131.36999512 211.88099670 381.75100708
74.22299957 173.11599731 440.31799316
106.01599884 251.05598450 502.07501221
94.79299927 268.63598633 526.92297363
85.12300110 148.35000610 503.41302490
162.30101013 270.33599854 480.51101685
156.80400085 288.64498901 492.57202148
77.02899933 257.45700073 513.67803955
203.28298950 223.27200317 431.51501465
91.52500153 275.65399170 444.53201294
182.06800842 225.26499939 399.00100708
158.20300293 160.77000427 425.42700195
86.87700653 257.65499878 403.54202271
156.56399536 237.60899353 442.91497803
179.26199341 236.45498657 397.85800171
140.38800049 141.46299744 477.18701172
135.35400391 232.85800171 477.32998657
61.51300049 200.71899414 496.74298096
168.88700867 241.73599243 393.53298950
227.36898804 222.86100769 419.75900269
124.94199371 225.78500366 491.48800659
96.77100372 137.60499573 496.75500488
179.06098938 280.52499390 478.71899414
82.69499969 220.39700317 566.69702148
179.97700500 260.37899780 471.17498779
122.99499512 215.60501099 451.54101562
95.31900024 262.36798096 397.24099731
76.16500092 230.18400574 413.84197998
195.12699890 197.54699707 433.65298462
171.07499695 300.73498535 463.19198608
75.89100647 174.91300964 539.70495605
129.64299011 245.05000305 376.66799927
62.03100204 201.08898926 482.98599243
76.63800049 219.65399170 405.02200317
170.28500366 186.57800293 431.28698730
81.23300171 217.97000122 396.85800171
205.99800110 228.01100159 406.32501221
115.26600647 174.27299500 506.02902222
145.24699402 159.31799316 480.25399780
104.00900269 131.19700623 473.78701782
229.44700623 247.48001099 428.49298096
107.47899628 157.56001282 505.76699829
71.59899902 169.21800232 519.63696289
63.35499954 215.68099976 520.92395020
63.89699936 188.63800049 511.61199951
123.54899597 141.04800415 420.57699585
164.06999207 180.89500427 450.36398315
198.06900024 214.96400452 450.86300659
113.44700623 243.99299622 507.34399414
143.91699219 230.55200195 469.74301147
142.17401123 135.21499634 464.67599487
77.77999878 198.45800781 407.20498657
94.38700104 142.64099121 506.34701538
166.53999329 179.65699768 427.01000977
171.31799316 270.82501221 404.37200928
115.38100433 161.88900757 498.95401001
191.07400513 276.96600342 469.18402100
150.68901062 295.28100586 441.66101074
159.70700073 171.46200562 420.01599121
96.54500580 281.11898804 487.31399536
66.14899445 225.54400635 464.60598755
216.90699768 223.69599915 408.61099243
156.47299194 200.26199341 420.77401733
104.28600311 277.84899902 402.10699463
125.89900208 280.43499756 493.63000488
66.09600067 178.53700256 481.25698853
113.11199951 241.78099060 488.64300537
158.37701416 200.48399353 394.53698730
161.68299866 211.14900208 419.32897949
143.19999695 210.35600281 457.59500122
231.24699402 291.05599976 435.82498169
105.63700104 288.58599854 485.27600098
62.13899994 218.74499512 511.74996948
243.95300293 272.57400513 428.35101318
66.45400238 229.62699890 470.05999756
97.45500183 137.63398743 437.67199707
215.89900208 242.52099609 409.22998047
129.07899475 226.57299805 378.73300171
148.43099976 292.73797607 422.98599243
62.92300034 203.16299438 472.26699829
169.32000732 251.50299072 471.95300293
115.93000031 293.24099731 424.13900757
181.77500916 194.47801208 447.36700439
151.92799377 300.48001099 483.98797607
162.64100647 212.27699280 409.74398804
83.60599518 194.47200012 557.89001465
77.14199829 252.72798157 538.36499023
75.90000153 157.10099792 467.92199707
62.07500076 218.20999146 497.72998047
165.69200134 189.13499451 415.19497681
89.00299835 271.44500732 433.70397949
67.25399780 209.20098877 448.08200073
133.88699341 204.76600647 384.34402466
157.70399475 148.18600464 447.85897827
107.74199677 252.17700195 512.53997803
158.01200867 196.73899841 404.83401489
238.48699951 252.68098450 416.34399414
102.26999664 198.96499634 386.21801758
110.11100006 165.16400146 504.98199463
71.32399750 236.96200562 543.28796387
163.88499451 187.69499207 448.63800049
81.15799713 208.39401245 569.45599365
205.41099548 263.74200439 409.24398804
67.94799805 197.68600464 451.05099487
136.55300903 190.79199219 502.62100220
154.80500793 176.15100098 409.89801025
121.54400635 128.19400024 445.46801758
203.08099365 226.78401184 437.48199463
129.98400879 298.08300781 469.43798828
76.12799835 238.21400452 419.87298584
159.12400818 192.64900208 415.05700684
100.81499481 142.45800781 506.43896484
220.84201050 270.04501343 415.96200562
144.17700195 190.42601013 496.20101929
93.98699951 246.52000427 537.80200195
80.87799835 151.18600464 461.88299561
143.74198914 213.04299927 485.25302124
64.26300049 222.69799805 523.26800537
198.47999573 276.04602051 410.57800293
101.50399780 216.81300354 543.26397705
209.28199768 291.88299561 465.53298950
190.19499207 219.07200623 403.04699707
152.18600464 148.20599365 467.77700806
239.87300110 241.97499084 413.08599854
69.97699738 191.88299561 444.70300293
151.66300964 241.42601013 472.15399170
84.67499542 152.86601257 517.39697266
119.78199768 161.80000305 495.68399048
133.86000061 132.69799805 470.96197510
189.95698547 225.46499634 462.46401978
122.90499878 136.09500122 426.64199829
126.12399292 242.73500061 484.35800171
100.46300507 150.21101379 510.74700928
114.13600159 228.91799927 523.70898438
111.38999939 150.35900879 415.07299805
77.56199646 259.93200684 481.52099609
160.21899414 246.68499756 443.63000488
103.54799652 272.44799805 397.37500000
133.89199829 215.56800842 463.43402100
206.45999146 296.76397705 473.19601440
116.79100037 214.04800415 527.73101807
143.92399597 200.24299622 496.70300293
108.72899628 183.11401367 520.00396729
101.29100037 244.58500671 528.66204834
67.47700500 202.24900818 542.08300781
153.74000549 209.33200073 463.60498047
144.71499634 262.30200195 483.92700195
194.34500122 244.97898865 456.73999023
89.06999969 274.79498291 460.63000488
115.08599854 239.91499329 501.68402100
165.94499207 248.58200073 441.99600220
149.01499939 137.80799866 438.31500244
179.55000305 248.04100037 467.93301392
106.21300507 179.52699280 395.45898438
131.12100220 193.90699768 388.58200073
87.17299652 243.65399170 547.59899902
117.96399689 296.36801147 483.70098877
228.13899231 257.91601562 432.44601440
124.38599396 293.41302490 417.10699463
81.01099396 223.43099976 396.01498413
111.35199738 237.88800049 521.55297852
146.01400757 269.99301147 483.68399048
226.68200684 241.89799500 411.08398438
147.31300354 281.21298218 481.22500610
80.45300293 263.21499634 453.06500244
225.13999939 230.40600586 408.67999268
69.32699585 240.81500244 505.46496582
103.31500244 171.97399902 401.91799927
172.21600342 296.31900024 433.18301392
140.05999756 218.58399963 469.42498779
152.06300354 139.36700439 445.71701050
108.47000122 130.58599854 448.20898438
143.41300964 243.39500427 479.71600342
131.20700073 220.71998596 464.94400024
64.13999939 211.18099976 528.78796387
195.08300781 261.65399170 462.20401001
90.14900208 218.03500366 558.09197998
118.69899750 213.66700745 457.91400146
85.86000061 145.89700317 452.47799683
66.68700409 218.71699524 453.42999268
96.27799988 173.94799805 525.18701172
78.94699860 261.89602661 492.09500122
165.03100586 224.41799927 391.64199829
210.72900391 233.23200989 408.04101562
73.72100067 235.31800842 556.00799561
157.56500244 222.78199768 450.73699951
91.46299744 276.40301514 481.90298462
158.76600647 166.13101196 468.37298584
101.63999939 133.50799561 489.34600830
108.41699982 236.52299500 525.75805664
69.00899506 242.35400391 496.05200195
157.40699768 204.63800049 415.58300781
61.28799820 212.89601135 509.40298462
157.09899902 210.15499878 457.02902222
212.54100037 213.81600952 418.41302490
154.21099854 232.30000305 462.60000610
160.25000000 298.05999756 444.80197144
67.89299774 226.77400208 454.08599854
120.16799927 196.38299561 386.10900879
199.07000732 209.08200073 443.27499390
179.22900391 195.66999817 437.02200317
67.16200256 178.89599609 516.16699219
140.55400085 171.96699524 403.22399902
66.63800049 179.64099121 465.29498291
163.85099792 211.64199829 430.93899536
79.70400238 253.49798584 550.32702637
204.74099731 292.71099854 427.55300903
141.00399780 295.71801758 430.83999634
109.13100433 147.86100769 503.19201660
140.66900635 135.95100403 431.97698975
234.67999268 271.30999756 420.53100586
169.94799805 214.15499878 422.20397949
103.38799286 242.79800415 382.89999390
131.23999023 277.07498169 491.08599854
189.08900452 244.13500977 403.77700806
64.68199921 182.99099731 497.77600098
77.83300018 259.41299438 468.64398193
105.42800140 287.09301758 426.97799683
137.79100037 150.90400696 483.32400513
127.97799683 219.27900696 502.28201294
154.76000977 205.69000244 453.97799683
212.36700439 268.67700195 411.32299805
131.24800110 160.67900085 488.69601440
86.71299744 271.24200439 448.34399414
243.19900513 256.58099365 422.61099243
130.80699158 217.27499390 491.12799072
162.67900085 231.66600037 439.39099121
138.90800476 160.07000732 484.30401611
201.52301025 217.25399780 406.36798096
108.79799652 132.50100708 437.18902588
177.46398926 214.31399536 468.80599976
73.42199707 193.94099426 424.80001831
164.38899231 295.52297974 435.31997681
208.97500610 249.88900757 447.48101807
101.26599884 263.20898438 507.05700684
177.93899536 206.96299744 447.22000122
174.29000854 289.70101929 418.34899902
92.54299927 278.45098877 454.64398193
66.24700165 184.53800964 524.43896484
64.90500641 228.45600891 485.79400635
98.23400116 233.59201050 538.85296631
72.00099945 198.16899109 428.47399902
220.62399292 216.70300293 420.43600464
73.58399963 245.54400635 534.81500244
155.49301147 168.08099365 417.51599121
138.30000305 243.76901245 378.59799194
137.82699585 221.37600708 381.33099365
149.94500732 254.80499268 444.98599243
125.93600464 281.25100708 395.67398071
117.01699829 236.28999329 515.72296143
122.83899689 296.49600220 447.97900391
148.43800354 228.74299622 447.63500977
64.54999542 184.59700012 505.25701904
117.98399353 132.36999512 490.67102051
66.79900360 221.81098938 538.54400635
159.55300903 220.89500427 388.92700195
82.97300720 178.48199463 544.55297852
155.15998840 227.48300171 443.06201172
140.69400024 193.00399780 391.30999756
100.32600403 159.90200806 412.24899292
245.78300476 286.58801270 434.87997437
143.75799561 236.57299805 476.71899414
112.86900330 292.91900635 476.76000977
149.69099426 140.43901062 462.46701050
139.69099426 296.31997681 439.56301880
195.48899841 264.58697510 408.78601074
156.09100342 144.06999207 442.87402344
95.14799500 160.17100525 414.93402100
82.15100098 157.83799744 434.02798462
142.59700012 151.25801086 418.54199219
86.71700287 144.34201050 479.12100220
118.87699890 297.50399780 497.63699341
75.52400208 208.71899414 408.50399780
174.66300964 300.59701538 459.50000000
163.36399841 275.33099365 481.16601562
79.58699799 260.55801392 509.04296875
79.68799591 166.25199890 430.36499023
74.55699921 247.19000244 438.78900146
193.60000610 271.84799194 465.38000488
164.60099792 170.42700195 447.27999878
76.27799988 245.81498718 429.24401855
156.58601379 248.45199585 440.13101196
187.04600525 212.54299927 409.39700317
90.60700226 163.10000610 524.78302002
72.51599884 204.80300903 420.22201538
156.00399780 254.40400696 436.64602661
186.79299927 229.93800354 401.25302124
70.19699860 232.38299561 440.62100220
85.78900146 270.76797485 480.29699707
226.30499268 247.84899902 411.09600830
78.01399994 174.12300110 425.60198975
70.45699310 201.21600342 551.20599365
64.96500397 184.94099426 464.90600586
154.63400269 216.36900330 456.44500732
123.35199738 245.01599121 378.40899658
73.59500122 222.43499756 566.08599854
178.72599792 242.53100586 399.36102295
203.35499573 238.90000916 406.05999756
186.45599365 192.54800415 429.52902222
70.42499542 173.49700928 453.99099731
142.40499878 286.77200317 406.67999268
80.35299683 204.37699890 400.61599731
193.82501221 196.95800781 438.55398560
160.34700012 159.56401062 459.07199097
167.91799927 251.69100952 396.59399414
135.38200378 191.45199585 391.08300781
106.93299866 188.57600403 527.68200684
82.46199799 240.77198792 554.98199463
148.38800049 156.09799194 476.98797607
106.77199554 290.06799316 458.28802490
115.40699768 289.83200073 412.40701294
79.50099945 254.57501221 429.36502075
147.20700073 142.55300903 428.31500244
73.10900116 248.59500122 511.69799805
92.31700134 173.64900208 407.35302734
128.59700012 210.53401184 512.23199463
64.13899994 226.79400635 497.00201416
203.55400085 299.28900146 456.71499634
120.37599945 277.17199707 495.34100342
71.74099731 195.52799988 550.37896729
128.17401123 300.86401367 487.63702393
239.48399353 272.67398071 421.37100220
121.32699585 220.06399536 519.03198242
189.43899536 269.09100342 467.13000488
80.82299805 160.32699585 525.07800293
69.66000366 243.46099854 482.40597534
155.30101013 262.54699707 446.49499512
63.59700012 188.63999939 481.04199219
109.09300232 131.47500610 492.23101807
69.25000000 224.28900146 440.15802002
133.29200745 180.69200134 396.05902100
186.21798706 289.50000000 481.15600586
160.73800659 256.81900024 445.13198853
107.40700531 253.21099854 383.65701294
149.81199646 138.54299927 457.07800293
226.51701355 214.09599304 406.04800415
179.52500916 249.60400391 401.34500122
196.99800110 300.39700317 460.16897583
222.65000916 292.26101685 455.14602661
68.96299744 192.04299927 539.01000977
224.07199097 281.66897583 442.49200439
74.50500488 239.20700073 427.98297119
72.68299866 228.61000061 428.34298706
110.80099487 291.86300659 442.83999634
185.49099731 280.42199707 476.37500000
199.86799622 282.82699585 465.30700684
72.17200470 249.29598999 499.86700439
115.39600372 156.15899658 409.84600830
242.21899414 245.63800049 419.54299927
223.53399658 250.45100403 434.94998169
70.54500580 243.68299866 513.61901855
151.49900818 234.56799316 467.33901978
229.45100403 222.93199158 408.79299927
91.23600006 268.38699341 409.90002441
127.06999207 263.67398071 489.26699829
111.60899353 192.31399536 386.09701538
81.88700104 231.93800354 397.66897583
229.65499878 283.55899048 438.91799927
126.11100006 134.43499756 487.52401733
138.39300537 251.42198181 483.94299316
74.00000000 251.94999695 463.32601929
110.82399750 128.95298767 460.62899780
110.07600403 168.32899475 402.50997925
165.67399597 214.15100098 415.81500244
242.63699341 280.61102295 429.23098755
185.94200134 301.38400269 486.33599854
125.36099243 231.56100464 477.27099609
191.07099915 246.63000488 460.10000610
122.80700684 287.12298584 498.45098877
150.18400574 172.27200317 482.17898560
175.54100037 301.58297729 486.39398193
66.56099701 236.00700378 493.09799194
139.11000061 292.49600220 496.15298462
135.95899963 287.46398926 405.48199463
116.41699982 163.21598816 405.22998047
192.43299866 214.03900146 405.18399048
65.16699982 218.18399048 532.16900635
216.20599365 273.16497803 444.53900146
202.44300842 258.71701050 454.27600098
73.44000244 218.05400085 418.73800659
212.13800049 285.39401245 456.97900391
132.96299744 141.36199951 422.45098877
175.84700012 286.81799316 485.32800293
188.81199646 277.82501221 408.50799561
65.08599854 228.69999695 518.62799072
147.01100159 216.20700073 451.52099609
111.77399445 216.35000610 532.44696045
68.91299438 203.55599976 439.54199219
76.33999634 179.37300110 426.77200317
127.37299347 199.99099731 517.01995850
123.84200287 173.64099121 498.66500854
174.94699097 245.03498840 468.04400635
140.77099609 202.37899780 502.07901001
