ply
format ascii 1.0
element vertex 512
property float x
property float y
property float z
end_header
134.35122681 133.36451721 434.15039062
141.17111206 133.39370728 432.15530396
136.68261719 133.63429260 427.43988037
128.05409241 135.68434143 430.41897583
141.70176697 134.34167480 437.12265015
136.61380005 133.76077271 441.84051514
125.45226288 134.15750122 437.95880127
129.71818542 132.07232666 443.17422485
142.86720276 133.39204407 425.96588135
146.09541321 134.73864746 432.03713989
122.99636841 136.55694580 430.46499634
136.44725037 134.68318176 421.20678711
145.17961121 138.83435059 439.92138672
132.82223511 134.06546021 448.07485962
140.00968933 140.75965881 445.89651489
148.47872925 138.61482239 436.18075562
124.43136597 133.12385559 445.92303467
148.14317322 135.16671753 425.96432495
124.20069885 137.84152222 421.48303223
118.59617615 135.91662598 440.21081543
118.22137451 138.24354553 431.40353394
143.33619690 135.35450745 419.56091309
130.75363159 137.11573792 417.38714600
135.20898438 141.79614258 449.87545776
143.47669983 145.49229431 443.89941406
129.26472473 133.76538086 451.56875610
137.27961731 137.66441345 414.93664551
124.04795074 133.65629578 451.68402100
152.48254395 143.43537903 435.76773071
130.58963013 143.25657654 452.40615845
154.67898560 140.92591858 430.55035400
139.26118469 150.88653564 446.56359863
115.86203003 135.89450073 445.86718750
149.91801453 148.00463867 439.78060913
127.52169037 137.93251038 454.78479004
153.64459229 138.11006165 424.01153564
112.95742035 139.84941101 437.33789062
115.06732178 140.99465942 424.96490479
119.17765045 134.73582458 451.02508545
134.39265442 150.35922241 449.32275391
128.73960876 140.10217285 412.99658203
117.40726471 141.33540344 418.78768921
129.12559509 148.56687927 452.40380859
147.00559998 152.74180603 442.09823608
150.53622437 138.53471375 416.30184937
122.49361420 140.83651733 413.35806274
135.39599609 140.72003174 409.85519409
141.15574646 140.33718872 410.45416260
157.42800903 145.65248108 432.37780762
142.30648804 156.66078186 444.62930298
123.55771637 145.75585938 455.90704346
129.45779419 154.10023499 451.96881104
121.14536285 140.81973267 457.43624878
118.01757050 136.80081177 456.72235107
134.31951904 157.49046326 448.77227783
107.88800812 142.81378174 438.08633423
108.16487885 144.52108765 431.72518921
108.54533386 141.02827454 443.78488159
160.36318970 143.73202515 428.02252197
154.60150146 153.48880005 438.01403809
128.92626953 143.86700439 407.78155518
109.35829926 144.96163940 424.76541138
148.22198486 141.84963989 409.75903320
138.98199463 143.06269836 406.36044312
111.90235138 138.19879150 453.39215088
158.50718689 141.30656433 417.41195679
155.35716248 141.85305786 412.84365845
123.61153412 154.12239075 455.03509521
116.17466736 144.57843018 411.14611816
112.42393494 145.41227722 414.89819336
133.47807312 145.11968994 404.67773438
117.81149292 145.60238647 458.60430908
145.58724976 162.30632019 443.07708740
150.41229248 160.98547363 440.35498047
162.70013428 149.41615295 430.80856323
127.10680389 159.98260498 452.35641479
103.94332886 147.08863831 436.24673462
121.33516693 145.89524841 406.00369263
132.98263550 163.09034729 449.43005371
103.62686920 145.74465942 441.18048096
118.66079712 151.43537903 458.36376953
164.71824646 146.52432251 426.04492188
162.04151917 153.49029541 434.15426636
105.01761627 148.08692932 424.27420044
139.56138611 165.06887817 446.77877808
111.69386292 140.32189941 459.38223267
105.79824829 142.74031067 451.81896973
153.80332947 144.63739014 407.42544556
127.97510529 147.60864258 401.99075317
161.99235535 144.05767822 413.85339355
160.51895142 158.11387634 435.95648193
107.26292419 148.73722839 415.91864014
120.15897369 157.25903320 457.20504761
112.51028442 148.31747437 409.20672607
165.85333252 145.46560669 420.55117798
101.76373291 149.66929626 432.31277466
146.14019775 147.38655090 401.98141479
167.41493225 150.55433655 428.14685059
122.40876770 162.86119080 455.33563232
136.01969910 149.34190369 399.36526489
147.12493896 168.37797546 443.07681274
158.97102356 162.71786499 438.00799561
100.12341309 150.79216003 437.41885376
132.00880432 168.23211670 450.45098877
108.37851715 151.04602051 411.05551147
101.45279694 151.22746277 422.44003296
123.71250916 150.74374390 400.38244629
110.54368591 147.45402527 462.36999512
161.96823120 146.86282349 409.30175781
100.82003021 147.04048157 450.09869385
155.14311218 166.71414185 440.68704224
154.13265991 148.49740601 402.84042358
167.82363892 146.64274597 414.92959595
116.67171478 160.74032593 459.28015137
115.70806885 152.12428284 402.48599243
170.14529419 150.47947693 422.79635620
129.67181396 151.65637207 397.36944580
103.02512360 145.23478699 458.52246094
143.52465820 172.15478516 445.51467896
143.46333313 151.41987610 397.25787354
97.85205841 153.41409302 427.08712769
168.42536926 158.67094421 432.12927246
97.38659668 151.39724731 447.42840576
122.86169434 169.07388306 455.66409302
162.23474121 150.07487488 405.15499878
101.53103638 155.80632019 415.06402588
109.69824982 155.46034241 463.31478882
95.69566345 154.58518982 438.94183350
119.47541809 154.95466614 398.31774902
172.47570801 154.33789062 425.01330566
149.94485474 174.03280640 443.43453979
105.35911560 156.25430298 409.14270020
167.85345459 150.05120850 409.24240112
112.29747772 161.24435425 461.97824097
138.15304565 175.72044373 450.12512207
173.21310425 151.88792419 418.48532104
94.83451843 156.21699524 430.10076904
167.66592407 164.91139221 434.24551392
100.72801971 148.13632202 462.52560425
108.53475189 156.28315735 402.93176270
137.44262695 155.80537415 393.46945190
157.95205688 172.89712524 441.33929443
97.56507874 150.44700623 457.15209961
150.62828064 154.91384888 395.92150879
96.72713470 157.99069214 421.01251221
160.13716125 153.78794861 400.66397095
104.77977753 152.25485229 465.48895264
130.25666809 176.39726257 453.48779297
95.33089447 152.43817139 453.18099976
172.60197449 151.52026367 412.19512939
93.64560699 155.12030029 447.15847778
165.22142029 170.22293091 437.04467773
166.18904114 153.84184265 403.41427612
123.95056915 175.09008789 457.23468018
146.91445923 178.97749329 446.37594604
132.09536743 157.73956299 391.63833618
174.84086609 160.54269409 427.55609131
113.61182404 168.69506836 461.71688843
93.50769043 159.85179138 425.57611084
124.91687012 158.22749329 392.37106323
118.87023163 173.22213745 459.69619751
176.31759644 157.05097961 421.30728149
173.37512207 165.48155212 431.44149780
108.50170135 163.77462769 465.43038940
112.29409790 158.98352051 396.23733521
90.89709473 159.02626038 441.24276733
100.15591431 161.38278198 408.69760132
99.08393860 152.73017883 466.63449097
153.00036621 159.03163147 393.31439209
177.02659607 155.74404907 414.39102173
93.24243927 162.98306274 421.57415771
103.66081238 159.32284546 467.96600342
95.35820007 163.57051086 415.93020630
89.76516724 161.21797180 431.72918701
145.53913879 160.26271057 390.25650024
160.25686646 159.44151306 396.31079102
170.47792053 157.02969360 403.61038208
93.83454895 153.93679810 461.63497925
141.37792969 183.31976318 450.86761475
174.20002747 156.95758057 407.84625244
91.09557343 156.39149475 455.26696777
160.79948425 179.35299683 441.96765137
171.37156677 172.17448425 434.88497925
118.57047272 161.68370056 391.29180908
89.44390106 159.66842651 447.63088989
125.29904938 181.04225159 457.56280518
131.28222656 182.92567444 455.14395142
88.47348022 161.61003113 437.50564575
101.49170685 162.83618164 402.84042358
155.20297241 182.31362915 444.54025269
131.31028748 161.89828491 388.12759399
123.58016968 162.16781616 389.05230713
89.68003845 164.41311646 426.29837036
146.62030029 185.42028809 449.39398193
168.78477478 160.59445190 399.97485352
114.38954926 176.99391174 462.74523926
175.66789246 170.91972351 431.81887817
136.60711670 185.90809631 453.57757568
96.09990692 165.17489624 407.85241699
167.30818176 178.84930420 439.86349487
155.86811829 163.34153748 391.23092651
111.67771912 163.65147400 391.68148804
180.50042725 163.98153687 420.86154175
178.56340027 168.86323547 428.25897217
150.83493042 186.71557617 447.10671997
104.43907928 164.82501221 396.67422485
146.29061890 164.83714294 387.63320923
105.94654846 170.60675049 468.17755127
89.29296112 168.04917908 421.41723633
143.17181396 188.41429138 451.64215088
180.62887573 161.90470886 412.62716675
85.36377716 164.48027039 443.91323853
177.86820984 162.49299622 407.05786133
138.05470276 166.00152588 385.14941406
173.73829651 163.55558777 402.16519165
109.63119507 176.40081787 466.17767334
85.82456207 163.45953369 449.98583984
91.10920715 169.68769836 415.59222412
161.97723389 185.30249023 442.80432129
130.73410034 188.27140808 457.24496460
173.24063110 178.90158081 436.67950439
96.15834808 159.87390137 472.12329102
118.73095703 166.56567383 386.64071655
152.52590942 167.15226746 387.86041260
91.60346985 157.88583374 468.79504395
165.75790405 165.84861755 394.23455811
177.03546143 176.04315186 432.36157227
125.43825531 187.54804993 459.41094971
156.90104675 188.00419617 447.04147339
99.98196411 165.59960938 472.17800903
87.79096222 160.39517212 462.47180176
98.71105957 168.46591187 399.07308960
161.51303101 167.20950317 391.12640381
85.89617157 162.28857422 457.71429443
124.79450226 167.50433350 384.30316162
120.68010712 185.99333191 462.17520142
93.11987305 169.50939941 406.29632568
83.91911316 169.53323364 433.14990234
171.26814270 167.66793823 397.87368774
182.84245300 170.96611023 422.75576782
183.01136780 167.89154053 415.66201782
82.63153839 168.25103760 439.43524170
149.67247009 191.85308838 450.95889282
86.31562805 172.76312256 423.84573364
147.19036865 170.66168213 384.26791382
158.73994446 170.43998718 388.40927124
166.44395447 187.96316528 442.75976562
135.55041504 170.14738464 381.89151001
143.27235413 193.55674744 454.48904419
182.03292847 168.90965271 409.25357056
114.47838593 169.77352905 384.77529907
135.64863586 193.60168457 457.34982300
112.02267456 184.89497375 466.07159424
101.25189209 173.51608276 472.86056519
82.10382843 168.47204590 449.78497314
173.04640198 185.30499268 438.19372559
165.28495789 171.38577271 391.59759521
175.06005859 170.96353149 400.10070801
160.80891418 191.54946899 447.39346313
92.20168304 162.38180542 474.69802856
155.31510925 193.18122864 450.48675537
101.76007080 171.53144836 392.04132080
130.70425415 171.95727539 380.93835449
183.65029907 176.05847168 424.76153564
106.40325165 171.59358215 388.33355713
170.95922852 172.28437805 395.02279663
84.30773163 164.33586121 464.98788452
104.95265198 180.27452087 470.99548340
182.09280396 179.62759399 429.70614624
92.31106567 173.74435425 401.47772217
152.66909790 173.59979248 383.83734131
127.04445648 193.91108704 462.39968872
79.65165710 171.93809509 442.97872925
180.26351929 173.55319214 404.95074463
82.48430634 176.30606079 426.92166138
184.76707458 175.03720093 413.98089600
96.89352417 174.39601135 394.13439941
85.89141846 178.15745544 415.66882324
115.68968201 190.53723145 467.02294922
94.17613220 168.31335449 477.47241211
142.06132507 197.61497498 457.67349243
179.58541870 185.44644165 433.84149170
88.04029083 177.11657715 407.48574829
171.12322998 191.22790527 442.90032959
167.40611267 193.07235718 445.72406006
134.33409119 174.88021851 378.73495483
80.13730621 176.74354553 431.79650879
152.15820312 197.60545349 453.89944458
78.79819489 175.22782898 436.60513306
78.69184875 172.47433472 449.29879761
160.35656738 176.66496277 385.80053711
86.39896393 164.62358093 474.33184814
139.96408081 175.64393616 378.62985229
121.66464233 174.89898682 379.15328979
132.54794312 197.88554382 461.47982788
80.59529114 170.01548767 460.59045410
175.08187866 190.48391724 439.13342285
176.26533508 177.08763123 398.13183594
99.82698822 178.93228149 475.47109985
185.93260193 179.22381592 418.91259766
96.51543427 174.71873474 477.24398804
104.74230194 176.21292114 385.38891602
82.43659210 181.44839478 423.04397583
146.80618286 177.60978699 379.21166992
92.27873230 177.85473633 396.95925903
121.70672607 196.52571106 466.15005493
186.00839233 182.74420166 424.37908936
106.60477448 188.60482788 472.20706177
79.89798737 181.11383057 428.56872559
157.47625732 199.32867432 453.95599365
154.56056213 178.61839294 381.01571655
183.03237915 180.00689697 406.81927490
109.48221588 176.93165588 381.22793579
76.59001923 177.95394897 440.35903931
80.60381317 170.58871460 467.56951904
172.89218140 180.63922119 393.19769287
131.76123047 178.14591980 375.96453857
137.38600159 201.67535400 461.26995850
150.27737427 201.49026489 457.36679077
167.33587646 181.04666138 388.54110718
110.05549622 192.25495911 471.42514038
166.11703491 198.52322388 449.20407104
77.25099182 174.67907715 457.07684326
88.43535614 181.76893616 401.23690796
100.54235840 179.30001831 386.29028320
116.25856781 178.37687683 377.65518188
129.89964294 201.53057861 464.33746338
173.15483093 196.49534607 444.14312744
185.44223022 187.77095032 429.13803101
88.20326996 169.44113159 480.96685791
124.95023346 179.54612732 375.71069336
75.24520874 177.67555237 448.62179565
183.69526672 190.47810364 434.40411377
178.85600281 194.58332825 438.41653442
136.63185120 180.76736450 374.67086792
149.50994873 181.91532898 377.40805054
161.91252136 182.55291748 382.87335205
96.95948792 182.73382568 478.81524658
186.89421082 184.29498291 412.18185425
76.94820404 183.83860779 434.51553345
143.92077637 204.53477478 461.25851440
83.08426666 185.33215332 410.29766846
178.05714417 184.14768982 396.46844482
116.69410706 199.67713928 469.15124512
91.68286133 175.56632996 482.76284790
104.59152985 181.34225464 381.44284058
76.42435455 175.93115234 463.12875366
101.65321350 189.59529114 476.30932617
112.27701569 198.15093994 471.12591553
88.80616760 184.57147217 396.74859619
183.45181274 185.58052063 403.10098267
172.14894104 200.46089172 447.58465576
128.82972717 182.38903809 373.24606323
143.06481934 183.45953369 374.30358887
85.72202301 185.93161011 401.84268188
92.31784058 184.41511536 391.68881226
79.99796295 188.42044067 419.50753784
78.39527893 174.48585510 471.57708740
78.15960693 188.43598938 427.71051025
82.50758362 172.53021240 479.10308838
107.93212128 197.09388733 473.64587402
73.76956940 184.44659424 441.72433472
113.20952606 182.92175293 375.44061279
122.67613220 204.44738770 468.30160522
189.28210449 188.94895935 418.35452271
73.43279266 180.68040466 454.74218750
156.80201721 185.52841187 377.94140625
120.47837830 183.70518494 373.51763916
159.63818359 205.84574890 457.66223145
107.82143402 183.99934387 377.61801147
86.62559509 173.48966980 484.93545532
134.88899231 207.28480530 465.82312012
152.68023682 207.30009460 460.43545532
72.61113739 183.00559998 449.58493042
97.19445038 185.58804321 384.99407959
134.19953918 185.21995544 372.08007812
173.87132263 187.92903137 389.27368164
73.87815857 180.35554504 460.90078735
185.72998047 196.26203918 436.52529907
161.67134094 187.27777100 379.68527222
179.01156616 201.04466248 442.55218506
143.50093079 208.70001221 464.02697754
167.60112000 188.30082703 383.75219727
187.60404968 189.89407349 408.63101196
165.48306274 205.87112427 455.61993408
169.77369690 205.10270691 451.76754761
80.94754791 190.37150574 409.34320068
83.10300446 190.35961914 404.59942627
103.86530304 186.71664429 378.97763062
183.52157593 190.63293457 400.56533813
77.66448975 192.72309875 423.27902222
75.22679138 191.67857361 433.81488037
189.54620361 195.06080627 425.95446777
140.35090637 187.74909973 371.11236572
151.91946411 188.50610352 373.73608398
98.04194641 192.69737244 480.75674438
75.89647675 178.98182678 473.07974243
92.67179108 186.23062134 484.12182617
127.85126495 210.20634460 468.06997681
85.72960663 191.50128174 397.21578979
180.90765381 191.92033386 395.11743164
127.28531647 187.70112610 369.82861328
71.32872772 188.51487732 447.17468262
88.91506958 182.11903381 487.09216309
99.20620728 189.65982056 380.49914551
114.07612610 206.29394531 473.66363525
72.83570099 192.52723694 439.49359131
186.89884949 193.81796265 403.97091675
175.47201538 206.68656921 450.56359863
135.99935913 189.19598389 369.13717651
70.49912262 186.65657043 455.11968994
71.38961792 184.41976929 462.39639282
184.25436401 203.29745483 438.56460571
112.80902863 189.31658936 372.28921509
77.90226746 195.53845215 414.77523804
177.99502563 193.35000610 390.04577637
138.97668457 212.98721313 467.15985107
145.59310913 213.38955688 464.72955322
188.72044373 200.55668640 434.45706177
165.96852112 192.42245483 379.50061035
75.50583649 196.64187622 427.28286743
77.74602509 180.16761780 480.24014282
153.83706665 212.50195312 463.92471313
120.25724792 210.24186707 471.89163208
79.96924591 195.87568665 408.05957031
83.60060883 179.07244873 487.93435669
180.41621399 206.27134705 445.45739746
192.09460449 196.78839111 419.56936646
94.71532440 192.28698730 383.55435181
161.39886475 211.52368164 461.82925415
172.17733765 193.77056885 383.79409790
158.64826965 192.22129822 374.43963623
190.91958618 196.43157959 412.40524292
108.44586182 205.37152100 476.51937866
83.63190460 195.59332275 399.33627319
88.99321747 193.62664795 389.68997192
100.99304962 200.07803345 480.00805664
104.52323151 191.58055115 375.90713501
190.85255432 200.38246155 427.48959351
74.05467987 198.16651917 432.09179688
72.58493042 184.14717102 472.47695923
118.95345306 191.68322754 369.01486206
170.39093018 211.32960510 457.46286011
145.96934509 192.78372192 368.85766602
132.11264038 215.32209778 469.08004761
181.19876099 196.86523438 392.72894287
190.02969360 197.98965454 407.82595825
185.53996277 198.02130127 398.94827271
152.49694824 194.10644531 370.72940063
107.98402405 193.89990234 372.35705566
134.43753052 193.10687256 365.93884277
175.74517822 211.64729309 453.79650879
71.06969452 197.89709473 442.03005981
93.57656097 195.91287231 485.69699097
69.92041016 187.58760071 468.04629517
178.63114929 198.15019226 388.14120483
74.11132812 201.32337952 424.30349731
75.20489502 201.16159058 418.09616089
128.69204712 193.76708984 365.60989380
189.92547607 206.10411072 433.74237061
68.20782471 193.42829895 454.67266846
87.29685974 188.18037415 490.66784668
143.69662476 218.15844727 467.90908813
80.09992981 182.90678406 489.12921143
72.42623138 201.32693481 436.21820068
188.59570312 200.66604614 402.34252930
89.50252533 198.72332764 387.14318848
113.63536835 195.13201904 368.86642456
68.44351196 191.00605774 463.39520264
118.07194519 215.45719910 473.21575928
69.25431061 197.36668396 448.37634277
168.67184448 214.73600769 461.37231445
186.63514709 209.43632507 438.69641113
140.93171692 195.29733276 365.70901489
99.48841858 197.46888733 377.11108398
85.58895111 200.20494080 392.45913696
76.06663513 184.66348267 484.70495605
103.81234741 207.65895081 480.36135864
182.88058472 211.76022339 444.80126953
71.84288025 186.98803711 477.36944580
81.81248474 202.22648621 400.10015869
193.05003357 205.06092834 425.04806519
149.27661133 219.79052734 465.94979858
125.35870361 218.60105896 471.19180298
194.06031799 203.63163757 419.31170654
159.25157166 198.04957581 371.48376465
97.08480835 203.05731201 484.24447632
165.21557617 199.23394775 374.78033447
95.25371552 199.94360352 380.64834595
139.59509277 220.95748901 467.68811035
157.14169312 218.35110474 467.14324951
108.68064117 212.88887024 477.65997314
76.52950287 204.77255249 413.16409302
192.25579834 203.00732422 407.84851074
180.12585449 214.47325134 449.27029419
149.28900146 197.87612915 366.84231567
78.05496216 205.10888672 408.20968628
82.65943146 186.52920532 493.24826050
69.92484283 202.20123291 444.27087402
69.51224518 190.15931702 474.14886475
112.84921265 216.07489014 475.89871216
170.57118225 201.02398682 377.85244751
108.44335175 198.35765076 369.42660522
79.75049591 205.33958435 403.38375854
191.49398804 209.84449768 430.11553955
66.80680847 195.70510864 460.80126953
121.95043182 197.16288757 363.85504150
155.21115112 199.79820251 368.44564819
146.82298279 228.03825378 442.19909668
131.98939514 197.04890442 362.54699707
133.10096741 222.35569763 469.79620361
186.19139099 214.06845093 434.01287842
