ply
format ascii 1.0
element vertex 512
property float x
property float y
property float z
end_header
86.37924194 122.45319366 463.79898071
84.10419464 125.73833466 460.98095703
88.67981720 116.57668304 461.61779785
89.29471588 119.85540771 470.67120361
87.28503418 117.46897888 457.39611816
89.86743164 115.22010040 466.68106079
87.35695648 125.23368073 472.27285767
84.08953857 131.52134705 463.37936401
82.66609955 125.91442108 455.12438965
85.27818298 130.43733215 470.50326538
83.24646759 132.13525391 458.03863525
89.67182159 121.39961243 475.18344116
89.90966034 111.91116333 458.54391479
90.77630615 113.20964813 471.34771729
84.21688080 120.67428589 451.34194946
91.19892120 109.88693237 467.62612915
82.40390015 130.78427124 452.69036865
91.03621674 116.21617126 476.24237061
86.16346741 137.03955078 471.68206787
87.90052032 129.98768616 478.54638672
86.04377747 116.30637360 447.77166748
86.81529999 134.46932983 476.18478394
82.24249268 129.55827332 448.33319092
90.30059814 124.57267761 480.96365356
84.40151978 140.34796143 463.45294189
82.92132568 138.51135254 456.20266724
89.70998383 110.92739105 449.75891113
82.11268616 123.06674957 445.81091309
93.49670410 105.40169525 462.09127808
94.44458008 108.18418121 472.78656006
91.91812134 118.48011780 481.23550415
90.99533081 106.45434570 452.67166138
93.88008881 111.45835876 479.48764038
82.06302643 136.90443420 449.50448608
87.81480408 134.35488892 480.83541870
84.10083008 118.20854950 443.45773315
87.90999603 138.49926758 477.98364258
81.77201843 129.83276367 443.46658325
96.97138214 103.97846222 471.89520264
95.78317261 107.04631042 477.79589844
94.60964966 101.76583862 455.44845581
92.70252228 121.89633942 486.76632690
90.93724060 131.28250122 485.49649048
93.78786469 114.93013000 485.22488403
87.96768188 142.61732483 476.65283203
85.01062775 146.33229065 461.85339355
82.32422638 141.52584839 449.75418091
81.70591736 124.31232452 440.15063477
86.46972656 114.19831848 440.83691406
90.04904938 109.86740875 442.99325562
86.78407288 146.85208130 468.55294800
98.55545807 100.67007446 465.37130737
83.20080566 118.69517517 439.09899902
98.08052063 100.44117737 459.46154785
83.73462677 146.46000671 455.23568726
81.71350098 137.26203918 443.32296753
93.34927368 101.94309998 449.02914429
89.84497070 139.18653870 483.95770264
91.85275269 105.87620544 443.78793335
98.20706940 106.01489258 482.57983398
100.48381042 102.41164398 476.78918457
101.79289246 100.14815521 471.16064453
95.08802032 115.99263763 489.97631836
81.90017700 145.08769226 447.20550537
89.10445404 149.69773865 472.06652832
90.54431152 146.50108337 478.87542725
81.54973602 135.49085999 438.42004395
101.36401367 97.70925140 459.81445312
99.97821045 98.38919067 453.94158936
85.41225433 114.45847321 435.42510986
82.09517670 122.68283081 434.61547852
94.65349579 120.15675354 492.15151978
92.92300415 130.30725098 491.69464111
93.71584320 101.42861176 443.44094849
91.82599640 137.86918640 489.16271973
97.43741608 98.50453949 448.75253296
87.64672089 152.69816589 460.58340454
91.80406952 106.97970581 438.01535034
98.83965302 107.01806641 487.22775269
91.91017914 145.86529541 483.75259399
81.51719666 131.01673889 434.08590698
86.43624115 152.41737366 454.50964355
90.64934540 153.17448425 468.54739380
93.47153473 134.58465576 492.10614014
103.73429871 100.00767517 478.71249390
92.08633423 151.44189453 476.48690796
104.76408386 96.95389557 470.60943604
97.88441467 110.96708679 491.57757568
82.05122375 145.94824219 442.15658569
88.82001495 110.24806976 433.96459961
81.14761353 141.27972412 437.59844971
82.04602814 125.92993927 431.45770264
92.88207245 149.89663696 481.02383423
102.91522980 101.98272705 483.89520264
83.42834473 117.51804352 431.08566284
94.92960358 124.09941101 495.92114258
85.47069550 152.43167114 448.95648193
112.52400208 113.74446869 482.80307007
90.32653809 155.93264771 463.54574585
93.42362213 145.19645691 487.78485107
113.06730652 108.84481812 479.55746460
116.18289948 118.03112030 479.68411255
107.56832123 98.58235168 475.84558105
93.69582367 103.50122833 436.27316284
102.47686768 104.22644043 487.86904907
105.47841644 94.71804810 456.36468506
106.91764069 101.66217804 482.16058350
111.75276947 116.75060272 486.49731445
97.21096039 97.62941742 442.37210083
116.23896790 110.35408020 476.25616455
101.74763489 95.81518555 447.52435303
109.96893311 109.97978210 486.13980103
107.12915802 94.63127136 467.20104980
83.70256042 149.91128540 442.04174805
111.05857086 104.27410126 481.10137939
81.69689941 136.55769348 431.72015381
93.51039886 155.83145142 473.38427734
107.14677429 104.35085297 486.21801758
115.85772705 122.54097748 483.71823120
88.02036285 157.03776550 454.77374268
112.47076416 101.02275085 475.72406006
94.33887482 139.06106567 494.68530273
92.40150452 157.63520813 468.52703857
94.81421661 143.85942078 491.89837646
110.89785004 96.44784546 470.52783203
101.69188690 106.62384796 492.81121826
97.75403595 116.59358978 497.91992188
82.07769012 146.30104065 436.46176147
117.41159058 106.02651978 473.89874268
92.57025146 105.93547058 431.79196167
120.83981323 115.73603821 474.01849365
109.15219116 113.85088348 491.26159668
85.25601196 114.55455017 427.81274414
120.78401184 121.90417480 477.16839600
112.24826050 120.69031525 490.14602661
108.51442719 92.82200623 462.16137695
95.53473663 130.90855408 498.88311768
114.55180359 99.10378265 470.92895508
114.55003357 124.12775421 488.25271606
101.21765900 95.72980499 442.16220093
119.45516968 125.45690155 481.15194702
96.72029877 148.53485107 489.54403687
122.27691650 111.67065430 471.15206909
106.76066589 108.05183411 492.91790771
118.16815186 102.05380249 470.61489868
85.41341400 154.72468567 442.93850708
96.80634308 153.22692871 484.73428345
108.17314148 92.48316193 452.78912354
117.89766693 127.94616699 485.78817749
86.65076447 157.50561523 446.69650269
98.74571991 96.68300629 437.05371094
95.98181152 137.50898743 498.77044678
124.81255341 117.88905334 471.56469727
97.76185608 121.83783722 501.62255859
102.06854248 109.10237122 497.55642700
81.66740417 135.23667908 426.64709473
106.78003693 92.55741119 447.75274658
124.64086914 124.60667419 475.43109131
123.06044006 127.76667023 479.06851196
90.92139435 162.15823364 459.72515869
97.05848694 126.82672119 502.34567261
92.81830597 162.14888000 465.31863403
123.22119141 106.60849762 467.46026611
114.92939758 93.88195038 464.17214966
118.47354126 98.09860229 467.08264160
89.17864227 161.76069641 454.71755981
106.28964233 109.97493744 496.79846191
111.65920258 122.13059998 495.47326660
96.68002319 159.04969788 478.13073730
94.41205597 161.59091187 471.28344727
96.79074097 142.91162109 497.60794067
82.79950714 124.54716492 423.09173584
121.34983826 130.35136414 483.60177612
111.36463165 90.62277222 457.44781494
108.36808777 115.32663727 497.69967651
117.15740204 129.65209961 489.98870850
89.17398071 109.77281189 424.84524536
84.59764862 116.09101868 423.16561890
126.48868561 114.31119537 468.50448608
97.03512573 99.11814117 431.28674316
98.60942078 148.32110596 493.79171753
121.90873718 101.04964447 466.38793945
81.91999817 144.96759033 429.02658081
115.07801056 129.38627625 493.62042236
108.89398193 119.92562866 499.86767578
98.57015228 158.38723755 483.25765991
84.88643646 156.53996277 438.08331299
95.41652679 102.59983826 427.05657959
112.83889008 127.16448212 497.36984253
82.05347443 133.35607910 422.37933350
86.97058105 161.30834961 445.26971436
126.59618378 130.03036499 477.65118408
83.89786530 152.54196167 432.81683350
105.75679779 112.07167053 501.08819580
117.33982849 92.34082031 460.09762573
129.36579895 120.44676208 469.88775635
125.17696381 132.58128357 481.31863403
101.54904938 113.19369507 503.80319214
118.07476807 134.64776611 491.42599487
89.09773254 164.42259216 451.62792969
81.25195312 140.63154602 424.22454834
92.65368652 105.82497406 423.65252686
101.42193604 152.07589722 492.53289795
98.06397247 133.10394287 504.86450195
108.94365692 90.86742401 442.64144897
114.44544220 137.18066406 494.68069458
129.68804932 112.79574585 464.90286255
121.85651398 134.59791565 487.56561279
112.71415710 89.61013031 449.13363647
121.48781586 95.05194855 461.66928101
106.12581635 92.64041138 437.15524292
130.04089355 125.32010651 472.52416992
85.83889771 160.65927124 440.43322754
87.88470459 111.27733612 420.23171997
128.99278259 107.83056641 462.95040894
110.51342010 137.46405029 499.02615356
83.93852997 122.15814972 418.58261108
103.01479340 94.26513672 432.39916992
115.80827332 89.00333405 454.99197388
100.26235199 120.50671387 507.13311768
92.24461365 167.31756592 458.48776245
108.61195374 122.52171326 503.61145020
126.85730743 100.79830170 462.58111572
109.96492004 130.54254150 502.50656128
119.48117828 139.44834900 491.00256348
130.22084045 130.23345947 475.71615601
99.58226013 162.73896790 481.90518188
111.98271179 142.03594971 497.03622437
95.28270721 167.85163879 466.04513550
98.08679199 166.13467407 474.00909424
116.35935211 142.70597839 493.00170898
109.13953400 126.80150604 504.59808350
99.46039581 138.74798584 505.90670776
133.22909546 118.68444061 466.01898193
120.70185852 91.12680817 456.31057739
90.55496979 168.39567566 453.68936157
100.79566956 126.58527374 508.68606567
105.53956604 116.64459991 506.95550537
102.98693085 151.44848633 497.96789551
83.53240204 149.89117432 424.73956299
133.88554382 125.05233002 469.54156494
101.44188690 147.73136902 501.64324951
88.59468842 167.52610779 447.36477661
86.45612335 114.00749969 416.43826294
99.97167969 131.78544617 509.03381348
83.66928864 125.79609680 415.77453613
100.35411072 143.49244690 505.00042725
114.58963013 145.48762512 495.65676880
109.18151093 134.33233643 504.92739868
133.79577637 112.38674927 461.85671997
100.82073975 95.84894562 425.82824707
84.66648102 158.45890808 431.05773926
103.74150085 156.75032043 493.75192261
102.93887329 159.89730835 490.38122559
85.08392334 161.63546753 434.55410767
107.79457855 139.57788086 504.40740967
116.09146881 87.22083282 447.16046143
124.63884735 140.89440918 488.27151489
130.23826599 100.85417175 459.97070312
119.35353088 88.32341003 451.10946655
97.87889099 169.85501099 469.81939697
98.66912842 99.82617950 421.93707275
133.97947693 130.70222473 473.93466187
89.47528076 109.27445221 416.24987793
83.26621246 146.57942200 420.45983887
115.43402863 88.09622955 442.55410767
94.05149078 171.40370178 458.07351685
84.12745667 156.07937622 426.99151611
111.54462433 89.16127014 436.12405396
131.95857239 136.07421875 479.47286987
84.98845673 120.57862091 413.63143921
128.89283752 96.11687469 458.78411865
118.51939392 147.13935852 493.79617310
86.94101715 167.43690491 440.90426636
102.11087036 167.51245117 480.30316162
129.63722229 138.98818970 483.98004150
105.44188690 124.28869629 510.57278442
93.26380157 105.36262512 416.60116577
123.00446320 145.54028320 490.20532227
135.01010132 108.57261658 459.64358521
82.34901428 134.95812988 414.50802612
108.56573486 91.54925537 429.81356812
101.44760895 169.61614990 476.09835815
133.48179626 103.17018890 458.32861328
106.49977112 138.10153198 508.25036621
123.60115814 89.07398224 452.29672241
111.35568237 145.64314270 502.21545410
82.13504028 140.27337646 415.74298096
107.80364227 132.42701721 509.62518311
127.84604645 92.44890594 456.21173096
83.96385956 128.73554993 412.45385742
138.19158936 122.16706085 465.71496582
102.25166321 141.90597534 509.54394531
104.88189697 129.31242371 512.21466064
108.52780151 144.58543396 505.74761963
138.53083801 117.40697479 462.27807617
116.00227356 87.69052887 437.20309448
94.90935516 173.87309265 454.95593262
84.06464386 154.89877319 421.98352051
106.55278015 92.73498535 424.76135254
105.06328583 150.77371216 504.61508179
106.31206512 155.02703857 500.71667480
104.54429626 166.67260742 487.40011597
99.95886230 174.30307007 465.16638184
86.06998444 167.15353394 433.94616699
83.53169250 147.12586975 416.09078979
119.87030029 151.50714111 494.34948730
138.71432495 131.71920776 472.46838379
102.93389893 133.56687927 513.86676025
89.61430359 109.45476532 411.55148315
136.33685303 137.02204895 478.35296631
129.91966248 144.68028259 486.84851074
112.36769104 88.90870667 430.23110962
128.16690063 89.90077209 452.47323608
103.76921082 94.26584625 420.80178833
125.75419617 149.54595947 438.07336426
103.51280975 138.69316101 512.87097168
102.46961975 173.96794128 471.06765747
106.92971802 160.59277344 497.03747559
105.37176514 169.85746765 483.53796387
139.61380005 110.46583557 459.14608765
116.18865967 152.36676025 498.94595337
96.45108795 102.79848480 413.39685059
104.63500214 146.17796326 509.97488403
141.16033936 127.12681580 468.17550659
105.38109589 172.36715698 478.36206055
83.37768555 142.73504639 412.21215820
84.08068085 152.99444580 417.49023438
126.02474976 87.27472687 447.14709473
101.62839508 97.84951782 416.15368652
97.79503632 176.61860657 457.04089355
106.75215912 165.28489685 493.27575684
99.96135712 176.75054932 461.08035278
121.92076111 85.34159851 441.43655396
84.62461853 162.88749695 424.91622925
134.29258728 143.82199097 483.76498413
127.12389374 151.02014160 489.96487427
85.73487854 122.50622559 407.44195557
142.92488098 122.99215698 464.57040405
131.39990234 148.10989380 440.96142578
120.17460632 85.92635345 436.01351929
83.90165710 131.19438171 407.52444458
140.21168518 105.10438538 456.54867554
131.32608032 152.75621033 445.86169434
133.94328308 92.55014038 453.48352051
113.87415314 153.65077209 503.03332520
91.44285583 175.08479309 441.96771240
106.33246613 175.05780029 474.42767334
109.34121704 151.31974792 507.65167236
117.41773224 86.85502625 430.89178467
83.08102417 136.97668457 408.19116211
143.25834656 114.50529480 459.71917725
88.76920319 172.17510986 434.78768921
94.92084503 177.47398376 448.80081177
137.18370056 96.87893677 454.30416870
111.94882965 90.15721893 423.34521484
119.48479462 159.33061218 493.46463013
110.24665833 154.93638611 505.22149658
107.75150299 92.09333038 419.49554443
139.51678467 101.07503510 454.47351074
129.76062012 154.65074158 442.21957397
87.00370026 169.76216125 429.47756958
144.17208862 130.11955261 469.40664673
138.40916443 143.04910278 481.91397095
132.23638916 150.41990662 487.79470825
135.46559143 148.65216064 444.08358765
124.98377991 156.34422302 492.89065552
115.99499512 159.44039917 499.22326660
103.83774567 179.06143188 465.45541382
141.10215759 140.22195435 478.16217041
108.99168396 163.58007812 500.06835938
140.16450500 144.94161987 452.66659546
105.51112366 93.95732880 415.12854004
143.65713501 134.92555237 474.47131348
95.06550598 104.97438812 407.47622681
113.14622498 158.80682373 502.74914551
145.82327271 126.73210907 465.95544434
108.51103210 170.49578857 491.49612427
131.80567932 151.26924133 437.57476807
138.72294617 149.71839905 453.84738159
84.21884918 155.48419189 413.81338501
84.29309082 143.13761902 407.49710083
138.34761047 148.66175842 449.13638306
131.96786499 87.39434052 446.43634033
146.47544861 121.25344086 461.48971558
135.99029541 153.62161255 449.82083130
144.45747375 108.10208893 456.33340454
109.84856415 173.53450012 485.68682861
142.15435791 144.84007263 456.65179443
101.42718506 180.93280029 459.60223389
86.51311493 168.72320557 424.65097046
126.92892456 84.94373322 438.81155396
85.83917999 127.68417358 403.39465332
89.22303009 115.40353394 403.55902100
133.86659241 156.72949219 447.54986572
136.69407654 91.13074493 450.16790771
84.33037567 150.26664734 409.62106323
107.68122101 178.94198608 472.48419189
143.63978577 103.57365417 454.23236084
88.88533783 173.72010803 430.74221802
102.21953583 99.16198730 409.61483765
138.17857361 148.24008179 483.73544312
130.50523376 156.92449951 488.93566895
110.10968781 177.22077942 478.14089966
84.72811890 162.94497681 416.71823120
148.17720032 117.52572632 458.83605957
131.33686829 85.46845245 441.64868164
94.41135406 181.07913208 444.18780518
119.20102692 86.58401489 424.75924683
123.06546021 85.25441742 429.71533203
143.24858093 99.39788055 452.27008057
87.48694611 122.04797363 401.11007690
137.57472229 150.88595581 441.32119751
91.87648010 108.93021393 402.60482788
116.70568085 88.19116211 420.39724731
142.26348877 146.16030884 481.98901367
116.23636627 163.56703186 501.72048950
149.84700012 124.63146210 462.23779297
126.35934448 83.79863739 432.96621704
92.21894836 180.37733459 437.98168945
135.74143982 157.87446594 444.68157959
104.30682373 183.57083130 463.64056396
84.66804504 133.15840149 401.03414917
137.29969788 154.13388062 485.47293091
98.57684326 184.13008118 451.80908203
146.12158203 141.23703003 477.97747803
149.12413025 134.21122742 470.84445190
98.81512451 102.19241333 404.09152222
84.83956909 138.39880371 401.54327393
90.05384064 177.69883728 431.08181763
113.16531372 89.64662933 415.23309326
111.87596130 170.84458923 497.91772461
112.53450012 174.16990662 492.07058716
136.98880005 87.66377258 444.11730957
111.85408783 167.89891052 501.84820557
142.02131653 93.26275635 448.52755737
139.71620178 90.09378815 446.61804199
141.35247803 152.08822632 480.92089844
150.15803528 113.41306305 456.08221436
128.77807617 163.47958374 491.07165527
120.12329102 164.92459106 499.67822266
138.77116394 159.67414856 451.78805542
142.62135315 155.12149048 456.82116699
145.29785156 149.30525208 453.90753174
103.37006378 185.64332581 459.59490967
123.51831818 85.50245667 424.35864258
113.88018036 176.94383240 487.78997803
85.28666687 143.58276367 401.68453979
87.79134369 173.33714294 422.23818970
110.12853241 91.30133057 410.88296509
86.74639130 170.29441833 418.40414429
131.90274048 83.97074127 435.15243530
125.80905914 165.31565857 495.35079956
85.20128632 148.00312805 402.66479492
148.06803894 102.05669403 450.59527588
152.30667114 118.97674561 457.64028931
135.98025513 85.46454620 439.89123535
114.33681488 166.10189819 505.19705200
152.16275024 131.20437622 466.64617920
150.31414795 107.47568512 452.79995728
145.09834290 149.75775146 448.11462402
89.27123260 118.90559387 397.32183838
137.58932495 159.99075317 484.26248169
140.43017578 157.04808044 482.14428711
97.41676331 185.64643860 444.99465942
107.30976105 186.22560120 466.83923340
114.81936646 179.77728271 484.28854370
153.59097290 126.70919037 462.09017944
122.13575745 86.63867188 419.22680664
91.12740326 114.58966064 396.98101807
146.24487305 149.53849792 479.51486206
86.33089447 129.69076538 396.53466797
151.26370239 138.72740173 473.91717529
134.97935486 163.41569519 487.11712646
84.74995422 155.84089661 404.73651123
144.09883118 152.58354187 444.37115479
129.59004211 83.23536682 428.39215088
91.84085083 182.33326721 431.43496704
144.59265137 155.81831360 476.55624390
142.01014709 88.61656189 443.09793091
104.46929932 187.94650269 456.02935791
96.01689911 185.97480774 439.97521973
94.70765686 107.35784912 397.41314697
142.95147705 160.51873779 456.17108154
85.18406677 162.11357117 407.80886841
105.63583374 97.43429565 402.84310913
148.36134338 97.37778473 447.49618530
89.16817474 122.47012329 394.97680664
111.62340546 185.65634155 475.86132812
143.22996521 157.85583496 446.14443970
99.83220673 102.49499512 398.83282471
85.95079803 138.11587524 396.29772949
86.41532898 167.50004578 411.07412720
118.81914520 165.80027771 507.29650879
141.96900940 161.62828064 449.66952515
145.58451843 157.83134460 472.29931641
133.64651489 83.25989532 431.02786255
147.07939148 93.42528534 444.91650391
151.62683105 144.41139221 476.36584473
89.04380035 178.96504211 422.53619385
155.08918762 113.16483307 452.98452759
87.70294189 175.50117493 417.63699341
116.18389130 177.45178223 496.15020752
138.77772522 84.63166809 435.79888916
115.01708984 172.27507019 504.56427002
125.75431061 167.58259583 501.04391479
155.86898804 134.28808594 466.50170898
100.70162201 188.84472656 444.70709229
111.21782684 188.05358887 472.24514771
90.42178345 181.78538513 425.61398315
129.04661560 84.71290588 421.87496948
104.82675171 189.61820984 451.13989258
