ply
format ascii 1.0
element vertex 2048
property float x
property float y
property float z
end_header
126.63425446 162.94947815 614.33233643
271.68597412 228.66400146 477.30200195
132.57414246 131.39692688 439.82342529
136.71829224 259.36038208 506.22927856
172.91600037 172.00500488 531.33398438
183.10198975 210.65998840 444.15600586
220.90899658 262.71298218 542.84899902
98.99779510 189.83937073 493.31228638
203.50148010 142.23013306 464.72683716
116.94853210 219.73658752 566.44714355
112.99256134 142.11576843 545.98364258
212.75834656 259.48272705 475.11090088
151.13925171 112.06417847 500.28735352
122.45639801 196.19996643 432.53814697
224.74575806 191.81614685 499.75073242
163.78538513 259.56396484 559.46453857
175.21398926 220.23500061 501.92898560
140.32733154 245.41235352 452.14965820
109.40653229 139.33169556 489.81311035
171.54473877 164.68955994 430.90106201
256.71099854 267.77999878 506.51699829
149.61450195 179.84146118 574.38867188
155.51899719 216.44300842 543.31896973
171.02250671 108.94753265 458.74179077
181.95832825 265.56234741 513.62066650
101.78023529 184.62980652 541.43475342
110.12321472 230.12860107 480.74569702
229.47500610 233.17100525 511.92098999
223.12800598 219.05801392 466.66699219
105.87842560 165.00531006 456.55361938
110.37860107 223.60896301 523.52838135
190.69898987 183.44799805 477.02099609
194.74400330 230.93299866 538.30395508
172.11253357 144.27839661 491.24847412
171.41864014 261.40878296 474.75320435
134.03053284 142.34678650 580.68389893
112.37322235 182.49240112 580.47247314
144.59106445 146.23132324 526.15148926
130.32655334 249.58366394 543.67547607
154.89036560 190.40095520 500.21969604
130.36651611 116.02379608 473.23724365
102.00818634 202.23954773 460.08682251
135.04823303 164.64286804 428.86007690
244.87152100 249.10282898 477.66744995
99.90808868 163.33952332 512.93341064
150.79158020 216.21353149 438.17883301
182.21017456 133.41087341 438.10812378
191.82600403 192.97698975 512.74102783
215.06336975 267.68228149 508.65078735
188.72599792 238.04299927 462.33001709
125.23433685 122.89871979 515.11199951
244.62098694 218.11500549 488.39102173
194.67349243 257.24420166 557.38110352
122.69009399 221.95896912 449.67401123
195.37232971 167.14912415 450.93524170
157.16007996 259.59365845 530.83001709
153.97592163 188.24447632 429.73104858
140.44575500 261.78097534 476.91363525
218.36508179 189.64872742 471.04803467
144.14254761 150.59779358 555.04254150
121.93927002 207.88041687 592.58776855
158.94400024 189.56199646 550.50000000
188.68400574 167.89401245 500.23501587
207.03199768 216.03100586 517.40997314
113.72073364 136.54963684 460.45611572
140.98300171 204.95100403 565.84002686
166.61552429 237.63459778 444.49505615
174.01162720 115.94398499 485.11209106
137.85115051 179.76985168 595.28869629
114.33575439 157.46757507 571.16149902
157.14595032 121.02112579 439.23339844
167.58200073 198.59600830 526.10302734
101.46907806 164.05049133 486.37805176
154.34188843 144.53001404 429.23611450
130.19046021 220.03739929 546.24243164
270.54699707 249.72100830 492.37200928
171.35348511 236.45692444 550.75885010
100.93435669 198.67156982 520.32519531
193.55616760 264.13540649 491.25796509
133.48114014 128.36489868 539.80462646
106.91989899 139.88316345 518.77398682
232.64761353 267.86697388 490.71911621
118.80027008 242.16525269 503.20040894
236.54901123 259.64001465 519.45397949
107.64193726 209.03697205 544.94232178
179.03198242 186.66947937 438.71453857
103.30001068 213.31573486 501.40774536
159.36431885 156.22091675 515.92193604
204.55900574 206.27200317 454.77398682
191.12535095 121.05455780 466.06497192
156.73234558 265.28192139 495.05841064
102.19396210 161.04031372 537.00738525
204.12500000 163.73098755 475.58700562
197.66876221 263.27871704 534.61145020
214.87001038 240.78199768 530.12103271
123.22795868 246.18551636 469.76617432
247.39801025 244.93399048 501.72198486
154.16925049 165.58578491 544.49230957
152.92001343 107.33732605 477.03994751
142.92401123 155.35188293 599.03472900
115.15507507 174.84548950 437.18264771
120.45466614 151.20664978 440.87533569
146.15779114 235.04124451 553.02001953
116.78652954 163.79322815 592.85241699
176.81999207 217.87300110 534.82696533
154.75157166 134.38516235 499.99963379
174.73599243 196.53500366 498.70498657
143.13835144 112.61022186 454.83584595
210.46371460 238.26380920 467.83578491
117.76923370 183.11576843 604.72491455
100.84748840 183.24880981 471.59838867
192.16029358 148.36727905 484.04406738
204.19200134 194.58499146 490.07897949
108.65687561 192.51335144 561.26190186
223.00599670 212.99800110 502.89202881
123.23426056 120.01716614 493.62808228
177.68031311 262.32489014 541.04602051
162.04191589 254.96386719 456.48721313
128.14968872 246.63037109 523.67968750
192.57099915 187.54800415 455.44497681
106.17092896 172.30120850 558.02215576
127.56958771 138.27262878 561.16027832
101.35412598 207.99748230 480.84213257
145.22097778 126.39318085 515.01831055
137.08799744 197.82899475 585.29699707
251.66192627 230.49934387 473.67849731
125.70848846 241.97448730 561.73400879
229.49147034 201.85440063 483.12329102
167.97579956 203.99392700 437.90988159
196.96356201 145.78967285 445.89984131
105.49006653 150.11004639 472.75689697
191.03126526 252.31021118 473.17391968
231.43540955 235.32028198 471.95278931
147.45683289 156.22264099 578.64324951
118.82663727 234.90759277 536.20861816
183.11500549 209.52301025 516.81103516
99.51566315 180.44013977 522.49548340
109.07763672 222.68077087 462.96929932
257.53701782 231.73899841 491.93600464
184.59199524 175.77900696 516.88098145
209.19400024 199.38899231 507.56298828
203.45401001 246.23001099 545.02099609
126.84381104 121.38152313 455.41632080
129.44961548 253.95646667 489.95654297
154.17141724 170.48182678 426.04721069
147.44816589 255.50466919 549.10406494
103.64177704 183.94200134 453.00619507
199.53300476 198.93998718 472.43402100
240.97601318 213.57981873 470.65078735
163.52600098 263.51794434 514.35900879
251.77565002 261.91152954 489.18930054
141.97508240 201.93730164 431.58444214
117.04746246 127.48383331 477.76135254
184.12269592 132.23539734 479.96911621
174.29475403 261.83602905 493.10168457
113.18420410 207.73051453 444.09625244
194.28900146 222.39799500 455.30398560
184.60925293 153.90701294 435.98391724
140.35429382 260.09106445 525.00543213
258.35562134 214.84715271 477.20578003
138.42956543 227.58547974 443.54827881
132.18312073 182.23396301 427.89523315
191.07000732 184.90100098 496.38302612
113.45986938 201.79196167 575.55340576
217.02001953 181.89685059 487.53497314
213.18949890 265.67062378 526.24285889
178.82501221 227.85200500 449.46798706
194.22612000 130.11482239 451.76055908
229.76013184 257.38269043 475.33142090
173.57299805 162.44499207 510.55001831
118.43201447 131.77151489 532.56866455
103.99884796 150.30639648 502.47256470
99.41782379 177.16293335 503.90356445
178.27545166 250.26493835 462.26330566
153.85748291 167.17720032 561.46746826
130.17916870 212.81225586 575.87921143
114.69033051 224.98377991 549.71667480
137.98112488 113.50519562 489.60458374
155.20414734 264.09664917 469.56304932
109.76884460 227.97402954 499.60235596
178.46446228 251.31735229 557.49383545
136.77981567 145.65081787 432.55130005
143.35000610 206.08999634 548.23101807
163.77900696 204.30799866 510.87200928
198.39540100 266.43957520 511.56533813
180.18899536 231.24400330 513.34295654
220.18299866 202.78599548 461.23699951
240.37001038 270.08502197 507.22998047
126.69070435 150.58441162 594.49938965
211.49627686 266.43325806 489.99551392
174.71490479 118.19171143 445.70077515
107.32560730 156.97766113 552.21630859
129.50485229 211.73692322 438.66934204
178.77499390 187.06098938 528.83398438
126.57442474 237.64149475 456.29794312
225.67799377 253.97100830 529.95697021
155.39799500 201.98098755 536.15197754
186.55999756 209.17601013 498.86001587
168.37307739 221.45173645 439.12799072
206.98770142 156.76316833 460.04437256
150.44200134 192.15199280 565.54797363
166.95835876 135.38101196 431.94110107
157.37156677 163.63539124 530.48077393
240.45098877 227.17900085 500.59197998
208.37899780 223.14199829 463.01498413
112.11240387 130.69139099 502.46578979
192.60099792 219.59700012 527.69299316
166.62199402 176.28300476 544.91802979
197.45799255 176.19599915 465.06198120
118.27120972 242.50183105 484.32763672
159.05612183 244.61764526 555.91357422
174.30200195 191.73399353 513.39801025
196.74900818 171.59100342 486.65499878
186.46598816 239.86099243 550.13903809
127.25559235 192.51141357 594.64019775
259.49426270 245.81117249 482.69104004
110.70983887 151.12673950 453.12432861
207.46292114 261.67083740 550.41992188
165.75524902 128.43605042 488.89498901
141.00366211 144.12834167 540.17852783
128.21629333 214.63922119 557.94549561
135.68008423 253.60176086 465.00332642
184.72698975 172.76742554 441.08120728
118.06998444 235.03855896 519.15612793
102.62650299 166.98480225 471.65124512
207.13900757 227.83599854 526.62701416
132.55018616 175.59338379 607.90014648
107.24600983 146.08592224 532.89587402
180.23692322 111.40010071 470.11709595
141.96218872 144.02174377 568.23602295
154.73252869 179.24716187 510.68777466
150.44993591 238.19851685 444.24429321
134.43179321 116.32196045 505.63217163
110.14064026 191.02180481 441.83883667
145.22114563 169.91577148 585.05413818
102.89129639 197.92155457 536.76477051
167.17274475 181.46031189 430.80072021
105.83818054 210.60594177 527.08520508
176.92288208 264.50106812 527.34576416
121.05196381 136.17002869 447.73956299
148.39341736 157.13522339 427.09399414
147.48359680 130.57385254 434.90762329
227.65800476 268.04598999 527.59100342
160.39549255 111.79123688 449.60144043
149.29565430 142.66574097 511.32220459
230.38000488 246.75500488 518.29901123
183.61129761 196.99032593 447.23342896
168.12225342 151.24943542 431.13836670
167.01498413 107.26619720 475.22424316
153.89198303 107.65191650 462.26168823
158.66600037 230.56698608 548.28295898
137.27430725 123.55984497 526.87207031
181.37001038 229.14799500 542.36700439
142.56179810 262.33865356 493.97677612
267.03900146 259.89199829 501.51998901
104.74645233 219.02091980 488.71801758
232.02400208 213.17199707 492.33599854
99.18918610 191.36659241 507.41989136
147.75717163 255.63624573 458.73150635
160.37396240 110.27760315 490.04690552
129.00413513 231.35038757 552.38580322
116.48396301 232.94366455 468.20089722
112.64092255 168.82778931 579.26391602
143.63121033 120.18439484 443.35742188
196.63737488 133.58685303 472.39962769
149.78912354 263.21578979 508.00592041
138.09359741 247.79724121 556.09332275
219.23100281 248.09895325 471.40817261
114.93441772 147.84576416 558.60516357
246.72499084 257.95999146 507.36398315
182.09298706 257.28128052 483.00494385
161.62670898 145.95709229 500.04864502
219.03799438 222.03799438 515.16802979
196.33599854 205.76499939 513.34399414
109.57115173 206.76937866 558.66455078
163.47344971 261.28381348 542.51782227
166.17900085 191.61100769 537.59002686
142.93191528 185.33580017 584.11505127
103.35477448 151.09696960 488.24371338
102.12712860 154.28996277 522.27899170
159.81100464 176.33299255 557.01202393
200.22213745 261.16290283 479.65939331
123.42787933 145.44909668 571.77758789
164.68800354 211.56098938 534.66998291
114.97108459 194.74166870 586.83001709
143.52700806 221.50199890 546.43603516
101.32460785 202.61257935 493.55453491
99.92089081 176.92167664 485.44134521
137.22949219 136.38435364 550.22418213
179.13400269 157.27000427 499.61798096
155.60115051 204.86689758 433.12164307
222.07499695 200.18600464 510.42495728
109.12870026 181.69384766 567.60473633
228.42399597 269.10202026 514.52703857
123.49259186 134.08688354 546.01641846
120.01036072 153.63368225 583.68939209
191.09552002 262.44631958 545.22589111
141.07662964 109.57508087 469.53237915
183.32621765 114.94451904 457.26834106
215.63301086 251.64500427 538.48999023
112.34839630 163.18905640 445.17376709
240.63531494 260.99966431 481.58959961
118.74119568 214.89607239 581.89843750
166.82623291 186.47715759 499.62768555
100.89472198 195.78494263 477.15789795
110.63127136 219.34416199 538.02575684
148.02125549 157.93461609 566.21948242
167.02400208 222.49600220 541.79699707
141.02973938 168.17190552 600.08825684
208.59799194 181.52526855 477.80969238
127.77018738 251.22442627 510.22869873
152.39871216 266.59420776 481.77285767
258.34301758 250.73999023 498.39801025
202.74749756 151.81707764 477.31088257
268.00701904 237.89801025 488.01800537
100.64030457 163.29273987 499.17037964
203.47122192 266.97320557 500.08648682
133.71490479 153.11451721 607.58666992
138.69276428 255.08645630 536.43542480
192.38198853 200.33900452 455.24902344
99.98680878 172.19935608 532.21209717
104.94799042 212.25338745 514.17028809
245.13598633 268.78198242 518.82702637
105.09720612 194.45126343 549.02264404
226.46899414 205.87940979 471.64779663
118.09294891 170.61097717 606.20111084
157.46234131 227.30270386 439.82107544
110.03351593 138.49655151 472.46798706
177.69500732 239.10200500 456.59399414
105.22924805 220.30928040 474.79190063
180.22399902 232.16099548 500.92501831
198.18302917 243.40789795 467.85482788
220.10099792 230.93000793 468.52999878
143.72038269 177.06359863 428.07107544
138.20782471 145.88354492 591.84838867
122.01372528 164.99778748 434.19592285
185.93876648 264.53363037 500.64343262
129.62033081 254.93684387 477.54293823
220.22200012 233.38499451 520.07403564
158.05250549 122.18540192 499.37051392
169.79731750 246.91354370 452.15994263
237.19500732 242.16699219 508.93997192
122.13067627 240.65618896 546.39770508
198.93998718 231.37399292 462.30099487
226.49971008 190.45504761 486.27951050
140.22212219 135.88270569 530.17150879
171.52499390 210.18899536 520.48803711
116.83670807 130.43432617 519.36212158
186.19898987 197.78500366 503.19201660
112.03385162 217.07618713 451.93026733
164.86856079 193.40476990 434.23190308
146.86891174 156.20765686 537.05554199
240.54107666 226.73712158 470.95852661
173.48500061 208.48100281 499.89501953
129.05302429 154.90522766 433.20336914
151.58900452 200.60899353 554.95001221
102.94106293 169.40626526 545.75970459
191.32701111 190.22799683 466.99700928
170.28791809 125.19136047 437.36828613
228.92900085 203.39299011 499.20700073
211.22300720 193.75399780 479.80999756
147.04400635 210.33399963 536.51898193
189.67900085 182.32600403 508.13104248
114.27481842 179.80035400 591.79742432
221.04803467 268.03851318 498.55801392
121.70217896 123.85210419 467.28265381
164.59683228 265.12539673 486.54937744
188.61476135 264.71197510 525.82977295
198.04299927 193.08399963 501.10800171
167.61399841 166.21301270 522.61102295
212.72698975 212.33299255 461.80999756
123.40553284 157.70755005 604.22760010
261.82119751 234.42045593 478.28234863
230.55000305 221.68299866 504.94702148
100.91251373 202.60412598 508.25738525
104.38862610 182.37129211 553.33074951
211.10501099 198.40798950 468.53399658
247.69900513 269.09701538 497.73999023
262.13049316 222.57319641 485.02096558
183.96125793 261.63021851 555.46588135
108.92988586 224.43220520 510.71618652
152.02540588 252.78904724 560.19616699
160.95526123 159.62606812 428.46798706
203.74104309 252.18685913 472.16564941
103.22296906 211.90698242 467.05807495
202.43418884 166.89208984 462.15029907
151.80490112 263.31530762 519.21282959
187.68278503 183.01963806 446.04718018
161.10997009 197.67614746 497.28451538
213.05200195 195.46299744 497.56698608
159.24032593 245.85072327 447.62887573
148.62947083 160.49447632 549.92907715
185.11813354 122.52999878 448.62011719
123.74004364 119.57019806 482.00720215
182.63005066 144.08238220 485.92343140
106.86463165 173.88088989 448.99426270
200.76959229 264.84240723 523.98309326
127.05757904 243.24996948 535.11218262
100.94991302 191.27001953 463.88156128
194.03999329 190.90199280 484.80999756
188.79200745 158.00399780 493.85000610
137.24844360 163.73706055 609.73138428
232.55291748 246.56221008 472.15628052
173.16514587 263.22726440 506.46817017
222.58226013 263.92745972 480.83337402
185.29512024 121.52900696 476.12008667
197.96099854 158.91799927 486.73901367
206.05101013 236.35398865 535.22998047
143.66400146 193.85400391 577.29296875
148.44989014 166.43797302 575.40264893
113.98576355 237.00503540 492.82217407
172.38845825 261.79534912 552.89147949
152.54353333 259.90368652 540.49182129
105.31037140 197.96173096 450.27590942
200.66595459 157.94358826 450.04641724
142.91677856 189.58024597 428.64151001
237.58900452 211.99299622 482.55398560
184.21398926 219.30799866 495.34402466
170.77650452 227.95158386 506.19714355
102.46324921 173.82575989 462.14840698
168.87576294 259.11853027 464.24542236
241.74432373 238.71318054 473.43222046
151.58250427 152.23376465 518.59210205
192.71501160 209.24699402 449.00000000
113.55287170 129.51502991 490.24594116
161.85308838 212.99685669 437.07519531
119.79903412 123.39502716 503.84002686
106.82906342 140.80287170 506.19201660
200.37744141 139.44215393 453.80096436
159.19099426 205.32600403 525.17901611
192.04348755 159.00587463 443.01031494
135.68499756 209.75000000 555.02899170
138.54492188 217.63623047 439.56958008
187.53184509 144.07617188 437.84591675
127.42620850 126.58882141 530.27941895
120.85917664 185.68865967 432.45739746
143.74588013 136.44725037 519.72735596
128.64941406 183.19622803 601.36621094
134.43409729 236.10971069 448.78915405
172.72930908 133.80500793 484.15087891
174.47720337 211.63142395 439.44577026
261.55725098 255.55807495 489.34100342
126.01317596 140.97705078 439.55203247
145.18914795 116.86286926 509.90490723
196.45649719 129.29948425 462.27365112
109.22111511 164.14842224 563.53186035
174.96794128 143.90223694 433.93896484
150.77870178 127.03354645 506.20858765
250.69767761 219.11012268 471.50543213
171.23599243 182.07000732 537.41003418
99.12082672 173.64421082 514.10736084
143.86468506 146.81494141 581.66406250
194.92631531 247.70446777 551.04064941
191.53300476 175.05000305 456.27600098
145.39639282 260.45614624 467.81140137
169.42068481 246.52717590 555.64434814
147.31735229 245.06813049 550.28820801
137.31298828 213.73599243 543.13201904
164.01899719 191.55000305 511.40399170
186.84999084 222.88999939 535.78100586
166.26568604 118.44464111 492.89202881
191.66880798 136.77587891 443.86557007
165.59654236 262.45077515 525.99224854
252.24826050 240.36589050 477.54705811
117.04869080 189.21098328 595.58056641
124.88124084 173.20436096 614.59851074
126.05764008 174.12928772 429.56588745
150.32485962 249.47532654 450.93679810
176.29948425 197.70606995 438.82464600
195.13900757 214.27899170 519.30700684
132.55935669 115.72879791 461.49212646
248.66000366 211.94801331 478.77499390
132.99877930 192.39308167 429.53793335
208.50581360 263.45327759 540.55474854
118.64462280 228.29275513 459.25534058
176.52404785 178.00315857 434.78298950
122.16493988 247.77770996 492.99902344
111.23347473 191.84001160 571.36016846
211.39100647 209.35200500 511.16104126
100.27358246 190.78897095 529.93273926
142.33410645 261.50460815 515.43511963
248.78900146 225.49200439 495.11401367
106.75362396 154.31735229 462.04455566
154.77999878 179.38900757 566.89501953
196.07899475 239.35798645 544.51501465
181.19953918 253.74468994 472.15039062
229.68925476 225.49665833 470.24707031
187.68055725 262.92462158 535.53057861
100.19441986 165.13870239 522.98278809
119.59645081 233.97299194 554.33721924
135.46670532 119.40006256 449.47784424
112.56565094 215.84735107 554.23284912
181.12200928 213.73799133 526.76000977
158.02799988 259.92776489 551.19458008
176.43000793 169.60301208 519.33001709
115.25997925 234.24499512 507.65496826
260.72711182 223.73834229 473.16537476
224.75793457 196.23991394 475.10281372
253.23355103 253.41040039 483.17703247
158.93618774 129.34461975 433.75070190
120.62480164 204.92744446 437.01342773
247.02299500 235.14500427 499.96502686
186.42900085 189.28300476 520.22998047
151.40939331 115.15853119 446.67034912
202.08200073 215.81300354 455.94497681
259.78799438 241.16400146 494.07699585
200.24600220 176.75801086 475.75799561
110.98038483 138.39436340 527.75726318
137.62428284 201.32858276 573.49938965
138.28710938 138.86593628 560.45257568
175.70999146 206.79800415 509.37002563
237.29100037 251.79400635 513.36700439
121.77397156 221.55690002 575.00402832
113.90930939 227.65359497 532.37219238
221.29891968 183.17166138 478.73638916
163.48486328 263.28631592 503.67642212
180.07667542 163.99072266 436.44818115
106.42053223 151.80671692 540.96557617
164.64161682 138.84405518 492.36871338
121.39498138 223.13734436 556.87695312
222.65299988 244.19000244 525.24194336
141.94943237 110.63899994 480.88964844
182.31999207 169.22601318 509.98699951
130.85379028 203.72990417 433.18301392
136.94454956 119.24794006 517.86242676
203.47500610 198.59400940 515.43499756
129.35224915 246.99873352 461.60903931
134.49430847 255.82951355 518.59484863
170.04420471 262.28390503 534.73236084
130.73046875 206.14454651 583.40789795
231.38603210 269.87820435 503.54724121
138.92300415 190.97599792 593.26800537
113.37674713 209.54176331 567.45172119
114.51966858 141.99702454 452.06320190
169.43301392 151.90270996 500.05264282
109.17582703 181.40980530 443.56863403
237.67100525 267.20498657 525.36999512
100.37751770 171.33843994 493.07437134
136.92689514 237.57127380 555.31359863
136.91690063 260.33364868 485.75915527
178.35205078 218.90904236 444.58999634
199.54200745 201.74800110 463.24499512
115.29906464 131.45751953 468.56121826
102.90242004 153.08145142 512.70220947
164.29737854 172.71958923 429.25186157
160.78770447 266.10281372 477.21646118
132.03674316 139.76063538 569.41790771
146.10671997 156.81767273 588.04235840
150.66703796 158.31365967 529.72857666
191.48390198 138.60658264 479.16091919
183.52294922 262.86148071 491.14883423
105.58774567 210.20550537 456.62255859
191.74600220 175.57199097 494.64898682
172.32345581 265.02294922 518.28143311
118.62208557 128.62260437 459.35971069
110.47097778 200.43862915 565.78710938
144.62020874 139.04106140 432.42691040
106.87414551 143.52056885 480.04171753
198.65399170 225.95100403 531.13299561
144.71905518 165.64488220 427.49575806
156.04800415 199.54399109 545.19000244
192.13299561 179.89100647 486.33200073
147.10610962 260.17147827 533.27264404
121.02548218 215.01142883 443.55700684
200.51271057 143.05857849 474.30636597
183.02600098 224.83099365 506.01000977
165.74600220 170.30599976 537.78302002
116.00460815 204.20796204 586.25280762
148.46508789 224.98867798 440.38571167
99.52806091 185.66426086 483.05932617
188.24099731 217.34100342 450.23199463
232.31517029 216.74644470 467.91842651
128.46713257 126.82576752 446.91461182
130.91990662 222.23176575 445.54586792
182.39300537 190.27900696 507.17800903
122.51468658 238.62298584 528.62792969
257.27099609 266.45202637 497.35000610
220.15100098 266.14801025 533.36102295
99.65148926 189.89962769 518.16528320
156.34510803 179.55337524 428.84240723
171.20333862 228.86755371 444.09973145
151.98298645 223.62699890 549.46795654
100.81608582 203.93232727 472.29852295
253.68887329 220.35690308 487.99212646
120.70570374 139.62522888 552.86535645
145.56527710 148.71856689 428.82275391
177.96171570 124.54316711 480.61694336
133.75671387 250.28273010 529.71960449
128.03884888 248.61723328 555.67596436
110.31912994 133.97229004 511.03015137
164.57550049 117.24034882 442.96859741
206.59724426 155.68334961 469.93746948
160.97399902 106.25379944 468.47302246
127.69383240 252.57948303 498.89343262
142.16868591 113.15750885 500.49578857
223.71971130 239.52775574 469.70208740
172.17199707 229.78199768 544.88800049
209.07629395 266.42941284 515.17144775
190.46199036 230.25000000 457.79898071
180.57400513 176.58799744 524.97998047
121.72042084 243.11784363 511.89572144
109.15228271 172.33792114 567.53759766
204.96186829 148.20338440 457.71456909
137.28724670 227.00395203 550.02441406
236.65100098 233.20199585 506.14202881
256.80099487 259.28900146 503.45098877
128.35632324 214.85107422 566.53259277
146.36781311 110.18355560 488.71121216
193.90599060 165.29800415 492.43099976
143.44360352 210.59532166 436.71472168
154.99308777 143.63728333 504.07983398
222.40130615 266.88827515 489.61163330
204.23600769 253.29199219 550.63098145
211.46069336 184.15428162 469.34802246
135.44519043 173.22460938 426.82513428
118.50569916 240.78901672 475.09799194
109.35818481 144.12039185 462.02331543
103.86589813 158.49299622 475.22766113
139.23577881 156.88420105 428.79736328
176.87899780 193.20500183 522.65295410
187.02830505 250.95927429 554.89739990
189.88038635 266.04235840 508.58599854
127.63604736 229.79974365 452.17971802
161.20713806 183.39323425 503.80194092
179.90858459 115.02322388 478.43405151
201.96501160 196.08399963 480.49398804
173.15016174 259.39675903 561.48333740
122.02200317 239.09796143 463.81774902
241.65655518 266.41284180 488.83630371
130.89363098 114.60048676 482.62121582
132.59779358 116.48303223 496.12472534
268.12698364 220.41099548 476.46298218
112.53952789 134.65750122 480.09295654
229.37271118 197.47700500 492.48580933
186.87500000 204.93499756 510.27297974
113.93429565 138.11601257 538.16784668
203.43699646 220.24699402 524.21899414
106.55482483 210.14283752 535.97186279
99.04655457 184.79019165 500.26303101
111.66195679 155.33027649 561.86541748
231.69801331 259.87802124 527.71502686
112.17803192 199.35600281 440.91174316
215.84899902 187.42500305 495.69699097
143.92776489 152.43832397 543.16552734
108.62793732 227.30139160 490.72723389
213.46299744 189.92399597 487.28497314
136.70086670 253.30215454 549.53619385
189.07968140 246.53561401 467.69152832
169.06288147 112.62014771 450.11300659
166.45468140 109.54080963 483.95755005
188.34500122 201.68901062 446.41101074
192.03860474 261.51513672 482.34387207
129.57208252 146.04061890 587.08325195
214.71099854 226.11099243 521.42102051
105.54301453 220.72125244 497.42758179
161.36399841 171.03999329 549.27197266
115.45665741 228.62437439 541.01464844
234.94000244 208.53999329 474.26501465
155.57238770 258.59719849 460.92898560
113.71842194 172.19792175 587.08062744
164.71701050 154.41499329 510.98901367
237.62191772 269.71871948 497.79269409
249.55099487 270.82299805 511.78402710
106.21232605 202.51155090 550.52893066
100.92025757 198.88395691 485.40924072
182.88398743 216.63699341 503.56500244
179.38136292 125.79384613 440.80352783
250.82099915 252.87899780 501.79397583
117.40460968 199.87274170 593.62963867
161.32606506 237.34255981 551.16436768
115.70922089 171.16111755 596.95281982
144.42059326 165.31579590 592.71618652
123.41838074 248.89738464 482.65567017
220.94200134 209.97300720 465.69500732
179.96600342 203.19200134 498.07901001
99.28703308 168.21984863 506.17694092
201.16600037 169.74299622 470.11700439
236.74200439 220.24198914 497.50000000
102.08244324 211.36640930 489.98370361
157.59872437 254.28390503 524.56475830
191.41043091 127.27072906 473.68572998
140.74748230 144.17463684 549.86187744
144.54499817 198.43600464 570.27502441
125.36136627 146.53561401 579.83612061
98.71380615 181.37039185 511.39248657
221.48063660 256.18283081 474.26672363
159.05912781 128.93183899 494.64657593
164.62899780 202.04899597 519.03601074
237.13000488 253.91888428 476.85369873
142.60601807 238.86660767 446.94552612
146.70434570 134.69216919 511.08050537
117.19265747 127.23705292 510.97601318
132.58660889 243.04319763 454.32843018
172.88488770 260.57092285 484.91665649
135.90965271 148.55146790 599.44372559
157.47900391 187.31101990 510.74618530
192.08343506 151.22790527 440.21951294
156.66000366 186.16099548 557.77398682
226.81799316 260.90402222 534.45300293
104.29496765 162.25096130 464.27291870
212.81799316 205.01300049 457.83599854
211.65164185 267.96655273 500.80828857
121.80937958 144.00663757 563.10833740
183.80229187 244.37646484 460.62130737
148.58799744 199.78498840 562.64501953
226.20199585 238.49000549 517.44702148
199.28688049 262.22418213 549.08624268
104.49020386 146.77371216 524.45092773
171.49545288 107.67629242 468.19241333
100.66417694 176.58114624 476.10162354
203.36546326 265.16781616 490.18734741
230.94515991 264.43350220 483.18450928
125.73292542 212.17813110 586.35687256
179.87947083 204.48075867 442.54513550
221.17601013 267.38919067 522.28692627
170.18499756 200.96899414 503.86798096
163.05346680 108.55533600 456.86660767
100.01117706 197.29455566 499.31671143
107.45595551 216.52441406 521.55493164
102.04136658 177.35469055 544.49603271
160.35301208 161.89700317 524.13702393
178.51707458 110.32241058 462.07095337
156.08599854 211.80999756 536.64703369
174.98600769 188.05000305 504.69702148
137.77711487 125.48538971 441.34097290
163.39295959 251.48085022 560.48126221
108.79414368 218.07553101 530.06817627
113.79647827 184.86988831 437.83786011
243.18600464 250.72198486 506.57998657
149.33599854 187.39999390 572.62200928
243.08900452 262.02398682 514.90405273
208.08200073 243.32499695 539.07800293
145.66941833 255.00601196 540.58715820
190.30374146 123.35838318 454.88851929
178.92498779 225.34799194 496.13400269
154.58740234 135.47109985 431.22207642
209.36801147 230.81900024 465.95800781
127.90825653 135.37699890 553.67895508
180.83299255 163.80400085 503.97402954
151.52798462 169.10113525 568.61285400
211.02999878 253.69599915 544.73699951
110.65365601 216.47058105 546.13031006
101.32117462 159.17213440 529.15179443
162.99185181 263.20581055 468.07888794
185.48500061 224.63000488 452.52902222
207.41995239 263.66360474 482.25753784
159.15322876 152.03318787 429.37677002
223.12399292 219.38101196 508.82696533
159.50000000 167.11399841 541.62500000
166.22099304 160.66099548 515.74804688
105.56784821 164.51957703 554.17614746
124.86701965 222.12124634 550.37866211
127.96150208 123.09833527 522.73486328
168.15798950 209.32400513 527.84301758
145.59767151 150.69230652 571.07427979
172.79000854 191.67399597 531.34796143
144.99371338 231.91104126 443.63964844
106.77808380 143.98535156 498.44668579
138.54945374 136.75749207 541.67663574
145.03608704 264.61099243 483.84988403
126.94435120 120.24645233 503.46069336
120.98492432 155.24795532 591.36187744
159.50700378 223.47200012 544.15295410
166.63505554 262.89337158 494.41366577
163.87001038 185.22299194 546.04205322
165.57299805 168.59899902 529.88305664
180.03045654 244.60156250 552.21282959
200.17900085 195.84399414 508.21398926
136.34170532 258.50436401 496.79656982
114.09937286 155.15617371 447.24929810
187.89773560 129.69718933 444.16848755
128.01469421 147.81507874 436.17764282
115.53777313 193.60623169 436.52008057
175.00000000 223.16999817 540.40496826
115.59808350 235.55947876 481.23883057
153.10021973 119.35662079 504.62145996
196.57400513 182.09800720 459.52099609
155.07975769 195.34701538 432.61050415
108.97608948 227.44351196 473.23803711
268.08801270 257.71200562 493.11502075
160.62701416 114.89902496 497.47045898
194.06700134 192.99000549 473.82598877
115.63659668 162.73550415 585.16455078
133.77986145 209.15885925 562.59344482
147.31568909 175.17178345 578.38232422
103.24779510 205.98403931 521.11706543
176.14756775 158.20384216 432.83181763
218.20199585 195.93499756 505.09899902
187.34799194 234.39500427 544.59704590
141.06028748 251.69816589 457.56018066
206.63046265 264.66851807 529.93231201
169.52120972 253.21841431 458.06869507
213.73300171 234.51399231 525.61199951
171.90744019 189.78242493 434.86203003
196.17300415 191.43701172 492.29400635
117.59687042 161.20982361 439.60299683
122.99270630 127.73784637 452.53970337
125.29524994 129.83415222 537.08905029
169.27400208 197.58500671 512.49499512
182.39404297 151.86729431 491.73297119
109.12012482 150.53384399 548.09527588
123.29853821 120.14256287 474.18930054
100.01882935 179.14460754 535.64813232
174.70252991 234.13516235 449.34060669
183.47282410 262.42898560 547.83996582
226.72900391 225.86799622 511.01296997
116.88136292 233.05281067 527.92425537
142.18408203 173.59237671 592.43096924
218.83522034 197.47183228 468.21887207
103.45277405 204.69308472 530.91119385
215.10400391 216.16200256 512.13800049
200.44824219 135.77651978 461.24520874
206.30944824 246.00744629 468.87451172
145.06484985 263.19412231 501.85711670
110.05084991 134.71459961 496.30566406
266.66598511 228.76599121 485.15002441
184.61627197 189.72222900 443.72546387
131.09986877 118.68945312 512.71429443
162.26472473 187.41793823 430.57254028
152.94633484 109.78725433 454.95825195
157.22416687 168.87100220 553.39392090
182.87899780 233.52700806 455.77697754
174.45523071 131.22218323 434.82092285
122.87470245 241.64669800 553.91210938
115.67752838 209.20628357 577.73687744
150.53404236 107.52632904 469.22100830
127.10174561 202.64321899 590.54162598
135.13525391 138.85334778 435.27975464
181.72290039 265.73626709 521.06237793
181.52099609 211.68800354 493.76998901
268.84927368 235.21835327 480.75296021
147.62864685 262.28042603 525.68933105
152.01536560 239.16145325 551.34411621
189.27415466 168.87060547 445.96414185
160.48278809 189.17169189 495.17550659
143.44178772 148.21885681 533.55078125
238.01899719 269.95797729 516.60900879
178.59921265 236.01762390 548.19610596
218.66899109 208.40699768 506.99002075
176.46661377 114.43692780 451.90078735
157.72282410 264.15399170 508.06182861
148.05981445 158.72013855 559.00335693
158.13291931 220.21949768 437.46405029
101.00360870 159.63345337 492.41372681
113.14406586 228.98318481 519.49224854
105.74230194 190.75473022 448.03836060
145.27722168 226.83361816 551.11645508
142.29478455 145.29881287 560.54168701
118.01417542 234.25411987 545.75292969
119.33614349 176.81246948 610.98376465
214.61500549 202.32299805 511.82199097
157.78266907 239.29373169 443.34274292
103.52725220 152.95965576 480.96975708
160.21199036 198.29000854 508.21398926
101.06852722 159.12213135 506.69192505
118.44960785 149.09671021 567.67584229
107.13857269 180.78343201 560.17889404
226.28715515 250.77438354 471.82568359
161.33500671 199.37699890 532.46099854
186.09065247 116.54834747 469.16510010
204.60354614 148.28147888 470.26611328
160.70007324 166.45550537 426.16220093
214.77999878 219.82299805 464.86199951
105.58341980 217.64233398 509.42349243
149.43527222 265.30361938 493.37054443
219.32099915 247.91899109 530.74096680
115.45586395 222.87565613 455.03723145
113.68771362 194.64762878 579.42071533
265.63452148 246.68980408 487.68893433
214.31300354 262.86798096 546.27099609
194.22698975 182.48300171 467.32800293
116.58830261 124.97700500 497.30267334
220.83500671 256.82800293 537.43701172
149.16310120 199.92102051 432.31567383
111.77952576 169.92877197 442.46157837
188.43301392 215.17900085 522.34503174
135.44696045 177.03543091 601.40997314
229.62899780 206.51699829 490.18200684
132.68441772 158.60098267 612.66326904
199.51899719 165.94999695 482.76699829
130.17173767 252.37524414 469.70401001
223.57450867 186.59367371 491.84085083
188.26580811 176.23455811 446.88961792
153.74487305 148.65841675 510.61474609
174.76057434 109.88314819 474.81045532
141.31195068 110.72341156 462.21011353
111.51548767 165.76638794 572.67962646
203.17399597 237.46200562 466.22601318
172.46153259 171.77091980 431.13308716
119.26919556 145.09674072 444.54476929
153.09300232 194.55200195 558.81604004
154.24951172 182.38352966 503.22003174
161.61199951 142.99423218 429.61242676
116.17957306 157.87928772 579.16955566
101.76316071 197.50193787 528.25561523
165.56140137 261.47601318 549.40197754
114.65454865 186.16067505 586.46136475
123.16291046 240.82142639 521.67382812
172.11122131 125.27170563 484.56759644
141.82518005 128.69970703 521.20605469
144.10528564 149.37716675 588.57629395
207.18600464 197.74299622 475.22198486
202.17243958 258.82803345 555.07666016
178.50759888 150.18313599 433.00613403
162.60523987 201.54568481 433.94638062
108.22718811 204.18255615 448.11404419
223.58468628 268.74121094 505.66857910
128.11791992 152.56507874 602.16320801
103.50212097 214.71437073 482.79971313
175.22103882 256.15002441 466.31756592
133.75993347 209.82579041 569.29772949
140.67170715 142.72085571 576.46118164
203.54100037 206.66400146 513.39001465
104.79763031 144.81643677 512.00427246
146.54864502 251.97103882 555.37915039
175.72399902 178.54400635 532.73101807
191.02500916 179.61799622 501.34997559
163.87992859 231.77787781 441.08712769
126.51778412 180.39353943 607.54827881
186.30688477 254.42535400 477.83731079
101.13847351 169.17935181 538.69219971
206.46899414 203.54100037 462.34500122
101.79294586 184.78623962 460.92761230
145.83052063 108.82205963 474.77801514
212.41700745 188.16400146 475.38800049
119.85682678 178.10983276 432.76278687
187.63000488 175.47898865 507.30300903
140.12026978 157.42570496 605.41082764
192.78199768 190.64399719 505.36297607
180.30335999 256.82577515 561.79522705
135.07403564 257.68750000 473.83233643
146.89952087 162.63893127 584.14666748
132.61753845 167.08920288 614.46362305
160.64801025 196.58799744 540.55999756
147.70068359 146.66799927 518.06988525
104.11702728 162.49325562 546.34533691
153.29989624 162.89576721 537.01489258
102.10447693 193.22267151 457.02340698
98.82922363 183.48744202 489.84994507
137.00621033 111.40859985 475.24679565
103.69723511 175.63143921 455.27005005
119.73490906 151.11926270 577.07617188
210.84745789 251.71446228 471.38348389
189.00300598 192.80400085 452.24301147
108.09771729 200.12591553 557.42718506
123.06806946 157.13272095 436.53799438
153.20477295 109.30657196 487.13003540
170.52600098 196.22099304 520.09704590
230.66999817 216.66699219 499.94097900
175.65887451 262.97601318 500.03689575
201.28536987 150.04119873 450.21621704
193.87249756 265.70877075 516.78955078
119.78550720 160.89346313 598.95019531
214.92178345 180.91310120 474.69158936
130.82287598 197.39843750 587.85650635
182.79421997 179.25463867 440.73587036
168.74835205 158.37701416 430.08822632
154.24322510 162.04266357 427.86303711
198.27600098 177.37100220 482.92999268
214.63676453 264.23022461 537.64312744
186.10740662 162.17272949 440.00714111
108.24961853 217.36158752 458.34262085
188.08399963 184.19801331 515.66796875
119.63176727 129.18725586 525.74682617
162.98834229 261.29299927 534.76824951
232.33300781 254.78601074 522.27001953
102.30278778 206.44717407 499.58786011
252.15899658 239.57798767 498.18701172
125.31827545 217.54090881 581.68524170
190.28067017 262.09869385 552.45574951
148.94116211 181.64047241 428.85900879
132.80029297 187.62797546 595.21459961
175.03755188 245.35998535 456.67202759
105.85099030 188.97463989 553.27313232
237.81956482 220.09176636 470.78793335
264.93701172 246.82701111 495.38800049
152.18003845 231.37689209 441.77957153
185.16000366 225.35000610 499.29199219
217.18435669 265.42114258 484.88812256
161.58799744 215.46099854 539.54199219
126.79248810 133.84158325 442.99871826
185.43099976 217.79299927 530.39904785
150.88647461 209.79777527 435.62100220
123.51906586 189.26824951 599.28381348
261.91900635 264.53799438 503.27099609
192.37500000 194.72299194 461.81698608
137.80816650 206.89796448 434.18246460
230.75199890 208.94500732 483.78698730
149.30101013 202.53799438 548.30096436
104.17121887 175.65304565 552.35876465
165.46621704 228.48387146 546.18499756
151.21015930 246.92898560 556.55706787
138.34822083 132.91203308 436.01559448
149.35398865 204.88398743 540.05303955
160.89099121 182.84300232 551.78497314
176.82099915 149.06651306 491.84967041
172.36628723 239.93728638 451.54598999
171.06700134 214.19599915 533.91900635
191.48699951 186.10400391 489.61499023
104.21360779 152.15281677 532.31195068
179.47642517 139.17192078 435.69433594
215.82151794 242.38409424 469.67474365
114.71850586 236.42414856 499.78720093
223.89112854 189.52395630 478.39678955
204.37399292 195.95800781 502.76202393
159.17428589 262.56347656 523.08068848
246.87432861 260.68075562 484.60397339
108.02857208 166.89489746 450.25225830
143.45700073 215.12899780 539.88598633
99.54971313 171.21418762 499.96255493
225.50299072 197.75900269 505.00799561
168.59281921 143.44119263 430.32043457
112.59996796 146.20606995 551.94287109
211.03942871 182.53878784 484.15478516
178.74089050 138.64334106 483.95877075
168.25700378 207.23500061 515.13397217
134.02462769 204.29592896 578.04211426
251.51100159 264.53500366 509.54699707
196.53700256 238.06298828 464.70498657
182.67098999 210.42999268 506.41799927
175.43379211 233.07141113 505.55014038
103.48470306 209.38380432 507.90518188
166.38200378 194.09100342 498.80902100
217.88999939 189.82000732 502.08200073
112.70300293 227.72378540 466.23449707
121.83125305 167.54579163 612.05163574
139.83012390 182.65988159 427.86584473
128.29896545 250.30299377 517.01062012
132.83981323 247.67375183 560.65466309
128.53504944 166.71705627 429.90481567
188.15199280 228.19200134 539.85498047
108.95682526 160.41714478 452.50048828
202.41198730 222.01699829 458.72100830
110.74285889 173.99003601 574.01715088
171.26300049 174.26200867 537.67504883
99.81233215 191.93276978 486.90347290
102.06439209 190.27256775 536.55133057
122.97417450 219.64955139 562.99102783
156.91752625 250.84385681 451.62530518
147.47927856 263.93997192 473.27722168
140.36718750 195.44818115 430.78921509
100.16425323 197.96038818 469.18307495
159.39900208 208.62800598 531.68701172
110.27010345 144.43702698 540.32067871
117.44497681 216.35105896 574.33721924
195.69209290 144.22193909 479.10671997
143.16712952 176.63830566 586.32739258
182.31999207 233.79600525 507.09802246
133.92321777 250.80546570 538.20281982
178.39027405 263.17068481 533.62988281
202.64500427 158.36000061 480.13800049
129.28317261 131.03445435 544.32550049
157.09799194 172.31098938 561.85003662
206.73664856 267.18182373 506.07019043
166.41413879 106.83311462 463.92947388
156.57202148 257.60830688 559.04742432
201.50500488 238.21400452 539.79699707
141.16198730 206.02799988 556.06597900
110.94231415 232.32272339 487.20046997
105.41712189 220.88708496 481.89382935
99.10603333 171.34902954 525.13952637
126.17222595 245.74642944 548.43420410
243.17399597 240.48100281 504.35299683
261.45669556 260.89080811 493.44445801
105.24479675 203.83543396 541.65789795
152.39152527 244.78616333 446.70245361
197.20498657 169.61201477 459.27041626
165.69572449 128.58702087 434.05648804
130.29301453 214.20510864 552.89526367
216.55699158 256.84600830 542.53002930
146.05413818 184.04089355 577.79309082
146.82991028 153.06274414 529.04278564
231.53300476 266.21600342 532.67297363
250.04905701 215.63217163 485.08047485
115.73907471 177.26214600 602.14978027
250.74099731 270.28399658 505.03302002
181.32099915 190.31399536 513.72900391
117.15241241 168.40583801 437.30075073
200.52101135 231.49800110 535.09600830
135.46386719 255.56204224 525.03125000
101.37677765 170.17944336 484.46209717
131.66744995 255.86572266 503.85171509
136.72315979 170.60504150 606.04101562
99.84563446 198.43547058 513.05200195
114.77877045 148.15707397 448.69805908
100.31774139 165.69316101 531.69317627
135.16119385 248.33551025 458.86245728
126.68731689 218.17082214 572.03979492
190.76100159 198.97200012 507.82901001
174.76400757 211.92399597 526.76202393
201.17401123 170.74899292 478.53698730
241.05699158 210.82299805 477.05398560
155.02006531 159.22967529 523.75164795
201.01899719 212.19700623 517.13299561
244.66961670 232.93072510 472.73474121
176.47402954 257.84475708 479.26327515
126.73012543 190.19664001 429.56854248
200.24349976 137.70762634 469.06146240
145.36354065 124.88928223 439.09951782
185.97599792 162.32701111 497.92999268
228.26062012 211.38157654 468.47711182
198.03579712 265.75610352 495.87762451
201.17437744 164.44084167 455.74151611
141.39999390 193.10900879 583.82598877
178.21803284 169.82771301 434.97729492
232.11599731 239.17100525 512.04699707
244.74790955 221.37864685 470.50167847
102.04803467 156.07669067 500.50909424
142.88647461 250.87075806 547.69958496
218.66952515 267.22348022 515.71197510
157.26971436 264.10153198 515.98364258
213.60301208 202.82800293 464.44100952
252.94854736 247.46696472 480.36639404
122.38758850 233.45686340 459.51788330
154.69586182 110.82962036 493.34423828
194.59187317 266.68258667 504.32080078
141.66975403 242.47994995 554.74407959
177.34199524 224.54699707 509.16497803
100.66172028 187.34545898 476.83169556
147.86463928 172.32644653 425.26458740
122.97269440 248.36982727 475.94470215
118.41349792 134.07508850 453.35543823
183.14558411 264.78250122 506.30700684
186.55636597 257.71780396 560.50134277
206.35342407 150.47972107 464.29873657
160.33842468 108.41456604 482.22265625
147.14382935 111.34894562 495.12121582
125.88955688 119.65335846 464.62908936
159.87872314 106.39080811 474.91140747
197.33836365 150.87399292 481.84017944
147.72953796 194.24246216 429.92205811
225.99800110 205.91300964 504.37402344
202.35699463 194.01300049 496.41000366
123.91181183 150.66928101 587.90014648
227.85800171 249.56199646 523.52099609
184.42199707 180.92100525 522.17297363
168.05090332 112.96955872 489.93707275
137.64672852 130.76570129 535.66339111
116.73113251 125.29923248 486.44696045
110.59545898 181.79595947 573.91662598
123.72274017 199.07807922 594.86932373
125.68423462 243.93615723 542.02709961
107.56723785 223.37916565 504.29547119
265.86599731 254.25601196 498.66699219
153.03460693 266.22122192 488.16546631
176.58900452 209.61799622 516.57702637
219.44900513 238.66400146 523.64898682
150.01580811 119.42141724 442.17990112
175.15890503 224.00837708 443.56427002
252.43800354 233.54100037 496.05300903
136.94961548 258.17871094 512.49084473
207.26400757 212.92401123 458.36801147
232.11399841 227.31600952 507.56900024
102.84281158 211.51937866 475.76626587
128.39772034 116.32824707 488.40649414
119.69280243 132.87673950 538.81958008
108.10225677 221.70416260 516.46551514
166.13652039 240.92004395 552.19171143
168.66061401 263.46389771 479.88894653
153.65177917 264.15554810 500.39398193
173.10018921 242.15820312 552.87792969
137.21926880 114.23116302 456.68237305
212.69099426 194.16999817 473.26699829
153.42520142 126.64471436 435.92691040
214.89900208 227.66700745 466.25201416
192.51799011 186.55900574 461.73699951
212.01699829 220.94599915 518.87103271
104.15727234 193.93334961 542.54998779
203.68299866 201.28900146 468.04199219
100.71484375 185.26589966 532.83746338
270.91699219 243.60198975 489.14999390
103.29304504 186.91729736 547.34057617
180.08099365 194.38700867 501.36602783
99.05884552 169.14270020 518.32635498
235.17297363 229.92160034 470.25494385
152.09889221 230.07553101 550.35833740
110.96794891 135.09030151 518.76184082
160.03131104 139.15428162 496.24121094
101.26135254 176.31243896 469.68832397
148.43800354 109.31216431 459.51345825
192.57000732 224.78599548 533.89398193
180.47460938 192.80004883 439.76528931
118.86933899 242.89389038 494.91888428
196.83888245 139.92070007 447.79644775
123.06243896 247.53106689 499.32998657
155.72050476 196.02528381 497.17153931
184.54499817 203.88500977 504.52499390
189.23098755 210.80300903 517.52600098
190.99958801 182.34265137 451.73794556
167.27706909 187.16261292 507.64245605
152.79620361 151.08013916 429.51684570
180.57499695 222.17500305 537.68597412
247.67091370 254.34857178 480.66299438
112.91788483 212.80134583 561.96099854
102.78021240 160.00384521 481.36026001
193.94799805 215.09901428 451.53100586
142.74263000 119.99278259 515.82244873
99.60367584 186.08464050 525.75482178
116.18107605 221.91531372 559.89544678
101.70034790 205.21896362 465.71099854
208.52799988 194.69999695 485.37200928
197.17835999 253.59642029 473.55285645
126.30814362 218.29370117 444.82095337
166.78637695 144.77134705 494.69732666
228.91500854 206.62300110 477.49700928
176.70599365 214.12899780 496.90899658
101.33219147 205.67306519 486.70010376
132.83547974 124.93531036 532.88763428
226.90800476 211.88600159 498.14999390
172.88699341 227.26400757 502.09396362
192.79246521 258.32476807 477.18334961
143.83900452 207.63101196 542.21496582
110.35975647 210.46853638 449.04156494
177.27899170 213.36999512 505.41900635
207.48661804 265.61578369 521.17376709
173.96386719 203.90594482 438.81747437
147.91506958 158.36563110 572.32104492
145.42491150 244.67309570 448.73757935
100.97169495 191.00300598 470.21206665
134.09716797 135.51721191 555.51214600
215.19097900 234.38635254 468.29849243
147.88139343 109.18102264 482.66088867
142.08164978 141.61866760 529.01025391
98.75574493 190.83288574 500.82971191
184.34393311 250.07144165 469.00357056
151.98292542 138.26393127 504.39096069
187.91020203 261.94241333 486.77059937
130.79089355 141.69874573 575.45416260
189.18798828 119.49758148 459.56039429
110.87973022 140.87138367 533.57061768
120.62986755 172.04249573 433.01394653
185.60725403 115.28304291 463.09265137
125.15366364 236.38839722 558.78118896
133.42564392 230.14375305 447.61697388
148.73454285 164.27793884 569.67181396
145.25198364 154.99591064 551.33551025
106.53288269 144.64170837 490.45300293
237.20300293 215.34700012 489.79699707
108.73843384 213.44201660 540.82592773
140.34271240 141.93020630 555.51135254
156.98942566 192.69815063 507.45697021
223.35752869 185.25660706 485.28524780
220.69645691 224.29440308 468.26571655
134.74221802 199.61209106 430.63571167
103.04274750 149.86390686 517.86364746
189.45449829 244.89118958 551.46423340
142.81130981 256.94757080 463.39984131
224.62699890 232.66200256 515.66400146
104.11203003 149.95553589 496.25515747
238.08808899 243.37054443 474.60092163
136.22698975 219.55799866 544.74005127
252.18901062 247.24299622 498.67401123
158.44877625 115.26324463 445.01501465
130.63409424 251.18099976 549.54077148
126.37594604 207.18666077 436.12051392
114.15467072 232.57109070 475.97677612
169.79837036 138.01620483 488.08975220
113.06732178 223.06445312 543.91595459
155.11700439 196.06498718 552.91601562
192.33444214 143.39842224 442.18740845
227.85099792 197.39100647 499.07498169
135.20016479 113.45075226 466.40060425
265.82400513 228.16506958 475.81796265
172.12738037 250.94848633 558.60681152
112.41313171 187.46775818 577.35119629
206.20860291 256.99893188 474.84869385
197.74241638 253.79530334 553.38702393
162.54170227 123.79853821 493.98873901
138.93234253 143.22996521 584.24041748
175.39399719 158.88999939 504.12899780
123.76702881 122.86579132 508.43704224
164.58302307 243.09541321 447.16021729
107.40274811 186.60607910 561.35882568
140.36004639 140.15176392 535.06610107
136.47760010 112.35924530 482.79666138
105.05867767 217.59149170 466.92944336
145.46490479 115.66603088 448.09243774
174.78340149 262.05810547 547.43560791
188.74209595 143.39602661 482.61578369
229.26895142 241.39501953 472.56396484
226.79959106 194.39402771 480.66430664
173.20899963 170.19900513 525.55603027
133.78652954 258.45910645 480.15222168
138.06903076 139.50764465 566.90679932
244.55000305 214.65200806 482.29699707
143.87548828 221.25274658 440.62576294
183.72674561 147.86857605 435.10839844
142.72145081 150.84159851 594.90240479
256.87799072 225.41000366 488.83798218
197.88900757 208.78698730 452.07101440
138.82272339 150.96925354 430.78765869
222.33549500 202.40126038 468.97705078
99.68608093 177.10647583 529.01757812
262.16699219 235.26098633 490.38400269
99.85861206 177.06713867 492.15042114
206.35522461 162.45323181 462.86434937
126.59062195 158.67561340 610.04760742
241.31500244 255.57398987 510.97702026
241.87199402 222.66000366 495.50000000
227.03474426 192.13905334 494.09582520
133.42359924 123.70178223 445.50341797
187.75500488 193.35200500 507.21902466
169.06100464 158.52899170 509.96704102
153.60789490 262.32058716 525.48461914
176.73069763 257.50912476 472.51797485
259.40600586 217.76300049 482.72100830
204.40899658 229.03298950 463.04101562
198.29200745 180.03199768 471.13299561
117.76769257 138.89451599 547.53192139
192.15402222 265.14791870 496.88018799
111.87893677 228.88249207 513.10644531
133.67564392 251.96766663 556.45172119
173.86099243 202.55899048 499.25299072
107.08454132 138.81736755 512.82226562
206.78498840 232.74501038 529.98901367
135.54223633 212.71440125 438.72018433
113.70095825 162.98898315 577.40051270
262.60647583 240.89126587 481.88024902
112.57006836 174.65589905 581.83209229
106.74188995 158.56936646 457.73263550
217.07395935 267.32632446 491.96984863
154.21238708 266.37387085 476.16131592
203.19331360 262.88900757 544.84765625
161.16499329 167.40199280 535.35198975
147.91838074 122.48166656 511.24053955
111.68582916 159.76960754 566.47253418
153.31498718 207.88499451 533.15899658
196.43173218 152.26301575 444.53555298
171.02964783 263.14691162 529.26770020
192.88800049 155.86199951 490.13900757
140.44631958 259.98342896 471.24429321
263.00955200 218.38169861 474.32986450
144.58699036 204.23799133 560.55303955
126.41699982 242.82394409 529.02612305
252.96524048 224.80534363 473.10699463
163.73478699 225.00183105 438.47280884
176.02676392 264.95724487 513.89733887
104.25486755 203.54527283 454.71353149
158.83871460 260.70648193 538.83850098
187.42660522 150.94139099 488.11343384
161.55751038 260.31503296 463.12152100
107.60876465 143.51615906 470.91867065
125.16996002 179.89341736 429.80554199
160.89700317 205.86499023 516.53497314
131.41052246 216.98257446 442.19567871
118.57906342 165.45478821 602.48175049
167.03900146 195.32299805 533.11096191
226.13764954 268.06127930 494.14160156
110.14000702 211.82090759 550.59606934
170.80299377 219.13400269 538.81103516
130.70768738 240.73359680 558.77246094
182.16316223 117.47360992 452.13049316
149.69400024 217.08399963 543.15100098
196.54699707 198.22700500 512.14898682
118.02539825 209.54972839 587.88500977
127.99744415 197.68907166 431.12579346
203.47871399 265.75299072 516.31860352
199.79721069 263.35308838 485.00527954
141.49125671 259.00411987 531.90338135
111.86308289 230.21704102 505.42794800
222.87417603 268.08258057 511.98822021
190.66799927 185.64799500 482.42700195
205.54299927 163.14442444 469.52188110
237.56994629 265.03292847 484.46697998
199.10336304 248.76564026 471.06991577
122.16926575 124.49797058 461.13131714
115.91945648 212.92823792 445.30899048
165.44302368 166.91087341 429.79620361
242.05000305 269.08300781 494.55801392
162.95185852 122.05234528 438.64163208
120.16190338 240.15493774 469.51583862
108.39664459 196.01196289 444.27062988
197.67401123 244.01100159 547.59094238
118.91127014 238.27731323 511.65454102
104.95833588 213.67895508 461.77413940
134.90655518 132.27587891 544.74591064
212.06091309 184.76135254 489.48703003
153.43644714 258.99929810 547.71453857
176.11302185 111.52353668 456.95291138
168.39785767 263.02706909 509.45376587
255.93995667 256.66500854 487.16958618
208.77101135 195.26701355 493.53701782
167.89793396 215.74905396 438.26141357
194.91963196 127.52650452 456.83428955
183.81900024 186.56300354 524.58898926
168.89198303 197.26989746 435.18576050
158.09962463 266.65991211 482.73126221
145.58395386 149.80261230 577.06799316
195.34500122 196.59500122 469.25500488
266.94198608 223.41200256 482.00900269
139.28474426 116.29071045 508.65930176
157.52088928 209.13224792 436.29833984
170.84031677 120.14962769 441.98544312
181.90971375 158.80128479 436.25283813
217.32800293 207.77200317 461.25201416
182.88099670 216.96800232 447.18499756
198.51553345 133.87670898 455.93682861
139.56692505 112.88517761 495.35494995
122.35418701 246.18272400 504.94427490
98.72701263 183.36297607 517.72320557
179.50460815 260.33352661 487.75906372
157.43315125 233.55703735 441.75827026
151.33325195 177.39434814 425.91061401
170.04708862 262.32421875 500.84197998
217.81800842 214.76599121 465.62399292
144.42393494 148.59194946 565.75781250
216.21597290 263.08959961 479.70230103
258.16394043 251.60440063 485.13217163
108.10334778 137.49156189 501.61224365
227.17849731 231.80648804 470.26510620
214.09960938 266.48373413 518.76251221
132.62234497 193.08177185 591.79711914
157.72612000 250.94258118 559.92889404
165.54223633 263.36013794 519.72564697
254.89479065 234.73561096 475.86224365
118.27452087 143.50524902 557.02386475
189.10375977 133.14265442 477.76559448
249.39836121 213.59492493 472.28897095
162.32499695 190.39799500 544.24298096
152.88700867 187.03800964 565.02600098
132.37152100 150.34910583 433.00238037
151.31262207 132.09573364 503.43972778
251.29624939 266.24911499 494.25271606
240.40699768 263.77801514 520.03601074
121.14244843 126.84326172 519.23901367
178.93080139 133.01124573 481.79156494
147.84013367 144.14801025 431.08105469
101.66283417 158.35664368 514.59332275
98.71736145 173.86355591 508.31948853
234.47300720 270.04598999 512.17901611
174.06398010 138.46029663 432.92663574
139.77807617 116.10906982 450.88522339
144.68933105 156.27919006 593.71362305
247.52250671 244.42700195 475.98764038
106.85912323 225.22499084 478.73532104
105.01201630 170.36045837 453.88269043
129.04069519 160.22880554 431.63510132
103.92018890 158.39060974 541.61224365
191.77299500 189.15699768 477.29598999
131.64497375 251.18151855 521.43518066
190.80000305 186.42300415 501.82003784
178.08786011 261.85992432 553.19512939
121.15229797 225.93212891 454.70693970
230.61401367 268.93499756 519.73095703
196.52600098 164.38899231 487.51599121
132.96197510 137.05886841 562.32354736
183.69096375 138.96916199 481.95697021
166.78421021 209.48854065 437.70013428
184.91680908 262.44921875 540.09539795
226.65299988 217.25199890 503.85302734
193.99107361 126.89179230 468.65838623
139.41654968 130.29193115 529.16381836
132.59341431 117.73490906 454.11380005
196.11000061 177.09001160 489.16000366
208.55499268 223.84800720 522.91900635
133.88427734 157.14164734 430.82836914
125.72601318 141.27706909 565.99414062
172.94700623 186.31799316 534.15600586
114.38503265 134.31626892 526.05023193
151.08096313 163.50947571 563.30859375
172.09300232 166.17700195 518.34399414
196.12802124 160.42529297 447.08215332
117.87467194 198.61695862 435.90795898
149.89573669 171.82427979 572.90698242
257.54830933 239.49678040 478.65478516
148.38586426 159.64311218 544.25958252
241.64498901 234.41999817 503.91000366
133.82305908 257.17861938 491.07327271
163.82038879 251.14527893 452.94396973
137.61447144 151.77545166 603.75903320
177.15400696 220.04699707 495.89401245
184.49026489 205.34216309 444.65222168
139.72795105 173.30816650 598.38696289
123.80730438 228.72888184 552.75836182
109.01791382 157.89198303 557.78729248
162.27799988 176.19299316 551.21997070
139.23341370 261.03329468 501.58273315
158.76679993 148.19366455 504.79501343
162.67098999 133.56904602 491.38293457
108.54529572 149.90513611 459.10031128
167.83027649 254.60528564 561.56994629
132.68472290 133.12863159 550.45849609
156.05754089 235.57557678 550.07836914
111.79058838 135.00105286 487.21081543
248.60099792 221.87899780 489.66699219
196.53157043 262.71624756 543.96972656
131.29075623 226.58187866 548.62042236
210.25599670 238.75500488 532.50598145
242.39556885 254.58729553 478.40420532
187.56500244 211.15599060 447.42199707
171.34672546 183.08477783 434.26855469
190.62001038 185.24900818 471.77099609
100.40481567 197.13865662 463.57684326
106.83513641 150.21041870 465.61642456
140.23521423 184.45257568 588.94500732
137.45187378 253.89408875 541.41943359
207.48100281 202.41899109 515.34301758
152.39904785 253.14599609 454.60629272
171.60289001 177.05366516 431.41690063
169.68899536 202.93200684 511.15899658
147.15191650 170.22343445 580.30187988
120.16277313 122.97595215 477.87225342
264.10592651 218.91172791 479.93945312
119.18750763 122.43508911 490.91278076
113.15785217 228.37248230 525.09802246
258.70480347 228.07447815 475.83410645
218.39300537 214.72799683 507.94500732
137.24699402 210.69699097 547.73400879
121.03952789 222.01109314 569.48754883
166.75091553 261.35565186 555.16687012
120.32534790 210.36740112 440.66287231
188.72763062 243.11479187 464.01266479
234.09199524 244.66101074 512.72998047
114.78607178 203.47396851 580.66015625
254.59899902 214.36700439 482.28201294
116.17668915 185.05984497 599.21588135
102.85693359 167.44209290 464.36322021
186.23342896 137.15820312 439.52542114
98.91899109 182.01448059 495.36184692
130.73876953 136.93165588 438.08505249
137.68156433 233.01562500 445.61291504
136.05976868 140.63150024 574.21990967
116.54753113 219.64035034 450.32247925
195.16400146 180.27600098 477.07199097
150.65565491 161.61463928 540.65698242
125.37757874 245.89642334 518.04174805
174.68679810 152.49713135 497.63827515
122.95384216 145.89584351 440.47833252
211.45098877 247.62899780 538.84399414
141.27127075 134.21400452 524.92791748
170.13508606 109.32900238 479.20242310
141.32546997 261.63958740 508.07202148
117.45817566 155.53030396 442.20111084
106.73164368 223.29692078 470.48434448
100.46124268 197.08178711 490.55648804
229.31364441 198.00695801 487.02337646
99.61904907 185.36944580 508.09854126
187.29699707 179.71800232 512.66699219
124.55502319 130.55683899 448.14111328
213.63099670 244.07600403 534.27398682
157.05659485 240.66458130 553.10211182
102.65715027 206.02737427 515.58312988
168.51417542 262.36712646 489.49774170
152.42608643 177.16650391 570.56420898
177.82270813 118.96958923 481.58361816
109.81543732 174.77963257 443.80300903
164.94700623 206.77598572 521.69104004
140.63473511 163.77310181 603.13586426
182.98872375 263.63272095 531.09240723
101.06135559 159.42315674 523.72076416
112.55484009 129.99334717 496.56091309
167.94699097 184.92799377 540.63098145
188.43328857 265.72485352 516.26489258
221.72521973 187.94633484 496.85351562
219.16200256 227.04499817 517.22802734
152.43869019 261.31115723 465.75039673
216.90063477 268.04510498 501.92816162
151.64099121 256.39520264 556.11584473
114.98486328 129.26620483 483.36050415
147.14572144 108.33316803 464.73406982
197.40399170 170.59800720 465.21301270
251.55799866 258.64099121 504.57000732
248.30493164 237.28656006 475.42523193
153.60243225 223.72050476 438.94812012
104.56708527 144.56356812 517.76330566
182.98812866 239.96556091 458.08551025
108.13750458 175.91392517 563.85821533
136.41897583 221.56602478 442.65582275
145.17933655 141.72003174 520.38580322
223.52301025 265.12597656 537.43701172
128.13903809 117.08612061 478.80001831
193.44174194 264.19891357 528.55834961
100.82460785 201.48045349 477.11499023
144.67143250 178.77961731 581.61071777
167.81079102 261.73937988 539.55560303
108.23323059 141.75161743 485.21398926
265.75100708 241.33900452 491.48101807
120.67504883 246.22972107 487.99139404
104.47804260 203.67712402 536.18823242
164.55699158 200.17900085 505.67401123
143.60029602 227.13305664 440.85061646
154.87359619 126.28607178 501.04342651
158.20211792 260.14889526 545.52868652
203.91680908 143.25238037 459.17376709
256.77474976 218.28675842 473.42315674
182.07899475 192.22399902 519.15197754
200.57609558 144.83525085 450.79983521
146.67552185 153.13504028 582.81890869
196.89900208 194.49700928 479.78601074
110.21900177 194.77760315 567.09893799
124.45600891 201.18556213 433.24517822
141.69110107 247.59687805 551.93292236
207.37500000 211.42900085 514.02001953
228.51095581 261.96249390 478.98608398
167.26799011 215.28199768 537.68798828
177.03599548 174.11599731 528.13702393
100.56410217 161.98292542 518.56304932
104.91329956 210.86364746 521.07855225
165.05406189 150.65921021 502.19201660
117.66238403 127.87604523 472.38934326
101.02391052 201.71257019 502.84771729
169.76177979 264.11386108 523.31774902
203.85969543 159.99949646 455.11141968
218.40000916 260.52911377 475.56219482
179.08200073 219.64299011 505.79296875
111.24063873 138.35304260 467.19424438
170.77699280 191.08399963 498.77398682
187.66006470 188.01843262 447.94653320
111.28626251 144.27157593 455.73577881
174.57208252 229.88714600 510.03366089
102.11983490 179.83656311 462.48791504
124.02013397 154.96209717 599.68200684
158.95782471 264.27920532 500.57064819
160.13319397 258.46557617 526.70721436
207.85800171 248.78799438 543.49700928
196.15200806 201.45399475 458.82202148
198.63699341 218.45700073 522.81597900
136.67987061 254.50575256 531.11010742
178.99099731 181.12599182 529.44305420
199.53199768 193.42399597 487.82901001
148.33540344 186.79895020 428.92251587
194.21556091 247.33702087 469.52587891
100.86396790 173.12345886 479.99523926
119.65889740 233.92189026 464.05334473
132.48300171 214.66099548 550.21600342
153.23339844 165.90364075 555.82275391
209.49800110 217.03900146 460.84899902
192.41900635 203.55599976 509.90200806
102.52177429 165.81637573 476.84759521
199.46299744 204.31600952 454.42398071
239.42829895 232.77145386 473.02606201
144.99276733 131.74279785 514.85760498
139.72578430 122.40206146 521.18041992
236.23907471 211.44306946 469.63342285
109.43881989 189.39382935 566.89599609
143.24940491 160.08328247 427.46932983
114.15624237 132.29049683 475.52740479
103.77627563 215.12936401 472.11767578
163.44833374 154.96582031 428.08642578
146.74600220 203.48500061 552.82299805
213.62512207 189.60925293 468.74691772
142.48179626 144.54434204 430.94854736
253.63719177 213.20858765 475.60183716
115.52550507 213.59419250 570.25714111
120.93471527 164.57228088 607.18859863
182.02301025 205.84300232 512.12402344
157.68447876 134.38510132 495.84240723
172.09500122 207.06399536 504.77801514
117.30725098 136.62501526 542.77819824
225.50225830 245.55194092 472.10983276
156.48100281 204.00999451 531.41802979
125.19680023 245.17459106 464.22134399
169.71728516 261.71679688 545.71881104
180.59100342 172.42098999 517.50598145
179.18446350 210.22500610 440.43838501
136.72167969 157.01509094 609.61132812
199.88385010 147.40531921 477.75909424
121.32376099 181.76663208 608.50262451
156.68452454 214.28582764 436.51037598
235.12300110 222.94200134 502.68298340
229.87873840 268.99264526 497.91271973
155.17248535 163.49488831 533.45153809
172.87370300 249.54664612 457.75329590
235.27577209 239.44952393 472.38107300
182.41400146 211.75799561 521.50701904
226.17619324 265.39718628 484.91802979
122.33705139 238.62014771 535.32110596
185.91200256 215.65599060 499.39999390
199.81845093 249.74212646 549.84112549
190.99600220 170.43099976 495.32501221
213.51258850 267.46685791 495.73327637
172.64974976 218.74215698 439.90029907
116.53153229 238.82568359 487.53866577
139.52616882 140.76039124 545.28558350
102.93325806 152.33433533 527.03021240
159.79920959 138.69963074 431.94958496
130.37461853 237.81710815 452.72735596
117.37305450 128.68347168 464.53775024
120.90798187 214.18875122 586.71893311
112.97361755 224.95773315 460.47119141
193.68815613 125.05704498 463.65457153
157.92602539 184.71260071 498.40933228
194.84399414 204.52600098 449.52200317
232.64500427 268.35098267 526.13903809
116.43054962 193.77363586 592.88623047
146.42835999 240.18946838 550.59381104
185.27400208 173.38000488 511.43496704
122.02259827 121.17362213 499.61053467
243.31500244 270.21398926 500.29803467
171.16000366 195.27200317 527.87200928
160.25444031 175.42958069 427.21850586
106.55144501 216.93963623 514.99291992
163.31700134 170.28099060 544.52099609
177.60600281 231.60800171 544.96197510
132.26104736 235.03172302 554.42974854
180.76353455 173.68937683 437.51324463
177.73126221 240.19316101 550.95117188
191.88200378 239.36100769 547.56298828
166.67037964 188.25695801 433.37503052
113.68362427 129.70303345 507.33767700
128.51553345 253.86991882 482.51113892
207.51980591 263.90017700 535.22106934
132.21621704 207.81088257 436.03372192
169.36784363 120.20230103 489.29846191
261.89999390 259.39599609 501.22702026
139.16200256 206.40901184 561.22497559
190.30615234 260.17529297 557.97753906
230.66101074 251.92874146 474.42199707
215.81883240 253.28990173 471.67916870
153.63766479 112.21424866 450.42764282
188.11399841 171.90800476 503.43197632
160.05926514 182.85717773 430.08056641
170.04977417 233.81927490 444.58068848
124.77147675 218.87396240 556.65905762
157.93000793 181.32301331 559.05096436
202.79499817 228.83200073 530.03802490
240.06199646 246.70399475 507.43402100
99.56419373 192.79765320 514.02508545
207.03613281 267.30227661 496.45291138
145.77552795 216.99569702 437.56726074
106.47668457 154.62815857 546.63360596
161.56863403 255.95924377 562.44549561
102.25968933 153.85827637 492.58456421
205.23931885 260.83865356 478.48336792
246.23686218 228.09124756 473.17736816
165.89852905 264.00000000 472.35522461
144.83117676 205.29626465 434.13455200
148.09945679 265.30758667 478.21905518
147.60473633 129.56924438 509.94647217
142.73634338 231.44883728 552.12805176
183.05900574 156.58299255 496.36502075
195.78952026 138.11056519 476.46398926
132.67919922 121.29059601 522.27795410
104.39382172 148.04457092 508.13479614
124.39171600 125.56442261 525.45294189
163.89593506 177.59243774 430.42083740
189.60699463 221.60400391 452.98199463
108.09820557 206.42233276 553.23345947
140.84201050 198.54000854 577.94305420
160.11030579 265.39624023 472.16818237
244.44900513 270.30200195 511.89999390
209.20300293 197.66000366 502.44897461
171.23800659 156.39500427 505.84197998
182.65699768 228.89900208 452.72799683
212.42700195 186.51499939 481.40200806
154.22799683 173.15800476 568.83001709
156.46466064 112.78422546 499.46780396
125.33128357 247.65997314 513.18896484
114.12709045 130.70339966 513.12872314
175.37718201 254.21163940 560.76135254
163.31292725 205.85452271 437.17227173
111.63239288 151.61151123 557.79614258
187.24400330 190.80400085 513.41198730
220.47587585 235.61737061 469.46710205
188.68356323 154.78781128 439.34259033
98.57573700 178.21376038 516.35687256
167.73500061 233.04000854 550.16601562
162.90747070 218.47836304 437.51953125
217.95980835 180.76069641 482.61459351
219.20173645 185.21932983 473.37185669
158.01296997 180.98313904 507.75878906
224.60900879 241.63598633 521.13098145
246.96699524 249.78601074 503.29501343
188.94599915 199.25700378 450.84301758
142.14442444 263.36758423 487.81484985
182.96035767 124.95338440 444.34298706
191.19999695 192.53100586 456.82400513
151.01869202 155.54493713 523.17639160
146.05509949 252.24778748 455.28247070
128.71098328 118.53309631 498.63552856
175.21513367 128.78182983 481.90704346
110.78897095 204.95260620 563.42340088
248.11799622 265.25802612 513.25701904
193.17185974 241.13824463 465.68576050
158.57099915 193.65798950 547.52703857
153.19380188 165.76153564 550.37542725
138.24501038 169.04141235 426.74453735
213.11799622 192.77299500 492.83499146
198.00999451 222.07499695 527.94799805
146.15200806 194.07199097 572.26000977
162.47099304 201.93399048 526.99298096
190.53199768 189.07099915 509.80801392
130.61502075 124.17166901 527.20135498
220.92462158 194.72819519 471.87951660
200.97599792 226.72200012 459.86300659
109.84202576 138.82083130 480.41421509
177.32562256 260.86557007 559.06207275
111.00257874 222.30342102 529.20703125
212.23887634 264.78524780 483.30010986
195.04199219 198.10000610 464.45001221
138.55383301 121.57866669 444.32699585
234.65800476 209.00399780 479.27798462
149.32397461 256.38626099 535.68237305
262.69799805 229.74400330 488.10198975
105.74301910 146.53771973 476.25671387
116.34462738 229.44276428 547.46301270
167.11099243 199.38400269 500.20098877
182.34094238 124.98174286 478.45968628
112.09612274 177.91694641 439.83792114
175.78799438 190.75000000 500.52398682
202.94308472 154.32751465 452.64291382
150.30557251 115.23058319 505.19711304
174.45927429 139.04080200 486.13848877
132.13783264 171.26293945 611.65209961
131.70472717 148.12110901 596.62957764
127.69470978 243.21630859 458.70724487
173.33509827 253.12727356 461.59524536
189.64212036 164.48899841 443.99017334
158.88063049 191.15844727 430.50100708
173.53204346 149.40824890 431.79132080
193.20500183 179.85198975 456.54998779
107.39786530 167.89916992 560.96032715
126.31285095 225.17695618 450.53204346
117.31343079 225.85583496 555.73229980
230.00801086 242.08799744 515.54498291
132.26010132 254.79104614 514.28564453
105.64179993 154.69715881 467.47497559
188.76814270 121.57972717 472.59149170
107.74735260 140.90267944 524.94268799
179.18005371 243.35559082 458.59902954
112.53855133 203.53056335 570.91015625
151.11439514 260.25399780 529.04608154
177.57199097 210.51501465 521.63305664
104.53234863 199.62568665 546.74359131
113.35657501 139.60133362 456.58035278
132.99905396 209.77291870 558.07592773
155.72799683 191.56800842 555.00195312
117.69932556 238.23616028 506.58828735
121.48662567 125.13977051 512.79882812
129.63850403 118.25605774 458.47219849
226.40113831 202.07626343 474.83322144
191.44299316 180.77699280 493.60498047
259.46398926 246.11199951 496.92098999
192.70541382 263.25814819 533.29815674
127.31814575 251.31478882 505.23287964
137.79400635 194.66300964 590.12097168
204.86000061 198.28001404 509.74099731
136.04443359 185.94165039 427.75408936
143.94439697 155.15901184 429.22503662
181.02069092 255.30915833 478.70089722
244.72799683 230.73899841 499.71301270
124.75994110 250.30177307 489.62268066
188.49069214 263.47595215 491.47116089
119.09893036 243.52105713 479.48434448
136.83322144 205.57565308 569.96789551
108.30908966 228.01785278 485.70867920
156.00233459 154.68438721 516.41979980
104.96741486 219.18986511 502.17581177
129.35745239 211.59085083 580.65203857
131.86238098 142.53186035 435.46551514
152.79089355 186.19688416 506.83624268
204.83651733 155.32211304 475.01730347
231.01173401 207.68157959 471.21755981
270.63598633 230.94500732 482.49398804
124.24573517 139.91560364 557.92034912
195.00413513 170.50534058 454.57965088
129.32698059 122.26289368 451.14123535
190.82818604 128.58500671 448.28521729
151.52000427 183.66799927 570.22399902
182.26055908 114.06037903 473.80584717
173.06800842 210.38000488 513.19403076
146.08811951 153.31643677 565.37091064
175.96287537 162.94837952 433.08767700
100.33346558 181.86276245 528.65429688
102.98528290 207.76080322 461.68276978
186.43368530 119.33938599 454.02169800
219.08000183 204.33300781 511.22702026
99.54286957 186.76205444 514.22961426
155.06687927 259.63244629 535.80279541
130.65611267 246.50987244 534.58209229
151.87734985 165.63998413 425.59899902
181.24043274 120.22365570 478.35452271
195.75540161 261.29647827 554.75714111
198.74000549 175.28900146 469.91500854
211.09396362 244.77983093 469.05325317
142.59762573 169.47933960 594.85498047
156.89094543 141.14671326 499.96426392
145.72900391 189.41200256 577.59899902
192.70899963 235.24198914 461.71701050
209.22827148 262.65258789 546.06195068
175.53399658 188.77500916 509.51803589
185.91018677 166.63842773 441.41888428
208.26544189 256.90872192 549.59222412
147.51641846 262.85397339 516.73028564
113.21943665 181.27592468 585.12475586
126.21453094 251.32707214 473.84313965
182.59863281 248.27354431 462.82226562
166.48535156 134.81842041 488.65631104
258.53198242 255.27500916 501.25402832
239.45201111 219.58099365 492.56900024
148.94898987 213.63099670 539.76898193
115.92889404 198.98393250 588.97271729
114.14935303 167.33296204 584.37219238
183.21669006 129.47712708 440.67257690
199.03855896 163.05160522 451.22244263
229.55999756 206.27699280 495.05999756
161.18090820 264.76553345 493.33364868
195.71800232 228.92298889 459.56997681
197.41065979 135.71595764 451.55047607
254.63198853 268.29901123 502.13302612
146.16642761 113.25057220 503.23034668
106.71776581 223.23992920 487.97494507
102.75807953 187.92886353 455.69436646
100.58929443 164.39804077 492.86010742
146.90036011 141.97689819 515.89215088
263.92098999 262.70999146 497.24502563
114.97903442 169.18461609 592.55535889
120.05738831 219.36322021 579.04724121
199.10398865 180.73500061 465.61599731
182.61216736 249.05668640 554.21569824
196.97099304 235.81300354 541.31701660
174.18254089 246.50514221 554.48553467
159.10676575 198.37370300 433.45965576
139.82951355 139.68469238 433.44573975
100.31504822 193.59403992 521.33575439
125.82608795 213.90621948 441.05068970
169.79890442 261.34100342 470.10174561
219.95300293 251.59498596 533.83001709
264.48681641 251.80107117 488.58035278
107.10174561 178.30889893 447.26715088
99.25014496 194.43034363 494.66540527
180.53038025 214.39257812 443.78906250
137.82499695 222.79499817 547.95996094
169.93299866 178.20799255 540.13195801
137.41412354 233.67413330 552.94171143
134.96791077 243.15959167 558.73742676
174.53607178 193.45178223 438.55859375
237.05329895 268.41156006 492.41094971
240.51734924 249.07803345 475.68432617
104.51641083 148.63085938 482.55117798
143.93603516 169.55267334 589.51550293
169.93400574 191.33000183 511.40899658
117.42104340 141.09170532 448.22003174
184.75599670 229.31700134 505.73300171
128.07034302 247.12464905 561.48553467
145.06454468 151.77680969 559.77233887
180.93426514 252.29463196 466.26968384
143.06553650 164.53695679 597.46862793
189.56900024 206.33900452 446.55499268
186.23863220 251.72186279 474.15734863
143.12142944 132.68022156 434.97247314
103.40489197 216.02935791 497.49868774
148.15145874 159.75146484 554.34918213
147.86766052 112.81311798 451.01504517
114.93527222 184.27519226 593.41638184
179.34199524 172.91400146 522.16497803
203.44366455 166.76939392 467.24057007
143.06237793 261.80651855 520.05780029
121.42629242 240.18667603 517.20898438
187.68730164 125.59436035 475.96231079
131.97676086 256.01480103 495.31826782
123.41343689 124.54829407 456.38272095
175.34999084 215.25500488 501.35101318
99.68503571 198.36822510 506.50762939
190.44239807 255.11456299 557.82879639
208.76699829 205.26499939 511.73300171
200.16300964 202.97900391 513.94897461
161.70600891 134.46080017 431.38586426
146.95834351 264.12496948 497.18862915
130.98690796 173.56362915 428.69021606
146.36251831 264.99041748 489.66937256
234.88900757 263.39599609 527.39202881
107.30287170 207.84852600 451.52337646
192.92990112 123.79438782 458.98080444
201.88957214 263.90493774 532.80706787
102.67447662 182.02575684 545.24334717
114.79344940 176.27394104 597.48699951
122.50447083 193.42301941 594.64324951
176.42599487 227.82200623 542.34399414
166.28742981 256.18490601 459.47103882
202.37319946 241.85336304 467.87252808
120.43407440 191.95930481 432.90383911
203.47900391 217.13299561 520.64300537
116.09280396 126.29221344 505.08331299
147.81266785 258.39276123 462.59371948
223.66702271 261.09295654 477.17108154
102.15225220 164.60568237 481.49575806
193.22698975 180.06298828 481.72500610
137.27053833 126.05516815 531.81427002
267.90100098 250.52299500 496.21798706
187.02299500 207.11000061 514.47802734
148.80882263 150.62422180 521.52593994
158.49894714 266.20742798 487.43981934
203.41200256 224.36000061 526.56298828
222.31179810 205.42280579 464.83432007
174.29714966 108.77136993 464.48559570
246.05534363 265.09451294 489.36761475
121.93099213 128.92292786 531.27319336
212.60176086 180.05824280 479.83462524
158.57209778 107.21847534 461.66537476
179.04208374 262.16403198 493.22543335
203.68057251 266.73825073 509.55651855
150.29074097 137.48031616 431.37182617
119.96125793 172.14254761 611.42327881
102.29601288 165.17691040 540.66546631
124.08370972 177.13449097 612.05499268
104.15019226 160.86280823 468.78619385
158.15797424 147.37586975 429.80981445
100.78116608 195.17166138 482.43280029
173.25224304 262.03091431 542.60430908
177.83399963 163.93400574 507.60400391
176.79899597 208.17900085 496.56799316
149.93367004 257.71063232 543.64111328
169.07824707 131.97752380 434.43191528
111.55439758 178.86912537 577.29907227
128.85252380 120.43291473 516.66766357
102.94774628 215.13145447 492.72720337
108.23754120 141.10659790 494.09887695
176.32185364 114.09593201 481.22622681
133.92161560 113.30403900 471.81439209
114.79194641 199.81513977 583.58190918
127.07921600 155.10458374 605.97607422
180.58609009 221.61503601 447.94119263
149.07556152 134.53265381 507.11511230
157.92037964 117.58887482 500.38540649
132.52766418 114.42212677 487.42361450
142.34761047 148.07312012 543.75250244
182.13101196 206.88299561 496.16598511
201.82139587 267.04025269 504.44018555
177.91900635 201.14553833 442.22924805
133.92663574 251.99865723 545.94573975
220.55737305 266.87234497 528.55236816
111.19638062 203.55636597 443.68139648
164.97859192 114.31290436 446.55133057
175.12149048 122.26062775 441.56695557
165.42161560 110.46875763 452.27233887
129.80216980 214.11056519 570.99322510
105.24877167 169.06033325 553.50817871
244.31524658 211.89093018 473.44873047
126.22026825 144.56582642 575.70178223
126.59987640 217.82034302 577.12023926
140.10000610 207.20500183 551.67102051
165.07307434 106.16589355 470.63912964
195.49099731 191.13500977 496.90399170
268.52398682 225.10301208 473.72399902
161.90316772 247.99621582 557.80651855
174.39857483 264.95715332 523.13812256
171.18107605 199.57861328 438.33938599
121.38790131 218.61746216 446.52621460
258.17724609 220.64151001 486.55062866
140.23674011 150.82876587 600.00329590
126.67599487 197.71191406 591.31268311
232.88345337 259.71170044 477.99691772
183.50268555 252.60021973 557.48736572
154.36508179 117.95306396 442.88723755
165.53990173 246.76118469 450.11572266
103.31957245 197.06066895 454.42529297
116.60951233 132.53906250 458.14727783
