ply
format ascii 1.0
element vertex 2048
property float x
property float y
property float z
end_header
305.57998657 239.99800110 492.66601562
124.36000061 213.56900024 660.99694824
115.58599854 194.58299255 466.12500000
186.83399963 271.08300781 554.88995361
104.43700409 159.88301086 568.71496582
102.58699799 245.67100525 540.17504883
189.82299805 196.16700745 510.11801147
143.57400513 136.47100830 507.61801147
263.15798950 269.48898315 547.24200439
154.98199463 214.87300110 592.59497070
154.38800049 257.34201050 489.45599365
230.46800232 247.91300964 493.36599731
81.91500092 189.87500000 518.49401855
99.11499786 203.92900085 606.87298584
142.56700134 190.18299866 541.49902344
148.48298645 253.21200562 631.97705078
138.12899780 265.04901123 579.04400635
103.98200226 243.45100403 487.91302490
222.22299194 235.45199585 542.74200439
139.39799500 178.17999268 624.50500488
160.15000916 175.42601013 475.92498779
140.39199829 275.26501465 531.54998779
102.54399872 154.55000305 492.10699463
169.54299927 228.98100281 541.49298096
88.09100342 206.74101257 561.33697510
266.53399658 217.80499268 484.73901367
189.37200928 231.37600708 483.33901978
224.16200256 263.14498901 576.52301025
151.49900818 217.50399780 468.69900513
193.35800171 262.53900146 514.24005127
270.73898315 255.74499512 508.92102051
116.90600586 241.26901245 606.44799805
111.48600006 144.58200073 531.91204834
129.67900085 185.37899780 586.22998047
174.78500366 159.91400146 507.67797852
247.95700073 222.51998901 517.49804688
86.89399719 209.27700806 487.09298706
140.03700256 216.05200195 625.97399902
169.17799377 247.45401001 575.28594971
235.36300659 265.68499756 525.36303711
103.88299561 237.94000244 574.11999512
87.38899994 224.08700562 518.71502686
215.28500366 216.71899414 499.60601807
135.98600769 226.04598999 544.34399414
123.83999634 265.64300537 503.33898926
133.59600830 155.81298828 479.90399170
164.73500061 204.83300781 563.18200684
114.20999908 196.02799988 634.66296387
110.21800232 173.78599548 609.92596436
200.19699097 242.89601135 568.24603271
192.92100525 229.21400452 518.99395752
137.33000183 162.65699768 524.82403564
90.26200104 170.31799316 542.21600342
149.88299561 245.06999207 601.33996582
176.41200256 202.01599121 481.22500610
121.10099792 225.41700745 468.43200684
93.83200073 182.50801086 585.31500244
169.64100647 199.31698608 532.41900635
156.22200012 278.35598755 556.45300293
94.23899841 180.85398865 481.36801147
189.47698975 265.56301880 585.91094971
164.59100342 266.41400146 517.28900146
124.52399445 236.53100586 639.68005371
142.76699829 195.13200378 647.99499512
214.31001282 268.30999756 545.20001221
122.62400055 262.97198486 551.71801758
197.88099670 219.27101135 545.47100830
119.69499969 169.86499023 546.59301758
254.57200623 245.83200073 533.64196777
241.96499634 254.34399414 557.34802246
91.53000641 162.27099609 516.23101807
99.01300049 247.89201355 513.65203857
129.52099609 248.88800049 477.54800415
279.55599976 240.44700623 488.79000854
211.07299805 210.54400635 524.65197754
157.65299988 150.49600220 488.24499512
143.04800415 192.30699158 466.17199707
157.61000061 176.72698975 517.40600586
147.36500549 194.05299377 605.83502197
182.75000000 179.70100403 492.07699585
253.84500122 236.45700073 496.01199341
95.39099884 216.43699646 583.98803711
109.47299957 222.85800171 621.56396484
183.91799927 248.50399780 532.47796631
164.48300171 237.07499695 476.81900024
203.12100220 249.49699402 495.48300171
177.80398560 253.29301453 496.64199829
119.43399811 141.39399719 505.24700928
160.57299805 266.33001709 589.23400879
118.08300018 263.85501099 527.54699707
88.50000000 223.45001221 543.18499756
142.46000671 196.02600098 565.58898926
218.44000244 263.21701050 508.42602539
135.87998962 138.95001221 530.26403809
158.56201172 225.73899841 571.60302734
246.94400024 259.38699341 506.13098145
82.69899750 199.42199707 539.70495605
115.91799927 169.84700012 474.23898315
119.55300140 250.86900330 585.17303467
169.52799988 275.81701660 538.07702637
116.26700592 164.78399658 587.53094482
293.12100220 253.05598450 508.86203003
153.66299438 212.83699036 540.66900635
102.82500458 212.05999756 471.61599731
88.66299438 183.24400330 560.32098389
257.47900391 268.16497803 524.70098877
187.35299683 217.68798828 500.95898438
147.21900940 245.01800537 577.55200195
120.92700195 175.18200684 568.79901123
205.15400696 266.50302124 565.95800781
182.50199890 235.48200989 558.16400146
89.92300415 229.27099609 496.31802368
173.27600098 268.29998779 571.54797363
144.51300049 269.68197632 507.11502075
220.51799011 246.62800598 563.31500244
133.75900269 249.99900818 615.92700195
263.97000122 236.60699463 514.71801758
196.13800049 267.76300049 534.55297852
154.47900391 155.82400513 511.40600586
85.42800140 176.94100952 500.06698608
227.96598816 222.61900330 527.21502686
234.69700623 224.37699890 501.00796509
131.13499451 233.75299072 659.25903320
178.22499084 179.80599976 515.50695801
148.34399414 234.59999084 622.98400879
129.91300964 175.94599915 604.74499512
110.89900208 150.65299988 551.67700195
103.79499817 227.93998718 598.65496826
115.88499451 217.03399658 643.15496826
136.98999023 173.47200012 471.35400391
132.23100281 209.74400330 463.63101196
144.20199585 235.76899719 470.49298096
148.79199219 197.90199280 585.26898193
181.61599731 215.59899902 526.86999512
83.23699951 207.80400085 506.03802490
242.72898865 267.45797729 543.17095947
134.29998779 257.49600220 596.35900879
208.12399292 232.03199768 489.10998535
93.07699585 226.40399170 561.63500977
120.11999512 178.55599976 625.71099854
142.79000854 243.32499695 647.72100830
172.15100098 162.74400330 488.52099609
160.38999939 197.94000244 471.25900269
136.89799500 271.98202515 560.25701904
203.40800476 237.17700195 550.50598145
108.87199402 248.00999451 557.84899902
205.12500000 255.83499146 581.79803467
134.50399780 214.41400146 644.31103516
140.64900208 197.54199219 628.80700684
126.13700104 154.34899902 538.22796631
173.35000610 220.62300110 476.76501465
129.30900574 184.71199036 555.09594727
276.46600342 263.30102539 525.00799561
158.92599487 236.60501099 556.46697998
215.36999512 265.72497559 526.88702393
105.65900421 189.96398926 619.45599365
270.19799805 227.98100281 499.41500854
149.46099854 227.55200195 606.01995850
227.89399719 267.04400635 556.97601318
117.22599792 255.50801086 489.47799683
240.78099060 234.40200806 535.02795410
98.07600403 156.80299377 533.33905029
170.14900208 222.43299866 558.45599365
124.47799683 255.94601440 569.00903320
99.70899963 227.23199463 479.99502563
129.79699707 185.34899902 641.30999756
123.63299561 199.49600220 650.57202148
105.54499817 148.77000427 515.97796631
252.41198730 268.71099854 561.00396729
132.89999390 143.72799683 492.47598267
186.61999512 249.85299683 579.15698242
170.86500549 209.47200012 547.13397217
152.90699768 272.65600586 572.32794189
136.66200256 259.60202026 488.92999268
140.72599792 228.95899963 637.75000000
282.75299072 223.21200562 484.95501709
132.41200256 175.35899353 535.13201904
90.00600433 194.54998779 573.14196777
187.06401062 196.16700745 493.29901123
280.04699707 241.69200134 505.73800659
214.63899231 220.74200439 537.76501465
82.88300323 193.28500366 496.26699829
152.94200134 233.33000183 588.37200928
81.97200012 206.52400208 522.83300781
129.70599365 271.66400146 518.18499756
96.75900269 196.87300110 475.52001953
203.29199219 208.06999207 510.02697754
106.13399506 206.37899780 622.53900146
150.11599731 255.98001099 615.58197021
85.32299805 176.02400208 527.15496826
118.01899719 153.10400391 485.04098511
148.89300537 161.97599792 477.88699341
155.36000061 199.23600769 550.03601074
255.25199890 219.97801208 496.79501343
149.33100891 211.22999573 608.79394531
109.07900238 258.31698608 504.92102051
185.55101013 228.98699951 535.77502441
154.13600159 186.40299988 530.19396973
98.95800018 187.05599976 600.11901855
119.99599457 236.94700623 621.77496338
94.16500092 168.17599487 558.16400146
182.17300415 268.46298218 526.41699219
92.97999573 233.93798828 530.25103760
116.45700073 239.64999390 475.54699707
94.23100281 201.06098938 588.67199707
177.04600525 241.56600952 485.77999878
158.88999939 210.25698853 577.92004395
171.26300049 185.55000305 480.77999878
189.57299805 266.89401245 570.17895508
158.82598877 143.13299561 502.16101074
147.31100464 145.82099915 521.28601074
102.51600647 166.94100952 482.45599365
171.01300049 273.90600586 553.68798828
238.22499084 266.49298096 568.67895508
235.33700562 244.46200562 547.29400635
124.02799988 137.76199341 520.26098633
159.15399170 263.96499634 502.67297363
180.37300110 208.38800049 511.69003296
133.55999756 245.66699219 631.12298584
264.71798706 257.45498657 533.55902100
178.42700195 262.08999634 510.50399780
185.47900391 171.45500183 504.85803223
102.84500122 172.94700623 593.25500488
222.72300720 234.68301392 493.18600464
224.97500610 220.15699768 512.06896973
152.59700012 276.68801880 540.67199707
94.35199738 174.36900330 572.48803711
196.26300049 217.47300720 530.16796875
111.93000031 257.50299072 540.54394531
109.77999878 240.03199768 588.87896729
128.72299194 268.91601562 538.52203369
144.47599792 249.90100098 478.16000366
152.18701172 273.98101807 522.40600586
91.06399536 163.11900330 499.32598877
84.46600342 184.78800964 542.16400146
184.11000061 214.57499695 485.13497925
126.25000000 184.44099426 468.02398682
96.41300201 234.56401062 548.91998291
253.36900330 254.23100281 545.75299072
232.50299072 260.65100098 503.27700806
259.53900146 248.11399841 503.03500366
178.16300964 192.96299744 522.21899414
107.74900055 181.98300171 472.79800415
192.16300964 243.63499451 521.07104492
116.14800262 209.81100464 466.11300659
175.75801086 261.17700195 583.99804688
136.25300598 224.46900940 466.08200073
292.14901733 244.00000000 496.35501099
269.14099121 272.00698853 534.32800293
143.63400269 185.84201050 637.00494385
131.72698975 187.96600342 570.80902100
155.94198608 248.14300537 566.56597900
106.77400208 255.59100342 524.75396729
191.25900269 257.83499146 500.96200562
217.31199646 252.50300598 496.27600098
253.34199524 233.34201050 525.01300049
243.86100769 246.47399902 497.88900757
96.93199921 242.85900879 500.19598389
190.52900696 244.57000732 491.27899170
183.54600525 273.29098511 539.60595703
201.54699707 219.35600281 498.84701538
154.62500000 256.90200806 577.44000244
166.58699036 217.80499268 533.64996338
130.28100586 236.44200134 470.54699707
204.96800232 260.65899658 506.19000244
143.74000549 174.92300415 525.02301025
140.45800781 190.76100159 594.31201172
229.65798950 267.37298584 538.66198730
146.66500854 143.36199951 493.23599243
121.87300110 227.67199707 649.88201904
267.31100464 249.94300842 522.46795654
98.60800171 214.94999695 597.15100098
92.29100037 236.13398743 512.36303711
144.98899841 253.88198853 587.57904053
139.93998718 184.15699768 612.34301758
119.50000000 167.03500366 600.47399902
103.12599945 166.79899597 581.25299072
107.51899719 147.53900146 502.73501587
269.55200195 232.01100159 486.03601074
134.54901123 200.56700134 658.21704102
259.67401123 224.56201172 508.54998779
146.05499268 258.80398560 603.16900635
84.57999420 213.69200134 535.04199219
170.74200439 239.63800049 562.77502441
148.70401001 180.22399902 471.27499390
144.99501038 206.24000549 466.19497681
258.01901245 261.84799194 512.96002197
99.99000549 156.65499878 547.26702881
115.34299469 162.19999695 556.40295410
183.61300659 240.72599792 570.17797852
215.08200073 252.88298035 573.80096436
170.17500305 152.00599670 498.34600830
109.90699768 230.95401001 610.38201904
119.27799988 144.14599609 542.63403320
165.01300049 250.39398193 486.51098633
229.20199585 255.60000610 567.25299072
99.25099945 244.97599792 527.69201660
287.27200317 260.55899048 517.63201904
161.90499878 166.68699646 510.48898315
85.58399963 220.47599792 505.86099243
180.12001038 228.76499939 524.11505127
192.00700378 231.36199951 546.61999512
145.08999634 221.40200806 536.44104004
144.57798767 205.75700378 619.77703857
197.12199402 217.33200073 516.66998291
90.94300079 210.37100220 573.61297607
101.16100311 228.56399536 586.17004395
117.37699890 265.14398193 514.33099365
127.59299469 249.93099976 604.13995361
85.23099518 193.56199646 553.68103027
104.13199615 219.60699463 610.17901611
112.12100220 247.66699219 570.14801025
84.70100403 176.29598999 512.74700928
246.51699829 265.19400024 517.42199707
203.14199829 265.49700928 521.73297119
188.48399353 186.07800293 502.57803345
154.95700073 200.66000366 570.66900635
155.44599915 230.00000000 471.08999634
240.62100220 234.51300049 495.56600952
96.01899719 224.39799500 574.23199463
123.38499451 171.50300598 615.80798340
161.88099670 163.71199036 481.33599854
134.87799072 225.50199890 650.19201660
218.20700073 265.72601318 564.82897949
302.61099243 247.36199951 502.35803223
289.24301147 232.69699097 490.48098755
215.33299255 211.31199646 511.04199219
157.90200806 224.53700256 539.76202393
131.42900085 138.04200745 505.14501953
151.66300964 235.98399353 570.00701904
146.03799438 218.48500061 548.72003174
165.84500122 184.66299438 522.28497314
196.59001160 269.12100220 547.47100830
167.57299805 209.95899963 474.19100952
131.24200439 196.06800842 466.18301392
88.60199738 192.79299927 485.30300903
146.38899231 165.35600281 516.88702393
111.27100372 214.98001099 631.92303467
152.53500366 203.75000000 597.23504639
123.11399841 175.23500061 584.08099365
85.85900116 212.25199890 547.41198730
205.04798889 228.07598877 539.54199219
240.33099365 267.35299683 555.13000488
146.97200012 240.43400574 636.63800049
141.09500122 274.57498169 543.83099365
116.02799988 163.22100830 569.64703369
270.73800659 245.02400208 498.83401489
138.79400635 192.61500549 552.68902588
214.14999390 239.55699158 555.40301514
90.15999603 221.01300049 487.59899902
191.35400391 206.32701111 497.93499756
114.94499969 226.40701294 631.58703613
128.87998962 258.36898804 585.76599121
98.15599823 153.95399475 508.21298218
169.26699829 269.71600342 527.70501709
159.76400757 195.25399780 537.62695312
144.92300415 152.20401001 483.33599854
109.04199982 222.12500000 471.09899902
236.34199524 220.84599304 518.93597412
148.90499878 267.78601074 583.02801514
130.18299866 240.28399658 649.50903320
150.25399780 240.93699646 613.26202393
172.04100037 174.19099426 483.70700073
207.00299072 269.00900269 554.37799072
163.84500122 269.58700562 578.41101074
155.55599976 244.61099243 477.81900024
90.78600311 165.67100525 527.45800781
123.31199646 160.83900452 477.46801758
144.95899963 192.76799011 619.06097412
172.64099121 236.83700562 551.62298584
194.74301147 223.55499268 490.37997437
93.07300568 170.76399231 488.09100342
116.32999420 205.41099548 643.21099854
282.37399292 250.48899841 512.95300293
171.85899353 264.68798828 560.63598633
162.20199585 274.45599365 565.69897461
93.88800049 208.34300232 477.92199707
206.15600586 213.47900391 534.85498047
135.28199768 150.47200012 530.36700439
145.96099854 263.11099243 494.70999146
140.97200012 136.60700989 518.79199219
100.26399994 236.82699585 563.34698486
244.43200684 221.72300720 506.32296753
230.21798706 230.25199890 535.96197510
139.42599487 202.60499573 640.08703613
244.92900085 267.14501953 532.03900146
244.70100403 244.09500122 540.89996338
141.35398865 182.27499390 533.31500244
82.62400055 186.69499207 529.76696777
146.25199890 222.58000183 615.64501953
175.83399963 206.27099609 524.27099609
86.63299561 182.72300720 489.92300415
155.19100952 142.09700012 512.76000977
115.77700043 147.44700623 494.48202515
179.39500427 162.38301086 497.09298706
233.82299805 264.02899170 513.89599609
229.86199951 248.17199707 557.30596924
163.04400635 217.49099731 546.91497803
103.90900421 183.03799438 609.83099365
127.38299561 177.92401123 545.69500732
119.05599976 255.22398376 558.93200684
99.13899994 155.80599976 521.83099365
80.96099854 192.47099304 507.67398071
106.03299713 149.91700745 540.74798584
211.10501099 263.13400269 575.62500000
134.26699829 265.88601685 499.44299316
213.35600281 240.78700256 493.55700684
114.12699890 141.76200867 515.06103516
132.90299988 264.84799194 567.78698730
164.45599365 151.98500061 508.38900757
165.76200867 214.44799805 568.63500977
173.16200256 170.35000610 511.08996582
187.23200989 218.18199158 537.63195801
130.52600098 179.13299561 632.18304443
139.48500061 193.64799500 576.28295898
175.72100830 224.02299500 533.32104492
88.92600250 216.85299683 557.00897217
176.99400330 231.77499390 480.73199463
123.89399719 140.06399536 533.50598145
113.16500092 187.09400940 628.31201172
106.39300537 199.80000305 469.17700195
119.60200500 246.93099976 595.43994141
161.57099915 186.16999817 474.17199707
142.26399231 252.55400085 622.42102051
162.17399597 221.37699890 471.61401367
119.22200012 156.12399292 547.19696045
165.65299988 257.41101074 494.83599854
156.61500549 220.85900879 581.15100098
144.75299072 276.45700073 553.90100098
192.27301025 238.05799866 562.60198975
195.76300049 268.70001221 560.98901367
260.08999634 241.67799377 523.57897949
149.14199829 243.20399475 590.35894775
114.64100647 247.66000366 482.49499512
199.33200073 263.82897949 577.53002930
121.28599548 174.74800110 556.03997803
125.79999542 224.32400513 659.30596924
106.48999786 251.17001343 494.92401123
130.95599365 191.70700073 649.90197754
198.82400513 248.34300232 577.46795654
225.06900024 223.64399719 496.39801025
264.47601318 236.24198914 494.83499146
179.89300537 231.26100159 544.54498291
224.97599792 264.98800659 522.32403564
279.14398193 233.60699463 498.02398682
140.80900574 273.89099121 520.99200439
185.36299133 216.83000183 515.85601807
107.29399872 234.84300232 478.08300781
143.17799377 208.88400269 545.10400391
126.41400146 169.83000183 472.44302368
272.62100220 245.12399292 514.60101318
164.40800476 257.81500244 584.13500977
254.66200256 269.29400635 540.87194824
206.70899963 267.89700317 535.29400635
130.94999695 269.42501831 550.78796387
242.33299255 225.76100159 526.12500000
254.61000061 261.41101074 553.69104004
172.46200562 209.50000000 536.20098877
151.96800232 247.95399475 623.60797119
267.66699219 266.14099121 520.07403564
112.80500031 161.85800171 480.17199707
145.90499878 274.81201172 564.67004395
153.58799744 270.14999390 512.83697510
132.18598938 210.39900208 653.61798096
140.38999939 249.38800049 638.01000977
88.38199615 223.82899475 532.81500244
180.74000549 190.34199524 487.50299072
100.62800598 193.98899841 609.37896729
258.39199829 226.11700439 489.07598877
210.61700439 222.24900818 491.35598755
244.69099426 225.07000732 494.71301270
98.19400024 234.92700195 487.37500000
199.31698608 237.35800171 488.58999634
282.58099365 250.96699524 502.08996582
109.61199951 236.38999939 599.25299072
218.71499634 218.15699768 527.45495605
85.19400024 216.58000183 495.42300415
137.67300415 243.89498901 473.34701538
108.87400055 154.88000488 560.80596924
88.30699921 178.25199890 551.37902832
126.44700623 259.93499756 489.82400513
171.83900452 212.08799744 556.98004150
162.86100769 229.47000122 562.65496826
210.11000061 244.49800110 566.30999756
184.06599426 200.27600098 517.49096680
127.28700256 178.72700500 593.58898926
117.83999634 179.26199341 470.55798340
225.16600037 240.58799744 551.01501465
129.08500671 165.74899292 535.17999268
165.79000854 200.97898865 544.82598877
102.65900421 243.19999695 551.43798828
158.14498901 209.15699768 470.56100464
133.92799377 269.74801636 508.78298950
183.04299927 267.19097900 578.28302002
113.20800018 254.64299011 550.13604736
180.61999512 270.43798828 564.97003174
152.87399292 225.46099854 596.78100586
109.78800201 169.68399048 600.36999512
111.50000000 244.39700317 579.98004150
191.90199280 265.78399658 523.64495850
127.47800446 243.63699341 622.31701660
173.29100037 219.07398987 548.65997314
83.61399841 203.23699951 496.85601807
130.59399414 271.15802002 529.00701904
188.08599854 234.34600830 526.20800781
138.19400024 218.18800354 635.50598145
112.46400452 180.12799072 619.61199951
162.21900940 279.23501587 543.83398438
171.22801208 259.70599365 502.69699097
133.80500793 174.94100952 617.00201416
86.06799316 203.30500793 552.15100098
103.64399719 149.85600281 528.99700928
125.73600006 182.44200134 576.40301514
142.07800293 216.12699890 466.09698486
102.20400238 251.26901245 504.49801636
160.45700073 273.20901489 530.39404297
139.65600586 262.04998779 589.45898438
139.62001038 233.56599426 646.38000488
111.94200134 161.46099854 579.33599854
118.59100342 168.97999573 577.20001221
144.30799866 154.88400269 518.91601562
119.07199860 211.67700195 650.76300049
84.22899628 214.36799622 517.36096191
80.94100189 201.06500244 514.73303223
91.39599609 184.74900818 576.08801270
108.63299561 196.11599731 626.60302734
141.31100464 255.52699280 611.30798340
134.48300171 163.75300598 474.24200439
217.59199524 268.29598999 554.41101074
211.97499084 233.56999207 543.67401123
87.56399536 195.05200195 563.73101807
195.72700500 219.17199707 507.21697998
237.08799744 253.49200439 498.56799316
185.59700012 205.22401428 487.24801636
146.78298950 197.36599731 555.46301270
99.40999603 186.93099976 475.85498047
126.80499268 261.11297607 561.16802979
164.38198853 232.21200562 549.72900391
150.80599976 195.02000427 542.66900635
189.60000610 225.01100159 527.99798584
87.88999939 168.02699280 506.94699097
152.02600098 190.09100342 468.74499512
121.60099792 190.14599609 640.10998535
185.32000732 184.90100098 511.60098267
92.51100159 191.75599670 583.25701904
124.04199982 201.71000671 463.43200684
125.91899872 217.43800354 466.35400391
144.96899414 256.34701538 485.53500366
109.87100220 259.44400024 515.82202148
99.72900391 160.43501282 558.37200928
177.93400574 170.62098694 490.29299927
274.34701538 223.76100159 491.94799805
153.53399658 205.89299011 587.36401367
212.07299805 264.20700073 515.43597412
143.97900391 225.64500427 624.33703613
135.66699219 185.52101135 468.50799561
137.48500061 185.64700317 603.29901123
177.63299561 252.88000488 579.18103027
276.62899780 260.62100220 514.51599121
169.80400085 196.15299988 477.81301880
177.10598755 212.05000305 479.28698730
148.06399536 201.26100159 611.92999268
134.96699524 184.73200989 542.71697998
136.29100037 148.33299255 484.96099854
233.05900574 237.10200500 541.90600586
195.94700623 257.16000366 583.23400879
179.87600708 274.31100464 549.49096680
103.63099670 174.86199951 477.28198242
120.89099884 264.11599731 540.25103760
91.57499695 216.59300232 566.68499756
136.98400879 208.94900513 633.70397949
248.68899536 268.31399536 550.29101562
98.17399597 174.21499634 583.97503662
95.07700348 235.64698792 539.15100098
117.87799835 261.20199585 497.76901245
168.48799133 178.32798767 516.03802490
103.21099854 198.74000549 617.87200928
154.49400330 259.97702026 586.37896729
145.44900513 170.44499207 473.49700928
268.86999512 233.68998718 507.46499634
221.21000671 225.44000244 533.31604004
182.17199707 224.16099548 481.17300415
227.02799988 255.09500122 498.39999390
120.40200043 234.61698914 630.66296387
164.03700256 189.45500183 529.91400146
264.28100586 221.29798889 495.71899414
96.81700134 205.38600159 596.34399414
208.98699951 211.35400391 503.56103516
261.68701172 260.84500122 541.51794434
151.23899841 218.47799683 602.47601318
113.67400360 230.01499939 471.20700073
152.85700989 233.58399963 579.23504639
147.67298889 254.08801270 572.22497559
144.30900574 185.23399353 627.59295654
257.17800903 228.48999023 516.40197754
232.30700684 267.54699707 549.00701904
147.06100464 227.29399109 468.71200562
231.31999207 229.59199524 493.49499512
235.20800781 221.45300293 509.92697144
183.74900818 243.58999634 524.53497314
82.53499603 201.80099487 530.93896484
122.53099823 183.11199951 633.84899902
168.48400879 228.26300049 476.16400146
149.05099487 138.97700500 500.82897949
123.79100037 143.55300903 497.59201050
210.25199890 256.98001099 499.76199341
103.04900360 210.78201294 615.26104736
144.35101318 270.84298706 574.64202881
92.78199768 206.89999390 581.91699219
151.08399963 236.57299805 598.49798584
147.80099487 196.00099182 594.74896240
152.35400391 201.14700317 468.74697876
126.01299286 182.49600220 566.50103760
237.50199890 258.03900146 564.77099609
97.40299988 195.77301025 598.54296875
91.80799866 227.48899841 552.80401611
105.56499481 252.28199768 534.88000488
151.77301025 241.09600830 562.63098145
132.06599426 144.73899841 536.47204590
219.74000549 267.42602539 538.11596680
97.92599487 161.55299377 488.94000244
204.04699707 210.76300049 518.53900146
245.75300598 260.68899536 562.41204834
124.38700104 253.41099548 483.32199097
97.04700470 156.17999268 499.61401367
177.68600464 265.65301514 519.22100830
135.92300415 254.46098328 481.66497803
155.16400146 168.02099609 475.82800293
103.67699432 177.32701111 602.99896240
115.91000366 140.79399109 523.72998047
124.94999695 138.05101013 511.41400146
162.15699768 242.74600220 563.21197510
138.67700195 187.76699829 645.16503906
164.31900024 156.22399902 486.99398804
137.86299133 202.74899292 650.29199219
169.23699951 243.45700073 482.12298584
100.78500366 212.50199890 605.61401367
89.18700409 201.67500305 483.25399780
100.29599762 219.41999817 475.97698975
95.06099701 161.64801025 540.04003906
122.05699921 243.23800659 613.30401611
191.46501160 243.82301331 572.60003662
89.26499939 230.02099609 505.03601074
126.73300171 204.54199219 658.20996094
244.83599854 250.65199280 549.93597412
136.42999268 191.16799927 561.50500488
122.27999878 267.94601440 521.05096436
261.43597412 249.58898926 529.75097656
133.97300720 244.58299255 641.48699951
261.33901978 255.30401611 507.66198730
138.39498901 140.43200684 498.39700317
184.18901062 258.86398315 584.14898682
189.47399902 204.37699890 507.25000000
106.21099854 242.99600220 565.81597900
124.75699615 148.14599609 487.38500977
107.37799835 249.42800903 546.35296631
146.40699768 258.51699829 580.39099121
174.75399780 243.22499084 570.16894531
229.76399231 265.81500244 570.44000244
206.80000305 220.53700256 543.42797852
124.75600433 242.20899963 473.89501953
201.30400085 239.72999573 558.50598145
117.82299805 226.89999390 639.71697998
146.72500610 253.42900085 596.44195557
141.35398865 193.52099609 585.35998535
274.00698853 222.70700073 483.39797974
110.05099487 203.60299683 630.61798096
88.74700165 202.18299866 569.36505127
122.23799896 162.90600586 542.20996094
109.28499603 154.61799622 486.76101685
86.29599762 175.82299805 535.67700195
105.04999542 236.46000671 582.47503662
147.98199463 197.71400452 574.64099121
144.51800537 194.35400391 635.73303223
125.34999847 269.22100830 511.25598145
162.38301086 201.54400635 555.66003418
145.20700073 233.37100220 631.97601318
195.03498840 235.92799377 553.16198730
117.57299805 169.48300171 609.51696777
171.01599121 272.42199707 564.13604736
153.67401123 221.58599854 546.56799316
135.10800171 169.51699829 529.56402588
286.11401367 238.06401062 500.01000977
237.04299927 242.11000061 494.22900391
81.84600067 194.84800720 526.09698486
285.26800537 257.41601562 508.99304199
150.77799988 180.56900024 525.02502441
257.44598389 269.80700684 553.49804688
147.75498962 232.04701233 614.92596436
187.42599487 219.12300110 492.61401367
251.50201416 250.61601257 502.33502197
181.35400391 257.97299194 502.70999146
145.13800049 225.37399292 543.89099121
125.54900360 256.82601929 577.33703613
132.83898926 184.87599182 595.21105957
94.08200073 238.67500305 520.20300293
147.77099609 243.08699036 474.44400024
156.05198669 222.71099854 589.34698486
151.20401001 276.06399536 530.50604248
99.17499542 167.59799194 573.72601318
190.63999939 196.94801331 500.86199951
154.70799255 202.29199219 578.89904785
99.89599609 204.36399841 473.24401855
170.30000305 267.48800659 584.88702393
138.42100525 201.04699707 466.00698853
151.48001099 249.66500854 610.26397705
291.64199829 245.92900085 504.47900391
168.74400330 263.19799805 510.78302002
122.45199585 170.06700134 590.61999512
186.80099487 260.91900635 509.31399536
82.35800171 186.20500183 502.32601929
137.54499817 240.01699829 653.43499756
295.67599487 237.80799866 492.02902222
95.59900665 188.26399231 592.60101318
121.19400024 233.57200623 471.06997681
282.28598022 244.45300293 495.54501343
279.70401001 232.62199402 486.00500488
182.80400085 247.57299805 491.80902100
186.05099487 188.04701233 494.70498657
201.02999878 256.17001343 499.94799805
91.70500183 175.58399963 561.16699219
154.71299744 169.27600098 513.66900635
222.33999634 268.14700317 547.19000244
221.75000000 242.88000488 493.70101929
90.19499969 186.82099915 567.61297607
161.40901184 250.36599731 572.35198975
178.22499084 231.71600342 531.63598633
117.11800385 218.01599121 466.25201416
226.66099548 266.10501099 530.33502197
194.27299500 250.56999207 495.54501343
207.43400574 250.01698303 575.01098633
273.16299438 256.10400391 522.67498779
141.37100220 145.89900208 527.18597412
83.07299805 185.51499939 511.56402588
109.36299896 166.63398743 591.63201904
156.72500610 157.46000671 482.81799316
221.32598877 221.18000793 503.30102539
188.42098999 270.23699951 533.13000488
189.04000854 237.27099609 516.91198730
134.59199524 254.21398926 604.01898193
171.23199463 252.14999390 491.88598633
139.23699951 270.85598755 568.25695801
163.59399414 212.07499695 538.66101074
115.15600586 235.65499878 614.52197266
218.40600586 258.99301147 501.10195923
84.19499969 213.92599487 525.50799561
272.08001709 238.57901001 491.43200684
186.97999573 177.52101135 499.63800049
130.46800232 157.70199585 532.22601318
129.70001221 217.78500366 655.91302490
226.06500244 263.87399292 511.50000000
261.43801880 270.15798950 532.54095459
99.74400330 230.43000793 578.41101074
174.93400574 185.76599121 519.89196777
90.43700409 231.47000122 520.72296143
108.70199585 145.43199158 522.63403320
219.11300659 215.19500732 517.04400635
120.96800232 218.44999695 654.73199463
217.46099854 230.24499512 538.60498047
203.58000183 225.06100464 488.58499146
157.12599182 200.80900574 562.92596436
95.79399872 163.14799500 549.46002197
147.90600586 187.59500122 535.10998535
96.93700409 166.16799927 565.42095947
87.46899414 168.85000610 518.36798096
126.63600159 174.69599915 623.07800293
184.60899353 238.94299316 486.23599243
85.66200256 185.80999756 551.21997070
81.89599609 200.05099487 504.56500244
171.04800415 192.18299866 527.17999268
117.96399689 251.34199524 574.17297363
159.46499634 218.10499573 573.75598145
96.52400208 233.71299744 556.85595703
94.47000122 235.61300659 494.63998413
95.61999512 210.64799500 590.46301270
215.49800110 228.16499329 493.53097534
125.10700226 170.35198975 540.76000977
158.79899597 219.40199280 533.45800781
91.81500244 160.09700012 506.63900757
177.83200073 216.40499878 534.14898682
83.10099792 182.14199829 522.60101318
140.92601013 205.45500183 627.75805664
136.18400574 135.89001465 512.49896240
249.76600647 239.79400635 531.81304932
184.05500793 209.75999451 504.80096436
178.91099548 272.67001343 557.18395996
181.58200073 164.58399963 505.36401367
109.11299896 242.04499817 481.84002686
164.73100281 149.38500977 493.25299072
100.31100464 224.01000977 592.75903320
138.64999390 154.83200073 524.42199707
235.70098877 266.45700073 533.21099854
181.10899353 173.32200623 511.15499878
175.97801208 194.02299500 482.41000366
193.63800049 223.71501160 540.53198242
184.21000671 192.53199768 516.02697754
124.19799805 252.59301758 591.28900146
92.56800079 237.12500000 503.36099243
104.15600586 254.12199402 511.56802368
167.23300171 161.24600220 505.91897583
85.11499786 198.80899048 489.32000732
148.85899353 138.69999695 515.89501953
118.40000153 170.17799377 561.71502686
84.00999451 193.23899841 544.33697510
127.95299530 176.78298950 469.20999146
166.43600464 224.65299988 551.94598389
148.44999695 249.83100891 639.02197266
190.16000366 218.23200989 521.84997559
187.65499878 211.03900146 492.94998169
112.65800476 229.69000244 618.85198975
222.28999329 253.72799683 570.27502441
182.87600708 169.32000732 496.68301392
236.65200806 227.66299438 531.06097412
226.19000244 219.93099976 519.72698975
110.43000031 189.67599487 469.14398193
151.80900574 278.49099731 550.10998535
149.17098999 244.62600708 568.99395752
185.23600769 264.12100220 518.71398926
160.76699829 205.64599609 571.66101074
130.68200684 137.35200500 524.15301514
125.73400116 240.11599731 629.79901123
162.53100586 279.30099487 551.53100586
196.82299805 230.45199585 486.28698730
253.83099365 243.76000977 498.39898682
152.23300171 237.03500366 472.87802124
253.54998779 221.79699707 504.05801392
111.42600250 258.59201050 532.96099854
114.31399536 251.03900146 563.61798096
248.58599854 256.35400391 554.07897949
88.52100372 228.63101196 512.68701172
145.80599976 214.97698975 615.93096924
125.36300659 154.74900818 481.55502319
154.20700073 261.58898926 495.77398682
94.28800201 216.77400208 479.82800293
265.70098877 243.05599976 518.36401367
99.59700012 179.37199402 595.69799805
234.16200256 266.70901489 561.25897217
156.25299072 250.50398254 482.56201172
208.90599060 215.44499207 495.68701172
109.31099701 248.85200500 488.16000366
149.13200378 238.87899780 584.12500000
266.73599243 261.68899536 514.00396729
270.72900391 263.60800171 529.94500732
149.71701050 198.46501160 565.65997314
112.80400085 260.74697876 523.10998535
137.34098816 231.44898987 468.78399658
150.32800293 174.98800659 519.95599365
125.16300201 171.43499756 598.10504150
175.97900391 273.81500244 534.70300293
82.75599670 191.03900146 535.93701172
166.70300293 225.11500549 535.66998291
166.60700989 178.11801147 478.74798584
245.40998840 267.30200195 566.57501221
143.28601074 260.86999512 595.94396973
103.68999481 191.81199646 471.69900513
155.55499268 213.23500061 585.29296875
93.56800079 217.39498901 575.33996582
137.07199097 181.30000305 635.13702393
166.70100403 244.12100220 569.03997803
250.68301392 248.59100342 541.19598389
201.26600647 217.36599731 539.07696533
144.29199219 194.17700195 547.58398438
190.63400269 269.91702271 540.26501465
198.99900818 230.56900024 544.09301758
131.86299133 261.86001587 576.54602051
92.76100159 229.78700256 544.50701904
248.21299744 231.59199524 495.63500977
151.13499451 150.67599487 515.62396240
158.25900269 148.79399109 511.71499634
168.93499756 278.00698853 547.84698486
139.57699585 219.62500000 543.29003906
156.42700195 269.63000488 578.44299316
276.34500122 252.26301575 517.18902588
167.38600159 168.46199036 482.78399658
229.01899719 222.70899963 506.04998779
245.45800781 233.20999146 529.41796875
229.20300293 240.62600708 493.61102295
153.50599670 210.60099792 599.85400391
88.19699860 169.93899536 499.80801392
146.62901306 247.14599609 584.62799072
117.16999817 202.15701294 466.11300659
91.28800201 171.60000610 550.17999268
263.33300781 271.36099243 539.57495117
114.22999573 219.99000549 636.46801758
153.73599243 145.40499878 491.88101196
142.25199890 266.26101685 500.25302124
110.39300537 145.55299377 509.96600342
154.94200134 275.55700684 565.17700195
193.54598999 220.80700684 498.50900269
147.69099426 272.63598633 516.46002197
260.11999512 254.05099487 538.17803955
121.23300171 245.88400269 602.70599365
252.91201782 268.39300537 530.45001221
119.83300018 188.62300110 466.70999146
98.28399658 244.83999634 520.28698730
106.64199829 216.15299988 620.62298584
206.43901062 240.71900940 491.13601685
97.19499969 173.12699890 482.51501465
210.25900269 248.35699463 494.34899902
187.81599426 222.27899170 485.43099976
163.88800049 222.46000671 564.44500732
139.27600098 249.73699951 629.08599854
111.46599579 147.59799194 545.04595947
218.44000244 264.44699097 519.00799561
128.33100891 171.57598877 610.43499756
186.55499268 177.75900269 509.19799805
135.61000061 232.03800964 653.33099365
98.84999847 239.84800720 544.53497314
88.61900330 220.66799927 549.91699219
207.36799622 268.40200806 543.00897217
149.83299255 237.44699097 606.88696289
93.12899780 229.25799561 489.78298950
95.73500061 243.03401184 509.33499146
301.11398315 245.14199829 495.20800781
127.65599823 229.90800476 468.73797607
278.12500000 256.29400635 508.25000000
179.59700012 245.34599304 575.15502930
180.19198608 266.35101318 586.51397705
166.07800293 202.86999512 473.72299194
150.42098999 203.95800781 605.62402344
157.58100891 182.70100403 523.74798584
107.91799927 224.77301025 613.58599854
124.68899536 267.12899780 532.78100586
142.07600403 186.17300415 619.78796387
103.06800079 252.65600586 519.28002930
188.05999756 234.20399475 552.36102295
198.05899048 267.17199707 527.16302490
282.15798950 229.70899963 492.14398193
109.50700378 168.73001099 477.37399292
104.49700165 159.87600708 485.56597900
240.57200623 258.23501587 502.96096802
175.44099426 269.16500854 580.12005615
263.10101318 224.57000732 502.21502686
155.72599792 235.08999634 563.00494385
226.58300781 265.99401855 563.97497559
267.93099976 269.38400269 526.68896484
109.44799805 206.30400085 468.78799438
101.27999878 221.02700806 599.91302490
95.60400391 160.10198975 527.44903564
88.39400482 225.74200439 525.89099121
188.85501099 248.38400269 526.08599854
175.96699524 182.05900574 484.91702271
124.54900360 233.97900391 647.77703857
251.02999878 226.23098755 491.58401489
249.55500793 227.79899597 522.53997803
125.35700226 230.52799988 655.77099609
148.18299866 218.27799988 609.05096436
200.99000549 261.78100586 585.29504395
118.21500397 198.53498840 642.80200195
199.37800598 261.39398193 510.56600952
164.78500366 147.04299927 501.81698608
138.49600220 194.69100952 653.69201660
177.43499756 275.69400024 542.93298340
139.75300598 144.30700684 490.60601807
117.49099731 149.25498962 548.46398926
97.08300018 231.19198608 566.32202148
211.71600342 264.76800537 568.10803223
83.88800049 206.06700134 541.96801758
150.49900818 254.85101318 622.65100098
136.93299866 272.55499268 553.16400146
180.49398804 266.10299683 570.59802246
250.73400879 221.75900269 511.00302124
170.65200806 254.19900513 579.20495605
187.04100037 269.48101807 562.08496094
254.44499207 256.42098999 506.38198853
212.20899963 257.01300049 579.04797363
170.11700439 215.76599121 563.18701172
150.25999451 148.98399353 486.72900391
197.78799438 266.78698730 567.51397705
129.51100159 266.54699707 557.10797119
134.95401001 188.71099854 589.59594727
152.49299622 221.61700439 536.23400879
263.90798950 243.16099548 499.13702393
161.11199951 271.72399902 572.14099121
203.31401062 213.70799255 528.38397217
145.00000000 190.83399963 641.83697510
155.36299133 180.38800049 473.61697388
178.52899170 211.79499817 520.79699707
144.47200012 275.73699951 537.28698730
242.48098755 220.80799866 513.04101562
246.98400879 267.72399902 525.31597900
112.98500061 158.14100647 565.81903076
93.22000122 191.70500183 480.08798218
195.24200439 236.78399658 520.22198486
155.57398987 228.01100159 584.57897949
166.35699463 275.80300903 560.09399414
210.15599060 267.63497925 560.50799561
140.30900574 157.68400574 479.00302124
113.42299652 212.38200378 638.50097656
112.94099426 256.61700439 494.93301392
170.56800842 266.33398438 520.96801758
271.89099121 250.52401733 503.03298950
114.32500458 262.45098877 507.05200195
179.28500366 238.70199585 565.05297852
91.03099823 202.66899109 576.62200928
117.72499847 260.44799805 547.40502930
183.04600525 222.86000061 526.86199951
159.83900452 269.68099976 521.22100830
144.32699585 188.52398682 609.12194824
150.24699402 242.95599365 628.14099121
267.30200195 265.59600830 536.31701660
184.72200012 254.03500366 496.74298096
223.97700500 244.46701050 557.20397949
108.73100281 214.05400085 468.55499268
139.94200134 179.03199768 468.44299316
215.82299805 237.49600220 547.89605713
125.14300537 263.57498169 496.85400391
260.83401489 219.66000366 488.48400879
97.55500031 217.64999390 590.86602783
142.31900024 164.43600464 474.88400269
200.09199524 269.07797241 555.60900879
191.27699280 265.66201782 576.76501465
182.23200989 197.08000183 487.09197998
105.25599670 227.70899963 475.89700317
107.16000366 150.45700073 495.22500610
134.22100830 189.76899719 578.51898193
137.03300476 272.86401367 538.50903320
238.83299255 262.50399780 509.39498901
106.09899902 234.53498840 590.85205078
136.83000183 192.12899780 568.74102783
124.27099609 193.87799072 466.12997437
114.45400238 245.06999207 589.50903320
101.30800629 246.05500793 495.92401123
170.96200562 153.41600037 505.05197144
214.07200623 210.55099487 517.79400635
122.77799988 209.39399719 464.26800537
84.17200470 179.96099854 506.93899536
159.16099548 198.36000061 544.36999512
126.77000427 145.72599792 540.74700928
188.38999939 217.99699402 528.46496582
116.35000610 142.86500549 536.57696533
128.66499329 253.65298462 596.89703369
176.33900452 198.60800171 525.60803223
205.36700439 262.92102051 513.46899414
133.28300476 175.58799744 626.07702637
124.60099792 179.97300720 558.91796875
150.71499634 210.75401306 468.09197998
167.70300293 272.07299805 570.08898926
219.42700195 216.23800659 508.71002197
149.75700378 277.51998901 558.42401123
262.70498657 229.90499878 511.46502686
134.60299683 188.27099609 549.56597900
218.43099976 259.42297363 577.76300049
128.78300476 240.99899292 636.86401367
125.45899963 266.54800415 544.63702393
168.77500916 205.40599060 552.14398193
209.89599609 265.19299316 522.26196289
83.98500061 185.07400513 495.84298706
176.07800293 157.38500977 500.24902344
163.52200317 224.08099365 545.42700195
120.06999969 169.18798828 584.02001953
84.52399445 175.83200073 520.44000244
134.91000366 217.86799622 465.49401855
163.25299072 174.53700256 514.10101318
103.00499725 250.56999207 527.32702637
88.25199890 170.66200256 531.22399902
118.07299805 140.54901123 530.13098145
211.66600037 261.14999390 505.59597778
258.68899536 262.07901001 548.36999512
192.75000000 236.32901001 486.41198730
253.07598877 266.30499268 518.45599365
220.16899109 264.81900024 571.20397949
212.65499878 215.66999817 533.81701660
197.19000244 243.64399719 491.35101318
87.15899658 176.84599304 493.13198853
130.01300049 141.16799927 498.43499756
272.38400269 240.38900757 509.84399414
86.78800201 222.86000061 499.70199585
144.08799744 198.81199646 623.18402100
96.69099426 239.33599854 531.71405029
201.69099426 216.45399475 505.78897095
103.61299896 150.09999084 508.71997070
268.39599609 255.74299622 527.36700439
106.76000214 161.24600220 575.09997559
213.06500244 267.95700073 538.11901855
115.95800018 144.98999023 500.69497681
162.01199341 265.55801392 508.49496460
149.29699707 212.18800354 545.67498779
142.84400940 169.24800110 521.63201904
206.44900513 262.50698853 580.35601807
118.04599762 163.47099304 547.49102783
206.55099487 266.30398560 528.82598877
239.53401184 265.29101562 520.18603516
167.04400635 236.62699890 558.13201904
241.78401184 223.76600647 500.57000732
101.25599670 204.22799683 613.16198730
266.75399780 224.24000549 486.39700317
150.53300476 241.09300232 619.89996338
188.54299927 224.61900330 520.95697021
105.91799927 154.21200562 554.89898682
144.97599792 251.74000549 580.13098145
186.78900146 271.52301025 545.43103027
162.64599609 230.31300354 473.77600098
87.30300140 177.38400269 544.88098145
151.91101074 264.65298462 590.30798340
208.91600037 240.47599792 559.35797119
149.05300903 238.09500122 575.71502686
172.61799622 236.66900635 479.89099121
281.81900024 262.27502441 520.96697998
145.24101257 263.14300537 586.09002686
135.62600708 208.03700256 642.96697998
131.31100464 203.19700623 463.64099121
119.98600006 205.19000244 649.88000488
248.57499695 239.34500122 498.75900269
130.53700256 186.79399109 564.36596680
152.23899841 249.78700256 616.81298828
155.80900574 222.97799683 470.98699951
161.81500244 245.29400635 479.77001953
136.05700684 244.91099548 647.72601318
216.12300110 248.83300781 568.71301270
133.96600342 261.93600464 583.08703613
140.82301331 272.16400146 511.96997070
158.22898865 230.94799805 567.60003662
215.47399902 242.06001282 561.33599854
143.57000732 214.51300049 541.73303223
84.25000000 214.45199585 503.60601807
134.75799561 181.39700317 607.49499512
157.51400757 213.97499084 547.30200195
101.96000671 240.06399536 557.89398193
122.61900330 176.67399597 576.68402100
83.61199951 211.07499695 511.71398926
111.21199799 176.44700623 473.35601807
153.00900269 139.68800354 507.08401489
184.80999756 215.58999634 507.66699219
86.16899872 220.33000183 513.50402832
152.85299683 163.06799316 512.79998779
154.64100647 200.03900146 556.94097900
182.29100037 221.06900024 533.17999268
108.32700348 179.62400818 614.59399414
133.79499817 273.33200073 523.75604248
178.39700317 230.65699768 538.06402588
113.15699768 206.01300049 637.18499756
157.79100037 276.27398682 536.78002930
189.86700439 203.55300903 492.25000000
129.28601074 260.02899170 570.56805420
95.65599823 157.00498962 513.37097168
91.21699524 229.59999084 534.74804688
137.87199402 202.52000427 633.64099121
167.80400085 200.73699951 538.47497559
128.58499146 198.90499878 655.60595703
173.66099548 232.86500549 546.60900879
170.13700867 157.07400513 490.90002441
87.30599976 208.89799500 555.28802490
164.47099304 191.78999329 475.52301025
163.86500549 215.30799866 473.07199097
192.48100281 217.60700989 542.34197998
125.78199768 181.04299927 583.20599365
142.61900330 211.70799255 621.30895996
234.25599670 236.32000732 493.71298218
143.75000000 191.50700378 626.24102783
161.68800354 254.11999512 579.61602783
187.09999084 229.93699646 541.95098877
125.92099762 170.09300232 604.65802002
237.34800720 248.22399902 552.10601807
281.43099976 256.16101074 517.64599609
149.20899963 267.14700317 503.54898071
172.73199463 246.21699524 486.72900391
248.30000305 222.25799561 500.41503906
148.21499634 196.05200195 466.70898438
258.25100708 235.99400330 521.27600098
234.69200134 261.83300781 571.35198975
102.78900146 236.85101318 483.35702515
130.79600525 250.17601013 609.67102051
263.67800903 229.68299866 489.45999146
133.59600830 219.52099609 648.03802490
132.04200745 179.27000427 540.15795898
89.48400116 214.75698853 485.10501099
189.06800842 240.68899536 526.52801514
230.66000366 264.76699829 519.37402344
103.03000641 151.32400513 535.16296387
185.48298645 232.39900208 518.94702148
276.54000854 237.28300476 502.79098511
150.74600220 200.63800049 590.66101074
290.06900024 255.00199890 514.07897949
143.88899231 248.37399292 644.03100586
203.06800842 269.13699341 547.62200928
149.63899231 198.39001465 601.82000732
117.25299835 176.04798889 620.32904053
107.70800018 242.87399292 573.06701660
115.23999786 184.67601013 468.56900024
224.05700684 231.29600525 538.34100342
157.86199951 239.15599060 475.60501099
226.26799011 261.30599976 504.04901123
123.40400696 193.48300171 645.15301514
146.93600464 221.32000732 466.59298706
137.92199707 175.16299438 529.61804199
192.31100464 218.74200439 512.85198975
103.24399567 150.50999451 521.57299805
132.93499756 176.28001404 610.67095947
154.96200562 253.88198853 571.93603516
117.42799377 263.01800537 535.11999512
197.72399902 216.88800049 524.08300781
185.69200134 238.18199158 564.82000732
160.29701233 257.00198364 491.56100464
160.42500305 160.97200012 508.35400391
147.35899353 276.25997925 544.10198975
175.31800842 210.44200134 528.92297363
147.87001038 158.03800964 514.83599854
227.73799133 250.94598389 562.50897217
239.55500793 240.63900757 539.98101807
194.91699219 262.25299072 586.74401855
141.89801025 189.89099121 600.34301758
143.24000549 227.61100769 630.51202393
91.39900208 186.15699768 483.09002686
115.56100464 242.73200989 597.71502686
236.99800110 266.82299805 540.75701904
195.18699646 258.89901733 505.69998169
146.68600464 183.02099609 530.15100098
284.89300537 239.62899780 491.92700195
141.05700684 139.68899536 526.62097168
86.79599762 201.43200684 558.31896973
153.88299561 208.27198792 593.12396240
140.81298828 225.37899780 538.63903809
125.52400208 246.84100342 609.52996826
240.31600952 267.54098511 561.77099609
172.41999817 205.68099976 478.15100098
162.21701050 180.53999329 519.13897705
179.70199585 205.59500122 517.21398926
236.39799500 253.64700317 560.03796387
140.59098816 221.89999390 631.12701416
123.04099274 175.20500183 550.09002686
139.37300110 263.81399536 495.31497192
130.90400696 242.13400269 472.97000122
144.96600342 275.27801514 525.39904785
189.61499023 192.15998840 504.68896484
254.49299622 269.36999512 548.05200195
216.22200012 235.28900146 493.60800171
297.23297119 250.38497925 502.95901489
130.18701172 267.32800293 503.87399292
95.20800018 226.55200195 484.61898804
179.92900085 217.31599426 480.88900757
84.23400116 208.75399780 492.65301514
163.82099915 275.42999268 535.70599365
94.58100128 161.90199280 533.34802246
118.40599823 220.55599976 647.56201172
91.76100159 179.75799561 570.93103027
129.73199463 150.93299866 483.68099976
99.90899658 241.32600403 492.04299927
149.09799194 256.88699341 608.18896484
236.22099304 248.00399780 495.87802124
289.02499390 251.73399353 504.43798828
150.09799194 250.43200684 567.13702393
145.56700134 139.97801208 522.18597412
176.61100769 269.92401123 528.63000488
235.36700439 222.78800964 524.69799805
191.77600098 252.45600891 581.28204346
222.11599731 228.57899475 493.67599487
118.76399994 169.99499512 553.05804443
118.35300446 169.74900818 571.10400391
119.80699921 244.52400208 477.21499634
283.85601807 246.15800476 508.85803223
168.12998962 167.65199280 508.83401489
93.86499786 164.37399292 492.57699585
217.72499084 221.94700623 497.51202393
83.51500702 207.44100952 535.99902344
118.62000275 251.84399414 484.69702148
135.49700928 191.65599060 466.15899658
275.34100342 242.45401001 495.71099854
113.80699921 228.68800354 624.78601074
154.90299988 192.00399780 535.80395508
100.58100128 152.03599548 502.92599487
136.65199280 272.60299683 516.43200684
108.70700073 209.53300476 627.10101318
86.57599640 217.92399597 541.43103027
121.13700104 229.80799866 644.20996094
204.74598694 232.60499573 543.82000732
125.84300232 177.81500244 628.49804688
98.92700195 171.01399231 578.77099609
134.38800049 189.42601013 556.03497314
138.04100037 207.94700623 463.98199463
108.30899811 164.20899963 583.38000488
211.22599792 225.74099731 538.44396973
175.15901184 226.49699402 478.30899048
186.60299683 210.87199402 498.94198608
164.45500183 229.86500549 556.79602051
115.40599823 155.73200989 551.91699219
132.63499451 246.39700317 625.15698242
93.83899689 171.38198853 565.04602051
173.02000427 204.80699158 529.45300293
152.91200256 173.05599976 473.30902100
150.13900757 250.37699890 604.26000977
111.09899902 146.12998962 539.17596436
238.19999695 267.34399414 547.60601807
113.03800201 169.71600342 605.50805664
119.53099823 265.45599365 507.79403687
256.48098755 231.45199585 493.85299683
206.01499939 263.95700073 572.45300293
130.64299011 150.45700073 535.12103271
180.56100464 208.84799194 483.06597900
114.36000061 224.44500732 468.98400879
84.64099884 189.83100891 491.64102173
161.15899658 145.53199768 496.20800781
153.02699280 230.78300476 593.95599365
230.78399658 220.20600891 513.82202148
182.25500488 231.53300476 483.65399170
163.75000000 268.19500732 584.26794434
157.61199951 279.51699829 548.07800293
146.27999878 184.94099426 468.44100952
188.92799377 235.61000061 558.24902344
180.76199341 184.38301086 488.88000488
266.29901123 252.23898315 506.21401978
146.81401062 248.78900146 590.40100098
162.56498718 170.62699890 478.60800171
155.84098816 230.19200134 574.56396484
83.71099854 184.88900757 535.38397217
121.29199982 172.69499207 471.20700073
150.41099548 246.88899231 632.66101074
117.07899475 172.33000183 614.76800537
132.25900269 181.92599487 600.39398193
107.95800018 253.14799500 541.60498047
169.83799744 272.63598633 532.89501953
122.59300232 207.77699280 655.35498047
123.14499664 149.27999878 543.90301514
168.23800659 214.68299866 545.84197998
276.19799805 227.49699402 486.21801758
163.90299988 261.19000244 500.35000610
137.01400757 249.63699341 622.71899414
138.11500549 228.25500488 644.11199951
137.36599731 144.55500793 531.67498779
186.88699341 203.21899414 512.50000000
89.70300293 178.45300293 487.10598755
137.32400513 137.14300537 505.32299805
177.27899170 237.16700745 555.35797119
118.42800140 187.40600586 634.34997559
116.27700043 164.87699890 563.92700195
180.59300232 186.68598938 518.26397705
241.35301208 264.22598267 514.51300049
168.45098877 219.03799438 473.71200562
167.06800842 162.53800964 485.45599365
128.34300232 176.57899475 599.02301025
86.58699799 220.20899963 524.72302246
142.77699280 220.10600281 622.58599854
139.57099915 258.58898926 599.96405029
259.81597900 239.03599548 497.95300293
100.46499634 161.57199097 564.16699219
136.44400024 272.20199585 546.63800049
245.75099182 251.68400574 501.38003540
119.56800079 165.43400574 475.76400757
239.22300720 227.32800293 494.89001465
92.85199738 222.35900879 566.41101074
275.20800781 237.98200989 485.63400269
107.28300476 240.49299622 578.61798096
95.78300476 240.27900696 525.62597656
135.90399170 213.37899780 638.05096436
151.20098877 155.43200684 482.37899780
174.04200745 219.06599426 555.57800293
201.73699951 223.51800537 543.91699219
124.97200012 140.27400208 503.57000732
259.98699951 265.18801880 517.39697266
155.72599792 194.33200073 470.48599243
138.16900635 178.63301086 618.40399170
208.70399475 208.79901123 512.21801758
126.34299469 223.29899597 466.20397949
168.58799744 210.13999939 562.46002197
154.99099731 267.22399902 586.02398682
164.26800537 261.84899902 588.39703369
182.82000732 271.96197510 533.38299561
99.82900238 155.61000061 541.49798584
141.40798950 161.90499878 520.67999268
148.03099060 216.41899109 537.37298584
143.61799622 260.37698364 490.08599854
132.24099731 261.64300537 492.19097900
89.75999451 211.64799500 564.13000488
193.57701111 240.88700867 567.55603027
247.88600159 268.28500366 557.32098389
190.79499817 270.23699951 550.67095947
109.42400360 184.83799744 621.27899170
145.93798828 229.74499512 620.65600586
208.27500916 234.95599365 547.98297119
255.44700623 241.16299438 527.09197998
143.52500916 196.46400452 642.34197998
145.63600159 243.13099670 642.13903809
125.64599609 268.98501587 526.79003906
202.08000183 213.99299622 511.07101440
136.05700684 237.28799438 470.53701782
205.04899597 242.22999573 564.49902344
122.25099945 259.47601318 556.36999512
250.58699036 263.38299561 513.66802979
97.48899841 213.60499573 476.13497925
142.98599243 196.18499756 571.38500977
106.57099915 253.97398376 500.02301025
103.95600128 223.11900330 605.54302979
169.21299744 212.80899048 539.98199463
156.52999878 267.15002441 506.77301025
84.86000061 197.42399597 548.28295898
132.41999817 205.97399902 658.29998779
287.68701172 246.69801331 498.91598511
150.82499695 229.35501099 600.67199707
154.64100647 162.98800659 478.66500854
162.11601257 146.71600342 507.74996948
151.08200073 252.99501038 483.39398193
115.53399658 248.97399902 578.87396240
95.09100342 176.05200195 579.42498779
146.87800598 206.93301392 614.59497070
153.53199768 218.23599243 597.07598877
131.05699158 136.59899902 515.08404541
91.91100311 200.24900818 581.79803467
230.50000000 241.29899597 547.39001465
134.10299683 272.13800049 533.58197021
285.66598511 227.83500671 486.83200073
137.52900696 184.61300659 640.46600342
255.31199646 221.22700500 489.11099243
286.86700439 234.76199341 495.33502197
142.54100037 186.51699829 537.04199219
101.67600250 247.83599854 532.23004150
84.21599579 180.06199646 531.12298584
143.87899780 235.79100037 638.09899902
218.96499634 266.65197754 532.45404053
92.86600494 212.80500793 578.75598145
131.91198730 170.80000305 470.91497803
183.66200256 216.49000549 521.34002686
164.68699646 196.50399780 534.94000244
161.10600281 200.33200073 550.19097900
121.59500122 146.78500366 491.98400879
197.67298889 264.84899902 520.11102295
196.20401001 268.54299927 540.36096191
182.88700867 232.92700195 550.24804688
175.59100342 266.38098145 566.67498779
139.16499329 191.25500488 547.14099121
148.99400330 196.81799316 549.49896240
151.47698975 224.59399414 542.22399902
183.58599854 250.51298523 526.70404053
146.35198975 193.95799255 613.64801025
124.96800232 138.26300049 525.86999512
132.45600891 257.25100708 485.24002075
250.55300903 262.16400146 559.70001221
174.39599609 263.36499023 514.33697510
153.52299500 264.72100830 500.49502563
82.33399963 189.26799011 524.68200684
140.89199829 274.85998535 549.76501465
142.00300598 182.46800232 632.01501465
119.39000702 252.86099243 568.86700439
198.05101013 222.32699585 494.85202026
220.66600037 248.56900024 493.88500977
86.61600494 219.12998962 535.50598145
95.94499969 199.37199402 594.38098145
98.79000092 209.54499817 601.18096924
202.08399963 246.15600586 572.50701904
148.02799988 236.69599915 628.32501221
115.85400391 149.55499268 488.90600586
178.45399475 236.30699158 483.81600952
99.40200043 241.67500305 537.72802734
205.66999817 209.04299927 525.45703125
123.73500061 254.90498352 582.34600830
276.36901855 228.14401245 494.89199829
249.12500000 268.15200806 540.88000488
248.80099487 243.18499756 536.23095703
170.47000122 259.51400757 582.90997314
243.75500488 241.17698669 495.92999268
274.39801025 263.99099731 518.46197510
184.87399292 230.44699097 528.73498535
99.89199829 179.07199097 477.66900635
192.03900146 246.59300232 577.48004150
153.80899048 141.98899841 499.85400391
89.53200531 171.27500916 494.49499512
102.88099670 191.87300110 614.93804932
269.48498535 223.35000610 495.02798462
186.28300476 243.10398865 574.69598389
100.65600586 235.08999634 570.48797607
175.75000000 187.57699585 483.81298828
155.56399536 273.73498535 526.90399170
131.68899536 266.98300171 562.27703857
130.92500305 187.06199646 465.90301514
221.00700378 219.06199646 521.72296143
98.08200073 177.34399414 588.64300537
240.81300354 261.59701538 567.72497559
208.08200073 238.41300964 553.36700439
269.41699219 220.38699341 489.49798584
202.25300598 267.98498535 538.71002197
109.81199646 249.93099976 552.66101074
114.65000153 200.41799927 638.13000488
195.70100403 265.70498657 573.31597900
288.73699951 248.86900330 509.32598877
138.37899780 268.01199341 503.90298462
167.13800049 205.13500977 558.13494873
170.46800232 256.86801147 497.62600708
272.64099121 268.88998413 529.66101074
205.56100464 214.34399414 500.30899048
175.47599792 160.08700562 493.85198975
92.30500031 202.74299622 478.75500488
170.32699585 187.45300293 524.08203125
144.97799683 196.23699951 579.10101318
138.22799683 224.20300293 640.28295898
142.76200867 238.88699341 644.32196045
116.31999969 163.93600464 576.54400635
155.62599182 215.75999451 536.35296631
217.53500366 214.52699280 522.34295654
235.88000488 233.96099854 537.63500977
96.20600128 158.97500610 494.87399292
171.83900452 219.64299011 533.53204346
102.79700470 228.97599792 592.43701172
285.97198486 242.87399292 504.89801025
202.60299683 232.87199402 488.56698608
165.36801147 208.43699646 567.36602783
86.88099670 169.30900574 512.86102295
99.00999451 247.81799316 507.45098877
80.80100250 195.72700500 513.21295166
144.06600952 136.48800659 514.17498779
193.90200806 269.78298950 555.87200928
129.29699707 186.16000366 578.47705078
228.09300232 226.41600037 532.55999756
185.95500183 237.20599365 521.95697021
192.36299133 228.75900269 524.97998047
126.14999390 218.77700806 660.33300781
141.25900269 253.36997986 617.03198242
241.54399109 221.94300842 520.50103760
144.21400452 196.76100159 560.38397217
97.51799774 220.98001099 586.33099365
216.96400452 219.00099182 532.84399414
163.01100159 212.10700989 572.82397461
106.72699738 227.53300476 607.41900635
112.86599731 159.61299133 572.39599609
156.36000061 214.18400574 469.14199829
109.49300385 145.08900452 517.13000488
122.94499969 249.39500427 479.82299805
254.39199829 223.99899292 514.83502197
177.67199707 246.43899536 489.16198730
192.84500122 268.02099609 528.71801758
178.83799744 175.94000244 489.20800781
109.79699707 246.95500183 564.49401855
145.48100281 190.12300110 631.27600098
228.40000916 235.18499756 493.66302490
177.57398987 225.16799927 527.40399170
168.89601135 233.85700989 476.18298340
188.59199524 224.45300293 536.42303467
224.99301147 267.99499512 552.40399170
133.19200134 187.78898621 645.40795898
275.74499512 247.21800232 499.33499146
114.39400482 237.11000061 609.28601074
132.80700684 162.33799744 530.46697998
163.03401184 219.16801453 569.73394775
101.19800568 186.39099121 606.44799805
212.85400391 268.86499023 551.71899414
240.50299072 246.28399658 547.19195557
147.76499939 226.78700256 611.17199707
139.56700134 223.56199646 547.65997314
300.10699463 239.77500916 495.60101318
151.99198914 145.50199890 517.19000244
127.20699310 246.01300049 614.66900635
151.96501160 216.94000244 548.89599609
137.93901062 250.71701050 478.22698975
187.17999268 242.50100708 519.12896729
127.15600586 189.50900269 645.16302490
89.95100403 225.28199768 491.76800537
297.95199585 244.59500122 501.66397095
109.70199585 217.10899353 627.14599609
229.81999207 260.34100342 573.30700684
130.10800171 225.22099304 656.07897949
129.24000549 212.16101074 659.00396729
167.77400208 232.36801147 545.47204590
111.95299530 155.30999756 556.33697510
100.47800446 199.38600159 610.80401611
107.87799835 172.86999512 604.34002686
277.19900513 246.30300903 511.92199707
157.40998840 203.77999878 470.39099121
159.60099792 191.44200134 472.95800781
193.40899658 218.07800293 537.01800537
273.44400024 267.75198364 524.32604980
146.08299255 231.34700012 626.68701172
137.37200928 137.04598999 523.65100098
156.04199219 185.41300964 471.70599365
97.53700256 230.05700684 571.59899902
112.06299591 237.21200562 604.01202393
204.07600403 211.56300354 505.83398438
91.49900055 166.33500671 533.74896240
94.40799713 221.75300598 482.24401855
81.40399933 198.62001038 522.23999023
86.78800201 171.78300476 523.22900391
206.68501282 253.76000977 497.27200317
188.65800476 190.98899841 498.42398071
121.87699890 176.96400452 562.49395752
223.92800903 267.55200195 541.53302002
112.20700073 223.02299500 628.38104248
139.41999817 168.93499756 473.00500488
115.15200043 142.56399536 508.32498169
211.29399109 212.38800049 529.72399902
145.49699402 195.02000427 589.96600342
83.18599701 209.61601257 531.07897949
112.66300201 235.82499695 475.42102051
181.20199585 203.67900085 484.44400024
106.02299500 199.09199524 622.94897461
141.59399414 225.15100098 465.94900513
86.18699646 192.83300781 559.02203369
143.15199280 275.21600342 560.06097412
99.79399872 154.14599609 516.75201416
120.06600189 239.50000000 616.62603760
111.16900635 197.38101196 468.62399292
159.56900024 153.94200134 510.85198975
157.14498901 224.30700684 577.05303955
117.61999512 230.40600586 633.99102783
103.96300507 157.05999756 561.03601074
144.44300842 267.70800781 580.02697754
109.48400116 189.58300781 625.28503418
90.66400146 189.13699341 572.44201660
93.43499756 161.71800232 522.80499268
130.70500183 182.14399719 545.59399414
131.94100952 180.29899597 468.49798584
222.06500244 238.69900513 547.06903076
186.14900208 200.13200378 489.80700684
124.04100037 256.64898682 562.25402832
290.57897949 239.46200562 491.86700439
168.33000183 222.41101074 547.11096191
189.57800293 256.81298828 583.49798584
84.12799835 212.10198975 498.16799927
145.56700134 198.00401306 618.09301758
150.43899536 243.18600464 608.40301514
173.06100464 176.45199585 513.97399902
145.55400085 258.60000610 590.04901123
129.44099426 162.80299377 475.73999023
227.41099548 236.73500061 542.77197266
98.56600189 200.55499268 602.76599121
83.44200134 181.88600159 515.46801758
138.83900452 211.79800415 628.97601318
138.55299377 167.85700989 524.88201904
87.60599518 220.17300415 492.29101562
209.90000916 262.94299316 510.64495850
183.48999023 254.37599182 581.34002686
117.77600098 139.76499939 518.83502197
116.80000305 165.54800415 592.78204346
114.67599487 253.19400024 556.68200684
98.92299652 236.90600586 553.34002686
151.72399902 248.17599487 478.76098633
239.36000061 266.27401733 529.35699463
258.50997925 250.05900574 535.06097412
188.69400024 186.69799805 507.85202026
144.50399780 213.42199707 548.25201416
113.22800446 262.38598633 512.24700928
209.10699463 216.80799866 537.75402832
266.43301392 229.71299744 504.93402100
133.41900635 195.00000000 655.19396973
143.03498840 146.41600037 487.01901245
173.64099121 261.16897583 508.42999268
111.67199707 147.08000183 497.80300903
237.89500427 223.34300232 505.09600830
91.08300018 227.99200439 539.82501221
171.90599060 167.50199890 486.23599243
87.62400055 188.36499023 561.44598389
126.46099854 179.45100403 550.66699219
147.46400452 191.65299988 540.17401123
158.21800232 219.37200928 548.09899902
141.39300537 257.39700317 605.21099854
145.06900024 273.38201904 569.68200684
105.77899933 186.97898865 471.90499878
173.27499390 214.66700745 536.83398438
127.77900696 239.05000305 642.96801758
124.41699982 243.02198792 618.00799561
181.83000183 263.28799438 514.78796387
166.12200928 253.68402100 490.46701050
186.60600281 182.18800354 497.23397827
103.65299988 153.12799072 545.91601562
101.24099731 153.29399109 497.04699707
82.14800262 206.26699829 517.58197021
224.66699219 258.81900024 573.57800293
141.41600037 138.31800842 502.23999023
157.63198853 254.07200623 486.92398071
107.12899780 148.20399475 534.12597656
100.92700195 197.49900818 472.38201904
128.91499329 172.22500610 537.48602295
152.22500610 226.34899902 468.66799927
89.74900055 209.90200806 482.73199463
161.15100098 186.70399475 526.50201416
121.89599609 156.60600281 542.71197510
95.97499847 242.34999084 514.52703857
174.81500244 166.19099426 508.36801147
125.07799530 250.24798584 598.61700439
148.88699341 169.95201111 517.09002686
171.59199524 222.80799866 552.86004639
215.12500000 262.60998535 580.25799561
150.10600281 274.39599609 568.27404785
155.57099915 270.80599976 518.43103027
172.96899414 226.42298889 537.05297852
106.16699982 220.16699219 615.30902100
94.63199615 196.06600952 590.12597656
204.19000244 220.98199463 494.65298462
196.19900513 254.44700623 498.99600220
122.70600128 256.43399048 487.22698975
134.54798889 264.83398438 572.73699951
156.48500061 239.96099854 560.70697021
104.25200653 222.11499023 473.91198730
170.81298828 179.70600891 481.38699341
98.25000000 167.52700806 485.38900757
99.45800018 159.25799561 553.30596924
165.72399902 184.43200684 476.78900146
146.66999817 253.82798767 627.13494873
171.81900024 269.82800293 576.44897461
158.66799927 267.98001099 511.65496826
130.41900635 252.87399292 480.76098633
181.08399963 168.60101318 508.98098755
149.22399902 231.84500122 469.97601318
249.49299622 265.47399902 563.94000244
268.24200439 235.43899536 489.89498901
214.89100647 246.20098877 493.42901611
171.25900269 190.61100769 479.62799072
230.68200684 262.76599121 507.65298462
127.07500458 194.99200439 650.93798828
284.74200439 234.17399597 488.36898804
134.64599609 189.51499939 583.67700195
187.23100281 249.61100769 493.56298828
173.20799255 275.37701416 549.11999512
163.89399719 225.82598877 539.95300293
144.25900269 199.33200073 466.13897705
257.09097290 269.38198853 535.22802734
131.83799744 139.51399231 533.42901611
174.85800171 256.96499634 581.14898682
106.52899933 233.23899841 596.56396484
144.60400391 188.08099365 614.25903320
86.00900269 213.11900330 490.55599976
132.25399780 259.03500366 589.60900879
244.55299377 237.89199829 534.64300537
164.49800110 225.23300171 559.05096436
258.23300171 245.28401184 530.05999756
151.05700684 212.85400391 604.22100830
82.31099701 196.61801147 500.74798584
96.00800323 169.65299988 569.38397217
159.37300110 260.43399048 589.12597656
186.35200500 227.22900391 483.69699097
98.98600006 194.53900146 604.53802490
141.90701294 198.38200378 633.89404297
186.78300476 266.05099487 523.27001953
200.17700195 226.48200989 539.92303467
143.56799316 251.87399292 631.29803467
131.43600464 222.62400818 466.08901978
258.65899658 270.14398193 544.84997559
133.32800293 244.65599060 636.15100098
141.88200378 175.24499512 471.30902100
93.84500122 220.40901184 571.04602051
135.21400452 252.77000427 609.76397705
197.05801392 239.80400085 562.04602051
139.51000977 268.29000854 572.68103027
192.59999084 228.61000061 541.61999512
121.31600189 232.54400635 639.54797363
90.58999634 175.29100037 554.87500000
281.07800293 258.74700928 511.63400269
88.76699829 212.16900635 559.05999756
104.84500122 169.41801453 590.13800049
90.70800018 230.10400391 527.22399902
167.02101135 224.20999146 473.40899658
135.51998901 268.91699219 565.32800293
174.52398682 228.10600281 542.25097656
183.64599609 179.07699585 513.19097900
241.72799683 228.50500488 530.39599609
182.44799805 243.39898682 488.87899780
198.54399109 253.27101135 581.17095947
255.71998596 266.92501831 557.34600830
174.87800598 247.29899597 575.09899902
162.33499146 212.19799805 543.60900879
85.54799652 175.19499207 505.73199463
127.80900574 184.82301331 572.39196777
113.58399963 259.46701050 499.91101074
262.39898682 269.43600464 527.58197021
130.78900146 214.63400269 463.47998047
126.04300690 159.39801025 537.52294922
157.02499390 278.28402710 543.16595459
109.56499481 241.27101135 583.94702148
90.62799835 232.21899414 500.65301514
122.49600220 268.52499390 516.00097656
190.64199829 219.19900513 507.09301758
140.30699158 201.30699158 644.92297363
160.75801086 214.75300598 535.40100098
91.90200043 189.20800781 578.90197754
149.50900269 258.70098877 489.06600952
94.98400116 205.38999939 591.22003174
100.98200226 172.39099121 587.79400635
160.95899963 181.30299377 475.46301270
272.30099487 259.62500000 526.22094727
137.75799561 213.55200195 465.44799805
200.15299988 234.81300354 547.41900635
167.39199829 157.03498840 508.73797607
120.83800507 139.06799316 514.19995117
300.98699951 239.56599426 490.56399536
128.50399780 235.55400085 655.32397461
157.79699707 215.73500061 577.90899658
125.31499481 237.98300171 471.16198730
118.64299774 259.02600098 552.17602539
164.44599915 230.55599976 542.11804199
150.45500183 239.59500122 593.65203857
86.93399811 225.33999634 505.55200195
170.15499878 207.56100464 542.50598145
89.30599976 164.93199158 512.14099121
122.62400055 169.45199585 611.25201416
123.62300110 174.06800842 545.20098877
115.81500244 211.99501038 643.49902344
151.91101074 276.20397949 535.50201416
129.12400818 146.19099426 488.99200439
128.47200012 141.26699829 537.18103027
147.76499939 271.23999023 511.61599731
231.41999817 265.79998779 528.70300293
190.93998718 268.06701660 565.47601318
118.44699860 161.03799438 478.74502563
147.90600586 166.51399231 475.45401001
186.16000366 243.86799622 529.12597656
162.17199707 247.00199890 568.69000244
107.41300201 150.42098999 547.87597656
136.05400085 179.88200378 614.01495361
228.78100586 243.96101379 551.92901611
265.93899536 256.90002441 509.84899902
151.57000732 270.48901367 577.50396729
91.02999878 221.87300110 560.98504639
99.69200134 155.14099121 526.77001953
173.95899963 268.07299805 524.79901123
167.23999023 262.73599243 506.02297974
133.52499390 228.99700928 466.64898682
182.75498962 165.78100586 500.64199829
115.55899811 158.12300110 482.05700684
111.68300629 175.92201233 614.92797852
105.86900330 218.11500549 471.37200928
93.69699860 165.31700134 545.46997070
162.37400818 277.37899780 557.51196289
119.05500031 224.81900024 645.03399658
121.61599731 253.75500488 577.59899902
106.67300415 256.11099243 519.34100342
176.43800354 257.22698975 502.27798462
269.02801514 246.76400757 518.65399170
168.66398621 277.97299194 542.86499023
104.43499756 187.13699341 614.89996338
148.37298584 254.94200134 601.04101562
264.50299072 264.91699219 541.03601074
203.22799683 212.69400024 523.13104248
141.38301086 188.20700073 468.43499756
216.43699646 225.12500000 534.66400146
179.40998840 200.31399536 522.09301758
159.45999146 234.12400818 473.80001831
191.46800232 201.74301147 501.85000610
191.94400024 232.89799500 515.81298828
214.95799255 267.91400146 558.59704590
148.87200928 233.69400024 609.98498535
218.64500427 264.10897827 513.30102539
222.05799866 221.72999573 528.25299072
143.13400269 242.15200806 472.96200562
215.44400024 214.16099548 527.68096924
83.37100220 206.38099670 501.29498291
262.32901001 259.74398804 511.69598389
141.99000549 181.90098572 622.51696777
148.77299500 245.43099976 594.76397705
172.66101074 212.06399536 550.94396973
290.91998291 240.96000671 500.05697632
147.27699280 265.00897217 499.08200073
206.74699402 210.60700989 530.48699951
114.73600006 247.36900330 583.47796631
277.97500610 259.19900513 521.35699463
119.99300385 201.18499756 646.99102783
134.45399475 208.55000305 647.73297119
150.88999939 205.82299805 468.02200317
144.53900146 192.87001038 596.72302246
278.82998657 253.67001343 504.13299561
260.29397583 233.36599731 517.63598633
216.78199768 234.30700684 542.85095215
126.79600525 183.94898987 637.65502930
184.52000427 191.36700439 491.39599609
256.18298340 231.41700745 520.24298096
248.14500427 249.74600220 545.26104736
157.45599365 141.80200195 506.85400391
138.09600830 190.60200500 649.15399170
174.52499390 272.55999756 559.42797852
90.85700226 181.55500793 566.43402100
159.59300232 257.53997803 582.47100830
273.32800293 231.75799561 499.80801392
111.89399719 143.63299561 527.10400391
103.06099701 214.99499512 611.50799561
117.10699463 182.01300049 627.47595215
103.83100128 205.96499634 470.78100586
135.06999207 236.63899231 655.99694824
203.71099854 268.69198608 558.90100098
183.55599976 175.47399902 494.43099976
135.94200134 178.70100403 534.48498535
81.20800018 194.69000244 519.09295654
141.04100037 227.97999573 543.21197510
173.25000000 155.05300903 496.04602051
186.06700134 223.32400513 530.94299316
187.25100708 176.13099670 504.32598877
166.23300171 241.37001038 478.86700439
173.39700317 213.61399841 476.50399780
131.70401001 220.91400146 652.73101807
112.27899933 219.73300171 468.32000732
277.93801880 221.82199097 486.16900635
231.50199890 220.17199707 518.76800537
129.45100403 265.29199219 498.88299561
183.91700745 206.78800964 508.73898315
94.64099884 226.86999512 566.93499756
89.64399719 207.63899231 569.78704834
219.19799805 255.49200439 573.77203369
147.59199524 157.68800354 480.00900269
247.05599976 258.23797607 558.40899658
115.72200012 260.37799072 541.57104492
148.11299133 249.33200073 598.67401123
116.42400360 231.51899719 627.75500488
94.02100372 208.51998901 586.33099365
217.83200073 217.81599426 503.64398193
158.00698853 218.31199646 471.10699463
207.91400146 209.19198608 521.14996338
168.04699707 174.28800964 513.35699463
133.96600342 242.67601013 651.50701904
136.52099609 206.75698853 638.00903320
267.40701294 248.73899841 502.52301025
174.70599365 266.28198242 586.52398682
164.45300293 249.93099976 576.10296631
184.59600830 227.77200317 520.09600830
229.87399292 265.19702148 524.14697266
182.42700195 196.37001038 519.85003662
245.44300842 263.24499512 512.10400391
146.67098999 202.55599976 616.80102539
208.69299316 247.26100159 571.22998047
121.32699585 215.62998962 466.00000000
122.75200653 151.61299133 484.65899658
188.59899902 247.41299438 531.34796143
92.25000000 175.90100098 565.96795654
167.82901001 219.57301331 565.11401367
225.14599609 265.13800049 571.72698975
124.17200470 202.75799561 654.10797119
93.58599854 158.83200073 502.31497192
257.30499268 256.95602417 545.03900146
103.41200256 203.49200439 618.76397705
97.15299988 181.41799927 591.08001709
139.48599243 237.28401184 649.46997070
225.40699768 247.62100220 493.79797363
252.38900757 260.11999512 508.71902466
91.44599915 197.33200073 577.97100830
107.31900024 177.65399170 609.89501953
106.48299408 230.90901184 601.36096191
249.93299866 234.76499939 528.49700928
240.96600342 266.68600464 534.75305176
178.32099915 267.78298950 576.50396729
125.34999847 263.17098999 556.37902832
135.89500427 217.59700012 640.38800049
193.74301147 227.22900391 484.44900513
91.03500366 224.08200073 556.12701416
88.40599823 197.44000244 568.57800293
180.85501099 249.39599609 578.34497070
97.93900299 208.56300354 474.56600952
85.95899963 181.77198792 546.34600830
151.62899780 199.96800232 581.96899414
95.64000702 231.30799866 560.93499756
159.66400146 233.53500366 560.71002197
89.14399719 191.51599121 567.72900391
138.29199219 179.42900085 630.87500000
108.41600037 258.36300659 511.36798096
230.92300415 267.53500366 543.29699707
111.34000397 150.95199585 489.78399658
203.51499939 250.69099426 577.70904541
216.90798950 264.62799072 574.72698975
119.45100403 167.62001038 605.50701904
122.80999756 236.54000854 634.34497070
159.08900452 268.17700195 583.11700439
193.17500305 241.01699829 489.43200684
94.72700500 186.33900452 479.64199829
135.19898987 156.44400024 527.32495117
125.99900055 179.60501099 587.76702881
104.23800659 240.10400391 569.08001709
244.95500183 267.38900757 553.13897705
204.84100342 207.78900146 514.87701416
247.49400330 267.95599365 545.67498779
258.73300171 243.47900391 499.34899902
114.52799988 252.15101624 487.15002441
102.05799866 189.49299622 610.87500000
168.60101318 262.61999512 586.02001953
202.43299866 218.13400269 544.58703613
111.24599457 193.00100708 629.10498047
199.39898682 262.90301514 515.09497070
191.31100464 221.57600403 493.90301514
82.32800293 191.99200439 531.28302002
111.77600098 166.99198914 595.72998047
122.82499695 173.52299500 620.46301270
271.89700317 234.30700684 503.83596802
268.23898315 259.62100220 530.72296143
245.87899780 268.09500122 561.90301514
257.98602295 252.95698547 505.22799683
103.28099823 183.78700256 474.40402222
232.53401184 246.83399963 552.50299072
215.19400024 212.84399414 506.53701782
202.72499084 267.34600830 532.75103760
200.37400818 259.42999268 506.06600952
85.07299805 203.53999329 488.84600830
186.75199890 246.73600769 521.24499512
131.75700378 137.02900696 509.77499390
136.45899963 223.33200073 644.60198975
211.74398804 237.18699646 550.33099365
181.34300232 214.53100586 516.89202881
177.64399719 238.08898926 559.99798584
174.62300110 276.03500366 538.67102051
116.66099548 233.57499695 621.90399170
92.72000122 181.38200378 579.15502930
151.71900940 244.50700378 616.83001709
137.27400208 160.86199951 476.75897217
110.78699493 255.20599365 544.80395508
232.00799561 257.19100952 500.07498169
162.54100037 204.15000916 567.32501221
229.05400085 234.29100037 539.06201172
172.70399475 200.69000244 478.59799194
264.04299927 247.35400391 524.70794678
234.07800293 250.30899048 557.47399902
260.29901123 234.03599548 495.03298950
122.78400421 224.37399292 655.66894531
245.24598694 235.38499451 495.98397827
150.49800110 223.15899658 604.62500000
117.00999451 193.08399963 637.07202148
153.04798889 233.99000549 574.28002930
131.49600220 270.19400024 542.12500000
140.37799072 263.45898438 585.01000977
146.51000977 276.33999634 530.08697510
92.76100159 165.81900024 540.87194824
212.80000305 218.82299805 496.19100952
140.18598938 274.38699341 556.04901123
158.05700684 212.11199951 539.11102295
129.57499695 259.88800049 581.35498047
119.21299744 197.59599304 466.22601318
184.02500916 263.60897827 586.33898926
185.55799866 258.80899048 504.67599487
267.52499390 240.37800598 514.93798828
178.93699646 241.14898682 569.52600098
127.02799988 190.05499268 466.16198730
99.54400635 220.19100952 595.41101074
197.60900879 247.61100769 494.02697754
157.02099609 203.56401062 575.00097656
181.23300171 247.06399536 528.89105225
103.29100037 249.42100525 498.54800415
113.07299805 163.02200317 583.62799072
154.21000671 205.07299805 582.78100586
281.04699707 238.32699585 501.93698120
263.91198730 260.12701416 537.43701172
104.62400055 179.21899414 474.96701050
175.94000244 166.37599182 489.99700928
108.38899994 245.53099060 484.96600342
97.43899536 210.03599548 596.08099365
189.84700012 264.08700562 519.59997559
184.02500916 265.83200073 573.67895508
98.92500305 230.63899231 483.12600708
262.13299561 267.71798706 523.22399902
160.10899353 147.27400208 491.98098755
224.16999817 252.01898193 566.33197021
88.88199615 167.56098938 523.61102295
110.43599701 198.66499329 630.10198975
212.62100220 266.55398560 530.59399414
127.11900330 158.33300781 478.56799316
191.34399414 218.30299377 532.81500244
193.47499084 218.00300598 525.71600342
212.19200134 230.15299988 539.69000244
103.34600067 232.62199402 585.33001709
178.58599854 161.07200623 504.56900024
231.69000244 224.85899353 528.95996094
96.39900208 220.44099426 581.78503418
256.24099731 252.29498291 540.11700439
189.92700195 254.77600098 497.68399048
102.57399750 171.05000305 479.77700806
278.45001221 225.49299622 489.79101562
189.03900146 240.00399780 568.22198486
153.03300476 245.44900513 564.09802246
204.89799500 245.05500793 491.92800903
82.21700287 200.91999817 526.36596680
