ply
format ascii 1.0
element vertex 2048
property float x
property float y
property float z
end_header
274.50891113 308.90628052 409.52542114
66.99372101 230.00634766 522.35601807
119.74948120 252.48199463 363.46459961
157.65617371 311.19503784 473.12634277
157.62500000 178.41600037 458.33798218
208.57000732 239.82398987 403.53598022
71.39427185 213.89419556 432.68695068
168.14680481 312.24508667 394.19461060
91.48072815 290.49963379 428.02734375
135.98869324 239.14385986 495.24484253
231.46772766 308.70416260 465.99407959
97.05226135 180.36984253 486.16937256
91.20622253 289.33807373 501.39398193
123.28797150 197.76292419 402.48309326
169.29460144 257.85308838 445.90560913
221.75900269 293.45397949 389.08200073
257.82009888 257.46481323 422.96994019
171.59593201 263.48318481 372.04360962
70.20342255 248.00944519 472.49844360
172.22300720 206.04400635 416.06900024
190.73745728 325.00213623 438.17242432
82.50570679 249.40229797 396.65411377
134.59642029 314.99374390 428.28927612
218.55625916 250.71871948 452.36947632
123.75327301 278.10534668 464.60156250
121.38591766 296.23986816 385.19558716
105.67835236 180.15391541 441.59191895
150.45001221 221.97599792 377.33001709
170.67300415 218.19599915 473.48999023
231.47929382 322.22225952 421.79159546
104.60055542 216.05122375 506.93148804
192.53068542 290.06640625 459.05017090
134.81040955 200.77653503 485.45770264
72.25052643 253.73861694 433.90826416
72.90988922 209.09616089 470.68389893
180.46049500 286.38702393 423.55746460
97.65056610 252.79476929 511.33596802
235.70599365 284.58734131 437.18395996
86.61584473 279.35452271 462.42562866
90.57367706 212.57487488 400.46093750
200.70773315 224.51963806 434.68811035
125.58358765 169.59861755 470.31195068
200.76145935 319.78417969 405.34066772
256.04800415 281.44400024 398.36401367
136.16200256 182.91200256 432.53601074
151.11795044 289.99514771 372.88229370
201.01800537 267.92599487 388.32797241
255.95111084 315.37445068 442.28369141
68.37601471 262.49404907 523.62347412
116.21842957 222.82902527 377.99414062
163.89746094 307.30749512 442.13418579
99.75084686 271.66064453 380.03018188
179.14399719 231.70500183 388.39099121
113.49750519 305.78823853 450.15289307
149.36099243 256.55599976 475.14700317
230.43400574 262.51797485 400.32501221
179.05200195 199.34199524 446.14999390
117.49687195 270.54086304 494.56240845
75.34832764 206.98307800 502.13546753
246.55500793 309.88601685 399.69998169
129.11227417 304.68176270 477.21459961
160.15435791 283.14877319 461.65158081
183.91899109 290.83499146 383.09899902
79.83228302 191.44685364 449.34002686
203.53730774 310.64492798 475.19226074
148.54293823 249.98255920 362.93252563
168.12597656 323.31738281 420.03991699
112.76197052 301.81637573 414.13238525
75.15806580 269.51879883 489.83422852
279.49954224 282.53738403 416.91653442
140.48316956 308.97280884 402.14837646
91.12990570 192.72152710 419.92593384
85.12265778 277.21398926 404.87380981
149.05799866 205.79100037 399.32098389
221.33724976 240.89236450 427.24099731
67.52077484 232.07279968 494.93328857
192.85600281 242.68699646 454.14099121
153.59355164 236.39479065 457.19680786
101.77802277 296.24240112 478.54190063
253.61418152 296.64065552 422.00845337
219.17469788 320.12524414 444.69519043
72.43705750 233.06678772 414.57238770
96.07355499 191.11994934 509.73828125
139.62782288 315.76467896 454.60827637
214.81700134 277.27600098 451.16299438
68.44638062 231.76063538 450.93664551
188.20999146 226.07000732 412.02899170
183.24856567 259.81158447 425.63452148
128.35655212 278.71762085 367.72515869
99.24858856 244.70036316 378.32138062
180.99732971 317.51095581 459.45782471
159.88099670 190.27299500 432.37701416
158.14100647 196.63600159 476.50201416
236.14678955 258.12335205 436.49465942
179.20399475 223.38700867 451.20700073
223.11843872 316.82897949 399.50170898
120.54653931 181.18916321 491.17697144
193.44900513 266.33599854 453.15200806
161.11599731 238.26600647 484.50698853
254.75332642 320.97753906 419.39648438
99.97892761 175.88189697 463.88476562
125.57655334 218.72996521 495.44476318
115.45519257 185.69500732 421.93093872
113.63411713 239.62031555 502.15637207
149.60823059 217.96125793 487.91912842
103.25625610 289.58294678 397.24319458
141.95701599 273.11700439 453.07095337
86.94763947 273.54205322 517.52111816
195.58000183 246.20401001 384.17898560
88.54103088 227.15052795 516.94073486
75.87467957 261.52441406 455.44775391
135.20280457 232.39067078 365.49517822
67.94217682 253.45513916 503.63409424
126.38400269 174.28399658 450.14797974
173.08300781 242.93400574 465.58599854
202.21499634 301.01300049 393.47000122
207.31405640 324.08016968 425.36361694
83.50064850 190.56239319 472.79998779
80.76479340 274.87686157 437.13214111
164.84199524 241.50100708 376.01101685
96.54345703 292.40481567 449.63262939
214.28300476 298.23498535 460.01800537
133.61718750 212.70280457 385.09271240
144.56352234 179.50700378 474.80545044
141.84899902 193.70199585 414.58401489
77.40470886 259.10546875 414.11563110
165.32699585 215.87699890 391.67700195
134.29098511 263.40225220 487.39822388
236.51301575 251.48731995 417.26119995
140.93254089 290.89770508 467.81890869
176.96902466 282.42053223 447.88677979
203.12435913 318.15817261 456.51242065
113.22104645 199.15040588 500.45764160
109.08766937 208.14651489 391.19372559
149.97874451 248.60874939 440.09063721
238.26220703 304.33651733 447.26538086
84.55074310 206.81962585 519.98205566
150.24180603 271.02859497 365.42489624
181.03199768 226.82200623 431.94198608
170.38110352 299.70715332 459.08828735
95.17404175 227.12622070 386.60791016
250.18286133 277.01882935 426.25900269
86.46943665 284.71691895 481.02703857
69.40016174 228.67056274 472.07373047
102.65214539 196.93980408 405.60189819
188.92745972 325.88287354 418.44961548
151.26565552 305.83050537 384.20401001
78.68421936 246.40725708 522.41809082
240.89199829 292.07598877 393.77798462
153.63818359 320.52450562 432.85165405
185.37078857 305.14596558 473.07656860
167.16203308 298.78649902 380.48684692
107.87385559 303.16641235 432.06985474
83.96376801 194.27082825 491.03823853
171.32792664 324.17544556 441.50711060
102.92280579 274.38931274 505.19866943
76.91687012 211.40916443 415.30615234
250.08717346 263.35678101 407.49212646
210.43211365 228.44601440 419.30487061
187.30958557 308.63275146 398.76190186
81.92566681 229.29548645 399.50817871
110.20803833 287.35000610 492.18472290
261.37997437 299.17898560 400.54501343
211.35754395 235.93193054 444.68371582
70.99888611 208.67436218 449.99533081
168.08601379 194.28099060 461.59802246
217.57000732 276.59799194 393.81799316
112.07536316 283.76797485 375.20651245
167.39373779 282.53237915 371.09091187
116.92671967 294.91525269 469.17840576
70.05364227 234.96020508 431.78305054
157.52830505 316.74310303 455.30722046
70.67298889 215.58300781 487.54776001
187.24400330 274.06298828 379.23199463
141.68399048 170.69799805 460.07901001
264.21176147 273.04083252 416.44113159
214.49400330 256.36898804 396.60998535
158.45590210 314.72436523 407.09921265
111.41287994 267.39004517 368.05078125
81.26445007 199.66891479 433.91061401
194.95700073 231.81500244 396.67599487
185.02200317 210.22700500 431.49301147
150.72721863 256.64132690 457.20626831
148.27400208 178.82600403 444.19198608
123.13070679 252.06616211 496.69604492
111.39649200 172.08770752 478.32336426
87.28948212 264.92834473 391.90173340
134.55632019 259.56408691 359.55459595
222.27107239 247.52865601 409.28912354
175.72499084 208.96699524 460.07000732
205.63200378 256.82897949 460.93600464
137.17298889 296.25628662 380.71252441
197.79199219 285.06799316 392.42800903
72.32823944 270.28637695 509.61441040
123.53734589 302.98529053 402.24612427
236.54730225 319.28338623 440.56439209
176.11903381 318.70861816 406.89538574
149.13099670 248.48200989 489.38900757
76.21185303 266.57470703 474.04312134
125.48570251 308.29443359 461.03503418
106.12044525 182.04644775 499.74087524
227.15942383 269.84396362 443.56454468
180.39700317 248.87500000 379.02099609
194.92199707 235.20800781 423.64401245
117.60320282 237.36398315 369.64294434
95.78444672 290.79858398 412.52517700
122.40312195 278.05297852 481.04263306
100.02254486 235.27099609 509.05178833
177.31599426 216.76200867 402.33401489
225.75262451 294.67315674 448.73873901
91.47608185 187.56181335 438.39144897
268.85467529 294.41015625 413.81076050
157.72799683 199.88699341 413.67901611
69.58010864 220.14495850 510.17742920
165.99389648 241.10916138 449.44827271
135.82707214 264.54470825 468.95379639
233.97499084 278.05001831 396.30700684
69.11450958 248.78381348 487.92785645
150.79721069 234.10253906 365.76541138
128.48890686 313.49566650 442.40829468
82.23867798 275.07043457 421.57037354
65.92713165 238.64274597 509.19799805
218.83143616 316.44461060 460.04919434
192.23100281 237.48800659 439.39901733
142.46168518 312.15844727 469.75186157
167.00300598 187.61399841 445.89099121
70.96903992 248.01303101 449.70953369
217.74502563 322.68045044 414.51303101
232.37599182 306.00601196 394.20898438
177.48661804 272.84954834 430.43280029
238.30638123 319.98147583 408.49304199
108.73236847 259.93869019 503.55960083
128.97189331 309.37213135 415.23632812
244.48542786 301.78662109 432.67581177
112.33695984 173.69815063 456.40063477
172.79208374 289.30807495 434.58810425
161.15348816 269.05718994 456.77462769
92.90705109 278.92025757 392.23184204
97.12669373 294.08370972 464.39297485
261.26696777 314.90771484 406.26986694
120.68759155 308.80987549 427.53787231
155.36172485 295.22885132 468.25048828
146.48054504 315.73925781 414.80371094
159.48800659 247.67599487 469.11999512
74.74600220 198.16407776 461.29171753
132.20942688 285.45858765 456.02481079
79.03425598 279.19842529 500.31066895
163.96099854 226.74400330 379.48400879
72.25411987 246.89654541 421.24884033
174.02400208 201.06098938 429.50100708
126.97599792 190.28900146 416.15499878
86.33486176 258.27676392 518.15454102
179.27053833 301.78427124 389.36892700
160.53298950 210.91899109 480.53100586
132.71566772 180.22702026 483.18704224
231.74476624 316.95935059 453.75091553
184.74299622 253.41900635 449.46701050
147.74610901 301.94140625 478.19757080
251.49205017 249.80580139 411.26513672
90.27049255 183.24295044 454.99429321
182.40049744 315.15322876 444.34863281
68.13175964 220.81158447 459.73434448
162.07492065 254.25013733 367.70150757
177.41799927 229.52400208 465.90200806
123.14958191 204.96603394 492.32580566
120.11199951 180.11698914 438.96600342
65.04163361 249.18992615 518.40081787
262.41198730 309.23593140 418.87844849
217.64485168 306.72583008 470.02169800
76.89937592 220.36967468 524.07604980
89.20853424 241.27133179 387.69158936
240.39057922 271.02114868 434.08892822
211.62260437 262.16360474 449.50033569
141.64355469 317.71740723 441.24789429
102.34144592 257.90002441 374.92022705
201.13017273 300.25259399 465.10870361
114.76528931 224.63027954 501.41345215
68.62114716 240.32034302 461.51925659
135.69799805 202.81500244 399.73199463
243.94448853 320.90740967 427.83856201
245.47735596 253.50979614 427.44653320
268.22662354 281.22027588 406.35583496
148.51300049 213.18400574 387.83898926
206.41152954 243.00654602 455.87194824
99.21719360 204.02432251 512.75592041
89.48756409 241.64665222 515.64605713
100.72505188 185.79678345 429.48397827
192.98735046 316.14141846 466.04998779
138.44715881 221.47991943 374.38961792
132.95726013 245.46124268 361.50799561
223.34257507 248.21229553 440.02401733
189.32099915 260.78799438 380.86599731
246.54325867 312.82046509 453.72729492
89.04774475 285.93066406 440.27209473
84.50541687 198.00639343 506.37197876
180.95361328 268.50161743 445.86450195
164.39999390 207.47200012 404.86801147
180.27432251 327.60372925 429.82717896
213.75405884 308.05081177 393.57296753
173.26661682 295.37332153 447.30242920
82.72880554 276.46905518 450.10525513
70.79637909 221.89712524 421.62203979
185.02398682 213.97599792 416.51202393
219.17936707 322.54342651 431.38815308
76.61920166 240.83081055 404.78817749
177.35452271 253.51867676 435.43093872
108.17566681 301.88668823 462.05203247
148.37142944 205.78990173 482.91284180
146.46658325 190.60336304 481.28851318
147.16770935 229.74263000 492.60461426
169.99200439 231.76200867 476.50000000
131.30842590 302.11047363 391.93600464
106.55522156 233.95498657 376.18734741
189.42878723 295.32632446 395.49826050
245.17376709 289.27752686 428.70318604
255.08975220 309.58636475 429.48751831
203.16920471 321.95324707 442.31292725
173.58056641 287.00714111 459.54577637
75.60069275 263.86596680 441.26220703
200.57098389 280.27981567 455.64868164
105.18986511 219.09451294 384.63864136
211.58706665 231.57180786 432.56451416
148.10099792 187.85299683 427.62600708
80.92160034 264.78103638 403.15093994
178.94700623 242.54800415 453.32400513
76.15970612 263.36798096 426.52810669
68.29319000 222.96444702 441.70254517
160.40000916 225.29100037 486.02200317
170.26206970 311.36431885 453.85537720
77.16223145 200.15519714 478.85409546
152.08731079 310.17587280 396.50973511
90.56083679 201.78450012 407.68545532
90.74030304 254.72113037 384.96096802
206.48899841 246.57798767 390.77801514
120.86550903 212.64599609 384.84893799
225.80809021 282.53341675 444.71829224
104.86441803 285.84716797 385.30413818
115.61935425 191.70680237 410.51730347
94.64219666 291.41809082 487.94787598
167.38000488 205.42199707 471.58898926
139.28036499 284.23870850 371.04153442
186.71682739 271.94079590 423.48904419
259.12124634 285.98391724 418.27801514
183.22009277 298.25497437 462.81436157
136.70733643 216.90115356 490.04071045
198.43099976 232.77400208 410.05200195
246.38200378 273.76898193 398.65100098
210.65699768 288.51101685 391.16799927
125.91777802 230.49407959 498.38760376
102.91220093 299.09298706 421.57168579
93.87773132 178.78607178 473.85842896
69.28833008 236.06292725 481.57055664
126.71774292 191.83393860 489.81365967
94.78979492 215.22276306 514.32336426
154.65599060 185.83799744 471.93200684
218.24282837 236.54991150 412.70385742
190.86706543 318.84677124 452.60293579
172.27265930 272.76651001 454.26544189
93.14668274 187.91734314 496.01080322
108.51413727 248.12275696 371.26144409
113.60578918 290.57733154 481.00314331
81.83128357 218.65605164 405.93194580
127.71251678 289.95376587 376.02908325
144.07861328 283.42651367 459.13684082
128.37910461 292.92550659 468.75494385
69.31405640 240.54789734 527.55364990
94.67016602 264.95367432 512.72216797
182.30200195 233.89300537 445.07598877
126.14492798 267.40045166 363.11306763
175.49200439 275.07699585 375.44100952
75.83161163 272.26376343 521.83343506
250.49510193 265.28302002 428.45614624
101.53707123 178.11160278 452.08520508
235.47683716 296.49099731 438.84439087
101.89654541 189.19224548 416.89920044
182.14500427 212.72100830 446.84402466
136.22251892 250.16203308 492.52413940
161.41494751 270.47244263 369.00494385
75.27629852 204.22224426 490.74374390
127.34461975 224.21539307 374.04269409
225.71099854 301.67300415 458.44900513
159.08544922 252.01306152 449.37820435
122.90942383 173.29554749 482.21401978
79.69452667 233.09426880 521.90472412
155.90249634 319.70822144 421.55755615
116.30701447 211.94169617 498.55102539
102.30162048 285.35610962 500.70321655
204.48921204 291.01132202 457.19622803
109.84095001 175.51486206 489.16168213
259.58282471 272.27429199 404.71505737
80.28041840 201.63456726 422.46316528
105.07419586 301.41195679 443.36624146
238.80900574 257.46301270 407.62399292
111.62671661 296.93637085 400.77566528
82.30677032 282.51553345 511.76458740
81.84468079 276.58483887 473.15292358
138.70899963 174.08999634 449.43801880
72.43603516 260.24450684 482.70916748
87.71793365 186.35852051 482.69097900
71.59118652 252.21792603 460.41836548
187.14646912 319.67395020 404.00036621
70.45366669 216.92729187 499.00628662
186.50234985 278.98934937 454.63714600
138.91693115 271.81649780 364.07046509
200.70100403 256.65499878 386.38800049
106.18997192 248.11407471 505.52178955
164.46920776 309.07305908 462.16796875
93.44175720 285.00222778 402.91229248
128.74865723 270.78207397 474.07083130
93.39528656 279.98672485 510.55651855
162.73500061 196.74099731 423.37100220
228.49771118 250.29826355 430.23223877
87.53575897 283.56658936 415.13931274
196.37484741 324.63787842 428.64538574
216.25801086 289.17501831 453.51800537
158.75526428 317.32135010 444.44827271
156.44100952 249.41600037 480.19998169
250.83363342 317.91549683 409.39422607
74.71958160 211.94026184 516.98217773
273.41299438 298.52499390 404.50201416
81.86975861 188.89630127 460.04156494
212.59013367 318.19104004 402.34402466
92.60890961 291.14001465 473.82052612
131.11347961 273.01162720 458.58633423
210.70599365 267.23001099 393.80999756
71.12159729 263.30346680 499.54495239
185.09399414 226.67700195 396.75900269
171.17799377 193.75300598 437.61502075
200.83042908 311.38177490 396.11560059
177.74505615 312.05609131 468.84396362
116.89179993 308.09527588 437.75357056
188.20500183 238.10000610 388.33999634
70.15489960 241.80827332 440.38314819
151.93826294 275.02798462 458.46762085
184.35600281 245.00801086 462.63098145
112.92327118 199.30751038 400.52835083
157.05953979 243.09959412 367.94064331
174.07600403 238.45599365 381.17300415
261.70092773 318.42184448 429.40280151
200.68939209 225.61137390 423.75656128
161.93342590 306.71176147 385.80267334
124.22583771 171.21888733 459.33837891
153.07966614 260.11172485 363.83743286
142.58621216 260.30667114 462.82101440
106.49014282 193.22143555 506.71160889
80.48873901 270.63397217 463.64428711
145.68927002 318.00790405 425.41751099
227.63493347 321.39190674 409.90795898
111.93032074 293.56298828 390.38110352
206.99400330 277.89498901 391.69400024
76.95162201 200.56703186 443.45397949
195.88198853 253.08200073 454.58999634
225.46951294 259.27920532 442.44958496
125.71300507 183.61698914 429.93798828
225.52200317 284.10198975 393.46899414
156.90000916 281.11178589 369.42202759
67.25508881 244.38432312 497.89953613
123.74549866 241.34877014 498.14932251
206.45300293 270.80999756 453.96798706
123.15344238 204.71556091 392.61648560
184.20100403 223.38099670 422.31500244
151.99748230 316.34500122 464.32528687
156.07608032 298.40710449 378.07394409
252.58898926 291.43200684 396.95297241
135.21667480 226.21409607 494.85125732
141.14108276 305.96960449 391.44958496
122.95420837 288.16458130 459.00015259
88.05766296 285.87457275 450.73059082
201.76400757 239.94200134 446.59399414
85.84262085 282.05108643 430.97201538
229.76429749 321.34524536 432.81173706
168.80276489 324.74661255 430.41671753
71.04267883 217.90428162 477.41314697
171.51998901 224.42900085 387.91000366
99.34315491 210.98104858 393.42721558
97.70536804 225.33006287 511.46728516
206.84957886 314.67776489 465.61315918
112.20566559 170.43984985 466.09634399
99.54860687 296.92178345 435.70480347
122.20083618 297.04248047 478.86480713
216.56399536 245.20700073 399.54699707
105.99405670 296.02615356 488.05532837
204.58953857 323.65567017 414.33163452
104.62344360 296.48965454 410.23721313
178.75158691 324.19338989 415.35269165
165.87300110 242.26400757 476.17797852
124.91946411 264.07238770 491.82864380
67.37585449 260.13906860 511.55184937
152.05982971 247.22552490 454.90795898
264.90350342 319.22375488 417.26068115
143.58499146 256.98400879 485.57998657
247.03039551 309.14590454 444.10052490
88.99545288 183.02673340 465.05319214
110.67040253 183.16073608 433.50289917
130.26200867 178.26100159 441.44897461
133.27899170 196.67098999 407.66000366
142.51885986 241.58116150 360.97430420
258.93753052 263.00543213 412.63055420
176.34054565 286.16995239 377.60751343
114.44814301 188.19598389 499.09796143
181.67355347 262.72393799 437.00527954
159.43923950 233.04502869 372.89080811
135.49299622 187.32600403 423.32397461
69.16339874 225.18153381 484.25045776
151.31500244 175.92098999 465.99600220
149.40371704 317.62594604 448.45758057
135.86154175 172.23403931 469.47177124
217.42521667 238.81808472 437.02218628
115.93235016 285.10729980 472.85723877
222.91200256 255.19401550 402.64700317
192.36515808 312.12521362 475.53192139
181.71099854 218.94100952 438.33801270
223.36199951 268.59399414 396.13400269
269.41506958 283.75827026 416.01318359
165.07800293 184.80599976 455.91299438
78.12059784 254.18016052 404.37374878
158.06298828 217.24499512 384.80300903
150.91299438 239.20799255 492.94799805
108.57718658 299.36383057 471.86468506
177.83424377 312.10583496 399.27114868
236.31053162 306.37295532 457.13262939
138.02574158 300.05978394 479.79623413
70.74359894 250.46774292 527.25842285
135.62916565 190.84997559 484.83560181
251.72799683 301.40798950 396.35299683
157.54600525 179.61700439 447.92102051
84.46791840 282.83065796 490.47988892
243.05912781 321.23248291 418.00402832
87.31660461 221.52694702 396.20547485
153.30299377 193.81100464 420.25399780
180.55999756 264.95297241 376.29397583
111.07118988 278.12301636 495.93792725
87.04316711 232.00288391 391.52056885
161.43899536 187.28399658 464.80599976
171.23100281 251.46200562 376.25302124
125.94693756 239.05468750 364.61465454
115.05237579 177.24890137 444.09808350
199.50500488 238.43798828 390.91699219
117.54232025 275.19677734 367.30871582
134.59422302 311.71337891 462.80554199
130.32264709 312.48538208 453.62338257
178.44499207 232.52600098 454.77200317
147.91900635 173.44898987 452.83801270
226.75117493 248.16001892 417.88546753
211.19531250 322.31884766 436.78305054
181.12031555 325.75659180 440.87725830
277.34692383 290.58563232 410.59744263
235.11999512 313.75000000 399.56301880
173.35699463 193.34500122 453.41699219
73.46843719 258.75918579 468.92971802
131.80566406 306.61288452 406.49276733
164.20785522 292.55801392 461.58248901
172.48193359 248.03497314 445.26910400
192.55700684 281.71499634 384.94799805
163.41755676 246.15382385 459.70269775
182.37210083 287.82019043 432.59420776
200.38000488 233.66000366 431.50399780
139.29000854 209.09999084 393.33999634
117.61704254 302.75732422 463.52221680
70.31599426 211.58790588 461.66775513
159.17300415 209.75999451 397.11499023
76.92971039 257.23248291 524.36236572
70.62807465 257.78768921 491.74182129
181.57470703 291.03518677 456.58966064
241.82798767 265.67599487 401.06799316
267.60198975 306.36297607 401.82302856
176.76399231 220.66499329 462.29299927
167.33773804 303.26718140 450.00271606
93.57682037 266.15036011 384.82556152
82.02258301 238.46726990 396.55001831
79.62963867 203.98007202 512.27282715
119.29373932 298.92102051 394.57284546
169.72853088 300.50582886 438.77780151
144.02699280 199.12800598 407.15798950
144.85856628 226.69479370 369.90155029
161.22946167 291.61917114 374.41925049
246.12649536 319.07894897 436.74386597
108.10362244 274.73880005 373.03747559
167.06803894 315.15948486 402.56442261
164.92547607 301.52581787 467.81118774
100.30623627 292.83969116 495.36389160
110.56171417 268.81716919 500.41091919
231.52700806 292.05099487 392.96697998
106.50540161 202.79605103 505.68057251
88.34914398 192.95732117 431.11575317
259.71154785 267.26187134 422.28588867
218.08799744 268.92251587 448.44238281
130.98321533 209.11499023 489.16525269
262.87200928 287.17999268 401.27099609
68.41293335 218.11451721 450.93853760
179.36900330 208.21600342 421.72302246
154.73500061 185.04600525 438.16998291
115.12734222 251.51571655 500.88452148
141.08325195 215.77418518 382.62710571
137.70979309 313.85073853 417.35241699
79.84362793 276.35971069 485.55151367
73.37680817 254.97079468 444.20703125
157.18827820 243.45072937 444.52160645
101.99831390 174.17205811 473.07049561
221.09100342 302.55499268 390.96099854
204.85565186 229.64865112 442.59017944
218.29016113 243.53053284 446.57080078
86.93376923 215.86277771 519.24114990
98.59672546 234.23727417 381.59454346
167.91213989 319.57269287 410.89379883
112.23595428 258.16162109 367.27987671
73.00865173 208.74090576 481.98147583
173.33300781 210.37500000 408.03500366
242.45401001 281.84500122 396.69100952
74.21277618 209.88558960 425.07015991
185.07699585 221.04499817 404.73199463
116.23233795 260.70877075 498.72378540
69.44610596 239.08433533 470.61264038
84.45990753 201.55537415 414.42352295
197.93287659 303.58273315 473.39505005
70.31552887 238.01429749 423.25347900
170.41973877 315.41439819 443.89175415
80.78580475 269.88415527 410.75885010
193.38198853 226.29399109 403.78601074
143.00788879 261.57949829 362.50759888
105.38240051 226.03997803 506.68771362
149.61558533 310.85113525 477.62115479
147.99140930 281.48461914 369.92364502
73.65824890 208.77984619 440.91073608
255.18301392 309.22698975 402.44000244
74.43648529 223.62297058 413.57525635
189.92900085 216.74400330 424.62899780
208.76699829 232.45201111 411.39599609
175.29000854 294.55300903 381.84100342
74.73560333 246.57061768 411.50714111
111.84034729 303.69314575 422.84014893
140.36799622 179.67900085 439.98101807
101.17493439 297.00643921 455.77551270
183.49800110 206.54299927 440.44900513
194.79069519 323.61373901 410.42889404
168.16229248 279.56536865 459.79486084
94.08710480 218.48811340 391.29208374
186.69554138 279.93359375 427.58926392
120.99273682 305.15008545 413.01437378
87.36306763 186.18150330 446.96408081
92.48725891 198.71757507 515.56896973
119.67685699 197.03982544 494.72247314
175.42259216 261.78793335 428.72943115
239.75215149 316.87951660 449.55505371
164.34100342 196.93798828 470.06698608
201.90699768 263.48300171 451.62500000
261.70651245 298.33905029 417.50006104
240.61100769 302.57299805 394.15298462
140.52421570 308.38836670 477.78259277
233.07437134 276.27661133 438.99932861
98.53915405 205.56803894 400.58468628
84.39714050 192.34498596 440.59564209
151.94767761 286.29919434 462.21240234
243.30241394 262.56045532 432.96966553
74.12207031 199.99987793 451.70635986
67.71869659 239.71792603 490.44305420
77.33194733 198.51197815 469.61392212
242.20257568 281.46945190 431.58642578
175.87199402 201.63999939 455.10699463
83.61016846 258.14498901 397.67785645
177.47033691 317.20645142 451.33898926
90.06064606 286.87710571 465.36370850
78.25829315 268.01745605 448.52078247
70.96405792 245.97491455 429.97286987
211.57499695 297.25097656 391.27999878
145.43890381 296.42163086 378.24545288
169.28500366 212.66600037 399.74902344
131.26618958 173.80535889 476.31771851
121.71506500 308.18286133 451.97177124
179.56900024 215.55000305 455.75799561
194.17234802 302.49914551 396.35702515
139.27040100 208.19841003 484.92395020
152.24136353 266.34423828 454.65277100
79.23122406 266.98977661 419.33007812
92.18118286 290.00003052 457.16012573
143.30021667 263.57821655 452.67019653
249.38952637 248.79734802 421.15750122
67.72726440 227.07649231 505.29830933
156.24031067 301.69409180 473.92749023
207.57867432 320.11694336 449.68618774
216.16320801 235.55464172 422.94122314
187.53700256 231.25599670 421.04901123
177.74403381 268.78732300 423.26724243
173.14833069 265.92996216 448.87069702
69.16346741 222.52009583 518.68725586
86.87226105 272.42410278 396.20596313
176.53527832 281.91867065 429.92004395
95.17718506 291.98278809 441.04855347
218.87037659 257.98992920 447.78671265
271.18499756 289.00000000 404.32299805
136.75044250 266.91308594 456.85226440
98.70045471 186.34426880 502.47036743
198.25076294 320.71276855 448.94134521
69.45075226 222.28607178 432.81158447
192.88319397 297.44250488 462.90161133
188.72700500 252.27900696 381.70599365
186.85499573 233.82600403 433.82000732
65.37328339 240.38165283 519.90411377
174.42138672 305.91754150 462.80718994
114.16873932 290.16894531 380.60791016
192.32299805 220.00599670 416.44299316
68.67784882 232.49835205 442.56729126
90.33381653 192.20732117 503.37356567
108.42281342 225.80615234 379.17901611
172.62400818 219.13200378 394.68197632
231.16500854 253.68299866 407.27801514
171.79000854 211.43600464 467.22900391
186.77992249 261.98858643 448.53674316
162.88197327 261.53393555 453.06625366
140.24003601 253.17910767 359.93820190
235.69102478 251.73468018 425.86328125
201.10299683 236.66099548 399.99398804
133.15892029 308.17108154 470.61419678
179.28900146 238.31300354 460.92501831
197.59098816 293.35974121 395.92578125
253.91622925 318.91879272 432.77355957
132.51400757 170.84899902 458.95901489
210.16854858 249.96656799 459.00128174
170.08000183 305.20095825 389.35305786
69.91879272 240.01683044 452.04452515
160.78842163 322.37850952 428.21612549
115.71265411 245.90849304 366.96676636
137.95599365 264.50399780 481.80899048
227.00074768 314.98364258 461.65631104
115.31845856 281.52984619 489.18557739
125.49668884 231.64135742 368.85067749
109.07773590 233.02445984 504.20349121
223.29130554 323.05816650 423.02960205
239.58804321 314.02389526 458.15667725
171.81039429 260.09637451 438.37448120
209.51295471 303.96328735 468.56814575
131.84088135 295.49813843 476.63735962
66.59139252 231.09173584 512.62292480
112.32979584 214.82600403 384.86413574
149.99040222 312.29797363 403.76519775
161.21360779 321.65313721 436.83370972
178.11700439 199.61000061 437.93499756
165.23399353 201.71800232 417.25900269
128.95098877 311.47979736 423.14105225
124.51305389 259.52590942 360.82385254
74.76659393 256.42736816 421.37591553
129.01492310 296.47131348 382.24734497
76.20827484 276.09725952 514.52331543
84.84906006 207.82862854 407.76696777
175.01200867 237.10499573 471.07897949
178.52462769 277.08489990 423.56918335
103.91807556 279.77389526 379.75021362
98.56453705 244.71492004 510.04815674
94.57249451 194.83335876 412.88104248
96.55583191 294.09289551 422.77462769
81.16275024 270.76559448 455.70474243
188.53871155 322.35513306 445.63827515
82.14942932 192.39500427 483.14526367
102.48543549 175.48474121 481.07247925
98.93560028 183.79968262 437.80911255
143.58845520 315.17825317 462.25845337
127.52564240 217.87528992 379.81781006
150.72500610 255.46801758 466.37100220
78.42451477 229.37612915 406.80078125
186.52233887 266.46624756 429.99584961
85.09992218 248.90579224 518.00433350
69.98744202 244.19653320 481.30831909
155.40255737 317.34915161 413.91754150
174.64865112 290.55075073 426.70632935
96.05225372 181.46592712 446.61569214
170.55799866 202.18400574 464.81100464
194.83938599 315.17239380 399.37771606
102.81903076 266.49819946 507.35260010
77.68740082 268.50051880 433.14407349
129.49467468 253.04528809 360.98788452
274.91281128 300.40747070 412.19833374
106.61885071 185.76399231 423.03894043
104.94980621 265.45135498 373.19851685
107.35946655 192.04841614 410.51641846
87.25945282 284.99322510 423.07278442
269.62945557 314.98245239 412.38061523
245.18182373 254.36836243 413.33477783
207.91213989 227.09750366 427.01864624
135.40570068 277.46942139 451.88613892
225.72399902 310.19400024 395.93301392
114.13436127 231.42002869 374.00894165
119.00909424 169.61256409 474.37460327
87.38375854 284.41009521 472.23779297
229.93511963 288.98303223 442.29354858
217.33003235 318.82540894 452.28225708
123.86501312 271.88427734 489.02807617
211.43408203 321.91546631 409.24530029
140.85745239 184.69821167 481.99230957
135.95710754 290.10848999 375.44610596
73.15440369 211.55093384 509.11563110
149.74656677 242.16033936 461.19854736
166.50299072 195.17199707 430.25399780
171.99862671 242.75868225 456.97879028
147.09300232 182.85598755 437.04101562
124.00334167 284.09725952 371.75354004
105.53828430 203.82482910 397.62792969
69.96652985 217.34835815 469.71185303
69.54833984 266.30712891 516.13928223
76.27455139 206.94873047 433.81494141
70.10335541 229.86405945 422.14050293
68.03265381 227.34648132 464.19088745
130.43161011 245.30780029 495.76477051
81.43010712 200.14491272 499.33355713
188.64102173 326.42492676 427.43878174
220.51243591 321.22409058 406.33114624
135.17095947 289.33984375 462.51815796
185.07910156 315.03485107 469.49945068
241.51002502 303.36495972 439.75512695
126.83815002 280.35211182 457.76153564
184.67298889 295.46499634 389.48101807
84.85330200 285.49182129 497.86141968
191.27084351 301.15518188 469.54345703
222.76855469 313.01782227 468.00054932
124.61508179 304.79296875 470.73468018
233.02055359 266.09817505 439.89828491
72.06954193 205.05305481 457.25793457
179.34800720 227.62001038 441.38400269
178.05799866 255.62699890 375.76400757
198.60400391 247.23899841 459.06900024
68.66130066 224.23484802 496.77770996
134.53909302 315.99951172 438.15982056
194.77499390 271.02099609 384.79098511
156.35800171 204.21800232 481.20001221
165.89199829 223.97599792 480.64300537
82.78814697 239.88920593 519.66979980
180.75756836 307.06494141 394.59292603
129.49919128 270.59143066 484.32223511
259.21957397 276.68310547 421.20938110
220.42147827 241.91882324 417.76107788
142.81910706 233.16204834 364.60488892
83.80110931 280.53582764 441.79852295
88.48572540 184.66305542 474.12377930
231.86618042 299.97952271 447.06854248
184.54701233 244.41499329 383.84301758
206.78199768 258.34597778 390.89901733
157.33200073 233.62001038 489.42398071
119.41347504 284.66207886 465.80303955
201.66300964 229.09300232 416.04699707
186.90299988 323.32580566 410.76776123
123.52000427 186.94700623 422.21099854
214.87690735 323.22052002 424.41436768
167.45500183 233.60200500 380.04199219
101.98646545 258.44778442 508.40527344
83.12486267 264.87548828 520.54644775
189.95399475 289.19000244 387.60598755
153.11999512 203.13200378 405.30801392
180.12200928 213.47300720 409.96398926
126.20655823 311.97222900 432.03082275
158.03599548 217.97999573 485.54501343
129.36021423 270.09564209 466.34780884
87.08961487 248.33660889 390.06970215
236.67199707 271.34002686 398.92700195
75.97859955 268.97003174 482.31387329
88.26539612 286.64642334 509.24487305
98.50146484 283.97195435 393.77618408
129.20074463 200.53053284 398.86740112
211.39561462 317.69564819 458.02728271
101.21631622 196.99162292 510.66809082
183.11099243 283.45098877 378.54598999
249.23445129 315.80984497 447.16543579
195.60784912 274.70031738 455.60107422
168.84808350 274.96713257 371.19030762
215.16371155 256.75817871 455.38079834
197.69116211 324.91287231 421.23095703
73.41426849 227.74168396 525.87231445
116.20327759 203.34106445 394.32849121
178.86825562 251.71446228 443.70739746
91.63479614 208.79440308 516.95294189
176.32112122 275.51153564 445.09735107
96.07386017 260.17034912 380.83285522
172.92736816 313.78869629 460.54028320
120.82175446 278.14242554 471.33929443
187.11799622 239.16600037 450.66400146
156.14390564 250.54409790 461.98730469
76.29178619 239.26358032 524.61682129
76.36440277 276.22518921 506.95819092
130.66314697 303.26138306 399.36135864
159.81163025 313.64556885 466.02749634
143.54307556 243.32212830 493.51495361
117.66458130 264.65533447 364.84417725
228.23281860 253.84802246 438.04949951
177.30799866 225.42500305 392.62701416
146.49107361 198.54049683 482.72106934
165.03042603 263.96386719 367.53961182
93.79715729 247.89450073 382.31042480
172.72900391 226.20399475 472.24700928
249.34700012 284.79400635 398.61801147
267.91058350 305.38082886 415.54006958
134.90898132 315.38821411 448.58340454
243.78399658 316.67398071 404.85800171
143.29487610 318.14959717 434.14080811
83.07781982 276.54455566 413.31018066
154.86114502 309.84826660 390.01629639
227.57199097 298.86199951 390.94998169
223.59701538 321.37759399 437.29766846
250.08898926 268.14300537 401.82998657
144.82356262 295.22375488 472.52218628
100.38054657 211.03846741 510.46807861
214.00256348 313.60690308 467.90856934
113.44358063 178.93164062 494.73126221
123.09156036 193.11262512 409.82891846
91.32425690 253.68836975 515.15216064
143.26062012 289.82855225 374.68682861
207.74600220 282.10699463 453.58398438
119.12522888 233.14398193 499.84075928
204.79199219 292.60299683 393.07699585
76.16413116 263.44302368 464.03890991
109.34651184 209.32334900 503.62408447
155.34100342 227.18499756 375.27902222
96.42294312 188.75567627 423.63317871
104.05949402 178.69633484 492.29974365
92.81263733 234.97213745 386.06820679
138.17349243 301.66656494 385.94619751
159.14466858 311.13717651 399.67028809
95.81133270 179.42890930 458.45104980
216.92498779 283.38598633 391.01498413
253.57395935 310.48699951 436.57489014
153.25999451 191.24501038 477.67098999
212.84251404 242.25840759 452.27514648
85.47940826 196.07089233 423.07449341
179.63301086 205.00401306 432.15399170
120.53058624 227.19546509 373.99121094
185.04429626 257.14608765 434.00793457
111.79368591 216.36163330 502.12252808
134.61700439 192.65901184 413.97399902
218.50900269 283.48898315 449.47698975
227.03413391 318.58041382 448.39831543
79.68528748 277.93478394 492.96685791
172.43147278 294.90051270 453.85165405
199.87100220 236.04899597 438.39700317
126.72920227 182.23608398 487.57006836
180.25100708 207.62899780 451.73901367
101.49973297 227.42134094 382.20666504
68.91501617 252.33549500 496.24740601
240.42127991 295.66180420 433.56680298
130.72085571 259.40890503 490.88177490
70.75086212 251.12461853 479.19705200
115.70140839 301.25735474 407.61691284
255.39067078 303.76882935 421.88473511
102.95471191 298.07321167 465.62768555
217.07199097 242.68800354 407.80401611
143.14100647 173.31500244 468.65902710
161.99589539 275.94958496 458.85232544
166.00090027 248.38037109 372.15612793
119.83167267 288.58966064 376.39620972
262.55398560 278.88400269 402.47198486
130.98196411 207.95416260 390.03973389
177.32162476 326.01873779 422.10592651
82.49300385 275.99270630 428.96844482
82.85901642 222.71243286 520.66345215
110.65113831 188.13116455 416.17633057
108.94199371 176.54080200 450.39526367
97.60261536 273.21633911 509.90081787
124.84811401 211.79548645 493.36230469
162.31054688 311.90808105 451.13574219
80.94661713 212.60414124 522.22619629
250.61398315 287.71090698 424.24694824
153.75700378 210.94999695 392.52401733
68.12825012 232.57646179 487.67553711
185.06399536 217.58599854 429.84799194
65.75773621 256.30596924 521.10321045
100.31262207 297.64117432 428.02502441
218.50399780 262.27600098 395.89898682
255.00425720 257.85815430 409.48147583
165.82402039 251.52021790 447.29962158
75.21713257 264.40893555 524.64727783
220.68840027 303.43795776 464.42599487
267.06201172 294.85198975 400.98199463
97.28195953 285.12185669 505.80059814
153.03771973 319.49560547 440.56677246
113.77184296 304.35195923 457.08590698
143.22200012 260.33200073 479.27999878
171.38800049 202.96899414 422.46197510
66.03034210 253.12564087 511.74407959
99.74626160 280.90121460 385.95745850
145.27795410 212.87612915 485.14382935
142.30400085 189.15798950 422.21200562
173.20512390 299.77142334 386.85980225
187.17601013 214.58900452 436.69097900
65.43748474 245.65476990 510.27072144
199.53900146 274.87799072 388.42498779
175.04798889 193.89199829 444.01800537
206.67285156 307.42098999 393.69277954
260.75604248 313.30023193 424.36346436
98.51217651 289.65328979 404.66937256
89.17972565 189.62629700 490.02691650
233.91699219 285.41500854 393.51098633
117.54183960 182.69194031 431.01766968
80.88398743 192.20634460 466.08087158
199.81098938 243.11900330 452.60000610
199.09855652 316.54019165 462.48361206
167.86949158 289.82788086 375.03601074
95.54152679 273.09918213 385.48263550
107.80299377 302.40841675 452.33642578
227.40901184 275.60202026 395.52499390
132.86280823 266.55706787 361.17471313
86.82411957 194.77218628 497.42572021
102.19088745 298.28390503 448.85717773
72.27793884 257.10211182 475.51263428
137.81198120 177.57353210 476.61932373
137.48277283 278.57250977 366.98944092
162.36099243 205.15400696 476.94799805
219.13999939 296.24099731 455.34597778
121.48477936 225.24388123 497.98120117
181.61120605 258.93377686 444.96154785
121.39590454 189.01119995 493.44430542
98.29914856 251.72758484 377.93267822
69.34630585 214.30163574 439.88696289
143.58767700 220.57389832 490.93713379
155.42900085 191.10099792 426.36099243
122.25389862 293.12594604 465.42404175
205.51867676 323.61245728 432.64013672
132.31730652 284.59350586 371.26467896
89.06578827 266.89715576 516.76123047
184.74531555 272.83886719 431.49664307
135.04658508 217.72344971 379.28576660
90.61374664 272.05145264 390.33099365
178.26899719 227.09700012 459.17999268
78.42845917 197.77725220 485.50421143
126.04286957 246.26374817 361.90237427
207.44926453 238.27774048 450.68081665
248.48698425 300.87576294 427.10131836
117.25644684 283.01013184 481.40219116
89.88694000 280.18115234 399.25408936
200.09558105 295.58367920 460.02197266
151.41372681 250.00994873 447.50024414
259.34478760 319.48284912 413.04519653
204.77458191 316.72872925 400.89398193
68.05636597 233.82330322 457.43930054
151.09600830 253.17601013 482.59298706
180.18421936 304.43853760 468.46853638
211.19700623 250.45401001 394.11801147
259.03982544 314.98712158 436.08508301
100.46575928 295.49237061 415.59979248
176.71699524 320.88546753 444.58053589
150.63992310 243.45008850 364.47064209
155.23199463 242.01899719 488.29299927
108.75710297 239.91969299 373.13693237
160.89404297 240.23692322 453.97058105
153.11000061 224.65299988 491.75000000
119.36887360 174.78475952 449.65908813
72.76828766 210.66729736 496.83200073
222.09799194 251.00949097 446.19723511
117.67694092 203.51884460 496.30041504
252.47729492 258.66552734 427.68093872
73.70942688 239.96380615 413.37139893
141.62286377 234.09306335 494.14788818
120.75207520 309.43774414 443.36215210
110.99166107 305.12142944 439.60556030
164.12300110 217.31199646 480.34899902
88.89939117 287.90798950 492.90237427
157.96420288 242.69088745 460.62857056
113.25049591 294.53414917 475.36669922
116.78550720 175.70199585 488.86911011
151.03900146 173.41099548 458.98602295
92.19308472 290.03121948 434.84674072
91.03488922 286.53295898 409.15695190
187.61035156 317.26889038 461.69927979
166.94000244 245.52301025 467.27801514
223.73292542 275.45297241 445.48556519
172.04199219 230.86300659 384.36898804
92.39716339 182.17929077 479.99942017
252.34579468 320.02856445 426.22607422
71.57850647 248.45593262 439.59854126
179.93600464 237.58499146 384.63198853
184.68399048 245.50299072 449.71697998
193.60899353 233.00500488 414.91000366
184.94099426 211.71798706 423.60299683
158.74501038 222.02200317 379.95202637
174.72996521 279.04809570 455.26812744
155.43399048 181.35699463 465.88800049
149.22801208 198.05000305 411.42898560
142.11026001 313.01309204 410.05255127
246.14662170 273.21997070 430.17864990
85.40755463 233.73985291 518.26519775
118.74733734 305.99682617 419.23941040
231.59500122 318.30001831 403.16799927
72.35530090 204.68959045 463.93881226
274.68450928 288.03948975 416.28265381
81.83008575 277.58666992 519.40606689
145.46842957 309.18075562 398.09771729
108.57805634 187.16090393 503.39620972
117.70508575 219.48667908 498.29537964
136.56451416 305.24557495 397.30392456
243.08117676 251.09213257 420.61605835
74.28981781 271.48007202 502.65008545
167.04100037 212.76300049 475.08599854
84.98679352 200.35729980 514.18212891
209.78199768 243.32099915 395.65200806
184.22499084 256.10699463 378.39801025
105.41832733 293.63110352 402.23654175
187.50762939 286.68524170 427.66952515
224.48489380 317.00180054 455.82778931
188.36300659 233.58898926 427.29602051
94.53917694 187.96011353 432.78015137
256.70587158 267.30157471 408.07583618
78.77869415 235.09814453 402.04623413
106.84783173 299.60314941 416.12121582
68.13059998 226.15713501 454.53143311
133.61985779 232.43455505 496.49011230
165.62620544 285.67568970 458.70031738
222.53984070 246.95086670 422.87704468
187.69569397 302.01724243 396.87652588
149.65084839 291.84436035 467.37994385
267.14111328 276.70898438 411.08810425
191.11199951 257.74197388 452.77700806
86.36858368 254.73687744 391.98666382
196.41500854 264.34298706 385.09100342
118.89218903 300.47073364 474.20278931
109.10807037 296.88998413 482.29931641
193.18487549 283.94415283 456.89810181
94.32900238 230.87040710 512.78192139
72.64859009 255.79559326 454.47131348
154.91708374 251.32575989 364.47323608
80.88229370 252.79858398 521.36437988
197.38101196 313.54489136 471.38168335
83.28354645 275.74240112 466.86224365
171.86540222 253.10275269 440.48626709
125.79627228 257.56900024 494.00778198
68.94793701 229.04267883 436.99609375
233.57850647 314.02297974 461.15664673
143.60800171 259.37301636 471.36700439
139.75100708 255.41699219 490.75399780
75.15184021 260.83023071 446.99639893
245.62400818 296.32400513 395.63198853
116.98671722 208.04214478 389.46936035
223.94424438 246.08068848 432.44485474
187.17401123 231.84199524 393.18200684
79.25362396 263.25442505 409.33792114
66.72245026 234.43289185 501.01541138
240.90318298 256.25680542 432.24118042
82.62577057 271.16470337 402.80517578
69.77134705 246.43222046 463.71591187
215.57267761 232.46296692 417.19070435
117.52014160 170.90596008 462.68981934
256.72561646 254.24281311 417.28903198
152.03334045 211.72399902 483.52047729
99.32665253 219.95085144 387.25000000
183.20442200 274.54827881 451.41607666
141.33499146 185.23100281 429.16598511
264.63574219 279.32867432 418.40051270
196.52157593 322.48294067 441.29428101
130.52099609 169.81300354 465.13900757
165.37500000 191.09500122 435.88900757
149.22106934 313.95806885 469.73580933
267.55700684 313.33700562 405.68701172
165.69900513 235.54299927 480.68899536
125.49517822 299.98956299 389.52423096
206.32327271 298.04251099 461.07354736
153.16900635 187.44400024 432.27700806
156.39079285 261.14529419 455.08334351
79.96157074 213.57766724 409.64462280
92.84973145 222.59095764 515.19622803
164.40699768 221.71301270 383.63098145
216.87699890 269.26898193 395.73400879
77.80978394 192.59797668 456.37039185
190.08999634 268.22000122 381.20898438
73.29903412 258.36422729 438.63796997
79.55873871 270.58398438 426.85430908
72.21378326 264.06304932 492.57458496
177.18225098 290.02426147 451.74838257
69.93055725 230.66636658 478.09164429
194.83299255 223.93399048 409.66000366
157.91261292 289.08621216 462.47427368
92.80426788 290.67419434 418.71902466
234.82099915 297.54299927 393.90200806
100.27709198 294.50027466 485.32598877
241.89607239 308.44711304 454.63790894
128.34556580 236.62530518 498.09582520
73.65966797 216.38806152 417.80258179
191.67999268 248.81399536 452.22299194
146.75514221 256.33285522 362.93255615
145.26298523 304.09201050 385.29556274
132.66323853 273.18191528 363.99850464
124.07380676 311.51293945 438.11972046
248.99382019 306.24731445 433.81625366
177.81481934 264.32974243 441.48934937
177.19598389 327.08193970 435.31274414
106.39395905 279.71139526 499.92309570
193.57499695 239.37800598 445.36401367
219.64367676 311.54898071 395.85742188
70.24811554 217.94674683 427.86492920
203.93800354 284.14898682 393.92501831
153.47177124 241.55091858 451.36566162
100.26074219 265.12649536 377.50097656
96.67285156 198.76611328 406.57968140
211.75610352 323.46759033 430.59832764
92.31195068 290.84576416 480.07348633
191.16445923 305.94079590 476.54061890
146.15924072 277.92633057 456.92144775
181.83111572 316.04489136 403.73999023
237.65054321 321.26828003 414.52560425
69.44579315 213.76565552 446.14694214
154.60600281 253.34199524 473.49398804
166.73794556 255.59838867 371.83160400
184.77243042 317.81585693 449.63931274
173.50578308 281.25064087 374.47946167
69.19844818 222.68600464 490.05120850
135.93122864 226.94277954 369.10009766
238.65998840 309.01101685 397.23901367
250.95999146 313.37298584 405.15597534
80.28131104 194.79023743 476.16510010
144.45109558 274.00799561 366.43667603
210.33833313 314.12564087 398.01873779
94.44132233 178.51252747 465.51528931
151.39154053 228.45231628 370.46737671
147.76062012 217.88725281 381.23538208
261.04333496 268.98522949 412.61730957
109.32441711 253.63024902 504.11557007
129.39671326 203.14183044 488.37582397
136.00897217 293.47244263 472.39620972
163.99882507 246.10609436 444.58645630
186.27099609 243.54499817 455.50399780
122.24620819 294.37722778 472.17309570
73.04444885 254.12788391 426.91201782
174.11000061 221.44099426 468.34701538
135.43595886 239.65608215 362.67395020
92.11498260 184.79205322 487.39419556
73.50250244 258.21881104 460.46865845
78.71781158 199.13226318 492.24261475
176.67077637 298.62158203 457.17956543
110.10770416 289.73330688 385.36630249
104.88719940 213.80812073 388.26687622
193.47700500 256.69699097 383.22601318
131.66532898 221.24200439 493.91976929
152.71099854 196.81799316 480.54699707
94.73369598 240.27275085 512.25927734
80.62501526 275.84613037 479.14871216
223.99299622 287.91699219 447.53302002
143.05500793 202.72499084 402.10501099
106.40220642 172.00303650 467.89361572
217.32200623 251.36500549 400.49600220
187.37290955 269.45730591 452.47357178
99.79598999 296.51358032 441.92596436
231.60939026 302.39508057 453.01654053
245.68699646 259.21697998 409.33401489
124.90299988 176.92098999 444.39199829
162.44117737 320.57940674 418.73034668
97.30133820 183.68531799 494.20751953
118.78540039 217.83227539 381.22183228
202.85501099 230.06300354 436.61999512
77.49991608 206.76194763 419.51412964
117.26045227 282.47470093 372.00149536
172.04125977 325.33670044 425.29196167
192.99639893 308.66262817 396.72253418
171.37770081 292.78439331 460.41882324
162.42369080 309.86102295 392.11270142
118.06906128 246.04891968 499.82827759
167.57759094 268.62478638 371.00799561
186.05899048 217.75799561 409.92700195
166.19483948 306.45184326 456.80798340
140.27758789 197.52357483 484.00021362
127.35862732 291.40429688 461.78665161
102.82379913 239.95401001 376.47528076
119.07977295 275.36059570 490.47534180
130.76734924 186.98396301 486.71447754
236.94099426 261.95202637 401.89099121
75.97885895 235.94107056 409.26193237
106.28113556 289.38351440 390.26852417
200.58900452 231.76998901 423.07202148
66.33045959 241.65754700 503.35485840
65.86535645 245.53439331 523.34979248
70.91116333 258.06582642 527.16217041
143.56631470 267.75408936 364.12014771
140.34906006 279.21328735 454.96942139
171.49971008 294.50805664 441.20233154
176.43762207 313.02157593 443.54794312
129.98500061 185.55799866 425.50299072
255.48338318 271.45843506 424.05752563
183.64801025 233.15100098 439.09100342
186.52537537 284.90682983 456.04974365
71.87095642 252.95820618 466.39761353
113.88594055 306.24261475 432.66775513
246.10400391 304.34799194 396.34100342
78.91445160 270.75344849 470.52664185
159.47599792 243.88999939 482.56900024
125.50979614 305.88739014 409.09027100
85.15467834 279.87496948 454.60928345
107.32423401 199.00611877 402.34020996
208.61541748 323.84277344 419.43692017
160.23300171 186.49000549 440.54898071
201.13299561 259.49099731 456.24798584
104.60891724 238.28013611 506.38043213
117.67150116 187.72769165 417.31115723
123.08713531 293.24737549 380.07553101
258.74798584 294.05700684 398.45599365
179.22531128 266.93515015 432.33212280
162.31765747 318.49859619 413.04718018
211.31779480 308.01492310 472.74731445
88.61956787 226.02713013 391.98483276
175.38427734 285.16046143 453.60272217
254.34526062 252.06140137 422.57507324
120.42168427 184.13905334 426.30270386
71.23152924 217.12121582 515.24957275
105.95771790 253.50335693 372.72033691
222.08309937 262.90188599 445.97061157
273.25241089 282.55722046 411.41018677
84.84788513 280.30618286 419.98959351
203.07000732 251.52799988 459.34600830
263.81420898 291.98849487 416.23999023
160.35874939 248.30262756 367.98138428
178.02398682 244.53799438 462.40100098
167.03001404 205.06900024 412.49798584
161.34298706 191.64801025 469.73300171
170.31497192 286.35061646 429.97775269
212.80157471 235.21781921 438.58792114
205.55200195 264.61499023 390.66500854
153.69599915 175.33099365 453.05401611
179.06410217 256.80514526 428.56604004
95.57910919 258.39730835 512.44024658
88.87915802 197.31260681 414.71469116
110.80500031 291.40017700 487.67526245
170.28399658 243.31599426 377.99398804
109.82933044 221.83378601 503.68560791
204.42298889 240.86999512 393.50302124
185.78099060 265.94320679 423.77618408
154.42126465 255.18792725 451.99142456
131.25599670 175.17100525 446.56597900
169.95341492 307.28646851 447.91641235
84.06207275 187.02314758 454.82577515
202.69900513 250.28800964 387.85299683
184.38375854 327.50592041 434.38653564
151.37011719 319.94021606 427.27954102
208.86300659 259.65600586 456.67401123
195.73199463 240.50100708 386.18698120
93.57682800 241.08964539 383.60601807
147.07986450 308.77737427 392.51394653
204.44328308 304.22836304 471.96984863
171.78500366 197.27900696 457.72000122
131.07299805 181.14698792 435.26397705
173.02163696 304.24169922 457.18591309
120.60160828 241.35595703 366.13394165
130.29736328 252.37846375 493.56765747
180.94400024 205.67298889 445.84500122
150.92182922 280.37069702 460.90927124
237.96463013 309.74386597 462.02609253
75.83165741 253.37037659 413.05926514
104.87052917 174.54862976 460.82965088
214.72999573 237.14700317 407.58599854
212.57440186 301.61248779 463.94284058
118.75009918 172.73199463 454.92916870
251.75198364 274.76098633 401.17498779
262.02032471 320.55651855 422.35104370
124.56023407 272.92218018 365.05426025
81.79923248 224.26942444 403.58316040
103.11486053 187.43028259 506.49560547
72.72309113 209.64329529 490.20639038
157.06690979 236.40927124 368.46279907
107.71861267 260.75112915 370.67987061
226.59109497 322.18487549 415.59643555
198.59031677 289.37103271 456.53875732
125.61979675 274.60330200 477.25091553
80.35674286 243.93556213 398.40823364
183.89299011 228.62400818 425.16400146
116.91812897 184.09176636 495.73971558
163.35591125 306.16500854 471.21527100
238.64906311 288.75970459 434.09960938
77.60926819 204.67282104 426.72763062
231.58081055 249.89648438 421.99688721
247.76727295 320.71197510 414.39205933
163.39099121 182.44599915 450.71099854
69.17453003 233.53852844 468.52767944
177.24739075 291.82144165 431.99453735
148.76200867 186.13800049 478.14300537
261.04000854 309.10098267 401.39801025
181.92399597 276.62899780 378.51199341
174.63533020 307.80288696 391.75384521
143.13400269 176.44700623 446.25000000
112.03633118 251.83695984 368.16717529
238.32183838 320.91671753 429.83401489
247.27055359 258.43521118 430.59884644
154.84016418 308.01684570 477.55343628
186.27143860 312.35031128 474.63931274
73.53158569 268.52471924 497.58831787
66.84445190 260.93408203 517.39587402
151.42848206 300.91867065 380.39761353
268.05456543 313.96655273 417.94580078
69.39965820 227.29449463 429.66900635
121.36425781 261.05636597 495.64172363
181.28842163 291.23709106 427.67507935
89.33889771 196.04957581 511.29400635
85.56682587 214.51901245 403.99234009
89.39570618 208.01792908 404.15823364
141.90701294 172.35000610 454.08499146
234.90081787 252.94190979 431.55087280
238.20846558 279.46371460 435.62020874
129.88008118 216.04504395 492.16708374
215.25099182 302.64599609 391.75299072
101.75505066 296.54791260 472.74917603
192.22499084 234.30700684 391.43402100
193.41400146 229.84098816 409.12899780
147.22935486 269.48828125 454.11761475
113.59334564 206.88943481 499.76080322
152.51353455 277.33010864 367.86953735
233.61885071 318.10873413 448.32000732
175.83300781 245.23100281 378.39001465
167.29701233 265.19485474 453.24191284
104.93716431 208.00238037 507.75997925
83.43672180 284.35440063 503.41839600
188.18699646 237.12399292 444.78900146
159.04800415 206.92500305 402.54101562
160.94200134 246.89599609 474.74301147
253.33055115 282.60568237 423.09252930
204.97799683 271.44900513 390.80899048
139.83389282 247.26077271 360.24072266
209.02735901 321.34393311 443.06835938
199.88958740 305.61465454 395.37057495
124.70105743 171.17689514 477.38104248
216.05302429 236.60159302 431.85659790
200.42900085 271.26898193 454.01000977
123.01669312 177.62614441 487.24557495
232.84298706 251.16142273 412.82308960
154.28100586 247.16999817 485.74099731
117.34301758 257.79687500 364.52447510
78.34312439 268.66564941 439.65628052
191.25099182 276.08901978 382.93902588
157.38269043 287.66094971 371.78115845
98.08338165 291.08911133 500.43023682
155.12821960 265.12478638 366.39373779
162.24905396 296.63940430 465.16735840
180.72412109 277.43725586 431.54891968
70.15095520 233.75947571 525.48352051
183.77770996 299.09237671 392.94552612
83.97704315 266.19274902 398.45010376
68.97769165 258.90933228 505.34701538
180.06802368 322.01028442 410.23684692
134.66464233 306.16952515 478.06335449
167.96124268 298.18014526 464.13983154
115.96401215 172.00645447 482.11492920
142.53953552 316.84429932 449.81072998
258.02133179 293.91073608 419.39657593
183.86123657 279.17669678 422.43374634
125.15180969 311.26458740 446.72601318
168.97499084 246.16799927 461.22100830
194.17500305 236.82899475 433.98602295
132.46931458 301.29229736 480.86193848
91.16786194 288.04223633 446.48953247
70.56999969 248.34934998 456.30477905
193.64884949 290.45117188 393.18508911
226.04959106 299.01345825 452.35223389
101.53771973 179.60763550 446.50271606
69.10147858 237.99960327 444.50939941
75.47869873 263.20498657 432.85101318
182.71000671 238.73600769 455.47598267
128.75473022 197.48594666 488.91958618
179.97700500 223.06500244 397.16198730
137.82284546 283.97702026 456.77478027
256.85693359 263.23345947 425.22586060
147.55250549 319.00164795 438.02279663
143.09599304 250.83898926 491.71701050
136.85800171 170.58700562 464.30398560
78.65365601 249.19963074 401.50076294
245.15193176 317.94592285 442.25244141
170.78599548 239.89099121 473.79299927
173.66218567 315.43911743 401.07998657
131.04032898 236.45924377 364.74502563
152.75799561 233.76699829 492.88400269
161.50942993 311.47851562 445.67727661
153.48500061 181.08900452 443.44500732
115.85335541 195.25967407 405.65118408
111.95588684 182.99255371 498.85705566
103.81973267 274.38177490 377.04940796
69.78723145 265.15502930 509.67062378
148.74400330 194.77899170 416.09899902
132.46299744 172.67900085 453.54199219
187.50700378 280.47201538 380.66101074
125.76827240 209.05934143 388.11444092
206.32821655 227.33190918 432.96173096
231.80648804 305.29605103 460.49328613
210.60299683 273.95901489 393.72399902
167.80699158 220.11099243 388.35800171
159.26835632 275.92333984 369.08901978
149.54757690 244.99186707 444.71139526
182.79487610 327.02319336 423.69702148
87.16219330 285.83822632 486.51785278
114.20481873 299.97335815 468.24807739
80.34937286 194.05357361 444.33020020
198.38639832 308.14587402 476.77001953
244.29466248 296.05395508 429.42413330
178.32099915 209.55699158 416.28302002
89.80661774 262.63262939 387.23611450
131.87672424 204.20091248 394.89944458
173.15480042 291.10308838 377.41824341
176.13301086 261.18698120 373.64102173
100.22792816 216.92642212 510.39968872
153.04594421 317.15945435 458.85937500
192.61106873 317.69366455 459.05731201
181.52299500 218.36199951 446.68002319
162.80700684 230.25601196 484.69201660
174.27220154 321.94799805 412.46313477
228.73100281 268.85699463 397.94799805
259.71804810 259.57885742 417.06216431
180.99658203 282.34677124 452.61160278
80.94844055 274.59597778 442.73855591
168.85800171 188.98400879 455.28601074
85.36890411 238.96726990 392.06378174
178.33499146 297.27600098 387.47702026
241.91999817 312.87899780 401.08801270
69.22014618 215.13853455 457.43630981
166.65699768 303.22900391 387.23699951
101.54737854 249.93981934 508.46517944
67.72610474 224.33937073 447.05557251
149.31707764 265.35952759 364.87341309
127.10246277 224.01841736 496.01702881
207.24105835 312.67214966 470.81094360
161.02667236 259.88760376 367.35848999
187.83247375 315.07012939 400.86877441
107.68328857 292.71127319 395.83526611
161.86827087 302.73757935 381.71447754
90.16645050 247.23620605 515.55963135
145.18606567 307.52481079 480.86947632
107.13609314 284.42218018 380.00460815
137.06251526 311.62408447 411.95474243
135.84271240 211.79293823 487.51116943
162.19781494 256.43896484 450.77313232
134.59695435 250.43457031 359.25234985
206.14810181 320.29583740 406.95239258
110.43917084 193.87365723 502.80184937
243.71728516 319.72042847 410.01913452
162.41209412 284.39099121 372.01116943
240.59069824 321.37982178 423.01892090
144.79406738 316.79629517 457.06912231
173.59072876 324.09906006 418.20516968
173.72572327 242.28800964 450.54397583
80.33531189 207.34411621 413.44787598
121.22133636 201.18348694 396.65469360
91.04200745 216.74333191 395.61215210
80.19155884 259.01739502 402.00897217
109.45655060 298.20092773 408.11349487
106.06676483 182.77330017 435.89749146
170.27655029 304.20303345 442.99130249
173.09260559 261.70004272 444.78149414
166.33798218 323.26492310 435.32034302
132.57115173 222.81648254 373.50311279
194.81414795 324.16909790 434.51232910
241.30700684 276.15298462 398.82400513
230.75497437 259.93841553 440.65759277
110.34961700 227.60812378 503.67218018
222.90100098 260.00198364 398.52301025
70.47272491 218.58770752 482.86236572
175.49299622 214.22599792 461.98498535
204.36700439 236.58299255 405.32699585
209.02999878 275.73400879 453.27099609
171.84217834 257.04510498 373.09078979
264.54766846 317.11172485 410.20651245
72.60292053 205.46092224 445.79043579
196.02999878 232.13400269 402.14401245
79.54441071 227.57409668 522.61291504
78.63047028 223.78942871 408.03070068
184.23399353 215.28599548 441.70300293
174.24800110 231.69200134 472.15499878
190.00000000 227.93998718 399.07601929
72.75053406 271.81600952 515.37451172
140.49374390 224.94570923 492.98736572
238.03498840 253.48800659 412.40399170
96.15687561 180.08952332 453.04473877
189.60200500 243.72399902 386.06597900
143.55456543 220.68713379 375.68936157
99.92661285 278.95721436 506.20657349
119.30339813 169.51820374 467.79095459
131.27998352 280.97348022 452.41030884
137.32290649 244.20486450 494.52471924
129.16755676 264.88916016 488.91744995
174.89280701 262.97552490 434.81207275
249.70173645 294.09466553 425.00970459
78.34989166 202.64266968 438.59799194
144.79895020 287.19021606 463.07302856
68.79576111 219.33894348 437.56921387
204.10600281 235.10600281 443.23300171
133.17817688 267.24047852 473.43276978
150.62928772 318.11975098 419.83593750
260.00415039 304.21157837 418.75335693
226.05659485 319.83724976 443.11389160
73.78646851 207.54632568 475.81838989
180.11116028 315.79315186 465.54190063
249.63900757 321.03924561 421.53411865
153.98199463 207.94999695 397.55697632
143.55799866 205.99099731 397.69100952
116.32358551 307.40322876 445.80126953
175.87300110 269.69097900 374.36599731
171.51199341 190.20399475 447.68701172
109.58872986 195.11370850 405.92059326
190.55552673 314.67944336 470.71749878
164.64901733 316.61138916 407.41046143
161.64839172 298.46746826 377.99124146
243.58145142 308.32919312 449.40481567
116.55251312 295.18301392 388.00845337
121.08150482 279.28924561 368.50805664
230.64628601 294.37686157 442.79559326
196.15901184 279.41500854 388.39001465
180.04600525 220.78601074 457.32598877
113.93798065 231.88549805 502.04449463
135.29693604 185.39353943 484.07699585
74.00307465 258.38806152 430.68273926
136.75199890 199.51599121 404.50900269
102.06736755 192.73089600 411.15322876
257.36001587 304.40200806 401.00799561
97.51886749 294.25411987 458.50079346
177.00559998 271.12338257 441.78399658
185.46499634 226.08599854 417.71899414
181.75099182 220.67100525 433.13900757
66.32973480 233.57568359 506.39193726
229.70497131 280.13967896 440.93475342
107.40749359 283.67794800 496.25988770
225.84300232 252.68200684 406.54098511
220.31100464 250.17300415 404.96099854
69.78408813 235.93865967 476.25811768
79.04126740 266.86337280 458.60321045
93.14495850 273.44015503 513.02423096
194.96986389 318.75115967 403.45980835
164.64900208 191.68600464 464.99600220
84.47093201 281.01217651 447.85723877
107.07558441 175.53146362 455.06558228
130.17825317 300.10369873 386.88708496
132.49118042 269.11190796 480.29568481
91.09450531 185.05825806 443.16409302
214.03015137 248.61596680 455.37548828
71.56504822 253.21301270 471.72225952
86.11505127 185.42706299 459.78677368
89.36114502 277.16284180 514.26257324
224.33280945 305.88964844 467.39208984
89.95496368 232.67013550 515.41735840
148.41050720 263.14053345 453.07302856
217.62399292 289.93499756 388.93801880
126.84659576 299.36965942 480.46673584
160.77600098 202.98799133 410.43402100
127.05771637 307.36898804 466.65991211
114.80976868 290.13397217 470.37960815
102.25416565 285.41995239 390.21484375
207.57299805 300.23199463 393.54898071
179.15899658 241.95001221 381.12500000
152.23300171 177.60301208 447.67498779
151.62419128 298.90505981 473.39984131
126.85095978 301.85272217 395.55889893
222.37216187 246.69808960 415.12664795
97.82194519 177.75454712 479.31329346
120.02790833 209.50163269 495.58999634
75.79247284 207.01478577 507.83908081
186.56460571 292.38357544 458.34420776
221.24874878 241.37705994 434.22180176
75.92200470 204.81182861 496.03466797
124.41925812 307.80480957 417.51736450
70.28638458 222.18479919 474.24487305
200.18600464 244.75700378 386.59301758
92.76367188 290.44165039 462.60018921
168.98658752 299.35934448 445.21328735
138.62149048 262.92715454 465.30349731
84.23125458 275.75823975 459.25015259
126.44253540 171.98670959 455.30288696
157.00788879 250.77081299 456.12850952
72.22933197 212.68847656 474.50979614
73.88854218 215.88871765 520.52862549
173.91978455 257.62573242 432.84255981
136.15399170 177.84098816 442.77600098
251.07800293 306.97500610 399.66601562
157.97500610 316.91928101 449.45294189
186.73600769 264.89099121 378.55499268
112.50069427 276.33093262 370.39578247
230.44148254 320.54193115 438.02761841
167.47955322 304.61459351 462.63165283
78.60292053 271.64224243 476.50531006
257.10101318 275.04299927 400.89602661
234.96150208 270.92834473 438.67562866
123.79799652 181.49699402 434.47698975
108.71747589 240.86573792 504.25433350
177.13600159 237.89199829 466.22402954
94.75659943 211.86160278 397.39154053
69.64556885 243.04954529 456.35952759
149.29400635 181.70199585 473.36099243
157.86099243 196.41000366 419.22399902
227.70933533 322.09854126 425.90512085
146.66017151 318.39520264 443.19412231
168.06781006 310.83874512 443.66110229
127.42727661 288.27737427 456.78250122
131.20275879 293.31726074 378.48043823
120.58799744 190.43699646 416.09500122
196.30488586 324.71945190 415.47647095
256.83529663 308.56182861 423.78652954
212.15100098 260.58798218 394.35198975
210.44000244 268.95202637 450.96398926
216.81298828 239.68705750 442.19830322
180.08799744 224.74899292 436.75198364
161.40104675 241.99989319 371.69219971
67.64231110 226.71142578 515.47052002
224.91000366 305.16201782 393.58898926
116.03015137 270.11175537 366.48333740
178.90800476 227.98500061 446.66900635
85.32865143 194.75680542 434.85488892
154.72737122 250.31277466 443.25964355
134.82986450 314.01504517 456.07012939
104.31823730 176.81893921 487.40844727
145.78700256 258.94702148 460.31799316
144.71928406 311.60540771 474.53231812
212.50028992 323.09417725 414.48327637
140.93501282 304.19387817 481.42199707
164.02999878 235.94200134 376.73300171
180.50109863 309.26208496 472.41674805
217.65600586 318.04495239 401.18920898
73.73070526 264.74981689 485.17932129
106.30810547 301.88769531 427.17581177
70.38833618 243.89273071 446.47305298
160.50221252 314.62219238 459.12026978
70.60675812 240.91162109 431.44592285
99.56335449 215.09075928 389.59411621
72.29402161 214.59144592 422.56396484
124.03964233 221.56210327 377.13403320
139.21763611 203.13279724 483.56234741
235.11000061 266.09799194 399.16101074
161.25399780 183.44400024 445.97698975
107.31173706 292.23754883 491.56268311
147.07035828 237.64578247 364.29498291
178.18299866 203.03800964 450.14001465
129.75541687 314.08276367 436.74560547
245.97500610 291.07901001 396.11700439
75.55548859 202.25840759 472.76727295
181.84823608 255.56814575 440.99679565
129.69444275 258.52035522 361.32867432
87.47100830 282.37976074 466.60769653
181.73754883 322.67715454 445.35946655
195.62417603 299.84732056 466.69610596
150.72021484 294.51583862 375.69561768
174.82754517 270.69491577 447.64999390
76.16913605 248.91656494 407.05468750
70.43605042 253.50823975 486.04098511
71.46378326 223.05856323 523.42126465
152.24737549 237.30430603 462.38259888
136.58363342 308.53866577 405.31542969
246.36283875 281.34918213 428.35494995
140.41262817 176.15400696 472.34048462
188.11999512 219.60798645 419.57501221
139.15321350 229.58329773 494.96908569
211.56700134 279.99301147 393.20401001
72.72271729 254.03810120 449.20501709
164.70095825 320.51925659 440.87176514
85.87777710 219.09625244 401.31079102
168.36898804 190.71299744 441.88897705
225.90699768 291.04800415 391.19299316
196.00300598 259.44201660 453.56301880
102.87451172 246.78150940 375.20623779
171.37316895 285.92831421 373.92410278
250.04321289 257.76119995 411.67517090
145.18399048 171.61299133 464.16900635
65.01395416 241.19210815 513.65295410
226.84191895 319.73117065 404.32720947
78.85501099 268.09527588 522.73284912
242.04699707 270.96200562 399.34997559
138.34780884 315.49670410 424.87542725
176.13154602 283.66201782 425.09082031
104.23246765 243.50576782 506.90817261
88.15859222 282.46005249 407.60174561
68.00514984 232.94850159 463.58758545
172.52342224 315.90686035 450.04486084
231.71932983 321.48266602 413.15478516
188.26101685 299.53521729 465.59994507
250.73974609 305.26132202 428.81558228
167.55699158 260.58880615 450.81442261
85.43653107 186.82916260 465.60507202
137.31660461 310.96884155 469.27648926
181.05200195 242.88000488 458.12197876
82.91461945 197.52058411 495.18258667
193.74928284 297.26522827 396.96923828
164.82299805 188.56900024 460.85598755
218.01100159 296.50900269 390.94201660
69.99188232 233.12174988 426.15170288
209.48034668 231.41661072 437.54260254
105.85955811 269.21398926 504.17245483
88.27633667 286.48516846 428.17922974
222.08898926 273.27297974 394.34701538
201.63301086 262.37899780 388.14801025
249.62428284 248.39517212 415.88021851
65.41640472 235.47616577 518.31640625
247.84700012 279.85598755 398.67898560
163.62300110 209.75500488 400.30499268
71.10894775 265.28002930 504.69644165
83.89479065 269.93264771 519.86041260
178.23199463 206.31900024 426.37899780
124.34245300 302.92581177 476.34567261
187.32394409 318.38500977 442.71231079
83.36156464 278.57968140 433.69616699
174.12200928 204.08399963 459.74401855
245.26808167 262.36096191 405.27105713
69.60973358 244.84866333 468.49966431
108.33274078 298.04571533 477.39282227
124.28340912 197.42558289 491.44982910
268.04693604 299.47042847 414.44647217
72.16660309 268.41476440 523.54437256
182.31846619 282.87228394 430.83932495
176.23500061 196.67300415 449.51901245
142.13703918 300.47286987 383.04278564
123.67942810 309.33758545 423.52008057
213.86300659 231.90901184 411.05499268
138.97999573 190.88500977 417.77798462
156.49797058 257.46359253 366.60906982
68.94750214 224.93800354 468.67660522
249.48516846 308.73843384 439.63714600
79.86296082 261.13928223 522.81268311
129.84800720 192.93099976 412.11001587
227.40536499 314.46624756 398.36163330
92.25852966 203.74111938 516.56738281
152.74600220 218.38600159 381.74099731
130.29516602 227.83421326 496.68548584
102.21256256 222.69535828 508.87066650
99.04553986 286.75036621 398.08193970
127.01844788 276.08618164 461.54437256
120.77440643 215.89453125 496.44100952
222.34895325 269.74200439 445.74121094
71.38574982 238.89973450 417.74386597
157.10694885 306.64108276 384.27487183
194.20098877 236.06799316 428.93200684
119.95681000 304.70700073 459.51782227
275.51062012 287.48324585 406.97189331
160.72030640 241.28933716 448.41223145
68.00515747 218.59288025 444.34445190
87.38443756 283.65872192 513.29205322
164.23956299 323.21127319 424.77380371
148.87100220 209.65798950 393.24899292
116.03387451 298.90869141 399.30352783
97.06462860 197.64967346 513.62695312
149.91107178 242.59565735 455.18499756
90.03224182 261.97128296 515.83697510
165.56150818 271.19525146 455.73950195
112.90130615 183.92803955 428.08465576
213.59899902 282.22399902 451.10101318
89.79233551 286.57025146 460.38244629
162.47500610 221.23699951 483.24499512
182.78900146 221.46299744 427.46002197
131.34999084 183.54100037 429.97198486
69.59118652 212.14526367 453.41564941
77.49790955 273.99270630 490.47662354
114.82187653 287.18508911 477.43710327
111.66693115 180.79475403 438.06378174
237.30036926 265.20162964 437.26730347
236.78524780 300.32849121 441.85424805
146.35868835 312.70272827 406.93807983
77.75360870 193.52438354 461.30230713
153.77600098 197.05699158 415.15899658
140.42100525 261.36199951 484.94900513
145.92100525 171.52400208 457.40802002
148.28572083 224.00889587 372.63854980
235.98318481 320.25952148 435.65570068
201.12783813 224.50517273 429.62963867
136.23901367 180.66699219 437.20498657
258.58499146 288.99099731 398.48300171
177.16471863 286.11239624 434.57904053
254.48918152 320.45285034 414.39187622
235.79904175 291.66525269 437.45550537
257.38046265 320.32965088 425.66168213
181.65161133 271.75051880 421.89666748
98.07854462 294.34475708 470.01873779
71.15306854 228.71340942 417.35836792
223.57261658 322.56973267 428.99908447
141.19284058 190.96623230 482.96228027
151.21400452 243.97900391 490.64401245
203.14593506 286.69259644 455.24600220
212.22599792 242.72898865 400.26901245
111.29501343 170.72958374 473.55841064
104.09761810 233.29116821 506.82894897
94.40835571 188.91812134 501.76083374
254.27651978 290.56607056 422.28341675
84.72123718 198.59230042 418.55078125
122.62024689 263.73757935 363.05670166
212.67521667 232.43522644 427.73236084
252.56388855 311.67181396 442.79818726
202.93333435 319.93316650 451.47344971
199.91600037 234.40100098 404.43200684
213.48660278 320.49899292 445.46722412
113.53407288 272.01654053 497.04187012
218.99299622 299.98699951 459.77801514
140.35000610 196.81100464 409.69100952
91.54151154 288.35534668 414.41940308
199.83135986 315.96078491 400.60772705
147.50599670 257.01800537 479.79699707
209.37886047 288.93667603 455.93923950
131.73199463 229.49812317 368.05880737
177.76000977 280.50698853 376.70901489
276.29330444 295.38195801 409.54208374
114.37248230 287.11660767 484.63085938
94.63439941 245.65649414 512.97283936
173.16633606 301.60131836 452.94277954
175.57354736 276.96539307 450.78674316
85.88929749 282.46301270 437.76382446
91.59670258 289.12487793 452.03314209
146.64700317 252.49099731 487.69400024
138.42286682 316.72647095 431.16696167
94.37958527 293.48663330 432.06750488
193.35560608 324.85598755 423.52020264
85.49965668 279.72885132 516.75274658
99.45046997 292.09146118 408.97137451
77.37724304 262.50427246 420.43667603
165.24597168 315.37918091 443.46804810
101.88159943 187.28793335 422.19387817
203.95399475 234.25000000 409.72500610
91.21855927 289.51763916 484.81576538
213.94285583 323.31201172 419.51535034
212.22344971 239.11703491 448.38592529
87.37998962 282.83615112 457.90853882
159.58624268 300.24737549 470.54824829
109.01618195 173.53584290 482.29110718
126.24099731 179.78199768 438.46899414
185.92018127 261.93807983 432.14147949
92.67925262 223.07936096 389.64971924
88.73696136 257.81945801 388.30450439
169.49855042 313.66015625 398.71926880
252.20399475 296.30801392 396.03100586
155.23399353 253.01200867 466.77801514
213.95399475 292.80099487 456.02801514
93.22554779 284.85791016 508.67492676
156.42553711 277.09539795 458.72680664
102.38832855 299.49502563 439.00891113
108.99001312 177.95640564 445.02413940
75.99594879 273.91891479 498.69610596
176.83741760 301.41082764 461.26080322
182.58824158 309.97558594 399.40429688
276.00125122 303.63348389 408.58471680
175.23600769 227.64900208 388.62298584
188.43377686 275.21228027 428.30288696
194.03199768 286.34197998 389.45001221
176.20416260 325.22705078 442.14169312
122.21575165 283.84875488 461.51638794
69.34393311 244.06355286 486.12841797
174.70399475 198.41099548 434.54501343
258.27493286 312.69421387 431.77944946
165.07792664 307.38113403 452.13427734
183.57800293 236.36799622 388.01000977
88.72441864 287.17285156 476.12869263
216.78207397 246.17874146 451.70895386
81.11564636 254.54327393 400.05041504
100.43879700 276.22665405 381.90319824
125.44384766 214.59812927 382.97207642
144.34422302 298.88806152 476.29000854
155.00646973 270.58917236 366.52343750
164.50790405 278.43667603 370.00103760
66.34822845 237.63980103 524.87225342
215.66168213 320.98504639 406.59985352
269.69216919 310.03857422 415.40551758
94.08291626 206.31851196 402.27700806
68.53541565 248.02520752 492.71148682
125.04283905 309.17929077 455.51257324
175.43144226 326.54083252 429.74545288
108.88291168 303.83178711 445.30804443
229.10365295 275.17883301 441.70700073
228.28890991 249.27679443 412.67312622
175.94699097 251.73300171 377.91500854
177.61177063 263.27670288 424.88284302
197.13301086 238.32499695 441.79098511
159.59700012 183.15400696 462.87500000
111.79829407 295.39413452 396.00497437
78.19323730 219.05662537 409.45391846
206.68399048 264.42001343 450.94998169
226.18072510 264.03204346 443.50061035
205.88900757 247.51100159 459.58798218
164.77200317 201.46000671 472.86999512
185.44456482 284.04989624 424.21258545
128.57699585 196.97200012 406.27600098
163.57411194 310.58517456 455.97634888
179.04576111 281.72686768 421.98071289
222.78027344 253.89686584 442.32354736
74.25434875 205.35446167 485.31463623
213.27136230 231.09474182 422.26712036
130.52642822 241.17355347 362.18768311
97.53785706 267.18270874 380.99887085
134.77453613 195.56730652 485.70242310
215.14352417 322.37173462 434.05688477
153.32954407 238.36006165 365.73382568
125.90004730 273.06030273 469.76553345
152.19403076 284.17269897 370.10485840
70.75794983 243.38848877 424.26281738
270.86801147 309.82000732 404.93399048
122.63315582 276.94192505 485.85586548
129.53511047 313.12500000 428.76025391
113.47639465 173.48353577 485.93643188
136.09457397 291.43362427 466.85150146
184.54512024 266.67471313 449.36117554
180.06500244 222.15199280 441.63000488
181.42709351 264.12322998 422.15533447
200.76400757 278.99499512 390.73800659
140.10699463 238.05987549 363.53067017
189.81559753 275.04907227 454.92532349
76.65883636 195.16627502 449.78057861
187.53700256 224.38999939 402.17797852
103.64834595 208.87467957 392.65783691
152.94532776 312.82080078 472.70288086
249.19995117 319.73834229 431.80975342
222.90588379 321.60629272 410.63272095
267.15002441 299.72198486 400.86499023
146.51141357 287.18124390 372.34472656
140.49902344 213.46890259 486.55307007
152.29286194 317.36437988 452.36776733
145.10600281 192.09899902 417.91201782
235.78111267 321.86511230 424.01666260
106.40159607 172.20130920 474.15640259
227.45687866 311.27914429 467.89022827
108.59505463 275.38897705 499.83914185
69.66699982 224.63327026 425.45266724
84.39788818 229.54016113 395.39111328
165.21693420 294.36422729 376.12094116
272.72119141 304.57986450 413.43560791
232.78399658 310.25799561 397.13201904
78.10454559 267.85836792 466.78042603
127.19617462 174.33937073 480.20001221
246.59887695 267.25561523 430.69839478
141.75231934 315.68594360 419.63406372
120.59986877 309.44589233 432.29739380
242.12741089 291.43032837 431.80175781
239.60784912 253.25450134 428.28677368
126.71606445 187.01232910 489.32089233
136.30683899 221.96582031 492.41250610
149.44999695 178.91400146 469.31698608
154.07699585 176.87001038 462.13497925
173.55493164 310.97729492 394.92929077
242.36360168 315.20849609 454.32434082
163.67399597 217.77600098 387.43099976
184.10560608 301.79360962 467.43524170
117.27726746 191.34959412 496.71099854
87.43681335 285.14553833 445.67907715
195.69674683 319.34384155 453.31973267
105.41096497 300.69458008 458.27600098
107.67208099 278.99908447 375.32449341
79.29158020 280.06033325 506.89358521
119.46140289 254.90713501 498.02566528
111.37889099 249.42652893 502.94894409
118.10047913 281.37002563 475.46926880
209.52500916 236.91700745 407.25698853
223.57276917 246.90576172 427.52548218
201.49961853 324.66302490 418.47244263
216.24481201 261.96679688 448.17413330
183.19139099 320.28469849 406.49807739
226.98199463 257.69201660 402.06399536
206.23899841 227.71899414 415.48999023
89.73633575 249.63392639 386.30374146
66.92125702 246.50772095 502.16613770
261.07388306 266.98040771 417.69128418
70.24943542 213.67454529 465.90802002
151.21528625 270.95162964 456.18637085
139.43673706 293.32189941 377.71206665
187.12001038 287.25900269 383.05899048
81.47037506 272.45278931 415.15902710
89.10917664 191.59944153 494.74746704
82.97592926 274.48065186 408.14297485
205.26882935 225.86387634 422.34371948
158.53939819 265.31631470 454.76837158
175.20199585 195.74700928 439.28900146
99.13909149 294.62051392 446.44757080
69.05406952 219.23420715 464.09280396
243.89100647 286.39001465 396.28100586
256.96224976 317.08062744 409.68496704
182.80400085 206.55599976 435.71600342
101.17137146 227.34309387 508.64047241
