ply
format ascii 1.0
element vertex 2048
property float x
property float y
property float z
end_header
307.95245361 239.58583069 428.67678833
313.60372925 249.72418213 432.11364746
312.03918457 237.77601624 423.35614014
317.77825928 244.60203552 425.71752930
121.76729584 200.34323120 540.71887207
126.39177704 211.89393616 547.04388428
117.49971771 208.07296753 534.96069336
122.44770050 220.21150208 540.10241699
148.23367310 159.18173218 507.80044556
138.98280334 165.45046997 511.51882935
149.93182373 152.14767456 496.65005493
139.59880066 158.27040100 499.02770996
287.49584961 304.81652832 441.87191772
288.41674805 309.79028320 450.62844849
295.17828369 301.46664429 441.52072144
293.88095093 306.47521973 446.83251953
168.00010681 139.38015747 484.32562256
161.96995544 144.84249878 492.96572876
180.25698853 136.63369751 472.32830811
174.79653931 140.85929871 481.31961060
307.41333008 262.95434570 430.38537598
308.57946777 273.43051147 434.93157959
313.13381958 258.22082520 429.61526489
314.16351318 266.77243042 432.45568848
118.12613678 218.37524414 532.45996094
124.27557373 229.14343262 538.50061035
114.89301300 228.32656860 523.76635742
122.00436401 238.80084229 529.24591064
299.05041504 285.12591553 432.10601807
299.68408203 293.72024536 436.82211304
305.22592163 280.78738403 433.85235596
303.81042480 287.95922852 435.91122437
135.74337769 169.95942688 518.03869629
127.32273865 177.80558777 521.55859375
137.21966553 163.26263428 505.79708862
127.55844116 171.52867126 508.14010620
140.44744873 175.28157043 525.37530518
136.06057739 186.10319519 531.18884277
151.54391479 174.31964111 517.41082764
147.60269165 185.38938904 522.80065918
121.27001190 193.18254089 526.14849854
119.26922607 204.21792603 532.50787354
118.09855652 190.03338623 513.88397217
116.53769684 202.06887817 519.90936279
164.21365356 140.34848022 476.97625732
153.75465393 144.33215332 479.68966675
170.13597107 137.01611328 465.70993042
158.09666443 139.35794067 466.86795044
218.66067505 141.19544983 434.15991211
221.37611389 142.51356506 443.67608643
226.55216980 147.34512329 424.85559082
230.19181824 148.59460449 434.85653687
139.22045898 157.64224243 493.06195068
131.52316284 165.67926025 497.07534790
142.15345764 152.63366699 480.36801147
132.83578491 161.06192017 483.59542847
211.32717896 138.36091614 430.03118896
203.29016113 136.07061768 432.03903198
220.03410339 144.86248779 421.66589355
211.62872314 141.19992065 422.86557007
116.10645294 228.37930298 517.49401855
121.38558197 237.69125366 524.49658203
114.60058594 236.38005066 507.47015381
120.96187592 245.21485901 513.94403076
201.36000061 135.63018799 450.56649780
199.24244690 138.63525391 461.19726562
213.51882935 138.34513855 440.14852905
212.16732788 140.84536743 450.87854004
182.27130127 134.96655273 461.57092285
171.25881958 137.35775757 463.99816895
190.20144653 134.04566956 450.11373901
177.65446472 134.05688477 450.67605591
277.29479980 315.38598633 459.11593628
275.78607178 314.95465088 469.42605591
285.70016479 313.16909790 458.59332275
282.43090820 314.40240479 465.18414307
114.72835541 208.21905518 518.27917480
117.43566895 219.79266357 525.15289307
111.85117340 211.44836426 506.75137329
115.90594482 223.43423462 513.29394531
127.62274933 169.72357178 499.76782227
122.03539276 179.49359131 504.17807007
128.82174683 164.87673950 486.80477905
122.31158447 175.47698975 490.86050415
149.65415955 145.66497803 473.48092651
141.42628479 153.41571045 476.32855225
154.78536987 141.55819702 461.63726807
144.76535034 149.36999512 463.29046631
182.90042114 134.72787476 436.24313354
172.17994690 138.22628784 433.89080811
191.23899841 135.66854858 428.71282959
180.61585999 138.02230835 425.33276367
160.08480835 141.33511353 450.99984741
150.79768372 147.51986694 451.74896240
167.44625854 138.71511841 441.14132690
157.01397705 144.12211609 440.56564331
159.70999146 151.33715820 497.99862671
153.98617554 159.46006775 506.72082520
172.03939819 150.74551392 486.18933105
167.38819885 158.92947388 495.23977661
286.67349243 226.00447083 430.41259766
293.21801758 233.45364380 433.75692749
294.25018311 229.35783386 424.43542480
298.51394653 232.51861572 427.71102905
130.32633972 168.01339722 474.98477173
123.96028900 176.96844482 479.03918457
134.11827087 162.02023315 462.87295532
126.36563110 171.61273193 466.59277344
114.82258606 197.34834290 499.46588135
114.32802582 208.77690125 505.18399048
113.60205078 194.88629150 487.59454346
113.41859436 206.97901917 493.21337891
120.47900391 181.62443542 488.74633789
116.48625946 192.41362000 494.05120850
122.20960999 176.69648743 475.13436890
117.44770813 188.18612671 480.49554443
158.09857178 148.42187500 430.25039673
149.77239990 155.45782471 430.27139282
166.51681519 145.45211792 421.43969727
157.69537354 151.68171692 420.64929199
143.46743774 154.03695679 459.72357178
135.74343872 162.30873108 462.44995117
149.54913330 149.85098267 448.27685547
140.40704346 158.02731323 450.13821411
139.93450928 194.60145569 539.78222656
134.33378601 206.10635376 543.11938477
147.78710938 200.33100891 527.71545410
143.64859009 212.04585266 531.42767334
117.31954193 241.51304626 498.78005981
122.15396881 250.51770020 505.54022217
117.46650696 249.55960083 489.69879150
122.70554352 257.57754517 496.43035889
259.80157471 305.85888672 481.13131714
256.62213135 306.84371948 490.17700195
266.83230591 306.51544189 478.50463867
262.37994385 306.59844971 484.26306152
267.70391846 300.10095215 432.88430786
266.63128662 307.56732178 440.03958130
277.12893677 300.81561279 434.16360474
272.35845947 305.08795166 437.28503418
155.29698181 166.54302979 508.24047852
151.35577393 175.94467163 517.20312500
166.44831848 170.15786743 497.83395386
163.81591797 179.90304565 506.88442993
210.42195129 149.62438965 413.17590332
199.53543091 151.83215332 407.56280518
219.75584412 159.21261597 411.09558105
209.75871277 162.48773193 404.71136475
179.81233215 147.27008057 412.65930176
170.07476807 152.94427490 409.14178467
189.41581726 151.68081665 406.46121216
179.54466248 156.76144409 401.78900146
233.67094421 155.30322266 427.28323364
238.75730896 158.52490234 434.84118652
235.98892212 166.70315552 419.11260986
241.93031311 170.02120972 426.98168945
112.04414368 218.96118164 500.29403687
113.54070282 230.04238892 506.55560303
111.33343506 219.88876343 489.57025146
113.72201538 231.33258057 495.84371948
139.82341003 168.81518555 428.19213867
134.01179504 178.28935242 430.04968262
146.27058411 164.60104370 418.45458984
139.73179626 173.43202209 419.83963013
282.58709717 264.12438965 427.30004883
281.27590942 275.19985962 429.50637817
290.34426880 264.33261108 427.61782837
286.37585449 270.49133301 428.71096802
137.02798462 166.16806030 449.24411011
130.78884888 175.21090698 452.58291626
142.68167114 160.57974243 437.90908813
135.10652161 169.72564697 440.83825684
188.92956543 144.99523926 474.16500854
181.83920288 153.25555420 482.04360962
200.87724304 149.86210632 463.39349365
195.08280945 157.41433716 471.69195557
252.66935730 311.40408325 448.49456787
248.98437500 313.65667725 457.43719482
261.73840332 312.64697266 450.14843750
255.66156006 313.72604370 454.42834473
282.45962524 277.17764282 448.50292969
279.84344482 287.88284302 452.11727905
288.49047852 277.57080078 445.90106201
284.23577881 283.21636963 449.12118530
238.27468872 308.60998535 499.44784546
232.84478760 304.88159180 505.75567627
246.72412109 307.79989624 501.33587646
241.61439514 306.39672852 504.68399048
220.41795349 148.32760620 451.32781982
217.10466003 155.71569824 459.69885254
229.90835571 154.84349060 441.80249023
227.15809631 162.17623901 450.97128296
156.42935181 159.17462158 410.32788086
149.13859558 168.06860352 409.17712402
166.07768250 158.66313171 402.79483032
158.65332031 167.16775513 401.00125122
133.25277710 274.83532715 490.30758667
139.50909424 276.63845825 500.17111206
141.52120972 286.18612671 485.17590332
145.39753723 285.13424683 494.60427856
114.31444550 214.24276733 476.52386475
114.63031006 225.49572754 482.49291992
114.97779083 211.66999817 465.80923462
115.07549286 223.27795410 471.72009277
166.95596313 302.16329956 488.02127075
167.68504333 298.96261597 499.07192993
178.98954773 306.37887573 489.15997314
175.34249878 303.45874023 496.44787598
120.26417542 186.75566101 472.75177002
116.38022614 197.51239014 477.82858276
123.10604858 181.52996826 460.65234375
118.35559845 193.05395508 465.86465454
291.88891602 244.12959290 441.67752075
289.68450928 255.55241394 446.39361572
299.22943115 245.09275818 437.10339355
294.93756104 250.54797363 441.74633789
193.77941895 156.88035583 402.93811035
185.41603088 163.90010071 397.57312012
203.70401001 162.99925232 402.44952393
196.27964783 170.79960632 396.39361572
173.25852966 157.70657349 487.42575073
169.56019592 167.70370483 495.70135498
185.95248413 163.32160950 481.49389648
182.29754639 172.94847107 490.07867432
152.46275330 185.88153076 520.70574951
146.93742371 196.74133301 526.66052246
162.66027832 191.51564026 510.46337891
157.94799805 202.87548828 517.08422852
128.55314636 192.74652100 434.29528809
125.08812714 203.41165161 437.47378540
131.22778320 189.99053955 424.62930298
127.30184174 199.92657471 427.18963623
119.17594910 249.72703552 477.74182129
122.74116516 259.13632202 486.17773438
121.72389984 255.64363098 466.43161011
124.10771179 263.85049438 475.08508301
127.74748230 182.77961731 448.71813965
123.47704315 193.21571350 452.55603027
131.18745422 177.62265015 437.86285400
126.20988464 187.98622131 441.46817017
152.19702148 174.31655884 400.65762329
146.58770752 184.40910339 400.09960938
161.42498779 173.83177185 393.71041870
155.95309448 183.54643250 393.07629395
267.40408325 210.64666748 448.49282837
271.64114380 211.26051331 458.91558838
273.17657471 213.42721558 441.91778564
275.25311279 212.23292542 450.76690674
120.77946472 201.22494507 452.57846069
118.54738617 212.12290955 457.21200562
122.34497070 198.30862427 442.29028320
119.75646973 209.26768494 446.49298096
136.90829468 190.77359009 405.65667725
132.86688232 201.47308350 407.25271606
143.95666504 189.20855713 396.72525024
139.59460449 199.00720215 398.13497925
253.89279175 241.06437683 493.20550537
250.68910217 241.11682129 493.24398804
254.22933960 241.04145813 493.19989014
253.83891296 241.07867432 493.23135376
305.04162598 280.71929932 432.26354980
301.02584839 280.76388550 432.26562500
305.27871704 280.71701050 432.21762085
305.08645630 280.71127319 432.19577026
288.77301025 256.46206665 446.09768677
285.53192139 256.49154663 446.11404419
288.97650146 256.47113037 446.04486084
288.83410645 256.46569824 446.04699707
268.90411377 240.84854126 472.50207520
266.25213623 240.86654663 472.54064941
269.13665771 240.85131836 472.48001099
268.99725342 240.85211182 472.50433350
294.53747559 270.25759888 429.32250977
290.40344238 270.29812622 429.31646729
294.83709717 270.25485229 429.26623535
294.54071045 270.25354004 429.24392700
287.45437622 262.64642334 428.80261230
283.38562012 262.67608643 428.79513550
287.79797363 262.62579346 428.75680542
287.45593262 262.62112427 428.73648071
263.84301758 245.78631592 485.30371094
261.15704346 245.81475830 485.34033203
264.07122803 245.79536438 485.28610229
263.86810303 245.80772400 485.31018066
262.83889771 238.93196106 457.21875000
260.08779907 238.93203735 457.23928833
263.14422607 238.92172241 457.18673706
262.99261475 238.90864563 457.19519043
242.97666931 251.98384094 481.42346191
239.66394043 251.98678589 481.42532349
243.35508728 251.99195862 481.38766479
242.94015503 251.98397827 481.39041138
238.62466431 239.68743896 485.57498169
235.75503540 239.70762634 485.59735107
238.96499634 239.66729736 485.57977295
238.61553955 239.68174744 485.59481812
267.79406738 268.99639893 461.77951050
264.20172119 269.00552368 461.79281616
268.14172363 268.97274780 461.75885010
267.82403564 268.96780396 461.76947021
283.88552856 274.55429077 449.65063477
280.00988770 274.56967163 449.65328979
284.19201660 274.52880859 449.63281250
283.90112305 274.52420044 449.63265991
257.08813477 264.06008911 472.58737183
253.63417053 264.06433105 472.59051514
257.43627930 264.05197144 472.54614258
257.09600830 264.04714966 472.54925537
265.88424683 248.35581970 462.77337646
263.04989624 248.34979248 462.79525757
266.14712524 248.34570312 462.74810791
265.96838379 248.32685852 462.75711060
272.81103516 253.76608276 457.33523560
269.68090820 253.76399231 457.36581421
273.09988403 253.75047302 457.30279541
272.88049316 253.73312378 457.32061768
279.65762329 261.38101196 452.52072144
276.15002441 261.39022827 452.55209351
279.94424438 261.38400269 452.45886230
279.66867065 261.36947632 452.47595215
295.19946289 269.50851440 442.39999390
291.81054688 269.53363037 442.41714478
295.39324951 269.49429321 442.39434814
295.22378540 269.49261475 442.39349365
274.28399658 266.02169800 426.67642212
269.51702881 266.08453369 426.69625854
274.75393677 265.98629761 426.64755249
274.08343506 266.01785278 426.64212036
259.51974487 252.29975891 471.08099365
256.46166992 252.29315186 471.10867310
259.85308838 252.29206848 471.05661011
259.57965088 252.27410889 471.07400513
291.50958252 288.33770752 432.91381836
286.62957764 288.39230347 432.91006470
291.93920898 288.31289673 432.88897705
291.43609619 288.33102417 432.85742188
234.38650513 261.26303101 486.33242798
230.31822205 261.27450562 486.36453247
234.94464111 261.24954224 486.27557373
234.27545166 261.25289917 486.30465698
253.11672974 280.19836426 478.98110962
249.13493347 280.19104004 478.99603271
253.53178406 280.18017578 478.95056152
253.06626892 280.17175293 478.96325684
293.42153931 306.52450562 446.83837891
288.70132446 306.56396484 446.82760620
293.75878906 306.50552368 446.79876709
293.37863159 306.51684570 446.76608276
299.87985229 294.52645874 441.12738037
295.67187500 294.56655884 441.14239502
300.15567017 294.50152588 441.12362671
299.85137939 294.51190186 441.10952759
260.91952515 253.53688049 421.65582275
256.27023315 253.57540894 421.67541504
261.45675659 253.50640869 421.65298462
260.78793335 253.52354431 421.64648438
233.43701172 273.71780396 491.15078735
229.19508362 273.72097778 491.18594360
233.99636841 273.71041870 491.08474731
233.30558777 273.70916748 491.11755371
287.15850830 278.20150757 431.22204590
282.71948242 278.22482300 431.23541260
287.56152344 278.16198730 431.21740723
287.13360596 278.15554810 431.20739746
298.99450684 281.95971680 440.55178833
295.03964233 281.97119141 440.57812500
299.26287842 281.92996216 440.52325439
298.98873901 281.91241455 440.52380371
283.92956543 299.27386475 436.06576538
278.64874268 299.32037354 436.05993652
284.46139526 299.23876953 436.07058716
283.88583374 299.24932861 436.03808594
273.31277466 280.34906006 428.55535889
268.01159668 280.39407349 428.56140137
273.92169189 280.30035400 428.55230713
273.10983276 280.32122803 428.53363037
226.95793152 251.39503479 461.17636108
223.59004211 251.41204834 461.17208862
227.38987732 251.38725281 461.14392090
226.93048096 251.39897156 461.13732910
239.60852051 255.79624939 413.90740967
235.30000305 255.83317566 413.89263916
240.22308350 255.76475525 413.94467163
239.65838623 255.78613281 413.91754150
237.85424805 291.16384888 495.02740479
233.24006653 291.16232300 495.03546143
238.43226624 291.16778564 494.97735596
237.71368408 291.16564941 494.98205566
226.46302795 286.68420410 497.76843262
221.89442444 286.69909668 497.78033447
227.06393433 286.69427490 497.68878174
226.25695801 286.70794678 497.69885254
248.97367859 263.03863525 480.60284424
245.39843750 263.03082275 480.64202881
249.38763428 263.02124023 480.57830811
248.97346497 263.00885010 480.60479736
252.23583984 244.61581421 471.15908813
248.99360657 244.60679626 471.17898560
252.65417480 244.58732605 471.12100220
252.27346802 244.56704712 471.13317871
232.74349976 246.06257629 472.38568115
229.83279419 246.06614685 472.40917969
233.06607056 246.04603577 472.37805176
232.68280029 246.04815674 472.38998413
249.12648010 258.55215454 418.88061523
244.24249268 258.60174561 418.88873291
249.76666260 258.51745605 418.85760498
248.96505737 258.54504395 418.84567261
219.39787292 240.55589294 460.23480225
215.94778442 240.57752991 460.21121216
219.87789917 240.57075500 460.18383789
219.38833618 240.58016968 460.16760254
244.27340698 279.97952271 486.41821289
240.08865356 279.97991943 486.43490601
244.77676392 279.96136475 486.38619995
244.21862793 279.95993042 486.39810181
279.46856689 289.37036133 433.52551270
274.43908691 289.40582275 433.50701904
280.01589966 289.33148193 433.50936890
279.51092529 289.33276367 433.47869873
272.30938721 305.04141235 437.34906006
266.47155762 305.05767822 437.33566284
273.00427246 304.99847412 437.27996826
272.19229126 304.99145508 437.23950195
266.30850220 294.17150879 431.08193970
260.33517456 294.24530029 431.06994629
267.06323242 294.13824463 431.06854248
266.06744385 294.17950439 431.02536011
273.91424561 278.03131104 456.27557373
270.18048096 278.02709961 456.30661011
274.24649048 278.02960205 456.23757935
273.96704102 278.01052856 456.25393677
257.58859253 269.54376221 425.47802734
252.58691406 269.59136963 425.46804810
258.17840576 269.52456665 425.49185181
257.40771484 269.55505371 425.46801758
254.20469666 283.15600586 426.76501465
248.36737061 283.23626709 426.79052734
254.94543457 283.12768555 426.73126221
253.88282776 283.18228149 426.72012329
220.30191040 252.41157532 478.91412354
216.77018738 252.41596985 478.94335938
220.76943970 252.39610291 478.86923218
220.15309143 252.39680481 478.89166260
289.89477539 285.11636353 444.22460938
286.09417725 285.12152100 444.25476074
290.18634033 285.09634399 444.23721313
289.95739746 285.08190918 444.24334717
256.60861206 308.09671021 492.35620117
251.75756836 308.11108398 492.36956787
257.05734253 308.12503052 492.31500244
256.42620850 308.13922119 492.31237793
262.32553101 313.90661621 450.20697021
256.39273071 313.90005493 450.20629883
263.05633545 313.89538574 450.14584351
262.19818115 313.87850952 450.11529541
258.61459351 304.95046997 437.36166382
252.50476074 305.00686646 437.36752319
259.43319702 304.93646240 437.35842896
258.45788574 304.96545410 437.32498169
247.68417358 272.64306641 422.97552490
242.40766907 272.70776367 422.95867920
248.35656738 272.61132812 422.96160889
247.45358276 272.65417480 422.92987061
287.05050659 311.48071289 455.61788940
282.35241699 311.51068115 455.62225342
287.41320801 311.47128296 455.61318970
286.98114014 311.48312378 455.59271240
202.86337280 296.81726074 510.85870361
198.55085754 296.79327393 510.86682129
203.50328064 296.80807495 510.83593750
202.66445923 296.79608154 510.83160400
216.96875000 260.14047241 486.16644287
213.14007568 260.14584351 486.20745850
217.52818298 260.11633301 486.13775635
216.78538513 260.12268066 486.17138672
247.54084778 312.31109619 472.24435425
242.20385742 312.29821777 472.26483154
248.12994385 312.32128906 472.21154785
247.36735535 312.31216431 472.21148682
247.34780884 309.00344849 446.74826050
241.24600220 309.02603149 446.79351807
248.17114258 309.00845337 446.71310425
247.16305542 309.01916504 446.71075439
262.43218994 282.52084351 469.16622925
258.35385132 282.48620605 469.21005249
262.84582520 282.50277710 469.08172607
262.39013672 282.46536255 469.10919189
257.71221924 292.63378906 478.33160400
253.07431030 292.61953735 478.32690430
258.23150635 292.61267090 478.27975464
257.63919067 292.59719849 478.27066040
225.71990967 262.95877075 457.27801514
221.74287415 262.97177124 457.28759766
226.21743774 262.92852783 457.23535156
225.54180908 262.94119263 457.24331665
217.71832275 296.54791260 509.51553345
213.11196899 296.55285645 509.52349854
218.36714172 296.55963135 509.50268555
217.49395752 296.57357788 509.50518799
237.25650024 307.13073730 486.41183472
232.04508972 307.09915161 486.45065308
237.90870667 307.12826538 486.34417725
237.07991028 307.09881592 486.36163330
274.62380981 291.44015503 459.79577637
270.39614868 291.42907715 459.81231689
275.00665283 291.43072510 459.74429321
274.61492920 291.41177368 459.74996948
236.10255432 287.60357666 427.12216187
230.24781799 287.65924072 427.14913940
236.94161987 287.56875610 427.12554932
235.83941650 287.60852051 427.11932373
300.02102661 261.62176514 438.08920288
295.99200439 272.23727417 441.44830322
307.55798340 267.11178589 432.28378296
303.84008789 276.98675537 435.83517456
294.01257324 235.87030029 425.28884888
295.12527466 247.84471130 425.86679077
304.71777344 243.57713318 425.74404907
306.81481934 255.53245544 427.78384399
279.21179199 250.10136414 451.47024536
273.95559692 257.98187256 457.33337402
285.74200439 256.23196411 446.07849121
280.66900635 263.98458862 451.82330322
288.69335938 285.61987305 448.14547729
282.95809937 294.84591675 453.05242920
296.09100342 289.68548584 440.98880005
291.13061523 298.28552246 445.23107910
269.31323242 224.33319092 442.41976929
270.06375122 229.98640442 450.75640869
276.65121460 230.25456238 436.18063354
277.92614746 234.77311707 445.51354980
262.34738159 212.13806152 471.17913818
260.28564453 216.31689453 481.16864014
269.97692871 217.67680359 465.10797119
267.84027100 220.30776978 475.17761230
269.31561279 234.74185181 460.89190674
265.93551636 241.03253174 468.81060791
275.19686890 241.44715881 454.52490234
271.48754883 246.83793640 462.75469971
271.21655273 268.08804321 459.00527954
265.64349365 275.87503052 464.30731201
277.34497070 273.87103271 453.75671387
271.77099609 281.38699341 458.70373535
261.19366455 203.85679626 447.85443115
263.24346924 207.80468750 457.04995728
266.98617554 210.98532104 441.01791382
269.51696777 212.77557373 450.60278320
253.74160767 221.15087891 489.92041016
246.31915283 225.34498596 495.45718384
262.62796021 228.30326843 487.20593262
255.22648621 231.38801575 493.19601440
260.47317505 253.90707397 470.53118896
254.65582275 260.38476562 475.17092896
266.28286743 261.03775024 466.58996582
259.90823364 267.00967407 471.44921875
257.00335693 211.20291138 430.53982544
261.68511963 216.77976990 436.58236694
264.54034424 220.09878540 425.00112915
270.65542603 222.87528992 432.12393188
263.02969360 296.02673340 473.34823608
257.29251099 301.17987061 482.09335327
270.62393188 300.33532715 466.82662964
264.99935913 304.15820312 475.04306030
285.88775635 309.44021606 452.42260742
280.72698975 315.01898193 460.90814209
292.92086792 307.54785156 448.64935303
288.71627808 311.93948364 456.00881958
251.70755005 276.94525146 478.57583618
245.64018250 282.91720581 484.21664429
258.22341919 284.40444946 474.58309937
251.68273926 289.86108398 480.32217407
275.17398071 259.34292603 426.72933960
278.22338867 270.70660400 428.98718262
286.50900269 264.01132202 429.18615723
288.86825562 275.36926270 431.78088379
262.68041992 230.88606262 422.14843750
266.96328735 241.06640625 423.11819458
273.09744263 237.08892822 423.71954346
277.84405518 247.12994385 425.21966553
238.17669678 259.59963989 486.08703613
231.41842651 264.72988892 489.87939453
244.49026489 267.19577026 484.09161377
237.29684448 271.99679565 487.91928101
233.45916748 166.26737976 451.55993652
229.66682434 172.71455383 461.39672852
241.02859497 177.62913513 445.46011353
237.85079956 182.04176331 455.27783203
233.32366943 212.88340759 479.07205200
231.45874023 215.16511536 489.74099731
242.73135376 220.96670532 479.51531982
241.85882568 220.73100281 489.20709229
235.70175171 184.79202271 459.97485352
232.46385193 189.94517517 469.79638672
242.12936401 196.18479919 453.65365601
239.94546509 198.70555115 463.19271851
224.87248230 190.75631714 475.76831055
219.17347717 195.73007202 485.61657715
233.99739075 201.56417847 473.73663330
229.47979736 204.20033264 482.52182007
246.62399292 189.32585144 439.57598877
246.37271118 194.09347534 448.33633423
248.60086060 202.12524414 429.97583008
250.39396667 203.41877747 439.39276123
216.00906372 212.38311768 498.45938110
204.95075989 217.89318848 502.79089355
227.84222412 219.56343079 495.88613892
218.28790283 223.44070435 499.87747192
239.14244080 287.18167114 493.00848389
231.39743042 291.31182861 498.91552734
246.60496521 294.35003662 489.61932373
238.81034851 297.63470459 495.65045166
240.96464539 172.90159607 429.68572998
243.74734497 179.77627563 437.63113403
242.58216858 188.63970947 422.19647217
245.99755859 192.45686340 430.85379028
235.80648804 209.16693115 455.90002441
237.05015564 212.33421326 465.85134888
245.18069458 219.42478943 455.13897705
248.05310059 219.00230408 464.66851807
236.93850708 240.12356567 476.55511475
230.40353394 244.90455627 478.12063599
244.51173401 246.16802979 478.40072632
237.69049072 250.03099060 480.57031250
207.19906616 171.01210022 469.25387573
200.91412354 177.02221680 479.18991089
219.86819458 180.66377258 468.63143921
213.59661865 184.78247070 477.52920532
205.98139954 195.22239685 493.97994995
197.14277649 201.16571045 502.27462769
217.15039062 202.66703796 492.66162109
209.37294006 207.43728638 499.90084839
261.60687256 284.03799438 429.64804077
264.82470703 294.62298584 433.62838745
272.89608765 287.91622925 431.50842285
275.33477783 298.47830200 435.36758423
221.20611572 266.73101807 490.88293457
213.56225586 271.60934448 493.13220215
228.24874878 274.16494751 491.99575806
220.41786194 278.87911987 494.50744629
236.07040405 205.78158569 440.38998413
237.38415527 210.81736755 448.71710205
244.09757996 218.79904175 437.42596436
248.38615417 219.18122864 446.28558350
248.25541687 312.52529907 464.45498657
246.66174316 312.16137695 476.16983032
260.20858765 314.17205811 467.60510254
258.47106934 312.87326050 479.06417847
216.17510986 222.59757996 474.17034912
213.57275391 224.91221619 484.82785034
227.31594849 228.17968750 476.32980347
226.80253601 227.53125000 485.01000977
185.01472473 177.76559448 488.50424194
176.63035583 184.15933228 497.50509644
198.17245483 183.93173218 486.21884155
190.04954529 189.26477051 494.23104858
250.81481934 252.71253967 419.45672607
254.37240601 262.61041260 423.12405396
260.73272705 256.49533081 422.28619385
264.38766479 266.22525024 425.97546387
219.99333191 289.65005493 502.47122192
210.85507202 292.31060791 504.85787964
229.92556763 295.76718140 504.39624023
220.48574829 297.89617920 507.36099243
238.29263306 209.24589539 422.52667236
240.18403625 216.11296082 428.75817871
244.19491577 223.25675964 418.86840820
250.03134155 224.99189758 426.49697876
184.96319580 206.69723511 509.21994019
174.17591858 213.88684082 513.00177002
196.30014038 212.07511902 505.23602295
186.83360291 218.84675598 508.96633911
245.25799561 230.43180847 413.65750122
247.90423584 240.95570374 415.88101196
253.70057678 235.94187927 417.50903320
257.40893555 245.37979126 420.02548218
213.51644897 247.28454590 478.24948120
205.67030334 252.55793762 479.22094727
221.27481079 253.78897095 482.59793091
213.07939148 259.02801514 483.53335571
235.81626892 179.68849182 415.25332642
238.14950562 191.95300293 415.03704834
240.09910583 196.30838013 415.41256714
243.81414795 204.49807739 417.15594482
245.94508362 303.28216553 438.96237183
247.82121277 309.45834351 447.44027710
257.34692383 306.85311890 440.88623047
258.57305908 312.43954468 449.71530151
189.77734375 222.21348572 494.59930420
178.95188904 228.45262146 495.76751709
199.23815918 223.78471375 483.31994629
188.51577759 229.50329590 483.99191284
210.92079163 234.05143738 461.05175781
208.29315186 238.46691895 468.35778809
219.59336853 239.55290222 464.00433350
217.52351379 242.52694702 470.72253418
170.80490112 192.60287476 507.84387207
161.37271118 199.67224121 515.71099854
183.56564331 197.62338257 503.31085205
174.79763794 204.19270325 510.60162354
220.90074158 243.40058899 456.86148071
218.58229065 248.59954834 461.54418945
226.92134094 248.58572388 457.76171875
224.84289551 252.69869995 462.31561279
200.16023254 271.43948364 491.03622437
191.82739258 276.89993286 492.01126099
208.60568237 278.61288452 494.82974243
199.72508240 283.78799438 495.83126831
223.76933289 306.65057373 472.89208984
222.97070312 305.66839600 484.52294922
235.81399536 308.59518433 480.13131714
235.24942017 306.28674316 491.51025391
157.09893799 218.89256287 510.48150635
146.03300476 225.87413025 513.15222168
166.73056030 224.53717041 500.73678589
155.56921387 230.98149109 502.70214844
188.75457764 248.87820435 476.94781494
180.92559814 255.96665955 479.38699341
197.65856934 257.54315186 484.34451294
189.03561401 264.26513672 485.36083984
232.72579956 197.85623169 406.78854370
233.67723083 210.91853333 405.35449219
238.88334656 210.62078857 410.97024536
241.66796875 219.36398315 410.97595215
239.47309875 284.16540527 427.45938110
242.59934998 293.41436768 432.53811646
249.56373596 287.82604980 429.16946411
252.41801453 296.91470337 434.06497192
218.02833557 259.19598389 457.07571411
213.99551392 264.71746826 460.71252441
223.51452637 263.89678955 458.89840698
219.25650024 268.70642090 462.25939941
236.39456177 264.12774658 416.83911133
238.98927307 273.27362061 421.77468872
245.81338501 266.78637695 420.26116943
248.75831604 275.73760986 425.02307129
191.92425537 217.51361084 464.19851685
192.96443176 221.65235901 474.21475220
201.40653992 223.90974426 462.22409058
203.03073120 225.35070801 470.93865967
233.03164673 247.36660767 406.70837402
235.02133179 256.65374756 411.56762695
241.49237061 249.76951599 411.88061523
244.13670349 258.31613159 416.54708862
230.33674622 223.55139160 401.93072510
231.77485657 235.21279907 404.05261230
238.22966003 229.60157776 407.33630371
241.00376892 239.36204529 409.99304199
186.89562988 231.78691101 467.01272583
181.34452820 238.39630127 474.30157471
196.17703247 237.18244934 467.23364258
190.53146362 243.12576294 472.52993774
223.76408386 303.83782959 448.29818726
225.28283691 307.85537720 457.93649292
234.55326843 307.01083374 451.44064331
235.92982483 310.30313110 461.17437744
178.52079773 279.11004639 491.43582153
170.45896912 284.92169189 493.64785767
189.09812927 286.52868652 496.95520020
180.31103516 291.53106689 498.27902222
216.91754150 166.10514832 406.43258667
216.51817322 178.85826111 401.37677002
225.24919128 179.10636902 409.04925537
226.03767395 188.79240417 406.01629639
168.77941895 233.41110229 485.07070923
159.06857300 239.72276306 489.29727173
174.52423096 238.10523987 470.29928589
163.20828247 243.96266174 472.62442017
148.86532593 233.33953857 503.34725952
139.29954529 241.06353760 510.29827881
151.79309082 242.52551270 490.14370728
142.94874573 248.99368286 495.70913696
222.22720337 293.08947754 431.78707886
224.30754089 299.91455078 439.37750244
232.23863220 296.06399536 434.14083862
234.30752563 302.59133911 441.64535522
185.52169800 223.79570007 456.63085938
186.99964905 227.76840210 465.88748169
194.69502258 229.62809753 457.67715454
196.83740234 231.98805237 466.22756958
189.31820679 305.52429199 470.61325073
189.46310425 304.20880127 481.96929932
200.44508362 304.26223755 477.72079468
200.84338379 302.13226318 488.66839600
160.12402344 251.33264160 468.60733032
154.12155151 258.61767578 475.93054199
170.13165283 262.09811401 472.56643677
163.16056824 268.77239990 478.20056152
202.41987610 306.23205566 455.91531372
202.77784729 306.08493042 466.71783447
213.46922302 305.61453247 462.60296631
214.23908997 304.83435059 472.84820557
219.11096191 279.80096436 416.32855225
220.71798706 287.48107910 423.16699219
228.45010376 281.32879639 420.43008423
230.30715942 288.76077271 427.05667114
215.22558594 188.55764771 396.19213867
214.63464355 201.54359436 393.47048950
223.79808044 198.44024658 400.49786377
224.23429871 208.84771729 399.18191528
145.50743103 257.82943726 477.18640137
144.46653748 264.96560669 487.00030518
153.74937439 271.17370605 476.62716675
153.11000061 276.82119751 486.48687744
218.40527344 262.60467529 403.31112671
219.72886658 271.04632568 409.48535156
227.25820923 263.64199829 408.86315918
229.09902954 271.62939453 414.82745361
203.37106323 300.97448730 436.06323242
204.23600769 304.46908569 445.59466553
213.24972534 301.80065918 440.73352051
214.08329773 304.84768677 449.89471436
213.98501587 216.80076599 390.73074341
214.68283081 229.27522278 392.74618530
223.14093018 222.56657410 396.01843262
224.64154053 233.39965820 398.32974243
215.65835571 242.57417297 394.06024170
217.08692932 252.54077148 398.94238281
224.49458313 245.17747498 399.55120850
226.67608643 254.40353394 404.39996338
195.01771545 165.76542664 394.65573120
193.19917297 178.10246277 390.04461670
205.54826355 175.37892151 396.49560547
204.50367737 185.75967407 392.72113037
201.73898315 291.55923462 418.28604126
202.58985901 297.48345947 426.84600830
211.26028442 292.19049072 423.35140991
212.11460876 297.69482422 431.64035034
157.77743530 298.86047363 473.80630493
161.74822998 298.67630005 483.65646362
169.40734863 302.84082031 478.80868530
172.62710571 301.68182373 488.30575562
183.29199219 306.44757080 444.57644653
183.97360229 308.44393921 454.96673584
193.03388977 307.23770142 450.37661743
193.48951721 308.58969116 460.32031250
168.41773987 304.69500732 457.74020386
170.92083740 306.18942261 467.91290283
178.58377075 306.75628662 463.12811279
180.56106567 307.52093506 473.28555298
201.00955200 276.45755005 404.92529297
202.18093872 284.25598145 412.18933105
210.48086548 277.49581909 410.10516357
211.82307434 284.93927002 417.23370361
137.22491455 281.99200439 478.08914185
142.28074646 284.26370239 487.14535522
148.17633057 293.32943726 479.39889526
152.84852600 294.26684570 488.40356445
123.31521606 257.68820190 489.21615601
127.74502563 262.02828979 498.12158203
129.06195068 270.18475342 481.16195679
133.88299561 272.65396118 489.84597778
195.58746338 189.55773926 385.72119141
194.27705383 202.41009521 384.22344971
205.66290283 197.01455688 389.48931885
204.99394226 208.06425476 388.78363037
197.76211548 257.98022461 393.71337891
199.21119690 267.11083984 399.69482422
207.64852905 260.11877441 398.35501099
209.75750732 268.79324341 404.16760254
181.81988525 298.26644897 426.64440918
183.13191223 303.28216553 435.69488525
191.48086548 300.63214111 430.88528442
192.30262756 304.96267700 439.88613892
195.23324585 238.11573792 386.86682129
196.29011536 248.48695374 391.10577393
205.49470520 241.55308533 391.07333374
207.67477417 251.20666504 395.34091187
193.15492249 213.55905151 381.47985840
193.14823914 225.86553955 383.47576904
203.55130005 219.13400269 385.62625122
204.47505188 230.17701721 388.03106689
116.65237427 235.49145508 487.28085327
118.49415588 242.93298340 494.54489136
118.84342194 245.96762085 477.71124268
121.22818756 252.87094116 485.50588989
172.86120605 172.25839233 390.73550415
170.95710754 184.21372986 386.60723877
183.11999512 179.92419434 387.68847656
182.05738831 191.23442078 383.98867798
180.92559814 283.79751587 412.34060669
182.79981995 291.71810913 419.66760254
190.97425842 287.27111816 415.22351074
192.52067566 294.59243774 422.82534790
148.51510620 291.00048828 453.60592651
151.57933044 294.74893188 462.23077393
158.20303345 299.11291504 455.97256470
160.89604187 302.03778076 465.29022217
163.00883484 296.34832764 437.49395752
165.12162781 301.17892456 446.38412476
172.62615967 301.43182373 440.58300781
174.29472351 305.60302734 450.11059570
134.21508789 278.93066406 459.74008179
137.60473633 283.42535400 467.28659058
142.52456665 288.01165771 459.85937500
145.93423462 292.27923584 468.46325684
121.27780914 260.06246948 469.38699341
124.35920715 265.50381470 476.60522461
127.07511139 270.71948242 465.16998291
130.23953247 275.83065796 473.18600464
116.08576965 222.08035278 472.47030640
116.30548859 230.80636597 478.88119507
117.15588379 229.84826660 462.63204956
117.73215485 238.84529114 469.77969360
178.34091187 265.22802734 398.88742065
180.41220093 274.72509766 404.61315918
188.96548462 269.26751709 400.98876953
191.29966736 278.11376953 406.76983643
162.83419800 285.99810791 421.94168091
164.95845032 292.84991455 429.55691528
172.35609436 291.60549927 423.39315796
174.22840881 297.89617920 431.81381226
118.98370361 204.17361450 461.72500610
117.61835480 213.88064575 467.25033569
119.14163971 210.21235657 451.08566284
117.93637085 220.34307861 457.17782593
170.28982544 196.82940674 379.97717285
169.97276306 209.67031860 379.47689819
181.34930420 203.58291626 380.07910156
181.96076965 215.24432373 380.09448242
151.96820068 172.22785950 400.54559326
149.39973450 182.84336853 397.11779785
158.80627441 177.96504211 391.14395142
157.50831604 189.07678223 387.30245972
145.29199219 281.91949463 434.89044189
147.51596069 287.62805176 442.55145264
153.73506165 289.58148193 435.31460571
155.91275024 294.74606323 444.09405518
173.83857727 244.52474976 387.05767822
175.41648865 255.07917786 391.90737915
185.01950073 248.83430481 388.94384766
187.58557129 258.70166016 393.61126709
119.50617218 246.79785156 457.58148193
121.10221863 253.92639160 463.82443237
123.02463531 256.02392578 451.75842285
124.79627228 263.52270508 458.99194336
129.56246948 269.20074463 447.31524658
131.89808655 274.83676147 454.21667480
136.30599976 278.01739502 445.96493530
138.67550659 283.55227661 453.94088745
169.89021301 221.30117798 379.95407104
170.47615051 233.31758118 382.92001343
181.08688354 226.42309570 381.57110596
182.84609985 237.41839600 384.68353271
126.39637756 191.18002319 444.76541138
123.89709473 201.34129333 447.81982422
126.12535858 196.58511353 434.04492188
123.93144989 207.26933289 437.22460938
159.98731995 270.57775879 407.79751587
162.10607910 279.18927002 414.25994873
169.92646790 276.33294678 408.10650635
172.19577026 284.40625000 415.06900024
119.56832123 228.98129272 450.72207642
119.68033600 237.51263428 456.35046387
121.06070709 236.47817993 442.13729858
121.49205017 245.42559814 448.76004028
139.34631348 182.40534973 412.69772339
136.43191528 192.54370117 411.04275513
141.92813110 187.76463318 402.01950073
140.31253052 198.50991821 399.85040283
148.24484253 194.93228149 390.91394043
147.59947205 206.36848450 389.51257324
156.90711975 201.38327026 384.38662720
157.73950195 212.68586731 383.19592285
144.68960571 268.97741699 418.12359619
146.55404663 276.65753174 424.75015259
153.55851746 276.21951294 417.39544678
155.61024475 283.51602173 425.06793213
132.84140015 264.80718994 431.30038452
134.47943115 271.40515137 437.91741943
139.84539795 273.19885254 429.24676514
141.72486877 279.52575684 437.04711914
122.99839020 212.60952759 442.14111328
121.95416260 222.02262878 446.49169922
123.45430756 219.02615356 432.46176147
122.76864624 228.95075989 437.55764771
124.30099487 247.92773438 437.27423096
125.41655731 255.33874512 443.17175293
128.21453857 256.30541992 432.86541748
129.63595581 264.07907104 439.81454468
155.48355103 252.08843994 395.91442871
157.37376404 262.24588013 401.45883179
166.19998169 257.92199707 395.52557373
168.72979736 267.55267334 401.13104248
130.35632324 193.58293152 425.91152954
127.76924133 203.70602417 426.53848267
131.10031128 199.14451599 415.51312256
129.26281738 209.82109070 415.96081543
146.11627197 215.50674438 387.31820679
146.84988403 226.85131836 388.78781128
155.83735657 222.04171753 383.08975220
157.77600098 232.83662415 384.71551514
124.42982483 232.39192200 428.30203247
124.46572876 240.84883118 432.74136353
127.07917023 240.09684753 421.54565430
127.59543610 249.11105347 427.03091431
147.63572693 232.55415344 388.67996216
149.18884277 243.31852722 392.67938232
157.78887939 239.17309570 386.74084473
160.28147888 249.29618835 390.91299438
126.80313873 214.85401917 423.58020020
125.55970001 224.37399292 426.15917969
128.20964050 221.54548645 414.33886719
127.65197754 231.59222412 417.66647339
139.80412292 251.67105103 404.75018311
141.47341919 260.66809082 410.55798340
148.40345764 259.08013916 402.66983032
150.58065796 267.94357300 409.31167603
129.50747681 249.40879822 417.80007935
130.57638550 257.24157715 423.66320801
135.34353638 257.48873901 414.37130737
136.89521790 265.48760986 421.30328369
135.24859619 203.55857849 401.92681885
133.92309570 214.03666687 401.71603394
140.22735596 209.78436279 393.07363892
140.36584473 220.59071350 393.11752319
131.41569519 214.92558289 404.49920654
130.55062866 225.14028931 405.71044922
136.43572998 221.56742859 396.23602295
136.93112183 232.08750916 397.88504028
132.83752441 226.89236450 400.52648926
133.15440369 236.95437622 403.39892578
139.40069580 234.02661133 394.47250366
140.84739685 244.09245300 397.88836670
170.10504150 303.23583984 485.09121704
170.09811401 303.23794556 485.09622192
170.11651611 303.22808838 485.09378052
170.11492920 303.23181152 485.09704590
305.05346680 280.72933960 432.25949097
305.05859375 280.73052979 432.26013184
305.06613159 280.72549438 432.26379395
305.07128906 280.72528076 432.26806641
238.67568970 239.68237305 485.59738159
238.66903687 239.68434143 485.60577393
238.67933655 239.68527222 485.59252930
238.67721558 239.68666077 485.59448242
214.93869019 277.28225708 411.01849365
214.93632507 277.28436279 411.02777100
214.95315552 277.28479004 411.01812744
214.95185852 277.28421021 411.02432251
247.51774597 312.29550171 472.26116943
247.51208496 312.29260254 472.26245117
247.52357483 312.29290771 472.26327515
247.52149963 312.28985596 472.26559448
260.93572998 253.50170898 421.66683960
260.93405151 253.49969482 421.67340088
260.94689941 253.49894714 421.66217041
260.94995117 253.49392700 421.66479492
209.85163879 275.91271973 463.72924805
209.84547424 275.90917969 463.72824097
209.85606384 275.91555786 463.72039795
209.85363770 275.91067505 463.71740723
217.73286438 296.54412842 509.49063110
217.72659302 296.53753662 509.49053955
217.74201965 296.53787231 509.49114990
217.73786926 296.53692627 509.48941040
177.39633179 299.02917480 434.67318726
177.39224243 299.03222656 434.67422485
177.41175842 299.03082275 434.67211914
177.40835571 299.03121948 434.67416382
267.85443115 268.98779297 461.77926636
267.85083008 268.98794556 461.77896118
267.86300659 268.98638916 461.78161621
267.86282349 268.98587036 461.78067017
247.70022583 296.09387207 432.35372925
247.69952393 296.09124756 432.35644531
247.70297241 296.09475708 432.35617065
247.70527649 296.09024048 432.35974121
287.05334473 311.48446655 455.58953857
287.05828857 311.48107910 455.59204102
287.06243896 311.47946167 455.59509277
287.07019043 311.47607422 455.60052490
244.30548096 279.95944214 486.39843750
244.29815674 279.95526123 486.39813232
244.31497192 279.95928955 486.40066528
244.31068420 279.95681763 486.39746094
212.15429688 299.73849487 438.46148682
212.14915466 299.73852539 438.46490479
212.16035461 299.73358154 438.46423340
212.15792847 299.73178101 438.46765137
206.36125183 306.16772461 478.97433472
206.35485840 306.16235352 478.97958374
206.37548828 306.16067505 478.98492432
206.37048340 306.15679932 478.98895264
185.12876892 269.06286621 485.28552246
185.11010742 269.06588745 485.28479004
185.14059448 269.06820679 485.28393555
185.12615967 269.07101440 485.27944946
219.44429016 240.58767700 460.23516846
219.43768311 240.58671570 460.24353027
219.44827271 240.59411621 460.23477173
219.44955444 240.59161377 460.23629761
262.95742798 238.94148254 457.21820068
262.95544434 238.94119263 457.22674561
262.96618652 238.94351196 457.21594238
262.96951294 238.94107056 457.22030640
273.28964233 280.32742310 428.56103516
273.29373169 280.32546997 428.56234741
273.29312134 280.32839966 428.56521606
273.29913330 280.32492065 428.56744385
216.06713867 271.59881592 493.73873901
216.05552673 271.59521484 493.74063110
216.07655334 271.59649658 493.73681641
216.06793213 271.59588623 493.73336792
288.82546997 256.49371338 446.09893799
288.82342529 256.49267578 446.10226440
288.83496094 256.48788452 446.10122681
288.83728027 256.48608398 446.10485840
188.36341858 307.27459717 457.53039551
188.35964966 307.27584839 457.53503418
188.37098694 307.27566528 457.52929688
188.36940002 307.27539062 457.53323364
192.28704834 290.84655762 498.41763306
192.27925110 290.84027100 498.42419434
192.29568481 290.84292603 498.42669678
192.29071045 290.84075928 498.43164062
240.33410645 305.82022095 500.67901611
240.33319092 305.81103516 500.68414307
240.34162903 305.81954956 500.68487549
240.34367371 305.81518555 500.68881226
263.91198730 245.78445435 485.30038452
263.91513062 245.78295898 485.30505371
263.91333008 245.78033447 485.30560303
263.92047119 245.78001404 485.30834961
262.31219482 313.87551880 450.16009521
262.31335449 313.87295532 450.16333008
262.32312012 313.87454224 450.16311646
262.32653809 313.87091064 450.16891479
232.35284424 308.49520874 451.01956177
232.35054016 308.49304199 451.02264404
232.35766602 308.49725342 451.02377319
232.35769653 308.49386597 451.02740479
272.85906982 314.47879028 475.93609619
272.86224365 314.47271729 475.94107056
272.87039185 314.47589111 475.94436646
272.87506104 314.47265625 475.94949341
237.34936523 273.08468628 420.98788452
237.34762573 273.08514404 420.99307251
237.35276794 273.08926392 420.98934937
237.35383606 273.08581543 420.99227905
195.33312988 290.18798828 418.01675415
195.33026123 290.19094849 418.02331543
195.34457397 290.18914795 418.01583862
195.34201050 290.19042969 418.02111816
203.15531921 253.87828064 482.10507202
203.14205933 253.87976074 482.10559082
203.16395569 253.87925720 482.10342407
203.15672302 253.88104248 482.09967041
274.66500854 291.42687988 459.78469849
274.66009521 291.42431641 459.78820801
274.67187500 291.42736816 459.78442383
274.67089844 291.42559814 459.78720093
283.90997314 299.27697754 436.03112793
283.91452026 299.27789307 436.03161621
283.91857910 299.27578735 436.04055786
283.92419434 299.27575684 436.04400635
225.69247437 262.94598389 457.29290771
225.68972778 262.94400024 457.29394531
225.70260620 262.95169067 457.29748535
225.70353699 262.94863892 457.29602051
234.41571045 261.27084351 486.32067871
234.40896606 261.26989746 486.32101440
234.42098999 261.27059937 486.32281494
234.42024231 261.27166748 486.31982422
226.93771362 308.61282349 475.82348633
226.93338013 308.60556030 475.82769775
226.94502258 308.60589600 475.82760620
226.94297791 308.60083008 475.83068848
210.74172974 306.56829834 458.86923218
210.73898315 306.56530762 458.87380981
210.75125122 306.56076050 458.87484741
210.75027466 306.55764771 458.87976074
257.71591187 292.59194946 478.31729126
257.71038818 292.58786011 478.31762695
257.72750854 292.59234619 478.32275391
257.72467041 292.59051514 478.32171631
169.42744446 304.00814819 451.66406250
169.42054749 304.01287842 451.66250610
169.44377136 304.00897217 451.65808105
169.44104004 304.01062012 451.65792847
225.54804993 290.36230469 428.46609497
225.54814148 290.36071777 428.47262573
225.55787659 290.36071777 428.46759033
225.55903625 290.35705566 428.47308350
283.93286133 274.54437256 449.65960693
283.93139648 274.54464722 449.65853882
283.94079590 274.54498291 449.66613770
283.94259644 274.54382324 449.66662598
239.68624878 255.78048706 413.92956543
239.68579102 255.78085327 413.93997192
239.69479370 255.77947998 413.92297363
239.69799805 255.77528381 413.92944336
199.94593811 288.66082764 478.47863770
199.93597412 288.65640259 478.47998047
199.95254517 288.66149902 478.47940063
199.94477844 288.66064453 478.47778320
287.47711182 262.64331055 428.78610229
287.47937012 262.64385986 428.78945923
287.48220825 262.64562988 428.78567505
287.48715210 262.64300537 428.78979492
256.56988525 308.11944580 492.32894897
256.56713867 308.11190796 492.33352661
256.58328247 308.11578369 492.32702637
256.58334351 308.11230469 492.33224487
252.31019592 244.61471558 471.14572144
252.30718994 244.61297607 471.15310669
252.31579590 244.61773682 471.14840698
252.31895447 244.61724854 471.15081787
176.94944763 284.82781982 488.88159180
176.93241882 284.83114624 488.88238525
176.96249390 284.82958984 488.88043213
176.94998169 284.83621216 488.87948608
226.45785522 286.69143677 497.73095703
226.44967651 286.68740845 497.72802734
226.46382141 286.68399048 497.73208618
226.45957947 286.68438721 497.72747803
188.67112732 306.55267334 475.13699341
188.66455078 306.55267334 475.14263916
188.68472290 306.55261230 475.14178467
188.68162537 306.55334473 475.14538574
220.27314758 252.41668701 478.89321899
220.26019287 252.41912842 478.89544678
220.27764893 252.41632080 478.89312744
220.27076721 252.41888428 478.89059448
222.85932922 304.51879883 495.06869507
222.85424805 304.51309204 495.07150269
222.86933899 304.51040649 495.07165527
222.86604309 304.50823975 495.07351685
299.92028809 294.52166748 441.13052368
299.92468262 294.52352905 441.13439941
299.93426514 294.51602173 441.13790894
299.93981934 294.51617432 441.14425659
257.57946777 269.52661133 425.51745605
257.58096313 269.52404785 425.52044678
257.58389282 269.52700806 425.52023315
257.58932495 269.52261353 425.52368164
272.91375732 253.76675415 457.34332275
272.91204834 253.76437378 457.34689331
272.92233276 253.76512146 457.34707642
272.92462158 253.76237488 457.34896851
191.74798584 303.65054321 441.83425903
191.74208069 303.65289307 441.83898926
191.75941467 303.64767456 441.83383179
191.75633240 303.64901733 441.83862305
257.13909912 264.05407715 472.56027222
257.13497925 264.05429077 472.56051636
257.14288330 264.05838013 472.56665039
257.14349365 264.06015015 472.56579590
208.86349487 286.07595825 501.30523682
208.85331726 286.07333374 501.30441284
208.87255859 286.06994629 501.30480957
208.86534119 286.06964111 501.30252075
266.29803467 294.16320801 431.06808472
266.29974365 294.16290283 431.06945801
266.29986572 294.16723633 431.07281494
266.30419922 294.16445923 431.07580566
247.31674194 309.01153564 446.74877930
247.31436157 309.00976562 446.75033569
247.32046509 309.00994873 446.74963379
247.32119751 309.00711060 446.75192261
232.77311707 246.05464172 472.40533447
232.76440430 246.05580139 472.41107178
232.77758789 246.05911255 472.40316772
232.77368164 246.05940247 472.40322876
169.43133545 301.55603027 470.06454468
169.42117310 301.55932617 470.07003784
169.43885803 301.55276489 470.06250000
169.43382263 301.55697632 470.06747437
202.86927795 296.75997925 510.79672241
202.86625671 296.75732422 510.79827881
202.87512207 296.75750732 510.79696655
202.87367249 296.75836182 510.79687500
204.67634583 296.09771729 490.49847412
204.66964722 296.09402466 490.49923706
204.68624878 296.09375000 490.50503540
204.68194580 296.09204102 490.50500488
209.93757629 288.56320190 420.11755371
209.93562317 288.56375122 420.12368774
209.94914246 288.56723022 420.12252808
209.94850159 288.56564331 420.12762451
237.20761108 307.10818481 486.37246704
237.20312500 307.10467529 486.37207031
237.21400452 307.10971069 486.37567139
237.21185303 307.10858154 486.37405396
258.59661865 304.93731689 437.36193848
258.59924316 304.93466187 437.36572266
258.60202026 304.94091797 437.36584473
258.60546875 304.93539429 437.37133789
268.99676514 240.83769226 472.49987793
268.99664307 240.83551025 472.50640869
269.00393677 240.83056641 472.49652100
269.00799561 240.82812500 472.50064087
262.46136475 282.50015259 469.14532471
262.45880127 282.49761963 469.15084839
262.47189331 282.50546265 469.14251709
262.47229004 282.50433350 469.14660645
287.45318604 297.07965088 449.79165649
287.45346069 297.07650757 449.79574585
287.46343994 297.07989502 449.79528809
287.46600342 297.07754517 449.79971313
295.24026489 269.50970459 442.43215942
295.23828125 269.51049805 442.43643188
295.24362183 269.51284790 442.43185425
295.24533081 269.51141357 442.43673706
287.17932129 278.17581177 431.23062134
287.18072510 278.17800903 431.23318481
287.18737793 278.18038940 431.23736572
287.19134521 278.18167114 431.24099731
254.19747925 283.15216064 426.75213623
254.19586182 283.15130615 426.75308228
254.20045471 283.15142822 426.75399780
254.20285034 283.14739990 426.75524902
235.94497681 311.30590820 464.49737549
235.94210815 311.30139160 464.50033569
235.95195007 311.30368042 464.50390625
235.95043945 311.30044556 464.50677490
271.43713379 316.20330811 462.18322754
271.43908691 316.19897461 462.18722534
271.44613647 316.20227051 462.18823242
271.44995117 316.19894409 462.19351196
196.95358276 297.51007080 429.61053467
196.95184326 297.51138306 429.61584473
196.96357727 297.51489258 429.61633301
196.96351624 297.51467896 429.62048340
274.28375244 266.01397705 426.68325806
274.28448486 266.01354980 426.68606567
274.28576660 266.01296997 426.67999268
274.29049683 266.00967407 426.68099976
203.28390503 270.96502686 488.64019775
203.27157593 270.96286011 488.63928223
203.29258728 270.96884155 488.63977051
203.28309631 270.96765137 488.63543701
207.19267273 246.11430359 471.61373901
207.18385315 246.11395264 471.61856079
207.20129395 246.11982727 471.61520386
207.19853210 246.11843872 471.61447144
253.91244507 241.04092407 493.17962646
253.90997314 241.04232788 493.18615723
253.90737915 241.03280640 493.17794800
253.91027832 241.03450012 493.18084717
243.01655579 251.99804688 481.42135620
243.00738525 252.00044250 481.42065430
243.01277161 251.99697876 481.42468262
243.01159668 252.00077820 481.42010498
270.15487671 303.02136230 469.24810791
270.15368652 303.01513672 469.25469971
270.16430664 303.02197266 469.25146484
270.16574097 303.01803589 469.25549316
185.56106567 296.44390869 483.58428955
185.55601501 296.44158936 483.58438110
185.56730652 296.44442749 483.58456421
185.56431580 296.44342041 483.58337402
215.85589600 256.42184448 463.75543213
215.85247803 256.41595459 463.76351929
215.86395264 256.42517090 463.76489258
215.86425781 256.41925049 463.76763916
233.45393372 273.72714233 491.11541748
233.44750977 273.72503662 491.11297607
233.46047974 273.72875977 491.11810303
233.45787048 273.72888184 491.11297607
289.95852661 285.10748291 444.26812744
289.95727539 285.10592651 444.27291870
289.96704102 285.10821533 444.26983643
289.96701050 285.10720825 444.27447510
192.76965332 282.25537109 487.56237793
192.75827026 282.25549316 487.55801392
192.78277588 282.24835205 487.56198120
192.77493286 282.24902344 487.55703735
228.38880920 268.70312500 412.46044922
228.38804626 268.70364380 412.46908569
228.39758301 268.70748901 412.46148682
228.39909363 268.70584106 412.46688843
258.98919678 315.69439697 465.97644043
258.98718262 315.69085693 465.98043823
258.99389648 315.69345093 465.98260498
258.99502563 315.69082642 465.98745728
272.30654907 305.00396729 437.29776001
272.30844116 305.00308228 437.29882812
272.31427002 305.00988770 437.30535889
272.31726074 305.00888062 437.30886841
222.00381470 279.06134033 465.86999512
221.99954224 279.05859375 465.86785889
222.01681519 279.05538940 465.87005615
222.01434326 279.05081177 465.86691284
257.71350098 312.15203857 479.60195923
257.71484375 312.14373779 479.60791016
257.72186279 312.15267944 479.61120605
257.72393799 312.14791870 479.61648560
204.73521423 304.46334839 447.42547607
204.73001099 304.46405029 447.42980957
204.74188232 304.46084595 447.42306519
204.73893738 304.46063232 447.42764282
237.82640076 291.14370728 495.00738525
237.82019043 291.14056396 495.00625610
237.83303833 291.14282227 495.00820923
237.82974243 291.14288330 495.00567627
224.27847290 298.80749512 440.13052368
224.27703857 298.80474854 440.13360596
224.28819275 298.80532837 440.13815308
224.28822327 298.80072021 440.14141846
227.00915527 251.39379883 461.19570923
227.00436401 251.39334106 461.19912720
227.01145935 251.39767456 461.20333862
227.01193237 251.39550781 461.20266724
249.58059692 298.13244629 491.39099121
249.57722473 298.12399292 491.39611816
249.58776855 298.13391113 491.39627075
249.58743286 298.12866211 491.39904785
273.97717285 278.01376343 456.26568604
273.97338867 278.01284790 456.26715088
273.98455811 278.01412964 456.27325439
273.98422241 278.01251221 456.27307129
224.46508789 279.99136353 417.98071289
224.46368408 279.99050903 417.98782349
224.47204590 279.99426270 417.98083496
224.47521973 279.98999023 417.98663330
200.58020020 307.86334229 468.83438110
200.57777405 307.86163330 468.83923340
200.59249878 307.86056519 468.83981323
200.59115601 307.85888672 468.84481812
293.42184448 306.50451660 446.80462646
293.42535400 306.50534058 446.80270386
293.43588257 306.50125122 446.81307983
293.43905640 306.50198364 446.81509399
253.13922119 280.17980957 478.96282959
253.13623047 280.17864990 478.96270752
253.15008545 280.17663574 478.97018433
253.14991760 280.17614746 478.97067261
218.65727234 308.15069580 467.84631348
218.65353394 308.14843750 467.84741211
218.66259766 308.14904785 467.84613037
218.66104126 308.14633179 467.84710693
249.03564453 263.03756714 480.59823608
249.03358459 263.03414917 480.60153198
249.04809570 263.03659058 480.60510254
249.04870605 263.03594971 480.60543823
221.55871582 307.35333252 455.25189209
221.55502319 307.35308838 455.25222778
221.56611633 307.34793091 455.25305176
221.56338501 307.34594727 455.25430298
213.58584595 266.01116943 458.09341431
213.57821655 266.00878906 458.09454346
213.58509827 266.01873779 458.08990479
213.58235168 266.01583862 458.08816528
279.70034790 261.40270996 452.51995850
279.69726562 261.40060425 452.52294922
279.70855713 261.40219116 452.51953125
279.70941162 261.39907837 452.52142334
291.51614380 288.34289551 432.90643311
291.51782227 288.34414673 432.90811157
291.52539062 288.34393311 432.91030884
291.52810669 288.34399414 432.91455078
273.46200562 313.93603516 450.60171509
273.46493530 313.93615723 450.60537720
273.46752930 313.93460083 450.60937500
273.47204590 313.93444824 450.61450195
279.51635742 289.35198975 433.48742676
279.51583862 289.35137939 433.48883057
279.52392578 289.35272217 433.49633789
279.52627563 289.35086060 433.49847412
249.27694702 313.57049561 461.02081299
249.27481079 313.56536865 461.02471924
249.28103638 313.57128906 461.02340698
249.28115845 313.56732178 461.02795410
216.95880127 260.13494873 486.15563965
216.94882202 260.13549805 486.15499878
216.96276855 260.13046265 486.15545654
216.95596313 260.13235474 486.15139771
278.68930054 305.26007080 462.53222656
278.68920898 305.25372314 462.54208374
278.69662476 305.26495361 462.52960205
278.69900513 305.26165771 462.53982544
249.15075684 258.49020386 418.87902832
249.15177917 258.48815918 418.88583374
249.15695190 258.49127197 418.87817383
249.16337585 258.48617554 418.88137817
236.12844849 287.58383179 427.13311768
236.12568665 287.58316040 427.13690186
236.13500977 287.58148193 427.13757324
236.13688660 287.57678223 427.14108276
241.72206116 302.49752808 439.97958374
241.71972656 302.49526978 439.98309326
241.72732544 302.49746704 439.98330688
241.72811890 302.49310303 439.98663330
227.32577515 303.22631836 504.93811035
227.32812500 303.21652222 504.94165039
227.33006287 303.22463989 504.94799805
227.33364868 303.22109985 504.94964600
210.35479736 294.94888306 428.89779663
210.35363770 294.95080566 428.90457153
210.36712646 294.95413208 428.89950562
210.36653137 294.95318604 428.90414429
177.85862732 304.02209473 477.65640259
177.85047913 304.02108765 477.65963745
177.87399292 304.01409912 477.66024780
177.86943054 304.01412964 477.66259766
179.53289795 305.56896973 448.46820068
179.53021240 305.57165527 448.47091675
179.54960632 305.56842041 448.46594238
179.54843140 305.57022095 448.46905518
212.68875122 297.56604004 497.35760498
212.68402100 297.56072998 497.35992432
212.69461060 297.56228638 497.36456299
212.69221497 297.56042480 497.36590576
259.61514282 252.30343628 471.07135010
259.60937500 252.30297852 471.07672119
259.61926270 252.30458069 471.07452393
259.61935425 252.30380249 471.07519531
247.68324280 272.59622192 422.97329712
247.68563843 272.59439087 422.97647095
247.68678284 272.59762573 422.97482300
247.69291687 272.59307861 422.97634888
176.87716675 305.38165283 463.74975586
176.86917114 305.38549805 463.75469971
176.88801575 305.38323975 463.74642944
176.88421631 305.38647461 463.75012207
294.54394531 270.28378296 429.29898071
294.54544067 270.28604126 429.30258179
294.54962158 270.28598022 429.29956055
294.55303955 270.28512573 429.30541992
265.98284912 248.36105347 462.75299072
265.98129272 248.35888672 462.75888062
265.98800659 248.36048889 462.75454712
265.99072266 248.35835266 462.75848389
299.04006958 281.94943237 440.56149292
299.03796387 281.95004272 440.56774902
299.04907227 281.95120239 440.56115723
299.05047607 281.95193481 440.56808472
182.89544678 296.24099731 426.64389038
182.88830566 296.24499512 426.64553833
182.90942383 296.24163818 426.64303589
182.90438843 296.24279785 426.64523315
197.10279846 296.78659058 483.45272827
197.09397888 296.78311157 483.45413208
197.10968018 296.78414917 483.45312500
197.10337830 296.78369141 483.45312500
281.20565796 251.83894348 450.45715332
281.20446777 251.83471680 450.46243286
281.21801758 251.83497620 450.46560669
281.22109985 251.83009338 450.46859741
198.63859558 299.19165039 502.22665405
198.63188171 299.18585205 502.23257446
198.64843750 299.18414307 502.23812866
198.64433289 299.18203735 502.24237061
220.50828552 266.71081543 465.05313110
220.50373840 266.70651245 465.05871582
220.51440430 266.70858765 465.05471802
220.51182556 266.70431519 465.05688477
201.15879822 307.58294678 455.98083496
201.15498352 307.58255005 455.98794556
201.16918945 307.58270264 455.97653198
201.16763306 307.58157349 455.98233032
280.18572998 284.50424194 452.44644165
280.18151855 284.50344849 452.44912720
280.19647217 284.50366211 452.44528198
280.19482422 284.50311279 452.44757080
249.12814331 288.22491455 485.10101318
249.12147522 288.22280884 485.10015869
249.13691711 288.22259521 485.10372925
249.13377380 288.22299194 485.10192871
215.69667053 303.56948853 488.69845581
215.69375610 303.56616211 488.69790649
215.70182800 303.56857300 488.70138550
215.70037842 303.56671143 488.69891357
266.03814697 305.25613403 477.66781616
266.03601074 305.24822998 477.67562866
266.04351807 305.26306152 477.67013550
266.04528809 305.25753784 477.67639160
193.24107361 264.13671875 486.37429810
193.22161865 264.13830566 486.37728882
193.25982666 264.13629150 486.36917114
193.24595642 264.13900757 486.36856079
219.90538025 279.77801514 497.63522339
219.89796448 279.77523804 497.63272095
219.92239380 279.77444458 497.63598633
219.91566467 279.77429199 497.63113403
287.97607422 266.25140381 447.47378540
287.97302246 266.25125122 447.47351074
287.98138428 266.24859619 447.47970581
287.98156738 266.24719238 447.47979736
213.93086243 246.80360413 465.08041382
213.92205811 246.80270386 465.08612061
213.93424988 246.80709839 465.08557129
213.93121338 246.80529785 465.08596802
228.68487549 254.55136108 483.13552856
228.67799377 254.55137634 483.13766479
228.69023132 254.54951477 483.13397217
228.68685913 254.54942322 483.13208008
281.02621460 313.79412842 465.48559570
281.02954102 313.78887939 465.49212646
281.03521729 313.79257202 465.48950195
281.04040527 313.78942871 465.49749756
263.06738281 281.23931885 428.80828857
263.06536865 281.23910522 428.80987549
263.06958008 281.24246216 428.81390381
263.07153320 281.23953247 428.81512451
241.24273682 271.21374512 486.25970459
241.23934937 271.21057129 486.26113892
241.25547791 271.21173096 486.26934814
241.25476074 271.21047974 486.26766968
256.82464600 295.30792236 431.13046265
256.82437134 295.30944824 431.12930298
256.82968140 295.30737305 431.13436890
256.83309937 295.30548096 431.13494873
208.26260376 292.66668701 478.72869873
208.25617981 292.66140747 478.73025513
208.27523804 292.66244507 478.73272705
208.27099609 292.65789795 478.73297119
177.09071350 298.58203125 488.86535645
177.07823181 298.58132935 488.87591553
177.10681152 298.57849121 488.87069702
177.09890747 298.58087158 488.87884521
265.55920410 295.70941162 472.41790771
265.55627441 295.70648193 472.41839600
265.56439209 295.70874023 472.41775513
265.56475830 295.70806885 472.41714478
245.19396973 309.53509521 480.71069336
245.18954468 309.52874756 480.71508789
245.19964600 309.53924561 480.71682739
245.19842529 309.53588867 480.72003174
267.80017090 289.09667969 465.61743164
267.79406738 289.09768677 465.61849976
267.80963135 289.09677124 465.61660767
267.80920410 289.09793091 465.61672974
231.40792847 295.51956177 433.24865723
231.40740967 295.51721191 433.25167847
231.41676331 295.51785278 433.25308228
231.41958618 295.51306152 433.25732422
226.71432495 241.83435059 465.61538696
226.70980835 241.83197021 465.62353516
226.72515869 241.83471680 465.61755371
226.72543335 241.83172607 465.61929321
263.84683228 261.47854614 465.00924683
263.84381104 261.47552490 465.01287842
263.85711670 261.47708130 465.01211548
263.85803223 261.47454834 465.01437378
199.95869446 286.92694092 502.95724487
199.95156860 286.92181396 502.95874023
199.96846008 286.92602539 502.95953369
199.96322632 286.92510986 502.95870972
259.76876831 304.75762939 484.57818604
259.76586914 304.75473022 484.58013916
259.77380371 304.75338745 484.58282471
259.77410889 304.75402832 484.58380127
281.17294312 310.80395508 447.25396729
281.17883301 310.80264282 447.25573730
281.18191528 310.80401611 447.26559448
281.18847656 310.80200195 447.26965332
213.56932068 303.20928955 447.75744629
213.55982971 303.21035767 447.76373291
213.57978821 303.20837402 447.75695801
213.57260132 303.20797729 447.76208496
236.39779663 308.94036865 477.68063354
236.39372253 308.93405151 477.68740845
236.40365601 308.94226074 477.68478394
236.40216064 308.93792725 477.68927002
274.89971924 245.67414856 454.19146729
274.89746094 245.67262268 454.19598389
274.90899658 245.67192078 454.19439697
274.91055298 245.66845703 454.19683838
226.59063721 268.08892822 491.04776001
226.58161926 268.08651733 491.04635620
226.60105896 268.08438110 491.04992676
226.59643555 268.08489990 491.04531860
228.27389526 294.19540405 502.09820557
228.27188110 294.18429565 502.10244751
228.28051758 294.19491577 502.10360718
228.28057861 294.18969727 502.10565186
224.19403076 305.09469604 447.09393311
224.19157410 305.09332275 447.09408569
224.20153809 305.09051514 447.09814453
224.20193481 305.08630371 447.10083008
245.41641235 307.56652832 493.63800049
245.41738892 307.55908203 493.64028931
245.42475891 307.56466675 493.64376831
245.42662048 307.56207275 493.64514160
232.07546997 259.70724487 411.73828125
232.07492065 259.70681763 411.75091553
232.08692932 259.70587158 411.73550415
232.08895874 259.70162964 411.74273682
233.13824463 302.50576782 441.55459595
233.13789368 302.50244141 441.55987549
233.14358521 302.50357056 441.55700684
233.14634705 302.49914551 441.56152344
218.62712097 295.62606812 431.49194336
218.62342834 295.62463379 431.49432373
218.63414001 295.62393188 431.49597168
218.63421631 295.61972046 431.49847412
272.64431763 263.40838623 457.29794312
272.64193726 263.40792847 457.29833984
272.65100098 263.40933228 457.30203247
272.65307617 263.40820312 457.30288696
262.08084106 240.72256470 467.38494873
262.07965088 240.71778870 467.39224243
262.08511353 240.71321106 467.38479614
262.08993530 240.70858765 467.38888550
216.46047974 289.45358276 505.14801025
216.45610046 289.44897461 505.14648438
216.46817017 289.45120239 505.15332031
216.46520996 289.44970703 505.14947510
247.04071045 287.48059082 426.88555908
247.04086304 287.47872925 426.88729858
247.04591370 287.48037720 426.88986206
247.04943848 287.47512817 426.89169312
190.70976257 302.47229004 486.03314209
190.70736694 302.47100830 486.03433228
190.71673584 302.46569824 486.03314209
190.71641541 302.46539307 486.03436279
203.76997375 280.80007935 497.45086670
203.76115417 280.79629517 497.45046997
203.77574158 280.79827881 497.45184326
203.76972961 280.79754639 497.44827271
255.34393311 313.54571533 454.60476685
255.34126282 313.54446411 454.60925293
255.34448242 313.54800415 454.61044312
255.34516907 313.54577637 454.61538696
225.29690552 308.19674683 462.91607666
225.29299927 308.19271851 462.91943359
225.30439758 308.19271851 462.92224121
225.30218506 308.18859863 462.92514038
196.12712097 306.75360107 478.67465210
196.12092590 306.75115967 478.67950439
196.13958740 306.75485229 478.68118286
196.13487244 306.75473022 478.68441772
278.84158325 298.98776245 457.21923828
278.83914185 298.98806763 457.21777344
278.85137939 298.98394775 457.22326660
278.85192871 298.98446655 457.22366333
245.64006042 246.90270996 475.35644531
245.63519287 246.90219116 475.35787964
245.63732910 246.90068054 475.35571289
245.64004517 246.90145874 475.35354614
209.71083069 263.95211792 486.74914551
209.69819641 263.95376587 486.74588013
209.71865845 263.94873047 486.74322510
209.71031189 263.95101929 486.73727417
250.54315186 254.25062561 479.19342041
250.54170227 254.24957275 479.19683838
250.54730225 254.25047302 479.19906616
250.54940796 254.25057983 479.19763184
211.52905273 297.19183350 485.79379272
211.51994324 297.18832397 485.79275513
211.53482056 297.18566895 485.79531860
211.52896118 297.18411255 485.79321289
278.36932373 270.04034424 453.37844849
278.37088013 270.03808594 453.38018799
278.37832642 270.03961182 453.38497925
278.38220215 270.03753662 453.38604736
240.26707458 309.55981445 451.98431396
240.26608276 309.55639648 451.98699951
240.27169800 309.55773926 451.98852539
240.27319336 309.55331421 451.99139404
251.52932739 247.13739014 488.50189209
251.52661133 247.13870239 488.50588989
251.52777100 247.13653564 488.50183105
251.52978516 247.13899231 488.50140381
303.57107544 287.97262573 435.42462158
303.57580566 287.97640991 435.42465210
303.58575439 287.96774292 435.43109131
303.59164429 287.96939087 435.43469238
179.72221375 275.00112915 485.20803833
179.69992065 275.00390625 485.20883179
179.73493958 275.00930786 485.20297241
179.71702576 275.01351929 485.19985962
286.36102295 270.58892822 428.81185913
286.36270142 270.59188843 428.81146240
286.36218262 270.59606934 428.81033325
286.36743164 270.59588623 428.81137085
232.54469299 305.32611084 498.89031982
232.54476929 305.31771851 498.89480591
232.55151367 305.32650757 498.89666748
232.55364990 305.32302856 498.89962769
285.82543945 303.40222168 454.38104248
285.82727051 303.39749146 454.38558960
285.83636475 303.39965820 454.38668823
285.83920288 303.39617920 454.39227295
271.51959229 310.69256592 442.84918213
271.52322388 310.69302368 442.85025024
271.52655029 310.69607544 442.85430908
271.53118896 310.69604492 442.85772705
292.74240112 277.01834106 443.43664551
292.73883057 277.02142334 443.43478394
292.74929810 277.01721191 443.43890381
292.74887085 277.01843262 443.43988037
230.41914368 305.65692139 490.28439331
230.41546631 305.65087891 490.28652954
230.42498779 305.65744019 490.28933716
230.42312622 305.65560913 490.28988647
217.36914062 288.73730469 422.95916748
217.36746216 288.73770142 422.96737671
217.38189697 288.73999023 422.96099854
217.38018799 288.73846436 422.96658325
255.16253662 298.33874512 483.78167725
255.15844727 298.33367920 483.78161621
255.16886902 298.33880615 483.78430176
255.16755676 298.33639526 483.78225708
210.73501587 283.00231934 414.61419678
210.73210144 283.00305176 414.62326050
210.74835205 283.00283813 414.61505127
210.74676514 283.00073242 414.62130737
295.20657349 298.52276611 445.95999146
295.20867920 298.52325439 445.96514893
295.21456909 298.52154541 445.96377563
295.21862793 298.52148438 445.97009277
254.90216064 310.94338989 446.83666992
254.89984131 310.94226074 446.83950806
254.90400696 310.94509888 446.83755493
254.90536499 310.94262695 446.84210205
219.89648438 301.89486694 501.81668091
219.89582825 301.88754272 501.81784058
219.90483093 301.89184570 501.82403564
219.90539551 301.88949585 501.82446289
266.82229614 258.30740356 423.46990967
266.82394409 258.30691528 423.47375488
266.82855225 258.30776978 423.46887207
266.83456421 258.30270386 423.47161865
275.25555420 295.90100098 433.71200562
275.25924683 295.90170288 433.71337891
275.26049805 295.90243530 433.71569824
275.26586914 295.90090942 433.71954346
223.01464844 306.58804321 482.19369507
223.00839233 306.58029175 482.19976807
223.02250671 306.58233643 482.20272827
223.01846313 306.57693481 482.20706177
201.33589172 286.26428223 415.17803955
201.33021545 286.26721191 415.18246460
201.34562683 286.26870728 415.18127441
201.34436035 286.26892090 415.18511963
264.84481812 275.07931519 465.41110229
264.83947754 275.07684326 465.41522217
264.85931396 275.07965088 465.41275024
264.85848999 275.07708740 465.41461182
258.22326660 271.62438965 472.18673706
258.21539307 271.62457275 472.18841553
258.22793579 271.62124634 472.19842529
258.22528076 271.62176514 472.19802856
181.62496948 303.22412109 484.27355957
181.62237549 303.22113037 484.27511597
181.63174438 303.22671509 484.27322388
181.63105774 303.22674561 484.27325439
263.60998535 310.92733765 443.24798584
263.61309814 310.92605591 443.24890137
263.61578369 310.92727661 443.25085449
263.61984253 310.92437744 443.25485229
216.63514709 276.45654297 460.29299927
216.63056946 276.45379639 460.28967285
216.63946533 276.45864868 460.28698730
216.63803101 276.45510864 460.28201294
213.29176331 254.72972107 476.93118286
213.27513123 254.73396301 476.93200684
213.29627991 254.73492432 476.93466187
213.28573608 254.73760986 476.93151855
195.87342834 275.36346436 488.23464966
195.85887146 275.36260986 488.23410034
195.88412476 275.36248779 488.23980713
195.87333679 275.36273193 488.23562622
221.14913940 249.36671448 456.83001709
221.14292908 249.36506653 456.83355713
221.14416504 249.37411499 456.83169556
221.14620972 249.37181091 456.82965088
239.09947205 284.90643311 490.89337158
239.09646606 284.90139771 490.89129639
239.10949707 284.90213013 490.89782715
239.10733032 284.90011597 490.89440918
169.38079834 303.88269043 459.20581055
169.37196350 303.88757324 459.20462036
169.39440918 303.88143921 459.19799805
169.39004517 303.88436890 459.19747925
273.08242798 297.72665405 463.61593628
273.07836914 297.72341919 463.61865234
273.09185791 297.72686768 463.61801147
273.09051514 297.72418213 463.62014771
205.43457031 298.90408325 498.82101440
205.43177795 298.90148926 498.81890869
205.43980408 298.90246582 498.82135010
205.43823242 298.90292358 498.81823730
269.50384521 282.98916626 461.59008789
269.49844360 282.98980713 461.59243774
269.51635742 282.98944092 461.59060669
269.51446533 282.99047852 461.59191895
216.01184082 272.22290039 467.36798096
216.00622559 272.22012329 467.37069702
216.02470398 272.22204590 467.37390137
216.01969910 272.21804810 467.37454224
251.80958557 269.63705444 478.50030518
251.80426025 269.63464355 478.50344849
251.81878662 269.63348389 478.50247192
251.81701660 269.63323975 478.50286865
263.43383789 314.93753052 475.74270630
263.43377686 314.93145752 475.74594116
263.43951416 314.93731689 475.75186157
263.44183350 314.93344116 475.75625610
266.95211792 266.81436157 426.40036011
266.95343018 266.81237793 426.40408325
266.95214844 266.81756592 426.40261841
266.95629883 266.81295776 426.40539551
230.95046997 307.22180176 482.27795410
230.94577026 307.21417236 482.28488159
230.95642090 307.22467041 482.28292847
230.95498657 307.21951294 482.28683472
190.24487305 291.24456787 481.50851440
190.23831177 291.24038696 481.50799561
190.24896240 291.24401855 481.50927734
190.24490356 291.24279785 481.50683594
263.38204956 311.03338623 485.35751343
263.38342285 311.02511597 485.36639404
263.39093018 311.03671265 485.35827637
263.39465332 311.03198242 485.36697388
239.45651245 297.21011353 498.67901611
239.45565796 297.20404053 498.68090820
239.46691895 297.21060181 498.68182373
239.46801758 297.20852661 498.68136597
200.29664612 293.97918701 424.19323730
200.29357910 293.98248291 424.19845581
200.30657959 293.98205566 424.20089722
200.30517578 293.98229980 424.20523071
236.30023193 253.95640564 483.29397583
236.29171753 253.96041870 483.29483032
236.30102539 253.95941162 483.29251099
236.29711914 253.96228027 483.28854370
185.05078125 299.94952393 432.46252441
185.04603577 299.95312500 432.46261597
185.06152344 299.95440674 432.46304321
185.05912781 299.95428467 432.46432495
189.68962097 307.61526489 464.61886597
189.68466187 307.61352539 464.62860107
189.69984436 307.61010742 464.61831665
189.69807434 307.60913086 464.62713623
198.65174866 298.03417969 493.93948364
198.64501953 298.03005981 493.94329834
198.66352844 298.02597046 493.94726562
198.65856934 298.02514648 493.94955444
242.25355530 312.11596680 460.44454956
242.25155640 312.11199951 460.44790649
242.25892639 312.11447144 460.44915771
242.25924683 312.11022949 460.45294189
238.31861877 298.23782349 435.29754639
238.31779480 298.23660278 435.30017090
238.32717896 298.23547363 435.30282593
238.32943726 298.23114014 435.30587769
182.91207886 280.37329102 488.74755859
182.89582825 280.37969971 488.74682617
182.92791748 280.37603760 488.74301147
182.91499329 280.38177490 488.74084473
268.22290039 242.18794250 480.82830811
268.22698975 242.18484497 480.83444214
268.22839355 242.17808533 480.83306885
268.23492432 242.17530823 480.83715820
249.17897034 309.26290894 487.77163696
249.17636108 309.25784302 487.77462769
249.18609619 309.26159668 487.77502441
249.18595886 309.25900269 487.77764893
220.76879883 258.21276855 455.16104126
220.76539612 258.21102905 455.16458130
220.77288818 258.22180176 455.16317749
220.77496338 258.21932983 455.16235352
304.02197266 276.37762451 437.82873535
304.02487183 276.37802124 437.83483887
304.03601074 276.37445068 437.83081055
304.03906250 276.37420654 437.83795166
285.94213867 292.95312500 433.39944458
285.94281006 292.95840454 433.39907837
285.95043945 292.96084595 433.40521240
285.95254517 292.96398926 433.40682983
228.35234070 249.71116638 476.62322998
228.34562683 249.71081543 476.62622070
228.35772705 249.71411133 476.62521362
228.35635376 249.71421814 476.62341309
240.70053101 282.30029297 425.81561279
240.69979858 282.29730225 425.81942749
240.70466614 282.29611206 425.81942749
240.70767212 282.29150391 425.82299805
280.92614746 276.39440918 428.38827515
280.92791748 276.39569092 428.38891602
280.93344116 276.39651489 428.39111328
280.93756104 276.39529419 428.39318848
256.40060425 314.27932739 472.39361572
256.40060425 314.27456665 472.39608765
256.40612793 314.27963257 472.40280151
256.40786743 314.27642822 472.40460205
176.13145447 291.98983765 491.23382568
176.12147522 291.98907471 491.23706055
176.14407349 291.99069214 491.23840332
176.13682556 291.99264526 491.23968506
207.01080322 302.46026611 487.00500488
207.00720215 302.45837402 487.00558472
207.02095032 302.45416260 487.00518799
207.01951599 302.45269775 487.00622559
213.45220947 279.55868530 468.52359009
213.44700623 279.55383301 468.52569580
213.46502686 279.55718994 468.52609253
213.46118164 279.55267334 468.52572632
296.52160645 262.61181641 442.10073853
296.52194214 262.61032104 442.10894775
296.53213501 262.61517334 442.09869385
296.53564453 262.61132812 442.10607910
242.75445557 268.28781128 420.45739746
242.75604248 268.28640747 420.46350098
242.76098633 268.28738403 420.45730591
242.76493835 268.28295898 420.46206665
210.87980652 292.54141235 508.01712036
210.87736511 292.53442383 508.01654053
210.88661194 292.53833008 508.01831055
210.88459778 292.53671265 508.01641846
258.24624634 278.83953857 474.43347168
258.23785400 278.84008789 474.43350220
258.25128174 278.83654785 474.43899536
258.24752808 278.83792114 474.43853760
231.10603333 310.03997803 469.30892944
231.09870911 310.03839111 469.31024170
231.11032104 310.03585815 469.30957031
231.10572815 310.03424072 469.31042480
210.69566345 268.51126099 463.84835815
210.68951416 268.50781250 463.85269165
210.70260620 268.51461792 463.85281372
210.69946289 268.51208496 463.85275269
239.86592102 291.74206543 431.19308472
239.86505127 291.74108887 431.19732666
239.87083435 291.73718262 431.19818115
239.87269592 291.73281860 431.20190430
221.72116089 263.00964355 490.20855713
221.71447754 263.00958252 490.20617676
221.73181152 263.00476074 490.21331787
221.72755432 263.00546265 490.20809937
294.75323486 291.15435791 444.15402222
294.75515747 291.15347290 444.15765381
294.76339722 291.15155029 444.15908813
294.76727295 291.15005493 444.16436768
284.02331543 289.17443848 449.18615723
284.01885986 289.17529297 449.18563843
284.02947998 289.17459106 449.18615723
284.02911377 289.17532349 449.18759155
261.60821533 300.05117798 477.14654541
261.60601807 300.04785156 477.14950562
261.61242676 300.05010986 477.14596558
261.61291504 300.04852295 477.14859009
188.27893066 294.60577393 422.73443604
188.27490234 294.60928345 422.73767090
188.29681396 294.61038208 422.73883057
188.29302979 294.61068726 422.74169922
262.45498657 316.00628662 460.09112549
262.45611572 316.00244141 460.09573364
262.46286011 316.00671387 460.09420776
262.46600342 316.00402832 460.10043335
197.94535828 305.16143799 447.14813232
197.94006348 305.16397095 447.14999390
197.95584106 305.16320801 447.15209961
197.95254517 305.16458130 447.15325928
