ply
format ascii 1.0
element vertex 2048
property float x
property float y
property float z
end_header
258.10098267 168.32398987 459.79898071
75.09300232 139.00700378 569.26501465
114.38600159 130.49600220 420.95800781
181.42700195 196.33300781 550.86700439
106.35700226 82.24300385 501.04397583
108.44300079 190.05101013 493.43197632
178.37199402 146.49600220 474.23300171
69.88700104 135.51499939 474.29498291
133.87799072 138.04901123 530.20501709
155.18000793 85.94100189 454.77398682
237.13700867 192.41000366 517.23303223
142.58299255 185.73899841 437.91101074
109.23100281 186.85198975 552.58898926
207.36599731 195.06399536 463.89599609
88.45500183 88.19400024 448.72201538
165.80400085 198.35800171 498.49899292
94.00299835 171.35598755 447.29501343
75.47900391 117.73899841 521.53601074
216.96699524 148.69000244 446.75399780
160.80699158 135.66600037 431.71798706
148.58399963 113.53400421 492.94497681
84.67199707 163.44000244 521.06097412
139.55200195 158.46099854 491.94299316
200.08000183 172.21699524 500.71298218
182.42298889 172.47499084 441.23397827
138.26699829 179.36100769 526.05499268
122.05599976 69.10400391 465.85598755
124.73600006 94.79699707 433.42797852
81.35599518 125.88199615 439.22702026
77.33999634 98.49800110 483.23501587
139.14999390 199.52299500 471.46499634
110.68099976 116.28199768 512.56695557
233.00399780 177.36799622 484.88500977
107.86599731 151.05700684 551.67596436
82.55400085 167.43699646 483.92999268
199.84300232 199.71301270 521.88098145
165.44699097 117.81800079 461.45800781
171.39500427 194.16299438 464.03698730
121.23200226 162.69299316 425.91699219
172.72399902 177.29100037 523.03100586
90.16100311 168.18901062 573.67498779
134.40998840 85.81900024 488.96301270
91.31600189 125.20000458 547.90399170
187.43200684 136.34899902 445.87899780
210.85000610 160.23500061 474.07202148
168.20300293 158.53999329 500.19400024
136.26100159 199.19699097 501.83599854
109.46099854 189.44799805 523.16900635
213.11900330 197.53800964 493.43499756
115.93800354 188.92199707 455.66400146
72.25699615 140.91099548 504.71801758
153.84399414 108.22899628 436.88500977
153.50698853 194.99800110 544.99102783
158.47499084 164.05000305 428.34201050
220.19999695 194.01499939 540.58801270
228.91500854 173.82398987 457.34899902
95.74700165 148.76699829 430.35501099
150.03900146 137.96900940 507.72601318
115.21899414 162.68399048 527.14196777
98.38099670 106.32699585 429.94201660
94.86299896 78.25499725 473.58700562
78.25399780 149.06098938 543.90301514
78.15200043 149.22900391 451.53701782
72.59700012 112.53699493 461.30999756
187.76600647 197.94599915 484.26501465
90.26000214 95.85300446 516.32800293
160.53199768 171.03298950 478.83001709
155.20700073 135.03100586 480.45599365
88.27600098 172.62699890 546.09802246
137.56599426 143.07699585 423.68502808
127.49401093 198.80200195 539.27795410
97.33399963 182.75498962 470.53598022
156.09001160 199.77000427 521.04901123
164.74099731 145.60499573 453.75399780
214.64300537 180.51800537 518.89099121
111.18900299 79.30800629 446.71099854
206.02000427 172.17601013 446.72900391
154.10000610 93.89199829 477.82498169
70.61299896 117.99199677 497.77297974
109.47499847 129.05599976 532.85302734
125.02400208 106.20400238 496.55599976
136.22399902 119.76999664 426.13598633
118.23999786 154.62699890 500.64099121
138.92900085 157.92599487 517.13903809
134.23500061 77.01099396 447.52697754
195.13900757 180.52999878 533.30303955
131.76300049 124.81700134 511.38598633
91.09799957 175.46301270 503.26501465
240.03599548 155.16799927 452.09301758
197.06500244 148.12600708 461.56701660
164.26499939 186.35900879 445.08200073
187.91801453 160.70399475 487.44000244
177.25700378 200.43400574 523.32598877
154.88000488 171.27500916 512.69299316
252.45401001 182.51100159 474.54501343
190.91500854 188.40600586 451.82101440
142.96301270 76.57099915 472.29098511
229.09700012 190.72799683 469.40899658
74.42999268 137.91600037 525.64105225
194.17601013 155.55400085 441.49398804
92.27199554 149.38800049 565.59600830
200.02900696 198.91299438 542.25799561
95.10199738 116.04199982 526.83300781
112.17199707 74.00400543 483.23898315
188.64401245 200.48199463 505.07098389
78.17500305 106.33100128 442.69201660
118.56199646 179.33000183 438.20300293
83.11399841 165.00500488 462.94097900
232.47799683 194.38700867 497.73898315
117.71199799 191.64498901 475.46600342
149.50900269 196.02200317 454.40798950
87.89300537 88.75499725 497.49600220
219.45199585 174.91699219 499.80300903
160.50100708 197.41299438 479.70397949
139.92199707 170.14500427 426.78298950
182.10099792 170.21499634 507.52801514
96.33300018 126.68199921 426.66400146
166.25900269 178.23699951 498.73199463
172.30198669 154.54000854 437.56198120
116.35799408 111.63700104 426.35900879
126.23399353 197.17800903 517.94396973
77.39400482 94.46199799 464.61297607
102.34600067 169.33399963 559.19299316
73.95500183 150.88499451 488.76501465
119.23000336 181.33099365 537.72100830
72.51799774 130.23599243 455.50900269
123.24699402 149.86999512 539.89202881
168.55999756 182.54501343 540.28100586
229.06599426 161.87899780 471.65301514
143.96600342 92.67800140 437.85699463
96.14600372 177.70298767 527.24395752
75.16200256 132.36799622 551.98400879
80.29000092 158.72200012 504.16601562
168.65800476 126.90499115 445.25900269
214.04499817 198.24600220 511.21902466
69.10099792 116.08499908 480.14797974
107.03299713 100.22900391 505.85198975
158.94799805 117.26999664 477.97302246
81.22000122 161.22200012 558.44097900
104.33100128 163.98001099 432.86898804
76.72999573 104.49900055 507.27899170
161.57699585 100.60700226 461.87002563
156.15800476 148.22599792 492.95397949
133.92601013 144.01300049 499.61599731
75.90799713 151.48300171 470.93099976
104.58599854 91.52500153 436.27999878
156.15899658 182.28199768 525.85101318
105.41999817 166.45700073 540.74902344
188.38900757 195.65100098 467.41000366
131.85900879 191.27200317 449.90100098
114.81600189 147.11900330 423.77499390
105.96800232 134.39401245 548.41900635
81.44900513 116.02199554 537.15997314
195.41400146 175.31498718 517.35595703
140.06799316 199.67100525 526.96301270
165.75099182 193.58601379 556.24597168
98.37999725 77.49199677 457.39498901
216.50299072 184.64698792 455.26098633
158.94999695 134.05899048 463.62200928
123.91999817 195.68299866 491.91497803
182.44599915 136.32800293 461.20300293
167.12899780 198.99299622 535.75799561
118.96400452 91.08399963 496.43798828
245.29998779 186.51199341 489.55899048
244.25299072 176.01499939 461.99099731
150.33499146 197.55299377 492.00100708
139.95300293 100.80799866 488.77798462
79.18900299 154.31500244 573.09503174
125.94300842 169.42700195 517.62097168
220.08100891 167.33599854 484.81500244
88.40700531 133.68800354 562.59295654
206.00399780 197.17199707 479.42700195
153.68400574 166.44000244 497.82400513
69.78599548 132.94898987 489.72399902
136.82099915 104.87899780 431.25997925
150.38000488 153.52598572 507.41601562
164.28401184 109.42199707 448.35598755
221.70199585 196.99600220 524.66198730
147.53599548 192.39599609 509.98999023
128.23399353 73.22899628 479.44097900
221.33000183 152.32499695 461.11700439
152.76499939 128.57099915 494.21600342
83.91799927 140.94099426 437.36999512
77.57299805 150.47399902 516.87097168
228.42300415 181.84399414 510.29498291
97.49399567 79.48400116 488.64999390
219.10501099 164.59600830 449.22598267
152.09199524 147.21299744 426.23800659
123.06199646 128.62600708 525.06201172
101.72999573 183.44700623 455.70999146
151.75299072 123.47399902 430.90100098
163.18299866 145.86099243 472.13500977
168.05000305 172.57000732 436.28500366
173.10699463 153.69200134 486.81701660
195.37300110 154.50300598 475.09301758
97.49700165 181.10699463 488.29498291
83.05300140 161.25000000 536.55303955
100.91799927 182.96499634 511.78698730
84.94800568 104.92599487 527.02801514
104.14800262 185.24200439 537.40399170
205.32199097 166.86399841 486.90701294
209.66101074 185.64599609 534.21197510
70.78800201 127.36499023 510.70999146
107.87999725 72.83899689 467.95300293
224.22500610 194.87200928 482.63497925
88.86799622 157.50799561 439.90100098
172.69599915 175.49299622 485.66699219
186.14199829 199.85800171 534.77502441
127.65100861 195.63299561 463.62701416
118.13099670 194.45799255 505.06503296
85.84600067 86.92199707 482.48800659
130.65499878 155.88400269 528.72698975
151.46499634 161.07800293 484.32897949
155.58200073 179.55400085 434.70300293
134.47200012 116.54199982 499.80700684
89.46099854 98.08499908 437.56802368
183.24099731 185.75898743 539.35803223
144.80300903 141.49198914 520.58203125
145.15699768 76.30699921 457.88897705
137.61700439 197.38000488 485.39901733
177.11999512 184.74101257 450.66400146
75.92900085 130.90800476 538.04394531
119.50199890 136.37001038 540.02001953
130.11700439 131.60400391 420.87200928
202.49200439 199.65000916 502.20501709
157.02700806 197.97100830 466.22601318
96.90900421 180.60598755 553.32202148
167.23799133 199.75900269 512.92999268
178.40600586 145.97499084 449.63800049
76.00000000 148.57299805 558.45794678
157.74198914 97.69400024 445.74499512
103.53199768 138.34500122 423.68099976
81.36199951 121.63800049 557.64196777
133.27699280 156.89801025 423.67199707
87.38899994 115.26600647 433.40600586
98.75000000 107.65500641 516.90100098
230.73899841 147.16400146 446.52102661
87.97200012 173.14698792 472.48901367
176.19799805 196.32899475 477.62799072
205.37599182 152.69200134 452.01901245
242.44099426 162.89601135 463.42401123
122.08200073 73.16400146 451.31399536
122.49199677 116.21300507 506.49798584
74.48100281 105.37199402 494.25698853
121.97399902 78.23000336 491.05200195
179.44100952 198.85400391 495.72500610
74.39299774 118.06999969 447.31100464
106.86600494 178.53799438 444.13302612
115.81900024 193.72000122 543.53302002
161.20600891 145.20899963 441.11697388
238.23300171 170.94300842 473.73300171
123.15499878 83.60400391 439.94201660
131.67799377 179.40199280 434.75900269
131.61100769 186.92900085 535.96697998
105.15599823 188.36399841 480.73800659
87.06200409 84.76000214 461.14901733
194.64399719 177.46501160 443.74798584
71.42200470 104.22499847 471.01699829
236.26800537 190.75299072 481.01998901
203.56900024 189.73899841 452.67700195
100.40699768 90.01100159 509.47796631
153.48200989 81.86999512 467.54598999
78.29800415 151.01799011 529.49499512
126.86799622 175.00999451 529.40795898
92.22300720 176.12100220 459.53698730
104.86399841 116.71400452 426.26800537
227.78099060 186.11399841 522.72399902
169.11799622 171.62100220 508.99398804
108.77600098 189.25300598 465.93200684
230.34500122 180.69499207 497.69100952
91.91699982 172.06199646 515.62200928
241.17300415 188.88699341 504.84503174
241.39100647 185.55799866 469.70300293
154.35198975 106.05300140 484.85198975
143.44200134 127.83400726 504.87600708
161.91700745 193.85899353 455.57598877
96.18700409 124.24199677 536.53900146
98.98600006 139.50500488 557.29003906
111.31100464 174.11599731 529.86999512
72.24900055 140.06599426 463.05599976
134.11299133 71.07800293 459.56701660
216.80999756 194.92199707 472.79998779
120.29399872 194.49800110 530.27301025
78.16999817 97.14800262 452.62899780
184.98800659 177.35700989 523.54199219
144.88198853 86.48400116 482.65798950
143.22599792 170.83999634 518.82800293
198.42300415 199.13899231 490.12802124
149.17599487 193.42300415 532.16998291
144.65699768 82.86199951 445.27700806
226.83100891 195.38400269 508.46398926
173.04199219 146.68199158 462.54101562
100.20100403 84.17099762 445.10202026
115.01100159 159.17199707 539.47900391
144.97999573 158.17900085 426.26898193
178.80099487 162.77099609 496.33898926
142.32000732 130.07499695 426.27902222
206.55200195 155.81098938 463.80902100
139.75700378 200.38999939 514.31695557
93.89199829 175.92500305 564.48498535
100.31700134 157.49398804 558.31500244
208.34899902 176.68501282 509.52899170
107.03299713 122.70300293 523.14001465
70.37000275 126.36100006 466.48999023
204.13200378 180.62500000 525.09802246
114.38799286 99.86399841 431.02801514
85.70800018 162.65901184 449.96099854
122.18000031 121.37500000 423.50100708
129.08700562 155.13299561 495.95401001
77.70300293 122.43399811 546.37402344
136.95199585 132.39300537 520.47003174
126.25400543 143.53900146 420.89797974
211.19400024 197.23999023 533.95703125
194.18899536 144.50801086 450.70001221
84.99400330 169.22500610 495.59100342
189.35400391 200.79598999 516.99798584
76.65000153 134.97599792 445.75000000
186.20599365 146.62500000 440.63500977
160.07099915 108.06000519 471.09100342
161.89500427 151.11700439 430.90502930
160.81100464 133.42399597 450.64398193
170.19100952 196.95500183 487.44500732
183.24301147 158.00000000 438.93600464
138.33799744 196.86700439 459.64801025
149.10099792 198.36999512 479.54101562
145.97999573 186.31399536 521.33300781
145.07499695 149.20599365 495.64901733
129.11000061 195.59199524 475.12100220
154.30400085 198.73300171 502.59899902
191.02999878 192.59600830 545.14001465
108.95500183 187.61399841 505.23696899
160.83399963 121.75000000 437.47198486
155.46299744 182.50199890 514.18499756
204.43800354 160.24499512 443.63098145
145.76100159 113.88800049 431.13198853
160.92399597 186.51100159 547.56402588
210.09600830 194.24400330 545.57800293
229.03099060 195.17900085 533.02801514
83.41400146 95.50399780 506.31701660
127.92800140 109.42800140 426.17300415
234.63200378 164.80400085 453.90701294
181.06900024 191.71400452 458.96499634
87.63800049 170.27799988 557.07403564
251.98599243 171.47799683 468.66500854
161.71101379 127.65799713 472.35800171
220.58599854 187.41198730 531.59100342
113.58699799 170.18400574 432.74798584
89.20100403 170.29499817 534.47302246
190.31100464 167.63200378 495.80197144
114.18099976 141.82400513 549.24298096
80.23699951 163.21400452 473.92401123
91.29100037 136.37500000 430.45397949
134.21400452 87.42699432 437.82998657
84.09500122 88.61300659 471.69500732
189.18099976 143.08999634 467.47100830
127.46199799 95.85099792 491.22500610
72.82599640 115.07099915 511.15698242
199.95700073 187.91200256 539.94000244
81.25299835 159.01100159 547.56896973
108.86699677 156.04899597 426.26602173
232.15800476 183.44099426 461.78500366
153.77500916 189.19999695 443.55899048
104.45299530 177.24299622 546.10003662
125.63300323 172.12699890 429.31100464
159.83999634 147.18901062 482.40399170
74.75700378 126.91799927 527.28997803
137.93699646 147.87300110 527.96301270
193.61099243 166.37100220 441.70697021
70.03399658 130.43899536 500.35296631
75.35400391 130.36300659 562.60400391
186.72900391 150.16600037 479.97000122
80.25799561 95.67800140 494.35202026
174.51899719 188.08200073 547.31799316
70.73199463 141.85499573 483.84298706
115.69699860 105.00199890 501.73901367
228.64599609 157.40199280 448.87500000
233.64500427 156.86599731 462.54598999
110.83200073 73.52700043 457.71398926
196.12699890 197.08499146 475.39401245
106.19300079 162.83898926 550.73199463
122.89399719 186.66200256 446.53201294
156.40400696 186.20399475 535.70697021
158.00100708 91.76000214 466.48498535
80.82500458 103.34500122 517.40301514
98.87500000 181.26699829 499.12899780
134.18200684 71.04199982 470.44000244
94.47000122 160.43699646 567.97998047
215.86500549 174.92799377 451.25000000
209.58000183 171.99000549 496.30999756
162.75599670 176.01800537 517.97998047
69.56800079 126.45199585 481.52099609
160.49099731 168.18000793 488.86099243
175.64999390 199.79199219 505.39303589
75.30500031 150.08300781 500.82998657
220.21701050 190.30700684 463.15301514
196.96200562 194.52600098 461.72100830
196.53799438 163.83200073 482.37799072
78.84500122 159.81001282 493.99700928
84.21599579 143.65699768 570.55004883
210.04100037 198.23298645 521.38800049
149.93899536 172.85501099 429.28799438
130.21301270 197.89099121 529.40496826
113.37500000 86.41199493 438.81402588
115.96900177 192.81500244 485.48498535
73.38899994 136.63099670 515.59100342
122.17500305 123.69800568 514.59497070
162.88200378 166.94200134 502.29199219
159.23400879 153.93798828 501.18099976
81.82399750 164.38000488 569.38299561
102.43099976 181.37300110 561.76501465
175.72000122 164.23500061 436.33801270
229.59600830 169.23600769 478.67199707
176.09500122 198.13699341 542.54901123
199.56900024 198.97698975 531.87902832
141.27699280 157.69999695 507.03900146
174.45401001 179.80099487 532.57501221
93.63600159 178.32699585 478.91699219
77.72900391 157.66600037 482.45700073
127.58399200 198.10000610 506.66601562
164.30300903 196.97399902 546.96203613
71.96699524 142.82398987 494.83901978
150.86900330 137.47599792 428.05099487
142.00399780 191.24299622 446.20098877
112.07299805 76.75699615 492.78399658
171.49198914 179.60501099 442.38900757
152.27999878 138.10800171 496.83200073
156.37800598 120.05300140 487.10501099
193.51699829 174.73800659 507.59600830
221.25799561 196.17199707 500.39703369
136.71701050 108.79199982 493.48300171
243.91000366 177.82499695 477.82299805
138.45401001 79.15700531 481.55401611
95.05700684 176.93099976 540.49200439
88.04699707 126.88599396 432.18600464
101.66600037 75.99599457 480.21600342
76.13000488 138.55799866 544.50897217
78.02999878 154.67399597 459.62100220
80.07600403 115.45600128 439.82601929
87.26300049 167.59500122 507.51901245
73.69200134 103.08399963 459.34100342
71.58399963 106.84600067 481.84799194
118.46700287 192.65499878 464.43798828
164.08799744 153.78700256 492.78799438
123.09999847 152.28800964 423.58499146
248.52600098 163.72000122 455.94400024
95.21199799 90.69400024 440.05902100
89.92400360 175.20899963 488.95901489
117.33499908 193.65000916 518.84301758
122.27100372 158.68200684 532.47497559
110.91899872 92.67600250 501.46102905
167.44000244 162.74900818 431.79501343
185.78399658 181.86099243 447.14599609
145.88800049 120.73200226 498.99398804
170.12500000 150.10200500 445.71701050
130.45799255 145.19000244 535.76599121
117.99700165 171.51800537 522.44104004
208.17900085 182.11700439 449.30200195
118.11499786 71.28500366 476.31600952
95.25399780 165.40699768 439.97201538
124.47799683 189.45899963 541.72900391
99.87100220 99.35200500 512.40496826
145.54400635 102.04299927 433.70800781
230.67199707 150.39099121 456.27600098
149.97500610 162.61500549 510.11700439
134.25199890 96.00900269 433.79699707
142.68200684 178.62400818 431.65399170
220.23298645 160.00199890 475.36401367
113.65900421 182.65699768 545.25000000
133.79800415 169.65599060 522.88598633
74.07800293 139.30499268 559.83801270
71.56399536 120.99199677 457.18301392
151.46299744 91.03900146 443.41900635
97.32600403 83.91200256 496.96798706
136.16799927 195.49099731 536.30297852
82.47800446 148.80200195 443.19299316
142.77299500 132.64698792 512.91503906
225.41700745 174.97099304 489.86398315
107.68699646 106.44599915 428.73001099
166.21699524 118.35200500 450.42300415
149.51998901 146.03201294 513.88299561
165.07301331 199.75100708 526.65698242
196.29000854 200.60800171 510.43896484
164.86099243 127.10699463 461.11398315
162.31800842 143.84500122 462.56701660
78.16100311 95.55999756 473.82400513
97.62500000 132.09500122 551.80401611
188.65699768 199.79499817 495.20001221
135.37800598 150.24800110 491.00598145
70.41999817 118.23500061 470.93002319
103.50099945 130.14599609 539.81103516
95.46399689 114.97000122 428.60299683
164.36799622 180.25698853 532.40698242
154.93299866 199.33200073 536.24700928
215.30799866 196.86000061 483.57598877
76.36400604 142.29899597 533.46997070
115.56700134 125.54299927 520.76300049
101.95100403 184.72500610 528.14300537
167.35699463 131.04000854 437.21099854
141.22399902 190.69599915 528.59600830
131.37200928 185.70700073 441.35601807
75.28500366 140.93301392 454.04800415
230.68901062 195.88500977 523.53601074
125.97799683 134.18899536 532.64599609
238.49099731 184.02400208 495.33700562
158.96000671 197.54399109 489.07501221
143.32200623 150.67199707 521.18298340
150.18899536 97.11299896 485.36999512
168.17900085 195.94499207 473.38198853
111.22299957 190.69198608 535.85498047
163.99400330 108.71399689 458.63800049
232.06999207 192.84999084 488.75601196
89.13599396 118.82099915 541.01300049
102.17499542 115.69400024 520.13800049
125.50799561 87.00899506 491.75198364
106.61800385 175.25199890 537.48797607
169.46199036 189.83300781 452.71499634
105.88999939 125.22299957 423.46701050
98.72599792 148.67700195 559.29296875
184.42399597 175.39199829 514.50994873
104.84900665 171.36299133 437.98300171
91.29600525 91.26200104 507.15499878
69.37100220 120.31600189 488.08200073
191.48899841 140.73500061 459.13198853
148.29899597 199.49699402 467.49600220
122.86299896 161.76300049 522.58099365
97.62500000 157.40400696 431.69900513
222.75000000 146.63499451 453.23397827
156.88600159 138.54399109 472.42901611
89.07700348 110.24200439 532.87701416
154.41999817 141.56500244 487.29101562
153.20399475 198.76399231 512.56695557
170.48800659 150.02700806 479.13900757
78.72299957 113.59500122 529.04302979
84.89400482 118.60600281 549.90600586
146.47500610 160.44400024 500.39202881
92.07399750 102.48400116 522.38397217
149.80299377 176.72399902 518.28900146
246.83900452 185.99200439 480.38101196
181.83900452 153.02400208 487.64801025
130.39599609 161.84300232 517.78295898
142.87599182 150.08200073 423.37799072
202.14801025 160.74700928 475.18701172
152.04499817 99.55000305 439.06399536
123.70699310 102.11700439 428.68399048
148.00199890 83.21499634 475.04699707
215.89300537 155.96499634 466.97500610
161.93899536 100.79800415 452.80700684
104.61899567 146.70401001 426.14401245
127.13800049 150.88800049 503.39001465
82.82499695 90.32499695 455.85098267
116.83000183 149.52500916 546.09899902
145.60900879 196.30900574 519.34197998
109.10200500 108.30100250 508.42898560
172.98799133 166.83599854 502.83901978
182.64999390 200.58099365 511.37698364
75.91999817 148.32099915 567.71203613
215.72299194 157.26100159 446.02398682
146.41099548 195.28601074 501.49798584
192.41799927 200.38500977 527.19000244
217.62899780 177.52900696 507.83496094
213.48500061 152.23200989 454.95700073
214.78300476 182.59100342 527.39599609
156.35700989 157.59700012 492.94799805
74.35700226 110.18800354 450.75601196
116.88400269 193.90800476 496.59698486
199.43000793 168.27000427 493.12799072
73.36100006 149.18998718 480.27999878
104.12599945 98.50199890 431.34100342
137.94400024 154.93200684 499.65600586
124.01500702 194.13598633 482.88900757
75.46599579 126.54699707 446.61999512
171.96800232 196.54800415 550.71997070
87.35199738 155.37100220 570.82202148
107.16799927 140.92799377 554.00000000
141.16899109 198.80200195 494.89999390
166.27700806 174.02999878 491.34201050
134.73999023 94.33999634 487.03399658
186.91700745 134.73500061 454.18997192
158.94200134 127.43901062 480.47998047
129.58000183 164.07200623 426.20999146
147.24699402 153.52799988 488.70901489
90.79299927 105.66600037 433.61999512
211.32099915 198.17300415 503.21603394
100.18499756 178.03399658 449.44000244
156.36399841 155.01399231 425.90200806
110.38700104 184.07798767 449.39602661
153.35499573 146.89900208 500.77301025
159.71499634 93.01599884 455.07601929
157.29499817 103.24800110 477.39599609
81.83300018 159.28700256 528.47601318
73.23899841 110.36199951 500.89901733
111.55000305 138.64498901 421.23300171
161.81201172 199.41299438 506.25402832
82.14299774 97.33200073 445.27099609
113.90600586 120.20400238 423.64199829
237.65599060 172.14801025 458.61898804
154.07901001 116.23799896 434.34201050
118.41699982 130.42601013 531.74102783
211.56199646 164.53300476 481.94100952
92.20399475 81.24900055 482.50100708
72.22999573 144.04800415 470.73199463
71.19499969 112.03099823 490.55499268
89.38100433 149.63099670 435.59701538
178.44400024 197.72399902 487.23999023
91.45600128 171.52301025 524.40295410
161.86900330 118.73199463 470.38497925
222.60400391 196.64999390 515.44097900
203.36698914 178.36999512 517.20800781
164.21499634 179.84199524 438.58502197
225.96200562 166.80799866 453.17102051
177.78399658 151.90600586 443.36898804
82.28900146 160.48200989 511.93301392
96.08999634 77.37900543 465.51901245
76.44200134 110.37200165 518.05297852
76.02400208 147.31800842 509.46701050
146.55999756 105.64699554 488.51800537
87.09099579 127.38401031 556.50598145
213.18200684 191.18099976 458.92199707
224.72999573 195.86799622 490.77697754
123.76100159 191.29200745 455.46697998
186.22100830 180.81100464 533.58398438
102.33200073 125.06100464 531.23699951
147.75599670 164.55000305 492.61700439
96.80300140 170.17900085 569.41601562
78.75399780 158.92500305 467.20498657
91.16200256 82.13700104 454.67498779
158.94099426 105.13899994 442.36199951
213.37799072 169.40901184 488.84600830
114.01799774 82.86000061 498.60299683
167.15798950 126.04300690 453.45898438
112.03099823 190.20800781 512.20501709
161.03799438 141.08100891 448.18197632
82.37500000 135.76600647 568.18902588
75.64900208 142.52301025 551.46801758
159.38400269 99.75499725 469.54000854
112.18599701 156.20599365 546.35900879
165.80200195 176.88700867 481.84500122
223.14801025 181.05200195 457.89901733
152.67900085 199.52600098 528.36999512
154.47700500 170.78199768 484.04800415
222.03999329 180.39299011 514.87896729
158.27700806 171.41899109 431.39700317
116.99900055 92.88500214 433.88198853
159.75000000 138.68400574 457.05999756
125.04499817 142.12701416 540.75097656
140.98699951 73.56200409 464.10000610
211.57200623 164.06098938 446.15399170
73.09199524 124.74600220 518.62902832
77.71400452 123.04000092 537.04901123
176.53800964 199.28700256 534.70202637
90.07400513 141.36700439 565.70703125
121.23600006 99.29600525 495.58999634
89.89600372 82.20999908 468.10702515
125.04699707 71.06600189 458.35900879
108.00900269 72.97399902 476.56198120
231.97200012 186.13499451 515.92102051
87.99900055 168.82699585 454.35900879
151.93000793 80.10800171 459.32598877
154.57501221 167.39801025 505.81903076
107.14100647 187.04299927 544.59295654
108.56600189 189.89300537 473.80599976
207.44900513 198.02999878 488.00299072
109.51599884 164.32400513 534.40100098
142.68800354 93.89500427 486.26101685
155.91999817 131.91799927 487.62197876
112.02500153 162.88400269 428.40200806
141.70999146 78.02799988 451.07998657
176.53700256 174.30500793 516.89398193
198.13699341 152.20199585 449.12200928
252.18998718 179.18800354 467.45602417
185.21400452 196.62699890 477.00698853
186.58000183 198.91198730 544.05303955
76.12599945 144.94100952 522.16204834
159.49000549 114.41300201 439.60198975
87.89700317 171.06999207 465.01699829
196.82400513 183.57499695 447.99798584
188.44898987 169.58599854 503.06600952
131.20500183 79.24299622 486.42001343
102.42000580 79.15799713 451.01400757
122.41600037 78.03700256 445.32901001
120.31600189 73.15599823 485.47698975
206.89700317 196.58100891 471.79299927
175.30700684 200.41101074 513.71398926
134.69900513 199.60699463 520.07104492
123.64499664 196.42298889 500.07302856
79.01100159 99.10199738 501.12496948
131.40499878 102.44799805 491.03701782
97.38499451 96.66100311 434.54598999
130.23999023 81.72100067 442.23699951
130.78900146 197.36199951 496.76901245
223.55101013 151.37800598 443.86300659
181.84899902 140.83799744 467.49801636
178.25601196 144.54800415 457.34701538
123.05100250 195.61299133 546.05798340
244.73899841 168.18499756 468.44699097
82.50299835 133.31500244 437.84399414
191.53500366 185.40699768 537.95300293
99.49600220 181.90200806 521.48199463
105.59099579 77.79399872 488.89398193
181.17498779 195.75599670 469.88699341
103.48200226 77.45800018 463.64999390
199.36599731 155.50900269 466.30200195
161.66499329 173.14399719 509.27197266
193.31700134 199.24899292 538.68499756
103.09600067 169.59400940 547.28100586
172.38999939 157.79598999 493.89202881
205.78700256 199.13899231 515.15502930
83.46299744 155.91398621 447.29000854
126.82500458 69.73899841 471.74502563
202.39700317 182.72300720 533.32397461
165.73500061 151.37599182 439.62298584
225.67399597 178.30499268 503.14999390
154.42700195 198.45100403 474.16799927
242.61500549 181.18399048 484.94799805
104.80599976 180.22599792 553.01202393
131.01400757 193.99900818 457.08599854
156.37899780 129.40899658 431.13198853
77.62500000 154.70799255 564.12603760
121.89499664 130.16900635 421.19799805
193.49600220 149.55699158 469.75698853
76.00199890 147.58000183 461.03601074
88.18899536 171.14099121 565.48199463
141.78599548 198.93200684 506.90798950
151.52999878 165.90400696 426.20797729
162.23800659 135.84100342 439.84402466
159.18299866 192.53199768 552.79901123
138.07398987 122.62000275 504.61602783
188.37699890 193.25799561 459.40200806
250.37300110 165.67500305 464.22201538
82.65099335 108.31999969 437.04400635
130.52999878 196.40699768 488.50399780
201.15299988 175.94699097 507.65597534
159.42799377 191.01899719 448.34899902
111.13500214 133.86399841 543.05700684
250.91699219 172.76899719 461.10800171
96.07700348 178.99400330 507.73501587
91.86500549 83.79799652 490.90701294
77.88999939 151.38499451 551.83398438
178.73799133 178.11900330 444.37997437
82.50299835 128.37800598 562.24603271
111.05200195 176.39500427 438.41101074
129.31500244 124.73699951 423.52798462
116.24299622 155.75300598 425.67800903
149.37399292 81.50400543 452.53802490
81.59799957 92.71500397 487.72399902
146.52299500 153.71798706 513.70800781
83.07500458 92.94300079 478.67001343
168.32701111 187.72200012 552.57897949
169.99200439 147.20599365 469.62600708
154.33999634 88.71600342 472.58599854
83.90100098 164.55300903 551.63195801
151.20199585 120.40899658 493.90798950
118.99100494 175.65100098 528.43896484
80.20999908 154.61300659 537.93298340
123.03800201 194.31700134 471.16400146
129.23899841 128.06500244 517.46301270
214.13500977 189.89300537 540.40905762
238.85899353 189.87800598 490.93402100
202.23500061 179.05099487 445.99597168
197.06500244 195.91200256 548.25097656
178.33801270 149.91999817 480.70300293
163.72300720 112.58399963 466.27102661
205.35501099 198.36099243 527.44799805
144.16999817 138.94499207 425.51199341
141.82899475 194.77101135 452.59100342
71.63000488 134.27600098 507.69699097
148.41699219 182.45600891 435.00000000
158.55099487 163.77099609 483.37799072
139.80400085 138.63900757 525.06298828
125.39300537 181.63299561 533.85101318
83.22499847 164.52799988 500.90701294
192.05899048 177.12399292 525.20300293
70.48600006 134.80599976 482.10202026
130.11799622 73.55300140 452.40597534
98.59299469 129.46000671 545.11102295
164.83999634 196.62300110 465.90499878
132.92300415 171.09901428 428.38998413
131.42498779 149.89599609 423.55798340
199.68899536 153.28599548 457.22897339
182.83900452 189.99899292 545.20001221
96.51499939 181.20999146 462.34100342
157.28999329 143.57099915 429.68600464
116.10099792 183.47898865 445.02197266
77.30200195 142.09599304 447.21298218
137.40800476 162.29798889 426.09201050
240.04299927 157.55699158 458.89999390
235.02600098 162.43299866 467.62698364
96.96599579 141.90800476 428.49499512
69.82400513 126.74600220 474.32501221
194.12699890 200.25399780 499.86199951
112.94999695 178.51899719 535.60797119
117.99000549 70.79000092 456.97399902
244.66699219 169.62400818 458.71499634
148.17799377 132.40299988 501.97500610
161.54499817 160.70300293 498.56298828
152.20298767 197.74000549 460.90899658
130.72299194 110.66899872 496.96697998
114.81700134 113.19300079 507.58099365
235.67399597 193.28599548 506.21301270
181.50700378 140.12100220 452.73797607
214.25099182 193.71000671 465.54299927
133.78900146 199.68899536 510.41000366
90.79000092 143.33599854 432.03500366
135.45899963 135.37899780 423.76501465
166.75500488 169.82301331 482.28201294
198.98399353 196.09400940 468.38699341
91.55000305 175.13699341 553.60400391
104.20099640 184.98800659 496.17700195
102.34700012 186.21600342 466.50399780
154.15798950 113.23300171 488.52600098
209.20700073 154.40200806 446.04098511
100.01100159 85.57199860 503.93099976
125.12299347 181.92700195 439.07998657
235.81500244 189.80599976 473.99301147
91.73300171 176.35600281 495.72399902
117.06700134 188.97000122 548.64898682
87.43499756 92.92700195 443.54501343
206.25099182 198.11500549 538.95404053
136.13099670 111.48300171 428.79501343
80.19400024 156.64898682 519.14196777
98.33799744 133.44299316 426.03601074
128.12500000 114.75800323 502.38598633
107.73000336 83.95600128 442.30300903
101.36499786 75.19800568 473.19201660
126.64200592 153.45500183 534.36102295
225.35200500 155.69999695 465.84799194
186.94299316 164.06599426 441.31100464
171.84600830 197.99200439 494.22601318
148.37298584 77.61900330 465.17700195
93.03700256 133.86500549 557.28698730
206.40901184 173.35000610 503.58599854
117.86199951 194.97200012 536.85803223
101.74299622 173.40399170 553.48699951
182.19299316 200.29400635 528.97003174
137.60200500 198.00199890 478.39498901
179.60099792 179.52400208 527.50000000
200.66699219 166.16799927 443.45501709
156.70700073 85.98899841 462.70199585
160.84800720 198.33700562 539.87902832
98.75500488 183.51800537 477.35299683
217.18800354 197.06500244 530.34399414
87.56800079 84.16600037 476.29202271
160.58500671 199.74699402 532.01995850
122.66100311 196.38600159 511.31802368
76.15899658 129.13400269 545.17401123
86.06600189 166.07398987 529.88897705
176.46199036 185.04400635 540.83801270
124.33200073 196.05799866 524.80401611
239.01300049 190.58099365 497.86999512
129.34599304 69.80699921 465.25000000
115.37999725 97.42599487 498.99600220
145.23600769 122.07700348 428.87399292
120.63800049 139.42498779 421.10501099
189.93499756 172.28199768 441.85400391
154.52900696 164.91099548 491.04602051
187.19099426 146.33500671 474.20599365
93.07800293 177.52299500 547.13800049
223.41300964 193.06401062 473.82598877
69.06999969 126.93099976 493.08898926
145.01300049 198.00500488 461.11398315
162.47700500 178.68701172 525.92999268
257.68099976 173.40699768 464.48498535
235.76701355 185.97698975 508.03500366
127.64500427 117.20600128 424.27200317
73.80300140 131.57499695 522.28302002
100.62100220 174.41299438 564.78698730
82.04199982 158.74800110 454.30899048
182.81300354 187.99499512 453.42401123
166.78999329 151.48800659 485.19302368
79.61399841 108.47100067 523.85803223
207.19200134 198.39500427 497.34100342
84.06600189 168.15100098 476.79299927
86.11599731 167.97299194 540.15795898
157.08200073 112.31199646 482.37899780
220.14999390 196.96299744 508.27401733
151.88600159 191.17199707 538.06298828
138.52598572 83.32499695 442.22598267
221.87100220 174.00300598 454.42599487
163.56500244 157.56100464 429.26800537
182.36000061 167.35299683 500.84698486
193.76100159 166.24900818 489.85299683
99.38400269 172.59399414 443.24200439
148.26600647 192.99000549 448.40499878
149.98899841 130.71900940 428.62200928
131.25100708 192.99400330 540.34295654
221.62799072 184.71699524 525.35498047
151.11100769 187.77499390 525.60101318
153.27299500 197.78900146 484.91702271
76.78099823 100.10099792 489.84500122
94.70299530 175.18598938 452.89901733
120.40299988 174.93000793 433.33200073
131.49600220 131.79100037 524.51098633
119.91800690 141.57800293 545.57800293
112.72600555 127.53300476 526.62402344
133.31399536 180.83601379 530.48400879
76.58399963 124.30100250 553.59600830
241.19400024 164.00100708 455.50997925
103.16800690 184.06799316 504.85699463
70.90399933 121.76499939 506.86001587
172.77699280 193.24200439 556.59600830
137.58799744 164.57701111 517.04199219
119.60299683 169.02099609 429.21298218
151.28900146 187.89500427 517.41998291
71.09799957 111.29999542 467.80599976
182.45098877 159.21499634 491.15899658
114.20899963 191.56600952 529.74804688
130.40399170 102.98000336 429.23199463
174.32800293 191.13899231 458.72302246
91.02600098 116.67700195 533.52795410
99.87599945 164.13800049 562.73004150
87.63100433 166.66999817 514.19799805
218.83299255 171.88699341 493.80200195
75.24500275 143.86300659 515.20599365
228.98800659 192.54800415 478.46600342
160.13400269 180.58499146 500.28402710
191.63099670 157.77699280 482.63800049
95.35600281 92.36799622 513.23400879
73.69799805 99.73199463 466.53698730
237.61599731 178.22700500 461.47799683
119.80599976 84.46900177 495.59899902
132.55599976 197.15798950 469.58099365
77.66400146 144.89700317 573.21002197
83.10900116 98.47100067 513.40899658
108.59899902 190.73100281 486.76699829
213.28599548 174.49200439 502.36999512
70.44299316 136.10200500 496.82501221
171.06799316 147.53900146 454.60998535
110.41300201 188.62100220 459.38800049
144.90400696 165.02200317 516.03198242
142.60198975 115.75800323 496.00500488
105.96199799 91.28999329 505.69702148
76.85899353 121.22499847 530.03802490
91.02200317 121.22700500 430.32101440
246.61700439 173.46900940 472.03698730
87.44099426 172.68800354 483.34301758
230.09599304 194.92498779 516.99499512
99.73600006 121.04100037 425.91900635
233.56098938 153.01998901 448.10299683
224.47399902 145.01899719 446.75799561
181.80101013 142.38099670 445.22698975
115.31999969 70.88600159 470.32800293
83.86699677 120.30799866 435.83499146
127.19899750 120.40399933 509.57400513
106.43900299 187.03700256 513.69604492
106.69300079 170.30000305 532.63000488
205.47599792 190.81799316 542.35205078
82.16699982 89.92400360 464.29898071
151.46499634 86.26699829 447.96697998
104.62799835 156.79701233 553.38903809
203.82400513 199.72898865 508.63998413
168.27799988 199.47000122 505.11495972
191.52799988 146.88099670 444.46899414
149.59800720 153.27799988 426.07800293
101.33499908 182.35499573 542.56304932
155.71400452 198.15998840 496.23400879
162.92401123 124.18899536 466.94201660
228.07499695 172.68000793 484.01400757
143.59800720 197.75498962 488.00598145
135.64999390 126.31400299 423.71301270
85.50099945 101.02899933 521.31201172
114.77700043 73.85700226 452.20300293
92.61499786 80.38500214 460.89599609
159.61700439 199.70298767 513.24395752
136.73100281 153.72799683 525.37200928
145.10699463 164.83799744 426.20001221
92.48300171 110.33900452 525.11297607
162.07000732 182.76699829 540.69604492
164.53300476 118.61299896 444.14498901
181.95500183 133.22499084 450.26498413
102.83200073 105.06299591 511.44897461
202.00300598 198.09300232 484.47900391
155.46600342 189.00300598 543.01397705
156.55999756 184.63699341 438.60400391
202.46299744 193.57200623 458.45498657
167.61100769 193.59300232 458.62399292
144.16099548 180.13499451 521.86297607
143.96199036 107.69899750 430.90298462
96.80300140 121.58399963 529.65405273
187.67399597 153.88299561 441.16400146
120.47599792 156.04600525 538.10498047
160.51800537 197.19099426 471.58599854
110.93699646 120.71099854 517.23999023
110.46700287 95.31199646 433.33300781
145.96499634 137.64399719 515.56597900
101.81900024 80.65599823 493.25601196
76.20700073 137.64500427 537.88397217
233.16999817 190.11799622 521.72296143
168.50799561 179.42300415 488.51498413
73.05000305 105.97499847 488.02600098
70.34500122 109.21599579 474.88800049
105.13199615 113.43099976 514.92401123
198.24800110 179.80999756 527.49700928
75.09300232 134.97799683 531.29498291
138.34300232 74.57199860 455.29199219
191.36799622 138.98300171 452.23098755
239.38499451 191.83500671 511.28900146
96.04199982 153.53199768 562.44000244
173.94799805 172.89100647 438.68499756
76.56999969 154.34600830 476.58898926
145.91999817 88.06599426 441.79901123
231.08599854 181.98800659 503.88699341
197.30000305 190.80500793 453.03900146
149.72900391 152.12500000 500.47702026
161.13800049 141.18400574 434.87701416
234.25000000 173.57099915 478.69100952
235.79800415 181.27700806 490.27697754
86.80800629 88.28700256 488.61398315
147.63999939 187.85299683 441.11499023
137.19400024 175.54399109 430.83898926
216.31599426 197.54299927 520.74304199
77.94000244 153.17100525 510.98901367
134.57099915 75.56800079 478.05200195
103.05100250 152.57998657 427.93801880
83.94499969 102.50900269 439.21899414
83.46199799 91.95700073 449.75399780
95.21800232 83.29299927 448.91198730
226.27600098 190.35600281 529.99597168
170.21900940 174.55899048 517.04296875
108.63500214 133.60301208 423.69900513
123.35199738 152.48799133 496.28002930
137.53700256 127.34700775 510.93298340
161.98300171 128.67700195 433.94500732
75.90299988 103.03600311 452.66500854
141.23899841 151.61299133 488.64599609
82.22500610 165.35499573 491.45697021
158.74700928 140.12800598 466.62100220
181.15100098 166.53298950 438.55398560
82.65299988 110.32500458 532.72198486
139.55500793 156.47000122 423.44497681
173.90899658 199.78498840 529.00305176
221.87500000 196.32199097 534.47998047
103.16699982 110.77199554 428.05001831
84.16799927 168.11799622 469.13201904
116.01300049 105.58399963 428.03002930
127.36199951 89.76499939 436.13101196
83.07699585 165.48100281 562.67498779
102.52999878 144.79899597 556.13500977
205.32800293 164.36700439 481.14202881
72.95300293 102.04299927 478.04000854
94.65599823 175.76899719 519.88800049
217.35499573 162.91500854 480.15298462
155.16999817 194.31700134 452.31301880
105.74900055 77.36399841 456.01498413
145.79400635 145.17199707 425.96099854
148.08799744 91.84899902 482.30401611
157.66600037 142.67500305 477.06500244
242.24699402 188.02600098 484.31100464
91.49800110 173.30599976 509.50698853
179.45001221 182.47100830 535.22497559
132.38400269 195.63198853 480.89797974
195.07899475 198.51300049 484.88198853
139.94200134 98.58499908 433.52697754
241.81799316 187.42201233 475.65200806
71.06199646 132.68699646 461.06600952
170.60099792 184.46501160 446.19598389
160.73300171 131.68199158 458.13998413
71.97800446 106.05300140 464.56201172
189.78799438 197.24301147 549.12402344
206.89700317 158.19599915 469.73999023
103.14899445 163.71699524 556.67498779
139.52099609 146.57699585 494.79498291
199.85299683 172.30799866 443.80798340
176.57699585 145.77700806 468.35198975
113.47399902 191.63600159 502.12097168
81.89299774 117.77700043 544.56402588
143.91600037 160.34899902 511.95401001
147.63400269 199.43800354 473.64599609
77.02100372 143.80101013 539.41601562
92.10299683 129.34100342 552.40600586
70.16400146 133.86500549 468.35900879
170.97599792 196.31298828 480.90499878
112.93299866 169.44099426 526.19396973
139.76199341 85.24099731 485.96002197
212.49101257 196.34500122 540.30499268
120.39499664 111.43199921 503.22698975
94.94000244 140.88200378 561.95996094
189.41600037 176.04499817 518.55395508
157.02200317 91.69599915 449.69601440
117.24500275 193.47700500 512.68798828
226.03100586 188.68798828 464.48199463
203.16799927 196.04699707 547.52301025
234.87199402 158.47801208 450.60797119
180.85800171 200.58299255 518.35400391
93.47399902 178.16500854 466.71301270
143.19999695 79.96899414 477.75799561
109.11700439 161.72898865 541.99700928
169.68699646 197.45401001 544.07397461
93.44100189 159.12200928 436.15798950
95.02299500 99.62999725 517.83801270
130.49499512 137.91799927 421.23800659
99.85399628 181.11700439 535.98303223
184.62699890 165.39399719 495.48797607
175.19099426 171.10400391 509.45700073
145.65399170 159.97200012 489.15899658
222.06999207 156.60800171 446.65200806
219.15400696 196.59100342 493.36499023
166.39999390 124.28399658 440.22698975
89.68599701 161.64498901 571.57202148
100.72299957 119.81599426 524.39599609
157.14199829 132.08399963 475.47799683
165.58000183 113.48000336 455.18402100
89.99900055 162.98599243 442.31701660
131.71499634 118.94100189 504.97900391
168.81599426 199.95300293 518.80700684
136.64500427 190.13800049 533.44396973
158.42799377 110.45500183 476.74700928
210.21301270 186.95500183 452.37200928
103.73799896 186.82398987 486.44598389
137.64199829 148.59700012 501.05603027
75.99599457 112.56299591 445.33999634
225.21400452 163.35000610 476.19198608
122.24900055 113.01699829 426.28698730
234.50599670 188.27000427 468.26800537
137.38400269 181.31600952 434.17599487
211.44500732 170.40299988 448.69500732
129.77699280 149.14799500 496.28799438
107.28800201 188.45899963 528.70800781
97.23400116 111.79399872 521.00500488
118.97100067 165.65699768 520.14001465
152.75700378 188.61801147 531.56695557
113.68199921 71.25999451 462.50997925
112.68500519 191.01400757 478.71899414
97.04399872 179.72000122 515.04498291
243.63499451 181.57699585 465.80200195
196.90400696 148.33200073 455.27999878
149.93800354 166.77099609 487.48001099
78.24099731 154.55999756 558.15295410
78.47800446 93.95600128 457.84899902
187.76699829 172.45899963 508.29501343
150.25498962 168.85299683 515.65600586
71.60700226 142.76499939 477.97500610
70.82700348 120.60300446 464.86398315
115.62400055 137.42199707 545.07800293
116.87500000 121.00599670 513.86895752
236.42399597 184.81600952 500.89199829
181.25100708 200.21000671 503.35000610
124.34600067 196.82099915 534.60302734
163.01300049 106.95500183 464.40600586
256.19500732 175.66700745 470.13000488
133.02700806 148.68499756 531.67596436
114.13100433 132.50700378 538.08599854
79.78200531 140.17500305 442.14697266
130.04000854 139.31399536 534.89202881
116.07900238 82.39600372 442.27902222
108.80200195 188.45201111 499.34802246
161.59098816 150.65299988 488.39300537
183.98699951 198.99000549 491.61801147
142.19599915 109.34200287 491.27200317
74.28699493 143.27999878 564.23699951
156.76000977 95.44000244 472.63601685
127.59399414 158.85800171 424.23098755
76.97399902 133.26100159 567.49395752
138.66400146 174.26300049 523.10302734
77.99299622 156.11100769 499.39599609
157.59100342 180.46200562 519.29895020
89.24700165 166.61499023 447.37899780
202.47698975 185.31500244 448.93301392
144.38499451 192.88699341 524.13897705
179.42300415 177.15299988 521.64001465
215.59399414 187.32299805 534.70300293
199.56399536 156.83200073 443.47799683
141.99200439 145.36898804 523.98095703
113.93799591 190.86900330 471.03500366
90.76499939 173.04399109 539.52301025
69.38500214 121.60500336 478.18600464
142.49099731 197.93200684 481.61502075
118.50400543 116.59199524 423.44400024
247.24900818 184.98599243 473.54501343
158.94799805 176.65199280 513.58697510
180.40800476 196.85499573 481.80401611
193.34100342 200.48199463 521.26000977
136.88800049 186.38999939 439.55599976
173.79798889 160.05200195 499.52200317
224.90400696 176.69500732 495.41198730
84.03699493 91.34499359 493.37899780
102.18399811 135.58599854 552.80401611
136.42401123 189.94100952 445.14901733
152.85800171 147.68199158 506.52200317
140.17900085 119.37599945 499.86700439
177.19300842 155.83898926 490.35598755
125.67600250 171.96600342 522.84698486
126.80899811 159.61000061 526.27099609
224.80900574 161.75700378 449.17199707
117.74100494 125.11900330 423.46200562
133.50000000 176.16300964 527.04602051
83.20999908 160.22700500 573.19299316
168.79100037 155.95098877 433.16299438
206.21000671 166.25801086 445.91000366
223.18899536 179.04501343 508.33898926
150.41099548 151.14698792 492.92498779
178.58499146 144.13101196 463.10601807
110.22499847 150.82299805 424.20898438
110.54299927 115.90699768 425.53100586
144.31199646 173.95300293 428.60900879
209.64300537 154.35699463 458.70001221
214.71099854 154.05799866 461.66000366
160.06100464 94.57199860 461.89099121
150.30500793 196.88700867 538.66705322
163.73098755 146.32800293 446.17700195
77.48900604 102.43199921 447.15899658
157.21000671 149.54400635 427.94400024
131.19099426 198.80299377 515.50500488
164.73100281 130.69400024 443.43099976
126.09800720 178.00999451 434.76000977
120.21200562 188.33500671 451.86999512
75.09899902 151.87199402 494.30099487
177.58500671 158.81399536 436.17300415
92.13600159 173.44898987 530.69799805
234.05999756 193.82398987 512.62097168
151.08000183 141.16799927 503.09902954
103.30999756 184.45899963 549.47100830
153.42399597 165.42300415 481.17700195
148.97799683 125.53599548 499.02001953
113.24199677 192.79399109 492.00100708
130.79499817 155.11099243 501.40100098
108.68000031 182.06399536 547.97698975
111.62699890 190.06599426 546.40100098
160.82899475 196.25799561 460.63299561
163.68199158 170.43901062 433.30499268
77.47899628 122.39799500 524.13201904
119.60600281 87.12599945 437.22299194
79.79799652 161.34100342 488.24700928
79.26700592 119.45399475 552.33898926
103.48799896 131.21600342 423.48599243
204.05200195 170.72999573 495.32000732
78.49700165 120.68799591 441.33499146
163.66600037 179.01000977 493.75097656
190.45199585 178.21499634 530.84997559
72.08900452 116.46799469 505.25997925
149.27899170 109.01100159 433.63897705
106.39099884 75.26300049 483.22799683
140.61700439 184.49800110 526.19805908
79.53599548 160.68099976 565.77801514
227.00199890 195.53199768 498.40899658
179.40600586 194.20999146 464.76699829
197.32600403 200.43499756 515.97296143
219.09199524 170.20899963 451.32601929
234.77398682 153.99398804 457.83697510
181.21301270 198.00299072 545.48797607
182.14799500 134.87500000 444.63299561
230.56100464 195.13499451 502.96997070
189.08599854 200.50099182 511.39199829
92.45400238 87.20500183 500.38998413
151.90600586 160.30000305 426.21401978
165.20799255 148.10800171 476.86599731
157.94200134 121.80999756 481.11700439
126.25400543 186.22698975 537.48297119
101.47000122 186.10400391 473.19201660
251.50299072 167.46299744 458.85101318
212.56799316 196.70599365 478.70001221
230.77799988 179.39900208 491.87402344
143.29299927 195.31599426 512.16503906
191.41299438 150.38299561 474.87899780
154.92500305 152.56900024 497.89801025
149.41300964 87.47100067 478.38000488
234.52099609 166.92300415 472.60498047
158.41000366 182.65899658 530.94396973
224.79100037 167.23500061 480.68197632
116.95200348 74.71800232 489.64102173
70.21900177 123.54399872 498.09100342
70.92800140 139.15400696 488.71298218
132.36500549 199.55700684 536.07397461
181.79299927 145.94699097 478.89398193
133.25900269 158.24400330 524.41198730
122.81400299 107.34000397 426.76898193
105.16699982 158.87400818 429.29397583
173.16200256 199.18901062 499.48498535
114.39099884 88.39099884 498.83300781
134.39300537 129.03100586 515.65301514
108.63600159 131.64100647 538.34405518
138.37500000 90.75000000 436.28601074
165.54699707 145.84100342 466.60501099
188.42401123 142.30599976 444.08300781
146.67199707 146.69198608 518.58599854
167.80699158 177.68701172 526.97302246
135.38500977 199.74899292 529.93395996
142.46000671 136.04499817 519.51995850
182.70899963 142.37300110 472.73001099
208.13900757 180.36199951 521.31201172
84.17700195 164.36099243 457.56500244
217.38800049 148.78399658 452.25399780
79.72600555 154.62500000 543.42504883
197.12300110 176.38499451 512.22497559
215.93099976 178.77200317 512.92596436
225.12300110 150.06401062 457.82400513
78.01300049 125.28200531 561.48101807
169.63800049 167.68200684 434.31198120
76.01200104 103.72499847 501.87600708
159.35699463 173.32299805 483.91198730
160.96000671 147.52499390 436.13101196
81.76799774 148.53100586 573.68896484
121.24100494 178.16600037 532.84503174
148.38198853 193.85600281 515.22198486
128.45700073 187.68400574 445.57397461
198.52000427 157.90299988 471.17498779
80.34700012 92.15000153 469.80999756
76.44300079 107.70100403 513.26300049
200.02500916 165.41999817 486.30099487
124.91400146 110.57800293 499.86099243
97.83399963 181.91200256 482.50897217
92.10699463 176.72200012 472.83499146
93.56299591 100.52600098 433.90899658
119.78700256 146.32398987 421.63000488
136.98899841 198.13400269 491.43698120
84.38999939 164.99800110 546.20397949
80.28900146 159.73399353 462.02001953
145.74400330 132.69400024 506.86001587
73.09400177 125.58699799 452.69799805
78.95600128 131.64199829 441.64498901
88.17499542 170.77000427 503.17001343
177.66900635 192.45600891 551.67297363
85.91600037 132.14799500 433.75201416
226.12799072 184.68099976 460.78698730
165.86799622 173.74000549 512.82299805
75.43199921 128.40600586 557.51800537
152.19700623 155.70500183 489.34399414
144.12899780 161.23899841 494.96398926
149.20201111 191.63900757 521.93499756
73.59799957 140.87001038 510.97000122
140.04100037 195.76699829 530.74902344
107.85300446 141.81700134 423.64697266
160.01200867 113.35500336 472.43301392
150.14399719 181.81900024 516.43701172
131.73899841 114.14099884 426.09799194
155.15400696 125.58899689 490.36099243
160.72100830 175.36300659 434.21200562
72.00399780 121.81500244 512.16601562
166.57798767 185.05099487 548.20104980
189.05400085 188.80599976 541.80999756
109.28999329 189.20600891 517.76098633
213.94400024 197.56999207 525.61096191
110.16400146 180.13699341 541.97302246
185.78700256 177.54800415 443.87899780
137.52500916 149.31300354 423.59997559
169.35600281 177.56100464 494.35299683
138.88099670 198.65599060 464.72000122
243.97399902 159.77799988 453.60501099
108.69100189 101.02400208 429.93701172
168.36999512 163.70700073 498.63101196
104.52600098 184.16200256 556.69598389
193.84600830 171.42199707 503.35198975
214.79399109 173.65998840 496.89498901
122.71600342 154.39399719 503.62902832
120.61999512 185.12899780 541.27899170
223.16700745 183.37799072 520.37103271
249.38600159 180.76998901 478.61401367
87.55500031 138.75700378 433.51300049
107.38700104 78.81400299 494.45700073
103.42900085 97.32199860 508.59100342
88.31600189 167.61300659 519.44799805
72.55300140 116.01900482 455.40499878
92.73100281 154.65899658 566.53100586
87.50199890 90.70899963 502.48400879
87.47900391 109.98799896 434.39099121
105.96899414 184.16300964 452.44400024
174.16499329 194.68901062 468.60400391
116.48199463 155.21200562 542.77996826
120.28900146 106.73799896 499.58999634
149.30999756 80.14199829 470.42300415
72.46199799 131.36399841 515.61602783
171.38500977 198.49301147 539.11199951
153.44000244 135.73298645 492.18600464
153.54399109 100.05299377 482.43399048
206.80900574 187.32200623 538.39801025
111.50599670 90.80699921 435.99200439
95.32800293 178.63499451 502.46697998
70.96499634 125.23600769 460.35598755
116.39499664 76.63899994 447.95501709
90.13299561 105.35400391 528.18298340
144.77500916 155.39700317 500.21301270
102.39099884 150.20300293 555.73999023
73.47799683 134.53100586 452.51101685
81.46399689 163.59600830 468.36502075
92.11900330 154.09600830 434.64401245
97.46699524 80.16699982 452.68197632
190.03300476 199.24501038 490.08798218
153.12100220 184.64300537 521.79803467
108.43099976 111.04500580 425.93600464
120.52799988 119.32700348 510.33300781
141.58000183 124.80100250 426.14099121
109.66999817 138.26100159 550.14904785
163.93299866 197.23098755 490.90600586
221.41200256 170.59100342 488.78698730
92.59100342 124.24399567 542.84399414
220.38200378 185.92199707 458.64498901
213.58399963 181.57499695 452.07699585
131.21299744 198.22000122 523.81500244
73.22800446 119.39600372 517.03503418
197.66398621 199.62200928 526.70599365
79.67700195 101.72999573 510.69403076
148.03900146 178.21299744 431.86502075
202.53900146 196.94299316 474.76501465
128.80801392 197.21099854 544.13598633
113.54699707 161.37300110 532.69897461
102.54399872 86.83600616 441.19900513
137.48200989 192.79199219 450.35897827
133.80599976 196.66600037 462.32797241
219.88500977 189.80300903 537.44000244
149.18600464 196.46400452 497.18002319
91.98200226 128.63999939 428.88800049
196.15299988 190.38900757 542.60498047
149.37199402 161.01499939 505.14297485
121.57299805 127.05599976 520.26800537
84.99299622 145.90499878 438.73300171
125.27200317 76.11000061 487.55099487
141.51098633 118.41099548 428.33300781
161.16699219 139.92900085 442.96301270
157.63400269 195.61900330 548.84600830
155.48400879 140.44999695 481.28799438
197.31100464 184.61000061 535.78900146
102.71599579 177.60899353 558.12701416
229.65200806 194.98098755 493.36599731
72.26800537 145.99198914 487.94799805
210.15800476 177.28999329 448.81399536
164.72401428 128.99600220 448.38500977
194.20999146 160.75900269 440.93499756
109.21200562 75.80299377 452.41699219
98.20300293 163.56900024 436.06399536
108.70099640 73.76499939 462.87600708
230.10900879 179.64700317 458.83898926
168.27600098 153.96499634 489.67401123
97.16600037 78.12300110 481.79501343
123.98600006 135.41799927 421.13598633
131.62001038 144.70399475 423.04000854
111.95700073 180.84700012 443.24697876
157.91900635 167.94400024 501.03997803
138.52400208 90.76700592 486.04101562
94.37100220 165.11100769 570.27398682
112.53500366 151.61601257 548.79302979
236.43699646 188.09700012 514.10198975
111.39199829 104.73500061 504.64700317
223.49899292 157.86099243 470.19601440
182.52999878 153.23999023 441.52999878
108.23600006 158.36599731 548.93896484
73.68499756 145.60798645 503.04199219
85.57199860 115.06900024 540.66094971
97.46299744 180.43600464 457.30200195
97.64800262 180.19700623 560.15002441
74.82399750 137.44099426 550.88104248
196.74800110 159.40699768 476.04501343
80.06399536 157.78500366 554.53198242
165.45899963 196.67700195 478.41598511
146.69898987 127.16500092 426.81399536
173.04199219 160.32899475 434.23501587
229.18699646 163.09100342 451.56698608
90.23600006 93.66100311 511.60400391
117.10099792 72.48000336 481.49801636
95.79299927 88.75199890 506.91799927
202.28500366 199.06300354 495.91000366
252.73200989 177.33299255 473.56500244
73.49600220 110.95400238 508.13299561
74.95500183 130.02899170 532.71899414
149.29998779 197.77000427 524.90301514
193.18600464 192.79000854 457.62500000
116.54599762 135.16299438 421.17700195
89.62299347 174.86199951 477.05099487
242.87599182 186.41400146 494.11999512
151.30599976 198.59899902 519.57897949
158.41400146 163.82099915 495.94198608
74.14100647 102.50000000 483.54400635
180.04399109 173.87600708 512.30499268
119.94899750 160.73800659 526.75299072
145.65299988 155.35800171 505.75201416
211.23599243 195.58300781 469.25000000
186.22900391 153.42900085 483.89102173
159.42999268 186.90000916 442.19400024
108.27300262 169.69000244 434.55999756
74.24700165 135.93600464 564.08300781
104.84600067 128.41700745 535.18200684
207.11299133 182.71299744 530.87902832
97.76399994 159.49699402 562.29504395
141.65200806 112.63100433 428.35299683
166.62300110 146.01499939 460.85400391
76.92299652 143.58399963 545.00994873
140.35501099 133.96499634 423.38497925
86.68400574 166.46000671 524.65600586
196.10899353 177.65599060 522.13696289
142.76699829 199.12199402 522.51397705
189.26399231 159.51399231 440.75900269
123.14599609 70.64899445 475.75900269
83.81400299 164.13999939 506.03997803
86.80100250 169.53199768 552.10205078
76.86299896 146.13099670 529.32397461
172.86199951 182.29299927 537.57000732
74.11000061 133.50700378 558.79901123
175.90499878 197.08799744 547.52496338
182.77600098 198.82899475 540.67700195
151.24798584 196.07099915 505.66601562
125.51699829 147.82199097 423.77999878
150.04600525 95.04100037 440.28500366
231.62899780 194.22499084 528.24499512
219.91600037 195.85600281 480.13497925
88.50699615 150.35099792 568.86199951
92.73300171 174.12799072 569.08801270
80.27999878 156.50799561 524.52398682
210.48899841 179.03199768 516.39196777
95.28599548 176.84001160 532.76300049
216.28999329 197.46099854 503.89999390
110.84199524 187.02299500 454.60198975
223.84999084 191.50700378 534.79101562
91.27099609 89.63500214 443.83801270
157.00599670 121.42700195 434.17901611
124.31999969 164.70498657 516.81298828
191.72799683 194.90299988 462.80999756
85.91000366 150.73500061 439.90600586
124.50299835 193.82699585 477.86901855
151.01901245 101.93299866 486.63198853
228.81199646 147.30999756 452.74099731
107.77000427 145.86700439 553.17401123
104.12899780 186.37300110 523.90405273
97.49800110 179.84100342 544.65600586
237.33999634 184.86698914 465.85900879
91.76900482 177.03199768 484.64001465
204.17498779 154.52699280 446.15600586
92.70800018 175.50698853 558.48901367
185.94299316 139.39100647 464.95300293
159.80101013 130.47500610 467.04998779
162.31800842 104.79499817 448.14599609
239.89900208 168.20600891 469.81497192
124.38099670 91.75699615 492.96200562
131.25898743 167.58898926 519.07202148
122.97499847 194.69299316 465.31500244
121.90399933 183.49400330 442.60400391
68.97499847 120.51399994 483.08102417
85.79399872 168.81999207 569.23095703
157.61299133 166.95199585 478.79898071
135.07499695 142.68000793 531.71997070
69.03400421 125.22499084 487.10299683
119.93399811 193.13900757 488.52899170
149.08599854 140.36500549 512.01098633
247.14500427 183.29901123 484.84600830
171.61099243 174.70599365 490.92401123
115.52899933 190.96299744 460.20800781
152.82798767 143.05200195 496.34500122
146.71899414 99.58399963 487.98400879
154.42199707 197.91600037 480.05599976
158.86900330 90.04399872 460.15997314
127.65100861 129.42900085 521.99401855
93.02700043 94.58900452 437.83798218
182.23400879 200.66999817 523.14697266
87.55000305 86.40000153 453.28399658
98.23200226 101.52600098 431.26498413
99.00999451 181.86099243 548.98297119
247.79699707 179.01499939 464.83999634
143.83299255 193.81900024 506.97796631
133.94999695 156.03399658 495.37899780
116.88199615 77.61199951 493.73098755
102.38500214 184.20100403 491.61599731
100.70899963 75.37200165 467.20999146
92.25199890 85.12799835 495.87802124
86.28299713 171.82699585 489.05798340
152.31100464 84.24900055 471.80398560
159.53500366 95.91799927 450.41900635
163.80900574 105.69799805 454.69799805
194.02900696 195.78500366 468.33499146
150.96800232 142.37899780 426.31500244
121.33599854 157.75799561 425.43600464
77.20999908 112.80799866 523.81903076
185.61799622 200.22399902 499.09201050
106.64199829 117.24900055 517.69799805
93.43199921 111.04599762 430.84201050
154.55200195 175.60699463 431.89401245
202.48199463 195.29199219 464.68499756
139.93600464 87.22799683 439.52301025
229.04499817 152.63999939 446.10598755
228.71600342 155.00498962 462.28201294
230.91499329 158.63400269 466.27798462
192.13000488 182.56900024 446.79901123
77.32799530 150.63800049 456.84701538
127.83500671 78.37599945 444.97299194
88.74300385 125.51300049 552.24102783
166.94999695 168.90800476 505.47998047
79.14900208 160.56600952 478.71801758
141.11999512 199.49899292 501.00100708
210.37500000 197.09300232 483.48300171
168.78700256 180.54499817 534.59399414
238.87500000 179.06600952 482.51699829
107.17599487 86.23200226 503.83300781
101.36699677 167.97000122 437.14700317
233.51499939 174.97700500 458.70501709
108.61100006 121.11199951 423.44299316
82.61600494 161.15798950 543.34802246
118.92399597 97.94999695 431.14401245
136.01499939 155.13000488 490.91699219
215.57398987 197.04000854 497.67300415
157.50700378 147.57299805 488.26501465
73.63600159 107.78199768 457.88699341
121.72900391 133.95700073 535.10797119
113.04199982 185.81298828 549.66497803
102.52600098 176.33999634 444.79800415
155.61799622 137.23400879 429.24899292
194.98300171 171.75100708 443.85098267
193.70100403 197.87500000 479.57901001
85.14600372 112.00000000 536.86395264
163.24700928 175.03599548 486.34899902
116.97100067 162.80398560 428.32699585
138.00399780 169.38400269 520.39404297
136.41198730 184.58399963 529.91101074
74.42399597 152.80200195 483.40298462
211.29800415 156.17999268 464.92901611
73.97200012 114.63599396 516.20898438
153.60499573 152.07000732 504.04501343
238.73100281 175.28599548 477.77600098
154.22799683 176.55799866 516.22802734
119.28399658 193.34500122 548.18096924
151.81500244 133.25500488 496.60900879
168.11999512 147.98699951 450.74798584
226.16200256 196.77700806 529.42095947
247.15000916 162.55599976 460.47198486
75.92500305 98.07299805 457.32501221
211.07099915 152.38499451 450.06399536
79.69100189 153.74000549 452.54098511
131.03599548 106.81800079 494.00100708
149.77999878 164.02400208 499.44201660
85.68199921 165.77499390 534.73095703
158.03199768 159.58000183 425.99600220
231.17900085 187.22500610 464.88000488
193.98799133 150.81199646 445.92498779
95.45899963 106.05099487 520.09796143
130.52900696 172.59899902 525.59899902
115.54999542 109.17499542 504.22604370
121.76000214 195.73498535 519.17602539
76.33999634 96.02200317 469.34500122
103.10199738 185.63600159 459.82098389
142.13099670 82.36800385 481.84002686
164.99499512 113.84799957 446.49499512
226.38699341 182.55099487 514.86401367
153.53900146 169.62699890 428.88098145
196.74900818 200.43200684 505.61203003
143.36199951 199.30200195 475.93701172
135.91900635 80.91699982 485.29400635
127.30699921 148.32200623 537.73999023
193.21400452 143.74700928 462.51699829
143.00500488 155.31800842 517.35699463
167.37001038 182.14599609 442.39199829
159.29199219 156.81500244 496.76000977
154.33799744 96.70600128 442.23898315
234.53199768 169.04699707 456.61602783
75.93299866 154.96900940 490.68200684
180.96600342 181.76400757 447.50900269
70.71900177 129.92700195 505.80502319
207.69299316 190.74900818 454.96697998
123.93099976 131.55000305 528.79901123
113.98900604 143.09300232 421.25299072
137.95599365 75.81699371 474.62902832
161.63400269 97.93499756 457.85998535
191.96200562 175.63200378 514.01000977
150.73899841 150.11100769 510.79498291
161.41700745 103.71199799 467.69400024
128.14900208 153.42399597 423.61001587
188.04000854 190.74598694 454.89300537
133.04299927 161.70300293 423.85101318
174.51199341 181.92599487 447.38500977
189.30799866 164.38700867 490.20498657
107.12700653 187.99301147 534.81695557
130.59599304 98.47799683 430.91400146
106.18399811 81.36799622 446.04598999
103.90299988 103.51300049 429.14700317
78.79599762 146.65600586 447.47201538
89.81400299 98.50299835 520.31097412
218.93798828 177.80200195 454.36999512
74.89099884 142.92599487 458.39599609
191.00799561 153.74499512 480.11099243
156.73098755 170.96099854 508.20303345
124.16300201 72.96399689 482.61801147
166.47599792 171.58601379 487.17199707
77.52499390 147.57299805 548.40399170
215.39500427 167.63200378 449.32299805
199.00799561 152.47599792 462.07400513
131.65399170 76.34600067 482.63201904
118.20999908 192.06700134 480.21099854
101.36300659 185.49899292 481.31900024
123.99599457 156.61199951 498.62701416
170.27600098 173.77400208 481.91198730
115.67399597 185.83500671 449.16497803
113.02999878 125.88000488 423.75000000
151.66999817 103.75399780 436.82501221
73.18499756 147.52400208 493.80300903
83.63100433 164.83599854 556.39202881
78.90599823 96.36899567 479.26101685
141.33700562 150.47200012 498.68899536
126.91700745 124.12100220 514.34899902
131.21199036 120.25599670 423.45602417
71.10199738 137.71598816 501.25497437
100.31800079 126.59400940 536.28100586
85.44599915 123.18199921 554.76098633
104.87500000 170.84999084 537.01196289
205.92098999 197.51399231 543.66101074
128.94000244 160.80999756 522.18701172
70.39699554 122.98099518 471.12399292
104.48699951 174.50599670 541.66699219
85.24300385 139.77299500 568.01599121
133.13099670 197.59899902 540.33294678
141.83599854 158.60398865 498.30599976
85.95700073 106.78599548 531.27001953
197.65800476 173.83599854 504.80001831
144.61199951 124.08300018 502.09201050
222.19799805 191.36900330 467.32397461
95.57899475 179.10900879 495.99499512
127.84199524 168.87699890 426.66500854
177.19499207 169.44499207 438.75302124
173.70399475 187.25299072 452.77099609
135.51899719 99.15900421 488.59097290
164.18400574 118.22100067 466.28698730
217.71000671 151.16600037 456.80001831
202.71800232 176.41600037 512.95001221
166.40299988 122.16900635 447.63699341
100.47299957 94.57199860 511.05099487
139.40599060 105.12699890 490.61502075
163.91900635 195.37300110 552.27398682
166.77400208 199.48500061 531.07501221
182.26300049 135.47000122 454.48898315
76.30699921 150.28700256 562.84600830
182.65501404 148.30799866 443.25100708
79.06700134 137.68400574 571.44000244
99.12500000 178.88200378 564.80004883
166.33300781 122.75000000 456.72500610
77.51899719 147.36599731 536.37805176
238.23100281 192.21701050 502.21697998
69.76300049 114.52999878 473.76199341
70.05299377 111.04500580 480.36502075
216.00900269 193.86898804 542.72802734
143.91699219 75.19300079 467.40200806
162.62200928 166.06500244 483.90701294
118.56500244 159.41299438 535.27496338
169.80099487 199.84700012 523.40100098
78.77300262 96.64700317 487.35800171
150.41600037 108.30199432 488.91299438
159.12799072 142.36900330 470.88598633
119.93499756 187.79699707 545.08001709
133.12800598 72.51899719 474.76898193
107.84600067 188.07199097 540.07000732
169.26400757 176.29000854 438.87298584
138.37500000 156.60198975 521.60504150
182.46499634 148.79399109 482.62701416
94.22399902 176.15600586 513.89904785
160.98199463 122.08000183 473.54199219
71.70500183 115.52799988 464.80499268
78.17699432 117.80599976 532.95703125
162.30599976 165.46099854 430.63900757
76.33000183 107.35099792 446.87500000
128.01100159 197.58000183 501.30599976
115.59599304 177.25900269 531.96099854
90.59799957 174.56799316 467.52200317
149.66600037 119.30799866 431.23800659
218.03199768 197.60099792 515.51000977
194.61000061 143.95600891 457.83901978
214.02500916 196.97700500 488.89199829
131.37699890 91.77300262 434.86599731
134.47799683 167.46200562 425.91900635
219.55700684 180.86000061 518.84197998
74.90699768 148.22900391 467.75000000
157.10000610 199.12899780 509.36700439
129.45599365 91.64600372 491.09500122
111.44900513 161.33999634 537.40899658
79.23600006 120.48000336 541.86395264
144.76300049 96.88800049 436.04400635
162.56700134 187.86300659 551.70098877
112.53699493 100.05900574 501.56896973
163.86898804 190.10800171 449.38098145
87.18899536 173.05200195 494.12399292
73.05700684 121.23899841 451.06597900
197.52400208 162.63400269 443.59399414
115.95000458 175.12899780 434.63198853
78.64900208 152.96000671 521.50000000
194.40600586 168.81900024 497.63699341
203.94200134 199.48800659 519.71502686
80.95200348 164.70498657 480.53698730
91.78399658 114.13300323 529.72198486
80.26999664 99.34300232 506.76000977
225.43400574 177.15199280 456.85897827
161.66499329 134.45700073 444.23300171
104.04899597 180.53401184 450.00601196
113.05599976 190.64199829 506.62799072
85.91099548 167.82400513 460.55401611
73.75099945 99.83300018 474.04699707
92.08799744 80.20800018 476.73898315
137.00898743 130.78099060 423.72097778
184.55000305 200.98799133 515.58001709
138.59799194 78.52700043 447.24301147
125.55600739 127.40099335 421.78698730
234.13699341 194.44400024 520.40795898
189.12998962 200.54000854 523.94299316
121.84300232 196.53999329 538.60400391
72.97000122 145.86700439 498.16702271
100.04399872 146.50599670 426.75000000
211.46200562 157.52600098 469.53201294
173.16200256 200.50900269 520.26202393
83.63199615 162.03900146 516.78802490
128.68499756 179.61399841 531.32403564
138.02301025 142.11199951 528.21496582
170.29499817 184.63800049 544.00799561
132.00299072 150.66300964 501.25698853
197.82299805 192.64698792 457.60000610
91.11299896 172.11399841 453.50799561
102.57299805 109.61100006 515.15197754
159.66899109 170.38800049 504.52603149
143.83399963 198.65701294 515.53601074
174.00799561 197.64199829 490.18698120
87.61100006 119.96099854 545.19396973
222.96699524 196.78599548 520.25097656
155.43299866 112.53699493 436.86801147
163.09001160 196.72499084 486.42297363
161.79100037 111.59600067 442.39999390
229.46701050 168.72500610 455.42700195
116.45500183 117.28800201 509.79000854
234.98800659 151.03900146 451.98602295
133.89100647 70.36100006 464.99301147
178.12300110 158.84300232 494.07199097
154.24600220 135.89500427 484.85501099
111.59300232 191.28300476 483.16101074
158.73899841 198.70500183 499.63198853
86.87799835 105.40599823 435.98300171
188.50999451 137.36599731 458.27902222
76.22499847 150.03999329 505.31100464
134.26499939 134.91299438 526.38397217
70.79999542 114.70700073 494.59600830
74.00400543 136.55699158 521.29498291
133.12899780 106.55599976 428.39898682
137.59899902 72.56300354 467.81201172
119.73399353 146.21099854 544.88403320
112.08999634 75.44499969 488.40798950
83.13099670 115.39400482 436.43298340
117.53700256 151.86401367 423.67999268
184.89900208 175.74299622 519.09399414
163.90299988 132.86199951 433.54400635
184.75900269 179.27900696 529.54901123
76.07500458 127.32200623 549.35400391
101.29499817 94.32200623 434.58700562
165.24299622 156.19699097 497.64697266
76.66199493 144.32400513 451.33999634
176.15899658 168.78199768 505.66500854
242.08000183 173.34700012 474.08300781
77.28499603 124.56800079 541.31298828
127.42599487 191.22099304 452.77301025
210.10301208 190.76300049 542.32299805
112.22899628 191.39100647 541.99597168
103.03700256 87.68299866 506.59500122
142.80999756 142.86700439 423.42697144
148.22000122 193.72599792 527.73999023
102.28200531 174.24899292 549.05700684
85.77399445 98.04700470 440.21200562
82.58499908 164.84199524 495.94500732
204.50698853 198.85200500 534.83801270
76.36799622 122.36700439 444.96301270
78.49299622 109.91399384 439.94201660
142.42500305 199.61399841 468.33999634
194.21400452 160.20199585 479.82202148
153.10700989 116.93499756 490.90701294
97.76799774 92.50299835 436.75900269
202.41000366 158.19300842 468.28900146
155.39999390 161.57499695 488.13000488
155.41400146 104.53599548 439.60800171
114.71199799 173.53799438 526.95898438
150.71398926 113.39499664 433.36901855
130.69699097 183.26699829 533.50195312
124.21300507 82.11400604 491.51998901
144.32499695 149.14199829 490.80700684
229.51400757 190.64999390 526.50897217
98.46899414 102.87500000 514.82897949
151.33599854 198.74200439 533.61199951
100.93999481 132.11399841 548.76800537
134.64799500 197.55400085 475.03701782
105.90799713 185.56800842 501.62600708
73.40200043 114.92900085 450.36798096
255.11000061 169.73500061 464.79998779
127.45800781 100.47899628 491.87298584
129.57000732 173.84800720 430.60101318
72.93499756 143.53099060 465.81301880
108.76799774 86.97299957 439.15798950
168.27101135 195.71598816 468.91098022
69.58799744 129.38000488 485.53198242
209.88600159 198.39399719 516.78802490
140.27400208 132.74600220 517.43499756
164.46200562 157.24000549 502.27099609
214.91900635 196.51800537 536.31903076
77.42700195 100.23199463 497.10198975
174.19099426 148.06999207 474.20901489
220.16101074 145.19599915 447.90701294
223.79699707 169.79399109 485.08599854
88.92499542 145.45199585 567.08001709
139.35198975 160.84300232 513.79296875
214.03799438 171.86500549 492.50799561
75.36499786 144.04800415 568.85601807
87.06999969 164.93199158 573.06402588
119.41400146 190.97499084 457.55401611
152.87399292 140.14300537 492.50000000
147.17898560 168.78298950 426.29199219
184.64900208 193.92199707 548.95599365
101.93499756 124.91100311 426.02398682
157.22599792 128.59199524 484.96600342
138.30999756 115.37899780 497.12100220
101.43999481 123.06399536 527.36096191
108.26300049 165.60800171 431.56701660
111.47100067 107.89699554 426.70800781
82.44300079 103.96700287 522.63500977
165.81599426 198.39500427 539.95800781
152.36799622 183.42900085 436.77600098
82.14599609 91.95099640 473.87899780
85.71700287 168.24600220 500.46997070
99.31600189 116.65900421 426.44900513
156.51998901 196.76899719 459.72299194
193.85200500 197.94799805 545.97601318
127.33399963 117.54799652 506.18899536
135.25999451 75.00600433 452.14001465
128.76699829 71.08300018 475.49200439
215.06799316 152.68400574 446.57901001
168.77900696 195.95700073 553.72998047
134.27198792 199.54100037 506.01702881
152.64900208 192.73899841 447.87899780
133.11299133 182.67700195 437.35598755
172.15899658 162.33601379 496.11398315
125.60500336 196.22399902 529.03100586
180.10998535 187.09201050 542.25000000
134.93600464 146.75299072 493.66598511
114.21699524 146.22000122 548.84399414
217.58900452 193.66799927 468.42797852
127.04400635 197.76899719 513.64898682
151.10200500 143.29600525 506.96099854
106.25000000 187.65400696 462.15100098
97.68299866 178.39799500 453.34899902
152.69200134 185.70100403 512.96899414
135.27799988 160.36300659 517.47601318
110.95099640 191.43200684 496.77600098
112.20200348 71.67399597 473.33300781
88.89400482 83.96100616 483.62899780
94.71300507 133.22099304 428.51901245
182.17599487 162.24400330 438.49899292
158.03300476 185.67100525 541.73199463
71.96199799 114.55299377 500.52798462
134.33699036 83.63000488 440.92700195
89.76699829 169.76399231 511.44998169
92.87599945 86.43999481 446.93197632
72.79699707 109.38800049 494.82901001
83.24199677 90.48899841 484.31500244
89.75099945 130.71200562 557.55999756
97.58800507 76.70700073 470.51599121
122.66799927 196.54100037 506.93399048
106.28200531 132.33700562 542.39898682
77.39300537 155.20001221 469.14199829
223.71600342 176.54000854 499.62899780
186.80499268 196.27400208 472.93798828
115.95399475 167.53999329 523.64996338
69.68199921 131.42999268 472.72302246
97.11299896 86.89100647 443.59899902
139.15699768 138.16900635 423.62698364
197.37599182 187.51199341 449.82998657
80.81199646 109.55200195 527.92700195
93.22100067 121.43799591 534.96301270
114.34799957 179.25900269 439.94500732
106.85600281 125.02899933 526.84100342
147.05300903 132.48500061 425.90200806
178.55801392 152.29899597 484.84701538
122.98200226 174.33898926 527.22100830
78.25299835 127.51799774 442.91497803
186.75900269 168.43299866 441.29101562
97.84399414 168.82400513 440.81698608
103.74200439 166.96899414 553.82196045
155.00799561 132.95399475 428.64700317
173.48399353 172.86500549 513.06701660
159.59899902 152.46400452 496.89901733
134.70300293 99.92900085 431.14099121
81.22000122 101.30699921 442.40499878
130.49400330 84.99900055 439.37298584
239.00898743 163.75700378 465.97201538
176.90299988 200.28399658 509.53900146
163.98300171 164.48399353 498.86502075
215.11000061 181.26699829 523.15496826
111.42099762 166.56700134 529.09399414
184.74499512 184.91000366 450.07299805
107.47299957 181.40699768 447.34899902
80.77000427 95.72599792 449.44400024
99.95199585 182.23999023 507.60800171
188.99699402 135.92100525 450.25000000
127.10399628 105.79100037 428.88098145
165.02000427 122.86299896 463.36999512
123.66400146 96.01000214 493.51501465
104.26600647 101.76100159 508.83401489
190.38699341 178.15600586 444.27999878
140.18299866 126.73799896 507.54101562
232.16799927 192.11801147 481.47000122
78.70899963 135.97300720 441.94799805
126.53399658 196.65899658 496.28201294
194.30899048 199.87300110 531.06201172
89.49399567 131.50799561 430.98800659
101.39199829 141.05400085 426.30801392
198.25599670 199.83999634 501.29998779
223.95800781 196.20500183 495.02999878
213.71699524 176.66999817 506.17498779
108.92400360 187.84600830 510.23800659
234.45199585 182.19799805 494.29199219
78.87500000 151.05900574 540.10803223
164.25299072 128.02999878 455.98501587
176.16200256 148.72099304 447.15600586
218.86500549 159.41500854 448.07897949
159.88099670 197.79600525 493.29501343
97.34799957 81.52400208 492.46099854
153.99000549 197.96299744 540.65802002
235.93099976 191.30499268 487.57101440
162.21398926 176.81599426 498.17800903
157.72000122 175.30900574 509.66699219
106.85300446 96.00699615 504.95498657
78.07700348 156.43798828 463.72100830
76.72899628 116.62799835 525.77398682
144.28800964 174.55999756 520.74499512
160.14898682 137.23599243 452.55999756
166.31700134 192.69000244 454.60598755
134.12300110 191.16799927 536.79199219
125.23699951 74.92599487 448.95602417
69.60300446 130.61999512 495.26101685
87.49199677 143.03100586 434.79498291
94.43800354 128.16600037 548.07104492
137.40100098 115.06099701 426.75900269
86.14800262 123.51799774 434.09100342
184.13198853 198.23298645 487.38101196
94.86500549 145.03500366 563.09497070
98.38899994 135.71299744 555.34704590
80.46600342 144.24299622 443.36300659
167.72801208 166.81199646 501.80798340
98.93299866 152.96398926 559.06298828
123.30899811 91.04499817 435.49200439
94.98600006 179.74899292 473.83200073
102.95599365 140.42300415 555.93902588
188.49900818 175.27799988 511.50100708
84.70999908 92.05800629 499.51800537
79.53599548 159.96499634 498.31301880
206.25599670 186.17300415 450.91098022
128.70199585 84.40600586 490.56100464
240.64500427 187.06900024 499.71301270
159.69400024 199.75199890 518.72601318
98.72399902 180.63999939 529.00799561
120.60900116 69.82199860 460.22601318
84.63800049 99.19100189 517.34796143
186.99101257 191.16699219 545.15899658
148.65200806 198.54600525 463.30599976
148.81100464 100.26200104 436.34997559
99.86000061 182.29701233 517.23498535
199.38999939 177.65299988 518.61700439
79.79899597 129.71400452 565.28198242
126.40699768 72.72200012 454.36297607
178.23199463 166.56300354 500.05697632
136.43600464 123.88200378 508.35900879
209.52600098 158.65600586 446.33099365
238.59899902 161.52999878 453.17797852
238.91400146 159.69400024 462.42202759
216.40800476 159.43899536 473.54901123
157.54200745 116.35700226 483.66101074
112.49200439 158.28900146 426.12100220
