ply
format ascii 1.0
element vertex 512
property float x
property float y
property float z
end_header
175.92340088 261.37548828 394.85568237
170.88795471 260.08157349 396.28875732
176.36741638 266.09652710 391.45883179
182.08506775 261.80392456 395.76617432
173.09053040 255.02667236 394.53704834
170.01683044 266.11169434 394.02725220
180.94943237 263.25057983 401.26586914
179.01235962 254.78884888 398.98437500
176.70050049 270.02059937 395.14685059
178.25985718 258.11434937 404.27606201
181.93858337 264.66290283 387.09628296
177.07022095 251.45033264 392.13595581
185.17338562 263.75173950 389.98422241
173.10749817 271.10977173 390.97338867
165.81788635 261.94052124 399.52224731
175.83020020 270.32437134 401.72143555
168.15905762 253.09854126 395.33636475
182.72425842 260.10354614 385.77056885
178.39302063 265.69558716 405.36737061
187.94021606 259.38766479 393.38256836
177.49560547 252.67478943 403.40005493
183.01219177 268.91720581 388.14773560
174.26802063 255.52528381 406.39544678
166.89151001 254.66352844 402.25451660
172.92738342 251.41954041 403.70867920
164.59738159 269.24182129 396.77108765
177.40950012 248.67567444 400.47290039
185.23995972 253.79022217 386.83642578
188.05874634 254.60780334 390.83438110
174.88085938 266.64865112 408.32989502
174.30900574 261.83190918 409.29550171
188.75729370 267.29846191 391.16983032
170.44879150 274.37350464 399.40759277
169.04455566 274.20318604 391.59454346
169.72392273 250.73773193 386.34762573
174.54742432 250.07876587 384.95193481
163.87205505 252.57748413 392.10366821
181.09201050 247.61975098 390.87078857
191.15466309 261.85974121 394.31521606
186.49302673 271.27203369 389.70001221
170.46739197 258.28002930 409.04949951
160.59124756 256.82525635 397.21014404
181.53245544 264.31079102 379.92755127
172.82197571 246.49859619 400.68875122
161.37756348 261.61492920 402.30279541
182.50500488 256.51309204 380.68115234
172.08744812 271.13043213 407.51187134
162.93511963 272.89047241 392.77343750
177.51995850 243.78562927 394.05694580
167.48139954 247.68531799 402.30307007
162.83253479 259.53543091 406.97055054
181.65011597 273.44998169 382.87860107
161.64680481 252.01550293 400.64743042
166.07426453 276.68090820 394.78839111
179.99285889 270.91329956 379.20825195
193.81356812 267.46334839 394.67160034
193.27665710 253.48500061 393.29129028
186.42163086 247.86729431 386.29595947
170.38342285 265.37081909 412.85653687
190.19885254 273.63659668 390.65853882
163.55447388 250.37852478 384.86038208
173.58058167 245.40248108 384.17602539
184.36477661 276.50421143 386.05331421
157.92776489 255.45251465 390.43225098
165.52540588 274.87945557 405.43670654
156.18179321 257.66207886 396.19720459
162.19418335 275.85931396 397.78549194
176.15638733 242.27435303 388.20788574
159.69883728 252.26423645 386.71530151
157.10006714 258.85812378 402.11999512
158.53944397 269.32806396 401.81890869
179.65634155 264.30526733 375.06365967
189.97415161 247.07122803 389.97293091
171.95878601 240.81015015 393.64306641
164.57308960 262.71234131 412.72335815
184.49699402 249.25485229 379.65408325
169.37963867 244.35542297 382.79006958
160.90046692 274.76254272 403.71194458
157.45997620 262.32827759 406.80499268
179.75227356 280.52087402 384.15383911
166.91665649 241.20529175 397.89166260
193.24980164 247.41844177 393.22756958
156.18379211 251.61433411 399.77447510
153.76615906 257.55883789 391.68511963
161.83639526 244.03848267 399.02069092
183.51455688 252.83404541 375.00277710
175.07894897 278.23889160 379.13519287
198.95713806 261.52111816 397.17294312
179.79888916 259.56668091 372.05059814
176.17091370 265.79382324 372.07406616
174.65982056 271.07852173 373.68182373
198.09475708 253.41943359 397.35577393
165.48474121 272.29470825 413.16217041
165.83683777 266.35031128 415.89630127
196.32633972 274.44082642 394.91091919
166.96434021 239.72186279 387.50650024
155.93272400 248.61218262 388.12762451
187.87152100 281.32449341 386.55480957
161.97528076 240.99818420 392.98605347
156.69024658 245.51171875 394.68374634
152.82386780 251.92930603 394.49481201
151.03916931 262.75259399 399.32641602
160.86798096 272.49618530 412.66394043
156.55276489 270.78738403 409.16653442
160.83042908 243.40911865 383.81433105
193.94380188 279.61129761 390.86251831
200.70838928 266.67202759 400.69015503
189.03160095 241.05686951 384.22210693
171.80067444 283.73693848 381.26339722
157.66984558 243.03770447 389.00598145
169.16549683 277.90493774 375.19116211
150.21961975 255.87519836 399.33843994
185.09178162 246.94039917 374.25521851
169.83444214 271.90087891 370.76596069
175.03492737 286.77648926 385.73001099
192.50103760 240.34709167 390.09036255
179.26853943 254.22096252 368.74044800
171.62417603 266.68048096 368.43661499
198.81506348 246.44761658 395.74798584
159.03277588 268.07153320 415.32971191
201.88299561 253.93598938 401.11898804
200.87083435 273.55636597 395.83502197
200.66336060 248.86482239 397.73483276
197.11087036 241.74885559 396.43087769
197.15676880 281.38238525 394.19766235
173.74475098 258.87350464 365.77221680
169.91110229 288.09848022 383.35238647
164.80079651 283.34732056 378.10186768
205.37998962 260.03997803 401.01300049
180.94569397 248.16856384 368.20965576
183.36264038 289.57476807 385.86068726
189.07388306 287.82058716 387.02218628
194.95732117 237.22346497 396.13574219
166.79292297 264.53833008 365.48571777
162.92022705 277.12191772 371.52404785
185.65496826 241.19325256 373.36630249
200.39241028 242.56657410 399.06021118
202.64999390 246.35600281 401.13500977
188.65307617 236.99610901 379.64916992
201.97201538 279.03479004 395.68920898
165.35626221 288.85354614 383.42303467
179.18420410 291.73840332 386.51327515
162.90014648 271.06585693 367.39935303
193.26870728 287.97518921 390.71701050
192.49476624 235.36518860 386.03347778
192.06176758 233.55764771 394.89086914
205.16543579 274.06088257 399.69268799
165.44201660 271.41177368 423.84262085
159.51979065 281.65621948 374.75292969
167.84744263 292.59463501 386.50024414
160.28843689 286.14764404 378.78100586
173.91677856 252.18650818 362.69854736
161.07614136 276.79281616 420.75836182
207.02398682 250.32099915 401.75302124
169.74476624 265.68234253 427.82482910
201.38426208 283.74685669 394.92041016
208.93399048 263.42498779 403.52099609
195.14199829 233.86700439 402.00399780
189.98928833 230.68551636 401.29675293
160.48645020 290.53945923 384.62518311
181.02049255 240.89755249 367.44406128
160.60980225 270.17031860 424.65075684
157.55122375 273.01882935 421.85833740
157.23937988 275.06823730 369.02239990
164.68101501 259.89715576 361.69351196
209.50299072 256.77801514 403.95901489
173.94538879 295.26361084 385.51315308
201.48800659 238.51100159 403.25299072
185.36343384 237.29711914 370.69985962
170.40730286 271.99511719 428.22875977
209.88912964 269.61557007 401.11129761
160.93022156 264.63128662 362.75466919
164.02644348 260.52340698 428.54916382
157.17420959 269.77359009 365.48986816
168.38082886 254.87471008 360.30148315
191.56455994 228.99938965 397.14471436
154.64170837 283.15081787 375.45983887
193.85235596 230.87527466 387.34933472
161.07653809 266.20281982 427.53283691
179.79687500 297.03860474 389.29147339
204.56002808 283.51879883 398.70996094
155.61228943 287.91125488 380.12548828
197.01629639 291.08273315 391.53320312
205.77799988 242.10398865 403.78399658
200.11981201 289.04785156 394.65142822
153.26477051 279.24618530 371.97933960
192.59295654 294.08456421 390.23660278
163.29949951 281.07281494 423.65045166
193.10099792 230.95401001 407.97702026
186.76515198 296.98922729 390.79608154
174.59834290 264.72378540 432.18521118
189.62821960 228.22871399 405.85855103
174.01995850 246.39662170 360.44912720
208.33297729 279.96914673 399.39337158
168.95143127 278.23361206 427.87487793
156.44313049 292.82205200 387.23129272
191.25292969 229.50639343 381.28918457
198.72100830 233.74499512 407.22097778
186.42666626 232.12101746 372.37786865
210.90635681 276.10781860 400.69418335
161.69432068 296.69033813 389.52194214
165.43307495 251.12170410 359.27587891
155.93373108 279.06225586 422.72122192
169.84683228 248.80668640 358.57589722
167.13435364 298.84027100 387.81771851
153.77642822 267.37503052 363.15756226
161.17063904 252.33972168 430.07095337
149.12330627 277.21572876 370.83276367
149.53591919 283.42242432 375.66333008
154.85150146 272.75518799 426.12802124
196.53860474 295.26016235 393.71536255
196.20500183 231.52301025 411.93801880
183.50329590 300.46304321 391.35470581
193.71818542 225.76237488 390.64691162
168.84117126 255.52377319 433.82168579
157.21897888 259.25292969 430.28308105
174.64356995 301.27398682 389.19461060
188.31114197 223.55319214 401.49041748
175.18695068 240.64842224 360.21987915
215.15699768 256.81100464 403.53500366
174.00834656 269.06228638 434.63827515
215.47200012 264.15600586 403.56500244
149.14544678 271.32946777 365.96334839
190.02699280 226.57998657 410.40997314
203.78387451 290.93490601 398.27902222
180.83876038 233.37683105 365.60128784
204.57800293 234.56600952 407.09298706
148.19487000 287.92468262 379.95275879
176.51017761 235.18685913 363.05810547
156.38468933 260.13323975 358.58541870
214.94400024 251.20401001 404.30099487
159.66407776 255.70071411 357.07571411
154.72550964 296.81744385 389.99298096
193.13453674 299.23706055 393.83810425
170.88096619 273.06195068 434.65637207
145.19802856 275.04724121 369.74908447
215.03395081 273.92016602 403.49966431
192.06379700 223.80499268 384.42465210
214.08799744 245.59100342 403.73501587
163.31484985 285.47802734 427.17871094
155.27946472 249.88435364 429.99554443
180.00396729 303.46383667 392.53317261
187.61738586 224.31904602 377.79772949
173.05902100 260.13204956 437.28839111
158.86091614 282.83102417 427.48712158
210.97399902 239.79100037 406.27499390
158.25997925 271.04556274 432.60137939
178.80154419 263.79403687 437.51696777
143.23393250 278.30044556 372.71197510
162.50975037 302.03112793 391.06155396
167.42834473 282.24795532 431.71960449
187.32385254 222.07617188 408.73748779
211.92317200 284.87423706 399.86450195
145.74647522 291.12612915 386.01800537
186.53065491 303.37670898 393.65368652
148.89849854 264.13247681 361.00048828
213.95046997 281.07336426 402.36376953
208.85339355 289.55999756 399.02822876
158.91119385 265.66299438 434.81771851
168.65547180 240.26965332 357.31207275
163.91276550 246.30606079 355.48373413
203.53500366 232.82400513 413.77700806
156.92124939 301.16973877 393.91101074
141.91656494 283.48840332 377.52447510
159.53257751 248.24903870 356.02886963
169.53552246 305.00088501 392.22103882
203.64318848 295.74771118 398.12646484
199.76867676 298.65289307 396.51623535
150.24382019 297.46575928 391.59097290
151.70530701 254.56578064 431.77313232
152.75714111 256.07650757 356.97286987
188.56982422 218.48956299 396.26870728
190.83300781 223.83700562 414.29800415
173.64898682 306.19555664 394.46768188
163.83662415 277.99737549 434.77600098
158.64540100 276.53350830 433.85897827
211.22000122 234.55398560 404.53298950
184.93714905 224.38018799 370.16442871
196.68998718 227.97299194 417.79000854
140.56646729 287.47189331 382.87649536
141.60786438 269.59457397 365.98522949
153.93859863 278.60568237 430.96298218
148.81922913 248.37957764 429.36746216
160.53865051 245.55723572 435.13015747
164.33644104 305.85818481 394.55780029
190.94714355 304.81542969 395.52359009
138.61399841 277.36059570 373.25283813
174.37327576 229.89300537 361.29876709
172.08930969 267.00100708 440.44683838
220.38800049 257.07400513 406.38101196
201.35598755 230.29200745 417.70700073
155.14910889 251.08134460 354.75735474
170.84880066 255.59124756 440.56234741
164.95147705 270.41308594 439.03872681
218.75799561 247.58599854 406.41201782
220.88600159 264.52401733 406.37200928
220.35899353 271.40701294 404.29400635
179.01089478 226.32521057 364.39733887
143.22036743 264.32354736 361.87063599
138.37196350 273.46984863 370.12368774
165.91993713 250.49626160 439.01593018
171.44816589 232.55764771 358.31158447
154.40940857 242.45127869 431.80593872
146.71052551 259.18969727 358.32998657
160.94429016 283.81665039 433.38613892
191.08438110 217.10697937 389.67227173
185.99850464 216.66709900 405.83746338
187.45314026 218.60877991 378.44128418
136.33665466 281.40725708 378.25305176
166.36430359 289.03054810 432.33419800
156.66824341 244.65734863 354.71676636
142.44099426 295.18280029 392.05572510
178.94950867 309.29214478 396.60400391
161.39866638 239.84588623 354.42510986
159.67466736 306.49832153 398.51861572
184.15393066 219.72601318 372.18228149
209.50392151 295.64602661 399.68984985
190.64337158 216.96359253 383.11355591
216.74400330 238.25000000 406.11599731
211.85700989 232.81300354 409.92599487
136.65348816 289.02923584 388.36260986
219.42741394 281.09902954 403.72058105
155.04348755 264.45236206 438.62863159
222.30400085 251.28001404 405.97000122
186.93728638 308.82257080 397.15686035
155.01278687 305.20040894 399.49877930
216.74734497 287.37478638 401.49038696
153.60012817 259.26333618 438.34259033
167.78364563 309.48428345 398.76074219
198.16352844 304.87084961 398.63659668
164.65921021 234.49185181 355.42703247
186.43099976 219.02699280 417.27200317
209.33500671 231.25801086 414.46798706
134.17077637 284.37539673 382.98403931
150.79322815 303.47442627 398.16738892
167.20487976 265.86279297 443.05065918
172.49490356 225.50291443 361.20315552
174.06968689 257.78942871 444.08969116
144.77740479 254.88728333 356.88671875
149.44132996 247.93586731 355.20697021
171.58187866 249.12646484 442.77609253
141.33226013 258.98416138 359.29739380
204.69580078 301.80105591 397.77258301
155.36065674 272.76248169 438.73275757
151.08026123 253.75988770 437.35037231
132.02700806 278.75823975 378.58914185
173.79882812 311.46334839 399.75427246
136.45570374 264.42822266 363.57818604
186.77850342 212.11364746 400.03182983
214.52194214 293.92193604 399.65768433
133.39414978 269.54345703 368.44635010
170.66835022 261.15142822 445.36639404
196.05499268 221.70500183 419.50698853
208.23840332 300.42965698 401.43917847
131.32821655 273.01602173 372.63168335
225.81700134 259.18499756 406.76501465
184.85989380 214.21107483 376.54895020
163.91403198 249.22622681 443.33352661
156.89326477 238.18670654 352.97171021
146.21752930 248.12077332 434.88800049
152.12760925 283.92214966 434.74774170
144.15243530 249.82125854 355.82769775
159.66946411 242.02886963 439.92028809
184.17355347 212.16996765 408.30718994
200.66801453 224.54499817 421.44598389
146.47924805 238.65884399 430.81591797
143.05490112 301.28720093 397.94223022
168.38943481 227.48310852 356.40127563
178.27922058 218.50950623 365.77706909
145.21333313 243.27543640 432.61035156
143.47888184 234.85382080 425.65933228
138.99888611 298.12908936 397.28561401
216.11100769 230.71701050 408.24600220
156.86495972 309.34207153 403.48620605
223.08599854 242.74499512 408.07000732
182.06298828 213.70404053 415.79434204
190.18740845 210.97186279 392.09417725
189.48042297 212.22865295 382.02087402
158.36651611 235.66677856 437.32250977
140.84091187 230.43515015 419.04180908
150.29188538 242.22021484 353.02429199
128.86282349 283.62319946 386.72372437
212.84107971 298.39147949 402.91702271
136.09613037 257.71926880 360.23196411
182.90989685 214.25389099 371.57394409
133.63185120 293.37295532 394.24899292
153.03800964 232.00459290 432.68103027
173.71360779 218.76951599 363.25241089
192.90600586 211.76435852 386.46151733
185.22116089 313.21740723 401.93185425
127.04077148 278.54248047 382.90036011
168.68814087 267.64599609 447.21914673
190.90299988 218.50399780 422.74099731
184.60899353 215.98100281 421.43801880
225.91300964 276.21701050 406.28701782
193.99038696 311.23229980 401.19058228
168.15585327 313.54861450 403.47851562
227.85099792 267.02200317 406.30902100
152.28530884 308.44726562 405.05767822
178.70353699 314.42904663 403.50540161
177.67466736 255.41520691 448.39480591
129.18566895 288.05462646 390.92929077
125.88581085 273.98129272 379.06692505
162.84280396 228.34321594 354.22589111
156.15623474 279.19140625 441.83352661
226.56599426 248.87399292 408.88299561
137.71771240 252.71856689 357.60067749
144.71391296 244.72857666 353.96685791
163.65805054 244.52348328 444.78979492
166.18103027 223.36476135 357.55023193
129.91906738 264.91870117 366.52050781
141.53868103 237.72351074 429.43145752
161.15217590 312.79415894 404.48339844
127.58916473 270.01937866 371.47598267
149.37731934 258.37139893 442.42120361
224.66500854 284.09201050 404.18600464
207.89698792 224.43998718 419.24600220
152.13076782 235.26966858 353.15634155
170.18266296 245.94245911 446.96939087
157.12812805 231.65620422 352.94915771
143.77110291 227.85810852 423.83941650
170.85101318 239.73236084 445.01312256
145.54750061 288.66195679 431.61267090
130.72232056 260.48992920 363.58996582
152.13761902 267.87167358 444.08190918
205.26164246 307.69366455 401.45373535
177.64323425 212.68258667 368.74945068
217.00399780 230.20599365 414.87301636
220.80999756 292.56201172 403.62399292
221.70999146 233.50700378 408.74099731
139.92407227 246.37637329 355.29739380
147.02226257 228.22639465 428.82788086
159.33320618 274.45745850 446.30270386
217.12142944 297.88314819 403.20611572
214.12399292 225.90499878 414.45999146
184.03599548 207.76325989 407.69949341
169.70141602 217.67506409 360.37353516
189.88966370 207.05435181 395.71099854
138.61764526 302.65069580 402.24926758
133.92065430 298.29022217 399.83657837
176.13294983 260.76605225 451.17935181
151.37573242 288.25775146 437.98980713
144.29299927 306.83486938 405.79159546
158.15443420 225.82302856 354.61712646
159.24987793 242.80310059 445.61322021
191.30603027 207.33428955 387.89288330
172.79231262 213.95265198 364.07989502
230.07699585 252.24301147 408.71398926
185.16487122 208.17134094 377.73406982
141.96987915 241.34645081 435.54370117
164.45297241 239.74234009 445.96258545
164.19265747 271.69573975 449.38235474
199.75343323 312.05551147 403.90972900
122.25296783 275.97338867 383.67819214
131.30241394 254.09411621 360.58425903
175.90118408 316.68948364 407.68878174
137.31323242 230.23829651 422.72448730
182.67465210 209.06005859 373.50454712
211.21292114 305.61270142 401.95758057
191.79972839 315.28671265 404.69598389
144.68156433 237.97251892 353.24011230
140.48045349 249.46127319 438.07537842
203.94900513 218.73699951 420.63702393
187.78031921 205.67030334 400.90090942
149.10635376 263.72973633 445.60479736
188.78700256 216.03800964 427.71701050
128.28956604 293.48815918 397.26608276
231.31900024 271.87100220 406.29602051
163.94960022 316.14025879 407.98818970
124.16771698 286.58422852 392.23376465
138.17825317 233.06765747 427.98550415
121.39476776 271.83798218 379.29898071
231.94299316 258.84500122 408.52999878
122.56822205 269.48376465 374.37484741
160.64657593 231.77410889 442.04425049
227.95399475 240.35400391 408.68099976
144.69491577 254.81161499 443.04870605
161.21287537 220.48246765 356.58340454
181.00007629 211.77960205 424.36001587
146.43266296 293.27490234 433.23352051
147.85180664 232.49586487 353.15899658
132.52311707 248.52471924 358.42904663
148.85136414 273.14849854 445.24945068
138.45745850 241.05648804 354.86499023
152.46705627 226.96868896 353.71603394
229.61700439 281.83099365 406.07299805
126.77574158 255.37619019 363.61737061
171.68579102 266.61834717 453.05828857
120.96904755 281.57586670 390.40487671
185.94131470 317.67041016 408.30328369
153.08039856 226.36810303 436.15939331
124.83112335 290.50628662 395.83786011
180.20701599 206.66931152 416.04428101
122.83290863 262.53433228 369.52017212
204.29774475 312.16635132 403.65106201
135.16311646 245.01708984 434.33615112
147.73081970 310.41702271 411.95935059
144.60107422 284.99182129 439.07824707
140.31370544 227.05557251 427.27832031
215.48300171 304.53100586 403.54699707
220.83599854 230.66900635 418.37600708
167.68455505 211.99858093 362.93240356
154.90089417 314.63198853 410.65432739
171.28794861 209.40875244 366.35803223
129.80220032 298.31478882 401.89517212
167.69491577 318.25942993 410.39532471
127.31433105 250.16697693 362.01522827
201.52500916 214.96299744 422.47998047
195.16566467 204.89364624 391.28881836
177.84475708 205.70236206 372.97634888
207.00900269 215.38999939 417.23699951
215.70800781 219.91198730 411.71801758
