ply
format ascii 1.0
element vertex 2048
property float x
property float y
property float z
end_header
255.38400269 245.98200989 415.59298706
96.58700562 135.27999878 525.18304443
179.00900269 112.02199554 396.32897949
109.92700195 248.50801086 433.25100708
179.97599792 182.59799194 477.13299561
92.06500244 151.42700195 427.24600220
111.64399719 228.78800964 527.54901123
175.35400391 203.21199036 386.84399414
185.53199768 286.04998779 439.04598999
126.84099579 83.92500305 450.57202148
82.65099335 199.06100464 473.44799805
222.08898926 188.43199158 428.79199219
133.21398926 153.08299255 380.91497803
137.94499207 138.81799316 479.11898804
142.66999817 228.82301331 477.94198608
112.40100098 206.10800171 393.39599609
138.09899902 178.79000854 519.66998291
157.83599854 253.52499390 403.12799072
192.82400513 231.39999390 448.50201416
185.66200256 149.22801208 434.70401001
123.66400146 105.00399780 401.74002075
82.36100006 144.61399841 476.70501709
96.34000397 184.55999756 545.38098145
154.04899597 199.69599915 441.04498291
98.26800537 243.73500061 484.29400635
209.06401062 256.69699097 411.18600464
106.56500244 106.01399994 489.14001465
143.98600769 269.53399658 455.91000366
160.49499512 77.64100647 418.83099365
156.01300049 116.41999817 439.84100342
176.83799744 158.75401306 392.32901001
89.84100342 199.09700012 429.95898438
255.06100464 203.60900879 407.96499634
98.36699677 113.83100128 444.58999634
84.65599823 172.30899048 507.31997681
209.22799683 216.61700439 403.93399048
228.43399048 227.72300720 435.39300537
101.82800293 170.32400513 396.83898926
187.00698853 184.46000671 418.21899414
143.43899536 187.98699951 381.10598755
89.43899536 210.08599854 506.51800537
144.07800293 224.61601257 388.46099854
153.50300598 200.95700073 497.37200928
119.68599701 156.22900391 540.20800781
167.40399170 152.52799988 463.60702515
106.25799561 136.73300171 399.97000122
91.73500061 225.65600586 454.42599487
156.24700928 163.09599304 494.18701172
128.55300903 258.39297485 487.84500122
192.95098877 197.65399170 448.98599243
82.35300446 172.98200989 450.74902344
150.07699585 125.02301025 386.58801270
127.87300110 142.90599060 511.13598633
163.71501160 242.97100830 456.70700073
234.46099854 274.18499756 419.39700317
181.89399719 233.02200317 395.77999878
158.83200073 273.89599609 427.07800293
127.83000183 243.41000366 408.03997803
125.37300873 202.15899658 535.39300537
131.19400024 112.13700104 465.41500854
135.25601196 222.30400085 508.74502563
152.29100037 96.62300110 396.80798340
182.35499573 256.37399292 435.91897583
104.24900055 225.19599915 414.71798706
180.52700806 121.19899750 424.10998535
114.54699707 259.72598267 459.77899170
130.84700012 82.04399872 421.99700928
161.82600403 203.09999084 469.09100342
237.00801086 226.15100098 408.73101807
207.86399841 282.90100098 422.90802002
79.31199646 172.24499512 478.69699097
110.72499847 248.52600098 508.42398071
131.49000549 265.10699463 430.12402344
92.18800354 126.24199677 500.03897095
158.62300110 177.61999512 455.81799316
104.54000092 116.51300049 417.14901733
93.54499817 119.38800049 470.11300659
207.54100037 167.44700623 421.51098633
90.72799683 160.57299805 530.36798096
182.80300903 259.25299072 409.56500244
86.65399933 139.58200073 449.97598267
209.30198669 249.21501160 436.28298950
188.82400513 141.73500061 409.83798218
218.07800293 206.89700317 447.34100342
107.94000244 98.00899506 464.38198853
95.82699585 207.62899780 531.59899902
148.38198853 91.86399841 437.79699707
181.74600220 172.86700439 446.05499268
172.87300110 215.46000671 448.07699585
112.80400085 96.98600006 431.36199951
229.50999451 202.35699463 409.04998779
175.97499084 97.69000244 418.17999268
148.82400513 131.69200134 457.76800537
121.59999847 126.79900360 493.62200928
231.49800110 250.44100952 426.07302856
120.47100067 179.07499695 383.81900024
92.81600189 174.94801331 418.90002441
165.77099609 179.07800293 383.67797852
126.58399200 130.98600769 388.50097656
156.88900757 147.59799194 383.52001953
90.30599976 219.74700928 482.20101929
167.30799866 267.15100098 452.24600220
85.69599915 148.77699280 506.12097168
139.23999023 248.05699158 464.41799927
120.53099823 180.39900208 542.91497803
207.48298645 194.54600525 412.21899414
174.04699707 134.13099670 392.90698242
96.50299835 194.62998962 407.90798950
169.48799133 134.40100098 442.58599854
140.38301086 200.89100647 516.28900146
241.88398743 211.27499390 425.48699951
191.72100830 234.28698730 426.53799438
88.80899811 186.86999512 523.42895508
84.86700439 201.63500977 451.29800415
208.64799500 177.29400635 442.26599121
83.97200012 192.07899475 495.13998413
97.42099762 231.40100098 504.97900391
132.14900208 206.56498718 383.35998535
109.15599823 122.10299683 513.16400146
120.86199951 226.03599548 397.22799683
201.27600098 236.38800049 405.39700317
153.32501221 224.54600525 460.11297607
190.35198975 166.53298950 407.48901367
189.91600037 214.67399597 434.25399780
94.58000183 219.60400391 432.64199829
99.45800018 244.00999451 463.26300049
180.48399353 184.40499878 398.19601440
154.74000549 207.35000610 383.04098511
117.15599823 137.08401489 528.31103516
130.42700195 240.54899597 498.42501831
138.42100525 160.86100769 509.10598755
193.27999878 203.39900208 397.35299683
163.20700073 182.57400513 495.95599365
173.28498840 192.47000122 445.65100098
101.71900177 165.12799072 548.47802734
198.49101257 268.81597900 435.51098633
111.64299774 153.98399353 389.70800781
161.33900452 234.57301331 392.39801025
94.31800079 131.67700195 431.09802246
178.92100525 274.63598633 422.13500977
256.13998413 223.44499207 414.46798706
108.91600037 202.43899536 546.93298340
98.06900024 152.86000061 408.18200684
141.47900391 259.42098999 412.48699951
147.53900146 166.62600708 381.05200195
102.30200195 145.94599915 540.74401855
222.72700500 241.09700012 411.14999390
111.03600311 260.06900024 479.29400635
169.35299683 163.30300903 479.84701538
135.71899414 90.16300201 405.01699829
81.55500031 156.60501099 460.68600464
155.12899780 213.96299744 483.30200195
244.02200317 233.62899780 426.21697998
217.32699585 264.54202271 428.41101074
138.38600159 102.50299835 449.85000610
209.66499329 223.55000305 444.88098145
169.45100403 90.77899933 402.15399170
141.47399902 150.72599792 492.65499878
81.46499634 157.96699524 490.02502441
138.99398804 210.04399109 441.66101074
189.44700623 123.70800018 407.75601196
144.26699829 242.12100220 399.19900513
100.54899597 234.74499512 441.50997925
129.21400452 164.03500366 524.93603516
138.20800781 110.61900330 392.85800171
166.52000427 196.75700378 485.13699341
129.93399048 262.82000732 470.57901001
179.98999023 170.56700134 463.68701172
151.84100342 149.31399536 475.13000488
87.70799255 167.40701294 434.64700317
162.69000244 101.69800568 429.37298584
191.75000000 185.42199707 436.08700562
197.27999878 269.72601318 414.04000854
114.31100464 120.89499664 399.91998291
183.51100159 168.88398743 425.98400879
178.91200256 192.98001099 462.41198730
119.50099945 260.33099365 442.25299072
179.44000244 155.38099670 450.05700684
129.07699585 214.72099304 523.55200195
245.39199829 260.35101318 417.33300781
105.48500061 187.53199768 394.57199097
226.74800110 258.60501099 411.26000977
150.72399902 175.68199158 506.05798340
160.81700134 110.69300079 390.93200684
168.35099792 219.11099243 386.73098755
120.57799530 110.16300201 479.86001587
180.37399292 243.14900208 447.21099854
97.02999878 220.96299744 518.48297119
122.54899597 233.98600769 515.51995850
81.72200012 186.98699951 460.39001465
114.64899445 215.11399841 537.05200195
120.87999725 94.48899841 416.44799805
228.13299561 204.52000427 434.02902222
173.45100403 229.01800537 458.05297852
170.41400146 278.68597412 438.62301636
144.44898987 272.89599609 439.48501587
126.99900818 96.06300354 462.14398193
239.61000061 242.63499451 411.02902222
216.26399231 180.16299438 414.97100830
87.19200134 212.46301270 463.84701538
95.26800537 209.01100159 417.61499023
154.70500183 256.88201904 458.88702393
208.84999084 193.50799561 451.33297729
89.52799988 128.98400879 483.89398193
113.74600220 239.25100708 415.74600220
98.99099731 133.90699768 415.38400269
175.23199463 247.70199585 399.36102295
111.41600037 94.48199463 447.53598022
92.30699921 230.88999939 470.34899902
128.80699158 124.22000122 478.49499512
216.02000427 271.89099121 413.96499634
86.83200073 133.91299438 465.33001709
135.46699524 245.02499390 481.74099731
124.53900146 253.88398743 420.66601562
150.53500366 84.02999878 407.23999023
192.50399780 219.47599792 398.45401001
197.40701294 214.03401184 449.11798096
205.14999390 183.27400208 427.47198486
107.65799713 248.70399475 449.11898804
142.30999756 138.67900085 383.60299683
87.40699768 183.07000732 431.63101196
168.43800354 265.45501709 412.60598755
141.66101074 117.23099518 454.40301514
161.93998718 185.95300293 468.69900513
145.77999878 218.37300110 495.09500122
84.80200195 153.23999023 442.50299072
108.95500183 255.41400146 494.05099487
85.71099854 207.94300842 491.52401733
135.52400208 81.97399902 437.81597900
120.39700317 194.79299927 386.46798706
185.99798584 136.69400024 425.63198853
133.28300476 190.42601013 529.24102783
160.83799744 141.02500916 455.27499390
129.10899353 267.15600586 452.16699219
145.83499146 83.25499725 425.17300415
194.23500061 248.23300171 441.25900269
157.44599915 210.88800049 454.44299316
104.07400513 212.12600708 405.43899536
162.29901123 163.44699097 383.27600098
122.14199829 163.97599792 383.35601807
185.51098633 109.26499939 410.36798096
224.80400085 216.51899719 406.67098999
148.44299316 191.11700439 508.05200195
131.48599243 139.03099060 492.77099609
90.15999603 175.38600159 533.14898682
87.61899567 192.91499329 509.64999390
189.12899780 156.11100769 418.17599487
104.08300018 110.16600037 431.26602173
85.35700226 143.04199219 492.33898926
190.27499390 246.39500427 405.73800659
148.18899536 240.02999878 455.81201172
216.08799744 236.15199280 436.83200073
243.41600037 212.98600769 408.63601685
109.73899841 115.51000214 500.12100220
169.22399902 121.04199982 433.25601196
192.25500488 194.98098755 409.67300415
98.83000183 109.83700562 460.52102661
110.56999969 187.28298950 550.80700684
124.54800415 150.56001282 527.09002686
91.11199951 125.25799561 454.66198730
106.35700226 238.19599915 517.40802002
96.49100494 114.70300293 483.73098755
192.06799316 280.22998047 422.97900391
102.15599823 234.04400635 427.31100464
138.43899536 128.46900940 467.04800415
121.64399719 84.98000336 436.54098511
243.78298950 198.84599304 415.17001343
185.36199951 269.05502319 441.56201172
146.08900452 268.80300903 422.09600830
222.13398743 280.27401733 423.65701294
199.98699951 284.11297607 434.65200806
121.57399750 255.18399048 500.44000244
136.14700317 175.87100220 380.99499512
132.43099976 234.14898682 397.43600464
161.14999390 192.28201294 381.77899170
164.42399597 124.46500397 389.30499268
129.06199646 177.17100525 531.52398682
90.45299530 136.32899475 510.67297363
165.09098816 197.35200500 455.99697876
120.10800171 131.93899536 507.09597778
186.16299438 184.05300903 453.21597290
181.27600098 145.23300171 397.41299438
102.74100494 105.28600311 475.13500977
170.98001099 253.78799438 450.90100098
84.66600037 189.00599670 445.53598022
89.25099945 215.69499207 445.22198486
120.56499481 143.23001099 386.84399414
158.47499084 275.32501221 445.60998535
115.44699860 98.04999542 475.90802002
154.42300415 263.83398438 411.59399414
221.82301331 204.92201233 420.08999634
216.82099915 173.76199341 429.34201050
130.50000000 221.08000183 388.91900635
219.31100464 192.94898987 442.58599854
97.22500610 181.21400452 405.54400635
181.83599854 205.68800354 444.94100952
114.92100525 169.18000793 548.19897461
81.78500366 177.44700623 491.01599121
91.75500488 203.54699707 518.16302490
90.25499725 220.35198975 497.71499634
80.05999756 186.00900269 475.96099854
112.65100098 108.17600250 410.23800659
171.18200684 174.79299927 488.31497192
87.81000519 155.01800537 518.44604492
169.96400452 147.74600220 388.80700684
126.61099243 117.39399719 393.26000977
93.13800049 160.96200562 417.69702148
213.75199890 228.98399353 406.54000854
183.00000000 170.42300415 394.75799561
170.49800110 183.85600281 455.57498169
181.79499817 241.79299927 433.94400024
171.26600647 84.71699524 413.96002197
87.52299500 168.86801147 520.35803223
94.08699799 147.63000488 529.74804688
172.62300110 109.56099701 425.16000366
214.92098999 204.90199280 406.21701050
162.05101013 87.90200043 426.93099976
168.25700378 203.70899963 441.05599976
152.05999756 216.46200562 470.37698364
141.52699280 210.02000427 506.94400024
174.50700378 190.13099670 386.84201050
180.23901367 215.46499634 390.86898804
157.99101257 129.48199463 446.49600220
180.43499756 96.98899841 405.88302612
92.71500397 188.05999756 418.57299805
220.72300720 192.46199036 414.92700195
95.05899811 231.97399902 489.03097534
244.25000000 248.24200439 424.27798462
102.31999969 243.57199097 499.79000854
137.60800171 230.14100647 495.31497192
97.43999481 198.19499207 542.72900391
185.31300354 160.97200012 439.99401855
81.14099884 157.35499573 475.50201416
187.35699463 154.53800964 404.20700073
79.36100006 175.03599548 464.27099609
169.96400452 101.85600281 395.80200195
153.31498718 179.89900208 381.07299805
142.90399170 234.62699890 466.62597656
184.75399780 221.59300232 443.58200073
111.36800385 170.23800659 388.46499634
203.15299988 239.34100342 442.48001099
108.52999878 128.35499573 524.14300537
103.91699982 220.37998962 533.13500977
170.78300476 194.90299988 472.34500122
221.68800354 217.87800598 439.31100464
229.09899902 263.20001221 424.31900024
153.61199951 104.17500305 437.64498901
144.17298889 200.46398926 381.08300781
131.03199768 190.34600830 381.67797852
182.56600952 124.90999603 397.44699097
147.31599426 204.35699463 450.40197754
151.67999268 141.82199097 465.21197510
194.95899963 257.35501099 411.31500244
88.94900513 140.75199890 437.64599609
182.89299011 175.76699829 410.57598877
106.54000092 136.15000916 534.37603760
179.56900024 138.81399536 436.80099487
115.70700073 89.69799805 459.91702271
184.00999451 195.88301086 394.78701782
97.76499939 126.26500702 514.50799561
104.77600098 253.35699463 469.00900269
201.88299561 187.37699890 442.98498535
171.05899048 144.81599426 449.88800049
102.76000214 157.52400208 397.98400879
156.26600647 220.19400024 386.70599365
110.11299896 222.59199524 404.36801147
105.43399811 127.09799194 407.27499390
103.73699951 176.76100159 551.18402100
238.76499939 223.17599487 429.34298706
93.81300354 125.38600159 441.38900757
159.21199036 157.60800171 483.00997925
160.19200134 136.24800110 385.80999756
122.76799774 211.88700867 389.23199463
174.23599243 262.79299927 443.48202515
98.92299652 237.59199524 453.02398682
116.07699585 145.13101196 537.60601807
103.61800385 102.49199677 451.74301147
164.05999756 221.25900269 456.04898071
117.94299316 195.33300781 543.71600342
229.20500183 239.81698608 430.98001099
251.41700745 209.94299316 417.36401367
247.52799988 233.79200745 411.16397095
122.06999969 224.72299194 523.61798096
130.85800171 154.48600769 515.61102295
143.47801208 211.97700500 383.61999512
104.45400238 198.10600281 399.94900513
116.24099731 115.44499969 490.31002808
220.86300659 249.93800354 431.08099365
103.25500488 211.94100952 541.27398682
99.76399994 122.29800415 426.60598755
136.27900696 124.38899994 388.52798462
118.95999908 258.06201172 430.07699585
97.08700562 165.29699707 407.56402588
191.45899963 227.77900696 436.26699829
196.53199768 190.17599487 421.86901855
177.00000000 171.03100586 475.59197998
92.36499786 193.65000916 532.23400879
169.64199829 257.23599243 404.41500854
202.86099243 203.72200012 406.69900513
144.57200623 150.46099854 381.26699829
141.91299438 259.29702759 461.08401489
172.31999207 170.43299866 387.93200684
133.87599182 100.27399445 398.80999756
97.76099396 116.01100159 495.20999146
172.94999695 186.58099365 485.45300293
108.99599457 153.30999756 546.66296387
207.52499390 260.28799438 433.48101807
121.77600098 264.73599243 481.00799561
105.54700470 103.36799622 440.43298340
205.51300049 204.38699341 452.94100952
111.01899719 104.27200317 420.92199707
95.74099731 158.83799744 540.54803467
210.57299805 242.22099304 408.70700073
121.61399841 245.09100342 507.68399048
147.66099548 110.82399750 445.30401611
183.88499451 182.65100098 464.31198120
226.08500671 230.22698975 410.60998535
192.92700195 259.70001221 439.44497681
149.99899292 114.20999908 391.09600830
141.78800964 81.59899902 414.67999268
248.00199890 223.09799194 422.38699341
138.06800842 90.32499695 445.08099365
134.44801331 149.98400879 505.31201172
130.08500671 233.18499756 506.96301270
191.78601074 230.55400085 400.48797607
94.74299622 141.57701111 422.57800293
156.36199951 267.89401245 457.49499512
149.65100098 233.18000793 393.00097656
84.81800079 183.27699280 504.74697876
187.66899109 158.82598877 429.30099487
185.99400330 268.84500122 415.75698853
85.73500061 208.47900391 478.54199219
122.11400604 169.88200378 539.63201904
82.56199646 197.16400146 485.34799194
148.23899841 165.28700256 502.98797607
234.20700073 201.88999939 419.91998291
84.02999878 158.87400818 501.84899902
181.90098572 230.78900146 450.17199707
188.12899780 129.13900757 417.91799927
142.91999817 250.96299744 405.60702515
96.81800079 240.71000671 473.39199829
231.32899475 215.01800537 433.84799194
119.01399994 261.93301392 491.95599365
236.67399597 253.17799377 411.78500366
116.32399750 129.73100281 393.74301147
209.70500183 274.25701904 429.39099121
156.05799866 190.63999939 499.86401367
254.64299011 235.78900146 419.37597656
177.79100037 129.17700195 431.00802612
161.72200012 153.38101196 472.86401367
184.26600647 177.56399536 435.44097900
149.67599487 123.19400024 449.55502319
206.39100647 169.95100403 432.01800537
186.03800964 135.08099365 401.73101807
217.75900269 181.79899597 438.51699829
201.52400208 249.32398987 408.29901123
82.21899414 162.39300537 448.63299561
96.01799774 173.13798523 544.02697754
106.00999451 146.87899780 396.32699585
174.80599976 160.32501221 464.27200317
87.79799652 199.91900635 501.46902466
117.95600128 132.92500305 518.41302490
160.29598999 232.88500977 458.15798950
118.09500122 232.99899292 404.92800903
164.44900513 243.82199097 396.84500122
132.99000549 204.87699890 525.20001221
83.36199951 145.83100891 466.10198975
126.44200134 188.74700928 537.31402588
103.68499756 252.93800354 483.97799683
158.37199402 172.75700378 499.22399902
150.03900146 154.88099670 487.85299683
142.71299744 172.44799805 512.28302002
173.25801086 228.65899658 391.45202637
114.77600098 215.96899414 396.45800781
84.41699982 202.21899414 461.86700439
137.46200562 235.50799561 485.92498779
168.74200439 271.34002686 421.39199829
179.66699219 281.97799683 429.71301270
88.17800140 206.41799927 440.26800537
131.93600464 252.71600342 413.20800781
134.51998901 165.43200684 381.09600830
191.29200745 277.09600830 438.16598511
153.48400879 157.38299561 381.51800537
115.71499634 246.88099670 422.72601318
183.47599792 186.23800659 408.47097778
119.43199921 263.29898071 470.31997681
87.09500122 179.92199707 514.43603516
140.62400818 188.73500061 517.52301025
130.40399170 142.02900696 383.47598267
162.58500671 185.58200073 448.96502686
123.15600586 152.98800659 383.72601318
89.90900421 144.88800049 517.01800537
159.20401001 205.51399231 487.87600708
83.47000122 149.01599121 453.80499268
100.18900299 141.62300110 406.81799316
163.43299866 111.31700134 433.07000732
189.66500854 206.64500427 452.87002563
164.57200623 204.26400757 383.45199585
253.92100525 214.27500916 408.34799194
173.02900696 120.65299988 393.50302124
92.60399628 210.45899963 428.32601929
130.65499878 267.23199463 440.16400146
236.01199341 265.88500977 413.53500366
120.78800201 89.59700012 427.41000366
209.37899780 213.70199585 447.59802246
207.03999329 185.52301025 416.88299561
125.24900055 105.20500183 469.87301636
189.54100037 190.73899841 460.07400513
85.95800018 175.88999939 439.94998169
132.54701233 260.92700195 420.92901611
143.60000610 146.60101318 482.36599731
139.30400085 200.51098633 445.14099121
97.80999756 223.02299500 423.67102051
226.08900452 196.59700012 423.87597656
153.70201111 209.41700745 443.72601318
137.40100098 270.71801758 447.67098999
132.11399841 254.89801025 479.10699463
163.24099731 81.89400482 408.59698486
158.64500427 89.80000305 400.52700806
154.50399780 245.26399231 398.53997803
88.38000488 135.68598938 500.89199829
130.58399963 248.64999390 492.53399658
180.91600037 112.00899506 420.12301636
90.06800079 222.17599487 465.99200439
118.02600098 87.15000153 446.05700684
202.92599487 223.84199524 401.16998291
172.00599670 238.12199402 454.03799438
131.02400208 92.96499634 453.57000732
146.97000122 222.93399048 486.31900024
188.72700500 145.16999817 421.16799927
164.80999756 166.75500488 490.67199707
102.12500000 192.41699219 549.73699951
89.04199982 128.01800537 474.01300049
184.39599609 205.07000732 391.05499268
163.90399170 195.11799622 443.84597778
177.24198914 179.20500183 390.41201782
179.94099426 147.13400269 442.50100708
145.57099915 201.04600525 507.79199219
141.40699768 155.94198608 501.04098511
125.75900269 265.19998169 461.23599243
181.75999451 166.17199707 455.05700684
142.58000183 136.86900330 470.07699585
124.18600464 142.74501038 521.13299561
128.77799988 226.22500610 514.99401855
80.28300476 165.92199707 458.00302124
102.34600067 118.59200287 507.08801270
111.14600372 195.30200195 392.86700439
156.40299988 95.16300201 432.97100830
122.72900391 211.61698914 532.86499023
93.01800537 197.79600525 418.95999146
131.48699951 132.63299561 482.99700928
135.77899170 211.42100525 517.29199219
184.14599609 193.50599670 449.41000366
225.23400879 275.27801514 415.94201660
135.50199890 266.57501221 461.14501953
180.89898682 277.64099121 441.19000244
85.63400269 137.78399658 482.82000732
82.62200165 167.84199524 498.48800659
99.16199493 118.40200043 435.42901611
81.22000122 186.24099731 487.07299805
144.44799805 99.23200226 443.11999512
199.15199280 210.52999878 401.01699829
98.84799957 204.25100708 410.07400513
126.26999664 97.10100555 406.53900146
242.35301208 203.29501343 406.78302002
147.97698975 209.91299438 499.04699707
118.02499390 205.20100403 540.75494385
124.59899902 161.59400940 532.97698975
156.00000000 210.41500854 464.10598755
94.68699646 234.46899414 461.80999756
128.05398560 138.10099792 501.64001465
106.70000458 177.60198975 392.34500122
169.54299927 277.09201050 429.25500488
238.04100037 258.35498047 423.07400513
206.63101196 267.94400024 413.47302246
99.67400360 229.67800903 515.65997314
162.28399658 205.51800537 478.85800171
114.52500153 258.13000488 450.38800049
165.03599548 208.61401367 449.17102051
186.82800293 119.76099396 417.00500488
218.07501221 249.38101196 411.09402466
186.02200317 166.47000122 417.15301514
139.24699402 239.20599365 475.27200317
153.53700256 86.15899658 432.22497559
92.07999420 185.35800171 536.80700684
142.67599487 96.80200195 398.54199219
111.92400360 253.81100464 440.83099365
94.62200165 224.24000549 440.86599731
160.00599670 195.96501160 492.77697754
115.70999908 122.78900146 499.74099731
92.77799988 218.75299072 507.87002563
79.38499451 167.12998962 469.32699585
106.64700317 251.96298218 457.86099243
100.63400269 216.55699158 415.28100586
146.49800110 223.84899902 468.79501343
208.05799866 175.63099670 414.99600220
128.64099121 87.46500397 414.69000244
162.52999878 252.28100586 454.63299561
153.76499939 275.85000610 434.68600464
233.37599182 210.85501099 408.67901611
164.03800964 154.73300171 386.15600586
200.02600098 190.71299744 452.48800659
160.59100342 268.72302246 417.69799805
102.78499603 227.73500061 524.85699463
140.17799377 268.39599609 429.51699829
87.56300354 215.60099792 454.37500000
135.64099121 110.18499756 457.48400879
178.62200928 253.17698669 443.80599976
189.77000427 211.61399841 443.01300049
218.63398743 263.26599121 411.77099609
185.73300171 114.18000031 402.33200073
197.51800537 218.33198547 440.90899658
121.04199982 244.78900146 414.39700317
96.45600128 146.78099060 414.97201538
86.30300140 194.83799744 438.54800415
133.99699402 253.56900024 469.67199707
201.20300293 224.17700195 448.54299927
93.11599731 122.11599731 490.07202148
148.58399963 104.51900482 393.80700684
179.70399475 190.62200928 472.60498047
108.76999664 101.11399841 481.45300293
172.72500610 239.53700256 395.93801880
107.83200073 241.86601257 427.24002075
245.43899536 251.04901123 413.59002686
188.60700989 240.27200317 444.30099487
129.78700256 108.57699585 395.88998413
95.59799957 115.29399872 453.19302368
81.56199646 191.43800354 468.38000488
169.67800903 159.01699829 471.77600098
218.97499084 226.60499573 439.51300049
144.82699585 178.14500427 378.18301392
90.63199615 165.37500000 425.28997803
115.17799377 236.86000061 520.07800293
145.30900574 182.90899658 512.28204346
186.14199829 224.75700378 394.61700439
161.31600952 186.03601074 458.00598145
186.96400452 182.51199341 444.28399658
98.56600189 140.17199707 532.56396484
110.32500458 231.00000000 411.34799194
140.06799316 222.03799438 501.08300781
83.79299927 150.96099854 497.46398926
89.11499786 175.18399048 427.15200806
106.78800201 163.21699524 391.86297607
149.37500000 78.03200531 418.06997681
163.03900146 125.44700623 440.18899536
160.59100342 146.69799805 462.56100464
82.63600159 181.97900391 451.26901245
155.37998962 201.05000305 452.69900513
150.44898987 134.81700134 383.75000000
140.97200012 158.71099854 380.93099976
94.76499939 211.88000488 519.75897217
156.92498779 170.26998901 380.93701172
192.43299866 222.18798828 448.54699707
135.65499878 166.65299988 515.39801025
81.85099792 149.83000183 486.26101685
111.67000580 259.17898560 468.25799561
95.10699463 235.17700195 480.23300171
136.33898926 243.35899353 403.18899536
113.98900604 92.70700073 468.86300659
105.51599884 242.13899231 442.47698975
133.17100525 121.55599976 469.12197876
169.42599487 112.48899841 393.87597656
97.60900116 235.99800110 497.33200073
112.31599426 185.45300293 389.22598267
147.96400452 220.97000122 477.69000244
153.84199524 198.70700073 381.15798950
101.89999390 248.40599060 491.41101074
168.93899536 91.54900360 422.67700195
96.15699768 230.72599792 448.13299561
150.08700562 248.69099426 456.10800171
160.96598816 98.40899658 396.34201050
85.23899841 162.50898743 509.84597778
184.12500000 241.02301025 398.86999512
190.32199097 284.80899048 430.36300659
152.89401245 189.13699341 381.09799194
233.77400208 208.34001160 428.37399292
231.63500977 237.09001160 411.17001343
127.93099976 80.47799683 432.25399780
119.62699890 112.68299866 400.13198853
143.57798767 84.33800507 435.13400269
89.63699341 190.63700867 427.51199341
214.61399841 281.75399780 428.43099976
101.83600616 238.00300598 508.75598145
214.45399475 172.83700562 420.83801270
170.60099792 100.97999573 424.29400635
80.67300415 164.17999268 481.88800049
225.93099976 196.02499390 433.95001221
114.09100342 138.05801392 392.12799072
189.97099304 185.05500793 427.51602173
92.46800232 166.43199158 536.63702393
227.33799744 267.00698853 413.92098999
168.84001160 271.67599487 443.61697388
174.31900024 153.82299805 456.95800781
215.69299316 198.37200928 448.38198853
114.82899475 106.61800385 485.37399292
83.37500000 193.27299500 453.25299072
180.84399414 105.91300201 402.25299072
178.26400757 189.02499390 454.00000000
141.14700317 124.44499969 459.82998657
169.21000671 196.12300110 383.43499756
202.13099670 254.42498779 436.92800903
212.02799988 186.80099487 446.85000610
104.04299927 238.84199524 434.60198975
132.30499268 173.42199707 524.42596436
199.19299316 187.84500122 431.78100586
112.85000610 179.14299011 548.94500732
121.66500092 203.42500305 387.78701782
108.61100006 119.51399994 409.97201538
222.72200012 271.65798950 424.19299316
90.42900085 132.67900085 444.58197021
119.65700531 219.29701233 530.33502197
89.33100128 130.34999084 492.39999390
183.74400330 160.31900024 397.23599243
91.21300507 223.68499756 489.78298950
146.89099121 273.01998901 447.70800781
135.52600098 133.82899475 385.57199097
91.25299835 223.20399475 474.43301392
223.67700195 208.78100586 439.94000244
220.07000732 183.02999878 422.49398804
250.03498840 221.88900757 408.70401001
176.65701294 266.11999512 414.79302979
207.75500488 275.89498901 416.34301758
129.90100098 104.33799744 462.25299072
117.27099609 101.32999420 412.30599976
98.45800018 112.33899689 473.05300903
100.44400024 248.28300476 474.76101685
172.50099182 220.70799255 455.29800415
115.08999634 91.74299622 439.54598999
95.64399719 173.18501282 411.10000610
163.05899048 226.88800049 389.25201416
190.62300110 211.18600464 395.30599976
146.02699280 206.44999695 438.57897949
85.52300262 135.70100403 474.50000000
234.74000549 233.43600464 430.73400879
127.43000793 80.55199432 440.81900024
161.58700562 213.64300537 386.33901978
115.29800415 97.24199677 422.79699707
88.48300171 133.41299438 455.43399048
155.68899536 181.63200378 502.73196411
190.26599121 241.58300781 430.50799561
180.97700500 253.51199341 403.66500854
248.08000183 242.15899658 412.03497314
153.27499390 210.45201111 492.51400757
125.79700470 114.57800293 474.94000244
155.26800537 82.56000519 423.23101807
123.15399933 187.20999146 384.09201050
221.76000977 201.80200195 412.29501343
181.78300476 101.88500214 412.56698608
93.78299713 227.93299866 496.97900391
159.97799683 204.38499451 459.10501099
181.32301331 213.69400024 442.50000000
169.32000732 195.81500244 463.03900146
199.53698730 193.97399902 414.73199463
186.24700928 194.81599426 403.87402344
134.27099609 214.36900330 385.41400146
137.17498779 194.72799683 522.18902588
87.88800049 212.45199585 498.68399048
157.31700134 210.79299927 474.81900024
148.07299805 231.59100342 460.89498901
111.92599487 259.95901489 487.53698730
121.41899872 119.36100006 485.16299438
222.94400024 200.36199951 441.90298462
157.64999390 119.78199768 388.52502441
206.19900513 181.21199036 435.40701294
114.62999725 125.33999634 507.88699341
217.55899048 221.68501282 406.10198975
248.70300293 239.98699951 423.86199951
201.90599060 276.18399048 433.54400635
202.77899170 231.65400696 445.39898682
87.76000214 159.21400452 435.37500000
120.91799927 97.45500183 469.80700684
137.03698730 142.49800110 487.81100464
168.49499512 139.67399597 388.54797363
132.17199707 198.34100342 383.10800171
193.32400513 225.59500122 428.59399414
148.92100525 256.32501221 407.13998413
93.88899994 118.36399841 461.99398804
113.56999969 254.57501221 502.04403687
79.38999939 177.39500427 472.33502197
142.54499817 85.72699738 406.71099854
110.01799774 127.84799957 400.21600342
176.62001038 91.67200470 412.68200684
102.40600586 124.38700104 417.19299316
122.66799927 124.78599548 392.07501221
182.78099060 177.07499695 400.93499756
182.36500549 169.71499634 436.55401611
136.23500061 226.55500793 390.73397827
162.64100647 260.26998901 456.14401245
92.56199646 122.02099609 480.99200439
92.99100494 128.12399292 507.90298462
212.38600159 186.57598877 410.91201782
133.78300476 144.32800293 498.42001343
89.41400146 193.92900085 519.55798340
143.15499878 131.10600281 386.26400757
80.80400085 170.71600342 486.67498779
83.20300293 183.17700195 496.84399414
128.47700500 173.38800049 381.18197632
235.80999756 242.84599304 427.48400879
170.35000610 160.72900391 387.98202515
126.63600159 247.50100708 499.85501099
188.21699524 151.46499634 426.12500000
148.44000244 89.83200073 402.11297607
88.62099457 214.80099487 474.53698730
194.31300354 189.09600830 447.10202026
199.60400391 279.24499512 420.44000244
174.65199280 211.47200012 386.74398804
163.32800293 277.22399902 435.18899536
80.21400452 179.78199768 481.21398926
224.46099854 234.64601135 434.92700195
174.00900269 208.18600464 444.34197998
134.81399536 183.46800232 525.25299072
114.37900543 160.85598755 386.69601440
183.39300537 178.20100403 421.61398315
191.80099487 238.20700073 402.76599121
184.32901001 248.24200439 437.90298462
165.38999939 174.06800842 493.80599976
145.20399475 143.97700500 475.00601196
81.25700378 153.74800110 468.11999512
177.90600586 284.18402100 437.16497803
124.00800323 261.73202515 435.83700562
92.79700470 137.18099976 518.22698975
99.72100067 188.38299561 403.17999268
160.52700806 205.44999695 440.86599731
97.23699951 129.33599854 423.98199463
107.97800446 233.97499084 418.30398560
128.35299683 181.39399719 382.73699951
87.91699982 215.02999878 488.78198242
212.87699890 172.95899963 437.19299316
211.97299194 230.36999512 441.65899658
183.49400330 129.25698853 424.85101318
110.86600494 94.96100616 456.59500122
138.04400635 82.93499756 429.71600342
160.68099976 260.63201904 408.06201172
98.34799957 227.86700439 430.32699585
219.92500305 181.04598999 430.33200073
215.66400146 280.95800781 419.29098511
125.04300690 234.89999390 401.84997559
167.02699280 147.81300354 457.36502075
241.67700195 203.79899597 421.24798584
144.16900635 120.33600616 388.65798950
124.74900055 87.55899811 457.16598511
89.13200378 150.33100891 434.39901733
126.74799347 132.83500671 493.01599121
150.57400513 215.50300598 384.16900635
185.90299988 143.75099182 429.16000366
190.20600891 134.06900024 410.09301758
167.45401001 82.54799652 420.40197754
128.50199890 160.05000305 381.16000366
138.61801147 145.46998596 381.68002319
215.51199341 257.37698364 430.83700562
120.58100128 239.11199951 409.10800171
237.73400879 266.90899658 421.04101562
156.28700256 134.33499146 452.31500244
108.02999878 168.35600281 551.67004395
165.34399414 178.66600037 452.08401489
157.28799438 127.86799622 386.90298462
120.50899506 143.87899780 529.96997070
111.95700073 145.46998596 391.31701660
99.09000397 220.47399902 527.06597900
112.90200043 161.69500732 548.11901855
141.09799194 235.72500610 396.17602539
136.43400574 118.43500519 462.82299805
89.62000275 126.73300171 464.47100830
215.68099976 196.49800110 410.65100098
187.81500244 149.39401245 410.38500977
101.60200500 153.92599487 544.44598389
138.80500793 265.26800537 422.31900024
117.94699860 241.49299622 514.52899170
135.69400024 132.54299927 475.18600464
215.76699829 213.92799377 442.35000610
180.01901245 152.76400757 396.17401123
176.88700867 100.00099945 399.21701050
178.99900818 224.07899475 452.65298462
141.57000732 229.03298950 486.68600464
88.28599548 176.24301147 522.45599365
223.19799805 208.99400330 406.29501343
230.59899902 221.88200378 408.60800171
210.10899353 241.82400513 438.25399780
155.08399963 79.44799805 411.39501953
174.98699951 116.79100037 427.02999878
202.55300903 261.68600464 411.79400635
92.45500183 141.47399902 429.88000488
85.17199707 200.14799500 494.29602051
101.98400116 109.90200043 438.60699463
156.41899109 217.76998901 458.42901611
155.22499084 242.91198730 456.42001343
150.73600769 264.43698120 461.30599976
188.47100830 169.36900330 400.67300415
103.48300171 184.58500671 551.50701904
104.68299866 110.69400024 494.84500122
136.31401062 247.31600952 473.33499146
173.49400330 245.01199341 451.18298340
106.13899994 110.35399628 421.30200195
137.25698853 183.38499451 381.09201050
150.06900024 142.39700317 383.49597168
141.87901306 110.64700317 450.22198486
197.48100281 283.97900391 426.74899292
99.50699615 129.14300537 521.82800293
122.99399567 137.42199707 514.97698975
167.53100586 186.49000549 490.73602295
93.21600342 202.28900146 526.91601562
248.52499390 199.26499939 408.46401978
149.98200989 160.17199707 497.70098877
86.24800110 145.50599670 442.85198975
186.57200623 276.06201172 419.91900635
107.31499481 249.91999817 501.83898926
111.21700287 222.23899841 532.91497803
177.18901062 199.77200317 444.56402588
206.16699219 174.36500549 425.92498779
154.26600647 270.74499512 421.99298096
180.41899109 177.16200256 471.95199585
186.16400146 143.75900269 403.10202026
103.64700317 103.67600250 466.82299805
110.61499786 211.05900574 542.49499512
172.49600220 169.48899841 482.72601318
80.09500122 184.07598877 468.64102173
167.30299377 251.04299927 400.87399292
143.26399231 194.55599976 513.49200439
208.81300354 249.20800781 411.17599487
108.28099823 104.46199799 428.82901001
90.40200043 149.72500610 523.06298828
119.25599670 187.63600159 544.34002686
142.17500305 241.30599976 463.09799194
189.40299988 138.81500244 417.28698730
125.25000000 125.76800537 485.46200562
128.40800476 226.57400513 393.52301025
166.76800537 187.62600708 383.34899902
206.40599060 209.19099426 403.06698608
166.81700134 131.51899719 389.17999268
155.80200195 228.18499756 390.31698608
227.38299561 205.20700073 426.19897461
96.63599396 152.02101135 537.70898438
179.64799500 137.24299622 396.67098999
171.23699951 193.33999634 480.52401733
178.40899658 196.33599854 389.95098877
194.67100525 200.41300964 405.24798584
145.95800781 272.39700317 432.24700928
102.70100403 245.82701111 456.58999634
226.14599609 256.87597656 426.79299927
201.09300232 197.95500183 451.42901611
85.82600403 143.36199951 499.70599365
113.89499664 113.31700134 405.08801270
94.43599701 152.53199768 419.13198853
101.01000214 179.73298645 399.38500977
255.14399719 233.68800354 412.32800293
162.18901062 272.44897461 452.07501221
197.38200378 208.41899109 453.88800049
147.17001343 136.10499573 463.42901611
97.91400146 205.67399597 538.38098145
221.22799683 242.60101318 431.41897583
217.29800415 214.33700562 406.19998169
151.21600342 195.47499084 502.55398560
172.27398682 128.75500488 435.84899902
251.23999023 217.16999817 419.48501587
250.16999817 202.47801208 415.35299683
110.17099762 97.14900208 440.22698975
237.57800293 200.20199585 411.49499512
95.77799988 216.27700806 421.62500000
163.03700256 118.17900085 435.95999146
206.78900146 283.40899658 432.01397705
85.87799835 191.33399963 502.17001343
93.08099365 227.16000366 480.31500244
107.35900116 205.44999695 398.66198730
188.98999023 253.55899048 440.02398682
102.56300354 133.17201233 529.01501465
191.63200378 234.75199890 434.08398438
195.95199585 239.80299377 443.62100220
130.77899170 196.94999695 531.36401367
101.65700531 203.54899597 545.35101318
196.85800171 242.06799316 406.63201904
136.21200562 249.57499695 408.13101196
104.70899963 219.84599304 409.77902222
156.62600708 103.63200378 393.69198608
124.95300293 86.31200409 422.23699951
143.59100342 250.25299072 459.02301025
104.23400116 242.32499695 449.76800537
119.82200623 163.33000183 541.78204346
188.36100769 254.61099243 409.35900879
92.14199829 202.96701050 423.92999268
90.60800171 212.45098877 437.12899780
250.23300171 250.84201050 418.96899414
82.23100281 195.19299316 462.26800537
121.32400513 92.17599487 464.92199707
178.19699097 223.45199585 390.82901001
136.07699585 85.29399872 410.31201172
163.72599792 135.13000488 446.82800293
131.62100220 250.98699951 485.81698608
175.53399658 177.56300354 483.31201172
123.47000122 195.98100281 539.17303467
133.47900391 217.66999817 514.63995361
86.08100128 209.24299622 457.32699585
114.57900238 150.98999023 542.81903076
189.41400146 261.86697388 410.89999390
81.27899933 192.62300110 478.41598511
125.23299408 177.48100281 537.55999756
181.19900513 173.77799988 457.41299438
175.53298950 259.99099731 407.38201904
185.58099365 260.64199829 440.64901733
125.44800568 265.18099976 446.36300659
177.07099915 271.61999512 441.30300903
219.20899963 233.14500427 408.48898315
170.83399963 260.90197754 450.62802124
84.56099701 196.67098999 446.20498657
122.36800385 220.38999939 393.17599487
134.03700256 239.85600281 492.33999634
118.59799957 230.64999390 520.58795166
128.08300781 206.79100037 530.75299072
208.68800354 201.82299805 410.27200317
110.42700195 119.80999756 506.44497681
184.35099792 164.15899658 432.62197876
113.79700470 255.09300232 433.91699219
86.63400269 208.74198914 446.77902222
136.97700500 269.60000610 454.64599609
90.13000488 184.51499939 529.96997070
109.06999969 97.38800049 472.92901611
170.60099792 190.23500061 458.61499023
208.17098999 235.04998779 406.17599487
95.79499817 125.57900238 434.34701538
117.83999634 171.66200256 386.01602173
81.73000336 165.72900391 491.57800293
133.17700195 99.54100037 454.93701172
248.79699707 206.83399963 408.18899536
180.94200134 191.33599854 399.38198853
94.75000000 167.07499695 414.48599243
146.33700562 200.62699890 442.52099609
139.62799072 219.70899963 386.09201050
87.62500000 161.86499023 521.01397705
151.11000061 198.86499023 447.38098145
166.42799377 200.12500000 474.11401367
175.62500000 127.32799530 393.63400269
149.72599792 266.54199219 416.04098511
97.43399811 118.95000458 501.56097412
82.82499695 174.74398804 499.66799927
153.66299438 153.28500366 480.60400391
243.16799927 219.97599792 408.60998535
90.54299927 180.44100952 422.76498413
96.72100067 159.21301270 410.99499512
91.49199677 222.30499268 448.29400635
182.55000305 163.32200623 448.72299194
100.88200378 109.09199524 486.47799683
100.57900238 107.84299469 448.43600464
194.53201294 274.98498535 418.26998901
109.47699738 195.83299255 549.05303955
151.49200439 216.08898926 488.83798218
202.33300781 216.91400146 401.09899902
184.45500183 190.87199402 466.03201294
128.33300781 262.70199585 479.97702026
191.47300720 267.65798950 438.59298706
150.76300049 270.93301392 454.76800537
125.89199829 256.04699707 495.09399414
141.94999695 170.70999146 381.24099731
165.59199524 117.62999725 391.27297974
238.82600403 232.39299011 411.10198975
227.20300293 202.11199951 416.55001831
126.47999573 170.80599976 532.32000732
164.12199402 172.38299561 383.41900635
123.89299774 132.98300171 499.62298584
183.35899353 154.59600830 441.75601196
94.99199677 199.33999634 536.38397217
174.15000916 141.63400269 391.97000122
185.33700562 200.25399780 448.65798950
135.77699280 268.70199585 434.80798340
156.86999512 122.78900146 442.31097412
110.40499878 145.43099976 541.49298096
113.11100006 176.86499023 387.87698364
167.30299377 185.05300903 461.70602417
175.21099854 142.29100037 443.69598389
187.06799316 226.59201050 447.69097900
93.96400452 123.02099609 448.82397461
201.57800293 262.65298462 435.98101807
86.18400574 138.56300354 459.35800171
190.81401062 162.46398926 414.29202271
100.70300293 147.48199463 403.27502441
182.34400940 118.03299713 397.77999878
202.58999634 217.39399719 446.13702393
83.97699738 167.15699768 444.03298950
111.57300568 133.49899292 530.01300049
179.25199890 159.80499268 455.33599854
204.82099915 267.96099854 433.04800415
188.96099854 161.77999878 421.99700928
221.17399597 189.18800354 437.18698120
83.95600128 203.74398804 484.15698242
176.06199646 92.46200562 403.23800659
133.56399536 85.37300110 446.41598511
120.31699371 102.75399780 475.05999756
111.76999664 139.87699890 536.67199707
194.22599792 219.94699097 434.59002686
148.22399902 256.10501099 460.84799194
180.21299744 187.02000427 388.88998413
137.47000122 203.10800171 380.88500977
100.31300354 163.39599609 400.41598511
195.90798950 225.00999451 400.48797607
249.54000854 229.72300720 422.43798828
194.41999817 251.05101013 408.82098389
103.41400146 229.32000732 420.23300171
89.01599884 166.19799805 526.95697021
94.93699646 192.25099182 540.58496094
125.68299103 249.71299744 415.00399780
153.26799011 239.36698914 395.40298462
209.06500244 224.80200195 403.91299438
106.40099335 256.01397705 476.43399048
165.50999451 95.82299805 426.68701172
97.40000153 113.22700500 466.22601318
118.05400085 86.95100403 452.84201050
119.69400024 134.33999634 390.07199097
138.44599915 116.96899414 390.47302246
92.65799713 213.29499817 511.87701416
184.75500488 217.70899963 438.04202271
119.80800629 150.01000977 534.77899170
203.38999939 211.58699036 451.08898926
171.30500793 197.73100281 441.90100098
220.07598877 255.83299255 411.10101318
158.21099854 196.31799316 447.27398682
106.62899780 243.66799927 510.69497681
87.35000610 141.88699341 506.11102295
149.23001099 173.14399719 379.19900513
186.84999084 127.73099518 403.01599121
81.62199402 150.95399475 478.85900879
125.47600555 198.65899658 383.74502563
187.84700012 115.57699585 410.49099731
202.93000793 188.11799622 423.35900879
185.95899963 217.74700928 393.58599854
108.20500183 110.64600372 414.91897583
127.38800049 156.21099854 524.83496094
191.25799561 190.73199463 414.77502441
177.88299561 106.06600189 419.37701416
172.78199768 182.50199890 386.62899780
125.06699371 260.65798950 429.07800293
141.36299133 224.59700012 494.95501709
130.95100403 239.41999817 402.55297852
166.90699768 107.64600372 428.66500854
85.37699890 182.41900635 441.34799194
89.54699707 203.19400024 507.04400635
136.25900269 172.40400696 518.75299072
111.55699921 126.48500824 518.48797607
236.75300598 216.10499573 430.10299683
143.27099609 130.20298767 462.46002197
126.84899902 221.20100403 520.56597900
160.62199402 185.04899597 382.98199463
215.40499878 273.55502319 425.99899292
81.17400360 179.81100464 459.98300171
118.45800018 250.87197876 506.66897583
203.77198792 230.45399475 403.67498779
192.49400330 283.62100220 438.73400879
150.93199158 220.31800842 464.65899658
102.94999695 115.73299408 423.57400513
121.09500122 263.44998169 456.82800293
103.85400391 123.67299652 516.86102295
108.11000061 212.16400146 400.15399170
167.98800659 232.75700378 458.66998291
98.56099701 213.50399780 533.08599854
143.68798828 229.37998962 471.18099976
94.13799286 180.55699158 415.60800171
95.72599792 165.21899414 542.36999512
119.10899353 252.31298828 424.45001221
117.31600189 91.31700134 432.79000854
150.33699036 275.12899780 441.55899048
86.35199738 153.29901123 510.92098999
234.31399536 259.36599731 411.66897583
154.10200500 233.79100037 456.01599121
164.05099487 227.22700500 458.84698486
95.19799805 135.63999939 425.40100098
87.21099854 186.50099182 514.34197998
183.23699951 279.45898438 424.79397583
139.71299744 102.17700195 396.18899536
173.55200195 186.68800354 448.76400757
144.50900269 210.05799866 445.23501587
91.39800262 227.59300232 460.69400024
153.27999878 273.30200195 449.18600464
166.62500000 216.11698914 449.96398926
116.39399719 262.84500122 476.72500610
130.52999878 160.11399841 518.94799805
95.18600464 232.58699036 454.99899292
154.23400879 164.29899597 380.87399292
137.94499207 216.40699768 507.81799316
110.37300110 233.79299927 523.29302979
137.36199951 82.15499878 423.25402832
178.40899658 165.09500122 391.94400024
201.94799805 198.81401062 411.04998779
184.34600830 235.14199829 445.94799805
224.37699890 223.86099243 408.78201294
192.85899353 192.96200562 454.91098022
233.51599121 247.49800110 411.19702148
164.02099609 105.53699493 393.32199097
169.80999756 234.18000793 393.62600708
108.45500183 255.92398071 463.61398315
233.79200745 222.87200928 433.53900146
148.00000000 104.65299988 442.46798706
188.88699341 160.78401184 401.20300293
212.85800171 266.09500122 413.89901733
106.18199921 100.83799744 457.49301147
117.22899628 152.22300720 386.87500000
143.13499451 265.41299438 417.39801025
229.00801086 270.36398315 423.20498657
89.47999573 205.54701233 433.96697998
179.65699768 237.48899841 450.30902100
183.29200745 191.22200012 457.46801758
172.91600037 87.73500061 406.71600342
186.10499573 210.39601135 437.80200195
145.71600342 155.97300720 495.21099854
163.37699890 193.79800415 450.26498413
136.26000977 226.68099976 503.51696777
90.16699982 159.12400818 429.36099243
174.99400330 123.36399841 430.45602417
161.12800598 143.60900879 386.34197998
148.28099060 203.91400146 501.44000244
100.59600067 171.50000000 548.28601074
202.27299500 244.86898804 439.26300049
241.56199646 240.28700256 426.08801270
188.55799866 198.57299805 398.48001099
153.26799011 170.00100708 502.03198242
174.64500427 135.07899475 438.79101562
92.44800568 178.84400940 538.07196045
215.89599609 246.74600220 433.64099121
130.61900330 185.03500366 531.51599121
225.03599548 247.09300232 411.08599854
102.12599945 203.08099365 404.67398071
149.90200806 184.13700867 507.96502686
94.99300385 200.25900269 413.30200195
212.58500671 207.06999207 450.65701294
179.46800232 264.63699341 440.25399780
135.10900879 258.55899048 415.54199219
123.47599792 83.47299957 445.12600708
154.38101196 137.84700012 457.33599854
127.84400940 151.26199341 520.26898193
187.96899414 222.82800293 434.15298462
160.42298889 174.13101196 450.74902344
98.19300079 140.11900330 414.05001831
228.73100281 220.01899719 436.88299561
128.06700134 92.30999756 410.55300903
122.75599670 155.47299194 532.82202148
120.03900146 118.30500031 397.13000488
167.51499939 211.26799011 386.31100464
187.77301025 241.55500793 436.38101196
136.91101074 95.52200317 448.59500122
94.32200623 193.94500732 413.88800049
116.14599609 258.40600586 497.64901733
96.51800537 119.37599945 441.14398193
153.23899841 207.61399841 450.95700073
184.72200012 246.65998840 401.77301025
89.40800476 197.54800415 513.63098145
85.69400024 188.53099060 439.12899780
121.27799988 102.09300232 406.86999512
99.29399872 241.94200134 494.43600464
210.31799316 265.48199463 431.02499390
115.62799835 223.48399353 399.78601074
156.35000610 249.77200317 456.15399170
133.94898987 154.95100403 510.07998657
184.45800781 179.24700928 427.78399658
206.31399536 181.17999268 421.45098877
120.07399750 138.10899353 522.44000244
118.93299866 262.52801514 463.37701416
226.41799927 211.10501099 434.61999512
80.13800049 160.82099915 465.18499756
158.90100098 85.33000183 404.97399902
88.52600098 138.90400696 443.98800659
178.31500244 171.99899292 390.83700562
87.42299652 135.58999634 489.45098877
179.09899902 219.58799744 448.22500610
166.78999329 167.25199890 385.93399048
156.04800415 110.30899811 438.28399658
111.68099976 112.09899902 493.09899902
159.00099182 208.85800171 447.09799194
254.35900879 226.58200073 409.29699707
150.63099670 145.26599121 470.45901489
120.45700073 248.96398926 419.14300537
105.91300201 217.08099365 538.11297607
217.08200073 241.77999878 408.44699097
134.36799622 260.34500122 466.86599731
158.41500854 160.47200012 488.55297852
126.29599762 207.32099915 386.08700562
98.99300385 174.14300537 401.41000366
221.55499268 188.92001343 420.90698242
210.74501038 168.73200989 427.66400146
138.20399475 254.19598389 463.62701416
143.30700684 88.95199585 440.05297852
174.05599976 163.47399902 472.25698853
150.76499939 148.92100525 383.42800903
118.08999634 121.06200409 492.37298584
90.45600128 129.44898987 449.94299316
184.75900269 244.63499451 429.22100830
254.13400269 228.50300598 417.55999756
182.37599182 134.15699768 430.05499268
127.22100067 240.57400513 503.79501343
139.22399902 208.57598877 512.91601562
141.71600342 216.19500732 502.56799316
245.52899170 226.21199036 408.52801514
206.90699768 183.70401001 442.53399658
234.92999268 217.39299011 408.57199097
171.58000183 154.75300598 389.27600098
79.51200104 163.33999634 474.88400269
160.77000427 168.12199402 495.20999146
145.42399597 123.52899933 454.08801270
147.11799622 207.68600464 380.96200562
165.57400513 93.94100189 398.45300293
212.82800293 211.13999939 403.29299927
111.97000122 242.52799988 515.89099121
132.67199707 115.13400269 391.84298706
115.90200043 190.47500610 388.53201294
204.32400513 187.70599365 448.68298340
174.62800598 270.56301880 419.58901978
106.36100006 225.29899597 530.25000000
141.86300659 90.08599854 402.35598755
99.80500031 108.04000092 454.66900635
102.56300354 131.67900085 410.30599976
117.16699982 175.47599792 546.44104004
147.39799500 248.50199890 402.11001587
85.88700104 208.02400208 467.95700073
103.04000092 250.08401489 464.07000732
132.14099121 167.74099731 520.96099854
149.40998840 97.93200684 438.25598145
92.10799408 158.11599731 423.07000732
188.49700928 245.98400879 441.98300171
94.83000183 225.96099854 506.27297974
245.14801025 253.79100037 421.75497437
189.99800110 156.98500061 411.60000610
87.14900208 177.24398804 433.60598755
107.40700531 98.84899902 445.87500000
132.60699463 235.06599426 500.17398071
157.08999634 149.76899719 471.02999878
115.88499451 197.52000427 389.63500977
173.33699036 280.62298584 432.56301880
85.61499786 169.24400330 512.56298828
84.13899994 166.87400818 504.49301147
163.07899475 197.93299866 383.24002075
142.65600586 165.26199341 508.42297363
158.42900085 104.04699707 433.83999634
103.72799683 105.00899506 482.88500977
187.24299622 120.12599945 402.53002930
99.46499634 231.57400513 436.37100220
139.44999695 242.04798889 469.83999634
115.36599731 235.68299866 409.71899414
126.56999969 230.99600220 397.34799194
118.74199677 107.75599670 404.13900757
100.09100342 237.28199768 502.78402710
88.54100037 218.16299438 461.62701416
188.63000488 149.11900330 416.44201660
195.37100220 253.61499023 438.59698486
182.46200562 176.42599487 450.96701050
191.57299805 220.34298706 442.79000854
129.58699036 125.68700409 388.89102173
232.05400085 228.84100342 411.06997681
102.68099976 136.12699890 404.87500000
151.19000244 223.09500122 388.44601440
113.97699738 192.13600159 547.24499512
187.48199463 190.59098816 409.94302368
174.42601013 106.00399780 395.89599609
230.86799622 272.18801880 414.89999390
116.84799957 103.22800446 480.03598022
256.11401367 239.93299866 415.18099976
146.85299683 171.30699158 507.73196411
252.14099121 243.78399658 420.59500122
128.65400696 150.25700378 383.76501465
157.42300415 276.55801392 439.75601196
119.00599670 113.15100098 484.90597534
171.85899353 176.37098694 386.75698853
217.78999329 187.15800476 414.63101196
178.19799805 168.83100891 469.21701050
105.55999756 160.45999146 548.98797607
127.90000153 214.98799133 388.32299805
125.22700500 118.72100067 479.33200073
111.22299957 253.90699768 447.55798340
87.75400543 207.08799744 501.48898315
101.05100250 237.18200684 447.37698364
216.34700012 221.90199280 442.25500488
183.17100525 185.73098755 471.85900879
147.91299438 182.59500122 381.27200317
99.02799988 110.61599731 480.08499146
158.49000549 227.42399597 456.36199951
187.10600281 208.38700867 447.34500122
185.26699829 169.32800293 411.90600586
167.68600464 187.99301147 446.86401367
82.29100037 160.45600891 496.31399536
173.57798767 275.26199341 425.19097900
97.03700256 215.88200378 523.62695312
82.33399963 157.23800659 451.71801758
185.70298767 237.81298828 431.53598022
255.12001038 217.07299805 414.90499878
165.48399353 86.64800262 403.94601440
167.44300842 249.21398926 453.06799316
110.38899994 255.53799438 454.82699585
137.00599670 95.72999573 401.16000366
239.36499023 230.11900330 428.84899902
173.40600586 192.14299011 467.71801758
163.71699524 200.69099426 463.94100952
93.34600067 130.02799988 437.52301025
84.37900543 138.94300842 469.60101318
237.44499207 252.53099060 424.30697632
174.03300476 92.03600311 418.06799316
225.34599304 246.39799500 429.32199097
131.66099548 95.01899719 405.05499268
147.14700317 79.70099640 412.79299927
171.96699524 96.64700317 398.89300537
173.34599304 149.69601440 452.43399048
117.55000305 224.24200439 527.46997070
94.82499695 123.39799500 504.55899048
88.63300323 215.79598999 468.56600952
137.60598755 148.82899475 497.66702271
174.79200745 257.61602783 447.63699341
165.96899414 142.65899658 452.75302124
126.03099823 236.94898987 509.14102173
96.72599792 225.50299072 512.63397217
169.96798706 139.46501160 447.55599976
96.50699615 238.53099060 486.54699707
86.87099457 174.02200317 515.85699463
146.75700378 160.04200745 381.04299927
94.54800415 142.33799744 527.09698486
182.33599854 167.27499390 444.15100098
182.22599792 143.97799683 435.57101440
139.20399475 235.22700500 480.25799561
83.52200317 144.16598511 485.70300293
114.09799957 100.69999695 417.33102417
103.83900452 233.29000854 519.58001709
160.59201050 216.27600098 454.50402832
92.41600037 217.90699768 438.54699707
155.43000793 139.38699341 384.22399902
165.47900391 274.39300537 425.90200806
207.03500366 173.71900940 436.61401367
100.69799805 211.13800049 410.19897461
177.86100769 242.50100708 398.34100342
89.96299744 216.46699524 502.49398804
159.05499268 241.59300232 395.90899658
90.85299683 196.79100037 424.61599731
84.90000153 161.42399597 442.95498657
91.33999634 135.47499084 436.44100952
95.77999878 238.30200195 468.10900879
124.16799927 264.19500732 466.92498779
114.09200287 250.27497864 427.25302124
119.71600342 128.78898621 502.13998413
163.83700562 157.23500061 476.77600098
174.11799622 217.06800842 388.48400879
134.41600037 197.43099976 526.62799072
166.98199463 80.69100189 414.12402344
185.42500305 212.19299316 391.74099731
160.98498535 265.85400391 454.49502563
195.78799438 233.92100525 403.25201416
209.50000000 181.49800110 411.49600220
202.11698914 186.59399414 436.70999146
106.45700073 236.90399170 424.43002319
158.32899475 208.36799622 469.08300781
152.42500305 158.48899841 492.64801025
141.34199524 266.01498413 459.77398682
153.67500305 109.65999603 390.84698486
245.63899231 215.24600220 423.38800049
127.29099274 136.30500793 386.18002319
193.46701050 187.19300842 441.63998413
148.51799011 116.38700104 446.88000488
162.21000671 200.46499634 486.49200439
153.05299377 187.65998840 504.52899170
90.77700043 155.42698669 527.60699463
183.41400146 179.15100098 456.04299927
218.31900024 177.47000122 422.75598145
175.53999329 190.55900574 477.73699951
224.23001099 224.21998596 438.66900635
163.40200806 255.14799500 403.75399780
138.08200073 209.78399658 383.36300659
137.08799744 201.28900146 521.07897949
116.53800201 182.79899597 386.21200562
118.40999603 263.26901245 486.32699585
210.72900391 236.21900940 439.68002319
119.04199982 261.56100464 449.13400269
84.20000458 198.60899353 456.21099854
148.82400513 150.12300110 480.05102539
132.35800171 258.28201294 473.26898193
116.81500244 182.85598755 546.63702393
104.32700348 140.60899353 537.36102295
161.22900391 80.58500671 423.77099609
189.03500366 186.37800598 448.75100708
224.08700562 203.31199646 406.95199585
178.49400330 165.06600952 462.71099854
132.97399902 83.90799713 416.10299683
203.11000061 243.78900146 408.81799316
115.38200378 227.92300415 403.47497559
90.98899841 193.83299255 526.62701416
86.15700531 200.97399902 442.71401978
130.01499939 149.06098938 513.85302734
134.66499329 242.92300415 487.50000000
83.13700104 148.34100342 491.91900635
158.61900330 155.60600281 383.42999268
179.49800110 130.76300049 396.15399170
86.60800171 138.62199402 496.26800537
136.21600342 145.07800293 493.25698853
166.95800781 115.79599762 432.27197266
254.35000610 208.40600586 412.65698242
247.62899780 206.47399902 419.95901489
158.44898987 202.10800171 381.72799683
89.21099854 179.42500305 527.45098877
98.30500031 145.91099548 536.60797119
187.42500305 182.44500732 433.73901367
123.52500153 227.93600464 519.07495117
174.43099976 149.75300598 391.82000732
150.67799377 272.64801025 428.97900391
184.94999695 284.87899780 432.39797974
140.21398926 206.07400513 446.24700928
94.46000671 235.17599487 473.51000977
87.76399994 144.63398743 511.13598633
114.71900177 132.35600281 525.35400391
134.40998840 158.67500305 380.48101807
237.97200012 207.42599487 408.68600464
115.12599945 157.07600403 545.55895996
164.61299133 180.79000854 458.98101807
169.25099182 225.24699402 389.19601440
119.79400635 92.56300354 421.72900391
182.00000000 179.50900269 406.33599854
111.24700165 93.69400024 462.59298706
183.33399963 171.51400757 417.07501221
170.30900574 267.10098267 446.71197510
97.59799957 170.75300598 405.79199219
202.13999939 272.37200928 415.45199585
125.46299744 216.10899353 527.75000000
110.37599945 122.27100372 403.82199097
186.10699463 280.64599609 440.77301025
241.16600037 258.16400146 414.19100952
189.82400513 125.23399353 413.23599243
195.33799744 264.38098145 413.64199829
100.43299866 108.47000122 467.04299927
82.21700287 150.94700623 460.49499512
125.01400757 145.87199402 383.81399536
91.51600647 170.53500366 422.26202393
223.36499023 197.29100037 416.39898682
145.96299744 151.05400085 486.75997925
126.07499695 84.37500000 427.46798706
176.98800659 257.58697510 440.60998535
116.65100098 246.35400391 511.87997437
157.46099854 201.04899597 492.77401733
181.38000488 176.07099915 463.71600342
141.64399719 203.48800659 440.63101196
255.61601257 220.88099670 408.59197998
125.01600647 192.54901123 383.74700928
178.98500061 207.00999451 388.95700073
90.98899841 207.51300049 511.31896973
93.88100433 130.25300598 513.47399902
81.82299805 155.97698975 481.42999268
96.92499542 229.59899902 442.65499878
114.67900085 199.69099426 545.20599365
159.02900696 197.09600830 441.56701660
183.91700745 150.85299683 399.77700806
197.83799744 228.67800903 448.09698486
99.22599792 178.05300903 548.06103516
110.86600494 200.73400879 394.34497070
168.41299438 198.14700317 479.70898438
146.30000305 228.12800598 465.13598633
184.03999329 177.47599792 441.06500244
96.27799988 185.25999451 409.33801270
141.49800110 125.74100494 385.92599487
123.72399902 89.79199982 417.66598511
202.36698914 285.52899170 429.06298828
161.70700073 202.00300598 454.31301880
179.23199463 191.31399536 447.77600098
214.10499573 192.98100281 448.20700073
149.69499207 127.89900970 452.63201904
100.24700165 197.79499817 404.33999634
213.29100037 180.39999390 442.84399414
208.63800049 199.09300232 451.86999512
141.79199219 233.57499695 474.39398193
165.53900146 161.94799805 483.73699951
123.73899841 184.69200134 540.09997559
212.67999268 260.98199463 410.93798828
108.34799957 139.93299866 395.86099243
197.68199158 235.02099609 445.98599243
157.48100281 84.10099792 428.81100464
144.68699646 244.75599670 458.98898315
113.73200226 126.60700226 513.32495117
179.81199646 191.48600769 392.37402344
170.13099670 205.15600586 386.34399414
138.50100708 271.06298828 442.19601440
101.78100586 115.00400543 429.65701294
149.67599487 119.36999512 388.49197388
203.56900024 255.67599487 411.31298828
157.80099487 142.73800659 459.63900757
161.45800781 271.88900757 422.21502686
162.98800659 276.40899658 442.51498413
117.34200287 206.46501160 390.83297729
169.45800781 181.26901245 491.06100464
133.47200012 80.50000000 442.78399658
95.54599762 132.60301208 519.81799316
226.54399109 276.03097534 421.29901123
163.69400024 190.94400024 456.89498901
100.47200012 155.85899353 402.77600098
213.26200867 276.67901611 416.67199707
163.67100525 151.91999817 467.67498779
177.58599854 230.39199829 454.61199951
178.01199341 248.63499451 446.93698120
109.02600098 248.59100342 443.74298096
133.59700012 104.47700500 457.43298340
138.66700745 150.99301147 381.20498657
228.25099182 200.59899902 430.11599731
161.63900757 250.25001526 400.78100586
237.97999573 206.66299438 425.18200684
88.68700409 200.34300232 435.67999268
161.21501160 190.83499146 494.45700073
89.16200256 171.63600159 527.96099854
86.44499969 162.31599426 515.24102783
101.31599426 197.59201050 547.96899414
185.90800476 113.50000000 415.23297119
90.59099579 131.97499084 504.74899292
123.80299377 264.64901733 473.41601562
130.60900879 116.67399597 469.44000244
180.91000366 270.56100464 417.06298828
206.85699463 174.57099915 420.45098877
104.75399780 123.42700195 412.29501343
144.10400391 81.68499756 420.17700195
141.87500000 246.29699707 402.85900879
102.56099701 192.94400024 399.52297974
195.26499939 273.53701782 436.77200317
177.95899963 149.56800842 447.02600098
170.25299072 224.65800476 459.06600952
83.71499634 175.75498962 444.97100830
228.66999817 212.36898804 406.26998901
112.14199829 132.49400330 396.00500488
129.22200012 98.73300171 401.81600952
152.63800049 250.03701782 401.51400757
92.83300018 146.44000244 424.26800537
131.47099304 144.34201050 503.39801025
165.61500549 237.70500183 393.83502197
169.66600037 245.11698914 397.89700317
89.37699890 220.69400024 453.53900146
113.49800110 116.75699615 495.30398560
137.61000061 155.66999817 504.95703125
147.00000000 99.33900452 396.38998413
132.36399841 268.63400269 447.51998901
155.60400391 212.69400024 383.69598389
224.36199951 265.02999878 426.30401611
151.40299988 217.91101074 482.79397583
92.58600616 160.87100220 535.48400879
212.30900574 253.03399658 433.82702637
134.57000732 105.97900391 395.71499634
194.53500366 188.02101135 427.60800171
105.69200134 250.43499756 496.67199707
82.29699707 192.32499695 487.81100464
91.98900604 144.62300110 522.06201172
230.49899292 254.67398071 411.25198364
91.26800537 123.46099854 460.46502686
149.28099060 193.18800354 381.09899902
142.44300842 203.38900757 511.55798340
88.45500183 130.54400635 478.80899048
143.96600342 229.17799377 391.38998413
250.63299561 248.59899902 414.05001831
197.06900024 204.01300049 401.18099976
219.86199951 210.62300110 443.64700317
220.39599609 277.56399536 416.79598999
145.39199829 224.23699951 474.08499146
153.87800598 125.90299225 447.47201538
88.33699799 149.94200134 515.86901855
121.62599945 158.18199158 383.74600220
139.88000488 255.05700684 409.71099854
241.23400879 264.03900146 418.07199097
135.07600403 127.31100464 471.12799072
132.10800171 185.09001160 380.96200562
109.06299591 175.89401245 551.58801270
145.17800903 237.73199463 459.67599487
100.01700592 247.79200745 480.12997437
137.69300842 239.39399719 399.76998901
99.87599945 246.11799622 468.22100830
158.18199158 209.61601257 484.51400757
204.51000977 190.18701172 417.88101196
118.17400360 209.82299805 537.97198486
145.74700928 262.72198486 412.54400635
84.54000092 149.71600342 446.57800293
122.24900055 256.68798828 424.74697876
143.34300232 110.87799835 391.23498535
117.81600189 166.27299500 386.02502441
96.63599396 136.28700256 420.24801636
85.09600067 206.29798889 473.65899658
111.83300018 100.27500153 427.20999146
96.59600067 240.26599121 478.75000000
129.21499634 192.38400269 533.74304199
91.64099884 122.91099548 473.70599365
187.67001343 232.30700684 397.50000000
133.67601013 138.30900574 487.63201904
145.08299255 177.22200012 511.60800171
181.42999268 181.77999878 392.57800293
186.18099976 186.77900696 458.34500122
124.79099274 260.55999756 492.39901733
190.77099609 225.76100159 398.29901123
102.98699951 140.71199036 402.10400391
149.71099854 82.43700409 432.75201416
126.72199249 100.51299286 465.11199951
124.48999786 137.27400208 509.84197998
223.81399536 229.50900269 437.41101074
187.23500061 192.04899597 453.52301025
176.90899658 232.78900146 393.86300659
188.23500061 242.17199707 402.44900513
160.64498901 93.72100067 430.06198120
141.20700073 139.76599121 474.99902344
136.30799866 206.49400330 520.19104004
97.34900665 123.48300171 509.97399902
108.85500336 150.34100342 392.42602539
99.74700165 227.83399963 424.90802002
174.68998718 115.58800507 393.45700073
181.81199646 245.29299927 441.55697632
109.93599701 240.85299683 422.45297241
153.54100037 165.00500488 498.35699463
176.20500183 183.94500732 482.16500854
116.59300232 212.03300476 393.36700439
154.21899414 214.71400452 476.64599609
139.07499695 261.97698975 417.26898193
174.62399292 252.37699890 401.81900024
134.85400391 264.85897827 425.85198975
140.87599182 95.34099579 445.06698608
231.11199951 258.32901001 425.59899902
164.02600098 194.69200134 489.55300903
130.04699707 266.88000488 458.60000610
130.79200745 79.07900238 436.98699951
142.13700867 271.64501953 449.87298584
82.20899963 149.90100098 473.69400024
241.34799194 216.37600708 426.83300781
165.75199890 149.62100220 386.19400024
154.17399597 215.37399292 464.47598267
152.33500671 83.07600403 428.08398438
82.10899353 177.36799622 455.38397217
87.87999725 146.12899780 437.35998535
90.73100281 146.88299561 429.60299683
169.24501038 83.69900513 409.18200684
120.71900177 174.03799438 542.79901123
186.68200684 181.53700256 438.95797729
177.16400146 145.69400024 393.81097412
123.32800293 114.09000397 396.63699341
220.24899292 258.37002563 428.72802734
128.46400452 211.48699951 527.67803955
156.48500061 262.69799805 458.39199829
152.48399353 113.00199890 441.75100708
92.38199615 173.60499573 538.64904785
159.94900513 183.43299866 452.98498535
101.73200226 221.21598816 417.46899414
107.72799683 207.38699341 545.59100342
121.97000122 160.09500122 537.27801514
171.31599426 155.97799683 464.25698853
216.37600708 184.96899414 442.47500610
130.77099609 80.17800140 427.84399414
87.82800293 194.10899353 433.57699585
79.42800140 170.04998779 462.62802124
136.42500305 195.91200256 381.22100830
181.04200745 263.83099365 413.03799438
159.47100830 187.14599609 497.75799561
128.89199829 257.31097412 419.88098145
176.22999573 280.03298950 441.28799438
136.18899536 138.55400085 383.39401245
174.76699829 197.49800110 386.36099243
170.99900818 125.85900879 391.64999390
156.94099426 146.70401001 466.77999878
178.17599487 176.00500488 476.73898315
187.37500000 273.85397339 439.41400146
123.88499451 263.52999878 485.64498901
86.23500061 195.95498657 497.83398438
198.83699036 249.02099609 438.89599609
144.75500488 270.04901123 427.59799194
144.93299866 189.91099548 511.76101685
83.24600220 199.95700073 466.43499756
106.52600098 216.68400574 404.69299316
173.82901001 193.86099243 460.55200195
213.03900146 235.08299255 408.07501221
212.74800110 219.34600830 445.23599243
136.74198914 189.54899597 522.73101807
133.26899719 229.79399109 393.56500244
162.71301270 209.13900757 383.69400024
88.60099792 196.77000427 506.27297974
107.14199829 195.42500305 396.20101929
136.41500854 170.67498779 380.81298828
150.95399475 130.14300537 386.26000977
182.08299255 106.49600220 414.95999146
95.50700378 117.49900055 489.90802002
206.95500183 233.21899414 442.72198486
131.74400330 121.20100403 390.39999390
195.06600952 231.25700378 429.12301636
223.69599915 234.82400513 411.05599976
88.32099915 183.12199402 519.86096191
181.88099670 187.65200806 403.73098755
163.27799988 238.21299744 458.74801636
118.31600189 123.72899628 394.70199585
149.28700256 209.14999390 447.96801758
194.33499146 213.90199280 443.90499878
122.40699768 107.48899841 475.31701660
195.76800537 201.67900085 450.63098145
103.98600006 103.45600128 445.37197876
151.63800049 207.39799500 496.36502075
81.62100220 170.77000427 492.76000977
83.81999969 139.38400269 477.71798706
207.62699890 204.47799683 404.81500244
154.14500427 99.46900177 434.72000122
220.25099182 226.97099304 408.80700684
103.40899658 120.98699951 511.54101562
180.21699524 252.51901245 438.60598755
248.03900146 255.92398071 417.51901245
215.01399231 254.82699585 411.07800293
139.97399902 182.83900452 517.07800293
164.95401001 189.64199829 461.89801025
168.52499390 169.43099976 488.29498291
99.78699493 226.69898987 519.86999512
107.46399689 148.71501160 544.16796875
147.54899597 140.81900024 468.12899780
210.44799805 171.46701050 416.86697388
139.18299866 215.33499146 383.40802002
102.50000000 115.97900391 502.65197754
131.91500854 210.42601013 523.66296387
86.32600403 205.80599976 496.71301270
94.83000183 217.13499451 515.84100342
83.28600311 155.02799988 447.17599487
158.70899963 222.12300110 456.95300293
85.84700012 187.21101379 507.88302612
146.64100647 267.54098511 459.82501221
131.86000061 126.82199097 475.09597778
105.47100067 172.63400269 392.69799805
90.72000122 126.98799133 488.78799438
153.90600586 256.62802124 405.98699951
231.96699524 201.02900696 415.00399780
103.25000000 129.57798767 525.29400635
144.39100647 206.18699646 505.12896729
229.00900269 232.69499207 433.63198853
156.30899048 132.94099426 386.20199585
219.25000000 197.62599182 444.64901733
196.89500427 197.00199890 410.39401245
180.67900085 227.36099243 392.99398804
170.83200073 114.67500305 429.12301636
118.63599396 168.61199951 544.73797607
182.75000000 164.62600708 394.67401123
147.41299438 196.06600952 507.33102417
94.49400330 202.47999573 531.85302734
188.30299377 232.50199890 430.94302368
186.33499146 158.58999634 435.60400391
130.21699524 247.57798767 409.74798584
122.16600037 169.07000732 383.40197754
141.09899902 176.69400024 514.73803711
162.48899841 183.84599304 462.84899902
113.35700226 104.77200317 413.95898438
104.61500549 252.81799316 488.98199463
172.98699951 274.65798950 441.34799194
160.80799866 211.93499756 450.76901245
94.58100128 188.86700439 413.68200684
217.77799988 177.78498840 435.39300537
92.83000183 229.88200378 476.02600098
107.40599823 102.80500031 435.73300171
85.64299774 167.97601318 439.25698853
197.66299438 277.96600342 435.70300293
212.88398743 221.26998901 404.15100098
169.62799072 196.12200928 457.97900391
183.49299622 182.46699524 411.87200928
127.93700409 110.66000366 469.02001953
105.93900299 246.19198608 504.99600220
128.42500305 118.90800476 475.10098267
146.95599365 221.03700256 386.32299805
205.69799805 178.48100281 429.01000977
96.23899841 205.22000122 414.40298462
174.18499756 163.69799805 389.43402100
155.79699707 175.66600037 502.46899414
180.28100586 283.05599976 441.55300903
108.11199951 183.98899841 392.08901978
94.06999969 215.30200195 428.43099976
219.21600342 232.30000305 437.82601929
105.82300568 157.69000244 393.95999146
82.87099457 186.88299561 452.47702026
182.83100891 102.40200043 407.64801025
142.06300354 207.62300110 380.91799927
183.98800659 180.64900208 416.83599854
193.76300049 210.59300232 449.77301025
89.62299347 127.93199921 458.68399048
117.42399597 140.82199097 532.55096436
137.26901245 232.69799805 490.97100830
142.10000610 147.92298889 487.64498901
94.58000183 180.47000122 542.99902344
123.96900177 95.30899811 410.65899658
217.74198914 278.53900146 426.11599731
154.97599792 235.15699768 393.20498657
164.72200012 272.67599487 446.35598755
114.38199615 262.15698242 482.44100952
113.76200104 206.00700378 543.32604980
167.85700989 244.28201294 454.01699829
166.58300781 130.54699707 441.13800049
167.66400146 197.13600159 469.08102417
95.25199890 231.89799500 494.24697876
182.90400696 173.00100708 432.78900146
171.01599121 88.12099457 419.64700317
185.71699524 171.24000549 404.43099976
102.67900085 183.79100037 396.94601440
153.62399292 119.06500244 443.37600708
104.23800659 152.80799866 397.11697388
180.40699768 116.65399933 421.94799805
138.05400085 116.16300201 458.66000366
148.27999878 237.35600281 395.40798950
189.30499268 131.52000427 405.18701172
166.45599365 207.38099670 443.94201660
100.04799652 126.10499573 421.25500488
190.73899841 198.17001343 403.12399292
233.13400269 228.98199463 432.34197998
166.16900635 255.35801697 453.12197876
92.17199707 230.75599670 464.48599243
180.25599670 176.77999878 393.57598877
169.39399719 183.10000610 450.76000977
185.84500122 251.89700317 406.00299072
85.00900269 179.85899353 508.38500977
178.78500366 125.47400665 427.81100464
87.14599609 212.45700073 493.09899902
179.39599609 237.30500793 396.34500122
167.99000549 126.70199585 437.37600708
122.96900177 189.82099915 540.73205566
133.50000000 89.86999512 448.57202148
114.21099854 231.18899536 407.47897339
226.47300720 201.90599060 437.93801880
98.73999786 211.95500183 414.70599365
100.59500122 112.00299835 492.31799316
154.32899475 88.03700256 402.27499390
96.09100342 151.56399536 412.56100464
128.72900391 261.46899414 425.80700684
108.48999786 164.46598816 548.60302734
130.33399963 168.78401184 380.90100098
242.55299377 245.92399597 413.31900024
174.31500244 166.87998962 476.10900879
157.85301208 175.15000916 380.91998291
118.19099426 130.65199280 511.49099731
163.85099792 221.04400635 387.54202271
138.71600342 141.89900208 482.93399048
99.55000305 210.31600952 537.73699951
79.87699890 161.20600891 470.12500000
109.01899719 190.01600647 392.13101196
103.15499878 252.46000671 477.63299561
143.19898987 106.92700195 447.22198486
161.87800598 131.67500305 388.78198242
99.28099823 168.23500061 400.71200562
132.76300049 81.41400146 432.78100586
187.02400208 237.03298950 399.25000000
121.36500549 173.94999695 383.37399292
187.56300354 153.69500732 430.48999023
182.78298950 159.53700256 445.54998779
123.10499573 248.20800781 503.23898315
89.36599731 164.94999695 430.69699097
96.34799957 115.17199707 476.50201416
114.37599945 125.37400055 397.85800171
195.21400452 210.87600708 397.07897949
161.41600037 176.34100342 497.74200439
163.30200195 175.85900879 455.58398438
82.25499725 199.04998779 478.36102295
95.64399719 178.93399048 411.20599365
234.88900757 203.16299438 408.62200928
84.18099976 202.11599731 488.79800415
112.80799866 258.47598267 493.91799927
208.34199524 209.54299927 450.99801636
252.85801697 238.37199402 411.83502197
201.76499939 206.87800598 403.02301025
214.89399719 211.44999695 446.50598145
140.55000305 179.73500061 381.15600586
173.05999756 202.72700500 441.42199707
231.52400208 263.93301392 413.07501221
131.80300903 222.81298828 513.15899658
86.35400391 210.63299561 487.23999023
161.87899780 247.41099548 454.52200317
134.74800110 230.70399475 500.89300537
172.60200500 233.48100281 456.18899536
140.36599731 168.15400696 511.87496948
214.19100952 175.92201233 416.31600952
128.10800171 131.29399109 488.55902100
150.13400269 227.35600281 390.63702393
241.66799927 236.38999939 411.22698975
81.38000488 168.19099426 451.15100098
160.99398804 266.26000977 413.47598267
97.38499451 214.34800720 528.27197266
93.57900238 227.99200439 485.12200928
150.44000244 153.12500000 380.92602539
127.72500610 264.70397949 437.01498413
79.87899780 180.24499512 476.34500122
211.60400391 170.03298950 432.31100464
107.38500214 98.71199799 450.77401733
88.35299683 191.75698853 515.29595947
91.31299591 226.09500122 470.23400879
107.24200439 116.42199707 504.23400879
229.55799866 203.06800842 420.90200806
143.61500549 161.94898987 504.94897461
172.04600525 267.32098389 442.14099121
238.01599121 212.41000366 408.62200928
101.36199951 159.99800110 546.52001953
155.71199036 78.64700317 419.01699829
190.36000061 161.28500366 405.83898926
85.80099487 208.07200623 452.59197998
243.37500000 230.62100220 411.28399658
90.23699951 187.42098999 423.88400269
108.13899994 257.83602905 482.52999878
107.10400391 131.60000610 401.33300781
159.51399231 78.69599915 413.29397583
183.56401062 139.87001038 430.95800781
124.19499969 206.85101318 534.79699707
125.78900146 91.72800446 459.46697998
99.23300171 130.30500793 418.64599609
204.20700073 195.15000916 453.89398193
176.68600464 212.98699951 446.35098267
110.94799805 171.97799683 549.41400146
84.83100128 146.07800293 450.18301392
206.66400146 219.91500854 446.92700195
215.36799622 283.88699341 424.13500977
126.37099457 142.91700745 515.75201416
138.56300354 109.33700562 453.51599121
118.35800171 151.68699646 539.14001465
232.01499939 241.92599487 411.15298462
132.22900391 213.48999023 519.91699219
105.21499634 200.28599548 549.20397949
150.22900391 210.38000488 383.51602173
158.32899475 89.47399902 430.17199707
123.78700256 139.67399597 386.27301025
113.13500214 219.34700012 399.92800903
185.23699951 164.39299011 425.54699707
129.12300110 202.80599976 383.57400513
155.18200684 205.29299927 492.44799805
176.65199280 132.71099854 435.09399414
179.34001160 192.64799500 467.20599365
118.39299774 88.11999512 438.22799683
208.24000549 263.40499878 413.76098633
194.96501160 246.25700378 408.08999634
174.74200439 157.07699585 460.49099731
144.67201233 225.41299438 480.69799805
90.06999969 125.84600067 469.18600464
174.05900574 103.78699493 422.46600342
97.16500092 125.92199707 428.41299438
158.60499573 205.67999268 454.32800293
125.34099579 238.53599548 404.98199463
109.82199860 160.15901184 389.72698975
133.62599182 245.88101196 406.46200562
223.48399353 191.09500122 433.42599487
130.15200806 264.09500122 465.94900513
100.91300201 113.98500061 434.27200317
102.47900391 234.72200012 515.20001221
82.75099945 143.55300903 472.03698730
177.65699768 92.30999756 407.76501465
144.26399231 201.44300842 448.11999512
131.41099548 228.91700745 508.70300293
164.01899719 202.17399597 481.82400513
155.91200256 115.95200348 390.82699585
165.38200378 112.85900116 390.87997437
231.59599304 244.91200256 428.44598389
121.69499969 241.39698792 510.71798706
180.25399780 248.08599854 400.84600830
179.97099304 97.46500397 412.38598633
195.45500183 285.55798340 435.52200317
184.04699707 239.93598938 445.68600464
137.77198792 188.13400269 381.06399536
150.17999268 88.37699890 434.79898071
190.41200256 165.33898926 402.34802246
95.04599762 221.07299805 512.04699707
79.34000397 178.66999817 467.73599243
205.86999512 276.87002563 430.97799683
224.98098755 215.02900696 436.91799927
97.53099823 239.84300232 461.97500610
97.80899811 229.40899658 510.12600708
106.44899750 229.41200256 415.03997803
85.94499969 163.12199402 438.62701416
117.60500336 219.80300903 396.43600464
186.02700806 132.77499390 422.88198853
79.15499878 171.34800720 471.52099609
160.95800781 148.94198608 385.59100342
225.79798889 252.41699219 428.42001343
231.16700745 207.58900452 406.01501465
