ply
format ascii 1.0
element vertex 512
property float x
property float y
property float z
end_header
192.30569458 230.36909485 474.65820312
194.05557251 232.06730652 469.73229980
186.09205627 230.32847595 478.25909424
198.53494263 230.73735046 478.48336792
198.62516785 231.92797852 469.99453735
183.95323181 231.99876404 469.78912354
186.00753784 229.08000183 485.79235840
184.91435242 233.67376709 464.46051025
205.53446960 229.81582642 475.07052612
201.76502991 222.10346985 470.31784058
196.06428528 226.98730469 461.27841187
178.20530701 232.70840454 472.42614746
178.46438599 232.77914429 478.70938110
204.88549805 232.07310486 482.66256714
195.10700989 242.62501526 466.30105591
195.55319214 233.01210022 459.18630981
196.85337830 219.98616028 463.03933716
205.96655273 222.98081970 469.41201782
194.63455200 237.86129761 460.13168335
198.42041016 246.06735229 470.66564941
177.10337830 232.26344299 482.98876953
188.36285400 238.13824463 459.43145752
201.48211670 238.87005615 462.19528198
177.65174866 234.24882507 464.79733276
189.04011536 245.34747314 464.30886841
203.15499878 232.45399475 489.51400757
194.41000366 232.21800232 493.07501221
203.17054749 244.94166565 467.59399414
177.32519531 228.79885864 487.24353027
195.52514648 249.86242676 473.37948608
192.84414673 230.64212036 454.72601318
190.17919922 249.97515869 470.47827148
212.21398926 232.09500122 479.74301147
200.68356323 221.81072998 457.49914551
208.66931152 242.27641296 467.27896118
190.92581177 226.22186279 496.31863403
196.23147583 235.03230286 453.40917969
183.77920532 223.88465881 494.16787720
213.40950012 225.01551819 469.63638306
201.13662720 236.48229980 455.06335449
170.94174194 235.16949463 468.68643188
208.14785767 239.21772766 460.97958374
184.38005066 243.55003357 457.77169800
185.27641296 249.85626221 464.66152954
211.55775452 228.20272827 461.96713257
208.01300049 232.57099915 491.76800537
202.83489990 231.02235413 453.81542969
204.17697144 225.37757874 454.94970703
175.79200745 225.15902710 490.75640869
206.34387207 235.37892151 456.10125732
169.66201782 237.68826294 476.58285522
185.42628479 252.99185181 469.82974243
201.63999939 231.70399475 496.91998291
177.82572937 238.98683167 457.17605591
205.44720459 250.97811890 472.46209717
212.72599792 229.88999939 488.63198853
192.92398071 226.77210999 449.85824585
189.89855957 255.31547546 473.19552612
213.72093201 233.97726440 461.68875122
214.28666687 240.47752380 466.35363770
218.07600403 227.45800781 476.47100830
216.70700073 229.74400330 483.68099976
198.87609863 230.03060913 449.42514038
181.98100281 249.57261658 460.15411377
201.32406616 255.32597351 475.64840698
211.06758118 247.76446533 466.47616577
184.42192078 221.14202881 498.65762329
198.06199646 230.53500366 501.07504272
167.06933594 234.18870544 484.01278687
206.54901123 231.07899475 498.10400391
174.72508240 220.96896362 493.79998779
210.78700256 230.35099792 495.36300659
181.05621338 254.35978699 465.33782959
219.83000183 228.62200928 468.86502075
195.53347778 258.62780762 475.56689453
169.29454041 237.46841431 459.15298462
219.20700073 235.90600586 466.45098877
192.67776489 231.53826904 445.57174683
167.88244629 226.26966858 490.40631104
176.42250061 245.30725098 454.93011475
222.37400818 227.43099976 473.32800293
172.56503296 241.73707581 454.56671143
178.35647583 253.33178711 459.86694336
162.85186768 238.13255310 480.16867065
180.09779358 258.82949829 468.69015503
221.64599609 229.64001465 486.83200073
162.85868835 239.40596008 466.84976196
187.58552551 262.03829956 472.47817993
213.74641418 254.12962341 470.40878296
216.49903870 250.67160034 467.91168213
176.16903687 217.53274536 499.55047607
192.25201416 263.18096924 476.37966919
161.43270874 241.96984863 474.31933594
163.68632507 238.65017700 459.97485352
209.18168640 259.13528442 475.37145996
225.00599670 233.57099915 468.59402466
202.91508484 262.18130493 475.89962769
165.97508240 221.78471375 493.62268066
221.01300049 243.06300354 462.36602783
225.16700745 228.09300232 482.21902466
176.98585510 258.34207153 463.10317993
175.33760071 250.29760742 452.80294800
189.26556396 218.49748230 506.59317017
217.95800781 249.15039062 461.96826172
220.15100098 228.01400757 494.71600342
160.12753296 231.02053833 487.56457520
207.61000061 227.92500305 505.92398071
214.57800293 227.99299622 501.44500732
185.58822632 212.06805420 504.31246948
227.67098999 228.40599060 477.23001099
201.94599915 227.22599792 509.12200928
167.94824219 245.08515930 452.13470459
157.36238098 239.48062134 478.45025635
174.53852844 256.32525635 456.31350708
175.78492737 210.87652588 500.96405029
183.91558838 265.80902100 469.98074341
222.72868347 251.26037598 473.62112427
177.89186096 263.96850586 467.74935913
196.21676636 267.36239624 477.25061035
180.17759705 204.92588806 499.08471680
190.46852112 205.46762085 502.42544556
227.54499817 240.22399902 465.63400269
164.80050659 216.14979553 496.49243164
159.70489502 223.69300842 493.65414429
168.96212769 212.69834900 499.41217041
221.03533936 255.10897827 480.68103027
220.71200562 227.00299072 500.29803467
192.39068604 200.92520142 499.36856079
195.73199463 226.25199890 512.73205566
212.33399963 226.22200012 507.23599243
207.10729980 266.00393677 479.92687988
196.11407471 217.53735352 511.26110840
172.37705994 262.25424194 464.06475830
190.23124695 269.40902710 475.67568970
162.42311096 243.94247437 453.34271240
156.34228516 243.55993652 466.15530396
225.39199829 247.09700012 460.97000122
230.88699341 228.00399780 483.43899536
231.74501038 236.15600586 473.35897827
158.20161438 242.31985474 457.71441650
228.99900818 228.93899536 490.36499023
219.66500854 258.49597168 466.46099854
170.29701233 206.53375244 498.55911255
197.08767700 208.59643555 508.27951050
227.12998962 229.17700195 495.07998657
154.13020325 243.60664368 473.88476562
230.57499695 243.47000122 472.35900879
184.92372131 270.19921875 473.11773682
183.30529785 196.41450500 494.94134521
153.91990662 230.80062866 487.84799194
228.59899902 248.87199402 473.83401489
218.34193420 260.30139160 484.21301270
222.51899719 252.79701233 458.86297607
202.52742004 269.56124878 479.90121460
188.71362305 194.22755432 493.43460083
177.17924500 199.13626099 496.30853271
170.00041199 254.43792725 450.16952515
198.25245667 199.22903442 500.57958984
152.80369568 234.62329102 484.66558838
225.15100098 254.57298279 468.57000732
170.61660767 260.79806519 456.83099365
228.88999939 248.58300781 467.33901978
218.47605896 258.26632690 458.50344849
233.81599426 231.47700500 477.86199951
198.93673706 212.91687012 512.04119873
193.92041016 192.00550842 491.57214355
220.14201355 224.50799561 505.58697510
209.12100220 222.56900024 512.71301270
201.88999939 222.97999573 515.71795654
172.97274780 268.06536865 467.82589722
157.38882446 218.97045898 497.13275146
216.50900269 221.56600952 509.63198853
207.13819885 270.02966309 484.80017090
152.66387939 227.07395935 492.43753052
227.87899780 254.14898682 483.29602051
163.05847168 206.95181274 497.58471680
225.55899048 224.44599915 502.75997925
199.08628845 189.69363403 490.12432861
177.84629822 271.77938843 470.53814697
149.60093689 240.62197876 478.14657593
167.98239136 266.03396606 465.69577026
214.71188354 266.20190430 487.32305908
199.29437256 273.67306519 480.33148193
234.83300781 242.14900208 477.77798462
169.16139221 199.26039124 496.81988525
202.66921997 197.31806946 502.93988037
163.16502380 252.83625793 448.89450073
231.90100098 251.28999329 479.15899658
192.21539307 275.38192749 476.80303955
215.05403137 265.78942871 457.66641235
150.09501648 246.28506470 469.29833984
166.44976807 264.18099976 458.61801147
212.44313049 269.28198242 462.00274658
235.92401123 228.23100281 487.83801270
229.35398865 252.49099731 459.57501221
220.86499023 265.60198975 468.73400879
183.33143616 187.54919434 489.26797485
237.78599548 235.89399719 481.02600098
221.29000854 219.36500549 509.09899902
151.49200439 247.03263855 459.75958252
165.51591492 259.33642578 449.70379639
156.88134766 249.77890015 450.94848633
151.73736572 223.13850403 496.96362305
218.48500061 201.99299622 501.23901367
215.54000854 204.37200928 505.98901367
223.36399841 206.00399780 500.06997681
229.35000610 256.93801880 463.31301880
223.61033630 260.41635132 456.42138672
156.40586853 211.27313232 498.65203857
211.30500793 197.41799927 502.68603516
217.97099304 197.75900269 497.47000122
207.91200256 215.14399719 516.72497559
225.94599915 202.49299622 493.05200195
212.12800598 205.73500061 510.06198120
172.46855164 191.57402039 493.62228394
213.12699890 212.47300720 513.46899414
191.03536987 184.11308289 485.71121216
219.02799988 209.02499390 507.85601807
229.17799377 258.24600220 486.32800293
185.91279602 277.67514038 475.72711182
200.95368958 184.67617798 485.50860596
146.93827820 231.57630920 489.60226440
204.11148071 275.25146484 486.03863525
172.46777344 273.40344238 468.17864990
212.92500305 194.05200195 498.04101562
154.11080933 216.23052979 499.95254517
238.32600403 219.44599915 482.53302002
206.63200378 201.41400146 510.19400024
145.42190552 235.58142090 483.93530273
205.76800537 193.48100281 502.42297363
205.58999634 208.49000549 515.43096924
223.13200378 197.26899719 491.16098022
221.66600037 213.57501221 508.94302368
228.89299011 209.00000000 497.61300659
208.67810059 274.05123901 462.21572876
161.96571350 200.69004822 497.86465454
163.28166199 267.12725830 462.43829346
201.92599487 203.29199219 513.79400635
238.67300415 244.74699402 471.22299194
227.34999084 262.80001831 465.23699951
231.94200134 208.86999512 493.01400757
145.82153320 244.75012207 472.88729858
178.90641785 277.16027832 471.54425049
238.27299500 213.86300659 475.90899658
237.43000793 221.34500122 491.11801147
236.52299500 212.76100159 485.82397461
231.13999939 203.64700317 487.70300293
227.40299988 219.10099792 506.85800171
176.09321594 186.89842224 490.40493774
213.79844666 271.90939331 489.39825439
235.55400085 226.32199097 497.53298950
227.75801086 211.50498962 502.89797974
219.88500977 192.89900208 490.36700439
144.30326843 239.72750854 479.84173584
234.22599792 207.54400635 486.80499268
227.52200317 197.46899414 484.91098022
224.33033752 264.84027100 489.51416016
235.84500122 216.03298950 493.05499268
233.31700134 213.54899597 496.94601440
147.60552979 226.81546021 496.26858521
195.86906433 181.40640259 482.89218140
238.59500122 248.46600342 478.11801147
208.33000183 188.89300537 497.24298096
240.82299805 233.03698730 485.98999023
235.92098999 253.76000977 483.57299805
207.11329651 183.15083313 483.70932007
213.04600525 188.10499573 492.44100952
163.73391724 271.13537598 467.12496948
156.91160583 203.76684570 498.73739624
240.03698730 215.56900024 467.45397949
197.37838745 279.63641357 484.82183838
165.89715576 192.22334290 494.84341431
230.11801147 260.17401123 458.95498657
241.96900940 220.45100403 473.73501587
224.84800720 268.33502197 465.98699951
217.64028931 274.16958618 469.65356445
233.44000244 217.42799377 502.26800537
241.54501343 223.99800110 488.32601929
228.11399841 264.67498779 460.55599976
235.76000977 222.79800415 501.53796387
239.74800110 209.49900818 471.74502563
156.48660278 257.60159302 448.63192749
152.17196655 253.18655396 450.66070557
219.14195251 271.63937378 457.80148315
225.43699646 191.17799377 483.53897095
241.92399597 229.67599487 490.63800049
234.23699951 200.38999939 482.48800659
238.35400391 206.43000793 480.34899902
243.02999878 220.07299805 467.65100098
222.55101013 272.49700928 467.64099121
190.01744080 282.66778564 476.51239014
224.50999451 269.00601196 459.43798828
219.90162659 271.82052612 491.54742432
148.37448120 251.32188416 454.63067627
241.75999451 217.64900208 461.79397583
159.99371338 263.66787720 449.58584595
241.23199463 225.70300293 494.21398926
242.58000183 242.65701294 485.79202271
180.59915161 179.58392334 484.12271118
159.92254639 194.84640503 497.15328979
144.01927185 250.10031128 464.78582764
151.48022461 208.57312012 500.76907349
214.50456238 275.59988403 457.15475464
190.95803833 177.20904541 480.26364136
214.48437500 182.19737244 482.08172607
185.98744202 177.60575867 481.42071533
168.10128784 277.98114014 469.16268921
220.58300781 185.83799744 485.08001709
202.80993652 281.13470459 489.31875610
147.06979370 220.02673340 502.09982300
173.55776978 280.99877930 471.79592896
204.38627625 177.66615295 477.84826660
180.04039001 283.14718628 474.44277954
158.89791870 270.81378174 459.97781372
241.37799072 252.62200928 482.82302856
241.02200317 207.68499756 465.23898315
195.27467346 283.36227417 487.29266357
143.98040771 225.53907776 499.86734009
237.98400879 200.41499329 477.89401245
232.48500061 193.56300354 479.97299194
139.58219910 245.21592712 474.17367554
174.31095886 179.93736267 486.27429199
169.66447449 182.73194885 489.83370972
165.61894226 185.72760010 492.26544189
245.00000000 235.62599182 489.34899902
244.91400146 246.19099426 477.69998169
240.75000000 209.63600159 458.80899048
139.09155273 235.52357483 488.07962036
158.82521057 269.31280518 454.44848633
209.41535950 280.02279663 491.79409790
213.22665405 280.49713135 464.21966553
138.14509583 239.52183533 482.62887573
238.02299500 259.78698730 486.30899048
140.27954102 249.58497620 469.26422119
242.77299500 218.49000549 454.20300293
192.40980530 285.52578735 483.46533203
241.17399597 203.19599915 473.56298828
247.53099060 222.40200806 470.52700806
161.74789429 276.51013184 466.36544800
245.00900269 220.86300659 458.19198608
240.72499084 212.33200073 452.12600708
220.41600037 278.21200562 464.54998779
230.04499817 188.13600159 478.33200073
237.42399597 195.52700806 474.57901001
142.08251953 252.22822571 458.82220459
225.24101257 183.86000061 480.21099854
248.69400024 224.46099854 483.02502441
247.92700195 221.98899841 463.63800049
159.34609985 187.92501831 495.18875122
247.49299622 227.70999146 490.70001221
209.57881165 175.47396851 474.99822998
239.90599060 197.94599915 470.09500122
230.53596497 270.43356323 491.36032104
145.93887329 212.45797729 504.24118042
152.91708374 196.15213013 499.67855835
194.18699646 288.23867798 473.78985596
198.70327759 172.73257446 475.46630859
246.90000916 231.14100647 494.50100708
245.34899902 228.48300171 498.51400757
243.23100281 203.19099426 466.21298218
166.96110535 282.60791016 468.85742188
250.48599243 223.34899902 475.37298584
148.42642212 202.47627258 501.80465698
137.87326050 230.48556519 496.88079834
154.81309509 268.12545776 449.62771606
218.67137146 279.73513794 492.74761963
216.58564758 176.56452942 473.96957397
247.41700745 250.84999084 480.47598267
240.67799377 211.39900208 446.32199097
138.40237427 252.91558838 464.95587158
236.90957642 266.59582520 489.27664185
237.18600464 191.66700745 471.15200806
247.75099182 246.26199341 488.84500122
185.34530640 289.23504639 470.80337524
203.56613159 286.03317261 492.35317993
192.38406372 170.85742188 475.81420898
198.31558228 287.06036377 491.88885498
193.19624329 287.90859985 490.19219971
191.53996277 289.76129150 479.90417480
139.61682129 225.94137573 502.40826416
144.72561646 256.50561523 449.75326538
195.03257751 289.95974731 468.88809204
245.10499573 221.07600403 447.83200073
177.43507385 172.69528198 481.97265625
162.32962036 181.00430298 491.74761963
250.31501770 247.20899963 475.02600098
147.09365845 260.02621460 447.21917725
224.47538757 178.90849304 474.93637085
222.70800781 282.53900146 468.47598267
185.73905945 169.98524475 477.67007446
133.05625916 239.58282471 484.93807983
155.56623840 278.36065674 467.07897949
200.95358276 290.66989136 472.95373535
190.59873962 290.46215820 485.83508301
249.89500427 241.89500427 491.96801758
243.10598755 204.84100342 451.78698730
229.32099915 181.48100281 475.03799438
154.13758850 276.64456177 460.82205200
139.80967712 220.12820435 505.16860962
243.15499878 219.62599182 441.41998291
249.97499084 222.84500122 454.04602051
152.17845154 189.71134949 498.32089233
251.58200073 246.33599854 482.35000610
236.14099121 186.88999939 469.67800903
136.99784851 254.41282654 460.27078247
170.95378113 288.64352417 474.34939575
170.76814270 173.13076782 485.26544189
132.03825378 245.17489624 476.97155762
180.05157471 291.20919800 471.87866211
254.13998413 224.16200256 479.38998413
132.72737122 234.49516296 492.61529541
139.69334412 256.18881226 453.14694214
161.54228210 284.45980835 469.59075928
244.99200439 202.30599976 456.19000244
163.68843079 176.67565918 489.23294067
244.44000244 198.16101074 461.53399658
228.55528259 278.21508789 492.89752197
190.37896729 292.78503418 468.61608887
251.96298218 235.36099243 493.68899536
208.51933289 287.82318115 494.45526123
240.95700073 191.45899963 465.12100220
204.32820129 168.46679688 471.32879639
195.41018677 290.26669312 494.49621582
132.93835449 251.79537964 470.38711548
214.34536743 286.26019287 494.49536133
248.15299988 258.70901489 483.81298828
236.77023315 272.56912231 490.70297241
254.64799500 225.38700867 485.09698486
141.49586487 208.61097717 505.88000488
240.75099182 212.36199951 437.74301147
255.26800537 221.95500183 468.67098999
147.61325073 193.35836792 501.31619263
199.66600037 166.71261597 471.84521484
133.03802490 229.81677246 499.27862549
153.50137329 184.03266907 496.31552124
194.49597168 166.03005981 473.17300415
244.45700073 266.25100708 486.85800171
255.08299255 245.05799866 472.01400757
242.03099060 218.12799072 435.27001953
133.53486633 255.42163086 464.57824707
151.61822510 276.27340698 453.76916504
210.86451721 168.48126221 469.40667725
164.90818787 289.12545776 471.59164429
195.34959412 295.10928345 479.35256958
179.10232544 166.68177795 479.48635864
206.67094421 294.09478760 471.71981812
149.64530945 272.52786255 448.38424683
232.30375671 178.72279358 468.20959473
227.96900940 175.60897827 468.17160034
245.38000488 197.05101013 454.74401855
257.58801270 222.06799316 474.93698120
128.29734802 244.71960449 480.86392212
133.15655518 226.87960815 503.54528809
142.81651306 263.53988647 446.40399170
191.42272949 295.77877808 483.84701538
250.97299194 223.37899780 445.05398560
139.69580078 260.80639648 448.51370239
255.10400391 229.79199219 495.93099976
189.41868591 294.71475220 490.53787231
256.71701050 220.53498840 461.81298828
254.52301025 253.47300720 478.89398193
153.17121887 283.86404419 468.47958374
219.93725586 170.14476013 467.16815186
240.09298706 214.00498962 430.87301636
256.51699829 249.34100342 475.40100098
127.82952118 248.40580750 475.84832764
257.37399292 226.87800598 490.44799805
256.04699707 221.05999756 456.00000000
145.21086121 268.11700439 445.35968018
257.91000366 242.58999634 467.14599609
242.60101318 205.51901245 437.70401001
184.98892212 296.96969604 469.43127441
141.98759460 197.89498901 505.33288574
223.67651367 286.88339233 493.56506348
244.89599609 202.85700989 442.83300781
198.54855347 297.50421143 473.85958862
243.68899536 189.45201111 459.36001587
198.96940613 293.32791138 497.98815918
189.88301086 162.82876587 474.06518555
149.05169678 280.18399048 459.86105347
149.04933167 281.66418457 465.25167847
259.24899292 223.53300476 483.20599365
168.40003967 293.85427856 473.94314575
244.18299866 221.67800903 431.78399658
258.88699341 218.89401245 466.69500732
256.17700195 244.10598755 493.73999023
147.55531311 185.73773193 499.94277954
125.98081207 242.19104004 484.77395630
203.31620789 297.28125000 482.22354126
254.54598999 229.46099854 502.61300659
126.99182129 237.07334900 493.32818604
209.11492920 296.43600464 478.65722656
249.95799255 223.91700745 438.60800171
242.06700134 274.78201294 489.89297485
172.51771545 165.13040161 482.28543091
192.94595337 298.95867920 473.29901123
134.27777100 216.27070618 508.54785156
241.06399536 219.01600647 427.65701294
255.91600037 221.40699768 450.33099365
206.71931458 293.08804321 498.80868530
244.28599548 191.30499268 452.27798462
190.99774170 295.87176514 495.66384888
239.57901001 181.35600281 464.59201050
154.14982605 176.31625366 493.87036133
136.60214233 209.32456970 509.40655518
257.83099365 247.44400024 488.02600098
216.39643860 166.23133850 466.09490967
127.03296661 252.97071838 473.35824585
260.55801392 218.20799255 472.49401855
160.36341858 170.45570374 489.01501465
252.48799133 264.30999756 481.74499512
235.92166138 281.63842773 492.01040649
