ply
format ascii 1.0
element vertex 2048
property float x
property float y
property float z
end_header
233.50199890 257.49902344 412.19500732
65.35766602 133.05734253 501.59011841
96.00963593 207.75691223 374.14639282
136.36152649 94.13555908 404.09277344
155.68005371 219.12011719 501.78646851
195.73100281 169.25599670 423.75399780
57.62913895 134.56631470 410.66497803
82.34701538 201.67358398 455.64675903
151.18476868 250.84001160 422.82965088
137.45109558 153.03370667 456.11557007
140.30911255 156.12228394 379.04257202
212.46087646 240.19201660 472.05798340
165.93038940 207.52499390 385.78787231
83.74886322 86.17790985 428.14318848
74.39346313 186.03878784 507.73834229
159.21800232 203.12599182 454.93502808
101.26882172 235.39251709 421.12487793
92.61133575 131.45903015 457.72451782
87.46524811 156.86775208 371.22155762
214.25500488 211.00300598 398.81500244
94.22169495 109.92562866 384.94345093
71.61923981 183.48066711 409.58074951
166.53677368 133.06373596 412.16299438
55.08924866 162.85345459 462.83911133
123.41343689 231.25724792 464.39208984
186.39401245 248.55500793 398.28198242
109.18589020 173.09873962 479.91021729
129.22801208 236.93411255 382.54940796
194.24598694 224.35099792 435.54299927
168.48307800 241.97557068 466.13537598
119.93170166 121.71692657 429.06921387
134.63510132 193.70579529 367.24664307
156.26400757 171.11199951 424.05398560
121.25762177 189.78172302 451.36691284
102.02151489 210.50347900 488.99435425
60.81900406 117.32518005 444.04394531
209.03463745 258.02468872 439.82760620
176.80099487 171.86898804 454.96801758
132.02754211 123.23715973 386.03173828
155.96499634 205.11199951 421.23699951
89.33219147 156.63385010 499.44650269
67.00328064 102.75039673 404.81570435
188.45875549 228.56332397 493.64407349
188.69499207 189.38200378 399.16101074
132.84913635 202.04035950 481.38717651
105.84284973 85.62973022 403.82479858
87.68183899 207.95474243 425.41305542
71.22306061 116.96249390 474.58654785
158.18835449 239.44335938 392.07208252
57.82588959 162.66990662 495.65823364
57.30405807 160.85925293 431.61734009
157.11590576 178.98345947 387.40231323
66.00018311 189.15159607 478.61706543
107.54373169 179.59829712 369.62399292
178.94281006 253.96159363 439.09860229
128.49189758 242.16290283 436.22448730
66.25982666 157.72689819 392.37649536
100.64984131 232.92172241 389.35531616
113.23338318 141.97830200 374.01678467
135.06970215 173.30593872 434.38928223
214.44700623 240.12100220 398.82598877
171.08599854 210.89099121 480.02301025
94.98136139 111.83703613 436.31365967
99.27959442 223.07798767 448.90164185
75.96463013 131.11242676 385.98052979
180.25900269 190.71400452 434.27200317
78.59532166 181.22630310 381.81430054
153.71989441 148.55989075 435.16671753
190.44700623 223.51800537 463.22100830
122.85560608 249.13436890 409.45727539
111.53239441 151.70556641 462.15130615
206.24786377 261.71426392 413.26876831
69.33829498 184.44429016 436.69302368
164.08216858 155.74107361 396.66558838
186.63400269 222.08898926 393.55001831
143.18971252 120.42722321 416.90014648
142.84207153 219.61758423 431.21005249
55.99503708 136.56057739 464.83694458
85.25980377 213.88265991 399.11807251
88.15340424 133.07156372 487.45123291
121.48640442 216.11311340 367.66009521
147.01312256 229.00317383 479.55902100
193.64799500 206.86199951 417.21298218
153.77799988 174.84700012 464.96298218
118.31944275 96.94180298 423.62280273
145.64215088 219.04450989 378.31964111
172.08488464 256.49053955 413.92858887
106.80951691 202.01469421 466.29846191
214.68399048 240.86900330 424.22399902
93.03759003 185.26033020 492.40997314
192.58959961 249.10505676 459.23941040
116.26187897 104.67745209 390.87350464
177.81900024 170.44700623 406.53100586
160.19900513 182.71099854 443.45797729
224.88699341 248.47500610 454.19100952
81.52065277 204.68161011 483.28723145
154.51786804 246.97605896 445.31057739
124.07932281 170.18235779 463.38754272
142.57229614 196.08798218 464.65264893
151.53251648 134.98039246 392.66799927
120.28427124 222.51936340 484.13497925
74.88846588 100.16764832 445.50665283
176.70500183 212.49101257 444.90798950
120.82277679 140.06576538 443.41207886
84.45372009 91.22496033 397.56973267
56.11524963 138.31953430 432.54721069
101.33489227 152.63131714 481.39846802
231.02099609 254.20799255 433.65100098
139.94865417 249.90029907 397.08383179
130.28594971 173.26133728 374.02996826
142.13966370 237.35566711 458.60577393
73.22292328 150.27503967 511.39361572
232.94700623 232.08099365 405.52700806
64.75846100 183.19261169 457.49353027
207.67300415 222.56100464 415.91198730
62.39964294 113.98388672 423.10043335
205.46899414 232.52600098 451.72198486
167.79499817 191.88299561 402.05197144
133.09086609 211.87162781 500.11526489
137.69960022 136.08775330 432.96896362
151.82087708 115.26561737 398.71597290
177.26400757 170.54399109 433.01000977
95.67251587 129.04103088 378.78198242
193.62300110 178.16400146 442.36901855
56.01153183 145.76969910 485.26174927
75.60385895 197.60418701 393.06311035
150.85382080 198.68218994 379.81597900
114.57167816 197.76913452 365.09863281
94.57196045 189.19624329 472.49392700
167.77182007 231.21807861 487.13333130
104.02500916 220.92514038 472.20697021
62.58752823 163.54750061 410.89172363
154.85600281 202.19599915 486.22998047
191.36776733 260.20281982 426.88574219
188.29748535 240.32360840 477.54965210
107.82700348 159.18643188 369.14569092
78.59636688 115.64717102 456.97280884
104.04837799 131.85075378 441.95153809
111.55941772 232.85241699 439.81359863
54.46067047 150.28298950 447.05319214
195.62100220 187.18499756 418.31201172
101.82968140 85.72875214 423.61593628
62.41696548 120.25534821 399.85327148
163.08929443 150.86323547 418.10171509
118.75660706 170.93988037 435.50112915
105.52584076 223.45637512 374.14639282
144.77955627 188.04560852 449.53112793
57.65363693 172.72291565 480.39572144
182.20800781 157.58801270 419.96701050
159.38400269 165.42900085 449.82299805
111.58911133 184.33302307 464.55709839
174.55899048 235.75801086 393.39599609
73.05442810 168.20576477 510.92211914
122.04193115 84.13979340 411.16668701
92.19930267 188.60784912 372.63311768
91.31910706 228.58476257 407.09143066
197.10000610 207.72000122 396.07199097
75.38768005 111.80088806 391.50570679
150.49270630 190.86096191 429.06997681
112.16163635 123.49646759 381.91107178
70.84368896 98.70997620 422.02645874
78.63947296 191.72563171 423.95251465
63.81476593 140.27368164 394.71783447
62.10797119 127.34660339 485.26080322
155.51724243 251.83412170 406.74737549
132.60733032 139.34411621 380.79956055
62.55841827 179.85780334 496.59237671
67.85234833 175.17845154 394.72363281
76.59053802 147.64999390 381.65365601
59.60766983 171.72724915 445.54177856
156.60198975 178.89698792 408.24801636
134.73313904 108.31063080 394.85552979
93.92021179 223.15859985 430.27505493
181.61199951 203.18199158 390.74600220
109.60225677 242.72433472 400.45410156
204.38499451 226.82099915 396.20397949
217.66600037 261.25500488 426.10202026
115.65749359 201.93188477 481.92654419
172.74800110 214.03298950 463.63101196
185.86199951 220.75300598 479.65802002
202.87500000 253.93200684 398.91699219
98.38323975 167.58699036 491.24871826
188.71856689 260.09362793 410.74099731
155.75537109 164.72711182 387.49685669
188.88699341 158.72999573 435.20501709
90.23052979 83.55669403 411.09976196
90.17419434 211.92269897 469.14743042
81.44152069 197.84295654 498.78692627
88.39597321 211.71769714 441.66955566
129.23292542 112.22319794 418.97784424
135.46621704 179.26199341 462.16101074
174.19743347 216.29158020 494.95886230
95.70404816 138.60955811 474.12002563
78.35523224 198.29234314 439.10507202
153.05006409 134.15826416 423.10647583
84.67369843 125.67788696 472.26223755
99.65686798 95.64944458 392.69317627
91.59389496 172.56513977 370.93267822
162.36999512 223.38099670 391.35101318
86.07981110 174.14851379 503.50164795
168.05400085 198.80200195 441.20202637
64.92900848 175.37182617 421.78964233
89.82913208 219.64300537 384.61230469
61.26389313 121.53114319 462.73794556
202.64599609 233.81599426 483.29202271
57.07437134 148.03462219 419.73410034
171.30400085 176.83399963 419.61300659
220.12699890 254.54299927 404.11697388
76.01741028 165.15615845 378.76736450
79.42334747 202.79667664 408.66812134
82.05471802 140.52641296 502.46203613
184.94999695 205.89099121 430.37899780
124.36363983 156.29251099 373.47183228
134.65794373 247.53509521 423.56390381
108.61072540 110.04953766 428.90213013
206.76100159 233.69599915 436.15200806
218.84800720 241.62800598 441.63198853
56.15911102 133.48504639 449.52597046
93.81607056 96.71604156 433.38632202
220.03999329 225.79499817 398.64901733
123.44687653 193.77694702 468.80819702
96.24500275 144.39027405 372.23660278
169.91757202 248.21948242 452.31848145
135.87243652 208.73255920 369.35614014
76.56856537 125.66891479 494.35742188
146.70521545 183.88803101 373.92504883
159.84199524 203.03800964 471.92300415
144.49421692 237.20587158 388.09881592
211.27665710 250.82369995 459.94683838
144.69197083 105.60102844 409.78485107
122.15508270 184.69337463 368.02563477
115.57762909 243.54684448 420.87139893
60.87629700 149.64474487 503.01672363
164.03793335 141.74255371 400.31884766
148.51902771 206.43191528 496.73657227
165.12181091 252.53758240 430.36746216
224.33300781 243.36700439 412.98898315
175.11099243 183.93400574 446.41598511
102.82590485 140.75686646 454.22814941
139.88026428 221.31379700 491.14038086
194.55690002 256.22842407 442.03945923
74.94937134 198.11141968 471.57583618
85.60910797 198.55738831 382.23162842
54.53220367 150.73239136 471.04190063
152.49908447 148.59255981 388.69845581
170.55702209 251.00648499 400.69738770
90.55235291 122.16448212 445.82556152
154.13099670 216.21099854 430.92999268
153.92098999 160.83399963 434.04400635
151.23716736 159.49588013 458.48883057
126.01525879 245.73777771 393.79919434
66.11669159 106.23687744 435.83428955
156.37776184 236.31318665 470.75778198
204.12098694 202.97700500 408.09698486
156.79957581 120.59318542 411.54534912
121.34776306 94.49810791 399.31161499
108.20326233 193.40213013 453.11236572
122.33522797 155.58447266 457.51641846
115.37876892 233.38232422 382.58901978
155.72302246 166.03163147 405.63125610
194.19400024 237.48100281 394.08001709
192.10000610 173.62199402 410.80902100
133.19174194 222.91445923 477.90988159
201.50999451 230.40299988 468.64599609
121.58723450 234.77206421 450.74554443
131.96516418 95.92054749 417.38577271
132.64012146 222.73995972 374.82916260
189.11900330 221.95700073 449.39498901
59.23060608 149.31306458 404.33700562
158.93701172 190.83699036 389.63101196
108.25551605 211.30966187 367.00726318
78.48498535 90.82341003 410.43209839
149.45500183 175.08700562 447.40399170
110.38394165 227.21310425 460.51388550
57.77193451 127.47924042 424.17935181
92.84859467 198.78117371 489.52969360
85.46581268 121.29104614 384.40640259
184.30599976 194.51400757 420.76800537
112.05435181 163.08370972 470.61422729
143.90342712 163.82531738 467.81951904
89.49848175 220.16400146 417.34976196
142.87405396 247.27906799 436.37939453
187.41198730 165.95300293 446.39999390
143.06684875 169.31520081 379.10665894
58.69088364 175.32852173 466.29354858
174.71099854 216.56599426 391.33300781
162.56900024 170.72099304 435.97399902
94.99349976 203.19956970 478.05059814
67.08399963 109.38271332 452.58129883
222.36694336 256.79592896 443.91326904
94.13871002 146.33276367 489.85894775
72.06530762 193.43371582 490.35852051
178.39176941 257.36770630 425.72579956
234.11900330 246.89599609 404.46600342
160.30352783 128.91833496 400.90664673
117.17333984 170.62617493 370.00122070
137.01478577 227.40774536 467.03720093
221.04400635 230.91200256 411.32800293
98.86592102 191.18469238 460.52206421
170.96702576 152.44734192 407.45959473
144.74449158 148.59284973 444.48675537
74.04076385 192.88829041 449.83773804
200.65022278 243.80404663 474.54367065
174.19082642 237.55735779 478.77694702
197.28698730 182.66799927 430.20599365
86.17900085 104.19468689 441.22988892
131.49835205 125.55214691 426.70822144
158.30450439 215.21409607 379.19802856
155.28521729 225.82891846 489.56103516
115.32915497 212.29736328 489.84213257
192.21400452 195.84300232 409.73202515
166.52600098 171.83000183 462.33901978
106.79338837 112.56153107 386.00140381
140.97593689 250.13345337 413.70794678
180.64489746 246.08033752 461.17211914
147.09608459 188.29978943 437.61727905
90.37304688 211.90917969 456.73837280
142.61323547 121.06169128 392.56402588
122.36987305 131.42764282 378.83889771
179.12300110 197.15599060 401.68899536
175.87500000 184.21398926 407.70797729
151.84014893 228.48030090 383.98355103
72.95649719 186.20944214 397.35974121
197.91300964 220.88800049 424.18200684
85.01622009 101.13141632 390.13058472
101.53304291 182.44488525 484.41891479
154.69564819 160.13555908 415.06457520
165.24699402 208.52699280 492.27700806
226.02200317 251.08900452 422.50201416
120.72684479 115.74398041 385.64898682
85.99821472 139.76451111 377.97149658
73.51246643 95.87779236 433.90570068
133.60084534 188.12469482 450.88171387
205.31149292 261.62478638 426.69674683
157.59738159 242.57348633 458.37063599
108.50095367 121.45600128 433.80480957
133.40481567 143.56849670 442.23178101
55.12635040 159.47755432 479.64669800
126.63848877 205.50448608 490.94332886
99.66783905 235.95123291 401.83169556
104.18494415 145.06553650 467.60308838
116.15483093 226.58526611 472.12683105
105.63737488 96.19033813 428.26947021
103.30493927 197.35363770 370.07760620
135.25126648 200.08346558 470.37197876
216.69599915 240.53900146 458.47500610
202.70063782 253.66560364 451.02520752
62.84742737 160.74583435 507.00723267
150.65612793 246.65800476 395.45797729
170.64900208 170.59800720 444.89801025
117.61238861 176.12138367 471.78982544
132.47680664 239.90258789 447.80447388
216.29600525 218.54199219 408.89801025
206.56700134 232.43099976 422.65200806
220.01699829 261.72000122 413.49801636
136.54144287 184.99041748 437.86648560
86.96554565 204.17527771 392.58825684
77.83245850 121.34826660 483.46829224
124.87664032 131.54454041 434.27603149
143.33244324 243.84567261 447.63977051
60.09764481 123.42064667 412.69741821
123.32774353 183.17402649 462.16909790
75.36570740 98.30525208 396.25253296
186.49800110 215.38099670 436.90899658
115.23479462 144.93907166 451.94012451
112.31866455 82.87553406 417.46197510
162.90899658 191.85400391 433.61700439
81.76551056 162.84652710 505.67721558
176.12077332 228.19342041 495.67016602
160.08399963 180.59100342 457.32000732
155.90699768 191.62200928 449.20599365
96.37919617 215.23065186 478.49893188
140.94433594 133.70007324 385.91915894
185.97100830 186.73400879 444.30200195
56.96864700 137.26530457 477.64849854
89.27823639 224.45578003 395.12817383
65.54536438 175.95849609 506.90234375
101.29030609 227.93312073 438.38070679
55.16435623 149.62464905 433.23965454
62.74023056 173.83108521 434.71560669
115.83161163 239.10394287 432.01586914
114.26461792 130.78019714 437.09637451
184.26899719 178.52400208 401.89901733
95.31385040 88.54118347 400.49124146
69.24613953 113.60430908 463.06417847
124.38130188 205.42526245 365.30325317
106.43663025 240.82218933 413.01510620
168.09880066 251.30534363 441.53640747
150.30099487 196.27299500 459.94400024
196.12500000 184.60301208 407.38699341
119.07951355 225.18130493 373.98348999
194.54899597 168.74000549 436.36102295
70.31362152 191.10224915 464.05792236
104.62583160 184.62365723 472.00714111
59.77352905 138.55685425 493.64215088
133.56341553 182.72477722 369.27362061
108.86703491 220.08926392 482.40805054
103.36306763 169.44410706 368.31176758
56.74701691 129.21817017 438.95193481
100.19725037 220.49073792 459.56021118
68.04037476 167.32649231 386.79980469
170.90800476 198.76199341 393.92300415
180.40400696 218.58699036 455.37200928
165.74400330 183.44700623 412.66699219
66.81745148 141.76084900 508.35598755
130.38066101 162.17977905 461.47930908
69.34467316 122.53019714 391.40887451
93.75460052 198.83630371 466.65814209
179.01199341 169.04499817 418.41400146
225.24600220 240.22399902 400.99099731
83.64253998 93.29199982 437.16229248
70.34690094 184.60900879 424.84576416
155.14508057 249.55577087 434.82760620
65.32900238 175.31443787 405.47906494
126.02566528 147.46490479 451.13055420
143.55839539 129.00683594 424.71621704
131.70179749 191.38082886 460.58078003
221.31500244 245.84899902 431.30099487
108.84231567 228.38499451 449.48400879
140.35516357 230.68786621 379.94494629
193.93699646 226.98199463 484.70199585
141.44436646 146.38195801 382.59521484
55.01816559 145.98951721 457.05322266
164.88352966 225.06083679 498.43081665
85.38426208 210.56947327 414.80731201
181.39100647 218.24200439 468.40200806
61.05902863 124.92083740 474.77377319
130.54902649 250.68521118 402.67639160
144.69599915 215.50035095 503.15905762
59.83737946 120.42327881 431.94158936
114.80223083 197.85218811 461.82022095
231.70399475 260.07397461 422.36001587
189.41299438 163.38800049 414.72900391
167.87800598 206.62400818 448.37799072
161.62854004 140.98406982 421.26171875
132.72804260 173.28292847 442.40765381
83.34782410 113.15763092 447.77868652
63.54212952 111.64779663 412.72747803
149.89672852 209.28462219 380.36968994
85.64997864 184.72668457 502.63201904
105.28730774 162.34008789 483.41259766
59.69171524 130.31929016 400.94168091
128.19268799 147.14549255 375.59823608
61.81385803 181.30628967 486.14633179
146.24345398 232.73530579 469.86926270
159.29228210 253.09655762 417.93051147
60.10686493 163.63952637 421.20104980
153.20755005 201.11361694 430.45715332
85.44902802 125.22239685 461.76480103
103.00450134 81.09867859 413.08059692
120.28594971 109.96601868 423.59225464
78.25358582 192.90763855 411.55325317
183.00875854 251.56440735 448.66958618
176.78500366 200.54400635 434.77697754
183.62100220 177.47299194 448.47198486
159.76040649 173.59165955 395.61694336
56.61935043 137.38113403 421.34930420
111.21841431 93.82615662 396.81143188
116.93723297 241.09413147 391.43444824
189.96800232 198.99800110 395.53601074
144.60745239 106.63943481 399.50686646
147.26144409 140.68406677 433.65344238
193.04402161 236.27076721 487.23608398
131.46601868 163.85997009 375.55072021
132.05635071 235.26156616 461.41744995
97.41278076 160.09107971 371.78012085
143.86624146 199.33320618 371.58416748
180.90351868 256.08798218 405.40765381
83.71307373 172.68853760 377.70260620
102.39599609 136.56420898 376.38284302
83.02738953 205.96939087 473.29425049
157.71398926 184.13500977 398.21697998
114.76942444 151.47570801 371.49224854
205.22999573 214.85699463 396.16598511
198.77200317 177.52299500 418.36102295
56.98740768 152.78674316 492.59191895
69.85197449 141.29096985 386.45312500
97.79905701 121.23713684 438.90213013
145.80200195 179.47399902 460.15600586
93.58057404 191.09860229 482.17947388
170.50152588 144.02162170 415.46688843
196.13800049 219.69000244 396.08401489
189.94799805 214.14900208 427.33999634
129.97755432 217.30233765 489.82351685
188.17601013 186.62400818 428.34899902
109.51808167 189.29608154 369.75534058
100.03153992 121.36065674 383.29013062
124.86006927 88.01190948 420.07485962
105.85927582 234.86413574 431.10195923
203.83100891 244.28700256 396.16799927
64.36003876 163.44746399 400.88711548
78.56026459 191.15838623 383.15411377
224.33898926 217.14900208 401.32400513
92.43489838 83.11163330 421.48526001
58.05615234 171.83129883 456.86093140
97.27352905 157.68887329 492.52874756
194.97593689 257.29513550 403.56381226
153.17605591 187.52175903 382.70788574
158.30299377 195.49800110 424.45700073
99.08824158 226.79270935 381.10131836
68.16488647 110.12440491 398.29666138
184.05400085 232.97700500 393.64697266
189.02653503 245.13851929 467.72705078
168.65502930 243.04434204 394.56573486
182.28245544 235.91336060 485.84289551
145.42428589 202.82508850 487.14379883
159.44552612 201.37338257 381.22848511
179.41299438 242.72229004 470.39794922
206.23899841 203.05700684 398.47900391
195.70500183 227.08099365 455.71801758
124.41143036 244.62686157 425.99548340
162.73300171 205.66799927 480.93701172
66.80696106 126.39817810 494.18981934
124.66972351 228.70225525 477.49114990
200.37857056 259.18231201 434.33459473
191.55499268 160.58500671 425.62100220
61.44565582 181.76148987 474.01721191
83.66688538 202.01916504 431.65420532
55.90304565 159.90184021 446.45733643
78.24140930 88.88229370 420.55941772
120.73010254 237.42076111 441.36364746
123.28441620 202.23724365 476.22155762
148.57487488 114.64266205 410.59976196
171.01000977 188.91799927 438.10900879
106.59088135 157.45101929 475.13262939
74.08541870 134.26734924 505.67633057
156.74719238 231.57214355 480.22363281
83.11056519 201.69888306 419.20559692
216.41265869 254.36860657 450.85330200
118.28472900 161.74827576 463.13888550
85.49559784 219.22535706 407.29669189
136.27920532 108.04217529 413.82678223
151.36178589 126.00101471 395.51501465
112.29376221 133.31379700 377.61178589
138.70333862 203.82333374 493.58303833
187.41500854 210.17601013 393.78399658
94.60681915 228.85829163 416.35104370
90.17219543 210.19389343 381.52258301
173.83599854 225.77600098 393.79299927
150.43376160 156.03555298 384.38790894
143.20162964 178.18235779 447.95571899
168.43501282 209.52700806 470.93298340
181.94999695 163.14299011 429.18899536
104.15136719 204.42971802 481.73709106
125.12528992 195.98213196 364.53427124
126.76567078 101.52456665 395.32781982
115.94949341 87.30451965 404.61581421
113.96284485 245.87557983 408.64651489
209.91900635 258.63800049 405.16201782
102.42071533 104.25096893 388.07040405
205.65499878 213.69999695 413.25500488
197.21600342 197.34999084 401.39898682
130.03459167 114.53280640 389.91207886
152.76699829 181.61000061 437.66400146
151.03527832 174.96595764 380.05761719
78.94860840 155.86984253 375.52578735
150.98204041 125.59242249 418.15667725
193.27899170 225.01899719 475.52801514
126.54070282 176.67169189 432.91165161
156.71501160 165.99499512 466.10900879
64.52306366 179.69374084 446.05239868
87.89687347 141.39143372 495.29837036
71.92903137 155.57466125 383.25903320
98.35444641 181.63307190 367.82473755
95.16335297 196.55322266 376.55520630
208.42201233 235.18299866 464.56799316
73.65653992 197.04177856 481.99160767
144.77267456 212.94546509 427.16369629
85.06774902 110.87140656 386.96499634
58.36403275 170.79081726 491.21902466
169.23922729 255.44244385 422.15011597
85.77828217 130.85644531 380.23690796
212.80300903 232.05499268 415.45199585
109.59680176 235.38771057 390.64047241
67.05984497 131.89732361 392.66989136
90.12215424 165.93634033 498.80203247
83.78250122 150.65260315 503.59683228
78.33168793 177.81086731 509.41448975
93.97164154 138.97146606 483.10885620
84.85657501 206.01614380 464.05105591
135.67658997 241.48214722 387.77871704
152.65834045 154.08749390 448.02914429
86.64358521 180.16661072 372.64010620
97.89582825 133.20791626 448.30474854
145.15132141 250.68583679 406.02587891
213.23600769 249.21000671 399.53198242
78.79021454 118.86852264 465.73056030
139.58238220 98.63013458 412.89334106
91.20732117 131.94692993 469.41522217
74.65607452 192.07356262 500.64886475
57.10522461 129.96842957 458.03219604
94.07235718 220.32243347 438.90344238
96.71299744 216.72842407 375.74795532
213.02700806 237.44000244 450.29000854
158.81781006 249.13043213 398.37026978
100.30603790 103.21257782 430.95980835
129.90498352 88.63617706 407.76300049
89.15576172 193.52218628 496.44427490
162.65658569 163.54721069 393.53149414
170.12199402 212.78900146 454.68597412
212.07901001 221.39700317 398.88000488
132.19309998 249.64175415 414.32568359
147.12583923 199.44752502 473.60989380
67.76187134 187.23367310 496.62286377
202.97605896 246.62947083 465.99316406
117.81659698 246.15173340 399.34262085
160.90438843 157.38949585 406.69699097
164.23117065 232.73710632 390.21533203
160.83499146 199.10598755 446.98699951
162.47099304 173.92100525 450.30700684
182.07600403 219.46301270 487.76699829
66.96724701 103.64965820 415.53433228
55.24366379 141.61042786 444.78601074
93.26029205 88.72958374 429.20382690
140.48030090 179.91595459 433.74993896
160.63499451 211.62899780 426.76898193
80.55014801 203.72612000 398.83499146
179.26399231 243.54901123 396.13598633
60.76947784 119.24105072 452.92813110
181.55705261 259.09088135 415.52822876
104.04077911 149.03062439 370.81796265
113.29661560 186.31018066 455.05838013
74.83050537 193.36329651 402.47457886
84.86116791 148.88165283 374.25518799
165.63800049 174.14900208 428.30599976
213.66000366 239.52400208 434.68499756
84.48359680 203.63710022 491.74362183
117.00342560 231.78132629 457.34124756
164.43157959 235.74626160 476.20904541
74.21914673 181.18005371 390.08480835
160.13087463 127.84912872 416.08334351
162.07299805 206.07299805 463.89898682
74.93058014 172.53544617 384.72067261
115.44396973 207.01281738 363.66510010
110.12091064 137.58241272 444.81130981
182.01200867 207.03700256 438.60501099
142.89605713 210.57188416 374.77966309
219.97875977 259.45657349 434.10754395
60.95299149 168.05368042 502.59960938
226.91500854 249.33200073 443.61099243
113.58338928 89.64541626 423.41397095
98.74880981 230.44702148 428.24893188
136.69441223 243.54492188 440.55316162
94.47264862 174.68923950 494.65853882
102.43480682 173.56813049 485.24005127
155.07798767 194.43400574 436.67501831
158.62916565 146.52151489 396.06030273
166.23240662 214.97224426 499.78784180
75.34002686 158.68917847 511.21865845
180.57400513 163.90199280 411.50500488
195.21253967 261.59045410 416.60006714
180.76600647 168.44000244 441.43499756
201.63600159 229.25199890 430.81399536
109.56909943 202.45411682 475.26593018
116.97879791 198.16213989 470.89874268
187.45799255 202.26899719 422.79602051
211.37500000 231.45899963 398.10198975
116.36863708 161.63548279 369.94598389
55.75969696 165.37437439 471.12460327
202.22698975 235.26300049 396.12500000
84.71104431 191.69331360 377.08218384
146.92388916 221.35527039 496.95999146
169.37335205 140.75811768 407.32089233
190.96900940 186.34599304 437.36700439
230.80499268 248.88198853 412.12500000
86.02812195 208.12290955 450.13577271
67.74035645 148.91960144 389.55056763
228.46600342 225.09098816 403.55200195
147.91273499 140.64668274 387.97604370
174.27299500 207.13398743 388.93099976
77.22133636 106.95364380 450.28118896
90.56845093 212.85441589 432.10214233
111.76895142 218.92544556 368.66470337
127.87531281 184.83041382 455.12145996
58.00856018 165.90417480 439.45843506
158.13090515 120.06688690 402.64178467
142.78668213 191.11769104 456.72964478
176.99000549 177.18699646 412.39199829
54.87592697 154.34280396 458.65332031
178.95199585 215.83700562 479.10299683
160.26457214 148.61323547 426.09106445
75.59552002 194.60060120 458.53155518
104.29819489 127.71923828 379.40719604
167.15438843 216.34501648 387.54336548
166.29504395 253.87141418 407.75036621
168.06800842 179.28999329 445.91998291
103.16844940 198.88436890 458.65841675
77.35844421 139.33941650 382.01852417
74.78253174 190.94372559 431.34848022
193.88499451 227.82499695 396.08099365
155.78700256 162.99299622 442.60598755
80.18141937 200.34143066 447.14529419
89.39865875 209.74067688 478.21182251
64.11570740 172.05981445 413.16958618
71.99612427 96.20832825 406.24752808
58.40488052 152.61195374 412.08361816
94.37407684 231.08186340 397.33343506
154.56800842 171.75300598 415.88299561
144.38801575 248.19783020 428.36242676
125.21295166 229.40733337 378.15023804
129.46357727 173.91809082 460.95452881
95.03488922 207.57232666 485.70523071
157.62615967 155.48873901 391.07482910
142.11518860 200.75065613 477.94119263
141.39057922 170.99475098 463.95822144
151.64930725 199.48736572 467.59912109
194.34790039 252.89106750 450.44570923
85.67144775 88.92529297 406.65762329
126.38751984 102.10056305 417.85202026
122.91921997 124.59033203 383.13952637
73.19539642 191.07997131 439.96719360
141.81512451 113.23540497 395.03543091
90.29058838 165.00411987 373.86523438
68.14105988 104.64575195 443.98620605
150.99157715 210.98054504 424.18927002
92.42229462 215.76782227 450.03158569
209.80801392 209.07800293 407.81201172
100.67443085 203.54827881 471.02420044
163.68600464 198.12899780 387.49600220
68.13304901 120.24187469 481.54330444
63.76878738 113.56777191 404.41021729
77.29213715 123.13971710 386.87976074
162.13500977 185.96499634 405.72900391
101.49707031 189.15417480 372.15628052
97.50617981 217.35211182 466.32022095
178.48199463 194.53700256 427.23101807
146.88989258 212.54711914 436.46899414
66.81658173 179.41722107 430.32464600
94.59307861 101.57232666 389.18872070
79.37471771 132.22735596 499.79959106
97.91519928 145.58445740 478.56829834
213.14799500 262.26300049 417.88699341
132.73701477 201.33250427 364.86868286
207.92900085 239.75000000 478.84100342
110.35619354 205.12905884 487.21734619
102.36237335 116.28405762 433.75714111
84.60707092 121.78597260 454.30676270
62.19077301 113.85879517 436.69219971
59.74491501 139.98623657 401.86718750
226.33399963 259.18200684 408.74697876
106.45911407 230.29777527 381.53723145
196.70700073 248.15699768 395.90298462
145.50193787 128.73291016 390.71386719
90.05666351 215.70254517 424.05801392
66.69341278 183.44909668 504.12130737
148.80920410 192.07287598 375.66821289
85.69284821 209.02938843 406.75576782
157.22314453 206.09460449 491.80145264
157.58441162 211.39825439 500.49316406
86.81802368 213.99703979 389.57711792
142.27120972 190.38394165 369.12600708
163.30499268 177.73300171 419.00900269
135.94560242 119.20976257 419.70318604
111.24760437 180.11935425 473.55151367
56.11406708 161.90737915 487.79058838
215.16941833 246.26055908 465.58233643
134.96894836 101.19831085 398.54852295
98.82450867 235.92697144 409.94979858
150.96356201 238.25804138 464.05749512
156.01719666 140.99732971 427.46813965
131.20112610 130.04714966 382.29034424
131.71595764 230.08636475 471.99746704
145.01780701 224.60964966 486.30065918
139.19493103 177.99354553 373.32656860
199.31300354 228.53199768 440.04101562
175.29800415 204.43899536 441.99801636
226.30799866 236.54901123 409.36898804
96.53634644 152.31121826 372.03372192
161.73486328 247.31591797 449.98822021
184.34451294 257.25308228 431.41470337
61.87424850 141.92732239 501.56115723
165.47200012 188.62899780 443.76901245
182.59399414 217.61799622 446.23397827
69.26366425 182.43113708 417.07748413
227.49899292 251.70698547 403.72100830
78.17321777 120.60731506 475.18835449
151.62500000 180.77600098 454.99102783
162.66221619 126.79338074 408.20742798
83.43744659 85.48660278 414.68811035
173.48599243 213.10000610 487.98800659
109.31085205 165.18460083 477.85952759
110.07895660 102.58092499 426.72506714
97.09197998 137.08172607 460.98162842
146.32278442 163.38165283 381.81552124
220.93998718 243.27301025 449.85397339
132.97981262 245.61485291 431.55041504
77.81152344 145.16119385 507.61325073
131.88337708 215.78262329 371.20532227
123.08309174 141.20234680 377.16967773
58.40639114 125.35187531 448.70901489
107.99635315 99.94762421 391.22552490
59.49660492 156.99142456 500.69070435
144.17855835 154.41275024 454.50057983
158.71800232 162.87199402 457.13601685
198.98300171 214.53399658 417.14501953
196.25230408 239.83389282 481.30715942
66.60929108 155.41191101 511.18206787
142.67176819 243.55856323 392.26623535
129.63729858 152.89880371 456.41378784
169.12400818 170.76399231 455.12301636
64.92722321 186.90631104 469.49902344
101.28754425 212.69384766 370.79608154
139.79226685 227.60919189 475.38693237
65.95555878 107.15622711 422.66522217
108.47613525 202.63575745 366.16726685
155.91328430 155.87860107 420.02487183
157.54577637 230.09333801 389.21292114
89.01182556 112.41019440 442.60836792
223.41799927 261.59201050 420.97100830
175.79670715 232.45208740 489.24005127
122.66403198 212.43699646 487.33673096
93.74900818 104.30789948 435.17416382
126.29833984 117.62651062 423.86044312
64.78023529 167.27854919 393.83813477
106.76995087 186.74179077 458.73596191
200.14266968 250.47912598 458.80114746
181.05000305 187.83999634 403.36599731
132.87852478 229.76065063 378.53640747
132.38389587 155.27976990 376.59112549
62.63355255 154.43754578 398.38128662
68.94596100 185.76579285 447.59509277
157.52024841 222.51145935 381.87777710
59.41909409 134.40258789 487.18377686
148.66578674 242.05183411 453.84231567
77.71152496 90.62294769 429.66171265
115.94232941 195.17417908 454.71362305
175.08299255 175.96900940 448.77999878
94.03920746 138.21875000 376.05996704
175.42100525 214.47200012 471.22897339
116.40381622 190.52545166 366.45715332
56.93695450 130.86195374 431.44766235
123.93778992 168.53890991 373.61370850
124.23785400 240.67782593 388.13174438
129.85261536 95.66571045 400.48059082
199.89199829 259.69897461 409.07601929
58.29623413 129.69848633 469.56607056
60.49225998 157.01210022 406.21630859
75.86785889 188.07601929 417.75595093
165.14144897 244.27087402 459.00085449
185.79701233 171.06799316 451.86001587
219.86801147 244.84500122 420.42199707
124.22006989 177.83180237 372.13677979
232.88899231 239.54200745 407.18002319
79.49518585 170.58573914 507.45190430
165.65744019 133.45750427 404.46127319
92.70186615 118.96951294 382.57745361
69.55863953 100.47378540 429.47003174
115.77008057 181.76435852 370.86123657
222.97399902 232.71800232 398.41799927
113.35491943 170.05358887 474.14233398
152.19262695 251.82580566 414.74978638
142.74562073 100.77400208 404.20544434
124.68621063 168.30676270 433.42739868
82.26754761 127.29455566 489.82748413
138.26087952 217.02485657 497.96292114
98.19454193 82.90907288 407.66275024
222.46800232 223.84199524 407.85299683
104.26483154 90.91369629 397.68762207
77.84712219 199.46759033 492.37594604
161.68299866 194.43798828 440.99499512
187.62899780 221.26199341 471.17297363
128.08576965 220.72711182 482.71859741
187.99600220 241.58599854 393.47900391
102.18917847 216.70599365 483.15994263
202.86988831 256.55682373 444.16906738
190.50399780 222.36700439 442.09500122
105.87212372 144.84930420 459.92156982
115.35353851 115.98869324 429.68832397
173.26199341 173.49000549 427.48498535
65.04605865 118.39256287 470.71041870
157.81599426 186.66499329 435.65499878
133.12281799 247.71578979 394.42608643
106.19071960 181.49241638 478.53506470
74.71688080 190.65682983 390.62887573
108.69718170 154.51127625 468.11755371
116.27339172 152.76075745 457.87066650
190.62699890 192.27400208 416.38897705
220.82600403 247.75000000 401.31301880
185.95782471 254.26089478 442.16860962
69.62112427 179.64480591 400.35238647
55.39522171 143.77943420 466.07705688
174.25399780 193.12300110 405.42501831
197.05200195 173.37800598 431.24899292
73.43219757 110.50212860 456.20889282
197.69799805 201.47299194 411.31100464
155.24879456 170.91656494 405.06625366
169.38699341 195.20899963 434.34500122
122.12528229 176.78561401 467.27587891
212.85502625 260.27905273 431.93515015
199.14500427 228.75900269 449.47100830
179.48402405 221.14280701 494.26089478
77.98767853 199.12666321 463.89361572
161.77900696 190.50000000 396.36999512
54.58308029 157.00103760 467.29702759
137.96231079 163.67991638 380.05963135
160.96197510 240.07214355 467.00442505
173.96319580 255.25778198 407.37622070
131.46241760 135.65045166 435.80957031
208.77900696 235.34199524 428.96499634
136.70593262 250.98165894 407.16668701
154.60624695 209.07595825 431.44226074
92.45125580 94.22676849 393.32897949
155.97100830 201.54400635 461.26101685
103.38405609 149.22070312 473.61080933
92.84630585 224.15327454 422.70568848
186.36499023 168.53800964 410.58499146
140.62849426 114.07396698 413.86520386
77.46920013 201.60513306 477.95831299
109.85825348 165.83164978 367.36978149
225.91899109 260.09802246 430.12600708
69.91880798 193.08651733 472.48352051
215.62899780 226.09399414 411.35800171
157.82031250 134.63223267 397.54721069
70.91059113 175.92716980 511.77221680
187.97549438 256.63592529 403.72692871
129.60163879 200.81913757 473.90750122
154.30299377 197.06900024 453.68701172
152.62112427 235.15945435 390.54187012
167.18412781 148.42985535 401.21578979
172.17329407 254.10992432 432.10638428
72.61858368 127.17148590 500.19961548
176.97434998 249.65786743 451.74887085
84.21827698 134.27862549 494.96472168
149.24586487 109.11701965 405.39947510
156.38899231 176.50300598 446.10000610
201.96301270 226.77500916 423.36401367
79.50529480 91.18107605 402.85772705
139.48303223 141.61987305 438.65270996
147.92913818 134.64588928 428.39855957
89.08455658 204.05474854 385.29791260
99.09057617 93.53845978 429.07122803
85.66304779 207.30291748 436.48571777
139.17930603 125.65447235 388.00576782
184.96798706 162.80999756 440.06698608
66.20610809 169.01669312 509.02856445
190.81900024 172.34199524 445.42398071
72.63320923 121.90032196 489.67044067
79.00742340 104.41427612 392.14691162
195.07299805 191.19999695 404.32800293
114.44035339 232.42085266 448.40475464
206.39399719 233.55799866 443.27700806
55.83390427 136.97308350 457.63546753
129.52220154 194.68922424 465.87689209
209.02400208 235.17199707 457.46899414
125.88521576 221.24549866 372.72128296
165.63964844 254.78103638 415.72167969
89.43410492 205.86251831 486.99581909
127.58280182 188.60536194 365.66934204
64.55792999 110.56514740 446.00881958
65.79891968 187.06195068 487.18270874
146.71632385 232.89326477 382.97253418
185.62809753 249.52693176 455.24157715
108.95087433 215.40928650 489.27035522
61.95301056 168.98538208 425.50442505
59.61484528 121.56452179 419.58764648
185.29100037 157.29600525 426.99099731
124.60279846 107.16107941 391.83258057
83.83397675 205.99372864 443.62789917
79.58319092 195.93017578 429.86804199
104.60900116 221.98661804 465.17388916
177.66363525 251.41668701 400.94854736
172.12062073 222.99215698 499.99395752
216.67599487 237.86599731 414.39501953
118.87972260 246.60636902 415.69131470
156.61399841 201.50700378 478.00100708
136.43182373 158.37933350 461.11416626
133.88629150 179.44680786 439.63500977
202.23820496 262.37997437 420.46145630
91.75531769 195.72077942 473.36294556
56.08951950 165.51133728 454.47634888
178.08300781 189.08099365 442.66098022
220.23699951 246.72900391 460.89300537
156.65075684 250.91352844 428.22793579
107.85303497 238.27189636 425.48934937
169.47779846 150.93710327 414.18478394
216.20726013 257.94421387 440.28100586
62.18635559 181.25053406 465.15591431
202.83299255 231.24900818 458.09399414
160.21699524 202.71499634 426.24099731
196.42784119 245.56710815 467.84786987
97.12683105 83.63113403 416.24005127
124.31059265 163.68231201 459.46261597
98.96612549 140.87554932 468.51840210
140.88803101 209.53082275 502.15173340
91.99472809 149.66217041 495.62414551
146.82540894 203.62446594 376.31549072
168.26206970 157.14338684 401.98892212
86.09999847 220.67872620 400.23745728
154.05177307 170.89437866 385.17849731
104.00926971 125.09780884 437.64746094
188.87205505 260.57476807 418.78195190
154.82049561 154.15478516 433.20733643
79.09168243 153.89799500 507.53396606
225.19950867 254.41944885 449.93426514
116.39228058 104.09243011 424.44329834
82.06387329 184.60664368 376.79135132
147.08065796 246.74945068 442.61154175
160.40199280 172.04299927 465.56100464
135.53656006 148.32089233 379.16586304
113.36161804 110.40361023 386.69604492
102.00182343 186.28190613 465.76528931
196.99299622 227.47599792 464.30297852
94.18229675 227.23799133 386.03686523
150.09945679 250.47329712 401.44940186
205.24099731 233.83999634 476.47601318
105.32606506 240.91677856 406.04849243
57.56531906 131.20829773 416.75274658
173.88000488 244.54862976 461.51000977
69.30998230 187.56965637 454.85156250
96.30040741 126.81035614 442.84848022
104.42174530 238.17378235 397.43441772
140.46199036 212.62896729 430.40118408
67.90304565 162.38400269 511.39236450
191.02400208 178.15199280 405.74700928
149.78771973 148.37745667 440.92593384
229.29400635 255.67201233 442.48101807
162.73254395 244.46354675 395.08654785
112.36170959 82.52584839 410.58737183
193.11000061 219.96499634 430.39599609
160.48532104 208.72547913 380.29821777
64.00252533 126.74665833 396.06277466
76.57025909 95.61015320 440.03741455
55.47706223 142.92805481 474.12780762
89.22465515 126.37258911 452.59133911
155.28500366 190.50900269 442.48800659
103.70893860 224.25579834 455.43975830
149.11178589 219.16183472 431.15890503
155.06150818 244.66935730 451.97857666
162.37417603 227.31500244 490.24786377
137.77493286 218.36315918 375.89593506
86.32680511 129.15348816 482.09020996
209.26652527 254.70515442 449.50860596
55.19515991 153.33250427 482.50726318
216.81199646 259.59899902 407.88598633
120.18031311 99.37256622 394.76538086
119.78934479 134.61390686 438.24096680
70.05181885 100.63399506 438.72525024
127.33995819 210.38214111 496.44445801
92.67153931 200.44535828 483.01290894
228.84799194 261.05099487 415.63998413
57.79787827 141.25747681 411.61367798
167.24800110 209.76300049 461.51400757
181.07099915 212.56900024 393.44998169
141.29702759 232.74252319 463.30883789
147.29142761 226.60963440 379.11248779
90.02458954 177.11767578 498.96386719
114.68501282 223.85647583 477.99346924
119.40093994 127.68970490 433.20605469
123.95806885 248.73269653 400.35559082
135.25286865 148.84063721 449.84091187
135.98963928 237.30783081 454.34307861
155.81298828 178.05000305 400.44900513
67.97547913 117.16775513 395.29779053
195.70899963 190.65499878 412.24398804
58.69392395 145.09774780 494.73922729
152.02359009 182.08889771 378.90325928
115.20020294 218.76496887 487.90289307
172.43600464 171.25199890 438.43902588
70.23617554 98.09805298 413.62136841
189.45201111 200.51600647 416.62298584
110.55444336 174.18661499 367.12826538
149.54605103 185.51058960 447.26388550
180.21051025 239.48027039 476.75735474
138.85285950 185.12715149 447.80978394
109.80894470 224.24192810 471.21112061
83.89601898 164.11151123 376.06896973
98.45055389 186.62170410 477.41448975
124.87197113 174.60879517 437.79025269
163.13218689 251.31365967 436.22833252
161.78271484 160.82493591 401.54458618
97.51278687 198.16024780 461.47042847
57.79091263 155.22261047 418.25567627
125.81099701 138.74645996 439.68292236
114.32912445 228.37522888 377.46484375
127.31036377 235.74349976 454.82986450
117.53678894 169.25962830 470.00228882
94.57357025 192.17224121 465.11788940
126.34478760 205.15321350 482.10433960
230.48300171 254.52101135 417.30999756
148.97691345 186.65632629 432.33660889
211.11700439 204.58999634 403.10498047
95.07106781 216.63356018 457.07901001
80.42517853 198.38481140 386.42108154
185.55599976 173.86401367 406.42898560
193.00199890 162.76200867 431.94100952
61.70260620 178.11695862 454.52267456
153.02613831 161.77099609 424.82925415
74.82089233 93.02717590 415.53097534
155.76000977 166.88699341 432.16101074
82.97689056 198.94862366 425.29086304
90.02272797 224.09718323 412.11056519
150.88400269 170.15998840 468.57299805
125.25502014 248.02986145 416.23510742
175.25199890 216.24598694 452.01400757
191.80000305 252.20999146 399.11999512
58.78945541 122.62241364 440.74652100
124.99345398 94.57123566 420.65695190
122.13020325 89.66322327 403.90518188
129.34117126 88.14804840 414.33267212
185.35700989 220.92900085 459.98199463
219.76600647 214.40400696 405.14901733
54.84789658 154.78779602 452.03561401
162.67399597 166.55799866 460.83898926
136.78256226 164.86318970 463.88253784
180.03399658 164.32200623 422.82000732
227.45298767 230.17199707 408.56600952
106.42848206 141.18844604 373.92883301
197.42700195 178.34199524 435.45898438
138.62599182 202.40237427 368.06027222
110.25801086 146.25518799 456.17333984
214.79899597 239.85899353 464.96899414
123.80049896 162.50209045 371.75198364
93.48419189 202.71365356 377.68380737
164.25100708 169.47799683 442.13000488
55.65417099 144.75181580 425.21728516
197.73800659 228.67900085 479.71600342
74.12255096 186.57800293 403.80914307
82.03558350 105.33355713 446.12332153
97.01086426 168.24249268 369.84274292
56.23812866 166.58630371 483.32995605
155.57501221 176.22000122 452.52200317
135.72291565 196.22988892 464.46447754
119.26016998 83.99459839 417.07168579
143.31021118 249.25245667 421.80844116
81.77344513 96.69873810 393.67404175
65.37779236 147.82752991 510.10443115
113.08303833 117.74474335 384.44033813
208.12579346 245.27262878 470.41635132
108.14172363 85.35684204 422.17691040
126.88925934 211.34101868 365.94818115
185.51499939 194.40600586 401.69799805
182.93177795 232.67779541 491.38659668
117.87882233 146.67161560 374.50506592
199.14401245 208.58601379 414.30700684
169.80513000 228.14556885 492.88308716
81.22291565 189.11262512 504.32730103
73.46461487 104.39248657 395.65466309
117.26834869 182.94935608 467.82778931
79.47507477 117.16515350 387.07434082
138.53193665 131.08944702 427.89959717
63.72475052 115.12068176 456.83413696
91.06626892 125.41870880 381.66931152
125.32177734 190.92198181 458.94207764
165.60800171 175.74099731 457.08999634
55.67641068 134.36042786 442.65646362
193.23399353 224.91600037 469.12899780
144.33219910 175.45046997 377.17861938
211.18800354 236.99000549 440.01199341
103.78039551 206.49107361 368.48999023
145.16117859 158.81584167 461.91680908
153.61436462 113.93344879 406.37072754
84.52865601 84.10964203 420.84475708
140.19329834 124.23348236 421.31765747
154.59449768 205.42250061 378.63415527
228.79699707 234.27499390 401.20700073
153.26899719 166.14100647 421.40798950
93.67721558 128.57931519 448.67465210
189.17199707 208.32901001 424.85897827
73.70672607 94.95115662 427.30474854
151.18084717 221.35993958 380.02453613
189.79461670 256.61026001 437.55923462
58.91241837 175.08494568 486.22848511
141.69505310 139.79606628 384.86013794
57.04888916 139.56257629 483.62356567
105.62802887 90.58425140 425.26766968
165.61399841 208.40100098 455.50601196
136.08903503 116.76179504 391.26757812
133.85557556 202.31353760 488.91842651
218.72999573 218.57299805 398.74700928
98.32761383 151.02345276 486.45095825
113.39048004 125.29939270 433.49850464
112.89773560 223.74925232 372.70349121
187.31300354 222.93899536 487.09899902
142.80325317 185.14758301 441.52725220
108.91478729 195.38716125 367.55554199
131.75939941 179.62442017 432.88833618
63.39607239 148.38233948 394.20581055
226.86299133 249.68400574 435.08801270
63.13639832 112.74195099 430.47113037
139.03553772 146.69560242 444.13439941
57.64958191 173.06535339 474.05728149
86.74010468 207.81030273 399.66198730
100.82939911 141.88786316 462.64669800
104.27802277 218.22994995 370.56658936
93.14046478 178.62553406 369.91470337
150.45138550 240.90333557 392.40142822
183.12699890 200.02999878 426.76800537
125.53326416 124.83549500 427.71768188
137.21807861 190.57577515 458.02536011
174.47500610 174.00999451 460.39102173
159.50164795 205.93835449 486.86526489
90.53250122 139.04789734 490.12765503
141.34230042 174.04850769 438.11248779
130.66871643 131.03886414 430.96786499
156.16159058 140.69902039 394.59375000
55.45404816 153.98773193 442.07174683
80.72572327 194.99423218 419.16390991
139.86933899 185.17218018 371.23718262
117.23427582 137.72915649 375.97460938
89.02073669 200.39978027 494.73086548
102.94722748 192.29510498 456.48596191
160.81767273 252.84713745 424.15161133
192.83868408 258.50363159 432.64050293
173.98931885 240.52679443 472.24682617
54.80697250 145.10583496 439.59857178
189.13800049 188.61399841 422.52001953
151.15211487 211.69017029 502.58700562
107.29692078 140.51191711 449.42953491
198.27400208 181.79998779 422.86599731
194.21699524 213.23699951 396.05599976
123.22452545 235.34509277 383.22875977
69.07882690 191.57226562 484.63412476
158.67417908 132.75663757 420.08935547
196.23599243 171.87599182 417.74899292
148.97348022 120.35244751 414.85192871
131.14811707 169.85752869 436.30307007
66.03573608 179.17048645 436.69735718
194.01000977 214.76800537 422.67599487
162.93179321 221.10427856 503.07534790
94.94363403 222.18838501 380.43875122
199.08514404 261.16906738 426.82315063
102.58350372 136.28215027 446.30426025
55.95331955 155.42973328 435.24423218
122.36094666 239.71093750 436.11456299
120.45727539 110.40385437 388.76391602
87.09282684 89.82125854 433.26898193
60.12915421 124.16344452 404.08657837
93.70600128 218.42121887 444.80484009
136.13740540 234.79206848 381.49392700
127.08093262 237.51536560 448.96960449
181.58399963 225.64099121 393.67102051
106.79106903 229.42726135 441.30761719
134.61375427 222.05902100 483.94363403
60.57325745 174.04443359 496.38061523
64.58242798 171.67224121 400.50289917
71.65693665 161.83462524 381.68667603
102.58796692 108.89691925 430.88342285
110.06816101 105.52284241 388.92794800
193.86898804 229.69599915 490.23699951
92.08309174 86.61459351 406.03042603
145.19271851 152.42303467 382.09603882
118.75498199 184.70137024 457.59387207
180.92900085 169.96400452 448.25698853
212.30499268 261.42697144 411.85098267
72.89176941 141.65312195 509.18292236
91.17891693 133.10105896 475.45486450
134.07493591 170.04924011 460.42083740
228.29499817 245.08300781 403.87899780
69.86204529 182.11430359 509.20956421
216.69116211 251.99668884 457.32562256
129.53491211 182.23851013 461.12667847
56.13875198 151.95948792 427.61486816
165.52760315 138.22770691 417.05798340
120.68811035 207.09091187 484.69302368
152.75099182 199.19699097 425.06097412
83.94472504 157.10064697 505.40499878
97.85731506 217.09274292 472.40603638
193.84999084 225.06399536 446.42098999
158.08999634 197.58500671 432.41699219
130.01072693 242.58274841 389.48751831
148.61026001 179.07238770 441.69586182
168.21899414 228.27301025 393.05499268
138.60063171 227.67054749 461.43954468
73.42116547 115.56194305 467.10098267
119.65402985 201.11636353 364.36605835
140.32395935 225.15406799 377.28979492
198.39900208 241.69400024 395.38198853
151.36659241 227.96664429 485.00024414
159.41128540 224.74754333 494.80615234
99.55701447 178.19564819 488.15841675
156.48089600 184.62724304 388.78927612
195.91200256 178.30400085 410.42398071
175.82600403 217.03599548 459.00698853
182.82891846 226.13810730 495.42773438
203.70500183 207.87001038 395.83700562
85.55769348 190.73345947 500.51086426
80.29189301 132.93212891 381.90716553
98.48212433 136.58161926 453.40158081
210.81599426 215.32598877 410.57501221
210.86599731 235.75599670 419.81100464
136.65383911 93.70159149 410.92001343
191.64498901 195.13800049 399.85202026
57.05758667 170.69073486 462.75805664
58.20588303 131.67178345 475.82626343
140.65414429 178.60447693 460.51901245
169.93959045 234.57980347 483.02435303
65.23281860 105.87038422 410.21386719
190.76800537 164.15100098 440.84399414
231.75999451 258.85498047 429.51199341
180.47200012 182.73199463 448.83401489
76.06165314 198.94230652 404.33871460
75.65415192 194.98445129 444.49481201
97.12811279 186.38154602 485.36764526
155.24600220 159.71900940 450.38400269
163.94107056 238.29676819 392.36248779
182.24800110 199.30000305 397.04598999
120.69567871 242.80278015 429.89361572
61.36035919 154.94757080 506.01171875
126.52866364 239.04829407 441.98739624
120.28699493 210.59304810 364.35910034
145.61499023 181.77999878 454.63299561
159.27000427 178.49800110 413.58898926
93.16538239 133.63053894 463.46600342
170.30599976 221.91099548 390.90298462
152.69999695 216.00694275 377.45642090
75.94171906 186.68788147 386.27859497
175.09700012 194.02400208 432.12701416
189.61000061 183.82998657 401.16799927
93.70639801 116.73755646 439.61614990
197.39801025 184.60699463 413.22100830
93.10737610 193.18971252 491.58035278
211.22534180 261.79254150 426.03155518
155.54699707 214.42199707 424.13601685
185.04800415 188.66699219 437.16101074
150.12625122 212.66775513 433.57827759
58.66024780 125.00470734 454.71636963
165.69580078 239.18908691 471.37811279
160.27392578 167.85054016 392.60794067
97.22765350 223.48760986 443.08660889
101.62789917 167.66625977 486.24114990
138.34547424 172.72566223 443.13211060
183.89900208 190.37200928 426.64599609
173.35900879 197.24600220 400.28100586
105.65867615 238.51957703 419.02124023
72.05882263 135.49070740 386.65203857
173.54107666 245.80137634 396.49026489
147.40835571 120.46723175 396.08547974
115.46500397 137.68389893 442.83987427
131.85969543 206.42695618 497.03100586
191.38699341 245.55200195 396.25900269
82.72666931 205.31156921 414.27441406
137.93931580 249.07577515 418.47772217
114.17033386 227.66365051 465.29809570
178.29400635 170.77799988 424.01098633
72.12570953 175.71142578 389.52697754
97.07548523 231.31289673 421.32919312
229.01199341 253.11401367 427.14898682
102.02542877 175.11705017 368.37466431
66.18468475 106.00089264 428.48226929
128.00415039 247.01643372 421.76364136
81.65059662 126.35965729 384.37234497
208.67800903 253.56098938 399.76998901
153.83673096 194.97160339 383.69171143
101.91421509 156.63247681 370.11575317
188.40800476 222.55699158 455.19400024
215.75799561 209.93899536 404.39099121
98.29664612 200.12895203 373.07922363
149.54544067 248.29812622 437.86129761
93.65797424 214.65525818 462.22714233
178.55999756 160.44799805 415.80200195
59.50411987 177.63710022 477.65350342
62.24598312 130.45159912 490.45849609
150.30592346 231.55552673 475.91659546
100.15010071 110.03514862 385.33990479
150.78399658 161.89199829 467.83798218
165.02400208 168.70098877 449.51501465
162.00732422 154.39039612 411.10144043
187.81561279 237.61882019 483.38717651
108.80802155 128.24784851 437.46572876
225.66899109 249.38800049 416.91000366
56.52214432 135.56918335 427.33224487
173.81700134 251.43020630 443.79086304
185.57899475 259.11975098 426.15185547
147.39767456 195.98403931 462.89620972
132.11253357 104.40405273 415.57302856
89.00732422 185.67350769 498.02273560
195.93699646 202.40499878 398.77999878
59.38792038 167.19963074 433.88409424
140.17701721 201.48187256 482.76168823
68.34309387 135.64732361 505.90945435
112.05452728 158.00085449 465.77017212
189.49299622 182.33299255 445.78997803
142.45570374 219.02194214 425.47460938
233.76499939 252.10499573 408.27899170
156.45700073 190.89099121 427.50799561
159.74136353 253.11389160 412.23431396
135.12080383 170.75810242 376.87289429
124.96802521 234.00630188 459.50415039
158.85398865 167.37399292 440.32098389
67.41599274 179.07630920 409.44515991
125.78105927 143.13487244 444.70269775
186.42076111 246.94059753 460.79556274
121.92151642 104.80245972 420.48138428
71.39608002 129.47398376 389.58593750
146.74038696 250.96231079 412.26531982
55.04170227 157.38317871 473.12994385
105.50859070 184.70776367 371.37268066
143.23553467 136.27224731 431.15118408
179.62298584 175.38000488 404.06100464
63.54756546 184.95281982 482.04830933
63.00936508 133.41699219 496.28292847
170.73143005 146.58036804 407.64605713
204.88398743 199.90800476 403.15100098
58.19729614 170.21261597 451.22052002
128.32434082 134.04756165 379.58557129
80.20011902 99.19420624 443.40469360
56.37544250 160.04716492 438.74450684
181.44500732 217.56599426 474.14498901
192.60600281 165.27398682 419.16201782
155.52299500 178.50099182 460.18902588
101.25034332 115.80352020 383.36383057
104.51108551 82.62833405 418.64581299
90.84066772 215.69537354 437.44213867
168.04100037 187.96099854 406.28399658
162.03199768 177.65299988 445.68801880
171.40998840 202.13000488 388.67501831
163.76570129 251.76951599 402.62203979
167.79621887 147.81770325 419.69491577
138.16937256 241.14476013 449.22320557
148.07400513 175.43501282 464.35699463
90.94317627 89.98535919 397.08264160
109.50547028 147.90159607 372.72305298
137.70051575 213.26542664 373.15536499
95.05728149 162.50845337 494.95907593
80.72155762 203.02032471 468.83541870
159.43518066 229.67984009 485.21218872
206.48500061 234.19799805 470.86798096
79.32260895 175.55841064 381.47012329
194.84411621 243.89068604 473.32382202
161.89544678 215.36245728 383.95294189
120.84896851 145.19631958 449.87274170
208.66499329 228.06900024 417.20199585
161.10000610 176.85798645 461.56399536
220.01199341 238.77699280 398.46499634
62.12495041 116.72625732 408.94665527
150.46508789 190.19232178 453.12200928
212.40000916 221.51699829 412.84899902
152.64244080 223.53096008 496.91494751
81.40845490 202.29039001 390.55377197
104.37113953 219.79299927 477.80215454
91.46107483 132.81774902 378.20413208
72.05864716 149.51385498 385.70983887
94.59564972 232.12139893 404.12173462
189.11700439 215.63301086 393.71697998
194.26115417 259.65789795 408.86065674
146.35766602 213.30026245 378.63165283
86.11711884 167.04185486 502.59204102
87.07729340 207.75611877 458.68072510
182.88800049 158.78201294 432.74700928
177.82945251 257.51028442 411.26361084
210.49299622 237.08100891 396.05798340
89.33888245 226.38945007 400.59878540
125.90074158 230.88778687 471.12274170
166.38200378 200.50300598 446.38101196
74.51302338 113.85942078 461.00903320
191.62200928 206.16999817 396.29800415
138.90484619 246.80863953 431.54687500
81.93001556 143.58137512 379.04357910
200.78198242 261.83187866 415.26898193
135.22941589 187.55123901 367.02084351
123.61468506 217.90673828 486.61795044
115.98648834 241.68356323 426.37786865
154.22129822 121.69594574 398.82751465
86.44220734 98.99078369 438.86227417
218.51800537 242.39199829 435.19198608
222.30400085 244.90199280 438.57101440
79.18778229 198.64170837 412.44653320
194.97460938 261.51846313 422.83755493
179.86999512 237.69700623 393.42300415
69.85979462 105.44306183 449.35958862
170.79399109 172.71800232 432.50598145
210.97799683 243.87699890 396.42700195
202.92599487 221.69999695 418.84298706
110.94322205 234.94026184 434.11724854
222.08499146 247.94499207 426.12002563
147.02157593 216.40904236 423.81954956
146.18261719 248.97227478 396.98864746
61.68257523 135.72280884 398.73913574
188.29600525 228.57398987 396.07400513
99.76686096 143.22514343 473.71270752
82.28204346 120.55358124 459.25149536
118.58197021 87.20559692 422.37384033
65.93581390 123.45284271 486.59625244
61.33402252 116.71993256 417.27575684
116.42341614 199.16688538 476.32461548
108.41843414 149.29168701 465.50500488
171.46363831 212.63534546 387.97262573
211.72479248 256.26983643 444.83129883
100.46972656 236.34211731 415.45675659
106.93041229 154.04032898 370.94232178
62.85353851 175.68098450 501.95788574
85.76001740 215.18136597 411.17407227
89.10018921 115.27561188 385.03170776
140.98765564 199.17866516 468.11239624
162.69714355 209.69061279 496.79473877
109.60021210 116.10686493 432.13565063
66.52709198 162.25881958 388.64245605
64.65641785 108.65184784 417.38424683
59.83420181 120.13814545 425.06533813
229.55299377 243.48199463 410.94900513
78.78570557 94.26853180 398.02462769
116.32109070 236.90695190 437.19128418
110.44981384 128.09347534 379.48767090
75.29061890 159.31323242 378.05874634
116.11254883 127.30271912 380.20895386
86.95249176 118.08449554 446.73538208
65.36621094 185.52667236 463.63244629
207.69546509 262.23748779 420.02368164
159.96492004 248.28494263 444.52316284
141.13076782 225.06690979 481.84521484
165.45100403 207.93800354 485.25698853
208.82000732 210.10400391 397.90499878
104.01691437 163.97895813 368.47323608
58.39691162 133.88723755 405.05981445
120.07616425 116.20110321 426.88040161
198.70098877 225.25599670 427.62197876
155.18460083 243.40447998 393.55657959
156.80004883 152.61125183 424.63745117
119.04796600 175.64271545 371.02334595
118.76742554 238.56245422 386.76467896
159.84449768 164.81239319 399.20776367
207.50744629 259.62036133 433.19741821
75.82093048 188.41905212 409.25140381
79.20043945 197.56921387 453.34512329
165.00799561 194.69801331 394.67199707
175.40559387 257.28878784 420.87631226
219.62300110 212.11999512 399.72497559
179.99400330 182.43699646 404.12500000
101.28032684 202.01736450 465.34942627
147.50334167 153.99011230 446.87237549
171.01499939 183.91500854 410.99798584
164.81300354 206.53900146 473.88299561
87.73046112 219.35697937 390.60711670
149.21707153 249.03457642 431.87945557
134.91253662 232.78752136 465.79455566
54.94449997 160.31541443 455.88870239
196.95899963 197.02200317 407.15399170
128.71401978 142.25354004 378.24972534
148.47004700 167.91221619 382.78439331
87.14114380 215.17350769 417.39190674
181.58200073 219.87300110 393.57400513
76.24527740 200.27368164 398.74676514
82.55942535 122.70714569 468.01062012
58.51875687 144.56622314 407.04861450
100.13210297 87.00730896 402.61166382
73.26314545 191.53767395 396.05035400
69.08148956 154.42167664 387.92587280
169.47537231 235.21505737 392.71435547
96.66837311 91.42410278 395.40780640
100.75104523 204.16998291 477.12649536
61.49800873 179.17982483 459.97958374
139.95944214 107.70431519 396.60223389
106.69107819 169.16091919 482.48251343
198.41900635 235.90899658 487.07501221
175.75000000 200.83500671 392.36398315
85.15704346 144.39544678 500.21267700
130.59399414 189.39730835 454.61727905
88.23648071 84.34815216 425.49951172
88.17816162 149.17303467 499.39459229
135.48167419 200.87013245 475.98110962
66.02130890 107.72218323 402.77941895
190.62300110 233.15800476 394.18798828
174.05540466 242.71269226 466.84799194
87.36537933 129.30224609 476.11135864
110.89045715 133.83898926 440.81051636
81.74450684 124.36278534 481.23846436
164.27500916 204.16101074 452.32901001
112.72186279 191.19680786 451.44464111
146.27192688 145.10395813 385.96649170
143.19094849 205.68905640 372.36141968
111.29752350 97.29904175 425.80725098
145.40716553 236.30242920 463.51623535
68.59902191 184.43148804 442.11978149
135.59674072 183.80747986 454.85925293
122.24339294 173.23583984 431.60519409
176.99299622 173.86199951 416.86801147
187.21484375 243.51525879 472.55517578
147.99281311 201.12469482 481.88568115
125.16236115 176.20069885 463.96026611
171.08291626 252.96351624 437.69570923
187.31401062 159.37599182 417.73001099
63.83008575 113.27945709 450.76766968
177.60327148 255.05506897 432.80984497
74.30017090 195.03919983 495.10943604
55.10756302 150.53211975 477.83425903
135.64523315 135.60157776 382.88101196
136.37274170 251.15892029 401.55300903
122.79987335 192.63919067 463.42800903
130.16166687 227.62127686 476.96325684
169.73599243 184.36000061 446.72998047
193.75399780 171.77699280 440.92898560
143.48332214 240.52375793 453.91870117
87.98215485 224.40325928 406.62759399
119.03778076 148.38511658 453.79257202
79.22817230 202.00047302 487.93450928
137.00793457 234.99815369 459.36721802
188.78697205 251.48231506 451.57376099
88.54136658 211.55735779 447.02276611
192.82800293 169.46400452 414.35598755
117.12014771 235.14207458 444.09335327
134.30731201 225.30262756 473.31091309
113.57318878 108.15374756 426.68392944
126.39716339 213.64042664 492.25393677
201.69647217 239.36790466 481.44360352
157.83900452 195.02400208 444.69299316
97.99291992 108.19952393 433.44793701
205.33299255 256.99099731 402.92001343
173.47698975 209.41500854 447.88598633
165.54154968 161.06048584 397.07928467
119.66402435 166.32128906 466.25393677
105.33181763 121.91815186 381.85556030
216.94000244 240.11199951 447.79800415
129.43661499 250.23403931 409.40005493
96.01306152 212.57006836 483.95996094
153.66566467 186.33337402 452.13101196
60.88216782 178.05189514 491.81301880
64.70053101 109.26099396 440.08358765
105.23653412 177.89732361 482.29861450
115.13548279 215.35778809 366.38967896
92.14086914 183.94326782 370.07556152
86.35806274 210.96943665 394.71856689
158.00268555 150.56489563 392.34863281
87.21235657 174.85610962 373.14025879
115.42410278 206.86683655 487.02453613
95.57038879 201.87461853 470.87075806
100.56346893 222.55459595 376.04580688
117.75102234 247.31996155 404.67715454
56.33810425 136.15682983 470.17709351
101.47537994 161.74235535 486.66223145
104.49757385 230.67814636 435.53451538
59.25503922 132.48240662 482.19241333
117.12041473 84.05272675 408.64999390
147.82083130 178.23902893 450.60690308
126.06076813 107.99559021 419.27618408
84.44075775 179.10867310 504.61779785
94.44200897 230.88732910 411.39660645
81.88718414 116.59127808 451.66439819
186.96800232 204.88999939 393.96600342
70.59824371 188.85192871 501.56451416
60.74904633 146.96815491 399.78073120
162.07023621 232.96881104 480.94061279
61.04975510 175.51234436 449.02090454
138.90789795 237.99453735 385.63043213
137.88124084 206.59327698 498.50299072
60.36104965 170.58023071 438.68341064
67.17447662 179.78067017 423.71286011
76.23872375 118.45265198 470.66687012
217.16900635 242.80099487 430.05697632
113.99720001 90.49821472 400.91354370
89.06217957 128.93067932 461.18276978
101.43856049 143.04061890 372.76013184
145.93016052 133.94805908 388.19644165
225.45303345 257.50106812 439.19915771
55.65374374 165.67221069 478.12097168
189.61399841 219.61300659 437.34298706
86.47491455 207.34451294 481.64868164
140.41889954 103.15707397 399.63845825
200.86863708 257.89019775 439.34024048
91.75194550 217.93644714 432.20443726
205.27999878 209.01399231 410.48800659
153.87387085 166.52958679 414.01263428
88.17486572 106.72648621 387.38317871
147.90203857 218.54649353 434.96313477
55.01930618 144.02523804 452.11520386
195.18099976 168.47500610 431.12899780
64.49888611 184.59806824 491.58340454
97.21645355 86.74871826 425.96710205
95.90552521 151.34278870 490.95910645
181.70849609 258.75607300 422.27636719
113.08452606 141.67098999 448.24041748
99.85797882 156.01651001 487.32241821
91.31504822 199.53239441 381.25082397
178.26899719 232.06800842 393.62298584
155.08668518 159.04252625 389.17294312
181.01699829 167.63800049 436.26898193
76.81143951 163.32618713 509.29647827
189.48200989 158.04701233 430.02999878
102.38652039 205.39839172 486.64477539
142.91821289 215.81735229 375.25048828
76.54132843 152.14443970 379.03622437
79.95381927 199.45223999 434.13568115
73.98554230 188.33674622 424.53970337
114.71085358 186.60984802 369.56246948
155.13500977 200.47700500 471.99401855
98.38465118 227.54948425 433.84216309
186.49899292 219.03700256 442.29501343
215.23199463 227.79499817 398.55001831
112.39152527 240.16616821 393.68832397
91.75971222 220.30123901 425.93115234
126.75962067 158.68794250 459.74856567
160.11099243 175.59700012 454.99301147
162.43716431 150.82298279 397.12579346
97.66902924 192.99815369 373.65368652
158.75158691 175.81813049 390.82983398
74.03725433 116.66889191 390.48538208
60.53677750 160.85716248 414.87899780
189.88299561 223.74600220 482.66299438
181.46800232 203.25900269 435.08898926
195.87998962 182.90800476 437.37899780
89.07143402 170.86705017 500.28860474
104.79857635 234.78669739 392.37835693
119.84587097 153.26341248 372.32626343
204.59901428 252.37184143 455.77124023
96.37424469 179.23315430 491.86920166
169.32901001 211.28300476 493.86901855
180.04499817 158.41999817 424.59500122
71.52603149 100.55435944 398.91925049
150.41606140 192.67465210 434.52127075
148.88002014 150.12567139 385.35198975
97.71673584 172.83670044 491.23956299
176.16600037 170.36999512 442.78698730
162.75900269 188.70599365 401.11499023
175.20700073 213.71400452 483.16000366
128.60789490 167.14089966 460.66540527
149.07569885 153.86561584 453.02734375
193.09500122 185.11299133 428.01300049
72.81596375 196.52412415 475.94906616
148.01934814 211.37019348 425.47207642
197.56900024 233.06800842 396.22598267
203.69599915 231.53700256 464.12399292
159.39801025 208.86799622 421.97702026
132.92726135 183.54064941 458.31884766
71.13402557 112.67703247 394.88806152
68.49291229 172.10334778 389.00894165
57.90033340 126.25159454 433.49273682
89.33056641 146.36549377 373.49087524
92.97142029 213.67091370 377.55068970
57.03215408 171.09660339 469.29541016
162.98001099 167.30799866 454.01199341
92.75193787 227.97000122 393.47811890
113.08125305 97.79500580 394.03750610
91.55313110 193.09109497 375.39627075
143.32913208 206.76593018 498.27584839
147.25923157 111.17193604 398.90679932
80.14308929 182.01164246 507.10678101
197.64999390 252.35200500 398.69299316
127.51701355 180.88214111 369.88653564
63.53608704 158.41789246 401.46881104
190.97200012 219.83499146 395.97897339
166.78129578 249.46612549 445.88800049
128.20256042 91.74473572 403.43807983
200.89599609 203.67098999 398.79400635
147.82722473 128.24215698 421.40844727
184.50619507 253.77426147 401.53845215
77.93172455 140.23950195 506.12689209
71.93800354 194.30924988 467.97186279
91.28130341 160.55282593 371.70156860
160.11169434 195.17356873 386.53854370
108.02158356 210.41423035 489.72549438
221.44996643 253.36474609 453.10528564
125.14455414 225.74249268 481.56729126
106.02959442 152.87950134 471.74642944
86.01882172 209.04481506 420.67987061
76.39679718 194.39538574 434.81854248
179.43916321 252.66944885 443.93295288
158.02799988 183.34199524 404.30200195
122.70687866 185.10392761 455.46606445
208.99061584 248.42915344 463.80377197
125.36351013 120.75042725 385.05926514
154.37092590 159.44737244 438.74557495
166.64675903 247.44247437 396.71264648
58.22820663 160.14938354 424.37399292
107.86014557 197.61453247 456.24679565
177.88299561 198.73001099 430.00500488
109.56914520 232.98937988 384.64871216
144.29190063 174.01902771 444.99951172
88.44418335 94.36878204 436.07473755
89.77249146 99.47074890 389.64999390
55.87742615 155.28796387 487.15457153
148.34523010 244.72290039 449.04672241
117.30772400 120.55786896 383.06826782
109.40781403 203.17115784 480.30007935
222.61799622 244.50000000 445.25097656
55.79223633 143.10168457 479.20513916
210.68600464 236.75300598 468.79602051
71.98131561 187.24145508 429.23956299
104.73480988 102.10808563 428.80749512
54.86147308 150.02006531 453.62533569
88.20495605 161.25996399 501.27197266
57.52552414 127.03488922 443.46243286
177.41900635 216.51199341 465.83798218
159.63800049 188.93598938 440.51699829
150.03474426 189.10867310 443.62417603
57.06344986 165.51863098 491.58843994
164.73500061 184.01400757 446.36700439
119.44053650 196.13095093 364.05160522
151.38200378 195.98899841 428.67800903
134.70549011 219.43078613 491.12063599
212.90800476 215.83700562 398.84500122
68.67080688 188.23832703 460.20205688
152.30139160 139.85090637 391.12698364
98.20265198 186.95942688 470.11169434
91.90967560 212.54681396 475.06591797
80.42127228 149.83439636 376.74490356
58.54195404 126.26439667 418.28640747
64.35791016 121.79233551 478.62963867
116.23407745 163.17079163 467.07238770
116.29716492 157.34735107 461.11880493
150.52113342 224.65318298 491.24462891
136.16783142 125.07520294 423.95535278
56.69326401 147.18280029 490.03503418
135.16224670 99.08489227 415.19674683
101.43214417 230.27972412 383.92236328
57.18511200 143.74800110 417.17105103
189.61801147 177.08100891 446.46798706
177.23829651 235.85160828 483.55529785
151.35157776 251.58741760 409.65280151
124.44685364 199.10441589 472.86816406
88.27381134 82.67806244 417.80682373
151.23747253 143.20544434 433.31530762
172.80900574 180.02900696 413.56301880
170.78625488 218.32479858 499.12731934
126.56610870 170.07337952 439.42990112
176.71099854 190.98500061 437.76800537
184.76512146 223.10522461 491.88528442
135.46252441 143.53344727 379.21038818
92.83852386 195.80505371 484.67617798
126.39620972 243.63488770 431.58901978
68.02460480 189.17886353 491.16580200
150.78710938 200.46588135 478.85144043
109.78466797 240.62570190 421.12182617
120.40747833 171.46397400 467.36618042
125.95595551 128.31140137 381.42800903
180.15000916 218.67098999 460.83798218
198.48300171 228.88099670 459.77301025
194.05500793 165.25498962 426.18200684
213.16101074 255.51301575 403.06100464
77.30175781 194.60853577 387.22946167
86.75099945 208.87992859 471.94979858
167.16900635 179.69099426 416.59701538
111.48860168 229.03901672 456.25021362
206.11500549 248.67799377 396.40701294
229.12500000 251.67999268 439.01602173
87.73017120 128.49305725 468.96304321
129.24063110 158.54931641 374.68801880
206.33839417 243.64279175 474.86959839
102.99518585 157.09196472 483.03237915
82.22363281 202.34660339 461.84881592
169.52999878 211.13200378 466.38500977
131.53262329 117.75856018 421.03686523
157.58784485 155.92420959 414.73083496
154.01371765 157.84815979 455.47937012
162.56774902 242.18908691 462.38839722
118.79959106 229.26788330 466.66592407
66.93058777 184.16320801 451.81829834
82.27082825 195.15878296 380.88439941
109.82994843 243.29052734 410.66885376
97.51717377 219.77755737 454.43350220
141.76588440 230.48416138 468.99505615
68.39463043 103.23866272 420.90576172
158.91200256 175.53498840 418.63302612
197.36700439 227.59201050 469.27999878
72.48333740 181.57203674 394.73062134
217.04199219 244.27899170 399.30099487
100.25575256 131.15699768 378.28823853
83.15455627 204.42697144 448.28561401
73.53836060 168.11871338 381.86328125
151.85934448 203.75859070 487.50863647
115.04230499 180.84379578 471.11602783
123.53136444 172.90872192 371.84027100
158.30834961 223.22950745 499.49130249
95.29505920 168.73791504 494.74502563
148.69947815 179.61549377 376.09677124
56.88973236 157.54275513 491.42974854
110.27831268 183.13833618 469.71231079
162.28306580 205.06823730 383.74856567
135.18702698 127.07437897 385.01809692
60.37543106 118.04817963 438.50463867
79.35955048 88.77156067 414.80340576
110.16481018 84.78579712 405.93139648
120.31441498 193.30299377 456.11669922
97.32292175 225.00999451 437.72903442
180.70300293 213.14799500 442.15899658
74.08609009 94.36276245 422.41470337
85.66759491 186.78549194 374.22299194
89.47805786 132.84054565 482.75183105
68.11199188 100.54480743 409.96209717
136.14459229 158.76885986 378.79098511
190.38914490 232.39060974 491.77008057
187.26899719 210.74501038 429.60800171
184.30499268 161.72399902 413.79498291
180.02299500 207.80000305 390.98199463
103.08029175 83.04214478 407.19265747
193.04600525 199.14999390 413.23098755
103.43135834 153.23019409 476.61276245
129.17648315 121.54722595 424.70996094
154.83129883 174.90457153 384.51702881
225.68200684 222.39399719 400.59301758
101.06199646 235.01091003 395.48297119
166.30090332 138.81806946 403.30526733
109.50609589 177.35356140 477.48278809
63.64629364 117.40290833 461.79791260
118.04309845 221.63615417 370.70565796
168.18200684 208.70899963 476.64300537
78.69953156 202.26173401 473.16894531
156.64399719 179.65100098 442.16799927
166.63700867 174.97000122 448.02600098
131.87176514 118.92912292 388.14126587
111.41046906 200.62789917 466.81356812
121.38949585 244.50207520 394.41116333
208.84100342 219.05200195 396.11798096
167.06617737 202.72444153 386.22930908
98.13104248 185.53642273 370.68893433
154.45936584 249.47218323 399.17776489
184.46336365 255.56111145 437.71371460
125.10210419 112.65002441 421.42224121
214.61599731 213.39199829 407.60101318
198.12800598 175.07598877 426.83700562
62.35564804 145.27674866 505.04147339
55.16172791 143.64688110 434.92758179
74.43476105 119.05036926 480.83230591
181.03358459 248.40184021 456.05142212
120.50744629 227.90718079 474.82482910
114.19661713 243.44923401 397.41107178
97.18306732 83.54129791 422.26232910
108.25199127 118.40196991 383.87918091
81.84188080 123.68786621 475.81893921
166.97799683 171.24900818 437.89398193
155.63462830 182.66352844 383.08782959
151.06764221 164.32685852 384.09600830
80.59629059 87.12901306 424.39175415
120.68791962 166.78713989 434.25564575
183.30799866 184.32598877 400.93402100
147.16882324 183.14361572 437.85626221
109.51261139 227.65109253 377.11108398
130.30564880 106.07997131 394.22177124
100.04668427 217.71630859 476.77270508
175.90400696 170.89599609 450.32400513
107.04747009 185.47265625 463.27835083
129.77204895 197.28752136 363.45401001
140.38825989 97.71212769 408.18722534
179.65899658 217.02000427 450.20800781
117.23995209 95.65052032 397.10736084
210.53500366 236.12899780 446.37500000
187.07699585 196.35899353 416.06301880
97.00833130 184.03430176 489.55935669
107.77363586 222.23294067 475.16757202
92.28983307 196.44204712 479.98873901
218.75299072 241.51800537 454.23098755
182.44065857 258.81402588 410.81903076
219.82200623 241.48599243 414.79598999
61.61005402 174.15197754 441.68124390
128.05152893 232.64909363 465.32849121
66.65979767 178.53692627 418.61660767
107.60741425 200.04161072 460.81765747
60.45507431 163.31364441 502.09509277
158.12155151 170.16279602 397.75784302
130.99568176 240.74156189 442.14672852
160.15740967 122.60313416 407.36938477
165.81800842 175.94699097 423.85900879
104.87071228 203.92448425 475.06100464
151.82641602 111.62165833 402.14987183
128.30923462 153.05723572 374.50283813
193.31700134 187.25700378 402.23898315
94.27160645 135.29672241 468.21719360
152.66188049 118.06467438 411.41076660
159.04890442 234.74346924 392.45013428
91.62558746 109.61416626 438.78720093
93.63811493 156.42481995 371.87658691
196.47599792 173.69400024 436.10998535
152.85214233 241.39302063 458.33950806
120.16515350 202.55775452 480.45147705
150.12567139 220.11711121 500.55395508
221.88099670 236.89801025 411.14300537
137.16448975 197.59216309 368.11935425
82.38401794 168.10821533 378.15805054
74.89980316 173.90225220 510.05453491
61.92503357 137.65299988 498.20248413
113.56853485 210.85098267 366.36004639
135.50183105 139.02456665 437.11495972
80.31062317 112.61033630 388.04022217
155.36531067 211.54978943 378.51232910
55.96772003 166.90606689 465.41921997
174.19599915 200.97700500 438.90899658
70.87286377 130.51632690 503.11373901
109.49758148 243.39801025 405.82540894
153.90708923 153.73587036 387.90005493
92.07788849 160.17019653 497.64929199
87.71328735 207.55372620 432.28094482
117.92545319 166.01541138 370.62344360
227.59098816 250.40000916 448.20300293
66.55686951 141.82934570 389.93545532
170.08699036 174.46101379 458.59597778
151.42126465 206.70726013 426.12832642
177.04112244 258.00457764 416.19311523
158.55400085 187.36499023 392.85699463
109.90877533 207.05718994 365.22778320
207.84799194 260.67401123 409.02999878
91.94188690 150.84249878 371.34927368
127.97463226 196.22262573 469.72796631
94.71326447 164.23216248 372.00769043
131.17883301 248.28237915 418.85314941
146.53736877 204.58940125 492.53460693
160.13304138 124.08325958 412.17648315
141.88441467 200.28985596 472.67404175
151.59880066 235.33996582 469.45605469
100.86393738 127.42410278 440.28942871
147.68605042 171.63682556 380.64248657
130.23348999 245.92602539 426.19464111
169.40798950 210.29600525 486.36901855
63.92488480 174.40251160 430.12530518
76.81109619 193.31327820 407.00454712
122.07263184 149.25288391 374.99798584
63.14043808 168.55082703 416.19665527
171.17590332 239.21635437 394.57913208
79.83656311 158.43316650 508.73928833
179.82099915 168.31300354 429.72201538
113.99253082 245.23358154 401.90252686
185.09599304 200.64599609 393.06900024
118.76799011 186.41528320 452.58682251
185.54571533 257.96307373 407.27706909
143.12091064 180.95179749 373.93746948
102.65526581 234.71253967 427.39135742
64.88968658 114.65011597 399.91891479
104.68417358 233.03285217 386.90728760
155.93304443 189.36506653 385.18920898
157.11599731 170.18699646 428.59399414
97.31237030 205.07652283 481.99096680
156.91725159 126.89817047 397.99649048
93.81764984 130.98974609 452.78585815
105.76645660 191.95962524 371.05123901
118.99359131 216.19961548 489.11663818
113.75141144 149.06243896 455.96502686
60.64024734 120.69914246 457.45559692
122.82215118 246.69697571 419.82885742
156.11700439 187.93299866 431.14001465
178.27000427 179.65200806 407.48999023
228.35322571 258.04388428 435.63143921
166.54098511 155.11457825 405.83895874
70.98793030 124.31852722 494.49707031
216.46092224 256.21768188 445.38430786
119.95909882 92.56933594 422.94274902
96.24681854 175.38595581 368.41442871
135.98207092 180.60408020 433.88095093
172.60900879 179.92498779 448.31298828
191.59519958 253.44943237 446.47244263
141.10324097 149.30087280 449.05648804
152.46199036 197.05358887 432.19119263
201.19500732 198.78199768 406.19299316
94.77976227 82.43587494 412.38317871
158.39799500 249.81243896 438.70739746
217.82901001 262.11599731 417.81900024
139.16697693 189.43977356 452.44158936
74.32052612 93.38085938 410.86553955
185.90499878 237.40400696 393.71099854
185.29299927 220.36399841 466.92599487
59.45988464 169.66249084 497.50274658
83.44713593 206.21983337 477.99032593
66.16857147 189.32388306 473.91406250
130.01840210 110.46143341 392.13211060
145.54214478 117.30909729 413.60296631
128.91610718 231.85487366 379.90325928
145.74331665 156.82165527 382.58975220
203.11099243 231.03601074 447.97097778
129.88053894 175.02679443 431.81314087
182.57200623 170.06500244 408.32800293
75.92228699 179.12318420 386.20715332
125.04732513 111.67419434 389.44464111
