ply
format ascii 1.0
element vertex 512
property float x
property float y
property float z
end_header
85.04143524 258.98388672 508.70465088
88.48088837 261.98345947 506.36917114
83.99990082 255.59806824 503.14163208
84.21800232 260.17199707 515.37701416
80.09053040 253.70359802 513.66729736
89.62062836 261.91003418 500.30804443
80.48934937 250.44223022 505.78344727
89.87600708 267.98800659 511.79098511
91.92684937 266.26095581 501.74630737
79.19656372 255.37243652 519.81683350
89.54030609 259.23544312 495.31689453
85.67284393 253.48638916 495.34194946
78.80149841 247.30117798 515.16705322
78.61152649 250.48915100 519.34619141
92.96881104 264.16326904 496.36679077
84.14900208 266.49298096 522.99700928
93.02500153 273.05099487 507.50701904
87.66600037 271.23498535 519.85101318
80.85100555 260.34298706 524.89099121
79.60918427 243.11810303 507.59445190
81.83413696 246.24995422 498.13244629
94.80399323 271.22900391 500.37496948
92.33900452 274.62301636 512.84802246
77.44303131 250.22163391 524.53601074
87.33525085 254.05221558 488.91806030
81.13140869 240.12374878 500.89938354
94.01426697 263.47531128 489.86254883
84.48120117 247.99124146 489.96911621
77.22795105 243.66566467 522.14508057
77.88977051 256.02734375 530.28887939
88.26200104 275.30999756 524.70001221
96.10523987 269.70755005 491.48089600
80.83200073 266.01300049 530.37500000
96.01999664 279.30599976 505.87796021
78.43595886 237.94418335 516.32934570
76.49403381 248.50999451 528.68719482
95.77099609 280.72399902 512.34600830
86.94508362 249.83241272 485.96145630
93.75900269 280.60299683 518.50701904
92.78636169 258.72799683 484.60684204
80.56375122 234.12771606 505.97692871
83.59000397 272.48800659 530.33599854
90.14714813 254.51585388 483.74771118
97.93599701 277.43399048 495.91000366
82.73936462 235.94723511 496.27575684
78.44400024 262.92300415 534.89703369
94.34193420 264.76135254 483.63272095
91.60800171 281.03100586 523.87298584
84.53320312 242.87541199 486.01116943
83.20539856 239.22703552 488.85598755
97.81662750 274.46600342 489.06558228
80.09400177 268.95999146 534.77099609
99.18299866 281.98699951 499.45001221
86.26200104 277.53799438 530.41101074
75.54199219 240.32411194 528.65985107
74.88329315 250.28703308 534.45916748
82.73162842 230.88192749 500.58520508
99.36699677 284.45602417 505.77001953
79.57946777 230.49501038 514.17083740
95.42217255 268.77957153 482.17840576
78.33268738 231.65226746 519.61791992
100.51200104 278.51300049 490.98101807
74.25614929 244.70121765 534.15606689
91.74417877 248.37443542 480.19415283
74.87429047 258.36981201 539.00750732
87.74829865 242.29521179 481.57189941
76.39851379 233.03186035 525.52624512
100.15699768 287.76800537 515.08599854
92.63800049 285.70498657 526.88903809
87.97500610 282.76699829 531.69000244
95.39986420 255.27603149 477.34289551
76.18099976 265.50000000 540.23199463
95.14061737 263.97534180 477.13677979
77.42500305 270.22698975 539.46099854
84.39517212 228.42169189 494.00073242
103.67699432 284.04699707 494.94400024
92.63053894 243.46720886 478.58062744
85.22247314 235.04664612 483.40710449
81.87766266 224.97413635 501.62570190
79.93730164 224.67010498 513.15374756
103.20700073 288.44897461 503.09497070
97.61000061 288.69500732 522.58905029
80.84218597 224.17642212 506.53469849
84.51274109 230.01374817 488.65133667
95.92555237 269.93643188 476.94671631
72.41801453 254.26974487 541.57385254
79.29100037 275.89700317 539.51196289
97.32247925 273.99182129 478.76654053
74.45674133 235.20283508 533.55364990
103.47399902 290.73699951 510.48498535
78.82753754 224.00334167 518.61822510
82.31800079 281.16500854 538.24102783
95.97776794 246.99238586 475.34939575
74.85565186 230.60661316 530.46594238
84.20456696 223.43405151 496.88729858
76.55025482 226.88816833 526.10614014
72.05937195 245.22332764 541.15930176
87.66273499 235.20454407 479.12881470
72.63223267 239.21269226 539.14434814
95.76940918 258.78475952 471.59722900
106.93599701 283.00601196 487.61499023
92.99899292 290.52001953 530.18200684
96.99128723 252.90138245 472.04852295
94.20157623 238.90756226 476.41363525
70.25127411 251.60479736 544.49316406
104.82113647 279.99203491 481.75790405
80.26474762 219.76968384 513.15234375
96.52899933 292.79299927 527.04602051
103.72200012 293.34597778 518.00000000
72.18424225 267.67669678 545.90002441
77.36151123 222.32498169 523.81384277
87.75900269 289.16101074 535.76098633
96.97290039 267.73135376 470.78662109
72.65790558 233.64393616 538.43933105
109.20899963 290.25598145 495.37500000
75.05899811 277.16897583 545.17797852
78.16299438 281.94497681 543.22497559
88.99459839 229.35745239 479.07470703
74.55699158 226.37512207 533.16796875
83.53299713 287.59701538 539.90301514
82.06240082 217.34999084 501.33544922
69.58358002 260.75643921 548.13586426
86.22572327 221.01763916 489.08435059
75.68564606 222.53866577 529.64569092
88.37812042 224.74983215 482.68304443
109.31699371 294.07299805 500.20599365
68.53900146 255.78668213 548.83306885
99.93941498 244.99035645 470.22552490
108.72799683 295.68899536 505.37002563
98.06414795 261.96255493 466.93872070
102.55943298 278.82040405 473.47317505
78.89081573 216.78723145 520.86199951
102.95800018 297.03399658 523.20202637
100.19800568 272.93350220 469.06515503
98.41349030 256.99835205 466.08624268
69.65258026 239.38088989 545.94116211
93.02309418 231.00758362 474.25015259
111.53800201 287.82598877 485.86199951
108.13500214 298.01898193 515.15301514
79.74500275 287.34899902 544.49499512
71.87599945 275.65899658 549.51501465
77.04299164 217.31472778 527.38580322
75.52600098 283.17001343 547.21301270
82.83433533 214.72467041 494.70913696
67.51951599 246.34158325 549.90765381
94.41699982 297.83697510 532.59698486
99.29299927 298.75399780 528.42498779
99.73988342 267.11877441 465.16699219
72.02332306 228.68757629 541.78503418
109.93007660 282.57391357 476.88378906
66.74169159 252.16070557 551.48480225
80.69912720 212.19108582 513.38482666
92.82780457 225.77294922 475.97372437
83.59600067 291.86901855 542.65600586
100.60735321 235.29544067 470.80102539
89.51999664 296.25601196 537.64996338
75.91265869 218.70489502 532.33013916
69.10480499 270.88015747 551.97192383
85.72218323 215.05784607 489.34661865
67.50615692 265.98083496 552.97979736
90.99755859 220.28688049 480.60089111
81.78196716 211.25396729 501.20739746
114.20000458 292.08697510 488.45602417
103.33254242 240.45375061 467.53103638
101.94126892 249.31916809 463.97219849
113.88600159 295.84100342 494.88897705
107.43899536 301.36001587 521.52600098
69.36051941 232.78857422 547.94360352
78.39543915 212.68119812 525.81964111
65.74262238 256.67761230 554.62432861
89.58140564 215.75300598 484.15219116
112.97100067 299.92700195 502.41601562
104.88482666 275.18276978 465.10626221
80.11610413 210.31423950 521.83013916
75.09711456 218.01338196 537.06011963
96.68038177 224.93989563 472.79617310
102.48299408 303.06802368 527.54095459
115.76699829 289.25897217 481.14599609
85.59400177 297.03097534 542.98199463
81.72951508 207.93840027 505.77032471
72.48300171 282.70599365 552.52801514
112.79100037 302.19299316 512.07098389
102.37896729 260.71575928 460.27157593
95.52254486 219.91439819 476.10260010
112.18196869 284.17211914 472.11718750
116.64671326 285.23327637 476.49057007
81.38899994 294.37802124 546.94403076
98.63000488 303.84500122 531.82202148
65.22705078 263.95816040 556.83789062
107.48217010 283.76687622 468.48123169
101.05797577 228.34613037 469.39334106
83.05561829 207.94306946 496.19940186
104.68849945 267.11123657 460.38580322
71.31430054 225.05654907 546.78717041
69.76900482 279.44799805 555.04998779
76.33499908 290.64398193 550.72802734
77.24975586 212.35134888 533.51208496
64.96618652 241.92570496 555.18603516
84.74345398 208.37854004 491.21252441
95.23500061 304.20498657 535.65100098
82.00851440 205.06684875 510.18804932
81.40200043 205.96839905 519.26062012
118.19600677 299.00000000 493.00000000
63.69648743 247.80830383 557.41760254
68.80173492 228.86347961 551.04248047
115.84999847 303.94400024 505.66799927
107.57038116 236.26222229 464.30953979
66.02868652 271.10702515 558.64117432
79.73338318 207.84661865 528.10919189
117.74100494 301.89599609 497.50900269
104.87017822 254.25288391 457.50860596
96.10848999 214.01679993 478.21636963
105.18835449 228.84973145 466.43734741
119.11399841 297.66299438 487.52200317
88.50581360 208.22221375 485.87341309
114.14199829 305.95898438 516.94897461
118.87200165 294.84600830 482.31900024
107.68836212 244.73315430 459.46023560
110.49127197 279.92236328 463.03237915
74.37105560 216.06913757 544.08489990
72.44600677 289.17102051 555.00604248
92.83200073 305.89801025 540.02001953
101.15901947 218.96717834 471.40972900
62.51915359 256.45382690 561.03515625
108.89399719 308.23300171 525.02502441
64.84264374 236.72300720 557.44018555
81.78250885 204.24496460 525.40869141
83.19768524 201.75840759 504.61553955
109.45622253 265.54998779 457.08340454
107.93874359 260.97994995 455.96212769
89.52099609 304.07901001 544.17401123
111.42523956 270.63067627 458.82550049
99.63528442 214.78558350 474.73892212
125.47373962 283.07748413 542.13317871
120.11399841 292.24899292 477.12799072
116.80000305 307.28201294 512.68499756
120.45978546 287.94290161 544.29602051
67.72500610 280.90701294 559.50897217
80.12100220 298.25900269 551.11999512
105.11732483 223.64097595 466.97305298
93.82346344 208.61096191 480.35098267
79.97261047 205.97717285 532.92169189
62.23290634 261.53707886 562.58154297
131.45140076 279.29089355 538.75427246
71.37376404 219.80657959 550.57427979
83.52792358 199.95849609 509.94885254
69.92000580 286.73300171 558.59796143
100.60700226 310.19500732 533.77905273
86.19561005 202.82826233 489.96505737
121.99099731 301.51199341 490.36801147
130.53544617 285.43130493 536.00036621
83.58906555 200.21792603 516.74200439
78.31205750 208.17820740 538.67144775
96.83599854 309.13800049 538.25598145
117.87750244 283.38479614 465.60040283
66.33042908 230.31303406 557.32342529
61.84960938 249.13087463 562.62084961
84.74735260 200.37817383 497.83389282
118.95500183 308.16598511 506.90103149
110.16703796 229.57817078 463.09152222
121.00949097 293.52035522 541.84283447
111.50093842 239.85383606 458.31091309
126.41006470 279.02645874 547.37493896
119.72141266 288.20941162 468.90673828
122.83399963 299.28500366 483.94799805
115.05651855 292.52792358 549.32147217
122.64212799 281.79565430 550.61468506
126.02349854 293.07852173 538.35546875
116.86553955 276.48846436 459.62420654
111.34562683 244.16699219 455.54922485
119.03591156 286.04861450 551.71630859
87.27799988 303.94598389 550.15698242
115.49900055 297.11801147 545.81304932
105.81700134 312.90298462 529.29803467
116.94631195 281.38119507 461.32681274
84.71021271 197.80499268 502.08670044
101.15648651 209.82591248 475.07464600
61.72908020 243.36729431 563.82012939
92.39800262 306.62799072 547.54400635
73.95300293 296.41299438 556.84399414
114.83756256 265.05172729 454.63140869
62.90216827 269.49807739 565.83282471
113.01000214 286.75888062 556.85473633
137.96008301 276.82781982 536.19323730
89.54348755 201.55813599 485.01956177
122.97900391 307.18698120 497.61700439
137.54641724 281.38699341 533.76483154
123.54100037 292.21298218 472.59597778
131.72944641 291.41397095 534.42877197
74.83593750 211.95945740 548.44561768
135.32281494 274.06567383 542.46948242
113.00175476 256.99887085 452.73413086
68.20532990 222.91780090 557.24322510
60.59188843 254.65333557 566.37652588
120.68399811 310.99502563 512.05804443
86.88377380 197.98420715 492.15701294
112.40387726 248.59661865 452.63635254
70.20200348 291.67398071 560.91796875
114.90900421 313.26498413 522.15704346
85.60342407 195.74565125 514.33355713
84.95671844 197.68774414 525.65234375
107.96135712 213.39726257 470.45529175
98.75304413 205.03713989 477.49414062
108.96405029 286.14743042 561.27581787
84.03647614 199.04293823 530.62420654
113.13182831 221.04972839 465.70593262
94.06999969 303.00799561 554.11199951
117.79402924 272.12368774 455.36526489
102.01829529 289.69174194 562.18157959
137.17105103 287.27160645 532.67388916
99.87500000 294.32400513 559.96002197
107.32399750 295.81002808 556.10198975
115.54913330 234.02291870 458.20739746
97.86499786 298.68399048 557.39202881
63.87999725 278.11700439 566.12799072
99.76624298 278.00274658 568.19531250
94.07400513 293.85400391 561.87200928
124.70755768 299.69952393 538.59698486
102.75997925 269.68927002 569.56195068
94.37440491 279.94329834 568.79321289
129.24691772 297.49337769 535.42260742
120.47940826 301.83410645 541.26318359
60.67364120 261.10601807 568.42834473
121.91960144 274.23379517 457.95925903
124.70841217 280.13500977 555.04656982
66.74800110 285.39599609 564.73303223
100.51499939 306.32998657 549.88800049
123.10900116 311.20300293 504.74298096
109.86100006 302.28399658 550.01800537
98.23899841 313.00299072 541.96697998
96.62427521 272.58001709 571.02899170
118.33811951 281.83236694 559.44598389
103.16500092 302.43200684 553.39599609
86.36758423 194.00616455 507.63909912
126.48299408 299.46200562 479.21801758
90.50524902 288.31372070 566.46112061
118.95100403 313.69598389 517.82000732
86.41339111 195.02784729 520.48193359
110.44899750 316.20202637 526.74798584
115.99038696 225.69502258 461.93090820
120.65184021 221.22113037 548.34667969
96.45211792 201.50299072 479.86053467
96.70999908 309.38800049 548.65197754
116.32585144 224.06864929 554.29241943
98.45681763 284.46499634 567.43029785
112.07116699 281.01129150 564.14331055
105.90491486 280.65304565 566.95013428
90.54000092 297.54800415 561.53796387
113.52547455 219.16574097 552.47869873
100.73773193 265.03698730 572.18804932
126.28066254 228.04565430 549.49700928
123.01148987 217.42597961 542.69647217
79.07728577 205.12825012 546.20391846
102.15599823 315.78698730 537.47698975
133.37290955 274.16302490 550.91558838
121.13837433 291.60021973 464.09643555
63.03090668 233.73603821 565.59155273
75.76899719 303.98199463 556.16699219
114.71641541 215.23915100 548.32531738
120.48458862 256.99157715 564.55627441
117.47634125 273.97891235 564.41064453
89.31038666 278.00469971 571.95538330
71.30850220 215.50701904 556.73797607
106.13484192 273.16442871 569.91052246
106.30411530 266.21087646 571.06939697
110.41899872 306.82800293 546.98803711
64.78129578 227.69631958 563.61083984
128.67211914 223.84776306 544.33984375
59.94083405 247.42549133 569.08148193
122.38819122 266.59457397 454.31182861
122.30686188 232.28190613 556.78448486
112.17368317 275.37982178 567.11260986
83.82738495 287.57785034 568.73266602
116.67867279 229.36395264 559.14825439
121.44983673 265.42034912 563.99218750
136.90176392 293.79336548 531.70117188
86.97900391 301.89199829 559.65600586
144.03112793 271.48931885 537.07702637
86.99613190 193.08740234 498.92239380
118.54633331 259.79919434 450.98715210
116.80324554 241.11914062 452.72424316
127.42400360 308.04299927 492.53799438
110.09095764 214.92227173 552.28332520
114.51395416 267.40228271 568.12469482
123.89636993 278.53936768 559.58703613
117.52392578 249.29368591 566.44885254
145.11305237 277.00912476 532.29748535
143.07389832 282.93765259 532.17797852
107.52557373 258.75585938 571.87121582
129.88284302 220.10559082 540.01129150
118.25230408 262.87145996 566.88989258
91.82894135 271.40460205 574.30609131
121.73100281 222.05577087 466.34460449
116.75929260 241.06413269 565.07897949
129.07099915 304.97299194 487.45300293
118.92613220 236.57600403 562.16729736
126.29969788 214.82844543 538.06634521
100.63699341 312.04699707 546.86895752
125.90031433 292.00289917 466.78594971
115.77021790 209.51461792 542.42840576
110.00728607 250.20849609 570.60931396
114.65061188 259.52642822 569.21276855
119.45155334 229.20922852 458.94018555
82.05200195 305.98599243 556.96398926
111.73092651 210.92436218 547.76263428
110.41403198 225.35678101 561.37518311
122.00794220 243.05261230 562.82720947
140.91848755 269.01727295 545.17968750
125.69996643 273.56655884 560.71264648
133.17221069 230.31263733 546.57702637
130.35401917 235.47042847 553.07885742
127.50160980 262.18682861 561.27282715
114.10333252 232.49192810 563.83673096
112.58576965 241.83067322 568.16064453
116.55998230 214.90258789 468.02386475
121.83827972 210.32635498 538.20013428
96.09709167 263.66354370 575.40515137
105.29900360 310.60900879 547.66400146
88.04647064 193.90934753 527.44586182
66.65018463 223.02593994 563.17041016
133.89434814 225.57176208 542.03216553
111.11936188 236.86769104 567.43798828
117.14885712 248.01080322 449.81546021
126.56000519 312.23400879 500.80697632
85.16268158 196.94174194 536.53204346
113.18397522 211.15579224 469.39199829
91.29649353 194.15480042 489.12191772
126.57991028 240.36848450 559.24792480
107.39828491 217.34466553 557.62347412
129.38836670 255.86003113 560.26776123
101.74436188 255.42481995 574.61041260
84.69519806 279.18746948 573.75457764
114.96099854 308.76498413 544.30700684
80.02758026 283.63092041 572.09191895
123.36300659 280.56646729 456.49288940
126.56673431 248.49476624 561.88269043
129.57200623 297.45800781 474.05999756
82.86900330 296.16101074 566.05102539
130.15148926 275.18859863 557.49426270
108.13450623 210.17536926 550.93499756
71.24099731 300.16799927 561.80902100
103.56648254 248.98248291 574.03674316
128.23564148 303.49398804 538.11071777
120.11906433 254.04205322 449.88595581
129.27200317 294.09997559 469.52301025
95.92617798 196.88780212 481.10327148
104.95129395 222.04116821 563.26123047
75.63565063 208.24034119 554.29046631
90.00886536 264.96960449 577.18572998
83.35784149 198.75437927 542.17919922
89.35496521 190.69300842 517.29870605
145.74049377 266.78628540 540.55145264
106.62792969 242.73890686 572.24597168
130.99801636 268.70208740 559.35015869
115.46900177 319.23800659 523.47497559
113.05952454 204.53114319 540.78558350
90.67515564 257.53350830 577.60552979
107.29958344 204.53727722 472.33999634
129.66931152 244.70315552 559.57080078
68.85538483 217.99339294 562.13067627
118.88388824 204.32618713 534.47558594
133.15332031 262.18710327 558.48071289
108.54928589 230.60183716 567.40954590
106.35499573 319.63400269 534.68603516
125.72890472 276.01153564 455.16281128
82.73299408 302.51800537 562.67401123
130.79524231 213.26644897 533.80926514
78.18019867 291.62362671 569.62493896
58.65410995 254.23175049 572.77514648
123.87203979 285.63684082 457.64584351
65.78800201 288.02697754 568.84197998
64.54595947 281.58587646 571.20098877
85.25329590 271.81961060 577.05938721
105.32499695 317.03500366 541.22100830
133.67083740 253.65087891 558.26953125
110.27300262 313.62799072 543.80297852
136.82023621 221.17010498 536.04272461
125.36935425 224.52528381 463.45812988
62.05900955 271.37591553 573.45227051
123.66927338 205.56407166 531.78649902
124.79499817 316.41702271 511.10000610
105.64655304 234.76455688 571.02770996
88.94055176 189.26100159 504.03906250
127.12152100 270.52481079 453.94744873
138.84280396 227.45071411 540.54425049
134.28961182 246.79483032 557.03973389
120.17200470 309.51898193 542.21496582
121.44999695 318.22601318 517.43902588
111.27700043 320.98999023 528.30395508
95.67433929 250.74452209 577.59051514
102.71477509 226.78266907 568.52532959
99.86807251 245.75299072 576.07525635
83.85555267 260.97482300 578.95324707
137.87457275 268.52069092 554.14001465
122.09598541 236.31173706 453.37036133
135.48262024 216.58952332 533.36163330
136.74781799 238.43296814 551.96575928
101.92910004 238.48210144 574.02734375
135.45912170 300.81750488 534.94708252
150.71736145 270.59848022 531.81451416
137.14758301 263.62612915 556.12579346
101.44890594 221.87014771 566.70129395
60.45167923 239.36528015 572.17169189
81.56953430 200.11683655 547.96917725
81.14933777 277.61395264 577.03125000
143.04411316 292.84970093 531.62225342
103.57888031 210.00997925 556.61932373
105.63819885 205.83886719 551.06488037
91.27480316 189.52474976 522.14270020
72.10734558 211.76489258 560.37603760
151.01414490 266.55044556 534.62768555
103.98755646 198.53123474 475.68402100
