ply
format ascii 1.0
element vertex 2048
property float x
property float y
property float z
end_header
120.40699768 183.39300537 496.14099121
272.20199585 206.82600403 352.42001343
131.65800476 122.21199799 343.99600220
157.06300354 238.93299866 388.34500122
165.09500122 154.55099487 422.04098511
190.75599670 184.58399963 331.75299072
234.94200134 250.79501343 412.57299805
105.17399597 181.11099243 382.94799805
145.37100220 241.33700562 460.09500122
213.86300659 190.99900818 393.16897583
192.08699036 130.25500488 366.34899902
215.86599731 239.50900269 353.05398560
107.49700165 161.67900085 441.10000610
130.46200562 182.16200256 327.96499634
135.18301392 108.26699829 401.60900879
239.32998657 165.85000610 343.46801758
118.99299622 216.56799316 419.64001465
188.13900757 242.48400879 431.77200317
147.93199158 190.36599731 454.50198364
161.82998657 189.48901367 386.94699097
157.65100098 221.54699707 342.37799072
107.55200195 136.14498901 379.14498901
166.25199890 146.66000366 331.76101685
136.77500916 127.00499725 441.35400391
111.67500305 212.09700012 464.08502197
256.74200439 238.81300354 377.83398438
160.14300537 103.49900055 367.97900391
127.38899994 214.80200195 369.39599609
200.03601074 246.04701233 392.46899414
174.32699585 120.23600006 402.61001587
134.62699890 154.85200500 470.53997803
224.66200256 202.77699280 340.90499878
183.66299438 208.16600037 413.03799438
200.42399597 167.79299927 365.83099365
109.93299866 156.10699463 346.20800781
243.58000183 205.27200317 374.94598389
149.42201233 241.32099915 423.51300049
112.54199982 134.68399048 414.75997925
180.58100891 240.66600037 361.62600708
216.14801025 221.69500732 411.09298706
150.43099976 201.58000183 419.61700439
192.09599304 217.97599792 338.54101562
182.76699829 159.18800354 393.63900757
102.28700256 185.40499878 416.25799561
189.45799255 207.48298645 379.39300537
134.49899292 150.83099365 327.14700317
160.10198975 191.72200012 326.69897461
124.14400482 110.72000122 372.10000610
109.89900208 181.67098999 467.41400146
114.56600189 189.11300659 352.83801270
227.15899658 243.70700073 380.12399292
228.41101074 180.36000061 369.69198608
244.88299561 226.81599426 353.79400635
168.62500000 182.07200623 431.74200439
147.04699707 161.61500549 445.04299927
162.06300354 120.56100464 344.67599487
148.31500244 218.01899719 443.02801514
101.80100250 158.71701050 403.62399292
113.47100067 206.04600525 393.24700928
106.52200317 194.31399536 442.57901001
259.09298706 185.37100220 340.96499634
191.33399963 156.87899780 342.13702393
176.16799927 247.03100586 406.56097412
133.89100647 226.60600281 396.74099731
154.36300659 118.98400116 422.04098511
133.89498901 207.32299805 344.02297974
188.07800293 184.65200806 400.94598389
124.29100037 228.71800232 445.78601074
213.54000854 176.52900696 344.71099854
236.12899780 223.40400696 394.19100952
213.43800354 248.09999084 428.06198120
136.51800537 181.10400391 475.94198608
147.95300293 230.55499268 364.67599487
168.75599670 224.50099182 426.65100098
165.07199097 243.48699951 442.52398682
179.89399719 112.14700317 379.49401855
121.17900085 144.92700195 452.39401245
157.44000244 102.70100403 393.30801392
152.52000427 166.66699219 323.57699585
187.49398804 136.14700317 389.54498291
113.11800385 132.34500122 355.06600952
129.70700073 227.08200073 470.99200439
105.36400604 160.91799927 368.70800781
247.39299011 204.36100769 348.07800293
181.12699890 134.13499451 346.16101074
167.12699890 189.01799011 409.86300659
203.61599731 171.08898926 388.63800049
129.60099792 117.74900055 421.42098999
117.58100128 120.40200043 394.47201538
133.31900024 206.09300232 462.85598755
178.50700378 243.84100342 383.84399414
148.34899902 140.70500183 427.34701538
114.34199524 201.23300171 484.19100952
176.22799683 168.08601379 328.25900269
143.34700012 191.93400574 399.01901245
172.71800232 209.15199280 332.03302002
268.60498047 225.40299988 365.10900879
141.80599976 107.27500153 356.92700195
112.93000031 199.10398865 372.97897339
147.80700684 132.87599182 334.49899292
176.36700439 143.75399780 406.75900269
196.11099243 227.98800659 418.47399902
178.45199585 114.58600616 356.76699829
120.46600342 167.16400146 480.36001587
201.04199219 242.09100342 367.69000244
246.26000977 181.92599487 357.13198853
243.50500488 244.65299988 393.13098145
203.01799011 204.48399353 406.11499023
192.83700562 149.50099182 374.39999390
142.07998657 102.27999878 378.61499023
176.58500671 170.39099121 415.43798828
212.77000427 221.35800171 343.87698364
114.98799896 162.26998901 461.14099121
204.47898865 200.94900513 338.81100464
217.85398865 248.68299866 401.76300049
121.21900177 140.36401367 338.32800293
133.54499817 231.01800537 416.65899658
198.81098938 249.67500305 414.39398193
186.12399292 173.39601135 379.08599854
104.21500397 153.90800476 422.87799072
114.48399353 174.40800476 339.35800171
230.54699707 204.59899902 390.72399902
175.89900208 229.13700867 343.62701416
233.45201111 184.50999451 341.36898804
188.63000488 173.89700317 351.31399536
120.03300476 131.98300171 432.55297852
155.37199402 198.22099304 438.29501343
195.06900024 235.15499878 349.90502930
240.02200317 241.47300720 366.23800659
142.65798950 239.49499512 441.44799805
167.38099670 247.07199097 423.79699707
180.78100586 191.33599854 383.61499023
112.34399414 212.07499695 442.23400879
149.35200500 205.33799744 333.96301270
258.12399292 209.33898926 363.94598389
139.70401001 144.92300415 443.04000854
144.97599792 172.91600037 459.19400024
109.73100281 202.30198669 410.65298462
162.33299255 133.85499573 412.72100830
149.02299500 236.31199646 404.41598511
151.33399963 219.83000183 424.79898071
137.58599854 226.12699890 379.23800659
158.41099548 175.41598511 445.14901733
248.41700745 221.96299744 378.68499756
105.66400146 141.99299622 395.79702759
162.70799255 238.13900757 370.77600098
103.74599457 177.42698669 434.01699829
230.21299744 219.00900269 348.11401367
142.80999756 220.32800293 351.45898438
228.72599792 235.36700439 407.48199463
107.45400238 178.05700684 366.02600098
120.48199463 159.61000061 332.65499878
191.95899963 146.40699768 355.83200073
164.67399597 210.44400024 415.81799316
162.09100342 233.12300110 354.21197510
154.14099121 106.82900238 410.00000000
141.95999146 222.66101074 460.04299927
184.45700073 162.71099854 363.19699097
105.81600189 189.76300049 400.23300171
103.05599976 157.41198730 387.02301025
187.37300110 200.73500061 333.73901367
171.75898743 179.51300049 395.68099976
107.43799591 176.77600098 451.93698120
257.57901001 193.61500549 355.03900146
113.11399841 124.29899597 369.29199219
175.59400940 186.05500793 325.92401123
146.08099365 183.07200623 323.45700073
229.25000000 174.27699280 353.29101562
233.22500610 192.61999512 380.08499146
107.90999603 144.77099609 364.12200928
111.70700073 145.63499451 435.01800537
214.53399658 236.81799316 416.39898682
124.01699829 195.24600220 340.07598877
124.88400269 217.90699768 384.96398926
150.39999390 147.54100037 328.48501587
120.69699860 217.47900391 401.83801270
127.60199738 225.25799561 430.36801147
100.92700195 169.45600891 416.71197510
214.78900146 171.48600769 371.86700439
121.47899628 117.25600433 357.60302734
136.02799988 166.27200317 323.38397217
108.03200531 200.22700500 426.24600220
219.78601074 209.75999451 401.07797241
126.98799133 193.32699585 479.20199585
108.54000092 197.93200684 457.73300171
121.15499878 203.82699585 360.04800415
160.06199646 163.81600952 434.80798340
171.95799255 108.39500427 392.37600708
137.29399109 195.75099182 331.79901123
156.42100525 232.50199890 449.28698730
112.54100037 184.92999268 482.34201050
251.66799927 171.89100647 336.29000854
102.19599915 170.95599365 394.30001831
231.61900330 233.93901062 351.05999756
137.17700195 154.30699158 454.78500366
180.27200317 228.05400085 417.32699585
141.89599609 117.19599915 430.89498901
210.01300049 243.33000183 381.31500244
107.82399750 169.34298706 353.39599609
218.25399780 179.05299377 384.58999634
204.24099731 164.92498779 351.50701904
204.16999817 182.91500854 401.27999878
126.33200073 110.77799988 386.93698120
167.53298950 132.99700928 338.58599854
179.88101196 196.67900085 404.48901367
184.27699280 120.96299744 390.52999878
145.62199402 203.89999390 449.10800171
160.13101196 243.00700378 411.62298584
119.38899994 217.40499878 475.46197510
163.28999329 176.41799927 325.98800659
255.81300354 232.09600830 362.34899902
216.66400146 190.68600464 338.57901001
182.61199951 249.78298950 419.44302368
138.08700562 192.63699341 466.01699829
123.86199951 118.37899780 408.05499268
141.81500244 111.07499695 416.42697144
118.65799713 224.00399780 458.32800293
246.31500244 193.90499878 365.33801270
159.43400574 109.52100372 354.91201782
160.56900024 191.97799683 422.93899536
156.11299133 185.48600769 400.13098145
220.02500916 251.38198853 415.52999878
222.31399536 241.53399658 365.48800659
190.24499512 248.73701477 402.32000732
130.44198608 172.75500488 488.60400391
174.73599243 238.04699707 431.74200439
130.93400574 235.30400085 459.63201904
173.96299744 106.30899811 367.22799683
179.03100586 149.40800476 336.97399902
191.20599365 244.42500305 377.41000366
147.46899414 208.26199341 432.52700806
168.74900818 103.20000458 379.80499268
201.76200867 240.77000427 424.73001099
203.72200012 216.07600403 413.98901367
131.94400024 136.13999939 451.37399292
246.46200562 191.21000671 343.60299683
157.34599304 228.08200073 434.26300049
109.75500488 194.63999939 472.31298828
164.71099854 160.62500000 326.22799683
143.95500183 232.92199707 389.45001221
158.58801270 199.75199890 408.28298950
179.21798706 157.14900208 407.99499512
171.42199707 167.62001038 427.84197998
201.60800171 180.72099304 339.40197754
104.08300018 145.13800049 409.03500366
146.76899719 121.75600433 342.41400146
138.25000000 168.71101379 470.32202148
184.36799622 159.51300049 378.15200806
108.24300385 193.99000549 386.17797852
259.09600830 220.36099243 356.05200195
184.18200684 174.70700073 392.58398438
189.54499817 127.12800598 379.69100952
144.01100159 103.47799683 392.14199829
230.33300781 247.13200378 393.22598267
245.81100464 232.38499451 388.26098633
136.94400024 222.40200806 363.93899536
163.33100891 119.89600372 412.21200562
172.05900574 195.39498901 393.78900146
217.57099915 177.33700562 358.75000000
181.87899780 130.84300232 400.36700439
105.86500549 149.42500305 376.30001831
139.20800781 234.70599365 429.66500854
151.87699890 154.03900146 431.55700684
182.82400513 169.61599731 340.35598755
132.97000122 137.20799255 333.49697876
174.68998718 182.47200012 420.02099609
130.56401062 213.60400391 354.94198608
131.89500427 144.85499573 461.99099731
122.79100037 203.69599915 472.65802002
151.97900391 233.10600281 377.95401001
186.95401001 118.46800232 365.67498779
188.29699707 148.61199951 386.83599854
103.48200226 165.17700195 428.84698486
226.23400879 222.61900330 403.34002686
193.13600159 196.25000000 402.22000122
240.39498901 214.38600159 384.98800659
206.43399048 233.06100464 344.67102051
170.46398926 243.67100525 395.74899292
259.88598633 205.08799744 349.20599365
113.21400452 127.39199066 404.55599976
101.42099762 178.14299011 406.05300903
227.30999756 173.32800293 340.94500732
114.46099854 123.21399689 381.70300293
132.00799561 161.94799805 482.59100342
119.58900452 124.60500336 418.71197510
169.89900208 219.71200562 338.17300415
147.48799133 128.39299011 428.81500244
178.05400085 182.84399414 408.07101440
240.82699585 243.91200256 378.31301880
122.19699860 154.84300232 467.86901855
118.75899506 209.57400513 378.26602173
160.72499084 187.36499023 440.58297729
156.62699890 101.10200500 380.31900024
160.76399231 211.34400940 333.86599731
112.78800201 142.51199341 346.93099976
113.80699921 154.84399414 451.57699585
200.87100220 176.60099792 351.03900146
132.77099609 105.59000397 365.25799561
120.70999908 184.18099976 335.73098755
236.18499756 199.98500061 343.43600464
189.25500488 198.97000122 387.99200439
123.67399597 170.77400208 329.44900513
166.11000061 145.25399780 413.59002686
114.34899902 213.06599426 430.16299438
121.74099731 130.04100037 344.46298218
158.85398865 245.50099182 432.07299805
184.80599976 124.43699646 354.41198730
178.71600342 167.55099487 402.17501831
239.07501221 186.06401062 370.59301758
259.05001831 227.48500061 375.15301514
119.36100006 221.29100037 437.95401001
126.60500336 224.62899780 409.23397827
195.84700012 178.26499939 393.98501587
104.91999817 189.35800171 431.95098877
212.63099670 209.15299988 341.25997925
144.07299805 157.65499878 323.42098999
108.86900330 188.06199646 372.71099854
198.86900330 171.08200073 377.01098633
174.17599487 217.02600098 419.43899536
152.63700867 243.35700989 447.06799316
219.86599731 231.04100037 346.04199219
203.97900391 238.94099426 356.45101929
133.51899719 113.61800385 351.69000244
241.58200073 214.37400818 349.23602295
122.35900116 137.15599060 442.66500854
170.11000061 197.24499512 328.62402344
152.64099121 194.49900818 392.60501099
166.75401306 109.65999603 402.62600708
148.87001038 193.63600159 328.55902100
187.92599487 173.52899170 365.24200439
114.80799866 192.88000488 492.13702393
237.69999695 235.61300659 397.33599854
188.82299805 245.75900269 390.00500488
107.32199860 156.02398682 358.53500366
194.78001404 157.30899048 353.80300903
110.17599487 129.70700073 393.77700806
191.51599121 215.77000427 416.38601685
156.69200134 142.83200073 419.85198975
149.47299194 112.36100006 350.15802002
181.38598633 235.30599976 351.46499634
221.41000366 199.79299927 395.49801636
132.51000977 216.97799683 465.98397827
191.59999084 138.08900452 377.63101196
253.54000854 240.53399658 389.88500977
172.30500793 133.19599915 406.55200195
192.19300842 242.13899231 360.65200806
173.72900391 125.64699554 345.49398804
201.98599243 212.61599731 338.60800171
188.74899292 228.42199707 343.53500366
185.64001465 163.11299133 350.75198364
167.72300720 240.82901001 380.39401245
104.33599854 167.17599487 381.74700928
113.51699829 194.99499512 362.61099243
249.85400391 178.64599609 347.09997559
205.62699890 195.06199646 400.80899048
138.67098999 232.91499329 467.23602295
141.55900574 135.63800049 436.27499390
183.67500305 146.16400146 396.62500000
207.56700134 249.08900452 405.88699341
181.56201172 160.44000244 334.26602173
128.85099792 125.30400085 432.17001343
128.10600281 184.82099915 486.17498779
172.43798828 200.90499878 411.47198486
223.08099365 192.45800781 387.26498413
199.37400818 190.83000183 335.56399536
240.04699707 173.98800659 351.00201416
142.99800110 182.79600525 465.11502075
112.30999756 213.89299011 453.11401367
267.98901367 214.25401306 359.39999390
147.27400208 215.45399475 342.64599609
214.28999329 245.60000610 391.81201172
109.10399628 143.10400391 420.93899536
185.57199097 144.17601013 345.95401001
118.14399719 176.93699646 487.35101318
173.32400513 240.73599243 369.89999390
153.36300659 131.54699707 420.13699341
188.94799805 212.66900635 389.00500488
123.89800262 203.91200256 349.47900391
174.38200378 158.93399048 417.61599731
150.38700867 104.16500092 363.14401245
170.11999512 237.90299988 359.69702148
152.42298889 226.13400269 350.67401123
141.32800293 199.15400696 457.83801270
243.55499268 178.93501282 338.31301880
182.84500122 234.79499817 425.41302490
132.61100769 234.77600098 442.55798340
110.11100006 134.85899353 367.74502563
111.24099731 179.09399414 350.32598877
222.46499634 213.08700562 343.54202271
111.11499786 205.31900024 472.51599121
210.27598572 167.23500061 361.52499390
106.90000153 188.37399292 451.53298950
181.63800049 218.14300537 336.05398560
207.43598938 227.05699158 414.39599609
211.27900696 177.42599487 392.66299438
240.41600037 245.70800781 403.34899902
192.68899536 142.29199219 365.69400024
111.07900238 172.11698914 462.70599365
142.65499878 237.22900391 416.29299927
259.99502563 219.51300049 368.08300781
194.20599365 248.83699036 425.67700195
201.27299500 224.37599182 341.19900513
168.60101318 115.16799927 351.16500854
161.26799011 242.00099182 401.05899048
126.19599915 114.22100067 397.03598022
158.24499512 135.98799133 334.27398682
235.84899902 178.35000610 360.60501099
150.17401123 230.31500244 457.63702393
181.97000122 191.69999695 394.94400024
109.91200256 166.47000122 452.72799683
162.93400574 193.71398926 398.95999146
143.73500061 213.26499939 455.49099731
165.89300537 173.53298950 437.32699585
188.51199341 135.93499756 353.48800659
195.03700256 154.74400330 365.51498413
250.22900391 213.78999329 372.32598877
196.13999939 199.50099182 377.93402100
124.38099670 149.97599792 331.83099365
226.32199097 243.12100220 414.90798950
155.57501221 127.11499786 338.98898315
139.42399597 240.08299255 451.66201782
251.78700256 214.20899963 351.09698486
103.90100098 147.09500122 386.75601196
113.83300018 173.60598755 472.49499512
265.04000854 192.82699585 344.78598022
154.18200684 156.78500366 325.82299805
210.65199280 212.06599426 407.56298828
193.67500305 206.83399963 411.22900391
184.02899170 174.17100525 330.95800781
228.82499695 250.02101135 404.38000488
111.97800446 207.62500000 419.11599731
248.46800232 240.46499634 371.94897461
172.67900085 154.59799194 330.83700562
230.23899841 215.43400574 396.74899292
237.45899963 201.82899475 382.33898926
212.72200012 241.55099487 368.88400269
144.11898804 106.49900055 406.10598755
138.39300537 129.36900330 337.00299072
208.88699341 251.11499023 415.74298096
114.91200256 210.45599365 407.55999756
223.28099060 183.04499817 339.42602539
136.02499390 105.75299835 385.97198486
144.30599976 153.41299438 439.75000000
165.87400818 232.49900818 437.46798706
231.98300171 208.94299316 345.52401733
138.19000244 230.50999451 405.00302124
113.12300110 163.63499451 340.28500366
107.10199738 136.49400330 404.82101440
245.37399292 235.28599548 360.35900879
105.76999664 194.78799438 417.08499146
225.30398560 185.98100281 379.92098999
141.89399719 141.02500916 330.95602417
150.16398621 178.92100525 453.06900024
108.37599945 201.98400879 436.10900879
189.66600037 176.88999939 339.57601929
180.85198975 245.80299377 396.05200195
132.98699951 105.29199982 375.76898193
152.34400940 211.10198975 417.38098145
113.66899872 202.22200012 382.65499878
165.43600464 227.00299072 345.33502197
120.07600403 115.11799622 380.38302612
143.04299927 163.58799744 453.91799927
208.87899780 169.82699585 380.32598877
250.08601379 204.59799194 367.10800171
171.19898987 186.47200012 386.73202515
157.93000793 201.91200256 330.57800293
232.98400879 240.02699280 359.52999878
160.78401184 220.22500610 422.14398193
175.18099976 139.09600830 339.45199585
222.52400208 247.80899048 424.48400879
193.67399597 207.76901245 336.20101929
154.68501282 238.99400330 456.31597900
101.48000336 157.45399475 414.26400757
115.00299835 149.46398926 340.55999756
118.40100098 163.19898987 470.95901489
151.19400024 242.89500427 437.33901978
135.28500366 171.98300171 478.89999390
150.84399414 224.04100037 450.12200928
158.15000916 191.56700134 413.61801147
152.90998840 199.19599915 429.04000854
182.94499207 192.59500122 331.13198853
152.47599792 189.99299622 446.02502441
171.43400574 245.13000488 415.28601074
203.81599426 250.63999939 423.88000488
171.86500549 234.13800049 351.04098511
210.78399658 172.51899719 353.52700806
113.93799591 136.15199280 426.45901489
120.57099915 224.81300354 469.28997803
227.27101135 193.58601379 341.19497681
221.07000732 230.94700623 411.11599731
126.71400452 220.84901428 393.85198975
103.87100220 181.30398560 396.29800415
104.80199432 171.49800110 372.38500977
101.22299957 177.51300049 421.64999390
151.83299255 104.05399323 400.79000854
130.19200134 198.49101257 469.96301270
181.71099854 111.16999817 369.56597900
155.37400818 166.74099731 442.45898438
155.47200012 183.76699829 324.07000732
213.47099304 201.01199341 400.43801880
181.57699585 164.60398865 385.57601929
129.81900024 220.50000000 377.37500000
165.90901184 184.93099976 400.68600464
187.54800415 250.00500488 411.23501587
123.32600403 122.17099762 349.81600952
128.46800232 158.51699829 327.86102295
151.77400208 110.55999756 418.25698853
194.38099670 174.87899780 358.61599731
148.80900574 101.49900055 372.24398804
113.00899506 149.96899414 443.69998169
139.34999084 176.67100525 323.69500732
110.04900360 185.81700134 360.25698853
109.18199921 204.76100159 451.47799683
108.42200470 188.66400146 461.49600220
108.61600494 146.07701111 354.40798950
150.57200623 237.09901428 394.68701172
207.08399963 165.05500793 371.63699341
187.11900330 197.65600586 378.73397827
256.85302734 196.97200012 345.86398315
103.32299805 149.96199036 401.10299683
185.78199768 118.45800018 374.81399536
172.31700134 191.29798889 402.59997559
230.30300903 243.01499939 371.51101685
105.61000061 182.30700684 444.75701904
192.61700439 235.10299683 423.10299683
114.91699982 185.41200256 344.46600342
170.25799561 245.36499023 434.91500854
148.97698975 186.29100037 394.25701904
192.45800781 176.21701050 385.02099609
138.80699158 161.18099976 461.62899780
149.91000366 168.73200989 449.95300293
218.25799561 242.66200256 377.52099609
118.72000122 195.84700012 347.44302368
133.35299683 111.40200043 409.92297363
259.89401245 202.68000793 357.94299316
166.32400513 106.27400208 361.96899414
121.22399902 149.81498718 460.00701904
138.52598572 135.63301086 445.19601440
215.11199951 200.71400452 339.20898438
236.43200684 171.56599426 337.11901855
259.89099121 235.04499817 369.83401489
132.84700012 225.32499695 386.86099243
183.46699524 219.70899963 418.32501221
156.61500549 235.45298767 364.78900146
160.66500854 191.95500183 431.88900757
136.60700989 144.99699402 451.43399048
176.47700500 246.15800476 424.84799194
125.37199402 222.80999756 420.17401123
182.43699646 176.66299438 401.13101196
119.87199402 207.16300964 368.23498535
124.68700409 229.99299622 455.58398438
234.93299866 245.44900513 384.83102417
142.97500610 227.43899536 372.26098633
139.66600037 188.99198914 326.50900269
170.94999695 195.04899597 384.37399292
100.96099854 167.40701294 405.29598999
140.96800232 206.84799194 338.66198730
203.05499268 233.51800537 418.76199341
151.99501038 193.40998840 401.38598633
222.27500916 244.72500610 387.45700073
119.00799561 212.07398987 389.86099243
120.21599579 219.42498779 427.92599487
123.97699738 159.65699768 477.25701904
107.63700104 153.37300110 433.65798950
179.11000061 113.81000519 389.92700195
176.05000305 177.22999573 326.07598877
198.01899719 244.56599426 383.03198242
116.75799561 219.63700867 448.09500122
203.43199158 161.19000244 360.80700684
125.71899414 212.06698608 468.73699951
176.49600220 228.58299255 425.54699707
232.13800049 228.50000000 400.45700073
145.10400391 226.32699585 357.49301147
242.45700073 224.35000610 386.99499512
207.83000183 190.94200134 337.99200439
106.78400421 168.21600342 362.05102539
221.50399780 175.04901123 348.11999512
162.50199890 178.72700500 395.47900391
149.38999939 101.45600128 385.27700806
180.66099548 198.63999939 389.67700195
219.91099548 178.37400818 368.91897583
131.53601074 199.23899841 337.37701416
148.02799988 218.61199951 432.78198242
187.76600647 202.47599792 405.10800171
152.28700256 240.53298950 414.50198364
129.21301270 190.01800537 331.47698975
178.80999756 200.23599243 331.10202026
142.43200684 103.08599854 366.46301270
252.21199036 186.09300232 352.39498901
108.46099854 197.83499146 401.95401001
110.54000092 130.38499451 384.88998413
116.13000488 123.63400269 360.01397705
222.27000427 221.86300659 346.28799438
199.40200806 247.80899048 400.88998413
174.23098755 208.01899719 415.98901367
195.32400513 174.03199768 369.74298096
107.25700378 137.67700195 388.52798462
144.50399780 146.35899353 434.84100342
165.75399780 161.18901062 428.25299072
121.90899658 190.67401123 487.86602783
130.08799744 129.98298645 339.03900146
239.30299377 196.08700562 375.13500977
174.42199707 151.52000427 412.28198242
183.25300598 243.57800293 374.39999390
110.50300598 194.40199280 480.91598511
247.77600098 242.79400635 384.08801270
252.09201050 229.46499634 379.83099365
174.69200134 174.88400269 425.09100342
104.95999908 169.52900696 436.63000488
230.00399780 197.68600464 385.97100830
157.76899719 151.05799866 424.17498779
106.32499695 172.95800781 444.56402588
181.32301331 139.65800476 401.32800293
131.81700134 109.30699921 393.06399536
125.75499725 210.55500793 361.84799194
133.46199036 189.79299927 475.31597900
253.06600952 197.80400085 360.65100098
101.21299744 162.95599365 396.38500977
192.72300720 243.74299622 368.79199219
167.44799805 188.77799988 418.16400146
126.05099487 230.25999451 464.06497192
161.27400208 111.06300354 410.29598999
165.67599487 104.00799561 389.19100952
182.49000549 207.43800354 333.67098999
179.19500732 183.04798889 394.76300049
120.48100281 115.18300629 365.55999756
166.17100525 204.22900391 330.70001221
250.78100586 184.53599548 341.30499268
154.22000122 228.48999023 442.40298462
148.73500061 207.31199646 442.25799561
131.96000671 231.06401062 435.21197510
167.17300415 196.83699036 406.60101318
169.62599182 124.38500214 407.95001221
161.72200012 153.43699646 328.91101074
127.31799316 131.22799683 439.83200073
118.73500061 125.18299866 410.24301147
231.00300598 169.22900391 347.03799438
126.82500458 109.96899414 361.66302490
188.72900391 225.54199219 421.06597900
148.15199280 211.84899902 424.37600708
196.44099426 183.85499573 403.79901123
158.83601379 126.34399414 416.99798584
239.89399719 206.93099976 346.00201416
114.69899750 219.12098694 466.97500610
117.87000275 168.32000732 334.65399170
133.06201172 229.45399475 424.66500854
146.27000427 113.14500427 425.31298828
143.60499573 125.16300201 435.23098755
233.98199463 226.13899231 351.08300781
131.96499634 174.27000427 326.15798950
263.50299072 234.30900574 377.42297363
158.95600891 237.06401062 379.27600098
154.11500549 118.87200165 344.69699097
189.02200317 156.62400818 370.63900757
157.20899963 144.10499573 331.27700806
167.11700439 168.35899353 326.07202148
225.77099609 239.69100952 355.85900879
135.74400330 222.46499634 372.21398926
195.84899902 199.99299622 335.57702637
183.29299927 165.27999878 370.77099609
201.12100220 169.69900513 357.22698975
105.70199585 179.15501404 375.13198853
178.35499573 173.55500793 407.55599976
108.87599945 164.01100159 347.42199707
209.51600647 242.24699402 423.11599731
116.29799652 138.52999878 435.39498901
103.71900177 188.86700439 409.12899780
110.41100311 129.15701294 376.34301758
225.27200317 178.06799316 360.90600586
152.51000977 212.02500916 337.09100342
256.66201782 177.74101257 340.42401123
138.77900696 118.66200256 345.01599121
136.33500671 158.47399902 325.57101440
175.66200256 235.65100098 421.86401367
143.31098938 232.62699890 399.23599243
165.78300476 184.01300049 326.10299683
228.07699585 250.54600525 419.42599487
105.06299591 160.16101074 376.65499878
125.22299957 176.17900085 493.58300781
262.31198120 211.70500183 352.93701172
144.19000244 189.83000183 461.56799316
122.58999634 126.02700043 427.29699707
154.07499695 174.47799683 323.55599976
180.27099609 121.89400482 397.33599854
211.40399170 182.91699219 340.48797607
176.91400146 119.96699524 351.15298462
135.33599854 224.46200562 466.07800293
218.53099060 176.26098633 376.94799805
226.11999512 208.02499390 396.66799927
158.65699768 206.40400696 412.55999756
186.27500916 128.34199524 392.54598999
244.91400146 171.27198792 344.85501099
156.46398926 183.17300415 446.08200073
232.58000183 243.69400024 410.04699707
120.71400452 198.54199219 480.38198853
106.19599915 152.11399841 368.89599609
162.64399719 242.10198975 392.92401123
237.36000061 248.86399841 396.81100464
191.93199158 192.46199036 333.57800293
110.60299683 171.47900391 345.54800415
203.36799622 175.93798828 397.74899292
102.82500458 185.23899841 424.09100342
182.11999512 182.65699768 328.64401245
151.48599243 161.07901001 438.60000610
266.41799927 200.76000977 349.28500366
141.30599976 157.31999207 448.19998169
253.94099426 221.23899841 373.18899536
182.53298950 154.33299255 399.74700928
145.36898804 239.17999268 431.38400269
179.86199951 168.11500549 394.50100708
146.57099915 234.45999146 463.52197266
184.85400391 168.36000061 357.87200928
190.74299622 249.22500610 418.73199463
137.56098938 212.60400391 460.14099121
115.47499847 184.38200378 490.24200439
173.71900940 113.53500366 397.90402222
141.96400452 149.18600464 325.89401245
137.67799377 238.81199646 462.31399536
102.87799835 151.77899170 392.83300781
171.61299133 243.11299133 388.11499023
160.96499634 236.09001160 444.15499878
201.32099915 247.06600952 430.25698853
176.12199402 106.66999817 374.63098145
236.92900085 191.16899109 343.10098267
149.46701050 139.62300110 331.08599854
108.32299805 196.11799622 393.57598877
117.69499969 126.72799683 352.40499878
243.35299683 184.96798706 363.57098389
129.93699646 234.64199829 449.75997925
110.00399780 193.67199707 377.82400513
113.39099884 213.60600281 472.55099487
150.95899963 107.67900085 356.03601074
185.50199890 152.55000305 339.73397827
136.89500427 115.92400360 422.79699707
146.93400574 241.97399902 451.95401001
117.68099976 196.52700806 354.97497559
201.50099182 242.92599487 375.25799561
153.16900635 230.59700012 356.81399536
105.34399414 193.12300110 425.34500122
238.79901123 231.59100342 353.32998657
186.17599487 120.84799957 382.37100220
210.66500854 240.75700378 359.59197998
116.04499817 143.12599182 442.36199951
218.11500549 186.74899292 388.00698853
127.98200226 148.92399597 467.08200073
119.49300385 176.77999878 334.16500854
134.32499695 120.80399323 429.43899536
152.97299194 197.20600891 413.95397949
167.66299438 140.48400879 335.94302368
220.75100708 216.44000244 404.54800415
251.78302002 224.54100037 355.96298218
174.24800110 107.46700287 382.77999878
160.32699585 105.72899628 402.70901489
148.35700989 120.91300201 428.82202148
189.85800171 157.65998840 359.48397827
213.39700317 236.19400024 346.77499390
142.05299377 113.25900269 349.35998535
243.82499695 171.48399353 335.84899902
226.45199585 228.58299255 348.63201904
101.77799988 163.43901062 421.09298706
235.81700134 209.44300842 388.51800537
183.65199280 247.39700317 426.59301758
232.40899658 186.70899963 375.56298828
215.14999390 251.50001526 421.61898804
121.40799713 219.25000000 409.47500610
158.30799866 191.58700562 406.13800049
157.86199951 244.53700256 424.72399902
137.53199768 215.28199768 349.86001587
150.17098999 199.95500183 444.67898560
178.08300781 248.64601135 413.60101318
189.55099487 154.91799927 380.95401001
125.63900757 219.78199768 472.14498901
178.79199219 163.40699768 412.02499390
140.77600098 206.42800903 455.72900391
139.81700134 177.30200195 470.44900513
235.66499329 239.97799683 403.03701782
185.05200195 157.19898987 386.83599854
189.85398865 129.29899597 359.31597900
115.69300079 135.71199036 347.75399780
128.09799194 142.70600891 332.33898926
169.15798950 244.58500671 406.14001465
147.95201111 211.62001038 449.60000610
262.70101929 229.73799133 363.79000854
151.54699707 147.75498962 427.63299561
210.23799133 247.87199402 399.07901001
122.74599457 171.13900757 487.66400146
180.16799927 201.36900330 410.21200562
182.19799805 224.66099548 339.50299072
157.75599670 114.44299316 416.32397461
178.38299561 178.45599365 415.03997803
145.46099854 230.55999756 380.32098389
108.45899963 178.15699768 357.09698486
131.88900757 226.78300476 404.26199341
170.10099792 238.66600037 440.15698242
265.43899536 227.39599609 371.43798828
186.08599854 191.95300293 388.66400146
134.87899780 161.85200500 475.82699585
221.93199158 246.38600159 394.59802246
143.31201172 165.57499695 323.56597900
116.38599396 211.95199585 399.73699951
108.04499817 142.02400208 370.89300537
104.76200104 147.09800720 416.66098022
195.75401306 201.96099854 406.22601318
112.84100342 129.76899719 362.16299438
214.27400208 229.19400024 413.09100342
193.72399902 203.80499268 384.00701904
166.71699524 216.63600159 419.93902588
197.14799500 229.53199768 344.24200439
186.26800537 193.07400513 400.62600708
164.48899841 196.37699890 392.40499878
191.57501221 137.96398926 359.99600220
134.67199707 219.00399780 357.46801758
241.91300964 186.28599548 340.89801025
104.24400330 177.35198975 389.05200195
218.01300049 242.19200134 419.75097656
167.27499390 103.26599884 369.10900879
110.41799927 185.25900269 473.66198730
158.43200684 185.28599548 393.29498291
163.98599243 237.30799866 363.46099854
154.27301025 195.47499084 422.46801758
110.34999847 136.91400146 360.85000610
207.15199280 175.12500000 347.70001221
178.06098938 110.54900360 362.70098877
201.06500244 190.35301208 403.74899292
128.70899963 165.51800537 326.26400757
155.37400818 239.47399902 405.53799438
116.66899872 200.88999939 365.22497559
124.12300110 226.66000366 438.06600952
249.13400269 189.68099976 360.27099609
159.53601074 115.35699463 348.91098022
143.42401123 201.34399414 333.41400146
258.00000000 238.06700134 384.84600830
160.96000671 226.00300598 428.45199585
235.92401123 251.25798035 403.58599854
194.03298950 248.85800171 408.37100220
128.19799805 140.62699890 455.46499634
178.23899841 188.29899597 389.92199707
125.55600739 117.31600189 414.88702393
160.34999084 169.65399170 324.29998779
159.21600342 179.97399902 403.38098145
111.31600189 207.53500366 426.19299316
166.61900330 115.66300201 407.54299927
117.25600433 129.69400024 424.36502075
117.14600372 119.21899414 375.37701416
124.02299500 214.38899231 375.63400269
213.92900085 250.71299744 410.76098633
181.15901184 240.56599426 430.09799194
101.70800018 170.19499207 424.16598511
161.30700684 101.48000336 375.01000977
172.21200562 111.25399780 356.57501221
149.98400879 224.12799072 438.78601074
186.08699036 162.92199707 343.69799805
189.32600403 125.43499756 372.83300781
134.74099731 151.60400391 464.26998901
110.44999695 209.00199890 457.87701416
245.14999390 219.92399597 351.66998291
208.70600891 187.09700012 397.93701172
121.81299591 115.16999817 390.01400757
189.75700378 149.51199341 347.73800659
111.35099792 209.47900391 435.37399292
214.94300842 172.02099609 363.59799194
115.76599884 212.29499817 415.13400269
168.84700012 185.43901062 425.61401367
224.28900146 235.62399292 348.93399048
247.23100281 237.82299805 392.41497803
149.30101013 234.15899658 384.91601562
194.89399719 242.56999207 428.68499756
147.41299438 218.94000244 453.42700195
137.69499207 234.32199097 421.19198608
197.01098633 239.21400452 356.35000610
108.30100250 181.93499756 459.67098999
240.60800171 231.03300476 392.70202637
138.83000183 229.70500183 392.91198730
111.31499481 204.16400146 399.59201050
161.86000061 148.73098755 419.04699707
200.48800659 210.44000244 411.52798462
186.34599304 212.66700745 336.13299561
265.61199951 205.26200867 354.96099854
168.76600647 190.71899414 326.66998291
168.29598999 138.25799561 409.10400391
113.60099792 217.17601013 459.76300049
243.36999512 198.98899841 346.32199097
164.62199402 181.77301025 439.30798340
172.73400879 161.34100342 329.22698975
157.36399841 158.10800171 430.38897705
184.87399292 244.81600952 381.32101440
116.98199463 173.12699890 480.03198242
181.55599976 147.32499695 403.91098022
194.78100586 177.02999878 347.79901123
108.05200195 200.79598999 444.42199707
138.15798950 185.61700439 470.97302246
221.31199646 237.35600281 413.68402100
240.40199280 208.02200317 381.57202148
188.42799377 233.83200073 348.60101318
233.03799438 177.36401367 338.66900635
253.79800415 190.24400330 343.72198486
124.65200043 207.55400085 355.28298950
114.65899658 205.44299316 478.42599487
207.13999939 245.00599670 387.35101318
121.41699982 119.80200195 401.77301025
212.11199951 173.78700256 384.93499756
235.61100769 215.96199036 392.48098755
141.33299255 167.47100830 462.77899170
131.90100098 179.86000061 483.32199097
127.44799042 154.56100464 474.23602295
170.27999878 231.46099854 432.31500244
175.34600830 167.41499329 422.22399902
174.41000366 180.16999817 401.96899414
163.24099731 240.69898987 385.56399536
207.22599792 218.66000366 340.94000244
201.11698914 167.35998535 382.27600098
196.55700684 183.51200867 335.17901611
182.30499268 166.26800537 379.00097656
219.89599609 177.72300720 342.00701904
175.91198730 128.09400940 403.83999634
126.62300110 164.99499512 485.42700195
101.01499939 178.38899231 414.90399170
106.59299469 196.10600281 410.46499634
126.05400085 109.51300049 380.27001953
184.14700317 138.92900085 394.74899292
176.86599731 193.91099548 328.42800903
188.01901245 178.11801147 396.99600220
130.31900024 215.53399658 361.81701660
179.61299133 126.91600800 348.55700684
146.40000916 237.14199829 410.67697144
166.12300110 167.83699036 433.71398926
106.53399658 188.02000427 383.53900146
215.89698792 214.61599731 343.55599976
252.56500244 234.10299683 385.18099976
174.58399963 131.72900391 342.75799561
175.10800171 223.80599976 339.31698608
198.25099182 222.07400513 416.10101318
207.32901001 236.84799194 350.14501953
145.70899963 135.03399658 429.78701782
149.23699951 195.85000610 449.90798950
140.37699890 229.69099426 384.78298950
107.78400421 138.99398804 412.81399536
245.40400696 200.64599609 369.83200073
114.25799561 122.88100433 389.20700073
193.47601318 223.84800720 341.43499756
193.51199341 189.55400085 401.88699341
263.18698120 224.29499817 359.93899536
236.53100586 219.96299744 350.91201782
158.60000610 240.35299683 448.72299194
209.36499023 219.04400635 412.00399780
206.59899902 207.26499939 338.41601562
166.95199585 127.11900330 341.68899536
107.50900269 150.02700806 427.18899536
125.15599823 138.20600891 448.62600708
104.60499573 154.40200806 380.54699707
239.30500793 237.56500244 358.82199097
105.86100006 143.06401062 378.28100586
193.35299683 149.65899658 361.47698975
186.83299255 237.98799133 354.19900513
150.78700256 102.86100006 393.41299438
191.26400757 142.97200012 382.13699341
107.27299500 194.83500671 450.01699829
207.66799927 226.12098694 341.67098999
216.31500244 176.07598877 352.14199829
214.49198914 183.19400024 393.41000366
212.61599731 207.22100830 403.46200562
245.14199829 216.26899719 379.67700195
173.15100098 147.83898926 334.31100464
147.75100708 183.30099487 457.44100952
152.29499817 233.36799622 369.37399292
137.66198730 103.45999908 371.43499756
151.08799744 242.36799622 430.37500000
159.67300415 243.85600281 418.17700195
120.74700165 215.78199768 395.43899536
102.21599579 153.10800171 407.11001587
139.49600220 105.62500000 396.47601318
167.65199280 182.04598999 391.15499878
144.73199463 127.70600891 337.86700439
228.13899231 251.48999023 412.88598633
219.21400452 206.50799561 340.93402100
135.50799561 142.58599854 330.36300659
266.58401489 219.25898743 363.45898438
126.17600250 201.26600647 343.89199829
261.63900757 195.24900818 350.12100220
188.22300720 174.29499817 372.91400146
126.64100647 135.30099487 337.26599121
235.44400024 180.69699097 366.73901367
188.05599976 123.21600342 361.05200195
156.26499939 101.64199829 386.86300659
158.91299438 194.97300720 389.08999634
258.52700806 189.24499512 350.22698975
223.02799988 180.51899719 374.76501465
192.86799622 143.31900024 372.17102051
140.52400208 233.99600220 410.01998901
151.26100159 220.27499390 344.50299072
159.52000427 214.19499207 417.21200562
191.24600220 195.08300781 383.15701294
199.41900635 205.77299500 338.53598022
181.21301270 197.69999695 382.30099487
164.52699280 203.90200806 411.26400757
154.43299866 224.92500305 429.37500000
127.39300537 117.35700226 351.42898560
110.62400055 148.62998962 347.37899780
189.35800171 132.59799194 384.42501831
143.51199341 229.25299072 461.11199951
165.66300964 247.18699646 430.69100952
219.95399475 195.64401245 341.17498779
111.37100220 142.41899109 429.39300537
163.64300537 196.83100891 328.61502075
110.55500031 190.52799988 366.24801636
131.38999939 114.69799805 415.90698242
114.36499786 129.94499207 410.59100342
107.44400024 162.29901123 356.99002075
142.54899597 103.20100403 385.85699463
201.36999512 162.49200439 370.05697632
199.93099976 196.70899963 403.88299561
168.18701172 239.90699768 374.02001953
141.39300537 213.80999756 344.90200806
251.74700928 236.16799927 365.26199341
141.81100464 174.24800110 465.13699341
119.35400391 146.51200867 336.83801270
183.90100098 117.69599915 360.06201172
128.35598755 206.45500183 466.93099976
170.81999207 184.61700439 404.91699219
149.85800171 135.54200745 423.82498169
169.45199585 152.79499817 417.66299438
150.36299133 187.92399597 326.04000854
163.45899963 104.80899811 395.16101074
124.99600220 179.95600891 330.48699951
166.37800598 214.98399353 335.65301514
152.52299500 124.92900085 423.56399536
115.46199799 158.54400635 337.17999268
105.99599457 188.32301331 393.99600220
117.84899902 208.93499756 474.13098145
184.43499756 173.34100342 386.35098267
192.38999939 175.26499939 378.71099854
110.59300232 199.46899414 477.03799438
228.06700134 190.72500610 383.32400513
157.86099243 244.90499878 438.34399414
104.61399841 182.77600098 437.37399292
116.48000336 205.47000122 373.95700073
151.64199829 202.36900330 435.22500610
218.54499817 241.00700378 360.38601685
206.25999451 246.47999573 394.30999756
132.44099426 233.95500183 467.98001099
180.42700195 162.38699341 398.88299561
101.55599976 173.36599731 400.14498901
135.53201294 122.60199738 435.40899658
115.23999786 213.06300354 423.36401367
146.34799194 108.64599609 412.71701050
108.11799622 133.58599854 398.35101318
191.34899902 245.29100037 384.22201538
171.89500427 187.19999695 413.60299683
115.62100220 123.54599762 400.15301514
193.21400452 137.39199829 369.65200806
219.15200806 241.83300781 370.94799805
174.81599426 241.88999939 375.92800903
185.69599915 242.31800842 364.93798828
185.58799744 151.19299316 391.91299438
117.90299988 156.71600342 461.72198486
204.34199524 185.96200562 336.36401367
102.24899292 176.47300720 427.98098755
183.36000061 249.41600037 406.57800293
168.07398987 120.87299347 346.50399780
178.30599976 213.68299866 416.07202148
180.78500366 244.77200317 389.63000488
136.59100342 106.46899414 360.34399414
160.77200317 130.58100891 338.34600830
159.15901184 138.40299988 416.17797852
161.27999878 169.90600586 439.50997925
125.60500336 145.34600830 459.91900635
170.32699585 174.68099976 433.06198120
254.54598999 238.15699768 370.78500366
134.38500977 142.33799744 456.64199829
212.85598755 195.29600525 397.59500122
161.19000244 218.13999939 338.51699829
135.03601074 230.84500122 410.38598633
176.08200073 238.12001038 357.84899902
104.06700134 171.50599670 386.87597656
108.97900391 193.12899780 466.31198120
221.64500427 224.10600281 407.27697754
117.08200073 208.21099854 385.37899780
139.19000244 109.33999634 410.54498291
151.30999756 200.16799927 331.10897827
117.92700195 189.85598755 341.32400513
194.29301453 155.37199402 347.91400146
126.19799042 125.06699371 344.82501221
150.36399841 187.41799927 401.67700195
228.51699829 241.51000977 365.11700439
142.88999939 226.98699951 364.17999268
156.26699829 149.73199463 328.82101440
187.88400269 207.28700256 386.09600830
164.84100342 128.27299500 411.70098877
107.05900574 197.25300598 431.60098267
241.65399170 240.29800415 398.23498535
263.72201538 209.83200073 360.16198730
113.91100311 177.97799683 476.87899780
137.06900024 234.45799255 436.01599121
163.79399109 186.53999329 435.27600098
158.39500427 161.30400085 325.64700317
250.21600342 177.40699768 338.66500854
109.43599701 201.82600403 462.44400024
176.24800110 215.16600037 335.56802368
136.28500366 181.51499939 325.98800659
105.11700439 141.85200500 402.48400879
124.03099823 185.94999695 491.22500610
197.86700439 215.53500366 415.84500122
250.86700439 199.48500061 346.61499023
110.57599640 140.55900574 352.50100708
253.12098694 208.51899719 349.16897583
107.29499817 149.02499390 359.72299194
169.26499939 174.97499084 326.10800171
164.28999329 191.02700806 404.79498291
105.69799805 157.30099487 429.35101318
182.66900635 116.38599396 384.71798706
198.54701233 174.52700806 388.23101807
177.88000488 223.68699646 422.11401367
158.04299927 228.28399658 349.46798706
147.49800110 225.13600159 455.72998047
110.88800049 159.83699036 449.54299927
241.44500732 244.45399475 387.36502075
127.96099854 225.81799316 415.51397705
155.65901184 106.32599640 359.71600342
151.25000000 185.03199768 449.39102173
174.27400208 239.70399475 363.81097412
192.73300171 211.44400024 384.35900879
183.42800903 180.82598877 405.49902344
128.52799988 179.42599487 489.59799194
129.57899475 133.50900269 446.39300537
137.28700256 219.22099304 462.90798950
149.20201111 203.99400330 428.33001709
147.08999634 214.38400269 438.28698730
169.90100098 211.24299622 418.83999634
127.83299255 230.65599060 440.77600098
235.00199890 175.50900269 355.28900146
131.81399536 156.53100586 477.97399902
201.77200317 165.03900146 376.70098877
187.27700806 159.26901245 338.30599976
125.94499969 198.87599182 474.55499268
155.92900085 102.07600403 372.10101318
105.59899902 163.34700012 434.22000122
236.87901306 169.38699341 348.49102783
241.32600403 192.16200256 370.99700928
117.59900665 195.46900940 487.44000244
133.65399170 237.24700928 454.60501099
101.14700317 163.43499756 413.53799438
247.40299988 226.66899109 382.39602661
115.35300446 166.07099915 465.80899048
117.99900055 118.01300049 385.24600220
217.16799927 184.57501221 341.07598877
250.38200378 232.01100159 359.64599609
157.13800049 239.97799683 394.27798462
229.88900757 198.98699951 341.67401123
128.10699463 208.18499756 349.94998169
211.05400085 242.24099731 374.62298584
131.67601013 109.40699768 358.15499878
168.67700195 205.81999207 415.16101074
110.00399780 201.02700806 468.36999512
121.21500397 225.78799438 450.02697754
194.51400757 246.97599792 394.62597656
180.18199158 140.57501221 342.41900635
116.46299744 129.50900269 417.26101685
189.20899963 210.38099670 413.52798462
113.38800049 178.87001038 343.20199585
254.71299744 214.33900452 368.39398193
185.63600159 131.00799561 351.66601562
184.28599548 247.97500610 400.44299316
165.36700439 109.87800598 355.51101685
137.46699524 237.99900818 443.99700928
176.44299316 137.16200256 404.87097168
141.79299927 237.28900146 424.36599731
117.97699738 151.61299133 455.33401489
171.06799316 144.91699219 410.29000854
257.31201172 232.33799744 379.92999268
171.68399048 245.80000305 428.36199951
133.29699707 219.45799255 367.61001587
148.29798889 241.96699524 442.45700073
181.32301331 167.06100464 331.15802002
158.68798828 120.40799713 417.37301636
235.65599060 246.81900024 390.60000610
240.55300903 243.03900146 372.44201660
185.02398682 201.79399109 384.30099487
227.55400085 228.17300415 404.98098755
152.51399231 203.48199463 414.40100098
124.80100250 221.60499573 402.93099976
184.74000549 169.67100525 349.89498901
137.19900513 161.23298645 467.32199097
172.31500244 162.49899292 423.49697876
207.51098633 177.61999512 342.35198975
167.50199890 179.26699829 400.16000366
107.36100006 167.15100098 444.81597900
251.71301270 241.25100708 379.96899414
112.63000488 207.52899170 412.14801025
137.34500122 123.18400574 341.50900269
120.93900299 135.24099731 341.80502319
149.58799744 159.81500244 323.71398926
148.23199463 230.92300415 373.96499634
246.51800537 210.16799927 348.52297974
110.75299835 199.61099243 387.04998779
175.80500793 243.78399658 393.28598022
160.56199646 231.97799683 439.94097900
123.72200012 120.65200043 420.07000732
121.08699799 224.39601135 443.43399048
185.66000366 144.67900085 391.30300903
186.28500366 230.78399658 422.07299805
156.71899414 195.24400330 398.42700195
103.34999847 182.35499573 430.87100220
186.29499817 173.89999390 343.32000732
140.28399658 223.01701355 357.84597778
207.87901306 236.83300781 418.98797607
117.13500214 145.91999817 447.39300537
199.16200256 179.88299561 400.47299194
266.40200806 219.48799133 357.33700562
159.20401001 244.08200073 443.97000122
116.77400208 118.98400116 367.99499512
214.66299438 231.32299805 343.40600586
213.22099304 244.41699219 386.06900024
207.83599854 246.47000122 427.94497681
190.06698608 159.15499878 349.26901245
154.33099365 132.02999878 336.10998535
175.61199951 193.13999939 397.81900024
138.17599487 149.89500427 448.71099854
193.37800598 180.60598755 400.07800293
110.51200104 207.17201233 466.94400024
246.38398743 238.38500977 365.37997437
198.37300110 241.39199829 361.55502319
225.41200256 214.23498535 399.73101807
156.81700134 207.20599365 332.94601440
223.04501343 249.72599792 404.58398438
164.70800781 246.21699524 436.32800293
101.19999695 170.46600342 411.01800537
240.87400818 179.02000427 357.81198120
237.61000061 181.11898804 339.20098877
166.50000000 232.24798584 350.00900269
227.22700500 199.58799744 390.67001343
220.29598999 183.72898865 381.72097778
156.91099548 192.83898926 439.68200684
191.79699707 130.73899841 372.08599854
152.74200439 228.93099976 452.50201416
134.64898682 200.57800293 463.82998657
107.74900055 199.21000671 420.19299316
223.71000671 175.65100098 354.02200317
116.82800293 217.15000916 433.36199951
222.56800842 250.66798401 410.42300415
111.95000458 196.41799927 486.22302246
171.80999756 108.11699677 361.37399292
127.71099854 114.20299530 402.57998657
203.11399841 178.80400085 345.92199707
154.38101196 195.21899414 328.83999634
172.54400635 244.53399658 401.01800537
172.05200195 203.65499878 330.57299805
148.91499329 152.63299561 326.33099365
231.79499817 223.16500854 398.41799927
178.38099670 116.37700653 394.98800659
101.93099976 181.91600037 410.31597900
168.54000854 107.78699493 396.91201782
106.85900116 182.68899536 451.05999756
148.57199097 173.61199951 454.40798950
149.12500000 207.13000488 421.33398438
176.15499878 197.07701111 385.49301147
217.97299194 204.79499817 398.95300293
213.34399414 249.44500732 405.24200439
181.46299744 229.84500122 344.59497070
197.41099548 218.02101135 340.57501221
230.55799866 210.38400269 394.00100708
185.38500977 186.64399719 331.05099487
154.02301025 137.82400513 420.18499756
250.50398254 219.27999878 353.45199585
149.88999939 125.79399109 339.27301025
174.25399780 196.02600098 405.07098389
209.03498840 251.42300415 421.79299927
124.98900604 190.71101379 335.19900513
129.30299377 106.47899628 371.62301636
215.78900146 214.52999878 406.52200317
140.26300049 135.91900635 332.80798340
167.71299744 156.25299072 328.67498779
128.98500061 225.37199402 423.69299316
257.39999390 184.86000061 346.33801270
184.57899475 160.05200195 372.50399780
112.05500031 166.89201355 459.72500610
164.13000488 195.07299805 386.91400146
254.51100159 202.83399963 362.76300049
184.49899292 138.81100464 347.33599854
239.52700806 225.11500549 351.12597656
201.54600525 227.95599365 416.99002075
191.74798584 149.68399048 379.92297363
208.24800110 241.45098877 364.63101196
173.54499817 242.50698853 381.37799072
131.91300964 166.91799927 485.46298218
110.69999695 129.31999207 370.08801270
208.58999634 200.98799133 403.23300171
146.08099365 219.06500244 347.06399536
184.47700500 169.19100952 366.16998291
176.56700134 247.85499573 419.49600220
109.02199554 172.64399719 455.38699341
224.08000183 207.56399536 343.76400757
144.37399292 141.38600159 432.26501465
201.74198914 195.88699341 336.01000977
129.51300049 194.74301147 334.71798706
145.85800171 240.04000854 436.89001465
127.48299408 122.56299591 427.48999023
176.83898926 239.79100037 426.63101196
231.88400269 168.95300293 341.52499390
227.61500549 179.65299988 338.45401001
123.19499969 163.57899475 329.81802368
182.52000427 113.75299835 363.76300049
153.95599365 171.76799011 447.59500122
224.40600586 188.80599976 341.01901245
190.74598694 220.77099609 418.72799683
188.49400330 141.14900208 351.51800537
157.56900024 233.61599731 359.61700439
136.58801270 113.00700378 418.06701660
244.29699707 167.10099792 339.24600220
247.69400024 207.30599976 371.33499146
170.72900391 229.62098694 345.60000610
158.43699646 179.11000061 323.48498535
188.19099426 207.24501038 335.51898193
194.32899475 151.85299683 354.71200562
176.37300110 175.38200378 419.19799805
268.79400635 209.95100403 355.99301147
167.10600281 235.05799866 355.57400513
208.80599976 181.55500793 397.94601440
114.21199799 214.37199402 437.38201904
133.82400513 130.21800232 444.76101685
134.71099854 191.34399414 329.67498779
130.97099304 147.18699646 329.34799194
155.38099670 218.70399475 421.20501709
236.14799500 213.62599182 348.55300903
111.64599609 211.74299622 448.06600952
157.06799316 235.66600037 374.27398682
196.14799500 179.90399170 339.47900391
136.88899231 106.20800018 391.40600586
146.72100830 104.40499878 398.74099731
163.92999268 189.69799805 426.67300415
224.62500000 247.96800232 399.14398193
210.87199402 167.42700195 368.40600586
256.86599731 215.06999207 353.05599976
104.48699951 172.74099731 377.74398804
185.62998962 214.97799683 416.51800537
189.41999817 247.84399414 396.51998901
213.47700500 172.08999634 377.17599487
227.29000854 213.37799072 346.16900635
167.11700439 190.07398987 385.54299927
113.04599762 125.13800049 394.84399414
170.96299744 115.02999878 402.42199707
177.67601013 206.62599182 331.14001465
128.46400452 152.09298706 328.81799316
109.84099579 131.55000305 403.15698242
185.15699768 198.08999634 403.06799316
245.49899292 176.74900818 349.86001587
176.95899963 144.52000427 338.38000488
190.83799744 179.59800720 334.04998779
191.13000488 201.13800049 376.39999390
180.98799133 160.88099670 404.38198853
148.91900635 195.46400452 397.33300781
124.78800201 129.67799377 435.22302246
120.44000244 200.73899841 352.30899048
109.64600372 178.02099609 463.33398438
148.09001160 156.70100403 437.53799438
120.71499634 114.90499878 371.25000000
130.46600342 222.95199585 382.54202271
258.94998169 192.02099609 344.22299194
238.66799927 219.66700745 389.86798096
162.81600952 140.01600647 333.46701050
181.22300720 242.34400940 369.48300171
115.03600311 181.24499512 485.50097656
142.55300903 195.91000366 330.36700439
120.96199799 213.07800293 381.81298828
102.96200562 150.81100464 411.98901367
144.08000183 117.56700134 345.54998779
117.53500366 221.26899719 472.11901855
149.44801331 105.45500183 405.89599609
117.76300049 168.74400330 475.92398071
119.60999298 224.96701050 463.58499146
122.10299683 219.72599792 416.50598145
129.83099365 187.41600037 481.74398804
186.09001160 220.09300232 338.44198608
147.45800781 210.52200317 338.33300781
110.39700317 188.90699768 477.66302490
198.92700195 236.93499756 422.17098999
137.58599854 174.11500549 474.21099854
153.98699951 233.44000244 455.41000366
111.42099762 194.30000305 370.02700806
154.06199646 242.67500305 452.40597534
139.07400513 227.94400024 464.31298828
109.02400208 141.86500549 357.76098633
108.37400055 157.69100952 351.12802124
198.34899902 206.06399536 408.57699585
157.13800049 214.79100037 337.01699829
208.98599243 197.99398804 338.67800903
162.85400391 223.28999329 342.40100098
161.94200134 101.83399963 380.83700562
187.13699341 243.87699890 370.67800903
194.19200134 174.67900085 364.51901245
187.40800476 158.50999451 364.81799316
168.22000122 193.68000793 397.94497681
160.65699768 179.98300171 443.40301514
141.86199951 237.90899658 465.56799316
109.15999603 203.35600281 457.29699707
112.53400421 190.45298767 487.91302490
133.44999695 117.22299957 347.70599365
193.51400757 212.46699524 338.80401611
236.62699890 190.03399658 375.45098877
110.53500366 201.29100037 392.14797974
202.42900085 161.52000427 355.54299927
222.51998901 196.19599915 391.07598877
102.23200226 165.16200256 391.60000610
172.92599487 181.00700378 424.87002563
180.86799622 213.21701050 333.66702271
205.51399231 162.56199646 365.55297852
156.65901184 195.66200256 427.26000977
121.66299438 116.87300110 395.99099731
152.74600220 232.40501404 362.69000244
218.59500122 192.38800049 391.10601807
113.77000427 159.82000732 456.54898071
107.46800232 181.46699524 370.64999390
186.58099365 238.02099609 427.44000244
108.21100616 135.21200562 393.27301025
126.91499329 184.91700745 330.85299683
166.79899597 220.61199951 423.48599243
188.21699524 173.38400269 356.59899902
144.68299866 179.06999207 461.70498657
104.56199646 164.31500244 373.36199951
108.73699951 174.97799683 352.58499146
134.34199524 105.67999268 380.89999390
120.95200348 210.21301270 372.45800781
234.95599365 242.12600708 364.75802612
201.88400269 173.04100037 393.54397583
186.77900696 124.21300507 387.14797974
200.36500549 234.82299805 350.21099854
231.77799988 237.97300720 354.78601074
206.92401123 165.99699402 355.95700073
179.98200989 151.91000366 408.32000732
101.05599976 167.18800354 399.99700928
156.29200745 222.47399902 425.05499268
231.54798889 178.69299316 363.68499756
224.43998718 245.00599670 419.48898315
109.36299896 189.22799683 470.31701660
209.36299133 239.31599426 354.36697388
186.07899475 193.29499817 381.55300903
103.93500519 185.24501038 402.25601196
170.30200195 224.46900940 341.43798828
174.30299377 182.82400513 392.42898560
161.26100159 106.48799896 360.44699097
135.52999878 202.64401245 338.04299927
190.67098999 132.19200134 378.65499878
184.40798950 132.79699707 396.15301514
127.18099213 111.87500000 392.40100098
160.71099854 188.37100220 401.95098877
221.46501160 239.40299988 352.80999756
235.57400513 244.43000793 378.45199585
189.92399597 247.31700134 428.36099243
199.07099915 172.21101379 382.59899902
150.81399536 113.54199982 422.66601562
111.54399872 197.78199768 380.76599121
120.12899780 179.51600647 492.57998657
182.13600159 182.33599854 399.07901001
143.42700195 218.25599670 457.15298462
160.25300598 156.06999207 426.48300171
211.37200928 215.10600281 340.90301514
110.14399719 152.96701050 440.45800781
210.10400391 168.61799622 375.11502075
173.77999878 115.88899994 352.24801636
128.98999023 224.02400208 400.85400391
105.50299835 157.04699707 365.15798950
230.51199341 246.36300659 414.07098389
187.90901184 121.03000641 370.34899902
128.81500244 113.90099335 410.77600098
205.36099243 171.91200256 351.44100952
130.67799377 222.34399414 468.96099854
229.05200195 182.69898987 375.18701172
174.55300903 233.68699646 428.83599854
218.66500854 177.85200500 363.85400391
167.01699829 238.86000061 367.44500732
137.05599976 140.28399658 449.18899536
140.78399658 181.90098572 323.33099365
132.77799988 211.99400330 350.47702026
109.83000183 203.38700867 416.91400146
111.68099976 179.89799500 472.54898071
161.00199890 196.06800842 405.45498657
184.47299194 163.59600830 337.44201660
238.53201294 247.87998962 407.71499634
252.31001282 189.88198853 356.12500000
109.62400055 158.08300781 444.23699951
106.65000153 172.90901184 366.40997314
151.79699707 237.03500366 460.20300293
152.03500366 216.39999390 340.71600342
144.62399292 129.85600281 433.17602539
148.06900024 151.01200867 433.45999146
119.22399902 203.55999756 476.73602295
103.89099884 147.61199951 395.80801392
135.85099792 149.31900024 455.55401611
118.21500397 189.34400940 493.89498901
232.80499268 251.45799255 407.86401367
254.34899902 180.05700684 344.87100220
125.58799744 114.08699799 357.12600708
130.84899902 108.31400299 387.71798706
139.24600220 108.07400513 405.22000122
193.38700867 154.40599060 372.38198853
169.44000244 157.37199402 421.63900757
163.02700806 238.47801208 376.38000488
230.34300232 248.64900208 398.18701172
227.40299988 239.12699890 410.80200195
108.48899841 151.22300720 353.77697754
147.78298950 224.54499817 352.35299683
246.37599182 210.82699585 374.90002441
240.06700134 202.16900635 377.87802124
188.05799866 159.67799377 355.06799316
205.38101196 243.15400696 379.00701904
155.18099976 190.37599182 390.77600098
115.10299683 127.87500000 356.74801636
185.67498779 188.15899658 398.00097656
228.85299683 245.63301086 388.50299072
150.31401062 223.62500000 444.99499512
140.93899536 113.16799927 421.12698364
145.50199890 145.89500427 328.41000366
125.12099457 131.68099976 340.62399292
155.32099915 195.69100952 409.61199951
194.55200195 175.55400085 353.50000000
146.61100769 213.66200256 432.42599487
138.91300964 224.29699707 368.57598877
164.40899658 244.70298767 413.95800781
248.11300659 242.55999756 394.24899292
233.51800537 197.31100464 382.20300293
176.44799805 183.23100281 415.17199707
177.47200012 153.39500427 334.10998535
177.98300171 205.42498779 413.59698486
144.95500183 168.59599304 456.39300537
145.99198914 110.62200165 419.39498901
190.31300354 138.72200012 384.86798096
177.36299133 168.92201233 410.57397461
104.71399689 147.31599426 381.68600464
104.83699799 177.46501160 439.03601074
154.46800232 114.62500000 348.52001953
186.61000061 249.11999512 422.76901245
181.39199829 194.32299805 399.31500244
115.71100616 217.11898804 443.75100708
206.52499390 213.44700623 341.09698486
101.85700226 158.04399109 397.69900513
115.95700073 182.52400208 340.36499023
145.71798706 198.52000427 452.50100708
130.29100037 111.45199585 398.37200928
137.54400635 229.20001221 400.09799194
108.19100189 137.22200012 372.65701294
121.06800079 213.27499390 472.94900513
137.81399536 146.75999451 328.52102661
262.57897949 199.81098938 352.52197266
147.39599609 239.06600952 416.79998779
107.25399780 147.50898743 422.75399780
257.70898438 228.15200806 359.71899414
183.69198608 169.70899963 375.49499512
206.80999756 174.01300049 391.33898926
116.20800018 210.14900208 394.55200195
196.20600891 156.44100952 358.62200928
163.61199951 190.14199829 415.09301758
175.95700073 189.73599243 384.00701904
118.19099426 154.60400391 335.44601440
262.04199219 223.97999573 369.77600098
180.99600220 238.67599487 356.62698364
172.05299377 104.25299835 372.74798584
142.07499695 227.85400391 377.56198120
141.55599976 114.69499969 426.45300293
177.34300232 245.81300354 399.89700317
146.85200500 101.29799652 377.14700317
160.31199646 126.15099335 340.80300903
187.86500549 176.02600098 388.97500610
108.13099670 200.06900024 449.45401001
105.62799835 191.21000671 438.65200806
183.50799561 171.76499939 335.40600586
204.75999451 222.73899841 414.45401001
140.74101257 195.21499634 462.54598999
242.11799622 219.41499329 385.87899780
129.75199890 218.35101318 372.78698730
180.65699768 179.09399414 410.55798340
272.60900879 214.72799683 357.37600708
155.29600525 236.35299683 382.69900513
134.52899170 165.71701050 479.07598877
245.98899841 242.26600647 375.97598267
103.42100525 160.33099365 426.00000000
173.89799500 172.35000610 326.85101318
161.62001038 184.13899231 398.12402344
133.53199768 230.07299805 430.51202393
105.18799591 165.95199585 368.31600952
125.06200409 222.64399719 425.32699585
127.84400940 108.24900055 366.29998779
104.22100067 162.13400269 381.93399048
177.29798889 161.96400452 331.28298950
116.89999390 191.33099365 346.13800049
178.81298828 111.95100403 384.41198730
200.35398865 167.05799866 371.92800903
211.46600342 232.91000366 415.56799316
152.77700806 241.61599731 419.39700317
139.86698914 140.72200012 440.27200317
168.49600220 104.02899933 385.02200317
106.80100250 157.97099304 435.52398682
138.74700928 209.50199890 342.31500244
253.08900452 241.25199890 384.92599487
179.85899353 173.11500549 328.35098267
136.91200256 204.02301025 460.00900269
162.66099548 246.21600342 425.30899048
124.89099884 224.85501099 471.86300659
146.71699524 191.79800415 394.69900513
263.27700806 214.38400269 362.23599243
131.36500549 126.24099731 436.41201782
222.37400818 243.57398987 382.57299805
166.22700500 102.06900024 374.22399902
180.14300537 171.95500183 397.71398926
207.37199402 170.92399597 384.98101807
140.03199768 120.11100006 434.52200317
143.45201111 233.10400391 404.21798706
170.87200928 179.71499634 326.09899902
183.38400269 155.88800049 336.66598511
217.94700623 237.35499573 348.50399780
132.55799866 161.69999695 326.14898682
234.29598999 235.52799988 401.21600342
256.11999512 200.91600037 348.84399414
135.82099915 153.50900269 459.52798462
217.04299927 173.49499512 367.88601685
104.91600037 182.07299805 390.53198242
232.15599060 189.31298828 340.96899414
156.29699707 122.65499878 342.28198242
167.47200012 131.83399963 409.39901733
157.50900269 196.10600281 432.15499878
174.04299927 187.61799622 407.25399780
114.10800171 204.84899902 387.54598999
124.41699982 191.93699646 483.23699951
127.74700165 176.51599121 328.15997314
165.65699768 186.28799438 430.66900635
139.95300293 159.89300537 455.16198730
183.86000061 244.91400146 430.89602661
119.74500275 135.70399475 437.59301758
164.84600830 229.52101135 433.63101196
155.29100037 188.49200439 326.23400879
149.23001099 118.13800049 345.19000244
241.59201050 192.78300476 343.62399292
117.66000366 124.40100098 405.46301270
161.93800354 206.80799866 330.91101074
190.23100281 125.70400238 365.68298340
119.16100311 122.55599976 354.64901733
144.85899353 233.82000732 394.24197388
187.04899597 211.47200012 383.57202148
141.82400513 148.41799927 440.23800659
253.70800781 207.97599792 365.73498535
151.82000732 102.77899933 367.68002319
252.73800659 182.49000549 349.03601074
188.80499268 154.09700012 385.92700195
215.64898682 241.38800049 364.38198853
113.67300415 155.28399658 340.44500732
186.06999207 240.11898804 358.59899902
205.68600464 242.07499695 372.76199341
182.28399658 160.92900085 388.80999756
226.25500488 240.84399414 360.77401733
166.09999084 238.79598999 443.67797852
225.08999634 202.80599976 393.74700928
180.94499207 120.01200104 353.99899292
162.32299805 141.95700073 414.87698364
149.26100159 219.62199402 447.66900635
132.89100647 212.55799866 463.83898926
155.66499329 161.84399414 435.83599854
194.51998901 204.18299866 378.26800537
210.80900574 223.69400024 413.14599609
122.23400116 198.65399170 345.26501465
248.37001038 169.75599670 340.01898193
221.18499756 251.08399963 420.30099487
115.53399658 150.47200012 450.15698242
150.08898926 180.24699402 323.67001343
124.70199585 216.44100952 380.03997803
155.12100220 193.55699158 416.92700195
123.38800049 145.68699646 334.17199707
161.05799866 185.31700134 326.23199463
243.45399475 190.22299194 366.84997559
142.80499268 240.84199524 448.20098877
105.79699707 141.11399841 385.36001587
124.45200348 211.27600098 367.69000244
140.90299988 128.79200745 439.43099976
153.77099609 185.80099487 395.09298706
176.61599731 163.22200012 416.88998413
110.65200043 132.96798706 409.60800171
184.59400940 179.13900757 330.96600342
193.67599487 249.24400330 414.82800293
143.72799683 161.30099487 449.65698242
188.69100952 195.57400513 331.67098999
196.48699951 243.66400146 371.89700317
192.98799133 238.18499756 353.11401367
215.85600281 180.04701233 389.94000244
195.17298889 248.40000916 403.24899292
130.82299805 111.52300262 405.20700073
121.32500458 221.84999084 432.00497437
163.87699890 176.57099915 440.56002808
153.07701111 144.55099487 424.29598999
120.09999847 140.81799316 444.95098877
135.61299133 229.31799316 468.43200684
234.83799744 204.60099792 344.20300293
124.44899750 228.08299255 468.24499512
167.92300415 163.92100525 327.90399170
219.53800964 217.83599854 343.41400146
107.43000031 146.36898804 368.68899536
229.30699158 176.44799805 357.64102173
184.44900513 115.04500580 371.62200928
242.99099731 235.85099792 393.73400879
111.47200012 138.89099121 420.48199463
150.74299622 223.53500366 432.20098877
203.16700745 244.05198669 383.22601318
129.56100464 204.64900208 344.65200806
172.25100708 245.16999817 422.69799805
198.32099915 172.17098999 364.19299316
195.50700378 247.53601074 430.15399170
109.18299866 203.59500122 429.52001953
202.76100159 249.05200195 406.41201782
218.85600281 224.66400146 344.32501221
177.59298706 158.01399231 412.46301270
144.26399231 190.47399902 326.43899536
123.87699890 154.71899414 331.08200073
245.30200195 220.48200989 382.41101074
109.22399902 185.87200928 365.01199341
162.17599487 112.35699463 352.13299561
109.56300354 205.59098816 439.08599854
108.93599701 197.03700256 462.72399902
203.58399963 250.33200073 414.59701538
108.01900482 193.61500549 455.65200806
133.08799744 172.42500305 483.16699219
183.69999695 125.10800171 395.01501465
236.08100891 235.81799316 354.66799927
196.85700989 194.68400574 334.15600586
131.94699097 169.06900024 326.00900269
153.70999146 138.50801086 333.05200195
112.97499847 183.56999207 350.52001953
216.71000671 196.12599182 394.84997559
170.48199463 185.00999451 326.15100098
134.63699341 176.67100525 479.72198486
144.04100037 175.64100647 323.61502075
142.38700867 153.96900940 326.02200317
194.38800049 187.59100342 333.86401367
136.03300476 171.07499695 323.42498779
201.91999817 229.34899902 343.75598145
202.63999939 216.53900146 341.29501343
137.38299561 117.65699768 427.24600220
142.43600464 237.29600525 434.95397949
104.34899902 191.40699768 420.98098755
156.62600708 236.19400024 452.50799561
178.52899170 218.87899780 418.67398071
193.82899475 211.63299561 413.67501831
113.92199707 190.72000122 357.30200195
137.06498718 104.03099823 366.69097900
113.14299774 125.32499695 377.22201538
192.44999695 177.41900635 389.65402222
167.28399658 177.98799133 394.93499756
123.13099670 112.38200378 382.84799194
117.77999878 199.40899658 360.81799316
133.67498779 219.27499390 362.39498901
242.67199707 228.72599792 388.90100098
230.56500244 232.60099792 404.04901123
204.73399353 248.28700256 402.13000488
204.92201233 210.98999023 409.84899902
214.36299133 251.54701233 416.91198730
168.30499268 178.68099976 435.08300781
103.57599640 170.43399048 432.15600586
169.34500122 148.74899292 413.52200317
117.86500549 138.80099487 342.53500366
150.75599670 203.87500000 439.65200806
136.24000549 232.30400085 426.82400513
117.53099823 214.28201294 406.50000000
201.95600891 245.20799255 388.20098877
172.01901245 228.13500977 427.07800293
137.35101318 233.38900757 415.08401489
162.98599243 184.43800354 392.23400879
192.01800537 143.83099365 377.52700806
212.49499512 215.95199585 409.62899780
192.49099731 177.34498596 343.36199951
235.87100220 243.77099609 372.25900269
170.14700317 150.53900146 331.83200073
131.22900391 186.86300659 328.57199097
102.00000000 160.54501343 390.55999756
264.85800171 232.96600342 373.08999634
183.62599182 225.04399109 418.77600098
250.59700012 174.67900085 342.51400757
113.07500458 208.97898865 474.78500366
194.57400513 198.41900635 382.76699829
117.82500458 143.15100098 340.07998657
241.74700928 174.60900879 338.92300415
170.38500977 196.48500061 389.50399780
181.50999451 231.04299927 420.77301025
152.48001099 215.23899841 419.83700562
176.19599915 235.26899719 352.54202271
181.75799561 112.16100311 374.21499634
130.09100342 151.91499329 471.35900879
153.83100891 228.39199829 447.10400391
158.68299866 197.14500427 328.69198608
195.30700684 242.68699646 364.89401245
237.69299316 206.47099304 385.38000488
127.02499390 168.96099854 487.93099976
134.82199097 216.44100952 353.52999878
204.27099609 187.72399902 401.53500366
106.23200226 153.00099182 362.88000488
167.17199707 227.48400879 429.91400146
161.86000061 144.60800171 330.87701416
122.18499756 215.36299133 388.79699707
193.17199707 230.13299561 421.44097900
110.79800415 137.36500549 355.93399048
136.42599487 110.50900269 353.66897583
117.72599792 130.25500488 349.31500244
155.11299133 109.05200195 414.01098633
105.14300537 190.84599304 405.12600708
217.93598938 175.21099854 372.15499878
185.06098938 155.57398987 396.00100708
211.19799805 170.17201233 357.56201172
212.92300415 240.74600220 420.27099609
130.65800476 224.19000244 394.36099243
133.95500183 184.27400208 478.25100708
107.12999725 193.38500977 397.18801880
189.30499268 206.15499878 409.68600464
136.01499939 236.66499329 466.12799072
245.78799438 230.65499878 356.30999756
201.97999573 250.60900879 419.57901001
119.45000458 173.01499939 484.92898560
123.60700226 111.76399994 366.18798828
132.33099365 194.63301086 471.50299072
130.20999146 112.60900116 354.82699585
107.38600159 184.55700684 375.41601562
144.21600342 193.81700134 459.14001465
261.18499756 198.46899414 346.74899292
237.94000244 213.74900818 389.10400391
181.74299622 186.88899231 395.44100952
115.87400055 202.67700195 370.28100586
124.02200317 150.25299072 465.02600098
234.57699585 195.63099670 343.79800415
237.89100647 167.62001038 339.11199951
175.22700500 147.39199829 409.42599487
146.92201233 193.54100037 401.52401733
224.70300293 233.85700989 409.26199341
177.84599304 132.26699829 403.15899658
110.39599609 160.50000000 344.76501465
158.70599365 104.39099884 398.56500244
109.31199646 205.19499207 445.22900391
165.76699829 210.99301147 333.35501099
152.92599487 237.40299988 389.80001831
145.35200500 158.11500549 442.50698853
179.46299744 125.48799896 400.16101074
134.90899658 107.80899811 396.18399048
147.66799927 215.06300354 427.68698120
147.90100098 211.83000183 442.90499878
233.55099487 219.81500244 395.73098755
252.47299194 203.78300476 348.78399658
225.84199524 242.67800903 372.73400879
218.85299683 245.27500916 423.22601318
178.70399475 221.27899170 337.84899902
154.09899902 207.83300781 414.26400757
226.01600647 172.39799500 345.29501343
103.74499512 166.62199402 386.30801392
169.28100586 119.34899902 406.66101074
176.60200500 196.82299805 390.96398926
127.29500580 198.51000977 339.89901733
182.50498962 249.96000671 413.98300171
149.59600830 229.54100037 359.55999756
104.18199921 150.99699402 419.08401489
162.87699890 134.11900330 336.23400879
194.86300659 249.71200562 420.77999878
163.76300049 243.83999634 408.88101196
148.53500366 235.56600952 390.82699585
139.76399231 132.72799683 441.81698608
126.85699463 161.41099548 482.51599121
127.33599854 211.45999146 357.45901489
256.75201416 234.76699829 366.45498657
154.80000305 109.59199524 354.32299805
155.59500122 225.18299866 347.07800293
161.04600525 108.14399719 406.72698975
248.23200989 179.97799683 351.70700073
242.99800110 245.45001221 397.64898682
229.07299805 203.13299561 343.52697754
180.87600708 155.03500366 404.25198364
125.13199615 139.82800293 335.95999146
106.12999725 165.92300415 439.24099731
185.01300049 162.83700562 358.63000488
173.90899658 242.53700256 432.31500244
107.88700104 185.73500061 457.10998535
219.17399597 200.45199585 341.35400391
184.16899109 203.62399292 410.48800659
137.80499268 239.42799377 455.90798950
131.85200500 133.19799805 336.28201294
135.55799866 135.09300232 448.64999390
182.92201233 202.16799927 331.68701172
212.50300598 227.30599976 343.81698608
146.12199402 116.80799866 429.18099976
191.95201111 182.97000122 403.90100098
156.80700684 235.88800049 369.71200562
112.23200226 147.50599670 439.15899658
146.64599609 166.75401306 452.47302246
171.28999329 221.24000549 424.06399536
112.35699463 172.80000305 467.03900146
195.71701050 173.96701050 375.40200806
120.70000458 150.20799255 334.52099609
255.36700439 174.01699829 337.91000366
184.75799561 197.31700134 391.18798828
171.31700134 167.91200256 327.79501343
172.54600525 177.50599670 428.14199829
179.70100403 186.52099609 328.62298584
131.49800110 228.83898926 412.44500732
146.80300903 106.87599945 357.72201538
137.24499512 199.96800232 334.77899170
222.40899658 227.26200867 346.07101440
140.09899902 123.42900085 437.64099121
154.58900452 240.26699829 409.95300293
104.04399872 151.53500366 384.03698730
122.13800049 219.80799866 421.28598022
212.90600586 186.72500610 338.50399780
174.62599182 109.06100464 387.01800537
189.18299866 223.16900635 339.70300293
214.01899719 244.99200439 424.80700684
115.92199707 163.00299072 336.48800659
161.58000183 160.47100830 429.87600708
182.58599854 149.07699585 339.81100464
119.74900055 204.10899353 364.37600708
144.48699951 207.43699646 451.70700073
214.09500122 204.86700439 341.12399292
191.35198975 238.28401184 426.07098389
149.61700439 241.50300598 458.52398682
146.40299988 188.45700073 397.74099731
217.77400208 244.62699890 386.96200562
193.06500244 136.02799988 365.33599854
150.68699646 200.78800964 425.43200684
108.26799774 189.58100891 378.67098999
133.45300293 118.72900391 425.28097534
173.12399292 139.81300354 406.42102051
109.05300140 152.64900208 349.52600098
165.08799744 139.83100891 412.00799561
107.36399841 172.57200623 361.01498413
261.81500244 188.78399658 345.52600098
189.41600037 196.20800781 399.66198730
126.14299011 108.89100647 375.80001831
257.07699585 209.39500427 351.15701294
187.74400330 131.65299988 389.23199463
126.60800171 231.87998962 448.47802734
246.65899658 186.33300781 341.66601562
204.98699951 240.75700378 361.59301758
239.67100525 201.56001282 346.16400146
192.98599243 148.84799194 365.89498901
208.11900330 192.77200317 397.83599854
153.68899536 227.29901123 436.77398682
105.43299866 142.94400024 391.40002441
110.30200195 202.27900696 403.55398560
178.80099487 242.30799866 373.27798462
102.66999817 176.87001038 397.55300903
201.18099976 161.42900085 365.13201904
126.37500763 202.98999023 470.03298950
217.88699341 234.44200134 413.70999146
191.27499390 202.92800903 334.16198730
162.02999878 201.02700806 328.59799194
169.65199280 235.02000427 437.57199097
249.86299133 198.00799561 363.79299927
250.62599182 192.77400208 345.64599609
222.48600769 205.38800049 396.66900635
133.01399231 150.39900208 468.23098755
197.43501282 210.28800964 338.79901123
154.77000427 200.43798828 411.41500854
103.13100433 148.72799683 406.52099609
150.68299866 129.48800659 336.86398315
135.15100098 226.02200317 382.99700928
116.77700043 120.24800110 362.87200928
140.12500000 125.77700806 339.14398193
162.71301270 235.08000183 358.19000244
122.36000061 209.52198792 470.87899780
160.71400452 165.09500122 326.18298340
198.67500305 179.17298889 345.50900269
125.74400330 181.59399414 492.34399414
144.79499817 121.53399658 432.90798950
115.89099884 135.68400574 430.45199585
124.39900208 196.85200500 478.29101562
166.00399780 188.66600037 422.38900757
125.55499268 219.29299927 389.82998657
171.11698914 128.35200500 342.71899414
260.14199829 235.41900635 381.48199463
172.51199341 191.93400574 328.76300049
259.75299072 213.56500244 364.84201050
147.06399536 198.81900024 330.98098755
105.14199829 155.80400085 375.74301147
157.05200195 134.52400208 416.75399780
112.08999634 182.01600647 477.31399536
117.80599976 222.41699219 454.25997925
186.88899231 203.07299805 380.47000122
164.49700928 118.12099457 347.48300171
142.95700073 110.22100067 352.47601318
154.71800232 103.40399933 396.74697876
171.40200806 242.27101135 437.88800049
234.31800842 184.58999634 372.16400146
186.60800171 140.48500061 389.82598877
262.21499634 216.05700684 353.78997803
142.58700562 202.15600586 454.82800293
177.50399780 210.15100098 333.82299805
124.85499573 225.28199768 433.91998291
199.86399841 173.86599731 354.37100220
186.96199036 179.80200195 403.04299927
161.70201111 190.18499756 411.10699463
141.20599365 240.60598755 458.81799316
266.83398438 229.01699829 366.92700195
228.89498901 218.50700378 399.62100220
162.01600647 124.95300293 414.27001953
141.33200073 189.05700684 464.84100342
205.44500732 167.24899292 379.32000732
118.51899719 126.26199341 414.76800537
153.16499329 178.58999634 449.85501099
116.00700378 168.87600708 471.88400269
101.20999908 171.68499756 404.26800537
166.27299500 221.38800049 340.02798462
140.05200195 217.01300049 460.29098511
137.97399902 236.79100037 439.79702759
128.44898987 228.42100525 435.05200195
128.64199829 232.68499756 444.66400146
207.30599976 205.41799927 405.85198975
128.53500366 119.85799408 348.00100708
171.65299988 235.94799805 355.03799438
130.15299988 193.10800171 476.16699219
146.92599487 114.87899780 347.61898804
242.50300598 233.87199402 357.35501099
212.67199707 187.18299866 394.97799683
187.03300476 176.35198975 333.31600952
226.18800354 219.90499878 346.08901978
231.40400696 250.97200012 415.76599121
198.59799194 171.18200684 369.15100098
255.14700317 225.49700928 375.09701538
143.43200684 132.98399353 334.32199097
259.72198486 237.09700012 375.12200928
142.10900879 185.47399902 325.48800659
180.62399292 164.50000000 392.15200806
134.55599976 237.76000977 459.43798828
135.01699829 176.87701416 324.24899292
178.62799072 108.38200378 371.48498535
250.35000610 219.38400269 374.85299683
158.10699463 140.18000793 333.04797363
147.13099670 210.88999939 428.86297607
256.63500977 197.14799500 357.42800903
161.57299805 102.52899933 389.42797852
155.06300354 126.18699646 420.24099731
127.24700928 219.99299622 381.94097900
210.11898804 204.68099976 338.47698975
136.85501099 169.03900146 474.44702148
257.64300537 224.26599121 357.35897827
190.03700256 240.30500793 356.78601074
175.91600037 118.00400543 399.21398926
227.40100098 250.76800537 408.43600464
114.82199860 144.15399170 343.08200073
152.07000732 140.42399597 423.31100464
108.07900238 197.92300415 406.29699707
110.52999878 183.95500183 356.34500122
121.41600037 189.34400940 337.28799438
107.31399536 198.48400879 414.04199219
196.42700195 233.49800110 421.23498535
223.43400574 242.94898987 378.01000977
134.87300110 185.97300720 326.38000488
106.45099640 176.27499390 447.73699951
155.37699890 104.66600037 363.71899414
174.06600952 212.91300964 418.05200195
122.20899963 113.13600159 377.16400146
169.68800354 188.78599548 405.33898926
