ply
format ascii 1.0
element vertex 512
property float x
property float y
property float z
end_header
87.40589905 223.59716797 346.47433472
86.84072876 230.15933228 349.62158203
90.64644623 230.45266724 345.42416382
82.70089722 221.14215088 352.61712646
91.14918518 216.57754517 341.65991211
84.92517853 214.01715088 347.00302124
95.84507751 228.17855835 340.50311279
81.69757080 214.48521423 354.05975342
80.56219482 228.31669617 357.48864746
97.50981903 219.64994812 337.88998413
87.05262756 236.51545715 351.88046265
95.49641418 235.65968323 343.11245728
87.28900146 207.86734009 343.47354126
80.03188324 217.59689331 359.40090942
83.21376801 208.21650696 349.48718262
90.61055756 240.84552002 349.34140015
95.35956573 209.58824158 338.59423828
83.64376831 236.93150330 358.25537109
102.47364807 225.32460022 336.31466675
95.10531616 240.86360168 345.20346069
85.24272156 204.31811523 346.53555298
102.95674896 215.86273193 335.09167480
81.01374817 207.19882202 357.65466309
103.22919464 233.72154236 336.98165894
100.15808105 210.14114380 336.09063721
77.83819580 219.58404541 365.11956787
77.57652283 232.29479980 364.97116089
94.23121643 245.63247681 347.71356201
106.49722290 227.51246643 333.91049194
76.99279785 227.33430481 367.19296265
100.69831848 242.28729248 341.31753540
90.42260742 246.26649475 352.09173584
90.78043365 200.50001526 341.41943359
86.49753571 244.23384094 358.75866699
78.19556427 210.31445312 364.52011108
84.83544922 199.00624084 349.57928467
82.63576508 242.12632751 363.35641479
105.60754395 210.71125793 333.89877319
78.48653412 238.26693726 365.47595215
79.67218781 204.66842651 361.93820190
81.63896942 201.19813538 357.83361816
105.70126343 239.23313904 336.81817627
98.79690552 201.47209167 337.07659912
109.50095367 232.09300232 333.71835327
76.08287048 214.19757080 369.13558960
75.37207031 222.83021545 370.87808228
89.20142365 248.71791077 357.09954834
110.91813660 224.84440613 332.35797119
105.21885681 205.17880249 335.14825439
111.02761841 217.14611816 332.40753174
75.76698303 231.91896057 371.08737183
103.98033142 246.22496033 341.17358398
97.12062836 251.17674255 348.49505615
107.55728149 244.05458069 338.46582031
93.47395325 252.68376160 352.74215698
101.87899017 250.25448608 344.12319946
74.06974792 218.29199219 374.01052856
76.05381775 207.36007690 370.51092529
86.92312622 192.55764771 349.46084595
79.93351746 245.31877136 368.17922974
81.58368683 195.51765442 359.86956787
75.85763550 238.60462952 372.71484375
85.30246735 250.65103149 365.79241943
84.01829529 191.78446960 356.07870483
98.22526550 192.54994202 339.33514404
116.12829590 212.53822327 332.73968506
115.10253143 238.66082764 334.34671021
112.87162018 206.16690063 332.66595459
106.36643982 197.82493591 335.44778442
113.10142517 243.28012085 336.45999146
91.24201202 189.90766907 347.16976929
72.37326813 224.99006653 377.05615234
117.14931488 229.61119080 330.61322021
117.42514801 220.89236450 330.20190430
78.43341827 197.52870178 366.80798340
90.74679565 254.98052979 359.88952637
73.16076660 230.78330994 377.33258057
75.96509552 201.20481873 370.69076538
111.29650879 200.97186279 334.64041138
88.40587616 188.56779480 352.36682129
95.23695374 188.96687317 343.94573975
105.77874756 254.52835083 345.05502319
97.32717133 257.53710938 353.33529663
71.58266449 214.32417297 377.59399414
101.42073822 257.04177856 349.50967407
73.68193054 236.16246033 377.97677612
80.74018860 250.27168274 371.05499268
110.60729980 252.88679504 342.65631104
105.49040985 191.91566467 336.83471680
94.26699066 258.94747925 358.08905029
115.40946960 247.77642822 338.26345825
72.99740601 205.49433899 376.59140015
87.60576630 255.84080505 366.92929077
119.10280609 206.16372681 333.41558838
122.62127686 229.25987244 331.53726196
121.05186462 210.70967102 331.11523438
119.51228333 243.34613037 335.81573486
76.67327881 247.11221313 376.42987061
93.08530426 184.45317078 350.80401611
78.49729156 192.35113525 369.57318115
84.89875793 186.28483582 360.67480469
98.97956085 185.18518066 344.62893677
112.34295654 194.14109802 334.84594727
80.96488190 189.01107788 366.51654053
70.50746155 230.47444153 382.75732422
69.66817474 221.66429138 383.02218628
69.97184753 213.95164490 382.30834961
107.75531006 259.76522827 348.28814697
124.65690613 235.84996033 331.71093750
119.98112488 200.61038208 333.57968140
84.39414978 256.87405396 371.81921387
73.29974365 242.59304810 381.21603394
125.63684845 219.08744812 329.27450562
115.98040009 254.26260376 341.86053467
107.65576172 186.69700623 339.77224731
75.61269379 194.67144775 375.60122681
92.16836548 181.57624817 355.55798340
92.15372467 262.06115723 365.77072144
114.18620300 258.06564331 345.00128174
89.12926483 260.71804810 370.05117798
127.90605164 227.56301880 329.63693237
99.17158508 264.29119873 358.81808472
79.58847809 254.78410339 376.93252563
72.62298584 199.43717957 380.95434570
126.51176453 206.92276001 332.35592651
105.22575378 264.34732056 353.77117920
77.67160034 188.80671692 373.45309448
75.05775452 249.26936340 381.45809937
120.48671722 194.36549377 336.81832886
127.70980835 241.96786499 335.27163696
81.36664581 183.90232849 368.56219482
125.71291351 247.49377441 337.71545410
112.84883118 262.01254272 348.04644775
67.56614685 214.49824524 387.27047729
121.57263184 254.51815796 341.97998047
116.76680756 188.63586426 338.42242432
129.91090393 210.61642456 332.57165527
101.05529785 178.97737122 349.66363525
68.79454041 232.80972290 388.41809082
86.65227509 179.94505310 363.54061890
125.74808502 198.13044739 335.02511597
69.68202209 204.82476807 386.33407593
71.46684265 243.70164490 386.55444336
132.54086304 232.32702637 333.80511475
69.65850067 238.89727783 388.11532593
83.56196594 260.76776123 376.48406982
119.38758087 259.44903564 345.20574951
129.23010254 202.35183716 335.31927490
106.05652618 178.66711426 347.21063232
66.66187286 225.75222778 391.00088501
115.89578247 183.77522278 341.18591309
110.99512482 180.18977356 344.47241211
135.46040344 226.35987854 333.58520508
72.43005371 195.54321289 385.17648315
132.68202209 206.10112000 334.00347900
117.91458130 263.41937256 348.34979248
91.05779266 266.02795410 373.47036743
133.61605835 241.45843506 336.89175415
135.55313110 219.09338379 331.57495117
126.06039429 191.83613586 338.25802612
96.48490143 174.90869141 357.58590698
76.12098694 187.24278259 380.32342529
129.90203857 251.27023315 341.16238403
75.62181854 254.85908508 385.07968140
135.03189087 210.91018677 332.29837036
79.72596741 181.26963806 374.91250610
84.01249695 177.39736938 369.30380249
112.23039246 268.54269409 353.77612305
101.75724792 270.34951782 364.31225586
80.92514801 261.50701904 381.76089478
123.50283051 186.36489868 340.49774170
97.76805115 269.68713379 368.89608765
65.54047394 217.67523193 393.61468506
101.26493073 173.86518860 355.56707764
137.21847534 236.73849487 335.53363037
89.66401672 173.83515930 364.53298950
134.39266968 247.70797729 340.45852661
139.36288452 221.14840698 335.34286499
66.56217957 233.56036377 394.66989136
124.96847534 261.97317505 346.83926392
139.28176880 214.44020081 335.59637451
64.88443756 223.61105347 395.58599854
133.18000793 195.53230286 340.07498169
115.92308807 177.15957642 346.46478271
117.82654572 268.52572632 352.08706665
137.15950012 204.16499329 335.23944092
66.18357849 211.26533508 395.30068970
84.72704315 265.25653076 381.93579102
74.06320953 187.92292786 385.88888550
94.16828918 171.05967712 361.55548096
107.36489868 272.73895264 361.40277100
131.13238525 257.41064453 344.78762817
67.46185303 241.61862183 394.84243774
82.06730652 175.83898926 374.63113403
123.53752136 181.27209473 344.02127075
69.87677765 248.34089661 393.32073975
78.14480591 180.56277466 381.18228149
88.57793427 268.47293091 380.24539185
69.61539459 196.75314331 392.53652954
99.55186462 170.13327026 358.96447754
142.84262085 233.20648193 338.16891479
143.16943359 228.07176208 336.08099365
93.66218567 271.21609497 376.99688721
67.89048767 201.67552185 395.25164795
64.85469055 228.47885132 398.59359741
111.26947021 172.13119507 352.56689453
136.83187866 252.21859741 344.40545654
138.20483398 197.23840332 341.34490967
86.79194641 171.08740234 370.15377808
105.59655762 275.04110718 366.13943481
114.05043030 273.80871582 358.19357300
144.30557251 217.06098938 336.83572388
64.71810913 215.26164246 399.39282227
142.78927612 208.36112976 336.64752197
106.00905609 169.24035645 356.75350952
133.03302002 186.91972351 343.71130371
76.03178406 181.36486816 385.65756226
126.93384552 266.90567017 350.23388672
145.67868042 222.70022583 338.67819214
135.96772766 257.44439697 347.73257446
141.79284668 200.77081299 339.96127319
137.37367249 191.51733398 345.54644775
142.98240662 243.52334595 339.85876465
65.76336670 238.44842529 400.15151978
70.10453796 190.59605408 393.22555542
64.08808899 219.74151611 401.58163452
73.08506012 257.30007935 393.98019409
65.01008606 209.58915710 400.40933228
131.66284180 264.08016968 349.64480591
121.74455261 272.26379395 354.53118896
76.46186066 262.26458740 391.47503662
80.39527130 174.52983093 380.94967651
141.99034119 249.72520447 343.77813721
124.70969391 175.91294861 348.83294678
84.17129517 268.65875244 386.85958862
140.83300781 194.97700500 347.84399414
92.60903168 166.62437439 366.54080200
67.26358795 247.90217590 398.40173340
116.32066345 170.44493103 353.64099121
72.63237762 184.35670471 390.93698120
65.52196503 203.86300659 401.08166504
100.38137817 276.76382446 375.90454102
140.92500305 255.15899658 349.44299316
148.37919617 211.40255737 341.36187744
149.47323608 218.00546265 341.10961914
102.47872162 164.37022400 360.68527222
106.53164673 278.46752930 370.65603638
114.66279602 278.04605103 362.50430298
92.58391571 274.26870728 383.51504517
63.44577789 228.68946838 404.50350952
129.64428711 176.77529907 349.80273438
89.95341492 165.46678162 371.05560303
67.66970062 192.27241516 397.88168335
133.39022827 179.95529175 349.06793213
123.03993988 171.31663513 353.23498535
65.81172180 242.82691956 403.17398071
149.45166016 208.79685974 345.35116577
97.27758789 276.99221802 380.32379150
149.66569519 238.89891052 343.17794800
75.70702362 177.09214783 389.19326782
111.50033569 279.46105957 367.15762329
148.06895447 202.09971619 345.23449707
140.05999756 260.29299927 352.22598267
70.09696960 186.17247009 396.06411743
62.89743042 214.00401306 405.41058350
151.98957825 220.37139893 345.88067627
97.90851593 162.47999573 364.89935303
147.07699585 248.63800049 348.46401978
83.80463409 168.18273926 379.90963745
151.89865112 230.70176697 343.63677979
88.57852173 273.23846436 388.46121216
139.72825623 185.31430054 351.69311523
130.57591248 271.58706665 354.78030396
66.74556732 251.35212708 401.98660278
64.22588348 238.72941589 405.84439087
136.75607300 266.00949097 354.32635498
114.73813629 164.97229004 358.47644043
79.17426300 268.32913208 394.12844849
93.67276764 162.20767212 369.58486938
145.16600037 191.98800659 350.84799194
63.03901291 207.03076172 405.67163086
119.51236725 279.41406250 361.52511597
152.79200745 212.73399353 346.15499878
105.38459015 280.47293091 375.41809082
78.83553314 171.08636475 386.36221313
73.30359650 178.68299866 393.67453003
64.48202515 197.61306763 403.61236572
126.03849030 276.82531738 358.36907959
145.93499756 255.89901733 351.12100220
138.66989136 180.80380249 353.36959839
154.45800781 227.62699890 346.08297729
151.76065063 243.34532166 347.16400146
151.99198914 204.49798584 348.17901611
149.38500977 196.73699951 349.72500610
61.63233185 219.04963684 408.96563721
153.57957458 238.14093018 345.93283081
121.61166382 166.13775635 357.96945190
75.40514374 265.88049316 398.45446777
104.02759552 159.79026794 363.90640259
62.82628250 234.60591125 409.23776245
132.13525391 171.83741760 355.40701294
65.18452454 191.67733765 403.50491333
60.98963165 211.11795044 409.13339233
71.16513062 260.62719727 402.72927856
69.85997772 182.90493774 399.85208130
152.12799072 248.62599182 349.43701172
111.15480042 160.17990112 361.97680664
97.03427887 279.74737549 386.61996460
156.78698730 233.19900513 348.37899780
61.48169708 226.80172729 411.52249146
138.93099976 177.34899902 357.73300171
88.94449615 161.08287048 378.48913574
157.61399841 220.18800354 348.47998047
84.55348206 274.18600464 395.49066162
126.85878754 221.02186584 404.89056396
103.83972931 282.87863159 381.10375977
83.01475525 165.02299500 385.76626587
93.52462769 278.83779907 390.22802734
157.20700073 211.80101013 349.46899414
95.92555237 158.19871521 372.37628174
116.40361023 160.57392883 361.68481445
138.68600464 271.31399536 360.13497925
90.13715363 277.14730835 393.62368774
99.66642761 156.98005676 369.30480957
157.02799988 239.46299744 349.71301270
111.44464111 285.13497925 374.62518311
147.26499939 185.11801147 356.43600464
62.65953827 239.75273132 412.10437012
153.88600159 196.83100891 353.31799316
76.56526947 170.33273315 393.80703735
156.94799805 205.17799377 351.31500244
159.40600586 227.43701172 349.13302612
63.72499466 244.71476746 411.40591431
128.46942139 165.85572815 360.98114014
153.32699585 252.89500427 352.21401978
61.29301834 200.40357971 410.16973877
150.95500183 258.11199951 354.57800293
72.38466644 176.51649475 399.94204712
116.13053131 285.34402466 372.27325439
78.93943024 271.72622681 400.69506836
128.74554443 281.55914307 363.21426392
106.20964050 155.91329956 367.00167847
147.00099182 264.97500610 357.57897949
160.49000549 216.51800537 350.80999756
65.17800903 186.74508667 406.16162109
93.68658447 157.32705688 378.06942749
108.66138458 285.83377075 379.78021240
60.15229034 206.43280029 413.10940552
129.43168640 216.78840637 407.30349731
137.22200012 170.83799744 362.46099854
134.93540955 278.33111572 362.91632080
157.41999817 248.08999634 352.26699829
146.18299866 179.65200806 359.75598145
59.19784546 221.04122925 415.47866821
87.70785522 159.75875854 385.27716064
75.00660706 268.42382812 404.93896484
153.64299011 190.16000366 357.49600220
133.70989990 166.97261047 363.36364746
122.42331696 286.04220581 369.37844849
107.81487274 243.38598633 416.17370605
60.52165222 230.13638306 416.65771484
103.56776428 240.99000549 418.08645630
116.03462219 156.28599548 365.21588135
133.46656799 221.20352173 406.26849365
98.30242157 154.73335266 375.50054932
103.13051605 248.18888855 416.14532471
67.27134705 259.09378052 410.05834961
103.19713593 154.04931641 371.64059448
127.13810730 285.16812134 366.60806274
161.74099731 239.26399231 352.41897583
96.02383423 282.21676636 394.41152954
82.75299072 162.82705688 392.35202026
62.61637878 193.76884460 412.21902466
58.70526505 213.30674744 416.54983521
95.69707489 249.75274658 417.91741943
163.87100220 224.47000122 352.59899902
111.59264374 237.81820679 417.99426270
83.57220459 276.28674316 402.30065918
121.28327179 157.25004578 365.68786621
159.44500732 198.46299744 356.34899902
98.15772247 243.86700439 419.93630981
64.50800323 252.23941040 414.21932983
98.63217163 255.63621521 415.68652344
70.86227417 264.98425293 409.38296509
163.63800049 233.62100220 352.40600586
63.87493134 188.67218018 411.19491577
90.66375732 257.41818237 415.84906006
106.16990662 286.94857788 386.67324829
125.60786438 158.89270020 364.79754639
88.58132935 253.22929382 417.91165161
144.87899780 174.42399597 362.86099243
102.00035858 285.28396606 390.97073364
114.15145111 245.62959290 415.91806030
87.80572510 279.55026245 400.47344971
163.61000061 209.87799072 355.30297852
58.59575272 226.00621033 418.86627197
147.82499695 270.48501587 362.49700928
78.51885223 164.43550110 396.74652100
119.03485870 288.72763062 376.17007446
162.51200867 203.54800415 356.22900391
114.83001709 289.27752686 379.48693848
70.36961365 175.35943604 406.07046509
159.71900940 253.02401733 356.34698486
155.08900452 185.98300171 360.50900269
106.64758301 236.31033325 421.73300171
143.65400696 275.36599731 365.24502563
95.10370636 261.63583374 414.97769165
131.96881104 224.67938232 411.40097046
59.51750565 201.49038696 416.77331543
93.37480164 155.71797180 386.07891846
109.23262787 250.65187073 417.23870850
136.85299683 165.67799377 367.63198853
117.15084076 238.08552551 418.47787476
131.73831177 216.51017761 411.90563965
91.88461304 246.54466248 422.33905029
84.22888947 261.72814941 416.07699585
57.99859238 208.43095398 418.79064941
99.34069824 240.11013794 423.41864014
60.69569397 238.38748169 419.98193359
62.00508881 246.15136719 418.50500488
163.63301086 245.14999390 355.32098389
107.35662842 151.89961243 375.53033447
85.96891785 250.98785400 421.64575195
153.27000427 180.91299438 362.19702148
79.26873779 273.58895874 408.55371094
137.91400146 281.45199585 369.52499390
131.14765930 160.37986755 369.31707764
166.81199646 215.79598999 355.94000244
89.93233490 266.14727783 414.58441162
88.14474487 156.86941528 391.26260376
160.58898926 193.09001160 360.10299683
154.32600403 265.77697754 361.57299805
74.42081451 269.98623657 411.01232910
100.19714355 152.67523193 382.45016479
74.44361115 167.67961121 403.16650391
114.93077850 152.18701172 372.09371948
61.46550751 194.11705017 417.18496704
113.17440033 232.68737793 422.61395264
57.68819427 217.28889465 421.61566162
167.85099792 230.75300598 355.35699463
81.73097992 255.48785400 421.04272461
119.07658386 244.19604492 418.64385986
132.72364807 286.57037354 371.37203979
168.38000488 224.04000854 355.73800659
127.60248566 288.95111084 374.17672729
160.23400879 257.80499268 360.04400635
113.30758667 289.86096191 386.48559570
106.82540894 287.87362671 393.09384155
101.69388580 261.73724365 417.63763428
102.94882965 286.46008301 396.92813110
98.56598663 284.64755249 400.33908081
87.77121735 279.50616455 406.74423218
131.80438232 221.21478271 415.70263672
158.59399414 262.40899658 362.19900513
107.62189484 256.28494263 419.59329224
63.67880249 186.92938232 416.69467163
123.23904419 153.20106506 371.20611572
92.48592377 282.66146851 404.34506226
56.59792709 222.16775513 423.45870972
82.14351654 157.86485291 397.43020630
164.83999634 251.46099854 359.89001465
169.08100891 237.14601135 357.08001709
69.88900757 266.79489136 415.78564453
78.67158508 161.27626038 401.73159790
122.02375793 232.11149597 422.37127686
78.88747406 265.58856201 418.60058594
123.79186249 241.95397949 419.82943726
114.83586884 251.79496765 420.63958740
140.31773376 218.04475403 411.49444580
97.25616455 266.07092285 418.28765869
139.30502319 223.63340759 412.66220093
161.43000793 187.36000061 363.29299927
145.44999695 279.71600342 370.16998291
154.07299805 175.92201233 366.20101929
122.42651367 290.98126221 383.22637939
57.39171219 231.39764404 425.00656128
126.68663025 237.19573975 419.99301147
92.03227997 243.96546936 428.30944824
129.61181641 155.26686096 372.96990967
58.17103958 204.59632874 423.57763672
169.64399719 208.28900146 359.31701660
159.26399231 182.75100708 364.69000244
150.22698975 171.03900146 367.84802246
85.17485046 249.50161743 427.05944824
140.34100342 162.18000793 371.29501343
79.04062653 273.57650757 414.64175415
167.72100830 199.53500366 360.77899170
64.58537292 257.87185669 421.00369263
140.64834595 284.35415649 373.46786499
171.51600647 220.99900818 359.70199585
106.50237274 234.56611633 428.84072876
62.12474442 251.49504089 422.97457886
76.99452209 260.60903931 422.59185791
67.11136627 178.01007080 415.63879395
145.60200500 165.72000122 370.10000610
96.24970245 241.07577515 429.61087036
171.82398987 230.97599792 358.73202515
112.17194366 289.78244019 395.15756226
152.68600464 274.92498779 368.11199951
163.83300781 258.52798462 364.11700439
95.50733948 150.77287292 391.30502319
85.99011230 278.14581299 412.91363525
83.31887054 270.82507324 418.20315552
106.44070435 149.10859680 384.97802734
90.71024323 270.40036011 418.75997925
136.52799988 158.36000061 374.02902222
170.24198914 243.10000610 360.24401855
74.53371429 165.24032593 408.68066406
131.72795105 289.70309448 379.78933716
136.52459717 224.58303833 417.56246948
120.93716431 150.35139465 378.37091064
112.29479218 231.16842651 429.14797974
