ply
format ascii 1.0
element vertex 2048
property float x
property float y
property float z
end_header
277.09429932 220.07844543 381.80578613
284.12228394 228.70350647 387.28051758
284.39831543 218.82313538 376.33529663
291.04730225 223.06364441 379.41113281
119.03419495 106.08898926 301.99426270
111.64184570 110.45602417 306.62118530
129.40228271 106.34093475 296.22814941
120.14846802 110.18573761 299.01043701
86.19774628 115.69857025 335.02075195
80.85664368 123.36462402 339.80538940
91.06782532 113.82546234 328.41339111
83.76160431 122.10438538 330.75311279
104.08295441 107.65216064 325.64324951
98.19169617 113.40074158 330.20004272
112.86794281 105.34089661 320.56942749
105.76546478 110.86930847 323.40866089
285.48641968 238.73397827 394.25357056
287.97622681 249.59252930 402.49526978
293.72686768 234.09405518 387.25625610
294.23144531 241.17224121 394.20867920
271.38635254 280.03463745 419.14910889
269.53186035 283.25015259 428.25613403
282.14276123 273.18902588 415.92016602
278.69421387 277.09161377 422.09460449
70.03634644 131.46826172 373.88476562
66.33612823 140.67224121 378.98928833
69.21918488 130.72283936 368.02227783
64.90829468 140.15193176 370.46716309
141.57359314 110.42330170 289.81835938
134.27531433 110.86857605 296.14309692
155.14158630 116.51966858 285.91000366
147.59219360 115.70580292 290.51721191
274.88415527 262.37747192 395.91824341
274.96740723 272.62591553 403.09600830
284.89514160 256.69653320 395.23977661
282.05535889 264.84820557 399.43829346
135.05561829 106.49888611 304.91098022
131.90145874 108.58806610 313.37393188
150.12155151 110.29878235 302.80786133
146.41366577 111.62091064 310.34628296
81.43876648 124.36868286 355.60937500
77.05804443 132.32336426 360.46414185
86.28694153 121.89530182 350.10617065
81.23940277 130.53131104 352.89282227
64.58267212 143.61820984 365.37887573
62.60057831 153.61853027 370.71557617
64.15766907 145.90043640 359.06069946
61.15697479 156.01960754 362.10586548
59.92441559 152.23651123 384.45208740
59.70423889 162.34252930 390.36279297
57.08517456 156.08131409 378.59835815
56.37536621 165.66265869 382.31390381
100.98998260 120.93064117 308.93005371
94.40014648 128.73855591 313.85931396
110.98099518 120.79481506 300.96441650
102.34497070 129.47463989 303.80364990
123.18502808 114.54204559 292.30642700
114.19281006 119.89410400 296.50393677
135.70967102 117.47220612 286.14160156
125.34732056 122.93051147 288.96768188
63.90209961 164.56451416 406.94711304
66.16078186 173.98646545 411.07452393
63.83199310 175.44825745 405.66772461
66.60879517 184.08290100 408.79614258
241.86563110 297.12399292 417.50216675
237.69989014 297.65441895 427.30477905
255.74320984 293.18963623 418.77536011
248.31019592 295.32330322 423.19860840
74.53588104 132.63485718 347.95114136
70.85702515 142.13841248 353.65151978
77.78260040 132.37966919 340.33602905
72.91854095 142.55578613 343.63095093
155.02282715 113.39306641 293.55633545
155.58804321 112.16965485 304.41381836
168.66584778 120.61713409 292.44342041
168.38761902 118.77743530 302.61407471
89.55149078 126.03447723 327.30252075
84.05374908 134.90490723 332.84954834
96.61097717 124.49546051 318.57449341
89.30256653 134.25315857 321.75985718
82.35681915 136.10372925 322.65069580
77.61653900 144.42866516 329.19015503
88.67281342 135.79876709 314.73764038
82.37051392 144.95838928 319.31195068
256.03192139 278.14294434 395.29067993
254.59257507 287.39129639 403.45458984
267.82916260 275.79635620 396.25927734
262.05590820 281.96508789 399.64212036
70.00820160 147.76434326 396.51358032
67.36257172 157.30145264 402.35855103
74.52995300 151.34295654 392.94702148
72.53197479 160.72384644 396.70635986
100.42178345 121.38850403 338.76837158
95.51911163 128.36775208 345.09091187
112.65286255 120.62612152 334.23785400
107.62394714 127.61248779 339.15393066
217.77305603 301.02395630 409.31347656
215.42016602 300.90319824 420.38345337
231.71594238 300.55554199 412.18942261
224.60443115 301.48861694 416.72131348
96.03323364 134.64239502 303.36883545
90.01300049 142.70333862 309.59063721
105.59266663 135.16818237 296.05606079
98.12158966 143.93783569 300.34558105
220.61804199 292.47372437 390.44134521
217.00216675 300.11074829 400.05664062
234.09457397 292.68457031 392.28536987
226.04183960 296.94152832 395.59954834
210.79704285 300.14010620 428.69256592
206.01664734 295.44610596 436.73925781
224.26864624 299.50711060 433.17321777
216.87423706 298.12994385 436.44256592
64.99359894 153.90185547 352.79998779
63.32587433 163.80195618 359.30877686
67.58802032 155.99087524 345.00085449
64.95635223 166.61831665 349.33856201
239.07754517 277.74517822 383.77648926
237.16720581 289.11529541 390.28527832
250.80694580 277.35742188 386.21414185
244.37011719 283.88989258 387.83624268
121.30763245 119.47687531 325.73138428
116.96813202 125.19848633 333.92266846
136.17639160 121.09585571 323.15502930
132.10922241 126.30661011 330.76358032
250.69656372 267.93609619 425.64883423
246.43441772 276.18984985 430.95568848
263.08837891 268.73217773 420.94989014
256.13308716 272.06817627 425.24505615
229.23181152 285.78842163 432.42227173
222.88391113 286.43771362 437.09353638
241.89117432 284.70138550 432.78042603
233.87582397 285.57507324 435.01937866
110.06300354 132.77241516 289.53747559
102.58645630 140.38314819 295.32879639
122.51097107 134.47245789 282.86437988
113.63615417 142.61773682 287.45187378
143.59634399 120.35050201 284.56036377
133.74446106 123.78919220 287.21557617
156.66648865 127.41162872 281.80874634
147.27246094 131.16989136 284.38946533
262.10510254 234.88052368 377.36450195
259.66894531 247.49060059 379.55337524
273.13616943 233.00660706 379.87591553
267.30633545 240.00173950 380.20870972
260.91693115 242.90684509 411.77239990
259.98583984 255.50158691 416.11013794
272.10397339 242.96839905 405.53884888
266.92199707 250.04020691 410.91067505
254.70938110 210.99615479 377.76208496
257.41516113 217.27708435 383.31680298
266.85083008 212.15397644 373.40997314
264.64511108 213.06533813 378.47012329
187.71191406 294.03674316 401.12185669
184.21543884 296.47067261 412.25973511
201.20321655 298.87042236 402.59674072
193.25921631 298.86193848 407.74670410
80.99739075 138.56044006 368.22973633
76.34487915 146.54718018 376.18222046
91.50843811 141.55029297 363.49765015
87.85697174 149.77281189 369.50476074
61.05091858 165.62089539 378.25997925
62.51836395 176.04896545 385.01303101
61.86715698 172.62205505 371.60003662
63.84378052 182.92304993 377.26538086
260.13964844 217.60232544 395.15750122
258.82626343 229.89912415 401.58737183
271.84545898 220.49798584 389.45767212
265.83496094 224.02375793 395.98614502
232.58851624 249.02592468 426.39001465
227.89013672 261.29425049 428.84475708
243.79046631 251.50735474 422.70156860
236.61535645 256.95263672 425.66403198
245.36804199 256.62139893 378.77792358
242.18048096 268.80426025 380.06637573
255.73587036 256.39779663 382.17346191
249.42070007 263.10745239 381.43170166
78.72051239 151.50218201 319.80053711
75.66767883 161.58410645 326.44296265
85.92596436 151.82531738 311.21710205
81.79991913 163.02453613 316.03460693
173.80792236 127.63535309 292.78167725
174.10366821 126.63854980 301.87338257
183.64009094 136.16114807 292.36544800
184.17956543 136.49414062 301.61871338
99.04911041 133.65222168 351.70999146
92.43627167 141.13259888 360.60122681
112.37556458 135.94265747 348.38879395
106.72557068 143.42085266 356.54284668
152.67910767 122.76055908 321.60321045
148.24075317 127.21042633 332.62716675
167.64097595 126.61214447 320.73129272
163.68992615 130.21267700 331.14291382
219.44746399 271.85534668 378.70336914
215.26528931 284.22006226 381.94134521
230.76142883 273.20022583 380.18145752
223.23297119 279.52743530 380.46270752
94.68139648 141.87812805 299.10671997
89.07411194 150.85589600 306.40963745
106.32752991 143.06442261 290.53640747
99.19821167 152.60304260 296.53692627
198.98121643 283.79156494 385.12277222
195.51760864 291.33874512 394.62634277
211.21640015 287.52584839 385.72619629
203.46394348 289.76303101 389.79611206
70.47159576 155.97334290 339.07183838
67.42314148 165.93258667 346.84030151
77.26955414 157.52001953 330.02835083
73.70462799 168.28547668 335.45269775
241.83123779 218.09204102 405.49282837
240.58250427 228.49600220 412.83901978
251.90036011 222.40840149 401.38485718
246.51364136 224.39241028 408.01495361
65.67479706 171.21757507 368.52307129
68.06821442 181.06509399 375.76000977
67.22148132 176.12052917 359.74685669
70.25898743 186.32075500 366.73431396
212.89482117 268.55004883 428.33572388
205.33993530 275.32171631 429.87472534
224.56011963 271.03280640 426.73016357
215.71133423 272.78985596 427.66561890
69.80319977 176.05108643 391.96575928
72.45676422 184.96971130 398.27078247
74.31454468 187.20101929 388.46926880
78.69389343 195.90275574 394.22006226
190.33703613 284.22763062 425.92968750
183.06503296 282.98156738 430.20770264
202.11022949 285.93505859 428.51638794
193.59948730 284.58566284 430.37689209
135.59976196 131.39503479 282.17276001
126.48232269 139.64547729 283.28347778
148.32595825 134.41830444 278.21185303
139.12033081 142.86590576 280.21420288
242.35705566 208.12030029 390.11444092
242.14126587 215.32519531 397.87634277
253.07211304 210.93571472 385.40646362
248.05798340 211.03485107 392.49472046
89.39179230 167.13623047 397.35406494
83.83709717 177.40219116 405.15100098
100.04113007 175.40858459 393.58593750
95.86661530 185.42041016 400.56573486
242.01647949 223.52128601 373.91940308
238.72813416 233.67332458 375.32025146
252.09689331 224.58326721 375.58822632
246.32888794 229.05134583 376.55856323
69.73170471 185.36672974 381.36959839
74.45500946 193.96331787 388.05444336
72.39349365 195.67211914 376.07669067
78.25160980 203.51069641 383.50723267
91.24960327 151.52047729 383.19299316
85.69380951 158.95706177 394.08770752
103.12193298 155.04762268 377.00189209
98.32415009 163.12280273 387.66162109
177.72856140 129.12838745 324.29388428
177.44375610 134.05981445 336.32122803
186.96170044 137.69976807 324.56118774
186.59925842 141.82389832 336.89520264
192.61112976 139.88409424 342.68966675
189.50146484 139.84861755 342.65728760
192.96694946 139.92080688 342.72341919
192.58987427 139.89331055 342.70608521
197.23939514 138.74868774 329.89251709
194.13575745 138.71762085 329.80029297
197.53437805 138.81887817 330.01638794
197.32215881 138.78132629 329.95028687
192.55215454 185.70954895 335.52102661
189.25286865 185.71473694 335.39593506
192.95333862 185.74038696 335.64068604
192.68515015 185.75708008 335.56594849
197.03244019 163.88479614 362.24737549
194.79087830 163.84242249 362.22784424
197.26081848 163.89820862 362.26504517
197.14634705 163.86267090 362.25830078
198.87564087 161.88659668 350.08020020
196.65242004 161.87319946 350.04641724
199.08685303 161.93484497 350.11450195
198.98223877 161.91955566 350.08831787
195.21711731 154.33105469 355.64202881
192.96501160 154.29855347 355.63906860
195.44912720 154.36897278 355.65722656
195.30657959 154.33879089 355.65719604
195.19680786 153.05667114 323.37973022
192.19845581 153.00164795 323.26022339
195.52513123 153.13342285 323.53598022
195.39755249 153.07171631 323.45547485
196.89575195 177.06196594 349.39343262
194.44509888 177.05895996 349.32846069
197.14080811 177.08773804 349.45544434
197.03297424 177.08720398 349.41070557
180.38529968 135.57495117 342.06625366
177.05799866 135.52145386 342.04168701
180.81887817 135.61340332 342.08660889
180.37005615 135.57714844 342.08609009
188.44816589 156.55819702 367.27142334
185.75994873 156.52635193 367.24826050
188.77549744 156.56405640 367.30395508
188.49241638 156.54368591 367.30032349
205.93202209 186.81414795 399.78683472
203.29638672 186.76295471 399.81591797
206.21061707 186.82878113 399.74276733
206.01147461 186.80046082 399.78732300
193.91447449 195.17991638 418.29516602
190.76100159 195.11228943 418.34390259
194.29360962 195.19651794 418.22955322
193.88339233 195.16554260 418.29986572
197.06756592 175.17117310 367.38040161
194.82449341 175.14611816 367.35839844
197.26550293 175.19660950 367.38934326
197.16885376 175.18087769 367.38262939
173.88694763 205.75587463 316.44424438
169.30262756 205.72457886 316.27062988
174.50338745 205.78483582 316.60009766
174.03591919 205.77458191 316.52395630
199.53201294 152.09951782 343.03332520
196.92443848 152.06904602 342.97158813
199.81385803 152.17167664 343.12738037
199.67172241 152.13140869 343.08245850
204.70547485 192.18711853 408.11987305
202.16253662 192.13349915 408.16561890
204.95777893 192.21849060 408.04519653
204.77217102 192.18748474 408.10305786
210.09516907 195.42729187 385.82498169
207.53332520 195.38378906 385.82519531
210.32110596 195.45223999 385.81253052
210.20492554 195.43333435 385.83380127
225.48886108 220.80032349 413.23596191
221.78372192 220.76713562 413.23455811
225.83145142 220.82081604 413.19137573
225.47872925 220.82464600 413.22549438
236.67626953 212.92469788 376.92526245
233.49034119 212.89596558 376.92169189
236.93757629 212.94773865 376.92401123
236.86640930 212.94361877 376.93859863
190.64797974 198.20439148 339.77926636
187.06333923 198.18580627 339.65405273
191.05496216 198.24084473 339.88189697
190.74452209 198.24687195 339.81594849
191.55229187 192.83360291 408.29763794
188.26292419 192.76574707 408.33718872
191.99073792 192.85092163 408.24520874
191.57565308 192.81570435 408.31207275
233.80581665 213.75096130 405.12387085
230.77761841 213.71315002 405.12564087
234.03982544 213.77191162 405.07754517
233.86891174 213.76074219 405.09985352
182.13728333 198.73258972 419.45343018
179.13496399 198.67193604 419.50253296
182.51797485 198.74179077 419.43203735
182.09632874 198.71858215 419.49765015
205.42507935 184.60755920 390.51785278
203.03028870 184.56066895 390.53637695
205.66075134 184.62435913 390.49765015
205.51910400 184.59651184 390.52905273
194.71583557 191.42913818 354.86456299
191.89083862 191.40397644 354.80487061
195.03079224 191.44993591 354.90747070
194.83248901 191.44515991 354.88146973
202.65078735 209.34460449 413.72869873
199.28918457 209.29183960 413.74581909
203.03160095 209.35191345 413.69747925
202.64212036 209.34194946 413.74615479
212.04498291 200.77891541 398.82965088
209.24545288 200.72766113 398.83706665
212.32836914 200.79545593 398.81033325
212.13546753 200.77136230 398.84298706
220.11192322 210.58932495 397.54196167
216.96925354 210.53446960 397.54821777
220.37925720 210.61166382 397.51232910
220.13192749 210.59246826 397.54724121
185.66398621 162.19187927 374.74456787
183.16911316 162.13540649 374.75067139
185.98648071 162.20611572 374.74267578
185.73377991 162.16555786 374.76196289
223.78907776 212.79545593 407.10577393
220.80825806 212.76119995 407.11047363
224.02455139 212.80757141 407.07788086
223.84790039 212.80445862 407.10586548
176.14146423 224.12850952 328.07507324
171.55001831 224.11408997 327.95446777
176.77725220 224.12413025 328.21466064
176.34730530 224.14416504 328.17129517
166.95732117 157.63987732 381.22314453
163.69320679 157.58619690 381.22326660
167.51437378 157.63240051 381.23919678
167.02076721 157.60296631 381.27459717
177.13838196 191.65229797 407.76989746
174.16571045 191.58644104 407.83422852
177.59574890 191.64900208 407.76226807
177.18179321 191.61837769 407.84637451
205.47065735 224.03378296 421.02978516
201.48550415 223.98126221 421.04641724
205.94543457 224.03691101 421.00595093
205.44258118 224.04032898 421.06295776
187.57698059 172.54652405 316.88742065
183.98959351 172.47621155 316.75228882
188.03756714 172.58934021 317.09783936
187.76635742 172.52301025 317.02886963
214.85551453 218.62461853 366.66824341
210.72720337 218.57385254 366.64001465
215.25306702 218.65039062 366.66989136
214.88467407 218.65312195 366.68521118
185.06164551 211.32109070 335.45611572
181.14523315 211.30415344 335.34197998
185.57591248 211.33534241 335.56002808
185.21005249 211.34963989 335.50711060
183.39237976 208.61523438 419.13803101
180.24478149 208.54951477 419.18112183
183.80865479 208.62847900 419.14089966
183.41415405 208.60800171 419.20712280
197.32167053 216.78649902 420.86260986
193.63269043 216.73132324 420.89236450
197.77178955 216.79251099 420.82772827
197.29371643 216.78768921 420.88879395
223.18827820 211.79710388 377.54031372
219.69523621 211.74703979 377.52059937
223.51336670 211.82000732 377.52505493
223.29299927 211.80838013 377.54150391
170.49566650 133.02442932 342.01766968
167.08296204 132.96922302 342.01550293
171.00465393 133.06558228 342.03933716
170.45298767 133.02990723 342.05706787
230.26168823 209.57255554 387.60208130
227.15928650 209.53163147 387.58526611
230.55621338 209.58297729 387.59051514
230.41043091 209.57237244 387.59808350
193.47416687 167.78948975 327.04928589
190.33615112 167.74795532 326.94656372
193.85711670 167.82681274 327.22692871
193.63409424 167.78384399 327.16522217
179.32653809 239.57638550 341.32116699
174.47657776 239.52661133 341.23941040
179.92013550 239.57148743 341.46743774
179.54742432 239.58807373 341.45761108
158.95896912 178.70384216 408.17315674
155.72155762 178.63336182 408.24191284
159.53460693 178.67396545 408.17999268
159.00552368 178.63958740 408.27166748
178.99263000 156.19561768 370.34585571
175.91041565 156.14320374 370.35433960
179.46867371 156.20697021 370.36807251
179.04246521 156.17602539 370.39813232
170.87620544 195.93963623 416.60549927
167.98315430 195.87367249 416.66784668
171.31347656 195.93765259 416.61117554
170.90167236 195.90913391 416.69143677
196.52679443 190.36123657 384.21737671
193.99946594 190.31623840 384.22479248
196.78366089 190.36956787 384.21267700
196.58869934 190.34832764 384.23645020
229.03573608 224.80172729 373.79263306
224.73326111 224.73783875 373.74877930
229.40600586 224.82255554 373.76327515
229.03146362 224.81309509 373.76080322
193.69554138 186.53594971 370.78466797
191.22572327 186.49752808 370.77136230
193.96353149 186.55970764 370.80734253
193.80108643 186.53982544 370.81329346
186.95953369 221.72325134 413.57775879
183.22885132 221.63636780 413.60449219
187.44879150 221.73147583 413.57492065
186.94271851 221.70019531 413.64050293
183.35707092 150.00003052 360.09402466
180.58717346 149.95880127 360.09616089
183.72758484 150.02827454 360.11535645
183.37232971 149.99876404 360.12777710
175.24014282 140.74006653 350.73718262
172.04866028 140.69409180 350.74368286
175.68730164 140.77806091 350.74990845
175.20094299 140.75057983 350.77200317
178.10736084 230.26269531 335.78320312
173.34632874 230.22416687 335.67712402
178.75448608 230.24871826 335.89086914
178.29461670 230.26203918 335.85870361
185.07916260 181.49716187 375.66882324
182.22801208 181.44989014 375.66607666
185.45668030 181.50019836 375.68490601
185.14196777 181.47695923 375.71081543
165.61315918 178.79632568 399.67111206
162.46556091 178.74075317 399.71026611
166.15058899 178.78547668 399.67581177
165.67091370 178.75756836 399.74185181
163.13439941 189.95008850 416.11666870
160.11051941 189.88522339 416.18463135
163.64181519 189.92691040 416.13726807
163.16203308 189.89947510 416.22506714
185.55717468 230.14584351 344.71752930
181.29119873 230.11471558 344.62860107
186.06726074 230.14102173 344.80795288
185.71989441 230.16751099 344.77935791
214.43875122 219.47241211 415.99560547
211.08119202 219.41740417 415.99276733
214.79092407 219.47523499 415.99560547
214.47979736 219.46533203 416.02621460
169.87208557 178.43525696 389.72586060
166.65733337 178.37008667 389.75817871
170.39851379 178.42169189 389.73950195
169.94001770 178.38694763 389.80032349
182.58020020 190.67277527 392.24844360
179.67045593 190.61080933 392.26840210
182.96206665 190.67086792 392.23834229
182.63922119 190.64013672 392.28131104
210.48959351 213.65776062 409.53765869
207.43469238 213.59530640 409.55151367
210.80673218 213.65824890 409.52435303
210.55288696 213.63568115 409.56494141
199.09472656 201.55682373 378.39630127
196.20208740 201.50976562 378.39385986
199.38328552 201.56575012 378.41067505
199.14440918 201.55128479 378.42886353
217.48910522 233.02644348 371.48931885
213.08927917 232.96928406 371.43170166
217.86756897 233.05183411 371.50115967
217.45419312 233.06080627 371.48919678
278.32696533 232.95919800 395.60559082
275.35412598 241.49444580 406.82672119
290.94473267 235.81268311 389.17675781
287.85903931 244.10255432 400.00793457
276.15374756 257.97012329 409.25955200
271.38882446 266.01464844 419.67886353
288.45599365 257.22088623 401.79504395
283.39642334 263.83044434 411.96459961
262.64874268 221.95167542 378.77935791
267.32821655 230.06190491 380.81130981
276.69158936 223.96717834 380.74066162
280.99536133 231.86271667 383.37451172
250.19311523 218.22927856 400.82617188
245.96546936 223.77630615 409.89596558
263.37716675 222.88932800 398.18850708
259.08105469 228.99938965 407.25170898
264.95343018 283.89352417 414.44403076
260.48205566 288.42840576 425.12402344
276.74523926 278.26159668 408.81155396
271.26174927 281.33691406 419.51126099
243.70404053 236.93215942 418.09823608
236.79216003 243.29415894 424.32220459
256.39080811 242.07609558 414.84274292
249.52491760 249.09094238 421.44464111
253.80569458 239.05064392 381.89520264
257.43331909 249.09751892 383.48953247
267.33151245 241.36190796 385.20819092
269.65371704 251.28170776 387.36828613
235.69238281 272.40512085 428.00708008
226.73870850 278.20846558 431.71276855
249.84039307 276.67056274 426.03237915
241.74768066 282.13214111 431.28884888
224.68157959 209.38978577 389.72885132
227.65226746 212.20932007 396.31210327
236.03086853 212.93884277 389.61163330
239.03222656 215.92596436 396.58486938
223.88742065 221.63400269 416.78704834
217.06646729 226.40879822 420.84545898
235.06912231 227.38259888 417.53408813
227.89434814 232.50900269 421.98135376
222.30021667 211.39982605 404.09591675
219.06896973 215.38484192 410.98806763
233.61225891 216.21185303 404.75094604
229.64805603 220.44660950 411.61462402
206.63839722 193.11619568 400.46252441
206.80926514 195.57643127 407.81912231
216.17860413 198.60188293 399.93453979
216.67129517 200.84140015 406.97348022
223.96739197 247.85754395 425.34747314
216.11785889 253.28298950 428.31158447
236.01882935 253.64227295 426.45312500
228.44970703 259.45547485 430.29861450
233.94415283 223.89050293 377.36633301
239.14724731 231.76632690 377.45669556
244.95935059 227.01235962 378.93109131
250.53376770 234.94512939 379.40417480
208.86311340 191.36714172 387.80206299
212.21171570 193.76055908 394.20568848
216.61735535 197.68943787 386.50732422
221.24645996 199.33497620 392.85397339
246.09855652 259.17288208 382.70632935
249.52081299 269.74114990 386.11517334
259.88287354 261.26287842 387.52603149
261.78338623 271.45214844 391.14297485
198.86553955 198.69444275 409.90310669
193.89138794 202.55677795 414.44238281
207.64833069 205.35440063 412.67114258
203.11563110 209.54315186 416.84017944
208.18562317 230.39599609 422.47537231
200.48068237 235.20912170 424.00097656
218.02874756 236.85986328 425.01504517
210.24494934 242.16372681 427.45611572
234.69888306 299.22906494 416.29959106
229.30958557 297.58148193 428.15606689
247.84130859 294.77371216 417.78494263
242.94604492 293.24645996 428.79574585
212.16186523 208.26045227 377.18777466
217.62127686 212.97499084 380.31289673
221.52467346 212.84025574 378.76074219
228.40808105 217.07365417 382.26705933
201.79240417 260.92547607 423.20956421
193.10162354 266.24905396 424.06671143
212.66958618 267.25900269 427.48348999
204.70613098 272.42483521 429.85171509
226.04861450 237.67811584 375.19390869
230.83544922 247.10720825 375.75885010
237.34861755 240.83830261 377.04864502
241.86926270 250.29148865 377.86114502
232.44128418 283.26147461 385.94317627
234.20651245 291.88653564 393.65032959
245.83181763 283.97677612 392.32379150
245.55195618 292.23379517 399.59497070
192.85186768 240.63018799 421.15655518
185.14912415 245.43563843 421.73065186
201.65000916 247.71295166 424.87249756
193.99983215 253.05842590 426.53118896
212.90399170 222.54975891 369.83361816
218.01397705 229.89541626 371.53997803
222.32650757 225.62559509 372.56634521
228.08384705 232.76531982 374.30197144
188.74636841 214.79113770 413.53018188
182.36027527 219.11572266 415.49340820
195.78312683 221.09727478 417.92077637
190.06082153 225.97174072 420.21121216
188.72555542 152.14097595 345.76553345
190.74543762 159.95108032 351.81207275
194.10937500 165.09939575 346.26284790
195.88088989 170.98161316 353.87796021
179.57470703 183.62414551 401.33334351
178.42399597 187.04283142 410.24978638
187.00654602 190.62200928 403.08486938
187.00196838 193.27229309 411.44705200
178.81559753 123.57730103 322.44039917
183.26286316 133.19915771 329.19235229
188.71569824 134.05410767 330.32910156
190.69012451 141.48411560 335.89364624
219.53326416 260.71844482 377.71682739
223.51445007 270.84420776 380.47283936
231.20350647 263.77349854 380.93728638
234.46856689 273.73931885 383.29400635
207.07215881 301.16445923 414.47988892
200.84161377 296.71612549 423.89801025
219.13783264 301.02096558 421.81130981
214.30389404 296.94613647 430.26550293
181.65264893 268.78488159 416.20184326
171.59263611 272.55191040 415.25296021
192.23188782 276.36001587 421.31546021
182.65164185 279.34329224 421.73828125
174.25988770 150.86526489 363.32403564
173.85350037 157.75305176 371.90527344
182.90686035 159.40707397 363.05947876
181.53654480 164.64521790 372.17309570
211.41975403 243.10903931 373.27066040
215.94915771 251.75601196 375.20950317
222.05484009 245.81355286 375.79772949
226.57987976 254.41561890 377.54745483
183.46372986 182.91979980 386.04425049
184.65180969 186.45242310 394.20706177
189.37512207 191.48764038 386.76855469
191.61354065 193.67539978 395.21618652
163.18882751 133.62719727 342.26907349
162.50093079 141.57312012 351.93914795
175.08033752 139.93222046 343.95596313
173.23789978 145.73558044 353.80130005
171.68026733 248.28199768 414.54177856
163.57112122 252.82785034 414.48837280
178.97334290 256.66442871 419.31158447
171.32974243 261.68566895 420.12469482
166.26029968 161.23857117 385.24349976
164.64021301 166.99591064 394.84127808
175.02172852 168.17044067 385.18298340
172.88519287 172.43368530 394.61206055
169.68884277 184.30273438 400.53619385
166.60067749 188.76861572 408.94436646
177.57234192 192.01205444 403.96774292
175.62255859 195.92805481 411.53906250
186.88914490 187.57629395 372.44146729
188.92163086 191.92059326 379.23284912
192.20777893 197.03822327 374.01663208
196.15116882 199.65838623 381.36886597
171.84237671 222.81045532 413.72106934
164.82424927 227.70683289 415.08154297
177.85604858 229.91293335 418.91867065
171.67807007 235.88497925 420.61981201
189.96401978 146.60229492 314.00921631
191.80029297 159.42707825 317.99533081
195.15272522 156.29646301 326.14828491
196.13693237 165.86027527 329.36981201
205.53369141 290.27853394 389.23754883
206.91059875 296.57479858 398.74551392
217.91976929 293.07504272 395.23751831
217.88087463 299.18292236 404.12329102
196.46499634 224.38999939 357.14865112
200.76000977 232.77627563 362.10855103
205.52767944 226.53750610 363.76272583
210.06803894 234.81533813 367.36654663
188.28520203 196.78410339 357.08306885
190.36096191 203.91725159 362.26425171
193.55949402 203.56234741 363.67510986
198.11848450 209.61982727 368.40057373
203.25802612 271.03781128 378.27767944
206.94181824 280.73635864 382.89801025
214.29513550 274.48196411 381.54959106
217.22775269 284.04907227 385.69451904
155.64381409 171.80752563 399.73571777
150.67262268 177.63059998 407.83938599
165.21530151 177.27459717 401.88378906
160.20062256 182.61131287 408.93804932
179.72586060 225.04284668 403.23056030
177.96119690 229.48793030 407.60772705
186.74645996 230.63150024 407.52008057
185.21046448 235.56074524 411.67926025
189.29405212 176.53042603 323.80963135
189.87680054 189.69256592 327.30282593
193.44197083 183.69862366 334.48471069
194.15428162 193.84408569 337.63232422
145.62322998 142.20050049 361.87426758
143.80763245 148.91520691 372.58715820
157.77873230 147.38494873 364.92822266
154.57800293 151.94943237 374.76040649
170.60459900 213.41970825 400.98281860
166.89956665 217.61833191 407.00305176
177.39926147 218.75752258 407.70739746
174.73200989 223.41729736 412.94552612
189.05177307 205.45736694 340.53399658
190.41244507 216.63905334 345.64724731
194.85971069 209.40731812 350.64001465
197.05595398 219.19349670 354.34899902
160.00782776 229.51640320 416.39215088
152.21855164 234.36895752 416.96929932
165.70602417 236.53344727 421.34823608
159.04827881 242.54930115 422.27685547
191.46347046 252.71118164 368.63006592
195.02018738 260.84991455 373.48919678
201.46597290 255.00602722 372.88070679
204.94766235 263.19512939 376.68771362
139.22618103 153.45010376 383.00207520
136.38639832 159.85592651 393.45425415
150.71786499 158.65263367 387.17330933
146.15339661 163.40879822 396.07220459
177.44198608 241.62698364 406.49014282
175.79754639 247.53987122 409.78836060
184.40399170 247.19812012 410.12710571
182.89262390 253.73098755 413.30590820
180.72082520 288.53302002 394.73364258
182.07875061 291.85971069 405.50128174
191.57026672 293.14077759 401.20080566
192.11959839 296.11364746 411.38351440
184.16546631 238.47637939 351.02777100
187.29716492 246.21856689 358.92987061
192.64703369 238.79760742 359.74703979
195.93975830 246.73257446 365.50439453
175.11668396 136.29254150 291.70608521
176.83952332 150.33975220 295.33398438
184.31166077 145.23963928 303.88568115
185.07518005 155.85940552 307.12252808
181.75233459 275.59378052 379.82818604
184.69125366 283.71936035 387.18917847
191.72799683 279.95889282 383.77978516
194.25779724 288.18743896 390.54489136
147.41090393 255.42282104 412.07086182
139.23275757 258.38308716 412.58706665
155.40940857 263.07135010 416.16622925
149.04083252 265.75942993 416.54333496
165.10137939 284.53814697 401.56668091
165.34674072 281.98590088 411.58724976
174.76048279 288.65408325 409.62652588
175.37048340 285.70092773 417.94268799
153.66336060 210.63085938 402.16802979
148.18122864 215.35964966 408.43365479
160.77679443 216.78802490 409.31323242
156.05130005 222.66806030 414.51412964
124.27198029 166.87350464 395.08856201
119.67594910 174.44042969 402.64889526
135.43450928 172.41329956 398.85119629
129.80641174 179.51358032 404.09152222
181.38078308 219.41201782 330.41482544
183.01968384 230.26510620 336.96520996
188.31314087 221.32072449 340.05639648
189.87132263 231.25149536 344.96371460
151.39501953 188.00349426 389.50360107
150.81721497 193.07511902 399.23937988
160.65623474 194.26690674 392.86053467
159.27249146 198.95295715 401.71563721
117.11035156 144.36334229 370.33065796
115.47274780 151.29711914 381.97897339
130.22157288 149.72415161 372.75802612
126.41510010 154.72348022 383.77761841
174.52716064 263.86877441 363.17340088
177.26892090 270.71713257 371.33840942
184.14465332 265.29827881 369.50692749
186.76043701 272.28900146 376.02667236
176.22555542 164.78131104 298.31784058
177.56686401 178.56564331 303.03018188
183.54582214 171.66909790 309.19610596
184.57403564 182.11360168 313.02117920
143.22215271 233.68434143 413.30700684
136.62628174 238.25210571 416.49346924
149.87989807 239.86560059 420.75561523
144.91123962 245.32281494 423.49081421
178.88378906 194.41368103 312.04138184
180.20016479 207.06758118 317.56649780
185.51470947 198.78865051 321.90640259
186.71223450 209.20576477 326.41830444
134.70004272 190.44839478 399.80419922
127.41683197 196.85858154 403.57397461
143.54418945 197.13681030 402.31372070
135.88087463 204.29844666 405.16390991
171.66218567 253.27777100 344.30648804
173.95538330 260.46350098 353.83197021
180.34913635 253.07595825 352.78039551
182.40188599 260.51580811 360.25091553
162.17779541 276.34521484 383.84552002
164.51753235 282.14419556 393.33157349
171.49404907 281.46395874 388.89086914
173.86172485 287.22787476 397.82263184
103.88357544 157.34365845 382.82025146
102.23939514 164.58415222 394.67449951
117.72814941 162.86466980 386.49197388
113.64674377 168.25177002 396.50378418
145.06622314 193.74549866 385.57403564
145.59365845 198.42936707 395.00531006
153.66294861 199.57952881 391.50006104
153.11621094 204.38825989 399.94989014
168.87416077 235.18392944 328.17364502
171.18952942 244.79046631 336.27511597
177.69502258 236.58383179 336.60592651
179.74777222 246.03262329 343.16290283
157.28799438 270.87570190 363.02444458
159.47875977 274.93847656 373.67596436
166.44650269 272.92651367 369.50912476
168.92974854 276.93234253 378.97763062
146.86540222 276.76818848 392.05435181
150.35748291 277.93942261 402.90304565
156.11264038 281.27502441 399.16995239
159.89282227 281.87185669 408.77868652
123.16783142 207.16177368 397.12707520
117.21769714 212.97171021 402.32907104
131.54971313 215.20190430 402.94683838
125.40898895 222.26275635 406.38635254
155.78813171 136.57733154 280.42691040
156.76083374 150.86116028 282.88958740
167.04924011 145.61645508 288.42761230
167.64239502 157.39239502 290.70379639
133.99243164 272.71841431 404.02471924
139.05749512 269.96569824 414.06283569
143.93634033 276.03851318 411.47991943
148.54791260 273.11492920 419.80264282
119.70422363 240.51023865 407.60003662
121.14465332 243.15504456 417.21752930
129.27296448 247.52783203 415.74752808
130.47569275 250.46893311 422.53234863
99.21175385 180.84185791 393.73028564
98.60490417 188.75711060 404.52639771
110.56433105 191.12533569 398.54998779
108.70108032 196.99659729 406.53094482
164.70162964 217.50878906 311.05279541
166.94161987 228.42759705 318.42910767
173.57199097 220.27902222 319.32952881
175.67294312 230.50334167 325.53378296
154.88964844 261.63528442 341.96456909
157.12368774 267.84722900 352.22174072
164.58764648 263.63986206 348.59384155
166.88795471 269.92517090 357.74905396
161.23100281 194.70944214 297.75753784
163.26879883 206.80686951 304.44595337
170.20094299 199.11070251 306.03646851
172.09541321 209.72607422 311.78723145
157.55485535 169.89895630 286.41973877
159.26406860 183.51240540 292.05441284
167.29759216 176.44497681 294.63296509
168.70190430 187.90928650 299.70129395
140.77340698 272.72222900 370.11816406
143.50256348 274.95819092 381.37432861
149.61482239 276.08999634 376.51519775
152.70381165 277.86178589 387.27627563
99.38317871 213.05386353 396.46655273
103.15733337 218.70056152 406.97787476
108.80294800 225.51605225 400.60668945
110.85350800 230.74761963 409.26025391
151.70864868 246.65480042 326.52838135
154.33702087 254.83514404 335.57626343
161.68157959 249.16323853 332.93640137
164.42333984 257.46188354 340.89544678
111.32014465 257.16119385 403.07830811
117.41925049 257.26635742 413.03973389
121.03182983 263.33068848 408.76992798
126.61172485 262.98342896 418.31729126
139.17469788 266.35311890 349.13934326
141.54072571 270.30856323 360.52914429
148.42523193 269.95257568 355.07412720
151.32470703 273.48956299 366.19009399
123.20069885 266.58493042 380.70834351
126.90528870 268.35491943 391.28536987
132.04922485 271.15447998 386.23126221
135.81077576 272.38595581 396.58486938
146.94755554 228.54507446 309.17529297
149.51623535 237.80326843 317.29211426
156.83833313 231.76330566 315.33355713
159.63320923 240.97550964 322.51489258
133.24017334 145.85743713 281.40124512
134.32104492 158.91882324 282.60342407
145.07128906 152.95115662 284.10357666
146.38890076 164.93029785 285.33972168
92.08517456 231.90544128 399.71109009
98.49537659 233.89219666 408.68887329
99.95442200 242.82122803 402.13134766
106.30328369 244.31861877 411.07846069
106.95722198 255.54248047 386.13488770
111.00686646 258.30422974 396.05249023
115.72249603 262.36590576 390.02569580
119.68560028 264.70675659 400.16894531
135.30032349 251.07359314 329.56808472
137.91828918 258.11254883 338.90075684
145.37896729 255.27548218 334.05477905
148.43399048 262.47216797 342.94491577
121.44150543 262.47299194 360.77233887
124.20516205 265.69699097 371.70645142
129.83982849 267.52737427 365.32913208
133.02848816 270.27789307 376.38815308
141.16957092 203.45718384 293.48443604
143.51132202 214.77690125 300.54968262
151.47862244 208.14105225 298.98986816
153.92953491 218.84954834 305.34417725
137.80574036 176.62023926 285.02203369
139.64790344 189.61151123 290.22512817
149.15803528 183.13121033 289.00814819
150.92051697 194.93508911 293.79937744
92.24839020 236.65722656 385.51324463
96.35279846 240.88870239 394.43188477
99.70029449 246.27580261 386.84741211
103.87152100 250.27725220 396.30279541
130.76377869 231.90954590 311.07196045
133.25961304 240.64196777 319.32458496
140.99522400 236.24508667 315.39544678
143.89033508 245.18780518 323.19018555
78.62288666 211.43594360 385.27609253
83.25637054 216.35203552 394.05450439
84.50839233 223.80722046 384.39758301
89.45734406 228.43850708 393.37976074
102.97056580 245.88748169 365.65173340
105.58032227 250.75592041 375.22540283
110.23352051 253.36842346 367.38024902
113.08918762 257.99423218 377.43148804
118.64936829 252.16897583 338.24792480
121.08331299 257.64370728 348.20715332
127.36973572 258.00299072 341.17150879
130.35246277 263.38354492 351.64556885
109.93885803 140.55577087 287.86346436
109.82713318 153.59524536 287.90209961
121.16929626 148.17445374 284.06631470
121.47381592 161.06056213 284.17147827
124.25965881 212.55107117 301.27429199
126.87899780 222.50155640 306.80267334
135.79104614 217.71910095 303.34674072
138.53718567 227.81855774 308.97592163
106.02149200 243.57238770 347.23117065
108.20377350 249.32316589 356.72378540
113.38822937 250.57627869 348.60260010
116.05987549 256.23284912 358.73272705
113.72259521 163.90063477 290.46173096
115.01377869 176.23028564 291.59927368
124.97521973 170.45294189 288.81646729
126.46165466 182.30720520 289.90612793
72.82939911 192.15171814 367.37750244
75.65220642 199.04606628 376.15811157
77.64251709 204.26229858 364.61492920
80.76546478 211.17198181 373.26849365
87.74800110 222.75021362 367.86386108
90.12224579 228.85697937 376.11428833
93.60337830 232.78503418 366.93496704
96.22354126 238.91043091 375.73529053
113.70890808 234.34486389 320.41174316
115.89884949 242.04760742 328.39273071
123.07034302 240.43959045 321.15991211
125.70803070 248.43809509 329.56369019
117.43116760 188.61689758 295.27593994
119.43695068 200.14036560 298.69793701
128.58670044 194.73573303 295.43359375
130.74133301 205.97218323 298.84628296
93.65370178 222.32849121 347.96945190
95.14130402 229.62594604 356.20455933
99.36949158 231.37417603 346.81930542
101.37623596 238.77241516 355.48379517
70.90097046 171.26736450 350.45379639
71.55874634 181.07763672 358.07110596
75.52760315 182.59584045 345.96710205
76.81440735 192.80484009 353.04327393
83.26376343 200.75816345 354.70828247
84.23236084 209.01078796 362.16128540
88.10344696 211.22784424 351.80331421
89.54169464 219.88796997 359.45129395
102.93643951 228.41116333 331.39190674
104.56161499 236.06462097 339.34878540
109.98268127 235.78419495 330.53091431
112.17016602 243.71478271 339.02673340
109.39370728 214.67749023 311.42303467
111.28509521 224.14161682 317.32058716
118.71070862 221.19393921 310.55328369
121.06250000 230.98667908 316.57351685
98.01230621 163.88310242 306.08300781
98.15032959 176.03311157 308.29321289
105.93453979 171.70414734 300.86788940
106.84658813 184.09953308 303.07617188
95.81825256 151.34750366 302.69335938
95.43924713 163.96197510 303.75122070
104.42797852 159.26277161 295.98138428
104.65143585 172.17517090 297.11523438
92.51566315 205.75010681 334.00769043
93.19699097 215.03021240 341.05975342
98.01449585 214.73664856 330.96908569
99.39906311 224.40451050 338.22930908
81.79183960 181.01383972 336.27511597
81.96381378 190.80877686 343.10156250
86.49771881 191.25679016 331.87167358
87.51741791 201.58187866 338.68496704
80.10604095 163.59173584 332.58367920
79.41265869 175.01002502 337.11965942
84.82769775 173.22399902 325.91934204
85.05882263 185.29295349 330.26913452
101.64241028 194.48597717 309.15777588
102.83966827 205.30400085 313.54806519
110.11795807 201.69621277 306.28128052
111.83716583 212.66320801 310.55712891
98.55506897 206.36871338 320.69436646
99.70468140 216.19213867 326.85919189
105.37493896 214.48114014 317.72369385
107.26721954 224.65727234 324.05282593
96.41687775 186.26402283 314.19107056
97.18419647 197.56401062 318.19799805
103.79881287 194.30853271 309.86538696
105.29771423 205.76626587 313.72003174
161.34492493 129.60627747 340.40573120
161.34466553 129.60821533 340.40988159
161.35913086 129.59420776 340.38766479
161.35765076 129.58334351 340.38903809
195.59243774 232.31176758 424.32403564
195.58959961 232.31634521 424.32894897
195.60269165 232.29783630 424.33206177
195.60394287 232.30014038 424.33676147
176.20085144 224.16580200 328.12451172
176.20312500 224.16369629 328.12207031
176.22033691 224.15530396 328.12420654
176.22718811 224.14437866 328.12561035
118.02645874 178.58964539 406.16619873
118.03591156 178.58670044 406.17919922
118.04344177 178.57463074 406.15744019
118.05805206 178.56961060 406.16766357
195.20716858 180.21205139 375.95376587
195.21005249 180.21556091 375.96044922
195.21490479 180.21206665 375.96023560
195.22149658 180.20724487 375.96359253
217.48773193 232.99887085 371.44793701
217.49313354 232.99995422 371.44982910
217.49467468 232.99389648 371.45812988
217.50048828 232.98765564 371.46319580
187.76808167 172.47746277 316.98007202
187.77305603 172.47337341 316.98913574
187.77821350 172.46321106 316.97570801
187.79035950 172.45266724 316.98577881
144.17492676 222.51898193 420.64483643
144.17126465 222.52296448 420.64660645
144.18481445 222.51177979 420.63888550
144.18467712 222.51332092 420.64123535
155.84085083 153.93572998 382.61233521
155.84274292 153.93048096 382.62173462
155.85679626 153.92172241 382.60781860
155.86582947 153.91390991 382.61441040
172.08282471 187.01287842 414.65530396
172.08251953 187.02258301 414.65838623
172.08537292 187.01072693 414.65295410
172.09008789 187.01606750 414.65490723
233.84197998 213.74696350 405.06893921
233.85046387 213.74755859 405.07238770
233.84635925 213.73576355 405.07369995
233.85797119 213.73301697 405.07928467
194.93727112 147.82539368 349.15194702
194.93511963 147.82685852 349.15408325
194.95042419 147.82040405 349.16567993
194.95172119 147.81228638 349.16583252
143.29971313 197.60122681 383.18923950
143.30258179 197.60015869 383.18499756
143.30867004 197.59968567 383.17782593
143.31858826 197.59654236 383.17333984
116.80531311 151.08659363 378.78491211
116.81393433 151.08425903 378.79010010
116.82376099 151.06887817 378.77282715
116.83412170 151.06254578 378.77642822
189.36605835 208.89855957 357.56234741
189.36842346 208.89358521 357.56991577
189.38215637 208.89340210 357.57293701
189.38752747 208.88052368 357.57916260
204.76054382 192.16293335 408.09851074
204.76815796 192.16883850 408.10287476
204.76062012 192.15359497 408.10287476
204.77336121 192.15602112 408.10589600
133.76922607 138.23249817 353.51556396
133.77621460 138.22943115 353.51150513
133.78836060 138.20820618 353.50183105
133.79585266 138.20149231 353.49798584
191.07626343 241.64096069 356.57464600
191.07369995 241.64158630 356.58032227
191.09376526 241.63502502 356.58093262
191.09580994 241.62612915 356.58615112
170.71963501 215.65383911 407.16329956
170.71801758 215.65670776 407.16418457
170.73223877 215.64759827 407.16781616
170.73551941 215.64730835 407.16824341
118.17886353 207.26979065 399.20153809
118.18636322 207.26875305 399.20080566
118.18383789 207.26290894 399.18814087
118.19696045 207.26023865 399.18881226
195.74111938 183.01922607 344.93878174
195.74647522 183.01353455 344.94305420
195.76100159 183.00903320 344.95019531
195.77050781 182.99491882 344.95532227
209.86105347 208.93331909 385.84576416
209.86383057 208.93615723 385.84881592
209.86636353 208.93371582 385.85623169
209.87321472 208.93041992 385.85891724
236.74765015 212.93232727 376.94921875
236.75732422 212.93019104 376.95080566
236.76374817 212.92199707 376.95104980
236.77539062 212.91284180 376.95544434
145.56857300 174.22193909 404.65411377
145.57139587 174.21597290 404.66848755
145.58383179 174.20907593 404.64556885
145.59486389 174.20195007 404.65710449
177.77177429 197.87545776 316.19238281
177.77923584 197.87313843 316.19509888
177.79309082 197.86157227 316.19570923
177.80691528 197.84963989 316.20095825
169.96669006 178.40367126 389.72949219
169.97651672 178.40104675 389.73526001
169.98277283 178.39602661 389.73834229
169.99656677 178.38922119 389.74145508
179.07226562 156.16006470 370.38543701
179.07783508 156.15701294 370.39398193
179.08416748 156.15509033 370.39147949
179.09161377 156.14437866 370.39584351
169.58149719 238.68572998 416.40332031
169.57742310 238.68786621 416.40322876
169.59857178 238.67213440 416.40982056
169.59864807 238.66966248 416.41043091
184.01373291 131.57810974 334.65664673
184.02137756 131.57968140 334.66107178
184.03137207 131.56848145 334.65896606
184.04095459 131.55786133 334.66122437
160.37590027 144.40725708 361.87817383
160.37342834 144.40199280 361.88153076
160.38691711 144.38671875 361.87115479
160.39169312 144.37922668 361.87112427
189.61428833 205.62748718 418.98742676
189.61183167 205.63697815 418.98867798
189.61808777 205.61952209 418.98956299
189.61975098 205.62603760 418.98916626
214.43965149 219.43734741 415.98333740
214.44451904 219.44076538 415.98922729
214.43161011 219.42687988 415.98513794
214.44128418 219.42646790 415.99011230
187.23509216 204.63505554 335.28524780
187.23567200 204.62857056 335.29217529
187.25675964 204.62039185 335.29824829
187.26214600 204.60720825 335.30508423
195.39324951 153.02229309 323.45349121
195.39886475 153.01840210 323.46414185
195.40747070 153.00772095 323.45660400
195.41864014 152.99813843 323.46606445
151.49008179 207.64962769 400.88717651
151.48434448 207.65744019 400.88674927
151.50552368 207.64727783 400.87850952
151.50317383 207.64961243 400.87658691
136.33929443 159.63088989 392.87319946
136.34819031 159.62586975 392.88513184
136.35754395 159.61543274 392.85958862
136.37025452 159.60858154 392.86907959
197.16497803 163.86338806 362.20507812
197.17341614 163.86123657 362.21044922
197.18119812 163.85597229 362.21997070
197.19108582 163.84605408 362.22317505
189.38088989 191.88175964 394.56985474
189.37873840 191.88835144 394.57369995
189.38735962 191.88185120 394.57089233
189.39077759 191.88223267 394.57287598
131.75903320 191.91703796 399.66271973
131.76223755 191.91650391 399.66860962
131.76957703 191.91038513 399.65039062
131.77824402 191.90542603 399.65481567
179.33094788 239.56774902 341.41690063
179.33111572 239.57022095 341.41296387
179.35340881 239.56750488 341.42242432
179.35931396 239.55932617 341.42303467
203.26588440 217.55516052 367.59716797
203.26773071 217.55218506 367.60235596
203.28196716 217.55380249 367.60455322
203.28784180 217.54399109 367.61080933
186.12358093 227.03799438 406.54568481
186.12138367 227.03819275 406.55041504
186.13491821 227.02595520 406.55337524
186.13595581 227.02432251 406.55783081
139.21627808 148.95867920 374.60372925
139.22488403 148.95443726 374.61254883
139.23609924 148.94352722 374.59552002
139.24946594 148.93478394 374.60110474
192.80842590 201.69229126 374.92065430
192.80851746 201.69183350 374.92755127
192.82067871 201.68896484 374.93075562
192.82254028 201.68165588 374.93496704
175.24995422 140.74792480 350.73217773
175.24694824 140.74923706 350.73474121
175.25781250 140.74014282 350.73153687
175.25614929 140.73266602 350.73135376
205.55215454 184.60366821 390.50088501
205.55792236 184.60386658 390.50863647
205.55529785 184.59666443 390.50320435
205.56404114 184.59190369 390.50827026
196.14321899 167.55572510 335.90377808
196.13781738 167.55270386 335.91299438
196.14953613 167.54895020 335.90835571
196.15417480 167.54014587 335.91558838
130.41461182 213.76928711 410.32055664
130.41610718 213.77273560 410.32015991
130.42288208 213.76457214 410.31790161
130.42825317 213.76367188 410.31805420
156.65872192 192.97143555 408.94580078
156.65435791 192.97576904 408.94885254
156.66868591 192.96492004 408.94232178
156.66691589 192.96632385 408.94372559
185.68821716 220.27325439 342.56628418
185.68699646 220.26881409 342.57327271
185.70486450 220.27105713 342.57165527
185.70802307 220.26000977 342.58026123
118.68087769 160.49243164 393.12744141
118.69270325 160.49124146 393.13708496
118.69934845 160.47457886 393.11590576
118.71469116 160.46940613 393.12216187
122.94740295 143.77323914 364.72616577
122.95455170 143.77072144 364.72463989
122.96633911 143.75276184 364.71643066
122.97482300 143.74629211 364.71414185
206.17948914 244.58517456 368.93127441
206.18270874 244.58355713 368.93722534
206.18264771 244.57716370 368.93841553
206.18797302 244.56816101 368.94775391
160.79585266 165.45196533 393.38525391
160.79478455 165.44480896 393.39617920
160.80923462 165.43766785 393.37982178
160.81765747 165.42997742 393.38726807
173.33311462 163.71791077 383.34005737
173.32940674 163.71105957 383.34744263
173.34640503 163.69844055 383.33596802
173.35139465 163.69128418 383.34017944
197.29792786 138.77188110 329.96875000
197.30073547 138.76795959 329.98336792
197.31283569 138.75138855 329.96820068
197.32150269 138.74023438 329.97979736
220.13317871 210.58671570 397.51351929
220.13432312 210.59107971 397.51464844
220.13221741 210.57762146 397.51126099
220.13800049 210.57664490 397.51412964
188.02474976 191.19157410 327.56372070
188.02111816 191.19068909 327.56976318
188.03628540 191.19152832 327.57287598
188.03974915 191.18511963 327.57922363
182.29408264 185.84402466 382.42260742
182.29782104 185.84333801 382.42935181
182.30508423 185.84075928 382.42828369
182.31054688 185.83352661 382.43295288
194.34432983 194.89338684 360.91802979
194.34634399 194.88912964 360.92443848
194.35559082 194.88525391 360.92422485
194.36051941 194.87368774 360.93041992
155.57716370 232.24415588 421.89242554
155.57681274 232.24600220 421.89245605
155.59249878 232.22868347 421.89520264
155.59548950 232.22882080 421.89523315
190.17198181 226.93251038 355.02264404
190.17289734 226.92897034 355.03015137
190.19212341 226.92764282 355.02746582
190.19508362 226.91709900 355.03466797
136.33612061 205.43737793 396.21432495
136.33544922 205.43888855 396.21383667
136.35110474 205.43244934 396.20251465
136.35617065 205.42790222 396.20288086
154.26147461 215.15165710 413.17834473
154.25599670 215.15483093 413.17907715
154.27354431 215.14868164 413.17065430
154.27381897 215.14849854 413.17214966
159.04428101 178.65518188 408.19158936
159.05079651 178.65699768 408.19934082
159.05177307 178.64553833 408.19625854
159.06555176 178.64364624 408.20236206
202.65145874 209.32417297 413.73049927
202.65066528 209.32955933 413.73355103
202.65357971 209.31478882 413.73281860
202.65875244 209.31648254 413.73580933
229.04426575 224.77876282 373.75775146
229.05105591 224.77742004 373.75988770
229.05682373 224.77722168 373.76681519
229.06661987 224.76937866 373.77288818
179.90797424 210.95057678 324.68380737
179.90637207 210.94995117 324.68603516
179.91856384 210.95404053 324.69076538
179.92413330 210.94866943 324.69506836
148.56481934 194.34179688 397.35617065
148.56022644 194.34706116 397.35897827
148.57533264 194.33711243 397.35574341
148.57652283 194.33717346 397.35699463
128.88406372 169.33818054 399.72982788
128.89064026 169.33433533 399.73986816
128.90129089 169.32473755 399.72119141
128.91311646 169.31910706 399.72811890
176.26924133 204.56515503 414.84582520
176.26748657 204.57243347 414.85116577
176.27099609 204.55708313 414.85281372
176.27435303 204.56159973 414.85635376
205.34956360 196.46052551 378.09951782
205.34977722 196.46318054 378.10266113
205.35714722 196.45996094 378.10934448
205.36248779 196.45701599 378.11303711
176.80024719 188.57980347 399.42800903
176.80380249 188.58308411 399.43151855
176.81005859 188.57612610 399.42907715
176.81834412 188.57443237 399.43133545
183.38024902 237.50512695 415.66952515
183.37789917 237.50616455 415.67352295
183.38763428 237.48933411 415.67779541
183.38937378 237.48721313 415.68161011
151.69908142 137.76538086 353.73782349
151.69647217 137.76718140 353.74090576
151.71272278 137.76065063 353.73016357
151.70829773 137.75344849 353.73043823
223.24182129 211.78713989 377.51263428
223.24290466 211.78474426 377.51873779
223.25358582 211.77848816 377.51742554
223.25909424 211.77001953 377.52386475
200.35989380 233.54666138 364.02853394
200.36033630 233.54455566 364.03454590
200.37394714 233.54718018 364.03103638
200.37860107 233.53758240 364.03717041
198.13481140 175.99256897 356.74249268
198.13931274 175.98867798 356.74740601
198.15116882 175.98548889 356.75292969
198.16003418 175.97407532 356.75665283
191.60269165 192.77934265 408.31347656
191.60636902 192.77976990 408.31967163
191.60688782 192.76615906 408.32092285
191.61839294 192.76428223 408.32644653
188.01599121 169.48867798 376.19546509
188.02336121 169.48623657 376.20187378
188.03192139 169.47816467 376.21246338
188.04278564 169.46936035 376.21606445
182.85406494 184.14950562 314.82598877
182.85830688 184.14843750 314.83187866
182.86666870 184.14210510 314.82223511
182.87635803 184.13401794 314.82992554
183.40832520 150.01730347 360.08630371
183.40803528 150.01782227 360.09072876
183.42268372 150.01089478 360.09057617
183.42289734 150.00270081 360.09118652
212.12713623 200.76245117 398.82244873
212.13142395 200.76516724 398.82690430
212.12760925 200.75462341 398.83316040
212.13548279 200.75225830 398.83596802
230.35458374 209.55075073 387.56011963
230.35699463 209.54794312 387.56665039
230.35852051 209.53675842 387.56256104
230.36395264 209.52722168 387.57113647
198.41159058 151.02819824 335.39343262
198.41070557 151.02236938 335.40417480
198.41938782 151.01098633 335.39715576
198.42541504 151.00022888 335.40463257
129.74511719 152.45176697 381.84042358
129.75457764 152.44569397 381.85104370
129.76679993 152.43461609 381.83007812
129.77981567 152.42724609 381.83853149
190.49948120 200.54650879 346.53698730
190.50024414 200.54011536 346.54238892
190.51873779 200.53630066 346.54522705
190.52503967 200.52316284 346.55175781
198.99685669 161.93006897 350.09652710
198.99655151 161.93220520 350.09744263
199.01065063 161.92518616 350.10433960
199.01168823 161.91638184 350.10379028
119.20011902 190.69618225 408.01425171
119.21275330 190.69262695 408.02926636
119.21744537 190.67999268 408.01037598
119.23284149 190.67541504 408.02401733
147.20594788 163.99214172 396.60208130
147.21072388 163.98605347 396.61608887
147.22438049 163.97686768 396.59375000
147.23678589 163.97004700 396.60412598
196.62236023 190.35887146 384.19009399
196.62290955 190.36335754 384.19830322
196.62457275 190.35726929 384.18908691
196.62785339 190.35493469 384.19430542
208.70277405 214.83638000 397.21670532
208.69982910 214.83917236 397.22033691
208.70437622 214.83581543 397.22067261
208.70829773 214.83384705 397.22308350
168.64715576 150.40200806 368.80624390
168.64466858 150.39695740 368.81338501
168.66212463 150.38218689 368.80197144
168.66726685 150.37374878 368.80456543
132.54885864 179.74023438 404.47714233
132.55438232 179.73605347 404.48907471
132.56655884 179.72497559 404.47131348
132.57829285 179.71978760 404.48004150
159.73185730 199.57693481 397.71130371
159.72621155 199.58482361 397.71026611
159.74472046 199.57357788 397.70996094
159.74391174 199.57559204 397.70758057
191.88487244 175.69705200 328.39486694
191.88320923 175.69354248 328.40573120
191.89732361 175.69053650 328.40454102
191.90335083 175.68272400 328.41342163
179.17430115 221.74606323 414.40039062
179.16725159 221.75079346 414.40472412
179.18136597 221.73730469 414.40878296
179.17807007 221.73992920 414.41180420
214.85675049 218.62831116 366.64813232
214.85603333 218.63020325 366.65264893
214.87110901 218.62686157 366.64984131
214.87551880 218.61976624 366.65542603
191.34443665 216.76419067 415.99731445
191.33953857 216.77059937 415.99929810
191.34724426 216.75366211 415.99835205
191.34800720 216.75709534 415.99938965
162.46327209 137.47865295 349.65386963
162.45597839 137.48291016 349.65582275
162.47531128 137.47068787 349.64999390
162.46871948 137.46458435 349.64837646
225.47880554 220.78460693 413.20260620
225.48547363 220.78671265 413.20367432
225.48591614 220.76905823 413.20858765
225.49728394 220.76824951 413.21121216
150.46934509 148.52125549 372.57400513
150.47369385 148.51573181 372.58111572
150.48452759 148.50650024 372.57080078
150.49427795 148.49853516 372.57452393
165.69140625 205.95733643 410.17782593
165.69137573 205.96495056 410.17904663
165.69989014 205.94812012 410.18179321
165.70283508 205.95021057 410.18319702
205.43948364 223.99124146 421.00997925
205.43763733 223.99678040 421.01214600
205.44366455 223.97105408 421.01599121
205.44696045 223.97332764 421.01809692
175.52947998 176.84733582 380.06338501
175.53572083 176.84432983 380.06829834
175.54360962 176.84643555 380.06610107
175.55390930 176.83827209 380.06796265
143.82180786 153.39253235 383.75338745
143.82649231 153.38876343 383.76119995
143.84196472 153.37886047 383.74697876
143.85234070 153.37225342 383.75115967
165.70097351 178.77441406 399.68676758
165.70591736 178.77474976 399.69244385
165.71559143 178.76737976 399.69351196
165.72673035 178.76249695 399.69750977
144.85606384 210.21963501 412.80517578
144.85304260 210.22485352 412.80685425
144.86830139 210.21095276 412.79687500
144.86972046 210.21238708 412.79791260
163.16162109 226.40289307 417.33621216
163.15847778 226.40602112 417.33615112
163.17170715 226.39021301 417.33322144
163.17213440 226.39155579 417.33422852
193.91542053 195.12889099 418.30392456
193.92172241 195.13516235 418.30935669
193.91815186 195.11827087 418.30834961
193.93058777 195.12147522 418.31338501
192.66201782 139.91122437 342.68121338
192.66540527 139.91091919 342.68508911
192.67782593 139.90274048 342.69021606
192.68228149 139.89271545 342.69122314
208.26425171 227.12046814 365.82867432
208.26893616 227.11862183 365.83499146
208.28004456 227.11711121 365.83407593
208.28619385 227.10728455 365.84075928
194.79797363 211.64100647 367.65625000
194.79821777 211.63978577 367.66683960
194.80374146 211.63644409 367.66156006
194.80566406 211.62840271 367.66879272
192.73583984 185.74298096 335.51177979
192.74050903 185.73677063 335.51651001
192.75094604 185.72969055 335.51623535
192.76229858 185.71504211 335.52124023
188.04394531 210.57014465 344.89346313
188.04278564 210.56628418 344.89959717
188.06607056 210.56030273 344.89569092
188.06948853 210.54840088 344.90170288
223.80184937 212.77809143 407.06015015
223.80612183 212.78007507 407.06469727
223.79544067 212.76707458 407.06036377
223.80334473 212.76521301 407.06506348
197.20463562 175.18231201 367.34585571
197.20881653 175.18032837 367.35394287
197.21690369 175.17668152 367.35964966
197.22358704 175.16726685 367.36447144
185.61328125 230.15335083 344.78286743
185.61300659 230.15283203 344.78759766
185.63935852 230.14422607 344.78710938
185.64198303 230.13537598 344.79367065
175.32710266 228.79444885 408.29016113
175.32215881 228.79647827 408.29287720
175.34120178 228.78591919 408.29785156
175.33993530 228.78425598 408.29934692
202.80307007 209.51229858 373.63928223
202.80078125 209.51139832 373.64422607
202.81526184 209.51115417 373.64770508
202.81671143 209.50410461 373.65209961
194.55142212 218.92396545 359.22402954
194.55148315 218.92208862 359.23638916
194.56770325 218.91532898 359.22747803
194.56875610 218.90582275 359.23822021
178.14157104 230.24966431 335.82046509
178.14288330 230.24758911 335.81948853
178.16413879 230.24206543 335.82226562
178.17062378 230.23168945 335.82427979
140.88780212 188.09503174 395.88812256
140.88931274 188.09487915 395.89257812
140.90170288 188.08990479 395.88519287
140.90725708 188.08540344 395.88800049
188.54458618 156.56132507 367.27850342
188.54882812 156.55860901 367.28555298
188.55664062 156.55554199 367.28872681
188.56468201 156.54586792 367.29238892
170.51257324 133.04721069 341.99612427
170.50564575 133.05023193 341.99810791
170.52792358 133.03842163 341.98760986
170.52244568 133.03013611 341.98764038
188.35546875 193.10552979 373.32717896
188.35258484 193.10546875 373.33288574
188.36526489 193.10453796 373.33319092
188.36671448 193.09759521 373.33740234
132.19851685 143.42915344 362.37963867
132.20486450 143.42675781 362.37817383
132.21778870 143.40800476 362.36746216
132.22767639 143.40258789 362.36618042
206.03240967 186.78741455 399.77099609
206.03605652 186.79069519 399.77593994
206.03398132 186.77630615 399.77490234
206.04226685 186.77578735 399.77926636
210.53639221 213.61558533 409.54235840
210.53921509 213.61769104 409.54440308
210.53225708 213.60914612 409.54821777
210.53941345 213.60809326 409.55053711
182.14294434 198.69299316 419.46548462
182.14169312 198.70152283 419.46936035
182.14907837 198.68800354 419.46624756
182.15126038 198.69435120 419.46875000
163.20790100 189.91757202 416.14779663
163.21115112 189.92286682 416.15411377
163.21076965 189.90808105 416.14602661
163.21875000 189.91032410 416.15109253
153.72161865 170.35244751 401.90545654
153.72251892 170.34559631 401.91879272
153.73921204 170.33651733 401.90051270
153.74996948 170.32974243 401.91000366
134.31253052 216.66381836 418.38128662
134.30957031 216.66885376 418.38464355
134.32006836 216.65371704 418.37677002
134.32034302 216.65663147 418.38009644
189.54113770 224.21585083 421.40646362
189.53665161 224.22155762 421.41085815
189.54476929 224.20495605 421.41357422
189.54701233 224.20867920 421.41574097
203.16407776 199.98988342 414.36468506
203.17042542 199.99589539 414.36755371
203.16514587 199.98017883 414.37042236
203.17633057 199.98367310 414.37280273
178.68650818 221.39799500 403.66223145
178.68116760 221.40093994 403.66589355
178.69886780 221.38858032 403.66934204
178.69760132 221.38702393 403.66964722
189.22222900 200.45402527 366.43472290
189.22186279 200.45173645 366.44299316
189.23057556 200.45011902 366.43972778
189.23179626 200.44117737 366.44601440
196.50732422 173.00845337 343.42092896
196.51416016 173.00111389 343.42724609
196.52221680 172.99612427 343.43875122
196.53433228 172.98132324 343.44488525
177.05004883 185.60444641 390.09042358
177.05476379 185.60614014 390.09640503
177.06437683 185.60177612 390.09179688
177.07192993 185.59741211 390.09558105
147.07493591 186.25054932 402.52239990
147.07305908 186.25399780 402.52658081
147.08660889 186.24407959 402.51849365
147.08900452 186.24333191 402.52005005
197.06210327 186.19999695 362.48220825
197.06686401 186.19914246 362.48712158
197.07949829 186.19305420 362.49145508
197.08544922 186.18409729 362.49563599
195.33770752 154.34877014 355.64630127
195.33711243 154.34925842 355.64822388
195.35153198 154.34326172 355.65972900
195.35220337 154.33465576 355.65905762
210.22868347 195.41036987 385.81246948
210.23197937 195.41236877 385.81494141
210.23269653 195.40733337 385.82324219
210.24029541 195.40386963 385.82608032
127.35598755 148.30812073 371.38735962
127.36643219 148.30419922 371.39288330
127.37584686 148.29142761 371.37744141
127.38838959 148.28369141 371.38107300
147.52432251 142.28196716 360.57147217
147.52726746 142.27777100 360.57507324
147.53872681 142.26307678 360.56579590
147.54579163 142.25555420 360.56607056
170.96449280 195.89408875 416.63623047
170.96458435 195.90327454 416.63906860
170.96972656 195.89610291 416.63153076
170.97167969 195.90211487 416.63354492
180.45082092 135.57594299 342.04809570
180.44923401 135.57856750 342.04937744
180.46023560 135.57196045 342.04681396
180.46211243 135.56324768 342.04611206
186.17828369 238.40121460 348.42431641
186.17814636 238.40252686 348.42639160
186.20594788 238.39299011 348.43124390
186.20979309 238.38357544 348.43600464
167.05851746 157.61306763 381.23937988
167.06306458 157.61050415 381.24957275
167.07220459 157.60673523 381.24871826
167.08370972 157.59815979 381.25521851
154.80450439 159.36503601 390.65356445
154.80558777 159.35905457 390.66479492
154.81863403 159.35202026 390.64916992
154.82759094 159.34567261 390.65585327
147.89387512 202.77696228 394.30667114
147.89027405 202.78175354 394.30548096
147.90667725 202.77734375 394.30175781
147.90951538 202.77539062 394.30007935
177.22503662 191.62904358 407.80166626
177.22453308 191.63569641 407.80221558
177.23364258 191.62335205 407.80059814
177.23719788 191.62544250 407.79956055
172.48185730 147.57264709 361.27774048
172.48321533 147.57254028 361.28033447
172.49647522 147.56774902 361.28204346
172.49853516 147.55935669 361.28137207
128.56550598 201.27079773 397.23825073
128.57087708 201.26965332 397.24224854
128.57958984 201.26991272 397.22805786
128.58987427 201.26290894 397.23229980
196.84721375 241.65017700 363.90075684
196.84481812 241.65011597 363.90823364
196.85093689 241.64262390 363.90609741
196.85095215 241.63423157 363.91470337
198.08340454 188.30717468 403.80065918
198.09185791 188.30944824 403.80657959
198.08622742 188.29450989 403.80523682
198.09864807 188.29301453 403.81042480
166.12222290 223.06683350 409.72021484
166.11662292 223.06994629 409.72122192
166.13270569 223.05755615 409.72143555
166.13151550 223.05784607 409.72192383
196.03674316 159.83607483 328.99511719
196.03767395 159.83106995 329.00543213
196.04690552 159.82611084 329.00039673
196.05471802 159.81602478 329.00897217
173.91258240 205.76986694 316.46524048
173.91848755 205.76867676 316.46453857
173.92686462 205.76176453 316.46298218
173.93855286 205.75071716 316.46499634
142.28625488 136.81819153 351.81115723
142.27980042 136.82316589 351.81283569
142.29521179 136.81948853 351.79672241
142.28778076 136.81350708 351.79507446
131.41186523 207.74678040 404.08535767
131.41448975 207.74882507 404.08865356
131.42195129 207.74147034 404.07489014
131.42900085 207.73815918 404.07888794
183.31134033 235.16049194 405.31652832
183.30879211 235.16192627 405.31427002
183.32341003 235.15368652 405.31851196
183.32388306 235.15104675 405.31683350
186.85644531 233.27871704 422.28274536
186.85496521 233.27877808 422.29046631
186.85850525 233.25920105 422.28964233
186.86068726 233.25680542 422.29611206
185.17198181 181.50018311 375.64559937
185.17720032 181.49778748 375.65335083
185.18524170 181.49493408 375.65447998
185.19297791 181.48541260 375.65930176
198.02731323 161.01518250 340.98449707
198.03082275 161.01440430 340.98443604
198.04365540 161.01124573 340.99359131
198.05076599 161.00088501 340.99340820
114.15012360 171.46336365 403.96429443
114.16006470 171.46162415 403.97558594
114.16690063 171.44651794 403.95285034
114.18054199 171.44134521 403.96240234
193.82592773 186.54547119 370.78527832
193.82971191 186.54516602 370.79290771
193.83535767 186.54350281 370.79318237
193.83969116 186.53646851 370.79901123
193.66777039 167.73722839 327.13827515
193.66679382 167.73236084 327.14535522
193.67579651 167.72866821 327.14141846
193.68156433 167.72019958 327.14843750
179.88392639 169.59059143 377.54962158
179.89532471 169.58596802 377.55426025
179.89794922 169.58613586 377.55999756
179.91133118 169.57577515 377.56292725
174.41262817 158.25756836 377.25338745
174.42019653 158.25343323 377.26394653
174.42437744 158.25253296 377.26483154
174.43618774 158.24249268 377.27157593
202.03985596 189.06388855 376.62719727
202.04083252 189.07026672 376.62969971
202.04861450 189.06581116 376.63009644
202.05296326 189.06303406 376.63259888
139.19155884 196.41702271 390.13366699
139.19332886 196.41677856 390.13412476
139.20159912 196.41481018 390.12799072
139.20918274 196.40762329 390.12744141
156.83958435 210.30654907 407.15203857
156.83604431 210.30564880 407.16006470
156.84805298 210.30503845 407.15161133
156.85488892 210.30361938 407.15744019
120.53780365 154.71138000 385.02856445
120.54846191 154.70742798 385.03668213
120.55953979 154.69822693 385.01483154
120.57387543 154.69094849 385.02041626
187.74046326 142.57336426 348.47723389
187.73931885 142.57363892 348.47915649
187.75402832 142.56637573 348.48410034
187.75517273 142.55691528 348.48315430
180.66233826 202.22058105 322.32690430
180.66154480 202.21965027 322.33126831
180.67613220 202.22067261 322.33218384
180.68090820 202.21388245 322.33825684
167.35231018 164.97570801 388.52154541
167.36175537 164.97003174 388.53530884
167.36801147 164.96936035 388.53216553
167.38412476 164.95877075 388.54266357
148.04763794 200.25624084 402.73748779
148.04396057 200.26185608 402.73995972
148.05842590 200.25137329 402.72817993
148.05862427 200.25210571 402.72909546
192.05493164 157.14941406 317.62081909
192.06222534 157.14607239 317.62728882
192.06170654 157.13549805 317.61456299
192.07408142 157.12622070 317.62106323
206.98616028 188.43022156 383.75961304
206.99168396 188.42958069 383.76293945
206.99066162 188.42814636 383.76834106
206.99935913 188.42254639 383.77224731
187.39953613 191.37466431 384.72143555
187.40138245 191.37614441 384.72906494
187.40727234 191.37277222 384.73098755
187.41027832 191.36820984 384.73669434
199.70126343 152.10667419 343.07928467
199.69747925 152.10096741 343.09030151
199.71072388 152.08837891 343.08084106
199.71481323 152.07946777 343.08944702
139.96154785 141.79373169 358.51983643
139.96611023 141.79113770 358.51901245
139.97387695 141.77343750 358.51083374
139.98260498 141.76679993 358.50839233
151.88368225 180.71907043 410.48437500
151.88328552 180.72175598 410.49365234
151.89454651 180.71055603 410.48449707
151.90026855 180.70965576 410.49185181
170.53413391 185.54840088 407.16091919
170.53364563 185.55409241 407.16491699
170.54559326 185.54371643 407.15734863
170.55090332 185.54537964 407.16043091
185.75868225 162.18022156 374.74670410
185.76557922 162.17872620 374.75238037
185.76651001 162.17024231 374.75723267
185.77438354 162.16267395 374.76028442
207.87078857 213.11953735 378.30514526
207.86831665 213.12342834 378.30926514
207.87637329 213.11962891 378.31500244
207.87823486 213.11553955 378.32064819
157.09811401 220.81674194 417.62521362
157.09434509 220.82092285 417.62609863
157.11555481 220.80551147 417.62005615
157.11431885 220.80647278 417.62182617
217.16769409 209.95706177 388.16134644
217.17027283 209.95787048 388.16751099
217.16773987 209.94714355 388.16799927
217.17361450 209.94262695 388.17279053
209.73458862 200.36418152 406.14666748
209.73704529 200.37112427 406.14730835
209.73760986 200.35368347 406.15859985
209.74707031 200.35620117 406.15942383
197.31732178 216.74273682 420.84887695
197.31608582 216.74865723 420.85317993
197.32077026 216.72726440 420.85305786
197.32565308 216.72851562 420.85501099
165.78935242 171.24980164 394.18893433
165.79612732 171.24694824 394.19909668
165.80332947 171.24394226 394.19628906
165.81645203 171.23669434 394.20318604
179.72021484 145.11857605 355.46093750
179.72314453 145.11618042 355.46362305
179.73571777 145.10877991 355.46612549
179.73793030 145.09785461 355.46560669
210.15699768 194.65306091 393.44738770
210.16098022 194.65527344 393.45010376
210.15856934 194.64280701 393.46075439
210.16928101 194.64015198 393.46505737
117.53977966 197.57633972 405.13720703
117.54943848 197.57475281 405.14685059
117.54933929 197.56642151 405.12857056
117.56343079 197.56275940 405.13760376
193.45489502 189.96768188 342.72454834
193.45841980 189.96136475 342.73126221
193.46940613 189.95640564 342.73428345
193.47857666 189.94317627 342.74127197
187.60305786 214.30754089 352.48049927
187.60598755 214.30322266 352.49221802
187.61906433 214.29930115 352.48992920
187.62379456 214.28790283 352.50030518
139.04969788 170.97183228 402.45782471
139.05345154 170.96687317 402.46981812
139.06758118 170.95979309 402.45370483
139.07791138 170.95408630 402.46243286
141.42799377 146.32595825 367.82604980
141.43185425 146.32283020 367.83245850
141.44645691 146.30926514 367.82333374
141.45632935 146.30187988 367.82614136
130.28988647 157.47503662 388.88137817
130.29954529 157.47027588 388.89175415
130.31001282 157.45974731 388.87060547
130.32408142 157.45294189 388.87701416
192.51431274 134.61633301 334.10504150
192.51998901 134.62011719 334.11059570
192.53260803 134.61160278 334.11538696
192.54244995 134.60260010 334.11865234
174.35537720 236.46131897 411.01477051
174.35351562 236.46372986 411.01620483
174.37051392 236.44972229 411.02145386
174.37062073 236.44839478 411.02215576
164.78933716 194.67066956 410.51473999
164.78686523 194.67889404 410.51803589
164.79438782 194.66497803 410.51498413
164.79725647 194.66978455 410.51663208
138.45054626 182.99000549 400.83663940
138.45149231 182.99217224 400.84155273
138.46714783 182.98519897 400.82949829
138.47286987 182.98237610 400.83218384
158.74801636 147.50073242 368.52697754
158.74732971 147.49636841 368.53219604
158.75933838 147.48126221 368.52215576
158.76641846 147.47415161 368.52401733
125.51173401 216.14796448 405.16030884
125.51550293 216.14782715 405.15765381
125.51301575 216.14733887 405.15359497
125.52372742 216.14173889 405.15228271
161.11718750 159.21392822 386.62921143
161.12341309 159.21084595 386.64016724
161.13003540 159.21063232 386.63162231
161.14276123 159.20199585 386.63958740
183.48806763 189.91336060 319.43386841
183.48840332 189.91070557 319.43887329
183.50198364 189.90724182 319.43438721
183.50935364 189.89901733 319.44104004
211.92150879 201.49057007 391.22042847
211.92753601 201.49285889 391.22140503
211.92816162 201.48532104 391.22998047
211.93884277 201.48251343 391.23120117
187.11715698 198.14640808 329.92898560
187.11236572 198.14414978 329.93426514
187.12962341 198.14585876 329.93869019
187.13313293 198.13909912 329.94491577
124.79603577 175.99661255 404.71231079
124.80192566 175.99353027 404.72540283
124.81420135 175.98234558 404.70495605
124.82489777 175.97853088 404.71466064
190.62530518 165.85508728 318.56759644
190.63076782 165.85263062 318.57598877
190.63441467 165.84420776 318.57104492
190.64529419 165.83560181 318.58117676
180.49874878 214.58222961 413.21054077
180.49417114 214.58802795 413.21337891
180.50091553 214.57333374 413.21600342
180.50119019 214.57620239 413.21871948
223.24830627 228.44909668 370.98706055
223.25186157 228.45193481 370.98797607
223.26335144 228.44329834 370.99603271
223.26889038 228.43760681 371.00082397
183.44149780 227.46214294 416.07357788
183.43952942 227.46257019 416.08276367
183.44577026 227.44953918 416.08303833
183.44662476 227.44743347 416.08947754
180.42135620 218.60520935 330.13812256
180.42424011 218.59866333 330.14163208
180.44435120 218.59368896 330.14633179
180.45173645 218.58009338 330.15264893
197.09521484 177.09375000 349.38427734
197.09788513 177.08926392 349.38958740
197.10957336 177.08796692 349.40191650
197.11552429 177.07604980 349.40512085
120.71667480 169.52221680 401.58612061
120.72640228 169.51927185 401.59722900
120.73477173 169.50561523 401.57733154
120.74769592 169.50100708 401.58477783
199.16152954 201.52709961 378.39428711
199.16032410 201.53051758 378.39855957
199.16809082 201.52912903 378.40255737
199.16969299 201.52471924 378.40557861
120.20509338 147.63883972 370.51501465
120.21687317 147.63446045 370.51760864
120.22808838 147.62176514 370.50207520
120.24217224 147.61442566 370.50466919
154.93305969 131.19219971 343.31845093
154.92979431 131.19575500 343.32083130
154.94929504 131.18566895 343.30676270
154.94494629 131.17761230 343.30706787
210.90963745 207.49450684 401.15069580
210.91098022 207.49693298 401.15496826
210.90850830 207.48957825 401.15902710
210.91508484 207.48779297 401.16265869
147.49763489 228.89689636 421.26953125
147.49320984 228.90011597 421.26934814
147.50988770 228.88482666 421.26687622
147.50982666 228.88685608 421.26599121
182.67848206 190.64849854 392.22207642
182.67643738 190.65341187 392.22662354
182.69042969 190.65161133 392.22463989
182.69340515 190.65034485 392.22659302
187.33871460 146.94236755 354.90243530
187.33842468 146.94367981 354.90551758
187.35339355 146.93586731 354.91101074
187.35369873 146.92687988 354.91110229
178.14347839 193.33509827 416.83724976
178.14427185 193.34416199 416.83947754
178.14494324 193.32850647 416.83215332
178.14906311 193.33425903 416.83306885
188.21893311 184.54556274 324.88641357
188.21762085 184.54321289 324.89321899
188.23187256 184.54129028 324.89318848
188.23683167 184.53184509 324.89996338
190.75881958 198.21447754 339.75949097
190.76275635 198.20709229 339.76388550
190.77624512 198.20231628 339.76647949
190.78709412 198.18734741 339.77288818
209.42022705 201.42234802 382.02755737
209.42024231 201.42524719 382.03219604
209.42855835 201.41989136 382.03918457
209.43368530 201.41687012 382.04272461
220.14001465 219.65319824 371.32998657
220.14099121 219.65347290 371.33273315
220.15351868 219.65350342 371.33944702
220.15866089 219.64784241 371.34405518
198.16055298 169.12913513 354.86102295
198.16664124 169.12393188 354.86648560
198.17909241 169.12405396 354.87194824
198.18905640 169.11126709 354.87731934
151.00804138 145.06289673 366.40338135
151.00762939 145.05880737 366.40872192
151.01727295 145.04347229 366.39553833
151.02453613 145.03759766 366.39578247
187.66604614 194.44200134 415.01647949
187.67028809 194.44685364 415.01992798
187.66915894 194.42977905 415.02108765
187.67805481 194.43257141 415.02404785
190.38064575 198.96499634 356.67001343
190.38163757 198.96008301 356.67919922
190.39436340 198.95663452 356.67550659
190.39781189 198.94543457 356.68344116
160.56700134 218.75863647 410.55975342
160.56416321 218.76028442 410.56039429
160.57966614 218.75219727 410.55517578
160.58084106 218.75173950 410.55493164
195.34906006 189.11572266 391.98907471
195.35185242 189.11880493 391.99468994
195.35554504 189.11225891 391.99276733
195.36199951 189.10916138 391.99780273
231.40345764 218.61537170 376.24044800
231.40994263 218.61361694 376.24328613
231.42012024 218.60740662 376.24884033
231.42864990 218.59942627 376.25421143
231.56146240 211.55914307 398.77505493
231.56365967 211.55897522 398.77935791
231.56555176 211.54393005 398.77944946
231.57408142 211.54005432 398.78533936
148.69779968 156.38760376 388.80416870
148.70173645 156.38180542 388.81619263
148.71290588 156.37385559 388.79946899
148.72322083 156.36657715 388.80703735
194.88980103 191.42202759 354.83016968
194.89395142 191.41810608 354.83743286
194.91229248 191.41621399 354.84329224
194.91798401 191.40469360 354.85058594
185.14405823 211.32821655 335.48419189
185.14393616 211.32351685 335.48806763
185.16351318 211.31726074 335.49713135
185.16914368 211.30461121 335.50262451
190.99971008 151.67132568 360.43951416
191.00025940 151.67245483 360.44186401
191.01359558 151.66381836 360.44180298
191.01406860 151.65568542 360.44125366
139.78405762 207.09399414 402.04415894
139.78228760 207.09776306 402.04565430
139.79922485 207.08813477 402.03643799
139.80265808 207.08680725 402.03762817
186.98156738 221.63693237 413.59545898
186.97778320 221.64218140 413.59875488
186.98817444 221.62609863 413.59649658
186.98953247 221.62913513 413.59942627
146.96342468 150.42596436 378.27813721
146.96806335 150.42007446 378.28549194
146.98088074 150.40873718 378.27020264
146.99127197 150.40121460 378.27392578
137.99949646 210.19909668 412.05957031
137.99780273 210.20466614 412.06515503
138.00856018 210.18873596 412.05032349
138.01046753 210.18867493 412.05599976
162.06164551 153.52764893 378.87695312
162.06988525 153.52365112 378.88845825
162.07261658 153.52738953 378.88275146
162.08726501 153.51773071 378.89059448
187.63665771 207.45442200 351.07174683
187.63395691 207.45158386 351.08026123
187.65231323 207.44781494 351.08364868
187.65127563 207.43704224 351.09210205
181.29360962 139.23414612 347.77148438
181.28900146 139.23754883 347.77471924
181.30445862 139.22784424 347.77377319
181.30134583 139.22140503 347.77401733
147.94400024 190.53927612 391.70196533
147.94398499 190.54200745 391.70465088
147.95883179 190.53730774 391.69747925
147.96388245 190.53442383 391.69891357
211.20532227 232.71102905 368.39862061
211.21020508 232.71109009 368.40112305
211.21713257 232.70835876 368.40530396
211.22357178 232.70077515 368.41006470
189.85607910 193.28692627 366.68072510
189.85862732 193.28656006 366.68930054
189.86904907 193.28321838 366.68707275
189.87216187 193.27525330 366.69299316
174.72239685 210.56423950 411.99932861
174.71676636 210.56967163 412.00341797
174.73071289 210.55551147 412.00616455
174.72961426 210.55868530 412.00866699
183.46168518 208.55905151 419.15591431
183.46104431 208.56619263 419.15783691
183.46456909 208.55044556 419.15887451
183.46748352 208.55607605 419.16046143
169.05307007 200.05044556 410.63803101
169.05131531 200.05815125 410.63812256
169.05674744 200.04806519 410.64129639
169.05902100 200.05242920 410.64025879
147.39831543 198.13478088 389.36123657
147.39743042 198.13687134 389.36114502
147.41067505 198.13574219 389.35479736
147.41578674 198.13230896 389.35296631
