ply
format ascii 1.0
element vertex 2048
property float x
property float y
property float z
end_header
315.31597900 261.58401489 442.16900635
80.28061676 189.09503174 517.13171387
168.39997864 198.47694397 367.72534180
199.11776733 282.76550293 522.84582520
155.69026184 113.13431549 454.59634399
120.85816956 253.52117920 442.96243286
229.06999207 204.39698792 462.42700195
88.75990295 168.96653748 413.44039917
288.92691040 273.92251587 528.43231201
200.66999817 281.67175293 432.60232544
161.71490479 197.03193665 505.58901978
282.02899170 197.80099487 405.69000244
113.01089478 255.99316406 516.80035400
144.71112061 130.91439819 385.53302002
108.93933105 225.20741272 380.81152344
259.59091187 284.89205933 466.12994385
168.45341492 176.23506165 441.95874023
100.40863800 143.77445984 473.27099609
226.77799988 232.58000183 403.52899170
242.15299988 240.94299316 507.69400024
90.42607880 204.67642212 461.37493896
159.84082031 252.81173706 394.37188721
193.15795898 131.93360901 416.91009521
165.39393616 278.95202637 470.66073608
277.37899780 233.01200867 467.52798462
268.00601196 265.35998535 417.00000000
112.10904694 120.85972595 424.31814575
120.66493988 174.43066406 373.67819214
202.54484558 179.57455444 403.49679565
194.49755859 227.40969849 488.58456421
243.27517700 278.71835327 545.59558105
149.18731689 154.87548828 480.13006592
211.58837891 293.95950317 477.94741821
156.22509766 246.88909912 501.47628784
121.27405548 209.80081177 521.22882080
303.97900391 268.25500488 486.41299438
246.57298279 292.91159058 504.84378052
217.09600830 245.50099182 456.13101196
313.37942505 224.80703735 417.55316162
85.73844147 226.39337158 497.45932007
114.87593842 166.82273865 507.51715088
101.30445862 217.99349976 421.63787842
244.99900818 201.02400208 425.42599487
123.84244537 269.27423096 480.42160034
163.10281372 105.08137512 414.38882446
157.69900513 274.11251831 428.96621704
192.10057068 226.35400391 389.72915649
171.11010742 161.48127747 381.69546509
105.41263580 139.44303894 391.01028442
238.44789124 282.00756836 433.71246338
123.36459351 251.43757629 404.68896484
183.93563843 188.29049683 477.11300659
144.29663086 226.61952209 367.72824097
203.92732239 262.47097778 404.74349976
264.25701904 228.97599792 409.16201782
276.50897217 248.42999268 500.15701294
88.93420410 168.02116394 449.76107788
180.40686035 140.65653992 449.12957764
103.80500793 238.46009827 469.84472656
278.98202515 213.19100952 437.06701660
196.90200806 196.88999939 450.77899170
195.73899841 266.12600708 495.33099365
283.41384888 274.89413452 445.47628784
84.92918396 176.39239502 485.70825195
129.25874329 127.75683594 478.55526733
98.98326111 193.72532654 390.28515625
89.66628265 218.54421997 529.01971436
158.61041260 208.05520630 443.50115967
248.18600464 221.74600220 481.68298340
275.51638794 284.46102905 495.86016846
197.54458618 161.33691406 429.97576904
215.72099304 256.36602783 518.41699219
259.75497437 260.31900024 525.39996338
215.48899841 205.48400879 414.98199463
293.59201050 248.67401123 423.19598389
234.63900757 261.56900024 408.78701782
149.81190491 221.31367493 519.38525391
138.30020142 197.13748169 360.73925781
133.90507507 107.58102417 409.69314575
189.59088135 287.95889282 459.27624512
256.89501953 203.45401001 453.39797974
124.66883850 118.58397675 450.47259521
90.76060486 193.12530518 434.71798706
135.32298279 187.75819397 507.85125732
221.65499878 188.47499084 438.73501587
226.15666199 294.33239746 524.18530273
198.29826355 223.67086792 460.23464966
95.18640137 145.94451904 432.50427246
180.92713928 270.53387451 410.99383545
191.10832214 199.66987610 389.70462036
173.37075806 136.27473450 394.03726196
142.16815186 269.93884277 455.06402588
218.96194458 290.73910522 450.93505859
295.92098999 252.69999695 463.19299316
171.52879333 162.16978455 467.99490356
176.83439636 116.40906525 437.08370972
101.23547363 256.76354980 492.12261963
171.98361206 221.47381592 499.52447510
264.08401489 286.41946411 530.77496338
144.97753906 157.88043213 374.67535400
98.08214569 167.21423340 386.86883545
238.47433472 293.09020996 479.93801880
220.71200562 227.53199768 481.40298462
102.61784363 224.62937927 447.12222290
135.82763672 262.98492432 505.41979980
191.11099243 154.44418335 401.78823853
113.53521729 142.23852539 495.48913574
83.75189972 202.14682007 486.90039062
149.24412537 265.55627441 485.40905762
140.97438049 107.23366547 434.28802490
161.82875061 176.76435852 487.30398560
132.93289185 240.24356079 519.46966553
168.65103149 232.79321289 379.85079956
284.55648804 276.86221313 471.83642578
212.35119629 292.88952637 503.19778442
181.89805603 245.30722046 500.92984009
287.73999023 237.48600769 444.85598755
115.01857758 198.65115356 370.73226929
134.01889038 266.32568359 423.48278809
109.90862274 232.94769287 525.53344727
107.15047455 187.89337158 518.59521484
289.06900024 220.77000427 415.80099487
161.54570007 136.72900391 464.20611572
178.50283813 209.04537964 461.19818115
128.87425232 240.01445007 380.97561646
218.21934509 274.99691772 537.10522461
194.34001160 199.50999451 426.77600098
183.33755493 251.30134583 394.86700439
90.36415100 168.79238892 509.01889038
112.55632019 240.48030090 423.04364014
115.34951782 119.47913361 399.18688965
135.31495667 165.92587280 496.21408081
219.55635071 274.04620361 419.87631226
122.88770294 150.71063232 379.75885010
170.46408081 265.05215454 497.25152588
188.13224792 175.58134460 455.82998657
213.73100281 240.82699585 499.70401001
155.73281860 178.87504578 369.00329590
235.24800110 259.94598389 529.73199463
103.87215424 133.62744141 449.59268188
268.80700684 196.74499512 425.19400024
191.21826172 286.19955444 485.96295166
186.71092224 178.12260437 387.26290894
260.59707642 277.68881226 435.61892700
205.67601013 204.19700623 470.88500977
291.00997925 263.85800171 507.88598633
241.13400269 215.45300293 408.60598755
308.89999390 237.78800964 435.48797607
92.79833984 241.95162964 512.07952881
149.34616089 268.52966309 407.68658447
106.41974640 229.41693115 402.75466919
93.21405029 198.97355652 413.12423706
94.78141785 145.76943970 410.25183105
178.37214661 280.06655884 440.18734741
247.69000244 244.00199890 406.90600586
91.61849976 221.42968750 477.01596069
123.53982544 218.95294189 365.64862061
206.12699890 238.93099976 401.33700562
261.71600342 234.07200623 493.32800293
79.70635223 210.88035583 511.30230713
93.40744781 157.18167114 490.46710205
155.98367310 118.61585999 398.79138184
285.46099854 247.07800293 481.06799316
118.72830200 253.25865173 463.32672119
214.86599731 188.97700500 458.43801880
177.61221313 118.73356628 407.91082764
136.22518921 142.19378662 491.95907593
180.79338074 202.90435791 491.71423340
177.67234802 214.34242249 378.14550781
287.52600098 267.85998535 426.96801758
239.64080811 287.60455322 452.34860229
260.24401855 208.42100525 409.18298340
116.30475616 268.68798828 501.24145508
206.99200439 218.61000061 401.03900146
235.03099060 203.81700134 443.06799316
215.21000671 226.56401062 449.23098755
263.46600342 218.35899353 467.50701904
197.71299744 265.02801514 515.40399170
87.06736755 182.78280640 463.29907227
162.12393188 278.08776855 449.32849121
249.24699402 271.73999023 421.02600098
193.11111450 181.37319946 421.52584839
276.45999146 244.92601013 414.32601929
91.24446106 160.64894104 469.57736206
274.38912964 286.66427612 515.24322510
125.18410492 131.28874207 386.78823853
152.95608521 210.07202148 363.43151855
160.34326172 106.47730255 436.69064331
246.62709045 292.49548340 525.28472900
301.42904663 268.83874512 454.14291382
98.92262268 212.45050049 397.51095581
149.34254456 241.82704163 381.70526123
160.02464294 145.40689087 382.61056519
146.61811829 125.21518707 471.57940674
259.16815186 288.39196777 486.21847534
192.82603455 143.47850037 432.57870483
138.29386902 205.19213867 514.89147949
219.76699829 251.56900024 403.46099854
114.51843262 130.05691528 464.54690552
95.25521851 150.69511414 454.20092773
141.04208374 252.70840454 394.23587036
205.48216248 248.62796021 468.00119019
274.97698975 221.47099304 453.22399902
229.40400696 231.35800171 497.58499146
187.86743164 158.33050537 445.20019531
171.38209534 193.29574585 450.71109009
294.71600342 225.21099854 433.17700195
260.35601807 246.71099854 508.52001953
300.18200684 250.81300354 445.12399292
190.76409912 280.04391479 506.13034058
199.36212158 272.54196167 417.32406616
97.31527710 202.09516907 524.45019531
219.42828369 284.36233521 434.57092285
150.59613037 182.48680115 500.88769531
274.39401245 259.92199707 515.13800049
90.31546783 163.05438232 431.95709229
135.31207275 117.43655396 394.84277344
293.11135864 278.46478271 495.71353149
172.34867859 179.78652954 376.09625244
169.99458313 126.65769196 452.12991333
91.18742371 179.25691223 397.61975098
228.93984985 293.88372803 498.34320068
248.03399658 210.40899658 466.97100830
137.75979614 180.72636414 366.22506714
269.45349121 279.46109009 453.60861206
96.46231079 210.01609802 436.24215698
165.25418091 236.62127686 492.41571045
208.69799805 199.81700134 437.37500000
115.79314423 239.78379822 392.31759644
290.53900146 280.79299927 512.85400391
197.28244019 148.87361145 416.73809814
103.89814758 126.99987030 409.64382935
110.32975006 240.74687195 454.41598511
96.02536774 241.34823608 486.56863403
180.55664062 216.69287109 476.88012695
197.57699585 205.34199524 409.79098511
111.17143250 257.95352173 477.83224487
204.90600586 230.64799500 475.78201294
256.86801147 198.01400757 437.39199829
195.30683899 176.20777893 438.93725586
201.84585571 167.50909424 415.14245605
159.99987793 233.03404236 510.93511963
308.30401611 261.64099121 471.60400391
228.46800232 198.23800659 425.52798462
165.39050293 273.37261963 414.63458252
203.07199097 252.28199768 505.97100830
105.31182861 208.66163635 380.05902100
161.76666260 214.61834717 509.59683228
82.14031219 182.63549805 501.88995361
141.25219727 270.39593506 471.35391235
124.73206329 225.90328979 524.49401855
205.27107239 292.07009888 460.95397949
253.69599915 259.83700562 410.42001343
176.62170410 274.72616577 485.54260254
274.96002197 216.14900208 408.56298828
103.94525909 154.96038818 504.29348755
121.57558441 255.40995789 424.57693481
301.81631470 267.97869873 435.43072510
90.04656982 183.05361938 421.64297485
106.37342834 180.22373962 381.11663818
133.52046204 263.89364624 441.60238647
258.91546631 275.45129395 541.64172363
126.49728394 110.15963745 427.57696533
92.95187378 157.00607300 398.58099365
186.23408508 118.55501556 423.93267822
283.64498901 206.69900513 421.63598633
107.36995697 216.57267761 525.42907715
138.91610718 115.98777771 457.50067139
190.31735229 194.24952698 466.51141357
147.52909851 244.94392395 514.54565430
212.34602356 288.46713257 529.68316650
172.76721191 188.73475647 491.92663574
232.57299805 250.42301941 516.34002686
189.49041748 192.92004395 403.98553467
220.70599365 215.07499695 471.44201660
107.73503876 154.26437378 383.42364502
224.69949341 293.04321289 469.00582886
230.16055298 286.09320068 537.04644775
179.01768494 150.85549927 390.29425049
113.97747803 134.98846436 479.72937012
85.38654327 228.44960022 515.60845947
121.20758820 183.03779602 511.57415771
81.88821411 205.08332825 526.16833496
147.41741943 271.41094971 439.63482666
102.58045197 132.42166138 429.33096313
125.61878204 153.78323364 496.16961670
273.70501709 270.45300293 529.37402344
162.95013428 220.61019897 370.46276855
176.32662964 281.04302979 461.06701660
293.66400146 258.33801270 492.63998413
307.33740234 252.31939697 430.00003052
258.60668945 292.11593628 516.05438232
172.56982422 260.88763428 400.80471802
93.11187744 178.77613831 520.68292236
97.91182709 223.23071289 461.73434448
254.26626587 282.92474365 449.91674805
244.54200745 230.45399475 494.63098145
192.98321533 218.36065674 472.28121948
208.16700745 267.84701538 529.02697754
268.06198120 230.85301208 479.75000000
146.26686096 105.22639465 418.28189087
146.11427307 139.94442749 480.13269043
300.59100342 234.19400024 422.37799072
89.64281464 193.01181030 449.96029663
80.26528931 198.11810303 501.14566040
107.08495331 230.54058838 433.08996582
246.52099609 254.52301025 520.44897461
267.96600342 194.25199890 409.90200806
247.54214478 266.59039307 534.16796875
186.02160645 128.20098877 435.60232544
272.38357544 283.13589478 481.14663696
222.01100159 215.80400085 406.22900391
175.59703064 107.59772491 424.94091797
184.04911804 133.17289734 405.01596069
135.43238831 262.49108887 408.01251221
187.15672302 277.15493774 423.84683228
115.22222137 120.74845886 438.98141479
189.75907898 261.59490967 405.46243286
216.14801025 189.88999939 424.59899902
179.69238281 174.33436584 471.74212646
154.85559082 193.02381897 362.26577759
128.52978516 260.15411377 454.57748413
196.91854858 287.01031494 445.64172363
99.07227325 256.18212891 506.78622437
119.32254791 113.40042877 413.65802002
189.56315613 210.09016418 458.46911621
188.56605530 203.33639526 477.31649780
176.67680359 152.93548584 456.90921021
179.90919495 196.34451294 377.87490845
163.01573181 150.91969299 470.24240112
137.26945496 145.94856262 379.06149292
183.23135376 228.77647400 495.66183472
233.70643616 274.76806641 422.01049805
161.01557922 165.16780090 477.55368042
181.60398865 237.55352783 385.64562988
88.48848724 178.64163208 439.85571289
194.65245056 243.03442383 393.06253052
134.17410278 268.37344360 490.80429077
262.76400757 247.75099182 410.59100342
147.42150879 195.10176086 507.91906738
241.13899231 231.16398621 406.05499268
297.42721558 270.59069824 468.51098633
232.72499084 219.98699951 477.70501709
221.43479919 250.29257202 468.72406006
303.20800781 267.92098999 501.40399170
148.29106140 169.32254028 492.13482666
85.29026031 193.36817932 475.57998657
217.57699585 264.17700195 410.01000977
162.03114319 273.64877319 485.92877197
199.74349976 290.07293701 497.66864014
269.61499023 207.91299438 446.44299316
190.44804382 212.62998962 389.51992798
197.96720886 291.22097778 474.38656616
126.65873718 197.41564941 516.31677246
147.03334045 260.32141113 497.39166260
226.30000305 241.73199463 506.76696777
128.53521729 123.51625061 464.92517090
160.77288818 129.27648926 390.61013794
133.13693237 165.45257568 373.38208008
135.96034241 213.13386536 361.74588013
285.86798096 242.85400391 461.88000488
124.04821777 187.19514465 368.39062500
104.14917755 245.20109558 521.42956543
137.03904724 217.63076782 522.93640137
281.25500488 257.38598633 418.70498657
311.38900757 259.54299927 457.27700806
172.53591919 205.69610596 502.12741089
184.08784485 258.97332764 499.48449707
94.13243103 231.59877014 527.04376221
279.21600342 230.34199524 413.42398071
230.82501221 207.49400330 415.38500977
209.49800110 239.76499939 485.25100708
223.68476868 294.02447510 510.76626587
234.02699280 246.53401184 406.19998169
125.88796234 203.19732666 362.85690308
157.93392944 166.24566650 373.80999756
234.68624878 271.34707642 536.89056396
152.87086487 275.28408813 463.14730835
225.86500549 194.86799622 452.55200195
101.36788177 146.42588806 487.12429810
128.72436523 265.33981323 467.50726318
245.52317810 288.88525391 464.39410400
128.93663025 252.97767639 515.53173828
191.34934998 187.50103760 451.64575195
295.89099121 257.21200562 479.16497803
274.85800171 272.43899536 429.17300415
208.44474792 291.84271240 516.18359375
167.52536011 245.30010986 385.17510986
91.09011078 156.71817017 419.84512329
130.80073547 230.46960449 371.44177246
283.71569824 275.93978882 458.48208618
123.59606934 134.60617065 489.23764038
263.83459473 289.07708740 499.66421509
151.82199097 207.23179626 514.29858398
196.12271118 168.25531006 399.08270264
243.65901184 204.43699646 455.28997803
196.73420715 239.71127319 497.25534058
257.76202393 198.27499390 417.76699829
106.41515350 174.61448669 514.51593018
225.32734680 295.07113647 482.38308716
110.49678802 166.99108887 378.75549316
110.52040100 200.64321899 520.92645264
158.74269104 257.42810059 496.08081055
189.84242249 273.79083252 482.47518921
185.51982117 283.50219727 473.04354858
128.24969482 174.60176086 504.03665161
302.08319092 218.51066589 414.85925293
237.11938477 295.19137573 513.16821289
95.20855713 211.27618408 449.33129883
147.51664734 110.42941284 406.21136475
205.76199341 217.34500122 471.04000854
243.32232666 292.30474854 491.79351807
275.71298218 240.94100952 487.20498657
93.44085693 245.13873291 498.78179932
120.41071320 242.49299622 521.68249512
283.62799072 225.16799927 439.98400879
103.51354980 136.63476562 462.33523560
91.22890472 156.84486389 443.44705200
216.20599365 228.68600464 469.30502319
228.94628906 287.12072754 442.81039429
208.09100342 199.99200439 458.78298950
290.20300293 207.34800720 408.62399292
113.02175140 268.66275024 488.76379395
86.70719147 169.95286560 496.68991089
146.51510620 271.62200928 421.93460083
145.49348450 110.42131042 447.34985352
167.43165588 247.91006470 499.14108276
92.26354980 193.13417053 401.73574829
273.34170532 281.04537964 467.01531982
222.59700012 261.46398926 527.77600098
183.44223022 162.87695312 389.07507324
155.08898926 233.09239197 374.62380981
85.36656952 216.47999573 489.62167358
173.40193176 178.56010437 481.84091187
112.78408051 241.47993469 436.21105957
107.08342743 193.92845154 380.50854492
99.03526306 211.20866394 410.11529541
183.66236877 163.13648987 456.67633057
261.56399536 272.34500122 425.14300537
113.74758911 211.00000000 369.56582642
207.59700012 204.29299927 424.53302002
87.71292877 173.62321472 471.69699097
95.28474426 203.78549194 424.48538208
129.17106628 247.89541626 390.71035767
252.65600586 236.56700134 502.82901001
299.25299072 272.01599121 512.49401855
114.73516083 243.03698730 407.82855225
208.62181091 288.32873535 443.33847046
247.66633606 286.99569702 537.47564697
98.06206512 136.01802063 416.97323608
88.68620300 190.77127075 525.87481689
212.39599609 194.35800171 447.66799927
210.08203125 293.30950928 491.25381470
152.03028870 274.50308228 476.33032227
90.73332214 229.56184387 486.06912231
277.25082397 281.84194946 526.59088135
215.14099121 227.20899963 403.70700073
167.18467712 121.96030426 402.23565674
175.23289490 276.08871460 422.35446167
113.61012268 130.46116638 390.44186401
115.22496033 142.49510193 384.51226807
234.28199768 224.01699829 489.36001587
293.38101196 215.02000427 425.47000122
289.35302734 235.96099854 418.47698975
199.62400818 229.19599915 398.60299683
142.96684265 233.65528870 519.46984863
179.59596252 216.89904785 489.53729248
170.00802612 206.93748474 448.40585327
140.88584900 152.67449951 488.66766357
194.53181458 195.54640198 436.42791748
186.08772278 182.25912476 466.40881348
125.80493164 113.60683441 439.52850342
212.31800842 234.70401001 458.13500977
200.06683350 251.64437866 400.37448120
110.00057983 233.05651855 413.71417236
210.39880371 277.52990723 424.99395752
280.58901978 232.67201233 453.11297607
251.04498291 225.04399109 408.66400146
157.93647766 122.46620178 461.74188232
170.67274475 141.80155945 455.94326782
157.18632507 104.08354187 425.44204712
292.60241699 276.41732788 483.51174927
217.68798828 196.99899292 466.70800781
166.16464233 186.63784790 368.96774292
168.80184937 114.23816681 445.57217407
284.05401611 266.20098877 517.81304932
87.76052856 210.21595764 477.31796265
139.49264526 237.46649170 375.93048096
96.86931610 145.53373718 398.56161499
160.78768921 186.83868408 498.08340454
291.48599243 248.14300537 452.61999512
159.54116821 262.81359863 400.97402954
110.25749207 248.63053894 470.59634399
140.86985779 175.88624573 499.08609009
265.99801636 212.63200378 457.57601929
114.38070679 123.97666168 452.24163818
121.15550995 262.13879395 509.77694702
103.03101349 223.47380066 393.13800049
143.50355530 254.42260742 508.65066528
234.66299438 213.38699341 468.24099731
244.48600769 202.84700012 413.88800049
204.73237610 247.45989990 456.91870117
82.62439728 187.30947876 489.19793701
272.50567627 276.50476074 441.26138306
195.91702271 184.72167969 396.11221313
87.96628571 165.37866211 483.41098022
313.66702271 233.87257385 424.86968994
105.38234711 264.69473267 500.31536865
118.05059052 232.53712463 379.68530273
244.32400513 199.81799316 437.39300537
104.01896667 249.08822632 480.23544312
250.04675293 277.76306152 430.09066772
101.14335632 134.88967896 400.80108643
219.08601379 231.74198914 492.43899536
148.86761475 146.91267395 379.45922852
272.62197876 204.00300598 434.23901367
147.29553223 170.77926636 370.64776611
285.30099487 256.31201172 500.25802612
90.27664185 168.05586243 400.05850220
199.70004272 174.93576050 427.60458374
125.21768951 114.13616943 401.48315430
296.19400024 260.66000366 425.01898193
167.20811462 277.50952148 438.47766113
247.96215820 282.01217651 440.04397583
189.55940247 281.98992920 437.88345337
145.71946716 120.98632812 391.50839233
160.87054443 156.55168152 378.94317627
297.51699829 234.78500366 438.66299438
100.44285583 163.92549133 511.04568481
182.02813721 143.17294312 397.95721436
179.34913635 129.47279358 444.78070068
179.70539856 201.68067932 453.71423340
197.10099792 199.07200623 462.39199829
293.34716797 272.21636963 441.11837769
102.49279785 222.14303589 411.13854980
89.68016052 168.44735718 461.08361816
258.01000977 226.21099854 484.93899536
122.38614655 162.36087036 375.88452148
229.30000305 290.83120728 455.47232056
116.72925568 156.33013916 503.56686401
179.44998169 224.40179443 382.22692871
97.37598419 180.76174927 388.28875732
175.03845215 235.53030396 498.28659058
282.73309326 280.31637573 485.82986450
101.75151062 219.35810852 433.13378906
80.84567261 215.17724609 521.54656982
270.40039062 278.99685669 536.56774902
166.56858826 209.18560791 367.95556641
231.84199524 220.95001221 406.06399536
205.82899475 222.60198975 453.60699463
97.39487457 230.42144775 473.91763306
214.88000488 183.60499573 448.54000854
249.74475098 289.86010742 480.12081909
126.19526672 258.12170410 414.96878052
154.71916199 141.71844482 471.48724365
196.42298889 216.65200806 398.53298950
165.53300476 230.52497864 502.26348877
257.23001099 253.18199158 516.88500977
219.30599976 236.79100037 449.22702026
97.56071472 142.67584229 442.80252075
186.30711365 147.38906860 443.01821899
244.63600159 254.81399536 406.74298096
89.19959259 180.35803223 408.42715454
109.29502106 235.44090271 444.83364868
187.10847473 124.60767365 411.16876221
105.80500031 129.23033142 439.34909058
81.95561981 209.75846863 497.57293701
114.66039276 185.46725464 374.14031982
185.10345459 284.91082764 449.09643555
93.91432953 154.10598755 479.93450928
265.72900391 241.80500793 499.90698242
190.78245544 186.91850281 411.29214478
151.03956604 274.52142334 451.22531128
194.21926880 275.89291382 516.82434082
93.80906677 161.34800720 501.82247925
172.84286499 250.84120178 394.04486084
305.23898315 225.08799744 426.01300049
273.40499878 205.41200256 408.56600952
256.23101807 237.57000732 408.70602417
189.89060974 144.28785706 405.41702271
219.34899902 248.18499756 511.97796631
185.57188416 188.10743713 384.67327881
174.26477051 281.04336548 449.51635742
234.73199463 203.83599854 432.34399414
149.72859192 257.83404541 398.97808838
240.06100464 268.81097412 416.38699341
160.18609619 112.18712616 406.93310547
126.46916199 259.34378052 434.49691772
110.33808899 263.56570435 509.79101562
78.88712311 200.44021606 513.13055420
310.53097534 251.08299255 440.12698364
253.09800720 291.60577393 497.16549683
139.68780518 245.22695923 384.46536255
271.51400757 224.64799500 464.78799438
155.05123901 272.89685059 416.27154541
228.94400024 195.58300781 435.93200684
189.76588440 206.82525635 468.48007202
136.44763184 122.53841400 471.77005005
218.64601135 241.10699463 403.64300537
135.73210144 112.24382019 443.94409180
87.84456635 234.19213867 506.96014404
236.98675537 291.56729126 469.71447754
229.02880859 280.34179688 428.35119629
162.09323120 278.39151001 459.84472656
126.22128296 141.15885925 382.37673950
198.07350159 287.57675171 513.25268555
190.52154541 168.12544250 442.84783936
219.25193787 285.58480835 536.69329834
123.91043091 120.72029877 393.25134277
278.03997803 196.42298889 415.22799683
206.89299011 207.91900635 405.89099121
89.34992218 171.07463074 423.70654297
134.16058350 106.28264618 421.60610962
279.99328613 283.83367920 507.67755127
283.06298828 273.14401245 435.92898560
191.89056396 188.03683472 437.60107422
170.84620667 111.10641479 410.24752808
92.21050262 200.58251953 441.85925293
192.73585510 153.62942505 437.04800415
207.38301086 263.16000366 519.82897949
175.87484741 278.24331665 473.39062500
163.03976440 201.25952148 450.58038330
136.68380737 134.16346741 485.33874512
85.46063995 182.62457275 476.29092407
170.02229309 151.66259766 385.22702026
126.86335754 269.61135864 497.75250244
149.56173706 117.23432159 464.66030884
237.54122925 291.83282471 529.71429443
208.29396057 277.75772095 532.26440430
90.14273834 235.57305908 495.94137573
279.01397705 239.32099915 475.44500732
101.05344391 149.86158752 389.96420288
83.41751099 178.65281677 511.25903320
148.70776367 184.67567444 364.49710083
134.85629272 228.58209229 522.67431641
191.48707581 131.94734192 427.79071045
258.22042847 266.50311279 532.96795654
117.94679260 192.53215027 516.01184082
120.07205200 251.99577332 453.46899414
95.28315735 204.04888916 402.20904541
214.84953308 293.19769287 466.04907227
103.57717896 231.76356506 461.55249023
201.24844360 291.75329590 486.17803955
95.28545380 150.66928101 467.82864380
104.92397308 147.80889893 496.60647583
249.87399292 199.70600891 445.92800903
190.53143311 269.81433105 412.70895386
302.88101196 243.16200256 426.58697510
210.64544678 269.65939331 412.43237305
133.55223083 255.02389526 400.57720947
157.54884338 246.36056519 492.12570190
184.92366028 204.72505188 381.81982422
91.61990356 192.83763123 424.55386353
156.77566528 248.16529846 385.34509277
197.33207703 161.58517456 406.35714722
263.33715820 285.30184937 475.38211060
93.66659546 147.00588989 420.37609863
87.83006287 192.57101440 461.04562378
270.10800171 252.50199890 509.86199951
184.14431763 208.20799255 483.95043945
151.78695679 220.26385498 365.70495605
107.04377747 228.67489624 422.22644043
170.00294495 181.97196960 450.57003784
225.18699646 267.92700195 415.30902100
217.78610229 293.50198364 519.08630371
250.27999878 211.47100830 409.25698853
130.98707581 209.88375854 519.65087891
176.28286743 170.30265808 381.24472046
108.65692902 232.69554138 392.04595947
192.19599915 270.83001709 504.98699951
247.33000183 294.49493408 514.28094482
98.53328705 250.26809692 514.95184326
171.74983215 200.31878662 458.06472778
124.97248077 165.78434753 500.60696411
99.33171082 223.18341064 528.08245850
287.22500610 218.75500488 432.42898560
134.88215637 132.63973999 384.82464600
268.07800293 256.26901245 413.04202271
93.74056244 214.00236511 460.54373169
133.11003113 269.84027100 477.31475830
185.57221985 136.27412415 441.42208862
211.23300171 242.53399658 465.11502075
219.47999573 197.78500366 419.70800781
109.77210236 120.25163269 413.75857544
176.43591309 205.22566223 374.93017578
117.04522705 248.83879089 430.21508789
116.57268524 248.48352051 418.96044922
290.97525024 273.50906372 452.78869629
288.53698730 248.64199829 471.86599731
266.70129395 288.11251831 521.78283691
261.58432007 279.54425049 444.58563232
134.93170166 154.99932861 376.16278076
264.22698975 217.37199402 408.77099609
190.71133423 191.94635010 393.18280029
151.17019653 255.32490540 490.69946289
170.03218079 194.32888794 499.57748413
101.19667816 203.14193726 388.46151733
156.62022400 266.56860352 491.99285889
170.79905701 109.01666260 435.24105835
116.38860321 222.44447327 371.34204102
150.92767334 138.54153442 383.91046143
200.27700806 272.66799927 524.26000977
152.28346252 235.89689636 515.74096680
210.12100220 250.88798523 403.86999512
277.42001343 266.68200684 421.83102417
244.32400513 216.36499023 473.62200928
306.83401489 267.61199951 443.70498657
284.92001343 246.71598816 418.61502075
184.65396118 222.28463745 485.98477173
197.72206116 158.52761841 416.29345703
134.18388367 222.14450073 364.45333862
214.86500549 206.19999695 466.49700928
213.13600159 235.62699890 475.46499634
183.45913696 197.65301514 484.41293335
266.12899780 238.77400208 411.42700195
159.55024719 239.04661560 381.09451294
258.23599243 266.35699463 415.82998657
98.02053833 192.51286316 523.41802979
94.56927490 240.17691040 521.37322998
175.90748596 128.86531067 402.04736328
91.45648193 160.05795288 456.74624634
116.39371490 219.38941956 525.65643311
308.20001221 255.42100525 448.33599854
168.67262268 151.30793762 462.60620117
256.98098755 219.64801025 474.40402222
296.88098145 225.39801025 421.41198730
189.29629517 279.69296265 492.86587524
174.82513428 255.54940796 500.06735229
225.43170166 269.40097046 534.39312744
263.14801025 201.08500671 444.86999512
91.78463745 215.11936951 469.76013184
157.94778442 201.98185730 363.64373779
140.81005859 269.63449097 429.74441528
258.12179565 284.91677856 537.77703857
91.74021912 154.69033813 409.43927002
181.64526367 258.31314087 401.11343384
152.81687927 166.19841003 484.41195679
182.56272888 114.00649261 416.50582886
294.73300171 276.89700317 505.36102295
180.16886902 278.29986572 431.25604248
94.83052826 210.18917847 528.72601318
163.66053772 137.68377686 387.24633789
187.22146606 238.00401306 500.23840332
100.16498566 238.89173889 478.43258667
229.49501038 256.77697754 522.55895996
124.32329559 142.51765442 494.35949707
292.81100464 269.30001831 519.21398926
102.81004333 215.70321655 385.76287842
151.98994446 107.51055145 440.93997192
114.12944794 243.48605347 446.25866699
304.69998169 266.07800293 464.17700195
232.41392517 294.31634521 490.02178955
170.54360962 168.45251465 475.34616089
213.48699951 222.81900024 476.05700684
277.33099365 218.80699158 444.34197998
235.47000122 235.76599121 503.14599609
282.94799805 249.79600525 493.54800415
149.35974121 251.39033508 390.36831665
253.62101746 285.30728149 458.47015381
147.58364868 203.31967163 359.51037598
186.80403137 203.25231934 461.51202393
203.06100464 231.11300659 484.88598633
136.51800537 267.44906616 461.54467773
171.75503540 268.13900757 406.71145630
119.16497040 260.44277954 473.93920898
250.99598694 243.41600037 509.09698486
104.20244598 126.98279572 418.97491455
196.00169373 150.14154053 427.09341431
219.65727234 294.08404541 497.59548950
203.95240784 176.41282654 413.60671997
205.28042603 242.06486511 492.79965210
108.91458130 125.89141846 397.62756348
90.31278992 188.81359863 411.98278809
87.64637756 199.46603394 469.07232666
178.70785522 269.13473511 492.79772949
197.76899719 260.58700562 503.96002197
305.75201416 256.66799927 463.99200439
198.80299377 204.29499817 418.87301636
268.43499756 261.60699463 522.57299805
250.04714966 273.78997803 541.92987061
119.71730042 116.05284119 432.37646484
245.73298645 259.00000000 528.45501709
138.72946167 249.29331970 514.52050781
143.60615540 114.98093414 399.24752808
260.34143066 291.35202026 507.43453979
201.13299561 212.27299500 464.93301392
283.74200439 213.44400024 410.96499634
141.84204102 130.22357178 477.75827026
139.86314392 266.91027832 484.09173584
215.70199585 184.74400330 432.83700562
283.78909302 282.28186035 520.80364990
108.18489838 130.63362122 457.14694214
166.89094543 104.75721741 425.46429443
300.20529175 270.42156982 477.56939697
171.54074097 222.92214966 376.73822021
304.35101318 228.25000000 416.53900146
89.07270050 199.83183289 528.27526855
195.83399963 207.92399597 401.14999390
154.15574646 105.70651245 412.68572998
234.80500793 205.85200500 453.58499146
191.34887695 198.77330017 401.58343506
89.05966949 182.94052124 430.77896118
210.64999390 247.40399170 507.17800903
206.81500244 228.14300537 461.16998291
168.77857971 278.40405273 479.29837036
130.71408081 191.54385376 363.64733887
114.78568268 175.77386475 511.60211182
160.00466919 269.49435425 407.87792969
109.09494019 136.67604065 472.31082153
179.01562500 188.07417297 483.90701294
164.68342590 118.25761414 452.61471558
188.85809326 170.54441833 391.12173462
91.65952301 201.56469727 452.06976318
186.24763489 214.62144470 463.74377441
278.63198853 255.10000610 508.60000610
255.42428589 290.82449341 525.37915039
303.24200439 243.51400757 439.48300171
177.60319519 209.95622253 496.35491943
218.32098389 294.91726685 488.14257812
122.35793304 123.56954956 458.42108154
166.59400940 275.86663818 429.51470947
238.08280945 286.03573608 444.00204468
213.51100159 195.76100159 430.99099731
95.55966949 171.58271790 515.83660889
88.01983643 179.99462891 448.75268555
227.29463196 278.29446411 540.58734131
234.91145325 295.52090454 522.12451172
258.73898315 198.33099365 428.65600586
121.99817657 127.78508759 469.38421631
235.02537537 293.48190308 505.02401733
243.45100403 248.79400635 514.33099365
109.41337585 242.36125183 464.22137451
306.10900879 260.70098877 480.20300293
105.47650909 207.72337341 523.12353516
208.39695740 290.99465942 451.77548218
155.13905334 132.13117981 468.09378052
195.20877075 140.74841309 413.42733765
143.09140015 213.05876160 518.41058350
239.32479858 285.21218872 540.92938232
189.46542358 160.57778931 395.08810425
191.55873108 176.69778442 447.82662964
88.68383026 169.42263794 440.96005249
256.55902100 208.55599976 460.63800049
94.37644958 186.92114258 394.41900635
141.58979797 268.37911987 445.08215332
158.24037170 275.68383789 441.24606323
82.75981140 219.22018433 501.68435669
196.20184326 259.48757935 401.98931885
294.58697510 213.87800598 414.33599854
160.79084778 240.30026245 497.78875732
164.32984924 130.57044983 457.73153687
97.97806549 158.09182739 389.80792236
136.23796082 196.69018555 513.10516357
192.28727722 192.80662537 423.91632080
79.38935852 192.18984985 508.95858765
202.35879517 268.16665649 410.80047607
137.70169067 123.71954346 389.14193726
157.91810608 221.60240173 513.49517822
247.21600342 265.27600098 412.69400024
149.45527649 105.86716461 432.51745605
299.06600952 273.87197876 491.49002075
84.29853058 225.82727051 507.31234741
201.05299377 201.26501465 432.10800171
165.61291504 170.83879089 374.91058350
120.82762146 250.53868103 518.20495605
266.40390015 286.52465820 491.15710449
115.41476440 156.66760254 379.84457397
110.18592834 236.79544067 399.88916016
234.25500488 244.44400024 510.23196411
310.54400635 259.38497925 434.00601196
110.25551605 139.44296265 486.28823853
129.08648682 174.22099304 371.08731079
207.97898865 255.70300293 514.52899170
182.44808960 172.41651917 463.57992554
108.78514099 261.76574707 485.24459839
234.11401367 237.86399841 406.04202271
98.88467407 142.97227478 455.51330566
134.78825378 264.49313354 450.08914185
252.51913452 287.98782349 472.59280396
89.79524231 163.11459351 407.19491577
174.52813721 120.56768799 444.71997070
237.84199524 202.13299561 420.80102539
199.36285400 166.22671509 423.20541382
265.51113892 270.88986206 532.15032959
152.47656250 128.41578674 388.13973999
191.31811523 251.74185181 396.21267700
208.90122986 282.14163208 431.64279175
211.33799744 259.50802612 406.33200073
178.49314880 164.92787170 464.53674316
198.32066345 290.31063843 456.40408325
299.92898560 260.74902344 486.56698608
141.95942688 269.22286987 414.81588745
195.57362366 152.53327942 409.31521606
106.11667633 232.68910217 452.12234497
195.47148132 168.02076721 435.59213257
126.30538940 109.40708923 416.34103394
225.37800598 261.11798096 408.60699463
203.55400085 200.15899658 444.12197876
145.41593933 213.95610046 362.08111572
119.90013123 246.31060791 398.65692139
117.92813110 148.40014648 500.59252930
201.81288147 171.17286682 404.85546875
101.29845428 181.94963074 519.57781982
91.94728851 153.45323181 434.70397949
85.63233185 224.80566406 524.97717285
180.27255249 245.37409973 388.90423584
213.84724426 250.60484314 461.44494629
249.71499634 226.09100342 488.76602173
289.56137085 273.98309326 464.42178345
264.01699829 224.29899597 474.86001587
200.64675903 277.31600952 425.58703613
121.66519928 210.22590637 364.75286865
225.52799988 226.58799744 488.26901245
204.92726135 290.56134033 506.11560059
180.89474487 211.78326416 456.10873413
142.69252014 163.19694519 492.30551147
178.80876160 185.18359375 378.79403687
159.33067322 110.01702118 447.58883667
190.79949951 246.32914734 500.35314941
134.61444092 156.35174561 492.95654297
137.45362854 173.09638977 369.75598145
157.08351135 180.05749512 494.42919922
154.13633728 245.06167603 509.25570679
103.94926453 162.48197937 383.21478271
277.39099121 200.80400085 422.33499146
166.25895691 206.33161926 507.26473999
104.93431091 257.45812988 515.22375488
101.16064453 136.16693115 438.95053101
194.98962402 141.97921753 424.57757568
141.22103882 258.63110352 401.61788940
196.18492126 222.87637329 481.07977295
140.83253479 138.84411621 381.47851562
170.38830566 215.48294067 372.26437378
193.52299500 219.52296448 463.12466431
285.89300537 242.01100159 453.29602051
192.51148987 285.37222290 499.26693726
278.61099243 207.08100891 429.36502075
160.41337585 277.26150513 478.31439209
206.05599976 207.09500122 415.96099854
98.97580719 217.03863525 444.71069336
87.70074463 175.13365173 455.49063110
121.30744171 238.89378357 384.36221313
221.48600769 224.06700134 473.90899658
231.54299927 213.23500061 409.08898926
173.80102539 144.15768433 389.87173462
292.71701050 277.41598511 520.90002441
223.10798645 191.76499939 428.69201660
193.64627075 179.77940369 431.33358765
151.30401611 253.17361450 503.78353882
127.12014008 216.35667419 523.19641113
281.32492065 275.39559937 531.47027588
97.93922424 138.03430176 425.04684448
196.40499878 204.38699341 471.14398193
110.32131195 216.79931641 374.35690308
224.25801086 208.13800049 467.99700928
101.84816742 187.63819885 385.51123047
209.84300232 241.87600708 454.60900879
100.97863007 219.04945374 402.08410645
172.14122009 106.68321228 417.11779785
217.98287964 279.88995361 428.07891846
155.34481812 201.38275146 509.54473877
182.40548706 213.20924377 469.19155884
163.70957947 225.32580566 508.19064331
185.21852112 218.27674866 383.95773315
125.00068665 233.91816711 522.32165527
189.05918884 195.32656860 474.06814575
191.62528992 231.90196228 493.83251953
154.07929993 150.22831726 475.22994995
124.60579681 259.93374634 462.70825195
89.40306091 188.82565308 441.61679077
286.29818726 281.60388184 503.75390625
100.95278168 236.94613647 525.42828369
294.38000488 269.70199585 432.42800903
241.82699585 202.19000244 447.34500122
230.91964722 291.85577393 463.93759155
204.82936096 289.01071167 523.10858154
295.60800171 240.69400024 422.30700684
133.09043884 109.39189911 433.96759033
272.33801270 226.53199768 411.17797852
146.95867920 195.53269958 361.78179932
139.01890564 205.27005005 360.77929688
192.30303955 199.78944397 416.97970581
281.68499756 239.03700256 416.52700806
285.04367065 281.38360596 493.81777954
154.99836731 160.07452393 477.80307007
294.51098633 262.73501587 500.58901978
226.90299988 194.34100342 443.74401855
253.70201111 202.65699768 412.19601440
134.36004639 256.88586426 510.65826416
83.82454681 178.16157532 493.62750244
213.59999084 191.46299744 440.12899780
102.97161865 172.38723755 382.72064209
124.09613800 269.67337036 488.56362915
200.56964111 234.14004517 490.92721558
254.90600586 248.69898987 408.67199707
82.50614929 195.90682983 524.47595215
311.15100098 245.90800476 433.87899780
300.63699341 253.27798462 452.86398315
216.01199341 265.52700806 530.28704834
253.41209412 280.35144043 545.58715820
94.20848846 149.75865173 446.04901123
190.18174744 288.22921753 468.71853638
81.44605255 218.75827026 514.27209473
178.10847473 195.00230408 491.19821167
192.83145142 235.02804565 392.44296265
310.66098022 264.54898071 450.17300415
216.58998108 288.21127319 442.63760376
132.35847473 115.99443817 450.37911987
176.18804932 199.97904968 497.67129517
93.44700623 170.38264465 392.89898682
85.70875549 174.00537109 504.91577148
267.25976562 289.20571899 511.53683472
270.85845947 193.45797729 417.46829224
145.23771667 147.98223877 481.35726929
286.02279663 201.21752930 411.85461426
278.01605225 279.96487427 476.77920532
242.52900696 223.40899658 408.75302124
148.42880249 132.97560120 472.96060181
306.27700806 230.94099426 432.11599731
263.07843018 282.29333496 457.30648804
288.70599365 253.25599670 488.81097412
126.68054962 259.22589111 442.86660767
81.94966888 196.41255188 493.44644165
173.18496704 194.12519836 372.49545288
193.62907410 267.56796265 484.33023071
303.09570312 259.14163208 429.42749023
189.69345093 184.43685913 460.14572144
145.29705811 272.16931152 462.74197388
216.60600281 210.02299500 407.67401123
223.59199524 223.68099976 406.25399780
242.30448914 271.76925659 538.45880127
221.39938354 292.63674927 461.44784546
240.16900635 221.47099304 481.56198120
223.28298950 252.23800659 517.67303467
141.30935669 264.98287964 492.55871582
98.79188538 248.50134277 489.04901123
256.26998901 218.25698853 408.63601685
116.22419739 266.91278076 481.07046509
223.35099792 199.00999451 460.96600342
206.19500732 292.82345581 472.23861694
197.53507996 179.72578430 409.88082886
288.83599854 256.43600464 420.98001099
213.25000000 225.80899048 457.08798218
169.74012756 229.02619934 496.95028687
273.26397705 235.60699463 413.14300537
289.56402588 230.36700439 439.01300049
248.44599915 235.96000671 408.77301025
107.45858765 126.68714142 431.84503174
142.79562378 224.16947937 521.42559814
165.94090271 172.12506104 480.80218506
112.66396332 241.26786804 521.69830322
167.38424683 181.64089966 490.36203003
291.85568237 274.04406738 473.17861938
235.83665466 276.90414429 542.37847900
145.49263000 233.75271606 372.32397461
219.23600769 230.47399902 454.88000488
120.12749481 201.14945984 518.42590332
252.77304077 260.92468262 531.21173096
221.55200195 237.93099976 501.72598267
277.79299927 266.84201050 522.58496094
269.09994507 276.07745361 434.51296997
146.99765015 112.48879242 454.86184692
167.03707886 168.70402527 439.70004272
266.47399902 199.99800110 437.13000488
122.61886597 131.47560120 482.02047729
298.03097534 271.49990845 447.33035278
135.86380005 266.96743774 498.59060669
246.07640076 284.76080322 446.71722412
178.45176697 112.38867188 430.49584961
134.12686157 266.03228760 431.59954834
157.37351990 277.26391602 469.67422485
163.01342773 144.28321838 465.73236084
99.54432678 143.17755127 464.15679932
97.98078918 138.68394470 409.28399658
238.81599426 253.81600952 521.72900391
135.62550354 180.25177002 502.96295166
161.84210205 193.75900269 366.43273926
183.89053345 156.36462402 452.34149170
127.76859283 265.20794678 504.21710205
292.80099487 243.40100098 443.96499634
167.76641846 216.66802979 503.40109253
298.73498535 255.38700867 469.97897339
177.07589722 232.51190186 381.52569580
271.63601685 229.08300781 473.03701782
233.22300720 254.43598938 405.94799805
277.00085449 277.00302124 448.88311768
169.52091980 129.67436218 396.00112915
270.86898804 218.88800049 459.31698608
179.82664490 181.68510437 477.24810791
231.34562683 294.03073120 476.61669922
85.69805145 184.47453308 522.35949707
208.54843140 273.84442139 418.68051147
272.30599976 214.27799988 450.01599121
211.18701172 233.16999817 449.98498535
286.59899902 229.06098938 416.21099854
244.11399841 275.44400024 426.14599609
144.84693909 268.89608765 478.21801758
130.04902649 182.37001038 367.54629517
160.09440613 214.40962219 366.58700562
272.76599121 243.54000854 495.43698120
145.06361389 202.11210632 513.32238770
97.73564148 253.55189514 499.59167480
155.13642883 172.45915222 488.69897461
173.61933899 240.52525330 384.82077026
107.91806030 163.16514587 509.26190186
165.96003723 160.56564331 472.82882690
137.96557617 188.72338867 363.18484497
165.31307983 200.45098877 444.28274536
153.67753601 153.01205444 378.10186768
144.19995117 184.79927063 504.24813843
140.83416748 165.04054260 372.15484619
221.16699219 188.48100281 454.01998901
190.07542419 124.35041046 420.54956055
212.31900024 214.45399475 473.85299683
262.27798462 199.32598877 410.95297241
154.41667175 228.00723267 516.16528320
222.17799377 228.84899902 446.93402100
160.89939880 238.08274841 504.96179199
275.03799438 194.86300659 406.84802246
222.81999207 204.61000061 417.06201172
152.23115540 189.82687378 503.00909424
215.69000244 232.62199402 484.16299438
112.81278229 209.36349487 522.83496094
169.82662964 134.30812073 454.10540771
187.55506897 219.51162720 477.32333374
97.62384796 210.45652771 417.65457153
222.89909363 291.42544556 530.41265869
260.64898682 256.72998047 411.14599609
284.72799683 259.39599609 510.30300903
241.72698975 239.21400452 406.86398315
199.52499390 221.37400818 472.82901001
118.21212006 229.80090332 524.03375244
298.71099854 221.38800049 427.63098145
183.44406128 230.11962891 386.21328735
250.12100220 201.13800049 419.79101562
131.78720093 119.15592194 457.34704590
264.97097778 254.61700439 515.05700684
127.82780457 185.00965881 508.92208862
232.59199524 266.67599487 414.13500977
209.09098816 226.25799561 470.39099121
108.85489655 225.39401245 525.61810303
115.15512848 246.51329041 455.97244263
178.62388611 136.10108948 399.51657104
193.33692932 177.96762085 392.97674561
203.26203918 246.85685730 498.14358521
241.46301270 209.80699158 463.25799561
168.33654785 280.11312866 456.64202881
120.22087097 172.90112305 507.22128296
213.21398926 234.24899292 401.73501587
110.64396667 149.61680603 502.18499756
202.05526733 285.98046875 440.47525024
87.80264282 187.71429443 455.01989746
112.04718781 174.32656860 377.58029175
164.03929138 163.32901001 377.25512695
88.43278503 176.35728455 414.87832642
242.00062561 294.92706299 519.88000488
192.04196167 287.57263184 451.05929565
200.22795105 243.17681885 397.78735352
203.44898987 200.05700684 452.72000122
94.63552856 222.15870667 470.20394897
142.67018127 264.89984131 406.57882690
187.28224182 270.36541748 487.02508545
112.33432007 240.50497437 415.48171997
169.27291870 278.90618896 464.69754028
300.83700562 264.71200562 495.04000854
279.40554810 278.18737793 464.04412842
145.10548401 177.19692993 367.62115479
191.79847717 184.99938965 442.98889160
86.67028809 209.91249084 529.32226562
181.49722290 125.84098816 406.37347412
267.79800415 238.77899170 492.49499512
117.13806915 248.15751648 439.00958252
129.46907043 256.43136597 406.65509033
101.38908386 225.36584473 455.53713989
113.06058502 248.90838623 519.23205566
97.56581879 210.02932739 428.83209229
105.02281189 195.88735962 522.29931641
153.42460632 215.88188171 515.06719971
163.04293823 265.06451416 495.78552246
278.42001343 222.09599304 411.39599609
115.24980927 254.16928101 470.01254272
213.45700073 236.57899475 491.98498535
297.33917236 270.33853149 459.79739380
270.95285034 283.96075439 529.62939453
183.12286377 121.77059174 433.31304932
180.66668701 147.80291748 451.18719482
169.52360535 270.23736572 491.96685791
281.45901489 206.14999390 408.66198730
202.39999390 217.64900208 459.60998535
107.61947632 139.57115173 479.04016113
250.88713074 290.83020020 490.31509399
213.66099548 216.72700500 403.63299561
140.72407532 143.20420837 486.20501709
81.62858582 188.98832703 496.34225464
112.06587219 193.11352539 374.99429321
175.19544983 273.74545288 415.15719604
89.75498199 236.14398193 517.46881104
127.33729553 156.96615601 376.50363159
95.69203186 249.62341309 507.17626953
188.06336975 242.63247681 389.99371338
270.57397461 286.27529907 501.34707642
251.91598511 230.42201233 494.72998047
228.74420166 263.69915771 531.33630371
114.74669647 182.79286194 514.83532715
149.08045959 273.58038330 469.16836548
134.65643311 113.14402771 400.81582642
241.55500793 247.99099731 406.23797607
273.33300781 260.07101440 416.48400879
251.17901611 199.67601013 429.14999390
183.55986023 263.47372437 406.42413330
274.54598999 253.11198425 414.45498657
212.70323181 271.72543335 532.70910645
208.25000000 228.89801025 401.09698486
115.27838898 132.78424072 472.58102417
264.61700439 265.78097534 527.42498779
106.29273987 229.72947693 441.19830322
157.14721680 186.70388794 364.86584473
86.46561432 190.25184631 469.04714966
88.73214722 165.23551941 476.11312866
123.60383606 194.14288330 366.15332031
282.03601074 245.82099915 487.40197754
142.15908813 105.67904663 412.26434326
227.94500732 243.50500488 403.52301025
243.49099731 234.56799316 500.57000732
142.09779358 105.96125031 427.14764404
219.92399597 238.23500061 456.35101318
173.84091187 244.68800354 498.59494019
127.39056396 110.05127716 407.59707642
154.06727600 122.74904633 392.43273926
140.83862305 268.58569336 437.05239868
182.31445312 252.38647461 502.18933105
182.50637817 284.26147461 464.43359375
172.93504333 157.57986450 461.42111206
156.03706360 225.00382996 369.54687500
256.80700684 212.82101440 466.51599121
90.51829529 186.80850220 404.96469116
167.67358398 257.15783691 500.48858643
192.21212769 288.64773560 478.01367188
192.56985474 185.68661499 403.63885498
121.09729004 252.92098999 413.89035034
283.43798828 240.63000488 468.33200073
129.57518005 147.96844482 494.08609009
211.48399353 244.38999939 400.97497559
143.99284363 261.11987305 503.79461670
126.44316101 260.21850586 422.22143555
138.03556824 230.61657715 370.17208862
191.53546143 187.07763672 429.73629761
180.71116638 284.05401611 454.30050659
159.48109436 171.07913208 482.99780273
110.52469635 236.98480225 407.16168213
167.34576416 254.99847412 395.30270386
270.96099854 269.62200928 423.07998657
266.92395020 281.97552490 463.35864258
276.77099609 230.26399231 460.90899658
151.37879944 272.07394409 434.06750488
117.43714905 167.53210449 375.86334229
283.13897705 230.52301025 444.75100708
290.38302612 210.59001160 420.67300415
254.11700439 257.20999146 522.21099854
186.42343140 165.01243591 450.38027954
212.04605103 282.76852417 535.40020752
192.98350525 204.43334961 395.12768555
109.07698059 186.90855408 378.51593018
130.93145752 135.35603333 489.46301270
88.48326111 171.33686829 406.64074707
274.50299072 237.61300659 480.72900391
235.94366455 289.93063354 458.16055298
123.77220917 228.85011292 372.33090210
147.26837158 159.55992126 485.40390015
125.49190521 267.12982178 473.48678589
164.69691467 228.06704712 375.86431885
130.73342896 125.32131195 388.79638672
116.21834564 124.04703522 393.72372437
125.98110962 250.10687256 396.73153687
228.26600647 217.51899719 472.69601440
120.75566101 253.28761292 434.62637329
166.49607849 144.74488831 385.62442017
184.74513245 152.68260193 394.35192871
92.77114105 185.29891968 523.65698242
159.61094666 207.81735229 510.67190552
146.49897766 260.67633057 489.97186279
153.55125427 250.42283630 495.83602905
177.38069153 224.86950684 493.17419434
190.28501892 274.01599121 418.71331787
140.59474182 118.86089325 467.19412231
240.89523315 264.70324707 533.42498779
276.09326172 282.62969971 487.40457153
276.74337769 278.05325317 457.49832153
307.45199585 232.54499817 421.45700073
127.51355743 259.09918213 510.87738037
97.61912537 201.79002380 394.55230713
172.81707764 277.62426758 433.50384521
130.63836670 269.53494263 483.81677246
181.08345032 177.23352051 382.73916626
192.00157166 135.02656555 410.53649902
218.17352295 294.15631104 475.22164917
228.72367859 284.14483643 433.98498535
175.65992737 156.14004517 386.30740356
121.41783905 256.98159790 514.65826416
202.55357361 172.38888550 420.44625854
189.61608887 141.40879822 438.51846313
191.64186096 193.86837769 460.90795898
241.82099915 261.66098022 409.89599609
290.50399780 252.63500977 479.24899292
228.79899597 203.64799500 420.95898438
148.27117920 177.04937744 496.79071045
136.15963745 248.69847107 389.67410278
141.11894226 192.97665405 509.48745728
117.78980255 192.18663025 370.55545044
278.96499634 225.09400940 448.65899658
206.50799561 230.06401062 454.38198853
141.98443604 242.23443604 517.80126953
162.72775269 178.98641968 370.70697021
131.67477417 262.72378540 413.92880249
98.26548767 216.23731995 527.42279053
128.49407959 191.19839478 513.32110596
264.25299072 207.51699829 453.07400513
97.33685303 154.34555054 495.54861450
224.31500244 210.10200500 409.62600708
90.13458252 207.77227783 467.67825317
195.85177612 266.84634399 409.32629395
156.38294983 135.02122498 386.47442627
97.60442352 148.54095459 477.64392090
111.52497101 204.39341736 372.62112427
97.15767670 218.00158691 455.97341919
214.03199768 203.71099854 421.58697510
213.86599731 249.07701111 468.73999023
191.84033203 253.86494446 501.35290527
129.10112000 147.52951050 379.77737427
172.04400635 208.75338745 454.86410522
118.28577423 203.51765442 366.77639771
106.44703674 201.79193115 379.56683350
268.73300171 234.61300659 485.59298706
214.24859619 292.83709717 509.77194214
107.14815521 265.29516602 493.59857178
128.07521057 160.52458191 497.03118896
218.72299194 243.15499878 507.19702148
152.91265869 161.42657471 375.42147827
226.45199585 252.82099915 406.11999512
217.14599609 183.84001160 441.96200562
274.06701660 209.13800049 439.86898804
194.21681213 279.96078491 430.59890747
269.53399658 244.82899475 411.71099854
242.29428101 292.42776489 498.35485840
196.88665771 155.90231323 423.47085571
237.73899841 204.31600952 413.19799805
116.63505554 115.30664825 407.54089355
87.62396240 174.05937195 514.30731201
80.96482849 185.10133362 510.54632568
84.09323883 192.44927979 482.34994507
114.58502197 226.97984314 376.27774048
258.50900269 240.24699402 502.41400146
248.16667175 286.02410889 454.20028687
108.40891266 128.43664551 450.14938354
229.56353760 291.02557373 531.62756348
197.93402100 287.79885864 506.20806885
121.51304626 243.28263855 390.39688110
78.64622498 206.77400208 516.77038574
89.84651184 164.22161865 422.99615479
132.93360901 172.00692749 499.74279785
128.22320557 245.27912903 518.60479736
208.12373352 292.37509155 497.75225830
88.92838287 176.09716797 431.61874390
226.03268433 272.90939331 420.70761108
165.63758850 108.77884674 440.44143677
219.62899780 232.47100830 403.51501465
194.09500122 270.54199219 513.09503174
245.09934998 289.73855591 470.93969727
115.07217407 150.07537842 381.85964966
299.36590576 251.25422668 425.90209961
86.73947144 168.62318420 489.38345337
184.86674500 278.38076782 477.23937988
94.37750244 234.83648682 483.57568359
182.17846680 209.56108093 490.02560425
188.00808716 188.66290283 469.15783691
230.32931519 294.94821167 514.18249512
188.00665283 125.76398468 429.46166992
282.19198608 237.06700134 461.83300781
91.44754791 152.17317200 424.99114990
211.91200256 196.01200867 454.29699707
305.07699585 265.92199707 475.86599731
190.55082703 195.67338562 416.30664062
233.77400208 209.22599792 461.26101685
241.07499695 224.58399963 489.91201782
104.22191620 224.42938232 429.26947021
109.65991211 120.58015442 406.90228271
300.27600098 272.45199585 505.59402466
128.55648804 224.82261658 367.34771729
173.04573059 183.23612976 487.13119507
164.96144104 248.26332092 390.85321045
175.67071533 132.47734070 449.75683594
210.93598938 200.75300598 467.68298340
254.33209229 287.92315674 532.92205811
99.18135071 228.87063599 467.55993652
143.04733276 150.25675964 378.49957275
80.00531769 205.86839294 506.70635986
121.03210449 113.64184570 425.54605103
177.78218079 164.69297791 384.51562500
251.99099731 215.85301208 471.80899048
223.39509583 276.65872192 424.51205444
207.97200012 209.24900818 466.98999023
228.23875427 293.69543457 505.69451904
105.17528534 131.87852478 396.24133301
108.20310211 147.76956177 385.33407593
133.62702942 269.41540527 470.10693359
181.50498962 125.07395172 439.53921509
110.08917236 235.12237549 426.36038208
113.79801178 247.31236267 462.72970581
203.94599915 247.15800476 401.69598389
268.01101685 246.90599060 503.71401978
190.78834534 137.07183838 432.86557007
173.90106201 187.37442017 374.67639160
235.89100647 230.28799438 496.05798340
201.33200073 260.08401489 512.57299805
162.44018555 122.75988770 397.51495361
268.58688354 277.97970581 446.05548096
91.60346985 157.98799133 450.28109741
150.12417603 237.14366150 376.73727417
255.35801697 248.03599548 512.84497070
280.47299194 242.08700562 481.41598511
191.38932800 185.79513550 390.34460449
186.54731750 195.11657715 479.40777588
90.17274475 162.74343872 492.46789551
228.69500732 200.28700256 457.08502197
117.21064758 135.05072021 485.64300537
309.01199341 220.61399841 414.64801025
81.73593140 202.59770203 496.09310913
184.34797668 210.69676208 475.27236938
86.99622345 224.78836060 491.06793213
166.03509521 263.33050537 402.83029175
211.23400879 233.47399902 469.40402222
176.83645630 111.53292084 413.24346924
132.74514771 236.69152832 376.33850098
106.41670227 227.59306335 388.25753784
85.76477051 199.84913635 477.23538208
256.90902710 200.34700012 447.13101196
229.80999756 223.48699951 484.19201660
282.45162964 284.07742310 514.09472656
132.00427246 221.97233582 522.45446777
159.93331909 172.61637878 371.87768555
169.81936646 274.90069580 486.01678467
211.14009094 294.01126099 484.44027710
262.78875732 281.02166748 540.61157227
228.37300110 247.35101318 512.18499756
305.99902344 235.51599121 427.28601074
161.17744446 117.93359375 402.88113403
95.92341614 205.81086731 412.53845215
266.70700073 211.20298767 408.57601929
216.71412659 269.37435913 414.29989624
251.43510437 293.33938599 520.67626953
308.08724976 265.84136963 437.27841187
122.03198242 159.85104370 500.42211914
187.91940308 279.42559814 431.50946045
231.49499512 228.72700500 406.15600586
209.34001160 201.58900452 430.33200073
195.75468445 283.11889648 436.83956909
242.77799988 209.06298828 409.12899780
249.71899414 250.37199402 515.74896240
221.52200317 192.66900635 460.48199463
194.75396729 223.70239258 396.27444458
204.22549438 281.29144287 528.44952393
117.03144836 120.85475159 446.98873901
212.19688416 284.90176392 436.60122681
152.11965942 124.40695190 467.96038818
182.19381714 113.34499359 423.37619019
182.05859375 274.48519897 480.23266602
302.33300781 258.08297729 475.47900391
193.77955627 282.87145996 513.29809570
92.64671326 208.09437561 456.22421265
154.44955444 104.09339142 419.07537842
154.80772400 269.73284912 486.43505859
245.11894226 280.95388794 434.49490356
166.85464478 188.74642944 497.54565430
105.94325256 216.57731628 379.99945068
202.15600586 201.69599915 465.62701416
198.84082031 168.56854248 430.02236938
269.32147217 283.22122192 473.99707031
169.20495605 117.24567413 406.27636719
225.11309814 289.40679932 449.29180908
102.98471069 261.53866577 505.49649048
139.82391357 111.30467987 404.31808472
203.29100037 211.52999878 401.82800293
113.66107941 243.21134949 429.75546265
300.23699951 273.73300171 497.89599609
150.32946777 228.55407715 369.93023682
133.36669922 141.04968262 381.13339233
96.48395538 149.00257874 460.38247681
252.35160828 287.24316406 466.36239624
217.20300293 229.77900696 476.41598511
211.16516113 292.43707275 457.43875122
93.67932129 203.57441711 436.27328491
186.63806152 147.36027527 400.23019409
114.39931488 241.78790283 399.44818115
197.07449341 175.14944458 397.17977905
181.78073120 264.57287598 496.69274902
89.85353851 223.43386841 482.91357422
212.90199280 261.74398804 522.91998291
122.38661194 181.33526611 370.76623535
140.00172424 113.55904388 451.53378296
102.07001495 230.87184143 527.43969727
269.75302124 219.44700623 411.43701172
285.11288452 277.95407104 478.20428467
220.39181519 293.68579102 503.88491821
216.20300293 198.24301147 425.27301025
173.85517883 215.14984131 498.44900513
249.80198669 218.03199768 408.65200806
95.55211639 141.94300842 416.34213257
167.01696777 275.04360962 420.95037842
253.61674500 270.60903931 537.66650391
163.70458984 124.46678162 455.66384888
147.81320190 164.33676147 372.81631470
201.04299927 223.17401123 400.43301392
151.31187439 273.74496460 444.90777588
112.87850952 136.32945251 387.87792969
284.79199219 213.09100342 430.56399536
94.30635834 149.48385620 402.95803833
264.91998291 194.71899414 419.66500854
255.11807251 279.78475952 437.74816895
90.94071960 159.79966736 484.50659180
289.91699219 247.80400085 461.25900269
114.64277649 119.95534515 432.00149536
181.66325378 170.98200989 384.90350342
265.79299927 197.91899109 431.10299683
177.33714294 197.25811768 456.05197144
93.29771423 199.59519958 428.92626953
202.91299438 221.73699951 465.62899780
262.67300415 268.99200439 419.81100464
93.34200287 205.21710205 446.16479492
112.32777405 230.40913391 382.52130127
190.92610168 256.90365601 400.29525757
86.10242462 173.85993958 479.93524170
156.43894958 105.13265991 431.73577881
104.83065796 168.00659180 513.27117920
191.18275452 161.64266968 441.05136108
88.39380646 230.29421997 523.26495361
303.96099854 221.36500549 420.25399780
298.02572632 265.22006226 429.56323242
96.15373993 153.32662964 394.45620728
120.26535034 138.60809326 384.51062012
139.91960144 105.03396606 419.12414551
184.80200195 195.24169922 382.26074219
88.46299744 174.13815308 446.25280762
285.04699707 270.13702393 525.24298096
162.94734192 269.93588257 491.06857300
106.97827911 181.73844910 516.72979736
191.27505493 201.12336731 472.20037842
231.75000000 198.14399719 442.14599609
311.81494141 227.86947632 425.88424683
91.86663055 241.54240417 503.78179932
276.99996948 275.05166626 437.74496460
102.81724548 252.98458862 485.12503052
101.11991882 209.44160461 389.37683105
103.30035400 222.97360229 417.44296265
164.53845215 242.58538818 495.36422729
115.44139862 116.40446472 417.72415161
86.56279755 212.89257812 482.94525146
215.81135559 291.72888184 525.44409180
188.31448364 280.00878906 485.31213379
121.91569519 116.78344727 443.45947266
91.12077332 158.87310791 427.22756958
87.19259644 231.72267151 500.58877563
182.78123474 118.55762482 411.57632446
153.91952515 111.60173035 406.14328003
191.24574280 147.43281555 437.88250732
193.19358826 220.01091003 390.27447510
173.72595215 147.10572815 454.96371460
144.38079834 189.60740662 363.10403442
258.05389404 291.15359497 501.25830078
275.50418091 276.81188965 533.67199707
260.51379395 271.56405640 535.96453857
97.26747894 150.62655640 484.85049438
298.96206665 272.80767822 485.08099365
284.18161011 279.38500977 526.56829834
213.62399292 240.08099365 449.89300537
242.00277710 292.51849365 485.80187988
215.65798950 239.60598755 460.78601074
114.92005157 260.84005737 513.20202637
96.66014862 174.53633118 387.61465454
109.68520355 235.95280457 435.62261963
186.61038208 224.56381226 386.63714600
179.53094482 282.09887695 447.10491943
164.77847290 136.99781799 458.80584717
92.52816772 158.48634338 463.76309204
284.00299072 264.33898926 423.12100220
193.23907471 160.28144836 400.47494507
132.97583008 203.45454407 517.39392090
149.04393005 246.81423950 385.94775391
122.97380829 126.26518250 389.92663574
90.08977509 166.73928833 468.59344482
191.11077881 185.97761536 419.02352905
113.39752197 127.28453064 458.08789062
213.85499573 195.93299866 461.85400391
100.72741699 143.43249512 394.05932617
111.22527313 158.31665039 505.83947754
221.05899048 258.48800659 522.46997070
296.32601929 216.05700684 419.95300293
202.67718506 289.67608643 449.73059082
314.61599731 259.71902466 449.63299561
193.01300049 270.97000122 498.28698730
289.65499878 206.72399902 414.82897949
172.84179688 279.19970703 442.05667114
266.31997681 203.41000366 408.48300171
196.11300659 264.48101807 509.38497925
89.14479065 169.98937988 430.30307007
211.10600281 207.26899719 410.45901489
130.03053284 214.31718445 363.61596680
83.52950287 210.39842224 491.57250977
241.93710327 283.77578735 439.96871948
176.11302185 206.99929810 451.81463623
282.96301270 271.13800049 430.03201294
93.13771057 195.65986633 525.98529053
183.50701904 182.89668274 472.88275146
145.48355103 220.94021606 364.92892456
281.39422607 282.87939453 499.65274048
246.23979187 283.71954346 542.62579346
298.83099365 229.46299744 435.02700806
133.70736694 201.77252197 360.58316040
201.73159790 292.21795654 480.05072021
202.49592590 247.09069824 462.12640381
156.83860779 276.91525269 452.52926636
135.98629761 241.12815857 379.47988892
313.26400757 255.93598938 443.64700317
139.05368042 269.05245972 421.25396729
268.72500610 272.99200439 428.57998657
87.60610199 181.05664062 457.30737305
179.46034241 202.52938843 461.01486206
118.26726532 270.37713623 495.64660645
131.60479736 130.69386292 484.93911743
258.10598755 228.80799866 408.71099854
104.09903717 197.66004944 384.42980957
106.12911987 226.83862305 412.96517944
227.54600525 236.74200439 502.52401733
111.35649872 194.59616089 519.68707275
289.66900635 241.62199402 420.88101196
221.24099731 187.69200134 444.82400513
180.55723572 275.06445312 418.38549805
90.35058594 199.42660522 458.12506104
230.17500305 198.26200867 449.78399658
111.26016235 170.12857056 511.27743530
235.83538818 288.17788696 536.88854980
250.38999939 254.25100708 408.82000732
122.22647095 261.36080933 468.81222534
104.57377625 128.29055786 403.65426636
79.83312225 200.77459717 521.85809326
161.53877258 156.58540344 473.08395386
207.35498047 251.57740784 460.14251709
295.17999268 220.72399902 415.33599854
306.34201050 266.41400146 456.94500732
184.21688843 281.51596069 440.22262573
167.98390198 279.30471802 448.51446533
137.27647400 126.20572662 477.25137329
163.33580017 207.23153687 449.26541138
157.38314819 193.09986877 503.70849609
239.42134094 278.40023804 427.91973877
294.51699829 230.62899780 419.32800293
176.56991577 175.90301514 476.75848389
83.94662476 216.86186218 527.70574951
199.65199280 291.25463867 463.05105591
136.83117676 266.32550049 455.59494019
168.74990845 156.33456421 466.31152344
117.34895325 248.62005615 445.40353394
119.23940277 248.37353516 407.97155762
103.04645538 143.53759766 479.63134766
212.92132568 289.80960083 448.02893066
157.57443237 202.45504761 445.34991455
173.39628601 193.45773315 456.63110352
161.86067200 275.61935425 435.32305908
93.94670105 164.33294678 393.23107910
254.96968079 293.30255127 509.20492554
99.15740967 213.09257507 403.59432983
96.16157532 143.91545105 404.51132202
220.37699890 202.77999878 464.68402100
217.03399658 232.20700073 445.95501709
200.18600464 267.69302368 520.77899170
119.30860901 163.95245361 504.08255005
270.54101562 198.99600220 407.13198853
243.66305542 290.84051514 530.15112305
307.56301880 240.93798828 429.73501587
146.25628662 107.65654755 439.02127075
187.39329529 236.53465271 390.24880981
263.63998413 261.45300293 413.48400879
266.03329468 289.28085327 505.62072754
181.41821289 209.26889038 380.04483032
264.85995483 286.79046631 485.07269287
98.34458923 139.53561401 434.78012085
249.62200928 204.11700439 454.30697632
217.31500244 258.72601318 405.79598999
159.19929504 207.86332703 363.95208740
162.83993530 233.80865479 377.75329590
170.52366638 167.09703064 379.72302246
93.35292816 242.21588135 493.48336792
103.41464233 224.39436340 440.69363403
126.47657013 233.38227844 375.37478638
115.01300049 246.12112427 424.67434692
134.13743591 245.94367981 516.32733154
167.32504272 200.89401245 504.63391113
194.02731323 193.47764587 448.69467163
101.37438202 217.49264526 415.58682251
202.46536255 289.25765991 517.71130371
98.64518738 156.87432861 502.19595337
91.77859497 194.08222961 409.41043091
193.44944763 287.37207031 491.90252686
91.96520996 195.63113403 418.01699829
207.38198853 251.42898560 510.22796631
79.92121887 190.05845642 503.35681152
189.35681152 264.54003906 495.48580933
170.27775574 182.62219238 444.85662842
202.01000977 227.36799622 457.30700684
142.52940369 170.74804688 496.13662720
257.39062500 287.05783081 476.16232300
129.89457703 113.62316895 444.11843872
150.51571655 274.45306396 457.52539062
172.73710632 202.00737000 370.80215454
257.31900024 229.16099548 490.11499023
171.98002625 113.06404114 439.51577759
152.79545593 262.25698853 490.27282715
107.97220612 133.30996704 464.51809692
120.47940063 145.74177551 382.21630859
178.67359924 254.11183167 396.44024658
128.13818359 126.02058411 472.89721680
127.50536346 240.09718323 521.74572754
118.72248840 131.46673584 477.48321533
122.23210907 219.61686707 524.10888672
177.38270569 108.83515930 419.04959106
158.50820923 273.98367310 423.06115723
99.01275635 215.49259949 438.91989136
83.96748352 181.13507080 516.67449951
101.10472870 187.82118225 521.26397705
255.98600769 223.29299927 480.14300537
208.23300171 236.82099915 478.64498901
122.99352264 188.59106445 512.94995117
154.24751282 264.74038696 402.53610229
180.81921387 215.10156250 481.69918823
252.31901550 266.96200562 415.44100952
198.99931335 177.29219055 416.94372559
270.13598633 204.48799133 439.62298584
263.86575317 280.47561646 451.59973145
232.06700134 203.24899292 427.05899048
121.80455017 117.43672180 397.78207397
196.32183838 155.09921265 430.54785156
172.93582153 243.94552612 389.80407715
259.26846313 289.32269287 491.87701416
148.97406006 227.28869629 519.49047852
191.18193054 181.59288025 452.04345703
116.20681763 236.36608887 386.22824097
178.38732910 266.09481812 407.46694946
287.51641846 273.35177612 440.11221313
300.65676880 270.36373901 442.32711792
205.67568970 273.31643677 529.84020996
165.86549377 154.68048096 381.46142578
160.26026917 250.41101074 495.48651123
181.76121521 236.46124268 497.74609375
128.70928955 108.55070496 421.80865479
192.04963684 129.70915222 422.27993774
261.24224854 288.91827393 526.18884277
198.12600708 197.84800720 444.05599976
257.56481934 283.28372192 454.69030762
309.36898804 223.13027954 421.77853394
179.23600769 157.98521423 458.56753540
226.47300720 294.74938965 490.32446289
123.13204956 167.87426758 373.83273315
303.94500732 269.55300903 492.15899658
160.35118103 117.83362579 456.61813354
234.88566589 294.01544189 498.40734863
220.70004272 280.04309082 538.73114014
295.15902710 248.98100281 447.58901978
284.08499146 223.29800415 413.94998169
199.65623474 162.82051086 411.71969604
174.71084595 138.05738831 451.43585205
133.46296692 107.23060608 427.39678955
166.93083191 143.67440796 460.14669800
250.87699890 207.07600403 460.46002197
160.40032959 202.51260376 441.01123047
89.44143677 176.17803955 420.70672607
79.35840607 194.86410522 517.74609375
139.64970398 109.56644440 440.43881226
137.50242615 234.28620911 521.24810791
193.56469727 214.51513672 461.22921753
111.63215637 161.10385132 379.65539551
174.45532227 168.14247131 471.09793091
90.84708405 224.23944092 529.66540527
124.66371155 177.64247131 507.55090332
189.58869934 280.11611938 499.29080200
172.51779175 123.73644257 403.95535278
184.57955933 150.98945618 448.38333130
295.97100830 266.89599609 507.31597900
193.78500366 203.80599976 405.62200928
107.27943420 253.95399475 479.87060547
255.96713257 280.82702637 443.32238770
248.05599976 259.66198730 408.92602539
287.19100952 259.93002319 505.03997803
145.78121948 125.82115936 388.16519165
100.81087494 137.61732483 444.63165283
117.80731201 139.08419800 493.03063965
86.14053345 183.24581909 469.05636597
108.24937439 143.50317383 493.41976929
165.76969910 132.42604065 390.51605225
107.88522339 238.25859070 524.09600830
88.30368805 230.25160217 493.93548584
222.29800415 287.77947998 441.93566895
188.30204773 284.14682007 480.90963745
150.14129639 139.23861694 476.02401733
102.14255524 159.29003906 507.91995239
188.90156555 207.08038330 386.62341309
103.92687225 134.42649841 455.37576294
289.44799805 214.31900024 411.51602173
153.80525208 116.53382874 460.71572876
314.38897705 230.24499512 420.41900635
200.79598999 207.83700562 468.64300537
81.14141083 212.70008850 502.49481201
195.29844666 139.63285828 419.23223877
294.42599487 254.61000061 474.20401001
116.65288544 217.28826904 368.72222900
146.09877014 271.54730225 428.50045776
107.52873993 238.13307190 460.67001343
192.05528259 188.72108459 397.21441650
191.71009827 285.17999268 443.93054199
163.25419617 199.45584106 364.81478882
296.47122192 271.53155518 453.04260254
84.11298370 198.28764343 482.54217529
139.04920959 128.49867249 386.12539673
100.19043732 133.41149902 410.07391357
260.90698242 275.81500244 431.11700439
283.31301880 243.30101013 476.53601074
194.89964294 146.89759827 410.52114868
171.33459473 201.06291199 447.47949219
168.02584839 224.07200623 502.53784180
139.85971069 269.94287109 465.78890991
304.93499756 257.35501099 469.65798950
130.49214172 136.06680298 383.41641235
165.16162109 267.64337158 406.62500000
210.13134766 266.20693970 408.38644409
151.90081787 271.17541504 481.53860474
110.22182465 267.30682373 498.60406494
89.59304810 164.00134277 442.66250610
151.06135559 109.54933167 448.48309326
167.43113708 177.68887329 485.93441772
101.80919647 260.28454590 499.29544067
90.77099609 158.37535095 403.74957275
213.27101135 250.10499573 511.52401733
272.88897705 200.11900330 427.42098999
148.12586975 215.86532593 518.20300293
154.28236389 145.87332153 382.17736816
195.05693054 229.68247986 394.42102051
184.44403076 140.17170715 402.15408325
262.82699585 228.28599548 482.60800171
297.67297363 243.99400330 440.98999023
117.25576782 265.06881714 506.67828369
287.98898315 255.54000854 495.24700928
147.06163025 263.06582642 403.50698853
196.67587280 278.34448242 520.65435791
198.77299500 226.59201050 487.14199829
166.74897766 240.71302795 381.73486328
100.02414703 207.14018250 524.50811768
79.48360443 197.97433472 506.81286621
293.80899048 238.32600403 441.19500732
240.30700684 201.91299438 441.83999634
146.88215637 253.54338074 395.99105835
294.11599731 256.36801147 484.53201294
240.69169617 293.02319336 506.08050537
125.05090332 203.70707703 519.22729492
223.95886230 294.15881348 474.82025146
179.52105713 220.04364014 485.36959839
95.22234344 193.73573303 396.84240723
213.83500671 190.05200195 451.12698364
128.96250916 140.42898560 491.74328613
261.65899658 256.43099976 519.33496094
192.73281860 277.68826294 424.60168457
241.29765320 289.17172241 460.19369507
295.12100220 275.71401978 513.83300781
139.16223145 258.09902954 507.64559937
271.45654297 284.30111694 490.17868042
150.80041504 105.17741394 426.98120117
294.01400757 255.60798645 423.21899414
187.82046509 225.64146423 490.50585938
251.73199463 198.04899597 440.80001831
111.14076996 124.43528748 440.51635742
88.25679016 173.72636414 462.71966553
267.08349609 283.43148804 534.83465576
87.10169983 204.83671570 474.83392334
155.96160889 252.99790955 491.87225342
147.18829346 237.70283508 517.35363770
103.42742920 220.94534302 388.02191162
262.42797852 212.68400574 462.00601196
104.69538879 245.01882935 476.29440308
244.19084167 291.09359741 476.14636230
168.59785461 211.02787781 504.44061279
134.37371826 106.39492798 415.24835205
161.06266785 183.79115295 367.70831299
222.81999207 233.00999451 496.52499390
235.59500122 225.12300110 407.71600342
219.37960815 250.00706482 462.85925293
109.74353790 210.47096252 373.64276123
185.92379761 204.27609253 456.94165039
215.87799072 245.34399414 463.49798584
224.61700439 191.98001099 435.32699585
99.49551392 219.62405396 449.74871826
239.85398865 201.62600708 433.30999756
189.39970398 193.93022156 388.22055054
181.32168579 147.35487366 394.26065063
127.78988647 259.24261475 449.10870361
250.38999939 218.42500305 476.58300781
210.00399780 248.09500122 456.33200073
292.86798096 273.04199219 524.47302246
305.04501343 251.73800659 442.40200806
160.70184326 103.96662140 419.41256714
252.91099548 242.13400269 408.59298706
229.72399902 211.50498962 466.27899170
285.46829224 274.57775879 452.85726929
269.85101318 231.58599854 411.02001953
237.38800049 217.75599670 475.46499634
140.80328369 264.45278931 499.86904907
301.35598755 254.55799866 458.29901123
194.41262817 193.93173218 441.49044800
205.16426086 237.66239929 489.65371704
83.22322083 190.63287354 522.62536621
151.82667542 174.63790894 369.22241211
274.42999268 224.84100342 459.98300171
238.05789185 290.74520874 464.46765137
90.57241821 159.10430908 438.31619263
104.60630035 259.05480957 487.81784058
168.23510742 204.85604858 454.90429688
174.54151917 277.14840698 480.72882080
281.89999390 219.98600769 438.71099854
95.65176392 205.29721069 418.72753906
90.65184021 194.58528137 444.66043091
226.66200256 209.95100403 418.22601318
157.12858582 237.94001770 511.15756226
101.68824005 177.68733215 383.96264648
83.80628204 184.76606750 484.34149170
161.76168823 245.87738037 384.26049805
87.15032196 177.02655029 467.29190063
200.26199341 199.68701172 457.82000732
284.65301514 276.24533081 466.35720825
196.44972229 147.16677856 422.28491211
149.09140015 116.13951874 399.01971436
116.35264587 117.70824432 427.13565063
174.24464417 209.99653625 373.50732422
245.57699585 228.08299255 408.55801392
94.97485352 146.50299072 439.67391968
167.85041809 198.86346436 450.22436523
151.56596375 272.98538208 424.40167236
94.02548981 147.49073792 426.57244873
173.09716797 206.33996582 459.23260498
205.89601135 221.82400513 460.80599976
102.91392517 157.37913513 385.26824951
112.04888916 222.07083130 375.08972168
158.54930115 258.15090942 397.81637573
236.88200378 219.05101013 408.58200073
292.36297607 220.30099487 430.93402100
187.35070801 178.25061035 460.97412109
130.10032654 116.17253113 396.42498779
163.16436768 182.47991943 493.61419678
106.44985962 126.88017273 426.35266113
289.09182739 279.23269653 491.18853760
100.43516541 134.31867981 421.71923828
94.93524170 151.70687866 473.30673218
232.39358521 280.87988281 540.65875244
197.10365295 174.74903870 433.59338379
140.58613586 136.94029236 482.61828613
311.81600952 251.41299438 433.89801025
241.73300171 272.19799805 420.43899536
107.14632416 128.88114929 444.73565674
274.72882080 284.89758301 522.44384766
143.08799744 247.59515381 388.35989380
203.31309509 234.06298828 396.45330811
256.37799072 243.10598755 506.63101196
227.26400757 217.41000366 406.78598022
282.18399048 251.87998962 499.20498657
247.06492615 287.38763428 459.54528809
122.21784973 255.85269165 459.74194336
159.31684875 127.76663971 462.34555054
206.86799622 242.88700867 461.46600342
158.46098328 139.72021484 467.75018311
82.56185150 222.50892639 518.16253662
138.40869141 218.99507141 362.78842163
241.24899292 212.15299988 468.23999023
212.42561340 293.05520630 519.93823242
89.02172852 236.20703125 511.99548340
95.55468750 205.14915466 430.43551636
91.36592102 158.26045227 477.40103149
130.35945129 231.72106934 523.13037109
223.80070496 291.41580200 455.64761353
176.04481506 279.25399780 468.19091797
183.47529602 141.71464539 444.69256592
97.63663483 206.52127075 397.82983398
229.47299194 228.16799927 493.11102295
208.44000244 199.27200317 450.55899048
87.46001434 218.96145630 485.20755005
167.58937073 259.58959961 398.56124878
150.48623657 199.86656189 362.59643555
107.84417725 122.75971222 418.27975464
187.35343933 130.31106567 408.30612183
88.25760651 197.20108032 464.09909058
189.01576233 231.62669373 388.16043091
207.42890930 286.29757690 529.27355957
209.09300232 218.80599976 475.14199829
173.29071045 281.13150024 455.20043945
315.17199707 257.17800903 438.66000366
290.11300659 261.09298706 423.57501221
286.23397827 210.66999817 425.86401367
303.76300049 266.34899902 470.56399536
218.23799133 222.69400024 403.50402832
171.37651062 122.35542297 448.87551880
194.93672180 149.76760864 432.47283936
191.92826843 274.28710938 509.23870850
253.93006897 283.91171265 540.97747803
220.62612915 293.76193237 523.94537354
224.45101929 294.31552124 515.99658203
91.50095367 173.85385132 396.83334351
305.57901001 267.84197998 449.02499390
226.18008423 285.50851440 438.34140015
170.39584351 106.76700592 430.25146484
104.66783142 137.66488647 467.61495972
131.90055847 263.39807129 436.35202026
94.44023132 226.22933960 475.80175781
125.81623840 111.76441193 432.79406738
168.76820374 175.48643494 375.25302124
121.73674011 269.29757690 501.12677002
86.80182648 178.97727966 472.42666626
91.91832733 198.43237305 435.59927368
106.63886261 231.62141418 397.02462769
193.02200317 202.03599548 410.72000122
150.40304565 179.98463440 366.52932739
294.49600220 250.66400146 456.39398193
157.08821106 146.55633545 471.47415161
199.53900146 220.59899902 456.04000854
93.63633728 165.15060425 506.60131836
173.32014465 260.70547485 498.97021484
106.23100281 142.93084717 488.37796021
279.81842041 282.64862061 492.63064575
135.55606079 151.28149414 490.98257446
183.94903564 131.22653198 439.67306519
204.69801331 290.57223511 512.79229736
83.51126862 216.29425049 494.72378540
171.61904907 228.35757446 378.93341064
263.87390137 290.07122803 517.45001221
110.79563904 199.36145020 374.62060547
263.78198242 237.74800110 496.75500488
208.83099365 245.91200256 501.83898926
266.49441528 285.48837280 479.84317017
245.24299622 199.91600037 442.90701294
156.42732239 165.41854858 480.05209351
167.46078491 182.23434448 371.64672852
145.42927551 143.12944031 381.53430176
102.62045288 249.54637146 518.54345703
205.61515808 271.04235840 415.12615967
97.50788116 151.90103149 490.14862061
