ply
format ascii 1.0
element vertex 2048
property float x
property float y
property float z
end_header
75.02686310 217.46141052 607.00585938
71.72958374 229.71192932 613.74719238
70.15879059 214.90142822 600.99847412
67.13508606 228.24623108 606.47875977
263.82455444 270.77014160 458.46267700
272.47198486 283.62561035 462.10968018
272.28015137 268.11508179 454.63381958
277.24664307 277.45477295 456.73452759
77.48455048 202.06829834 595.16979980
69.18408966 211.45858765 601.00146484
76.51956177 194.30162048 584.13146973
67.32499695 204.15008545 588.99340820
61.59377289 247.72132874 605.76721191
69.00457764 256.93814087 609.20458984
64.87659454 260.83480835 596.64300537
71.97602081 269.54895020 599.78234863
82.81889343 189.25918579 578.60327148
72.99267578 196.62219238 584.17248535
88.70283508 183.18954468 566.37054443
77.39534760 190.82498169 570.99114990
263.63717651 316.32250977 477.74157715
263.96633911 321.73910522 490.34573364
273.67773438 310.24133301 475.77322388
270.47109985 316.44335938 484.82211304
60.28248596 221.81523132 593.52203369
58.69945526 234.52391052 599.07067871
58.04111481 224.17837524 581.87200928
56.73610687 237.34967041 587.21215820
89.51815796 177.26260376 556.89019775
78.41529846 184.33311462 560.23571777
94.62921906 171.68225098 544.74865723
81.99169922 177.81195068 546.42504883
65.79276276 204.93226624 574.96801758
59.79761505 216.48886108 579.72821045
65.30484009 202.39898682 561.47418213
58.75477600 214.46267700 565.92913818
118.93315125 157.35600281 529.00427246
107.90145111 161.82316589 533.97631836
130.56314087 153.54104614 517.41876221
117.64982605 155.73239136 520.89398193
144.76570129 150.59649658 496.05752563
142.66334534 152.10278320 507.89880371
155.28222656 153.37138367 485.50177002
154.56216431 153.81106567 497.83236694
131.67149353 148.21974182 499.29913330
119.08735657 150.67031860 498.01718140
141.37760925 149.17376709 487.88848877
127.21878052 149.38546753 484.60235596
107.74773407 156.74940491 520.97564697
96.07548523 163.15600586 521.99261475
113.47709656 152.99505615 509.37039185
100.30134583 158.19287109 508.53271484
112.41266632 165.70285034 541.42230225
104.45249939 173.34497070 551.13952637
127.15198517 166.54800415 533.19299316
119.86128235 173.72306824 543.01922607
149.67655945 151.74468994 478.53952026
142.18762207 150.17248535 481.55599976
158.66650391 158.82409668 467.36215210
149.62316895 154.59156799 469.51593018
81.05386353 175.84909058 530.58367920
72.14733124 185.73091125 532.64709473
85.13626099 170.75137329 518.19689941
75.19216156 180.73550415 519.29357910
108.33052063 154.22041321 490.60415649
97.63911438 161.02848816 489.44232178
115.95748138 152.57011414 479.66894531
104.69448090 158.41958618 477.27410889
75.50963593 190.16354370 558.38818359
67.01567841 200.70814514 561.76300049
78.47774506 186.51818848 545.12127686
69.30541992 197.05612183 547.82244873
243.87731934 307.24853516 456.97399902
244.20205688 317.85430908 463.08370972
256.65203857 305.26239014 460.92684937
251.25323486 312.86920166 462.54010010
136.01388550 156.44342041 517.92285156
130.96621704 161.69015503 529.61730957
148.13429260 157.35865784 507.25366211
144.70579529 162.29177856 519.96679688
56.83787537 235.41831970 575.80505371
57.83345032 247.62879944 582.72155762
55.72108459 240.57385254 563.18316650
57.50372314 253.48272705 570.10461426
160.69007874 158.48071289 476.45703125
163.92396545 160.27822876 487.88018799
166.76084900 164.52743530 467.76736450
171.97087097 166.19915771 480.35150146
58.55886841 263.86093140 581.58673096
63.86341858 273.39358521 588.63946533
61.69934082 273.99075317 571.91900635
67.56660461 282.94067383 578.59362793
232.20742798 335.15847778 514.40625000
229.52374268 331.32629395 527.14385986
245.13296509 331.82922363 511.99917603
239.34912109 331.35827637 520.76391602
135.78103638 151.74200439 472.43826294
123.61280060 155.07043457 466.79342651
147.15747070 156.08462524 463.75302124
134.75570679 158.49559021 457.14514160
86.03859711 170.23789978 498.91082764
77.58800507 179.25453186 500.72293091
92.17497253 165.46269226 486.91775513
82.97596741 174.53269958 487.91204834
92.07317352 198.84082031 582.20361328
84.17305756 209.97927856 590.40179443
102.64669800 203.29910278 571.63012695
96.96403503 215.48289490 579.72595215
89.23127747 221.25654602 600.86126709
81.25331879 233.68499756 605.81555176
97.58622742 227.83830261 590.53240967
91.90468597 240.87171936 595.82580566
66.17102814 198.99377441 542.25988770
61.09778595 210.51255798 547.29272461
67.93643188 196.64065552 528.84613037
62.06917572 208.77105713 533.85046387
98.77450562 167.74114990 464.53637695
89.18627167 175.74801636 463.20022583
107.43804932 167.17175293 455.01651001
97.97659302 174.49137878 452.68563843
89.20249176 190.75682068 441.05804443
82.24763489 201.27252197 440.92904663
96.30859375 191.09045410 431.14312744
88.82661438 200.88107300 430.19873047
255.88630676 279.91717529 479.76647949
256.92999268 293.00955200 487.20080566
265.86523438 280.27188110 472.90933228
261.44866943 286.89617920 479.81304932
78.64009857 263.47808838 595.30529785
76.78823090 270.77099609 596.38677979
87.06344604 273.93594360 586.84082031
86.12097168 281.52468872 587.09655762
132.17245483 190.29028320 425.16748047
124.15446472 198.11477661 417.74111938
144.09381104 195.92846680 421.06176758
136.86759949 204.03097534 412.78353882
217.72079468 316.63912964 450.42221069
216.44638062 325.88485718 459.57449341
230.26518250 317.22525024 453.28115845
223.75598145 323.20150757 456.93566895
67.64878082 195.29959106 509.68032837
63.07151794 206.01100159 514.11022949
70.91269684 189.64584351 497.09783936
65.35459137 200.65974426 501.39932251
74.68418121 289.77929688 579.30810547
77.15741730 290.07287598 584.24346924
86.03149414 299.51821899 572.70239258
88.43467712 297.88070679 576.23657227
109.92955780 184.80502319 554.75103760
101.93602753 196.06356812 562.53106689
122.18229675 190.03617859 546.99993896
115.62778473 201.83297729 554.99127197
239.94183350 250.85980225 464.82623291
243.94415283 253.90686035 473.35134888
250.90846252 253.12562561 459.34930420
249.74009705 252.30270386 465.92718506
213.06465149 321.50994873 535.39996338
206.81817627 320.57165527 545.23510742
226.35327148 320.56060791 531.74462891
218.33193970 319.92672729 538.77148438
157.92749023 163.27418518 505.93545532
152.21035767 171.55462646 515.12554932
167.40118408 168.85897827 495.73782349
162.93846130 177.43746948 506.60491943
62.69100952 210.07923889 530.31768799
59.79685974 221.91384888 535.28247070
64.51201630 207.15673828 518.21673584
60.94895935 219.45617676 523.37451172
83.85574341 183.33430481 460.90518188
77.35127258 193.68540955 461.94161987
91.03969574 180.32727051 450.35778809
84.03145599 190.16683960 450.85739136
222.03616333 331.58102417 480.58407593
219.68637085 331.76104736 492.58993530
234.78225708 331.08602905 483.06607056
227.92913818 331.84234619 488.92025757
121.04047394 164.51452637 453.50851440
110.36463928 170.03259277 447.53002930
133.46670532 169.39425659 447.71685791
123.34245300 174.46417236 441.09341431
236.67636108 281.11602783 452.59283447
233.12109375 294.35406494 451.15856934
247.42907715 280.66320801 455.38189697
241.29464722 288.73937988 454.10552979
164.24201965 167.80511475 460.61236572
169.48554993 169.78125000 465.49655151
166.83828735 179.55853271 453.97332764
174.51153564 181.65032959 460.51672363
59.08553314 224.56057739 554.11468506
57.52635193 236.46412659 560.19769287
60.51002502 226.47332764 541.15246582
59.46412659 239.56457520 547.74810791
100.54965210 215.44213867 576.29504395
94.56451416 228.20422363 582.30798340
108.78339386 222.56381226 567.95959473
103.92811584 236.03761292 574.36059570
79.40601349 180.89788818 483.49804688
72.34105682 190.86645508 485.80502319
86.68281555 176.62756348 471.09515381
78.79159546 186.55609131 472.97378540
241.78369141 303.58383179 503.63339233
240.72946167 313.46008301 513.22833252
252.24496460 306.21456909 497.09362793
246.35963440 309.95361328 504.98672485
185.68640137 325.88995361 540.09863281
178.25335693 320.47418213 545.38873291
199.22914124 323.66113281 544.99951172
191.33235168 320.77142334 548.86950684
93.90866089 245.39190674 588.72839355
85.28347778 256.19229126 593.48132324
102.83633423 251.92807007 578.87518311
95.44108582 264.07626343 584.29095459
141.48606873 179.32702637 534.73266602
133.83505249 189.54023743 540.83349609
153.82777405 184.74945068 527.49621582
146.89959717 195.55429077 534.53112793
126.68397522 178.12570190 438.45193481
116.33287048 184.81365967 432.03308105
139.31704712 183.31237793 434.13488770
129.85559082 189.89135742 426.90200806
102.14218140 175.25335693 445.17370605
93.29235840 184.38787842 441.93371582
113.25172424 175.31118774 437.76904297
104.89121246 184.36785889 433.80563354
178.50509644 178.07186890 470.79138184
182.10707092 184.96890259 480.11938477
180.88269043 188.53640747 462.67440796
185.98928833 195.14208984 473.51925659
147.60498047 166.79382324 454.69201660
136.84240723 171.80368042 446.76077271
159.45071411 175.09873962 451.87628174
148.92611694 180.01852417 443.30224609
69.57909393 198.91671753 482.75866699
65.68575287 210.41548157 486.30615234
74.38460541 195.55828857 470.84954834
69.49151611 206.79458618 474.10177612
61.90732574 218.54946899 505.39349365
60.01236725 230.54643250 510.95242310
64.11949921 215.94277954 493.28308105
61.20700073 228.20219421 498.80560303
80.66670227 302.43191528 544.57336426
84.87142944 302.72924805 556.49468994
91.67755127 312.61859131 538.51147461
92.15879822 310.51232910 548.50451660
154.27087402 197.21780396 427.67974854
149.15313721 204.95332336 418.60528564
164.21578979 204.97778320 428.21795654
160.54736328 213.07807922 418.79431152
60.59054565 232.52401733 531.01574707
60.14999390 244.21849060 538.02014160
61.19300079 231.33631897 519.33905029
60.26303864 243.57350159 526.89001465
61.98418427 265.40576172 554.71655273
64.54527283 275.63232422 562.27191162
65.52055359 271.86242676 544.81915283
68.47642517 281.94662476 552.99951172
159.18675232 266.98968506 507.57424927
155.61285400 266.98217773 507.62585449
159.78623962 266.98937988 507.55691528
159.21455383 266.98336792 507.61911011
80.52708435 302.99917603 561.98199463
78.54795837 302.98403931 561.99707031
80.81643677 303.07250977 561.96606445
80.53932190 303.05633545 561.95422363
157.49568176 284.79898071 526.47387695
153.49510193 284.81088257 526.53204346
158.21633911 284.77056885 526.49414062
157.46034241 284.78695679 526.56378174
104.75437164 293.61282349 546.20190430
101.70584869 293.60870361 546.20336914
105.33650208 293.64117432 546.09344482
104.78578186 293.63708496 546.09387207
156.03094482 253.26943970 496.55032349
152.99186707 253.25320435 496.60787964
156.57432556 253.26782227 496.56405640
156.14863586 253.25088501 496.62658691
146.91302490 267.20413208 514.45489502
143.10572815 267.20907593 514.48236084
147.60850525 267.21392822 514.39526367
146.85939026 267.21975708 514.43597412
71.68177032 286.34585571 561.23345947
69.96077728 286.34820557 561.24279785
71.92447662 286.39392090 561.24963379
71.66703796 286.39126587 561.23217773
139.37884521 259.91290283 526.39385986
135.74467468 259.91925049 526.42968750
140.06546021 259.91409302 526.33160400
139.29667664 259.92071533 526.37329102
89.76699066 307.65802002 555.48199463
87.37222290 307.63018799 555.49822998
90.20874023 307.71234131 555.45123291
89.82876587 307.69146729 555.44860840
170.75732422 283.89764404 488.96386719
167.06906128 283.87490845 488.99398804
171.36851501 283.89196777 488.98132324
170.95600891 283.88015747 489.02725220
144.32522583 242.38713074 502.12225342
141.31016541 242.38455200 502.17236328
144.89675903 242.40255737 502.12429810
144.42179871 242.39736938 502.17568970
115.41723633 280.21057129 554.02539062
112.00241089 280.22338867 554.04498291
116.14793396 280.19195557 553.95391846
115.40041351 280.20846558 553.97344971
146.77116394 287.33706665 530.21765137
142.97596741 287.34640503 530.24114990
147.48741150 287.30596924 530.24194336
146.72320557 287.32189941 530.27270508
142.75703430 299.31634521 536.63513184
138.86872864 299.32690430 536.63928223
143.47994995 299.30288696 536.62402344
142.70999146 299.32144165 536.63763428
110.79133606 319.68936157 552.34631348
107.46305847 319.66793823 552.33813477
111.39350128 319.72177124 552.33563232
110.77897644 319.71640015 552.32049561
133.22448730 292.94836426 526.63580322
129.36970520 292.95300293 526.65216064
133.97314453 292.95700073 526.59515381
133.22047424 292.96713257 526.61602783
110.88549805 292.22158813 534.24487305
107.62307739 292.22076416 534.24273682
111.51696014 292.25759888 534.15264893
110.88363647 292.26013184 534.14764404
130.18925476 302.75634766 541.01068115
126.18153381 302.76074219 541.02990723
130.98803711 302.74841309 540.95812988
130.17921448 302.75701904 540.98535156
117.73863220 279.33563232 537.05322266
114.62241364 279.33642578 537.05328369
118.37918091 279.35070801 537.01141357
117.76410675 279.35372925 537.00555420
140.92205811 252.59123230 514.93835449
137.91273499 252.57992554 514.97949219
141.46443176 252.60113525 514.93798828
140.92074585 252.59286499 514.97668457
142.03073120 278.71273804 520.17712402
138.17869568 278.70346069 520.22393799
142.73641968 278.70187378 520.12316895
141.93991089 278.70172119 520.17401123
91.03834534 310.51428223 542.50238037
88.67201233 310.49700928 542.47979736
91.46516418 310.57562256 542.49523926
91.14033508 310.56326294 542.45666504
138.44216919 334.76208496 529.33282471
133.58604431 334.72113037 529.36126709
139.33323669 334.80957031 529.30249023
138.46652222 334.79330444 529.32421875
100.31237793 302.23559570 565.38470459
97.48696899 302.20379639 565.37866211
100.90386200 302.24395752 565.36132812
100.35250854 302.22888184 565.34808350
144.42485046 333.40542603 496.03604126
139.01200867 333.40817261 496.11593628
145.36151123 333.45111084 496.03945923
144.43807983 333.46966553 496.09826660
123.44969177 303.88409424 404.60815430
117.64581299 303.94235229 404.70745850
124.61826324 303.98153687 404.50329590
123.72444153 303.95471191 404.56085205
118.40124512 333.24224854 506.29824829
114.19596863 333.21401978 506.35021973
119.11003113 333.28375244 506.29284668
118.44477081 333.27423096 506.32101440
118.48335266 328.57369995 494.47558594
113.84283447 328.58453369 494.53286743
119.25463867 328.59335327 494.44433594
118.42900085 328.61303711 494.47839355
120.55265045 285.04907227 523.90399170
116.98851776 285.05349731 523.90417480
121.27159119 285.08944702 523.82940674
120.56887817 285.09402466 523.83135986
68.88312531 275.86611938 548.39947510
67.34256744 275.88412476 548.42376709
69.08928680 275.89959717 548.41613770
68.88560486 275.91101074 548.40893555
136.32237244 336.94161987 510.41278076
131.29582214 336.91888428 510.46578979
137.19567871 336.98086548 510.39987183
136.27893066 336.98138428 510.43405151
127.26960754 271.75308228 538.59063721
123.85552979 271.75561523 538.60705566
127.98357391 271.75186157 538.54083252
127.26302338 271.75979614 538.55126953
63.40369415 259.73760986 546.33483887
62.00596619 259.76501465 546.36590576
63.55751038 259.76770020 546.36553955
63.37551117 259.78543091 546.36175537
144.46463013 259.17001343 505.98098755
141.38902283 259.15432739 506.02050781
145.02983093 259.17901611 506.01135254
144.52626038 259.16699219 506.05151367
129.73551941 247.50033569 500.74127197
126.42545319 247.51316833 500.73941040
130.42346191 247.58216858 500.72625732
129.90100098 247.58692932 500.73315430
106.03831482 319.96524048 484.01956177
102.15609741 319.97250366 484.06655884
106.71646881 319.98352051 484.01788330
106.12835693 319.99493408 484.04666138
100.19746399 273.33306885 399.78161621
95.09571838 273.36456299 399.88726807
101.22344971 273.45071411 399.62539673
100.47003174 273.39151001 399.69049072
137.26463318 304.39651489 406.89926147
131.54611206 304.42565918 407.02215576
138.42886353 304.46585083 406.83438110
137.52214050 304.44155884 406.90914917
100.24818420 290.38037109 562.13208008
97.26763916 290.34729004 562.14532471
100.91253662 290.39508057 562.09185791
100.29560852 290.38088989 562.10064697
161.73789978 334.79116821 501.04629517
156.42323303 334.81399536 501.09985352
162.60798645 334.83944702 501.07531738
161.70304871 334.87741089 501.11389160
76.70715332 291.21914673 541.56054688
74.92006683 291.22406006 541.58746338
76.99337006 291.25384521 541.55285645
76.74642181 291.25588989 541.54882812
128.72418213 273.67691040 518.09460449
125.06766510 273.67367554 518.11871338
129.44862366 273.71075439 518.01757812
128.71697998 273.70724487 518.04553223
163.00286865 265.54144287 492.33178711
159.43782043 265.49035645 492.43759155
163.63288879 265.55261230 492.31436157
163.16067505 265.51165771 492.41113281
63.43421936 259.41757202 530.42095947
62.04357910 259.44412231 530.45086670
63.58858490 259.47442627 530.42437744
63.43498230 259.48904419 530.42010498
141.63359070 315.19958496 545.11010742
136.83479309 315.20800781 545.14202881
142.59483337 315.22970581 545.03216553
141.61705017 315.24234009 545.07531738
100.97663879 319.20953369 539.73638916
97.95862579 319.17932129 539.73956299
101.53237152 319.26620483 539.71520996
101.03712463 319.25149536 539.70172119
166.02986145 330.24780273 487.62350464
160.26899719 330.27691650 487.71417236
166.98806763 330.25494385 487.63943481
165.91519165 330.29614258 487.71084595
69.25857544 274.97775269 527.99578857
67.65692139 274.99206543 528.02459717
69.47984314 275.02578735 527.98767090
69.27688599 275.03192139 527.98583984
129.85043335 324.02401733 486.24270630
124.49743652 324.03381348 486.34460449
130.80184937 324.03787231 486.18795776
129.75622559 324.06365967 486.26290894
117.28199768 290.20458984 402.17462158
111.67024231 290.25732422 402.29272461
118.47615051 290.27709961 402.07885742
117.49492645 290.25680542 402.15258789
57.68654633 235.16117859 513.66461182
56.38153839 235.20260620 513.68298340
57.79886627 235.23640442 513.66851807
57.66784668 235.25947571 513.64715576
60.29703522 242.92227173 532.11236572
58.91953278 242.96012878 532.13555908
60.45369720 242.98687744 532.11602783
60.26499176 243.01004028 532.10040283
121.48146057 325.31188965 548.33795166
117.62929535 325.28924561 548.34344482
122.16607666 325.37384033 548.29937744
121.43093109 325.37115479 548.29296875
118.99824524 311.47283936 545.98669434
115.06180573 311.45352173 545.99157715
119.79429626 311.49536133 545.91821289
118.95892334 311.49224854 545.92877197
128.86386108 311.73962402 553.44976807
124.71736145 311.73944092 553.45593262
129.72303772 311.74554443 553.41741943
128.83145142 311.76303101 553.42712402
122.33058929 333.39730835 519.05731201
118.22637177 333.35455322 519.10394287
123.07781219 333.45156860 519.04864502
122.37915802 333.43490601 519.07122803
129.29173279 329.30841064 538.66821289
125.18785858 329.26232910 538.69995117
130.10214233 329.37738037 538.69116211
129.38906860 329.35418701 538.71185303
95.09887695 315.99057007 523.48803711
92.33337402 315.96286011 523.51928711
95.57510376 316.04028320 523.44274902
95.14611816 316.02325439 523.44812012
85.51875305 306.85601807 518.19415283
83.00547791 306.84167480 518.23730469
85.90925598 306.89450073 518.14093018
85.54283142 306.88632202 518.15222168
151.43026733 323.25466919 438.98538208
145.72216797 323.19580078 439.13201904
152.50396729 323.25622559 439.01232910
151.63836670 323.21777344 439.13433838
76.63471222 294.13583374 522.06652832
74.71160126 294.13311768 522.08831787
76.94174957 294.17230225 522.06524658
76.70946503 294.16687012 522.05584717
92.04421997 316.46343994 510.12420654
89.05262756 316.43286133 510.19015503
92.52241516 316.52648926 510.06054688
92.07261658 316.50711060 510.08959961
88.81742096 306.18365479 479.56356812
85.81331635 306.19055176 479.62036133
89.32373047 306.22866821 479.55151367
88.92129517 306.23159790 479.57812500
141.34176636 329.45867920 540.42242432
136.57865906 329.42010498 540.49334717
142.25692749 329.51712036 540.38177490
141.31793213 329.50527954 540.43304443
267.88513184 281.27316284 471.79721069
267.10531616 293.85287476 480.49356079
278.36999512 284.64605713 462.56927490
276.33099365 295.71780396 471.18334961
262.12310791 304.56805420 489.34561157
258.16305542 315.07485962 500.35061646
273.04931641 305.78311157 479.65060425
268.31079102 314.47946167 489.26107788
251.17608643 260.52203369 453.16842651
254.04882812 273.68444824 454.53570557
266.85842896 267.51913452 455.74008179
270.48822021 281.16195679 458.36679077
242.98126221 261.57348633 481.65011597
239.90585327 270.30541992 492.05459595
254.45834351 266.53161621 473.76333618
250.70678711 275.31918335 484.64825439
238.17936707 311.53915405 511.97171021
232.25204468 318.68307495 524.16436768
250.06289673 315.57373047 503.89141846
244.00547791 321.93698120 515.36126709
238.02423096 286.07061768 497.00662231
233.07998657 294.68469238 506.69049072
248.63055420 292.17141724 490.01617432
242.94456482 300.78103638 499.72451782
221.95098877 243.87828064 471.45803833
226.08453369 249.32963562 480.83941650
231.67712402 248.25036621 463.85372925
236.58465576 253.00445557 474.63632202
223.21206665 249.72038269 490.68508911
220.48861694 256.60183716 501.60113525
232.73968506 254.47793579 483.63015747
229.37513733 260.94570923 495.08886719
208.35542297 234.02426147 496.08248901
208.56060791 237.64738464 507.58349609
219.37850952 238.97851562 489.57690430
219.54281616 241.33499146 501.76962280
247.76315308 288.83078003 454.09643555
250.01370239 300.96563721 458.76934814
264.40075684 291.28845215 460.20782471
266.31964111 303.40106201 466.32861328
221.58511353 269.63040161 505.22369385
214.99723816 277.09014893 512.54553223
230.99765015 276.62918091 500.29168701
223.57238770 283.82870483 507.92044067
246.89944458 329.13983154 489.21884155
245.07528687 332.30032349 503.59561157
259.35089111 325.82141113 488.49487305
256.42504883 328.46923828 502.24890137
221.23147583 293.95379639 513.28393555
214.67697144 301.46688843 522.07373047
231.79054260 300.36288452 508.93685913
224.71113586 307.86489868 517.89123535
203.67529297 243.19937134 516.00848389
196.92282104 249.28236389 523.56610107
215.46319580 249.26235962 513.70208740
207.90113831 254.56579590 521.49987793
204.31806946 225.35739136 477.15402222
208.14024353 230.03807068 486.43310547
212.24041748 231.37142944 468.87136841
217.16909790 234.04705811 479.29364014
209.53366089 306.82232666 529.20428467
201.48007202 312.09576416 537.78723145
221.55731201 313.36740112 528.55096436
213.57267761 318.51403809 537.65655518
218.92950439 251.03610229 451.62710571
223.23709106 261.96548462 449.61370850
232.12304688 257.05905151 454.52682495
239.12240601 268.33538818 452.99661255
204.22465515 278.51412964 517.34686279
196.04652405 285.51348877 522.53576660
213.99749756 285.33999634 516.07299805
205.16101074 291.93789673 522.06146240
201.06527710 233.01396179 462.12667847
207.59643555 238.97685242 465.52404785
210.58900452 240.89628601 456.03701782
220.19281006 244.25527954 461.05242920
234.97605896 312.41323853 455.04449463
238.42791748 322.25057983 462.98687744
250.82688904 312.61328125 461.78137207
253.06103516 322.28158569 470.31314087
219.34930420 331.75598145 501.12683105
217.14741516 331.70465088 515.56146240
233.40185547 331.10705566 505.96765137
230.96093750 330.61972046 520.29998779
187.22338867 311.68206787 540.28302002
177.00128174 316.79421997 544.18414307
199.50282288 316.89932251 543.72064209
189.49867249 321.90582275 549.03466797
193.94248962 258.00820923 513.43298340
186.14245605 264.21353149 517.03161621
204.81849670 263.86212158 514.80664062
195.99758911 269.01431274 519.94995117
191.45591736 290.91033936 524.86859131
182.53047180 297.00222778 528.98883057
201.39334106 297.93191528 525.32067871
192.11425781 303.66351318 530.44506836
177.60957336 239.40834045 508.47537231
176.87394714 242.44873047 520.05419922
189.34854126 246.22001648 506.40136719
189.86552429 246.35958862 517.62658691
179.12532043 203.90341187 493.96957397
175.96928406 210.73371887 503.25976562
183.43820190 215.43218994 482.76885986
181.99334717 218.83845520 493.23562622
177.87536621 180.44770813 485.60015869
176.46032715 189.03509521 493.81277466
182.76098633 192.22671509 474.75976562
181.81819153 198.10510254 484.59484863
213.15899658 275.96749878 445.76150513
218.02427673 287.71536255 448.29034424
226.76177979 279.55059814 450.78137207
232.53674316 291.16055298 453.08087158
162.74681091 235.63842773 531.13702393
155.39161682 240.86514282 540.86096191
171.82905579 243.19047546 524.00646973
164.92869568 245.76268005 533.06317139
187.93316650 205.42582703 470.62954712
189.93544006 212.33842468 477.59219360
190.79312134 220.04170227 459.39321899
195.16577148 222.44654846 468.20523071
216.62557983 329.48986816 470.69515991
217.49716187 332.08322144 483.39050293
231.15388489 329.89367676 475.38806152
231.29568481 331.67575073 488.31472778
195.08346558 329.69961548 515.56591797
190.68302917 328.54138184 529.24877930
209.20114136 329.57797241 523.53051758
205.34783936 327.68078613 536.97314453
169.03443909 213.96093750 513.54638672
165.66209412 220.28858948 524.28894043
175.02874756 226.01051331 505.97320557
172.46182251 229.20513916 516.50671387
179.76921082 235.18804932 487.36169434
181.94552612 238.14503479 499.08285522
191.52485657 243.65629578 483.42718506
196.58697510 242.40924072 494.65460205
181.43952942 184.73750305 466.14791870
186.86196899 194.87954712 468.05731201
183.93167114 202.09017944 457.75958252
189.39859009 209.30192566 462.28680420
153.24087524 213.51611328 534.36871338
145.41749573 220.75120544 544.42401123
164.44606018 220.26412964 529.85369873
157.07528687 225.97235107 539.28179932
199.00082397 250.57792664 441.79534912
201.89720154 261.47616577 441.40112305
209.85458374 255.55554199 447.68621826
215.81304932 265.60305786 447.59002686
171.33641052 298.92944336 530.96136475
161.67478943 304.65658569 533.01092529
180.59992981 305.87316895 533.41815186
170.81596375 311.42126465 536.53027344
158.69444275 185.24404907 511.69146729
152.90725708 192.88839722 522.58972168
168.52288818 195.50508118 505.38604736
162.92030334 201.31118774 515.93286133
177.69966125 274.36611938 515.60260010
169.30801392 280.24005127 518.36944580
186.93424988 279.98095703 518.20483398
177.46612549 285.46231079 522.16821289
167.58207703 248.96932983 512.93255615
163.94451904 251.65496826 522.23162842
179.52677917 252.55073547 512.23748779
177.22369385 252.16706848 521.41870117
206.94476318 318.10034180 450.84588623
211.11724854 325.82696533 459.78021240
221.52172852 321.02731323 454.81817627
225.42062378 328.12896729 464.24404907
182.13124084 231.18016052 470.18414307
185.66539001 235.64399719 479.86581421
192.65916443 242.48625183 465.21545410
199.31599426 241.81207275 475.38641357
132.59204102 230.74784851 555.07757568
121.50473785 238.85479736 559.29675293
145.83229065 235.29397583 548.22229004
135.66133118 243.01504517 552.78009033
146.22039795 250.77699280 542.45788574
134.63044739 257.43603516 545.62023926
154.17834473 254.20965576 530.83093262
142.82638550 259.31069946 533.56359863
192.33889771 329.67919922 485.45004272
192.66639709 331.08206177 498.47454834
205.98394775 331.54745483 490.76239014
206.21746826 331.94812012 503.98260498
199.30932617 292.57843018 442.56878662
203.83097839 303.47668457 446.99035645
212.14923096 295.62326050 446.83688354
217.31922913 306.04998779 450.88702393
159.39170837 281.19088745 521.75122070
150.45069885 287.10928345 524.05987549
167.78892517 288.44711304 524.37292480
157.96047974 294.32659912 527.46166992
140.04287720 194.13613892 532.92077637
131.42658997 202.12966919 542.53570557
154.22393799 200.51605225 528.60156250
146.29269409 207.80564880 537.62927246
151.61114502 311.39154053 539.94671631
141.06431580 316.02774048 541.60644531
161.41177368 317.08447266 539.92169189
150.51799011 320.84936523 542.81640625
181.28384399 228.56347656 454.49346924
184.68121338 236.89729309 458.00201416
189.91680908 242.24188232 450.05630493
198.13720703 244.70156860 456.25274658
115.55963135 245.62019348 565.90911865
104.78593445 253.87617493 572.03436279
127.47875977 252.49845886 557.01928711
118.05510712 260.87786865 562.79309082
169.60491943 260.15060425 495.14282227
165.86059570 265.16824341 501.84411621
179.64465332 264.80902100 496.95993042
176.89007568 267.90393066 505.09579468
177.94876099 269.27343750 486.24795532
174.26115417 275.43872070 491.96173096
186.19583130 273.86846924 487.12313843
182.98086548 278.97952271 494.47833252
175.82360840 198.31138611 448.68847656
180.38862610 210.05479431 443.35278320
183.27999878 213.91589355 449.88726807
188.33990479 223.54861450 447.33843994
121.71157837 211.01728821 553.96997070
112.27236938 219.49568176 561.25732422
137.13594055 215.08300781 546.36566162
127.81459808 223.43684387 553.13818359
189.11557007 274.78286743 433.09286499
192.95776367 284.40225220 439.16027832
200.18284607 275.15902710 441.64019775
205.64086914 284.39474487 447.10934448
187.75273132 322.29171753 462.21286011
190.34384155 327.23596191 473.19561768
200.74276733 325.93041992 465.42230225
203.56074524 329.96832275 476.90325928
156.39024353 333.25048828 518.95104980
153.45996094 331.15924072 531.33502197
169.13397217 331.91665649 525.01843262
166.81141663 329.20434570 536.53057861
168.89292908 331.59707642 497.60046387
168.75794983 332.18139648 510.52713013
181.75703430 331.98089600 503.63232422
181.46621704 331.69897461 516.31878662
174.37236023 282.21621704 485.45227051
169.57490540 288.05456543 491.12158203
181.95219421 286.42092896 486.85290527
176.73660278 291.84558105 493.78552246
152.37568665 263.92715454 508.07418823
144.77806091 269.45190430 512.58361816
162.08624268 269.11495972 507.97854614
153.61897278 273.50372314 513.30865479
130.15716553 265.93334961 546.58807373
119.75045776 272.48785400 550.82952881
134.13391113 271.02548218 534.26501465
123.37356567 277.18521118 537.10437012
101.50534058 269.15386963 573.25769043
92.45980072 276.94277954 581.89172363
108.30117798 280.37905884 563.21234131
99.79943848 288.56610107 569.97259521
181.52960205 249.03660583 425.51968384
182.66210938 261.58514404 425.98413086
188.78027344 252.84654236 436.48034668
192.26438904 263.46121216 437.29257202
149.84573364 244.71844482 503.93368530
151.16381836 246.30537415 513.35290527
160.97752380 248.88146973 502.61923218
163.38180542 247.09883118 512.33868408
174.84220886 220.43649292 433.63165283
176.44691467 233.70121765 428.20700073
182.36254883 230.93884277 440.86843872
186.22253418 241.76036072 437.67050171
132.82278442 288.59280396 532.14318848
123.52146912 293.96408081 535.37371826
141.01649475 297.03002930 533.07556152
131.25700378 302.36907959 536.33227539
179.87930298 308.39202881 443.59075928
183.22550964 315.90734863 452.07360840
192.46678162 311.44351196 446.81576538
196.58253479 318.48068237 455.32083130
110.42189026 296.34613037 552.92907715
101.04495239 301.64398193 558.37152100
118.12628174 306.76171875 547.62286377
109.17192078 311.38568115 552.42474365
167.54371643 325.33212280 472.53115845
169.19123840 329.44451904 483.84310913
179.73696899 327.79867554 476.84155273
181.55546570 331.21493530 488.42480469
174.93013000 295.85235596 422.97528076
177.46174622 303.12304688 432.36334229
185.67823792 292.78027344 433.08840942
189.25354004 300.04095459 442.15399170
141.26170349 250.97326660 495.25817871
142.15058899 253.23742676 503.35180664
152.06820679 255.02160645 494.48114014
154.08938599 254.80026245 503.44436646
157.97827148 192.54809570 436.66925049
160.40702820 203.17944336 427.83502197
169.44645691 203.42410278 437.65899658
172.64642334 213.53279114 431.12615967
116.78512573 328.09936523 517.47308350
120.63621521 328.03332520 530.11505127
130.14215088 332.11044312 521.99694824
133.15808105 330.57385254 534.32757568
144.99658203 328.08724976 479.80963135
146.83760071 332.04510498 491.61978149
156.49533081 330.30639648 484.99407959
158.13340759 333.62701416 497.06222534
160.80291748 315.86065674 449.68127441
162.50717163 320.52243042 460.58395386
172.90332031 317.76449585 454.67889404
175.34764099 321.90808105 465.67056274
169.64163208 274.74536133 407.76000977
171.64668274 285.35000610 413.67395020
178.53147888 273.67163086 419.78143311
180.60159302 283.90264893 425.24612427
125.06724548 330.99975586 495.92501831
128.01310730 333.39682007 508.18887329
137.20544434 333.89001465 501.32742310
139.60305786 335.22698975 513.77813721
163.06750488 244.75875854 405.65478516
164.78593445 258.25479126 405.16223145
173.21511841 248.52200317 415.29785156
175.43701172 260.24429321 415.83358765
159.07087708 216.97241211 413.03063965
161.36563110 230.33499146 406.84088135
170.92939758 224.83694458 419.77252197
173.41041565 236.78163147 415.60617065
158.96690369 315.12057495 422.31915283
160.64668274 318.92605591 433.79122925
171.02558899 312.30981445 431.53598022
172.85716248 315.63824463 442.36749268
91.02634430 310.40374756 526.55310059
96.54219055 314.35046387 537.58258057
103.62382507 320.05758667 527.16949463
108.89057922 322.48800659 539.34881592
73.13764954 284.69387817 548.25396729
77.79498291 292.08911133 557.25280762
82.97721100 297.80847168 540.44946289
88.06379700 303.59790039 550.70941162
136.88404846 320.20104980 453.48815918
139.27221680 323.70739746 465.48068237
148.57353210 322.26782227 458.44741821
151.18466187 325.03796387 470.71572876
151.45045471 298.91720581 400.80957031
153.75520325 307.41339111 410.27770996
164.97428894 297.69601440 409.50149536
166.85423279 306.41238403 419.26098633
137.74757385 194.12722778 422.33807373
137.92161560 205.13002014 413.55718994
148.97860718 201.58029175 418.85452271
150.34060669 212.87222290 411.28247070
117.88941193 318.09924316 467.71591187
120.61174774 323.07019043 479.18576050
128.20826721 322.36291504 471.20141602
131.23532104 326.90011597 483.35406494
99.53475952 316.35995483 487.54461670
103.18234253 321.33422852 498.34945679
109.81025696 323.19805908 489.36508179
113.65800476 327.59295654 501.13516235
131.71350098 317.42199707 427.73715210
134.60821533 321.10848999 439.68518066
144.63237000 319.70950317 432.29327393
147.56155396 322.44628906 444.80624390
143.47137451 275.39700317 392.50024414
146.67190552 287.94113159 397.45336914
157.46783447 277.97702026 399.20599365
160.39646912 289.91394043 404.71405029
61.99197388 253.58496094 539.24291992
64.61922455 262.48815918 547.54779053
64.86666107 263.87823486 528.80114746
68.15837860 272.56570435 537.72436523
140.22080994 219.83375549 400.21463013
142.12689209 233.43653870 394.39407349
153.22196960 226.15473938 402.33978271
155.53729248 238.74665833 397.72082520
81.86848450 301.14355469 503.82324219
85.87414551 306.87182617 513.15124512
91.51120758 311.58474731 502.30639648
95.67366791 316.73361206 512.71087646
68.05328369 278.49926758 518.02337646
71.82875061 285.77218628 526.50177002
75.33370209 290.74011230 511.87918091
79.43389130 297.51928711 521.33618164
139.58811951 247.99459839 390.22479248
142.54454041 262.38473511 390.55398560
154.23179626 253.52824402 395.00320435
156.87184143 266.44042969 396.14501953
113.66578674 310.94866943 444.36697388
116.86186218 315.42138672 455.65890503
124.12921143 316.20315552 446.14184570
127.79235840 319.83294678 458.16104126
124.55624390 303.70578003 408.51620483
127.39312744 311.30563354 417.65295410
138.17460632 308.64666748 410.08200073
141.07264709 315.90625000 420.15063477
59.14786530 239.94880676 518.70190430
60.23657227 249.44807434 526.33734131
60.57074738 248.47834778 508.72668457
62.00476074 258.09103394 516.60681152
116.96083832 199.08259583 414.08099365
116.21408081 211.40429688 406.28317261
127.95500183 205.39579773 407.76834106
128.14057922 217.91098022 400.61331177
94.69171143 303.74246216 465.36389160
97.49967957 309.65420532 475.63940430
103.49594116 310.80184937 465.78204346
106.89775085 316.27322388 476.90270996
76.41435242 290.82525635 483.87869263
79.18729401 297.49542236 492.47052002
84.15489197 300.25445557 481.43215942
87.36542511 306.59326172 490.89361572
63.28697205 267.70819092 500.41732788
65.72684479 275.79513550 508.21960449
68.44278717 277.90249634 494.02740479
71.19737244 285.90716553 502.49911499
118.16297913 281.85144043 396.68603516
121.35794067 293.08776855 402.28640747
131.75465393 287.84603882 396.42916870
135.13198853 298.67535400 402.77905273
59.24989319 218.38806152 505.06353760
58.13254547 229.16175842 511.20437622
59.69068909 225.05601501 494.45443726
58.72875214 235.90533447 500.29055786
106.39343262 299.24972534 424.26528931
109.40545654 305.53512573 433.39758301
116.22464752 306.57379150 422.69281006
119.88779449 312.10296631 432.64358521
111.83532715 224.94480896 399.21932983
113.44351196 238.78335571 394.46191406
125.00774384 231.80403137 394.49026489
127.18350220 245.16661072 390.41677856
111.16252136 254.70146179 394.58242798
114.65663147 268.21530151 394.85125732
124.40055847 261.65188599 391.84744263
128.47071838 274.48068237 392.78659058
92.96411896 293.90402222 444.28915405
95.73149872 300.36065674 453.55487061
100.99045563 301.91867065 442.38528442
104.49790955 307.70141602 452.45614624
79.33130646 284.19790649 463.76141357
81.56488800 291.66876221 472.31097412
86.22555542 293.39245605 460.84780884
89.19921875 300.48300171 470.23809814
67.32877350 202.19638062 479.77072144
64.52191925 214.00653076 482.68518066
68.35466003 207.91685486 468.29196167
65.82192993 219.68695068 470.65234375
60.53572083 246.38766479 488.16458130
61.01223755 255.85356140 494.95040894
63.50994110 254.42344666 480.54248047
64.33314514 263.99835205 487.58853149
93.79149628 196.35581970 424.61001587
91.74696350 208.66415405 418.53814697
101.31323242 201.60699463 414.55694580
100.59664917 214.05323792 408.57849121
66.62705994 266.72958374 475.40447998
68.26346588 275.13235474 482.94650269
71.81484985 276.09594727 470.43826294
74.03564453 284.38751221 478.64752197
101.14169312 283.59350586 411.81903076
103.64161682 292.99267578 417.67071533
110.70435333 291.16485596 407.60876465
113.94268799 299.91903687 414.46575928
63.88025665 225.90563965 476.54794312
62.71537018 236.52363586 481.71905518
66.02738190 232.85827637 467.01086426
65.20014191 243.64530945 472.17309570
90.92298889 219.26882935 412.75540161
90.92018127 232.27110291 408.49731445
100.60791016 225.22949219 403.45852661
101.56678772 238.25845337 399.72308350
88.76718140 277.01840210 429.58483887
90.90735626 286.02392578 435.69009399
95.23663330 285.12023926 423.61361694
98.14912415 293.45849609 430.62854004
94.65167999 261.51843262 407.97741699
97.20164490 273.52874756 409.25292969
103.94299316 269.02709961 400.61499023
107.30032349 280.53475952 403.04150391
81.23683167 200.20800781 436.88833618
78.62458801 212.52525330 433.15292358
85.14796448 205.62155151 425.01483154
83.83410645 217.83869934 421.09365845
72.79193878 206.06637573 455.23187256
70.38820648 218.25906372 454.82263184
74.65117645 212.20942688 442.85150146
73.14515686 224.18859863 442.19512939
77.61538696 267.28784180 448.59616089
79.25624084 276.44235229 455.09954834
83.02836609 275.92691040 442.88348389
85.37037659 284.72335815 450.04742432
66.97830200 246.47441101 460.06323242
67.58148956 256.26504517 466.03948975
70.80731964 255.17520142 452.74975586
72.07395935 265.10818481 459.26422119
89.40718079 239.39944458 410.80484009
91.03413391 252.34834290 408.72973633
98.80413818 246.02513123 401.90942383
101.27737427 258.81610107 400.82376099
69.71527100 227.58651733 452.28933716
69.14624023 238.76055908 455.36810303
72.78613281 235.09963989 442.20178223
73.06481171 246.21807861 445.49462891
75.78047943 250.10418701 438.29843140
76.96204376 260.74887085 442.62103271
80.54846191 258.28009033 429.62322998
82.56352234 268.54669189 434.49850464
82.58827209 255.62893677 423.65921021
84.10595703 266.51382446 426.31927490
88.26841736 263.48568726 414.89501953
90.65213013 273.63885498 418.59039307
77.85058594 223.07208252 426.68624878
77.48444366 235.68736267 425.10821533
83.39236450 229.69999695 415.86807251
83.99975586 242.01501465 414.81411743
100.37577820 273.43963623 399.60226440
100.36727905 273.44812012 399.59518433
100.38026428 273.44332886 399.58541870
100.37429810 273.44952393 399.58590698
100.38910675 302.28155518 565.41394043
100.38105774 302.26681519 565.40966797
100.39148712 302.26867676 565.42529297
100.38884735 302.26892090 565.42126465
173.27635193 324.53146362 472.89065552
173.26985168 324.52029419 472.88854980
173.27195740 324.51586914 472.88687134
173.27104187 324.50994873 472.88650513
57.62300110 226.90171814 497.14547729
57.61773682 226.89541626 497.13885498
57.61915588 226.90403748 497.14782715
57.61650085 226.89916992 497.14248657
144.41415405 242.41532898 502.18231201
144.40666199 242.40705872 502.17980957
144.41600037 242.40786743 502.17239380
144.41654968 242.40470886 502.16482544
88.84432220 306.26086426 479.56140137
88.83409119 306.25836182 479.54177856
88.85232544 306.26086426 479.55749512
88.84676361 306.26107788 479.54394531
149.90187073 324.20077515 531.98278809
149.89347839 324.17971802 531.97772217
149.89645386 324.19104004 531.98809814
149.89213562 324.18182373 531.98431396
137.18374634 318.46047974 424.12658691
137.17256165 318.46334839 424.12319946
137.18461609 318.46228027 424.12872314
137.17749023 318.46798706 424.12918091
63.38728333 259.80776978 546.41253662
63.38100433 259.79949951 546.40307617
63.39202881 259.80911255 546.41918945
63.39141083 259.80917358 546.40966797
74.11930847 232.65350342 441.08560181
74.11550903 232.65278625 441.08148193
74.10950470 232.65235901 441.07666016
74.10485840 232.65266418 441.07592773
120.58624268 285.06774902 523.84149170
120.57051086 285.05911255 523.82702637
120.57762146 285.05926514 523.84252930
120.56874084 285.05880737 523.82867432
81.81268311 278.28918457 443.88180542
81.80912018 278.28738403 443.88031006
81.81483459 278.28512573 443.87380981
81.81007385 278.28710938 443.87661743
129.84886169 324.06854248 486.24200439
129.83219910 324.06240845 486.22723389
129.84262085 324.06188965 486.23596191
129.83056641 324.05908203 486.22616577
76.67387390 294.17544556 522.06597900
76.66520691 294.16833496 522.05163574
76.67835999 294.17504883 522.07104492
76.67502594 294.17407227 522.05950928
170.91696167 283.86825562 489.03686523
170.91448975 283.85974121 489.02343750
170.92327881 283.85977173 489.04183960
170.92678833 283.85540771 489.02947998
64.79116821 272.38577271 488.17471313
64.78375244 272.38021851 488.15631104
64.79245758 272.38726807 488.16723633
64.78761292 272.38403320 488.15493774
109.31199646 327.73455811 525.66040039
109.29971313 327.72695923 525.65502930
109.31535339 327.72863770 525.66802979
109.30895996 327.73065186 525.66351318
157.56713867 284.80102539 526.57263184
157.55990601 284.78979492 526.55981445
157.57275391 284.78384399 526.57623291
157.57055664 284.78085327 526.56359863
109.09996033 311.41073608 447.19604492
109.08857727 311.41259766 447.18331909
109.10742950 311.41183472 447.19473267
109.09764099 311.41592407 447.18789673
112.87940979 300.96533203 411.58441162
112.86439514 300.97253418 411.57983398
112.88565063 300.96905518 411.58297729
112.87229919 300.97659302 411.58462524
128.93591309 311.76354980 553.49188232
128.92619324 311.74383545 553.49145508
128.93823242 311.75222778 553.49499512
128.93365479 311.74618530 553.49291992
161.85490417 334.87860107 501.14907837
161.84310913 334.86856079 501.14303589
161.86177063 334.86401367 501.14624023
161.85292053 334.86059570 501.14480591
64.15132904 245.00714111 471.40893555
64.14766693 245.00328064 471.39883423
64.14626312 245.01121521 471.40637207
64.14363098 245.00674438 471.40173340
147.32501221 325.08813477 453.84677124
147.31356812 325.08804321 453.83956909
147.31510925 325.08871460 453.84439087
147.30715942 325.09197998 453.84112549
71.64201355 286.38867188 561.24267578
71.63456726 286.37966919 561.23474121
71.65008545 286.39007568 561.24090576
71.64975739 286.38888550 561.23535156
89.99098206 248.32199097 415.45016479
89.98565674 248.32458496 415.45050049
89.98994446 248.32601929 415.43762207
89.98444366 248.32824707 415.44168091
139.40234375 259.92739868 526.41131592
139.39279175 259.92034912 526.40594482
139.40777588 259.91412354 526.41284180
139.40516663 259.91552734 526.40643311
60.59336853 253.95063782 511.78512573
60.58901978 253.94410706 511.77294922
60.59322357 253.95376587 511.79226685
60.59352112 253.95043945 511.78167725
115.49870300 280.24630737 554.01269531
115.49019623 280.23358154 554.00421143
115.49571228 280.22872925 554.02050781
115.49227905 280.22671509 554.01452637
100.80045319 321.48846436 500.26367188
100.78790283 321.48419189 500.25527954
100.80068970 321.48336792 500.25930786
100.79158020 321.48406982 500.25622559
136.39541626 336.98443604 510.45837402
136.38093567 336.97589111 510.44830322
136.38700867 336.97637939 510.45629883
136.37791443 336.97576904 510.45037842
91.06985474 310.54498291 542.50640869
91.05743408 310.53591919 542.49468994
91.07897949 310.53927612 542.51336670
91.07351685 310.53976440 542.50311279
159.25370789 266.99707031 507.61685181
159.24249268 266.99310303 507.60552979
159.25627136 266.99194336 507.62051392
159.25437927 266.99420166 507.60757446
95.23198700 296.25567627 431.22647095
95.22421265 296.25924683 431.22201538
95.23618317 296.25418091 431.22445679
95.22837830 296.26000977 431.22500610
79.19664764 286.98248291 467.29476929
79.19134521 286.97967529 467.27487183
79.19774628 286.98178101 467.28775024
79.19489288 286.98150635 467.27572632
74.27436066 258.49600220 454.70962524
74.27239990 258.49249268 454.69848633
74.26895905 258.49307251 454.70651245
74.26788330 258.49200439 454.70162964
168.83935547 316.80270386 449.25961304
168.83239746 316.79586792 449.26306152
168.83853149 316.78948975 449.25256348
168.83529663 316.78845215 449.25668335
114.44498444 304.94955444 536.45837402
114.43249512 304.93508911 536.45410156
114.44121552 304.93991089 536.46063232
114.43296051 304.93801880 536.45599365
125.99733734 320.26641846 461.87924194
125.98959351 320.26373291 461.87274170
125.99602509 320.26522827 461.87533569
125.98999786 320.26763916 461.87161255
142.82719421 299.29711914 536.69628906
142.81498718 299.28543091 536.68658447
142.82833862 299.28265381 536.69677734
142.82254028 299.28033447 536.68719482
82.76802063 305.18203735 503.09396362
82.76184082 305.17498779 503.08197021
82.77357483 305.17742920 503.09591675
82.77088928 305.17416382 503.08871460
67.08554840 222.95193481 473.11849976
67.08425140 222.94610596 473.11349487
67.08537292 222.95602417 473.11834717
67.08476257 222.95283508 473.11532593
77.11466217 254.67449951 432.91375732
77.11098480 254.67356873 432.90881348
77.11273193 254.67843628 432.90744019
77.10726929 254.67944336 432.90686035
60.31402588 243.03337097 532.13946533
60.30808258 243.02728271 532.13061523
60.31800079 243.03532410 532.14862061
60.31896973 243.03507996 532.14111328
137.55364990 304.49948120 406.86648560
137.53709412 304.50588989 406.86492920
137.55938721 304.50061035 406.86416626
137.54660034 304.50961304 406.86566162
129.44812012 329.33862305 538.75329590
129.43820190 329.32229614 538.74713135
129.44775391 329.32699585 538.76306152
129.44313049 329.32308960 538.75769043
151.93756104 324.23788452 477.11248779
151.92344666 324.23327637 477.10711670
151.92874146 324.23571777 477.10852051
151.91879272 324.23635864 477.10403442
88.03169250 279.33258057 420.30584717
88.02710724 279.33575439 420.29864502
88.03266907 279.33209229 420.30175781
88.02612305 279.33587646 420.30157471
69.27252197 275.05377197 528.00958252
69.26504517 275.04718018 527.99157715
69.27091217 275.05755615 528.01263428
69.27028656 275.05694580 527.99780273
109.00724792 312.90460205 471.48977661
108.99569702 312.90307617 471.47949219
109.01107788 312.89999390 471.48535156
109.00101471 312.90206909 471.47848511
127.31354523 271.74768066 538.60070801
127.30381775 271.73461914 538.59765625
127.31713867 271.72488403 538.60601807
127.31474304 271.72183228 538.60156250
95.31570435 301.10327148 458.86441040
95.30614471 301.10156250 458.84695435
95.31903839 301.10165405 458.86175537
95.31146240 301.10263062 458.85083008
58.04927063 250.39083862 489.90502930
58.04551697 250.38380432 489.88955688
58.04563904 250.39617920 489.90966797
58.04574585 250.39160156 489.90054321
70.38667297 288.29278564 499.15951538
70.37825012 288.28707886 499.14212036
70.39374542 288.29257202 499.15588379
70.38961029 288.29013062 499.14459229
110.81729126 319.74328613 552.36999512
110.80487061 319.73236084 552.36138916
110.81684875 319.73471069 552.37188721
110.81022644 319.73635864 552.36431885
76.73845673 291.26431274 541.57617188
76.73084259 291.25537109 541.56292725
76.74306488 291.26202393 541.58306885
76.74128723 291.26144409 541.57269287
125.57086182 317.85250854 440.21441650
125.56056213 317.85360718 440.21084595
125.57093811 317.85238647 440.21444702
125.56143951 317.85653687 440.21484375
80.50260925 303.03503418 561.96441650
80.49592590 303.02389526 561.95355225
80.50329590 303.02978516 561.96264648
80.50416565 303.02932739 561.95355225
118.48176575 333.27716064 506.36273193
118.46958923 333.27175903 506.34658813
118.47751617 333.27182007 506.36203003
118.46987915 333.27337646 506.35180664
110.61894226 308.08563232 428.67883301
110.60899353 308.08743286 428.67355347
110.62252808 308.08456421 428.68182373
110.61424255 308.08843994 428.68133545
71.60646820 266.73999023 471.89288330
71.60305023 266.73397827 471.88540649
71.60709381 266.73477173 471.89190674
71.60495758 266.73364258 471.88916016
95.14767456 316.01885986 523.51330566
95.13548279 316.01232910 523.49871826
95.15117645 316.02056885 523.51452637
95.14505005 316.02191162 523.50311279
57.72947693 235.27734375 513.63677979
57.72533417 235.27105713 513.62713623
57.72594452 235.28161621 513.64166260
57.72577667 235.27885437 513.63439941
142.05323792 278.70132446 520.19799805
142.03739929 278.69451904 520.18750000
142.05043030 278.68997192 520.19091797
142.04174805 278.69024658 520.17950439
104.81346130 293.59954834 546.10754395
104.80121613 293.58782959 546.09179688
104.80629730 293.59710693 546.11041260
104.79940033 293.59487915 546.09704590
154.32734680 314.72970581 423.61016846
154.31629944 314.73242188 423.60952759
154.32662964 314.73254395 423.61199951
154.31877136 314.73873901 423.61340332
63.70794678 271.07232666 510.96554565
63.70044708 271.06570435 510.95007324
63.70816040 271.07543945 510.96963501
63.70514679 271.07385254 510.95858765
156.13452148 253.24859619 496.63009644
156.13308716 253.24021912 496.62570190
156.14016724 253.24240112 496.62515259
156.14524841 253.23796082 496.61941528
69.64780426 224.16064453 456.47933960
69.64436340 224.15711975 456.47439575
69.64138794 224.15759277 456.46926880
69.63883972 224.15501404 456.46841431
144.52017212 333.46420288 496.13095093
144.51118469 333.45632935 496.11608887
144.51327515 333.46139526 496.12887573
144.50703430 333.45825195 496.11849976
68.88334656 275.92361450 548.46197510
68.87480927 275.91433716 548.45141602
68.88653564 275.91989136 548.46643066
68.88341522 275.91879272 548.45684814
157.55577087 331.02886963 519.18560791
157.54890442 331.01129150 519.18280029
157.55661011 331.01550293 519.18450928
157.55310059 331.00765991 519.18377686
105.42948914 288.87200928 403.80783081
105.41800690 288.87918091 403.80413818
105.43812561 288.87167358 403.80282593
105.42907715 288.87863159 403.80407715
144.53398132 259.18652344 506.06594849
144.52711487 259.17813110 506.05883789
144.53480530 259.18295288 506.06286621
144.53471375 259.18081665 506.05438232
76.68645477 287.85491943 484.47067261
76.67996216 287.84832764 484.45751953
76.69441223 287.84805298 484.46972656
76.68938446 287.84512329 484.46188354
63.44205475 259.48968506 530.44635010
63.43410492 259.48144531 530.42926025
63.44270325 259.48794556 530.45159912
63.44101715 259.48660278 530.43780518
141.75549316 315.25128174 545.11462402
141.74731445 315.23056030 545.10784912
141.75448608 315.24191284 545.11718750
141.74972534 315.23324585 545.10986328
129.81370544 247.59852600 500.72460938
129.79899597 247.59292603 500.71319580
129.79818726 247.59883118 500.71258545
129.79434204 247.59729004 500.69805908
151.65943909 323.24121094 439.10061646
151.64912415 323.24194336 439.09304810
151.65051270 323.24084473 439.10211182
151.64448547 323.24523926 439.09881592
96.63858795 261.85986328 408.96743774
96.63404846 261.86257935 408.96798706
96.63825989 261.86010742 408.95602417
96.63298035 261.86346436 408.96166992
123.90859985 311.37393188 413.79284668
123.89688110 311.37899780 413.79101562
123.91127014 311.37704468 413.79446411
123.90186310 311.38385010 413.79748535
133.29386902 292.94689941 526.63317871
133.27882385 292.93872070 526.61553955
133.28823853 292.93920898 526.62951660
133.27799988 292.93875122 526.61260986
69.82201385 239.13888550 454.93936157
69.81838989 239.13560486 454.93359375
69.81980896 239.13899231 454.93075562
69.81659698 239.13775635 454.92861938
166.06793213 330.30596924 487.73645020
166.05902100 330.29611206 487.72833252
166.07080078 330.29501343 487.73425293
166.06459045 330.29064941 487.72952271
163.14292908 265.53219604 492.42141724
163.14318848 265.51721191 492.41925049
163.15002441 265.51885986 492.42401123
163.15765381 265.50994873 492.41839600
106.07413483 320.01571655 484.04635620
106.06278992 320.01226807 484.02655029
106.07508850 320.01629639 484.04162598
106.06735229 320.01623535 484.02874756
93.17913055 294.41360474 445.49304199
93.17057800 294.41314697 445.48550415
93.18437958 294.40991211 445.49383545
93.17599487 294.41354370 445.49081421
128.74209595 273.71017456 518.05212402
128.72761536 273.70220947 518.04058838
128.73190308 273.70324707 518.05346680
128.72427368 273.70159912 518.04266357
85.52020264 306.90176392 518.17663574
85.51318359 306.89398193 518.16040039
85.52388000 306.90338135 518.17803955
85.52145386 306.90264893 518.16644287
138.58078003 334.80282593 529.32470703
138.57118225 334.78668213 529.31396484
138.57498169 334.79058838 529.32757568
138.56927490 334.78485107 529.31921387
97.43800354 292.11773682 417.96304321
97.42776489 292.12322998 417.95529175
97.44581604 292.11587524 417.96258545
97.43786621 292.12213135 417.96105957
88.52701569 265.35223389 419.90826416
88.52212524 265.35394287 419.90502930
88.52262878 265.35220337 419.90295410
88.51731110 265.35537720 419.90496826
104.19514465 308.14498901 546.45092773
104.18614960 308.13128662 546.44812012
104.19438171 308.13781738 546.45422363
104.19040680 308.13720703 546.45172119
121.17990875 317.89813232 477.31399536
121.16517639 317.89511108 477.30371094
121.17636108 317.89587402 477.31018066
121.16524506 317.89630127 477.30319214
75.40495300 241.38453674 429.47140503
75.39935303 241.38586426 429.46405029
75.39610291 241.38255310 429.46560669
75.38989258 241.38371277 429.46383667
130.23269653 302.77578735 541.00299072
130.21842957 302.76168823 540.99145508
130.22743225 302.76672363 540.99932861
130.21763611 302.76361084 540.98852539
92.01706696 316.52886963 510.12075806
92.00865173 316.52139282 510.10671997
92.01589966 316.52304077 510.12429810
92.01139832 316.52182007 510.11486816
110.94381714 292.24841309 534.17346191
110.93130493 292.23663330 534.16094971
110.93870544 292.23956299 534.17919922
110.93162537 292.23590088 534.16790771
122.44285583 333.43627930 519.12078857
122.42974091 333.42889404 519.11425781
122.43795776 333.43197632 519.12268066
122.43013000 333.43341064 519.11853027
101.01789856 319.25781250 539.76104736
101.00918579 319.24615479 539.75305176
101.01945496 319.25253296 539.76696777
101.01549530 319.25170898 539.75854492
164.94458008 320.72460938 463.18844604
164.93614197 320.71743774 463.18862915
164.94010925 320.71469116 463.18127441
164.93473816 320.71215820 463.18255615
61.75965881 257.81710815 479.56774902
61.75316620 257.81161499 479.54602051
61.75413513 257.82226562 479.56915283
61.75157166 257.81796265 479.55612183
74.11955261 247.43205261 443.44482422
74.11421967 247.43145752 443.43649292
74.11354828 247.43281555 443.44122314
74.10888672 247.43263245 443.43670654
77.07363892 276.43215942 455.94573975
77.07157135 276.43020630 455.93460083
77.07658386 276.43096924 455.94100952
77.07498932 276.43118286 455.93542480
124.63816071 313.50491333 426.50305176
124.62478638 313.50799561 426.49575806
124.64440918 313.50213623 426.50909424
124.63366699 313.50848389 426.50662231
133.67562866 321.39422607 472.11907959
133.66166687 321.39144897 472.10772705
133.67199707 321.38732910 472.11526489
133.66169739 321.38983154 472.10653687
121.50872040 325.39083862 548.36389160
121.49903870 325.37570190 548.36547852
121.51076508 325.37661743 548.36785889
121.50608826 325.37524414 548.36853027
118.50434113 328.62710571 494.51190186
118.49107361 328.62292480 494.49578857
118.50013733 328.62576294 494.51089478
118.49044037 328.62548828 494.49908447
119.03127289 311.51519775 545.97326660
119.02031708 311.49996948 545.96539307
119.02880096 311.50384521 545.97949219
119.02222443 311.50268555 545.97113037
100.33352661 290.43109131 562.14880371
100.32503510 290.41610718 562.14202881
100.32638550 290.41705322 562.14727783
100.32215881 290.41534424 562.14044189
117.50479126 290.35287476 402.09265137
117.48999786 290.36074829 402.09045410
117.51039124 290.35299683 402.08868408
117.49817657 290.36166382 402.09082031
117.80252075 279.32830811 537.02197266
117.79062653 279.31771851 537.01531982
117.80088043 279.31365967 537.02966309
117.79486084 279.31201172 537.02160645
89.79524231 307.68295288 555.46087646
89.78868103 307.67059326 555.44775391
89.79483032 307.67590332 555.46221924
89.79525757 307.67456055 555.45172119
83.63214111 303.16491699 536.16754150
83.62197113 303.15414429 536.15869141
83.63908386 303.16207886 536.17303467
83.63510895 303.16088867 536.16455078
87.62150574 283.31747437 434.37902832
87.61815643 283.31842041 434.37649536
87.62248993 283.31716919 434.36987305
87.61663818 283.32012939 434.37060547
58.22036743 260.61578369 501.87384033
58.21450043 260.61044312 501.85842896
58.22002411 260.61749268 501.87271118
58.21735382 260.61486816 501.86218262
141.47059631 329.50601196 540.47576904
141.46357727 329.48461914 540.47277832
141.46786499 329.48956299 540.48211670
141.46488953 329.48220825 540.48059082
158.49617004 323.43392944 449.51995850
158.48883057 323.42913818 449.51782227
158.49098206 323.42639160 449.51620483
158.48672485 323.42700195 449.51693726
105.01011658 308.11697388 460.33529663
104.99879456 308.11480713 460.32183838
105.01304626 308.11361694 460.33435059
105.00271606 308.11431885 460.32681274
61.53286743 223.55953979 483.63995361
61.52803040 223.55357361 483.62783813
61.53415680 223.56382751 483.64492798
61.53245544 223.56015015 483.63717651
146.98001099 267.24456787 514.46246338
146.96649170 267.23873901 514.45153809
146.97572327 267.23461914 514.46319580
146.96907043 267.23535156 514.45159912
123.68278503 304.03958130 404.50097656
123.66757202 304.04727173 404.49383545
123.68770599 304.04312134 404.49380493
123.67606354 304.05133057 404.49282837
58.25927734 238.60534668 490.96920776
58.25616455 238.59773254 490.95867920
58.25182343 238.60862732 490.97143555
58.25230408 238.60423279 490.96557617
81.02828217 297.18218994 490.23123169
81.02174377 297.17584229 490.22018433
81.03392029 297.17562866 490.22973633
81.02947235 297.17440796 490.22280884
146.81669617 287.30334473 530.29467773
146.80673218 287.29162598 530.28454590
146.81941223 287.28845215 530.29016113
146.81506348 287.28576660 530.28118896
140.96960449 252.61726379 514.97576904
140.96826172 252.60818481 514.97497559
140.97775269 252.60317993 514.96984863
140.98344421 252.59938049 514.96649170
59.12716675 262.40841675 489.91851807
59.11937714 262.40176392 489.90213013
59.12832642 262.41091919 489.91381836
59.12326050 262.40582275 489.90390015
73.10826874 290.49081421 511.67956543
73.09791565 290.48709106 511.66409302
73.11118317 290.49230957 511.68246460
73.10529327 290.49450684 511.67114258
66.60889435 268.59161377 539.81091309
66.60206604 268.58401489 539.79864502
66.61521912 268.59109497 539.81469727
66.61358643 268.59194946 539.80517578
107.35910034 328.60644531 506.37301636
107.34777069 328.60003662 506.35678101
107.35171509 328.60519409 506.37188721
107.34458160 328.60470581 506.36151123
74.34593201 260.99829102 443.58850098
74.34157562 260.99771118 443.57867432
74.33783722 260.99859619 443.58688354
74.33247375 260.99896240 443.58209229
154.03126526 314.83154297 536.96002197
154.01010132 314.81936646 536.94500732
154.03581238 314.81478882 536.96282959
154.02075195 314.81124878 536.94946289
95.77709961 274.94876099 409.89776611
95.76707458 274.95532227 409.89471436
95.77930450 274.94912720 409.88882446
95.76905060 274.95535278 409.89099121
57.77807617 249.32647705 501.55169678
57.77526093 249.31811523 501.53796387
57.77342224 249.32884216 501.55590820
57.77523804 249.32455444 501.54626465
64.76680756 279.31695557 503.37985229
64.75885773 279.31176758 503.35940552
64.77117157 279.31970215 503.37832642
64.76792908 279.31796265 503.36282349
141.59085083 325.95431519 488.37149048
141.57054138 325.94873047 488.35812378
141.58398438 325.94708252 488.36654663
141.57002258 325.94619751 488.35778809
85.89894867 288.05889893 451.11193848
85.89093018 288.05697632 451.10531616
85.90219879 288.05560303 451.10424805
85.89507294 288.05688477 451.10089111
89.76375580 308.74566650 490.38265991
89.75358582 308.74191284 490.36489868
89.76934052 308.74365234 490.37945557
89.76237488 308.74362183 490.36764526
149.91598511 334.08865356 511.81756592
149.90336609 334.07684326 511.80792236
149.91184998 334.08322144 511.81433105
149.90286255 334.07965088 511.80792236
70.17787933 254.40747070 464.04867554
70.17506409 254.40243530 464.03939819
70.17111206 254.40802002 464.04379272
70.16845703 254.40478516 464.03756714
86.68379211 296.15069580 463.49639893
86.67430878 296.14776611 463.48175049
86.69058990 296.14663696 463.49255371
86.68183899 296.14517212 463.48364258
96.59313965 308.91879272 472.63775635
96.58311462 308.91708374 472.62121582
96.60038757 308.91610718 472.63223267
96.59260559 308.91699219 472.62185669
129.62022400 268.75952148 527.50335693
129.60891724 268.74963379 527.49737549
129.62379456 268.74237061 527.49987793
129.61791992 268.74066162 527.49377441
96.45114136 315.20938110 485.16687012
96.44290924 315.20544434 485.14984131
96.45169067 315.20639038 485.16574097
96.44575500 315.20590210 485.15563965
73.08403015 283.53845215 535.33386230
73.07547760 283.52993774 535.31896973
73.08496094 283.53680420 535.33966064
73.08325195 283.53677368 535.32733154
117.24692535 314.35617065 434.04907227
117.23536682 314.35867310 434.04330444
117.24742889 314.35687256 434.04797363
117.23806763 314.36190796 434.04693604
172.72167969 292.65679932 494.64242554
172.71003723 292.64700317 494.63452148
172.72856140 292.64669800 494.65591431
172.72402954 292.64050293 494.64938354
101.54489136 314.23925781 554.59698486
101.53646851 314.22427368 554.58972168
101.54064178 314.22454834 554.60229492
101.53672791 314.22271729 554.59606934
121.28134155 318.63653564 452.66085815
121.27285767 318.63513184 452.64865112
121.27871704 318.64001465 452.66397095
121.27423859 318.64181519 452.65652466
143.57913208 324.07366943 470.25588989
143.56594849 324.06829834 470.24517822
143.56787109 324.06848145 470.25317383
143.55944824 324.06713867 470.24798584
137.62750244 242.88748169 510.05053711
137.62019348 242.87864685 510.04907227
137.63084412 242.88076782 510.03839111
137.63137817 242.87734985 510.03375244
133.60354614 320.85879517 551.94281006
133.59919739 320.84014893 551.93560791
133.60359192 320.84762573 551.94580078
133.60206604 320.84179688 551.93908691
60.93514252 250.94070435 521.51214600
60.93066406 250.93487549 521.49835205
60.93480682 250.94558716 521.51715088
60.93457031 250.94543457 521.50622559
62.57350159 239.29943848 479.67340088
62.57000732 239.29382324 479.66079712
62.56382751 239.30278015 479.67541504
62.56292725 239.29821777 479.66799927
152.28756714 296.68334961 534.32836914
152.27470398 296.67150879 534.31286621
152.28727722 296.66473389 534.32983398
152.28086853 296.66195679 534.31561279
108.31272125 324.64599609 535.37951660
108.30313873 324.63409424 535.36822510
108.31163025 324.63833618 535.38684082
108.30738831 324.63690186 535.37756348
75.28209686 296.92446899 500.82467651
75.27599335 296.91735840 500.80459595
75.28582001 296.92788696 500.82080078
75.28344727 296.92443848 500.80798340
82.06810760 266.11352539 427.58923340
82.06473541 266.11386108 427.58334351
82.06109619 266.11325073 427.57855225
82.05673218 266.11428833 427.57919312
94.81146240 311.98150635 563.01068115
94.80638123 311.96847534 563.00158691
94.81683350 311.96649170 563.01531982
94.81670380 311.96578979 563.00805664
156.16076660 329.73452759 489.02111816
156.14799500 329.72705078 489.00961304
156.15724182 329.72885132 489.01959229
156.15032959 329.72625732 489.01232910
126.65043640 299.38327026 530.38769531
126.63546753 299.37359619 530.37322998
126.64810944 299.37823486 530.39080811
126.63681030 299.37753296 530.37658691
65.07924652 270.92840576 556.19329834
65.07253265 270.92044067 556.18359375
65.08000183 270.93298340 556.19476318
65.08015442 270.93188477 556.18701172
111.17695618 283.58160400 545.80023193
111.16310120 283.57089233 545.78869629
111.16949463 283.57614136 545.80310059
111.16085815 283.57516479 545.79364014
90.63243103 311.77612305 501.59249878
90.62387085 311.76965332 501.58203125
90.63398743 311.77719116 501.58898926
90.62857056 311.77648926 501.58221436
137.14048767 321.00897217 433.61355591
137.12847900 321.01165771 433.61004639
137.14053345 321.01239014 433.61529541
137.13043213 321.01861572 433.61633301
77.79247284 299.97930908 509.80032349
77.78097534 299.97250366 509.78707886
77.80051422 299.97280884 509.79830933
77.79463959 299.97103882 509.78982544
123.38213348 276.43869019 527.37872314
123.36769867 276.42834473 527.36773682
123.37456512 276.42654419 527.38232422
123.36747742 276.42507935 527.37091064
109.44792175 302.99688721 420.48132324
109.43746185 303.00054932 420.48098755
109.44999695 302.99588013 420.47900391
109.44033813 303.00067139 420.48251343
76.87779999 291.74661255 531.80737305
76.86711884 291.73904419 531.79724121
76.88408661 291.74172974 531.81390381
76.87976837 291.74240112 531.80590820
134.91864014 265.42999268 519.82946777
134.90138245 265.42340088 519.82006836
134.91081238 265.41705322 519.83380127
134.90206909 265.41665649 519.82287598
91.46191406 311.67935181 531.24444580
91.44885254 311.67260742 531.23217773
91.46369934 311.67434692 531.24847412
91.45817566 311.67681885 531.23773193
122.71425629 331.89276123 528.58892822
122.70281982 331.88034058 528.58331299
122.71215820 331.88751221 528.59631348
122.70646667 331.88552856 528.59222412
94.78338623 283.84036255 413.34765625
94.77588654 283.84637451 413.33883667
94.78875732 283.84158325 413.34423828
94.78253937 283.84780884 413.34191895
61.67948151 269.44985962 500.97247314
61.67287445 269.44470215 500.95568848
61.67838287 269.45364380 500.97399902
61.67592621 269.45196533 500.96228027
78.76598358 247.44204712 422.97100830
78.75844574 247.44496155 422.96191406
78.75375366 247.44325256 422.95874023
78.74751282 247.44491577 422.95663452
74.67752075 295.55548096 561.53936768
74.67178345 295.54345703 561.52630615
74.67634583 295.56030273 561.53381348
74.67746735 295.55795288 561.52416992
127.46435547 333.71575928 503.35513306
127.45261383 333.71026611 503.34130859
127.46014404 333.70812988 503.35046387
127.45234680 333.70730591 503.34216309
99.54197693 322.22677612 510.99243164
99.53067017 322.22128296 510.97817993
99.54231262 322.22048950 510.99700928
99.53472900 322.22235107 510.98608398
131.42733765 321.95062256 446.43237305
131.41807556 321.95080566 446.42462158
131.42309570 321.95635986 446.43527222
131.41714478 321.95953369 446.43188477
83.52556610 274.84371948 435.26959229
83.52146912 274.84301758 435.26394653
83.52526855 274.84204102 435.26245117
83.51902771 274.84506226 435.26162720
133.68966675 315.75259399 415.84527588
133.67893982 315.75613403 415.84085083
133.68995667 315.75781250 415.84509277
133.68264771 315.76327515 415.84564209
107.01530457 283.86642456 561.64355469
107.00514221 283.85406494 561.63665771
107.01437378 283.85058594 561.65142822
107.00967407 283.84918213 561.64501953
115.26486206 324.64559937 486.69512939
115.25529480 324.64404297 486.67874146
115.26703644 324.64385986 486.68719482
115.26130676 324.64379883 486.67724609
100.98381042 301.84954834 426.44812012
100.97331238 301.85363770 426.44186401
100.99227905 301.84710693 426.44409180
100.98321533 301.85202026 426.44354248
72.09170532 286.30575562 519.94116211
72.08392334 286.29855347 519.92761230
72.09236908 286.30288696 519.94616699
72.08959961 286.30255127 519.93682861
70.44292450 275.12777710 481.30819702
70.43785095 275.12170410 481.29501343
70.44696045 275.12808228 481.30496216
70.44444275 275.12548828 481.29614258
78.23448944 264.92254639 435.97598267
78.23052216 264.92236328 435.96850586
78.22929382 264.92190552 435.96966553
78.22354889 264.92312622 435.96856689
134.82072449 323.01217651 462.66595459
134.81108093 323.01043701 462.65975952
134.81701660 323.00988770 462.65994263
134.80883789 323.01263428 462.65643311
65.02577209 267.67941284 519.39263916
65.01838684 267.67181396 519.38287354
65.03097534 267.67913818 519.39709473
65.02737427 267.67752075 519.38995361
103.02485657 322.61990356 521.38018799
103.01422119 322.61157227 521.37023926
103.02743530 322.61425781 521.38574219
103.02120209 322.61450195 521.37872314
148.53076172 330.52514648 520.62200928
148.51416016 330.51055908 520.61474609
148.52453613 330.51489258 520.62109375
148.51249695 330.51098633 520.61553955
160.06105042 325.50137329 481.06323242
160.04519653 325.49517822 481.05297852
160.05789185 325.49166870 481.06161499
160.04708862 325.49047852 481.05490112
74.45133972 287.59744263 552.65893555
74.44388580 287.58587646 552.65136719
74.45635223 287.58886719 552.66351318
74.45372772 287.58822632 552.65649414
67.35870361 281.47018433 493.99188232
67.35117340 281.46505737 493.97207642
67.35673523 281.47283936 493.98773193
67.35224152 281.47067261 493.97479248
140.68185425 324.60134888 447.72021484
140.67251587 324.59954834 447.71392822
140.67147827 324.59967041 447.71960449
140.66564941 324.60076904 447.71685791
116.60173035 308.23941040 418.76245117
116.58737183 308.24441528 418.76269531
116.60936737 308.23858643 418.76379395
116.59834290 308.24496460 418.76724243
139.61323547 305.94641113 541.83917236
139.59744263 305.93255615 541.83013916
139.61141968 305.93316650 541.84057617
139.60163879 305.93127441 541.83032227
104.41116333 307.23321533 440.77694702
104.40190125 307.23556519 440.76907349
104.41613007 307.22894287 440.77896118
104.40710449 307.23379517 440.77648926
65.83581543 231.37683105 470.31283569
65.83082581 231.37277222 470.30392456
65.82723999 231.37634277 470.31265259
65.82444000 231.37330627 470.30792236
122.38876343 317.02212524 556.49163818
122.38085175 317.00497437 556.48736572
122.39017487 317.01187134 556.49554443
122.38709259 317.00872803 556.49011230
58.96392822 242.72579956 518.38690186
58.96039581 242.71644592 518.37927246
58.96325684 242.72497559 518.39361572
58.96415710 242.72181702 518.38720703
164.49639893 320.75628662 442.55334473
164.48840332 320.75494385 442.54986572
164.49340820 320.75372314 442.55380249
164.48858643 320.75631714 442.55377197
76.92180634 271.85513306 447.49475098
76.91711426 271.85339355 447.48162842
76.91517639 271.85385132 447.49133301
76.91117859 271.85418701 447.48471069
98.51300049 301.11126709 443.28201294
98.50307465 301.11218262 443.27169800
98.51822662 301.10836792 443.27999878
98.50862122 301.11294556 443.27563477
68.71066284 278.87588501 557.61395264
68.70487976 278.86773682 557.60363770
68.71440887 278.87329102 557.61364746
68.71332550 278.87344360 557.60559082
94.50798035 315.04315186 494.31576538
94.49900055 315.03826904 494.30404663
94.50941467 315.04141235 494.30773926
94.50271606 315.04074097 494.30184937
85.28209686 299.42541504 475.30523682
85.27021790 299.42245483 475.28491211
85.28517914 299.42462158 475.30212402
85.27751160 299.42172241 475.28787231
91.49002838 256.92694092 416.52453613
91.48508453 256.92980957 416.52548218
91.49411011 256.92755127 416.51028442
91.48906708 256.93008423 416.51651001
152.38714600 335.55245972 503.51455688
152.37594604 335.54199219 503.50506592
152.38197327 335.54534912 503.51202393
152.37391663 335.54052734 503.50628662
106.63605499 288.14465332 552.71746826
106.62431335 288.13366699 552.70574951
106.63022614 288.13598633 552.72473145
106.62300110 288.13555908 552.71380615
173.10333252 328.41699219 482.90600586
173.09719849 328.40695190 482.89675903
173.10836792 328.40695190 482.90368652
173.10484314 328.40185547 482.89749146
130.65693665 334.32113647 521.89654541
130.64578247 334.30786133 521.89013672
130.65399170 334.30917358 521.89831543
130.64692688 334.30633545 521.89508057
90.59878540 302.69494629 467.72586060
90.58961487 302.69238281 467.70776367
90.60723114 302.69335938 467.71975708
90.59954834 302.69375610 467.70831299
153.66407776 261.83953857 503.40640259
153.65513611 261.83245850 503.39956665
153.66894531 261.83761597 503.39791870
153.66822815 261.83572388 503.39004517
89.22030640 285.90942383 425.79565430
89.21530151 285.91302490 425.78759766
89.22381592 285.90838623 425.79376221
89.21749115 285.91305542 425.79199219
74.47810364 275.18750000 473.67749023
74.47444916 275.18353271 473.66787720
74.48165894 275.18502808 473.67617798
74.47819519 275.18341064 473.67016602
66.18281555 234.48391724 461.22433472
66.17613983 234.48059082 461.20999146
66.17072296 234.47994995 461.22479248
66.16612244 234.47787476 461.21701050
56.09256744 237.81367493 505.65478516
56.08718872 237.80624390 505.64413452
56.08618927 237.81259155 505.65737915
56.08516693 237.80741882 505.64984131
124.92990112 293.68234253 524.29852295
124.91256714 293.67593384 524.27941895
124.91873932 293.67883301 524.29467773
124.90843201 293.67794800 524.27740479
120.94301605 277.20285034 544.64251709
120.93046570 277.19113159 544.63415527
120.93442535 277.18505859 544.64892578
120.93039703 277.18261719 544.64117432
62.39204407 259.66296387 518.38262939
62.38793945 259.65731812 518.36840820
62.38682556 259.66802979 518.38641357
62.38934326 259.66650391 518.37487793
133.39259338 265.83798218 538.17120361
133.38258362 265.82843018 538.16735840
133.39703369 265.81387329 538.17144775
133.39297485 265.81362915 538.16540527
142.79623413 335.54510498 516.10797119
142.78179932 335.53369141 516.09973145
142.79002380 335.53704834 516.10931396
142.78045654 335.53472900 516.10412598
104.05314636 296.19915771 557.25268555
104.04371643 296.18383789 557.24670410
104.05245972 296.18597412 557.25988770
104.04669189 296.18508911 557.25524902
116.36664581 297.08474731 529.91778564
116.35266113 297.07229614 529.90093994
116.35435486 297.07708740 529.91882324
116.34645081 297.07321167 529.90478516
149.39738464 320.95062256 431.32153320
149.38824463 320.95086670 431.31756592
149.39161682 320.94946289 431.32333374
149.38491821 320.95541382 431.32354736
155.51199341 277.87063599 522.27917480
155.50358582 277.86157227 522.26593018
155.51597595 277.85461426 522.28216553
155.51260376 277.85266113 522.26885986
158.01315308 332.90335083 509.89764404
158.00125122 332.89019775 509.89382935
158.01116943 332.89010620 509.89447021
158.00331116 332.88574219 509.89379883
102.94091797 305.58349609 448.88989258
102.93144226 305.58331299 448.88613892
102.94567871 305.58053589 448.88644409
102.93611145 305.58441162 448.88623047
136.03471375 335.09701538 502.29843140
136.02156067 335.08917236 502.28524780
136.02273560 335.09094238 502.29830933
136.01393127 335.08880615 502.29043579
139.55764771 322.43432617 477.92059326
139.54484558 322.42889404 477.91052246
139.55097961 322.42855835 477.91979980
139.54185486 322.42767334 477.91275024
79.05599976 297.26135254 554.67364502
79.04891968 297.25091553 554.66412354
79.05870819 297.25946045 554.67413330
79.05814362 297.25881958 554.66711426
102.59741974 321.12051392 492.16525269
102.58700562 321.11761475 492.15213013
102.59799957 321.12005615 492.15866089
102.59005737 321.12078857 492.15188599
120.63015747 329.16317749 536.12817383
120.62052155 329.14959717 536.12255859
120.62664795 329.15267944 536.13146973
120.62084961 329.15045166 536.12634277
155.01612854 326.75238037 525.78918457
155.00575256 326.73385620 525.78265381
155.01029968 326.74533081 525.79083252
155.00474548 326.73681641 525.78558350
125.78737640 336.01144409 512.03588867
125.77365875 336.00659180 512.02661133
125.78392792 336.00613403 512.03741455
125.77581787 336.00772095 512.03302002
75.14540863 241.07872009 437.71542358
75.14287567 241.07919312 437.71063232
75.13974762 241.08158875 437.70831299
75.13590240 241.08337402 437.70922852
143.68574524 325.03973389 461.20916748
143.67315674 325.03649902 461.19705200
143.67402649 325.03689575 461.21463013
143.66592407 325.03759766 461.20779419
117.54193115 316.14559937 442.06845093
117.53209686 316.14633179 442.06408691
117.54351807 316.14489746 442.06103516
117.53550720 316.14978027 442.06091309
131.51937866 300.40219116 403.15435791
131.50070190 300.41156006 403.15081787
131.52275085 300.40438843 403.14843750
131.50921631 300.41424561 403.14950562
67.35929871 277.51113892 514.45672607
67.35047913 277.50469971 514.44281006
67.36338806 277.50976562 514.45819092
67.35948181 277.50946045 514.44787598
148.75505066 304.89901733 536.71044922
148.73831177 304.88479614 536.69622803
148.75628662 304.88723755 536.71228027
148.74560547 304.88290405 536.69970703
143.30175781 336.20568848 506.20681763
143.28483582 336.19964600 506.19479370
143.29461670 336.19812012 506.20535278
143.28117371 336.19876099 506.19854736
70.54203033 232.10844421 450.89016724
70.53787994 232.10623169 450.88369751
70.53271484 232.10746765 450.87838745
70.52913666 232.10565186 450.87609863
73.14286041 250.65730286 452.82183838
73.14022827 250.65449524 452.81616211
73.13962555 250.65863037 452.81976318
73.13684845 250.65873718 452.81665039
110.67997742 312.11520386 543.59399414
110.66931915 312.10144043 543.58349609
110.67540741 312.10952759 543.59863281
110.66862488 312.10836792 543.58843994
139.14083862 260.81866455 511.90573120
139.13777161 260.80966187 511.89932251
139.14358521 260.80947876 511.90057373
139.14653015 260.80718994 511.89358521
79.55574799 256.00765991 425.30340576
79.55368805 256.00827026 425.29772949
79.55036926 256.00543213 425.29034424
79.54597473 256.00729370 425.29052734
112.88813782 329.76785278 500.64321899
112.87710571 329.76220703 500.62719727
112.88333893 329.76855469 500.63763428
112.87627411 329.76718140 500.62741089
158.49172974 322.37194824 458.70596313
158.48143005 322.36715698 458.69931030
158.48484802 322.36627197 458.70150757
158.47889709 322.36706543 458.69860840
115.73004150 326.12048340 542.84289551
115.72181702 326.10635376 542.83837891
115.72940826 326.11138916 542.84960938
115.72579193 326.11022949 542.84588623
69.96359253 246.02494812 459.02478027
69.95973969 246.02140808 459.02020264
69.95842743 246.02185059 459.02224731
69.95525360 246.02006531 459.02276611
156.84201050 261.11166382 494.62829590
156.83280945 261.10513306 494.62237549
156.84552002 261.10723877 494.62777710
156.84466553 261.10519409 494.62036133
153.90133667 270.80557251 516.28643799
153.89360046 270.79980469 516.27410889
153.90367126 270.79736328 516.28741455
153.90260315 270.79821777 516.27404785
98.93942261 315.81896973 547.20080566
98.93118286 315.80468750 547.19378662
98.94020081 315.80999756 547.20471191
98.93780518 315.80776978 547.19854736
102.40766907 301.93560791 551.13342285
102.39655304 301.92193604 551.12219238
102.40219116 301.92581177 551.13873291
102.39573669 301.92523193 551.12878418
