ply
format ascii 1.0
element vertex 2048
property float x
property float y
property float z
end_header
64.12997437 222.59376526 612.10760498
277.15100098 277.81600952 457.11499023
83.69891357 227.86494446 410.89044189
139.43249512 335.13293457 522.01019287
143.81597900 159.98570251 518.02447510
169.18499756 300.21600342 419.58999634
60.66793442 260.17187500 510.09292603
200.83099365 251.60699463 522.60601807
168.74900818 210.32301331 447.35598755
239.76489258 331.97888184 521.06518555
86.64628601 300.03131104 575.30694580
97.83651733 300.58770752 450.88552856
74.87023926 184.08697510 481.69049072
126.90839386 229.67344666 556.69238281
85.46053314 175.21954346 549.40802002
223.61599731 323.02099609 456.73199463
135.63790894 249.30899048 496.32492065
215.80599976 257.00000000 446.50799561
127.99073792 162.23652649 453.55529785
140.49893188 247.91186523 396.84640503
189.30635071 320.35159302 552.24505615
166.58399963 324.20501709 472.80801392
54.24370575 252.98509216 565.04553223
87.78900909 311.22509766 507.58450317
174.27400208 207.10000610 502.37899780
66.17578888 234.48674011 461.22430420
238.46400452 283.15100098 498.47601318
117.79461670 279.31793213 537.01916504
119.86946106 298.82650757 403.69134521
180.00488281 275.05670166 478.86032104
60.69749832 213.72171021 529.16699219
127.78809357 205.57435608 417.94720459
170.89959717 164.60441589 476.90795898
166.81838989 286.60180664 525.81616211
270.65301514 316.56851196 484.25347900
90.86226654 191.00027466 438.24990845
96.99636841 255.85218811 582.19537354
93.19038391 208.38008118 579.63116455
195.85346985 331.83636475 509.69509888
209.22291565 229.91802979 482.24505615
99.49681854 156.48135376 510.73907471
175.48100281 255.58399963 424.31100464
124.19688416 321.37487793 483.08615112
122.38310242 317.00531006 556.47924805
133.18075562 321.77096558 438.98629761
89.29418945 270.50045776 416.85659790
147.79223633 199.76927185 534.56140137
74.47912598 275.18493652 473.67071533
63.41899872 265.34851074 605.30242920
158.39971924 247.05397034 536.41857910
72.55892181 282.45993042 541.93316650
208.82701111 294.23498535 523.47998047
248.96640015 252.22944641 466.74148560
199.82899475 295.41400146 443.50698853
57.21552658 213.07449341 567.24114990
241.27200317 288.74200439 453.57702637
58.96451187 218.47406006 493.39767456
120.72378540 170.21974182 543.05895996
124.71178436 148.95695496 485.93707275
185.91099548 240.55799866 455.56500244
159.26519775 222.97819519 415.77310181
71.51129913 182.71467590 518.93103027
150.88046265 281.04583740 398.31475830
228.07499695 331.87197876 489.07598877
145.50123596 187.21400452 441.72442627
185.96899414 196.47100830 472.44500732
91.06507874 310.54229736 542.49462891
97.61986542 162.25495911 471.22543335
156.99044800 315.68618774 543.41894531
168.35800171 259.99398804 507.30300903
74.34521484 261.00094604 443.58761597
223.92100525 252.79701233 499.48999023
110.90646362 244.13075256 405.23477173
197.77700806 330.07101440 473.86199951
115.65401459 199.14553833 554.76721191
161.85455322 334.87039185 501.14041138
109.30500793 327.73284912 525.65551758
164.48600769 320.76000977 442.55300903
144.38758850 315.84594727 411.68814087
62.50823975 281.56683350 573.62268066
181.20500183 235.59600830 492.28097534
60.68933105 246.49029541 537.31274414
217.53181458 319.66687012 539.16650391
140.60673523 272.59255981 515.81976318
93.69599152 310.58657837 477.97869873
117.82107544 257.82336426 560.69311523
163.93653870 178.25372314 506.78646851
76.10438538 217.09780884 436.98815918
51.50580597 233.96336365 587.21270752
70.38652802 288.29171753 499.15466309
68.11019135 200.61186218 592.58148193
86.20176697 233.24810791 596.35797119
261.76458740 286.75247192 479.73614502
173.74299622 230.91200256 519.39898682
246.83601379 309.70700073 505.09698486
113.63184357 271.82901001 395.08108521
117.96469879 186.18923950 434.42477417
59.46954346 254.21932983 483.34283447
172.50894165 329.26126099 525.56329346
110.61322021 308.09432983 428.68264771
251.36000061 312.74798584 462.24200439
72.44671631 207.40858459 462.91903687
107.00268555 283.85848999 561.63519287
138.05955505 220.72640991 397.32312012
67.94789124 196.85653687 548.91766357
153.26573181 151.90170288 494.54016113
168.22616577 183.45458984 457.95571899
103.42462921 231.45898438 572.24822998
141.35168457 292.81250000 533.35229492
102.87922668 208.31216431 423.00097656
80.55403900 186.61856079 573.26892090
192.70899963 272.18600464 434.38598633
83.31285858 276.83801270 589.07800293
149.35035706 224.27713013 544.41986084
118.19882965 316.71459961 458.80511475
172.71589661 292.64715576 494.64739990
172.36999512 232.40199280 435.14599609
106.29522705 326.75787354 499.83734131
188.52398682 315.22799683 454.34799194
185.96788025 302.22454834 533.02264404
147.44946289 154.73680115 468.25381470
57.72426605 235.28247070 513.63793945
191.33900452 276.77700806 521.59399414
225.58842468 244.26078796 467.61874390
134.98786926 262.52536011 543.10180664
114.43701172 304.93826294 536.44622803
120.35408783 154.51519775 523.53771973
192.28700256 219.06700134 465.52700806
104.20857239 173.14801025 449.34909058
76.67002106 294.17498779 522.06097412
216.02700806 272.67901611 510.64300537
92.32809448 291.83236694 428.77276611
143.67269897 325.03933716 461.20755005
82.13323212 179.82641602 459.59011841
268.12762451 255.70341492 452.84701538
75.40676880 241.38641357 429.46826172
251.92100525 329.29699707 492.89700317
219.55000305 280.26300049 448.04299927
100.47933960 161.72433472 533.51434326
85.20760345 167.35449219 494.70651245
157.65400696 259.76397705 407.55200195
277.22604370 298.87463379 466.85910034
80.81407928 282.43182373 453.87805176
147.66767883 325.32461548 483.34170532
243.07600403 264.54498291 486.06500244
219.86599731 333.27401733 510.46997070
59.15828705 226.48353577 548.05133057
152.33644104 208.01010132 431.38796997
227.74900818 304.66500854 516.28704834
63.25055695 202.72213745 508.73358154
200.46800232 244.81298828 499.41998291
197.31152344 329.32833862 533.47943115
136.13294983 328.99945068 543.00457764
51.99594879 256.33300781 587.35198975
170.18600464 275.83200073 417.11999512
178.87194824 183.60176086 488.70791626
127.45305634 333.71527100 503.34255981
161.22239685 207.72436523 519.16577148
138.96067810 179.30131531 530.84747314
62.55747223 244.48463440 612.08923340
82.11437225 254.22715759 601.10375977
237.76599121 267.17098999 453.63699341
89.98882294 248.33580017 415.44433594
208.05705261 234.05961609 460.09933472
179.69200134 302.25399780 439.50900269
104.99232483 180.05741882 557.45031738
101.61469269 307.36639404 560.85589600
112.13997650 222.27409363 410.12390137
181.39801025 332.41799927 487.44699097
65.85171509 266.55383301 529.44708252
221.95300293 302.71301270 451.32101440
64.42861938 264.56295776 549.48535156
125.23777771 286.13830566 519.01782227
148.85485840 250.21002197 515.31939697
147.28141785 169.69343567 453.27621460
195.44400024 245.27200317 479.27499390
105.00440979 152.67094421 491.36666870
81.38652802 294.75329590 482.86001587
191.49301147 250.07400513 438.24398804
79.04714966 297.25854492 554.66339111
132.84207153 208.38203430 547.55603027
135.93183899 267.85668945 392.79058838
100.72972107 285.25332642 409.02239990
262.44439697 268.72753906 470.61767578
130.16619873 148.26473999 507.34542847
70.16965485 254.40087891 464.03948975
187.80699158 212.52700806 484.43600464
139.66450500 243.50292969 547.72802734
117.02024078 153.63543701 467.65441895
106.64447021 213.02969360 565.28723145
84.19851685 167.57754517 516.01342773
63.34088135 232.03450012 479.82928467
162.48400879 242.72500610 415.92999268
70.86613464 186.83737183 500.12176514
181.51699829 249.23400879 523.97296143
155.48565674 188.29733276 520.81951904
239.35699463 326.74301147 474.05401611
260.00698853 288.19500732 458.49697876
79.98771667 215.30639648 599.88183594
126.66213226 313.91555786 420.69763184
206.94599915 314.87100220 448.51898193
65.74308777 200.29272461 487.47479248
52.43699646 233.82759094 567.68206787
98.81840515 275.58569336 576.58795166
207.13299561 332.37298584 494.49301147
154.62316895 301.42785645 404.57183838
57.06256104 216.83602905 593.19293213
106.54751587 322.16500854 543.23278809
149.38500977 320.95797729 431.31701660
67.35427856 277.51150513 514.45141602
83.52433014 274.84524536 435.26672363
127.68037415 187.93882751 542.54528809
125.41802216 236.16014099 396.15917969
63.55625534 279.37634277 592.01629639
137.63851929 293.63235474 401.53964233
169.12274170 261.93118286 487.84667969
66.47505188 196.11930847 530.35668945
122.55882263 255.24874878 395.37982178
64.78762817 272.38525391 488.16537476
84.14207458 204.72776794 425.80078125
172.71966553 325.71054077 544.57574463
182.42601013 232.83499146 472.63500977
97.58854675 195.44677734 567.59173584
254.75999451 325.47500610 512.53601074
132.52482605 306.05081177 545.98443604
95.14203644 316.01815796 523.50042725
258.73602295 304.79699707 492.28701782
73.52960205 243.11117554 447.29168701
77.25833893 201.26712036 446.90237427
161.66004944 301.04367065 534.84106445
201.93000793 250.48100281 455.75100708
123.62779236 273.51855469 554.56182861
57.38039780 241.33882141 497.38928223
104.79957581 293.60113525 546.10241699
66.69022369 196.84252930 568.74755859
166.06733704 164.17474365 495.19943237
182.00599670 286.95999146 430.94198608
164.55500793 274.76931763 513.51556396
201.27835083 311.64559937 537.54650879
166.25900269 227.41700745 534.96997070
182.90699768 224.38700867 449.30401611
215.37199402 329.88198853 474.18298340
144.52110291 211.22993469 410.89160156
149.50524902 233.77423096 405.07431030
101.67753601 259.43148804 405.65393066
222.38000488 240.27272034 487.54846191
257.42300415 271.12100220 454.24398804
109.00589752 312.90289307 471.47897339
83.23490906 174.73852539 531.37915039
86.68244934 296.14712524 463.48883057
222.60800171 288.58898926 511.38500977
228.00045776 256.99258423 482.57736206
180.29647827 180.63789368 470.12506104
213.71600342 244.14999390 510.16299438
232.19700623 318.56201172 527.98004150
265.17901611 320.24099731 500.14596558
155.00691223 326.74234009 525.78002930
255.87498474 321.12100220 476.30200195
178.35700989 223.45899963 503.79901123
68.70050049 278.88043213 557.60345459
129.61601257 268.74902344 527.49133301
182.01899719 206.88000488 459.82998657
236.67498779 310.27099609 454.29000854
83.97144318 171.69709778 474.38778687
154.75033569 248.25494385 500.32781982
115.57975769 240.48529053 562.76593018
132.67791748 191.54975891 429.76501465
184.72200012 263.15298462 514.79797363
184.66000366 244.21499634 508.49002075
117.53709412 316.15325928 442.06134033
59.33744049 230.26483154 529.05609131
140.00163269 237.43753052 507.70599365
183.01400757 324.85299683 468.98498535
132.09332275 175.61120605 445.69570923
234.99900818 333.57098389 504.16101074
229.62699890 269.47799683 499.48901367
163.75399780 314.19799805 427.61001587
149.34800720 325.13317871 446.74691772
180.53182983 332.44613647 504.19891357
131.39807129 164.88606262 532.23492432
172.79699707 318.07397461 456.73400879
204.17399597 279.79498291 443.11801147
217.12901306 308.66198730 527.77203369
125.40512085 282.68475342 397.07632446
101.77677917 166.16105652 548.86358643
144.51631165 333.45788574 496.12289429
75.80706787 184.85736084 557.60687256
161.13345337 164.49903870 463.79000854
72.09134674 293.44116211 578.91546631
212.76696777 330.88681030 527.31518555
159.10253906 197.71688843 442.02462769
161.63099670 288.35299683 411.75399780
71.11337280 222.37031555 451.05313110
65.66234589 216.25224304 476.94305420
265.65267944 309.86767578 468.64126587
155.38136292 161.87742615 507.73202515
133.66644287 321.39511108 472.10119629
52.94253540 245.95408630 599.52166748
74.84484863 234.95176697 608.82312012
94.50525665 315.03939819 494.30438232
105.30235291 192.90568542 426.58169556
122.42782593 333.43188477 519.11157227
82.37085724 196.33558655 587.30334473
53.55496597 268.57177734 575.11010742
97.79045868 233.58885193 407.41473389
79.93823242 296.96893311 536.76635742
140.36968994 149.55383301 485.16052246
270.53308105 301.01550293 482.51730347
79.54991150 256.01068115 425.29971313
202.17500305 266.01998901 513.41101074
143.32005310 255.09927368 528.46081543
165.56443787 195.45693970 510.72366333
58.57318497 242.13336182 551.53057861
81.30298615 301.15606689 497.26089478
106.43127441 298.05099487 416.99011230
250.59500122 289.01300049 490.79199219
93.86303711 239.68048096 584.54364014
205.66700745 325.71398926 459.51199341
166.06600952 330.30300903 487.72497559
89.14308929 221.03689575 587.40362549
120.62033844 329.15335083 536.11688232
76.28031921 184.92088318 541.56311035
165.33110046 246.68893433 522.94830322
60.85999680 211.10893250 547.42486572
74.36950684 191.43177795 466.19735718
176.94531250 309.10543823 542.97631836
150.55737305 280.69442749 524.90991211
182.22599792 198.63200378 488.91400146
161.03099060 222.19200134 434.94900513
252.98356628 254.77799988 451.34588623
126.30838013 217.71279907 407.17318726
106.07360840 320.01486206 484.03182983
75.64055634 269.12954712 458.67529297
60.93206024 250.94592285 521.50842285
90.23863983 178.91088867 564.86541748
106.46163940 248.82545471 571.40167236
131.97288513 152.14457703 468.77597046
273.90377808 283.71481323 470.47308350
149.90841675 334.08374023 511.80703735
204.99945068 325.83746338 545.47802734
157.57214355 154.37614441 479.45492554
170.46299744 197.66200256 455.92800903
67.12094116 209.60203552 604.69946289
202.77499390 262.68701172 439.72998047
55.44843674 229.29727173 601.04364014
59.84159851 218.10311890 507.79693604
237.23100281 298.61700439 506.39599609
188.44348145 289.38967896 527.52838135
95.70222473 219.15502930 415.33279419
129.37986755 249.52461243 556.64044189
119.52515411 213.07231140 557.21954346
180.45700073 269.65798950 426.81399536
117.58640289 148.73690796 499.84896851
126.63634491 299.37606812 530.37561035
130.70166016 307.81918335 408.00631714
117.84895325 199.31436157 425.30038452
76.10671234 270.46520996 600.53149414
155.01501465 214.33433533 536.15460205
140.55149841 202.53741455 425.40435791
158.48300171 322.37301636 458.69897461
88.67848969 287.81027222 443.79998779
77.64557648 227.49447632 425.69903564
60.54543304 207.68067932 582.65167236
148.13122559 173.42547607 521.13873291
77.79067993 174.28216553 505.19042969
113.85171509 160.79896545 455.82275391
228.16499329 254.42001343 458.05297852
241.30099487 317.10897827 517.21002197
100.36956024 273.45596313 399.59527588
253.60829163 273.09399414 480.83978271
97.38848114 305.85263062 465.60522461
97.34052277 294.46981812 567.80895996
87.55509186 307.40136719 562.23168945
186.16400146 235.79399109 441.72702026
99.53476715 322.22570801 510.98168945
156.83966064 261.10958862 494.62573242
170.49099731 217.05400085 513.49597168
251.83499146 299.36999512 456.33398438
179.32899475 243.90499878 431.22399902
104.40686798 307.23840332 440.77288818
216.02999878 244.65798950 455.63998413
49.50862503 245.15910339 575.53558350
149.51284790 262.99945068 507.55352783
211.07150269 235.95166016 497.97702026
116.29148865 185.35314941 549.90484619
106.84167480 265.57772827 571.27709961
152.17091370 220.20188904 404.25180054
149.39306641 266.44192505 395.38641357
104.18798065 308.13766479 546.44195557
116.06752014 176.55557251 443.68606567
86.24357605 306.79425049 529.72204590
191.98199463 332.76300049 496.19100952
95.51122284 161.58111572 484.58300781
214.16899109 257.83898926 510.09799194
57.09846115 255.19790649 496.73724365
89.25810242 285.34362793 577.83410645
114.70188904 225.95126343 562.12396240
178.67741394 287.31692505 484.25930786
207.77499390 280.01400757 518.60601807
64.14950562 245.00932312 471.40414429
94.42565155 169.63587952 457.79608154
73.43913269 283.45401001 487.12744141
226.11711121 331.94934082 523.72296143
65.82579803 263.69570923 476.28952026
84.01268768 188.22825623 449.31381226
152.20448303 314.69274902 530.55688477
161.85800171 232.83700562 425.12301636
187.27856445 330.62716675 524.67706299
88.67755127 264.46871948 588.59417725
206.30499268 239.02699280 472.51998901
110.62765503 285.46148682 400.04067993
77.78898621 299.97933960 509.78851318
143.13401794 151.28512573 506.33670044
110.92852020 292.24404907 534.16607666
118.49558258 328.62222290 494.49716187
54.59587097 219.09318542 578.93884277
272.87954712 265.02597046 461.09902954
224.25300598 268.26599121 451.26797485
79.78305817 239.97973633 416.51800537
61.67866135 269.45117188 500.96737671
158.90100098 272.93099976 406.98501587
212.18200684 291.64498901 446.38101196
129.56143188 321.39352417 455.08468628
110.85105896 330.32437134 511.68997192
132.57122803 328.08874512 492.34085083
165.19621277 332.25601196 515.28308105
178.18881226 270.78906250 492.99591064
72.59310150 283.79177856 528.81604004
61.86508942 270.17703247 564.56042480
90.16863251 283.77468872 417.27319336
236.04499817 322.23800659 462.17001343
155.02940369 237.58099365 542.29919434
156.84599304 311.12939453 413.95440674
218.91740417 235.22399902 474.31475830
172.68252563 184.79364014 499.93484497
153.52772522 245.69068909 402.95584106
141.75262451 315.23913574 545.10107422
70.08768463 292.33038330 566.14874268
115.50144958 211.05783081 416.40261841
107.47188568 309.21978760 453.67944336
85.72526550 217.44012451 422.99697876
114.35855865 151.81636047 512.33471680
177.64544678 278.13876343 523.23126221
198.93872070 300.75262451 529.55316162
56.88938904 229.40507507 502.28308105
237.05760193 256.10659790 473.49084473
99.54801178 219.76757812 575.48315430
116.59423065 159.51770020 537.31524658
155.52407837 187.64125061 450.53079224
102.82672882 186.12579346 439.08203125
246.07800293 276.81600952 455.54598999
167.25599670 261.55700684 415.71301270
157.75274658 176.38595581 455.04702759
110.58818817 153.22087097 478.44412231
136.23204041 223.65031433 550.53259277
153.51568604 323.96963501 471.68707275
191.91799927 244.74899292 465.90200806
69.42663574 200.78814697 473.20227051
63.49554062 203.45945740 558.54547119
253.12280273 261.48858643 475.02026367
191.99000549 306.45599365 446.02398682
105.34181213 157.09204102 521.82196045
69.14128876 219.58641052 464.76510620
172.50700378 288.13897705 419.17898560
172.73600769 238.40600586 529.37298584
89.26892853 248.45233154 592.58752441
79.19361877 286.97900391 467.28833008
59.24490738 221.89515686 519.32727051
228.31599426 291.96899414 450.93899536
133.48619080 147.48550415 495.14935303
121.49297333 316.80752563 472.01931763
91.28050232 169.63839722 540.14318848
92.74585724 195.49961853 425.74142456
56.25869370 267.11895752 591.95910645
138.53927612 233.13047791 397.97634888
186.83799744 224.76100159 482.34600830
245.60099792 276.50601196 489.74200439
165.27229309 220.11517334 524.17205811
78.26361084 177.58973694 492.81961060
207.87901306 332.58398438 513.58300781
119.02317810 311.50155640 545.96276855
148.74937439 304.89089966 536.70239258
143.34542847 332.00964355 533.17602539
140.02638245 160.82847595 457.08447266
196.58200073 247.97399902 511.63101196
57.48518372 223.86759949 559.57183838
188.94999695 208.21499634 470.62100220
73.48340607 248.56643677 608.33752441
94.24098969 159.01608276 499.99786377
182.26901245 215.95700073 494.99301147
173.04396057 170.83123779 488.14868164
178.81178284 331.56811523 515.72082520
246.82099915 297.47302246 498.94500732
203.46372986 227.39801025 470.28088379
212.58000183 268.68099976 445.51501465
177.21000671 190.01499939 462.52798462
186.16799927 229.36500549 460.25198364
92.46428680 179.27793884 449.90362549
133.64405823 155.08631897 522.04034424
172.07421875 173.13497925 465.36431885
228.51695251 328.45492554 534.87469482
177.44000244 311.24600220 447.88900757
176.27929688 293.78787231 529.50616455
187.79200745 258.90600586 430.85699463
172.57800293 312.75601196 435.73699951
149.15776062 195.71919250 434.72708130
176.97415161 318.45767212 553.08801270
100.33980560 247.74200439 409.90179443
111.86445618 260.27593994 398.46166992
128.92654419 262.82739258 553.66992188
74.11894226 232.65472412 441.07550049
133.59997559 320.84603882 551.93353271
184.27191162 327.54360962 540.88000488
137.36770630 284.66516113 521.99194336
127.31184387 271.73229980 538.59442139
194.53500366 286.04800415 438.37899780
63.48032379 258.03625488 539.32641602
240.02999878 255.48899841 457.90899658
85.51502228 306.90228271 518.16705322
245.42362976 332.66516113 509.80078125
111.15688324 283.57717896 545.79077148
65.76210785 195.98863220 517.96966553
231.01800537 279.91400146 450.90100098
143.78668213 208.31564331 541.37817383
133.60559082 248.28988647 507.32128906
178.44599915 297.88198853 428.35101318
228.09899902 328.70800781 471.25399780
66.03200531 197.84320068 498.70599365
121.50183105 325.38031006 548.35363770
137.75975037 194.53367615 537.90020752
139.14355469 260.80957031 511.89416504
124.09580231 315.14050293 432.93289185
58.64456177 230.21759033 491.02789307
136.38233948 336.98315430 510.44876099
137.17340088 318.47259521 424.12771606
159.37182617 325.30761719 537.52874756
58.51467514 254.76155090 605.83947754
58.36245346 248.79400635 507.60430908
261.90139771 255.16957092 462.72912598
185.19300842 240.53700256 482.16500854
116.59586334 308.24914551 418.76232910
138.23709106 279.03048706 396.13821411
151.76150513 213.84944153 420.80346680
94.60768127 163.37486267 523.68011475
76.91458893 271.85830688 447.48986816
265.15899658 299.87799072 462.83901978
77.26713562 180.96652222 470.98776245
155.96980286 172.94981384 512.95043945
100.98121643 301.85891724 426.44183350
117.13375092 230.60400391 404.21069336
155.72010803 289.82730103 529.64813232
164.21130371 247.06732178 509.16201782
100.62923431 319.71746826 532.94897461
60.47190094 253.54901123 552.54650879
111.84555817 273.76126099 565.00726318
199.13703918 331.27053833 521.19732666
104.04283905 296.18844604 557.24163818
79.54606628 202.86947632 596.20556641
171.00399780 222.61999512 440.94100952
69.96591187 195.14038086 579.47680664
86.98088837 303.96853638 487.59341431
174.89700317 250.34600830 514.75500488
240.11199951 330.51602173 484.77200317
107.30451202 191.81343079 557.50823975
74.94466400 250.69198608 438.30535889
193.51300049 260.26400757 522.45300293
159.77999878 209.75999451 440.45098877
170.24800110 241.04000854 423.99700928
146.15553284 188.07431030 529.45153809
215.42100525 331.50299072 485.37399292
194.47599792 331.27600098 484.60000610
61.60576630 233.46673584 610.02990723
146.17269897 248.58653259 540.30432129
135.06945801 184.22016907 438.74020386
125.86466980 199.29878235 546.76269531
124.21581268 266.43289185 393.64077759
142.67146301 303.41479492 404.83605957
74.51550293 280.29934692 595.15557861
83.08788300 243.07012939 600.69592285
59.10413742 235.32954407 541.30444336
166.68096924 314.68774414 549.33331299
94.07340240 311.61492920 553.80407715
183.17300415 187.70500183 478.80200195
74.27329254 258.49215698 454.70455933
262.37197876 323.28701782 487.49099731
272.06201172 289.36300659 461.08499146
82.28324127 199.55616760 437.28601074
109.33369446 295.09579468 406.68316650
94.14205170 172.27407837 557.05340576
153.89910889 270.80078125 516.27532959
192.50300598 323.41198730 460.65100098
76.67765808 300.56390381 570.47357178
205.70500183 239.00500488 488.83398438
191.85798645 244.49299622 490.05200195
224.84199524 313.38198853 451.00799561
176.86698914 326.96701050 477.86599731
74.84225464 182.97824097 531.08685303
255.27900696 317.69000244 504.80700684
89.84539795 197.96936035 579.26593018
149.19409180 291.58251953 401.38153076
63.02864075 211.02619934 486.52209473
60.67404938 240.76345825 485.95568848
189.09494019 309.09201050 540.51507568
178.66900635 233.77099609 507.35198975
89.93013763 293.80990601 453.67813110
128.73272705 273.70513916 518.04534912
117.91783142 289.53335571 526.43469238
66.60761261 268.59265137 539.80670166
206.20500183 304.17697144 446.63900757
274.71777344 308.10461426 474.36779785
175.92999268 195.62399292 500.06097412
97.43526459 292.12249756 417.95867920
189.23899841 295.46401978 439.36199951
226.31144714 254.09442139 472.25839233
68.16464996 284.60418701 583.81347656
168.68688965 268.58749390 497.34594727
112.82740784 173.55525208 549.47332764
64.11698151 203.57540894 540.59661865
218.98600769 295.71499634 520.04699707
77.25241089 224.26092529 605.20959473
155.97399902 234.23199463 414.40600586
132.57972717 332.52856445 531.76251221
155.53944397 198.77079773 524.29852295
229.43699646 260.72299194 492.58599854
74.44307709 287.59887695 552.65124512
180.80044556 264.86633301 484.62924194
134.94000244 322.39419556 482.99060059
130.43479919 177.89465332 536.90142822
241.46600342 299.47702026 453.50598145
145.05348206 254.65679932 500.27377319
198.83500671 253.93598938 446.15301514
145.83309937 324.83898926 540.54840088
73.10497284 290.49032593 511.67303467
65.02442169 267.67855835 519.39154053
95.77192688 274.96069336 409.89141846
130.53607178 246.72007751 399.45443726
178.77816772 177.25509644 479.87521362
229.91194153 332.62460327 513.79382324
178.23399353 215.35099792 452.09100342
220.71499634 262.61898804 501.59197998
139.38983154 165.87705994 525.43511963
230.85499573 286.55401611 504.88101196
135.51817322 253.54003906 548.46911621
73.13233948 211.90248108 450.67871094
107.79643250 202.49195862 560.78576660
272.68566895 292.78451538 475.58801270
202.37800598 245.83399963 465.12600708
79.00323486 283.92138672 582.80206299
82.06146240 266.11694336 427.58477783
175.97669983 271.14828491 517.20440674
107.19997406 157.26020813 466.66574097
86.35468292 304.72503662 551.83935547
64.76599121 279.32019043 503.37289429
267.22198486 273.95498657 456.33102417
133.86158752 236.95794678 553.42022705
218.74099731 328.14599609 464.36398315
66.59368134 192.81062317 508.12362671
87.64354706 259.43020630 420.02282715
211.86601257 332.71499634 503.85397339
70.37631226 190.82183838 488.10165405
259.57998657 295.80300903 487.17401123
110.80541992 319.73260498 552.35772705
94.40908813 295.82699585 438.27597046
77.95687103 174.10571289 520.93804932
78.43415070 194.30335999 455.59100342
210.90330505 328.96090698 537.32897949
225.59300232 332.68698120 499.09298706
173.75437927 302.81201172 535.61096191
103.59170532 165.08569336 455.88446045
134.39718628 299.20306396 537.52844238
62.22170258 207.10867310 517.76831055
241.07687378 324.39486694 527.78564453
50.63700867 258.71636963 572.75262451
124.88185883 239.81369019 557.89038086
267.22799683 310.61599731 492.70001221
84.97127533 166.88401794 505.42874146
58.20542145 274.80252075 584.51373291
256.79901123 329.69299316 503.39001465
163.36337280 157.56922913 487.61102295
154.31500244 314.74200439 423.60800171
147.42517090 255.02345276 394.81170654
223.65499878 278.41299438 506.92898560
59.12317657 262.40887451 489.91366577
169.91494751 174.86770630 497.20803833
85.62210083 205.99612427 587.88464355
209.84300232 251.80900574 517.79504395
189.60400391 244.87500000 447.07800293
104.82581329 152.99864197 502.90554810
239.66200256 332.35699463 494.78500366
173.56300354 334.41799927 497.28201294
201.30999756 286.47802734 523.08001709
156.15451050 329.72830200 489.00961304
89.72603607 168.38909912 466.59893799
159.25172424 266.99673462 507.60995483
161.83200073 299.14297485 412.68301392
146.45362854 178.69444275 449.00817871
127.59493256 226.65327454 399.48181152
85.27646637 299.42269897 475.29403687
248.36000061 326.43701172 480.49499512
50.46919250 246.30120850 587.59667969
264.07922363 278.00192261 474.16537476
133.28367615 292.94140625 526.61755371
178.27301025 239.74800110 517.90295410
124.05441284 305.03881836 540.23315430
244.86898804 321.09698486 466.78701782
155.17599487 224.58399963 425.07699585
69.11122894 193.48439026 558.08020020
162.50476074 168.72880554 503.47055054
272.40264893 275.15942383 465.59390259
225.96002197 243.17221069 478.73904419
94.61956787 303.70013428 570.36627197
137.02314758 207.47445679 416.25531006
115.48686981 280.23019409 554.00653076
150.11393738 162.42222595 459.43588257
150.98645020 243.35369873 507.68560791
57.42394638 233.32533264 556.38159180
92.95607758 229.68013000 584.50891113
107.38858032 232.55422974 406.02545166
215.22399902 320.90899658 451.97799683
65.82909393 231.37719727 470.31210327
68.87474060 275.92700195 548.45404053
61.14582825 204.90017700 571.23962402
134.90817261 265.42218018 519.82476807
117.23027802 169.50694275 450.43817139
91.79776001 186.96241760 570.19415283
196.24688721 316.88485718 546.05999756
237.34500122 309.63500977 512.20397949
122.01179504 150.35267639 475.50643921
125.29286957 154.84507751 461.95303345
193.77679443 326.33285522 545.86358643
59.43991470 222.25440979 539.51055908
184.43341064 277.50900269 487.53176880
170.91978455 283.85714722 489.03503418
86.52942657 170.23966980 485.65252686
72.87131500 265.36120605 466.68469238
131.95608521 149.19790649 479.63299561
121.19044495 245.01551819 398.42108154
92.42992401 272.07788086 582.99450684
87.88700867 237.63696289 411.77188110
143.43612671 323.37338257 437.33200073
123.36824799 276.42977905 527.37200928
162.26373291 159.63624573 473.10565186
59.74015808 239.80400085 527.08764648
192.56700134 268.77099609 516.29003906
144.83276367 235.33361816 546.06182861
167.61833191 205.91653442 508.65316772
86.50650024 279.08972168 427.35235596
170.81330872 333.58944702 507.05932617
172.33032227 272.17886353 484.41540527
99.18739319 187.24832153 562.94879150
155.43772888 248.44189453 524.26208496
124.70472717 151.43270874 515.67248535
165.57901001 251.75500488 417.15301514
69.96477509 246.02133179 459.01980591
131.65180969 257.86935425 394.86959839
70.53979492 232.10893250 450.88119507
144.90521240 150.79176331 476.94512939
160.36093140 212.90653992 528.47595215
162.23100281 194.15100098 452.46600342
128.40907288 292.76608276 399.59738159
51.96598816 228.12612915 576.80139160
67.40049744 275.28506470 599.74133301
162.03353882 279.91293335 520.71252441
177.55999756 265.26998901 508.84197998
104.76548767 216.04026794 415.29226685
217.76548767 241.99813843 501.05630493
226.41522217 249.11018372 491.05645752
168.06108093 327.28152466 533.87359619
78.53587341 287.30856323 477.30850220
100.68898773 239.67863464 576.13549805
225.46600342 312.33401489 525.01702881
107.35987091 223.70195007 568.46307373
158.44799805 249.73699951 410.93502808
143.56794739 324.07080078 470.24786377
91.49261475 161.36280823 512.07922363
83.32292175 178.23124695 558.34814453
119.23711395 306.38549805 409.56317139
216.06500244 286.79598999 518.02600098
61.52911377 223.56329346 483.63583374
118.47183228 333.27453613 506.34939575
83.98095703 265.89584351 596.71441650
78.22954559 264.92272949 435.97238159
248.68159485 325.56732178 519.82812500
182.19900513 226.66099548 495.21099854
238.60700989 272.89501953 494.96600342
173.47325134 259.51943970 497.03451538
61.46668243 217.29650879 604.78930664
136.44473267 262.47390747 533.88085938
186.77900696 330.40698242 479.30099487
208.63648987 303.21545410 528.11767578
136.21690369 214.04122925 403.56668091
186.79200745 219.10400391 457.95199585
76.58772278 207.45437622 439.97296143
72.49147034 181.24333191 508.41479492
250.03701782 286.95101929 456.25201416
111.28212738 163.13150024 543.93853760
76.41122437 291.94619751 490.37994385
71.25469208 260.63293457 607.14038086
160.05094910 325.49749756 481.05392456
170.88000488 307.19302368 425.53900146
179.83399963 279.30899048 426.08099365
190.55299377 248.59700012 518.68896484
87.34963226 168.87913513 525.31341553
98.93505096 315.80932617 547.19073486
135.97238159 169.43093872 451.62475586
207.06999207 256.74398804 449.65402222
131.20329285 199.28736877 424.20666504
110.53004456 233.52784729 566.25238037
198.07400513 315.58001709 451.14300537
115.26459503 324.64691162 486.68045044
191.93899536 224.13099670 473.29299927
98.50540161 266.45605469 578.72570801
53.42584991 224.86514282 587.43084717
100.15956879 204.28327942 568.31054688
61.45517731 212.10507202 501.07336426
115.08190918 150.63002014 486.12780762
184.18167114 314.05755615 547.76702881
60.17865372 212.45436096 556.25677490
216.63699341 236.32099915 462.61502075
264.05139160 264.73773193 453.64004517
69.26457214 275.05221558 528.00128174
61.55507278 208.93388367 594.75592041
158.48687744 323.43582153 449.50964355
174.45201111 322.02700806 464.85702515
72.08827209 286.30456543 519.93499756
108.28685760 252.87831116 402.57318115
232.49900818 300.28302002 451.84899902
102.59597778 321.12228394 492.15371704
79.93863678 296.72769165 545.64123535
165.55804443 306.78793335 540.78710938
69.13034821 189.81663513 524.49005127
158.29278564 223.71264648 539.34552002
93.20259094 261.79895020 413.41857910
154.81587219 254.44000244 400.81188965
246.08300781 307.75799561 456.72000122
87.96279907 307.65441895 497.35858154
72.83083344 216.54388428 607.07281494
102.89675903 257.07992554 575.34185791
61.61067581 263.71289062 557.77832031
70.44205475 275.12152100 481.30319214
191.71400452 245.59600830 501.75100708
125.53215027 319.34619141 445.92114258
102.45336914 283.03884888 569.47192383
152.28163147 296.67239380 534.31896973
103.01707458 322.61309814 521.37097168
160.12559509 157.93121338 497.78591919
161.49743652 185.31793213 511.87426758
54.83069229 264.93774414 566.97430420
103.39156342 224.16148376 410.69793701
152.37991333 335.54882812 503.51083374
127.33995819 217.08837891 554.57385254
157.92900085 321.22601318 436.35699463
216.16000366 332.39001465 494.78701782
55.09563446 243.94721985 564.42529297
119.63848114 249.03849792 560.19262695
163.45295715 322.63299561 546.76538086
123.96242523 190.29081726 427.75057983
141.41700745 191.68904114 433.12841797
133.67829895 315.76705933 415.84097290
82.53770447 177.76757812 541.34112549
223.61053467 317.37606812 532.03918457
80.01016235 189.86889648 581.60913086
144.74819946 149.34249878 493.16415405
125.13324738 182.84651184 439.26580811
166.87199402 235.99598694 537.52899170
94.24038696 210.01753235 424.30899048
245.12399292 262.05300903 453.55902100
81.81229401 278.28512573 443.87738037
134.81285095 323.01611328 462.65460205
94.35678101 316.11419678 504.01889038
230.00698853 295.54501343 510.67501831
225.66198730 330.89398193 480.52401733
160.12420654 197.50024414 517.10577393
128.93467712 311.74743652 553.47845459
188.75099182 230.77499390 451.45602417
67.35478210 281.47036743 493.98394775
55.71415329 239.22372437 604.64752197
163.28599548 203.30500793 447.48498535
174.50599670 225.12899780 512.68896484
58.96223068 242.72460938 518.38513184
69.27296448 193.79687500 538.30609131
231.25900269 318.11300659 454.91998291
186.67419434 331.28112793 510.26171875
172.73298645 266.73498535 420.40600586
106.61775970 288.14065552 552.71166992
69.11783600 193.30590820 479.85815430
140.67091370 324.60595703 447.71655273
96.44947815 315.20654297 485.15637207
124.51522827 164.34315491 537.56597900
183.09899902 188.61700439 469.08898926
156.27999878 215.70800781 431.26602173
181.44898987 318.53900146 458.48400879
182.58399963 208.33399963 490.53399658
201.91699219 271.97500610 439.69400024
257.19799805 312.17102051 498.18997192
176.69000244 259.62600708 515.73596191
233.61552429 314.15252686 520.42065430
262.75799561 316.02099609 474.26300049
149.35568237 309.57757568 408.58734131
113.60155487 156.80291748 529.49633789
62.06975937 253.44050598 529.54418945
53.16836166 224.69433594 568.90942383
252.04199219 281.61901855 486.29098511
56.08598328 237.81225586 505.65386963
84.96579742 304.08813477 542.76867676
178.85400391 198.70500183 459.82598877
114.31553650 316.42776489 477.89492798
142.70109558 215.72477722 545.74450684
73.21056366 195.11196899 587.53790283
52.04114914 264.60592651 582.72528076
153.65325928 180.11083984 517.80566406
98.02435303 247.44607544 580.18395996
78.76260376 247.45008850 422.96667480
74.20968628 252.89448547 446.82568359
187.02900696 241.48899841 472.34298706
121.78482819 180.85908508 545.01934814
85.42906952 213.67016602 591.89270020
177.95544434 286.18945312 526.56054688
206.77217102 316.84686279 541.78723145
174.67005920 180.75370789 463.19100952
61.66870880 253.33491516 475.20996094
148.51919556 330.51773071 520.61071777
185.17098999 256.59701538 520.46398926
117.33139801 266.42092896 561.33807373
134.83618164 186.22314453 536.93328857
131.50627136 300.41744995 403.14544678
213.71499634 300.28900146 448.52798462
117.49198914 290.36462402 402.08587646
112.24565125 254.42155457 566.40899658
67.91072845 283.03115845 564.98101807
181.66198730 239.54699707 499.95397949
139.72064209 155.08494568 463.43627930
130.65107727 334.31292725 521.88861084
111.25880432 311.81372070 461.25326538
222.61999512 259.79299927 451.13500977
80.86199951 294.61901855 578.70526123
140.98928833 258.75939941 520.36022949
175.14199829 215.78599548 506.06100464
80.02110291 177.13464355 480.97491455
257.01187134 249.35733032 458.67391968
120.93003845 277.19058228 544.64312744
97.27901459 190.83329773 432.73828125
98.89033508 180.88385010 444.70874023
164.13500977 255.42980957 496.97271729
71.11276245 203.17034912 600.72259521
203.69000244 245.13200378 507.78799438
146.67097473 226.59309387 401.91802979
168.82899475 316.80398560 449.25299072
165.14009094 174.69897461 460.22341919
50.35176849 236.59136963 575.66217041
195.86299133 259.34899902 435.96801758
179.98200989 229.90800476 442.08801270
101.76327515 312.12792969 475.20452881
109.51927185 200.66764832 425.83364868
163.23899841 269.49899292 413.48202515
56.72043228 261.40020752 600.81549072
255.30299377 316.72799683 469.01397705
218.46299744 250.68699646 507.43597412
108.30651855 324.63842773 535.36846924
220.60600281 288.72900391 449.33200073
276.93655396 264.74725342 453.61166382
145.09922791 246.89823914 497.23718262
103.18172455 157.42759705 477.89392090
260.26898193 280.00701904 456.24499512
139.51856995 254.73788452 506.21932983
144.48808289 215.41609192 402.04016113
157.55377197 331.01815796 519.17443848
79.83973694 210.57214355 430.30728149
167.82400513 244.45700073 532.71899414
136.02021790 335.09454346 502.28857422
111.42525482 311.24954224 438.13720703
125.52344513 170.49227905 449.25234985
207.03401184 331.25497437 484.15197754
167.50004578 295.14178467 530.26269531
94.80449677 311.96972656 563.00048828
161.64498901 307.48199463 419.95800781
146.81535339 287.29251099 530.28125000
137.36299133 151.52290344 512.32318115
157.58912659 283.47460938 406.20437622
60.88541794 213.73359680 537.33013916
151.60485840 216.53756714 412.04940796
183.49699402 251.76998901 429.56701660
92.18039703 313.78854370 515.99896240
116.34860992 297.07815552 529.90570068
106.72917175 267.12072754 398.25045776
141.58047485 325.94906616 488.35464478
184.06700134 272.26000977 519.78601074
185.61668396 329.19827271 532.50976562
200.40899658 275.97299194 518.79400635
185.33499146 239.38000488 464.38800049
78.71499634 261.81790161 602.20520020
170.17504883 189.91087341 506.17611694
212.91799927 308.97900391 448.79299927
151.47396851 166.03173828 514.54687500
95.31177521 301.10165405 458.85455322
125.22177124 207.52839661 551.11047363
122.70574188 331.88629150 528.58093262
213.43421936 233.94650269 490.20031738
75.14804077 241.08125305 437.70797729
62.38982773 259.66543579 518.37915039
125.77767944 336.01129150 512.02758789
181.40600586 230.04699707 485.85400391
219.31321716 329.37841797 535.21936035
75.87500000 186.47541809 566.40026855
71.18262482 215.70001221 457.78417969
158.99967957 245.14187622 516.33331299
91.74318695 165.93865967 475.74392700
243.77281189 258.27340698 477.84939575
207.29699707 272.44299316 514.54504395
212.01416016 230.41827393 474.45532227
188.51300049 281.44198608 435.02700806
244.05599976 315.81900024 459.81198120
155.77499390 241.80899048 410.87600708
62.99179077 207.53771973 494.50039673
80.49050903 303.03414917 561.95416260
247.55000305 316.37899780 509.91897583
158.00639343 332.89575195 509.88812256
209.97700500 329.07199097 467.98199463
76.71498108 276.18780518 463.19216919
165.06500244 229.90000916 432.24499512
125.99352264 320.27230835 461.87149048
81.00096130 300.26312256 529.37255859
253.30499268 298.36099243 493.93902588
110.61518860 183.06051636 439.41577148
154.23901367 191.74475098 442.25180054
149.89738464 324.18692017 531.97473145
94.29762268 314.59368896 536.30718994
112.87022400 300.97622681 411.57955933
91.84434509 225.79946899 412.08465576
177.00100708 327.84753418 536.77526855
231.74981689 255.31146240 465.39044189
58.64381790 225.97715759 510.08905029
119.68202972 233.53991699 558.94592285
232.67900085 260.75500488 454.29699707
239.95700073 292.56799316 501.55801392
214.67498779 252.46398926 453.48800659
73.78194427 223.34428406 441.89212036
75.27969360 296.92672729 500.81240845
147.31015015 325.09182739 453.83697510
193.53799438 225.77699280 460.51202393
155.32426453 206.47052002 530.48669434
87.62179565 283.32421875 434.37332153
68.71425629 229.23580933 610.77246094
203.97299194 288.37002563 444.07098389
203.53771973 330.51077271 528.01129150
124.91052246 293.68237305 524.27929688
65.64196777 201.52810669 584.61596680
108.26382446 277.57742310 397.54574585
154.76913452 156.20530701 471.89639282
230.86599731 277.27899170 501.61804199
189.08799744 242.17799377 437.53701782
143.28964233 336.20211792 506.19537354
198.00509644 293.70843506 526.26525879
181.60699463 332.87399292 496.30599976
193.02999878 252.89100647 525.92401123
205.65299988 258.79498291 518.05902100
76.67421722 225.60523987 433.46026611
167.34600830 293.35702515 415.60000610
149.10708618 156.13352966 509.13751221
143.94697571 241.97538757 401.82330322
178.02099609 189.03700256 495.12100220
205.75300598 238.24099731 480.58099365
176.23400879 305.83599854 431.48300171
65.06960297 270.94079590 556.18176270
213.64599609 314.67828369 534.30462646
143.08793640 271.63421631 396.84594727
102.39167023 301.92486572 551.12109375
237.22399902 259.39199829 483.90798950
139.60757446 305.93121338 541.82531738
88.31328583 257.27343750 592.13824463
129.58177185 184.80992126 432.54104614
152.62933350 228.13485718 410.57412720
147.12246704 312.17047119 539.65765381
141.13629150 261.46087646 393.69149780
63.70279312 271.07531738 510.96505737
170.82099915 230.88400269 527.19702148
115.72558594 326.11221313 542.83398438
147.48696899 202.40942383 430.30670166
125.33509827 147.58685303 493.80700684
58.03063583 248.13059998 557.83746338
199.69599915 332.61297607 498.44802856
117.99329376 280.53631592 398.76443481
125.82051849 156.73266602 529.04656982
192.57000732 245.77101135 457.96701050
112.61790466 153.83044434 521.34039307
164.93399048 320.72698975 463.17700195
61.30057144 246.25387573 478.98281860
110.66825867 312.10806274 543.58306885
227.43199158 325.80502319 463.81597900
235.56539917 330.48498535 527.85925293
278.45999146 284.42401123 461.43298340
238.30899048 277.04302979 453.64498901
140.68270874 286.55050659 398.92712402
121.67312622 214.38275146 413.15975952
259.28698730 305.24700928 462.01898193
137.18791199 241.67532349 500.99075317
113.63992310 208.13493347 559.71240234
112.57388306 190.35900879 429.89022827
130.70343018 276.97698975 394.99063110
154.75556946 202.49629211 436.95776367
86.17748260 224.47569275 593.93652344
105.41500854 298.89651489 540.35687256
165.28141785 333.50634766 495.03829956
243.67498779 332.73800659 501.65496826
52.55996323 238.27749634 593.77008057
96.01672363 285.59909058 573.59771729
129.44322205 329.32327271 538.74725342
130.38385010 267.50119019 547.27752686
184.69700623 202.03300476 482.19497681
169.13014221 162.69140625 484.24050903
151.52468872 153.49958801 502.14422607
67.08950043 222.95600891 473.10943604
144.19833374 208.16040039 422.53503418
196.32969666 306.52886963 533.84948730
98.96758270 164.25314331 462.15151978
58.04816437 250.39247131 489.90509033
69.82399750 239.13581848 454.93231201
63.52235413 203.20788574 532.16998291
85.08589935 222.51866150 416.93621826
84.77821350 290.03381348 458.53024292
101.53337097 314.22842407 554.58526611
98.51122284 301.11654663 443.27493286
90.59765625 302.69644165 467.71209717
175.97999573 207.88900757 454.87100220
68.60876465 208.71286011 472.84979248
277.58395386 291.08087158 467.98477173
223.68499756 270.89501953 504.58596802
138.39118958 310.66647339 410.05090332
215.62300110 265.38198853 507.72601318
144.49571228 317.77325439 422.19515991
71.99629974 191.48773193 572.93206787
97.82185364 268.23211670 406.23217773
75.36521149 199.58689880 460.52951050
273.29843140 308.19580078 484.10076904
74.60911560 179.88667297 500.24407959
136.62251282 241.24726868 399.63626099
97.88644409 226.93089294 578.11395264
65.90019226 255.80993652 610.14392090
166.97799683 215.98699951 442.26000977
171.48237610 270.41696167 508.85235596
88.52667999 240.71653748 592.18768311
140.65821838 322.80148315 546.50836182
182.94863892 325.53536987 548.18450928
59.88193893 222.64900208 527.18200684
217.65577698 332.08432007 521.10668945
133.90303040 199.36117554 542.41723633
99.14600372 159.61679077 517.81384277
76.87623596 291.74435425 531.80358887
223.11599731 248.56401062 458.92199707
82.79330444 306.24017334 510.86032104
217.56201172 280.01599121 512.71197510
266.02154541 264.94375610 464.76486206
249.03256226 251.08474731 456.94662476
68.73111725 259.42282104 469.73089600
61.10783386 270.97509766 598.24316406
258.27288818 279.82534790 479.90805054
163.69999695 278.39498901 413.72497559
261.18698120 327.00000000 497.59997559
268.16378784 285.79727173 475.24600220
153.04257202 272.33557129 398.65792847
149.10252380 151.19299316 487.20846558
100.51700592 198.93171692 425.04684448
62.10185242 206.66746521 525.25000000
131.73086548 315.92791748 428.44372559
119.86642456 221.24557495 409.70397949
94.35593414 215.83435059 580.98803711
88.57128143 278.73764038 582.72442627
82.48909760 194.01779175 444.43008423
100.71380615 211.46211243 570.89624023
79.34944153 231.59860229 603.56243896
146.96784973 267.23825073 514.45318604
128.02609253 319.09036255 476.16271973
78.20717621 185.46902466 463.11099243
155.66735840 290.93869019 407.21054077
53.50694275 255.56385803 594.78717041
104.90573883 170.92544556 554.00061035
255.87300110 324.80801392 483.72500610
248.60699463 268.86999512 453.90100098
58.67058182 233.80314636 520.81237793
93.17950439 294.41583252 445.48611450
99.42728424 303.15878296 433.81362915
144.73580933 180.94149780 526.34991455
169.94699097 224.27099609 519.48797607
123.89884949 311.38858032 413.79183960
142.04705811 278.69265747 520.18170166
211.86442566 322.33248901 543.85620117
108.08910370 327.17129517 518.07617188
107.35055542 241.54272461 569.43853760
252.92399597 305.18298340 497.33099365
208.20500183 239.75299072 465.17199707
237.70500183 265.71099854 491.34899902
201.35000610 328.65899658 467.27697754
125.31752777 326.15747070 489.93600464
99.12257385 155.39416504 495.50790405
118.44355774 311.78887939 425.46118164
77.84345245 235.63172913 425.00625610
121.24108124 190.72988892 547.63317871
95.24753571 200.92619324 573.10699463
160.12843323 265.01757812 500.37991333
140.97225952 252.60433960 514.96405029
159.55999756 323.49499512 467.76300049
113.14921570 206.59048462 421.84820557
260.17877197 257.17883301 451.26004028
75.39962769 203.71978760 453.72714233
139.67723083 148.21791077 500.27609253
101.07775116 280.56161499 402.28726196
200.35900879 245.12100220 472.38601685
56.45913315 222.20820618 598.45642090
172.93800354 247.30099487 523.30297852
277.63061523 301.18243408 475.27444458
92.18274689 170.44218445 550.01116943
176.14068604 173.39389038 471.91583252
142.82524109 299.27935791 536.68737793
157.02156067 309.16909790 539.83453369
100.79174042 321.48745728 500.25433350
116.43905640 331.51092529 523.16711426
100.32416534 290.41720581 562.13415527
201.88600159 321.39599609 454.05502319
60.59939194 213.67048645 514.40917969
121.27465820 318.64370728 452.65753174
102.06639862 155.89773560 485.23559570
111.74488068 285.96115112 538.05816650
144.04443359 245.94989014 511.67111206
66.83198547 289.73748779 574.96081543
58.21881104 260.61679077 501.86837769
91.86659241 291.68203735 572.09234619
164.77560425 329.75070190 524.41143799
61.63999557 253.68893433 545.41497803
87.20629120 197.42492676 430.38143921
177.61199951 288.61199951 424.65002441
131.81626892 210.30007935 411.28558350
97.74536896 240.66911316 410.47055054
193.83143616 284.43844604 523.38696289
136.44212341 170.65081787 530.32641602
73.80122375 187.83044434 547.79968262
82.58188629 294.18527222 470.36227417
216.80599976 302.62802124 523.36499023
177.74378967 279.06427002 490.37728882
80.01926422 231.29714966 416.41656494
139.54898071 322.43106079 477.91049194
76.73162842 291.26467896 541.57128906
207.91558838 309.18499756 531.79235840
227.43341064 248.55242920 483.68630981
179.71899414 262.30599976 425.84197998
265.27999878 303.31600952 487.27499390
206.98100281 240.15299988 502.56597900
63.25253677 205.19046021 551.46472168
244.36900330 286.60198975 495.52801514
174.89199829 295.16101074 422.38198853
92.77796936 185.34860229 444.23739624
246.63000488 323.84500122 473.47500610
149.75106812 194.89372253 529.38256836
269.16302490 282.91799927 458.77502441
74.53871918 177.56861877 514.60058594
190.56700134 218.02999878 477.31097412
180.67100525 294.44302368 434.55200195
120.52497101 204.46354675 421.01257324
63.00232697 264.36370850 482.88916016
158.82409668 170.21423340 458.91564941
114.64973450 314.60937500 452.33526611
185.98399353 227.58000183 467.44299316
126.35682678 171.68032837 538.60211182
164.45300293 320.44601440 454.75302124
57.96530914 210.49909973 574.88763428
72.60723114 188.87741089 472.76995850
96.59126282 254.24188232 410.87127686
154.38732910 263.22155762 401.52294922
64.96955872 238.21726990 467.52807617
75.28212738 265.39010620 452.26660156
77.07608032 276.43267822 455.93997192
212.42601013 280.37399292 446.07400513
60.69739151 268.99575806 493.78955078
151.12583923 258.32263184 498.25100708
114.87002563 313.93521118 467.95129395
105.98677063 178.19546509 444.42816162
208.26899719 263.94500732 509.81802368
120.87126160 219.88630676 559.53686523
87.25872803 174.97773743 457.31588745
65.22480774 199.31661987 575.63446045
169.30700684 290.96343994 487.27511597
258.57476807 261.28222656 470.09237671
109.09827423 311.41522217 447.18722534
190.14268494 297.34109497 529.79559326
218.71150208 236.10472107 482.78573608
165.20492554 210.83862305 514.02752686
184.66499329 310.57299805 448.79299927
175.41206360 170.89028931 480.79379272
146.03308105 252.22474670 521.30743408
74.66625214 295.56164551 561.52734375
92.80761719 251.15066528 586.81396484
109.34947205 325.13000488 490.72695923
188.11300659 266.19000244 431.28100586
174.96800232 220.08299255 446.51998901
105.42332458 288.88360596 403.80465698
75.38325500 208.83366394 602.38439941
148.13264465 298.58663940 403.86318970
85.54024506 271.36273193 423.97290039
222.45170593 244.48254395 496.05038452
49.73369598 251.91595459 578.33099365
85.89700317 288.05648804 451.10360718
90.87471771 192.96170044 574.14672852
61.35176849 276.46014404 568.19311523
170.80599976 316.09600830 442.28298950
79.29185486 299.09875488 517.57287598
230.67698669 271.65899658 450.82501221
196.34400940 249.14500427 451.28399658
108.98449707 151.07717896 497.34350586
179.19544983 263.63909912 493.16864014
58.53740311 221.53031921 501.70285034
107.23460388 159.47265625 534.93817139
59.48889923 236.08666992 533.33074951
124.59281921 257.62985229 557.96868896
182.99099731 245.25399780 517.50305176
242.11000061 303.89300537 505.37097168
163.14802551 265.51922607 492.42401123
179.52841187 329.48132324 528.21997070
233.78233337 323.91528320 532.60339355
102.93724060 305.58856201 448.88226318
212.26875305 231.59449768 467.30923462
253.40499878 277.72000122 456.02301025
105.00372314 308.11816406 460.32626343
150.24510193 206.75978088 535.74163818
60.12218857 246.40539551 546.08105469
188.63500977 332.39498901 503.51602173
83.08489990 251.80357361 419.23388672
78.68318939 182.11450195 547.70281982
50.30986786 250.08699036 570.31890869
149.04049683 275.08306885 520.78076172
151.74455261 333.75277710 495.44494629
170.70100403 249.96000671 421.91500854
53.44465637 229.62765503 594.14801025
82.96894073 173.69570923 467.59091187
169.66299438 236.17900085 429.63000488
82.76590729 305.18051147 503.08532715
135.46974182 313.56637573 548.35095215
129.80059814 247.59980774 500.70889282
168.82299805 190.64399719 455.84197998
207.04899597 297.01998901 446.67300415
67.82423401 227.36506653 461.32235718
119.51032257 236.76980591 400.23983765
102.51023865 291.51028442 413.00637817
107.86755371 154.54602051 513.62542725
68.54786682 188.39311218 513.40924072
208.57000732 287.07598877 522.82397461
82.18604279 224.93716431 599.90533447
81.70277405 186.26075745 456.38253784
151.04570007 315.17968750 414.54281616
160.39199829 229.55000305 418.66101074
184.69799805 274.59399414 429.87100220
189.62500000 327.27102661 467.52102661
258.51898193 298.59399414 458.86001587
77.06735992 280.97506714 470.43756104
167.30000305 326.61798096 479.53701782
204.82400513 247.55799866 514.90600586
89.21866608 285.91903687 425.79354858
112.87996674 329.76855469 500.62680054
57.23144913 214.04290771 583.37512207
209.40699768 244.42001343 458.39199829
83.48921967 181.16207886 565.82891846
59.71319962 218.23747253 547.05969238
187.57200623 243.66099548 495.73999023
174.41218567 278.79263306 482.51995850
124.00538635 152.27133179 468.86596680
112.74483490 261.51199341 566.01446533
77.11177826 254.67848206 432.91275024
246.85299683 329.35198975 486.88900757
58.44753647 234.00958252 549.56158447
265.86917114 292.51235962 480.84475708
90.75013733 168.43429565 533.20385742
198.98199463 304.99200439 446.42800903
68.99294281 237.35903931 612.16918945
120.97028351 160.72492981 454.87030029
119.06069946 282.11163330 528.43701172
138.20361328 232.43338013 549.95843506
151.64401245 323.24600220 439.09399414
221.13052368 237.92224121 468.09310913
228.17700195 333.28802490 506.25698853
225.51448059 251.74638367 464.84567261
255.69480896 254.44966125 467.53244019
162.01399231 187.13800049 456.20001221
183.83813477 281.60205078 525.01519775
132.78334045 159.69017029 527.39160156
112.24536133 216.04727173 561.91973877
151.88430786 218.49655151 540.72357178
201.25900269 243.62899780 485.72702026
90.69989777 163.11770630 493.10723877
117.23997498 314.36389160 434.04873657
66.83983612 246.41877747 465.10787964
60.71368027 209.09777832 562.37573242
73.23533630 185.45098877 491.78802490
116.93018341 333.33486938 514.53308105
269.08502197 313.41156006 476.06866455
137.13232422 321.01620483 433.61169434
125.88121033 307.97225952 547.77471924
139.18130493 257.42037964 540.35717773
63.52576447 260.30163574 525.05346680
57.73595047 274.38088989 573.86621094
84.97360229 305.18417358 570.78460693
79.03282928 217.65222168 425.08874512
122.41605377 273.14578247 395.58163452
85.90948486 182.05160522 452.30548096
148.49209595 330.08709717 528.44384766
148.44313049 318.81976318 537.94531250
115.24210358 253.85627747 398.56491089
128.55317688 325.94848633 548.59942627
263.59521484 250.53968811 456.42721558
139.93440247 178.73411560 445.97381592
196.30400085 224.67700195 466.94100952
163.83700562 237.00399780 419.80401611
106.12596893 277.03872681 569.45495605
218.00700378 264.83499146 447.81500244
198.31394958 322.82550049 549.85607910
238.76081848 254.83497620 465.07733154
118.01376343 273.26257324 558.82470703
252.51400757 261.36700439 453.74200439
89.74430084 234.30770874 589.63909912
219.48899841 272.66201782 448.57299805
188.38900757 332.24401855 487.99899292
133.91508484 285.28753662 398.26916504
236.45899963 294.57101440 453.51998901
163.36038208 220.99508667 531.29882812
247.82400513 269.46099854 484.54299927
196.46600342 277.35400391 437.25000000
249.23880005 256.19882202 472.51251221
171.42576599 198.59577942 504.36264038
97.89539337 172.17135620 452.39511108
268.95687866 317.46160889 494.96548462
149.21934509 248.70397949 397.62478638
97.74486542 319.96923828 517.44384766
278.45071411 271.12216187 458.62185669
100.38297272 302.26892090 565.40649414
187.54899597 203.65299988 476.04699707
171.08207703 321.85650635 551.42340088
113.41221619 247.70629883 565.13342285
69.01081085 285.28363037 509.09881592
142.78619385 335.53768921 516.09808350
65.98712158 252.93374634 469.75952148
137.75885010 331.18756104 496.19284058
133.14677429 279.31201172 517.19842529
137.31782532 196.25598145 428.76513672
138.08309937 149.78784180 475.81591797
72.50667572 199.78936768 467.22906494
78.73326874 283.69827271 460.22048950
66.59157562 201.05972290 480.77847290
131.69688416 220.90232849 400.26605225
174.58699036 245.94299316 426.28799438
83.62902832 303.16342163 536.15893555
159.91421509 295.03808594 531.67041016
62.56865692 239.30325317 479.67462158
200.94760132 328.60784912 539.17419434
56.30496979 246.88989258 605.48864746
224.79598999 297.44198608 514.82397461
114.84904480 191.35021973 552.96307373
101.00929260 319.25488281 539.75036621
181.28100586 239.18299866 435.88598633
150.83030701 239.55354309 401.53628540
209.16398621 274.68298340 443.90100098
175.02600098 282.13998413 421.48797607
182.28900146 192.55999756 485.63400269
114.13671112 328.14047241 533.93707275
111.08322906 167.01478577 451.96881104
146.09745789 166.30259705 519.84320068
68.53801727 277.16552734 521.79376221
165.70547485 164.28376770 469.09658813
272.58087158 259.92596436 456.47161865
212.48599243 326.12799072 458.79901123
81.02684784 297.17514038 490.22561646
183.30400085 199.96200562 464.89797974
138.80140686 324.13378906 453.87512207
255.45999146 287.76800537 486.11700439
142.67706299 200.69726562 538.78875732
124.40670776 147.58459473 503.63088989
49.85755539 239.64292908 581.72180176
128.70645142 251.35668945 394.44891357
60.48000336 215.96733093 522.90002441
172.72000122 331.45800781 488.80401611
178.55599976 210.19000244 498.03500366
78.89417267 270.57446289 440.00088501
200.11100769 258.49801636 522.62200928
63.72085953 276.12490845 496.30599976
206.79849243 232.35414124 490.19848633
232.83399963 301.75500488 510.81799316
113.99063110 237.93176270 404.03070068
222.07299805 306.80902100 522.25201416
221.55000305 254.55900574 455.36700439
150.57295227 324.05593872 461.15631104
73.07746124 283.53674316 535.32952881
141.82600403 191.23469543 533.77203369
252.61801147 331.47601318 510.16198730
177.04122925 286.55892944 491.69158936
189.48799133 224.78399658 455.15100098
54.99662018 217.71380615 571.62835693
145.94406128 242.00767517 544.38476562
238.92274475 319.40753174 523.12854004
78.40644073 243.41911316 605.58917236
233.60400391 288.42800903 453.73400879
111.16622925 150.30381775 503.70724487
152.41751099 158.77183533 464.67153931
110.22235107 183.10061646 554.38946533
246.87199402 294.84399414 455.46798706
169.36199951 276.19046021 518.96368408
121.67645264 317.27661133 465.59286499
133.37332153 247.03335571 551.70874023
105.50611877 240.75050354 406.91018677
144.29692078 283.61828613 525.23168945
178.62268066 299.35656738 532.14392090
102.75144196 325.29583740 506.04223633
124.15976715 279.58724976 520.40527344
150.94798279 250.22875977 528.50799561
160.76899719 241.81201172 540.94396973
153.80822754 230.91557312 542.60559082
117.26001740 321.47845459 553.35565186
250.03886414 264.41751099 480.27487183
250.57899475 331.65100098 501.71099854
138.57199097 334.78979492 529.31524658
72.39984131 292.74938965 505.13439941
143.06022644 154.97534180 513.32666016
212.26899719 238.49900818 457.00299072
218.32600403 295.45098877 449.22302246
144.41590881 242.40855408 502.17288208
204.43600464 241.83499146 494.79101562
165.92399597 316.54098511 433.51599121
195.40699768 300.44601440 443.01998901
152.37722778 259.27038574 396.36056519
59.31032181 230.16299438 536.44940186
60.23537064 225.92950439 607.78173828
180.41882324 281.69479370 479.58416748
157.46598816 323.56799316 442.62500000
73.14722443 250.65625000 452.81604004
112.21045685 156.97209167 462.28628540
99.98813629 175.99523926 559.35894775
143.96638489 252.98381042 534.80358887
69.65190125 192.37879944 564.81030273
184.17898560 227.13999939 476.68099976
132.31097412 235.83489990 397.07662964
81.13830566 272.31216431 596.54644775
236.26199341 325.52297974 467.99002075
165.70500183 253.98799133 506.03802490
158.29299927 266.57901001 404.85998535
225.62254333 322.91668701 537.36108398
208.29100037 263.27499390 443.44601440
183.15600586 305.63699341 444.10101318
167.98956299 268.44610596 488.71850586
157.38200378 305.13500977 409.20199585
79.21782684 171.67817688 514.25061035
73.72846222 197.36378479 594.17987061
92.00929260 316.52890015 510.11007690
159.50941467 178.46852112 511.51513672
272.39865112 295.71099854 463.03692627
130.89466858 156.57382202 458.89215088
172.99702454 331.21588135 519.30224609
181.32865906 306.39419556 538.88604736
132.22399902 151.74804688 516.38562012
88.84082031 306.25958252 479.54888916
57.77658463 257.68063354 561.97125244
68.04316711 278.32846069 488.24523926
83.69130707 245.16003418 415.10549927
69.04289246 274.12368774 537.11804199
182.95886230 270.19140625 488.00924683
104.92467499 162.32412720 542.18817139
74.22791290 262.17691040 460.17221069
172.51300049 266.70797729 504.36801147
161.46679688 191.32913208 514.87878418
169.94999695 312.33798218 429.67001343
194.01582336 330.21035767 528.00476074
103.84934998 218.38412476 570.26660156
246.17298889 331.43600464 495.52200317
173.26499939 324.52700806 472.88400269
136.07449341 227.08151245 397.66397095
105.84738159 160.46362305 461.05468750
161.23214722 327.12493896 531.64294434
105.18663025 305.07394409 430.67077637
271.22399902 269.59802246 453.39398193
221.00900269 329.14199829 470.48501587
151.15115356 175.81132507 454.13455200
175.26599121 275.54800415 421.74099731
267.58023071 257.36239624 459.92782593
249.27600098 321.00997925 515.08898926
116.87459564 263.36923218 395.66357422
225.63999939 283.70401001 451.28500366
137.62744141 242.87960815 510.03634644
68.91495514 214.54692078 469.84893799
61.36540222 250.67448425 610.13067627
109.43984222 303.00650024 420.48175049
162.48809814 204.13980103 513.90673828
105.09703827 310.03607178 466.71469116
56.37343979 235.41249084 562.31842041
64.42859650 199.88031006 525.43231201
254.95964050 267.51254272 476.91198730
64.91046143 210.03053284 480.47317505
86.03541565 173.43826294 537.11346436
66.84015656 269.53738403 481.01226807
75.74719238 232.20109558 433.34008789
91.91863251 217.67309570 421.21859741
85.96294403 190.20964050 578.86511230
72.99615479 236.48854065 446.74380493
171.36601257 254.62300110 511.27798462
89.80770874 165.70469666 519.88531494
122.90938568 265.90332031 557.90832520
221.21000671 332.23901367 490.64300537
258.21798706 322.96099854 507.60000610
73.10498810 218.26020813 446.37265015
74.51545715 280.07037354 480.12033081
213.67500305 315.46899414 448.72702026
50.95832825 242.34606934 569.10986328
160.37133789 247.75260925 529.93884277
120.72688293 226.34223938 559.18316650
155.22198486 153.42031860 487.61126709
150.55636597 184.84292603 523.10595703
168.35862732 180.72660828 502.58831787
115.39905548 286.42944336 531.61566162
86.78096771 252.86862183 596.76263428
57.27824020 234.73646545 497.23538208
253.01501465 292.74697876 455.91101074
185.09800720 213.14399719 459.92999268
130.01756287 317.87261963 434.29290771
135.18676758 148.75413513 489.07952881
87.30622101 211.74295044 425.96939087
79.29383087 225.24975586 419.86953735
172.24336243 332.65573120 512.86627197
115.41911316 315.73764038 550.11596680
71.79370117 296.32110596 571.22943115
203.38400269 332.72799683 508.90600586
86.75749969 200.22764587 584.48272705
69.22173309 243.81687927 611.95007324
181.32099915 314.59298706 452.63098145
91.10344696 278.21704102 413.92660522
71.77374268 287.15237427 492.08700562
129.83868408 324.06362915 486.22933960
130.22325134 302.76007080 540.98913574
142.98489380 321.28976440 429.92874146
184.81600952 235.90899658 451.15499878
158.54212952 168.96664429 508.38012695
91.45625305 311.67837524 531.23834229
129.09820557 194.89205933 543.23498535
154.72422791 219.50744629 417.91629028
243.15800476 282.56900024 453.81701660
176.98599243 233.35499573 513.57196045
163.06900024 232.33700562 541.24804688
209.30599976 322.98999023 453.48599243
167.20800781 283.80798340 413.74099731
159.80799866 227.13999939 429.73797607
123.67048645 304.05413818 404.48764038
173.10200500 328.41302490 482.89199829
107.19878387 315.09399414 548.10473633
183.19999695 233.30500793 464.44500732
124.72895050 330.18048096 495.99295044
191.85427856 328.02087402 540.08703613
61.49253082 209.81329346 506.89904785
146.65039062 277.10293579 395.31631470
263.78802490 319.08700562 479.80401611
173.33937073 264.63821411 483.91357422
107.44459534 188.29710388 435.56378174
219.17974854 239.15600586 494.74359131
59.35718155 218.46002197 554.05767822
58.20592880 246.70814514 513.60150146
78.67365265 250.19419861 604.65728760
131.41966248 321.95474243 446.43576050
60.59111786 253.95184326 511.78167725
96.79644775 295.56799316 423.39682007
146.76428223 211.55603027 417.52810669
204.11599731 329.66299438 473.13101196
156.13713074 253.24780273 496.62637329
113.21363831 216.77639771 413.43911743
96.59422302 308.91879272 472.62533569
166.53086853 168.43457031 464.53146362
89.71569061 212.73756409 584.13964844
84.78631592 259.67706299 597.75701904
187.58699036 219.45098877 485.80801392
179.37899780 204.18299866 494.16799927
134.29956055 270.71679688 515.01641846
109.79750824 167.91291809 549.38305664
134.80943298 214.36140442 548.84863281
66.03227234 199.44071960 554.25048828
149.44018555 330.17391968 490.62481689
97.87592316 213.92289734 421.11407471
219.42900085 256.87500000 504.01000977
155.51382446 277.85940552 522.26690674
224.33898926 260.53698730 496.37402344
100.12121582 160.26991272 524.08972168
81.02226257 209.69557190 597.16113281
79.79264832 173.65365601 497.51309204
195.11500549 263.05999756 515.22100830
122.57981110 225.64236450 403.17980957
206.33555603 233.25849915 468.81243896
270.70761108 306.06463623 468.37915039
235.73100281 329.35299683 478.53500366
99.90551758 233.38304138 577.17358398
71.63455200 286.39273071 561.22918701
192.12300110 254.67500305 433.95501709
91.65446472 161.20568848 505.83105469
112.76373291 278.33819580 560.79504395
205.82099915 233.76199341 476.13702393
144.53344727 259.18377686 506.05511475
184.56550598 293.96829224 529.48138428
233.56199646 332.74200439 496.33499146
57.77520752 249.32554626 501.55282593
118.86797333 175.35220337 546.16131592
176.64283752 312.74606323 547.96606445
189.46899414 210.87500000 476.29998779
157.56764221 284.78872681 526.56109619
98.68923950 192.95161438 425.29833984
149.35093689 184.87170410 446.52139282
124.63163757 313.51379395 426.50167847
168.72399902 204.50199890 450.39300537
81.03648376 204.55679321 431.89282227
60.16109085 213.90013123 598.31555176
69.13765717 191.94203186 493.99240112
227.05744934 247.82415771 474.69735718
50.21777725 257.97781372 581.60119629
206.07472229 329.63345337 533.37713623
129.05499268 241.40316772 396.49737549
162.10600281 257.73999023 411.45599365
267.96902466 319.94900513 489.31597900
124.76023865 327.07568359 542.22393799
221.63999939 319.06301880 452.32000732
202.80911255 319.79327393 546.59759521
160.52148438 182.00457764 457.16833496
138.32734680 205.36767578 542.91925049
229.20199585 308.91900635 450.97399902
153.77777100 246.52032471 540.58221436
246.84019470 255.76438904 453.49984741
141.93693542 224.02293396 547.69323730
117.93484497 193.57775879 427.73437500
134.19812012 252.11161804 502.51037598
90.58071899 205.11270142 423.83401489
81.57685852 174.96018982 488.38317871
154.44099426 218.01100159 425.16699219
57.66968536 231.87289429 508.26483154
97.12397766 164.89347839 537.53564453
183.01205444 320.47506714 553.11749268
239.34100342 332.71899414 511.03903198
139.92872620 248.18222046 543.86700439
69.09494019 270.47525024 603.22882080
169.53562927 169.60476685 493.67062378
133.38816833 265.82397461 538.16076660
164.24238586 214.71437073 520.01580811
60.31505203 243.03854370 532.13757324
115.98076630 243.71739197 401.23648071
76.68726349 287.85079956 484.46578979
188.67300415 213.73500061 464.92300415
177.38980103 269.70056152 480.55267334
74.05635834 286.35382080 546.44134521
143.82542419 174.70321655 525.17016602
151.92318726 324.23522949 477.10540771
58.25051498 238.60325623 490.97128296
209.13800049 251.02001953 455.77801514
87.88935852 308.51376343 523.56066895
242.18998718 254.53648376 470.44036865
123.31460571 196.34487915 426.82525635
70.94454956 283.37753296 589.12414551
179.44200134 218.14300537 500.89596558
177.68499756 233.85700989 437.87597656
127.28752136 319.37792969 467.84854126
130.16554260 225.19264221 554.16119385
156.58390808 244.96136475 506.42477417
55.07762909 269.94805908 586.62719727
185.89599609 300.15798950 441.48098755
148.99426270 212.78376770 540.35589600
169.21345520 310.26568604 544.47894287
103.77382660 316.15975952 479.52560425
119.56170654 302.63076782 533.85192871
131.32296753 170.56419373 534.63867188
129.92050171 270.78317261 394.41348267
64.28117371 283.60604858 579.10021973
187.40199280 250.58799744 525.20501709
219.09800720 241.36300659 459.78799438
58.49607849 227.60688782 554.40661621
141.20684814 166.81275940 453.89291382
197.72799683 325.94601440 462.57598877
94.77796173 283.84921265 413.34280396
87.75600433 164.66334534 499.54528809
99.68582153 320.06631470 525.64111328
122.20021820 176.17481995 443.83432007
172.88027954 282.53796387 526.61199951
161.14544678 163.00280762 501.16659546
74.46221924 211.77934265 443.77478027
224.10006714 240.79978943 473.43243408
188.99600220 290.24499512 436.21099854
111.94467163 153.95376587 470.96777344
153.66569519 261.83828735 503.39364624
129.95297241 243.58273315 555.58587646
170.58200073 257.35900879 421.14999390
175.38140869 292.42999268 488.78558350
111.49398804 298.25170898 533.48571777
72.93707275 228.73576355 445.46951294
267.63916016 274.53387451 469.33520508
130.83555603 288.58630371 521.06103516
64.91802979 207.15090942 599.50006104
85.38108063 300.18612671 483.01950073
69.59045410 186.70541382 507.77960205
271.46435547 314.87759399 490.06204224
99.25370026 155.39137268 503.21017456
77.51639557 218.63412476 431.37698364
176.01795959 178.29425049 490.01049805
120.55894470 204.03189087 553.14355469
251.50001526 306.80401611 459.29699707
90.62943268 311.77481079 501.58273315
185.84700012 239.64099121 446.47900391
60.90847015 216.84115601 488.00564575
227.76074219 254.26492310 488.21017456
167.21623230 160.29821777 478.81933594
214.79701233 285.94500732 446.28997803
102.35303497 246.98620605 575.92651367
168.71600342 226.75900269 437.15701294
232.45700073 308.43200684 515.71398926
264.67599487 292.05200195 458.51901245
185.78900146 205.42300415 465.70101929
221.96723938 332.60375977 515.96771240
213.09300232 332.83401489 510.54000854
241.27299500 278.90301514 495.22799683
83.69882965 287.81115723 577.61230469
139.40139771 259.92050171 526.40130615
63.54318619 201.21475220 515.83801270
160.57781982 248.94396973 503.82882690
89.19824982 226.86366272 588.85620117
154.01847839 314.82049561 536.95404053
135.04724121 163.10084534 454.33569336
86.62165833 195.47094727 436.12408447
183.67799377 238.00100708 475.92800903
89.76099396 308.74444580 490.36911011
153.84140015 167.23826599 457.36965942
87.62055969 273.38278198 586.42022705
192.26998901 244.82199097 471.90402222
247.53819275 330.94161987 517.47503662
250.03298950 276.09802246 485.02401733
174.51499939 228.46699524 440.05200195
88.09493256 231.43026733 408.92477417
213.77000427 290.91198730 524.22302246
82.26229095 290.64819336 463.90209961
97.47023010 168.78729248 552.32543945
138.97286987 160.49995422 522.71044922
224.05400085 296.17498779 451.06597900
78.92015076 259.99700928 429.81335449
69.64250183 224.15830994 456.46997070
127.88298798 153.11840820 520.48272705
74.26146698 288.93170166 524.78704834
90.03625488 288.12744141 437.29745483
158.12533569 206.49720764 525.41973877
270.38018799 269.20590210 464.59179688
100.83535004 304.51626587 457.51150513
202.53199768 331.87698364 488.02999878
59.88381577 278.18615723 577.95111084
105.65642548 246.87904358 406.94335938
58.60715103 227.07870483 515.76849365
119.00250244 149.94844055 509.22082520
55.89377594 227.99841309 563.45495605
57.49221802 254.90763855 503.85604858
248.01400757 293.31201172 494.85598755
82.27643585 200.66696167 591.32830811
205.00900269 331.94100952 518.87396240
168.79400635 247.78201294 513.92999268
155.49974060 278.34268188 401.13052368
277.79251099 295.26544189 472.18441772
139.31721497 186.53826904 435.67492676
163.40303040 291.16091919 528.22296143
123.24082947 274.29870605 535.11181641
81.25879669 169.88179016 509.06915283
156.84552002 303.91192627 537.06506348
123.06912231 322.63821411 553.83691406
231.51622009 332.27621460 520.92022705
146.55839539 286.33679199 400.24096680
266.04501343 322.59197998 494.48098755
96.68420410 158.28428650 490.95315552
221.05899048 248.49000549 502.37100220
141.46601868 329.49249268 540.46936035
137.25590515 272.84774780 395.85665894
125.56250763 317.86193848 440.21084595
92.92765045 311.11550903 547.98883057
74.11880493 247.43266296 443.44003296
264.47409058 297.58282471 484.39535522
204.67218018 297.31924438 526.36364746
165.00502014 259.12500000 492.20639038
70.16201782 194.31542969 472.61053467
155.35911560 320.74844360 541.00842285
168.40901184 225.63500977 526.02899170
237.54598999 304.49899292 453.48901367
139.86628723 253.74493408 395.65347290
145.40081787 149.53630066 500.49096680
101.23901367 296.10949707 563.18762207
62.59371948 207.44279480 536.49896240
72.43669891 188.94236755 539.44934082
214.04457092 232.53474426 480.13845825
159.10252380 155.24116516 492.62948608
55.92746353 218.65881348 565.77587891
229.56752014 331.05459595 528.19775391
153.20635986 193.21015930 524.45562744
110.55134583 227.48162842 407.64752197
88.51861572 265.35787964 419.90661621
242.21800232 298.47299194 502.43096924
221.07635498 324.94238281 540.77020264
61.24707794 267.08041382 506.14385986
255.30299377 329.57598877 497.73599243
94.14433289 221.49972534 582.27655029
56.84087372 241.21308899 559.70715332
144.40194702 197.86138916 430.58322144
117.52213287 157.00520325 459.86959839
104.68615723 154.27333069 508.56082153
82.56560516 260.21813965 422.61715698
65.60532379 198.37281799 560.58422852
122.86888123 166.38798523 452.15197754
102.95478058 272.23345947 574.11975098
233.27456665 257.42471313 480.07992554
57.61360550 226.90168762 497.14428711
77.23858643 296.65975952 495.49560547
137.81738281 152.47338867 468.86322021
118.30390930 320.94628906 482.67962646
91.48430634 256.93750000 416.52032471
218.73300171 308.91201782 448.52398682
69.86675262 190.03947449 530.12921143
82.00014496 302.47637939 521.53393555
194.65708923 311.41592407 540.25543213
131.00602722 336.02987671 507.41540527
127.85641479 301.48132324 535.55517578
101.08420563 194.45353699 563.07025146
184.78999329 194.65098572 477.82998657
137.54251099 304.51245117 406.85888672
151.02844238 153.08248901 474.86593628
245.53233337 329.14962769 523.23742676
174.55000305 237.25700378 432.55902100
111.43393707 319.66009521 482.08062744
120.57103729 285.06417847 523.83111572
182.78298950 194.33699036 466.19601440
276.49508667 280.09710693 464.75653076
161.81979370 313.24731445 546.28680420
88.02753448 279.34017944 420.30410767
132.47434998 147.28294373 500.80621338
162.24299622 217.65600586 438.33898926
130.02845764 269.52212524 521.88513184
130.11560059 268.21749878 533.10644531
180.45799255 240.80400085 510.53399658
149.88179016 244.57237244 501.31207275
211.89401245 277.58599854 515.35101318
120.74030304 158.00000000 533.69177246
190.32398987 215.93501282 470.01000977
61.75469971 257.82058716 479.56359863
66.23601532 198.21842957 535.56970215
186.77999878 332.83001709 493.67700195
72.50245667 287.49237061 581.38537598
111.77728271 221.78186035 564.90185547
209.13041687 331.40219116 523.18359375
213.00805664 239.04780579 502.45959473
89.78733063 307.67831421 555.44805908
95.26078033 264.31719971 582.97875977
87.62216187 182.95016479 570.16595459
195.96800232 246.69801331 506.03698730
131.81288147 190.75077820 539.64831543
77.44808197 180.20368958 487.84609985
196.94499207 244.65901184 492.75900269
189.98899841 246.38999939 508.74502563
114.11724091 149.48004150 495.29183960
72.77767181 254.25294495 608.09796143
63.38265610 259.81066895 546.40777588
75.12907410 191.22024536 577.71923828
68.00775909 190.23948669 518.97821045
82.36794281 234.95529175 412.65649414
71.71782684 252.39784241 459.04559326
166.08987427 185.11547852 508.58657837
81.11395264 177.90324402 535.55603027
238.49398804 260.78298950 456.27902222
67.59589386 191.05662537 502.87603760
53.69354248 261.25598145 589.77087402
174.47503662 328.53094482 531.05059814
166.60908508 170.64628601 499.20370483
82.68287659 170.35119629 520.70983887
205.79354858 227.83383179 478.14956665
179.35099792 252.34800720 517.75097656
100.83691406 298.81530762 421.06683350
71.60628510 266.73181152 471.88796997
167.33500671 243.13299561 418.93801880
181.75799561 322.30801392 464.01599121
59.80684280 221.10813904 532.50067139
97.83963776 181.76753235 562.08032227
77.21301270 298.11135864 576.03198242
175.21099854 310.16000366 442.73599243
76.01342010 248.75459290 433.03680420
198.32701111 268.46600342 436.95700073
167.77224731 281.15136719 523.70489502
181.36500549 329.98599243 481.08599854
121.17578125 317.89639282 477.30184937
132.13845825 297.24676514 530.92828369
96.63371277 261.87399292 408.96157837
64.17298126 203.28372192 499.12002563
225.70599365 277.82601929 450.98001099
114.33970642 179.03802490 550.18402100
78.61598969 278.07806396 450.63336182
58.90569687 240.67294312 609.14196777
54.69313431 251.23364258 602.16229248
95.22953796 296.26263428 431.22470093
91.31832123 259.47622681 587.75939941
275.78198242 303.64993286 470.47976685
203.92300415 242.71099854 476.16299438
162.91641235 157.07885742 480.54846191
233.80400085 256.05099487 457.30902100
206.54269409 236.08506775 494.54067993
178.92999268 243.43200684 522.19897461
225.69000244 285.09899902 508.10403442
66.63476562 269.51095581 547.68713379
148.79391479 292.63262939 532.17919922
112.28876495 194.62121582 557.37811279
130.55021667 181.25561523 440.69421387
186.09001160 248.69999695 433.58801270
63.43651581 259.49429321 530.43878174
210.22799683 330.90600586 479.46301270
134.25540161 264.57977295 525.20117188
179.76545715 184.59989929 466.28921509
235.56199646 283.09802246 453.72799683
181.26800537 269.36502075 515.78198242
67.25856781 283.91421509 501.14434814
141.91491699 226.87811279 398.56994629
197.66630554 331.56958008 514.84826660
99.90509796 227.63546753 407.71435547
187.08898926 323.28500366 462.36199951
114.26182556 330.24493408 528.16418457
174.43499756 219.79499817 509.99099731
56.60378647 240.50588989 510.51824951
137.18246460 154.24105835 517.81744385
82.33823395 302.27563477 556.73413086
191.90899658 310.63397217 449.83099365
160.85000610 311.98599243 423.27999878
79.64902496 176.03872681 527.23144531
50.21969986 240.50077820 587.25372314
229.25700378 264.47601318 496.80099487
175.33731079 267.43197632 496.60342407
63.27983856 215.53417969 483.18426514
69.04749298 220.96385193 609.86584473
159.84199524 293.65200806 411.02297974
173.08300781 261.45602417 510.01296997
120.24221039 180.48429871 440.65545654
214.96600342 252.55700684 511.89999390
259.06689453 270.94906616 475.16567993
60.57269669 245.29055786 525.91699219
92.95693970 243.99794006 413.22726440
132.67550659 150.07635498 473.96069336
67.98055267 241.01214600 460.68435669
231.27799988 330.68200684 481.71600342
152.36145020 201.42759705 530.53302002
85.45029449 281.54861450 441.34292603
58.52986908 213.00550842 589.37585449
165.34700012 199.36401367 450.92199707
188.37899780 242.45100403 460.24502563
144.75984192 236.35006714 401.40792847
173.61572266 284.29794312 483.18469238
196.63900757 320.74298096 455.93399048
245.19952393 252.33697510 462.60760498
71.74256897 189.79632568 554.87945557
171.52099609 243.88700867 528.54101562
107.34954071 328.60626221 506.35821533
