ply
format ascii 1.0
element vertex 2048
property float x
property float y
property float z
end_header
254.62278748 234.19100952 373.79650879
259.68460083 245.29620361 376.99691772
258.72427368 230.58572388 368.11453247
264.17764282 239.79989624 370.15368652
252.21923828 257.51794434 376.40972900
252.67941284 267.57244873 381.71743774
259.21551514 249.50552368 374.72805786
259.02554321 259.36303711 378.90213013
239.88175964 276.23461914 379.01498413
240.85147095 283.99227905 386.97308350
248.84400940 269.84539795 379.33245850
247.62113953 278.09060669 383.83981323
106.75736237 169.56198120 490.01065063
100.31504822 179.78833008 491.47351074
104.54417419 166.69828796 482.68328857
98.19665527 176.53753662 483.75250244
116.60768127 160.92805481 486.24328613
107.17132568 169.25843811 489.31829834
124.29422760 154.02952576 479.54324341
114.71172333 162.55345154 481.70584106
126.85326385 148.18643188 469.51470947
119.76315308 153.90344238 477.42047119
138.72277832 143.33395386 461.12902832
131.01844788 148.45108032 469.28363037
92.14064789 181.02230835 482.86672974
92.25692749 192.62126160 485.76794434
86.52027893 183.45744324 474.82470703
86.98477173 195.03465271 477.98165894
151.77114868 140.43643188 447.72427368
147.24107361 145.09930420 457.42919922
165.17124939 142.83106995 438.27999878
161.31414795 146.80073547 449.01586914
137.16159058 126.12493134 363.64990234
126.96882629 128.77236938 361.59176636
143.70265198 127.99274445 354.59545898
132.95887756 129.76577759 351.29629517
116.69791412 147.86935425 461.13220215
107.88662720 154.07319641 465.15792847
121.03492737 142.72261047 449.14025879
109.99885559 148.96150208 452.01184082
134.92550659 140.77835083 453.25692749
129.91799927 145.16522217 463.01718140
144.82598877 137.74679565 441.00823975
139.67330933 141.28492737 451.45971680
237.60090637 225.26799011 372.57672119
241.54687500 236.84718323 373.80761719
248.48638916 224.33853149 367.90347290
248.24279785 231.44345093 369.58663940
114.01772308 134.96740723 358.30645752
106.23736572 141.48774719 358.95620728
120.51534271 132.82260132 348.75720215
111.94599152 138.90548706 348.56118774
137.61938477 126.05817413 390.30050659
127.20147705 128.67648315 390.30444336
143.90864563 125.36952972 379.28540039
131.76660156 126.68373871 377.48596191
215.24078369 293.76797485 407.32693481
214.45375061 291.04254150 418.62567139
224.90919495 291.81982422 406.56112671
221.60861206 292.28848267 414.11041260
123.96167755 129.04922485 381.61389160
115.07633209 133.92837524 381.66525269
129.76213074 127.03082275 371.83956909
119.99990845 131.30267334 370.58868408
102.50413513 161.47291565 471.40451050
96.03021240 170.05412292 475.02325439
104.18482971 156.89495850 459.16369629
96.21783447 165.87312317 462.23278809
80.65370178 199.00469971 472.31884766
85.49038696 208.72940063 475.86883545
80.85794830 210.33110046 465.65136719
86.34833527 219.40802002 469.43737793
149.40502930 129.50439453 399.29129028
144.37913513 129.52735901 408.38793945
159.40820312 129.20445251 386.79373169
153.49517822 127.73360443 395.13793945
83.63717651 182.04373169 464.32531738
82.32975006 192.29771423 468.95056152
81.92537689 179.86434937 452.57232666
80.26739502 190.57653809 457.70623779
148.97221375 134.38800049 423.25518799
147.48803711 136.71055603 434.80081177
157.67141724 133.85476685 410.26391602
156.46990967 135.11825562 421.91223145
127.35424042 133.55783081 344.27035522
118.30694580 138.63642883 341.30593872
136.17144775 136.13909912 337.77371216
126.94837952 140.79209900 334.03808594
132.76333618 136.32797241 436.05862427
123.76541901 138.90060425 440.71856689
139.36364746 133.83743286 423.33001709
128.48162842 134.64382935 426.77090454
231.42521667 214.79129028 374.36563110
236.14241028 213.65840149 381.01333618
242.46771240 216.76179504 367.39599609
244.18049622 213.85070801 374.48214722
175.57008362 143.08647156 419.64831543
174.45213318 147.99424744 430.07214355
184.06883240 147.82637024 408.68923950
183.03543091 152.16931152 419.68978882
163.71290588 132.03872681 403.90982056
164.81123352 134.36227417 414.74838257
171.81246948 136.44981384 392.59921265
172.78291321 138.27220154 403.50100708
157.61170959 130.29660034 372.26568604
149.11740112 127.34798431 374.96545410
164.51617432 136.26591492 362.09365845
155.10745239 131.69683838 364.17724609
158.48139954 133.52334595 355.94116211
149.04109192 132.19912720 352.46029663
164.94938660 142.29513550 348.86785889
155.21284485 139.95727539 344.61773682
210.44924927 278.41577148 376.96084595
209.83305359 286.07861328 385.14901733
222.77249146 279.04901123 378.75558472
217.19226074 283.80056763 381.99093628
90.07675171 165.98095703 443.61184692
86.05375671 175.52395630 447.87023926
90.43225098 162.15989685 431.59817505
85.22822571 172.34278870 435.82162476
114.76645660 137.12786865 406.38034058
106.42718506 143.90789795 408.65054321
119.98529053 132.78591919 394.92260742
110.21713257 139.57977295 396.10214233
107.02256775 148.41206360 439.48547363
99.34194946 155.90702820 442.79156494
110.62391663 143.83805847 427.38885498
101.66944885 151.58583069 429.80422974
136.04678345 131.76150513 414.42922974
126.35368347 135.05130005 417.41705322
142.75770569 130.20523071 402.23287964
130.70254517 131.88494873 403.59436035
118.83475494 144.56317139 332.73046875
110.33057404 151.96136475 329.89788818
128.04891968 146.82843018 326.91470337
119.49932861 154.09826660 323.23437500
225.89213562 258.27493286 373.75317383
224.93032837 269.49072266 375.59829712
236.99758911 257.59552002 375.71472168
232.18447876 264.65469360 375.95797729
240.66598511 237.65216064 386.62063599
239.28549194 248.45321655 391.47113037
250.10134888 238.52163696 381.17071533
245.72323608 243.99487305 386.48190308
99.43984985 151.35017395 419.82318115
93.15255737 159.70622253 423.48425293
102.74617004 146.68630981 407.57449341
95.03988647 155.45907593 410.71267700
146.04214478 135.63055420 341.03308105
136.58406067 139.09364319 334.61248779
155.49923706 142.96653748 337.97140503
146.35321045 146.92929077 330.05377197
97.95400238 155.20542908 353.08343506
91.58476257 164.38504028 354.10546875
104.06848145 152.84732056 343.50781250
96.96652222 161.37716675 343.87023926
198.44294739 287.11947632 428.21145630
194.05964661 284.44290161 436.55566406
207.46197510 286.72644043 427.19104004
201.74520874 285.99462891 432.40789795
173.73522949 287.80123901 440.16711426
168.16732788 284.97161865 445.56268311
181.87353516 286.79598999 443.05941772
176.25148010 285.77197266 446.05618286
174.38191223 137.66232300 385.80908203
178.31800842 139.27569580 395.30072021
178.23568726 145.33883667 375.93032837
182.50357056 146.66032410 385.50097656
108.63268280 137.87588501 385.28399658
101.18017578 145.06275940 386.94741821
114.00654602 134.43550110 374.74118042
105.62086487 141.42488098 375.61355591
78.10392761 201.04394531 455.87463379
79.18621063 211.59022522 461.32476807
77.15236664 205.92604065 446.01477051
78.94020081 216.77252197 451.86459351
96.22503662 152.09158325 376.72958374
90.61318970 160.53453064 379.98480225
100.44158173 148.01525879 365.38662720
93.66352081 156.39303589 368.18045044
137.15333557 289.53216553 435.40591431
134.61822510 284.72216797 443.49536133
145.45310974 291.63696289 440.77139282
141.29248047 289.33712769 445.24664307
138.67140198 156.87094116 467.36120605
131.30085754 166.57196045 472.62152100
147.40863037 161.81822205 458.24380493
140.28297424 171.33160400 464.28717041
196.39710999 287.22436523 393.77984619
193.89483643 289.05142212 404.13256836
207.04830933 288.39825439 394.91494751
200.73989868 289.50860596 400.22241211
90.36317444 158.63690186 410.31649780
86.26316071 167.65457153 414.38342285
92.60673523 154.11819458 398.63659668
87.26051331 163.47949219 402.44430542
226.11535645 265.59609985 401.36947632
222.71940613 275.02453613 407.07144165
234.82122803 265.98144531 396.40887451
229.14675903 271.25372314 401.53552246
90.22193909 163.81291199 371.42196655
85.82568359 173.53761292 374.13653564
93.22190857 160.58583069 361.37979126
87.94481659 170.08932495 363.63369751
80.93498993 179.43164062 430.83529663
78.63465118 189.68957520 435.92007446
81.88346100 176.12161255 417.59713745
78.80351257 186.87329102 423.07568359
156.37370300 291.32278442 419.67907715
151.57887268 290.54983521 428.47357178
164.80073547 293.11480713 421.59899902
158.42605591 292.46911621 426.27716064
144.98757935 151.30931091 327.63909912
138.54132080 159.07682800 321.41598511
155.29292297 157.25985718 329.59234619
149.52998352 166.09188843 322.61676025
170.40785217 143.97267151 356.20242310
172.63215637 141.45584106 359.78204346
172.28257751 155.51039124 349.87564087
176.12536621 152.89208984 354.04577637
100.96836853 169.45347595 329.16516113
96.80613708 180.27626038 329.56811523
108.64898682 169.24017334 320.80957031
103.79650879 179.51786804 321.28012085
84.71774292 179.79182434 364.46554565
81.89947510 190.46055603 367.70684814
86.81367493 177.81686401 354.21453857
83.16987610 188.05505371 356.94638062
163.49275208 146.42935181 343.81106567
156.90032959 149.94664001 335.56954956
170.32907104 155.85572815 344.61883545
165.82319641 159.96363831 336.54321289
90.20281982 248.78875732 436.40081787
96.32321167 250.67904663 444.90896606
95.63481903 261.21298218 432.69876099
99.80297089 260.90045166 440.56304932
123.67434692 160.04627991 320.20327759
117.38014221 169.83813477 317.37118530
134.30160522 161.76449585 317.29217529
128.10220337 171.80123901 314.29766846
102.87539673 190.58488464 477.61010742
96.95248413 199.05351257 480.37133789
106.99516296 197.88630676 466.79916382
102.06565857 207.69395447 469.78332520
175.66151428 290.07275391 402.80398560
172.09967041 290.54476929 413.61294556
185.14875793 291.82568359 403.75616455
178.68853760 291.67074585 409.62402344
122.73336029 179.46463013 477.50027466
115.85260010 188.12286377 481.50695801
128.80833435 185.85882568 467.15740967
122.37589264 195.51637268 472.15011597
218.53555298 238.77061462 369.38360596
215.75480652 250.18193054 368.80987549
229.05368042 239.74401855 371.52679443
223.41986084 245.58894348 370.78890991
163.49108887 197.43371582 456.03555298
160.65220642 197.42858887 456.13436890
163.87753296 197.45657349 455.97900391
163.44427490 197.44866943 456.06701660
151.74276733 204.73472595 461.37164307
148.69323730 204.74165344 461.43905640
152.21505737 204.74272156 461.29971313
151.65672302 204.74984741 461.36303711
171.18771362 199.73277283 444.39569092
168.81973267 199.71203613 444.46228027
171.46479797 199.75535583 444.34008789
171.18656921 199.73060608 444.39593506
184.12881470 206.12744141 413.41500854
181.74510193 206.09057617 413.46652222
184.47640991 206.14477539 413.39157104
184.37396240 206.10180664 413.43811035
201.01947021 223.04180908 432.05517578
198.21804810 223.02494812 432.13351440
201.29943848 223.08682251 432.03631592
201.08657837 223.05967712 432.10217285
174.85885620 198.29586792 424.57443237
172.34701538 198.25918579 424.63226318
175.23889160 198.31893921 424.54617310
175.01226807 198.27239990 424.59649658
189.44299316 210.85055542 423.80831909
186.86257935 210.80827332 423.87326050
189.76591492 210.87640381 423.79293823
189.57347107 210.82652283 423.84985352
171.17514038 209.67869568 437.56515503
168.52441406 209.65998840 437.60995483
171.51603699 209.69747925 437.52984619
171.15950012 209.67585754 437.57263184
162.84114075 210.59089661 445.13973999
160.17036438 210.57670593 445.18713379
163.20182800 210.61154175 445.09378052
162.80279541 210.59451294 445.13848877
180.86938477 212.34143066 431.99331665
178.01683044 212.31159973 432.05554199
181.25976562 212.36619568 431.96771240
180.92810059 212.33145142 432.02471924
189.43786621 218.58732605 440.77398682
186.37907410 218.56954956 440.84265137
189.80223083 218.61489868 440.73321533
189.43034363 218.59104919 440.79663086
135.57783508 205.24787903 464.25637817
132.75561523 205.26251221 464.30157471
136.09368896 205.26179504 464.18814087
135.58790588 205.27709961 464.23217773
162.81285095 209.67233276 430.63720703
159.92868042 209.65589905 430.66873169
163.26000977 209.68185425 430.60937500
162.82025146 209.65821838 430.64324951
172.10675049 218.15348816 427.93881226
169.10621643 218.12648010 427.96920776
172.51242065 218.16883850 427.92651367
172.08761597 218.13952637 427.95898438
154.00953674 213.32160950 453.55535889
151.19500732 213.32447815 453.58184814
154.42239380 213.33178711 453.51657104
153.94616699 213.33616638 453.54354858
139.10031128 215.42083740 457.83142090
136.26766968 215.42315674 457.86901855
139.56643677 215.40647888 457.77099609
139.07374573 215.40983582 457.80285645
154.34660339 205.33116150 420.34671021
151.74836731 205.31648254 420.37832642
154.73869324 205.32685852 420.33218384
154.36888123 205.30827332 420.36044312
120.53999329 206.97833252 468.13952637
118.14014435 206.99291992 468.15347290
120.96760559 206.98497009 468.12890625
120.53625488 207.00114441 468.13690186
191.79606628 227.48004150 424.10113525
188.50369263 227.44041443 424.13638306
192.25741577 227.49981689 424.08294678
191.90390015 227.45561218 424.11993408
163.45816040 210.92337036 419.63323975
160.66635132 210.90240479 419.66342163
163.90939331 210.91798401 419.63339233
163.53286743 210.89440918 419.66134644
173.14317322 229.06250000 422.85568237
170.09896851 229.04214478 422.87939453
173.55455017 229.06353760 422.85513306
173.18418884 229.04519653 422.88159180
201.55705261 252.87721252 418.04156494
197.86541748 252.84849548 418.06671143
201.99400330 252.88844299 418.04071045
201.64973450 252.85748291 418.07296753
203.87307739 236.71830750 419.00149536
200.84805298 236.66534424 419.07006836
204.25088501 236.74989319 418.97839355
204.08401489 236.69325256 419.03991699
125.73764801 217.76550293 461.60723877
123.31545258 217.78074646 461.61654663
126.14173889 217.78866577 461.55554199
125.72418976 217.80490112 461.56335449
202.74008179 267.88858032 418.99621582
198.28671265 267.84390259 418.99411011
203.23570251 267.89544678 418.99377441
202.71954346 267.85971069 419.00454712
152.28053284 205.73255920 409.59994507
149.93515015 205.72178650 409.63601685
152.63365173 205.72203064 409.60031128
152.36160278 205.70765686 409.63034058
132.67823792 224.23629761 449.92456055
129.94099426 224.24851990 449.93041992
133.10040283 224.24398804 449.86303711
132.62643433 224.25123596 449.86630249
192.71989441 248.62892151 423.43066406
188.81163025 248.59167480 423.46020508
193.22541809 248.63247681 423.41864014
192.73376465 248.59915161 423.45275879
165.47335815 241.09634399 428.18078613
161.97032166 241.07855225 428.19464111
165.97627258 241.08657837 428.16455078
165.43794250 241.07437134 428.18756104
149.96835327 216.40898132 435.86499023
147.20294189 216.40132141 435.88717651
150.40084839 216.40193176 435.84671021
149.96163940 216.39637756 435.86730957
113.46253204 221.85047913 460.23562622
111.16184235 221.86779785 460.25769043
113.84030151 221.88102722 460.19009399
113.44567871 221.89524841 460.19946289
158.94483948 228.06922913 414.47076416
155.68601990 228.06266785 414.46420288
159.43052673 228.08023071 414.44097900
158.94342041 228.07067871 414.43673706
165.92341614 219.96051025 409.91500854
163.17840576 219.93434143 409.94354248
166.30938721 219.94804382 409.91104126
165.98533630 219.92506409 409.93246460
176.27525330 252.61132812 426.93014526
171.96113586 252.59640503 426.93627930
176.89112854 252.61381531 426.90441895
176.19020081 252.60298157 426.92303467
177.87976074 240.18951416 426.91860962
173.88211060 240.15501404 426.95120239
178.47756958 240.18759155 426.89312744
177.83959961 240.15568542 426.93344116
156.78765869 236.80310059 424.17474365
153.10052490 236.80706787 424.18176270
157.38716125 236.79959106 424.17877197
156.75622559 236.80734253 424.19052124
148.58212280 222.82298279 414.15463257
145.35118103 222.84010315 414.14733887
149.11610413 222.83628845 414.11328125
148.58462524 222.84541321 414.11047363
191.66947937 261.39639282 423.93557739
187.25999451 261.35626221 423.95910645
192.23449707 261.41021729 423.89999390
191.62527466 261.37338257 423.92956543
138.81666565 220.75846863 439.05480957
136.22567749 220.76414490 439.06182861
139.22827148 220.74940491 439.03192139
138.80686951 220.75660706 439.03704834
167.59007263 263.26541138 431.39343262
163.11531067 263.24182129 431.40454102
168.26170349 263.28631592 431.36956787
167.53207397 263.27108765 431.38711548
173.00544739 286.02130127 386.61666870
167.27691650 285.97204590 386.68115234
173.84492493 286.06842041 386.66421509
173.19355774 286.05630493 386.69601440
184.97396851 268.72598267 428.47305298
180.05068970 268.69763184 428.46923828
185.66021729 268.74856567 428.46276855
184.88911438 268.72470093 428.46658325
176.23124695 285.72604370 446.02426147
170.94976807 285.72332764 446.03756714
176.99140930 285.76101685 446.00482178
176.10095215 285.75354004 446.01190186
135.53622437 217.38502502 426.45394897
132.69219971 217.41293335 426.45748901
136.02658081 217.38650513 426.42486572
135.50439453 217.40724182 426.42599487
139.18486023 203.00837708 405.79370117
136.50688171 203.01710510 405.79443359
139.67381287 203.04335022 405.78546143
139.31918335 203.04193115 405.78698730
159.58219910 256.74237061 431.24069214
155.15153503 256.74615479 431.23678589
160.28059387 256.76129150 431.18667603
159.47863770 256.76632690 431.19128418
140.00160217 203.79461670 417.36227417
137.64653015 203.80778503 417.37136841
140.37799072 203.79922485 417.37475586
140.04066467 203.80432129 417.37771606
193.75163269 275.90106201 428.04684448
188.69058228 275.84664917 428.04000854
194.41261292 275.92321777 428.02127075
193.66891479 275.87689209 428.01943970
130.40904236 236.78109741 429.57000732
127.46293640 236.80177307 429.56655884
130.90036011 236.79370117 429.52780151
130.39831543 236.81321716 429.52655029
121.68308258 223.11927795 446.25494385
119.08908081 223.13560486 446.25701904
122.12211609 223.12786865 446.18670654
121.66624451 223.13842773 446.18533325
165.03501892 234.26075745 398.59191895
161.72816467 234.23033142 398.61486816
165.49029541 234.24583435 398.58938599
165.01184082 234.22967529 398.61309814
163.95640564 272.41564941 434.19100952
159.20878601 272.39984131 434.18994141
164.63478088 272.44082642 434.13174438
163.81140137 272.42861938 434.12960815
142.67977905 213.25816345 413.58120728
140.12445068 213.26623535 413.58731079
143.08924866 213.26568604 413.58032227
142.71789551 213.27070618 413.58184814
175.49148560 291.71447754 431.61099243
170.38371277 291.66864014 431.60308838
176.21697998 291.75314331 431.62268066
175.54328918 291.71240234 431.60955811
189.13258362 290.58642578 422.99420166
183.73489380 290.54568481 422.96987915
189.81240845 290.64285278 422.97879028
189.05953979 290.60504150 422.95162964
153.06816101 266.23983765 433.81414795
148.57371521 266.24392700 433.79083252
153.79473877 266.23834229 433.80838013
152.95858765 266.24713135 433.79461670
140.52262878 230.27639771 422.15335083
137.32205200 230.29724121 422.16873169
141.02186584 230.29510498 422.09149170
140.44743347 230.31192017 422.10348511
147.27340698 290.41632080 446.15509033
142.71620178 290.39776611 446.14358521
147.97848511 290.46826172 446.18597412
147.24552917 290.45419312 446.16165161
101.89527893 220.50849915 442.60824585
99.98426819 220.52714539 442.62048340
102.20364380 220.51780701 442.61990356
101.91504669 220.53100586 442.61502075
159.57267761 282.02377319 380.37640381
154.58146667 281.99340820 380.45941162
160.31689453 282.04296875 380.41567993
159.72972107 282.04022217 380.46701050
162.95935059 286.29733276 391.24743652
157.27229309 286.23840332 391.32394409
163.80938721 286.33734131 391.25488281
163.04888916 286.30688477 391.29598999
195.54135132 288.05059814 436.23791504
190.61006165 288.05902100 436.23205566
196.07302856 288.12088013 436.25021362
195.47463989 288.12872314 436.24328613
155.79580688 223.35638428 404.40560913
152.48333740 223.35240173 404.41009521
156.30604553 223.38619995 404.36981201
155.81282043 223.37876892 404.37292480
141.99751282 271.99133301 434.29409790
137.83149719 271.99291992 434.25827026
142.66224670 272.02212524 434.28274536
141.92681885 272.03033447 434.25408936
248.72782898 244.25532532 381.47305298
244.06494141 253.59292603 385.82388306
257.51739502 247.19592285 373.07849121
253.86666870 256.33407593 378.25781250
234.18225098 229.07417297 390.90298462
229.01181030 236.01023865 398.04641724
243.42605591 234.28572083 385.03982544
238.54296875 241.38571167 392.85278320
238.98338318 226.16369629 370.15777588
240.54853821 236.48089600 371.03366089
251.84826660 231.74888611 368.97009277
254.66801453 242.76521301 371.66836548
239.98271179 266.02432251 390.26754761
232.68524170 273.37512207 394.92449951
249.11689758 267.98965454 381.83941650
242.90368652 274.83288574 386.67706299
223.70262146 248.20721436 400.30676270
217.59210205 255.14031982 405.84851074
231.15463257 253.74697876 393.88174438
225.12113953 260.75018311 399.62490845
220.42419434 221.25790405 400.90368652
217.38127136 226.21900940 409.06027222
227.46936035 227.63208008 394.15625000
224.04873657 232.19226074 403.62814331
218.25717163 213.45385742 382.79330444
219.25082397 217.88664246 390.23495483
228.38574219 217.63681030 377.88751221
229.57891846 221.51464844 387.12243652
205.57051086 205.38366699 403.32611084
205.66036987 208.12590027 411.93890381
213.48393250 210.44746399 397.37554932
213.49578857 212.45649719 407.51104736
216.55969238 275.73913574 409.67449951
208.96794128 281.22360229 416.30245972
225.23765564 279.55871582 402.09954834
218.37072754 284.48526001 408.60702515
231.08157349 284.49758911 390.79782104
225.30085754 288.98272705 400.09197998
240.69369507 282.82232666 385.83770752
235.69902039 286.50170898 394.97189331
229.09698486 246.52258301 370.45797729
230.63078308 256.99380493 372.05273438
241.70486450 251.06301880 372.53042603
243.42703247 261.96478271 375.14132690
204.82348633 198.46687317 388.05163574
207.80271912 201.44708252 395.56835938
211.64697266 204.45001221 381.11755371
215.22756958 206.04133606 390.23791504
202.41897583 213.92871094 422.85537720
197.66426086 217.13061523 428.36355591
210.37509155 220.04824829 419.94232178
204.88964844 223.02647400 426.74111938
212.94415283 233.37008667 410.04357910
206.95014954 239.05006409 414.43191528
219.49447632 240.14543152 405.35180664
212.86059570 245.73258972 410.85995483
208.70625305 257.94671631 412.61471558
201.82154846 264.02169800 416.96359253
215.79734802 264.14514160 408.18933105
208.89881897 270.07199097 412.94998169
202.23727417 204.12611389 372.83557129
206.68290710 209.66587830 375.46621704
211.91062927 210.01544189 370.25134277
218.16532898 214.59834290 374.20126343
212.02716064 220.37657166 367.51324463
215.05007935 229.96697998 367.04653931
223.36737061 224.64643860 369.91644287
227.64019775 234.53309631 369.83099365
217.33485413 265.44268799 370.88800049
220.02227783 275.08444214 374.97616577
230.22839355 269.28793335 374.11312866
232.51895142 279.26937866 378.61108398
197.32258606 241.91055298 418.62698364
190.56230164 247.34959412 421.34649658
203.88636780 248.32275391 416.38146973
196.44471741 253.66798401 419.96502686
194.75317383 268.14395142 423.60241699
186.95010376 273.09616089 427.34692383
201.73959351 274.31124878 419.91961670
194.01947021 278.79541016 424.32672119
187.46408081 176.58134460 403.54125977
185.22991943 181.81697083 412.28244019
189.76457214 187.47521973 394.43865967
188.11137390 190.42187500 403.97378540
191.31759644 178.03689575 382.44274902
191.47917175 184.67671204 387.91635132
190.89804077 190.81686401 372.19271851
192.99545288 194.52386475 379.92272949
185.88806152 155.32485962 397.95803833
185.14843750 161.75137329 405.02938843
188.03732300 167.06402588 388.90878296
187.64331055 170.82038879 397.47616577
203.15069580 289.73889160 396.12478638
201.31596375 290.76440430 407.05422974
214.80345154 289.93484497 400.10928345
212.33328247 290.30200195 411.53637695
189.48545837 224.31613159 421.96319580
184.05233765 227.92042542 424.15835571
196.59086609 229.56459045 421.78445435
190.26507568 232.99212646 425.38232422
180.54011536 205.25184631 417.69085693
180.46211243 206.12304688 426.26614380
188.41256714 211.94696045 416.12026978
188.85643005 211.16290283 425.18334961
202.51969910 237.38702393 364.52294922
205.94329834 247.81086731 365.70300293
213.05807495 240.99133301 367.22766113
216.67523193 251.61463928 368.47164917
180.06809998 184.14544678 420.57135010
177.10961914 187.48608398 430.02743530
184.36709595 194.14059448 414.10137939
181.63252258 195.45111084 423.54959106
181.20988464 248.91523743 425.66622925
173.83537292 254.07580566 427.28668213
187.60678101 255.53628540 425.15472412
179.77606201 260.70477295 427.61306763
185.61848450 157.62568665 373.92871094
189.03121948 165.61636353 376.08758545
185.54948425 173.08369446 367.72338867
189.35128784 178.99475098 371.98632812
182.10897827 200.77856445 400.48797607
184.98797607 203.97206116 408.47274780
190.80818176 209.41703796 398.47424316
194.78771973 209.55465698 407.64004517
172.19714355 198.83569336 442.59805298
165.69952393 200.20384216 449.92318726
176.97952271 206.40620422 437.58807373
171.94139099 206.30448914 444.81842041
199.88510132 278.79638672 376.52700806
202.11581421 285.04711914 384.51770020
212.45571899 282.25057983 379.77780151
214.13243103 288.35717773 388.49328613
169.05053711 273.84219360 435.37811279
160.95518494 278.36187744 437.21087646
176.76670837 280.09490967 437.10467529
168.85502625 284.51684570 439.77066040
183.45738220 197.94448853 387.86007690
187.13673401 203.04185486 394.15625000
191.87861633 208.49472046 384.98632812
197.50527954 209.62464905 393.19821167
193.14591980 217.66903687 359.73590088
196.41348267 227.74133301 360.58489990
202.40057373 221.94877625 363.39376831
206.69808960 232.14154053 364.38571167
174.17901611 159.74087524 425.63513184
168.31338501 163.72929382 433.99118042
180.46926880 168.78100586 421.83926392
175.02232361 171.88095093 430.11828613
166.18438721 177.65769958 439.89828491
158.96195984 181.22250366 447.93835449
173.92425537 185.92424011 437.73373413
167.06916809 188.56243896 445.06872559
179.04631042 290.94635010 408.77883911
176.41665649 291.33059692 419.69644165
190.06362915 290.35006714 414.00064087
186.99848938 290.07821655 424.91821289
167.94259644 209.77450562 421.31393433
166.39027405 210.34519958 429.00836182
174.09014893 216.34913635 419.23330688
173.79193115 215.24977112 427.31878662
192.97866821 261.88159180 367.00451660
196.38349915 271.36929321 371.41360474
204.39393616 265.42663574 369.24212646
207.63385010 275.06048584 373.67098999
182.20722961 163.34121704 353.74807739
183.50231934 173.46485901 349.26986694
186.82815552 174.92633057 359.82553101
188.57252502 183.78303528 357.02569580
183.27642822 198.87864685 369.42086792
184.55645752 206.21759033 372.82470703
188.86679077 211.20042419 367.50662231
194.00564575 214.92568970 373.25573730
171.85252380 230.81571960 421.92358398
165.14753723 235.07768250 423.01831055
178.69180298 235.52304077 423.06219482
171.19288635 239.80574036 425.00463867
159.41076660 253.90299988 429.72601318
151.94738770 259.17416382 430.56958008
165.55487061 261.18469238 431.27673340
157.78536987 266.83505249 432.78894043
187.80822754 245.97058105 360.03979492
191.03826904 255.62812805 363.29650879
197.72647095 248.98435974 363.39230347
201.17770386 258.54711914 366.47717285
155.20361328 160.20300293 438.97399902
147.52891541 164.35536194 445.98315430
164.46025085 168.96195984 436.86672974
157.20622253 172.54058838 443.88375854
148.17274475 184.49600220 456.60449219
138.41250610 189.81358337 461.44906616
157.44320679 192.35585022 453.16806030
148.22410583 196.99453735 457.59393311
153.53674316 208.24736023 445.87353516
142.33871460 211.71243286 447.65594482
160.41552734 213.78465271 440.09036255
150.05093384 216.07856750 441.15435791
176.42553711 283.03366089 384.73815918
178.17387390 287.21466064 394.10736084
187.61517334 285.66925049 388.87274170
188.79187012 289.47006226 398.62902832
162.04757690 219.68879700 405.78604126
160.29382324 223.28125000 411.39395142
169.05276489 224.29144287 406.67602539
167.52661133 227.30523682 412.77667236
151.55783081 236.37721252 426.21453857
143.06550598 240.93147278 426.48684692
158.11865234 242.39096069 428.11764526
149.27082825 247.74111938 428.61831665
166.65245056 227.16401672 398.26022339
164.46566772 232.32656860 402.67129517
172.31564331 231.30230713 398.11383057
169.96247864 236.35029602 403.08877563
180.66540527 181.59182739 343.96856689
179.94590759 192.23686218 341.65786743
185.26496887 189.20332336 352.54187012
186.31860352 198.54635620 350.96771240
179.02162170 228.24432373 350.54122925
181.84878540 237.98680115 354.86245728
187.73513794 230.87695312 356.96380615
191.23083496 240.78729248 361.16650391
140.35289001 172.80276489 454.31945801
132.65844727 177.66213989 461.95266724
149.32020569 181.34556580 449.81060791
142.31896973 185.34423828 457.31347656
174.78063965 271.95907593 370.42810059
177.60780334 278.78256226 377.74136353
185.97964478 274.59860229 373.79342651
188.63992310 281.42800903 381.14028931
136.48493958 264.31301880 428.81820679
129.26843262 269.04699707 430.08868408
144.28207397 272.21087646 433.65548706
136.53628540 277.24700928 434.93621826
178.21755981 205.73373413 342.86654663
179.08235168 216.40641785 345.64038086
183.92692566 210.25244141 352.15377808
185.79870605 220.45310974 354.64617920
123.35145569 194.67988586 466.63134766
113.01846313 200.40924072 470.22256470
130.68646240 202.67649841 459.99203491
120.62206268 208.12145996 462.46023560
158.35861206 238.31069946 396.59286499
154.42251587 243.55224609 400.77581787
163.62780762 242.04632568 396.81442261
159.27893066 247.49130249 401.02996826
156.86801147 286.15902710 392.17340088
158.35910034 289.35748291 402.20025635
167.05781555 288.12905884 396.63186646
167.89241028 290.86535645 406.94116211
144.77976990 218.40408325 417.62667847
139.54217529 220.79675293 422.67861938
151.31787109 222.68432617 415.20587158
146.79423523 225.12437439 419.39129639
170.24786377 257.58233643 358.82324219
173.12043762 265.61450195 364.77182007
180.55912781 259.50399780 363.05950928
183.61143494 267.39987183 368.74346924
167.05484009 156.81199646 334.09057617
167.09089661 166.59201050 329.24597168
175.95710754 163.79150391 339.92779541
176.56773376 173.35327148 336.39608765
150.77407837 202.80659485 411.94470215
150.58343506 203.70742798 418.79782104
156.25773621 209.55133057 409.66363525
157.46394348 208.80772400 416.60760498
139.16421509 286.32098389 406.28387451
140.75578308 289.39993286 416.51809692
149.30934143 289.53326416 410.82626343
150.15101624 292.00491333 421.56610107
122.94066620 235.90321350 423.43576050
113.40161133 239.22114563 425.69760132
130.17790222 243.14341736 423.69363403
120.56379700 247.44389343 425.03128052
125.53575897 218.95904541 440.32882690
116.05990601 223.11337280 444.48416138
127.36259460 223.16040039 427.75845337
117.25080872 226.72125244 430.75817871
154.90785217 277.57290649 373.20291138
156.86059570 282.82232666 381.84533691
165.02853394 279.25161743 377.32168579
166.46087646 284.31738281 386.01547241
165.92468262 242.22012329 346.68807983
167.80139160 250.03109741 352.87564087
174.65005493 243.01899719 353.75054932
177.04765320 250.67591858 359.38610840
166.08119202 176.09550476 323.58279419
165.30749512 186.50749207 322.27362061
174.41755676 181.55035400 331.08740234
174.41465759 191.46661377 330.16766357
106.05081177 213.32005310 456.76049805
98.29711914 219.23504639 463.78741455
106.05377197 221.81138611 443.76330566
98.78196716 226.84753418 449.59140015
137.56869507 206.11477661 403.74270630
137.55154419 208.01431274 409.94210815
143.25509644 211.95535278 401.02935791
144.42625427 213.32696533 407.35910034
100.50314331 236.84428406 426.83392334
95.70893097 240.13456726 432.69165039
106.40481567 248.47581482 421.11444092
101.59924316 251.67129517 426.50018311
162.94544983 223.15287781 333.03619385
163.82307434 231.43585205 339.12103271
170.37228394 224.73481750 341.69244385
171.93299866 233.48291016 347.18380737
163.04420471 200.14823914 323.05868530
162.86003113 210.14746094 326.56622314
170.94206238 203.38124084 331.83737183
171.36729431 213.46144104 334.84722900
150.37532043 266.65679932 357.50100708
152.42878723 273.42697144 365.14013672
160.60314941 267.81808472 362.43246460
162.36827087 274.64947510 370.00842285
132.68412781 283.11563110 381.38912964
134.38357544 286.15112305 390.99731445
142.35008240 284.61758423 385.93350220
143.55331421 287.41015625 395.68191528
108.74563599 275.34710693 408.82968140
112.14355469 278.40435791 418.14160156
117.83440399 282.45303345 411.13024902
120.99729919 285.06689453 421.23809814
145.79144287 157.66912842 319.86962891
145.61468506 167.83227539 315.51483154
157.19436646 162.86524963 322.07318115
157.53553772 173.18540955 318.52615356
150.03810120 253.34013367 345.67727661
151.93603516 260.61590576 352.73577881
159.68380737 254.20812988 351.68511963
161.81971741 261.58459473 358.63104248
116.61585236 279.10546875 392.99102783
119.33537292 282.31674194 402.56167603
126.11837769 283.67355347 396.01370239
128.58312988 286.58660889 406.19265747
148.50355530 237.10398865 332.96780396
149.79765320 244.76881409 339.63525391
157.93893433 238.81036377 339.28173828
159.73515320 246.80302429 345.67272949
132.48515320 271.72109985 362.54504395
134.48727417 277.58081055 370.97021484
142.66261292 273.90884399 366.35177612
144.29887390 279.96801758 375.14233398
144.31071472 177.59648132 311.11166382
144.16456604 188.73526001 311.63626099
155.43530273 182.55955505 315.21832275
155.81867981 193.62228394 315.80737305
91.36204529 256.24334717 415.20602417
94.47753906 260.32162476 422.64767456
98.47486115 266.76196289 414.08819580
101.65059662 270.79483032 422.48178101
144.58128357 216.88830566 319.49090576
145.16488647 225.76574707 324.76208496
154.31388855 220.01466370 324.84106445
155.75128174 229.24563599 329.87524414
144.00558472 197.24732971 311.97692871
143.98681641 207.17347717 315.19711304
153.93272400 200.98988342 316.58377075
154.67210388 211.15696716 319.54028320
82.16712189 232.60208130 430.12026978
85.08561707 238.60792542 437.13531494
86.04742432 244.05288696 423.23950195
89.02862549 249.90469360 430.88259888
131.03355408 256.27392578 347.86517334
133.07220459 263.72152710 355.37002563
141.13102722 259.04727173 351.90396118
143.17115784 266.72000122 359.76428223
114.11357880 270.82049561 374.62982178
116.28109741 275.95736694 383.20114136
122.90017700 275.69076538 376.27941895
124.92253113 280.84539795 385.60516357
99.89979553 265.43084717 389.13589478
102.20555878 270.12728882 397.54724121
107.60806274 273.44522095 389.54965210
109.92321014 277.74273682 399.01367188
130.00410461 241.65232849 335.03384399
131.49125671 249.76545715 341.52160645
140.46250916 245.31192017 338.12268066
142.26367188 253.63243103 344.83361816
124.43718719 161.80865479 317.17428589
123.40576935 171.87304688 313.24212646
135.13209534 165.60971069 313.99853516
135.06346130 176.60232544 310.28958130
79.44982910 206.24130249 427.80264282
80.20252991 214.40577698 434.39901733
80.75181580 214.45318604 419.40118408
81.70695496 223.16670227 426.31747437
89.18711853 251.80560303 398.27996826
91.34426880 256.93655396 405.57546997
95.03448486 261.22418213 396.61901855
97.42616272 266.14578247 404.94149780
113.47616577 258.81274414 358.09744263
115.19586182 265.91470337 365.75631714
122.50715637 264.67889404 359.15502930
124.20365143 271.82034302 367.77178955
82.95883179 231.27243042 410.34838867
84.34649658 238.35464478 416.62875366
86.13580322 240.54190063 404.88293457
87.79378510 247.74063110 411.89996338
125.47502899 224.24700928 322.02972412
126.70271301 233.19160461 327.37002563
136.51159668 228.23110962 324.11331177
138.36460876 237.54898071 329.59283447
119.43609619 180.47201538 311.66564941
119.67605591 191.50019836 311.80969238
130.79014587 184.73497009 310.20501709
131.82440186 196.02778625 310.47732544
98.32969666 254.23873901 370.19406128
99.86424255 260.72451782 377.71472168
105.10381317 261.73864746 369.59368896
106.94842529 268.13357544 378.22030640
81.18211365 193.38825989 415.77514648
80.37620544 201.87663269 421.36230469
81.34652710 199.81477356 407.20581055
80.83822632 208.93908691 412.90551758
111.67648315 242.46206665 342.61965942
113.31619263 251.02154541 349.12322998
121.32020569 248.53012085 342.59646606
123.29862976 257.39373779 350.01046753
120.40579987 203.44474792 314.32641602
121.31404114 213.62763977 317.47744751
131.42706299 207.66969299 314.07263184
133.06900024 218.25547791 317.33425903
87.42372131 240.88308716 384.59841919
88.56303406 247.24244690 391.24810791
91.53929138 249.43885803 381.27160645
93.07827759 255.73898315 388.88903809
105.45140839 158.02264404 331.23205566
103.10910034 168.17395020 326.26107788
112.17268372 161.03446960 322.92340088
110.98722076 172.27198792 317.58111572
84.84171295 174.58268738 405.86132812
82.62531281 183.86105347 410.09664917
83.97371674 179.65438843 396.07937622
82.03874969 189.84123230 400.17642212
83.04486847 216.08055115 398.37872314
83.60687256 223.61303711 404.28778076
84.85591125 224.18972778 391.58782959
85.75228882 231.98884583 398.13876343
97.15164185 240.58782959 354.35687256
98.42498779 248.44026184 360.87423706
103.72134399 247.64558411 352.25354004
105.56398010 255.71922302 359.80578613
106.59293365 226.66435242 329.71627808
108.12747192 235.79855347 334.94992065
116.67807007 232.21992493 328.01287842
118.79818726 241.81230164 333.89035034
89.31845093 236.30413818 368.36920166
90.30099487 243.44953918 374.63574219
93.31873322 243.95347595 364.75305176
94.90956116 251.18182373 371.98928833
89.22315979 164.74739075 385.89498901
86.27947998 174.69723511 386.91406250
88.00659180 169.67294312 375.54421997
85.54084778 180.25872803 375.92019653
83.63945770 197.83192444 392.84783936
83.15596008 206.25314331 397.63415527
84.11447906 204.27423096 384.56881714
83.98976135 213.37089539 389.70370483
101.04304504 176.27720642 323.86447144
100.27009583 186.94593811 321.61892700
109.60771179 179.70573425 317.09725952
110.10440063 191.00053406 314.86062622
84.28205872 215.82775879 378.40496826
84.90837097 223.42739868 383.77288818
86.05261230 223.31877136 371.97546387
87.09119415 231.28576660 377.94183350
93.03631592 163.17532349 347.38180542
90.02351379 173.48855591 344.10089111
95.36133575 166.63940430 336.66912842
93.37156677 177.59648132 332.64416504
84.59731293 183.35940552 383.02539062
83.11807251 192.32177734 386.04632568
84.13714600 188.87744141 373.34609985
83.11807251 198.52117920 376.30358887
100.06272888 207.44601440 324.40954590
101.04774475 217.54595947 327.16561890
109.57117462 212.37156677 319.84146118
111.39603424 222.89021301 323.00338745
88.46774292 167.86782837 362.47518921
85.59219360 178.21661377 361.09442139
88.33344269 172.23248291 351.83978271
86.28639221 183.17178345 349.75717163
97.09880829 190.05490112 324.40716553
97.17459106 200.74732971 324.13601685
105.54225159 194.31686401 318.09500122
106.78153992 205.44773865 318.10546875
93.21826172 224.18183899 341.62985229
94.36743927 233.23109436 346.30654907
99.96002960 230.35556030 337.14309692
101.90092468 239.87091064 342.58609009
87.14402771 221.17199707 356.55252075
87.92733765 229.30882263 361.42672729
90.80609131 228.00140381 351.16531372
92.21078491 236.67344666 356.84924316
82.91381836 201.01753235 367.73522949
82.85330200 209.51182556 371.35137939
84.20602417 207.23272705 359.66754150
84.59150696 216.42024231 363.75076294
84.55188751 186.72079468 361.52496338
83.22668457 196.18479919 362.62182617
85.25102234 191.75299072 351.66003418
84.58274841 201.84107971 352.79318237
88.18852997 179.06188965 336.82217407
86.86259460 189.63583374 334.91040039
93.46580505 182.69187927 327.78771973
93.34777069 193.77534485 325.67895508
88.50773621 205.89370728 337.12829590
88.87661743 215.80404663 339.38763428
94.47457886 211.12339783 330.13101196
95.77385712 221.50181580 332.87918091
86.79483032 199.69627380 338.20465088
86.77248383 209.80017090 339.41802979
92.07550049 204.52703857 330.30679321
93.11407471 215.09504700 331.88824463
195.56800842 288.12414551 436.17431641
195.57142639 288.10174561 436.18856812
195.58197021 288.12521362 436.17230225
195.58331299 288.10748291 436.18286133
86.87317657 232.78254700 449.45303345
86.86878967 232.77684021 449.46917725
86.88717651 232.77995300 449.44873047
86.88378906 232.77824402 449.45834351
174.93331909 198.27667236 424.55764771
174.94281006 198.26382446 424.57653809
174.94042969 198.27642822 424.55661011
174.95321655 198.26609802 424.56683350
121.79659271 277.11889648 378.38677979
121.79824829 277.11486816 378.39526367
121.81026459 277.12356567 378.37744141
121.80934906 277.11581421 378.38464355
144.37512207 251.23208618 431.32077026
144.37197876 251.21752930 431.33120728
144.38510132 251.23512268 431.31323242
144.37928772 251.22454834 431.31689453
105.03106689 222.18325806 392.80319214
105.02340698 222.17848206 392.81658936
105.03518677 222.19195557 392.79516602
105.02712250 222.18792725 392.80215454
135.56054688 205.26956177 464.26275635
135.55818176 205.26515198 464.28027344
135.57359314 205.26954651 464.24237061
135.57357788 205.26963806 464.25228882
173.07716370 286.07604980 386.68530273
173.08229065 286.06497192 386.69143677
173.08738708 286.08007812 386.68026733
173.09016418 286.06726074 386.68533325
203.92576599 236.71417236 418.99420166
203.93579102 236.69567871 419.00738525
203.94064331 236.71441650 418.99615479
203.94976807 236.69898987 419.00347900
98.60145569 266.53775024 418.34588623
98.59932709 266.53369141 418.36251831
98.61666107 266.53833008 418.34106445
98.61300659 266.53637695 418.35317993
165.05725098 234.24205017 398.56900024
165.06007385 234.22868347 398.58569336
165.06347656 234.24945068 398.56323242
165.06689453 234.23548889 398.57391357
147.22949219 290.46630859 446.12875366
147.23194885 290.44967651 446.14291382
147.24156189 290.46191406 446.12658691
147.24125671 290.45159912 446.13516235
139.22575378 203.02972412 405.75891113
139.22515869 203.02087402 405.77041626
139.21795654 203.04171753 405.74746704
139.22285461 203.03294373 405.75009155
116.14101410 220.80010986 430.40560913
116.13817596 220.79229736 430.41864014
116.14750671 220.80662537 430.40014648
116.14436340 220.80096436 430.40521240
138.42121887 289.16873169 407.37719727
138.42008972 289.15866089 407.39285278
138.42866516 289.16946411 407.37258911
138.42491150 289.16125488 407.38504028
149.99926758 216.40440369 435.85693359
150.00369263 216.39697266 435.86984253
150.00585938 216.41319275 435.84341431
150.00964355 216.40817261 435.84860229
176.20178223 252.61602783 426.88751221
176.19889832 252.60023499 426.89538574
176.21562195 252.61943054 426.87841797
176.21252441 252.60702515 426.88055420
170.59638977 292.93572998 418.15756226
170.59616089 292.91873169 418.17105103
170.60580444 292.93920898 418.15264893
170.60394287 292.92523193 418.16253662
163.40261841 197.45729065 456.02975464
163.40454102 197.45495605 456.04949951
163.42070007 197.46301270 456.01065063
163.42520142 197.46310425 456.02218628
189.41090393 218.59713745 440.73135376
189.41639709 218.58564758 440.74682617
189.41317749 218.59826660 440.72296143
189.42134094 218.59098816 440.73089600
113.38554382 221.90003967 460.19876099
113.38636780 221.89436340 460.21093750
113.39588928 221.89343262 460.19311523
113.39765167 221.89164734 460.19931030
141.92198181 249.47143555 400.43917847
141.91915894 249.46063232 400.44317627
141.91918945 249.48179626 400.42727661
141.91693115 249.47030640 400.42538452
202.72639465 267.88165283 418.94866943
202.72763062 267.86441040 418.95639038
202.73814392 267.87869263 418.94967651
202.73849487 267.86419678 418.95318604
107.05439758 248.05998230 436.46069336
107.04875946 248.04998779 436.47555542
107.07076263 248.06521606 436.45629883
107.06466675 248.05989075 436.46398926
86.39720917 245.60791016 406.32498169
86.39283752 245.60231018 406.33489990
86.41142273 245.60650635 406.31570435
86.40601349 245.59974670 406.32125854
121.90697479 270.21685791 431.38229370
121.90445709 270.20623779 431.39517212
121.91572571 270.21624756 431.37582397
121.91082764 270.21081543 431.38476562
147.88871765 283.11337280 381.26922607
147.88940430 283.10842896 381.27838135
147.89909363 283.11285400 381.26159668
147.89730835 283.10534668 381.26940918
163.87889099 272.43167114 434.13735962
163.87539673 272.41485596 434.14370728
163.88775635 272.43188477 434.12741089
163.88235474 272.41995239 434.12878418
189.36398315 282.75778198 405.24340820
189.36747742 282.73764038 405.26190186
189.36712646 282.76223755 405.23779297
189.36828613 282.74420166 405.25152588
173.15338135 229.07194519 422.85513306
173.15100098 229.06307983 422.86804199
173.15548706 229.07760620 422.84881592
173.15620422 229.07006836 422.85311890
102.00702667 268.57031250 388.93008423
102.00666809 268.56579590 388.93966675
102.02618408 268.57080078 388.91802979
102.02510834 268.56488037 388.92483521
115.77713776 279.80508423 408.61996460
115.77671051 279.79830933 408.63320923
115.78749084 279.80404663 408.61163330
115.78498840 279.79895020 408.62210083
85.38563538 249.17871094 429.16012573
85.38348389 249.17268372 429.17407227
85.39981079 249.17985535 429.15313721
85.39698029 249.17584229 429.16061401
148.56884766 222.84562683 414.07824707
148.56745911 222.83509827 414.08972168
148.57383728 222.85537720 414.07748413
148.57467651 222.84622192 414.08154297
132.62564087 224.24922180 449.87774658
132.62876892 224.24237061 449.88848877
132.63470459 224.25028992 449.87075806
132.63790894 224.24691772 449.87615967
176.15588379 285.79464722 445.95269775
176.15754700 285.77642822 445.96221924
176.16343689 285.79260254 445.94207764
176.16275024 285.78137207 445.94732666
141.92741394 272.00704956 434.26126099
141.92404175 271.99420166 434.26950073
141.94342041 272.00552368 434.25332642
141.93719482 271.99725342 434.25717163
96.75742340 232.03073120 429.47872925
96.75772095 232.02374268 429.49038696
96.76376343 232.03509521 429.47637939
96.76455688 232.02815247 429.48339844
130.38619995 236.82518005 429.50933838
130.38757324 236.81559753 429.51776123
130.40608215 236.82653809 429.50302124
130.40481567 236.81916809 429.50634766
151.97143555 290.78710938 424.83370972
151.96757507 290.77194214 424.85104370
151.98512268 290.78884888 424.82897949
151.97972107 290.77758789 424.84173584
104.01460266 266.22894287 443.59353638
104.01477814 266.22015381 443.61129761
104.02798462 266.22061157 443.58609009
104.02612305 266.21737671 443.59722900
154.34358215 205.30967712 420.31274414
154.34594727 205.30274963 420.32827759
154.34782410 205.32228088 420.30511475
154.35238647 205.31672668 420.31213379
189.49615479 210.84873962 423.80972290
189.50421143 210.83665466 423.82247925
189.49792480 210.85125732 423.80850220
189.50796509 210.84176636 423.81359863
184.93659973 268.75024414 428.43771362
184.93534851 268.73162842 428.44567871
184.94940186 268.75036621 428.43383789
184.94641113 268.73593140 428.43646240
153.99195862 213.32554626 453.55819702
153.99656677 213.31727600 453.57339478
154.00120544 213.32786560 453.54763794
154.00517273 213.32301331 453.55514526
156.76464844 236.81503296 424.14935303
156.75756836 236.80349731 424.15835571
156.77481079 236.81843567 424.14056396
156.76919556 236.80775452 424.14279175
101.82055664 220.56892395 442.59863281
101.81646729 220.56312561 442.61148071
101.83241272 220.56809998 442.59521484
101.82907104 220.56419373 442.60327148
130.21275330 286.17645264 429.63784790
130.21456909 286.16162109 429.65316772
130.21998596 286.17498779 429.63821411
130.21945190 286.16580200 429.64828491
155.60696411 288.46298218 402.18957520
155.60462952 288.45095825 402.20092773
155.61593628 288.46310425 402.18307495
155.61145020 288.45169067 402.19192505
171.18588257 209.68258667 437.58291626
171.18988037 209.67491150 437.59722900
171.18959045 209.68286133 437.57412720
171.19522095 209.67814636 437.58029175
100.49604034 239.05090332 393.52081299
100.49163818 239.04537964 393.53305054
100.50241089 239.05610657 393.51000977
100.49592590 239.05143738 393.51708984
165.96337891 219.92883301 409.88601685
165.96694946 219.91551208 409.90347290
165.96817017 219.93283081 409.88150024
165.97251892 219.92025757 409.89025879
135.49118042 217.41950989 426.40158081
135.48956299 217.41273499 426.41333008
135.49732971 217.42762756 426.39242554
135.49636841 217.42230225 426.39712524
192.68148804 248.61901855 423.38046265
192.68185425 248.60223389 423.39270020
192.69645691 248.61964417 423.37893677
192.69699097 248.60603333 423.38540649
94.60411072 260.39776611 401.75491333
94.60072327 260.39535522 401.76675415
94.61820984 260.40289307 401.74813843
94.61371613 260.39907837 401.75595093
158.85372925 248.94189453 403.32476807
158.85372925 248.93081665 403.33825684
158.86373901 248.94537354 403.32553101
158.86117554 248.93472290 403.33337402
164.60179138 292.78268433 436.71551514
164.60516357 292.76287842 436.73046875
164.60676575 292.78158569 436.71496582
164.60800171 292.76828003 436.72546387
124.66416168 284.09140015 395.62210083
124.66651154 284.08581543 395.63394165
124.67002106 284.09506226 395.61355591
124.66854858 284.08898926 395.62423706
159.49911499 256.75515747 431.16799927
159.49632263 256.74014282 431.17410278
159.51831055 256.75524902 431.16217041
159.51364136 256.74295044 431.16326904
191.83802795 227.48551941 424.10137939
191.84149170 227.47227478 424.10974121
191.84396362 227.48828125 424.09796143
191.84826660 227.47789001 424.10064697
120.48640442 206.97758484 468.15591431
120.48112488 206.97370911 468.17257690
120.48995972 206.97833252 468.13732910
120.48660278 206.98020935 468.14605713
170.98104858 290.40771484 402.76431274
170.98315430 290.39276123 402.77947998
170.99064636 290.40744019 402.76229858
170.99021912 290.39361572 402.77322388
94.74103546 225.03312683 460.27209473
94.73167419 225.02822876 460.29379272
94.75871277 225.03195190 460.26034546
94.75096130 225.03211975 460.27423096
124.19326782 255.03855896 431.83074951
124.18917084 255.02740479 431.83880615
124.20700073 255.03494263 431.82135010
124.20102692 255.02687073 431.82312012
107.93973541 275.89178467 432.77413940
107.94343567 275.88180542 432.79263306
107.95242310 275.88598633 432.76889038
107.95314026 275.87994385 432.78240967
189.05139160 290.64718628 422.93646240
189.05093384 290.63070679 422.94589233
189.06053162 290.64840698 422.93542480
189.05868530 290.63568115 422.94070435
94.81228638 232.70054626 405.26049805
94.80293274 232.69549561 405.27850342
94.82397461 232.70162964 405.25311279
94.81359863 232.69616699 405.26492310
143.84916687 286.45614624 394.27688599
143.84881592 286.44781494 394.29049683
143.85592651 286.46011353 394.27218628
143.85334778 286.45025635 394.28344727
133.00155640 265.20159912 424.42266846
133.00050354 265.18682861 424.43283081
133.00836182 265.20458984 424.41613770
133.00517273 265.19363403 424.42062378
95.49952698 256.51495361 438.58987427
95.49503326 256.50918579 438.60507202
95.51406860 256.51516724 438.58383179
95.50951385 256.51443481 438.59283447
133.15354919 282.60638428 383.71353149
133.15739441 282.60028076 383.72488403
133.15890503 282.60791016 383.70843506
133.15896606 282.60089111 383.71792603
140.46907043 230.32310486 422.07479858
140.46554565 230.31436157 422.08279419
140.47433472 230.33027649 422.06668091
140.47042847 230.32391357 422.06777954
105.71963501 273.17956543 403.23867798
105.71958923 273.17526245 403.25518799
105.73655701 273.17736816 403.23065186
105.73463440 273.17376709 403.24411011
125.71732330 217.76982117 461.59210205
125.71458435 217.76248169 461.60733032
125.72808075 217.76972961 461.57647705
125.72628784 217.76863098 461.58435059
127.34315491 286.79504395 413.67462158
127.34451294 286.78610229 413.68942261
127.35312653 286.79547119 413.67153931
127.35095978 286.78918457 413.68243408
201.01438904 223.07136536 432.03195190
201.01956177 223.05842590 432.04434204
201.01911926 223.06602478 432.02633667
201.02633667 223.05606079 432.03164673
135.93550110 284.94671631 443.31262207
135.93435669 284.92901611 443.33755493
135.94511414 284.94543457 443.31213379
135.94326782 284.93502808 443.33062744
108.37849426 238.21548462 428.56381226
108.37585449 238.20703125 428.57003784
108.38993835 238.22048950 428.55441284
108.38568115 238.21435547 428.55480957
88.93029785 253.29800415 417.74014282
88.92758179 253.29223633 417.75332642
88.94104767 253.29891968 417.73199463
88.93864441 253.29415894 417.74026489
184.28216553 206.10758972 413.42184448
184.29345703 206.09503174 413.43511963
184.28460693 206.11213684 413.40783691
184.29776001 206.09967041 413.41302490
177.85153198 240.17655945 426.86956787
177.85482788 240.15969849 426.88171387
177.86451721 240.17831421 426.86599731
177.86656189 240.16474915 426.87164307
116.84288025 279.21984863 424.25744629
116.84216309 279.21319580 424.26968384
116.85592651 279.22082520 424.25177002
116.85404968 279.21679688 424.25997925
139.07164001 215.39230347 457.84036255
139.07655334 215.38641357 457.85281372
139.08348083 215.39758301 457.83029175
139.08830261 215.39562988 457.83737183
138.82205200 220.76443481 439.02252197
138.81904602 220.75881958 439.03521729
138.83697510 220.77204895 439.00952148
138.83488464 220.76924133 439.01483154
85.17498779 244.59887695 440.42239380
85.17235565 244.59078979 440.44100952
85.19311523 244.59484863 440.41751099
85.19183350 244.58944702 440.42987061
160.32153320 285.25701904 445.24969482
160.32499695 285.23565674 445.26239014
160.33587646 285.25527954 445.25033569
160.33590698 285.24047852 445.25747681
155.77101135 223.37400818 404.36724854
155.77487183 223.35870361 404.38543701
155.77438354 223.38415527 404.36132812
155.77890015 223.37057495 404.37139893
172.10360718 218.17283630 427.93820190
172.10243225 218.16284180 427.95068359
172.10090637 218.17225647 427.93572998
172.10475159 218.16438293 427.94042969
171.15097046 199.73173523 444.39691162
171.16076660 199.72410583 444.41406250
171.15951538 199.73507690 444.38397217
171.16989136 199.73110962 444.39288330
175.45065308 291.76202393 431.55413818
175.45423889 291.74386597 431.56335449
175.45649719 291.76409912 431.55331421
175.45707703 291.75091553 431.55914307
179.97164917 286.64257812 411.44085693
179.97161865 286.62353516 411.45614624
179.97851562 286.64678955 411.43676758
179.97640991 286.63125610 411.44696045
151.67814636 204.73608398 461.38232422
151.67996216 204.73332214 461.39950562
151.69586182 204.73869324 461.37231445
151.69854736 204.73947144 461.38278198
159.63101196 282.07012939 380.43414307
159.63313293 282.06390381 380.44244385
159.64155579 282.07070923 380.42797852
159.64143372 282.06149292 380.43496704
153.01414490 266.24081421 433.79196167
153.01139832 266.22525024 433.79885864
153.03010559 266.23898315 433.78814697
153.02497864 266.22744751 433.78829956
156.81568909 238.38446045 407.90554810
156.81492615 238.37161255 407.92626953
156.81770325 238.38642883 407.89910889
156.81655884 238.37449646 407.91238403
151.27398682 290.38473511 412.87579346
151.27357483 290.37106323 412.88888550
151.28424072 290.38711548 412.87365723
151.28057861 290.37597656 412.88275146
149.00219727 279.48480225 442.61874390
148.99845886 279.46609497 442.63580322
149.01315308 279.48663330 442.60968018
149.00859070 279.47396851 442.62020874
121.62424469 223.16632080 446.20468140
121.62153625 223.16096497 446.21463013
121.63132477 223.16792297 446.19528198
121.63008118 223.16619873 446.19952393
140.00242615 203.80740356 417.32101440
140.00434875 203.79853821 417.33843994
140.00790405 203.81552124 417.30606079
140.01033020 203.80764771 417.31384277
98.35626221 221.94046021 403.03457642
98.34690857 221.93457031 403.05218506
98.36544037 221.94416809 403.03155518
98.35607910 221.93913269 403.04226685
158.92410278 228.07484436 414.40890503
158.92250061 228.06289673 414.42181396
158.92543030 228.08244324 414.40411377
158.92488098 228.07235718 414.40939331
162.82464600 210.59385681 445.16241455
162.83003235 210.58657837 445.17694092
162.83326721 210.59718323 445.15289307
162.83862305 210.59393311 445.16052246
193.67387390 275.91955566 427.99234009
193.67169189 275.90039062 428.00143433
193.68775940 275.92181396 427.99218750
193.68392944 275.90719604 427.99639893
180.91073608 212.35362244 431.99749756
180.91816711 212.34214783 432.00979614
180.90707397 212.35189819 431.98944092
180.91584778 212.34335327 431.99462891
99.20100403 268.79159546 433.27801514
99.20169067 268.78402710 433.29263306
99.21528625 268.78936768 433.27313232
99.21424866 268.78488159 433.28305054
105.15372467 223.14054871 430.19073486
105.15021515 223.13330078 430.19998169
105.15605164 223.14526367 430.18655396
105.15289307 223.13954163 430.18905640
201.54321289 252.87162781 418.02081299
201.54786682 252.85693359 418.02740479
201.56114197 252.86772156 418.01867676
201.56462097 252.85534668 418.02096558
107.41899109 229.79464722 384.94958496
107.41827393 229.78361511 384.97625732
107.43214417 229.79077148 384.93176270
107.42930603 229.78201294 384.94848633
162.90498352 286.36474609 391.28225708
162.90702820 286.35351562 391.29254150
162.91224670 286.36914062 391.27529907
162.91296387 286.35717773 391.28234863
93.07037354 226.49063110 439.33239746
93.06824493 226.48410034 439.34442139
93.07968903 226.48777771 439.33139038
93.07718658 226.48280334 439.33810425
152.65986633 291.27066040 436.59201050
152.66444397 291.25219727 436.60482788
152.66609192 291.26943970 436.59002686
152.66711426 291.25717163 436.59805298
186.84228516 281.56124878 435.02368164
186.84161377 281.54083252 435.03970337
186.85403442 281.56930542 435.02328491
186.85131836 281.55361938 435.03390503
191.61915588 261.36645508 423.87274170
191.61590576 261.34832764 423.88125610
191.63265991 261.36898804 423.86630249
191.62844849 261.35443115 423.86984253
152.35607910 205.70428467 409.57714844
152.36029053 205.69519043 409.59118652
152.36114502 205.71144104 409.56698608
152.36653137 205.70312500 409.57269287
162.82765198 209.67889404 430.61697388
162.83042908 209.67070007 430.63064575
162.83099365 209.68035889 430.61145020
162.83642578 209.67410278 430.61633301
163.51408386 210.90554810 419.62908936
163.51609802 210.89294434 419.64529419
163.51464844 210.91162109 419.62246704
163.51856995 210.90023804 419.63082886
139.29240417 290.36245728 417.96655273
139.29223633 290.35025024 417.98281860
139.29681396 290.36596680 417.96398926
139.29478455 290.35760498 417.97650146
110.40666962 275.07000732 389.96347046
110.40830994 275.06604004 389.96954346
110.42221069 275.07192993 389.95660400
110.42047882 275.06494141 389.96215820
120.21360779 229.72805786 426.25967407
120.20973206 229.72155762 426.26644897
120.21905518 229.73547363 426.25170898
120.21547699 229.73039246 426.25396729
121.41854858 241.24092102 433.08441162
121.41406250 241.23100281 433.09494019
121.42861938 241.24346924 433.07171631
121.42301941 241.23648071 433.07595825
149.13252258 242.00422668 398.30178833
149.12854004 241.99353027 398.31475830
149.13012695 242.00790405 398.30053711
149.12693787 241.99705505 398.30673218
111.41595459 222.47958374 448.80163574
111.41003418 222.47468567 448.81164551
111.42585754 222.48384094 448.79113770
111.42181396 222.48286438 448.79498291
142.70025635 213.27868652 413.54602051
142.70262146 213.26863098 413.55996704
142.70404053 213.28643799 413.53427124
142.70730591 213.27772522 413.54016113
165.47602844 241.06852722 428.14620972
165.47616577 241.05664062 428.15612793
165.48631287 241.07156372 428.14398193
165.48490906 241.06242371 428.14685059
114.77848053 263.02304077 434.06802368
114.77771759 263.01123047 434.08062744
114.79260254 263.02056885 434.06640625
114.78986359 263.01309204 434.07415771
110.40483856 275.77502441 416.39413452
110.40219879 275.77035522 416.40921021
110.42100525 275.78259277 416.38876343
110.41729736 275.78009033 416.39941406
163.37474060 290.87664795 411.19717407
163.37545776 290.86187744 411.20892334
163.38096619 290.88323975 411.19113159
163.37911987 290.87048340 411.19998169
167.51358032 263.27847290 431.36654663
167.51394653 263.26214600 431.37387085
167.52540588 263.27801514 431.36062622
167.52194214 263.26617432 431.36349487
147.20756531 212.03999329 423.12707520
147.20730591 212.03228760 423.14022827
147.20951843 212.04602051 423.11761475
147.21189880 212.04072571 423.12368774
178.90562439 220.19642639 438.01776123
178.91000366 220.18528748 438.03063965
178.90461731 220.19361877 438.00805664
178.91081238 220.18617249 438.01553345
183.91925049 289.13519287 399.80133057
183.92524719 289.11743164 399.81243896
183.92524719 289.13601685 399.80169678
183.92791748 289.12033081 399.80984497
129.28236389 224.68217468 423.88186646
129.28004456 224.67449951 423.89157104
129.29003906 224.69165039 423.87786865
129.28842163 224.68641663 423.88037109
178.72178650 207.11799622 422.62603760
178.72947693 207.10655212 422.63955688
178.72206116 207.11961365 422.61581421
178.73248291 207.11067200 422.62155151
173.64440918 198.42582703 435.06100464
173.65261841 198.41819763 435.07846069
173.65095520 198.42799377 435.05599976
173.66088867 198.42085266 435.06552124
194.70791626 236.74900818 423.74841309
194.71211243 236.73487854 423.75582886
194.71301270 236.74656677 423.74789429
194.72033691 236.73526001 423.75152588
155.84315491 248.10015869 428.81207275
155.83834839 248.08532715 428.82162476
155.85044861 248.09980774 428.79995728
155.84382629 248.09025574 428.80325317
172.75514221 276.19866943 434.51260376
172.75572205 276.17965698 434.52044678
172.76885986 276.20004272 434.51318359
172.76527405 276.18533325 434.51599121
183.23428345 227.13638306 428.44818115
183.23753357 227.12460327 428.45904541
183.24453735 227.13746643 428.44589233
183.24647522 227.12881470 428.44827271
141.25582886 289.77728271 436.91101074
141.25529480 289.76080322 436.93173218
141.26786804 289.77371216 436.91201782
141.26559448 289.76293945 436.92697144
129.04705811 274.42221069 426.57061768
129.05091858 274.41030884 426.57971191
129.05351257 274.42120361 426.55972290
129.05320740 274.41195679 426.56549072
130.32487488 278.40997314 435.08938599
130.32492065 278.39242554 435.11206055
130.33934021 278.40444946 435.08950806
130.33740234 278.39331055 435.10519409
89.76445770 254.59890747 407.37780762
89.76017761 254.59495544 407.38699341
89.77856445 254.60278320 407.36972046
89.77372742 254.59863281 407.37536621
91.26234436 240.93875122 434.23559570
91.25895691 240.93194580 434.24655151
91.27009583 240.93893433 434.23263550
91.26631165 240.93457031 434.23794556
163.91485596 229.48385620 406.59814453
163.91703796 229.46929932 406.61441040
163.91636658 229.48986816 406.59698486
163.91897583 229.47663879 406.60540771
191.82655334 214.72471619 432.60949707
191.83084106 214.71362305 432.62417603
191.82775879 214.72241211 432.60211182
191.83383179 214.71472168 432.60815430
134.63612366 286.05880737 393.85382080
134.63583374 286.05148315 393.86691284
134.64537048 286.05770874 393.84777832
134.64236450 286.05068970 393.85754395
85.12770081 245.06623840 419.19140625
85.12422180 245.06010437 419.19729614
85.14402008 245.07243347 419.17877197
85.14125061 245.06497192 419.18063354
158.27185059 240.08137512 396.65289307
158.27436829 240.06799316 396.66479492
158.27201843 240.08961487 396.64553833
158.27496338 240.07688904 396.65274048
100.03081512 240.93232727 431.11837769
100.02787018 240.92428589 431.12942505
100.03657532 240.93727112 431.10919189
100.03136444 240.93180847 431.11462402
139.33763123 238.16162109 428.30917358
139.33230591 238.15316772 428.31658936
139.34898376 238.16641235 428.29473877
139.34179688 238.16029358 428.29647827
133.00462341 256.41949463 433.71942139
132.99884033 256.40869141 433.73062134
133.02310181 256.41763306 433.70919800
133.01535034 256.40972900 433.71469116
146.56227112 216.50236511 449.41015625
146.56469727 216.49446106 449.42254639
146.56573486 216.50598145 449.40127563
146.56909180 216.50224304 449.40740967
86.89109802 234.35961914 440.54022217
86.88816833 234.35208130 440.55511475
86.90180969 234.35755920 440.53625488
86.89906311 234.35278320 440.54602051
124.84268188 220.06246948 432.57308960
124.83790588 220.05538940 432.58364868
124.84898376 220.06723022 432.56723022
124.84622192 220.06221008 432.57116699
110.81378937 220.12432861 437.58343506
110.80706024 220.11808777 437.59771729
110.82334900 220.12884521 437.57690430
110.81727600 220.12614441 437.58279419
176.69042969 288.17791748 394.60644531
176.69190979 288.16613770 394.61257935
176.69609070 288.18103027 394.60089111
176.69636536 288.16854858 394.60498047
102.90291595 223.08784485 451.22570801
102.90036011 223.08413696 451.23648071
102.91349792 223.08863831 451.22381592
102.91210938 223.08776855 451.22921753
152.42103577 214.86724854 414.51614380
152.42187500 214.85874939 414.52972412
152.41960144 214.87808228 414.51208496
152.42422485 214.87074280 414.51837158
192.45019531 224.66751099 433.55310059
192.45793152 224.65303040 433.56616211
192.45341492 224.66632080 433.55377197
192.46047974 224.65571594 433.55941772
184.71382141 290.06335449 433.87875366
184.71585083 290.04370117 433.88879395
184.72210693 290.06463623 433.87811279
184.72123718 290.05056763 433.88485718
155.16879272 214.83099365 444.38052368
155.17057800 214.82414246 444.39245605
155.17373657 214.83982849 444.36688232
155.17559814 214.83691406 444.37207031
167.30902100 223.37805176 417.80749512
167.30960083 223.36645508 417.82147217
167.31153870 223.38316345 417.80334473
167.31323242 223.37243652 417.80975342
117.04740906 279.91082764 392.86544800
117.05053711 279.90469360 392.87548828
117.05844116 279.91180420 392.86193848
117.05838013 279.90441895 392.87078857
139.89462280 281.38061523 378.39398193
139.89717102 281.37557983 378.40252686
139.89997864 281.38336182 378.38494873
139.89920044 281.37542725 378.39260864
166.59303284 281.98797607 440.25424194
166.59091187 281.96627808 440.26638794
166.60325623 281.99130249 440.25048828
166.59793091 281.97576904 440.25692749
165.97038269 292.76016235 425.43252563
165.97087097 292.74319458 425.44421387
165.97961426 292.76025391 425.42807007
165.97735596 292.74707031 425.43524170
167.55461121 205.01580811 450.06619263
167.55624390 205.01185608 450.08230591
167.56533813 205.01811218 450.05773926
167.56924438 205.01792908 450.06619263
199.84622192 281.83044434 428.09924316
199.84848022 281.80792236 428.11196899
199.86116028 281.83596802 428.09948730
199.86093140 281.81729126 428.10818481
111.95786285 254.99865723 435.58438110
111.95280457 254.98794556 435.59906006
111.96870422 255.00195312 435.58255005
111.96198273 254.99650574 435.59069824
97.51661682 264.88317871 410.08044434
97.51650238 264.87820435 410.09298706
97.53303528 264.88290405 410.07379150
97.53015900 264.87838745 410.08224487
150.71485901 234.19085693 418.83227539
150.70954895 234.17916870 418.84271240
150.72192383 234.19444275 418.82595825
150.71681213 234.18405151 418.82861328
145.01805115 209.17269897 406.15048218
145.01815796 209.16398621 406.16149902
145.01925659 209.18380737 406.13787842
145.02220154 209.17570496 406.14144897
156.48947144 231.59780884 402.54421997
156.49369812 231.58285522 402.56420898
156.49252319 231.60488892 402.54293823
156.49577332 231.59127808 402.55484009
152.17868042 287.82629395 394.38952637
152.17846680 287.81671143 394.40158081
152.18919373 287.82678223 394.38308716
152.18722534 287.81640625 394.39263916
104.67176819 233.46501160 398.27719116
104.66387177 233.45993042 398.29553223
104.68309784 233.47331238 398.27166748
104.67406464 233.46939087 398.28152466
123.31471252 283.75183105 421.31964111
123.31472015 283.74374390 421.33169556
123.33600616 283.74755859 421.31869507
123.33396149 283.74114990 421.32742310
163.90065002 219.33876038 401.73211670
163.90443420 219.32467651 401.74975586
163.90524292 219.34912109 401.72830200
163.91218567 219.33535767 401.73736572
179.46479797 262.34024048 428.20654297
179.46069336 262.32284546 428.21569824
179.47880554 262.33810425 428.20056152
179.47436523 262.32485962 428.20315552
184.64979553 248.38632202 425.71170044
184.65202332 248.36813354 425.72409058
184.66679382 248.39021301 425.71035767
184.66877747 248.37524414 425.71588135
195.29727173 269.10205078 423.54202271
195.29740906 269.08401489 423.55184937
195.30865479 269.10269165 423.53857422
195.30680847 269.08816528 423.54278564
169.05894470 290.50888062 443.33047485
169.06188965 290.48834229 443.34329224
169.06553650 290.51052856 443.32681274
169.06573486 290.49658203 443.33383179
155.32290649 211.80883789 428.02996826
155.32446289 211.80180359 428.04278564
155.32768250 211.81504822 428.01791382
155.33018494 211.80928040 428.02325439
183.29003906 291.92602539 417.32946777
183.29275513 291.90838623 417.34274292
183.29849243 291.93231201 417.32595825
183.29760742 291.91766357 417.33547974
199.04620361 224.07543945 422.86044312
199.05041504 224.06182861 422.87075806
199.05131531 224.07415771 422.86050415
199.05746460 224.06346130 422.86376953
146.71804810 199.39413452 417.89965820
146.71859741 199.38630676 417.91748047
146.72708130 199.40478516 417.87927246
146.72817993 199.39682007 417.88769531
112.37447357 215.61672974 465.15640259
112.36972809 215.61134338 465.17349243
112.38523865 215.61701965 465.14300537
112.38072205 215.61700439 465.15307617
104.03834534 273.16363525 439.27062988
104.03948975 273.15719604 439.28533936
104.05643463 273.15411377 439.26116943
104.05511475 273.15063477 439.27093506
138.77740479 260.13104248 422.10742188
138.77236938 260.11770630 422.12051392
138.79135132 260.12957764 422.10192871
138.78503418 260.11782837 422.10852051
112.40142822 231.46308899 426.20272827
112.39308167 231.45759583 426.21179199
112.40577698 231.47009277 426.19625854
112.39823914 231.46701050 426.19927979
159.77531433 293.22372437 445.28625488
159.77893066 293.20538330 445.29690552
159.79124451 293.22283936 445.28561401
159.79083252 293.21011353 445.29180908
189.53598022 286.18975830 440.96417236
189.54010010 286.16638184 440.97958374
189.54989624 286.19332886 440.96719360
189.55116272 286.17593384 440.97714233
141.31390381 217.51477051 432.22357178
141.31288147 217.50788879 432.23660278
141.32609558 217.52328491 432.21395874
141.32339478 217.51741028 432.21960449
82.40126801 242.47332764 426.17272949
82.39611816 242.46873474 426.18325806
82.41172791 242.47366333 426.16629028
82.40876007 242.46907043 426.17245483
150.01803589 240.02680969 426.78082275
150.01269531 240.01548767 426.78930664
150.02972412 240.02996826 426.77243042
150.02503967 240.02030945 426.77487183
117.12086487 277.51638794 384.76266479
117.12351227 277.51193237 384.77438354
117.13611603 277.51937866 384.75024414
117.13546753 277.51254272 384.76071167
146.68496704 262.29705811 431.21670532
146.67721558 262.28613281 431.22418213
146.69917297 262.29425049 431.20593262
146.68948364 262.28704834 431.20867920
94.49179840 263.02102661 430.68945312
94.48928833 263.01544189 430.70114136
94.50074005 263.02182007 430.68292236
94.49925995 263.01925659 430.69076538
117.59146118 249.92034912 433.55700684
117.58872986 249.90985107 433.56533813
117.60509491 249.92105103 433.54803467
117.60024261 249.91427612 433.55215454
87.61911011 252.01473999 440.88571167
87.61946106 252.00706482 440.90341187
87.63459778 252.00877380 440.88131714
87.63378906 252.00454712 440.89419556
100.33576202 267.71667480 396.50033569
100.33682251 267.71182251 396.50909424
100.35432434 267.71734619 396.49548340
100.35455322 267.71090698 396.50091553
179.52429199 280.96752930 437.61575317
179.52618408 280.94519043 437.63131714
179.52990723 280.97537231 437.61337280
179.53057861 280.95910645 437.62310791
158.20036316 213.30043030 435.70544434
158.20474243 213.29216003 435.71795654
158.21121216 213.31127930 435.69088745
158.21414185 213.30570984 435.69586182
106.21528625 219.82722473 462.35479736
106.21341705 219.82199097 462.37197876
106.23051453 219.82833862 462.34478760
106.22849274 219.82768250 462.35415649
138.79975891 222.82019043 421.20373535
138.79908752 222.81155396 421.21478271
138.80726624 222.82748413 421.19952393
138.80697632 222.82028198 421.20327759
146.17504883 200.87042236 410.34442139
146.17550659 200.86125183 410.35974121
146.17811584 200.87814331 410.32986450
146.18159485 200.86923218 410.33670044
148.80824280 273.93203735 437.14962769
148.80586243 273.91497803 437.16253662
148.81547546 273.93301392 437.14294434
148.81115723 273.92132568 437.14944458
122.33367157 262.49395752 431.39022827
122.32844543 262.48263550 431.40319824
122.34874725 262.49603271 431.38568115
122.34096527 262.48886108 431.39196777
175.13380432 224.93865967 429.93948364
175.13359070 224.92797852 429.95510864
175.13768005 224.94088745 429.92819214
175.13746643 224.93263245 429.93487549
179.23962402 273.70401001 431.24050903
179.23509216 273.68762207 431.24490356
179.25849915 273.70147705 431.23675537
179.25224304 273.68792725 431.23736572
145.85188293 244.25305176 404.86221313
145.84884644 244.23983765 404.87490845
145.85575867 244.25936890 404.86279297
145.85249329 244.24694824 404.86801147
129.43724060 243.01002502 433.92544556
129.43469238 242.99763489 433.93893433
129.44990540 243.00862122 433.91888428
129.44552612 243.00018311 433.92630005
169.56164551 249.33445740 428.72164917
169.56054688 249.31845093 428.73056030
169.57865906 249.33441162 428.71722412
169.57751465 249.32156372 428.71954346
125.24555969 285.72644043 403.04891968
125.24585724 285.71997070 403.06341553
125.25537872 285.72827148 403.04064941
125.25323486 285.72189331 403.05123901
123.03313446 281.03079224 388.29156494
123.03637695 281.02380371 388.30203247
123.03416443 281.03390503 388.28405762
123.03635406 281.02526855 388.29220581
197.80850220 218.32583618 437.04858398
197.81144714 218.31730652 437.06304932
197.81066895 218.32705688 437.03973389
197.81620789 218.32086182 437.04589844
129.02645874 278.71936035 376.66299438
129.02815247 278.71557617 376.67059326
129.03775024 278.72308350 376.65365601
129.03688049 278.71704102 376.66018677
144.42370605 206.86174011 461.74829102
144.42395020 206.85630798 461.76473999
144.43347168 206.86677551 461.72985840
144.43534851 206.86599731 461.73916626
105.34278870 273.38546753 426.15435791
105.34095764 273.37805176 426.16888428
105.35662079 273.38809204 426.15078735
105.35343933 273.38311768 426.16027832
156.02478027 278.13723755 440.22210693
156.02407837 278.12008667 440.23028564
156.03404236 278.13473511 440.21557617
156.03089905 278.12310791 440.21945190
92.63310242 237.42211914 399.81576538
92.62536621 237.41627502 399.82766724
92.64558411 237.42681885 399.80694580
92.63629913 237.42132568 399.81387329
133.77722168 289.13439941 422.94436646
133.77946472 289.12219238 422.95495605
133.78791809 289.13491821 422.94345093
133.78686523 289.12646484 422.94830322
89.18907166 255.58445740 428.48760986
89.18576050 255.58029175 428.50012207
89.20571899 255.58859253 428.47860718
89.20343781 255.58683777 428.48617554
146.11770630 290.74072266 431.32452393
146.11642456 290.72412109 431.34271240
146.12603760 290.73880005 431.31716919
146.12355042 290.72753906 431.33053589
131.40798950 220.39462280 438.22836304
131.40728760 220.38777161 438.23925781
131.42124939 220.39895630 438.22143555
131.42022705 220.39437866 438.22589111
156.48919678 247.31489563 396.26217651
156.48794556 247.30444336 396.27020264
156.49269104 247.32122803 396.26239014
156.49108887 247.31059265 396.26538086
191.24771118 282.74987793 412.41180420
191.24812317 282.73046875 412.42816162
191.25100708 282.75714111 412.40557861
191.24972534 282.74093628 412.41680908
126.68457794 210.89669800 464.16748047
126.67977905 210.89056396 464.18490601
126.69866180 210.89999390 464.14645386
126.69436646 210.89857483 464.15551758
138.78489685 205.52290344 398.81066895
138.78256226 205.51525879 398.81768799
138.76780701 205.53852844 398.79498291
138.77151489 205.53138733 398.79327393
113.68678284 272.58197021 436.06225586
113.68854523 272.57269287 436.07400513
113.69663239 272.57965088 436.05340576
113.69532776 272.57476807 436.06137085
105.07608032 226.31034851 399.89743042
105.06831360 226.30622864 399.91360474
105.08569336 226.31907654 399.89385986
105.07724762 226.31484985 399.90356445
139.12854004 265.72195435 428.38919067
139.12472534 265.70785522 428.40374756
139.13992310 265.71945190 428.38302612
139.13362122 265.70898438 428.39129639
160.65777588 210.50073242 452.59204102
160.66372681 210.49452209 452.60882568
160.66685486 210.50341797 452.57727051
160.67410278 210.50108337 452.58673096
165.01589966 236.59065247 405.44946289
165.01928711 236.57455444 405.46746826
165.01577759 236.59765625 405.44750977
165.01797485 236.58227539 405.45794678
139.16491699 220.54264832 452.76370239
139.16711426 220.53556824 452.77618408
139.17852783 220.54495239 452.75064087
139.18016052 220.54212952 452.75665283
202.54653931 245.76321411 418.76461792
202.55377197 245.74716187 418.77548218
202.56080627 245.76487732 418.76531982
202.56657410 245.75134277 418.77050781
98.85539246 266.75769043 425.56115723
98.85302734 266.75344849 425.57086182
98.86923218 266.76116943 425.55545044
98.86638641 266.75839233 425.56048584
92.55026245 256.89016724 395.79577637
92.54924011 256.88702393 395.80886841
92.56198120 256.89379883 395.78585815
92.55880737 256.88955688 395.79504395
160.09712219 265.02374268 433.28924561
160.09463501 265.00744629 433.29672241
160.11651611 265.02496338 433.28598022
160.11044312 265.01245117 433.28747559
167.71772766 233.40554810 424.72937012
167.71591187 233.39495850 424.74163818
167.72311401 233.41033936 424.72637939
167.72259521 233.40203857 424.73242188
139.30697632 214.01911926 421.35083008
139.30497742 214.01194763 421.36511230
139.31318665 214.02676392 421.34460449
139.31269836 214.02116394 421.35049438
166.02880859 227.26011658 400.11090088
166.03384399 227.24577332 400.13055420
166.02938843 227.26693726 400.10540771
166.03543091 227.25340271 400.11587524
132.63638306 263.57574463 431.38568115
132.63316345 263.56134033 431.40142822
132.64630127 263.57287598 431.37872314
132.64080811 263.56155396 431.38897705
182.98628235 286.41516113 443.92990112
182.98893738 286.39260864 443.94628906
182.99691772 286.41625977 443.92626953
182.99743652 286.40206909 443.93713379
141.18898010 257.57522583 431.99383545
141.18615723 257.56207275 432.00225830
141.20170593 257.57614136 431.98535156
141.19606018 257.56597900 431.98968506
143.64195251 290.55538940 412.02639771
143.64179993 290.54504395 412.04010010
143.65225220 290.56072998 412.02499390
143.65008545 290.55139160 412.03417969
155.87997437 217.02996826 407.55096436
155.88146973 217.01643372 407.56619263
155.87860107 217.04010010 407.54681396
155.88331604 217.02864075 407.55328369
176.22941589 201.85868835 418.56997681
176.24147034 201.84507751 418.58737183
176.23197937 201.85981750 418.56057739
176.24537659 201.84756470 418.56945801
91.79463196 228.05584717 451.39669800
91.78709412 228.05152893 451.40972900
91.80221558 228.05601501 451.39392090
91.79710388 228.05598450 451.40148926
104.07231140 271.05343628 418.15722656
104.06964111 271.04833984 418.17327881
104.08453369 271.05664062 418.15103149
104.08013916 271.05288696 418.16137695
123.63739014 223.13162231 457.43774414
123.63761139 223.12466431 457.45022583
123.64984894 223.13076782 457.42810059
123.64916992 223.12850952 457.43481445
122.71690369 222.22080994 424.88034058
122.71203613 222.21267700 424.89007568
122.72290802 222.22717285 424.87255859
122.71865845 222.22148132 424.87640381
132.61140442 287.74291992 403.61416626
132.61250305 287.73440552 403.62628174
132.61990356 287.74240112 403.60656738
132.61865234 287.73547363 403.61547852
175.49708557 292.91537476 423.24984741
175.49719238 292.89892578 423.26266479
175.50679016 292.91497803 423.24911499
175.50599670 292.90106201 423.25793457
204.42680359 259.07385254 416.30157471
204.43618774 259.05587769 416.31045532
204.44300842 259.07476807 416.30444336
204.44915771 259.05957031 416.30941772
81.91239929 245.05429077 433.68081665
81.90733337 245.04760742 433.69705200
81.92227936 245.05091858 433.66802979
81.91946411 245.04644775 433.67892456
145.07740784 219.23217773 443.11212158
145.08201599 219.22427368 443.12353516
145.07771301 219.23194885 443.10516357
145.08287048 219.22767639 443.11083984
