ply
format ascii 1.0
element vertex 2048
property float x
property float y
property float z
end_header
272.42999268 258.62802124 459.90100098
111.89299774 199.57000732 603.93603516
116.74900055 192.92199707 433.50799561
154.46600342 296.38601685 517.15496826
179.63400269 198.10600281 512.58203125
86.36900330 226.69699097 517.30200195
177.78900146 251.16398621 446.79400635
113.29899597 153.86801147 503.43197632
228.40699768 280.87197876 517.60400391
109.10200500 262.89001465 460.35400391
112.85399628 252.64999390 568.20098877
163.76100159 162.82600403 462.56301880
223.73400879 225.87400818 480.14599609
129.81500244 194.95100403 546.77301025
147.07200623 242.13999939 523.14105225
89.09499359 194.04299927 478.37899780
190.67500305 284.83099365 482.45300293
109.46500397 274.30999756 511.38098145
165.00199890 205.05499268 436.84701538
194.30400085 245.57499695 513.60498047
160.26200867 153.39599609 509.30599976
135.01699829 241.35499573 428.30801392
145.97399902 286.01800537 471.04598999
228.55299377 268.77401733 465.76300049
195.60299683 193.23100281 467.92098999
89.76600647 184.64698792 531.16699219
190.12500000 282.52200317 537.43798828
114.79299927 160.55999756 461.75500488
93.15100098 216.38600159 559.35595703
129.96099854 284.19000244 547.90899658
95.19100189 224.64900208 451.55599976
166.32800293 234.11700439 487.15600586
125.77599335 157.01899719 540.12103271
115.37400055 173.43800354 575.07495117
259.08599854 280.38299561 487.84399414
138.99501038 211.22999573 503.15701294
206.21598816 222.20700073 447.24499512
187.46900940 166.18099976 490.45101929
95.18499756 249.93299866 489.57101440
246.36300659 235.38400269 455.85998535
139.93499756 146.96598816 482.31698608
99.77799988 251.95700073 536.73400879
235.06100464 253.71000671 495.83300781
113.94599915 232.22000122 595.26495361
147.68800354 181.97299194 520.87500000
129.10400391 227.82800293 548.03002930
148.31399536 265.36398315 445.25799561
139.12600708 173.03599548 444.98898315
209.09599304 218.13999939 507.44802856
123.48199463 206.70899963 574.86096191
168.43800354 265.55599976 523.07000732
160.70201111 287.56600952 545.63000488
219.67401123 285.53701782 488.98397827
199.01699829 265.35699463 461.76901245
131.33200073 290.26699829 499.47198486
157.77200317 212.40100098 525.74700928
137.97999573 211.48799133 426.69497681
159.45999146 261.13299561 495.09799194
182.97599792 290.52798462 509.71902466
88.93699646 223.12699890 481.64199829
129.13299561 255.63899231 540.81500244
93.83500671 174.23599243 499.11801147
97.88200378 185.05099487 452.74401855
97.50799561 189.07499695 560.71697998
84.31900024 199.06900024 508.19097900
172.87600708 274.15002441 462.91198730
162.09199524 233.49400330 433.45199585
218.32301331 244.72799683 458.81597900
109.58100128 244.32099915 439.90600586
191.84201050 212.23999023 487.63998413
165.18499756 290.58502197 489.69799805
113.22100067 275.42901611 483.49099731
253.08900452 252.81199646 476.74600220
174.26800537 184.50599670 452.51797485
112.80000305 219.60400391 432.87899780
136.25399780 147.50000000 516.55200195
168.72698975 149.58999634 484.57699585
203.21400452 269.14901733 518.53302002
168.26200867 177.20500183 503.90701294
102.47900391 164.16600037 523.47601318
86.48799896 209.13200378 536.47900391
145.95199585 272.45501709 530.54901123
170.15100098 240.68699646 513.12701416
164.60800171 214.82299805 501.59503174
101.98199463 214.73300171 582.14599609
180.62100220 222.26400757 443.86898804
105.79299927 168.28300476 546.75500488
215.81999207 240.68600464 503.81100464
96.54699707 170.50099182 475.91400146
212.76199341 204.37100220 479.66598511
127.07300568 287.30499268 524.71502686
129.50000000 273.87802124 457.33700562
93.79100037 248.49400330 513.43902588
189.89199829 188.97999573 493.49401855
112.60399628 271.82901001 533.76898193
104.42200470 191.54899597 583.30603027
125.15999603 238.35598755 526.83996582
97.01699829 244.18499756 463.36599731
119.77600098 228.66499329 571.95501709
185.53001404 226.18199158 505.65899658
146.70799255 191.71099854 435.44302368
89.81499481 232.15000916 538.65405273
242.27400208 287.03900146 500.75900269
139.59500122 157.20300293 462.67398071
118.04299927 151.63198853 481.60601807
184.96400452 174.49600220 469.66497803
197.62599182 241.67500305 453.61798096
203.14801025 285.82000732 503.96102905
186.11900330 202.33599854 449.73699951
92.05599976 204.69599915 459.19000244
99.78099823 235.47799683 568.95202637
139.70799255 212.84399414 536.95202637
117.95899963 174.36000061 444.31497192
126.42799377 256.88897705 439.72302246
113.59000397 241.83799744 550.12200928
123.88300323 175.27900696 554.20501709
239.81698608 278.59600830 480.47399902
196.97999573 213.65399170 466.10998535
173.21301270 291.14199829 529.94104004
121.78500366 266.73901367 556.23199463
239.54899597 239.00898743 482.48400879
219.52499390 262.77700806 508.60400391
133.37400818 174.76300049 535.11694336
100.39199829 201.08200073 441.27398682
221.12399292 224.27299500 460.14401245
151.55599976 228.01300049 510.23696899
238.99899292 252.89401245 461.42797852
209.04800415 278.82098389 474.23300171
121.27899933 185.42799377 590.34600830
175.19200134 215.83900452 518.44500732
145.16699219 294.36300659 536.84100342
88.12999725 231.08700562 499.00299072
162.11099243 194.02600098 519.00201416
125.13700104 190.40100098 565.42498779
151.58799744 250.09399414 434.75100708
118.63200378 217.05700684 605.26000977
145.75799561 144.56098938 499.92199707
128.60499573 285.27999878 479.97000122
206.44499207 285.57299805 526.51501465
117.84400177 153.79899597 523.47497559
127.28400421 211.31399536 556.11700439
158.28999329 176.12100220 448.93597412
86.13500214 206.92700195 490.81399536
259.48101807 269.30300903 472.77099609
141.13299561 194.77301025 532.71801758
143.39500427 164.48498535 520.04895020
147.24600220 292.19299316 489.18899536
262.95901489 241.81201172 458.14700317
147.37098694 226.61499023 425.94998169
153.79199219 276.25799561 458.23699951
103.32699585 266.47799683 495.18200684
234.92201233 271.01498413 502.72201538
184.86900330 271.15499878 525.45898438
102.25199890 161.55999756 489.57199097
249.14900208 266.25900269 488.12402344
107.90699768 242.69198608 582.99298096
217.98999023 214.54200745 493.16299438
127.96500397 226.00399780 425.93600464
174.39300537 157.53099060 498.53900146
163.70800781 284.12197876 473.22198486
89.75800323 182.32299805 513.51800537
127.60299683 147.08801270 497.37701416
153.08099365 257.86502075 521.20397949
171.70899963 249.08099365 492.91699219
166.90400696 263.54000854 450.37500000
97.20200348 202.90299988 571.15600586
177.03300476 159.04901123 472.17102051
154.35699463 151.52700806 475.00500488
90.71700287 192.84999084 545.85302734
141.93299866 226.39801025 527.33203125
179.55101013 253.24198914 518.89904785
121.97299957 208.16299438 591.54101562
173.32200623 277.79800415 540.97802734
101.52100372 260.75500488 521.49200439
227.64599609 235.17199707 493.07901001
212.49600220 210.49200439 462.29498291
166.40699768 293.13400269 506.57803345
154.53498840 170.70899963 509.76501465
108.73100281 258.81698608 548.43499756
104.24599457 263.78302002 476.58700562
101.09799957 170.98500061 460.14099121
185.85600281 209.71499634 503.29101562
87.14599609 188.98100281 496.05398560
96.93299866 239.15199280 553.69195557
161.59201050 189.94299316 441.91699219
187.04100037 275.72302246 469.81399536
138.03799438 292.36798096 514.57299805
199.91900635 230.42599487 511.03997803
117.95300293 282.41500854 497.01397705
83.61499786 209.91200256 519.46398926
213.96299744 260.80200195 460.97799683
132.51300049 185.35398865 435.91799927
101.04899597 163.52499390 507.99798584
181.95399475 262.63601685 457.74298096
233.65199280 231.12599182 466.27700806
161.06599426 276.49099731 531.27496338
153.15599060 205.40000916 506.13897705
135.05700684 270.53100586 541.41198730
119.58800507 276.53500366 469.48999023
84.55199432 216.75399780 505.67800903
256.41900635 258.15298462 462.60299683
154.32499695 213.45500183 429.25799561
250.79101562 238.78799438 469.99298096
204.82699585 204.81500244 492.58398438
205.97698975 255.01998901 511.50900269
243.42199707 268.93899536 468.65902710
92.49900055 229.26499939 465.73098755
104.61600494 175.72200012 561.42803955
122.93600464 209.04899597 429.18301392
93.20300293 185.03401184 467.09899902
174.38200378 237.42199707 441.87200928
168.19099426 219.71099854 436.08401489
119.00000000 237.18998718 430.94598389
107.87999725 211.71600342 596.52697754
89.70899963 210.50199890 474.00701904
106.95899963 160.05299377 475.37298584
172.52400208 232.66500854 500.97799683
219.06700134 284.63400269 503.62701416
126.47600555 163.50399780 453.40200806
190.92900085 184.45199585 478.68698120
96.72599792 179.45300293 544.12402344
190.92201233 217.57000732 453.08599854
203.61399841 287.23898315 488.75399780
103.90900421 229.62300110 440.98498535
117.78599548 247.66799927 535.28497314
103.75000000 250.18598938 451.89999390
140.99800110 256.18099976 529.06604004
181.78399658 176.64100647 498.69998169
190.32501221 289.73599243 497.29498291
148.03601074 294.76199341 503.37399292
225.49200439 279.71899414 477.14700317
193.60501099 286.18301392 520.02899170
123.33499908 285.41101074 510.41500854
154.44200134 146.45199585 488.40698242
92.09500122 238.20100403 482.03701782
176.17900085 285.10400391 482.45098877
164.64900208 250.31199646 441.41900635
188.60299683 204.14300537 476.41500854
188.15899658 234.41700745 445.90899658
126.46499634 153.42999268 470.34799194
89.42700195 220.01499939 545.83599854
135.61900330 154.94500732 530.26196289
90.89600372 238.23399353 523.95898438
103.82500458 229.23699951 582.91497803
221.07699585 213.65100098 473.38299561
108.56000519 184.12300110 441.00100708
158.78399658 296.84399414 535.28704834
157.68699646 247.35600281 495.07998657
89.90900421 206.44299316 549.66400146
192.45899963 260.78298950 516.29400635
173.37001038 196.21800232 445.40100098
162.26300049 219.56401062 514.92602539
114.93899536 165.31700134 557.15502930
121.28900146 282.13400269 536.21203613
218.55000305 225.79100037 500.94403076
111.45400238 160.68299866 536.91296387
120.56700134 234.98699951 559.86901855
215.14199829 277.08499146 520.39099121
97.75099945 256.87100220 503.50000000
132.52900696 199.65299988 431.03399658
176.83500671 209.19500732 441.97000122
185.26899719 186.49700928 462.36700439
85.70499420 221.15499878 529.60803223
123.36900330 193.58900452 579.82598877
149.03199768 167.33700562 453.21701050
142.66000366 281.87701416 541.17797852
85.96499634 197.32501221 523.43798828
165.35699463 251.74900818 518.98004150
139.35099792 255.55398560 436.56701660
191.78800964 253.40599060 456.27099609
149.67199707 149.49000549 516.46697998
164.19699097 149.02799988 497.21099854
91.26900482 179.59700012 484.12002563
173.77699280 171.53898621 461.40399170
208.35299683 233.83000183 453.61999512
132.67999268 281.50000000 467.73999023
122.36999512 265.23501587 450.20700073
197.83100891 216.07600403 500.73098755
99.36799622 215.36000061 443.12200928
99.41799927 237.74600220 451.01898193
181.83000183 155.55000305 485.04000854
105.52199554 182.13899231 574.11303711
167.24101257 297.31100464 520.02099609
171.20700073 187.90798950 510.89797974
204.91799927 252.08198547 456.71298218
97.23799896 220.64300537 571.50500488
231.86300659 242.34999084 458.52398682
169.50199890 204.55900574 521.39404297
150.79699707 217.23001099 501.48098755
121.21099854 217.93598938 580.83203125
111.38200378 205.37300110 433.60800171
94.26800537 173.96398926 524.79101562
232.22000122 286.30200195 492.79202271
116.79199982 280.99798584 520.50799561
244.64700317 252.58999634 486.25698853
104.75300598 248.09298706 558.20501709
159.50199890 183.30999756 512.58496094
164.70498657 165.17401123 502.13598633
247.92900085 277.34197998 494.88699341
113.90200043 254.86401367 445.36199951
206.86698914 201.28799438 468.84997559
182.37200928 238.80200195 510.63800049
150.72200012 200.68399048 527.05505371
192.64599609 218.86299133 513.02899170
129.30400085 182.62399292 544.27301025
226.92799377 256.32000732 461.30801392
224.01300049 249.90600586 501.56802368
148.90899658 180.66300964 442.00399780
122.04500580 236.63499451 539.25103760
123.10299683 217.03900146 567.95300293
149.03601074 239.56100464 428.71099854
190.87300110 203.23699951 462.42401123
136.19799805 267.18399048 446.82101440
182.96400452 189.56900024 504.30697632
148.96800232 290.30200195 548.32098389
157.60299683 241.74499512 516.75299072
132.83999634 231.21499634 534.04699707
250.56800842 248.03199768 458.84298706
186.98200989 164.12701416 477.26501465
117.04800415 231.75399780 583.45300293
101.56299591 255.95399475 466.96200562
120.12100220 255.17201233 550.65600586
197.05101013 276.60598755 526.66003418
176.44099426 218.45799255 503.36199951
188.10200500 200.04400635 488.88598633
147.80200195 213.27499390 513.62902832
142.26600647 279.07800293 460.78500366
119.77200317 221.92199707 592.85101318
91.83599854 217.44099426 463.38900757
127.40799713 169.52299500 544.19305420
202.02499390 209.39601135 476.34899902
136.12599182 243.39898682 528.02197266
191.53199768 177.50599670 489.88198853
96.34899902 247.51199341 474.92300415
133.05899048 290.60000610 538.20697021
115.68099976 239.75401306 574.09197998
110.94699860 191.61100769 595.02203369
111.26599884 153.77799988 491.25299072
86.68799591 218.99800110 492.63900757
145.66999817 203.17100525 430.44799805
110.30300140 168.83000183 452.86199951
93.79400635 227.80700684 556.02996826
121.04499817 274.88699341 545.63098145
111.81599426 181.56401062 584.28100586
101.01599884 202.90798950 582.61297607
139.22799683 292.41699219 526.35803223
122.60100555 178.92999268 566.81597900
89.94699860 238.87300110 507.75701904
109.78200531 157.24200439 515.55700684
99.22200012 171.22399902 535.14801025
153.59100342 289.14401245 479.45498657
152.61199951 159.13699341 463.20700073
132.27600098 215.55200195 545.63897705
230.64399719 285.84899902 505.17999268
166.59599304 154.08299255 473.71798706
174.76600647 289.68301392 496.22299194
93.84999847 199.98899841 559.09301758
162.09300232 228.43701172 503.62597656
95.61699677 242.23899841 541.35797119
174.28498840 273.72000122 529.22100830
125.00800323 223.80900574 558.00201416
126.01600647 201.75201416 562.38500977
104.58800507 261.87899780 533.52099609
183.08299255 287.42199707 525.42700195
250.69001770 275.28698730 478.97402954
95.41899872 196.19000244 451.70098877
121.70800018 150.72700500 513.15698242
121.81100464 197.47898865 595.61297607
204.46301270 284.97100830 515.28295898
119.88099670 247.41600037 435.88098145
109.04100037 272.61599731 522.98999023
122.27100372 182.33900452 578.86602783
156.64199829 258.45101929 441.98699951
210.02101135 271.22900391 465.92199707
157.70199585 293.05899048 497.90399170
152.56599426 221.22601318 521.13702393
260.99301147 247.89099121 467.38800049
174.02400208 226.93499756 491.43698120
204.11399841 240.57800293 508.72601318
118.58799744 270.55801392 460.04800415
157.08500671 267.22299194 526.38696289
129.23100281 147.58700562 485.57098389
155.70799255 198.93800354 436.01901245
137.50399780 164.94599915 452.58599854
198.71899414 230.40199280 449.20001221
198.53800964 276.56799316 471.36801147
136.50999451 234.64199829 521.20098877
90.83799744 195.88400269 467.59899902
147.87001038 215.25399780 529.95404053
108.04700470 223.49000549 592.06298828
204.29899597 216.13499451 456.18899536
241.12799072 263.74899292 495.13500977
100.08999634 192.56399536 573.21099854
138.87899780 288.81201172 479.53900146
87.41900635 197.27299500 534.18701172
138.84899902 151.99099731 472.14199829
137.49800110 165.71000671 529.04895020
158.10299683 223.96301270 430.31500244
154.05699158 282.31298828 538.94299316
265.94299316 261.95800781 467.82498169
119.64499664 183.15600586 436.94497681
186.82899475 199.67900085 499.57998657
139.51799011 181.41900635 529.34197998
175.43600464 239.76699829 486.81301880
224.66600037 271.40100098 512.31500244
127.71700287 149.75898743 523.89501953
102.91899872 265.38598633 511.98202515
111.18000031 270.05899048 470.57901001
100.59200287 260.46099854 486.03201294
210.16600037 231.20799255 508.28302002
134.38099670 203.50399780 542.41802979
264.07302856 252.37899780 457.92098999
194.83700562 194.23399353 479.93698120
104.71999359 246.06100464 569.90496826
211.53100586 285.94699097 495.74499512
152.41400146 160.21099854 511.31701660
92.91999817 245.37500000 498.82501221
215.20599365 252.70500183 506.95996094
233.00201416 231.70100403 476.78198242
221.35600281 234.97801208 456.23800659
104.99499512 177.42599487 449.90600586
153.93400574 254.69898987 501.62100220
137.57299805 144.10400391 492.14498901
118.23600006 160.11599731 546.74401855
120.26499939 205.87199402 604.39099121
174.31100464 280.56600952 473.18499756
127.70299530 248.99398804 532.15197754
109.20800018 274.69799805 497.94998169
113.80300140 257.42401123 558.92199707
129.59300232 175.84800720 441.71801758
167.60400391 176.27899170 453.66998291
125.46600342 185.60600281 554.27905273
218.83100891 274.68499756 470.31900024
116.38200378 155.44799805 472.05599976
229.84700012 261.93499756 502.43997192
144.14500427 272.83297729 452.69299316
235.17399597 244.35499573 491.34298706
95.96200562 248.47100830 527.76202393
145.56500244 230.42300415 518.49298096
183.75801086 212.90499878 513.43695068
181.09999084 192.26800537 452.47702026
134.88800049 187.81599426 537.13098145
133.71699524 145.63200378 505.57397461
191.27799988 173.46499634 480.39099121
107.19499969 194.02700806 437.24502563
95.59500122 207.36900330 448.44500732
95.92399597 171.09500122 487.64498901
162.03799438 279.50500488 463.42797852
106.48900604 200.65400696 593.08398438
194.19099426 287.03698730 508.82101440
155.57299805 146.37699890 502.28601074
207.22399902 211.41999817 499.98901367
222.50099182 224.15899658 490.12100220
102.06399536 247.99099731 548.37902832
130.88600159 249.11199951 433.45999146
188.06999207 243.67900085 450.75100708
114.18800354 244.99000549 560.35498047
127.17500305 275.44799805 553.69500732
255.29399109 263.94400024 480.27499390
179.19099426 262.98901367 521.47503662
164.48699951 271.29998779 456.34399414
176.32600403 292.66299438 516.99102783
173.11300659 169.31199646 498.42700195
85.24900055 200.05799866 498.13101196
139.02699280 232.37599182 426.16702271
188.35200500 267.86398315 463.68099976
113.87300110 266.71697998 544.97601318
210.79100037 284.74899292 482.24099731
95.04100037 171.57200623 515.13800049
220.88800049 212.55000305 483.83798218
185.23699951 213.56199646 445.95797729
112.78199768 223.94299316 601.08398438
189.39599609 194.55400085 457.44799805
212.63499451 267.60101318 513.88696289
86.94499969 197.48599243 487.95599365
128.94200134 266.37500000 547.96795654
87.23600006 189.75900269 506.65301514
127.62899780 286.84298706 489.66000366
152.83599854 297.05798340 527.44403076
247.09500122 260.71102905 464.46200562
134.85800171 223.16999817 540.02001953
170.12399292 287.01901245 540.13800049
242.11099243 283.01501465 489.43798828
136.57798767 263.10198975 535.28704834
183.31498718 287.82901001 490.84298706
190.81799316 234.66999817 508.23599243
219.34199524 283.25598145 514.19598389
182.16999817 276.58001709 537.20703125
144.28399658 205.25900269 532.57397461
144.42799377 155.05799866 522.30700684
213.77999878 218.53500366 457.17401123
236.07798767 233.25500488 457.24401855
139.00500488 290.64398193 545.72601318
137.84800720 291.52899170 490.94302368
260.64398193 272.94299316 481.54699707
159.65899658 202.07699585 523.92401123
100.87200165 177.35398865 552.77398682
123.80100250 235.47599792 550.25604248
91.11700439 239.14698792 491.80401611
119.83399963 281.68298340 486.38497925
105.27300262 164.05799866 465.20599365
113.37100220 249.88600159 545.02099609
110.88400269 230.34300232 434.53198242
128.78898621 216.11799622 426.72900391
197.58799744 285.83200073 529.92700195
121.47500610 149.71398926 490.63699341
137.77000427 275.95498657 534.12701416
255.26100159 236.15699768 459.02099609
119.68900299 154.73599243 533.22998047
171.10499573 196.28100586 517.06701660
232.37599182 274.52600098 472.22998047
236.41200256 261.97399902 461.82800293
92.74200439 237.00000000 472.69100952
113.87100220 169.13198853 565.72900391
110.77600098 159.27299500 526.51300049
157.95600891 265.81298828 448.51898193
161.58200073 236.20199585 508.92700195
180.09899902 285.80401611 534.20800781
111.48500061 248.77999878 576.78900146
224.09098816 225.17700195 470.78100586
199.50399780 282.63400269 480.11401367
241.12600708 234.17800903 471.07501221
102.56999969 161.22200012 498.95001221
166.56599426 183.83399963 447.02398682
115.70899963 239.11500549 589.16302490
154.19700623 188.66198730 520.14099121
170.64799500 230.18899536 437.24798584
247.94200134 243.42900085 477.60299683
124.18699646 158.56900024 460.96798706
241.81201172 244.46299744 458.64199829
126.66699219 192.69900513 433.04101562
142.87100220 145.90699768 510.21099854
158.38000488 243.75399780 434.74002075
178.35299683 179.96099854 459.49102783
146.26699829 263.27401733 526.30401611
140.97100830 172.83399963 524.26794434
166.29199219 241.61399841 493.34698486
131.92201233 163.89801025 536.17901611
95.24299622 175.18000793 468.11300659
152.31100464 254.08500671 491.88900757
114.06400299 261.67498779 452.72299194
185.34300232 246.82901001 515.80401611
103.08200073 236.86500549 577.80999756
97.06999969 180.04299927 460.37500000
106.63100433 270.13000488 487.47500610
143.81599426 246.66500854 431.09597778
85.24300385 205.17799377 528.34197998
91.59700012 229.56599426 547.21600342
159.89500427 212.40800476 509.80001831
200.93899536 211.71200562 487.69097900
163.64001465 229.89599609 494.77600098
146.74499512 191.28399658 526.49200439
171.12599182 215.69000244 510.16003418
175.67799377 152.18800354 490.77902222
163.92100525 250.10800171 488.43197632
192.58399963 212.11999512 477.91699219
259.18298340 258.32800293 472.99002075
94.97200012 233.30000305 458.04699707
236.19799805 279.24902344 507.79199219
105.84499359 211.73300171 436.77499390
183.43000793 282.03900146 477.89300537
177.04100037 182.49499512 503.62097168
178.58200073 166.50900269 467.38601685
153.75999451 248.91899109 520.58795166
159.86900330 169.75100708 455.08300781
129.76600647 204.21600342 551.23297119
192.26699829 268.41900635 520.96697998
118.73299408 193.47200012 602.99700928
189.71499634 186.83000183 470.12200928
94.04899597 215.88800049 452.90499878
187.13200378 208.92300415 494.47000122
115.32700348 280.05499268 507.85101318
101.23000336 189.15901184 445.55599976
164.61700439 252.24000549 497.85800171
155.30900574 284.90100098 470.36401367
169.26799011 222.69099426 500.21899414
169.59999084 255.90199280 446.74899292
97.98400116 256.35400391 512.34600830
121.34099579 220.67900085 428.44900513
87.78599548 211.23400879 483.24700928
145.79200745 294.80801392 520.93395996
105.24400330 164.85899353 532.21295166
93.03600311 241.06100464 532.04998779
84.23999786 208.05500793 507.14599609
164.77999878 296.46499634 528.45001221
129.38700867 234.33099365 428.38601685
217.39999390 217.10899353 466.19799805
109.87000275 154.67100525 482.61300659
102.01799774 164.52799988 481.32299805
199.58401489 288.68298340 496.38800049
149.46800232 147.87300110 481.35900879
223.30200195 240.43499756 498.51800537
189.99501038 209.60800171 456.53097534
167.67700195 286.86898804 481.80899048
86.74600220 191.33200073 517.17401123
87.22600555 226.08299255 506.05703735
157.87899780 293.79598999 508.10598755
162.77499390 280.53997803 540.95697021
122.80700684 203.48800659 584.27203369
148.60198975 257.32601929 438.92401123
188.82299805 223.59700012 446.34698486
138.37500000 193.54499817 432.92498779
229.50900269 283.50399780 483.82299805
153.50100708 219.61399841 511.07598877
203.89799500 209.47100830 462.53900146
144.01699829 217.67799377 426.20501709
139.47300720 293.52200317 503.73501587
174.83499146 260.66198730 452.27398682
97.76200104 212.16999817 573.13299561
229.23500061 230.39401245 485.03598022
175.27499390 152.99800110 480.05200195
212.25599670 208.53900146 490.29202271
89.49899292 235.60899353 515.71704102
108.00000000 235.05400085 587.69396973
99.81999969 228.24099731 574.62103271
153.33299255 294.21697998 542.02697754
126.15199280 169.78601074 446.75799561
179.66499329 163.76799011 495.83898926
112.15399933 208.66200256 604.47003174
121.53299713 281.05899048 477.58801270
161.12699890 261.32699585 521.64202881
177.08900452 207.50799561 517.86798096
210.25100708 244.65000916 455.96200562
249.42498779 279.85198975 486.32601929
117.28599548 163.96600342 454.34201050
94.77999878 185.85400391 549.41601562
98.80100250 258.94998169 494.23199463
174.23098755 267.86199951 457.31500244
189.12799072 276.17599487 531.83398438
201.61500549 222.08799744 511.16104126
174.74200439 293.15298462 508.25000000
122.67799377 165.45399475 551.64703369
118.88700104 228.75599670 429.44400024
85.14700317 212.40599060 498.40997314
123.85799408 200.87400818 431.26400757
166.69599915 242.55299377 438.67599487
141.21299744 262.06100464 441.66601562
89.85300446 181.49699402 500.89401245
131.12699890 289.98101807 510.32196045
93.80400085 188.77999878 459.55300903
215.03199768 218.12100220 500.79901123
214.70199585 228.60699463 455.50097656
180.26899719 241.25199890 446.53002930
88.05300140 223.99101257 537.56799316
91.41399384 229.97500610 477.13299561
90.65399933 186.19400024 475.79299927
131.27600098 150.41600037 476.55200195
96.41099548 252.49400330 520.40795898
245.99400330 234.12899780 464.13998413
93.60600281 179.02499390 536.05700684
101.33300018 184.52799988 566.61096191
238.94599915 287.11898804 508.48901367
171.80700684 257.04800415 518.48797607
144.72100830 161.64300537 457.79699707
105.97200012 221.60600281 437.24798584
171.03700256 161.90899658 466.55300903
93.91800690 193.02900696 554.30596924
104.78299713 237.94099426 442.32400513
157.96800232 221.44400024 501.02697754
165.02000427 215.58601379 523.15997314
134.87300110 254.94900513 534.82299805
156.74200439 210.97500610 501.11401367
211.60499573 284.49801636 507.28701782
179.31201172 230.46900940 443.66900635
141.00700378 180.34500122 439.47601318
225.19200134 285.94601440 497.19198608
146.56199646 171.56800842 517.10302734
89.61199951 183.71299744 522.92596436
213.99099731 205.45800781 471.53601074
210.85700989 245.75700378 508.13104248
204.69500732 277.67800903 523.69201660
197.97100830 252.94500732 514.35797119
161.46600342 213.67700195 433.39300537
183.58500671 253.59100342 452.14599609
89.65899658 182.00000000 492.43997192
119.03099823 150.51600647 498.54800415
106.14099884 170.88499451 554.56604004
214.38301086 252.91299438 458.65197754
149.49000549 173.42799377 447.71502686
179.39199829 231.63500977 505.92797852
134.32400513 278.49700928 543.26800537
125.66600800 148.27099609 506.42800903
146.44999695 250.33000183 523.96502686
206.77700806 202.09999084 485.12399292
89.05900574 190.15400696 538.32696533
88.72100067 231.69299316 528.32299805
115.63099670 278.27001953 529.78894043
134.77000427 195.77301025 539.86499023
152.87600708 187.76400757 439.01898193
156.94700623 290.93899536 486.66000366
157.63500977 182.57499695 444.01602173
152.95199585 179.10499573 514.86999512
88.22299957 203.33000183 481.58300781
205.65399170 200.80999756 476.83297729
188.34500122 180.87100220 496.50799561
106.74100494 256.96301270 455.38800049
168.24301147 154.94300842 503.08697510
220.73100281 267.65600586 464.15600586
161.07400513 149.25799561 482.05999756
95.63700104 226.72300720 563.79901123
126.70600128 194.43400574 558.64599609
166.08099365 292.55499268 535.94897461
145.49099731 144.74200439 490.97201538
251.48100281 269.03097534 472.15301514
89.67900085 230.21099854 485.34399414
161.60101318 173.26599121 505.99401855
111.62599945 250.20199585 552.81799316
182.41700745 205.29000854 510.44900513
99.55599976 254.82899475 475.16098022
129.30700684 263.71499634 444.75299072
127.19599915 152.36898804 531.87902832
191.19000244 279.64599609 475.39599609
131.07800293 156.25399780 464.47598267
112.69900513 277.67498779 491.42199707
176.88999939 226.06500244 500.03701782
228.75199890 230.60398865 458.91400146
144.88999939 217.27499390 506.82800293
184.02799988 218.62500000 507.65097046
140.19200134 221.45600891 533.29498291
105.48999786 269.42102051 505.65200806
173.51199341 248.87600708 516.18395996
241.56300354 275.32199097 499.14602661
90.70300293 214.72799683 551.59301758
84.59500122 201.70899963 517.00000000
160.77200317 157.42799377 467.50701904
180.10499573 271.02301025 463.55700684
192.24099731 261.47500610 460.56900024
152.04100037 281.30798340 464.13900757
158.49000549 162.42800903 506.14602661
204.09199524 259.49499512 459.26098633
172.73699951 236.63600159 493.52398682
153.74800110 235.10499573 514.98004150
217.76600647 280.59100342 475.90600586
92.21900177 177.42300415 507.86901855
121.02100372 213.36599731 597.34997559
94.60099792 209.93598938 563.59100342
157.11698914 207.15400696 433.01498413
212.50900269 259.26797485 510.57302856
180.93399048 290.41799927 501.01696777
154.43399048 147.12600708 510.01101685
101.22600555 251.99299622 460.20199585
117.11000061 187.61199951 597.74700928
92.91300201 178.77400208 474.67199707
106.00999451 259.06500244 540.69000244
221.51300049 230.58099365 494.69198608
104.29100037 210.10600281 589.77301025
121.33399963 172.35200500 562.78997803
91.03099823 221.63299561 469.91699219
197.76600647 220.84799194 454.86700439
191.08499146 214.54598999 506.73599243
131.17199707 208.27999878 428.70300293
249.19700623 257.91900635 482.85897827
191.59899902 287.66098022 489.64102173
153.23300171 275.14700317 531.00903320
117.92500305 236.39201355 567.46398926
155.69799805 232.66999817 429.12701416
138.97700500 271.81802368 527.21795654
169.66499329 212.12899780 436.77499390
99.22599792 255.78698730 526.96502686
99.70500183 167.26100159 469.50799561
128.54098511 287.95001221 532.52203369
123.89999390 286.68499756 499.47000122
111.76399994 238.13000488 435.86099243
132.09800720 288.74700928 517.88299561
89.87699890 202.68400574 471.06701660
155.04499817 195.88899231 522.88598633
99.55500031 244.29600525 455.01898193
146.53399658 210.83999634 428.61199951
163.20599365 295.44100952 513.77301025
111.62100220 164.31799316 550.31597900
192.39201355 184.49301147 486.85800171
128.16700745 147.99299622 516.22497559
147.82301331 210.44500732 503.97698975
123.83000183 189.07299805 573.66699219
253.61299133 273.93002319 488.75497437
128.83700562 233.75399780 541.25000000
108.98000336 270.28097534 477.88000488
189.74200439 253.66801453 516.25103760
200.02600098 261.61102295 516.46099854
101.63100433 263.47100830 502.89099121
241.96598816 274.09899902 474.05300903
103.12599945 243.40499878 447.34201050
187.77499390 206.72700500 484.38598633
189.59100342 178.33999634 474.28198242
185.90800476 288.00601196 516.23303223
107.26000214 175.98500061 568.52099609
127.36299896 241.32899475 430.45101929
84.34799957 216.41000366 523.86602783
226.12799072 249.25900269 458.70901489
136.36599731 272.33898926 452.34399414
222.88099670 256.98400879 503.94897461
166.54299927 271.77499390 526.90704346
101.01399994 172.34300232 542.57702637
96.07200623 250.14401245 481.97299194
217.12100220 233.83499146 500.97500610
129.02999878 219.74499512 550.97198486
253.87901306 245.03900146 473.27899170
162.59600830 197.51499939 438.66101074
203.05200195 247.52099609 511.37698364
136.44100952 150.11799622 524.58599854
168.00900269 243.33900452 486.25698853
183.63299561 197.26799011 505.90701294
120.94700623 253.71798706 543.35998535
105.94700623 262.55801392 467.13098145
126.27199554 259.39801025 547.64599609
169.61799622 236.46299744 506.98101807
144.47599792 294.44198608 511.39099121
164.80700684 291.22000122 499.29498291
84.91999817 219.41499329 516.48596191
194.05099487 216.65499878 459.92898560
90.91900635 210.22399902 465.05297852
148.26300049 153.36599731 471.12899780
232.47200012 284.63000488 512.62097168
173.79400635 244.58900452 443.81100464
151.41799927 220.92700195 428.50100708
228.97200012 268.49200439 506.39199829
254.23199463 263.95898438 467.47198486
164.61500549 225.83801270 433.89599609
150.86199951 270.56900024 450.52700806
167.66700745 277.34500122 534.52697754
186.91200256 172.96600342 494.82501221
100.78199768 222.25799561 578.86395264
127.16999817 282.23199463 472.94400024
213.29699707 284.20199585 519.59301758
108.37799835 249.95500183 445.24801636
134.18200684 278.13900757 461.33999634
192.81298828 199.60301208 470.38900757
170.30400085 201.70899963 440.74099731
191.29299927 213.11199951 498.89401245
88.14399719 213.72500610 542.22796631
147.54701233 159.20298767 516.74798584
121.75199890 229.17500305 564.21398926
230.77400208 247.83599854 496.91500854
134.77299500 223.23300171 426.05902100
114.84999847 274.93600464 474.87100220
183.72599792 159.75299072 490.75799561
94.02899933 237.69900513 546.88897705
163.08499146 148.25900269 490.00900269
130.55599976 233.32199097 527.43499756
213.67298889 225.06399536 506.46798706
194.17298889 271.98300171 467.74301147
256.85501099 240.23100281 466.20397949
123.96799469 282.09399414 542.99401855
182.23200989 158.41700745 477.24398804
272.14898682 264.68597412 465.15499878
101.51799774 243.34800720 562.68695068
96.76899719 169.09700012 494.89797974
115.76899719 238.63099670 581.49499512
99.35800171 165.38000488 514.81097412
185.76599121 259.39102173 518.73699951
244.55101013 260.10800171 489.87500000
116.45899963 211.74900818 431.01501465
167.30799866 283.62899780 545.89300537
170.44499207 295.48999023 513.70397949
131.63598633 240.01200867 523.46405029
177.80099487 190.73300171 510.02197266
116.65699768 241.43600464 539.56402588
105.35500336 166.86099243 539.69500732
92.12300110 184.24299622 541.32702637
110.78900146 159.93299866 469.27700806
115.35599518 153.88900757 511.93399048
133.68199158 285.52099609 474.90200806
234.29701233 236.70298767 486.77899170
92.93099976 222.12399292 458.07702637
88.53100586 199.75000000 540.81701660
174.40199280 288.30001831 489.21099854
121.57999420 215.01399231 587.35198975
141.77200317 292.97000122 496.74401855
172.61299133 293.26998901 523.07098389
139.43399048 201.62500000 536.36499023
167.95399475 280.38497925 468.85400391
105.52500153 269.01901245 517.55603027
152.79400635 145.41099548 495.77502441
193.76899719 227.56799316 508.81500244
125.43000031 208.85699463 562.70202637
177.91600037 276.51400757 468.55200195
97.26999664 168.55700684 521.24200439
262.96801758 254.73400879 467.38601685
180.51600647 204.51000977 445.85601807
122.76799774 193.17401123 586.89898682
134.01899719 288.66601562 484.72399902
114.76200104 262.88900757 554.48101807
160.27101135 297.96298218 521.22698975
242.02198792 246.14900208 484.83300781
120.36199951 244.03999329 529.76202393
146.70799255 278.09399414 534.78100586
115.27600098 244.06900024 567.29699707
138.21199036 292.89801025 533.96203613
139.90899658 159.26499939 525.72796631
130.72399902 273.16497803 547.25201416
97.53900146 235.01699829 562.28100586
179.64999390 280.22000122 542.91302490
97.23699951 168.58700562 504.93698120
192.00000000 211.18000793 470.42300415
124.97799683 277.11001587 465.00799561
162.86599731 258.49301147 445.25997925
131.57099915 262.43002319 542.78302002
93.44499969 244.50399780 485.47100830
221.70298767 283.18899536 481.93200684
98.14099884 249.87100220 468.56500244
119.21600342 169.06599426 448.73498535
160.39498901 287.53500366 478.98599243
180.10699463 173.05200195 464.83200073
138.89999390 202.05700684 429.11199951
127.97599792 269.16900635 451.57699585
85.61599731 214.34498596 531.91503906
170.18099976 190.04499817 446.08499146
154.70999146 163.76499939 458.42199707
206.32901001 264.63000488 514.01000977
232.39801025 252.25498962 458.49697876
154.09500122 285.41799927 545.46099854
94.61000061 237.29998779 463.71600342
97.72299957 194.98600769 567.16101074
93.08499908 244.03601074 520.86102295
104.79599762 253.84599304 545.64099121
189.77899170 200.03298950 481.85900879
219.63598633 221.64900208 474.72500610
233.47300720 279.16900635 477.80401611
190.32398987 196.35800171 494.28601074
235.25599670 269.67599487 467.14401245
222.68299866 218.67900085 481.22000122
109.38400269 218.97999573 597.11199951
99.62300110 225.88800049 444.87802124
153.02200317 207.17300415 526.89996338
246.78300476 254.72500610 461.07299805
221.22200012 280.18899536 521.28601074
203.50299072 207.92399597 469.79598999
114.16800690 249.42800903 440.31701660
263.25299072 258.69100952 461.77600098
213.00999451 238.08700562 456.33999634
179.85800171 170.63200378 495.89498901
211.31199646 223.95500183 451.77001953
164.90800476 245.48800659 516.22100830
110.74499512 267.40701294 538.65802002
89.18199921 216.39900208 478.97100830
183.20600891 180.29499817 464.39999390
143.00599670 148.00000000 517.54602051
196.11599731 198.70599365 463.85101318
86.41600037 221.77099609 500.80902100
118.21299744 276.48400879 538.52301025
191.59098816 191.03099060 485.04998779
165.66300964 190.37599182 514.45104980
204.63299561 239.55400085 453.58200073
190.51399231 202.97999573 454.99200439
177.33299255 245.84700012 489.23098755
105.83000183 217.42900085 589.88397217
125.51200104 161.63200378 545.12402344
131.71499634 167.07199097 449.59802246
198.65100098 223.79000854 447.57699585
121.32599640 220.72200012 573.38299561
225.39900208 284.09399414 509.11401367
190.98599243 285.49002075 528.39202881
106.93500519 166.24499512 458.15200806
254.56900024 243.23399353 456.20300293
148.02299500 221.16400146 526.65698242
94.79500580 250.30499268 503.06500244
107.84700012 268.76599121 528.42498779
123.90200043 181.62699890 560.75299072
144.22300720 149.38600159 477.37698364
173.92399597 220.13800049 439.63400269
165.29100037 181.60099792 508.08798218
145.47500610 288.62802124 478.13201904
125.25300598 216.33499146 561.59899902
96.80400085 231.19099426 451.76300049
187.18499756 163.28201294 483.94702148
171.03100586 151.40199280 495.59301758
158.70100403 219.40299988 523.21899414
123.85099792 197.65100098 574.48297119
108.86000061 156.31399536 499.00698853
88.36699677 226.56199646 490.83798218
258.13800049 249.42300415 456.80401611
102.01799774 194.58599854 441.69198608
126.10900116 179.84298706 549.82897949
97.97200012 169.32499695 527.88299561
175.08499146 232.17100525 487.42398071
104.06400299 161.30599976 517.23095703
230.18299866 277.10800171 512.38696289
140.56600952 187.97000122 435.85900879
117.87300110 178.79199219 584.50799561
124.15100098 210.62199402 569.39001465
137.74398804 250.47499084 530.10400391
96.41200256 246.16400146 536.05401611
225.44799805 239.87400818 458.07598877
130.43299866 177.09100342 540.78802490
176.36599731 268.61199951 523.58001709
112.55100250 184.78999329 590.02697754
204.24600220 216.81900024 503.12799072
197.52900696 218.67599487 507.23202515
119.85600281 224.41099548 580.81597900
131.76499939 161.34700012 456.72198486
161.89099121 256.12301636 491.54299927
138.36300659 283.87200928 470.12100220
122.23799896 260.90802002 553.17095947
161.23899841 148.92199707 504.51303101
196.96800232 285.85498047 486.26101685
180.85398865 187.02000427 456.46301270
119.55499268 258.22000122 444.87597656
107.24300385 157.98098755 509.51898193
88.03000641 231.47700500 521.51800537
130.88099670 188.76199341 542.49798584
122.64499664 213.07901001 576.28601074
144.65400696 293.82501221 529.79998779
174.65699768 175.41200256 500.33499146
227.13699341 262.86502075 461.82699585
197.77999878 271.84201050 522.20001221
99.22800446 206.10398865 577.16296387
160.38200378 292.74200439 540.15704346
125.41800690 235.89700317 532.91900635
151.05200195 293.71801758 497.64599609
118.84000397 221.65299988 600.07098389
204.76899719 228.21000671 450.44799805
188.85899353 289.53100586 505.94003296
168.42700195 218.19000244 516.64501953
93.79599762 174.64700317 480.66400146
235.84500122 261.03100586 497.87500000
140.11399841 266.41198730 530.71203613
118.64099884 226.13600159 587.98400879
134.72700500 261.39898682 441.30200195
95.62699890 252.43699646 495.58401489
103.39800262 220.59599304 584.64196777
112.57900238 177.87500000 443.17999268
220.90600586 274.73001099 517.72497559
118.86199951 171.66600037 569.86303711
192.88000488 189.58500671 475.19000244
114.29800415 187.62899780 436.39599609
107.00699615 249.89399719 565.17102051
117.92199707 203.47200012 430.82299805
179.26800537 244.62098694 516.40600586
186.36601257 168.24600220 472.29299927
95.19000244 219.83000183 565.41094971
87.88300323 191.88999939 484.82800293
154.92799377 152.32099915 513.95501709
190.20399475 190.22799683 464.28100586
229.07299805 241.87300110 495.05902100
228.95899963 253.89199829 500.32995605
243.79800415 269.63601685 494.89001465
194.30099487 235.11700439 448.95700073
120.75900269 253.78599548 439.88497925
159.60900879 254.27899170 520.50604248
178.64599609 216.69200134 510.65802002
99.09600067 208.93399048 442.59399414
191.94500732 211.28300476 462.84600830
90.65199280 239.34300232 498.81198120
119.73300171 237.14199829 545.54400635
172.48100281 291.19100952 502.54602051
122.53800201 251.55601501 537.50799561
198.09700012 257.28799438 458.46099854
141.58299255 237.94099426 428.14199829
153.21398926 217.37599182 526.94201660
226.11900330 273.29498291 469.63598633
125.59600067 185.35499573 435.91201782
145.28599548 199.02600098 530.04901123
122.01800537 284.72399902 520.58703613
149.72599792 237.63600159 519.27899170
242.14300537 237.38500977 476.85400391
150.58000183 166.17800903 512.76202393
166.95700073 275.64498901 460.97299194
202.81300354 212.61799622 495.50598145
116.66600037 281.46099854 513.94897461
150.07600403 268.30300903 527.96301270
179.39500427 198.34700012 447.15100098
117.90599823 157.97200012 540.72900391
204.67500305 275.79501343 469.74798584
198.30200195 285.91000366 513.58300781
110.11000061 177.05599976 574.90698242
190.94200134 240.65199280 510.46801758
127.69700623 189.10400391 549.42797852
127.06199646 286.51498413 538.55999756
145.36898804 232.98298645 425.88299561
182.78999329 274.62100220 531.17199707
235.92098999 288.86199951 503.15701294
185.89300537 188.38499451 498.77301025
112.95399475 198.03201294 433.54299927
227.66000366 228.22900391 475.07598877
84.17300415 213.05200195 513.96002197
225.85299683 285.88000488 490.44601440
165.10299683 199.12300110 521.34301758
244.29098511 280.95001221 500.28298950
200.03099060 248.06700134 456.09600830
146.44000244 157.71099854 463.68399048
159.70100403 257.28799438 501.13302612
208.28099060 274.29000854 519.71099854
109.26100159 255.46101379 449.76898193
239.98199463 256.24200439 492.74600220
152.46800232 296.33398438 535.26196289
111.57699585 267.58599854 464.76400757
112.48099518 214.97898865 604.20300293
123.69499969 178.90299988 439.30398560
152.38299561 243.97599792 431.76998901
236.12399292 283.33499146 487.41497803
109.74600220 205.18901062 599.76098633
102.72200012 175.02600098 455.55300903
150.77600098 295.00000000 511.42102051
143.80900574 211.20199585 509.18603516
136.06700134 284.52499390 544.02203369
204.74299622 267.21600342 463.68499756
170.49899292 163.06300354 500.76300049
106.12200165 157.13099670 492.73498535
162.94898987 207.46299744 523.74603271
92.99100494 198.68099976 456.97000122
176.44400024 240.10699463 512.36596680
149.59800720 225.53999329 517.61499023
141.36900330 239.71000671 524.30499268
118.38800049 266.42098999 454.94500732
118.68499756 268.67300415 551.09899902
155.60400391 238.50999451 431.48400879
115.69300079 205.94799805 608.91497803
218.09800720 246.55200195 503.84002686
90.88800049 197.86700439 549.64099121
88.05100250 230.51499939 510.44100952
111.64599609 162.25401306 542.99298096
132.10000610 157.60198975 534.73699951
105.98899841 204.48300171 436.70300293
153.82099915 213.06300354 511.85296631
168.59201050 236.03500366 438.25799561
137.34799194 227.10600281 532.55999756
174.69100952 226.35301208 440.12500000
97.03499603 220.53399658 446.85198975
146.77099609 276.69799805 457.14700317
135.12001038 181.76699829 535.55401611
105.14300537 242.99000549 577.39001465
220.73699951 262.16699219 461.16598511
138.65899658 144.72299194 501.86096191
212.91000366 285.80297852 488.02301025
96.71199799 200.95401001 446.31799316
154.54899597 223.19898987 506.07598877
107.25100708 192.40400696 590.05603027
165.40400696 167.76300049 459.14001465
239.03199768 238.65998840 458.15399170
151.40199280 205.47099304 431.21701050
238.23100281 286.54299927 494.38000488
210.38800049 281.12899780 524.15197754
128.62199402 198.17500305 552.14898682
87.05200195 213.39500427 489.98800659
246.95300293 248.43501282 481.84399414
121.99099731 223.07499695 567.07000732
87.52900696 191.37799072 524.22998047
211.81700134 235.30699158 503.82400513
133.68899536 289.70300293 526.91296387
186.97700500 265.23501587 520.62097168
185.31599426 285.57501221 530.89703369
203.07299805 234.53498840 507.67098999
226.58399963 226.80099487 465.36898804
173.42700195 179.15399170 455.85501099
212.65100098 213.17001343 497.62298584
118.58799744 238.72399902 555.37701416
144.29899597 176.83699036 443.47198486
133.30200195 144.73300171 497.28399658
157.78700256 249.30099487 437.36499023
231.56799316 287.69201660 498.95401001
197.32600403 287.84799194 502.05899048
116.90399933 231.87200928 589.87500000
142.97898865 179.86099243 524.49603271
128.67799377 245.04399109 527.53802490
144.16598511 286.90600586 546.52703857
206.86399841 226.13800049 509.37002563
92.23199463 222.19200134 554.07800293
105.08200073 158.16999817 485.30001831
141.06999207 290.84399414 484.90200806
127.82099915 204.25300598 557.07696533
103.88500214 199.25799561 587.70300293
147.03099060 293.75799561 543.63299561
166.81199646 233.84399414 499.06701660
256.18801880 278.02999878 482.97598267
248.19500732 241.23699951 455.90499878
161.05799866 152.04200745 475.36099243
182.77999878 246.44699097 449.38497925
216.29600525 208.28599548 482.77398682
157.51998901 231.65499878 508.40301514
103.09299469 164.64799500 474.20300293
258.60800171 252.34300232 470.94799805
254.21398926 268.16799927 485.27899170
113.88600159 225.80699158 431.74801636
212.94300842 266.51199341 463.36801147
201.43099976 281.24401855 528.72302246
121.60099792 204.68600464 596.54400635
112.29400635 277.42800903 515.79699707
156.91200256 193.43699646 438.35897827
240.11000061 250.23300171 489.57897949
120.78900146 167.61801147 557.02301025
119.14800262 157.75599670 464.96701050
123.84500122 231.01499939 556.60998535
109.85600281 169.72500610 561.18298340
221.84500122 218.36300659 488.36300659
193.69999695 280.11300659 533.14196777
91.34700012 242.96299744 512.80700684
164.60299683 246.22698975 496.97198486
163.87001038 240.32699585 512.75598145
153.07800293 226.92201233 428.62600708
131.17599487 145.80799866 491.03601074
172.22000122 242.82800293 493.78201294
177.49198914 290.09899902 524.76397705
123.88999939 150.10299683 482.04101562
90.96399689 191.36599731 471.63098145
255.34701538 273.07501221 475.08697510
103.66699982 264.47299194 482.69702148
183.17700195 182.23899841 500.53298950
88.08599854 207.27099609 542.01196289
92.69600677 209.27600098 557.88598633
199.17599487 212.94100952 480.33300781
122.83799744 186.60700989 584.62799072
180.75299072 279.11901855 473.20101929
154.92098999 171.01100159 451.86499023
220.34100342 253.85600281 458.49902344
236.71199036 248.03700256 458.54699707
218.39999390 270.25100708 514.55401611
168.27699280 228.11999512 490.03900146
118.72100067 282.97201538 503.80801392
117.13200378 212.57600403 609.00701904
111.62500000 172.86199951 448.57901001
117.51899719 234.11401367 575.15899658
175.88999939 231.54998779 494.82299805
94.94400024 202.83900452 564.27301025
107.84299469 182.70300293 579.62103271
219.69200134 221.59600830 496.80502319
240.82400513 282.70199585 504.85897827
98.32800293 182.44700623 554.63897705
158.17298889 217.98600769 430.85797119
104.65700531 264.94500732 525.10198975
185.25900269 197.06100464 452.42300415
138.72300720 188.06399536 532.54901123
171.48600769 283.40399170 477.62399292
100.00599670 248.19799805 542.77496338
150.17199707 145.96598816 505.99002075
88.79299927 186.24400330 488.32699585
165.78500366 213.36900330 507.26599121
141.85899353 245.28099060 526.39001465
94.49599457 233.77299500 552.83099365
185.02700806 285.69702148 484.14401245
170.48500061 249.53498840 443.78298950
139.13099670 275.36898804 456.65100098
115.54399872 272.57400513 467.41799927
121.88000488 283.67401123 530.50103760
196.42799377 236.56199646 508.74603271
189.21800232 248.79600525 453.54299927
109.01100159 229.82099915 590.31701660
225.87699890 230.40998840 490.00601196
175.04000854 200.71800232 517.16900635
87.15700531 226.66299438 532.35400391
240.85499573 232.59599304 460.68899536
97.29400635 242.43000793 548.33001709
115.33900452 152.16600037 487.26300049
155.30200195 155.55499268 468.79299927
185.56800842 232.33999634 506.79397583
95.60299683 173.74398804 531.02899170
170.75599670 213.03201294 521.16503906
241.03799438 264.83700562 464.14102173
86.64699554 226.09298706 526.49401855
210.09199524 218.19799805 452.30697632
144.48199463 253.27500916 434.73199463
126.19200134 174.43099976 547.46502686
190.63900757 170.05899048 487.32400513
167.93400574 170.05899048 501.16003418
167.23500061 253.15200806 492.24902344
105.06999969 189.11300659 441.07897949
196.72200012 197.49600220 474.26998901
170.12699890 215.44900513 503.57400513
92.41799927 178.75799561 530.29797363
162.49699402 158.16299438 505.53698730
184.35800171 203.52099609 505.18798828
119.88400269 177.05300903 577.90100098
131.49400330 255.43099976 437.11999512
108.68599701 252.40498352 557.40704346
260.43600464 263.99002075 467.98599243
115.15699768 250.52198792 563.24102783
252.88298035 253.86700439 460.72598267
169.15400696 172.29800415 457.68600464
124.12699890 273.59100342 459.65499878
136.76199341 209.52099609 540.77203369
115.11400604 242.91400146 435.42401123
193.86199951 227.14500427 448.89700317
145.02499390 185.04199219 438.24700928
190.43899536 272.82800293 526.03198242
134.80799866 177.93299866 440.10299683
85.54199982 195.90699768 512.94702148
202.79699707 280.67599487 475.70700073
93.73200226 242.52299500 478.46902466
117.13500214 198.48098755 606.26300049
127.89799500 288.91101074 505.58502197
131.20500183 221.85200500 546.00195312
93.80300140 206.36000061 453.89898682
92.96199799 238.51300049 537.27197266
207.42799377 211.67799377 458.21499634
145.39199829 146.47200012 485.24697876
92.82000732 212.17399597 457.17999268
99.94699860 197.36199951 576.45294189
103.59600067 183.88900757 445.94100952
179.47200012 156.99200439 493.54800415
85.12899780 206.50100708 496.48999023
117.99799347 178.64399719 440.43499756
123.61000061 234.29200745 428.37597656
92.89799500 175.95700073 488.35302734
126.66000366 286.94000244 514.87500000
165.71800232 235.87899780 493.58200073
203.63398743 284.79098511 483.53298950
184.77598572 227.63000488 445.58001709
85.39400482 223.28199768 512.23803711
169.47799683 248.84199524 487.13897705
185.91099548 194.05900574 500.44201660
100.88700104 234.35400391 446.60501099
176.09300232 285.22399902 538.30096436
178.21400452 214.67100525 443.08502197
117.33800507 239.60400391 562.72698975
117.18199921 226.82901001 598.18902588
246.67898560 282.77200317 493.49798584
137.16999817 229.59899902 527.14300537
103.05100250 256.91598511 535.96502686
136.86799622 176.41400146 530.24401855
134.04899597 292.00698853 504.81701660
139.37799072 250.73901367 433.45300293
180.77799988 258.30502319 454.19201660
219.03300476 285.89999390 494.65600586
167.49299622 259.65698242 521.18896484
109.69000244 196.76100159 597.15197754
186.30799866 202.04800415 494.40899658
235.94400024 234.70098877 480.64700317
160.42900085 188.74099731 516.03594971
197.04499817 213.76300049 491.32000732
146.84799194 226.33300781 522.53594971
147.95100403 282.44400024 539.16400146
211.08999634 206.08299255 465.60098267
144.94299316 235.57501221 521.56298828
159.33399963 297.60400391 529.61804199
160.74200439 268.94400024 452.35897827
136.26899719 280.88598633 538.49401855
151.14801025 195.25199890 435.47299194
187.15299988 181.66999817 470.38299561
213.02899170 283.98001099 512.75799561
140.09199524 230.26199341 521.65502930
154.38400269 290.95501709 546.77301025
186.58399963 210.15399170 450.28497314
122.23699951 192.28300476 593.38403320
124.71699524 246.05900574 433.25497437
263.66201782 247.01599121 456.01699829
112.95600128 244.24800110 544.67199707
168.79400635 290.13101196 494.03799438
135.23100281 169.75698853 532.29302979
258.82299805 263.52398682 475.87100220
126.48400879 280.26898193 550.04400635
181.20401001 162.87001038 472.03399658
132.78900146 209.86599731 544.78399658
133.42698669 172.50199890 444.18698120
135.69400024 217.65400696 426.13800049
83.64500427 206.61799622 512.58099365
193.53700256 199.51899719 458.28100586
204.73100281 204.94900513 480.56500244
182.96200562 282.49200439 538.94195557
89.72399902 225.37100220 543.93200684
104.77499390 257.80297852 460.61300659
226.29499817 245.19099426 499.10800171
142.71501160 223.16700745 426.07501221
129.25199890 181.16499329 437.82998657
223.12899780 229.28900146 458.51400757
100.83100128 244.58799744 556.16699219
189.72000122 207.30599976 467.01602173
132.29299927 190.53601074 433.71298218
245.30699158 277.33200073 480.61999512
139.18099976 160.64700317 457.92199707
170.58099365 183.24301147 507.07901001
148.44999695 255.88198853 523.71002197
168.00700378 224.77200317 495.14999390
125.12099457 197.69400024 566.16802979
122.67400360 284.45101929 490.79702759
237.46000671 266.35699463 498.64001465
141.28399658 168.06900024 449.84701538
107.50699615 160.11799622 521.50396729
92.99800110 227.39100647 460.02001953
107.51399994 266.27401733 472.50802612
114.46800232 157.73699951 533.20904541
159.13299561 248.46400452 519.05798340
132.66099548 230.02400208 539.55499268
159.69599915 276.22198486 459.55099487
130.33300781 169.77099609 539.43200684
230.94200134 235.43099976 456.83999634
163.27600098 219.27499390 433.45199585
112.15700531 244.81700134 554.63000488
127.53699493 288.01599121 495.12402344
114.34099579 245.08699036 573.10699463
156.15899658 176.76499939 510.94104004
171.77000427 236.58900452 484.04602051
85.77999878 194.22499084 503.63497925
173.38800049 155.15100098 475.25900269
137.59899902 245.57901001 430.88800049
95.94999695 214.72000122 567.52502441
142.72799683 214.74699402 500.95599365
210.26000977 240.01499939 506.37500000
163.96699524 221.21000671 501.10900879
122.89299774 152.31799316 528.33905029
154.82200623 258.31799316 496.36398315
89.45400238 182.47300720 507.95901489
136.47801208 216.69999695 539.33697510
121.85200500 179.01399231 572.33099365
102.21400452 264.08700562 489.92898560
121.20199585 189.58799744 433.61700439
97.98600006 256.32501221 488.68798828
174.99099731 235.02999878 507.10601807
118.95000458 255.64199829 556.06799316
212.97801208 276.50897217 471.05999756
136.70399475 146.69898987 511.07901001
196.78401184 213.11000061 472.46600342
162.13198853 180.50000000 447.07299805
104.67100525 268.90499878 499.98599243
232.27999878 273.58697510 506.86199951
144.45500183 212.31498718 533.18402100
128.96800232 164.48699951 540.83300781
96.49800110 238.58900452 457.46600342
173.47599792 288.88000488 535.07299805
117.16000366 280.94699097 491.32400513
169.13299561 268.50900269 455.23898315
131.93600464 153.72399902 469.60000610
108.86000061 274.27099609 503.44998169
103.74800110 188.49499512 578.75500488
154.42700195 262.83200073 444.51498413
225.62100220 264.10699463 506.25598145
133.62400818 228.63000488 425.99899292
88.37500000 189.87399292 532.25305176
117.12200165 151.58900452 493.45999146
106.36299896 162.57299805 527.32403564
152.90800476 242.87500000 519.40295410
110.49000549 240.83801270 587.48901367
126.78299713 204.95700073 428.76101685
176.72898865 190.36199951 449.72802734
175.25100708 201.72299194 443.13601685
113.15599823 153.40800476 497.18798828
91.49800110 178.86399841 521.17401123
131.80700684 148.58799744 520.43096924
251.65798950 236.52600098 465.07702637
97.88899994 168.71800232 480.89901733
101.60200500 220.05200195 441.44699097
88.99199677 205.17199707 475.84399414
216.17999268 284.55499268 483.08300781
89.20300293 188.57600403 480.48202515
116.77899933 272.24298096 541.63702393
107.41300201 187.37199402 585.13500977
253.97700500 279.84500122 489.66799927
170.49899292 167.22599792 461.99899292
162.04400635 174.14500427 452.35400391
137.60699463 269.94400024 534.01501465
124.91799927 235.31500244 544.93096924
166.04299927 157.59100342 468.85498047
189.75199890 168.27000427 480.92700195
108.76999664 250.60498047 571.15502930
212.22200012 285.50402832 501.12097168
107.68599701 179.54699707 444.86401367
217.17999268 211.76899719 467.20199585
87.57899475 225.37599182 496.07800293
120.48300171 212.52600098 602.68200684
153.17300415 184.11700439 517.36499023
90.84300232 235.86399841 533.04199219
168.50500488 195.06199646 443.30902100
137.25599670 145.20100403 486.68499756
110.90700531 273.22302246 528.72998047
87.53199768 188.56500244 511.91998291
220.76000977 222.48800659 467.48797607
89.73900604 219.97599792 474.89102173
102.57299805 259.29702759 471.07397461
139.60400391 292.94799805 540.88903809
124.52799988 203.95599365 567.07299805
180.56700134 235.37200928 445.52099609
213.30801392 273.01599121 517.37597656
151.75799561 291.05401611 485.22201538
119.61500549 160.67098999 459.05200195
122.79299927 272.44299316 552.83599854
237.00700378 275.90399170 503.53997803
114.12099457 277.73999023 524.65698242
119.62100220 240.29199219 535.23303223
99.39199829 184.07200623 560.20800781
100.36499786 179.72900391 454.48101807
120.06800079 200.68701172 602.34497070
101.60200500 178.94400024 558.37298584
153.07499695 251.47700500 496.51599121
138.98199463 215.62400818 506.23101807
173.59399414 261.32699585 521.16796875
148.47999573 199.15998840 432.96499634
121.51799774 214.18400574 428.63800049
167.89099121 279.31600952 541.95098877
124.49500275 170.76300049 551.40197754
120.47400665 196.75000000 431.63897705
107.75399780 235.58999634 438.32299805
204.06100464 285.10601807 509.95303345
196.65899658 265.48699951 517.95300293
164.96301270 186.22499084 511.16000366
101.75699615 174.15399170 548.58898926
179.89698792 213.69299316 517.11102295
201.38800049 256.95700073 513.43499756
90.44999695 213.95500183 468.84399414
201.97500610 235.32499695 451.70199585
108.78500366 267.46401978 533.51403809
247.00500488 272.35000610 474.09799194
112.47399902 245.09899902 581.65802002
122.86499786 198.92500305 579.56597900
190.87399292 223.09300232 508.84097290
94.81500244 243.02000427 472.50802612
95.29100037 195.08900452 560.59997559
140.87100220 154.91999817 467.31201172
176.84599304 276.60900879 537.16101074
93.79499817 193.43000793 456.67599487
161.30499268 289.05001831 484.00399780
122.46599579 210.45899963 584.75799561
101.21700287 240.37699890 567.47302246
88.86299896 234.52000427 502.99102783
189.85800171 287.57901001 511.84701538
178.10200500 187.11300659 506.01898193
91.47200012 203.44200134 553.75701904
210.72100830 202.55200195 474.54397583
121.31700134 154.54499817 469.74099731
161.02799988 168.20899963 504.44400024
229.92800903 229.33900452 469.58999634
145.71400452 282.91500854 466.76400757
242.90400696 249.64199829 458.75497437
157.42201233 208.25601196 507.42901611
156.02799988 261.47601318 523.71197510
206.54000854 286.12597656 493.02099609
164.95500183 216.89399719 511.12402344
122.58899689 201.70498657 589.24902344
96.74700165 168.96800232 510.86599731
156.27099609 279.35601807 535.16601562
193.33499146 275.91198730 472.00000000
205.12899780 246.70199585 456.29400635
114.36299896 247.92700195 540.21801758
96.43000031 190.11199951 452.33999634
88.03299713 218.95300293 540.85498047
136.55799866 160.14100647 530.27301025
187.50399780 218.50900269 511.61999512
172.04899597 158.27299500 470.62701416
111.49500275 155.29899597 477.63400269
203.85499573 220.11799622 452.76901245
103.95999908 160.36700439 504.94802856
108.39399719 199.12500000 435.94100952
262.71798706 246.32499695 462.66601562
158.80000305 281.93301392 466.79400635
259.95199585 255.36999512 459.25302124
219.75498962 251.66799927 504.10400391
156.99299622 220.11999512 514.97601318
171.36900330 206.62300110 439.21099854
112.93099976 278.39599609 497.79498291
119.70500183 242.02600098 432.86300659
100.61000061 208.63899231 581.54302979
99.21800232 165.80400085 489.04699707
112.01799774 235.99800110 591.19897461
149.72399902 220.10501099 505.73098755
111.27600098 246.50399780 549.11999512
99.10299683 252.88099670 531.62097168
103.83499908 179.95800781 566.05902100
196.84399414 241.46099854 510.55401611
173.49499512 283.40899658 542.47100830
126.53000641 228.68501282 552.50299072
145.06900024 175.39599609 520.34002686
106.51499939 252.83598328 550.47399902
175.06199646 194.35598755 514.24597168
219.69000244 240.31098938 456.38000488
90.97599792 201.62500000 466.06900024
85.69200134 201.05000305 493.02301025
116.38700104 155.40400696 528.94995117
157.02799988 216.31799316 500.72299194
161.65800476 266.61700439 523.94494629
137.11199951 293.05099487 508.91000366
125.65700531 252.61300659 436.83697510
114.58499908 234.75900269 433.05297852
106.16699982 226.64999390 587.30700684
216.97999573 208.13600159 477.60702515
118.79300690 228.42300415 577.67102051
268.00000000 256.72998047 462.62899780
158.47200012 282.86599731 544.27996826
177.35398865 152.41400146 484.77999878
98.58499908 256.74700928 517.48901367
197.66900635 279.94299316 476.07400513
123.34299469 268.77902222 453.88000488
94.87400055 172.52999878 507.34298706
186.33200073 212.36399841 508.96697998
229.07400513 229.47700500 479.89999390
179.28900146 287.74801636 529.47601318
189.83100891 172.15800476 475.59402466
157.34100342 250.50500488 490.99002075
104.81200409 234.31300354 582.83697510
123.93099976 184.36000061 565.13897705
101.63100433 197.93600464 581.35003662
192.46800232 177.38899231 483.52798462
84.78700256 206.23399353 523.30999756
90.20500183 234.49000549 489.78100586
118.57499695 168.04200745 562.17999268
212.56600952 205.42100525 484.88000488
100.12800598 216.96699524 577.88995361
206.52200317 203.83801270 464.38800049
111.33499908 253.71501160 561.93695068
142.61900330 207.49699402 428.63000488
92.39499664 191.16400146 463.88699341
91.83800507 243.37998962 503.43899536
136.17199707 290.69500732 522.52301025
113.25599670 265.42401123 458.70101929
180.83099365 289.18798828 496.02899170
195.37500000 222.94700623 511.52700806
111.37899780 163.69799805 457.77401733
247.55200195 271.96401978 492.26998901
117.18099976 217.54400635 431.17098999
109.90499878 213.78800964 434.40802002
168.13600159 180.64799500 450.72399902
199.92700195 214.37500000 461.97500610
119.64599609 274.25701904 464.84100342
140.53900146 206.63101196 536.28198242
131.60101318 151.86599731 529.30499268
233.61599731 256.33697510 461.33999634
242.75900269 257.80999756 461.78900146
105.94400024 205.74200439 592.93499756
194.13400269 245.41200256 453.83001709
202.62800598 273.31500244 521.49395752
94.43099976 222.78599548 560.77496338
182.09100342 221.53300476 503.92401123
150.20201111 209.68499756 510.59997559
143.00698853 144.01400757 495.37100220
192.51899719 239.73199463 450.20999146
145.80799866 290.49398804 483.03900146
140.82699585 197.51699829 430.86401367
90.64400482 184.52999878 536.19201660
140.67700195 152.90299988 525.11798096
99.82600403 164.79499817 502.72601318
156.35099792 227.70999146 504.54098511
156.25700378 271.66900635 528.73199463
165.34799194 225.83299255 499.41098022
111.57199860 262.94299316 547.54797363
124.19799805 279.24499512 470.09399414
124.54100037 262.16799927 445.62597656
176.42700195 282.21801758 477.84500122
143.94499207 220.75199890 529.93603516
103.64700317 215.79598999 438.90197754
204.52499390 271.67001343 466.11801147
126.15699768 147.86499023 492.57299805
190.28900146 210.68699646 482.21002197
99.05500031 239.61700439 560.28802490
194.79598999 222.21299744 450.47100830
137.02600098 206.75300598 428.72100830
148.73098755 207.76100159 529.53497314
246.75799561 238.59199524 473.05599976
121.12500000 215.16799927 592.61499023
165.60700989 151.49900818 477.96301270
157.73199463 161.63800049 461.88800049
194.50099182 289.50698853 494.43701172
97.44899750 172.56700134 464.38101196
115.65999603 221.54901123 604.49096680
138.60400391 286.61297607 474.48699951
185.35299683 254.00502014 518.74200439
188.30799866 271.91699219 466.73797607
188.29501343 259.52700806 458.08200073
203.69200134 207.47999573 487.93798828
92.80999756 243.88900757 491.39401245
86.94699860 203.91499329 486.84201050
150.54200745 194.59199524 524.76300049
179.08300781 202.73800659 514.92199707
175.40800476 164.11399841 498.52600098
176.63200378 254.89500427 449.98498535
123.25199890 204.09800720 579.16998291
90.59099579 183.73901367 481.32601929
128.80801392 251.73599243 537.63995361
113.69499969 178.09001160 581.15100098
210.38000488 214.91099548 501.78802490
246.34700012 264.86798096 467.20599365
157.80799866 207.54699707 524.40899658
88.88800049 194.29100037 541.19097900
179.25299072 291.78598022 505.56100464
212.93099976 220.35600281 504.84698486
105.77099609 158.97900391 480.14398193
102.41399384 260.76300049 526.77398682
160.47999573 201.28999329 436.09698486
112.40799713 193.57800293 599.93395996
131.09300232 194.47000122 430.83099365
156.67698669 286.54699707 474.90701294
92.96099854 233.91200256 467.56100464
131.80599976 287.76602173 542.15100098
123.88599396 156.16700745 465.75100708
133.74800110 236.11299133 426.66799927
142.90000916 191.11900330 529.77398682
162.02400208 246.05900574 490.70098877
198.77299500 285.83099365 518.57299805
91.63700104 235.32800293 542.07495117
116.52199554 163.08100891 552.95800781
170.48800659 150.14900208 489.23599243
190.34100342 248.63600159 513.43402100
125.40000916 254.98300171 545.26599121
157.20399475 205.76000977 503.09497070
101.49200439 181.66000366 450.00698853
144.16099548 242.20899963 428.44000244
180.67900085 290.39001465 516.09497070
179.55400085 271.62799072 525.95397949
152.82299805 254.74000549 438.30200195
173.24798584 276.08901978 533.48699951
215.08100891 216.95100403 461.72198486
124.05500031 166.58799744 449.95999146
216.72000122 257.48501587 508.58599854
152.13101196 292.83801270 492.86099243
146.34999084 293.29800415 494.80798340
252.48799133 258.44699097 479.15899658
148.97698975 177.32299805 517.27697754
148.62699890 216.76799011 427.84399414
259.11001587 238.58299255 461.03298950
92.05300140 196.76499939 462.85699463
184.56399536 207.32699585 446.49697876
124.70800018 180.12200928 554.95001221
87.88800049 197.23300171 481.99099731
156.72299194 273.18200684 455.66497803
129.93699646 214.84899902 549.96301270
124.34200287 283.85000610 482.06600952
103.81300354 198.41999817 438.86502075
187.94400024 218.72100830 446.44201660
233.44898987 265.19598389 501.46801758
88.03500366 216.12399292 483.99002075
131.04299927 278.86999512 548.70898438
171.59399414 287.52899170 484.76498413
214.91900635 270.39300537 465.72198486
177.28500366 263.69000244 456.48397827
114.61000061 253.04299927 550.07598877
100.63800049 167.50199890 464.65701294
141.19499207 265.88198853 444.80300903
128.16999817 232.65899658 547.58099365
141.25399780 292.85601807 520.97497559
140.03401184 261.47601318 530.88299561
252.08100891 232.97099304 457.00698853
212.94499207 281.08700562 476.80899048
222.58099365 276.70498657 472.79998779
95.37299347 213.33900452 448.90200806
196.66000366 257.25299072 516.34503174
118.96300507 262.41101074 557.00000000
91.30799866 227.03900146 473.18801880
120.65200043 151.94200134 477.44900513
149.80200195 278.70397949 460.62200928
156.98100281 256.29800415 491.56698608
187.81300354 286.36102295 524.64300537
109.18799591 162.43701172 462.72500610
97.93099976 175.06500244 539.89794922
152.56098938 176.86100769 446.02001953
207.22599792 208.41300964 496.10998535
158.08000183 250.61300659 498.72900391
161.21099854 228.95300293 431.81600952
187.24400330 254.94998169 455.25802612
160.12998962 252.88099670 439.75601196
150.05799866 173.57600403 514.30895996
123.81300354 286.46002197 504.44299316
125.79999542 229.91999817 427.92001343
88.64399719 209.19500732 478.60699463
99.10400391 188.75799561 565.33099365
100.63899994 261.43701172 513.74798584
117.81199646 251.39099121 540.17199707
157.41099548 146.67401123 494.79699707
230.95500183 247.14399719 458.73300171
190.42300415 182.02301025 492.24200439
250.84901428 247.34500122 477.36401367
109.94999695 261.00601196 455.93099976
154.09600830 164.12300110 508.93496704
114.47399902 252.96101379 557.07598877
107.77799988 263.54101562 538.66601562
135.57400513 267.17401123 537.76696777
112.80999756 278.17599487 504.12701416
150.69801331 287.88998413 475.74298096
149.74400330 189.26000977 523.23199463
164.36099243 238.92399597 436.42102051
185.95500183 264.74197388 460.81600952
153.80400085 149.31799316 479.68399048
88.32799530 187.68598938 519.97900391
109.30299377 167.36100769 553.45001221
195.57901001 250.36201477 456.17498779
112.34299469 192.04998779 435.90600586
144.14399719 294.33300781 516.23602295
159.42199707 291.95700073 493.49798584
160.73399353 212.11401367 503.63098145
106.26499939 162.50300598 469.69500732
101.43700409 237.02398682 573.24700928
110.66600037 155.37600708 507.27200317
101.29599762 260.40200806 481.23101807
115.14299774 167.46299744 451.76101685
86.02799988 195.31599426 497.50799561
217.55099487 221.01100159 459.89099121
112.18299866 227.37899780 597.72198486
250.93800354 258.04400635 462.22000122
108.27700043 225.74200439 436.22698975
88.94200134 230.83799744 493.03900146
91.92199707 226.20700073 550.69000244
84.40000153 202.00500488 504.33999634
161.43299866 178.68399048 508.31198120
210.89201355 258.05099487 458.44299316
98.15399933 230.92900085 568.67803955
103.25099945 264.86398315 518.53900146
135.11698914 252.83300781 434.36898804
129.48699951 278.95599365 465.15100098
222.10598755 266.55001831 510.17398071
124.54399872 149.89100647 520.25201416
125.50899506 173.97200012 443.49398804
168.94799805 200.53898621 518.77398682
266.92501831 262.01501465 463.10202026
180.54100037 257.95001221 518.57397461
125.42100525 268.09298706 553.36999512
220.93600464 234.94400024 498.24899292
184.30499268 238.63800049 446.24200439
120.56999969 190.95899963 597.83300781
138.87399292 281.74200439 465.83398438
148.50399780 150.71000671 475.62100220
216.60398865 211.34098816 489.84799194
149.41699219 261.50198364 442.61199951
129.31098938 159.05999756 460.16601562
206.57398987 282.28399658 478.20700073
170.38699341 231.26199341 487.00399780
207.44599915 285.73999023 501.53399658
136.01200867 149.87100220 477.07598877
188.90600586 282.60101318 478.59500122
181.19599915 193.94900513 508.97198486
216.72200012 230.28500366 504.16302490
137.07501221 292.08697510 496.87399292
109.12100220 273.86999512 489.10702515
89.48699951 200.58900452 545.97003174
171.73098755 269.44100952 524.39599609
198.30699158 288.63497925 491.68499756
180.43800354 154.61799622 489.51699829
158.89599609 261.26699829 445.14401245
173.70899963 224.49900818 496.83801270
121.72200012 248.05299377 532.61102295
215.63301086 281.70700073 522.92504883
101.55200195 167.50199890 530.46002197
186.35000610 184.25199890 466.43701172
155.34600830 253.07199097 518.73498535
149.07600403 295.57299805 530.17199707
152.04399109 155.97500610 514.99304199
216.59199524 232.92100525 456.25000000
88.16999817 221.07400513 485.87200928
95.77899933 252.28800964 507.28100586
98.90799713 258.97799683 508.48400879
191.65000916 193.20201111 489.28399658
258.35897827 267.57699585 480.16802979
237.52799988 242.65600586 487.57800293
184.28399658 169.13600159 493.81198120
113.98200226 243.07798767 577.62902832
95.38199615 178.30799866 464.46200562
121.44800568 155.98100281 538.27001953
200.21099854 269.24899292 464.21200562
198.33900452 248.01200867 513.04101562
126.78701019 241.96900940 524.22601318
141.48500061 279.31900024 537.35601807
219.75000000 217.60400391 471.11700439
167.20700073 275.37301636 530.23699951
165.53300476 233.82798767 503.63397217
149.91700745 147.17599487 512.34002686
107.05200195 173.49598694 451.57000732
214.56498718 242.79800415 456.67202759
109.09000397 189.12500000 438.57699585
142.05400085 275.49899292 532.16699219
203.98899841 285.91900635 522.48400879
142.56399536 251.11698914 526.54901123
153.44099426 183.21501160 441.92599487
210.73800659 253.16101074 508.43899536
208.27400208 260.73001099 512.08300781
171.25199890 263.73800659 452.41101074
262.22299194 278.11700439 485.13601685
225.95199585 233.98500061 456.67700195
149.64199829 229.80499268 514.16198730
97.89199829 226.36399841 570.74395752
161.82998657 271.62600708 527.05700684
258.39297485 275.19500732 486.03500366
115.95600128 277.20901489 480.08599854
99.24900055 247.71200562 460.27801514
166.05700684 287.12698364 542.52301025
119.44699860 181.32400513 588.15899658
126.61199188 151.09199524 476.63900757
165.89799500 200.87200928 438.86199951
123.43099976 161.48500061 456.41000366
173.44200134 277.55499268 467.50799561
94.92099762 174.08000183 473.31900024
203.47599792 286.27899170 497.50997925
170.73098755 252.14099121 518.12500000
112.92199707 203.90499878 605.45599365
152.41900635 209.50199890 502.23303223
209.60398865 270.21899414 516.62500000
96.21299744 186.63500977 554.35900879
192.07200623 290.00698853 501.64901733
165.07899475 187.47000122 444.44500732
160.75999451 279.71398926 536.50598145
250.40599060 262.27798462 484.12500000
143.42700195 171.48399353 447.44000244
127.21900940 192.05300903 553.04901123
150.53599548 285.69601440 469.98901367
106.30599976 268.80200195 522.93798828
117.33399963 278.63500977 534.14599609
185.76200867 278.74899292 539.33099365
133.92799377 291.34500122 532.85803223
150.41500854 230.74198914 428.08700562
184.75300598 159.19799805 484.74301147
173.27499390 209.09300232 520.90197754
217.06500244 257.12600708 459.20300293
168.73599243 151.56100464 499.88897705
86.82999420 217.73800659 534.90100098
107.10500336 247.09899902 576.30902100
99.05000305 196.74299622 444.59597778
221.05200195 226.06399536 497.00000000
123.93700409 276.36199951 549.76702881
103.66299438 248.10299683 552.76605225
102.91499329 185.99900818 573.79699707
128.59899902 146.80099487 501.92703247
161.36599731 154.64199829 471.50000000
116.05599976 278.84899902 484.90301514
235.01600647 248.06800842 494.15100098
165.35600281 151.28999329 503.21197510
223.91700745 282.61502075 514.78100586
164.63999939 254.51400757 443.42398071
222.27500916 214.42199707 477.81399536
113.82400513 155.18400574 516.59399414
123.08000183 184.54100037 572.93499756
163.47399902 256.58300781 496.65798950
193.58200073 198.29000854 477.60098267
111.97700500 258.86700439 554.90399170
92.64899445 186.63099670 545.27301025
225.86199951 277.14898682 516.50897217
152.42799377 220.25900269 515.78900146
191.23600769 188.74200439 480.42102051
122.01399994 158.45899963 544.62701416
171.49700928 186.54499817 448.82397461
113.92800140 156.26600647 523.25500488
144.04399109 259.35800171 527.37896729
152.34799194 211.53601074 528.29101562
201.78799438 243.69500732 453.73898315
223.89599609 270.28302002 466.91598511
126.90700531 216.38299561 557.27795410
151.18299866 283.95901489 542.17700195
92.68199921 245.90800476 509.50903320
173.50299072 231.47200012 440.64398193
185.00999451 204.41700745 500.70501709
250.12100220 251.29699707 479.94198608
180.73199463 209.10499573 444.44400024
95.58100128 184.74400330 458.19100952
100.84500122 188.86399841 570.56500244
123.97900391 220.67199707 562.50103760
98.54800415 258.69799805 499.34500122
174.44500732 217.24499512 512.95300293
162.92700195 244.97698975 437.60400391
185.47000122 289.64999390 500.77099609
182.56098938 242.49499512 513.38598633
237.94700623 232.09500122 464.22399902
92.25399780 179.27299500 479.19900513
242.13301086 233.70799255 466.60000610
133.23498535 147.27499390 483.33999634
182.52200317 250.33900452 516.70904541
95.17200470 232.05900574 557.08697510
127.80300140 199.70700073 556.42303467
179.27900696 236.14599609 508.52902222
187.11000061 242.59599304 512.08197021
133.71499634 289.74899292 491.83898926
194.32499695 213.79501343 495.01199341
86.70899963 190.38200378 500.39797974
234.19700623 281.95800781 483.49197388
186.92399597 236.97200012 508.94702148
129.28800964 245.44200134 431.23699951
94.03099823 202.05700684 452.35101318
192.11299133 197.53999329 484.90701294
129.17999268 147.11000061 511.85000610
174.73699951 215.91799927 507.35998535
163.06999207 219.02699280 519.39703369
250.32202148 242.20300293 473.76000977
209.35699463 285.12799072 522.18798828
174.49400330 222.11900330 500.66299438
189.18000793 208.65400696 478.26901245
195.35499573 267.65499878 463.24398804
255.62699890 256.36398315 475.40399170
93.16900635 175.75601196 512.01098633
194.39601135 284.59701538 533.59503174
186.79499817 204.94400024 488.46701050
188.11599731 214.88299561 449.23599243
171.07400513 151.41200256 481.11999512
108.75199890 162.05200195 531.17102051
119.69100189 150.42900085 503.05700684
85.52899933 196.82000732 517.41198730
123.34600067 238.43699646 430.39599609
88.99700165 198.64199829 477.80499268
114.46300507 241.97100830 584.30102539
117.23699951 229.45199585 593.77099609
237.03500366 276.87100220 476.14498901
125.47600555 189.46800232 560.98400879
195.39199829 192.36799622 472.61102295
101.78900146 227.20899963 579.38897705
180.33599854 207.05500793 514.23699951
94.76499939 172.07099915 519.81500244
169.81900024 246.24200439 516.47003174
139.62200928 217.35200500 535.16296387
163.84400940 210.48100281 435.58099365
122.70800018 173.81700134 558.71301270
221.32901001 220.34400940 492.41998291
85.98699951 218.56900024 497.61599731
144.61700439 187.27299500 526.58496094
106.51499939 172.05799866 558.93597412
140.43701172 228.06300354 426.05200195
91.43900299 179.53399658 525.93701172
259.39398193 261.17001343 464.59100342
236.25299072 232.58799744 469.68701172
114.13499451 180.98400879 440.12899780
156.69200134 278.71002197 461.84701538
92.25700378 231.42799377 472.62298584
236.84700012 273.87197876 472.47100830
127.73500061 286.03198242 484.34600830
84.08399963 214.40798950 519.30102539
132.22900391 193.14299011 542.52496338
149.29699707 218.26499939 510.09899902
256.88497925 248.31900024 472.47399902
167.67599487 296.15499878 524.36901855
168.05499268 250.16099548 495.79199219
194.58499146 215.68399048 503.84802246
149.97599792 224.90899658 513.11102295
132.21200562 248.78900146 532.28302002
182.62701416 266.36300659 521.06201172
138.23899841 259.10400391 439.12399292
115.56199646 157.82600403 468.30899048
178.28799438 292.42300415 512.85198975
123.12699890 227.39199829 559.99700928
126.42699432 219.96200562 426.73999023
175.72698975 241.51300049 491.26699829
211.44000244 249.49699402 458.57000732
126.47100067 212.81799316 428.74600220
116.50399780 253.05000305 441.64199829
87.34100342 195.22698975 530.17095947
113.31099701 258.50701904 449.60598755
177.04400635 162.63999939 469.10000610
116.94200134 269.80297852 546.11700439
109.54000092 272.84500122 483.40402222
115.38899994 185.18499756 593.48901367
242.51000977 242.15699768 481.25601196
207.23300171 221.76000977 510.30300903
114.28900146 248.66198730 569.68597412
157.46299744 191.64300537 519.36499023
204.29701233 205.86300659 473.70300293
261.75799561 262.42300415 471.97100830
116.75699615 238.96400452 548.35400391
200.92199707 211.56300354 465.71298218
189.05900574 230.03298950 445.85699463
130.39599609 199.98300171 548.45898438
192.90499878 193.27400208 462.42401123
153.63299561 266.35299683 447.15698242
146.23100281 169.27799988 450.32000732
157.37899780 168.25599670 507.02999878
187.18199158 288.30902100 493.03500366
185.11199951 279.43200684 474.14300537
150.06999207 262.92498779 523.98004150
128.61900330 236.44799805 524.75604248
94.23399353 220.28300476 452.13601685
149.18699646 247.31199646 432.21398926
154.90100098 147.70199585 484.14498901
156.52400208 186.62300110 441.32199097
134.97300720 169.19801331 447.42001343
249.46099854 233.74099731 461.36502075
173.81800842 165.93099976 464.67599487
142.64799500 269.92999268 449.66598511
178.35800171 219.08399963 441.72601318
147.37300110 144.84800720 495.15399170
152.65400696 296.84298706 523.00299072
221.45100403 257.35699463 461.01098633
103.96800232 215.66000366 586.25103760
