ply
format ascii 1.0
element vertex 2048
property float x
property float y
property float z
end_header
324.10089111 228.95407104 362.35382080
330.86407471 234.11372375 372.93911743
330.97155762 223.78273010 353.50292969
335.64282227 226.40724182 363.38168335
301.01052856 216.56646729 347.83212280
308.05038452 217.37994385 354.47402954
311.14575195 213.85496521 343.71099854
315.85742188 213.83528137 347.93322754
316.09826660 247.90882874 368.31600952
317.47088623 255.51742554 376.58486938
325.28750610 241.18394470 367.76376343
323.65942383 247.65318298 372.95001221
113.45097351 165.47578430 378.48236084
107.36665344 173.43046570 382.49282837
113.58291626 162.55599976 372.23843384
107.23045349 171.13554382 375.15823364
100.74684143 189.32115173 377.85949707
99.98350525 198.08905029 382.07958984
98.22554016 194.98623657 374.73968506
97.16387177 203.99034119 377.99569702
304.83993530 262.20471191 389.18786621
303.03424072 264.20010376 396.93002319
314.47930908 257.12054443 388.39196777
310.68511963 260.37707520 394.14056396
306.70086670 222.04470825 361.19134521
311.01034546 232.40869141 369.55703735
317.80065918 219.58804321 356.31048584
315.38052368 224.55030823 363.91644287
128.88616943 158.53370667 379.94860840
120.90995026 166.23220825 384.87231445
140.70155334 156.99295044 377.10968018
133.34887695 166.18858337 382.15972900
105.84325409 173.14947510 372.95532227
101.20658875 181.75350952 376.57156372
108.34274292 171.95346069 365.01742554
102.62232971 181.04589844 367.72653198
111.23056793 180.73934937 383.32687378
105.13560486 189.41998291 387.32986450
114.78028870 184.61892700 380.12615967
109.54721832 194.75096130 383.62478638
139.68179321 146.67575073 375.70492554
129.84130859 151.28367615 378.98358154
149.77763367 141.99810791 370.71871948
141.05654907 146.42143250 374.02157593
292.32904053 236.09190369 355.03561401
294.12094116 243.78828430 361.70941162
302.81994629 234.43754578 355.92755127
299.41052246 238.97375488 359.24877930
294.96527100 235.07312012 379.43603516
295.87506104 244.09851074 387.91983032
305.38885498 235.93208313 375.77566528
300.83633423 239.19024658 382.83148193
123.18169403 155.74772644 374.37457275
114.91816711 161.83523560 375.71743774
128.35729980 151.33717346 364.67883301
120.08952332 157.47895813 365.18426514
138.22726440 146.01774597 362.81176758
129.34017944 150.46022034 362.87240601
143.32093811 143.80555725 353.56103516
134.38278198 147.96711731 352.66165161
113.87358093 168.68516541 362.76229858
108.87194824 176.19958496 365.92361450
117.49193573 166.01649475 352.89840698
111.95667267 173.96931458 355.33087158
101.53187561 206.19309998 370.78970337
103.12158966 213.71391296 374.19897461
104.42507172 213.55642700 368.46154785
105.67521667 222.27644348 371.89633179
278.50347900 217.42102051 348.78030396
278.16033936 219.86624146 355.02636719
290.20819092 214.21073914 347.05120850
285.66622925 214.67413330 351.14892578
256.08508301 277.34912109 413.09109497
251.15527344 273.50253296 418.70507812
268.20159912 274.53918457 414.30059814
262.05288696 273.34106445 418.05993652
103.22178650 187.99334717 365.77856445
100.89344788 196.07810974 370.89910889
106.24739075 189.15211487 356.68719482
103.12329865 198.04769897 360.95516968
165.96867371 137.36752319 368.71850586
155.48976135 138.15121460 368.36285400
175.01321411 135.28417969 361.41769409
164.07888794 135.33662415 359.65719604
285.72515869 255.25479126 391.68124390
284.69088745 263.37252808 398.38482666
295.90905762 255.42637634 389.44882202
290.38876343 259.14056396 394.75637817
125.48105621 157.99504089 350.57333374
119.78937531 163.73886108 352.22634888
130.36618042 156.71922302 340.61953735
124.14140320 162.60989380 341.67312622
145.76989746 145.82940674 342.96124268
137.66598511 150.46234131 341.51278687
151.95797729 145.28781128 335.25289917
143.69869995 150.00267029 333.19976807
103.21778870 200.27409363 357.88861084
102.05104065 208.55039978 362.16827393
107.56183624 205.59974670 353.21948242
105.75505066 215.13163757 356.93093872
163.48037720 139.45700073 352.39367676
153.52713013 141.55694580 349.11529541
170.69686890 140.23324585 345.33148193
160.40950012 142.36242676 341.32315063
186.93447876 140.83715820 371.96646118
183.33082581 142.30307007 382.40493774
197.22079468 143.71517944 370.72363281
194.22917175 144.34564209 380.77267456
166.37802124 141.47915649 375.03964233
158.31401062 146.56007385 381.19207764
180.23214722 142.60494995 374.82684326
172.76986694 146.75906372 380.14184570
271.04901123 275.55169678 383.44445801
269.32522583 277.38104248 392.86779785
281.77557373 273.59414673 385.21173096
276.37539673 275.73583984 390.37377930
139.82119751 156.83227539 324.23287964
133.56661987 163.17196655 323.78225708
146.26730347 157.90058899 317.67398071
139.91908264 164.55630493 316.78308105
278.78329468 260.46496582 366.56219482
277.54473877 267.22921753 372.46029663
289.51904297 259.34695435 368.54785156
283.84518433 263.43637085 371.15347290
183.46636963 139.49746704 358.47796631
174.67507935 138.67987061 356.63607788
192.50880432 142.99969482 352.40640259
181.95753479 141.32913208 349.38446045
106.37678528 217.91862488 360.11730957
108.23410797 225.15850830 364.17776489
109.69400024 225.48730469 356.30795288
110.98471069 233.08047485 360.43652344
119.16850281 175.83526611 342.47586060
115.52155304 183.60720825 345.59835815
124.01212311 174.66267395 332.35235596
119.87503815 182.98365784 334.71405029
111.63474274 185.11607361 352.01498413
109.35311890 193.46046448 356.07806396
115.69966888 186.50573730 343.42160034
113.04934692 196.02487183 346.89895630
277.74511719 222.42756653 369.01489258
277.99090576 229.48603821 378.46380615
287.49887085 223.35195923 366.26748657
282.57702637 225.20011902 373.56057739
156.66160583 147.20367432 326.86773682
148.53747559 151.56420898 323.38186646
164.30264282 150.44268799 321.52825928
155.92846680 155.28100586 317.82318115
137.35339355 179.24426270 381.24691772
128.90258789 187.96746826 384.21139526
148.33029175 183.81123352 379.52740479
140.66476440 193.36439514 383.72671509
118.66665649 198.48379517 378.80245972
110.66914368 205.88117981 380.93484497
125.95762634 204.16378784 374.88244629
118.97736359 212.97636414 378.41513062
147.35989380 162.73602295 308.37652588
140.92550659 169.37365723 306.32022095
155.30847168 164.46194458 303.16793823
149.07730103 171.70822144 300.90573120
151.38641357 159.96473694 383.31964111
141.42144775 167.33657837 385.47143555
162.80169678 162.20989990 380.97869873
154.06785583 170.00311279 384.16397095
113.31118774 236.13685608 362.02041626
118.25057983 239.86215210 367.29177856
119.99298859 246.77430725 360.60305786
124.36948395 249.10980225 367.40777588
130.38412476 175.64547729 316.60180664
126.00202942 184.34100342 318.02127075
136.98770142 175.32626343 309.04742432
132.60906982 184.24099731 309.74578857
273.72625732 240.96710205 383.95611572
272.19079590 250.40748596 390.27133179
283.56964111 242.75154114 381.86947632
277.44940186 246.28802490 387.07702637
197.27024841 147.40603638 360.22665405
198.59288025 146.14007568 367.96026611
201.34667969 154.23840332 354.90420532
203.64984131 151.96823120 363.22732544
178.56137085 144.25325012 336.98910522
169.21035767 145.81741333 331.13674927
186.48458862 149.06781006 331.72091675
176.31213379 150.87991333 325.65362549
271.31607056 228.41914368 353.31323242
269.48693848 236.21128845 356.95129395
281.49621582 228.02278137 353.77743530
275.76248169 231.43493652 355.92898560
253.43270874 280.03637695 374.15643311
250.26712036 281.23544312 382.28057861
264.43475342 278.66546631 377.33013916
258.08337402 280.17172241 380.89810181
251.39425659 272.73321533 356.76800537
248.85859680 278.66378784 362.67996216
262.27322388 272.38766479 360.32037354
256.36880493 276.26406860 362.56130981
110.71447754 199.15763855 349.53405762
109.16386414 207.69143677 353.88592529
114.72599792 201.64967346 341.15350342
113.19474030 211.53269958 345.25448608
121.39110565 184.76812744 334.93591309
118.17670441 193.31044006 337.90106201
126.57523346 183.90837097 324.96936035
123.61819458 193.34024048 327.09536743
166.16152954 156.37004089 310.25997925
158.55558777 160.87528992 305.72708130
174.63572693 160.17005920 307.99780273
166.93190002 165.54571533 303.27120972
255.92868042 253.20736694 397.93637085
254.91781616 261.66030884 404.80917358
266.58694458 255.56506348 394.95672607
260.40338135 257.94937134 400.56674194
241.45773315 262.75619507 410.61853027
237.90003967 264.58587646 415.59835815
252.94111633 262.54153442 410.39187622
246.01406860 262.54260254 414.25338745
128.72714233 254.86134338 363.69171143
130.61227417 254.30430603 369.35333252
139.71749878 264.93536377 364.73022461
139.93617249 262.22732544 372.15954590
178.83270264 153.12318420 380.58813477
171.26187134 162.09112549 384.96676636
189.80107117 158.20727539 382.92907715
182.45903015 166.81556702 387.63439941
221.08323669 273.64611816 408.43933105
216.89533997 269.42712402 412.40509033
231.18121338 272.29058838 415.97583008
225.98352051 270.05816650 418.31677246
113.50455475 226.16664124 345.39123535
115.07870483 234.88133240 351.79263306
119.39601135 234.94731140 338.66632080
119.21936035 242.58197021 345.85089111
239.66172791 280.63012695 385.90957642
236.69723511 279.09356689 394.37207031
250.95225525 280.01129150 389.45590210
244.54591370 279.93695068 393.58712769
203.52346802 150.99758911 375.83517456
198.72373962 158.92060852 383.10061646
209.93658447 157.97677612 374.22631836
205.19511414 164.58036804 382.85162354
120.25167847 199.42684937 331.15087891
117.74900055 209.20135498 335.88916016
124.20840454 202.72970581 322.18719482
121.50960541 213.20010376 326.23703003
266.24725342 243.68008423 355.87152100
264.22341919 254.18135071 357.43359375
275.74005127 243.69226074 356.54666138
269.86376953 249.06579590 357.33312988
181.40075684 151.96661377 324.47909546
172.82652283 154.58526611 318.17556763
188.50737000 157.71893311 320.31646729
179.69905090 160.79089355 313.83419800
149.41105652 170.98054504 298.82809448
143.54486084 179.52499390 297.20858765
158.71896362 171.83605957 295.31774902
153.50717163 180.92103577 293.34790039
188.22033691 140.66934204 361.64349365
185.05039978 140.58804321 361.67138672
188.65736389 140.67890930 361.60464478
188.19017029 140.63232422 361.65341187
184.84109497 138.67173767 370.90206909
181.75695801 138.59960938 370.94317627
185.28112793 138.69360352 370.85113525
184.79541016 138.65408325 370.90347290
175.73078918 137.56719971 363.26629639
172.48632812 137.50756836 363.27490234
176.20124817 137.56484985 363.25036621
175.68115234 137.53921509 363.28109741
180.93492126 157.04821777 391.82897949
177.63836670 156.98066711 391.89923096
181.48095703 157.05508423 391.78335571
180.91621399 157.02426147 391.87768555
190.46955872 145.24865723 351.59378052
187.30320740 145.17343140 351.60202026
190.88827515 145.24938965 351.58062744
190.43046570 145.20823669 351.60760498
176.04916382 139.13189697 348.70025635
172.64846802 139.06167603 348.69461060
176.52420044 139.10931396 348.69604492
176.02131653 139.07641602 348.71551514
183.67947388 141.22094727 381.21533203
180.69468689 141.13342285 381.29104614
184.13940430 141.24095154 381.14868164
183.67059326 141.19058228 381.23233032
174.03869629 140.32707214 377.60009766
170.84306335 140.26370239 377.65301514
174.53134155 140.31954956 377.57019043
174.00201416 140.29428101 377.63592529
185.33425903 148.20300293 337.58483887
181.75198364 148.12435913 337.56027222
185.82159424 148.20585632 337.58343506
185.33412170 148.16191101 337.59155273
184.42289734 153.81704712 323.75030518
180.60177612 153.73332214 323.70040894
184.91389465 153.82867432 323.72521973
184.42478943 153.78376770 323.71368408
176.57324219 146.52615356 385.37438965
173.42225647 146.44993591 385.43859863
177.10893250 146.53973389 385.33737183
176.57971191 146.49993896 385.41546631
176.05047607 173.50637817 391.16482544
172.75070190 173.44505310 391.24902344
176.60050964 173.50411987 391.13943481
176.04583740 173.47758484 391.25103760
164.65246582 138.63926697 343.01531982
161.11987305 138.57846069 343.01562500
165.12718201 138.60438538 342.99203491
164.59352112 138.58593750 343.01412964
189.78503418 155.21304321 332.98080444
186.38793945 155.11880493 332.97894287
190.23724365 155.20901489 332.96899414
189.83027649 155.15124512 332.98715210
157.52856445 138.04641724 352.73107910
154.46192932 138.00082397 352.75469971
157.93510437 138.01615906 352.70336914
157.50277710 138.00747681 352.73083496
162.00561523 138.30410767 365.99957275
159.01683044 138.25819397 366.02630615
162.43606567 138.28152466 365.97808838
161.99374390 138.26925659 366.01156616
179.28425598 185.61427307 395.18981934
175.96705627 185.54769897 395.29229736
179.84167480 185.60807800 395.15600586
179.25074768 185.57810974 395.28118896
163.17793274 145.01457214 380.66970825
160.31703186 144.96630859 380.71200562
163.66392517 145.00149536 380.65524292
163.22671509 144.98611450 380.70416260
193.74539185 153.76184082 352.52621460
190.71791077 153.68405151 352.54046631
194.15148926 153.77262878 352.51028442
193.72241211 153.72746277 352.53750610
145.58488464 143.69564819 366.41613770
142.94274902 143.65925598 366.44900513
145.96536255 143.65754700 366.38519287
145.62658691 143.65228271 366.41525269
156.25646973 143.32334900 332.93127441
152.64035034 143.27104187 332.91732788
156.73922729 143.27044678 332.92877197
156.22244263 143.26187134 332.93722534
148.53292847 142.95069885 338.71246338
145.13636780 142.89540100 338.70935059
148.99443054 142.88751221 338.71438599
148.52980042 142.87503052 338.73251343
155.65127563 141.94610596 373.88290405
152.90740967 141.90069580 373.91250610
156.07774353 141.91488647 373.86337280
155.66799927 141.90324402 373.89233398
143.69180298 144.46835327 347.03222656
140.58972168 144.43350220 347.04879761
144.10549927 144.41156006 347.02423096
143.64624023 144.41424561 347.04315186
193.18659973 161.43618774 339.93447876
190.41989136 161.37541199 339.92709351
193.53654480 161.44860840 339.93734741
193.23796082 161.41143799 339.94189453
149.45947266 141.77941895 354.55615234
146.61708069 141.74365234 354.57421875
149.84146118 141.73033142 354.55239868
149.44624329 141.72830200 354.56683350
145.52195740 146.02297974 376.89978027
142.97003174 145.99153137 376.95135498
145.89723206 145.98229980 376.87039185
145.51184082 145.98179626 376.91082764
168.91621399 160.96028137 387.89663696
165.47148132 160.90905762 387.95480347
169.44248962 160.96647644 387.88787842
168.81506348 160.94320679 387.96746826
161.43029785 156.68814087 384.11950684
158.11219788 156.62835693 384.16497803
161.98397827 156.67330933 384.11993408
161.41781616 156.64390564 384.18276978
145.45983887 148.91658020 330.76080322
142.12413025 148.87515259 330.75637817
145.91213989 148.86116028 330.75939941
145.47300720 148.85543823 330.77026367
140.51087952 146.25964355 359.51531982
137.98565674 146.23019409 359.55242920
140.84910583 146.21179199 359.50582886
140.52340698 146.21392822 359.53033447
133.65519714 150.39892578 374.11981201
131.54928589 150.37409973 374.16970825
133.93475342 150.36062622 374.07556152
133.69120789 150.36181641 374.10388184
128.04278564 154.59097290 357.29763794
125.80805969 154.55987549 357.36264038
128.31419373 154.54083252 357.27453613
128.07897949 154.53512573 357.31469727
126.14003754 154.59442139 366.05245972
124.13374329 154.57174683 366.11206055
126.37293243 154.52935791 366.03872681
126.17009735 154.52960205 366.07138062
160.45617676 169.93464661 383.66964722
157.32070923 169.88232422 383.71020508
160.93423462 169.90356445 383.65826416
160.48233032 169.88188171 383.72244263
116.05515289 161.76005554 363.37872314
114.35398102 161.74218750 363.44555664
116.21117401 161.72991943 363.36529541
116.12059784 161.72845459 363.39590454
167.64210510 142.92768860 332.98895264
163.65827942 142.83810425 332.95248413
168.18244934 142.88240051 333.01254272
167.59024048 142.82702637 333.01745605
152.04786682 162.38122559 382.14257812
148.93113708 162.32086182 382.21057129
152.58242798 162.36245728 382.12649536
152.07719421 162.33456421 382.19934082
133.39811707 151.42634583 348.68475342
130.96600342 151.40155029 348.72341919
133.69216919 151.36788940 348.67608643
133.40965271 151.37088013 348.69403076
173.53404236 151.19383240 316.79107666
169.26048279 151.08996582 316.72613525
174.10806274 151.16003418 316.82705688
173.53277588 151.08850098 316.81893921
116.64325714 164.21118164 354.59780884
114.63789368 164.18678284 354.66601562
116.85381317 164.17626953 354.57699585
116.69140625 164.17002869 354.61593628
124.42411804 158.68870544 379.03634644
122.51358795 158.66810608 379.08227539
124.69468689 158.65084839 379.02636719
124.47502899 158.65374756 379.04702759
176.03034973 160.29914856 305.71051025
172.18988037 160.22134399 305.58630371
176.50933838 160.27906799 305.80895996
176.15093994 160.22354126 305.75051880
165.94819641 186.45211792 387.99880981
162.68423462 186.39231873 388.07147217
166.45294189 186.45584106 387.97030640
165.96710205 186.42440796 388.06170654
165.16677856 156.81193542 305.88656616
160.39895630 156.69830322 305.80230713
165.84986877 156.76045227 305.91937256
165.08755493 156.68237305 305.91104126
161.54412842 147.71997070 321.72091675
157.37384033 147.61943054 321.66400146
162.12022400 147.66267395 321.75692749
161.50518799 147.60128784 321.75070190
143.66082764 157.11524963 381.20550537
141.21008301 157.07202148 381.26812744
144.10195923 157.09143066 381.17221069
143.72421265 157.08038330 381.22238159
123.48244476 160.47067261 346.78576660
121.20813751 160.45281982 346.83447266
123.76269531 160.42303467 346.79119873
123.52261353 160.42788696 346.81530762
164.35546875 169.42262268 293.24722290
159.86691284 169.35260010 293.11517334
164.92550659 169.38716125 293.28790283
164.37831116 169.32937622 293.24462891
135.46865845 166.49644470 380.16464233
133.18191528 166.46545410 380.20928955
135.89591980 166.47651672 380.14053345
135.56286621 166.47216797 380.17385864
111.60616302 174.43238831 347.65023804
109.71492004 174.41630554 347.71817017
111.78824615 174.40197754 347.65304565
111.65763855 174.40109253 347.68692017
130.12652588 166.63435364 328.43750000
127.20155334 166.60656738 328.46496582
130.52471924 166.58877563 328.43881226
130.15853882 166.58857727 328.45816040
152.26068115 149.90328979 321.98016357
148.32939148 149.81430054 321.95217896
152.80590820 149.83447266 322.00427246
152.23320007 149.78326416 322.01565552
155.06504822 154.71972656 311.48519897
150.74774170 154.60214233 311.44079590
155.69348145 154.64897156 311.50729370
155.07189941 154.57080078 311.52313232
143.87207031 176.06677246 379.06857300
141.16874695 175.99835205 379.13928223
144.37937927 176.04377747 379.07287598
144.01745605 176.00711060 379.14706421
154.19277954 182.82095337 382.85720825
151.08209229 182.75947571 382.92434692
154.69087219 182.80111694 382.83834839
154.20785522 182.77349854 382.92001343
156.43153381 163.41798401 300.68972778
151.97448730 163.35122681 300.59390259
157.01745605 163.36390686 300.73229980
156.39111328 163.31848145 300.70849609
170.08435059 199.05021667 391.58480835
166.71617126 198.97726440 391.68518066
170.62454224 199.05590820 391.56790161
170.06823730 199.01809692 391.67681885
123.08330536 170.76669312 379.12295532
121.19332886 170.74060059 379.17510986
123.37864685 170.73379517 379.10171509
123.16790009 170.73114014 379.12969971
110.01720428 167.90307617 373.66275024
108.33292389 167.85942078 373.75857544
110.25588989 167.88034058 373.67327881
110.14735413 167.85292053 373.72607422
134.43325806 177.97286987 312.65335083
131.19943237 177.96443176 312.66036987
134.82879639 177.92807007 312.67727661
134.44308472 177.94117737 312.69018555
134.17364502 154.36016846 336.90478516
131.15455627 154.28005981 336.94415283
134.60644531 154.29638672 336.91281128
134.21614075 154.24804688 336.95071411
115.71855164 183.69854736 376.46356201
114.01964569 183.67189026 376.52410889
115.95474243 183.68571472 376.45895386
115.82054138 183.67929077 376.49435425
162.85792542 212.84744263 388.03558350
159.94252014 212.79835510 388.10275269
163.34060669 212.80621338 388.05313110
162.82267761 212.79457092 388.13088989
312.68164062 232.95756531 358.92984009
310.08105469 242.05532837 368.84906006
324.66430664 232.44628906 348.47512817
321.95175171 241.86752319 358.86892700
304.35107422 249.37023926 375.45529175
299.54574585 257.19110107 384.46368408
315.80252075 247.70497131 365.49777222
311.65798950 255.10447693 375.10415649
291.56793213 221.61756897 343.33093262
296.20300293 228.35308838 351.10070801
304.82830811 220.53993225 338.38513184
309.98687744 227.50105286 346.86575317
272.36529541 223.09103394 368.42050171
270.07156372 228.15078735 376.05410767
284.44213867 222.46643066 363.93334961
282.52603149 227.87187195 371.61801147
289.78720093 267.37261963 382.22515869
285.17767334 271.90341187 392.51678467
299.67980957 262.87854004 377.11071777
296.18862915 266.40057373 388.15145874
272.33654785 263.28076172 399.50503540
265.67337036 268.75430298 407.78982544
283.62841797 262.25817871 392.19277954
278.49108887 266.77514648 401.28839111
289.57012939 237.59210205 354.64724731
293.46249390 245.20230103 361.13803101
303.66049194 236.73872375 354.87548828
307.39321899 244.21696472 362.01748657
267.54614258 236.46632385 380.21353149
263.04833984 242.55436707 386.10311890
279.01248169 236.68232727 377.15539551
274.90307617 242.74324036 383.24822998
263.57080078 222.32756042 352.04666138
269.53805542 228.22674561 354.92178345
275.99694824 223.19982910 350.45483398
282.77075195 228.59516907 353.10009766
279.38543701 251.33981323 357.16058350
282.73510742 259.15856934 362.29360962
292.33032227 250.81576538 361.43917847
295.55657959 258.39617920 367.21917725
255.95208740 249.49206543 392.24810791
250.48492432 255.16354370 397.49606323
266.62252808 250.36167908 390.92987061
261.71505737 255.77351379 396.69494629
265.73934937 278.57641602 383.98458862
262.58758545 278.43435669 395.62118530
275.58847046 275.24694824 387.08419800
273.46658325 274.91110229 398.60162354
247.08416748 230.68603516 383.00988770
242.28311157 236.16384888 387.38265991
257.03637695 232.37399292 382.47625732
252.86628723 237.69432068 386.99215698
249.78941345 218.47883606 364.02059937
251.35745239 222.37039185 369.64523315
259.27301025 219.42997742 361.13058472
262.00128174 223.06695557 366.51901245
249.18569946 222.82142639 375.35501099
246.56808472 227.76187134 380.69076538
258.71014404 224.26443481 373.68069458
257.22949219 228.91651917 379.00955200
262.08428955 237.02070618 352.17330933
267.26629639 245.39062500 354.25991821
274.35720825 237.82406616 354.65045166
279.66687012 245.56939697 356.91848755
241.29830933 258.59301758 405.60025024
234.89051819 263.28555298 411.48666382
252.51142883 260.48907471 408.08990479
247.04852295 264.89218140 414.68710327
265.28286743 274.33984375 364.76651001
265.93884277 278.01617432 373.87063599
275.66867065 272.26013184 369.85592651
276.34515381 275.63214111 378.72171021
235.41775513 207.61793518 380.99029541
232.90736389 212.40621948 386.67080688
242.97021484 211.74278259 378.69989014
242.18707275 215.75856018 384.46926880
239.12921143 240.44712830 391.54687500
233.35665894 245.78340149 395.14660645
248.98989868 242.54612732 392.77694702
243.80897522 247.74089050 396.76400757
230.33366394 217.28016663 388.15835571
223.95565796 222.44088745 390.86627197
239.48461914 221.69071960 389.36874390
234.38348389 226.81419373 392.84930420
234.61332703 200.90634155 369.42977905
236.45309448 205.05619812 375.45556641
240.25605774 205.92872620 364.53933716
243.70895386 208.80596924 370.79177856
258.20043945 260.67471313 353.21395874
261.85870361 267.96356201 357.95861816
269.23159790 260.86334229 357.27230835
272.84942627 267.72442627 361.93502808
236.96064758 210.30947876 354.01519775
241.65318298 215.18077087 357.01959229
245.63916016 214.47743225 352.06582642
251.78094482 218.08619690 355.44210815
243.89196777 223.32406616 348.06707764
249.02502441 230.45755005 348.85473633
254.20062256 225.74160767 349.57379150
260.48287964 232.04087830 350.69079590
241.08496094 280.34091187 395.01467896
237.70974731 279.33908081 406.23843384
251.75361633 279.00070190 402.00558472
249.66133118 277.51263428 412.85903931
226.58602905 248.65092468 397.37902832
220.02287292 253.69459534 400.55526733
236.00086975 251.10253906 401.50866699
230.30599976 256.00573730 405.27438354
223.56301880 263.27822876 408.58575439
215.35269165 267.47277832 412.32489014
234.28240967 265.08486938 415.55749512
227.28298950 268.70376587 420.19683838
221.54873657 227.01635742 388.03601074
213.82575989 231.98022461 388.74172974
230.92315674 231.37158203 391.68893433
224.63877869 236.49291992 393.66543579
243.82865906 278.99539185 369.64736938
244.62963867 280.46115112 379.64105225
253.88726807 278.17419434 374.92724609
254.78506470 279.30795288 384.38891602
245.64674377 245.40660095 348.05697632
250.13391113 253.78077698 349.74884033
255.92773438 246.38447571 351.16244507
260.89266968 254.24365234 352.81414795
237.92469788 231.89404297 343.81613159
242.38632202 239.81706238 344.74081421
247.56938171 233.56143188 347.05514526
253.15997314 240.70768738 348.23068237
240.59976196 269.39035034 354.12799072
243.70895386 274.86389160 360.71029663
250.90097046 270.17321777 357.98840332
253.98036194 275.28713989 364.26852417
216.82641602 209.38800049 382.35522461
212.48291016 214.62852478 387.35632324
222.96182251 215.24249268 380.63516235
221.54714966 218.94543457 386.44921875
217.67820740 178.52481079 367.44049072
216.90657043 185.14329529 373.58334351
219.11203003 188.58767700 359.63238525
219.63003540 193.32807922 367.45751953
232.32878113 253.68554688 346.33901978
236.84359741 261.43832397 349.71212769
242.20542908 254.81611633 349.91534424
247.08523560 262.23690796 352.92666626
217.99476624 178.76422119 350.94537354
219.81112671 185.93814087 354.35330200
219.53659058 191.03289795 344.45669556
223.36402893 196.02548218 349.90472412
211.16772461 237.63679504 382.84442139
203.21278381 242.76771545 383.48846436
220.00372314 241.02584839 389.52249146
213.59379578 246.33126831 391.04464722
215.97357178 201.82250977 370.64971924
215.37556458 207.32585144 376.57336426
221.79347229 210.04666138 367.56607056
224.01417542 212.84941101 374.58038330
207.99681091 251.86972046 394.14959717
200.11422729 256.98574829 395.80313110
217.60745239 255.17364502 401.72253418
211.03578186 260.23220825 404.19329834
213.09155273 162.17718506 361.23699951
214.43759155 169.22555542 366.29077148
213.92578125 173.12002563 353.01177979
215.63146973 178.55526733 359.70474243
208.88211060 214.37741089 385.70730591
201.11018372 219.66580200 388.52282715
215.43887329 219.54769897 385.30081177
210.58036804 223.91355896 389.56985474
221.97775269 279.52902222 373.34906006
222.95748901 280.28350830 383.70877075
231.73550415 279.20715332 379.94412231
233.21720886 279.55044556 389.58453369
214.52111816 199.03997803 356.89028931
216.05709839 204.94340515 361.80096436
220.54212952 208.74531555 354.74887085
225.02185059 211.40228271 361.38223267
217.85005188 203.13183594 342.59936523
220.82518005 209.41300964 345.65963745
223.66409302 211.36663818 343.32507324
229.49943542 215.37602234 348.04101562
223.09323120 275.75918579 360.15377808
225.72839355 279.59088135 368.50030518
233.23110962 276.88482666 364.76757812
236.03704834 280.43560791 372.80978394
221.63598633 217.90478516 335.75637817
225.55706787 224.73606873 337.06570435
228.04804993 220.85862732 339.89611816
233.58543396 226.95358276 341.67098999
211.97109985 187.16395569 384.55065918
206.96786499 193.83776855 390.32745361
213.97154236 195.29020691 377.16604614
210.51438904 200.34239197 384.71453857
223.58323669 239.46646118 339.34652710
227.17550659 245.97853088 342.12747192
231.66160583 239.99476624 343.92678833
236.02534485 245.96522522 346.29113770
212.17433167 275.19815063 385.44235229
210.03182983 275.31613159 395.04660034
221.63970947 274.86248779 393.81228638
221.52479553 274.24459839 402.87384033
206.09852600 160.21917725 346.43905640
209.08110046 168.56570435 347.69357300
208.64695740 174.12223816 341.96624756
212.42013550 180.77052307 345.19250488
204.51306152 226.75247192 372.25646973
199.24487305 231.91957092 376.34033203
211.96205139 230.62992859 376.86386108
209.54928589 235.14050293 381.30206299
207.66908264 233.21986389 365.89123535
205.63352966 238.49975586 370.41989136
214.82119751 235.88002014 370.31082153
214.92001343 240.52572632 374.88308716
207.68611145 169.05143738 383.44351196
202.51156616 176.47648621 389.58633423
210.85914612 177.89062500 375.71624756
206.65821838 183.40248108 383.65844727
216.87005615 264.05752563 348.42248535
220.46871948 270.43765259 354.21099854
226.51791382 265.37960815 352.59680176
230.20384216 271.76080322 357.74899292
200.58560181 202.82432556 399.81680298
191.03242493 208.99589539 400.99151611
204.90463257 206.65974426 392.34387207
196.78794861 211.88854980 396.09790039
193.24461365 241.55892944 375.91589355
183.87234497 246.53875732 375.78305054
202.36364746 245.69496155 385.93127441
194.86199951 250.87057495 386.39541626
202.61796570 169.46482849 336.71563721
204.41304016 179.33509827 334.14166260
207.44030762 181.43981934 337.67648315
211.13261414 190.14385986 337.29687500
205.23768616 242.25590515 365.76034546
203.25852966 247.70603943 370.49649048
212.50459290 244.11268616 371.33923340
212.26930237 249.36065674 375.88916016
209.18537903 194.53472900 329.91812134
211.15974426 203.00254822 329.67922974
214.15136719 201.47668457 334.90856934
218.55445862 208.92300415 336.02185059
196.46766663 188.88667297 399.38159180
186.75488281 195.12208557 400.56961060
202.73927307 192.45129395 394.63745117
194.55023193 198.11956787 398.07440186
214.83874512 228.32835388 330.49935913
218.75769043 235.15113831 333.89691162
221.97436523 228.69013977 336.71243286
226.61262512 235.34906006 339.56518555
195.80369568 260.30908203 385.98794556
187.41247559 263.90667725 388.62603760
205.18875122 261.77682495 395.58605957
199.95141602 264.88601685 398.93041992
213.68423462 251.95005798 336.84545898
217.65213013 258.43447876 342.35412598
222.70217896 251.76332092 342.16683960
226.81692505 258.28390503 346.75296021
204.24598694 277.44970703 361.92227173
206.51882935 279.73211670 371.56268311
213.56932068 277.94464111 368.26620483
216.28959656 280.16107178 377.28735352
203.34791565 271.15695190 347.52545166
206.43582153 275.76010132 355.86346436
212.73616028 271.68048096 353.02453613
216.04006958 276.45175171 360.63900757
204.79716492 209.27096558 319.10058594
207.94360352 218.32402039 321.03875732
211.52737427 210.72872925 327.43591309
215.49208069 219.48171997 329.24591064
190.39718628 209.37722778 373.22262573
186.84852600 214.78373718 378.73236084
198.05665588 214.72203064 376.61700439
197.36840820 218.22067261 382.57363892
184.37882996 228.36666870 369.35607910
175.14274597 234.09132385 370.83059692
193.58511353 230.56182861 377.79013062
186.57293701 236.42056274 379.26864624
184.21710205 175.48876953 395.96035767
172.63581848 181.91998291 395.03488159
195.81114197 177.32614136 395.99926758
185.50674438 182.87629700 396.71450806
192.03184509 278.40588379 368.94201660
193.67131042 277.18649292 379.12088013
201.15487671 277.57446289 376.56924438
203.57189941 276.21405029 385.76275635
171.09078979 205.80104065 394.77206421
159.63294983 210.92344666 391.65328979
181.88040161 206.18197632 394.79440308
171.37596130 211.10647583 392.90142822
206.83697510 241.06874084 322.17730713
210.89106750 248.17030334 328.47232056
215.24522400 239.60371399 329.61511230
219.12480164 246.92980957 334.81414795
191.50328064 163.66726685 323.76489258
192.70513916 174.18023682 317.99127197
199.30712891 171.44772339 328.93838501
201.26127625 181.25625610 325.35247803
174.06591797 219.24763489 383.75579834
163.08264160 224.51261902 381.05520630
183.59568787 219.86798096 382.42251587
173.20190430 224.94357300 380.71844482
195.33337402 186.59999084 315.47476196
196.91590881 197.69606018 312.09637451
202.32853699 191.77348328 322.63806152
205.46646118 201.57882690 321.18759155
202.47857666 227.10946655 312.95401001
206.74121094 235.55601501 318.54672241
210.74316406 226.11830139 321.57293701
214.67062378 234.74998474 326.20159912
173.98078918 247.58047485 363.47366333
166.03010559 251.98677063 367.81930542
184.43415833 249.84906006 375.16348267
178.44985962 254.72567749 379.10159302
177.97901917 274.46725464 368.19174194
177.68293762 271.02926636 377.42141724
187.14221191 272.76782227 376.68936157
188.18099976 269.66714478 384.84432983
198.96821594 265.20870972 327.33590698
202.20829773 270.44815063 336.12295532
208.24154663 263.85952759 333.91607666
211.40501404 269.40545654 341.88806152
181.56065369 215.57713318 360.56344604
180.52638245 220.67613220 366.81375122
190.43894958 218.77145386 368.05447388
190.89390564 223.57997131 374.13241577
185.39660645 279.80819702 347.64730835
187.89875793 281.32397461 358.01980591
194.65344238 279.22424316 354.61480713
197.10929871 280.74212646 364.40417480
155.70016479 193.48449707 389.35437012
144.34446716 199.34962463 386.56066895
167.54959106 193.67283630 391.55114746
157.28775024 198.62072754 389.59606934
193.33613586 209.49002075 301.42965698
197.16143799 220.09236145 304.12225342
202.06890869 210.40298462 309.74053955
205.75588989 220.26261902 312.53317261
195.52597046 252.53317261 312.57931519
199.11932373 259.00692749 320.72366333
204.75354004 250.98788452 319.75537109
207.93508911 257.80853271 327.34216309
187.07411194 189.45382690 300.00698853
189.37194824 201.14575195 296.86163330
195.93882751 193.34403992 305.85882568
199.00865173 203.33773804 304.33413696
157.73252869 256.59310913 354.61853027
157.11164856 260.19018555 364.38876343
169.44282532 260.17260742 364.32916260
168.48384094 264.29586792 373.27157593
183.59620667 275.43289185 329.41720581
186.69424438 279.36779785 339.22363281
193.14247131 275.62603760 335.27593994
196.05801392 279.64181519 344.96746826
176.97399902 162.22653198 306.91650391
177.75930786 173.04168701 300.10009766
186.42503357 168.23849487 308.98928833
187.91844177 178.31571960 303.78921509
159.59251404 233.80470276 362.78094482
150.20745850 237.99604797 362.53356934
167.35592651 235.94493103 365.90167236
158.60717773 240.79281616 366.00109863
189.92793274 238.13903809 299.74496460
194.03309631 245.56832886 306.90185547
199.66305542 237.24787903 307.13809204
203.24682617 244.96554565 313.89065552
166.28759766 278.52755737 349.32159424
170.00970459 279.39291382 359.43872070
176.47814941 280.15283203 355.21652222
180.04170227 280.65545654 365.34640503
143.72305298 217.85530090 375.77743530
132.46099854 222.16688538 373.80679321
153.79336548 221.75244141 375.35287476
143.50172424 225.61499023 373.40298462
181.09512329 263.67553711 312.20916748
184.58526611 269.38742065 320.76849365
191.21331787 264.26196289 317.37411499
194.47254944 270.18240356 326.08242798
149.15722656 272.10864258 356.67428589
153.59118652 271.65493774 366.83398438
160.13305664 275.34857178 361.51007080
163.88494873 274.37948608 371.43566895
164.55317688 274.45025635 333.52236938
168.03906250 278.10742188 343.21813965
174.28511047 277.36791992 338.23510742
177.79866028 280.76440430 348.49694824
180.57373047 219.01141357 288.35736084
184.84489441 228.92848206 292.37524414
191.13139343 220.75860596 293.95858765
194.99606323 230.06491089 298.15631104
137.65362549 239.72236633 356.42956543
131.22668457 244.07864380 362.92886353
144.53599548 246.45150757 357.91711426
139.58808899 251.77183533 363.56518555
177.54966736 251.22383118 299.04669189
181.23132324 257.55288696 306.46960449
187.95941162 252.45495605 303.90521240
191.36335754 258.99575806 311.53454590
131.39266968 260.00238037 359.55792236
135.80215454 261.85757446 369.06213379
141.47149658 266.94433594 361.24337769
145.10952759 268.43719482 370.25601196
173.67753601 198.26426697 286.75094604
176.79364014 209.82000732 285.27828979
183.86595154 202.11193848 289.20886230
187.38481140 212.49081421 288.88906860
168.10076904 175.06127930 292.15048218
169.38137817 186.24246216 286.93762207
177.93591309 179.94534302 292.43032837
179.91827393 190.30294800 288.65820312
164.80642700 266.52401733 317.10812378
168.13482666 271.94860840 325.62274170
174.25318909 269.78112793 320.46096802
177.57200623 275.34191895 329.73748779
146.13742065 269.37411499 344.32901001
150.10317993 271.93585205 353.49273682
155.62567139 274.41299438 347.41427612
159.53930664 276.64379883 357.32708740
169.12333679 231.39605713 285.59796143
173.06356812 239.84686279 290.74060059
180.16833496 234.11926270 288.44433594
183.80422974 242.51153564 293.98492432
144.26785278 263.69891357 331.71133423
147.40258789 268.62023926 339.96209717
152.60054016 269.65875244 333.29254150
155.99703979 274.61196899 342.45837402
131.20858765 258.53289795 346.89129639
134.93280029 262.40396118 355.16970825
139.15396118 266.02816772 347.40203857
143.23358154 269.80239868 356.46362305
159.65954590 254.75759888 302.67089844
162.79321289 260.90362549 310.17678833
168.93818665 258.77816772 304.68728638
172.16549683 265.14978027 312.94018555
148.91036987 261.14624023 319.44265747
151.89932251 266.64746094 327.66577148
157.23454285 266.38357544 320.97918701
160.45120239 271.97628784 330.15780640
154.72654724 175.46987915 291.02362061
154.98510742 185.93601990 286.46838379
163.12200928 180.46885681 287.61331177
164.57379150 190.56362915 283.98910522
158.06451416 241.05563354 290.68951416
161.34396362 248.25721741 296.72277832
167.67301941 245.60664368 291.73443604
171.02482605 252.96571350 298.32098389
155.95446777 193.53822327 284.75097656
158.01025391 204.61300659 282.22488403
165.02775574 198.83407593 282.22116089
167.83901978 209.25659180 280.74502563
116.96980286 238.50080872 350.75384521
119.93482208 243.75729370 358.58749390
122.87483215 247.49855042 348.46823120
126.29898834 252.65074158 356.35931396
156.88871765 213.80786133 282.47866821
160.35119629 223.85263062 283.92419434
166.79942322 218.82598877 281.49707031
170.43852234 228.49407959 283.82043457
128.53405762 248.02632141 331.82199097
130.99737549 254.21492004 339.41943359
134.63806152 255.94296265 331.18142700
137.67277527 262.44015503 339.47476196
144.66156006 247.89224243 305.52471924
147.02165222 254.40007019 312.51348877
152.15682983 253.86590576 305.37573242
154.80421448 260.63973999 313.15618896
134.52102661 246.99417114 318.55950928
136.57147217 253.37217712 326.13775635
140.73196411 254.14895630 317.96575928
143.36764526 260.82916260 326.34844971
116.35184479 223.76351929 339.10446167
117.58695984 231.28007507 346.12942505
120.41896820 232.76763916 335.88885498
122.58327484 240.28417969 342.55413818
146.50877380 217.88775635 286.19702148
148.94654846 227.40687561 288.57202148
154.42541504 224.18409729 283.27935791
157.42395020 233.62020874 286.37899780
141.66781616 231.79295349 296.27160645
143.47564697 239.88197327 301.34930420
148.11764526 238.52900696 294.17752075
150.50965881 246.80105591 299.67236328
139.00790405 200.03488159 293.75720215
139.89773560 210.33076477 294.94610596
144.25242615 206.98640442 288.60501099
146.31404114 217.21846008 290.71984863
124.29492188 228.27728271 323.37969971
125.15406036 236.00665283 330.41104126
128.67611694 236.80470276 320.56207275
130.48928833 244.70431519 327.67001343
133.57693481 231.71633911 306.46533203
134.88519287 239.52018738 312.60287476
138.57191467 239.11158752 304.59259033
140.68194580 247.24530029 311.13870239
117.97188568 209.89662170 331.04098511
117.45687866 218.83052063 337.20617676
121.15557098 218.19207764 326.48464966
121.69956970 227.16001892 332.15399170
140.19195557 188.08543396 292.48724365
140.44041443 198.36854553 291.50457764
145.79371643 194.25508118 287.30334473
147.50793457 204.31581116 286.85516357
138.32929993 208.91874695 292.56121826
139.47531128 218.57620239 295.04418945
143.76135254 215.92083740 288.23577881
146.00971985 225.57402039 291.38702393
141.49363708 214.43832397 288.68054199
143.21156311 224.32986450 290.66448975
148.25915527 221.11239624 284.72650146
150.78950500 230.87200928 287.30737305
136.66323853 218.89648438 296.05877686
137.86404419 227.97508240 300.10009766
142.16950989 226.15473938 292.56652832
144.33169556 235.37805176 297.13241577
183.64888000 141.17214966 381.17105103
183.64450073 141.18476868 381.17834473
183.65333557 141.17193604 381.18026733
183.66233826 141.17974854 381.18157959
111.46302032 238.93714905 339.12222290
111.46443939 238.94117737 339.13134766
111.45089722 238.91882324 339.13107300
111.46287537 238.91821289 339.14703369
164.38336182 169.31036377 293.24230957
164.37390137 169.32498169 293.25164795
164.38586426 169.29664612 293.24227905
164.38998413 169.30511475 293.25219727
110.12248993 167.87033081 373.70806885
110.11825562 167.87149048 373.71115112
110.12166595 167.84552002 373.70291138
110.12412262 167.84683228 373.70648193
177.96876526 211.49000549 351.96087646
177.98088074 211.48905945 351.97842407
177.96508789 211.47892761 351.96307373
177.98472595 211.47694397 351.97473145
148.55197144 142.86938477 338.72656250
148.54510498 142.88076782 338.72955322
148.54487610 142.87216187 338.73855591
148.54870605 142.87686157 338.73992920
124.81710052 187.95919800 323.52325439
124.80744934 187.96707153 323.52355957
124.80707550 187.95877075 323.52618408
124.80504608 187.95896912 323.52993774
154.21176147 182.78906250 382.89727783
154.21163940 182.78558350 382.90850830
154.21139526 182.78202820 382.88815308
154.22302246 182.78176880 382.89273071
193.23481750 161.35432434 339.95581055
193.22387695 161.37120056 339.96423340
193.22938538 161.36013794 339.97674561
193.23329163 161.37149048 339.97735596
137.63664246 220.72546387 368.15728760
137.62742615 220.73606873 368.16137695
137.62512207 220.72241211 368.16574097
137.62649536 220.73246765 368.16717529
97.60375214 203.07255554 355.30212402
97.60654449 203.07009888 355.31533813
97.60462189 203.05143738 355.29229736
97.61372375 203.04484558 355.31079102
145.48886108 145.96040344 376.89413452
145.47895813 145.97381592 376.89785767
145.48544312 145.96066284 376.89990234
145.48942566 145.96911621 376.89871216
134.32000732 214.89077759 301.08813477
134.31530762 214.90209961 301.08557129
134.31930542 214.88125610 301.09146118
134.32481384 214.88362122 301.09756470
162.81596375 212.77793884 388.03591919
162.81275940 212.77873230 388.04919434
162.81292725 212.76635742 388.04940796
162.82244873 212.76864624 388.06024170
141.79098511 162.54611206 313.86120605
141.78025818 162.55633545 313.86489868
141.79005432 162.53666687 313.86227417
141.78796387 162.54238892 313.86688232
173.62696838 151.12048340 316.82397461
173.61338806 151.13137817 316.82931519
173.62742615 151.11767578 316.82626343
173.62753296 151.12631226 316.82885742
123.51544952 160.40405273 346.81185913
123.50552368 160.41271973 346.81143188
123.50779724 160.40634155 346.81527710
123.50646973 160.40817261 346.81576538
176.07678223 139.08526611 348.69226074
176.06652832 139.09941101 348.69888306
176.07215881 139.09109497 348.70593262
176.07629395 139.09725952 348.70605469
125.52601624 195.75765991 374.22851562
125.52458954 195.76542664 374.23233032
125.51091003 195.75643921 374.23526001
125.51943207 195.76225281 374.23736572
179.29467773 185.57893372 395.24041748
179.29911804 185.58381653 395.25787354
179.29292297 185.57128906 395.26477051
179.31207275 185.57853699 395.27618408
151.17303467 230.08961487 345.60305786
151.16772461 230.10104370 345.61340332
151.16156006 230.09031677 345.59930420
151.16528320 230.09976196 345.60610962
120.85284424 215.83567810 324.10598755
120.84844971 215.84223938 324.10934448
120.84564209 215.82571411 324.11154175
120.84843445 215.82449341 324.12103271
139.79800415 187.71258545 301.99899292
139.78704834 187.72454834 302.00064087
139.79249573 187.70965576 302.01080322
139.79168701 187.71246338 302.01721191
168.89503479 160.95782471 387.93048096
168.89166260 160.95391846 387.94403076
168.89102173 160.93713379 387.92272949
168.90219116 160.93707275 387.92745972
115.15802002 222.61628723 358.16537476
115.15700531 222.61857605 358.16513062
115.14641571 222.60241699 358.17053223
115.15428925 222.60064697 358.17620850
108.76502228 184.47862244 343.83267212
108.76115417 184.48107910 343.83483887
108.76372528 184.45890808 343.83108521
108.76560974 184.45960999 343.83718872
135.51640320 166.42980957 380.15908813
135.51333618 166.43968201 380.16122437
135.50617981 166.42712402 380.16253662
135.51312256 166.43505859 380.16015625
100.25038910 188.29318237 373.85427856
100.24958801 188.29437256 373.86578369
100.25247192 188.26696777 373.85427856
100.25756836 188.26696777 373.86422729
165.32841492 223.28213501 366.43353271
165.32138062 223.28274536 366.44030762
165.32165527 223.28112793 366.43981934
165.32727051 223.28172302 366.44531250
162.02969360 138.24929810 365.99411011
162.01921082 138.26196289 365.99868774
162.02578735 138.25308228 366.00720215
162.02780151 138.26077271 366.00680542
126.14990997 154.52563477 366.06280518
126.14245605 154.53384399 366.06488037
126.14494324 154.52343750 366.06552124
126.14592743 154.52764893 366.06668091
144.93728638 206.47052002 379.42205811
144.93669128 206.46894836 379.43450928
144.93774414 206.46191406 379.42004395
144.95082092 206.46292114 379.42837524
109.94824219 214.73541260 340.19284058
109.94936371 214.73724365 340.19937134
109.94518280 214.71678162 340.19284058
109.95386505 214.71505737 340.20327759
128.69929504 231.57168579 344.25454712
128.69818115 231.58078003 344.26147461
128.68701172 231.56346130 344.25695801
128.69244385 231.56878662 344.26489258
130.15020752 166.53625488 328.47781372
130.13903809 166.54629517 328.47860718
130.14521790 166.53500366 328.48233032
130.14334106 166.53756714 328.48489380
152.31991577 149.83000183 322.00851440
152.31135559 149.83906555 322.00927734
152.32104492 149.82209778 322.01162720
152.32124329 149.82858276 322.01193237
167.73295593 142.88270569 333.01864624
167.72126770 142.88909912 333.02026367
167.73199463 142.87237549 333.01760864
167.73242188 142.87875366 333.01559448
140.50498962 146.19436646 359.52728271
140.49546814 146.20703125 359.52890015
140.50566101 146.19668579 359.53628540
140.50588989 146.20375061 359.53601074
188.24433899 140.65910339 361.60726929
188.23606873 140.67135620 361.61706543
188.24320984 140.66241455 361.61923218
188.25086975 140.66899109 361.62075806
110.18194580 206.05438232 367.27987671
110.18018341 206.05549622 367.27770996
110.17230225 206.04632568 367.28543091
110.18006134 206.04357910 367.28735352
148.27969360 170.90946960 299.60858154
148.27069092 170.91958618 299.61795044
148.28332520 170.89656067 299.61453247
148.28417969 170.90139771 299.62371826
152.07627869 162.35494995 382.19165039
152.07449341 162.35253906 382.19903564
152.07431030 162.33853149 382.18164062
152.08349609 162.33923340 382.18399048
128.54298401 204.53628540 314.09463501
128.53800964 204.54447937 314.09896851
128.53759766 204.52470398 314.09643555
128.54071045 204.52815247 314.10507202
150.73883057 185.57159424 289.25115967
150.73040771 185.58398438 289.25646973
150.74145508 185.55529785 289.24453735
150.74325562 185.56213379 289.25540161
100.46694946 184.63325500 357.77285767
100.46526337 184.63467407 357.77929688
100.46816254 184.61242676 357.76129150
100.47259521 184.61079407 357.77117920
119.95240784 232.00257874 324.62771606
119.95008087 232.00939941 324.62152100
119.94724274 231.98805237 324.63363647
119.95326233 231.98718262 324.63644409
163.19772339 144.95530701 380.66235352
163.18736267 144.96943665 380.66775513
163.19219971 144.95443726 380.66976929
163.19746399 144.96650696 380.66854858
170.05331421 199.03453064 391.65054321
170.05668640 199.02865601 391.67114258
170.05183411 199.02789307 391.65316772
170.07011414 199.02717590 391.66720581
114.76567078 196.82949829 335.78942871
114.76299286 196.83428955 335.79409790
114.76010895 196.82186890 335.79034424
114.76299286 196.81954956 335.79861450
115.77019501 183.67257690 376.45709229
115.76759338 183.67599487 376.45959473
115.76268005 183.66494751 376.46109009
115.76951599 183.66485596 376.46289062
185.38632202 148.16595459 337.58935547
185.37092590 148.18240356 337.59558105
185.37236023 148.17182922 337.59939575
185.37590027 148.18261719 337.59951782
140.92691040 201.27574158 294.51083374
140.91807556 201.28752136 294.51379395
140.92970276 201.26095581 294.50625610
140.93038940 201.26635742 294.51586914
108.98947144 171.04255676 358.55963135
108.98615265 171.04660034 358.56054688
108.99307251 171.02249146 358.55053711
108.99496460 171.02252197 358.55426025
134.46408081 177.88439941 312.68804932
134.45486450 177.89450073 312.69107056
134.45454407 177.88108826 312.69638062
134.45382690 177.88331604 312.70175171
134.24401855 154.30372620 336.93185425
134.23663330 154.31146240 336.92953491
134.24310303 154.29385376 336.93228149
134.24163818 154.29882812 336.93093872
118.47124481 174.16505432 338.04260254
118.46580505 174.17120361 338.04339600
118.46958923 174.14944458 338.04077148
118.46924591 174.15159607 338.04385376
130.54806519 180.46676636 377.75488281
130.54541016 180.47418213 377.75717163
130.53567505 180.46519470 377.75781250
130.54241943 180.47161865 377.75634766
165.19812012 156.69020081 305.91900635
165.18594360 156.70184326 305.92758179
165.20004272 156.68328857 305.91995239
165.19923401 156.69075012 305.92691040
193.73115540 153.71343994 352.52172852
193.71958923 153.72906494 352.53039551
193.73551941 153.71298218 352.54431152
193.73818970 153.72387695 352.54632568
154.80082703 197.09642029 384.24230957
154.80081177 197.09269714 384.25378418
154.79833984 197.08953857 384.23593140
154.81146240 197.08981323 384.24279785
141.76649475 225.82955933 355.24069214
141.75877380 225.83937073 355.24645996
141.75245667 225.82269287 355.24578857
141.75350952 225.83155823 355.24856567
130.89398193 208.60752869 370.77832031
130.88815308 208.61643982 370.78070068
130.87884521 208.60191345 370.78695679
130.88259888 208.61003113 370.78717041
157.53160095 137.99792480 352.73675537
157.52265930 138.01043701 352.74206543
157.52297974 138.00250244 352.73944092
157.52751160 138.00885010 352.74023438
151.44241333 218.73518372 379.22726440
151.44061279 218.73382568 379.24002075
151.43737793 218.72734070 379.23504639
151.45108032 218.72915649 379.24401855
102.22945404 218.82743835 356.14147949
102.23361969 218.82669067 356.15252686
102.22203827 218.80313110 356.14410400
102.23468781 218.80035400 356.15975952
124.43984985 158.63188171 379.01675415
124.43430328 158.64118958 379.02124023
124.43202209 158.62644958 379.01699829
124.43565369 158.63136292 379.01828003
128.03073120 219.48234558 312.14474487
128.02465820 219.48995972 312.14611816
128.02136230 219.47219849 312.14318848
128.02389526 219.47232056 312.15191650
165.94718933 186.42996216 388.03979492
165.94911194 186.42483521 388.05343628
165.94223022 186.42010498 388.03073120
165.95753479 186.41915894 388.03878784
180.92990112 157.00042725 391.80575562
180.92820740 157.00823975 391.82330322
180.92416382 156.99380493 391.82196045
180.93655396 156.99974060 391.83306885
176.10192871 173.47271729 391.20004272
176.10032654 173.47770691 391.21649170
176.09686279 173.47445679 391.21105957
176.11035156 173.48016357 391.22039795
184.45989990 153.75851440 323.72869873
184.45042419 153.77516174 323.73367310
184.45138550 153.75868225 323.73846436
184.45809937 153.76852417 323.73956299
175.74649048 137.53811646 363.25735474
175.74049377 137.54983521 363.26406860
175.73919678 137.53985596 363.26724243
175.74716187 137.54745483 363.26828003
128.00866699 223.72756958 358.45944214
128.00415039 223.73635864 358.46249390
127.99613190 223.71670532 358.46704102
128.00018311 223.72282410 358.47048950
143.94497681 176.03804016 379.09124756
143.94473267 176.03535461 379.09796143
143.94238281 176.02328491 379.08493042
143.95317078 176.02362061 379.08697510
136.96578979 191.42323303 378.23312378
136.96412659 191.43232727 378.23715210
136.94801331 191.42788696 378.23693848
136.95706177 191.43734741 378.23748779
116.12360382 161.69511414 363.40429688
116.11465454 161.70146179 363.40014648
116.11354828 161.69636536 363.40362549
116.11284637 161.69718933 363.40042114
95.99964142 200.68264771 367.54315186
95.99921417 200.68321228 367.55447388
95.99642944 200.65730286 367.54040527
96.00429535 200.65603638 367.55383301
106.05636597 225.44676208 346.46667480
106.05791473 225.44863892 346.47683716
106.04690552 225.42366028 346.47174072
106.05663300 225.42204285 346.48648071
119.63941956 203.81407166 325.81677246
119.63481140 203.81967163 325.81652832
119.63264465 203.80670166 325.82260132
119.63432312 203.80563354 325.82916260
133.39642334 151.35104370 348.69790649
133.38409424 151.36294556 348.69744873
133.39500427 151.35119629 348.70794678
133.39132690 151.35629272 348.70617676
123.11933899 170.70315552 379.10485840
123.11717224 170.71159363 379.10589600
123.10992432 170.69938660 379.10565186
123.11704254 170.70428467 379.10571289
113.92270660 223.96519470 333.55526733
113.92042542 223.96932983 333.55484009
113.91316986 223.95445251 333.55517578
113.91857910 223.95223999 333.56216431
137.02902222 236.94783020 337.54980469
137.02894592 236.96076965 337.55294800
137.01519775 236.93968201 337.55834961
137.02122498 236.94761658 337.56280518
129.81405640 190.93226624 313.23388672
129.80566406 190.94180298 313.23718262
129.80874634 190.92340088 313.23297119
129.80877686 190.92846680 313.24105835
120.66147614 211.55337524 365.69281006
120.66095734 211.55944824 365.69763184
120.64691162 211.54608154 365.69989014
120.65598297 211.54910278 365.70370483
133.64663696 150.32702637 374.11257935
133.63977051 150.33802795 374.11242676
133.64520264 150.32516479 374.11154175
133.64741516 150.33181763 374.10879517
153.65353394 224.69429016 366.35760498
153.65235901 224.69468689 366.36706543
153.64871216 224.68930054 366.36407471
153.66175842 224.69117737 366.37057495
155.14405823 154.60958862 311.51556396
155.13369751 154.62042236 311.51696777
155.14407349 154.60098267 311.52020264
155.14338684 154.60789490 311.52197266
141.89627075 154.50518799 324.12078857
141.88775635 154.51385498 324.11956787
141.89633179 154.49468994 324.12493896
141.89610291 154.50125122 324.12466431
176.16763306 160.23243713 305.77410889
176.15855408 160.24638367 305.77813721
176.16696167 160.22692871 305.77825928
176.17237854 160.23799133 305.78134155
160.50170898 169.89874268 383.71990967
160.50074768 169.89544678 383.73159790
160.49810791 169.89358521 383.70855713
160.51106262 169.89326477 383.71377563
164.65992737 138.58743286 343.00531006
164.64923096 138.60150146 343.01159668
164.65399170 138.59182739 343.01547241
164.65623474 138.59939575 343.01770020
106.34941864 205.21102905 345.03594971
106.34986877 205.21047974 345.04241943
106.34162903 205.19239807 345.03225708
106.34779358 205.18994141 345.04364014
102.11653900 178.57553101 367.05297852
102.11302948 178.57727051 367.05630493
102.11551666 178.55230713 367.04467773
102.11766815 178.55224609 367.04949951
156.43957520 163.30334473 300.70330811
156.42901611 163.31547546 300.71142578
156.43952942 163.29678345 300.70617676
156.43957520 163.30346680 300.71472168
111.66278839 174.39936829 347.67794800
111.65547180 174.40216064 347.67443848
111.65859985 174.39707947 347.68554688
111.65775299 174.39352417 347.68801880
119.04856873 186.42129517 332.58697510
119.04068756 186.42637634 332.59088135
119.04345703 186.41790771 332.59359741
119.04331970 186.41564941 332.60049438
111.23109436 196.56542969 372.01712036
111.22872162 196.56971741 372.01699829
111.22163391 196.55891418 372.01647949
111.22966766 196.55812073 372.01712036
155.64526367 141.87837219 373.86117554
155.63484192 141.89208984 373.86642456
155.64161682 141.88131714 373.86938477
155.64410400 141.88943481 373.86889648
118.45923615 233.55195618 345.33160400
118.45901489 233.55644226 345.32891846
118.44648743 233.53233337 345.34072876
118.45419312 233.53115845 345.34603882
174.02090454 140.28826904 377.60406494
174.01113892 140.30096436 377.61227417
174.01643372 140.28417969 377.61688232
174.02172852 140.29232788 377.61874390
184.83016968 138.65161133 370.84567261
184.82058716 138.66677856 370.85290527
184.82960510 138.65408325 370.85699463
184.83607483 138.66294861 370.85690308
95.26348114 191.47236633 362.97485352
95.26252747 191.47154236 362.98638916
95.26308441 191.45153809 362.95822144
95.26832581 191.44735718 362.97390747
143.65724182 157.04409790 381.22448730
143.65084839 157.05804443 381.22451782
143.64965820 157.04431152 381.22769165
143.65502930 157.05654907 381.22351074
129.98596191 176.95346069 321.53872681
129.97698975 176.96153259 321.53936768
129.97482300 176.95065308 321.54861450
129.97497559 176.95179749 321.55230713
176.55924988 146.47438049 385.34399414
176.55245972 146.48590088 385.35260010
176.55363464 146.47491455 385.35278320
176.56155396 146.48501587 385.35479736
136.70532227 199.04180908 303.05300903
136.69729614 199.05220032 303.05429077
136.69790649 199.03622437 303.05908203
136.69943237 199.03897095 303.06579590
143.68586731 144.37850952 347.05206299
143.67437744 144.39163208 347.05523682
143.68136597 144.37979126 347.05810547
143.68119812 144.38601685 347.05993652
140.84228516 174.86444092 306.06210327
140.83070374 174.87478638 306.06521606
140.84152222 174.85215759 306.06134033
140.84028625 174.85873413 306.06634521
156.27362061 143.25296021 332.93511963
156.26228333 143.26675415 332.93841553
156.27244568 143.25387573 332.94036865
156.27305603 143.25955200 332.94134521
99.99473572 208.65434265 363.96597290
99.99690247 208.65316772 363.97903442
99.99150848 208.62953186 363.96633911
100.00170135 208.62661743 363.98199463
161.59777832 147.64584351 321.74124146
161.58517456 147.65499878 321.74340820
161.59400940 147.64193726 321.74200439
161.59413147 147.64804077 321.74105835
189.83447266 155.16223145 332.96374512
189.82385254 155.17825317 332.97024536
189.82711792 155.16534424 332.98065186
189.83267212 155.17553711 332.98190308
153.60989380 207.48060608 383.12100220
153.60752869 207.47917175 383.13696289
153.60279846 207.47534180 383.12170410
153.61671448 207.47682190 383.13171387
145.47563171 148.81832886 330.79177856
145.46591187 148.83065796 330.79388428
145.47035217 148.82376099 330.80072021
145.47161865 148.82807922 330.80276489
125.74330139 238.78680420 338.91598511
125.74502563 238.79402161 338.91424561
125.72857666 238.77128601 338.92272949
125.73723602 238.77256775 338.92645264
123.77793884 224.24349976 319.07659912
123.77326965 224.25064087 319.07427979
123.77136230 224.23287964 319.08084106
123.77368927 224.23233032 319.08752441
161.46235657 156.67495728 384.14724731
161.45913696 156.67080688 384.15499878
161.45576477 156.65911865 384.13888550
161.46478271 156.65933228 384.13967896
116.70464325 164.15373230 354.60385132
116.69457245 164.15924072 354.60012817
116.69805908 164.15373230 354.60650635
116.69755554 164.15277100 354.60549927
190.47708130 145.22511292 351.56927490
190.46504211 145.24154663 351.57647705
190.48033142 145.22650146 351.58428955
190.48326111 145.23699951 351.58596802
114.85083008 207.72854614 332.51028442
114.84623718 207.73350525 332.51232910
114.84195709 207.71751404 332.51019287
114.84434509 207.71575928 332.51654053
149.44863892 141.70878601 354.56423950
149.43804932 141.72209167 354.56729126
149.44879150 141.71298218 354.57348633
149.44836426 141.72027588 354.57421875
144.56597900 225.33462524 364.55764771
144.56469727 225.33416748 364.56765747
144.55810547 225.32237244 364.56243896
144.57012939 225.32289124 364.56936646
128.05642700 154.53291321 357.31616211
128.04922485 154.54133606 357.31637573
128.05123901 154.53637695 357.32034302
128.05271912 154.53845215 357.32147217
145.62442017 143.63249207 366.39996338
145.61598206 143.64349365 366.40301514
145.62042236 143.63154602 366.40301514
145.62330627 143.63720703 366.40216064
102.83218384 197.51577759 347.93167114
102.83143616 197.51646423 347.93878174
102.83105469 197.49475098 347.92523193
102.83580017 197.49237061 347.93484497
150.08451843 160.54185486 307.25531006
150.07171631 160.55090332 307.25891113
150.08413696 160.53150940 307.25720215
150.08160400 160.53674316 307.26156616
134.76324463 199.74389648 376.48294067
134.75888062 199.75303650 376.48867798
134.75021362 199.74218750 376.49221802
134.75656128 199.75120544 376.49404907
143.17843628 192.80296326 294.15710449
143.16897583 192.81469727 294.16162109
143.18228149 192.79071045 294.15414429
143.18231201 192.79820251 294.16302490
139.00155640 209.97619629 373.79534912
139.00100708 209.97734070 373.80401611
138.99714661 209.96688843 373.79238892
139.00881958 209.96943665 373.79791260
133.00892639 206.22341919 306.46234131
133.00125122 206.23291016 306.46752930
133.00579834 206.21040344 306.46487427
133.00900269 206.21499634 306.47467041
134.21974182 227.30200195 351.20806885
134.21353149 227.31060791 351.20928955
134.21025085 227.29052734 351.21279907
134.21173096 227.29768372 351.21478271
147.40246582 178.72444153 295.95712280
147.38946533 178.73614502 295.96166992
147.40263367 178.71061707 295.96005249
147.40022278 178.71794128 295.96871948
153.38623047 140.28314209 365.06246948
153.37605286 140.29617310 365.06671143
153.38449097 140.28442383 365.07055664
153.38708496 140.29235840 365.06924438
140.15740967 147.98608398 340.21371460
140.14666748 147.99815369 340.21478271
140.15556335 147.99487305 340.22705078
140.15629578 148.00015259 340.22698975
125.69814301 187.13893127 375.76724243
125.69692993 187.14433289 375.77282715
125.68282318 187.13768005 375.77185059
125.69094086 187.14225769 375.77416992
119.02069855 166.67213440 343.48223877
119.01045227 166.67936707 343.48120117
119.01672363 166.67033386 343.48300171
119.01517487 166.67120361 343.48452759
162.25381470 196.93310547 389.64025879
162.25440979 196.92898560 389.65652466
162.25196838 196.92694092 389.63919067
162.26710510 196.92599487 389.64944458
164.72509766 150.76634216 314.68420410
164.71147156 150.77615356 314.68814087
164.72143555 150.75917053 314.68524170
164.71998596 150.76547241 314.68688965
115.21327209 216.31716919 330.55551147
115.20888519 216.32209778 330.55633545
115.20566559 216.30943298 330.55630493
115.20738983 216.30691528 330.56417847
109.71583557 178.14276123 377.68936157
109.71171570 178.14561462 377.68963623
109.70780182 178.13804626 377.68801880
109.71309662 178.13801575 377.68972778
173.30456543 147.68093872 324.29870605
173.29116821 147.68992615 324.30374146
173.30169678 147.67492676 324.30053711
173.30285645 147.68316650 324.30282593
175.36395264 143.76895142 335.84127808
175.35339355 143.78198242 335.84701538
175.35250854 143.77276611 335.84857178
175.35737610 143.78082275 335.84875488
99.06141663 211.28683472 355.71755981
99.06373596 211.28576660 355.72601318
99.05521393 211.26239014 355.71621704
99.06562042 211.25868225 355.73031616
148.50239563 154.69216919 316.18020630
148.49169922 154.70118713 316.18029785
148.50228882 154.68357849 316.18395996
148.50160217 154.69049072 316.18377686
139.08990479 230.87109375 342.50857544
139.08613586 230.88331604 342.51498413
139.07609558 230.86457825 342.51599121
139.07974243 230.87358093 342.51971436
153.30827332 154.35470581 382.01608276
153.30351257 154.36749268 382.01953125
153.29650879 154.35853577 382.02236938
153.30459595 154.36859131 382.02084351
124.50270844 168.19491577 333.98019409
124.49121857 168.20381165 333.98184204
124.49565887 168.19664001 333.98272705
124.49335480 168.19810486 333.98663330
127.33663940 159.46620178 339.78070068
127.32492828 159.47624207 339.77911377
127.32884979 159.46630859 339.78863525
127.32488251 159.46949768 339.78857422
113.16529846 188.99307251 337.45135498
113.15932465 188.99548340 337.44857788
113.16269684 188.98620605 337.45446777
113.16449738 188.98120117 337.45730591
137.83609009 169.54010010 313.44125366
137.82545471 169.54933167 313.44219971
137.83644104 169.53077698 313.44522095
137.83465576 169.53628540 313.44808960
136.03923035 174.21325684 378.29364014
136.03904724 174.22232056 378.29888916
136.02554321 174.21313477 378.29656982
136.03530884 174.22120667 378.29794312
128.74157715 184.01106262 317.76513672
128.73071289 184.02037048 317.76449585
128.73556519 184.00321960 317.77444458
128.73336792 184.00521851 317.77770996
154.29052734 139.76190186 343.36285400
154.28004456 139.77604675 343.36627197
154.28372192 139.76589966 343.37042236
154.28585815 139.77352905 343.37149048
122.56701660 179.54843140 330.58499146
122.55887604 179.55480957 330.58856201
122.56275940 179.54359436 330.59231567
122.56031799 179.54367065 330.59814453
124.16150665 195.31829834 320.56121826
124.15412140 195.32672119 320.56213379
124.16027832 195.31018066 320.56802368
124.16040039 195.31080627 320.57305908
97.76894379 195.15653992 355.48846436
97.76917267 195.15475464 355.49984741
97.76912689 195.13832092 355.47305298
97.77492523 195.13307190 355.48870850
134.07846069 159.71577454 329.18115234
134.07046509 159.72448730 329.18145752
134.07887268 159.70538330 329.18298340
134.07952881 159.71086121 329.18438721
117.53958130 159.06886292 370.70458984
117.53369904 159.07482910 370.70544434
117.53394318 159.06987000 370.70587158
117.53623962 159.07116699 370.70578003
145.32540894 216.61859131 374.72076416
145.32531738 216.61578369 374.72976685
145.32145691 216.60801697 374.72232056
145.33465576 216.60890198 374.72900391
178.32525635 210.02685547 359.70465088
178.32580566 210.02998352 359.71343994
178.32592773 210.01904297 359.70306396
178.33999634 210.02012634 359.70840454
137.96644592 161.87384033 320.70565796
137.95455933 161.88372803 320.70660400
137.95977783 161.87579346 320.70788574
137.95832825 161.87818909 320.71185303
114.95512390 216.24137878 362.75372314
114.95254517 216.24488831 362.75280762
114.94077301 216.22660828 362.76016235
114.94767761 216.22695923 362.76242065
102.01378632 188.98638916 351.44256592
102.01119232 188.98738098 351.44961548
102.01528168 188.97091675 351.43515015
102.01891327 188.96841431 351.44604492
148.92411804 193.13301086 380.93310547
148.92346191 193.13069153 380.94161987
148.92285156 193.12577820 380.92510986
148.93588257 193.12661743 380.93002319
119.00077820 224.78895569 327.43145752
118.99756622 224.79425049 327.43090820
118.99159241 224.77799988 327.43542480
118.99607849 224.77438354 327.44302368
143.31402588 187.33778381 380.08215332
143.31344604 187.33525085 380.09008789
143.31140137 187.32414246 380.07321167
143.32266235 187.32470703 380.07614136
126.95877838 173.59115601 328.10763550
126.94788361 173.59982300 328.10787964
126.94767761 173.58969116 328.10803223
126.94596100 173.59115601 328.11093140
112.89741516 230.95408630 336.70120239
112.89763641 230.95719910 336.71105957
112.88809967 230.93428040 336.71072388
112.89756775 230.93424988 336.72497559
156.97862244 168.86187744 295.36859131
156.97024536 168.87438965 295.37725830
156.98132324 168.84910583 295.36718750
156.98385620 168.85661316 295.37799072
129.03941345 214.72511292 366.45791626
129.03381348 214.73460388 366.46423340
129.02337646 214.72004700 366.46472168
129.02790833 214.72770691 366.46810913
130.52548218 154.11262512 380.33026123
130.52127075 154.12219238 380.33459473
130.51991272 154.11022949 380.32891846
130.52545166 154.11608887 380.32989502
161.11532593 180.68359375 385.40466309
161.11683655 180.67889404 385.41592407
161.10913086 180.67729187 385.39761353
161.12379456 180.67692566 385.40292358
192.17373657 155.15333557 344.26834106
192.16378784 155.16891479 344.27850342
192.16993713 155.15701294 344.29199219
192.17391968 155.16741943 344.29479980
125.07540131 212.72904968 318.55804443
125.06934357 212.73587036 318.55725098
125.06492615 212.72178650 318.55950928
125.06846619 212.72106934 318.56414795
107.55473328 169.58352661 366.73342896
107.55023193 169.58718872 366.73553467
107.55609131 169.56233215 366.72717285
107.55731964 169.56465149 366.72998047
100.78240967 196.93942261 372.10076904
100.78274536 196.93902588 372.11273193
100.78369904 196.91482544 372.10247803
100.79131317 196.91329956 372.11489868
107.06878662 226.09204102 353.95166016
107.07155609 226.09320068 353.96301270
107.06104279 226.07188416 353.95761108
107.07324982 226.07095337 353.97268677
171.96102905 188.88391113 391.88562012
171.96278381 188.88516235 391.90374756
171.95326233 188.88648987 391.89776611
171.97044373 188.88977051 391.91125488
169.73431396 161.19683838 301.89556885
169.72384644 161.20959473 301.90444946
169.73753357 161.19001770 301.89727783
169.74104309 161.19885254 301.90576172
148.03195190 168.60316467 380.97872925
148.03187561 168.60046387 380.98434448
148.03036499 168.59094238 380.97225952
148.04071045 168.59179688 380.97256470
105.63858032 212.39265442 347.21563721
105.64417267 212.39143372 347.22857666
105.63495636 212.37304688 347.20925903
105.64697266 212.36936951 347.22674561
106.38000488 185.04280090 376.78118896
106.37624359 185.04336548 376.78204346
106.36989594 185.03691101 376.77703857
106.37570190 185.03376770 376.77951050
181.53453064 139.65539551 353.83877563
181.52589417 139.66961670 353.84680176
181.52487183 139.66058350 353.84759521
181.53335571 139.66864014 353.84860229
138.41943359 151.72190857 380.53964233
138.41157532 151.73519897 380.53967285
138.41470337 151.71963501 380.53921509
138.41758728 151.72900391 380.53521729
160.24368286 223.74952698 360.93499756
160.24285889 223.75094604 360.94775391
160.24266052 223.74844360 360.94204712
160.25543213 223.75027466 360.95053101
134.19116211 150.19723511 359.95474243
134.18164062 150.20751953 359.95690918
134.18826294 150.19462585 359.96072388
134.18920898 150.19981384 359.96295166
137.33552551 209.11587524 297.46188354
137.32867432 209.12898254 297.45816040
137.33549500 209.10438538 297.47113037
137.33932495 209.10873413 297.47604370
180.27462769 147.05117798 331.31884766
180.26271057 147.06692505 331.32418823
180.26354980 147.05595398 331.33197021
180.26918030 147.06604004 331.33193970
177.61514282 155.71629333 312.67642212
177.60324097 155.72822571 312.67944336
177.61375427 155.71101379 312.67858887
177.61636353 155.72024536 312.68066406
187.04901123 145.54632568 345.07565308
187.03355408 145.56307983 345.08325195
187.04101562 145.54971313 345.08511353
187.04185486 145.56060791 345.08663940
129.48957825 212.43479919 310.65496826
129.48196411 212.44458008 310.65811157
129.48153687 212.42620850 310.66201782
129.48217773 212.42794800 310.66983032
149.74279785 223.44012451 373.88131714
149.73681641 223.44105530 373.88464355
149.73577881 223.42912292 373.89190674
149.74230957 223.43049622 373.89337158
144.12501526 168.08374023 304.90441895
144.11305237 168.09523010 304.90640259
144.12351990 168.07038879 304.90267944
144.12208557 168.07749939 304.90753174
124.19326782 229.45365906 349.54122925
124.18916321 229.46118164 349.54193115
124.17498779 229.43942261 349.54476929
124.17974091 229.44152832 349.54873657
162.23014832 137.63970947 358.78549194
162.22160339 137.65478516 358.78979492
162.22575378 137.64514160 358.79226685
162.22976685 137.65341187 358.79095459
111.98396301 189.87525940 374.65957642
111.98126984 189.87567139 374.65954590
111.97274780 189.86766052 374.65908813
111.97966766 189.86593628 374.66174316
123.46201324 205.87869263 319.93453979
123.45406342 205.88597107 319.93487549
123.45227814 205.87229919 319.93981934
123.45311737 205.87139893 319.94485474
177.68254089 138.31750488 370.35589600
177.67503357 138.32992554 370.36370850
177.67861938 138.31573486 370.36788940
177.68658447 138.32318115 370.36883545
136.07540894 148.45301819 367.66296387
136.06716919 148.46310425 367.66339111
136.07110596 148.45373535 367.66424561
136.07272339 148.45846558 367.66207886
118.91560364 239.72583008 341.80343628
118.91764832 239.73027039 341.80136108
118.90549469 239.70529175 341.80905151
118.91522217 239.70413208 341.81466675
120.61602020 178.67994690 377.85205078
120.61384583 178.68444824 377.85476685
120.60627747 178.67312622 377.85711670
120.61286926 178.67610168 377.85775757
132.85818481 199.60466003 308.98583984
132.85073853 199.61462402 308.99279785
132.85708618 199.59521484 308.99505615
132.85894775 199.60171509 309.00451660
155.96469116 175.21173096 382.51864624
155.96585083 175.20726013 382.53048706
155.96351624 175.20391846 382.51000977
155.97637939 175.20306396 382.51574707
98.06151581 185.51696777 365.55606079
98.05858612 185.51863098 365.56115723
98.06061554 185.49322510 365.55056763
98.06475830 185.49218750 365.55810547
107.56838226 198.35722351 342.74597168
107.56886292 198.35934448 342.75164795
107.56330872 198.33898926 342.74478149
107.56890106 198.33848572 342.75430298
116.39893341 230.04022217 351.08468628
116.39679718 230.04394531 351.08578491
116.38865662 230.02305603 351.08877563
116.39501190 230.02249146 351.09478760
157.64736938 219.79344177 382.18350220
157.64230347 219.79447937 382.19348145
157.64639282 219.78121948 382.19509888
157.65490723 219.78294373 382.20285034
117.76207733 198.87193298 372.00097656
117.75940704 198.87738037 372.00225830
117.75272369 198.86599731 372.00314331
117.76062012 198.86767578 372.00457764
116.73859406 180.58117676 336.17254639
116.72806549 180.58560181 336.17120361
116.73356628 180.57749939 336.17691040
116.73194885 180.57580566 336.18075562
172.04067993 178.77575684 389.45617676
172.03961182 178.77113342 389.47344971
172.03611755 178.76405334 389.44934082
172.05101013 178.76268005 389.45944214
128.31272888 197.57099915 314.27996826
128.30538940 197.57942200 314.28375244
128.31024170 197.55899048 314.28302002
128.31138611 197.56329346 314.29110718
148.43438721 226.00279236 353.59704590
148.42953491 226.00761414 353.59936523
148.42326355 225.99772644 353.59829712
148.43261719 226.00181580 353.59918213
109.47650146 225.80294800 339.67691040
109.47776031 225.80500793 339.68576050
109.46539307 225.77882385 339.67971802
109.47540283 225.77709961 339.69421387
138.11428833 180.74362183 378.52261353
138.11067200 180.75384521 378.52413940
138.10215759 180.74603271 378.52774048
138.10858154 180.75598145 378.52450562
116.90316772 235.80807495 329.42492676
116.90516663 235.81224060 329.43228149
116.89361572 235.78956604 329.42849731
116.90437317 235.78895569 329.44372559
169.26306152 137.36824036 361.09429932
169.25315857 137.38305664 361.09848022
169.26103210 137.37249756 361.10250854
169.26457214 137.38101196 361.10202026
151.96682739 147.99598694 379.97866821
151.95863342 148.01000977 379.98080444
151.95999146 147.99594116 379.98464966
151.96459961 148.00622559 379.98132324
168.11642456 138.08425903 368.96524048
168.10638428 138.09786987 368.97009277
168.11325073 138.08787537 368.97814941
168.11672974 138.09750366 368.97677612
134.13455200 172.78625488 318.05639648
134.12637329 172.79568481 318.05718994
134.13388062 172.77668762 318.05996704
134.13415527 172.78205872 318.06292725
180.94976807 143.55995178 339.70480347
180.93804932 143.57574463 339.71206665
180.93821716 143.56558228 339.71487427
180.94235229 143.57572937 339.71612549
122.29388428 157.95101929 357.80187988
122.28343964 157.95880127 357.80429077
122.29002380 157.95092773 357.80810547
122.28917694 157.95220947 357.81063843
172.08358765 137.55581665 353.87417603
172.07312012 137.57087708 353.87747192
172.07954407 137.56277466 353.88360596
172.08537292 137.57186890 353.88278198
179.75634766 152.75576782 319.06335449
179.74383545 152.76574707 319.06759644
179.75057983 152.74713135 319.06735229
179.75398254 152.75544739 319.06637573
119.36004639 162.76477051 377.65167236
119.35520935 162.77243042 377.65396118
119.35471344 162.76213074 377.65270996
119.35942841 162.76615906 377.65246582
165.95063782 172.79646301 386.25894165
165.95104980 172.79151917 386.27395630
165.94924927 172.78501892 386.25320435
165.96356201 172.78334045 386.25973511
159.62944031 173.51333618 291.21322632
159.62310791 173.52603149 291.22137451
159.63325500 173.49607849 291.20901489
159.63906860 173.50299072 291.21972656
138.19841003 154.62026978 330.22692871
138.19004822 154.62731934 330.22625732
138.19877625 154.61199951 330.22659302
138.19776917 154.61711121 330.22616577
155.02770996 146.11326599 327.07843018
155.01606750 146.12744141 327.08230591
155.02429199 146.11309814 327.09225464
155.02444458 146.11973572 327.09432983
120.05403900 192.05514526 374.82022095
120.05113983 192.06121826 374.82400513
120.04402924 192.05133057 374.82250977
120.05109406 192.05508423 374.82476807
142.72697449 227.33920288 348.85702515
142.71980286 227.34906006 348.86099243
142.71430969 227.33508301 348.86315918
142.71688843 227.34315491 348.86581421
172.12005615 155.99438477 308.80078125
172.11117554 156.00582886 308.80670166
172.12055969 155.98611450 308.79650879
172.12571716 155.99411011 308.80163574
143.87559509 222.37849426 370.41699219
143.87663269 222.37709045 370.42916870
143.87318420 222.36836243 370.42462158
143.88572693 222.36993408 370.43301392
173.60693359 140.57475281 341.33770752
173.59510803 140.58877563 341.34500122
173.59815979 140.57711792 341.34866333
173.60183716 140.58552551 341.35015869
169.71353149 144.21914673 381.36138916
169.70208740 144.23269653 381.36700439
169.70532227 144.21774292 381.37167358
169.70895386 144.22831726 381.37060547
179.62252808 149.62142944 325.24060059
179.61065674 149.62927246 325.24752808
179.61691284 149.61401367 325.24081421
179.61915588 149.62162781 325.24191284
167.73126221 137.98617554 348.74981689
167.71853638 138.00190735 348.75643921
167.72497559 137.99082947 348.76278687
167.72608948 138.00001526 348.76388550
161.98638916 141.10891724 375.19281006
161.97923279 141.12243652 375.19741821
161.98359680 141.10751343 375.20037842
161.98770142 141.11601257 375.19955444
157.89074707 203.58583069 386.00173950
157.89192200 203.58200073 386.01934814
157.88844299 203.57698059 385.99862671
157.90415955 203.57772827 386.01165771
134.20542908 225.38323975 357.37255859
134.19966125 225.39151001 357.37619019
134.18991089 225.37257385 357.38229370
134.19293213 225.37950134 357.38421631
159.13677979 223.75877380 369.62637329
159.13153076 223.76045227 369.62979126
159.12860107 223.75691223 369.64031982
159.13746643 223.75724792 369.64291382
123.19091797 206.76911926 369.20135498
123.18905640 206.77575684 369.20385742
123.17765808 206.75883484 369.20608521
123.18519592 206.76222229 369.20803833
175.17460632 167.12777710 390.70849609
175.17442322 167.13195801 390.72622681
175.16799927 167.12551880 390.71585083
175.18345642 167.13099670 390.72702026
104.83136749 219.89108276 349.45693970
104.83194733 219.89201355 349.46704102
104.82355499 219.86996460 349.45974731
104.83332825 219.86802673 349.47360229
141.93084717 166.77838135 380.04077148
141.92720032 166.79029846 380.04171753
141.91986084 166.77996826 380.04595947
141.92671204 166.79078674 380.04260254
104.39109802 178.71475220 374.13659668
104.38928986 178.71607971 374.14373779
104.39305115 178.68614197 374.13430786
104.39739227 178.68695068 374.14071655
95.18038177 203.38262939 361.22894287
95.18061066 203.38151550 361.23770142
95.17804718 203.35585022 361.22167969
95.18610382 203.35269165 361.23641968
123.28623199 231.05857849 319.24099731
123.28515625 231.06658936 319.23303223
123.28412628 231.04736328 319.24487305
123.29098511 231.04592896 319.24807739
106.24471283 217.07356262 360.79040527
106.24849701 217.07417297 360.80114746
106.24073029 217.05059814 360.79547119
106.25256348 217.05023193 360.80883789
165.51927185 166.42399597 385.54956055
165.51591492 166.42030334 385.56167603
165.51666260 166.41357422 385.54306030
165.52732849 166.41336060 385.54650879
134.20040894 166.32347107 323.24020386
134.19279480 166.33200073 323.24044800
134.20065308 166.31231689 323.24081421
134.20010376 166.31669617 323.24270630
112.10826874 233.16835022 347.69207764
112.11174774 233.17010498 347.70312500
112.09911346 233.14865112 347.70504761
112.11174011 233.14854431 347.71987915
150.12554932 165.59341431 302.40490723
150.11575317 165.60333252 302.41174316
150.12918091 165.58026123 302.40509033
150.12954712 165.58560181 302.41360474
123.26351166 226.27334595 355.24035645
123.26290131 226.27835083 355.24276733
123.25038147 226.26130676 355.25088501
123.25720215 226.26325989 355.25534058
128.91009521 155.62826538 347.77120972
128.90164185 155.63693237 347.77215576
128.90542603 155.63034058 347.77575684
128.90493774 155.63282776 347.77731323
157.93249512 164.20095825 383.54956055
157.93016052 164.19696045 383.55938721
157.92913818 164.19071960 383.54077148
157.93981934 164.19020081 383.54403687
