ply
format ascii 1.0
element vertex 2048
property float x
property float y
property float z
end_header
119.84576416 141.16877747 475.88613892
110.52725220 145.60125732 477.37625122
124.65270233 135.08627319 466.46051025
113.51895142 138.27819824 466.19418335
89.00962067 169.59771729 495.95684814
81.85478210 177.69158936 498.47747803
89.91304779 162.05239868 486.17779541
81.36048126 170.61297607 487.77825928
240.95474243 236.53903198 408.80654907
247.55490112 239.22384644 411.56497192
249.45123291 240.09092712 402.90087891
255.60482788 241.25436401 404.58746338
246.86169434 312.67578125 407.05444336
246.70550537 322.99655151 411.29217529
255.00424194 304.04061890 410.67916870
254.36296082 313.80670166 411.47064209
212.11228943 343.01489258 412.28121948
212.70802307 349.74072266 421.83700562
225.20959473 338.80657959 412.07321167
221.65521240 345.15429688 416.88238525
84.09383392 189.25308228 508.63421631
76.74575806 198.34431458 511.64669800
85.86064148 180.66046143 501.19253540
77.49831390 190.25231934 502.77548218
74.68862915 208.57508850 514.18597412
74.21003723 220.20346069 517.62921143
69.95878601 209.71249390 508.19757080
69.19258881 221.35888672 510.68362427
106.52171326 156.57723999 489.69604492
98.38566589 163.90704346 492.39746094
113.68750000 149.63766479 481.59603882
103.13847351 157.14494324 482.72323608
121.39897156 137.34350586 458.86813354
112.20712280 142.10937500 458.69992065
129.64515686 136.45539856 446.81173706
118.13894653 140.14697266 444.92388916
95.76925659 155.09460449 476.62915039
88.52180481 163.36730957 478.14550781
100.80147552 149.92019653 464.96124268
92.02864075 158.21844482 465.52444458
71.41197968 192.47323608 496.57623291
68.04482269 202.87007141 500.08810425
71.33789062 188.38618469 485.76889038
67.00153351 198.87915039 488.93179321
190.43772888 353.03225708 433.59857178
189.40245056 351.65557861 446.00387573
205.32443237 350.61251831 430.36630249
200.15353394 351.36318970 438.68856812
146.68661499 134.54580688 452.07989502
140.80134583 133.90344238 458.61798096
155.73278809 139.58352661 443.68954468
149.47305298 135.96806335 448.82089233
73.06574249 185.72123718 479.76852417
69.62799835 196.15213013 483.46578979
74.86496735 181.71629333 468.10110474
70.35939789 192.20925903 471.62945557
82.19280243 169.27697754 470.15344238
77.24218750 179.10913086 472.85375977
86.06486511 165.27703857 458.25573730
79.90125275 174.97302246 460.49401855
252.68504333 269.05551147 411.79202271
253.86950684 281.89538574 412.00827026
257.34054565 263.50991821 407.40908813
258.76556396 274.88796997 408.45690918
103.91703033 149.13345337 453.84231567
95.96620941 156.89503479 454.02154541
111.33619690 146.63836670 441.92498779
102.06474304 153.92936707 441.28579712
134.00999451 137.73190308 470.24765015
126.95227814 142.47177124 477.25228882
146.22308350 139.35491943 463.48928833
138.20117188 141.85501099 469.10623169
179.72032166 342.88742065 415.63876343
178.48480225 347.70837402 425.96350098
193.80746460 344.43432617 415.45953369
187.04437256 346.68511963 420.68597412
132.88899231 138.88052368 439.91241455
123.62955475 142.03143311 437.12396240
140.65258789 141.61891174 430.60440063
129.61494446 143.74754333 426.54638672
65.45704651 219.09036255 494.34207153
65.72688293 230.39031982 498.45065308
64.34166718 219.70912170 484.09942627
64.48121643 230.98704529 488.06631470
155.19236755 346.93002319 443.18685913
154.20816040 340.83850098 452.43826294
170.86273193 350.27514648 445.05114746
166.27105713 345.66946411 451.79849243
167.45112610 147.45584106 448.47515869
164.55931091 148.56796265 455.74615479
173.31036377 155.09126282 443.78738403
171.22378540 154.18872070 451.09640503
85.82987976 168.41314697 445.99691772
80.08878326 177.62051392 447.60040283
92.60424805 164.68453979 434.76806641
86.27842712 173.13897705 436.02261353
166.16934204 150.79919434 427.33367920
166.60388184 149.55867004 429.73843384
168.73776245 158.49082947 421.78982544
169.75927734 155.91165161 424.71493530
223.08221436 311.20132446 405.03402710
222.56356812 323.53656006 407.18218994
234.05957031 307.29675293 405.81448364
229.97525024 315.56491089 405.58157349
72.63768005 229.23742676 508.40332031
74.13953400 240.39920044 508.02777100
75.39508820 239.27983093 502.13598633
77.54192352 251.52694702 501.55578613
68.79470062 197.41627502 470.09143066
66.22502899 208.38381958 473.93487549
72.17887878 192.57829285 458.41412354
68.59044647 203.68000793 462.44009399
149.34008789 144.38099670 428.44833374
140.57125854 145.08123779 424.47143555
155.79205322 151.88314819 422.09124756
145.57142639 151.69090271 416.95089722
75.84320831 182.32341003 454.86758423
72.22174072 192.70423889 457.83200073
81.01634979 177.24514771 443.68026733
76.23244476 187.57389832 446.52227783
145.62429810 340.45449829 431.48461914
144.79827881 339.81307983 442.60836792
159.63461304 345.22988892 432.15194702
153.99188232 343.57058716 439.36285400
189.00195312 325.01678467 405.80169678
188.18493652 335.28945923 411.14129639
202.48510742 325.96481323 405.58230591
196.34951782 331.39654541 407.56961060
158.81085205 337.67785645 419.10665894
157.86367798 342.28955078 430.43264771
172.75907898 341.31182861 416.93496704
166.37669373 342.53182983 423.90356445
110.09055328 154.64739990 427.70758057
102.47714996 161.38771057 425.78970337
118.28868103 153.90447998 418.25039673
110.31282806 159.59350586 416.01913452
101.38063049 183.67047119 493.51281738
96.39346313 195.05653381 500.06390381
110.71315002 188.90544128 485.72921753
106.58105469 200.83618164 491.85476685
230.90783691 285.56671143 409.03363037
229.86053467 298.24636841 408.34652710
240.88577271 284.04367065 409.20559692
236.76455688 291.41226196 408.20440674
147.21092224 148.76629639 463.78509521
141.00274658 156.57192993 468.55398560
156.52243042 155.00799561 459.15335083
149.71801758 161.60015869 463.66091919
67.70686340 248.28466797 490.46105957
73.21566772 256.53686523 492.53637695
71.53609467 260.46972656 483.44738770
79.05938721 266.72543335 485.04885864
65.71561432 246.48410034 480.62570190
68.70330811 256.84088135 483.78460693
66.44151306 255.00662231 471.55450439
70.72680664 264.78671265 474.97473145
89.27606201 204.66171265 504.62017822
83.07040405 216.46028137 509.23590088
98.62161255 210.36976624 496.63833618
93.39315033 222.63290405 500.90759277
92.29826355 170.99301147 425.98336792
87.29808807 180.13229370 426.24771118
100.37223816 166.55552673 415.85186768
94.60711670 175.19219971 416.07531738
138.33444214 153.35002136 416.85638428
130.85620117 156.85736084 412.00241089
144.93058777 160.56692505 411.84820557
137.18702698 163.40243530 406.05105591
123.09018707 160.74499512 478.70687866
116.00343323 170.43496704 482.35537720
134.29002380 164.99424744 471.62414551
126.81879425 174.60610962 474.83609009
97.48744202 312.76617432 432.48687744
100.66937256 310.97760010 443.84890747
110.25521851 322.42410278 430.83584595
109.33257294 318.47021484 440.41168213
63.12158203 222.81378174 478.65673828
62.92584229 234.25592041 482.75955200
64.32156372 221.16374207 468.60632324
63.94497681 233.20661926 473.27209473
232.78894043 246.28672791 432.69079590
232.46652222 253.31240845 440.11245728
240.74375916 250.06414795 426.14572144
237.77108765 251.41293335 433.42269897
177.91705322 166.52473450 428.76791382
179.12730408 168.67990112 436.73373413
180.80236816 175.36514282 422.24786377
182.34127808 175.85977173 430.87051392
200.46459961 324.88427734 436.33663940
195.31674194 332.54675293 441.85745239
211.44842529 325.71331787 431.53811646
204.39389038 328.64617920 435.42929077
172.38366699 163.80969238 452.91036987
168.30412292 172.20005798 459.75082397
178.78306580 171.56327820 448.32470703
174.59388733 178.06329346 456.47677612
178.41212463 333.06683350 440.65921021
172.39694214 336.62673950 447.87765503
191.33596802 333.73181152 437.45739746
183.30303955 334.89825439 441.50863647
114.85335541 162.57206726 411.14916992
107.55934906 169.75292969 407.81604004
124.08676147 163.92974854 403.68493652
116.94393921 170.11538696 400.00439453
219.92190552 311.73950195 430.99282837
215.02987671 322.70306396 433.42984009
229.21739197 311.50698853 426.60205078
222.93994141 316.95584106 428.96472168
230.10922241 251.21917725 413.73724365
227.57809448 261.50387573 413.88644409
239.05528259 252.10977173 411.44244385
234.33444214 256.62655640 412.64416504
75.29217529 192.96017456 449.02169800
72.41762543 203.69343567 451.48474121
79.45732117 188.79904175 438.72598267
75.68566132 199.60038757 440.91668701
95.84606934 182.21371460 405.48239136
91.04513550 191.86163330 404.63232422
104.76809692 179.72665405 396.88452148
99.33538055 188.63764954 395.86700439
82.66385651 189.09178162 429.27108765
78.43863678 199.40051270 430.70187378
88.86551666 184.20574951 419.05249023
83.68311310 194.11398315 420.32641602
234.26991272 270.01364136 435.68496704
229.66021729 280.44052124 439.51568604
241.71374512 272.59365845 429.53347778
236.04298401 276.87042236 434.15444946
68.44827271 209.76126099 462.56607056
66.72164154 220.89102173 465.76101685
70.57440186 206.23690796 452.93017578
68.25653839 217.81120300 456.29833984
222.05915833 260.78088379 453.05508423
215.93258667 271.98071289 455.60223389
230.42774963 264.34567261 447.47393799
223.78305054 268.77539062 451.48089600
131.31314087 328.55517578 422.64654541
128.48814392 328.81250000 432.67092896
144.14347839 332.70605469 422.29861450
137.81916809 331.10208130 428.93981934
205.66915894 235.58447266 467.89962769
199.43045044 244.95404053 471.52960205
212.71011353 239.61354065 464.72518921
206.57553101 242.88133240 469.09228516
201.67504883 213.53941345 452.85037231
198.55419922 218.41143799 461.39892578
208.35229492 217.08776855 449.77456665
204.21318054 218.73930359 457.53915405
73.51791382 272.99902344 461.75460815
78.00145721 277.31134033 466.86041260
80.11206055 286.32098389 454.68450928
85.19233704 286.02749634 460.48565674
166.71791077 167.10092163 414.36489868
166.21128845 170.51275635 412.24377441
168.85029602 177.08789062 411.13842773
168.84954834 179.54841614 409.38674927
178.73828125 163.75292969 446.79916382
176.16070557 163.73056030 446.86419678
179.00387573 163.81872559 446.80813599
178.71031189 163.76852417 446.85235596
161.56158447 156.47254944 456.02722168
158.49530029 156.46334839 456.10626221
161.97084045 156.52336121 456.04672241
161.49368286 156.48837280 456.11337280
178.70039368 159.88354492 432.81689453
176.32347107 159.84635925 432.87796021
178.94523621 159.91549683 432.84127808
178.72583008 159.85488892 432.87890625
168.19668579 148.22167969 444.43643188
165.55038452 148.19692993 444.50326538
168.49444580 148.26412964 444.43228149
168.16215515 148.21366882 444.47628784
174.50389099 169.67434692 454.03894043
171.77661133 169.65847778 454.11337280
174.81323242 169.72619629 454.03942871
174.44630432 169.68757629 454.09896851
166.02618408 150.11233521 428.98971558
163.22509766 150.08493042 429.03579712
166.32427979 150.16734314 429.02963257
165.97142029 150.11532593 429.05416870
181.85235596 176.87377930 449.28765869
179.56332397 176.85589600 449.36093140
182.06077576 176.91168213 449.28265381
181.86975098 176.87301636 449.33935547
184.90853882 175.10205078 438.75158691
182.80143738 175.07720947 438.81179810
185.07202148 175.13311768 438.75512695
184.95478821 175.08705139 438.79156494
156.50585938 168.61892700 459.52008057
153.56816101 168.60914612 459.59362793
156.92282104 168.64492798 459.57199097
156.46397400 168.61791992 459.63415527
157.75271606 144.64978027 431.06912231
155.07785034 144.62677002 431.11801147
158.05303955 144.70227051 431.08697510
157.72003174 144.65632629 431.11392212
165.83593750 175.53909302 458.26525879
162.90052795 175.53735352 458.31838989
166.22692871 175.54757690 458.28344727
165.78689575 175.52545166 458.33346558
249.96905518 238.18475342 406.49578857
247.08004761 238.22506714 406.57409668
250.01110840 238.24781799 406.54876709
250.03901672 238.23524475 406.57843018
172.90216064 161.89828491 425.01370239
170.33335876 161.87033081 425.04849243
173.17291260 161.94940186 425.04211426
172.90307617 161.89697266 425.05508423
187.14456177 191.59359741 447.55651855
184.98226929 191.58319092 447.60858154
187.29373169 191.61737061 447.55267334
187.17025757 191.58535767 447.58859253
155.73701477 149.87750244 422.52325439
152.72103882 149.86495972 422.53213501
156.09909058 149.90225220 422.56417847
155.69395447 149.86793518 422.56341553
186.10855103 183.22122192 432.31784058
184.13880920 183.21127319 432.35272217
186.25379944 183.24374390 432.33477783
186.20410156 183.21119690 432.35098267
166.71929932 165.24877930 417.18466187
163.88511658 165.23513794 417.20428467
167.04673767 165.26770020 417.22714233
166.69599915 165.23162842 417.23440552
181.35900879 195.96690369 456.36331177
179.11557007 195.95669556 456.42007446
181.55355835 195.99087524 456.35733032
181.38754272 195.96540833 456.40100098
192.76797485 202.67779541 440.88848877
190.68151855 202.67034912 440.94772339
192.89425659 202.67736816 440.89151001
192.84764099 202.64886475 440.93176270
211.66815186 228.77406311 465.07852173
209.30209351 228.80886841 465.11978149
211.77078247 228.82444763 465.10952759
211.69384766 228.82948303 465.14144897
198.05957031 215.15078735 419.59664917
195.92718506 215.16557312 419.62500000
198.16458130 215.14906311 419.63269043
198.16545105 215.14225769 419.64569092
167.35223389 193.46455383 464.76031494
164.79667664 193.45802307 464.82318115
167.66688538 193.45693970 464.76928711
167.35525513 193.43922424 464.82415771
178.29008484 176.06478882 423.57571411
176.03849792 176.04690552 423.61752319
178.50137329 176.07002258 423.59228516
178.34326172 176.03433228 423.61511230
209.85174561 218.54423523 449.18835449
207.74389648 218.56652832 449.23550415
209.95474243 218.58657837 449.22540283
209.97283936 218.58210754 449.25497437
153.18035889 159.57815552 412.24954224
149.74124146 159.59226990 412.21243286
153.62829590 159.59115601 412.30880737
153.11868286 159.58209229 412.27786255
155.93936157 194.18130493 466.57110596
153.09236145 194.18969727 466.64813232
156.34814453 194.16398621 466.56610107
155.92579651 194.15843201 466.63803101
188.83111572 210.26921082 451.96606445
186.53804016 210.27429199 452.00866699
188.99270630 210.27207947 451.94955444
188.84051514 210.25921631 451.97998047
176.92294312 209.58781433 467.79449463
174.37966919 209.59431458 467.86273193
177.15042114 209.59042358 467.75799561
176.88874817 209.58052063 467.81329346
147.12266541 152.26425171 415.96115112
144.23059082 152.26741028 415.97763062
147.50038147 152.27969360 416.00424194
147.14134216 152.26091003 416.00372314
162.40248108 209.50909424 474.07015991
159.57550049 209.51744080 474.16445923
162.76799011 209.49452209 474.04794312
162.39340210 209.48954773 474.13345337
169.20445251 202.88076782 468.55911255
166.64285278 202.88533020 468.62707520
169.50505066 202.86328125 468.55895996
169.22204590 202.85272217 468.61752319
144.15065002 181.73641968 464.98056030
141.36598206 181.74559021 465.00137329
144.58963013 181.72103882 465.01550293
144.16120911 181.71879578 465.03723145
204.24462891 218.24589539 457.75567627
201.96394348 218.26507568 457.79040527
204.39628601 218.27250671 457.80279541
204.32582092 218.26814270 457.82586670
171.15811157 226.46954346 481.35015869
168.09274292 226.49667358 481.41925049
171.49667358 226.46995544 481.32366943
171.05900574 226.48463440 481.38943481
215.40429688 234.43519592 456.92871094
212.90934753 234.47523499 456.95956421
215.52841187 234.48370361 456.95846558
215.44880676 234.49057007 456.98028564
201.66983032 233.84019470 465.49029541
198.71542358 233.87643433 465.49841309
201.93255615 233.87811279 465.48538208
201.66546631 233.88151550 465.49105835
199.16613770 241.40916443 473.47793579
196.03813171 241.47201538 473.46853638
199.39128113 241.41767883 473.46176147
199.02694702 241.45315552 473.46154785
213.16761780 227.15402222 440.68249512
210.91433716 227.18359375 440.71261597
213.27061462 227.18081665 440.70501709
213.26403809 227.18400574 440.72009277
168.19261169 181.19436646 409.84060669
165.51727295 181.21051025 409.83383179
168.50262451 181.21739197 409.90356445
168.23973083 181.20852661 409.88800049
176.57806396 191.14794922 409.78689575
174.06582642 191.15388489 409.79589844
176.84249878 191.15133667 409.84582520
176.66885376 191.13708496 409.84445190
188.76245117 196.10928345 426.07321167
186.85659790 196.10934448 426.10540771
188.87762451 196.11035156 426.09518433
188.87899780 196.08795166 426.10601807
188.78424072 204.53889465 415.84533691
186.77200317 204.55036926 415.88134766
188.90089417 204.54423523 415.87133789
188.92504883 204.53181458 415.88418579
218.58148193 243.83697510 454.72286987
215.89498901 243.88456726 454.73446655
218.70240784 243.87016296 454.74942017
218.59695435 243.88670349 454.75677490
201.97232056 214.14292908 433.00531006
200.02966309 214.14500427 433.07360840
202.04312134 214.15489197 433.01843262
202.07972717 214.13606262 433.06069946
146.64735413 194.81896973 469.00323486
143.90289307 194.83905029 469.05545044
147.06472778 194.79800415 469.01766968
146.66999817 194.80430603 469.06817627
204.16476440 232.61297607 427.40231323
201.37400818 232.63967896 427.42254639
204.38735962 232.62049866 427.42269897
204.28109741 232.62313843 427.43533325
179.30525208 221.71160889 464.69692993
176.71640015 221.72286987 464.76296997
179.53643799 221.69779968 464.65728760
179.26217651 221.69276428 464.70971680
199.76582336 231.78607178 448.92059326
197.13819885 231.81097412 448.92187500
199.99185181 231.76823425 448.93841553
199.82354736 231.77430725 448.93927002
246.36380005 245.09533691 421.38446045
243.32560730 245.15414429 421.41806030
246.44955444 245.11961365 421.42477417
246.33819580 245.13179016 421.43701172
185.26338196 216.81613159 400.36260986
183.05378723 216.84867859 400.37600708
185.41000366 216.83338928 400.40539551
185.39718628 216.84187317 400.40014648
234.82574463 245.87702942 430.23171997
231.93849182 245.92321777 430.25338745
234.94506836 245.87619019 430.29199219
234.85525513 245.88938904 430.30166626
188.18148804 235.54605103 460.28942871
185.43093872 235.57400513 460.27581787
188.43571472 235.52766418 460.30657959
188.18827820 235.53979492 460.29824829
148.65332031 205.92053223 474.29061890
145.77375793 205.93362427 474.35031128
149.06977844 205.90133667 474.27230835
148.63896179 205.90234375 474.33053589
180.72955322 237.80293274 478.01019287
177.86280823 237.82969666 478.00076294
180.98873901 237.78106689 478.00872803
180.64262390 237.79962158 478.01138306
213.18789673 239.12767029 420.70996094
210.52342224 239.14923096 420.74713135
213.35749817 239.11650085 420.76989746
213.34411621 239.11885071 420.79092407
239.55868530 246.89521790 412.51651001
236.06985474 246.94810486 412.55505371
239.73307800 246.91720581 412.52389526
239.53018188 246.91918945 412.53897095
175.97918701 199.33227539 403.37216187
173.61062622 199.36158752 403.37951660
176.18368530 199.33657837 403.40936279
176.06909180 199.34191895 403.39987183
229.30563354 252.88088989 442.78039551
226.55084229 252.93392944 442.80657959
229.40435791 252.88873291 442.81167603
229.32485962 252.90844727 442.82873535
154.54754639 215.24765015 478.06637573
151.58154297 215.25024414 478.13928223
154.99722290 215.20046997 478.07092285
154.57023621 215.19587708 478.13943481
182.99667358 204.76893616 407.24945068
180.87117004 204.79212952 407.28060913
183.12667847 204.77531433 407.26586914
183.08926392 204.77359009 407.27383423
136.63746643 158.02874756 408.68911743
133.74758911 158.05825806 408.66467285
137.02247620 158.04272461 408.76354980
136.64762878 158.04647827 408.72894287
146.30424500 173.66149902 399.12326050
143.04228210 173.69720459 399.08581543
146.72195435 173.67266846 399.16986084
146.30218506 173.68026733 399.13540649
191.46148682 242.78793335 465.84594727
188.16256714 242.83816528 465.85186768
191.79130554 242.77569580 465.84112549
191.39506531 242.79914856 465.85107422
217.30371094 241.65008545 432.49102783
214.49325562 241.67210388 432.51852417
217.48510742 241.65336609 432.52120972
217.40621948 241.65312195 432.53799438
244.74234009 282.11471558 423.19268799
238.20428467 292.20318604 424.87200928
252.79229736 287.79675293 416.26889038
246.53256226 297.31250000 418.47085571
243.16439819 257.92584229 411.67898560
243.64900208 270.28912354 409.02972412
254.83682251 266.46438599 410.89450073
254.72769165 279.17208862 409.80252075
228.79464722 273.79943848 440.62747192
221.58174133 281.29269409 443.87399292
236.26988220 279.90899658 433.41656494
229.05897522 287.43228149 436.84680176
214.57708740 234.21080017 459.83596802
209.01222229 237.76168823 466.98678589
221.48361206 240.42396545 454.76745605
215.86068726 243.18563843 462.43692017
211.68878174 225.16137695 439.80722046
212.75885010 226.84144592 448.06542969
217.60382080 231.99880981 433.41131592
219.40705872 232.00833130 442.21218872
221.80201721 244.96965027 437.14392090
219.74118042 249.64442444 444.32278442
228.41368103 250.98326111 431.65515137
226.33761597 254.69985962 439.29858398
218.58604431 257.36816406 457.29681396
211.11480713 262.90899658 461.20565796
224.99195862 264.30673218 450.39730835
217.20834351 269.41003418 454.84579468
233.04740906 307.24475098 424.21295166
224.80722046 316.16778564 426.23947144
243.78067017 311.12353516 416.93948364
236.06314087 319.06134033 419.63629150
214.07897949 292.16012573 443.37863159
205.87884521 299.67742920 444.76211548
222.46234131 298.09646606 436.04107666
214.59960938 305.42251587 437.94491577
211.64120483 238.06230164 423.13864136
215.47795105 242.18038940 426.99740601
218.96926880 244.85369873 419.52017212
224.14765930 247.33776855 424.43423462
199.47444153 245.64192200 470.45983887
189.64630127 250.20755005 469.23757935
207.82475281 251.59902954 468.63732910
198.27496338 255.77117920 468.53244019
203.83782959 274.48730469 460.37911987
195.07699585 280.42962646 460.67901611
210.45199585 281.99157715 454.47671509
201.82133484 287.81274414 455.49859619
194.39451599 195.75404358 430.73602295
195.36987305 200.78625488 438.05706787
196.83567810 207.89204407 423.10058594
198.48620605 209.85446167 431.38681030
184.85638428 198.39430237 453.60827637
179.91127014 202.50738525 463.52450562
191.10609436 209.07749939 448.58105469
187.27336121 210.81364441 458.09481812
184.52197266 176.41314697 444.20666504
180.50399780 182.63684082 452.36474609
191.34539795 189.38368225 439.57492065
187.78399658 192.99163818 447.78506470
223.38070679 282.08166504 407.66275024
223.90560913 294.58911133 405.31988525
235.58828735 288.56970215 407.66900635
235.50819397 300.95700073 405.90884399
182.91798401 230.82536316 472.98419189
172.42102051 234.36674500 475.65499878
193.27278137 237.26856995 472.59671021
184.04138184 239.53012085 476.01995850
174.38745117 208.97537231 471.25405884
165.36230469 212.98733521 478.59313965
183.10522461 217.71817017 468.91717529
175.49781799 219.83479309 476.01092529
222.01327515 331.25442505 422.20147705
213.31051636 339.90911865 426.76910400
233.46340942 331.52575684 412.87594604
225.54563904 338.27807617 417.57977295
183.91120911 175.41392517 424.24700928
186.65811157 183.29966736 426.46936035
187.29188538 192.06048584 419.11465454
189.85705566 196.57806396 423.93362427
209.13636780 254.58772278 410.93905640
211.81117249 264.96453857 408.38742065
218.90443420 260.82141113 410.99963379
222.68811035 270.76770020 409.35360718
189.30187988 298.12350464 451.95272827
180.14056396 304.53341675 451.80126953
197.48297119 306.31359863 446.11349487
188.80725098 312.59536743 446.63366699
156.76768494 232.72171021 480.59271240
145.02517700 237.95817566 478.22067261
167.59205627 235.95469666 479.07220459
156.23002625 240.03474426 476.99716187
187.60577393 227.14982605 451.41757202
183.87918091 228.63403320 459.97213745
195.44645691 234.73919678 449.67840576
193.81544495 234.16348267 458.13885498
157.41348267 185.19799805 464.61386108
147.25894165 191.34559631 469.53994751
168.96299744 193.49876404 463.92050171
159.37515259 197.87767029 469.05685425
197.00338745 319.85232544 440.49807739
187.89413452 327.28552246 442.21920776
208.98617554 325.61444092 433.14825439
200.61184692 332.32775879 435.83630371
144.94708252 215.93197632 481.40060425
132.96829224 222.78443909 481.89819336
157.51861572 219.55844116 481.27584839
146.03242493 224.89503479 481.93118286
176.20970154 279.75881958 457.30316162
167.14851379 285.40979004 456.39071655
182.97305298 289.60998535 455.43801880
174.20121765 295.59436035 455.23828125
189.50849915 227.31002808 433.69165039
190.88182068 228.94754028 442.54660034
195.81692505 234.85147095 430.05917358
199.05992126 234.01280212 439.04226685
184.13299561 259.53182983 454.71124268
174.84150696 264.34976196 453.56521606
191.57818604 266.49844360 454.99322510
182.05441284 271.03204346 454.47232056
131.71875000 195.51225281 474.37191772
121.41601562 203.17771912 480.03341675
143.60943604 200.14146423 473.88931274
132.70396423 206.22297668 479.00762939
188.83529663 226.70327759 413.71899414
191.51560974 231.23086548 419.37197876
193.60919189 237.59272766 410.57635498
199.32624817 238.65284729 417.64910889
177.53233337 189.18893433 408.59066772
177.83470154 199.88615417 402.26684570
182.84989929 202.32516479 409.16537476
184.87339783 211.46244812 405.37268066
208.43951416 298.63412476 405.05792236
210.14837646 311.58212280 404.55291748
221.11116028 304.40924072 406.67578125
222.05932617 316.97479248 406.15365601
165.72125244 235.44134521 460.52380371
154.29913330 239.69059753 461.68579102
176.38041687 238.64427185 460.83670044
165.98356628 241.18148804 462.21990967
200.14627075 273.42898560 403.78323364
201.98654175 285.01931763 402.39324951
209.72709656 278.69750977 405.07818604
212.02331543 289.94137573 403.94390869
190.91285706 249.96200562 400.60614014
193.76037598 260.51104736 400.25985718
198.82963562 255.99145508 404.24804688
203.42131042 265.57528687 404.67657471
168.02758789 308.14688110 449.02359009
159.48103333 314.43264771 450.02185059
177.64547729 319.45285034 447.44790649
169.44934082 326.08804321 449.48318481
118.77475739 226.74983215 485.14923096
107.06429291 233.95874023 486.08038330
128.38262939 232.77827454 482.59167480
117.07666016 238.72462463 482.72174072
156.10086060 285.48587036 455.28485107
147.38809204 291.23699951 454.30523682
162.81214905 296.38534546 455.29934692
154.17749023 302.61505127 454.63552856
194.95886230 348.13928223 424.22598267
189.16571045 354.90362549 432.96075439
209.11233521 349.51998901 421.81674194
202.51019287 355.01577759 430.25515747
168.92570496 249.34774780 446.14956665
159.32383728 253.54994202 446.98507690
178.39739990 252.24577332 449.71694946
169.06187439 255.72958374 450.79830933
111.97435760 209.11654663 488.04681396
101.75573730 217.25259399 492.64898682
121.87658691 215.71971130 484.85147095
111.47773743 223.26303101 489.00662231
176.56163025 210.75558472 393.82141113
176.09104919 222.45002747 388.67706299
180.70925903 219.72665405 398.29595947
182.35528564 229.52676392 395.36257935
132.34552002 243.35034180 473.70382690
120.41077423 248.95326233 472.39245605
141.82122803 244.69299316 467.18103027
129.37384033 249.21357727 464.97229004
156.89384460 264.29171753 452.75772095
146.83341980 269.32192993 451.61682129
164.41712952 272.30960083 456.12088013
153.84808350 277.75433350 455.09759521
171.58799744 261.46820068 439.19094849
164.70748901 267.78402710 441.09481812
178.97111511 266.79177856 439.41473389
171.53591919 272.47280884 441.65649414
195.69866943 326.19818115 405.59246826
196.27749634 338.45330811 410.03195190
209.85299683 330.86193848 409.06323242
208.35740662 342.60043335 413.84115601
158.47279358 180.09970093 401.93643188
157.92361450 190.33634949 393.69427490
166.47567749 189.12686157 401.77224731
166.52323914 199.43359375 394.56933594
182.29821777 277.83593750 396.41461182
184.53999329 288.59722900 398.49069214
191.37443542 281.67468262 400.17327881
194.24096680 292.00543213 402.13204956
150.33975220 231.11473083 449.86663818
143.51130676 234.18951416 456.45077515
160.01269531 235.07160950 450.61557007
154.66108704 235.64833069 456.87130737
186.55047607 298.35577393 401.67962646
188.97045898 310.35058594 403.24304199
197.24168396 303.52215576 403.84478760
199.28266907 315.06240845 405.09799194
174.72537231 235.54895020 383.08139038
175.00421143 247.11123657 382.97732544
180.06045532 239.73411560 390.84472656
182.00085449 249.68141174 391.37789917
162.08024597 276.29452515 435.30966187
156.29510498 284.54470825 436.53240967
168.70343018 283.82482910 435.25711060
161.42042542 292.01293945 436.63003540
178.01042175 257.94937134 388.66003418
179.99537659 268.34219360 391.77688599
185.77050781 260.58914185 396.07119751
189.00750732 270.37921143 398.89569092
137.03730774 269.64031982 451.02832031
126.83871460 275.03497314 449.68041992
145.43118286 278.67245483 455.36892700
134.74197388 284.66687012 453.66732788
145.69200134 310.97735596 445.40713501
137.29162598 317.18902588 447.91622925
155.29986572 323.28256226 447.35354614
146.77334595 329.93878174 450.25112915
136.38050842 288.64578247 450.60705566
127.12707520 293.99438477 449.56427002
143.92681885 299.88366699 452.81164551
134.55325317 305.64279175 451.50955200
166.55377197 346.20849609 430.32070923
163.24900818 347.15618896 442.15533447
179.59588623 351.31018066 434.66085815
175.29856873 351.82925415 445.85467529
100.57227325 236.86407471 492.85574341
88.73765564 244.25520325 493.82192993
107.91534424 244.64918518 486.04785156
96.94378662 251.33244324 486.55972290
159.15513611 201.36196899 387.04302979
158.33073425 212.38359070 380.02838135
166.49394226 208.55886841 388.63201904
166.49920654 218.95570374 382.91192627
143.63746643 251.63468933 451.95523071
132.79406738 256.13626099 453.22329712
152.58851624 255.77430725 452.76898193
142.39993286 260.27935791 453.88949585
144.34634399 237.32489014 440.52862549
141.75588989 239.40797424 447.50723267
153.29864502 242.77212524 442.81744385
152.00680542 243.12055969 449.54974365
170.77249146 331.49072266 411.48449707
171.84631348 340.15341187 419.59048462
183.06866455 337.28387451 414.82061768
182.49946594 345.64218140 423.52935791
119.31141663 255.74214172 472.07006836
107.60896301 261.18887329 472.12512207
126.07077026 257.65750122 460.81567383
113.76356506 263.11526489 460.36434937
169.02983093 310.46072388 400.36849976
170.95120239 321.06582642 405.61898804
179.55484009 315.05239868 403.37823486
180.72753906 325.44924927 408.41043091
160.30505371 226.65121460 370.70788574
160.11080933 238.52587891 367.66110229
167.39289856 231.26892090 376.79937744
168.16326904 241.40342712 375.11206055
138.89862061 174.31655884 397.41485596
137.28161621 184.27687073 389.57717896
147.06019592 181.37228394 394.49124146
145.46572876 191.60491943 387.03802490
164.79934692 290.92810059 386.70962524
166.06416321 300.71618652 393.06549072
173.63151550 292.03146362 393.77838135
175.48429871 301.49316406 399.47241211
164.76556396 273.38592529 377.44418335
165.35128784 283.21807861 383.16326904
172.22377014 273.59921265 386.33917236
173.94590759 282.98178101 391.36639404
162.27374268 250.72094727 367.92843628
162.23393250 261.65045166 369.86032104
169.48864746 252.79350281 376.36035156
170.42004395 262.30123901 378.69622803
98.15328979 260.49700928 483.27191162
85.98625183 266.00381470 486.91589355
100.66038513 269.31091309 471.30612183
89.86304474 274.10180664 474.46002197
118.63458252 296.63165283 445.62139893
108.93059540 301.18927002 448.40383911
129.07548523 308.72009277 447.73699951
119.07512665 312.63342285 449.56127930
119.05110168 271.06106567 446.21902466
107.79719543 274.83773804 448.06930542
127.83394623 278.27148438 447.66128540
116.70219421 282.98178101 448.88381958
141.83222961 202.14294434 377.56033325
140.67781067 213.10447693 370.45956421
150.83786011 207.35737610 376.78536987
150.13223267 217.93544006 370.36044312
141.86715698 327.05725098 418.59902954
142.77639771 332.62811279 428.49725342
152.36924744 332.89843750 422.90032959
152.94207764 338.15994263 433.19305420
133.85337830 328.71191406 431.34878540
132.34701538 329.98583984 441.64547729
144.57312012 335.56130981 437.23605347
142.79843140 335.69338989 447.11224365
150.05690002 317.97399902 402.55020142
151.42909241 325.25701904 411.34304810
160.22195435 321.49835205 406.95465088
161.38388062 328.61517334 415.67742920
149.38507080 305.16418457 384.79525757
150.47491455 313.38836670 393.02343750
159.38166809 306.62850952 391.13510132
160.09680176 314.74252319 399.19506836
101.20505524 275.73983765 451.37750244
94.39463806 280.23541260 460.58889771
105.63402557 287.94891357 445.27899170
99.13999939 292.18615723 453.69738770
148.95675659 288.24728394 370.89611816
150.03536987 297.73501587 377.86471558
158.64700317 289.51034546 377.90277100
159.51658630 298.50546265 384.71118164
125.44599915 185.06584167 387.97518921
123.71335602 195.46267700 380.51998901
132.97229004 190.64523315 383.37350464
131.50247192 201.20027161 376.04046631
147.04605103 267.45480347 360.80163574
147.84967041 278.04788208 365.45336914
156.79472351 269.73361206 367.43383789
157.79945374 279.07916260 372.20770264
138.06114197 223.68354797 362.54577637
137.93179321 235.38198853 358.53881836
147.73727417 227.75958252 363.61462402
148.18235779 238.44477844 360.56433105
141.29537964 246.16131592 356.67626953
141.70657349 257.54336548 357.46701050
151.27389526 249.50494385 360.90676880
152.11494446 259.40216064 362.37432861
123.66930389 319.68814087 405.52087402
125.42396545 322.97418213 415.80355835
133.64111328 323.75115967 410.20263672
135.18052673 326.32531738 420.51138306
97.47845459 313.00097656 434.90615845
101.12295532 313.71273804 444.32379150
107.75114441 320.19387817 437.78271484
111.13832092 319.75469971 447.15029907
129.49136353 313.62063599 386.49136353
130.95880127 319.01330566 396.16531372
140.12663269 317.56350708 391.22320557
140.91459656 322.51162720 401.39978027
109.69003296 318.53421021 419.35595703
112.28774261 320.73141479 429.48046875
119.87010956 323.54290771 423.68328857
122.22502136 324.83999634 433.97601318
111.94031525 173.92808533 398.94274902
108.62020874 183.95648193 392.37863159
117.22084045 179.71624756 391.21420288
114.23114014 189.81271362 384.41180420
120.53042603 207.67376709 372.11761475
119.10816956 218.89962769 365.87991333
129.41419983 211.95306396 367.98199463
128.66497803 222.88856506 361.97259521
71.68759155 270.61950684 461.87722778
75.03572845 275.79290771 470.32766724
76.35585785 281.08544922 454.28961182
79.95030212 285.31866455 463.08047485
128.41987610 298.43988037 370.88006592
129.76432800 306.99645996 378.58358765
139.60086060 302.92343140 374.64373779
140.16317749 311.05746460 383.02807617
81.54277039 291.24600220 445.08975220
85.41354370 294.85144043 453.80651855
89.36442566 302.41680908 442.21856689
93.34434509 304.76419067 451.35784912
126.81343079 277.80038452 361.12200928
128.13531494 288.08108521 366.24636841
137.94593811 282.28579712 363.77679443
138.93215942 291.79351807 369.45281982
105.79071808 308.47528076 399.26113892
107.66503143 313.08798218 408.65673828
115.15728760 315.12750244 400.75848389
116.75325775 318.98425293 410.96310425
118.13947296 232.62658691 360.41415405
118.18252563 244.25695801 357.92706299
128.04069519 236.61201477 357.98489380
128.99763489 247.55352783 356.11407471
120.53054810 255.58595276 357.32635498
121.45556641 266.57952881 359.27075195
131.00936890 259.83871460 357.35888672
132.41259766 269.84707642 359.77136230
66.07028198 244.66746521 457.47555542
66.33322906 254.07708740 463.57708740
68.32831573 253.48835754 448.60058594
68.64909363 263.69696045 455.42901611
91.18618011 300.69366455 414.83135986
93.42744446 305.19021606 423.54412842
99.37680054 308.84375000 414.62268066
101.64259338 312.56732178 424.12240601
105.40423584 195.41864014 386.20501709
103.12242126 206.07179260 379.93127441
111.06072998 200.32269287 378.77581787
109.24398804 210.94781494 372.36590576
108.76319885 300.76477051 382.21807861
110.20417023 307.96563721 390.23797607
118.59102631 307.71783447 382.66275024
119.60828400 314.39208984 391.80004883
97.73477173 179.96353149 405.84927368
94.07624817 190.25225830 400.67489624
100.83860016 185.32015991 396.66592407
97.65466309 195.60086060 390.79867554
80.15655518 286.20877075 427.86346436
82.56402588 291.96188354 435.73318481
86.29663849 295.69750977 424.80868530
89.03201294 300.99804688 433.55551147
71.49134827 266.98703003 440.51809692
73.28056335 274.41821289 447.67694092
75.67952728 276.76818848 434.17126465
77.67949677 284.34152222 442.23321533
69.57598877 225.37564087 448.42285156
67.81781769 235.61628723 453.36895752
71.07921600 232.97702026 439.10659790
69.18688202 243.94256592 444.25796509
74.07254028 205.65327454 441.71856689
71.36369324 216.34248352 445.03268433
75.49579620 212.45367432 432.13574219
72.58419800 223.84375000 435.26461792
82.28516388 192.48300171 428.37109375
78.90898895 203.29635620 428.95980835
83.56826782 198.75074768 418.41992188
80.29122162 209.96060181 418.20202637
107.33731079 282.73046875 370.55166626
108.36489868 292.15411377 376.18063354
116.91295624 288.97869873 369.52691650
118.12245178 297.88571167 375.76861572
103.23405457 220.89810181 371.36419678
102.28889465 232.16802979 366.86260986
110.90966797 225.30354309 365.38027954
110.82818604 236.36921692 361.20913696
90.47855377 291.53936768 398.81558228
91.72534180 298.11346436 406.65728760
97.40135193 299.86614990 396.65591431
98.96728516 305.94165039 405.61499023
72.02463531 250.24760437 432.48867798
71.94466400 259.31881714 438.19171143
74.56636810 258.59591675 424.50482178
74.62860107 268.49212646 430.77655029
104.67846680 262.03265381 364.52624512
105.67607117 272.79394531 367.41979980
114.23314667 267.61154175 361.68972778
115.89569855 277.81216431 364.99780273
87.85906982 194.46545410 409.91778564
84.47188568 205.15065002 407.15689087
89.89909363 199.93621826 400.09115601
86.89137268 210.65745544 396.45468140
78.03493500 273.80245972 416.00582886
79.00713348 281.13751221 422.76617432
82.15727234 282.79806519 410.51605225
83.60806274 290.07104492 418.17550659
94.34658051 202.38323975 389.00247192
91.78742218 213.10046387 384.15246582
98.85014343 207.31332397 380.48056030
96.86869812 217.87837219 375.33621216
74.08956146 230.84037781 426.78411865
72.54815674 240.96890259 430.57931519
75.86901093 238.00323486 418.18350220
74.44900513 248.94474792 422.05828857
98.85965729 240.70657349 368.72616577
98.84288788 251.99652100 367.87335205
107.03475952 245.65467834 362.91455078
108.05702209 256.63424683 362.37283325
92.29879761 278.94180298 383.01306152
92.92782593 287.97296143 388.83425903
99.46290588 286.42703247 379.36557007
100.73547363 295.17785645 386.01376343
77.73756409 214.12173462 421.11013794
75.32659149 224.73484802 422.79495239
79.37808990 220.61775208 411.94882202
77.10378265 231.78555298 413.25216675
81.97730255 267.38052368 399.01882935
82.00283813 276.36761475 404.45556641
86.00502777 275.29479980 392.95135498
86.65682983 284.39602661 399.12496948
91.83747864 260.00741577 375.95034790
92.18891907 270.65655518 378.86593628
99.04288483 266.47140503 370.59371948
100.36251831 276.81018066 373.81219482
89.03903198 214.95075989 390.30307007
86.90638733 225.64797974 387.35342407
92.86575317 220.20724487 381.55377197
91.41171265 230.78030396 378.35079956
77.09127045 247.46492004 410.95858765
76.23921967 257.58941650 415.09869385
79.54380035 254.82200623 402.65634155
78.99011230 265.47317505 407.17089844
88.71762848 233.24134827 383.22698975
87.73892212 244.08674622 381.95977783
93.80766296 238.69609070 375.36611938
93.64434052 249.54548645 374.15762329
79.82965088 230.91047668 404.56393433
78.26571655 241.27526855 406.09533691
82.18255615 237.38446045 396.04040527
81.07243347 248.11572266 397.38739014
83.21884155 216.04411316 401.32519531
80.87194061 226.78536987 399.98602295
85.83106232 221.88331604 392.07275391
83.91569519 232.69067383 390.25701904
83.27440643 241.88803101 391.92007446
82.19181824 252.71740723 393.49176025
87.03805542 248.41209412 383.45062256
86.57009888 259.28753662 385.04733276
140.43702698 153.47062683 413.44311523
140.43333435 153.47241211 413.44903564
140.43473816 153.46717834 413.44976807
140.43484497 153.45959473 413.45697021
242.83801270 249.58496094 427.35382080
242.84156799 249.57720947 427.36135864
242.84060669 249.58198547 427.35211182
242.85115051 249.57069397 427.36199951
157.81759644 245.88896179 368.08096313
157.81925964 245.89140320 368.08383179
157.81558228 245.88644409 368.08993530
157.81964111 245.88241577 368.09475708
162.70994568 217.43963623 479.06890869
162.71073914 217.44436646 479.07540894
162.70552063 217.44754028 479.06399536
162.71377563 217.45297241 479.07043457
175.52906799 269.90200806 431.96398926
175.52780151 269.89892578 431.96524048
175.52905273 269.90313721 431.97528076
175.53515625 269.89569092 431.97640991
188.89326477 204.52288818 415.87097168
188.89953613 204.51977539 415.87234497
188.88603210 204.53178406 415.87265015
188.89883423 204.52182007 415.87271118
133.49589539 195.16595459 376.97253418
133.49569702 195.16551208 376.97790527
133.49311829 195.15890503 376.96630859
133.49562073 195.15167236 376.97406006
174.42823792 169.71041870 454.05639648
174.42706299 169.70999146 454.06546021
174.42172241 169.71005249 454.06042480
174.42745972 169.70321655 454.06826782
211.63876343 228.78477478 465.07574463
211.64111328 228.78889465 465.07662964
211.63168335 228.78448486 465.07574463
211.64347839 228.78707886 465.07699585
137.86846924 236.19767761 442.31240845
137.86398315 236.19461060 442.31289673
137.85923767 236.19750977 442.30953979
137.86137390 236.19346619 442.30981445
191.02174377 249.28256226 396.38223267
191.02209473 249.27903748 396.38204956
191.02203369 249.28433228 396.38525391
191.02941895 249.27532959 396.38763428
141.61968994 187.97302246 467.11648560
141.61994934 187.97406006 467.12512207
141.60948181 187.97920227 467.11599731
141.61473083 187.97795105 467.12399292
160.55265808 183.24189758 402.54327393
160.55413818 183.23818970 402.54397583
160.54841614 183.24064636 402.54867554
160.55322266 183.22891235 402.54959106
187.01010132 203.58711243 454.36148071
187.01919556 203.58641052 454.36627197
187.00039673 203.59208679 454.36285400
187.01582336 203.58815002 454.36621094
166.53289795 215.97901917 385.99639893
166.53350830 215.97489929 386.00015259
166.53482056 215.97369385 386.00311279
166.53671265 215.96348572 386.00640869
173.92124939 241.02848816 450.32681274
173.92120361 241.02868652 450.32836914
173.91207886 241.02706909 450.32839966
173.91967773 241.02476501 450.33090210
204.25006104 232.62298584 427.45150757
204.25267029 232.61637878 427.45504761
204.24606323 232.62425232 427.45181274
204.25889587 232.61416626 427.45648193
216.05770874 267.64028931 408.41198730
216.06182861 267.63671875 408.41192627
216.05590820 267.63815308 408.41735840
216.06713867 267.62875366 408.42098999
164.11689758 145.00231934 436.59155273
164.11770630 145.00134277 436.60266113
164.11384583 144.99478149 436.60119629
164.11834717 144.98437500 436.60968018
196.73254395 260.05276489 455.93365479
196.73228455 260.05270386 455.93249512
196.72268677 260.05053711 455.93847656
196.72976685 260.04797363 455.93835449
178.33964539 176.05555725 423.62405396
178.33996582 176.05609131 423.62417603
178.32868958 176.06311035 423.62841797
178.33395386 176.05497742 423.62799072
222.45156860 252.52215576 447.73254395
222.45468140 252.51675415 447.73840332
222.44766235 252.52018738 447.73443604
222.45684814 252.51353455 447.74060059
130.04360962 171.84484863 395.46047974
130.04208374 171.84469604 395.46826172
130.04847717 171.83657837 395.46606445
130.04847717 171.82772827 395.47595215
170.69778442 264.24139404 383.58728027
170.69754028 264.24099731 383.59133911
170.69194031 264.24404907 383.59826660
170.69525146 264.24029541 383.60220337
180.70471191 237.78814697 477.98284912
180.70605469 237.79388428 477.98419189
180.68751526 237.79731750 477.97424316
180.69741821 237.80213928 477.97576904
140.60797119 216.77314758 365.82986450
140.60966492 216.77429199 365.83294678
140.60598755 216.77005005 365.82589722
140.61099243 216.76493835 365.83062744
249.97074890 238.29855347 406.54977417
249.98367310 238.29270935 406.54992676
249.97976685 238.29547119 406.53268433
249.99745178 238.28324890 406.53698730
185.47348022 227.09294128 405.44018555
185.47286987 227.08566284 405.44421387
185.47222900 227.09558105 405.44741821
185.47731018 227.08381653 405.45324707
167.35882568 193.45977783 464.80511475
167.36138916 193.46302795 464.80917358
167.35375977 193.46835327 464.79931641
167.36309814 193.46791077 464.80337524
188.38473511 272.94259644 396.90200806
188.38572693 272.94354248 396.90359497
188.37899780 272.94418335 396.90844727
188.38595581 272.93804932 396.91201782
173.06037903 238.40457153 384.39620972
173.05969238 238.40071106 384.39880371
173.05828857 238.40850830 384.40258789
173.06095886 238.39872742 384.40673828
203.42880249 213.02896118 440.91592407
203.43109131 213.03086853 440.91629028
203.42120361 213.03552246 440.91476440
203.43225098 213.03239441 440.91540527
159.35054016 239.81282043 469.34841919
159.34974670 239.81665039 469.35107422
159.34089661 239.81816101 469.34600830
159.34623718 239.82043457 469.34960938
163.41409302 159.33863831 419.07788086
163.41423035 159.33831787 419.08032227
163.40232849 159.34188843 419.08471680
163.40777588 159.33282471 419.08706665
149.69705200 254.24018860 447.67468262
149.69267273 254.24038696 447.67459106
149.69494629 254.24104309 447.67782593
149.69718933 254.23939514 447.67855835
218.92486572 248.11482239 422.37271118
218.92196655 248.11236572 422.37368774
218.92059326 248.11932373 422.37158203
218.92608643 248.11126709 422.37622070
183.98231506 222.77774048 443.10086060
183.98822021 222.77178955 443.10494995
183.96871948 222.77856445 443.09823608
183.97991943 222.77076721 443.10165405
156.88650513 229.04893494 447.63522339
156.88633728 229.04910278 447.63876343
156.88510132 229.05163574 447.62985229
156.89239502 229.04930115 447.63232422
179.26779175 221.69601440 464.69674683
179.27844238 221.69799805 464.69903564
179.25924683 221.69512939 464.70208740
179.27655029 221.69619751 464.70349121
189.38269043 189.53540039 439.62673950
189.38531494 189.53465271 439.63250732
189.36807251 189.53695679 439.63638306
189.37840271 189.53125000 439.64157104
215.83663940 232.80741882 443.68316650
215.84390259 232.80346680 443.68676758
215.82888794 232.80871582 443.68692017
215.84196472 232.80158997 443.69097900
150.85278320 198.51205444 386.06463623
150.85113525 198.51049805 386.06854248
150.84832764 198.50958252 386.06329346
150.85052490 198.50169373 386.06875610
168.27195740 263.89874268 449.06066895
168.26553345 263.89697266 449.06387329
168.26713562 263.89706421 449.07189941
168.26849365 263.89379883 449.07473755
199.09527588 241.44136047 473.44723511
199.09869385 241.44560242 473.44680786
199.08648682 241.44322205 473.44305420
199.09878540 241.44798279 473.44390869
176.63035583 191.13504028 409.84115601
176.63372803 191.13294983 409.84094238
176.62673950 191.14135742 409.84545898
176.63677979 191.13180542 409.84619141
156.44102478 168.64840698 459.54785156
156.43762207 168.64733887 459.55831909
156.43388367 168.64900208 459.54159546
156.43745422 168.64283752 459.54998779
148.62289429 205.92300415 474.29223633
148.62504578 205.92610168 474.29861450
148.61117554 205.92707825 474.28396606
148.62042236 205.93008423 474.29095459
178.71771240 159.86630249 432.85839844
178.71966553 159.86575317 432.86273193
178.71000671 159.86907959 432.86431885
178.71722412 159.85946655 432.86700439
234.42507935 257.00231934 413.02883911
234.43280029 256.99447632 413.03134155
234.42868042 257.00296021 413.02838135
234.44192505 256.99102783 413.03472900
198.24731445 245.22732544 412.56930542
198.24826050 245.22058105 412.57501221
198.24333191 245.23168945 412.57470703
198.24937439 245.22029114 412.57830811
213.15797424 247.57125854 463.80706787
213.16363525 247.57133484 463.81030273
213.15293884 247.57176208 463.81036377
213.16677856 247.57128906 463.81408691
189.13209534 219.56034851 426.39459229
189.13789368 219.55335999 426.39959717
189.12626648 219.56228638 426.39782715
189.13723755 219.55133057 426.40151978
142.88677979 182.69081116 391.14675903
142.88784790 182.68930054 391.15054321
142.88374329 182.69012451 391.14013672
142.88978577 182.68077087 391.14620972
156.97711182 225.26458740 374.90393066
156.97743225 225.26431274 374.90698242
156.97706604 225.26806641 374.90594482
156.98187256 225.26174927 374.90985107
144.39906311 167.09127808 403.73770142
144.40171814 167.09031677 403.74279785
144.39532471 167.08697510 403.73925781
144.40136719 167.07731628 403.74612427
188.18920898 235.51841736 460.30224609
188.18771362 235.52166748 460.30371094
188.17825317 235.52253723 460.29794312
188.18446350 235.52349854 460.29858398
177.18556213 209.63021851 397.25570679
177.18592834 209.62643433 397.25930786
177.18025208 209.62915039 397.25732422
177.18664551 209.61796570 397.26092529
165.43780518 197.53182983 395.37408447
165.43701172 197.53005981 395.37493896
165.43090820 197.53375244 395.37243652
165.43464661 197.52482605 395.37432861
199.84051514 231.76719666 448.92712402
199.84313965 231.76628113 448.92889404
199.83050537 231.76699829 448.92214966
199.84138489 231.76292419 448.92431641
184.26791382 257.80371094 445.50869751
184.26591492 257.80554199 445.50625610
184.26571655 257.80831909 445.51007080
184.27250671 257.80801392 445.50836182
170.08470154 154.90861511 449.81655884
170.08470154 154.90643311 449.83193970
170.07522583 154.90136719 449.82492065
170.08135986 154.89135742 449.83712769
202.84849548 261.58850098 403.43838501
202.85150146 261.58596802 403.43933105
202.84690857 261.59378052 403.44195557
202.85896301 261.58444214 403.44650269
166.52847290 250.95417786 441.16412354
166.52497864 250.95146179 441.16967773
166.52886963 250.95683289 441.16952515
166.53152466 250.95214844 441.17376709
193.48217773 202.71575928 433.19955444
193.48854065 202.71099854 433.20449829
193.47311401 202.71524048 433.20590210
193.48786926 202.70623779 433.20983887
184.95256042 175.10241699 438.77722168
184.95494080 175.10250854 438.78344727
184.94255066 175.10343933 438.78506470
184.95062256 175.09645081 438.78921509
182.29586792 186.57601929 452.63137817
182.29910278 186.57646179 452.63793945
182.28620911 186.58180237 452.63473511
182.29609680 186.57817078 452.63995361
227.84597778 247.48596191 434.32861328
227.84587097 247.48028564 434.33087158
227.84118652 247.48088074 434.32693481
227.84938049 247.47322083 434.33203125
152.89048767 211.28656006 378.08639526
152.89163208 211.28465271 378.08935547
152.88754272 211.28465271 378.08056641
152.89134216 211.27696228 378.08535767
204.27752686 218.24754333 457.79473877
204.28457642 218.24780273 457.79812622
204.26274109 218.25614929 457.78778076
204.27577209 218.25424194 457.79110718
164.53131104 173.00445557 412.30892944
164.52983093 173.00332642 412.31100464
164.52024841 173.00689697 412.31341553
164.52481079 172.99884033 412.31570435
186.25439453 250.17436218 458.52212524
186.25451660 250.17211914 458.52426147
186.24325562 250.17707825 458.52667236
186.25080872 250.17282104 458.52706909
143.98791504 229.14105225 454.51712036
143.98335266 229.14007568 454.52276611
143.98791504 229.14111328 454.51705933
143.98870850 229.13803101 454.52166748
180.08978271 225.53483582 392.01620483
180.09182739 225.52761841 392.01934814
180.08935547 225.53329468 392.01953125
180.09657288 225.52079773 392.02426147
184.19110107 189.76667786 422.10458374
184.19529724 189.76251221 422.10955811
184.17752075 189.77346802 422.11077881
184.18730164 189.76312256 422.11364746
148.66290283 228.38345337 363.76257324
148.66654968 228.38365173 363.76748657
148.66180420 228.37944031 363.76275635
148.66763306 228.37252808 363.77124023
149.38900757 243.02845764 456.40081787
149.38661194 243.02853394 456.40631104
149.38648987 243.03056335 456.40142822
149.38945007 243.02957153 456.40628052
180.16180420 256.07971191 390.40844727
180.16281128 256.07482910 390.41342163
180.15414429 256.07919312 390.41186523
180.15686035 256.06985474 390.41723633
190.86997986 232.67715454 431.42462158
190.86888123 232.67187500 431.42672729
190.86315918 232.67994690 431.42166138
190.87136841 232.67068481 431.42486572
195.50944519 215.83764648 412.23864746
195.51681519 215.83442688 412.23693848
195.50657654 215.84527588 412.23822021
195.52151489 215.83543396 412.23825073
175.62261963 237.97174072 464.59640503
175.62370300 237.97288513 464.59686279
175.61166382 237.97486877 464.59716797
175.61990356 237.97515869 464.59783936
242.86331177 239.84594727 417.56402588
242.86561584 239.83750916 417.57330322
242.86492920 239.83744812 417.56008911
242.87289429 239.82371521 417.57049561
211.61567688 248.69969177 411.46429443
211.61485291 248.69538879 411.46670532
211.60873413 248.70335388 411.46148682
211.61520386 248.69348145 411.46557617
177.57093811 200.90005493 462.72656250
177.57217407 200.90469360 462.73095703
177.56808472 200.90525818 462.72402954
177.57720947 200.90757751 462.72811890
148.90818787 242.41557312 440.64135742
148.90792847 242.41311646 440.64114380
148.90390015 242.41494751 440.64440918
148.90930176 242.41139221 440.64431763
131.63777161 184.79730225 385.60430908
131.63534546 184.79760742 385.61138916
131.63728333 184.79389954 385.60342407
131.63714600 184.78628540 385.61218262
155.65513611 149.90481567 422.53613281
155.65292358 149.90515137 422.54339600
155.64907837 149.90293884 422.54412842
155.65187073 149.89376831 422.54989624
195.85104370 251.66702271 466.67214966
195.85188293 251.66522217 466.67510986
195.84033203 251.66230774 466.67453003
195.85006714 251.66091919 466.67846680
187.43331909 236.27859497 397.11999512
187.43730164 236.27320862 397.12442017
187.43133545 236.27969360 397.12677002
187.43853760 236.26980591 397.13195801
171.09642029 226.47236633 481.37570190
171.09445190 226.47915649 481.37957764
171.08889771 226.47819519 481.37164307
171.09527588 226.48327637 481.37591553
164.05563354 262.31860352 436.46395874
164.04820251 262.31707764 436.46469116
164.05461121 262.31723022 436.46887207
164.05633545 262.31350708 436.47088623
167.37846375 253.50782776 378.31408691
167.37745667 253.50610352 378.31484985
167.37524414 253.51057434 378.31549072
167.38006592 253.50387573 378.31658936
153.08740234 159.57028198 412.27035522
153.09056091 159.56758118 412.27642822
153.08085632 159.56594849 412.27883911
153.08901978 159.55479431 412.28521729
161.69290161 183.08964539 461.64215088
161.69685364 183.08764648 461.65063477
161.68403625 183.09291077 461.64199829
161.69509888 183.08676147 461.64978027
217.36660767 241.65493774 432.52490234
217.36676025 241.64863586 432.52545166
217.35903931 241.65280151 432.53009033
217.36735535 241.64436340 432.53283691
191.42239380 213.30970764 443.82223511
191.42655945 213.30642700 443.82708740
191.41362000 213.31306458 443.82144165
191.42523193 213.30697632 443.82614136
232.61914062 245.09213257 423.05850220
232.62097168 245.08509827 423.06390381
232.61437988 245.08506775 423.05993652
232.62408447 245.07397461 423.06707764
193.63449097 234.70587158 420.17718506
193.63339233 234.70175171 420.18176270
193.63365173 234.71604919 420.17736816
193.63948059 234.70614624 420.18200684
170.76887512 212.17485046 472.34106445
170.77288818 212.17854309 472.34704590
170.76567078 212.17611694 472.33847046
170.77847290 212.17813110 472.34420776
162.15696716 235.76568604 374.11215210
162.15716553 235.76457214 374.11685181
162.15182495 235.76525879 374.11840820
162.15605164 235.75857544 374.12493896
155.90510559 194.18621826 466.60647583
155.90716553 194.18679810 466.61489868
155.89971924 194.19119263 466.59985352
155.90872192 194.18943787 466.60803223
208.27079773 222.07666016 435.61343384
208.27604675 222.07464600 435.61428833
208.26293945 222.08161926 435.61550903
208.27630615 222.07557678 435.61660767
161.33122253 240.76162720 442.15386963
161.32911682 240.76109314 442.15560913
161.32659912 240.76545715 442.14874268
161.33232117 240.76261902 442.15066528
136.46023560 204.38201904 371.01171875
136.46176147 204.38121033 371.01739502
136.46365356 204.37664795 371.01031494
136.46710205 204.36892700 371.01779175
185.37072754 216.83036804 400.41036987
185.37370300 216.82731628 400.40963745
185.36457825 216.83227539 400.40945435
185.37351990 216.82257080 400.40979004
201.64141846 233.84397888 465.49868774
201.64270020 233.84341431 465.50506592
201.63871765 233.84320068 465.49765015
201.64955139 233.84307861 465.50418091
218.55407715 243.88117981 454.71768188
218.55838013 243.87977600 454.71749878
218.55093384 243.87628174 454.72576904
218.56274414 243.87492371 454.72744751
178.86976624 257.88406372 435.88375854
178.86439514 257.88516235 435.88418579
178.86825562 257.88607788 435.88327026
178.87197876 257.88333130 435.88421631
223.77151489 259.56399536 413.66070557
223.77485657 259.55715942 413.66525269
223.76672363 259.56448364 413.66387939
223.77664185 259.55346680 413.66998291
189.95765686 260.13375854 395.87097168
189.95944214 260.13238525 395.87390137
189.95620728 260.13726807 395.87585449
189.96520996 260.12890625 395.88006592
161.45330811 156.48947144 456.05062866
161.44886780 156.48858643 456.06616211
161.44561768 156.48544312 456.04898071
161.44807434 156.47750854 456.06072998
213.26217651 239.12815857 420.80947876
213.26454163 239.12237549 420.81179810
213.26010132 239.12933350 420.80929565
213.27056885 239.11836243 420.81488037
164.94496155 270.14135742 429.19238281
164.93902588 270.14093018 429.19290161
164.94647217 270.14498901 429.20123291
164.94798279 270.14114380 429.20025635
179.52346802 263.76644897 452.83709717
179.51870728 263.76480103 452.83697510
179.51600647 263.76290894 452.84448242
179.52009583 263.75994873 452.84445190
151.36030579 183.25575256 463.79342651
151.36270142 183.25451660 463.80242920
151.35180664 183.26097107 463.79003906
151.36062622 183.25695801 463.79824829
195.93563843 209.11886597 425.34259033
195.94409180 209.10955811 425.34667969
195.92936707 209.11524963 425.34725952
195.94403076 209.10154724 425.35165405
176.04988098 199.32479858 403.41079712
176.04925537 199.32003784 403.41278076
176.04241943 199.32809448 403.41113281
176.04826355 199.31683350 403.41390991
190.52343750 233.41281128 444.62994385
190.52581787 233.40913391 444.63314819
190.51193237 233.41876221 444.62780762
190.52183533 233.41299438 444.63021851
178.68540955 163.77546692 446.81298828
178.68368530 163.77598572 446.82519531
178.67727661 163.76855469 446.81884766
178.68225098 163.76301575 446.82888794
209.92893982 218.55484009 449.21945190
209.93450928 218.55461121 449.22106934
209.91215515 218.55926514 449.21548462
209.92608643 218.55630493 449.21719360
181.87229919 176.89855957 449.31307983
181.87231445 176.89950562 449.32012939
181.86203003 176.89990234 449.31777954
181.87106323 176.89422607 449.32336426
183.69508362 217.57579041 451.87115479
183.70252991 217.57450867 451.87573242
183.68371582 217.57519531 451.87225342
183.69808960 217.57128906 451.87631226
215.38687134 234.46665955 456.93630981
215.39312744 234.46537781 456.93890381
215.38391113 234.46517944 456.94360352
215.39776611 234.46298218 456.94644165
169.20892334 202.85516357 468.59548950
169.21215820 202.85800171 468.60110474
169.20568848 202.85993958 468.59445190
169.21536255 202.86021423 468.59951782
186.19329834 183.21389771 432.35385132
186.19920349 183.21073914 432.35900879
186.18035889 183.21728516 432.35821533
186.19235229 183.20704651 432.36172485
188.11846924 227.68338013 415.20410156
188.12005615 227.67567444 415.20974731
188.11625671 227.68821716 415.20956421
188.12565613 227.67663574 415.21493530
181.99516296 209.90498352 462.71020508
182.00476074 209.90589905 462.71331787
181.98980713 209.91249084 462.70983887
182.00495911 209.91163635 462.71319580
148.36790466 173.62606812 462.78152466
148.36676025 173.62431335 462.79452515
148.35671997 173.62687683 462.77139282
148.36257935 173.62066650 462.78289795
167.62657166 236.27397156 456.51110840
167.62753296 236.27346802 456.51275635
167.62400818 236.27838135 456.51116943
167.62930298 236.27574158 456.51205444
172.88084412 161.93328857 425.04922485
172.87886047 161.93484497 425.05462646
172.86686707 161.93875122 425.05227661
172.87135315 161.93225098 425.05459595
189.88299561 197.85488892 445.08279419
189.88610840 197.85331726 445.08898926
189.87231445 197.85708618 445.08639526
189.88333130 197.85205078 445.09179688
145.24931335 209.89521790 372.03277588
145.25077820 209.89421082 372.03869629
145.24552917 209.89328003 372.03228760
145.24984741 209.88572693 372.03857422
191.45202637 242.81304932 465.85565186
191.45619202 242.81338501 465.85665894
191.44497681 242.81001282 465.85864258
191.45767212 242.81018066 465.86053467
183.07612610 204.77255249 407.29846191
183.07501221 204.76914978 407.29971313
183.07217407 204.77749634 407.30612183
183.07614136 204.76704407 407.30706787
175.02000427 189.34309387 458.36120605
175.02250671 189.34309387 458.36892700
175.01277161 189.34490967 458.36285400
175.02232361 189.34170532 458.36938477
155.57383728 187.70526123 395.65826416
155.57443237 187.70361328 395.65945435
155.56837463 187.70582581 395.65686035
155.57322693 187.69743347 395.65975952
164.58377075 205.34115601 389.89602661
164.58299255 205.33879089 389.89846802
164.58306885 205.33831787 389.89947510
164.58517456 205.32923889 389.90347290
170.56172180 224.58009338 384.85174561
170.56111145 224.57528687 384.85458374
170.56201172 224.57929993 384.85089111
170.56507874 224.56895447 384.85479736
167.72906494 238.23635864 473.53195190
167.73286438 238.23872375 473.53549194
167.71998596 238.23330688 473.53973389
167.73052979 238.23516846 473.54357910
181.46846008 225.73320007 456.03152466
181.47431946 225.73411560 456.03442383
181.45974731 225.73693848 456.02935791
181.47163391 225.73616028 456.03240967
239.48025513 246.99066162 412.54043579
239.48370361 246.98342896 412.54287720
239.48788452 246.98428345 412.53530884
239.49792480 246.97248840 412.54122925
165.95794678 150.14010620 429.01852417
165.95544434 150.14208984 429.02783203
165.94712830 150.13877869 429.02590942
165.95033264 150.13174438 429.03302002
176.85650635 253.38653564 449.06103516
176.85374451 253.38525391 449.06268311
176.85224915 253.39047241 449.06323242
176.85813904 253.38832092 449.06524658
168.21824646 181.21786499 409.89584351
168.21629333 181.21908569 409.89733887
168.20945740 181.22363281 409.89877319
168.21492004 181.21710205 409.89947510
159.64875793 217.35655212 379.84176636
159.64953613 217.35424805 379.84463501
159.64474487 217.35391235 379.84155273
159.64953613 217.34556580 379.84454346
164.94421387 166.21023560 456.86312866
164.94390869 166.20773315 456.87478638
164.93801880 166.20675659 456.86471558
164.94380188 166.19833374 456.87286377
159.72930908 253.16302490 447.01019287
159.72795105 253.15983582 447.01235962
159.72789001 253.16352844 447.01583862
159.73173523 253.15960693 447.01733398
165.84098816 175.56278992 458.28323364
165.84036255 175.56109619 458.29339600
165.83007812 175.56500244 458.28088379
165.83717346 175.55747986 458.29037476
175.49491882 178.82504272 455.59524536
175.49406433 178.82501221 455.60266113
175.48558044 178.82870483 455.58999634
175.49279785 178.82363892 455.59582520
203.33087158 229.00903320 457.91809082
203.33294678 229.00831604 457.92129517
203.32360840 229.00891113 457.92126465
203.33386230 229.00779724 457.92346191
154.94635010 176.19445801 402.28952026
154.94853210 176.19219971 402.29190063
154.94247437 176.19378662 402.29193115
154.94885254 176.18347168 402.29525757
162.37648010 209.48822021 474.10412598
162.37930298 209.49325562 474.10928345
162.37353516 209.49839783 474.09756470
162.38365173 209.50149536 474.10311890
212.63264465 255.64614868 459.90304565
212.63694763 255.64424133 459.90692139
212.63285828 255.64453125 459.90820312
212.64479065 255.64192200 459.91244507
176.24996948 156.55030823 442.07449341
176.25222778 156.54840088 442.08929443
176.24114990 156.54884338 442.08529663
176.24905396 156.53912354 442.09793091
161.95544434 148.78833008 451.62344360
161.94836426 148.78961182 451.63363647
161.95030212 148.78231812 451.62609863
161.94900513 148.77508545 451.63348389
181.37344360 195.95983887 456.40203857
181.37648010 195.96109009 456.40753174
181.36334229 195.96925354 456.39828491
181.37330627 195.96656799 456.40350342
170.29904175 267.40853882 440.18890381
170.29638672 267.40270996 440.19711304
170.29244995 267.40856934 440.19149780
170.29530334 267.40072632 440.19921875
157.70999146 167.62910461 410.51397705
157.70886230 167.62878418 410.51394653
157.70037842 167.63034058 410.51702881
157.70384216 167.62026978 410.51724243
151.12043762 233.90950012 441.58340454
151.12002563 233.90602112 441.58609009
151.12019348 233.90847778 441.57708740
151.12567139 233.90281677 441.57931519
159.49693298 209.51368713 383.89755249
159.49713135 209.51094055 383.90124512
159.49235535 209.51452637 383.89324951
159.49560547 209.50616455 383.89758301
207.14299011 242.44393921 469.95114136
207.14573669 242.44459534 469.95565796
207.13803101 242.44587708 469.95040894
207.14941406 242.44660950 469.95465088
218.73536682 241.12280273 444.29049683
218.73902893 241.11724854 444.29351807
218.72817993 241.12211609 444.29516602
218.73937988 241.11500549 444.29846191
188.84939575 196.06671143 426.10821533
188.85435486 196.06159973 426.11087036
188.83625793 196.07203674 426.11068726
188.84732056 196.06088257 426.11242676
168.16490173 148.21643066 444.45220947
168.15827942 148.21807861 444.46127319
168.16004944 148.20748901 444.45431519
168.15817261 148.19934082 444.46047974
188.73892212 261.10311890 452.23284912
188.73632812 261.10525513 452.22888184
188.73037720 261.10751343 452.23715210
188.73658752 261.10723877 452.23492432
237.57321167 251.38670349 434.02819824
237.57556152 251.38040161 434.03707886
237.57296753 251.38327026 434.02618408
237.58265686 251.37324524 434.03588867
146.61262512 194.82119751 469.02502441
146.61802673 194.82138062 469.03140259
146.60224915 194.82652283 469.02447510
146.61279297 194.82492065 469.03094482
185.95968628 182.94387817 444.62713623
185.96556091 182.94334412 444.63412476
185.95149231 182.94517517 444.63418579
185.96363831 182.93893433 444.63946533
174.91033936 220.94987488 475.89355469
174.91397095 220.95497131 475.89779663
174.90411377 220.95327759 475.89294434
174.91683960 220.95721436 475.89648438
212.88755798 224.39785767 457.74398804
212.88960266 224.39947510 457.74591064
212.88133240 224.39921570 457.74285889
212.89033508 224.40078735 457.74478149
201.48234558 217.40573120 448.19958496
201.48765564 217.40568542 448.20245361
201.47052002 217.40806580 448.19680786
201.48301697 217.40330505 448.20040894
147.57250977 202.45318604 379.23745728
147.57315063 202.45198059 379.24172974
147.57284546 202.45133972 379.23440552
147.57786560 202.44303894 379.24026489
154.56648254 215.21377563 478.08837891
154.56867981 215.21865845 478.09191895
154.55519104 215.22195435 478.08593750
154.56367493 215.22726440 478.08929443
157.68107605 144.69137573 431.08285522
157.67526245 144.69580078 431.08889771
157.67823792 144.69195557 431.08398438
157.67701721 144.68515015 431.08721924
194.00369263 245.18389893 405.22894287
194.00492859 245.17652893 405.23324585
194.00360107 245.18763733 405.23623657
194.01158142 245.17530823 405.24050903
144.09201050 189.61726379 386.45227051
144.09274292 189.61482239 386.45535278
144.08987427 189.61627197 386.44812012
144.09313965 189.60713196 386.45349121
229.29377747 252.91181946 442.78982544
229.29498291 252.90934753 442.79138184
229.28985596 252.90855408 442.78692627
229.29884338 252.90296936 442.79034424
156.92091370 195.83210754 391.22094727
156.92343140 195.83003235 391.22308350
156.91896057 195.83557129 391.22155762
156.92602539 195.82685852 391.22503662
195.07934570 213.97111511 432.13189697
195.08589172 213.96430969 432.13589478
195.07098389 213.97373962 432.13488770
195.08299255 213.96174622 432.13891602
182.82266235 171.52177429 431.48953247
182.82977295 171.51885986 431.49682617
182.81132507 171.52203369 431.49804688
182.82434082 171.51165771 431.50369263
201.76794434 250.97036743 407.58712769
201.76782227 250.96455383 407.58953857
201.76257324 250.97430420 407.58883667
201.76918030 250.96389771 407.59249878
214.95498657 233.96176147 434.75753784
214.96011353 233.95573425 434.76147461
214.95007324 233.95747375 434.76004028
214.96276855 233.94781494 434.76449585
165.88880920 190.75115967 400.20376587
165.88995361 190.74942017 400.20275879
165.88476562 190.75624084 400.20870972
165.88986206 190.74636841 400.20782471
186.65956116 243.70057678 392.04873657
186.66024780 243.69692993 392.04901123
186.65713501 243.70397949 392.05169678
186.66311646 243.69438171 392.05395508
146.22431946 173.65597534 399.10891724
146.22822571 173.65411377 399.11431885
146.22062683 173.65452576 399.11206055
146.22973633 173.64480591 399.11849976
186.97073364 238.28771973 472.67135620
186.97122192 238.29312134 472.67211914
186.96133423 238.29014587 472.66702271
186.97126770 238.29481506 472.66802979
161.53253174 199.88705444 468.58303833
161.53631592 199.88960266 468.58721924
161.52540588 199.89678955 468.57586670
161.53555298 199.89762878 468.58026123
170.95683289 259.10470581 433.35467529
170.94998169 259.10473633 433.35665894
170.95477295 259.10656738 433.35476685
170.95724487 259.10290527 433.35684204
204.78485107 224.76820374 442.53442383
204.78820801 224.76634216 442.53683472
204.77293396 224.77372742 442.53195190
204.78231812 224.76928711 442.53518677
186.90487671 225.47879028 431.41268921
186.90716553 225.47216797 431.41589355
186.90269470 225.48200989 431.41040039
186.91200256 225.47300720 431.41409302
177.32194519 263.59930420 389.63854980
177.32344055 263.59832764 389.64123535
177.31512451 263.60418701 389.64663696
177.31880188 263.59790039 389.65069580
155.50071716 237.82000732 455.90255737
155.50222778 237.82002258 455.90576172
155.49876404 237.81842041 455.90582275
155.50509644 237.81651306 455.90893555
147.93882751 217.24032593 368.99618530
147.93911743 217.24072266 369.00134277
147.93849182 217.23966980 368.99822998
147.94094849 217.23365784 369.00616455
175.18553162 251.73501587 386.06402588
175.18559265 251.73051453 386.06817627
175.17778015 251.73733521 386.06781006
175.18098450 251.72872925 386.07263184
191.37373352 220.35746765 407.24481201
191.37759399 220.34892273 407.24993896
191.37174988 220.35673523 407.25180054
191.38044739 220.34230042 407.25772095
198.14910889 215.13237000 419.64260864
198.16032410 215.12712097 419.64450073
198.14334106 215.13792419 419.63763428
198.16180420 215.12742615 419.64031982
156.04936218 232.45957947 370.36694336
156.04968262 232.45846558 370.37078857
156.04537964 232.45948792 370.36779785
156.04972839 232.45327759 370.37377930
144.35855103 231.67979431 444.90734863
144.35513306 231.67622375 444.91067505
144.35459900 231.67817688 444.90560913
144.35731506 231.67414856 444.90728760
172.47387695 215.90872192 391.05047607
172.47474670 215.90443420 391.05355835
172.47123718 215.90997314 391.05697632
172.47817993 215.89907837 391.06054688
206.92492676 242.63873291 417.93936157
206.92236328 242.63108826 417.94195557
206.92413330 242.63925171 417.93640137
206.93019104 242.62760925 417.93969727
172.93933105 162.36306763 451.98168945
172.94004822 162.36212158 451.99517822
172.93367004 162.36145020 451.98550415
172.93965149 162.35357666 451.99645996
208.61685181 266.41162109 406.75616455
208.61926270 266.41220093 406.75579834
208.61354065 266.41934204 406.75988770
208.62420654 266.41314697 406.76406860
188.74310303 190.45585632 431.87918091
188.74703979 190.45393372 431.88391113
188.72827148 190.46151733 431.88439941
188.73854065 190.45338440 431.88851929
177.41958618 264.62322998 441.06375122
177.41314697 264.62442017 441.06365967
177.41850281 264.62442017 441.06961060
177.42007446 264.62179565 441.07003784
173.97636414 169.03207397 422.30145264
173.97558594 169.03137207 422.30743408
173.96234131 169.03742981 422.30969238
173.96922302 169.02943420 422.31427002
179.16961670 228.91020203 467.34390259
179.17436218 228.91288757 467.34375000
179.16239929 228.91383362 467.33865356
179.17330933 228.91540527 467.33801270
136.52996826 158.06591797 408.67703247
136.52366638 158.06759644 408.68203735
136.52891541 158.05865479 408.68011475
136.52603149 158.05014038 408.68600464
168.64114380 245.82969666 446.49301147
168.64010620 245.82777405 446.49667358
168.63735962 245.82899475 446.49008179
168.64265442 245.82516479 446.49407959
209.42372131 235.17773438 469.10125732
209.42233276 235.18128967 469.10531616
209.41578674 235.17720032 469.09887695
209.42608643 235.18022156 469.10369873
165.18203735 235.72167969 449.27896118
165.18344116 235.71926880 449.28152466
165.17726135 235.72151184 449.28060913
165.18447876 235.71775818 449.28253174
199.22732544 255.32546997 400.98742676
199.22885132 255.32351685 400.98852539
199.22598267 255.33152771 400.98837280
199.23567200 255.32318115 400.99163818
156.73016357 246.91183472 443.84286499
156.72894287 246.91128540 443.84262085
156.72859192 246.91133118 443.84268188
156.73522949 246.90936279 443.84384155
184.18186951 267.40100098 393.84442139
184.18417358 267.40032959 393.84826660
184.18035889 267.40539551 393.85040283
184.18772888 267.39840698 393.85601807
182.92237854 182.91029358 425.08572388
182.92497253 182.90762329 425.09179688
182.91055298 182.91441345 425.09414673
182.92178345 182.90556335 425.09857178
197.29435730 233.76423645 441.26873779
197.29800415 233.76097107 441.27307129
197.28240967 233.77668762 441.26263428
197.29220581 233.76914978 441.26727295
181.53782654 194.52381897 414.47695923
181.53775024 194.52212524 414.47683716
181.52615356 194.53051758 414.48428345
181.53329468 194.52325439 414.48385620
182.97904968 236.82408142 391.07467651
182.98358154 236.81787109 391.07705688
182.97917175 236.82592773 391.08218384
182.98741150 236.81486511 391.08535767
170.44613647 188.56999207 405.76315308
170.44931030 188.56596375 405.76367188
170.43731689 188.57209778 405.76821899
170.44515991 188.56127930 405.76803589
141.31109619 200.48254395 375.63052368
141.31069946 200.48249817 375.63421631
141.30801392 200.48062134 375.62820435
141.31134033 200.47259521 375.63421631
142.77304077 239.86979675 446.53094482
142.76992798 239.86714172 446.53378296
142.76713562 239.86853027 446.53182983
142.76901245 239.86549377 446.53424072
201.81455994 232.19523621 434.46685791
201.81632996 232.19100952 434.46997070
201.80761719 232.19540405 434.46835327
201.81764221 232.18858337 434.47210693
199.04818726 239.10058594 416.69421387
199.04818726 239.09767151 416.69696045
199.04557800 239.10543823 416.69332886
199.05264282 239.09678650 416.69665527
246.28356934 245.17111206 421.41513062
246.28784180 245.16299438 421.42016602
246.28823853 245.16616821 421.41021729
246.29861450 245.15388489 421.41921997
168.95860291 246.40617371 379.63336182
168.95901489 246.40397644 379.63729858
168.95838928 246.40721130 379.63613892
168.96299744 246.39926147 379.64147949
185.75743103 228.99256897 395.26068115
185.76100159 228.98419189 395.26449585
185.75822449 228.99212646 395.26446533
185.76646423 228.97889709 395.26885986
170.87164307 149.38394165 437.68475342
170.87188721 149.38342285 437.69125366
170.86701965 149.37969971 437.69189453
170.87231445 149.36941528 437.69540405
221.65885925 252.81346130 415.76095581
221.66098022 252.80603027 415.76547241
221.65835571 252.81314087 415.75982666
221.66716003 252.80056763 415.76687622
139.54260254 192.90167236 380.47830200
139.54148865 192.90058899 380.48333740
139.54171753 192.89770508 380.47753906
139.54220581 192.88977051 380.48397827
188.83764648 210.28704834 451.95440674
188.84362793 210.28833008 451.95834351
188.82409668 210.29064941 451.95690918
188.83897400 210.28858948 451.96008301
157.13987732 205.00296021 471.64596558
157.13743591 205.00804138 471.65185547
157.13255310 205.01049805 471.63308716
157.13800049 205.01425171 471.63851929
213.47171021 236.78009033 427.73150635
213.47421265 236.77703857 427.73223877
213.46731567 236.78457642 427.73385620
213.47885132 236.77795410 427.73574829
162.57275391 229.42079163 377.71087646
162.57318115 229.41658020 377.71524048
162.56929016 229.42044067 377.70919800
162.57377625 229.41120911 377.71484375
181.67193604 164.58615112 437.56240845
181.67636108 164.58441162 437.56988525
181.66113281 164.58477783 437.57012939
181.67102051 164.57569885 437.57571411
189.25723267 230.27616882 423.93872070
189.26043701 230.26889038 423.94458008
189.25167847 230.28425598 423.94067383
189.25949097 230.27290344 423.94607544
187.16101074 191.58802795 447.56967163
187.16555786 191.58757019 447.57495117
187.14903259 191.59420776 447.57196045
187.16096497 191.58859253 447.57644653
202.37551880 249.10122681 468.56320190
202.37660217 249.10185242 468.56430054
202.36453247 249.10105896 468.55926514
202.37463379 249.10160828 468.56207275
162.16146851 244.44128418 373.70562744
162.16235352 244.44197083 373.70770264
162.15904236 244.44465637 373.70898438
162.16229248 244.43972778 373.71215820
176.88534546 209.56823730 467.81689453
176.89051819 209.57168579 467.82348633
176.88105774 209.57575989 467.81713867
176.89390564 209.57716370 467.82220459
234.81420898 245.88473511 430.26843262
234.81442261 245.87965393 430.27487183
234.80804443 245.88078308 430.26724243
234.81590271 245.87217712 430.27584839
147.03300476 152.29110718 415.97744751
147.02989197 152.29107666 415.98443604
147.02798462 152.28460693 415.98260498
147.02856445 152.27371216 415.98941040
196.68975830 234.90602112 426.64218140
196.69087219 234.90039062 426.64630127
196.68058777 234.91296387 426.63909912
196.68775940 234.90237427 426.64303589
170.23463440 231.30506897 382.45922852
170.23429871 231.30223083 382.46133423
170.23335266 231.30471802 382.46124268
170.23672485 231.29586792 382.46475220
148.44239807 180.81481934 395.15670776
148.44390869 180.81242371 395.15875244
148.43870544 180.81297302 395.15478516
148.44401550 180.80232239 395.15750122
131.77143860 177.48246765 391.51501465
131.76943970 177.48361206 391.51995850
131.77154541 177.48002625 391.51742554
131.77223206 177.47259521 391.52447510
177.33804321 242.64921570 388.12057495
177.33685303 242.64411926 388.12301636
177.33119202 242.65255737 388.12442017
177.33651733 242.64363098 388.12841797
144.12072754 181.72702026 464.98144531
144.11956787 181.72698975 464.98986816
144.11090088 181.73083496 464.97564697
144.11595154 181.72869873 464.98382568
202.04808044 214.11547852 433.05813599
202.05412292 214.11004639 433.06192017
202.03701782 214.11791992 433.06079102
202.04864502 214.10803223 433.06427002
173.27665710 156.28414917 430.27029419
173.27307129 156.28666687 430.27526855
173.26527405 156.28631592 430.27029419
173.26687622 156.27984619 430.27261353
166.67868042 165.25448608 417.22769165
166.68013000 165.25483704 417.22891235
166.66842651 165.26049805 417.23025513
166.67410278 165.25140381 417.23162842
153.04327393 231.72723389 453.47396851
153.04263306 231.72747803 453.47784424
153.04081726 231.72636414 453.47152710
153.04675293 231.72650146 453.47406006
192.82147217 202.64752197 440.91134644
192.82775879 202.64595032 440.91540527
192.81002808 202.65185547 440.91552734
192.82333374 202.64450073 440.91827393
183.24633789 210.52124023 402.52178955
183.24853516 210.51583862 402.52447510
183.24121094 210.52462769 402.52832031
183.24885559 210.51252747 402.53121948
190.30644226 237.39836121 403.37033081
190.30584717 237.39260864 403.37048340
190.30841064 237.39973450 403.37686157
190.31832886 237.39042664 403.37872314
186.42355347 254.54391479 393.67892456
186.42623901 254.53973389 393.68313599
186.42268372 254.54475403 393.68432617
186.43038940 254.53398132 393.68893433
152.36019897 225.53070068 368.92053223
152.36294556 225.52937317 368.92654419
152.35955811 225.52478027 368.92071533
152.36354065 225.51756287 368.92846680
169.92993164 172.67256165 416.63214111
169.92630005 172.67425537 416.63296509
169.91879272 172.67793274 416.63510132
169.92094421 172.67153931 416.63653564
213.24008179 227.16893005 440.67984009
213.24560547 227.16293335 440.68273926
213.22813416 227.16670227 440.68103027
213.24179077 227.15798950 440.68469238
