ply
format ascii 1.0
element vertex 2048
property float x
property float y
property float z
end_header
291.18899536 190.49000549 429.72500610
88.32299805 161.29399109 542.57299805
155.77499390 93.28299713 404.88601685
157.73199463 227.06698608 442.39999390
90.54399872 154.65399170 445.68600464
174.57899475 140.99200439 482.49099731
233.03698730 222.10299683 493.75997925
213.41299438 175.31900024 417.19897461
140.59300232 168.27699280 386.20999146
122.09700012 90.00399780 473.10900879
130.01499939 209.93299866 509.20700073
238.63099670 223.84999084 435.92398071
126.67299652 130.86199951 512.16601562
179.36100769 197.45600891 485.49499512
107.69200134 121.29299927 404.79800415
107.93799591 205.13999939 457.86999512
173.97099304 93.03399658 456.20797729
190.66099548 128.96600342 422.84799194
175.15000916 202.98300171 399.73397827
139.53100586 166.36599731 456.84100342
95.55699921 171.75399780 494.37799072
125.52300262 206.66400146 412.73199463
221.98199463 186.30899048 463.87600708
199.10099792 230.11100769 459.46499634
94.72299957 126.58999634 479.42401123
119.13300323 86.08700562 427.15899658
103.85599518 170.31300354 408.55200195
185.82299805 163.47299194 449.00701904
141.05300903 170.90899658 499.07800293
252.59599304 174.90100098 432.85400391
162.12300110 133.20599365 393.03500366
154.35400391 230.69200134 483.09201050
202.35800171 211.51399231 426.36297607
97.96299744 116.07599640 443.13699341
147.92298889 114.55999756 485.58300781
181.39900208 164.99899292 398.17800903
116.97400665 181.61900330 528.69396973
269.20397949 210.73500061 448.91598511
200.27099609 218.34599304 504.32800293
181.71299744 197.80099487 451.15301514
150.46699524 77.16500092 437.12600708
139.09199524 198.15798950 479.11001587
183.27699280 96.63800049 423.98599243
248.38800049 230.45199585 466.68099976
180.85700989 127.14500427 453.39901733
130.61900330 137.65299988 388.56900024
98.42900085 145.64999390 514.78704834
164.27899170 170.98500061 476.44201660
114.18999481 105.29699707 499.13400269
152.58399963 221.66700745 410.84201050
98.33300018 185.08399963 434.75698853
109.07699585 198.21000671 491.38299561
151.27099609 85.65200043 477.51400757
129.19400024 217.15899658 440.94900513
145.12098694 197.13899231 390.92999268
95.36699677 179.07899475 463.87402344
214.93699646 163.46000671 443.46301270
233.12300110 197.29701233 426.06900024
149.72200012 143.46299744 496.88101196
131.85099792 108.51900482 396.25497437
207.40699768 199.96899414 484.34201050
195.27700806 180.41198730 468.99099731
241.53298950 204.83599854 457.77499390
95.88099670 142.57800293 421.47299194
90.19100189 153.72499084 473.11898804
181.09799194 224.13900757 480.06201172
178.38400269 114.10600281 403.44302368
126.19001007 157.81599426 519.72198486
128.05799866 219.43501282 467.80401611
176.67700195 217.34399414 424.85800171
187.74899292 155.07600403 424.13397217
122.29000092 185.09001160 398.13900757
211.02999878 228.33999634 482.29199219
108.97000122 147.22601318 397.36700439
109.04000092 147.66099548 537.81597900
169.60400391 116.17899323 473.00601196
192.09199524 186.26300049 407.49499512
128.61099243 81.71299744 450.52999878
163.51799011 179.46400452 388.74700928
225.02799988 229.92900085 459.36099243
105.61700439 105.58699799 463.85299683
94.97299957 171.58200073 521.49499512
136.00799561 94.29199982 494.07199097
107.51199341 125.31299591 525.29595947
256.49099731 200.36000061 431.76202393
158.68200684 207.70199585 490.96398926
175.62599182 229.27799988 457.13699341
177.45199585 213.07499695 503.54803467
162.11499023 155.94300842 388.29998779
133.42300415 224.05799866 490.02099609
102.42000580 124.83000183 501.81298828
271.50500488 180.00300598 420.90499878
233.59901428 176.59500122 445.72698975
91.75799561 134.49800110 456.11199951
228.08299255 206.51599121 477.59399414
215.79901123 226.30200195 437.02899170
159.95199585 150.72500610 467.41699219
183.06300354 143.56100464 404.89797974
110.52799988 203.31900024 430.29000854
105.23100281 105.69499969 425.20401001
137.94000244 86.10800171 415.89401245
129.64299011 188.19900513 511.88098145
151.51300049 223.33100891 462.99200439
185.48199463 109.37000275 442.06399536
191.63099670 224.18600464 440.05502319
109.33700562 94.61399841 445.74801636
157.80000305 79.23200226 457.27999878
152.70500183 112.66500092 396.41699219
93.46099854 145.29899597 494.22299194
189.01799011 142.69400024 441.71099854
172.91900635 83.41000366 436.73101807
120.13899994 163.92100525 391.06198120
104.40200043 186.19300842 508.02499390
166.77400208 167.75999451 455.97900391
181.32400513 147.30900574 463.94100952
118.46900177 98.39099884 408.15600586
108.68799591 189.40100098 414.13098145
175.61399841 185.44100952 467.32699585
159.50199890 160.95500183 493.58300781
95.21599579 180.28100586 539.78802490
209.94499207 166.66300964 462.56198120
133.45399475 113.26399994 499.68698120
143.48800659 223.86000061 428.34698486
211.35998535 194.72000122 421.09997559
159.38600159 189.06599426 484.52697754
198.38400269 168.79299927 433.33499146
168.29100037 85.76699829 417.97702026
248.84100342 188.50299072 447.61801147
95.48600006 160.96900940 427.71701050
232.34500122 176.86599731 426.36901855
273.61599731 192.74299622 437.30999756
119.25099945 200.24200439 522.73901367
119.10200500 213.40100098 483.48098755
102.77500153 194.97000122 473.05798340
159.56098938 129.34300232 488.15701294
188.34100342 205.54399109 413.14700317
224.55699158 214.07798767 423.86401367
98.21200562 122.81900024 422.25000000
110.56700134 166.40399170 537.40301514
158.11799622 209.85099792 397.34500122
256.13000488 223.79200745 447.80499268
148.05799866 143.20700073 385.86898804
129.96600342 195.12500000 494.71600342
107.54100037 108.85500336 482.54901123
136.33300781 152.17399597 505.45101929
162.90399170 98.46199799 472.52700806
139.82200623 210.86500549 402.82199097
188.26000977 181.13000488 450.42700195
217.18600464 215.30599976 498.43099976
286.43301392 207.11599731 446.05999756
93.44000244 136.67799377 438.50698853
118.10199738 113.97799683 514.00604248
241.00799561 218.51699829 477.97000122
176.07200623 158.17700195 478.79400635
193.36199951 168.33999634 414.08801270
177.77999878 185.85600281 396.74197388
136.31700134 81.47899628 466.19201660
94.87500000 173.16499329 446.92098999
177.43901062 205.71899414 465.94198608
119.17600250 142.16900635 525.09899902
99.59700012 191.40299988 452.03500366
160.40100098 226.27000427 425.58099365
178.30799866 109.71400452 459.92401123
94.62500000 160.38999939 506.91799927
193.64799500 203.08799744 493.72500610
169.98800659 217.02900696 409.29898071
228.36099243 229.70999146 475.85699463
139.13999939 130.77899170 500.08999634
93.31800079 146.95001221 532.20300293
171.54200745 98.68499756 405.80001831
210.19900513 158.17601013 428.28302002
124.12300110 122.94799805 393.38601685
98.81999969 153.52299500 408.91799927
187.32200623 112.76899719 417.32400513
90.23799896 163.89698792 459.93301392
92.93699646 169.16200256 478.01699829
149.54400635 222.67500305 496.54800415
134.17599487 79.89700317 430.53100586
194.62199402 224.52400208 489.20397949
102.16099548 187.87400818 526.37396240
142.08999634 126.50099182 391.28802490
95.54100037 120.90600586 464.37698364
132.00999451 154.36500549 386.04501343
177.17700195 130.01499939 470.10299683
165.17999268 228.80500793 469.19799805
101.49800110 135.81399536 406.94799805
246.99899292 188.20199585 426.14700317
136.44599915 182.75601196 391.34500122
141.46800232 225.68299866 475.03097534
153.15100098 175.37400818 489.90100098
129.09700012 173.49598694 517.69500732
152.82901001 168.58999634 464.85202026
142.99699402 219.97599792 450.26400757
180.36698914 162.94599915 464.05999756
176.09800720 225.97099304 440.57299805
255.10200500 204.33599854 449.14001465
139.96699524 97.37400055 403.26199341
121.25600433 215.67300415 454.11499023
171.86500549 211.79400635 480.91998291
121.26399994 96.17900085 488.95999146
244.88099670 210.04399109 429.02499390
136.36100769 85.07700348 481.13598633
130.11201477 215.91000366 424.09399414
209.52301025 191.21000671 471.35900879
193.13700867 192.93899536 480.78799438
131.33700562 197.31900024 399.07000732
177.47200012 129.25300598 402.06097412
238.91200256 228.92601013 450.24697876
160.64801025 196.28100586 391.07199097
114.42500305 201.62100220 505.14196777
151.11700439 81.29000092 421.23800659
236.86399841 190.41600037 456.41000366
145.86999512 184.39100647 480.07800293
148.85600281 99.70800018 484.54202271
192.92601013 143.61500549 416.17700195
99.86999512 184.29699707 487.68801880
181.56999207 94.95899963 440.04299927
219.44999695 173.87998962 452.95599365
194.41899109 228.13299561 473.33099365
100.27700043 179.08799744 420.35299683
165.22698975 147.64698792 491.59399414
210.50801086 229.78700256 450.33898926
220.13198853 171.47799683 432.46798706
173.50000000 151.28900146 396.00598145
166.48300171 119.85900116 396.66198730
249.16200256 216.69801331 461.07800293
213.00299072 229.96600342 468.05798340
138.61000061 211.61801147 484.79000854
260.17098999 213.24400330 437.92401123
187.22799683 123.61000061 435.80499268
140.09500122 184.90399170 494.73397827
90.40100098 138.96000671 469.71899414
228.19200134 200.07800293 464.77600098
201.49700928 165.90499878 447.63897705
123.87400055 214.70298767 496.86300659
116.51599884 136.26300049 392.24899292
143.39099121 78.83599854 449.37100220
107.28599548 108.69699860 411.30001831
117.60400391 91.95300293 459.81298828
194.23100281 167.89599609 459.62100220
112.95200348 209.15299988 442.91299438
167.76800537 226.07800293 484.21499634
150.44000244 184.38301086 388.62100220
93.81999969 157.73298645 523.36297607
189.96398926 155.16799927 408.19601440
260.84301758 188.18800354 426.95901489
169.44599915 167.27000427 390.96298218
117.27099609 155.90100098 530.60101318
110.71799469 206.01600647 474.57400513
101.86599731 131.07099915 514.25897217
91.50999451 157.80700684 486.06198120
182.07499695 222.05700684 493.77798462
91.30900574 149.33999634 460.31799316
117.30899811 113.12300110 399.82000732
101.98100281 157.44799805 543.97900391
162.91600037 78.37899780 444.22399902
105.45800018 135.13900757 534.38696289
155.72500610 168.52999878 388.75399780
194.49000549 193.93299866 449.89202881
101.99099731 103.88999939 439.25698853
113.69100189 173.44300842 400.00900269
126.64900970 102.26499939 503.01803589
222.09700012 187.08399963 423.02798462
198.87500000 193.94599915 415.94299316
177.92799377 175.56401062 456.61700439
118.73999786 194.94999695 407.51800537
97.14800262 174.22300720 507.20297241
119.80500031 86.14599609 440.25399780
190.11999512 215.94200134 427.82699585
108.75499725 95.06099701 432.38601685
208.44000244 178.42599487 469.04598999
93.03900146 149.46398926 434.03900146
258.51800537 176.90800476 420.95800781
102.34300232 196.15399170 440.27798462
161.02999878 79.36800385 429.36099243
184.56700134 154.56100464 436.66900635
140.75799561 220.02600098 415.80798340
259.82498169 192.49400330 441.43499756
158.56300354 112.42500305 478.61297607
171.90901184 207.18299866 492.96099854
129.16600037 143.49398804 511.78097534
146.55200195 155.95799255 498.64398193
217.56201172 208.30099487 487.67199707
185.96800232 126.14500427 411.26800537
192.93099976 143.41999817 428.97601318
113.29699707 99.19799805 473.29501343
109.37899780 193.54499817 517.56500244
171.42500305 189.04100037 478.78701782
222.58599854 227.56199646 487.51501465
162.19900513 226.21099854 456.79699707
120.53199768 149.75898743 388.82501221
101.15599823 120.88999939 489.88198853
161.48699951 104.07699585 399.32901001
91.72900391 142.02499390 481.89199829
140.04800415 106.52600098 491.31701660
100.27299500 106.33000183 452.50201416
213.82600403 207.09500122 423.80700684
276.51199341 206.90501404 438.39199829
149.45300293 201.12899780 485.61401367
186.93899536 175.52400208 401.91702271
120.24100494 210.81300354 432.50302124
187.36100769 111.26599884 429.67501831
170.45399475 126.91399384 480.09100342
279.19998169 189.07000732 426.79199219
120.88999939 167.14500427 526.89300537
166.31999207 161.66099548 468.61099243
96.85699463 181.24699402 475.91598511
201.28999329 178.85899353 411.02297974
111.80199432 96.58899689 420.26498413
164.47299194 88.42399597 465.65899658
207.02500916 208.47601318 497.75299072
235.98899841 229.91000366 466.28201294
225.86999512 228.56600952 443.59600830
101.20099640 115.00500488 474.08599854
181.63299561 152.05099487 450.14797974
123.77500153 89.93600464 415.13800049
88.65499878 170.46299744 534.56298828
98.16200256 138.32299805 503.02200317
285.00598145 198.31399536 437.00997925
96.14899445 171.35800171 433.88302612
115.06500244 200.50099182 419.47201538
191.13699341 210.48199463 503.85797119
126.29300690 174.27999878 390.86999512
203.01799011 222.67800903 436.41400146
185.00700378 230.02999878 449.63601685
98.72000122 137.04598999 524.19696045
108.50500488 159.05200195 399.38101196
245.86399841 176.48999023 423.05599976
183.63999939 194.07600403 404.18899536
168.30499268 164.38600159 486.22500610
94.69799805 122.97800446 452.36199951
147.83999634 125.17200470 491.07901001
128.65899658 220.01100159 479.72198486
104.79900360 194.03498840 425.43099976
209.99499512 224.52899170 493.51699829
108.63600159 115.99700165 507.09402466
185.83099365 187.93499756 472.89401245
169.19000244 175.07299805 466.45999146
184.07299805 228.25199890 467.55798340
96.05699921 134.11199951 491.31799316
226.88999939 222.72700500 431.60000610
117.92800140 130.68699646 522.60797119
100.22000122 115.29300690 431.57800293
216.55599976 199.13800049 476.47000122
106.11599731 179.17500305 535.65502930
157.13900757 180.68200684 476.66900635
172.18099976 138.36799622 396.98400879
127.45300293 120.29399872 506.85000610
181.26000977 103.68900299 409.92800903
129.07501221 205.32800293 487.13800049
249.26300049 219.20399475 436.67599487
97.99200439 166.89900208 417.93701172
242.66299438 176.90899658 438.42898560
115.16100311 207.47799683 494.55801392
151.22500610 79.95200348 466.70599365
228.52299500 180.34799194 456.54101562
170.29100037 104.96799469 466.62799072
201.07899475 172.80599976 421.29000854
154.61898804 124.63800049 391.79299927
176.82800293 93.80999756 414.70401001
118.12899780 214.11999512 465.79000854
247.68299866 228.01899719 477.83398438
258.57800293 214.22599792 453.69400024
134.44499207 163.17700195 507.73602295
235.42900085 215.97799683 426.75201416
160.89999390 218.85900879 491.48898315
214.96800232 218.03900146 428.55398560
144.09098816 230.04400635 489.80700684
182.14199829 140.75399780 454.68399048
151.17700195 158.47801208 386.16497803
122.37699890 188.48399353 520.51995850
231.99699402 214.27200317 485.70001221
134.63999939 219.07499695 457.77499390
165.62100220 198.24600220 486.42999268
236.19000244 207.43901062 467.71099854
147.76899719 87.84799957 410.64001465
95.34400177 148.39399719 543.15002441
178.02900696 208.30799866 409.68899536
169.28100586 223.35299683 432.05899048
134.43400574 178.69999695 508.34500122
112.22899628 193.46800232 528.35998535
164.55200195 145.38900757 390.89199829
102.04000092 196.12799072 462.01898193
256.82397461 226.59599304 460.54299927
139.44000244 220.92700195 438.26998901
171.45199585 84.33700562 448.09201050
99.37799835 180.50700378 516.57098389
185.36999512 178.81999207 464.27200317
104.78000641 189.68600464 496.95199585
96.56500244 168.47099304 544.06201172
181.71499634 102.38899994 449.71798706
125.80299377 84.84700012 461.53900146
197.34098816 204.21501160 419.97399902
110.20000458 181.09400940 407.23199463
142.49800110 115.00199890 393.42999268
266.35400391 199.87300110 446.04901123
146.89700317 206.81900024 395.61999512
235.06799316 227.08599854 484.32098389
128.50799561 203.52398682 517.83105469
96.39900208 125.68000031 438.38598633
136.69000244 141.52400208 503.57000732
200.11299133 229.16899109 447.41500854
185.77699280 132.94599915 445.09197998
108.61899567 99.25600433 455.64898682
128.19599915 98.98600006 403.54602051
144.47799683 89.79599762 486.38900757
181.83100891 203.16400146 494.26998901
127.51099396 204.12300110 500.02600098
201.20300293 170.52600098 469.21798706
222.91600037 199.57899475 423.74301147
266.48101807 203.94400024 436.09301758
191.10299683 165.38999939 426.30300903
208.72900391 184.86900330 417.33499146
178.11599731 121.09400177 464.40899658
190.42601013 134.64799500 434.92300415
176.70500183 175.34999084 395.78598022
93.24400330 163.48400879 440.34500122
259.05401611 182.58599854 436.18099976
130.53799438 198.06900024 508.14901733
246.54699707 198.93299866 428.66702271
175.34899902 87.09199524 425.57598877
137.58898926 145.52700806 386.07498169
101.56900024 124.75500488 412.51400757
167.34400940 226.72599792 446.43301392
136.98600769 190.09500122 485.34301758
192.23399353 166.39399719 441.37899780
209.65899658 169.29100037 425.94799805
91.86500549 143.40400696 450.88101196
141.39099121 222.19400024 464.91198730
248.12500000 229.46000671 455.88800049
268.72500610 183.53399658 431.60198975
130.90499878 164.25601196 388.52301025
224.31201172 173.31098938 442.87402344
107.86199951 131.50100708 400.17797852
153.78099060 223.03800964 451.90701294
95.32400513 130.13499451 429.25500488
134.18200684 79.96299744 442.15100098
173.36698914 217.74198914 490.64700317
92.34500122 156.22200012 496.10998535
232.94000244 186.80900574 424.19699097
178.84098816 148.61099243 473.72900391
167.18099976 180.66699219 474.98101807
149.14099121 215.53199768 403.56900024
97.25499725 181.74099731 453.87399292
162.13099670 223.62699890 415.97698975
144.33300781 78.59999847 429.21899414
182.42199707 153.69400024 400.04901123
174.75500488 228.66400146 473.68402100
215.81900024 175.74900818 462.15701294
114.05599976 101.23100281 483.29699707
148.85998535 133.52499390 388.45800781
104.15699768 193.67698669 483.88000488
167.22500610 136.94400024 488.02099609
93.70300293 179.16099548 529.92999268
183.62200928 118.13700104 449.95001221
159.25300598 139.87100220 493.69299316
152.31900024 227.17698669 472.19699097
95.91100311 152.56500244 421.09799194
147.48899841 213.09500122 489.08200073
148.86300659 224.62800598 419.60098267
242.67399597 215.23699951 468.49200439
222.31799316 176.03500366 423.88998413
132.08100891 92.06999969 409.55599976
174.05799866 167.21501160 471.40698242
176.69500732 197.80699158 460.00701904
100.91199493 180.63600159 498.04101562
166.97299194 188.44000244 390.97500610
148.91600037 224.78898621 438.58798218
198.91099548 188.88500977 472.45999146
104.33200073 200.43901062 450.01000977
179.06199646 134.07699585 461.34298706
148.20599365 101.90599823 400.42901611
171.37800598 154.55200195 486.57598877
206.44099426 163.78498840 435.64199829
209.54600525 163.23399353 452.46401978
162.47299194 120.98000336 481.18298340
120.75599670 206.74101257 510.47198486
182.33999634 184.83500671 457.26300049
128.60499573 90.35400391 486.39199829
203.39299011 229.52200317 469.41400146
143.01399231 80.88999939 473.19000244
107.28199768 112.11500549 491.68099976
115.33799744 125.87500000 396.17800903
190.69898987 221.04699707 497.96798706
133.35700989 121.47100067 391.14697266
140.05500793 116.04700470 492.54098511
168.23100281 209.60499573 400.32299805
199.64399719 227.00900269 481.42001343
189.53298950 230.62400818 459.44601440
166.86099243 91.27500153 410.27099609
96.55599976 150.08099365 506.51501465
157.21499634 167.35699463 456.04898071
116.02700043 121.56500244 520.44396973
156.39099121 152.38699341 496.47702026
149.33000183 134.10200500 494.14398193
138.91600037 222.47299194 497.68002319
121.07800293 207.73200989 421.12600708
246.91900635 197.05801392 451.36999512
97.40599823 181.83700562 443.90499878
91.69599915 169.61399841 467.39199829
240.96499634 183.75399780 450.02301025
177.77000427 139.73699951 470.49298096
112.55899811 206.73300171 485.44601440
98.80000305 112.02199554 462.28799438
145.30400085 78.40299988 459.44400024
154.13198853 77.79800415 447.71798706
185.61199951 212.01800537 419.47399902
133.36099243 189.69699097 501.66897583
98.36900330 133.42500305 415.53802490
89.92700195 155.64300537 533.68298340
156.01699829 94.40000153 477.51800537
148.92399597 166.44799805 496.47302246
159.50199890 85.16999817 414.67999268
131.13499451 84.00200653 422.63601685
99.09299469 187.19500732 466.79400635
130.33700562 215.28300476 488.86999512
132.94099426 211.92399597 410.48199463
95.25500488 174.51600647 485.43600464
222.59800720 222.65499878 496.62301636
172.37699890 107.49500275 400.91799927
97.97800446 140.18200684 536.54199219
160.02400208 169.71800232 487.30401611
106.38500214 107.36999512 473.28201294
229.16500854 206.18299866 425.33697510
190.14999390 165.65200806 405.87197876
108.26899719 120.51499939 515.12500000
202.13099670 194.22698975 479.23800659
102.32099915 115.66899872 414.67401123
117.84899902 107.45700073 507.29101562
91.37100220 131.19000244 464.67199707
247.76100159 226.94100952 445.72201538
197.58999634 198.12800598 486.90499878
210.14300537 217.01399231 504.04101562
201.03199768 223.34100342 495.64297485
121.57700348 87.43300629 451.70001221
122.38800049 216.24800110 474.24200439
138.00399780 191.75199890 392.85800171
148.72900391 174.38800049 388.72000122
215.20799255 230.01100159 459.21298218
267.09698486 196.09700012 431.49600220
126.06999207 200.63999939 405.72500610
147.71899414 193.21299744 481.44598389
185.67900085 102.65699768 432.12500000
161.59201050 171.24700928 463.21099854
186.48199463 105.17800140 422.96697998
173.42799377 193.71299744 394.62701416
115.65899658 199.75900269 514.39398193
94.36199951 131.71200562 446.06701660
109.27999878 193.71899414 506.53796387
95.81900024 162.85000610 515.57397461
187.94599915 137.23200989 412.11700439
182.41099548 222.58900452 435.05200195
95.63499451 147.54199219 523.17102051
167.42900085 84.49900055 456.16998291
155.74299622 149.79800415 386.57501221
220.53599548 194.61199951 467.03799438
192.28700256 171.16099548 467.77902222
162.09899902 230.44100952 478.56500244
205.62599182 203.47300720 423.85699463
115.19099426 155.74800110 392.81698608
171.52799988 219.65199280 417.71701050
183.47700500 203.63099670 459.67501831
91.35100555 165.83999634 527.31903076
234.33900452 175.68199158 435.00000000
186.99899292 189.62500000 447.62899780
120.20600128 214.14500427 444.36700439
102.42299652 145.79998779 403.24801636
174.56999207 101.19300079 459.77801514
116.26300049 187.00500488 404.39099121
134.11499023 123.66899872 501.81503296
106.82400513 203.51300049 466.51599121
134.13700867 102.73200226 498.29501343
260.97698975 176.65199280 429.46600342
174.54299927 160.59399414 393.77798462
139.35501099 134.44699097 388.48699951
252.75299072 210.54100037 433.91201782
190.24301147 197.44900513 410.10098267
138.73599243 203.90998840 397.45101929
168.64801025 96.40399933 465.09600830
180.71598816 157.49800110 457.09500122
250.27799988 211.03799438 454.37600708
133.40400696 80.33799744 457.83297729
101.00000000 162.05101013 409.77697754
194.53399658 174.75000000 407.11798096
155.76499939 138.92201233 389.40798950
172.99899292 220.98100281 478.60598755
184.92700195 116.71099854 408.74200439
93.53900146 140.56600952 430.60299683
115.11799622 172.17298889 532.55804443
105.96700287 117.31400299 498.82000732
93.00099945 172.23599243 458.89801025
125.01700592 149.16400146 518.78204346
122.50099945 176.41200256 524.28503418
166.13200378 202.07199097 394.71099854
127.49900055 81.95600128 435.82098389
217.13000488 229.86898804 476.26098633
91.14299774 146.70300293 442.06698608
235.49499512 212.30400085 474.86901855
188.50900269 197.03898621 456.48300171
192.40400696 152.21899414 417.40499878
114.05899811 211.24699402 458.37899780
188.37300110 120.75900269 420.49301147
243.29400635 224.58699036 485.27200317
142.43899536 78.19099426 440.16098022
123.65399933 131.59700012 390.86401367
276.27499390 213.34399414 444.12802124
115.02799988 147.11099243 531.63201904
247.97500610 222.83099365 470.69299316
123.64400482 107.31900024 399.14898682
152.82699585 193.85699463 388.43600464
113.75799561 105.17299652 405.76998901
130.63900757 164.35099792 515.34899902
97.28000641 146.09199524 412.92700195
127.51999664 95.24700165 494.90402222
130.46800232 155.61000061 510.68502808
223.99800110 213.34500122 490.18899536
139.74299622 161.55700684 501.22302246
157.70100403 86.80999756 472.00701904
156.36900330 226.00000000 492.63800049
89.15500641 172.53700256 542.98596191
155.10299683 122.58100128 485.53900146
155.35899353 102.76100159 478.96502686
178.68000793 88.90999603 433.74401855
263.69198608 216.89300537 446.92297363
202.52000427 203.08500671 491.73400879
185.36500549 124.49500275 444.41799927
159.44500732 215.93199158 403.11102295
158.71900940 175.40599060 470.23098755
133.44499207 218.87800598 432.67102051
129.97999573 189.59799194 395.90399170
151.96899414 226.78999329 430.96499634
215.20901489 163.00100708 433.07699585
101.08999634 118.41999817 481.79598999
128.10699463 146.72500610 386.73098755
126.68600464 109.98900604 506.38003540
189.35101318 196.55700684 487.58898926
138.82699585 179.29299927 501.19699097
169.33499146 81.72400665 429.32598877
176.75000000 228.65399170 448.84301758
101.25800323 186.43200684 425.52200317
112.73799896 104.50500488 490.88201904
249.84399414 180.48100281 440.80200195
90.62699890 161.39199829 450.61901855
163.81298828 107.87699890 473.98098755
184.70600891 169.51200867 461.31500244
97.23699951 153.93299866 516.78002930
126.44499207 181.49099731 518.54003906
120.08100128 99.68900299 496.40899658
108.15399933 203.32199097 438.25900269
165.53999329 212.47099304 488.89398193
142.27200317 160.14300537 386.11999512
163.40098572 161.82499695 460.70901489
236.45399475 198.32299805 458.90899658
146.84599304 178.71800232 494.14199829
219.85099792 229.89801025 449.14999390
126.67499542 114.94799805 395.46701050
145.10501099 169.87699890 462.18402100
133.07499695 134.22399902 504.98999023
128.72999573 85.71299744 470.69900513
214.13299561 183.19599915 465.48001099
100.92099762 115.05900574 422.77301025
241.69898987 229.44200134 472.35800171
229.69999695 189.78401184 460.40100098
186.00698853 217.80400085 503.88497925
173.59199524 121.51599884 400.43197632
207.20899963 160.87300110 444.41101074
156.71501160 197.49400330 486.77200317
111.21299744 155.52101135 536.98498535
102.98799896 173.12300110 540.19897461
271.05502319 187.33699036 424.51199341
253.24499512 192.88000488 428.61499023
95.98600006 122.37599945 472.52398682
237.17300415 204.85099792 426.27297974
234.30799866 227.98599243 443.56201172
135.78599548 175.06599426 388.70800781
286.48800659 186.72200012 424.01400757
141.75898743 148.41000366 500.68701172
97.02699280 175.92098999 427.11300659
158.82901001 188.35798645 388.48501587
240.93499756 193.71899414 425.97000122
173.55999756 197.41799927 479.81301880
254.12500000 196.84199524 446.25000000
182.35099792 201.39700317 407.38000488
114.26599884 88.59600067 434.90499878
240.92300415 174.63900757 429.14898682
127.01900482 194.91400146 515.47003174
161.51100159 113.56400299 395.96200562
188.50399780 161.97999573 414.93899536
100.65299988 188.98899841 478.00698853
124.55899811 137.12300110 516.75799561
201.78199768 165.12599182 459.62500000
111.51699829 131.63900757 530.45397949
119.20200348 93.51200104 479.71697998
176.97300720 88.85499573 442.48300171
206.34700012 227.56799316 442.63900757
98.42699432 185.31300354 534.44598389
198.00401306 218.21400452 432.05099487
176.06300354 135.29699707 476.90499878
97.25800323 114.83399963 450.98999023
197.81399536 208.46701050 499.99401855
140.91900635 124.20099640 495.96499634
184.14599609 193.07299805 480.88800049
142.14801025 81.78800201 421.08499146
91.97100067 134.83299255 478.50997925
123.31800079 123.45700073 512.84802246
149.15499878 166.30200195 456.38598633
104.82700348 197.25898743 432.66699219
129.19799805 217.79798889 452.18701172
170.48699951 128.49900818 398.42999268
97.65200043 122.71800232 431.00698853
130.78199768 129.02200317 388.74499512
184.19900513 208.56399536 500.68002319
162.42300415 97.21700287 403.38998413
177.50300598 93.02999878 449.17898560
144.69799805 221.02400208 457.88400269
278.01098633 195.86401367 431.59899902
104.40200043 100.06300354 448.50799561
133.75799561 216.19500732 417.15499878
108.23999786 168.23199463 402.13900757
175.23600769 165.60398865 458.77398682
216.05400085 166.92300415 454.78100586
112.29100037 209.13800049 467.56802368
107.26300049 200.40299988 481.36401367
107.29399872 104.19400024 417.81802368
134.17098999 222.64700317 474.85198975
114.28599548 93.21600342 451.62899780
91.13500214 155.73999023 464.77999878
174.04399109 111.86000061 466.08798218
153.34400940 78.09700012 429.65798950
183.88000488 148.40699768 443.01599121
148.03799438 93.98899841 405.07901001
240.43699646 184.88299561 423.53201294
188.25000000 119.46400452 428.15200806
120.91300201 142.01701355 389.32800293
151.86199951 201.13299561 390.97799683
134.77400208 102.27199554 399.81698608
109.33600616 139.47799683 397.58200073
191.79100037 136.64199829 422.95397949
268.98397827 210.58000183 439.23397827
116.16999817 163.90199280 532.70202637
183.51000977 158.06298828 443.47598267
91.75000000 162.91999817 471.25198364
132.77799988 196.48001099 486.45098877
204.39599609 225.94400024 488.38400269
260.32400513 222.19400024 454.09201050
107.59600067 185.82699585 532.01995850
176.20199585 213.61500549 414.97201538
116.86499786 94.07299805 415.03399658
91.40100098 141.78900146 458.82601929
255.25502014 183.24301147 423.85000610
193.56900024 230.78199768 452.90899658
161.81900024 227.23800659 435.89700317
166.78700256 217.41600037 483.15298462
111.78299713 139.07299805 532.55999756
184.51200867 186.71199036 402.25799561
119.73300171 200.60800171 412.58099365
113.24600220 164.39500427 396.64501953
171.69200134 172.32099915 459.65798950
181.08099365 117.78599548 457.15200806
115.08899689 95.55899811 466.81698608
182.25100708 133.80999756 405.90600586
176.60600281 228.72399902 466.03997803
97.30199432 127.85700226 487.12600708
241.42900085 217.92399597 431.04602051
135.03900146 218.53799438 445.65298462
241.37100220 229.99699402 460.88800049
155.91999817 178.93501282 388.60101318
161.83500671 81.86399841 422.21099854
209.73800659 221.67199707 432.97601318
165.36801147 155.25000000 491.89099121
99.01699829 128.97399902 496.08099365
209.88800049 157.01599121 436.02301025
144.18299866 137.39599609 498.67199707
92.11300659 156.15400696 438.40600586
189.23098755 163.70399475 433.46899414
175.82499695 192.07600403 473.39801025
119.97699738 175.13200378 394.98300171
193.22299194 166.56900024 448.89300537
145.46899414 108.55100250 396.07302856
281.50201416 202.53199768 442.58901978
159.71900940 225.55799866 463.91998291
110.06499481 114.17300415 405.77099609
92.95199585 167.10501099 485.29800415
138.84500122 227.08799744 485.22601318
125.74699402 217.94400024 460.76000977
134.14900208 206.75000000 481.11099243
228.43499756 229.78900146 450.59100342
132.33000183 204.12899780 403.36999512
153.07800293 178.05099487 482.85101318
99.65499878 139.11500549 511.24798584
194.74501038 211.25300598 424.17300415
124.20800018 193.77699280 402.47500610
93.01000214 163.60299683 494.77700806
125.44000244 213.49301147 504.12701416
169.11199951 155.24700928 391.34298706
97.87500000 181.56098938 524.15594482
119.26999664 209.76799011 500.41998291
185.75300598 143.22100830 448.46002197
177.77799988 222.25199890 486.56500244
188.56799316 146.66700745 434.15798950
180.61601257 180.41299438 451.45199585
91.15599823 150.80400085 488.72399902
169.28799438 174.76400757 391.21401978
145.41099548 219.00199890 410.02200317
102.66799927 149.02900696 541.50000000
242.83500671 210.64799500 462.30300903
188.45300293 225.45899963 479.76300049
221.14900208 229.84098816 465.75299072
182.85499573 109.56700134 451.47299194
265.49597168 175.86000061 423.42901611
178.69099426 146.61799622 399.66900635
217.02499390 168.80899048 424.84301758
171.75199890 202.46299744 485.86999512
262.43698120 207.61199951 448.77401733
218.80599976 168.88700867 446.79000854
220.27200317 204.52400208 481.85900879
124.05999756 156.28900146 388.33999634
110.39099884 99.74099731 462.85000610
94.53099823 160.23699951 546.51599121
99.75899506 108.21399689 444.86599731
98.92900085 186.54200745 459.28201294
95.90299988 170.25000000 514.25805664
182.67098999 100.15200043 416.29202271
141.79000854 205.15299988 483.03799438
146.43499756 150.43699646 386.11798096
272.61798096 203.33700562 444.16998291
118.51999664 89.10600281 420.43200684
175.92201233 178.05799866 465.82800293
264.62799072 188.23100281 437.79000854
238.05999756 220.25700378 488.16400146
103.38400269 186.64500427 517.41302490
128.31700134 181.05900574 392.94299316
98.60400391 188.86700439 442.04000854
191.93099976 188.15100098 453.67898560
218.01599121 193.17500305 423.85598755
201.66899109 183.29800415 466.75500488
147.34999084 121.37200165 391.72100830
215.29499817 184.78199768 420.65600586
253.12298584 173.21400452 425.71099854
93.72899628 175.41200256 472.71002197
100.64499664 132.06599426 507.07800293
163.50799561 184.10900879 480.33300781
174.91101074 121.39199829 471.01300049
142.51899719 186.33801270 389.28698730
126.05099487 82.92300415 428.68600464
142.58000183 185.11399841 486.60400391
166.78700256 223.88899231 422.88198853
110.84600067 197.61499023 500.15597534
188.36599731 146.10600281 409.25100708
221.58799744 206.77200317 423.62500000
136.51699829 171.12599182 504.80996704
255.25900269 186.78799438 441.39401245
92.16899872 130.20800781 472.85900879
180.01000977 122.73500061 404.15100098
115.27000427 145.46800232 392.41497803
192.12100220 149.24000549 424.25201416
125.74499512 165.17601013 521.82299805
164.36499023 78.43700409 437.09500122
90.14300537 148.04199219 468.58099365
278.09899902 182.67098999 422.38101196
95.17900085 135.92700195 424.27398682
121.84700012 152.11999512 524.59399414
210.20098877 212.79199219 426.43801880
139.08499146 90.22699738 410.04898071
88.74800110 163.24501038 534.25299072
127.03099823 215.75999451 431.51300049
185.95500183 160.55700684 402.94900513
149.14199829 167.57998657 385.95300293
101.05699921 173.04000854 414.61300659
150.65600586 107.16699982 482.19400024
91.61499786 162.13999939 478.95101929
284.35400391 190.59098816 431.97399902
105.11799622 178.31900024 411.49600220
172.16999817 165.51100159 480.27398682
175.47200012 168.16699219 394.76998901
154.50300598 162.75900269 461.00698853
154.46800232 105.44799805 398.67300415
104.99300385 164.61500549 541.56298828
130.13999939 86.69800568 477.67001343
162.83898926 172.32800293 388.66601562
161.99900818 163.09399414 388.37701416
183.20100403 225.92199707 441.39700317
102.63800049 132.11299133 528.55499268
121.67599487 159.45899963 526.23602295
103.14199829 153.14500427 403.23901367
182.16799927 133.94198608 451.65399170
226.78500366 174.99299622 452.15402222
97.97699738 178.10000610 490.97299194
203.98699951 212.27200317 503.89700317
228.20300293 173.92399597 431.84597778
184.18499756 101.56800079 439.94598389
235.44000244 229.08599854 475.94897461
205.31300354 176.01600647 416.13500977
214.31199646 221.76499939 499.00100708
169.94500732 181.80400085 391.74700928
101.93299866 131.28199768 521.56402588
140.70098877 190.47300720 479.33700562
230.20399475 204.97399902 471.03302002
104.93899536 101.00199890 432.63998413
210.05700684 206.59098816 491.65899658
141.14401245 218.40100098 492.35699463
95.64199829 124.72999573 445.33801270
135.64799500 89.45700073 488.95401001
116.60700226 89.46300507 445.57800293
217.77400208 225.36900330 492.14801025
115.42900085 204.54600525 425.20898438
160.97000122 82.75000000 462.47198486
257.92898560 219.42199707 442.60498047
109.96299744 195.70899963 420.06701660
94.86400604 167.39900208 506.51800537
118.23300171 191.91799927 525.06604004
156.88699341 77.18800354 439.96899414
151.04199219 230.97500610 489.57897949
182.53100586 230.45698547 456.78298950
160.69999695 220.87701416 409.68798828
155.76800537 225.71400452 419.10101318
226.46899414 181.67500305 423.81600952
218.89799500 166.71200562 437.72198486
174.32299805 216.98200989 497.51998901
196.85800171 170.15299988 426.66302490
183.04400635 218.02000427 427.62197876
108.87500000 205.56999207 448.75601196
144.02600098 97.90200043 489.22601318
234.38299561 182.12400818 453.22799683
221.64698792 177.23399353 458.64001465
136.06800842 219.32501221 422.91799927
92.08399963 168.68199158 452.99499512
260.24499512 193.99000549 430.73400879
185.41400146 223.83299255 487.95397949
121.53700256 88.74900055 465.38400269
183.19099426 96.25100708 433.10998535
265.41000366 182.77200317 422.85900879
185.05300903 110.20399475 411.12597656
169.00199890 81.03299713 442.24102783
125.17500305 94.93800354 408.28100586
203.91799927 197.45098877 420.91302490
144.26899719 221.40699768 443.19799805
165.73500061 191.70600891 483.82199097
176.58200073 151.08299255 479.77301025
145.03199768 84.09299469 480.02401733
185.97399902 118.30400085 441.44201660
154.95300293 167.75299072 493.39999390
105.16500092 125.63000488 518.83502197
96.58200073 176.40798950 438.52801514
268.42901611 194.76300049 441.33999634
173.34100342 162.83000183 464.76400757
161.31100464 124.44700623 393.32000732
195.82800293 214.54699707 507.92498779
147.62899780 229.67300415 482.21600342
251.11299133 222.39999390 464.34899902
177.32701111 156.12699890 472.37701416
189.35101318 129.89900208 415.89199829
179.25299072 153.83599854 464.07000732
165.02000427 205.64599609 489.05398560
245.68598938 224.34500122 439.43798828
213.90501404 228.51000977 443.22500610
90.05300140 154.15499878 540.35504150
96.20200348 141.07499695 530.00402832
157.54200745 204.00199890 393.44998169
171.12899780 229.57701111 479.39102173
208.59300232 229.94999695 460.87399292
234.58599854 221.48899841 430.96600342
223.76899719 229.05099487 480.96697998
182.52299500 147.42500305 457.23300171
199.01699829 225.90798950 441.53601074
90.81400299 155.52200317 457.50299072
103.66200256 125.33499146 508.48596191
121.53600311 214.15400696 490.49899292
106.85700226 141.15400696 537.20599365
227.15400696 194.28500366 423.74499512
97.67299652 157.85501099 413.99700928
160.91799927 156.93600464 464.68099976
98.03599548 115.55300140 468.12701416
211.91600037 172.67001343 466.74401855
176.08399963 204.07600403 457.54199219
112.36900330 118.26300049 400.90200806
198.87001038 187.94700623 412.82299805
121.54400635 128.32699585 517.40997314
143.61500549 227.89900208 496.19100952
110.24900055 110.76100159 499.27801514
169.40400696 228.40000916 459.54901123
208.37899780 196.00700378 477.49398804
162.52799988 80.23200226 452.60302734
193.75999451 200.32099915 415.05798340
103.06999969 189.72499084 490.02999878
198.91500854 167.09999084 441.50097656
101.37799835 190.97900391 430.45898438
152.91101074 216.21200562 491.50601196
280.95800781 210.75599670 448.16799927
182.27600098 184.71099854 467.28399658
170.24299622 114.59100342 398.39300537
178.53199768 140.03401184 401.45098877
109.81299591 93.09499359 439.24902344
224.03300476 225.75399780 436.83801270
187.91101074 128.92199707 440.10098267
94.25000000 149.86898804 500.24200439
275.84002686 187.39601135 432.32299805
201.83399963 176.90699768 471.09698486
162.59700012 230.07400513 485.58999634
112.72600555 207.80400085 436.36502075
133.89498901 190.04899597 492.88299561
176.78100586 98.49900055 409.97100830
90.39299774 147.46099854 475.36700439
120.07399750 103.24200439 502.64901733
156.60400391 99.53500366 401.15698242
227.28900146 210.27400208 483.02099609
189.59201050 125.92099762 428.99502563
101.58999634 109.41100311 434.35601807
171.94200134 134.92498779 483.13000488
153.55299377 129.21499634 490.99499512
145.17199707 108.60399628 486.61801147
132.67100525 172.17799377 512.25604248
160.17300415 165.51899719 466.25201416
156.13398743 223.65100098 458.07901001
224.10101318 200.37699890 469.98797607
105.05899811 127.36600494 405.13900757
186.70300293 152.77899170 430.26098633
125.24600220 84.11999512 445.35400391
206.23100281 228.69200134 477.73800659
97.06700134 170.28099060 423.64999390
165.74800110 128.67799377 484.39199829
184.54701233 178.25500488 457.73501587
130.61900330 126.98600006 506.33502197
124.69499969 85.44799805 422.35800171
243.95899963 190.72599792 451.45999146
104.48899841 185.50399780 417.39599609
126.53100586 212.15699768 420.04202271
156.18200684 131.06500244 391.17898560
130.11099243 88.22000122 414.93899536
219.95599365 221.71499634 430.72500610
234.37899780 203.32899475 462.60897827
92.52200317 172.95399475 528.17401123
159.03698730 146.89799500 493.62500000
130.53099060 179.41099548 513.85198975
231.76600647 229.93199158 456.23599243
128.79598999 197.72698975 500.63998413
122.67500305 214.05699158 437.64901733
134.06098938 223.79299927 482.20397949
104.03600311 103.53899384 457.52297974
158.01200867 174.72299194 480.12500000
173.42300415 147.07200623 484.60900879
160.26200867 226.01600647 450.55401611
135.25900269 184.42900085 505.03601074
100.84199524 179.73600769 504.50701904
260.55999756 206.98500061 436.11099243
184.82199097 192.21800232 454.08099365
96.62599945 129.91300964 422.19299316
127.97999573 201.06098938 492.86898804
198.11500549 166.55500793 453.20300293
168.11000061 227.74400330 452.82199097
93.08999634 128.28500366 457.54501343
134.97099304 221.65200806 468.46499634
115.81599426 211.51100159 472.49200439
132.48300171 148.44900513 509.18798828
188.69499207 198.70999146 450.20898438
164.93000793 168.77600098 482.83898926
111.79800415 178.85499573 532.53503418
148.36900330 163.82699585 462.78598022
139.20100403 78.36499786 434.56399536
97.62699890 181.34100342 482.33700562
94.32700348 151.47100830 428.03500366
189.93699646 179.98599243 405.49401855
144.86500549 119.57400513 489.87002563
113.08499908 194.07600403 413.49899292
108.65700531 99.48300171 425.09201050
159.11300659 227.82101440 471.14398193
94.09199524 132.77900696 484.47497559
143.25498962 79.25800323 465.49200439
183.34700012 212.50000000 506.36798096
90.53199768 176.47700500 535.85498047
103.27700043 109.88400269 468.24700928
187.41500854 166.08900452 454.65899658
172.35598755 211.96598816 404.64700317
107.07499695 190.15899658 512.61999512
97.85299683 139.78601074 413.97299194
177.37600708 98.33600616 454.76400757
153.34098816 190.13600159 481.75399780
135.38800049 113.41300201 394.10202026
92.22300720 152.53700256 528.58599854
110.15399933 102.61299896 412.32299805
170.23500061 224.53300476 438.46801758
192.74299622 186.87699890 447.05599976
153.37400818 161.88000488 496.08297729
96.33200073 138.22399902 496.18597412
172.37199402 144.63999939 395.85400391
121.24900055 182.65899658 524.07995605
98.52700043 181.71598816 429.26800537
149.39500427 91.07399750 482.56399536
117.26100159 119.84200287 396.76300049
147.30999756 190.41400146 388.35598755
148.97399902 179.60000610 487.65600586
214.50201416 189.34799194 467.88702393
132.54399109 221.46398926 495.74801636
166.53298950 168.74499512 470.94699097
225.93699646 193.88699341 463.79101562
92.84999847 138.69200134 444.48901367
169.36799622 142.89199829 488.47799683
137.09500122 79.56100464 449.34899902
104.92199707 98.59500122 442.36999512
126.43499756 208.85301208 515.11102295
173.81100464 210.40399170 498.06900024
129.42599487 137.46200562 509.87600708
123.43800354 211.39399719 425.71197510
165.48399353 108.89499664 398.44198608
177.61799622 142.34899902 476.24798584
144.63700867 130.44799805 496.24301147
110.68999481 124.60099792 400.23999023
204.69999695 189.69200134 416.99002075
99.71600342 142.70399475 408.01098633
109.75500488 172.56900024 536.52697754
260.35101318 201.53599548 446.82897949
150.95100403 181.73100281 476.68701172
155.18899536 117.64099884 393.51699829
115.58899689 135.15800476 527.23596191
149.87899780 81.67099762 472.87500000
208.25000000 174.63499451 421.49902344
153.26699829 117.11000061 483.12500000
190.75700378 219.97999573 432.55801392
155.64300537 87.90299988 410.59100342
271.79598999 191.88200378 428.73300171
197.73300171 172.88400269 412.14697266
213.25599670 202.14199829 484.13299561
138.18099976 215.19699097 409.70199585
180.73399353 218.89599609 500.76000977
105.62500000 200.25799561 474.67300415
165.21200562 139.55599976 392.93701172
191.42399597 141.24600220 436.16699219
230.24000549 225.54600525 436.63497925
148.86500549 84.17700195 415.52697754
195.59399414 180.80699158 407.97299194
253.06401062 227.07901001 452.07501221
186.62400818 120.90299988 414.55001831
153.77000427 204.65100098 488.74200439
171.50900269 221.19499207 425.83999634
124.63500214 90.58000183 480.07800293
117.11899567 178.55400085 399.40399170
191.82099915 188.85501099 474.11502075
90.73300171 150.51100159 450.26498413
156.13000488 229.80700684 477.14401245
137.50000000 82.96900177 475.01098633
186.79800415 151.04000854 404.88497925
228.00601196 225.89599609 489.92898560
277.39999390 198.50300598 440.38702393
194.07800293 228.73799133 446.29898071
176.49699402 104.82199860 404.61199951
148.98100281 222.16198730 447.06799316
107.18000031 158.55599976 540.89801025
103.54399872 109.63000488 420.79898071
126.54800415 168.13301086 390.44897461
126.05400085 217.35000610 484.98599243
124.18799591 117.05899811 510.91998291
96.51499939 181.40600586 469.79000854
247.05799866 182.49099731 423.53500366
96.07999420 143.18199158 499.90399170
143.63000488 138.00500488 385.89797974
150.24299622 149.37800598 498.40701294
162.71199036 222.56700134 486.96398926
208.19599915 221.52900696 499.18899536
216.86099243 212.41299438 423.79699707
279.50601196 200.76699829 434.93801880
238.89500427 179.35299683 444.42498779
149.28799438 128.11000061 391.25799561
120.16899872 84.94599915 433.07199097
150.82398987 78.14800262 456.83999634
90.82499695 152.41099548 482.83999634
111.70400238 187.41600037 409.20700073
109.80599976 199.58999634 424.77499390
271.24700928 199.75100708 434.07699585
147.48799133 206.86100769 486.20300293
245.17700195 181.11300659 444.65899658
175.10600281 126.95899963 474.93402100
94.28100586 164.15499878 522.28302002
137.20298767 128.65798950 388.41998291
124.18500519 142.81900024 518.79797363
113.54199982 124.74900055 525.47094727
119.86800385 136.42199707 522.54400635
214.78700256 211.51100159 494.37698364
99.79200745 136.96800232 518.24896240
96.43199921 161.51699829 420.20199585
118.94300079 103.15499878 403.41799927
183.36500549 208.88101196 413.88299561
167.22900391 103.13800049 400.93298340
182.70899963 179.54899597 400.41101074
227.89900208 229.96499634 469.85098267
212.93600464 226.57299805 487.71301270
251.97500610 176.74699402 420.98800659
102.43399811 110.48500061 427.50701904
187.79299927 160.17599487 428.84201050
112.68000031 92.64299774 424.69000244
228.13999939 216.76600647 492.84600830
127.07699585 209.90499878 498.48199463
100.32600403 191.55799866 436.97500610
127.07500458 210.93400574 491.37301636
104.77400208 139.74000549 401.43701172
114.26900482 197.03898621 523.54901123
179.98400879 91.79999542 425.16699219
206.07499695 186.81800842 468.69598389
99.70700073 114.07099915 437.56500244
177.60198975 194.47700500 398.80599976
96.75099945 157.48399353 512.02398682
112.63700104 111.59799957 506.78997803
249.77000427 203.26599121 451.56402588
161.27400208 92.73699951 472.64199829
196.15000916 229.30599976 467.75698853
240.09899902 199.67700195 425.95700073
92.34099579 148.48500061 537.86895752
172.21299744 183.20700073 473.07397461
152.78599548 207.29100037 394.84701538
186.26699829 169.64900208 402.55697632
171.31700134 122.45800018 476.25198364
177.92500305 161.91999817 471.20401001
111.52799988 208.56900024 453.13400269
163.31599426 176.01899719 466.28399658
207.48999023 165.66101074 430.10501099
180.55699158 141.80999756 461.86398315
241.40199280 198.99600220 455.71499634
255.41400146 221.10900879 458.81399536
215.94200134 201.57099915 423.61099243
197.04798889 168.07000732 464.82000732
96.36199951 172.43099976 500.19799805
94.55300140 162.60400391 434.64498901
239.61900330 228.06300354 480.67501831
141.72099304 222.21299744 421.21600342
237.11700439 179.22599792 423.80200195
188.61999512 161.61799622 422.49398804
168.66700745 149.16700745 392.81201172
164.93099976 217.45399475 406.27700806
153.34700012 139.55599976 494.34799194
95.06400299 174.15599060 543.64904785
141.06098938 180.28799438 388.63998413
112.42700195 134.11700439 395.90701294
146.22401428 222.20799255 414.92700195
186.86999512 117.29899597 435.71401978
178.14500427 115.70300293 462.05200195
120.30799866 215.81399536 460.09201050
271.61199951 181.15499878 427.07501221
158.42199707 134.17401123 491.29299927
191.39399719 133.00601196 427.54501343
113.96800232 186.43798828 530.17498779
100.97599792 143.40899658 541.52099609
119.75900269 203.44700623 516.37799072
97.88899994 141.82699585 520.91198730
122.44799805 111.49199677 510.37002563
171.04699707 212.53800964 486.90399170
177.17399597 180.48599243 459.69799805
187.83000183 114.83799744 422.77301025
97.80299377 176.12400818 512.68499756
130.33898926 204.95001221 506.18798828
148.83200073 115.98500061 393.39797974
128.04899597 103.40999603 399.74798584
161.76399231 92.70399475 407.02502441
98.40899658 144.34899902 508.99798584
135.61900330 119.16899872 498.43402100
134.50700378 96.34400177 405.01098633
193.79499817 142.10699463 422.77499390
240.10198975 227.66099548 443.08502197
229.64399719 215.62998962 426.22399902
114.68399811 209.78300476 480.98300171
130.56999207 82.47399902 463.85601807
104.67500305 160.14199829 403.60702515
220.88900757 230.54200745 454.82598877
110.62999725 104.11900330 479.60699463
137.38999939 156.54400635 386.07800293
185.84600830 106.58899689 436.98498535
136.72799683 216.38999939 489.17800903
138.00300598 101.13800049 494.27499390
120.16400146 127.18300629 393.22500610
180.83200073 170.76200867 398.39700317
142.49899292 227.49800110 480.43600464
178.23899841 220.25099182 429.94897461
187.95800781 227.71600342 471.80300903
192.95799255 219.11700439 502.92498779
168.00099182 133.00999451 395.81100464
124.84999847 137.67999268 388.41998291
158.03199768 213.59098816 491.08898926
94.24600220 134.04899597 433.34899902
277.16000366 206.66799927 445.40100098
103.58799744 198.81098938 467.31900024
147.48999023 224.28601074 467.00601196
219.63000488 181.04701233 421.33502197
216.61099243 228.60200500 483.68600464
178.72700500 128.58100891 463.02801514
144.39498901 200.02500916 482.91000366
176.25399780 134.81600952 400.62698364
106.48900604 191.53199768 527.32904053
159.81500244 201.71299744 489.13500977
177.05500793 155.79600525 396.18099976
161.21600342 149.50599670 388.67898560
150.50099182 221.54699707 457.62899780
148.19400024 225.29800415 425.26400757
107.13600159 202.93901062 443.89599609
253.99601746 227.55400085 465.44500732
253.41799927 215.51600647 456.09701538
109.87000275 153.97100830 397.11999512
138.71299744 79.89800262 427.04299927
94.92799377 175.41200256 452.18301392
187.38000488 204.07000732 495.32601929
263.11099243 181.45500183 432.30999756
202.41198730 170.37199402 428.00701904
136.50498962 107.40100098 496.00000000
92.92300415 166.51600647 445.17599487
173.28999329 87.45600128 420.16000366
180.27799988 105.87800598 454.98599243
182.38600159 197.87500000 459.57299805
163.09100342 206.65399170 396.21298218
155.43901062 185.22299194 479.76498413
140.60301208 120.09999847 391.73498535
161.21501160 155.37800598 470.44900513
137.55899048 108.54499817 396.09100342
112.82800293 116.10900116 513.93505859
252.03498840 205.31300354 431.78900146
193.51100159 190.84399414 410.54498291
128.35299683 217.52299500 446.55200195
117.99400330 206.10200500 505.55300903
181.03199768 202.67199707 454.64199829
143.72399902 223.82099915 434.01797485
130.63200378 192.48800659 507.12503052
112.13400269 203.93400574 490.36300659
125.54100037 170.82800293 521.37500000
177.02600098 198.63299561 454.23901367
170.33900452 89.03100586 457.94998169
224.37300110 202.91200256 475.26602173
222.48100281 173.94599915 437.54501343
204.27799988 163.53799438 454.54000854
182.84599304 163.41101074 458.98300171
182.51199341 160.20999146 452.24899292
155.87399292 171.08500671 460.10000610
165.94200134 161.03599548 490.13400269
190.18000793 182.13699341 467.23300171
141.61300659 142.06401062 500.57797241
103.44800568 185.04400635 502.56799316
140.44400024 199.00700378 393.50399780
141.76799011 154.62399292 501.34802246
187.03399658 161.93200684 438.36901855
124.68700409 161.90600586 388.27899170
190.60499573 229.72500610 464.92199707
194.32699585 168.98300171 419.61700439
101.23799896 184.85800171 493.14001465
111.19499969 195.36499023 511.58398438
153.84300232 218.10099792 405.32897949
160.28800964 103.81700134 475.67999268
191.72300720 207.49501038 417.21002197
93.20099640 126.18599701 462.84298706
180.29899597 191.29100037 476.72799683
148.87799072 171.90100098 495.09701538
245.93000793 206.31698608 454.59698486
165.59100342 127.51999664 395.85000610
110.55199432 121.60199738 521.69195557
206.91900635 170.31900024 467.74102783
163.79800415 226.35800171 430.72500610
185.44900513 106.80599976 415.55801392
155.36700439 163.32800293 386.72702026
169.26300049 229.76699829 474.12197876
180.50199890 214.14299011 420.27700806
251.85299683 224.76800537 442.59301758
102.05400085 129.46400452 409.54101562
182.40100098 185.71899414 451.74499512
217.33799744 171.62899780 458.70599365
118.29900360 169.85400391 394.26699829
90.52999878 144.17498779 463.79501343
207.60699463 216.58700562 429.60198975
130.08700562 220.63000488 487.00900269
126.30100250 217.25000000 492.53698730
214.04100037 164.01701355 427.72399902
104.48799896 200.52699280 459.63400269
138.69400024 80.11800385 461.34399414
243.77499390 218.89401245 472.54199219
173.88500977 217.69000244 483.00399780
247.11099243 173.98500061 432.92901611
98.83000183 123.51000214 484.02700806
99.19400024 127.79900360 416.50500488
116.18400574 207.61300659 430.47799683
280.95800781 193.97799683 435.90499878
130.19900513 200.63499451 513.05401611
128.12500000 151.68299866 513.82202148
92.89299774 136.35600281 451.01199341
137.24800110 226.39100647 493.27700806
107.16799927 174.28498840 406.57400513
106.75500488 152.68099976 540.71496582
102.96499634 121.16000366 496.20300293
188.76600647 183.06100464 455.58999634
266.43402100 190.76800537 427.93499756
261.50500488 198.85699463 433.55300903
224.10101318 182.07899475 459.69097900
125.40699768 196.77500916 520.42102051
135.80699158 196.87500000 395.84698486
193.58000183 169.36599731 408.10800171
210.60000610 212.27200317 499.58398438
138.63200378 79.25399780 454.64102173
90.95800018 161.71400452 464.94601440
179.87799072 189.22900391 470.97399902
136.55999756 218.60900879 450.95199585
96.75999451 151.56500244 415.74298096
129.69900513 212.18901062 414.92599487
180.96099854 96.56600189 445.27499390
182.55599976 199.72999573 490.02700806
178.49299622 207.80599976 499.33300781
104.36900330 112.18099976 479.53097534
222.09100342 217.98100281 426.84701538
140.41900635 91.76699829 490.40499878
178.08000183 224.51800537 475.48898315
222.20700073 217.18099976 497.23699951
118.01000214 211.70399475 439.32598877
174.58100891 106.92800140 462.83200073
237.83900452 217.95800781 483.18698120
100.69499969 193.54598999 447.10498047
254.29600525 180.24000549 437.57299805
284.04098511 207.02200317 440.72799683
170.42700195 84.00399780 424.45999146
249.48599243 230.46000671 461.10400391
163.04800415 115.27299500 477.26800537
176.26300049 206.80099487 404.72601318
90.85399628 136.58499146 463.88500977
186.66600037 138.34600830 445.20300293
212.02200317 159.89700317 440.50500488
134.99900818 139.57199097 385.91000366
93.78799438 156.42599487 433.20797729
170.85101318 162.49600220 459.76199341
228.86000061 174.43800354 437.24502563
134.59399414 168.28399658 388.52502441
95.43900299 176.68699646 524.46398926
152.06800842 209.79499817 489.37698364
171.28500366 89.07300568 414.83700562
246.79000854 211.81700134 458.49401855
178.69299316 151.33300781 468.88000488
178.65299988 207.69999695 460.69900513
96.96699524 176.02600098 519.05102539
255.49600220 215.76300049 436.72000122
95.03099823 176.92799377 480.48898315
201.50401306 228.51599121 475.04898071
180.87600708 190.03700256 399.95001221
217.87600708 171.29699707 420.08001709
196.13299561 221.83700562 497.46899414
160.29499817 85.28599548 467.47698975
104.38500214 189.96398926 521.87701416
189.60299683 213.95899963 507.74197388
191.41801453 138.21400452 417.76699829
228.78700256 174.21600342 446.55999756
96.68599701 117.59000397 460.23397827
114.09799957 89.48999786 440.25601196
152.50599670 156.17700195 496.43701172
100.88499451 187.68200684 483.26901245
145.15699768 161.19900513 498.72100830
179.38800049 92.93399811 419.89801025
91.44700623 160.88800049 445.29000854
130.32400513 106.21800232 502.60198975
247.27000427 192.94099426 428.74700928
181.96600342 226.27799988 472.16098022
100.10299683 191.02500916 462.06997681
140.63299561 223.55000305 470.13198853
215.02999878 229.95999146 453.29898071
269.78201294 188.68699646 436.22198486
109.61199951 103.11900330 472.42599487
121.40200043 115.24199677 396.61199951
190.06500244 194.65200806 446.87597656
154.63600159 83.56800079 416.39001465
168.16000366 109.81299591 471.42999268
154.93499756 144.23300171 388.90600586
134.38198853 199.72799683 482.44799805
101.68600464 193.77101135 467.67199707
132.71800232 87.45400238 484.44598389
227.95199585 188.95300293 423.53201294
181.12100220 158.84399414 399.11499023
202.24099731 229.95599365 455.08300781
99.81700134 122.04500580 417.16000366
95.53600311 144.17601013 539.21801758
138.15599060 221.42300415 432.03698730
193.54400635 167.73001099 431.21902466
116.72000122 212.95399475 453.09100342
237.13900757 229.83900452 456.59899902
151.93699646 90.71700287 407.88800049
119.34000397 211.57200623 494.67797852
157.02200317 156.85099792 386.82498169
188.46099854 156.74899292 413.68600464
124.03800201 216.83299255 480.02600098
123.19699860 105.89999390 506.55401611
233.88299561 225.14801025 489.40899658
99.44899750 187.89300537 472.11398315
98.49599457 152.68899536 543.83898926
192.09001160 148.03401184 412.60098267
265.47399902 213.96798706 441.46902466
144.42500305 103.07499695 487.87200928
144.42999268 210.91499329 400.08398438
175.36300659 203.72700500 490.75897217
115.40800476 205.53700256 499.54299927
183.95201111 107.14700317 446.83300781
94.13999939 166.65600586 499.01800537
141.00199890 101.72399902 400.33599854
132.92098999 159.63999939 386.73999023
168.24899292 91.13299561 463.02600098
204.12600708 164.85301208 442.64501953
151.60900879 196.44799805 484.24099731
131.28100586 219.33999634 461.90899658
90.24299622 165.78898621 544.69500732
226.62500000 174.44099426 426.58697510
237.22499084 177.06700134 439.91500854
244.64599609 222.14399719 479.35598755
135.87799072 159.24299622 504.05001831
141.62098694 214.55099487 488.04598999
187.41000366 190.46400452 477.60400391
99.36100006 136.85299683 530.65899658
183.06300354 123.39600372 449.46099854
93.84600067 140.90600586 491.26602173
143.76300049 175.33999634 497.98101807
179.82099915 144.30700684 468.74600220
166.70300293 221.35501099 414.55001831
212.79899597 189.61900330 421.15499878
266.69799805 205.18399048 446.76699829
100.35300446 162.48999023 543.96405029
159.81399536 142.14700317 390.53799438
91.97399902 145.63200378 487.93600464
196.62599182 190.96598816 477.32897949
243.30799866 203.11300659 428.50802612
190.09700012 168.71699524 463.63101196
147.64100647 77.97299957 446.34899902
236.31199646 191.16699219 426.17898560
189.04100037 175.03300476 464.55099487
231.91600037 181.66700745 423.56600952
208.50700378 224.84100342 437.01498413
169.32099915 168.19099426 476.72900391
137.11099243 185.28099060 500.17297363
210.51300049 179.92599487 416.90399170
177.25099182 221.34600830 491.77899170
239.32099915 212.42700195 426.86199951
222.87599182 172.71099854 447.90399170
160.19299316 119.06400299 394.31100464
214.12699890 169.85600281 462.59799194
275.99902344 184.87599182 427.70800781
229.23100281 200.01699829 423.80899048
246.50799561 213.65899658 432.48001099
98.02199554 133.62599182 498.31799316
195.72601318 147.76899719 420.72201538
131.01400757 92.51700592 492.08898926
115.70500183 150.56500244 391.23202515
184.91600037 112.87699890 445.92999268
189.57099915 129.93800354 432.76699829
165.53999329 227.87899780 464.04400635
162.31100464 178.91999817 474.10501099
170.61599731 199.55700684 395.76101685
189.94599915 212.76899719 422.69302368
203.19700623 185.09800720 413.62597656
243.24600220 221.07099915 434.82299805
146.15699768 216.91799927 492.72799683
106.27699280 120.86199951 509.27197266
118.91400146 108.06799316 401.27499390
162.75599670 226.68699646 443.83099365
90.87500000 159.15299988 529.91302490
182.68199158 127.69700623 407.50100708
122.21899414 87.15700531 458.50598145
96.47799683 178.53100586 448.27801514
113.25799561 197.12300110 518.41601562
100.27200317 129.59800720 501.64996338
263.29299927 212.07901001 451.35900879
129.88800049 114.13200378 503.41397095
232.73500061 216.92900085 490.35702515
254.07800293 208.87599182 451.51699829
211.73300171 198.97599792 480.18099976
93.14800262 137.87199402 485.14102173
236.19200134 179.87300110 448.86300659
272.38601685 204.24200439 436.48300171
239.95600891 175.00799561 434.26199341
136.34001160 82.29000092 423.06399536
234.49200439 214.58599854 481.04400635
195.51100159 167.74800110 437.55599976
156.84899902 227.62799072 432.58999634
168.54800415 80.50800323 434.77999878
98.46799469 111.46099854 457.11898804
212.35198975 163.05700684 447.96697998
144.52299500 221.33299255 496.20800781
160.91099548 165.59700012 490.35702515
177.52101135 133.86000061 466.61599731
91.89499664 146.16799927 456.06802368
229.33900452 229.91600037 462.26599121
167.58200073 193.59300232 391.26199341
90.95600128 151.76800537 440.93399048
104.36200714 122.86599731 408.45901489
169.22700500 204.88700867 397.78598022
126.19499969 83.53699493 456.53302002
145.38000488 78.07599640 454.10000610
131.90499878 210.46600342 483.94702148
162.43000793 88.78199768 411.28900146
204.76699829 167.06498718 464.33499146
101.37799835 107.26699829 459.93600464
174.15399170 222.91799927 435.50000000
177.94198608 125.29799652 468.12298584
185.53100586 220.87199402 498.08200073
173.42098999 187.41000366 394.43600464
190.01998901 136.79798889 439.60699463
152.31799316 213.27899170 400.17199707
170.87300110 212.23400879 493.30599976
138.19200134 135.53500366 501.86502075
207.63800049 164.35499573 458.37399292
167.35899353 100.95999908 468.03799438
92.47999573 141.61500549 437.34899902
149.95799255 227.64498901 495.22702026
170.38400269 197.91500854 483.86199951
147.19000244 220.46299744 453.22100830
173.20098877 115.80699921 469.29202271
98.39299774 162.93099976 414.51699829
152.39399719 224.73600769 444.19198608
162.48600769 170.30101013 457.28201294
98.68099976 171.88600159 419.03201294
201.81800842 206.93400574 423.99499512
178.14199829 157.61500549 467.38299561
242.75498962 229.81700134 455.93499756
160.58099365 153.89799500 493.90301514
93.62799835 157.22900391 500.98400879
170.20899963 216.68200684 478.25000000
160.66700745 194.21899414 486.68301392
128.71099854 167.98800659 518.50500488
188.92799377 161.44999695 409.85400391
285.43200684 210.02299500 450.56701660
192.79600525 153.11199951 412.37701416
166.47399902 95.46800232 405.98498535
250.76800537 200.07400513 431.32400513
143.16900635 146.50000000 386.11401367
126.77300262 186.17500305 516.51800537
159.08700562 109.51399994 397.92401123
175.29100037 85.89099884 431.39599609
112.04899597 98.79899597 415.13699341
91.10900116 147.06900024 482.35299683
176.57199097 180.44699097 395.90499878
172.01100159 226.27900696 443.60797119
163.59399414 142.84100342 491.97900391
123.82700348 202.16600037 521.61297607
141.35800171 86.49200439 484.09597778
179.97799683 168.05699158 460.11999512
135.25498962 209.69200134 404.73397827
248.03399658 177.14799500 436.80599976
201.83299255 197.02301025 483.47698975
192.68701172 185.45599365 470.15899658
229.00199890 227.47599792 485.19900513
120.95400238 86.82800293 445.69299316
151.75599670 96.43399811 481.95202637
120.33099365 120.27099609 515.44396973
123.20200348 210.34899902 507.43002319
182.39300537 181.46400452 461.11898804
218.97299194 228.67900085 443.50100708
162.42500305 171.95799255 470.63601685
107.11399841 184.68299866 413.11099243
243.33601379 229.97898865 466.85000610
130.05000305 118.29499817 393.68899536
196.69799805 172.42700195 470.56900024
107.31499481 191.67399597 418.45199585
262.79000854 217.05000305 453.63800049
195.22399902 214.46899414 428.06301880
213.56800842 195.88699341 473.97900391
165.50601196 160.10899353 390.48599243
144.61499023 78.10000610 435.58898926
205.68600464 229.51600647 448.82199097
182.48300171 114.25899506 453.33499146
211.20401001 178.86799622 464.83099365
218.80400085 172.69499207 427.74200439
158.47698975 77.57900238 435.18499756
116.77899933 160.63999939 392.93399048
143.80999756 175.54299927 388.57400513
101.71599579 103.69099426 445.98599243
187.89599609 188.66500854 405.46200562
122.33399963 93.58700562 484.75799561
140.33601379 78.93600464 444.69198608
163.06300354 210.86900330 398.99298096
117.16000366 99.18000031 486.70898438
155.04499817 145.35699463 496.29901123
138.85900879 166.40199280 500.12500000
157.66300964 229.61599731 486.74600220
248.59899902 229.81700134 471.68099976
159.64601135 173.79899597 475.44400024
132.14500427 80.00499725 435.92001343
171.16500854 86.31700134 453.31900024
118.16500092 90.68500519 453.61300659
198.93800354 225.65600586 486.22198486
150.56799316 78.61799622 461.84899902
87.72200012 168.61599731 540.17199707
101.61499786 182.38099670 512.46899414
99.05000305 176.19499207 540.82397461
93.67299652 174.34098816 463.88098145
156.92601013 174.66799927 485.03399658
149.07998657 120.55099487 487.30902100
150.88699341 140.26300049 388.80300903
251.91400146 192.30101013 446.46798706
125.37199402 151.07600403 388.79699707
138.34098816 221.43299866 427.02697754
232.72200012 209.60299683 426.20797729
92.29399872 155.81401062 544.51501465
95.09600067 152.18899536 521.38604736
129.55799866 81.53700256 441.06399536
164.99499512 81.45999908 426.85000610
154.80099487 79.87699890 424.31198120
116.41299438 176.78999329 529.85296631
111.60299683 91.92700195 429.73199463
231.76899719 175.47399902 441.21398926
164.40100098 92.52500153 468.51199341
184.42399597 100.84199524 420.91900635
204.79899597 190.76899719 472.92199707
137.01300049 194.53700256 481.85101318
268.64099121 214.36799622 445.30697632
120.36599731 172.09500122 526.54394531
218.31298828 166.96800232 431.35897827
144.55400085 90.85700226 408.30401611
175.85400391 145.81300354 480.44799805
178.22100830 198.90899658 400.98898315
142.05400085 170.42199707 458.28802490
246.96699524 173.80300903 427.09899902
173.44699097 161.36599731 482.71499634
256.75698853 174.01699829 429.39099121
172.84298706 177.43299866 393.43899536
219.48599243 212.79100037 492.19702148
109.62400055 204.23500061 479.25799561
172.23500061 95.74499512 459.99301147
228.26300049 185.15400696 459.35501099
186.73100281 112.39700317 434.98001099
130.46499634 206.27200317 513.81805420
112.22799683 150.83000183 535.73498535
91.72900391 151.47599792 493.59802246
134.71199036 88.91799927 412.32498169
143.89500427 183.23800659 490.99200439
123.95100403 189.35400391 400.02398682
98.74800110 119.01599884 434.48199463
137.92799377 111.93399811 494.26998901
219.67199707 229.90499878 472.02301025
193.06900024 207.26899719 499.31298828
194.12899780 221.59300232 435.78900146
121.90100098 179.55101013 396.06799316
105.11799622 112.72999573 484.42398071
134.82600403 201.34001160 399.02499390
166.81799316 172.16700745 460.41198730
106.23799896 150.46900940 399.88699341
115.23600006 89.30300140 427.26699829
119.53599548 190.60101318 403.56298828
95.89800262 167.36100769 431.01000977
117.28300476 212.91799927 448.14102173
117.07299805 131.59100342 393.71301270
160.64399719 125.52900696 485.23501587
192.00700378 139.11099243 431.16998291
111.84000397 107.20200348 495.25299072
103.78299713 195.26599121 479.24200439
112.87599945 209.53700256 447.81399536
151.91101074 152.85000610 386.16497803
127.61700439 219.75700378 474.92599487
94.81800079 131.96400452 438.38302612
90.21200562 160.39698792 455.41098022
106.38600159 195.49499512 487.85998535
129.83999634 205.70799255 407.29498291
208.04899597 183.16699219 466.07598877
232.05299377 199.15499878 461.48898315
168.30900574 179.40699768 470.37802124
111.15100098 208.33599854 461.04498291
122.86999512 217.29199219 464.67300415
260.41400146 181.04000854 422.78500366
187.92100525 201.83900452 409.96997070
183.88398743 137.98199463 449.48300171
115.28500366 191.72000122 408.78601074
243.77700806 229.01499939 450.77899170
100.31499481 124.45999908 493.75997925
191.65701294 193.00801086 454.13198853
247.33000183 218.49499512 465.23098755
104.40100098 125.35700226 513.31103516
206.39599609 180.57200623 414.36599731
215.44599915 193.70899963 470.03900146
118.46800232 203.24800110 417.31900024
189.40299988 126.12199402 419.09600830
108.59099579 114.34199524 502.13699341
233.90100098 194.17401123 459.00900269
95.28200531 154.74000549 505.88500977
285.11999512 196.36399841 432.54797363
207.02200317 209.22000122 425.51602173
196.99700928 195.10699463 482.81500244
165.72000122 230.48600769 481.88098145
184.05899048 121.32199860 407.46099854
98.47200012 176.43399048 497.86401367
206.25700378 174.54800415 471.00000000
167.68800354 82.56100464 450.60198975
102.08699799 180.77500916 537.84899902
133.19799805 186.01399231 392.89901733
164.23199463 168.58898926 466.29598999
229.15199280 220.59999084 496.24099731
219.24600220 219.35899353 500.39297485
219.96800232 197.61199951 470.79501343
194.33900452 230.51600647 460.22900391
181.52398682 92.79900360 430.15701294
176.55099487 109.50000000 403.37899780
114.57800293 199.72399902 509.68099976
133.15199280 98.01799774 497.86401367
96.26699829 176.12500000 443.36102295
94.82399750 167.53601074 438.24099731
106.81100464 130.97900391 531.31994629
251.52200317 186.51300049 426.10202026
179.49398804 127.53599548 458.37799072
129.55999756 217.08200073 435.40600586
141.90100098 110.66899872 489.50100708
189.31199646 201.61299133 491.65200806
113.15200043 96.31499481 460.87701416
93.82600403 163.13200378 503.03500366
259.07702637 197.03700256 445.66101074
156.47799683 198.69400024 391.14901733
126.75100708 206.46800232 495.12100220
156.68399048 80.55500031 462.59497070
164.98699951 84.57600403 460.54199219
184.91299438 131.99099731 409.48199463
116.48500061 98.03199768 480.64999390
106.81600189 191.33499146 500.98501587
98.67099762 109.85299683 449.25399780
121.57599640 198.71200562 408.47201538
132.99200439 84.33999634 474.07000732
104.42200470 188.71800232 420.96499634
133.82199097 218.44099426 440.91098022
115.56999969 182.68600464 402.41000366
144.59500122 131.32000732 388.44100952
131.51000977 176.26098633 390.53298950
119.26999664 149.01599121 527.19494629
264.60998535 211.08500671 437.32501221
90.31300354 155.56498718 452.73101807
170.25599670 148.73300171 487.80798340
283.83200073 202.83601379 438.09802246
201.65899658 201.67199707 421.20599365
174.79400635 154.06700134 483.07498169
147.32499695 202.62899780 393.32800293
96.98799896 180.48199463 434.82800293
137.27299500 148.44499207 502.38000488
142.69999695 190.64801025 391.37597656
178.69900513 193.93399048 480.38900757
115.11400604 141.33399963 529.96600342
91.48299408 177.48800659 540.88098145
101.03199768 194.94900513 457.48901367
93.80400085 168.79600525 491.04800415
267.09399414 214.90800476 450.71301270
152.29399109 225.39399719 467.76101685
231.70100403 208.55499268 475.22601318
148.51699829 187.95999146 478.33300781
177.34600830 204.86499023 494.94400024
211.90699768 199.03300476 423.65399170
181.42401123 111.48600006 406.00500488
184.81600952 99.10299683 427.75198364
104.53099823 99.25500488 437.04299927
155.35099792 227.43199158 438.30099487
103.90100098 198.75900269 443.93701172
172.95700073 180.70698547 468.43200684
113.64900208 108.41600037 503.41302490
114.15299988 157.48399353 533.81701660
113.28099823 118.44900513 518.14697266
182.31500244 138.88600159 405.20999146
126.48600006 115.11299896 507.25399780
183.21501160 205.18901062 410.09399414
116.58399963 101.07800293 493.52301025
223.35099792 209.85099792 485.62301636
133.12699890 138.73500061 506.44100952
261.14401245 215.98599243 442.05499268
124.20500183 216.25199890 450.45300293
104.60900116 114.79100037 488.82998657
91.32800293 151.01300049 533.60101318
114.63400269 101.17500305 408.14999390
226.60600281 223.90000916 493.99798584
281.64602661 185.60699463 424.70300293
166.34201050 225.04299927 435.35101318
165.01699829 197.92300415 391.79299927
187.21200562 188.03100586 453.70901489
212.72500610 229.12199402 477.77398682
168.30700684 221.93699646 482.02301025
140.82099915 93.75099945 406.15499878
143.34001160 87.32599640 412.16702271
204.56700134 219.24200439 502.60800171
129.92700195 158.66699219 514.22900391
127.20000458 125.73600006 509.32501221
165.56799316 113.58699799 398.83700562
167.46699524 159.96000671 462.17901611
236.56399536 175.64801025 430.61102295
155.92298889 221.53300476 494.04998779
167.36100769 120.58200073 477.97598267
92.14799500 159.56999207 492.51199341
161.09700012 160.99398804 467.14898682
186.92700195 196.26300049 406.98199463
148.98901367 97.61500549 402.18798828
104.55200195 121.49900055 504.35800171
119.80899811 95.09700012 411.23199463
149.48800659 77.55800629 432.54501343
138.09500122 225.65899658 480.67501831
128.36100769 133.53199768 388.46099854
100.68900299 185.56800842 522.55303955
124.09600067 202.85198975 409.36801147
169.88598633 164.71501160 468.70300293
130.34799194 200.15499878 488.06399536
140.30999756 219.60600281 454.09201050
179.69299316 97.55699921 449.68099976
100.51000214 108.64699554 438.85601807
143.34201050 165.41899109 459.40200806
96.68599701 134.28799438 419.82400513
179.79598999 90.92299652 437.82400513
116.57199860 95.85200500 473.40802002
105.88300323 118.44200134 408.65499878
94.00700378 125.53699493 469.69299316
164.01800537 85.75900269 415.76498413
103.55900574 111.49199677 416.38400269
140.41699219 96.83699799 492.00601196
157.39900208 117.08200073 480.93200684
163.49501038 131.87199402 488.07998657
220.11599731 171.42500305 442.03298950
173.49499512 225.58799744 479.98800659
117.27099609 168.44500732 530.73400879
203.42401123 217.64700317 431.38699341
200.02799988 173.50399780 416.16400146
241.52900696 207.63200378 426.85400391
123.53400421 205.52299500 518.16699219
185.73799133 148.85499573 437.15200806
173.98500061 89.97700500 452.68197632
95.74200439 119.15899658 455.94598389
256.00601196 189.16999817 428.03500366
128.99499512 123.09700012 390.99697876
130.52799988 193.83900452 502.53100586
95.27099609 148.32099915 424.73797607
197.82899475 184.57398987 409.78900146
239.07899475 214.71199036 473.13101196
175.66398621 201.93299866 463.89801025
176.56700134 162.06599426 476.28799438
186.18998718 162.87300110 444.40798950
138.22200012 164.28500366 385.97299194
229.26199341 228.82499695 480.32901001
167.93499756 133.16200256 485.41799927
145.94799805 227.73799133 477.33398438
231.83399963 192.33399963 425.80899048
118.66900635 186.05500793 525.91094971
193.91099548 199.29200745 489.48199463
147.63101196 225.34201050 432.02999878
183.29598999 153.78999329 441.70199585
183.89799500 103.23699951 444.25601196
242.41299438 188.82499695 426.29000854
172.17199707 229.14299011 467.30200195
96.69899750 118.44900513 446.90298462
287.66302490 190.95500183 426.76800537
99.93500519 150.16500854 405.94000244
132.54000854 149.77600098 386.19500732
119.23299408 213.74400330 476.50598145
98.00799561 148.84799194 510.72103882
222.58299255 194.90299988 423.56399536
162.23399353 165.79499817 456.31900024
150.89599609 77.42299652 441.71200562
235.79899597 186.04699707 455.38101196
113.62699890 141.37699890 393.77099609
109.19300079 193.72799683 524.31298828
92.30899811 167.24600220 472.73300171
164.45300293 218.43600464 488.58898926
271.18600464 199.14700317 442.90701294
166.42199707 125.15899658 481.50100708
185.19200134 215.59100342 424.35501099
122.22100067 100.00000000 404.06298828
102.20000458 168.21398926 542.13500977
181.19099426 229.80900574 452.17199707
208.53599548 161.44000244 431.56399536
98.10099792 184.37500000 450.21701050
130.36898804 142.81100464 385.96401978
102.21199799 138.80999756 537.63903809
204.15599060 180.98300171 469.83001709
101.09700012 157.10000610 407.18600464
214.83500671 229.86300659 463.77499390
257.30499268 225.52000427 454.98300171
104.34199524 128.76799011 525.93395996
230.45500183 209.77999878 479.75500488
167.33000183 151.42799377 490.06597900
143.48199463 216.12599182 407.03698730
124.94400024 84.37400055 452.15600586
157.98200989 135.26600647 391.13500977
156.34899902 171.03900146 489.67700195
172.78799438 131.55099487 480.17098999
90.71300507 158.11100769 474.26797485
171.43699646 99.37900543 463.04800415
96.35400391 166.07899475 425.27700806
136.54100037 220.43099976 461.69400024
105.05899811 167.04699707 405.18600464
123.00000000 96.72900391 493.14099121
244.44200134 186.58900452 449.20700073
184.69500732 194.77499390 449.49700928
175.03898621 187.62500000 472.79901123
258.11300659 218.70700073 456.02398682
145.90299988 145.18800354 498.67098999
147.80700684 138.91400146 496.36599731
124.28999329 217.78399658 469.75201416
100.53300476 186.84800720 530.49499512
242.39300537 194.99200439 453.80700684
180.95300293 151.33200073 455.52301025
153.23899841 135.14498901 389.46597290
139.43399048 174.79800415 501.45101929
216.71299744 165.88999939 449.48599243
174.26000977 85.22100067 442.22900391
157.35598755 184.06700134 388.67300415
93.92700195 146.25599670 430.95098877
135.57699585 129.90499878 502.76501465
251.92100525 187.85000610 444.27999878
93.24699402 130.47300720 453.57299805
107.15200043 203.07000732 471.01901245
199.29598999 224.44898987 491.60098267
176.41499329 86.66400146 436.96600342
179.49501038 180.65499878 464.81100464
187.30300903 141.75799561 409.95401001
96.41200256 123.18000031 476.97000122
140.36401367 141.12500000 386.16601562
273.95401001 211.27600098 447.41500854
190.21000671 229.50300598 448.51602173
172.68400574 208.29800415 402.02099609
95.36000061 156.60000610 426.57797241
189.49299622 165.35699463 446.65399170
154.62901306 90.10499573 477.66198730
150.46000671 210.28399658 397.30099487
108.37899780 190.22900391 531.38897705
118.92399597 92.46800232 471.04800415
133.49699402 83.10800171 469.31900024
148.00000000 226.50100708 473.32501221
164.36099243 168.11999512 389.26397705
119.73000336 153.60400391 391.04501343
97.13600159 120.44799805 442.39498901
163.77499390 213.96400452 402.19598389
109.98699951 95.41100311 427.36700439
124.85200500 99.55000305 499.89898682
191.21499634 166.22099304 417.88900757
203.55799866 200.58000183 488.13800049
151.11000061 108.48400116 395.93600464
125.61599731 143.63800049 388.85699463
153.62500000 223.79000854 414.67098999
107.02499390 114.12200165 409.13900757
96.12999725 182.93099976 530.23101807
102.87000275 185.36500549 535.10400391
219.96499634 180.17298889 461.58798218
227.22200012 210.48100281 423.52499390
231.71900940 229.85998535 472.20501709
107.67699432 200.00700378 429.26898193
247.54899597 192.49301147 449.42901611
180.31199646 122.88300323 454.69000244
133.45399475 143.20799255 506.32797241
239.85398865 207.47500610 461.22000122
189.97299194 167.34700012 458.12298584
187.23100281 109.59999847 422.88800049
257.28298950 204.93499756 433.83599854
92.00900269 142.85400391 445.92401123
231.15600586 219.18099976 428.49600220
103.36600494 106.65400696 431.30697632
195.52500916 167.03900146 444.42599487
213.97100830 208.56100464 490.74102783
188.22898865 194.05200195 482.44000244
94.50199890 122.98500061 459.99899292
186.71199036 219.65199280 430.67199707
207.53700256 199.66700745 422.33099365
179.22698975 122.66000366 460.36999512
223.56199646 173.73100281 430.69198608
131.70300293 191.89100647 498.14401245
128.72200012 156.19100952 388.45397949
123.58200073 207.93501282 417.43600464
116.69100189 210.03800964 491.24099731
149.28500366 78.73500061 427.92498779
91.35800171 132.48300171 460.06900024
176.81999207 171.86599731 458.84201050
